/* XPM */
static char *result[] = {
/* columns rows colors chars-per-pixel */
"80 80 249 2 ",
"   c gray1",
".  c #080605",
"X  c gray5",
"o  c #160E0B",
"O  c #131313",
"+  c gray11",
"@  c #2B1309",
"#  c #311305",
"$  c #38190A",
"%  c #291513",
"&  c #31261F",
"*  c #383818",
"=  c gray14",
"-  c #2A2420",
";  c #2C2C2C",
":  c #342B26",
">  c #392533",
",  c #333434",
"<  c #373839",
"1  c #481C04",
"2  c #511E03",
"3  c #572308",
"4  c #482617",
"5  c #4A2E13",
"6  c #5A2814",
"7  c #692A08",
"8  c #782D03",
"9  c #632816",
"0  c #6A3418",
"q  c #763613",
"w  c #4B2929",
"e  c #582929",
"r  c #573C2B",
"t  c #47263B",
"y  c #5A2B37",
"u  c #6D3726",
"i  c #642E38",
"p  c #673438",
"a  c #64401B",
"s  c #494928",
"d  c #54492A",
"f  c #4F502F",
"g  c #594739",
"h  c #555434",
"j  c #5B5B3A",
"k  c #6C4C35",
"l  c #4E2742",
"z  c #582C47",
"x  c #5D3049",
"c  c #662F4C",
"v  c #63324D",
"b  c #6A344A",
"n  c #77394C",
"m  c #6A3453",
"M  c #6C3554",
"N  c #743655",
"B  c #733A55",
"V  c #723758",
"C  c #753A5A",
"Z  c #7B3C5D",
"A  c #7D3E61",
"S  c #684546",
"D  c #665746",
"F  c #6A564A",
"G  c #73514F",
"H  c #7C4358",
"J  c #646343",
"K  c #696645",
"L  c #6B6C4B",
"P  c #756747",
"I  c #766955",
"U  c #747453",
"Y  c #7B7B5A",
"T  c #873506",
"R  c #883D11",
"E  c #8F4113",
"W  c #994819",
"Q  c #A24F1E",
"!  c #984D23",
"~  c #8E5031",
"^  c #8A5839",
"/  c #A65323",
"(  c #AA5829",
")  c #B15E2D",
"_  c #AA5E34",
"`  c #B55B37",
"'  c #976337",
"]  c #B3602F",
"[  c #AB6439",
"{  c #B56333",
"}  c #B86739",
"|  c #BD6B3A",
" . c #C3543C",
".. c #C16E3D",
"X. c #C3703F",
"o. c #943A4E",
"O. c #843C57",
"+. c #A63E4F",
"@. c #813F61",
"#. c #8F5146",
"$. c #87455B",
"%. c #9A435B",
"&. c #9B5856",
"*. c #A74357",
"=. c #AC4153",
"-. c #B84657",
";. c #B35152",
":. c #8F6D50",
">. c #BD6942",
",. c #B77447",
"<. c #AC7250",
"1. c #844163",
"2. c #8B4466",
"3. c #8C456A",
"4. c #8F4868",
"5. c #974766",
"6. c #90476A",
"7. c #944A6B",
"8. c #90576A",
"9. c #964A71",
"0. c #9C4D74",
"q. c #AA4D6E",
"w. c #B44B66",
"e. c #B85169",
"r. c #A64E73",
"t. c #A65176",
"y. c #A5527B",
"u. c #AA557B",
"i. c #B7577A",
"p. c #B3597B",
"a. c #8F6D6B",
"s. c #AD7F6E",
"d. c #C34C5C",
"f. c #C94E5F",
"g. c #CF5A54",
"h. c #C46A47",
"j. c #C57443",
"k. c #C67748",
"l. c #CB7B4C",
"z. c #D17E4C",
"x. c #D7645A",
"c. c #C97753",
"v. c #CD7C52",
"b. c #CF745A",
"n. c #C84F61",
"m. c #D24E60",
"M. c #CE5263",
"N. c #C65568",
"B. c #D75666",
"V. c #E65B6B",
"C. c #EE5D6E",
"Z. c #D46F6A",
"A. c #D96575",
"S. c #E86777",
"D. c #FE6373",
"F. c #F86979",
"G. c #E97074",
"H. c #7F805F",
"J. c #B4835A",
"K. c #888868",
"L. c #968D6C",
"P. c #979777",
"I. c #999674",
"U. c #B99167",
"Y. c #CC8354",
"T. c #D48454",
"R. c #D28957",
"E. c #D6875A",
"W. c #D58B5C",
"Q. c #E38F5D",
"!. c #DB8865",
"~. c #DD9364",
"^. c #D1926D",
"/. c #DA9869",
"(. c #E38A6A",
"). c #E69666",
"_. c #E2946B",
"`. c #E49B6A",
"'. c #E68B74",
"]. c #E89774",
"[. c #EC9D7B",
"{. c #F1977C",
"}. c #D2A776",
"|. c #DBA877",
" X c #E5A573",
".X c #E9A674",
"XX c #EAA677",
"oX c #EDAB7A",
"OX c #F1A677",
"+X c #F1AD7C",
"@X c #EBB07D",
"#X c #BF5A80",
"$X c #C25A82",
"%X c #E87B8B",
"&X c #F77686",
"*X c #FC7C8C",
"=X c #EE7F90",
"-X c #A8A888",
";X c #AFB090",
":X c #B5B694",
">X c #B4B2A0",
",X c #F58487",
"<X c #F59B82",
"1X c #F89B85",
"2X c #F0928D",
"3X c #F58594",
"4X c #FE8494",
"5X c #FF8C9C",
"6X c #EEA484",
"7X c #F3A785",
"8X c #F5AA8C",
"9X c #ECB684",
"0X c #F5B483",
"qX c #F8B685",
"wX c #F6B889",
"eX c #F5BC8B",
"rX c #F7AC93",
"tX c #F7B795",
"yX c #FE8FA0",
"uX c #FA98A8",
"iX c #F9AEAA",
"pX c #FCA7B8",
"aX c #EEC28C",
"sX c #F5C18E",
"dX c #EDC691",
"fX c #F6C593",
"gX c #F9C493",
"hX c #F5CB95",
"jX c #F8CB97",
"kX c #F6CD9A",
"lX c #F6D39D",
"zX c #F8D19D",
"xX c #C6C7A8",
"cX c #F8CDA2",
"vX c #F7D7A1",
"bX c #F9D5A2",
"nX c #F7DDA4",
"mX c #F8DCA5",
"MX c #FADDAB",
"NX c #F8E0A7",
"BX c #F9E1AA",
"VX c #FCE7B3",
"CX c #FFEEBC",
"ZX c #FFF1BF",
"AX c #FFAFC1",
"SX c #FFB3C4",
"DX c #FFB8C9",
"FX c #D2D2C5",
"GX c None",
/* pixels */
"GXGXGXGXGXGXGXGXGXGXGXGXGXGXGXGXGXGXGXGXGXGXGXGXGXGXGXGXGXGXGXGXGXGXGXGXGXGXGXGXGXGXGXGXGXGXGXGXGXGXGXGXGXGXGXGXGXGXGXGXGXGXGXGXGXGXGXGXGXGXGXGXGXGXGXGXGXGXGXGX",
"GXGXGXGXGXGXGXGXGXGXGXGXGXGXGXGXGXGXGXGXGXGXGXGXGXGXGXGXGXO + O   O O X + + GXGX+ + + O GXGXGXGXGXGXGXGXGXGXGXGXGXGXGXGXGXGXGXGXGXGXGXGXGXGXGXGXGXGXGXGXGXGXGXGX",
"GXGXGXGXGXGXGXGXGXGXGXGXGXGXGXGXGXGXGXGXGXGXGXGXGXGXX + ; , < , + + = + , < ; O ; < < , + GXGXGXGXGXGXGXGXGXGXGXGXGXGXGXGXGXGXGXGXGXGXGXGXGXGXGXGXGXGXGXGXGXGXGX",
"GXGXGXGXGXGXGXGXGXGXGXGXGXGXGXGXGXGXGXGXGXGXGXGXGXGX= < < < < < < , , < < < < = + ; < < , = + ; ; O     GXGXGXGXGXGXGXGXGXGXGXGXGXGXGXGXGXGXGXGXGXGXGXGXGXGXGXGX",
"GXGXGXGXGXGXGXGXGXGXGXGXGXGXGXGXGXGXGXGXGXGXGXGXGXGX= < , ; ; + + = , < < < < , O X + + + = , ; + O GXGXGXGXGXGXGXGXGXGXGXGXGXGXGXGXGXGXGXGXGXGXGXGXGXGXGXGXGXGX",
"GXGXGXGXGXGXGXGXGXGXGXGXGXGXGXGXGXGXGXGXGXGXX + = ; < ; = = ; , , < < < < < < < < < , , ; O O O X   GXGX  GXGXGXGXGXGXGXGXGXGXGXGXGXGXGXGXGXGXGXGXGXGXGXGXGXGXGX",
"GXGXGXGXGXGXGXGXGXGXGXGXGXGXGXGXGXGXGXGXGX+ , < < < , + , < < < < < < < < < , : : = , : #.:.: X O X X   GXGXGXGXGXGXGXGXGXGXGXGXGXGXGXGXGXGXGXGXGXGXGXGXGXGXGXGX",
"GXGXGXGXGXGXGXGXGXGXGXGXGXGXGXGXGXGXGXGXGX= < < < < + ; < < < < < < < , ; : r ^ k + = <.gXgX/.4 X O O X   GXGXGXGXGXGXGXGXGXGXGXGXGXGXGXGXGXGXGXGXGXGXGXGXGXGXGX",
"GXGXGXGXGXGXGXGXGXGXGXGXGXGXGXGXGXGX  . O , < < < ; + , < < < ; - : : r ^ Y.:.:.P P :.|.9X@XgX<.X O X X   GXGXGXGXGXGXGXGXGXGXGXGXGXGXGXGXGXGXGXGXGXGXGXGXGXGXGX",
"GXGXGXGXGXGXGXGXGXGXGXGXGXGXGXGXGXGXGX+ , , = ; ; = , , , , ; 1 [ c.^.oXeXeX|.J.<.^ 0 r k ' <.J.# .   GXGXGXGXGXGXGXGXGXGXGXGXGXGXGXGXGXGXGXGXGXGXGXGXGXGXGXGXGX",
"GXGXGXGXGXGXGXGXGXGXGXGXGXGXGXGXGXGXGXGXX X   X + : w r r r 6 ! E.).eXgXfXfXY.Y.^ p k U.|. Xu 4 o   GXGXGXGXGXGXGXGXGXGXGXGXGXGXGXGXGXGXGXGXGXGXGXGXGXGXGXGXGXGX",
"GXGXGXGXGXGXGXGXGXGXGXGXGXGXGXGXGXGXGXGXGXGXJ.U.U.}.aXhX@X`.~.) ( 9XfXfXeX].( ].[.+XwXwX0XjX' o     GXGXGXGXGXGXGXGXGXGXGXGXGXGXGXGXGXGXGXGXGXGXGXGXGXGXGXGXGXGX",
"GXGXGXGXGXGXGXGXGXGXGXGXGXGXGXGXl.k.Y.k.Y.~.+XeXaXhXmXlXwXOX[.].( 9XgX0X].} k.7XqX+XY.l.W.|.~ . GXGXGXGXGXGXGXGXGXGXGXGXGXGXGXGXGXGXGXGXGXGXGXGXGXGXGXGXGXGXGXGX",
"GXGXGXGXGXGXGXGXGXGXGXGXGX X9XbXMXMXBXvXkXlXbXhXdXdXfX7X[.'.'.'.( Y.].].b.( XXqX~.j.[ ^ q GXGXGXGXGXGXGXGXGXGXGXGXGXGXGXGXGXGXGXGXGXGXGXGXGXGXGXGXGXGXGXGXGXGXGX",
"GXGXGXGXGXGXGXGXGXGXGX_.tXbXCXZXZXZXCXVXVXVXCXZXZXZXCXVXkXwX'.(.b.E { !.(.h.>.T.`. X`.W.{ GXGXGXGXGXGXGXGXGXGXGXGXGXGXGXGXGXGXGXGXGXGXGXGXGXGXGXGXGXGXGXGXGXGXGX",
"GXGXGXGXGXGXGXGXGX} T.tXtXcXMXVXCXCXMXmXVXCXCXCXZXZXCXCXVXBX9X~.b./ ) } !.(.(.(.(.!.h.Q GXGXGXGXGXGXGXGXGXGXGXGXGXGXGXGXGXGXGXGXGXGXGXGXGXGXGXGXGXGXGXGXGXGXGXGX",
"GXGXGXGXGXGXGXGX( ~.E.9XjXfXjXvXnXlXeXmXVXCXCXCXVXVXVXNXnXnXNX9XZ.h.h.` ( { } >.>.} Q GXGXGXGXGXGXGXGXGXGXGXGXGXGXGXGXGXGXGXGXGXGXGXGXGXGXGXGXGXGXGXGXGXGXGXGXGX",
"GXGXGXGXGXGXGX,.].tXdXlXnXnXnXnXnXvXjXwXdXNXNXNXnXnXnXnXnXlXjX0X_.2Xx.h.W.>.W GXGXGXGXGXGXGXGXGXGXGXGXGXGXGXGXGXGXGXGXGXGXGXGXGXGXGXGXGXGXGXGXGXGXGXGXGXGXGXGXGX",
"GXGXGXGXGXGX!.tXcXmXnXnXnXnXnXnXNXnXnXeX~.@XfXaXhXzXlXkXsXwX0XOX0X9X2X3X6X X/.] GXGXGXGXGXGXGXGXGXGXGXGXGXGXGXGXGXGXGXGXGXGXGXGXGXGXGXGXGXGXGXGXGXGXGXGXGXGXGXGX",
"GXGXGXGXGX>.tXbXmXlXvXnXvXlXkXfXhXlXjX6X`.9XhXaX`..X0XqX0X+XOX+XsXlX9XiXuX2X<X7X Xj.GXGXGXGXGXGXGXGXGXGXGXGXGXGXGXGXGXGXGXGXGXGXGXGXGXGXGXGXGXGXGXGXGXGXGXGXGXGX",
"GXGXGXGXX.XXbXfX0XlXnXnXnXnXvXkXeXXX_.aXvXNXvXtX8XT.l.OX.XoXaXlXnXNX9XiXSXuX%XG.,X(.].W.{ GXGXGXGXGXGXGXGXGXGXGXGXGXGXGXGXGXGXGXGXGXGXGXGXGXGXGXGXGXGXGXGXGXGXGX",
"GXGXGXGX!.kXfX[.8XlXNXnXnXnXnXnXnXjX9X XeXfX8XrX8Xj.k.6XtXlXNXnXnXNX0XiXAXuXA.N.3XpXuX5X,XDXGXGXGXGXGXGXGXGXGXGXGXGXGXGXGXGXGXGXGXGXGXGXGXGXGXGXGXGXGXGXGXGXGXGX",
"GXGXGXGX XNX9X].OX@XfXkXvXvXnXnXnXnXnX9XT.].rX[.l.} v.rXrXtXjXvXlXtXuXSXDXDXA.A.A.pXDXAXyXpXDXGXGXGXGXGXGXGXGXGXGXGXGXGXGXGXGXGXGXGXGXGXGXGXGXGXGXGXGXGXGXGXGXGX",
"GXGXGX| hXvXW.l._.@XaXfXgXfXlXvXnXnXnXnX Xj.l.k.E.[.v.Y.7XrXrX2X{.S.3XpXSXSXuX%X%XpXpXpX*XyXSXSXGXGXGXGXGXGXGXGXGXGXGXGXGXGXGXGXGXGXGXGXGXGXGXGXGXGXGXGXGXGXGXGX",
"GXGXGX,.mXvXW.l.7XtXkXnXvXvXvXlXlXvXmXnXlX Xk.6XrXrXrX!.v./.Z.S.S.f.M.&X4X*X*X=X=XF.S.%XF.F.uXSXuXGXGXGXGXGXGXGXGXGXGXGXGXGXGXGXGXGXGXGXGXGXGXGXGXGXGXGXGXGXGXGX",
"GXGXGX} tXkXfX_._.6X8XtXlXmXnXnXvXvXlXvXlXlXwX+X8XrX7X'.Z.x.B.F.M.B.B.f.&X*X4X3X3X*XF.*X*XF.&X5X5X,XW.`.GXGXGXGXGXGXGXGXGXGXGXGXGXGXGXGXGXGXGXGXGXGXGXGXGXGXGXGX",
"GXGXGXGX_.rXtXrX[._.[.6X8XtXlXvXnXnXnXnXnXnXlX}.:.#.;.S.=X4X4X&XF.S.A.S.5X5X5X5X5X*Xn.n.S.*X&X&X&X4X1XsXwX+XoXGXGXGXGXGXGXGXGXGXGXGXGXGXGXGXGXGXGXGXGXGXGXGXGXGX",
"GXGXGXGX>.E.].[.7X6X[.].[.6X7XtXfXvXmXNXmX}.L.K.;X-X:.s.2XZ.,X4X&X4X4X4X4X4X4X4X4X4XA.-.B.5X5X5X&XF.,XfXfXfXfXeX+XGXGXGXGXGXGXGXGXGXGXGXGXGXGXGXGXGXGXGXGXGXGXGX",
"GXGXGXGXGXGXW k.]._._.[.6X6X8XrXrX8XtXeXJ.P.-XP.-X-XP.xX-Xj ~ b._.{.{.{.7XrXrX8X].'.Z.g.B.&X4X5X5X&X].fXfXfXfXfXfXwX`.GXGXGXGXGXGXGXGXGXGXGXGXGXGXGXGXGXGXGXGXGX",
"GXGXGXGXGXGXGXGX>.W._.!.~._.].6X6X8X8X<.h >XFXP.-X-XL.U d ' }.lXmXmXNXNXmXzXfXaX9XeXaX`.c.x.V.&X5X4X7XfXfXfXfXfXfX}.:.:.L j s GXGXGXGXGXGXGXGXGXGXGXGXGXGXGXGXGX",
"GXGXGXGXGXGXGXGXGXGX` b.W.~.!._._._.W.d j j U Y FXxXj s <.dXNXnXbXbXbXbXjXfX0X X`.`.oX6X8X[.v.x.&XG.].7X8XeXgXsXU.K L P.:XU P.P.j k Y.k.GXGXGXGXGXGXGXGXGXGXGXGX",
"GXGXGXGXGXGXGXGXGXGXGXB.x.x.h.| c.v.l.s L K.j J U j * ' jXnXnXVXVXVXzXwX`./. XfXsXOXv./ h.T. X!.Z.b.k.v.(.].[.,.:.;XY U U U L.}.^. X+X+X0X0X+XXXW.j.k.T.k.GXGXGX",
"GXGXGXGXGXGXGXGXGXGXGXB.4X5X3X,XG.x.h.&.&.&.h P K.f * ^.bXnXnXbXfXeXwXgXgX@XR.l._.7X8Xv.(  .x.x.!.1X{.].b.v.{ 0 L P.j L.-XP ,.oXqXqXwXwXwXqXeXeXsXeX XE. X`.GXGX",
"GXGXGXGXGXGXGXGXGXGXGXGXS.5X5X5XS.e.B.&X4X3X%XA.&.k 5 ^.tXgXjXbXeXT.} l.|.wXrX_.} >.!.oX/.g.B.(.<X<X1X1X1X<Xl.5 * * * Y P.k .XeXeXeXeXeX0X`.Y.W.`.eXfX0XT.9X/.GX",
"GXGXGXGXGXGXGXGXGXGXGXGXS.4X4X4XV.N.N.V.4X4X4X4X*XG.;.c.].W.T.`.eXwXY.h.g.h.].8X].h. .h.x.g.` !.].<X<X<X<X<Xv.P f * * * * P gXfXfXfXfX Xk.) ) | ) | 9XsXk.l.8Xl.",
"GXGXGXGXGXGXGXGXGXGXGXGXo.e.i.%.5.O.$.q.i.i.q.5.q.$.5.%.&.$.n #.,./.0X_.h.x.x.c././.x.C.m.GXGXGX/ | h.h.h.h./ K f * f Y s k oXgXfXfXgXl.] } { | T./ >.OX|.[ [.l.",
"GXGXGXGXGXGXGXGXGXGXGXGXl 2.u.3.t.9.6.i.$X$Xu.7.y.Z 7.7.7.7.7.7.2.#.c.OX~.;.5.%.;.f.V.GXGXGXGXGXGXGXGXGXGXGXGXGXGXGXGXGX* a ..].eXfXfXoX} R GXW l.j.E ) } / { `.",
"GXGXGXGXGXGXGXGXGXGXGXGXM 2.3.V 1.1.Z 4.5.r.2.@.3.Z C V V V V Z @.Z n &.&.$.B H $.O.O.GXGXGXGXGXGXGXGXGXGXGXGXGXGXGXGXGXGXGXGX( W.eXgXfXeX~.R.W.( j.E GX] { R GX",
"GXGXGXGXGXGXGXGXGXGXGXGX=.r.9.6.1.1.7.1.7.r.O.S g F a.I I G S S B r g g h D J J g C M GXGXGXGXGXGXGXGXGXGXGXGXGXGXGXGXGXGXGXGXGXGXk.`.0XeX X X XGXGXGXGXGXGXGXGX",
"GXGXGXGXGXGXGXGXGXGXGX=.w.0.2.9.8.a.a.I.P.G n s U K.K.Y L L K f s s Y L K J K D g B M GXGXGXGXGXGXGXGXGXGXGXGXGXGXGXGXGXGXGXGXGXGXGXGXGXGXGXGXGXGXGXGXGXGXGXGXGX",
"GXGXGXGXGXGXGXGXGXGXGX-.5.G K.-X-X:X-X-XP.K.K.L.-XxXP.f s f h f j j j j h s n $.4.7.1.GXGXGXGXGXGXGXGXGXGXGXGXGXGXGXGXGXGXGXGXGXGXGXGXGXGXGXGXGXGXGXGXGXGXGXGXGX",
"GXGXGXGXGXGXGXGXGXGX+.q.S Y -X-XP.L Y xXxXxX:X-XP.K.U f s j L U Y U J j j g $.7.7.1.C v GXGXGXGXGXGXGXGXGXGXGXGXGXGXGXGXGXGXGXGXGXGXGXGXGXGXGXGXGXGXGXGXGXGXGXGX",
"GXGXGXGXGXGXGXGXGXGX5.y.H f P.;XL f K U L J d #.S g D D D g g g S H B H H B 7.7.2.Z C M v c GXGXGXGXGXGXGXGXGXGXGXGXGXGXGXGXGXGXGXGXGXGXGXGXGXGXGXGXGXGXGXGXGXGX",
"GXGXGXGXGXGXGXGXGXGXS $.G L :XP.j Y U :.:.#.;.B.n.q.7.C 1.7.7.7.7.7.Z 2.1.A 7.1.Z M B 4.t.q.%.=.GXGXGXGXGXGXGXGXGXGXGXGXGXGXGXGXGXGXGXGXGXGXGXGXGXGXGXGXGXGXGXGX",
"GXGXGXGXGXGXGXGXGXJ Y K K.:XH.h &.M.Z.uXyXD.D.D.D.M.q.0.Z 2.7.7.7.2.Z 7.Z 2.C Z M C 7.5.w.n.C.S.M.-.+.GXGXGXGXGXGXGXGXGXGXGXGXGXGXGXGXGXGXGXGXGXGXGXGXGXGXGXGXGX",
"GXGXGXGXGXGXGXGXf Y U K.-XU h d d.D.4XpX&XD.D.D.D.D.f.q.Z C 7.7.7.1.Z 4.C 7.x @.V 7.5.=.d.M.V.S.S.V.d.-.GXGXGXGXGXGXGXGXGXGXGXGXGXGXGXGXGXGXGXGXGXGXGXGXGXGXGXGX",
"GXGXGXGXGXGXGXGXJ U h P j j K h B.F.*X5XD.D.D.D.D.D.V.-.Z M 7.7.7.Z 1.2.Z B Z 1.1.7.%.=.M.M.M.M.B.V.C.M.=.GXGXGXGXGXGXGXGXGXGXGXGXGXGXGXGXGXGXGXGXGXGXGXGXGXGXGX",
"GXGXGXGXGXGXGXs j j j g s J j #.D.D.D.F.D.D.D.D.D.D.C.-.Z v 2.7.2.V 4.C M v 4.2.2.7.%.=.M.M.M.M.M.M.B.M.M.-.+.GXGXGXGXGXGXGXGXGXGXGXGXGXGXGXGXGXGXGXGXGXGXGXGXGX",
"GXGXGXGXGXGXGX* L K h s f J #.V.C.C.D.D.D.D.D.D.D.D.B.w.Z v Z C v v m z z O.5.7.7.7.5.=.n.M.M.M.M.M.M.M.M.M.d.+.GXGXGXGXGXGXGXGXGXGXGXGXGXGXGXGXGXGXGXGXGXGXGXGX",
"GXGXGXGXGXGXGXGXs s 5 u k k =.*.d.V.S.C.C.D.D.D.D.B.w.t.C t v l z z l t O.d.-.7.7.7.7.%.-.M.M.M.M.M.M.M.M.M.M.-.GXGXGXGXGXGXGXGXGXGXGXGXGXGXGXGXGXGXGXGXGXGXGXGX",
"GXGXGXGXGXGXGXGXGXGXGX=.=.b Z %.B.&X3XF.C.V.B.B.n.q.y.0.z > t t v B B v C *.=.7.7.7.7.5.*.-.d.M.M.M.n.d.d.-.-.-.o.GXGXGXGXGXGXGXGXGXGXGXGXGXGXGXGXGXGXGXGXGXGXGX",
"GXGXGXGXGXGXGXGXGXGXGXo.n Z 0.r.e.N.S.V.V.B.n.o.5.y.y.2.> GXGXt V 7.7.2.V m N 2.7.7.7.7.7.%.=.-.=.*.=.-.d.f.V.S.N.=.GXGXGXGXGXGXGXGXGXGXGXGXGXGXGXGXGXGXGXGXGXGX",
"GXGXGXGXGXGXGXGXGXGXGXb B y.y.y.u.t.q.q.q.q.r.3.m y.y.m GXGXGXGXz C 6.7.7.4.Z V 2.7.7.7.7.7.n n O.+.d.M.M.M.V.F.F.f.+.GXGXGXGXGXGXGXGXGXGXGXGXGXGXGXGXGXGXGXGXGX",
"GXGXGXGXGXGXGXGXGXGXt z 0.y.u.p.p.y.y.y.y.y.y.y.x 3.C t GXGXGXGXGXGXM Z 2.7.7.2.M C 7.7.2.m m 2.%.-.M.M.M.M.M.B.B.M.d.GXGXGXGXGXGXGXGXGXGXGXGXGXGXGXGXGXGXGXGXGX",
"GXGXGXGXGXGXGXGXGXb v v y.y.i.i.u.y.y.y.y.y.y.0.z A x GXGXGXGXGXGXGXGXGXc m C C B z Z 2.z M 7.7.5.*.d.M.M.M.M.M.M.M.d.GXGXGXGXGXGXGXGXGXGXGXGXGXGXGXGXGXGXGXGXGX",
"GXGXGXGXGXGXGXGXf.O.Z v y.p.$Xp.y.y.y.y.y.y.y.C v C t GXGXGXGXGXGXGXGXGXGXGXz c z x x z t 1.7.7.7.5.%.-.d.M.M.M.M.M.=.GXGXGXGXGXGXGXGXGXGXGXGXGXGXGXGXGXGXGXGXGX",
"GXGXGXGXGXGX-.n.e.@.1.x 9.$Xi.u.y.y.y.y.y.y.Z x x GXGXGXGXGXGXGXGXGXGXGXGXx Z 2.1.V v M l B 7.7.7.7.7.%.%.=.=.=.=.=.O.GXGXGXGXGXGXGXGXGXGXGXGXGXGXGXGXGXGXGXGXGX",
"GXGXGXGXGXGXO.u.7.1.1.1.C r.u.y.y.y.y.y.9.M v C t GXGXGXGXGXGXGXGXGXGXGXM 1.7.7.7.7.Z v v m 1.7.7.7.7.7.7.5.5.5.5.B GXGXGXGXGXGXGXGXGXGXGXGXGXGXGXGXGXGXGXGXGXGX",
"GXGXGXGXGXx 9.0.Z t.7.6.7.C B A 1.1.H B m M Z C t GXGXGXGXGXGXGXGXGXGXGX1.7.7.7.7.Z V 1.1.2.Z Z 4.7.7.7.0.y.y.7.m GXGXGXGXGXGXGXGXGXGXGXGXGXGXGXGXGXGXGXGXGXGXGX",
"GXGXGXGXGXZ y.2.Z y.y.p.p.p.r.7.7.3.3.Z 1.7.0.C GXGXGXGXGXGXGXGXGXGXGXv 7.7.7.4.C C 6.7.6.C A 1.Z 1.4.7.0.9.1.x GXGXGXGXGXGXGXGXGXGXGXGXGXGXGXGXGXGXGXGXGXGXGXGX",
"GXGXGXGX> 1.y.A 9.y.u.$Xi.u.u.y.u.9.9.0.y.y.u.M GXGXGXGXGXGXGXGXGXGXGXv 7.7.7.Z C 7.7.7.M v @.1.1.1.Z 1.@.Z C l GXGXGXGXGXGXGXGXGXGXGXGXGXGXGXGXGXGXGXGXGXGXGXGX",
"GXGXGXGX> 1.y.A 0.y.p.$Xu.y.y.y.y.C 1.u.y.y.9.z GXGXGXGXGXGXGXGXGXGXGXl 2.7.7.M Z 7.7.Z z 1.7.1.1.0.t.u.9.@.V GXGXGXGXGXGXGXGXGXGXGXGXGXGXGXGXGXGXGXGXGXGXGXGXGX",
"GXGXGXGXGXC y.@.0.u.i.#Xu.y.y.y.7.x 4.u.y.0.M GXGXGXGXGXGXGXGXGXGXGXGXGXC 7.2.m 7.7.2.M 1.7.7.7.0.y.p.u.2.Z GXGXGXGXGXGXGXGXGXGXGXGXGXGXGXGXGXGXGXGXGXGXGXGXGXGX",
"GXGXGXGXGXx 0.4.0.u.p.i.u.y.y.y.v C 0.4.1.v GXGXGXGXGXGXGXGXGXGXGXGXGXGXx 7.1.m 7.7.1.Z 7.7.7.9.y.u.t.6.GXGXGXGXGXGXGXGXGXGXGXGXGXGXGXGXGXGXGXGXGXGXGXGXGXGXGXGX",
"GXGXGXGXGXt 2.0.y.u.p.p.y.y.y.Z v 7.Z v l GXGXGXGXGXGXGXGXGXGXGXGXGXGXGXz 7.1.M 7.7.1.2.7.7.7.r.u.y.1.GXGXGXGXGXGXGXGXGXGXGXGXGXGXGXGXGXGXGXGXGXGXGXGXGXGXGXGXGX",
"GXGXGXGXGXt 6.y.t.p.p.p.y.y.3.C 0.3.z t GXGXGXGXGXGXGXGXGXGXGXGXGXGXGXGXx x e b 1.7.7.4.7.7.7.3.1.B GXGXGXGXGXGXGXGXGXGXGXGXGXGXGXGXGXGXGXGXGXGXGXGXGXGXGXGXGXGX",
"GXGXGXGXGXt 4.1.9.u.p.u.y.y.2.A 1.v GXGXGXGXGXGXGXGXGXGXGXGXGXGXGXGXGXt v w 7 7 e x H y e e e e 6 w GXGXGXGXGXGXGXGXGXGXGXGXGXGXGXGXGXGXGXGXGXGXGXGXGXGXGXGXGXGX",
"GXGXGXGXGXt i 6 e i i i x 3.y 9 9 e GXGXGXGXGXGXGXGXGXGXGXGXGXGXGXGXGX0 y m i e 6 v V e 6 9 9 6 4 w GXGXGXGXGXGXGXGXGXGXGXGXGXGXGXGXGXGXGXGXGXGXGXGXGXGXGXGXGXGX",
"GXGXGXGXGXt B u 9 9 9 9 i 3.c i i y GXGXGXGXGXGXGXGXGXGXGXGXGXGXGXGXGX) W u n p i O.n i w w e u E R E GXGXGXGXGXGXGXGXGXGXGXGXGXGXGXGXGXGXGXGXGXGXGXGXGXGXGXGXGX",
"GXGXGXGXGX4 p B V V V M Z 4.B b e & GXGXGXGXGXGXGXGXGXGXGXGXGXGXGXGX( | W } / T 8 7 3 8 8 T W k.z...] Q / / GXGXGXGXGXGXGXGXGXGXGXGXGXGXGXGXGXGXGXGXGXGXGXGXGXGX",
"GXGXGXGX2 7 q _ <.~ #.<.#.k 4 8 7 % GXGXGXGXGXGXGXGXGXGXGXGXGXGXGXW } ( 0 Q T T T 7 1 8 T ( ..k.z.l.X.} { ] ( ( ) ] ( GXGXGXGXGXGXGXGXGXGXGXGXGXGXGXGXGXGXGXGXGX",
"GXGXGXGX4 ' E.).Q...T.).Q.j.0 7 3 GXGXGXGXGXGXGXGXGXGXGXGXGXGXGXGXE W T 3 7 8 8 7 3 3 7 R j.k.j.| | j.z.T.z.k.X.| } } { } ! GXGXGXGXGXGXGXGXGXGXGXGXGXGXGXGXGXGX",
"GXGXGXu <.E.Q.).l...).).).k.W 7 @ GXGXGXGXGXGXGXGXGXGXGXGXGXGXGXGX3 8 8 8 3 1 1 1 3 7 7 7 W ) { | l.T.T.T.T.T.E.).`.~.z.| ) ! GXGXGXGXGXGXGXGXGXGXGXGXGXGXGXGXGX",
"GXGX4 c.).XX+X+XT.oX+XOX~.X.Q 7 o GXGXGXGXGXGXGXGXGXGXGXGXGXGXGXGX3 1 1 1 1 1 1 1 $ o @ @ 1 3 7 W / / / ( _ _ _ { } } ] E 7 6 % GXGXGXGXGXGXGXGXGXGXGXGXGXGXGXGX",
"GX4 J.+XwXwXqX~..XqXwXwXqX+X[ @ GXGXGXGXGXGXGXGXGXGXGXGXGXGXGXGXGX@ # # # # # @ @ @ GXGXGX3 7 2 # # # # # # # # # # # # # 3 1 GXGXGXGXGXGXGXGXGXGXGXGXGXGXGXGXGX",
"@ ~ OXqXwXwX+X~.+XeXqXqXqXqX`.! $ GXGXGXGXGXGXGXGXGXGXGXGXGXGXGXGXGXGXGXGXGXGXGXGXGXGXGXGXGXGXGXGXGXGXGXGXGXGXGXGXGXGXGXGXGXGXGXGXGXGXGXGXGXGXGXGXGXGXGXGXGXGXGX",
"$ / j.`.+XqX`.`.gXMXeXoX`.l.{ ( 0 o GXGXGXGXGXGXGXGXGXGXGXGXGXGXGXGXGXGXGXGXGXGXGXGXGXGXGXGXGXGXGXGXGXGXGXGXGXGXGXGXGXGXGXGXGXGXGXGXGXGXGXGXGXGXGXGXGXGXGXGXGXGX",
"# T W ) l.E.| j.~./.~.k.) W W W q o GXGXGXGXGXGXGXGXGXGXGXGXGXGXGXGXGXGXGXGXGXGXGXGXGXGXGXGXGXGXGXGXGXGXGXGXGXGXGXGXGXGXGXGXGXGXGXGXGXGXGXGXGXGXGXGXGXGXGXGXGXGX",
"@ 3 q R W Q R R Q Q ! ! W q q 9 4 GXGXGXGXGXGXGXGXGXGXGXGXGXGXGXGXGXGXGXGXGXGXGXGXGXGXGXGXGXGXGXGXGXGXGXGXGXGXGXGXGXGXGXGXGXGXGXGXGXGXGXGXGXGXGXGXGXGXGXGXGXGXGX",
"GXGX$ 6 6 6 3 3 6 6 6 6 6 $ @ GXGXGXGXGXGXGXGXGXGXGXGXGXGXGXGXGXGXGXGXGXGXGXGXGXGXGXGXGXGXGXGXGXGXGXGXGXGXGXGXGXGXGXGXGXGXGXGXGXGXGXGXGXGXGXGXGXGXGXGXGXGXGXGXGX"
};
