/* XPM */
static char *result[] = {
/* columns rows colors chars-per-pixel */
"80 80 250 2 ",
"   c gray1",
".  c #070708",
"X  c #0B0B0B",
"o  c #15100D",
"O  c gray8",
"+  c #1F1712",
"@  c #1B1B1B",
"#  c #2E170C",
"$  c #381909",
"%  c #362418",
"&  c #393918",
"*  c #1F2021",
"=  c gray14",
"-  c #292726",
";  c #2C2C2C",
":  c #3A2829",
">  c #3E3129",
",  c #3D2233",
"<  c #343535",
"1  c #373838",
"2  c #393939",
"3  c #471C06",
"4  c #511F04",
"5  c #5C2303",
"6  c #58240A",
"7  c #49271A",
"8  c #5A2B12",
"9  c #582814",
"0  c #453416",
"q  c #652908",
"w  c #6D2D0F",
"e  c #762D04",
"r  c #6D3416",
"t  c #773918",
"y  c #46352B",
"u  c #51302D",
"i  c #4A273B",
"p  c #572A36",
"a  c #632E36",
"s  c #6B3431",
"d  c #3F4120",
"f  c #40411F",
"g  c #474727",
"h  c #524626",
"j  c #50502E",
"k  c #5A453A",
"l  c #555534",
"z  c #5B5A3B",
"x  c #6B4D31",
"c  c #60603F",
"v  c #71603A",
"b  c #4D2642",
"n  c #542C44",
"m  c #5A2D47",
"M  c #5B3642",
"N  c #5E314A",
"B  c #622E4B",
"V  c #712E4A",
"C  c #63324C",
"Z  c #69354B",
"A  c #773548",
"S  c #6B3553",
"D  c #6B3653",
"F  c #733855",
"G  c #753A5A",
"H  c #7B3D5D",
"J  c #7E3E60",
"K  c #73514C",
"L  c #646443",
"P  c #6A6647",
"I  c #6D6D4C",
"U  c #78694C",
"Y  c #747453",
"T  c #7A785A",
"R  c #7F4061",
"E  c #843303",
"W  c #913E0D",
"Q  c #8E4318",
"!  c #994717",
"~  c #A24E1D",
"^  c #A3501F",
"/  c #994D26",
"(  c #8B5031",
")  c #9A5A36",
"_  c #A55222",
"`  c #A75628",
"'  c #AD5A2A",
"]  c #B25E2D",
"[  c #A55837",
"{  c #B15C32",
"}  c #8C6239",
"|  c #98623E",
" . c #AB6339",
".. c #B66433",
"X. c #B86738",
"o. c #C26F3D",
"O. c #8B374C",
"+. c #993A4A",
"@. c #863C56",
"#. c #993E54",
"$. c #A63D4E",
"%. c #A33F51",
"&. c #813F61",
"*. c #8E5047",
"=. c #84425E",
"-. c #98425A",
";. c #99435C",
":. c #AC4253",
">. c #A84457",
",. c #B64657",
"<. c #BD495A",
"1. c #AF5852",
"2. c #8F6C4A",
"3. c #A86D4D",
"4. c #B86B45",
"5. c #B97548",
"6. c #B87959",
"7. c #844262",
"8. c #8B4566",
"9. c #8E4865",
"0. c #8C456A",
"q. c #934565",
"w. c #974869",
"e. c #944A6B",
"r. c #964B71",
"t. c #9B4D73",
"y. c #9C5274",
"u. c #A64B6C",
"i. c #B74C64",
"p. c #B45962",
"a. c #A54E73",
"s. c #A75276",
"d. c #A5527A",
"f. c #AB557B",
"g. c #B7577C",
"h. c #B4597B",
"j. c #91736E",
"k. c #A76E76",
"l. c #C54C5D",
"z. c #CA4E5D",
"x. c #DA555E",
"c. c #C36947",
"v. c #C57243",
"b. c #C97749",
"n. c #D06B53",
"m. c #CB7955",
"M. c #D37D57",
"N. c #E0705D",
"B. c #C84E60",
"V. c #CE5263",
"C. c #C55768",
"Z. c #D35363",
"A. c #DB5869",
"S. c #E5596A",
"D. c #E85B6B",
"F. c #F35E6E",
"G. c #F05F70",
"H. c #D96868",
"J. c #CF706C",
"K. c #D86976",
"L. c #E86465",
"P. c #E96777",
"I. c #F56172",
"U. c #FD6373",
"Y. c #F76B7C",
"T. c #F67876",
"R. c #7E805E",
"E. c #83815F",
"W. c #B78457",
"Q. c #888868",
"!. c #908F6E",
"~. c #969675",
"^. c #B5936A",
"/. c #A0A17F",
"(. c #D2804F",
"). c #CB8559",
"_. c #D58453",
"`. c #D7895B",
"'. c #D9905F",
"]. c #E18E5D",
"[. c #D98867",
"{. c #DC8C64",
"}. c #CA926A",
"|. c #DB9868",
" X c #D89873",
".X c #E38B6B",
"XX c #E49768",
"oX c #ED8E78",
"OX c #E79976",
"+X c #EB9C7A",
"@X c #D9A878",
"#X c #E8A06F",
"$X c #E9A578",
"%X c #EDAB7A",
"&X c #F1A87B",
"*X c #E9B17E",
"=X c #F3B07F",
"-X c #BD5980",
";X c #C35A82",
":X c #DA6E81",
">X c #D87686",
",X c #E97485",
"<X c #F97788",
"1X c #FC7E90",
"2X c #9C9C89",
"3X c #A7A786",
"4X c #B0A893",
"5X c #B6B796",
"6X c #BBBBA6",
"7X c #D99E8E",
"8X c #EC938A",
"9X c #F69C86",
"0X c #FC8494",
"qX c #F9899A",
"wX c #FF8C9C",
"eX c #EDA684",
"rX c #F4A787",
"tX c #F5AB8C",
"yX c #ECB684",
"uX c #F4B583",
"iX c #F5B788",
"pX c #F5BC8B",
"aX c #F6AC91",
"sX c #F8AE94",
"dX c #FAA699",
"fX c #EDB691",
"gX c #F7B795",
"hX c #F88FA0",
"jX c #FC96A6",
"kX c #FEACAD",
"lX c #F9BCA4",
"zX c #FCA7B8",
"xX c #BFC2A0",
"cX c #F6C18E",
"vX c #EBC791",
"bX c #F6C593",
"nX c #F6CA96",
"mX c #F8C998",
"MX c #F7D39D",
"NX c #F7D59F",
"BX c #CACBAE",
"VX c #F7C7A4",
"CX c #F7DCA4",
"ZX c #F9D8A5",
"AX c #F7E0A6",
"SX c #FAE1AB",
"DX c #FDE9B6",
"FX c #FFF0BE",
"GX c #FFB4C5",
"HX c None",
/* pixels */
"HXHXHXHXHXHXHXHXHXHXHXHXHXHXHXHXHXHXHXHXHXHXHXHXHXHXHXHXHX. < < HXHXHXHXHXHXHXHXHXHXHXHXHXHXHXHXHXHXHXHXHXHXHXHXHXHXHXHXHXHXHXHXHXHXHXHXHXHXHXHXHXHXHXHXHXHXHXHX",
"HXHXHXHXHXHXHXHXHXHXHXHXHXHXHXHXHXHXHXHXHXHXHXHX@ @ = HXX = @ O @ @ @ X HX  O O HXHXHXHXHXHXHXHXHXHXHXHXHXHXHXHXHXHXHXHXHXHXHXHXHXHXHXHXHXHXHXHXHXHXHXHXHXHXHXHX",
"HXHXHXHXHXHXHXHXHXHXHXHXHXHXHXHXHXHXHXHXHXHXHXHX= 2 2 < @ @ @ < 2 2 2 < @ @ 2 = HXHXHXO O     HXHXHXHXHXHXHXHXHXHXHXHXHXHXHXHXHXHXHXHXHXHXHXHXHXHXHXHXHXHXHXHXHX",
"HXHXHXHXHXHXHXHXHXHXHXHXHXHXHXHXHXHXHXO O O HXHXO < 2 2 2 2 2 2 2 2 2 2 ; @ O = X X @ < ; . HXHXHXHXHXHXHXHXHXHXHXHXHXHXHXHXHXHXHXHXHXHXHXHXHXHXHXHXHXHXHXHXHXHX",
"HXHXHXHXHXHXHXHXHXHXHXHXHXHXHXHXHXHX@ < 2 1 ; ; < 2 2 2 2 2 2 2 2 2 2 2 < ; = - = @ = O X . HX  HXHXHXHXHXHXHXHXHXHXHXHXHXHXHXHXHXHXHXHXHXHXHXHXHXHXHXHXHXHXHXHX",
"HXHXHXHXHXHXHXHXHXHXHXHXHXHXHXHXHXHXO @ 2 2 2 2 2 2 2 2 2 2 2 2 2 2 < ; k | 3.v > o @ . . X X     HXHXHXHXHXHXHXHXHXHXHXHXHXHXHXHXHXHXHXHXHXHXHXHXHXHXHXHXHXHXHX",
"HXHXHXHXHXHXHXHXHXHXHXHXHXHXHXHXHX  O = 2 2 2 < = ; 2 2 2 2 2 < = y # o y ^.pXyX*X| $ X X X X   HXHXHXHXHXHXHXHXHXHXHXHXHXHXHXHXHXHXHXHXHXHXHXHXHXHXHXHXHXHXHXHX",
"HXHXHXHXHXHXHXHXHXHXHXHXHXHXHXHXHXX = < 2 2 ; = ; < 2 2 2 2 2 * h 6.9 : y 6.%X%XyXiX| o o X     HXHXHXHXHXHXHXHXHXHXHXHXHXHXHXHXHXHXHXHXHXHXHXHXHXHXHXHXHXHXHXHX",
"HXHXHXHXHXHXHXHXHXHXHXHXHXHXHXHXHX  - 2 2 < O < 2 2 2 < 1 1 ; y }.2.h  X X).3.( x  .| 7 . . HXHXHXHXHXHXHXHXHXHXHXHXHXHXHXHXHXHXHXHXHXHXHXHXHXHXHXHXHXHXHXHXHXHX",
"HXHXHXHXHXHXHXHXHXHXHXHXHXHXHXHX. O ; 2 2 < X ; 2 ; = o O k 6.).) t 5.$X( 7 9 W.vX}.s o . X . HXHXHXHXHXHXHXHXHXHXHXHXHXHXHXHXHXHXHXHXHXHXHXHXHXHXHXHXHXHXHXHXHX",
"HXHXHXHXHXHXHXHXHXHXHXHXHXHXHXHX; 2 2 2 1 < o y < + ( Q ( | uXyX@X$X'.yX Xm.|.nX*XiX2.o X X . HXHXHXHXHXHXHXHXHXHXHXHXHXHXHXHXHXHXHXHXHXHXHXHXHXHXHXHXHXHXHXHXHX",
"HXHXHXHXHXHXHXHXHXHXHXHXHXHXHXHXO ; < : > = K 3.; = x m.X.! *XmXbXrX4.`.&XuXuXXXXX@X3.o .   HXHXHXHXHXHXHXHXHXHXHXHXHXHXHXHXHXHXHXHXHXHXHXHXHXHXHXHXHXHXHXHXHXHX",
"HXHXHXHXHXHXHXHXHXHXHXHXHXHXHX% 7 y 2.}.@X^.MXZX^.% o m.c.X.iXpX+X[.' XXiX=X_. .x 8 HXHXHX    HXHXHXHXHXHXHXHXHXHXHXHXHXHXHXHXHXHXHXHXHXHXHXHXHXHXHXHXHXHXHXHXHX",
"HXHXHXHXHXHXHXHXHXHXHXHXHXHXHX}.fXVXZXZXCXSXCXnXbX).3.oX4.` {..XoXm.{ {.#X'.b.).3.r HXHXHXHXHXHXHXHXHXHXHXHXHXHXHXHXHXHXHXHXHXHXHXHXHXHXHXHXHXHXHXHXHXHXHXHXHXHX",
"HXHXHXHXHXHXHXHXHXHXHXHX%X%XtXeXeXeXaXlXlXVXlXgXrX{..XoXc.! { ..M..Xm.m.M.{.OXXXX.HXHXHXHXHXHXHXHXHXHXHXHXHXHXHXHXHXHXHXHXHXHXHXHXHXHXHXHXHXHXHXHXHXHXHXHXHXHXHX",
"HXHXHXHXHXHXHXHXHXbXZXCXDXSXMXpXyXbXZXZXVXmXfXsX9X.XN.M.b.^ b.c._ ..M.[.M.M.`.X.HXHXHXHXHXHXHXHXHXHXHXHXHXHXHXHXHXHXHXHXHXHXHXHXHXHXHXHXHXHXHXHXHXHXHXHXHXHXHXHX",
"HXHXHXHXHXHXHXm.iXSXFXFXDXSXDXDXDXFXFXFXFXFXDXSXnXrXoXn.c...~ M.[.b.X.! W Q W HXHXHXHXHXHXHXHXHXHXHXHXHXHXHXHXHXHXHXHXHXHXHXHXHXHXHXHXHXHXHXHXHXHXHXHXHXHXHXHXHX",
"HXHXHXHXHXOXm.{.gXmXDXDXDXDXDXZXDXFXFXFXFXFXFXDXDXCXyX&X8Xn.c.)._.M.v.Q HXHXHXHXHXHXHXHXHXHXHXHXHXHXHXHXHXHXHXHXHXHXHXHXHXHXHXHXHXHXHXHXHXHXHXHXHXHXHXHXHXHXHXHX",
"HXHXHXHX{.gX+Xm.%XiXnXZXZXCXCXnXNXSXSXSXSXSXSXCXCXCXCXpXyXpX8X9XtX#X'.b.HXHXHXHXHXHXHXHXHXHXHXHXHXHXHXHXHXHXHXHXHXHXHXHXHXHXHXHXHXHXHXHXHXHXHXHXHXHXHXHXHXHXHXHX",
"HXHXHXHX}.VXgXOX).|.$X*XyXbXnXcXiXZXCXCXCXCXCXCXCXNXnXuX%XmXpX8XwXkXkXaX{.`.eXyX'.HXHXHXHXHXHXHXHXHXHXHXHXHXHXHXHXHXHXHXHXHXHXHXHXHXHXHXHXHXHXHXHXHXHXHXHXHXHXHX",
"HXHXHXHX5.lXeXuXZXCXCXCXCXCXNXMXpX$XvXMXMXNXMXbXcXiX=X&XuXiXbXpXT.zXGXGXzX8XdXdXtXn.HXHXHXHXHXHXHXHXHXHXHXHXHXHXHXHXHXHXHXHXHXHXHXHXHXHXHXHXHXHXHXHXHXHXHXHXHXHX",
"HXHXHXHX[.sX&XbXAXCXCXCXCXCXAXAXZXeXb.#X=X#XXX'.XX%X&X&X=XbXNXNXoXzXzX>XK.8XGXGXzXzXzXHXHXHXHXHXHXHXHXHXHXHXHXHXHXHXHXHXHXHXHXHXHXHXHXHXHXHXHXHXHXHXHXHXHXHXHXHX",
"HXHXHX) sXlXgXMXMXZXCXCXNXMXnXnXgXsXm.vXMXrX9X..v.OX&XiXmXCXCXCXJ.zXzX>X,.K.8X8XGXzXjXGXzXHXHXHXHXHXHXHXHXHXHXHXHXHXHXHXHXHXHXHXHXHXHXHXHXHXHXHXHXHXHXHXHXHXHXHX",
"HXHXHX2.lXgXbXuXMXCXCXCXCXNXbXyX=X+X{.iXaXaXrX..[.sXsXaXgXbXmXeXC.zXGXGX>XK.>X>XGXzX<XjXGXGXzXHXHXHXHXHXHXHXHXHXHXHXHXHXHXHXHXHXHXHXHXHXHXHXHXHXHXHXHXHXHXHXHXHX",
"HXHXHX2.tXuXyX+XgXZXCXCXCXCXCXCXZXbX$X{.eXOXv.v.m.OXtXsXsXsX+Xn.P.wXjXzXzXhXhXhXqX0X,X<X1XjXjXT.HXHXHXHXHXHXHXHXHXHXHXHXHXHXHXHXHXHXHXHXHXHXHXHXHXHXHXHXHXHXHXHX",
"HXHXHX[ XXgX@Xb.+XtXnXZXZXZXCXCXCXCXZX$X4.b..XaXeXm.b.{.OXOXn.A.C.:X0X<X<XY.Y.<XY.0XwX0XY.,X1XT.uXiX%X&XHXHXHXHXHXHXHXHXHXHXHXHXHXHXHXHXHXHXHXHXHXHXHXHXHXHXHXHX",
"HXHXHXHX).gXyX..b..XOXyXcXbXmXZXCXCXAXZX#X[.tXsXaX&X[.n.n.A.K.A.,.C.B.P.Y.1XwXwX0XP.P.A.0X1XP.H.cXbXbXbXpXpXHXHXHXHXHXHXHXHXHXHXHXHXHXHXHXHXHXHXHXHXHXHXHXHXHXHX",
"HXHXHXHX6.ZXmX{.{.rXtXbXZXZXZXMXMXZXCXCXZX*X`.M.H.H.P.,X1XwX0XY.K.K.<.,XwXwXwXwXwXC.C.%.C.wX0XT.pXbXbXbXmXbXpXHXHXHXHXHXHXHXHXHXHXHXHXHXHXHXHXHXHXHXHXHXHXHXHXHX",
"HXHXHXHX6.mXVXgX+X{.&XtXaXbXZXCXCXZXCXCXMXNXcX).H.0XwXwXwXwXwX<X<X,X,XqXwXwXwX0X0X0XK.:.i.K.wXT.pXbXbXbXbXmXpX}.2.g HXHXHXHXHXHXHXHXHXHXHXHXHXHXHXHXHXHXHXHXHXHX",
"HXHXHXHX4.rXsXsXtXeXXX&XrXtXaXgXnXZXCXCXCXZXvX^.2.j.p.K.0X0XwX0X<X<X0X0X<XP.P.I.I.I.G.S.Z.K.1XT.&XgXbXbXbX$X2.L !.3XP L P HXHXHXHXHXXXXXXXHX_.|.HXHXHXHXHXHXHXHX",
"HXHXHXHXHX[ ).OXOX&XtXtXeXeX&XrXrXtXpXmXvX^.E.Q.BXxXQ.4X7X2.K.1X1XY.F.x.L.T.H.L.F.U.U.U.U.I.P.L.M.+XiXcX|.} T Y Q.~.Y ~.3Xv P ).&X=XuXcXcXuX%X%X&X#X#XOXHXHXHXHX",
"HXHXHXHXHXHXHXQ m.+X+X+XrXaXaXaXrXaXaX X2.4XBX~.~.~.~.5X!.j x ( 1.J.[. XpXZXZXyXOXoXN.L.U.S.H.oX`.b.`.{.x T BXE.T T Y P 3.|.%XuXuXiXuXuXyX*X%XiXbXuX|.uX%XHXHXHX",
"HXHXHXHXHXHXHXHX/ ).rX+X.X.XOXeXrXeXOX} l 2X6X~.6X6XQ.z h | ).@XvXNXCXDXSXnXuXpXbXbXpX[.n.n.+X9X9X+XoX[ 0 g z l ~.BXv W.=XiXuXuXuXiX%X'.X.Q ! X.#XiX$X5.@XrX.XHX",
"HXHXHXHXHXHXHXHXHXHX .J.[..X.X{.{.M.X.h z c c I 4X2Xg x ).*XnXNXNXZXZXZXZXMXcXpX$X|.aXsXOX`.+X9X9X9XrX) 0 & & & g j v cXbXbXpXiXpX#X` ' ' ! ' _ ~ _.tX3./ &X_.HX",
"HXHXHXHXHXHXHXHXHXHXHXO.A.K.K.1.[ 4.4.h I !.z I T j & 5.%XNXAXCXCXZXCXmX%X`.|.mXgX{.).eX&X{.v.[..X.X[.( U z & g P d x &XbXbXpX%X|.X.! .._ W _ ..' ~ 5.5./ $X).HX",
"HXHXHXHXHXHXHXHXHXHXHXHX@.:X,X,X,.1.+.1.C.p.K *.U g & 5.gXMXZXZXmXpXyXbXmX$Xm.b.+XsX.Xb.`.`...HXHXHXHXHXHX& & g L d x .X%XyXbXiX).{ Q HXHXHXHX^ _.{ HX~ { ` HXHX",
"HXHXHXHXHXHXHXHXHXHXHXHXS f.a.;.@.G q.w.h.f.9.u.M y y ) eXaX$XbXbX#X3.3.$XsXrXX.X.&X$Xv.HXHXHXHXHXHXHXHXHXHXHXHXHXHXHX! X.yXbXmXyX{...HXHXHXHXHX_ HXHXHXHXHXHXHX",
"HXHXHXHXHXHXHXHXHXHXHXHXm 8.J 0.t.G f.;X;Xf.J f.S H 8.*.[ 1./ 4.uXaXm.a *. XuXXX/ 4.|.v.HXHXHXHXHXHXHXHXHXHXHXHXHXHXHXHXHX..5.'.eXaX$X@X5.HXHXHXHXHXHXHXHXHXHXHX",
"HXHXHXHXHXHXHXHXHXHXHXHXA O.S G 0.G 7.w.a.0.G 0.G N S Z Z Z C p ) {.&X5.M K 6.6.F B HXHXHXHXHXHXHXHXHXHXHXHXHXHXHXHXHXHXHXHXHXHX` X. .W.X.HXHXHXHXHXHXHXHXHXHXHX",
"HXHXHXHXHXHXHXHXHXHXHXHX>.w.r.8.H q.f.q.g.q.r.=.H 7.e.R H 0.0.0.F s 4.3.T z u H e.7.b HXHXHXHXHXHXHXHXHXHXHXHXHXHXHXHXHXHXHXHXHXHXHXHXHXHXHXHXHXHXHXHXHXHXHXHXHX",
"HXHXHXHXHXHXHXHXHXHXHX%.a.8.d.d.d.f.f.q.g.q.a.s.y.y.y.e.F 7.R K a g h Y l g j K e.7.b HXHXHXHXHXHXHXHXHXHXHXHXHXHXHXHXHXHXHXHXHXHXHXHXHXHXHXHXHXHXHXHXHXHXHXHXHX",
"HXHXHXHXHXHXHXHXHXHX+.>.d.8.a.d.k.k.k.j.k.k.k.2.j.L z z z L P P P l & g g Y I k 8.S O.:.HXHXHXHXHXHXHXHXHXHXHXHXHXHXHXHXHXHXHXHXHXHXHXHXHXHXHXHXHXHXHXHXHXHXHXHX",
"HXHXHXHXHXHXHXHXHXHX$.>.e.7.j.4X4X3X3X/.3X5X5X!.L l P c j g g z c z l I Y P k Z B V O.,.<.,.HXHXHXHXHXHXHXHXHXHXHXHXHXHXHXHXHXHXHXHXHXHXHXHXHXHXHXHXHXHXHXHXHXHX",
"HXHXHXHXHXHXHXHXHXHX*.K L L Y T 3X5X5Xl L 5XBXBX5X5X5X3XI f j I T Y I z k D 7.C S B :.I.Y.D.V.,.HXHXHXHXHXHXHXHXHXHXHXHXHXHXHXHXHXHXHXHXHXHXHXHXHXHXHXHXHXHXHXHX",
"HXHXHXHXHXHXHXHXHXl Q.!.Q.Q.~.5X3X!.R.P Y Y T T T j.Q.j.z h k a z k M G 7.&.7.N Z A ,.Z.A.I.U.A.<.:.HXHXHXHXHXHXHXHXHXHXHXHXHXHXHXHXHXHXHXHXHXHXHXHXHXHXHXHXHXHX",
"HXHXHXHXHXHXHXHXj P L !.4X3X!.P x x v U U *.1.<.<.>.+.8.N C 0.e.e.e.H 8.7.J 7.C C @.$.l.V.Z.D.I.A.V.<.$.HXHXHXHXHXHXHXHXHXHXHXHXHXHXHXHXHXHXHXHXHXHXHXHXHXHXHXHX",
"HXHXHXHXHXHXHXHXl z j I Y l 0 s z.F.F.<XzXjXY.U.U.U.Z.a.t.N H e.e.e.H 8.7.J 7.N N =.-.,.V.V.Z.A.S.Z.V.l.:.HXHXHXHXHXHXHXHXHXHXHXHXHXHXHXHXHXHXHXHXHXHXHXHXHXHXHX",
"HXHXHXHXHXHXHXl I P l g g h *.S.U.U.U.Y.wX<XU.U.U.U.S.,.d.0.S e.e.e.H 8.7.G S A A 7.q.%.l.V.V.V.Z.V.V.V.V.,.HXHXHXHXHXHXHXHXHXHXHXHXHXHXHXHXHXHXHXHXHXHXHXHXHXHX",
"HXHXHXHXHXHXg P Y z g u A A S.U.U.U.U.I.I.U.U.U.U.I.Z.<.u.d.m @.8.H F &.B n A <.:.q.e.;.:.z.V.V.V.V.V.V.V.l.$.HXHXHXHXHXHXHXHXHXHXHXHXHXHXHXHXHXHXHXHXHXHXHXHXHX",
"HXHXHXHXHXHXHXl I l HXV B.O.,.I.U.D.Z.S.I.U.U.U.F.D.D.S.i.a.b m m b m b i #.l.Z.,.;.e.e.-.,.V.V.V.V.V.V.V.V.<.+.HXHXHXHXHXHXHXHXHXHXHXHXHXHXHXHXHXHXHXHXHXHXHXHX",
"HXHXHXHXHXHXHXHXHXHXHXV V.B.#.#.<.<.l.A.,XP.S.A.Z.G.U.F.<.w.i , n N D A A ,.V.Z.l.#.e.e.e.;.:.<.l.l.l.,.:.B.B.#.O.HXHXHXHXHXHXHXHXHXHXHXHXHXHXHXHXHXHXHXHXHXHXHX",
"HXHXHXHXHXHXHXHXHXHXHXV V.Z.<.A >.S.I.<XwX<XU.I.Z.>.V.Z.,.q.i HXS e.e.q.#.O.O.>.l.:.;.e.e.e.q.;.#.O.#.l.B.D.<XI.z.$.HXHXHXHXHXHXHXHXHXHXHXHXHXHXHXHXHXHXHXHXHXHX",
"HXHXHXHXHXHXHXHXHXHXHXHX#.>.A ;.V.G.U.U.Y.U.U.U.D.:.A -.a.C HXHXb G e.e.e.-.O.V V +.;.e.e.e.8.S S O.,.V.V.Z.S.S.Z.l.$.HXHXHXHXHXHXHXHXHXHXHXHXHXHXHXHXHXHXHXHXHX",
"HXHXHXHXHXHXHXHXHXHXHX0.B n r.d.u.i.Z.S.D.I.I.F.Z.i.S G S HXHXHXHXHXS 7.e.e.q.@.H m G e.e.H m S 8.q.:.,.l.V.V.V.V.V.,.HXHXHXHXHXHXHXHXHXHXHXHXHXHXHXHXHXHXHXHXHX",
"HXHXHXHXHXHXHXHXHXHXZ.s.Z H d.d.f.f.s.u.i.B.B.i.i.r.m n , HXHXHXHXHXHXHXG S H S N S m S S b G e.e.e.q.;.>.:.<.<.<.,.$.HXHXHXHXHXHXHXHXHXHXHXHXHXHXHXHXHXHXHXHXHX",
"HXHXHXHXHXHXHXHXz.D.I.h.F 7.d.f.;Xh.f.d.d.s.d.d.d.F S C HXHXHXHXHXHXHXHXHXHXS S F F S S n b 8.e.e.e.e.e.e.q.;.;.;.;.@.HXHXHXHXHXHXHXHXHXHXHXHXHXHXHXHXHXHXHXHXHX",
"HXHXHXHXHXHXHXZ.F.F.V.f.J C d.-X-Xf.d.d.d.d.d.d.8.m Z i HXHXHXHXHXHXHXHXD H 0.e.e.e.H F S b S e.e.e.e.e.e.e.e.e.e.e.7.HXHXHXHXHXHXHXHXHXHXHXHXHXHXHXHXHXHXHXHXHX",
"HXHXHXHXHXHXZ.I.D.B.a.t.r.N w.;Xh.d.d.d.d.d.t.H i n HXHXHXHXHXHXHXHXHXHX7.e.e.e.e.0.F G G G m 7.e.e.e.e.e.e.t.t.e.G HXHXHXHXHXHXHXHXHXHXHXHXHXHXHXHXHXHXHXHXHXHX",
"HXHXHXHXHX#.A.Z.i.t.t.t.8.8.F =.e.t.d.e.R F C i HXHXHXHXHXHXHXHXHXHXHXD 8.e.e.e.7.S &.e.0.J 7.F H 8.e.r.t.d.a.8.Z HXHXHXHXHXHXHXHXHXHXHXHXHXHXHXHXHXHXHXHXHXHXHX",
"HXHXHXHXHX-.i.u.r.7.a.f.f.e.0.=.F F F C S H H m HXHXHXHXHXHXHXHXHXHXHXHXC e.e.e.S 7.e.e.e.F G &.H J H 8.r.8.G n HXHXHXHXHXHXHXHXHXHXHXHXHXHXHXHXHXHXHXHXHXHXHXHX",
"HXHXHXHX, e.d.d.J r.f.g.;Xs.7.h.d.0.7.7.0.r.t.D HXHXHXHXHXHXHXHXHXHXHXHXHXD e.e.S G e.e.=.n 7.8.7.0.t.e.7.C i HXHXHXHXHXHXHXHXHXHXHXHXHXHXHXHXHXHXHXHXHXHXHXHXHX",
"HXHXHXHX, e.d.e.J d.h.g.g.f.0.d.e.r.d.t.d.d.d.Z HXHXHXHXHXHXHXHXHXHXHXHXHXm 0.e.7.B e.e.H C e.e.t.e.f.a.8.N HXHXHXHXHXHXHXHXHXHXHXHXHXHXHXHXHXHXHXHXHXHXHXHXHXHX",
"HXHXHXHX, 0.d.J r.f.h.h.h.f.d.d.d.d.t.G d.d.7.i HXHXHXHXHXHXHXHXHXHXHXHXi H e.e.F F e.e.H S e.e.d.d.f.r.G m HXHXHXHXHXHXHXHXHXHXHXHXHXHXHXHXHXHXHXHXHXHXHXHXHXHX",
"HXHXHXHXHXC d.J t.f.h.h.f.d.d.d.d.0.S G d.8.m HXHXHXHXHXHXHXHXHXHXHXHXHXp 7.e.e.S 7.e.e.7.G e.t.d.d.e.S HXHXHXHXHXHXHXHXHXHXHXHXHXHXHXHXHXHXHXHXHXHXHXHXHXHXHXHX",
"HXHXHXHXHXHXH &.t.f.h.h.f.d.d.d.H m m H F i HXHXHXHXHXHXHXHXHXHXHXHXHX7 8 p 7.J B 8.e.e.9.0.t.y.t.e.m HXHXHXHXHXHXHXHXHXHXHXHXHXHXHXHXHXHXHXHXHXHXHXHXHXHXHXHXHX",
"HXHXHXHXHXHXG 8.t.f.h.h.d.d.d.7.m N m i HXHXHXHXHXHXHXHXHXHXHXHXHXHXHX, 8 7 G i u Z F F 0.H S a r p , HXHXHXHXHXHXHXHXHXHXHXHXHXHXHXHXHXHXHXHXHXHXHXHXHXHXHXHXHX",
"HXHXHXHXHXu 0.t.f.g.h.g.f.f.e.S &.m HXHXHXHXHXHXHXHXHXHXHXHXHXHXHXHXHXHXZ B H u q q 8 u G u q q 8 , HXHXHXHXHXHXHXHXHXHXHXHXHXHXHXHXHXHXHXHXHXHXHXHXHXHXHXHXHXHX",
"HXHXHXHX, 8 s 7.@.9.9.9.8.-.7.7.a 7 HXHXHXHXHXHXHXHXHXHXHXHXHXHXHXHX_ ..( p Z Z a p s a H p p p p 8 HXHXHXHXHXHXHXHXHXHXHXHXHXHXHXHXHXHXHXHXHXHXHXHXHXHXHXHXHXHX",
"HXHXHXHXm p @.C 8 8 8 8 8 8 C S 9 u HXHXHXHXHXHXHXHXHXHXHXHXHXHXHXQ ..v.Q q w w a p a a p p r ( 4.] ! HXHXHXHXHXHXHXHXHXHXHXHXHXHXHXHXHXHXHXHXHXHXHXHXHXHXHXHXHX",
"HXHXHXHXHXC 0.H a a a a a a 7.H F b HXHXHXHXHXHXHXHXHXHXHXHXHXHXHX' v.o.t 6 e E E E E e $ e ! b.(.b.v...! HXHXHXHXHXHXHXHXHXHXHXHXHXHXHXHXHXHXHXHXHXHXHXHXHXHXHX",
"HXHXHXHXHX6 8 r A Z F Z B Z s 7 HXHXHXHXHXHXHXHXHXHXHXHXHXHXHXHXw ` { ~ E e 6 q e e q 6 6 e ! o.b.v.X.o.b.v.X...' ' ' HXHXHXHXHXHXHXHXHXHXHXHXHXHXHXHXHXHXHXHXHX",
"HXHXHX3 q w ) o.X.` m.4.) r e q HXHXHXHXHXHXHXHXHXHXHXHXHXHXHXHX$ r e e E E E e 6 6 6 6 q q e ! X...v.(._._._._.(.(.(.b.X.~ HXHXHXHXHXHXHXHXHXHXHXHXHXHXHXHXHXHX",
"HXHXHX$ t 5.XXXXb.] XXXXXX5.5 e HXHXHXHXHXHXHXHXHXHXHXHXHXHXHXHX3 5 3 4 4 5 5 5 4 3 3 3 3 3 3 5 E r ] v.b.b.b.b._.`.b.X.{ ! q HXHXHXHXHXHXHXHXHXHXHXHXHXHXHXHXHX",
"HXHXHXu _.XX].`.v.] '.`.]._.9 # HXHXHXHXHXHXHXHXHXHXHXHXHXHXHXHXHXHX# 5 3 3 3 3 4 $ HXHXHX$ 4 6 3 4 5 q q q q q q q 5 5 5 6 6 4 HXHXHXHXHXHXHXHXHXHXHXHXHXHXHXHX",
"HXHXw  .'.'.XX%XXX_.%X%XXX'.X.% HXHXHXHXHXHXHXHXHXHXHXHXHXHXHXHXHXHXHXHXHXHXHXHXHXHXHXHXHXHXHXHX$ q q 5 5 5 5 5 5 5 q q 5 3 HXHXHXHXHXHXHXHXHXHXHXHXHXHXHXHXHXHX",
"HXt 5.&X=XiXiXuX{.=XiXiXiXiX&X .9 HXHXHXHXHXHXHXHXHXHXHXHXHXHXHXHXHXHXHXHXHXHXHXHXHXHXHXHXHXHXHXHXHXHXHXHXHXHXHXHXHXHXHXHXHXHXHXHXHXHXHXHXHXHXHXHXHXHXHXHXHXHXHX",
"6 ` _.XX#X%XyXyX).yX%X&X#X`.X.' ! $ HXHXHXHXHXHXHXHXHXHXHXHXHXHXHXHXHXHXHXHXHXHXHXHXHXHXHXHXHXHXHXHXHXHXHXHXHXHXHXHXHXHXHXHXHXHXHXHXHXHXHXHXHXHXHXHXHXHXHXHXHXHX",
"w ! _ ' v.b.v.v.! v.b.b.o.` ! t 8 # HXHXHXHXHXHXHXHXHXHXHXHXHXHXHXHXHXHXHXHXHXHXHXHXHXHXHXHXHXHXHXHXHXHXHXHXHXHXHXHXHXHXHXHXHXHXHXHXHXHXHXHXHXHXHXHXHXHXHXHXHXHX",
"4 e E Q / _ _ ! w ^ ^ _ / ! t t 9 # HXHXHXHXHXHXHXHXHXHXHXHXHXHXHXHXHXHXHXHXHXHXHXHXHXHXHXHXHXHXHXHXHXHXHXHXHXHXHXHXHXHXHXHXHXHXHXHXHXHXHXHXHXHXHXHXHXHXHXHXHXHX",
"$ e 4 4 8 8 8 9 3 8 8 8 9 9 # HXHXHXHXHXHXHXHXHXHXHXHXHXHXHXHXHXHXHXHXHXHXHXHXHXHXHXHXHXHXHXHXHXHXHXHXHXHXHXHXHXHXHXHXHXHXHXHXHXHXHXHXHXHXHXHXHXHXHXHXHXHXHXHXHX"
};
