/* XPM */
static char *result[] = {
/* columns rows colors chars-per-pixel */
"80 80 248 2 ",
"   c #020202",
".  c #0B0B0B",
"X  c #14100E",
"o  c #131313",
"O  c #1B1614",
"+  c gray11",
"@  c #2B140A",
"#  c #381707",
"$  c #261E1A",
"%  c #3A2419",
"&  c #393918",
"*  c #232323",
"=  c #242729",
"-  c #2C2C2C",
";  c #39292A",
":  c #3C2631",
">  c #343434",
",  c #373838",
"<  c #393939",
"1  c #461C06",
"2  c #511F05",
"3  c #4C210A",
"4  c #5C2303",
"5  c #562409",
"6  c #582814",
"7  c #4B3117",
"8  c #672908",
"9  c #772E04",
"0  c #6E3114",
"q  c #773616",
"w  c #502E2A",
"e  c #49273B",
"r  c #5A2D38",
"t  c #6B322B",
"y  c #642D36",
"u  c #68313A",
"i  c #46411F",
"p  c #55431F",
"a  c #444423",
"s  c #4B4929",
"d  c #544E2D",
"f  c #5B463A",
"g  c #575535",
"h  c #5B5C3B",
"j  c #67493B",
"k  c #764C32",
"l  c #68573C",
"z  c #6A613E",
"x  c #4E2740",
"c  c #542B43",
"v  c #582D44",
"b  c #5C2E49",
"n  c #5D3248",
"m  c #672E4B",
"M  c #64334D",
"N  c #6A3749",
"B  c #763448",
"V  c #6B3453",
"C  c #6A3653",
"Z  c #743755",
"A  c #723A55",
"S  c #753A59",
"D  c #7B3D5D",
"F  c #7E3E60",
"G  c #704E4B",
"H  c #6E4B56",
"J  c #636342",
"K  c #686748",
"L  c #6C6B4A",
"P  c #776A49",
"I  c #726F52",
"U  c #787857",
"Y  c #863505",
"T  c #8B3D11",
"R  c #843B31",
"E  c #874C1F",
"W  c #984718",
"Q  c #A24F1E",
"!  c #93532C",
"~  c #A55221",
"^  c #A95625",
"/  c #AD5A2A",
"(  c #B15E2D",
")  c #AC5B31",
"_  c #91643C",
"`  c #AC663A",
"'  c #B56332",
"]  c #B86639",
"[  c #B66C39",
"{  c #BD6B3B",
"}  c #C16E3D",
"|  c #C3703E",
" . c #873B4A",
".. c #91394E",
"X. c #843D5A",
"o. c #993D53",
"O. c #A93E4F",
"+. c #823F61",
"@. c #8E5B44",
"#. c #85435D",
"$. c #9B425A",
"%. c #AD4254",
"&. c #A74358",
"*. c #B44555",
"=. c #B74759",
"-. c #BD4A5B",
";. c #A75852",
":. c #906E50",
">. c #B96A44",
",. c #B97749",
"<. c #AF7253",
"1. c #834162",
"2. c #8B4466",
"3. c #8C4569",
"4. c #964865",
"5. c #93466A",
"6. c #944A6B",
"7. c #895363",
"8. c #9B4D73",
"9. c #9A4C74",
"0. c #AA4A67",
"q. c #B54B65",
"w. c #BE5164",
"e. c #A14F74",
"r. c #A84E72",
"t. c #A65175",
"y. c #A4527A",
"u. c #AB547B",
"i. c #B6577C",
"p. c #B3597C",
"a. c #986573",
"s. c #C44C5C",
"d. c #CA4E5E",
"f. c #CA5952",
"g. c #C66A48",
"h. c #C47243",
"j. c #C87644",
"k. c #C77849",
"l. c #CB7A4A",
"z. c #D17E4C",
"x. c #CF6957",
"c. c #C97954",
"v. c #D37B58",
"b. c #C84E61",
"n. c #CD5263",
"m. c #C85969",
"M. c #D45465",
"N. c #DB5565",
"B. c #DA5A67",
"V. c #E15767",
"C. c #E4596A",
"Z. c #EB5B6C",
"A. c #F25E6E",
"S. c #D2686E",
"D. c #DB7964",
"F. c #F3626E",
"G. c #EA6677",
"H. c #FE6373",
"J. c #F76877",
"K. c #EC7773",
"L. c #BD8159",
"P. c #888767",
"I. c #928C6C",
"U. c #979776",
"Y. c #B68363",
"T. c #AFA17C",
"R. c #D0804F",
"E. c #C78659",
"W. c #D48454",
"Q. c #D88757",
"!. c #D38359",
"~. c #D58A5B",
"^. c #DB8C5B",
"/. c #D8905F",
"(. c #E28F5D",
"). c #D98665",
"_. c #DC8D64",
"`. c #DD9463",
"'. c #DA976A",
"]. c #CF9370",
"[. c #E39466",
"{. c #E39C6B",
"}. c #E78972",
"|. c #EC8C74",
" X c #E89B77",
".X c #DAA573",
"XX c #E4A474",
"oX c #EBA574",
"OX c #EAA67A",
"+X c #EBAB79",
"@X c #EDAC7B",
"#X c #F2A97A",
"$X c #B35680",
"%X c #C35A83",
"&X c #DB7C8D",
"*X c #EF7282",
"=X c #F97888",
"-X c #A7A785",
";X c #B0AD92",
":X c #B6B796",
">X c #ED918E",
",X c #F69C84",
"<X c #F78394",
"1X c #FE8495",
"2X c #FF8C9C",
"3X c #EDA483",
"4X c #F2A784",
"5X c #F4A68B",
"6X c #F5AB8C",
"7X c #EDB584",
"8X c #EBB986",
"9X c #F4B483",
"0X c #F8B685",
"qX c #F6B88A",
"wX c #F4BC8B",
"eX c #F8AD95",
"rX c #EFBE93",
"tX c #F7B796",
"yX c #FC96A6",
"uX c #FDA9A5",
"iX c #F8BDA6",
"pX c #FCA7B8",
"aX c #BFC19F",
"sX c #F4C28E",
"dX c #EAC893",
"fX c #F6C493",
"gX c #F9C593",
"hX c #F6CA95",
"jX c #F7CD9A",
"kX c #F9C898",
"lX c #F6D49D",
"zX c #F8D39E",
"xX c #C9CAAB",
"cX c #F8C2A6",
"vX c #F9D6A5",
"bX c #F7DDA4",
"nX c #F9DCA5",
"mX c #E1DBB9",
"MX c #F8E0A7",
"NX c #F9E2AB",
"BX c #FCE7B3",
"VX c #FFEEBC",
"CX c #FFF0BE",
"ZX c #FFAFC0",
"AX c #FFB3C4",
"SX c #FFB7C9",
"DX c #DBDCD4",
"FX c None",
/* pixels */
"FXFXFXFXFXFXFXFXFXFXFXFXFXFXFXFXFXFXFXFXFXFXFXFXFXFXFXFX  . .     FXFXFXFX. FXFXFXFXFXFXFXFXFXFXFXFXFXFXFXFXFXFXFXFXFXFXFXFXFXFXFXFXFXFXFXFXFXFXFXFXFXFXFXFXFXFX",
"FXFXFXFXFXFXFXFXFXFXFXFXFXFXFXFXFXFXFXFXFXFXFXo + + o FXo - + + o + + . - > + FXFXFXFXFXFXFXFXFXFXFXFXFXFXFXFXFXFXFXFXFXFXFXFXFXFXFXFXFXFXFXFXFXFXFXFXFXFXFXFXFX",
"FXFXFXFXFXFXFXFXFXFXFXFXFXFXFXFXFXFXFXFXFXFXFXo , < > - - + - > < < < - * > < - . FX+ - *     FXFXFXFXFXFXFXFXFXFXFXFXFXFXFXFXFXFXFXFXFXFXFXFXFXFXFXFXFXFXFXFXFX",
"FXFXFXFXFXFXFXFXFXFXFXFXFXFXFXFXFXFXFXFXo o FXo - < < < < < < < < < < < , = = > > - > - + FXFXFXFXFXFXFXFXFXFXFXFXFXFXFXFXFXFXFXFXFXFXFXFXFXFXFXFXFXFXFXFXFXFXFX",
"FXFXFXFXFXFXFXFXFXFXFXFXFXFXFXFXFXFXFX. , , - < < < < < < < < < < < < < < , - + * * o .   FXFXFX  FXFXFXFXFXFXFXFXFXFXFXFXFXFXFXFXFXFXFXFXFXFXFXFXFXFXFXFXFXFXFX",
"FXFXFXFXFXFXFXFXFXFXFXFXFXFXFXFXFXFXFX+ - < < < < < < < < < < < < < < , - ; w ; $ X . . . . .     FXFXFXFXFXFXFXFXFXFXFXFXFXFXFXFXFXFXFXFXFXFXFXFXFXFXFXFXFXFXFX",
"FXFXFXFXFXFXFXFXFXFXFXFXFXFXFXFXFXFXo , , < < , , < < < < < < , - * > ; @.].7X8XXX_ X o o o o . FXFXFXFXFXFXFXFXFXFXFXFXFXFXFXFXFXFXFXFXFXFXFXFXFXFXFXFXFXFXFXFX",
"FXFXFXFXFXFXFXFXFXFXFXFXFXFXFXFXFX. + , < < < + - < < < < < < * 7 O + _ #XwXkXgXgX@Xt . o . . FXFXFXFXFXFXFXFXFXFXFXFXFXFXFXFXFXFXFXFXFXFXFXFXFXFXFXFXFXFXFXFXFX",
"FXFXFXFXFXFXFXFXFXFXFXFXFXFXFXFXFX. - < < < < + - < < < , > > + <.j . j E.<.:.:.,.7X<.X o .   FXFXFXFXFXFXFXFXFXFXFXFXFXFXFXFXFXFXFXFXFXFXFXFXFXFXFXFXFXFXFXFXFX",
"FXFXFXFXFXFXFXFXFXFXFXFXFXFXFXFXFXo , < < < < + + < < = w j G :.7X,.k @ % 3 l <.,.k k @ o o . . FXFXFXFXFXFXFXFXFXFXFXFXFXFXFXFXFXFXFXFXFXFXFXFXFXFXFXFXFXFXFXFX",
"FXFXFXFXFXFXFXFXFXFXFXFXFXFXFXFXFX  = < , > ; k w - , $ :.gXkXgX7X>. Xc.E.'.wX9X7Xq X . . X .   FXFXFXFXFXFXFXFXFXFXFXFXFXFXFXFXFXFXFXFXFXFXFXFXFXFXFXFXFXFXFXFX",
"FXFXFXFXFXFXFXFXFXFXFXFXFXFXFXFXFXFX7 > ; f ].dX'._ ; = l kXwX#Xg.' OX9X0XXX{.9XlX' FXFX    . . FXFXFXFXFXFXFXFXFXFXFXFXFXFXFXFXFXFXFXFXFXFXFXFXFXFXFXFXFXFXFXFX",
"FXFXFXFXFXFXFXFXFXFXFXFXFXFXFXFXFX#X+X% :.vXNXnXwX,.w % L.9X Xv./ oX0XoX~.) ! ! [ FXFXFXFXFX    FXFXFXFXFXFXFXFXFXFXFXFXFXFXFXFXFXFXFXFXFXFXFXFXFXFXFXFXFXFXFXFX",
"FXFXFXFXFXFXFXFXFXFXFXFXFXFXFXoXwXlXlXT.lXbXlXfX4X}.).W ( v.}.v.' `.{.~.~.L.<.E FXFXFXFXFXFXFXFXFXFXFXFXFXFXFXFXFXFXFXFXFXFXFXFXFXFXFXFXFXFXFXFXFXFXFXFXFXFXFXFX",
"FXFXFXFXFXFXFXFXFXFXFXFXK.}.3XtXiXiXiXiXeXcXgX0X_.}.}.~ / ^ v.|.).g.!.[.[.W.| ~ FXFXFXFXFXFXFXFXFXFXFXFXFXFXFXFXFXFXFXFXFXFXFXFXFXFXFXFXFXFXFXFXFXFXFXFXFXFXFXFX",
"FXFXFXFXFXFXFXFXFX9XkXfXfXkXqX7XrXfXfXwX5XeX5X,X}.g.).g./ ] ( g.v.).).D.v.^ FXFXFXFXFXFXFXFXFXFXFXFXFXFXFXFXFXFXFXFXFXFXFXFXFXFXFXFXFXFXFXFXFXFXFXFXFXFXFXFXFXFX",
"FXFXFXFXFXFXFXOXlXBXBXCXCXBXnXBXVXCXCXVXBXBXnXjX6X}.D.x.) ] v.g.] ) T W W FXFXFXFXFXFXFXFXFXFXFXFXFXFXFXFXFXFXFXFXFXFXFXFXFXFXFXFXFXFXFXFXFXFXFXFXFXFXFXFXFXFXFX",
"FXFXFXFXFXFX).iXcXnXVXVXBXBXVXNXBXVXVXCXCXVXVXCXBXvXwX!.D.x.!.!.).] W FXFXFXFXFXFXFXFXFXFXFXFXFXFXFXFXFXFXFXFXFXFXFXFXFXFXFXFXFXFXFXFXFXFXFXFXFXFXFXFXFXFXFXFXFX",
"FXFXFXFXl.!.c.tXiXcXvXNXNXNXNXlXzXBXBXBXBXNXNXNXbXbXbX9X@X5X<X5X,X@X{.R.l.`.FXFXFXFXFXFXFXFXFXFXFXFXFXFXFXFXFXFXFXFXFXFXFXFXFXFXFXFXFXFXFXFXFXFXFXFXFXFXFXFXFXFX",
"FXFXFXFX'.iX'.~. X3X6XtXkXvXvXbX@XgXbXbXbXbXbXbXbXbXjX9X@XhX|.=XpXuXuXtX@XXXwX`.FXFXFXFXFXFXFXFXFXFXFXFXFXFXFXFXFXFXFXFXFXFXFXFXFXFXFXFXFXFXFXFXFXFXFXFXFXFXFXFX",
"FXFXFXFX].cXiX X/.8XfXhXjXvXvXbXjXoX9XjXbXbXvXlXhXwX9X#X#XqX9XK.yXSXAXpXuX>X2XyX>XyXFXFXFXFXFXFXFXFXFXFXFXFXFXFXFXFXFXFXFXFXFXFXFXFXFXFXFXFXFXFXFXFXFXFXFXFXFXFX",
"FXFXFX! ).tXtX8XlXMXMXMXbXbXbXbXbXwX_.^.XXXX@X9X0X9XoX#X0XfXlX3X<XZX>XS.&XpXAXAXAXpXZXyXFXFXFXFXFXFXFXFXFXFXFXFXFXFXFXFXFXFXFXFXFXFXFXFXFXFXFXFXFXFXFXFXFXFXFXFX",
"FXFXFXE.tXtXtXlXbXbXbXbXbXlXbXbXbXtX[.7XlX4X X^.k.W.{.9XjXbXMXrXK.pX>X-.m.>X&XAXAXyXyXAXAXFXFXFXFXFXFXFXFXFXFXFXFXFXFXFXFXFXFXFXFXFXFXFXFXFXFXFXFXFXFXFXFXFXFXFX",
"FXFXFX_.iXcXbXbXbXbXbXbXbXlXsXwX8X6X X+XlX6XeXc.h. X6XeXeXqXkXgXS.pXAX>XS.&XS.AXAX2X=XyXAXpX=XFXFXFXFXFXFXFXFXFXFXFXFXFXFXFXFXFXFXFXFXFXFXFXFXFXFXFXFXFXFXFXFXFX",
"FXFXFX!.iXcXbXbXsXjXbXbXbXbXbXjXsX7X`.!.5XeX6X] c.6XeXeXeXeX6X).B.2XyXyXyXyXyXyX<X=X*X=X=X1X1XH.FXFXFXFXFXFXFXFXFXFXFXFXFXFXFXFXFXFXFXFXFXFXFXFXFXFXFXFXFXFXFXFX",
"FXFXFX) tXcXbXbX[.6XjXbXbXbXbXbXbXbXlX7X). Xh.k.!.l.!. X6XeX).*.m.<X2X2X=X=XJ.*XJ.1X2X1XJ.*X*XK.9X#XFXFXFXFXFXFXFXFXFXFXFXFXFXFXFXFXFXFXFXFXFXFXFXFXFXFXFXFXFXFX",
"FXFXFXFXE.XXbXbX{._.6XrXlXbXbXbXbXbXbXnXsX~.z.6XeX3X'.h.g.v.B.b.m.m.G.J.*X=X1X2X=X*XG.G.=X2X=XK.wXgXsXXXFXFXFXFXFXFXFXFXFXFXFXFXFXFXFXFXFXFXFXFXFXFXFXFXFXFXFXFX",
"FXFXFXFX/ l.jXnX7X{ !._.+X8XgXhXlXbXbXbXbXlX{.[.}.D.S.K.G.G.G.M.n.w.m.1X2X2X2X2XG.m.w.%.S.2X1XK.wXfXfXfX@X^.FXFXFXFXFXFXFXFXFXFXFXFXFXFXFXFXFXFXFXFXFXFXFXFXFXFX",
"FXFXFXFXFX' qXbXlXW.W.4XtXlXbXvXlXjXvXbXbXnXbX@XD.=X1X2X2X2X2X=XG.G.<X2X2X2X2X2X1X*X-.-.*.*X2XK.wXfXfXfXkX.X_ s FXFXFXFXFXFXFXFXFXFXFXFXFXFXFXFXFXFXFXFXFXFXFXFX",
"FXFXFXFXFX! 3XkXvXjX3X X5X6XqXjXbXbXbXbXbXvXlXjX@XD.=X2X2X2X2X2X1X=X=X=X*X=XG.G.F.H.Z.N.C.G.*X|.wXfXfXgX].P L -XP.h U g FXFXFXFX' { { { { l.j.W.FXFXFXFXFXFXFXFX",
"FXFXFXFXFXFX] 3XtXqX6X5XOX X5X6X6XfXlXbXnXbXnXdXdX{.>.m.*X2X2X2X2X2X=XZ.C.Z.H.H.H.H.H.H.H.F.f.h. XtXwXE.P U U U.P.U :XP._ ,.{.#X9X9X9X8X8X@X{.[.{.{.[.FXFXFXFXFX",
"FXFXFXFXFXFXFX( ).3X X X5X4X4X4X5X5X6XqXkXvX8XI.I.mX-XP :.;.S.=X2X=XC.Z.F.J.J.J.J.J.F.F.H.N.D.v.h.v.` p :X;XI U U L P ,.oX0X0X9X0X0X0XqX9XwXgXwX+X{.@X{.FXFXFXFX",
"FXFXFXFXFXFXFXFXT ` [. X^.[.OX5X4XeXeX6X5XY.:.U.U.U.U.-XmXU.l k ;.D.}.,X9XfXvXvXvXfXoXD.f.x. X,X Xv.7 & d h J xXU.@.'.wX0X9X9X9X0XoX~.' / ' k.XXgX4X`.4X XFXFXFX",
"FXFXFXFXFXFXFXFXFXFX>. X3X X_._. X X4X5X<.l DXaXI.U.U.U.P.L z <..XjXbXNXBXBXnXwX9X8XhXgX_.{ ).,X,X}.a a & & & d a ].gXfXgXsXqX0X`./ / ( W / ^ ~ ).6X'.c.4X] FXFX",
"FXFXFXFXFXFXFXFXFXFXFX! x.c. X{. X[.).<.d g U I I DX;Xh i _ +XvXnXnXnXnXvXjXnXgXwX/.`.6XeX'.( !.}.<.g U a & g g & ].gXgXfX9X9X{.( / z.' T ] l.j.W ' E.) [.XXFXFX",
"FXFXFXFXFXFXFXFXFXFXFXFX&.B.B.f.g.x.c.<.a I I g J P.K & _ 9XnXbXbXNXBXBXvX+X{.9XjXtX_.!. X X~.{ FXFXFX& & & g g & <. X9XgXsX+X] W W W FXFXFX/ R.} T ^ ' / { FXFX",
"FXFXFXFXFXFXFXFXFXFXFXFXS r.0.#.#.B u u r H P G P.U a p `.tXvXbXbXlXwXwXgXkXwX[.W.3XeX_.h.^.@X^.FXFXFXFXFXFXFXFXFXFX' {.fXkXgXXX] FXFXFXFXFXFXj.{ FXFX' W FXFXFX",
"FXFXFXFXFXFXFXFXFXFXFXFX1.$X9.5.6.M p.%X%Xu.+.y.n f s p ,.OXtX4X8XjX@XR.[ XXtX6Xl.l.3XOXh.FXFXFXFXFXFXFXFXFXFXFXFXFXFXFX,.'.XX6X3X~.k.FXFXFXFXFXFXFXFXFXFXFXFXFX",
"FXFXFXFXFXFXFXFXFXFXFXFXC A C +.6.A 5.e.e.6.F 8.S M 1.D R ` c.>.>.OXtX X! ! c.OX_.Q ` XX[.FXFXFXFXFXFXFXFXFXFXFXFXFXFXFXFXFXFX>.!.8X@XFXFXFXFXFXFXFXFXFXFXFXFXFX",
"FXFXFXFXFXFXFXFXFXFXFX2.9.S F 3.2.6.e.2.e.2.6.2.2.2.6.S 2.4.4.4.#.;._.OX{._ E E.` B t FXFXFXFXFXFXFXFXFXFXFXFXFXFXFXFXFXFXFXFXFXFXFXFXFXFXFXFXFXFXFXFXFXFXFXFXFX",
"FXFXFXFXFXFXFXFXFXFXFX&.y.+.e.y.y.u.p.6.%X6.y.y.y.y.y.D 3.6.6.2.N h z :.E._ P g N 1.x FXFXFXFXFXFXFXFXFXFXFXFXFXFXFXFXFXFXFXFXFXFXFXFXFXFXFXFXFXFXFXFXFXFXFXFXFX",
"FXFXFXFXFXFXFXFXFXFX%.q.y.2.y.y.y.e.9.6.i.D 9.y.y.y.y.5.F 2.G j h g a a d L U g H 4...B FXFXFXFXFXFXFXFXFXFXFXFXFXFXFXFXFXFXFXFXFXFXFXFXFXFXFXFXFXFXFXFXFXFXFXFX",
"FXFXFXFXFXFXFXFXFXFX%.w.y.2.6.8.7.a.a.a.H N H H H #.7.7.n j h K J g g K U J f A V #...=.-.O.FXFXFXFXFXFXFXFXFXFXFXFXFXFXFXFXFXFXFXFXFXFXFXFXFXFXFXFXFXFXFXFXFXFX",
"FXFXFXFXFXFXFXFXFXk G :.I G 5.G I.:X:X:X:X;X;XL s h I d a h g d g d U L g r 1.V S S *.J.J.C.-.=.FXFXFXFXFXFXFXFXFXFXFXFXFXFXFXFXFXFXFXFXFXFXFXFXFXFXFXFXFXFXFXFX",
"FXFXFXFXFXFXFXFXJ P.P.U P.L G L I.-XU.U J U I.U.P.I.-X;X-XI.s g J j N G A D 2.V +.m -.M.Z.J.Z.M.s.-.FXFXFXFXFXFXFXFXFXFXFXFXFXFXFXFXFXFXFXFXFXFXFXFXFXFXFXFXFXFX",
"FXFXFXFXFXFXFXJ I g a K I.-X;X-X-XU.-XU.J J I.xXxXaX:X;X-XU s f #.6.D 2.1.F 2.V V Z *.M.n.M.C.Z.M.n.s.FXFXFXFXFXFXFXFXFXFXFXFXFXFXFXFXFXFXFXFXFXFXFXFXFXFXFXFXFX",
"FXFXFXFXFXFXFXg J g 7 g L K L K l l G P I.I.P @.w.S.;.8.e.M H 5.6.5.S 1.D +.D M V #.%.b.n.n.n.N.N.M.n.d.-.FXFXFXFXFXFXFXFXFXFXFXFXFXFXFXFXFXFXFXFXFXFXFXFXFXFXFX",
"FXFXFXFXFXFXs K I g s d s j ;.V.Z.F.F.J.<X=XF.F.H.H.N.q.y.2.C 5.6.1.A 2.V D M 2.D 2.$.*.n.n.n.n.n.n.n.n.n.s.FXFXFXFXFXFXFXFXFXFXFXFXFXFXFXFXFXFXFXFXFXFXFXFXFXFX",
"FXFXFXFXFXFXa J L a & G A w.H.H.H.H.H.H.H.H.H.H.H.H.N.=.y.8.v X.2.S V D c V $.=.2.5.6.$.s.n.n.n.n.n.n.n.n.n.d.FXFXFXFXFXFXFXFXFXFXFXFXFXFXFXFXFXFXFXFXFXFXFXFXFX",
"FXFXFXFXFXFXFXFXFXFXFXq.$.o.C.H.H.Z.M.A.H.H.H.H.H.A.N.b.r.y.c b b c b x r &.n.s.$.6.5.4.&.=.n.n.n.n.n.n.n.d.-.%.FXFXFXFXFXFXFXFXFXFXFXFXFXFXFXFXFXFXFXFXFXFXFXFX",
"FXFXFXFXFXFXFXFXFXFXFX*.n.%.o.n.N.d.d.N.G.G.C.C.C.C.H.M.q.y.e : e C V ..B %.n.d.%.$.6.6.6.$.%.s.b.d.=.*.=.b.M.n.d.FXFXFXFXFXFXFXFXFXFXFXFXFXFXFXFXFXFXFXFXFXFXFX",
"FXFXFXFXFXFXFXFXFXFXFXO.n.n.O.X.*.V.H.=XyX=XH.F.B.&.n.d.&.8.e e C 2.4.&.*...o.=.-.o.6.6.6.6.4.o.o...%.n.n.B.F.Z.M.-.FXFXFXFXFXFXFXFXFXFXFXFXFXFXFXFXFXFXFXFXFXFX",
"FXFXFXFXFXFXFXFXFXFXFXu %.d. .1.q.C.H.J.=XJ.H.H.H.=.B &.e.2.FXFXM D 5.6.4.*...Z B ..5.6.6.6.2.A S o.*.s.n.n.M.M.n.n.%.FXFXFXFXFXFXFXFXFXFXFXFXFXFXFXFXFXFXFXFXFX",
"FXFXFXFXFXFXFXFXFXFXFXFXZ B D y.y.q.N.H.H.H.H.H.A.b.V D 2.FXFXFXFXFXD 2.5.4.$.#.1.b V 2.5.#.V A 5.6.$.&.*.s.d.d.b.d.&.FXFXFXFXFXFXFXFXFXFXFXFXFXFXFXFXFXFXFXFXFX",
"FXFXFXFXFXFXFXFXFXFX-.6.8.v 8.y.y.u.r.b.N.Z.Z.Z.n.r.C v b FXFXFXFXFXFXFXFX1.D S M A M b b c D 6.6.6.5.5.4.$.&.&.&.&.X.FXFXFXFXFXFXFXFXFXFXFXFXFXFXFXFXFXFXFXFXFX",
"FXFXFXFXFXFXFXFXB.Z.Z.u.8.n 8.y.p.i.u.r.0.0.0.0.t.8.b M FXFXFXFXFXFXFXFXFXFXx M V M C S c v 2.6.6.6.5.5.6.6.6.6.6.6.F FXFXFXFXFXFXFXFXFXFXFXFXFXFXFXFXFXFXFXFXFX",
"FXFXFXFXFXFXFXV.H.A.n.t.8.n 8.p.%Xi.y.y.y.y.y.y.y.S b V FXFXFXFXFXFXFXFXFXv D 5.6.5.V b V n A 6.6.6.6.6.6.6.6.8.6.2.b FXFXFXFXFXFXFXFXFXFXFXFXFXFXFXFXFXFXFXFXFX",
"FXFXFXFXFXFXV.H.C.w.r.y.8.A D i.%Xu.y.y.y.y.y.8.A A FXFXFXFXFXFXFXFXFXFXn 1.6.6.6.1.A S D S V S 2.6.6.6.6.8.8.6.#.n FXFXFXFXFXFXFXFXFXFXFXFXFXFXFXFXFXFXFXFXFXFX",
"FXFXFXFXFXZ.Z.N.q.t.y.e.3.3.1.S 2.t.y.y.8.6.D C e FXFXFXFXFXFXFXFXFXFXc 1.6.6.6.2.M 2.6.5.D S D D +.2.8.e.y.6.D FXFXFXFXFXFXFXFXFXFXFXFXFXFXFXFXFXFXFXFXFXFXFXFX",
"FXFXFXFXFXq.q.0.y.8.6.e.u.t.3.2.X.#.S A A V D D e FXFXFXFXFXFXFXFXFXFXb 2.6.6.6.V A 6.6.2.V D D 2.2.1.2.F S b e FXFXFXFXFXFXFXFXFXFXFXFXFXFXFXFXFXFXFXFXFXFXFXFX",
"FXFXFXFXM 9.y.y.8.1.e.u.i.%X6.5.p.u.6.3.3.3.6.V FXFXFXFXFXFXFXFXFXFXFXFXV 6.6.6.V S 5.6.D M 6.6.3.1.y.8.S b x FXFXFXFXFXFXFXFXFXFXFXFXFXFXFXFXFXFXFXFXFXFXFXFXFX",
"FXFXFXFXS 6.y.y.F 6.u.p.%Xi.e.6.y.6.9.8.8.y.8.n FXFXFXFXFXFXFXFXFXFXFXFXc 2.6.6.X.V 5.6.D C 6.6.y.e.t.2.A b FXFXFXFXFXFXFXFXFXFXFXFXFXFXFXFXFXFXFXFXFXFXFXFXFXFX",
"FXFXFXFXb 2.y.8.D y.p.i.i.p.u.y.y.y.y.2.D y.1.FXFXFXFXFXFXFXFXFXFXFXFXFXe 1.6.6.X.S 5.6.+.A 6.e.y.p.e.1.C FXFXFXFXFXFXFXFXFXFXFXFXFXFXFXFXFXFXFXFXFXFXFXFXFXFXFX",
"FXFXFXFX: M 6.3.1.y.p.p.p.t.y.y.y.e.1.M 1.F v FXFXFXFXFXFXFXFXFXFXFXFXFXe 1.6.6.S 1.6.6.2.1.8.y.y.u.2.n FXFXFXFXFXFXFXFXFXFXFXFXFXFXFXFXFXFXFXFXFXFXFXFXFXFXFXFX",
"FXFXFXFXFXe 2.+.8.u.p.p.u.y.y.y.8.A b S C e FXFXFXFXFXFXFXFXFXFXFXFXFXFX6 r S 5.M 1.6.6.6.5.e.y.8.8.V FXFXFXFXFXFXFXFXFXFXFXFXFXFXFXFXFXFXFXFXFXFXFXFXFXFXFXFXFX",
"FXFXFXFXFXe 3.2.e.p.p.p.y.y.y.e.V b b x FXFXFXFXFXFXFXFXFXFXFXFXFXFXFX: 6 6 Z N w y  . .D 5.#.u u e FXFXFXFXFXFXFXFXFXFXFXFXFXFXFXFXFXFXFXFXFXFXFXFXFXFXFXFXFXFX",
"FXFXFXFXFXw 1.6.u.p.p.p.u.y.y.1.1.M FXFXFXFXFXFXFXFXFXFXFXFXFXFXFXFXFXFXe M 1.w 8 6 8 6 n D t 8 6 w FXFXFXFXFXFXFXFXFXFXFXFXFXFXFXFXFXFXFXFXFXFXFXFXFXFXFXFXFXFX",
"FXFXFXFX: 6 t 2.#. . .2.2.1.6.2.D e FXFXFXFXFXFXFXFXFXFXFXFXFXFXFXFXFX~ 0 u A N Z M r v D A y y w FXFXFXFXFXFXFXFXFXFXFXFXFXFXFXFXFXFXFXFXFXFXFXFXFXFXFXFXFXFXFX",
"FXFXFXFX: r Z D w 8 8 6 6 6 M A 6 : FXFXFXFXFXFXFXFXFXFXFXFXFXFXFXFX{ { W 5 8 0 t y y y r r t q / ' ^ FXFXFXFXFXFXFXFXFXFXFXFXFXFXFXFXFXFXFXFXFXFXFXFXFXFXFXFXFX",
"FXFXFXFXFXn 3.1.A Z u y y y 2.X.w FXFXFXFXFXFXFXFXFXFXFXFXFXFXFXFX( h.| W 5 8 Y Y Y Y Y 5 1 9 W j.R.l.] { ~ FXFXFXFXFXFXFXFXFXFXFXFXFXFXFXFXFXFXFXFXFXFXFXFXFXFX",
"FXFXFXFX5 3 6 0 q u A H N M N v FXFXFXFXFXFXFXFXFXFXFXFXFXFXFXFXY ] } { W 8 5 5 8 9 9 8 5 4 9 T ' l.h.j.z.l.j.} { ' FXFXFXFXFXFXFXFXFXFXFXFXFXFXFXFXFXFXFXFXFXFX",
"FXFXFX1 8 E ] h.} W { !.[ 6 9 8 FXFXFXFXFXFXFXFXFXFXFXFXFXFXFXFX9 W Q W Y Y Y 9 4 5 5 5 8 8 8 9 T W ] z.Q.Q.Q.Q.Q.!.!.j.( E FXFXFXFXFXFXFXFXFXFXFXFXFXFXFXFXFXFX",
"FXFXFX1 ! [.[.[.R.^ (.[.[.` 8 4 FXFXFXFXFXFXFXFXFXFXFXFXFXFXFXFX1 1 3 5 4 4 4 4 5 1 1 1 1 1 3 1 2 4 T ~ ( ' l.z.W.^.~.{ ( W 4 FXFXFXFXFXFXFXFXFXFXFXFXFXFXFXFXFX",
"FXFXFX! ^.[.^.^.j.^ Q.^.[.Q.0 FXFXFXFXFXFXFXFXFXFXFXFXFXFXFXFXFXFX@ # 1 1 1 1 1 1 1 FXFXFX@ # 1 2 2 1 2 4 4 8 8 8 8 8 4 4 5 5 @ FXFXFXFXFXFXFXFXFXFXFXFXFXFXFXFX",
"FXFX0 h./.[.oX+X[.W.#XoX/.(.` % FXFXFXFXFXFXFXFXFXFXFXFXFXFXFXFXFXFXFXFXFXFXFXFXFXFXFXFXFXFXFXFXFX# 2 8 4 8 4 4 4 4 4 8 4 1 FXFXFXFXFXFXFXFXFXFXFXFXFXFXFXFXFXFX",
"FX8 >.#X0X0X0X0X+X[.0X0X0X9X#X` 3 FXFXFXFXFXFXFXFXFXFXFXFXFXFXFXFXFXFXFXFXFXFXFXFXFXFXFXFXFXFXFXFXFXFXFXFXFXFXFXFXFXFXFXFXFXFXFXFXFXFXFXFXFXFXFXFXFXFXFXFXFXFXFX",
"6 W ' ^.{.OX@X7XXX/.8X@XOX~.{ / W # FXFXFXFXFXFXFXFXFXFXFXFXFXFXFXFXFXFXFXFXFXFXFXFXFXFXFXFXFXFXFXFXFXFXFXFXFXFXFXFXFXFXFXFXFXFXFXFXFXFXFXFXFXFXFXFXFXFXFXFXFXFX",
"8 W ~ ~ / h.j.j.] ~ j.h.j.{ Q W q @ FXFXFXFXFXFXFXFXFXFXFXFXFXFXFXFXFXFXFXFXFXFXFXFXFXFXFXFXFXFXFXFXFXFXFXFXFXFXFXFXFXFXFXFXFXFXFXFXFXFXFXFXFXFXFXFXFXFXFXFXFXFX",
"3 9 T T W ~ ~ ~ W q ~ ~ ~ k q q 3 @ FXFXFXFXFXFXFXFXFXFXFXFXFXFXFXFXFXFXFXFXFXFXFXFXFXFXFXFXFXFXFXFXFXFXFXFXFXFXFXFXFXFXFXFXFXFXFXFXFXFXFXFXFXFXFXFXFXFXFXFXFXFX",
"# 5 1 3 6 6 6 6 6 3 6 6 6 6 6 3 FXFXFXFXFXFXFXFXFXFXFXFXFXFXFXFXFXFXFXFXFXFXFXFXFXFXFXFXFXFXFXFXFXFXFXFXFXFXFXFXFXFXFXFXFXFXFXFXFXFXFXFXFXFXFXFXFXFXFXFXFXFXFXFX"
};
