/* XPM */
static char *result[] = {
/* columns rows colors chars-per-pixel */
"80 80 248 2 ",
"   c gray1",
".  c #070808",
"X  c #0C0C0C",
"o  c #160E08",
"O  c gray7",
"+  c #181514",
"@  c gray11",
"#  c #2E1307",
"$  c #25170F",
"%  c #38190A",
"&  c #31241C",
"*  c #3A3718",
"=  c #3B3B1B",
"-  c #351F2E",
";  c #232323",
":  c #2B2623",
">  c gray17",
",  c #362C2C",
"<  c #3D2334",
"1  c #333434",
"2  c #373839",
"3  c #393939",
"4  c #461C06",
"5  c #5D2403",
"6  c #552308",
"7  c #5C260B",
"8  c #482612",
"9  c #5B2714",
"0  c #662908",
"q  c #732D06",
"w  c #703415",
"e  c #462629",
"r  c #572826",
"t  c #4A273C",
"y  c #533431",
"u  c #58393A",
"i  c #71382F",
"p  c #622E36",
"a  c #484425",
"s  c #4C4C2B",
"d  c #544B2B",
"f  c #564635",
"g  c #504B33",
"h  c #545433",
"j  c #5A5638",
"k  c #5C5C3B",
"l  c #734B33",
"z  c #66593A",
"x  c #6A603C",
"c  c #4D2841",
"v  c #542C44",
"b  c #5B2E47",
"n  c #5E314A",
"m  c #642E48",
"M  c #63334C",
"N  c #6A3549",
"B  c #75364B",
"V  c #652F50",
"C  c #693552",
"Z  c #6C3553",
"A  c #723A56",
"S  c #763955",
"D  c #753A59",
"F  c #7B3C5C",
"G  c #7D3E60",
"H  c #73494C",
"J  c #695A44",
"K  c #5F6040",
"L  c #656543",
"P  c #6D6D4C",
"I  c #746A4D",
"U  c #777857",
"Y  c #7D7D63",
"T  c #863403",
"R  c #8C370E",
"E  c #863B12",
"W  c #894117",
"Q  c #964314",
"!  c #994718",
"~  c #A14E1D",
"^  c #A3501F",
"/  c #8C5232",
"(  c #A45221",
")  c #A85528",
"_  c #AC5A2A",
"`  c #AB5A30",
"'  c #B35A33",
"]  c #93633A",
"[  c #AD6336",
"{  c #B56332",
"}  c #B96635",
"|  c #BA693A",
" . c #C16E3C",
".. c #C3703F",
"X. c #8F3A4A",
"o. c #873C58",
"O. c #9A3D52",
"+. c #A53E4F",
"@. c #823F61",
"#. c #944F47",
"$. c #86435C",
"%. c #9A425A",
"&. c #B45046",
"*. c #A74256",
"=. c #B94758",
"-. c #8F6D4F",
";. c #BC6C43",
":. c #B87245",
">. c #B17753",
",. c #844163",
"<. c #8B4466",
"1. c #8E4867",
"2. c #8D4669",
"3. c #974766",
"4. c #91476B",
"5. c #944A6B",
"6. c #905A6C",
"7. c #974B70",
"8. c #9B4D73",
"9. c #AC4B69",
"0. c #B74D66",
"q. c #BA5266",
"w. c #A24E75",
"e. c #A55075",
"r. c #AB5177",
"t. c #A5527B",
"y. c #AB557B",
"u. c #B4597C",
"i. c #B7587D",
"p. c #9D696F",
"a. c #8A7767",
"s. c #C44C5D",
"d. c #C94D5E",
"f. c #CC575B",
"g. c #C46949",
"h. c #C47344",
"j. c #C87747",
"k. c #CC7B4B",
"l. c #CE6E53",
"z. c #CA7B55",
"x. c #D37B58",
"c. c #E36F5C",
"v. c #C54E62",
"b. c #C45465",
"n. c #CD5162",
"m. c #D25263",
"M. c #DB5867",
"N. c #CF5D72",
"B. c #E35A69",
"V. c #EC5C6D",
"C. c #F35E6F",
"Z. c #D6706B",
"A. c #D86776",
"S. c #EB6E6E",
"D. c #E76877",
"F. c #FE6373",
"G. c #F66879",
"H. c #7F805F",
"J. c #80805F",
"K. c #B48559",
"L. c #878665",
"P. c #938E6E",
"I. c #949574",
"U. c #9B9B7A",
"Y. c #AB8A65",
"T. c #BFA778",
"R. c #C78455",
"E. c #D48353",
"W. c #D58659",
"Q. c #DB8B5B",
"!. c #E08D5C",
"~. c #DB8C63",
"^. c #DB8867",
"/. c #DC9362",
"(. c #DA9567",
"). c #D3926C",
"_. c #E4896B",
"`. c #E49567",
"'. c #E49C6B",
"]. c #E78973",
"[. c #E89977",
"{. c #F3977A",
"}. c #DCA36E",
"|. c #DAA474",
" X c #EAA474",
".X c #EDA876",
"XX c #E8A778",
"oX c #EBAB7A",
"OX c #F2AB7B",
"+X c #EBB17E",
"@X c #BD5A80",
"#X c #C25A82",
"$X c #DF7686",
"%X c #F36F80",
"&X c #E87484",
"*X c #FA7788",
"=X c #A39981",
"-X c #A7A786",
";X c #AEAD91",
":X c #B7B796",
">X c #EB9C82",
",X c #F3918C",
"<X c #FD8394",
"1X c #F88796",
"2X c #FF8C9C",
"3X c #ECA586",
"4X c #F4A687",
"5X c #F6AB8D",
"6X c #ECB885",
"7X c #F5B583",
"8X c #F6B689",
"9X c #F4BC8B",
"0X c #EEAD93",
"qX c #F6AC93",
"wX c #F9AD95",
"eX c #FDA799",
"rX c #F7BC95",
"tX c #F6B798",
"yX c #F496A7",
"uX c #FE95A5",
"iX c #FDA8A5",
"pX c #F8BBA2",
"aX c #FEA8B9",
"sX c #EEC28C",
"dX c #F5C28E",
"fX c #EECB93",
"gX c #F6C593",
"hX c #F9C594",
"jX c #F5CB95",
"kX c #F6CD9A",
"lX c #F8C899",
"zX c #F6D39D",
"xX c #F8D19D",
"cX c #C9C7A8",
"vX c #FAC3AA",
"bX c #F8D6A4",
"nX c #F7DDA4",
"mX c #F9DCA4",
"MX c #F9DCAB",
"NX c #F8E0A7",
"BX c #F8E1A9",
"VX c #FCE9B5",
"CX c #FDE9B7",
"ZX c #FFF0BE",
"AX c #FFAFC0",
"SX c #FFB5C6",
"DX c #E8E8E2",
"FX c None",
/* pixels */
"FXFXFXFXFXFXFXFXFXFXFXFXFXFXFXFXFXFXFXFXFXFXFXFXFXFXFXFX. . FXFXFXFXFXFXFXFXFXFXFXFXFXFXFXFXFXFXFXFXFXFXFXFXFXFXFXFXFXFXFXFXFXFXFXFXFXFXFXFXFXFXFXFXFXFXFXFXFXFX",
"FXFXFXFXFXFXFXFXFXFXFXFXFXFXFXFXFXFXFXFXFXFXFXFX. @ @ @ ; > ; O FXFXFXFXFXFXFXFXFXFXFXFXFXFXFXFXFXFXFXFXFXFXFXFXFXFXFXFXFXFXFXFXFXFXFXFXFXFXFXFXFXFXFXFXFXFXFXFX",
"FXFXFXFXFXFXFXFXFXFXFXFXFXFXFXFXFXFXFXFX+ > > > > 3 3 3 ; @ > ; @ > > > .   . ; > +     FXFXFXFXFXFXFXFXFXFXFXFXFXFXFXFXFXFXFXFXFXFXFXFXFXFXFXFXFXFXFXFXFXFXFXFX",
"FXFXFXFXFXFXFXFXFXFXFXFXFXFXFXFXFXFX  O ; 3 3 3 3 3 3 3 1 > > > ; @ ; > > > > > > ;   FXFXFXFXFXFXFXFXFXFXFXFXFXFXFXFXFXFXFXFXFXFXFXFXFXFXFXFXFXFXFXFXFXFXFXFXFX",
"FXFXFXFXFXFXFXFXFXFXFXFXFXFXFXFXFX. X 1 3 3 3 3 3 3 3 3 3 3 3 1 1 1 ; . > 1 @ .   FXFX    FXFXFXFXFXFXFXFXFXFXFXFXFXFXFXFXFXFXFXFXFXFXFXFXFXFXFXFXFXFXFXFXFXFXFX",
"FXFXFXFXFXFXFXFXFXFXFXFXFXFXFXFXFX+ 3 3 3 3 3 3 1 3 3 3 3 3 3 @ ; & l l $ X X   FXFXFXFXFXFXFXFXFXFXFXFXFXFXFXFXFXFXFXFXFXFXFXFXFXFXFXFXFXFXFXFXFXFXFXFXFXFXFXFX",
"FXFXFXFXFXFXFXFXFXFXFXFXFXFX. X O > 3 3 3 3 3 ; ; 3 3 3 3 1 > & + ; e ).R.-.& . . . . . FXFXFXFXFXFXFXFXFXFXFXFXFXFXFXFXFXFXFXFXFXFXFXFXFXFXFXFXFXFXFXFXFXFXFXFX",
"FXFXFXFXFXFXFXFXFXFXFXFXFXFXFX; 1 3 3 3 3 3 1 @ 1 3 3 3 3 @ / (.>.l ; f |.|.>.% X X X . FXFXFXFXFXFXFXFXFXFXFXFXFXFXFXFXFXFXFXFXFXFXFXFXFXFXFXFXFXFXFXFXFXFXFXFX",
"FXFXFXFXFXFXFXFXFXFXFXFXFXFXFXX 1 3 3 3 3 3 > @ 3 3 3 3 3 : /  XhX7Xl o >.l 8 % O O O . FXFXFXFXFXFXFXFXFXFXFXFXFXFXFXFXFXFXFXFXFXFXFXFXFXFXFXFXFXFXFXFXFXFXFXFX",
"FXFXFXFXFXFXFXFXFXFXFXFXFXFXFXO 1 3 3 3 3 3 > O 1 3 3 3 3 1 & XXXX#.& -.kX'./ O O O O X . . FXFXFXFXFXFXFXFXFXFXFXFXFXFXFXFXFXFXFXFXFXFXFXFXFXFXFXFXFXFXFXFXFXFX",
"FXFXFXFXFXFXFXFXFXFXFXFXFXFX. > 3 3 2 > 3 3 > o : 2 1 1 3 3 > i ] l l XXoXdX+X9 . . . . . FXFXFXFXFXFXFXFXFXFXFXFXFXFXFXFXFXFXFXFXFXFXFXFXFXFXFXFXFXFXFXFXFXFXFX",
"FXFXFXFXFXFXFXFXFXFXFXFXFXFXX 1 1 1 1 O > ; , [ ( / e f f , ; $ l >.]..Xh.:.:.q FXFXFXFXFXFXFXFXFXFXFXFXFXFXFXFXFXFXFXFXFXFXFXFXFXFXFXFXFXFXFXFXFXFXFXFXFXFXFXFX",
"FXFXFXFXFXFXFXFXFXFXFXFXFXFXFXy g g g Y.Y.Y.l 7Xj.| ) |.oXK.-.w / >.OX`. ./ 8 FXFXFXFXFXFXFXFXFXFXFXFXFXFXFXFXFXFXFXFXFXFXFXFXFXFXFXFXFXFXFXFXFXFXFXFXFXFXFXFXFX",
"FXFXFXFXFXFXFXFXFXFXFXFXFX+XhXjXzXnXnXnXNXjXoX[.].x.! |.hX4X].x.' OXOXE./.[.! FXFXFXFXFXFXFXFXFXFXFXFXFXFXFXFXFXFXFXFXFXFXFXFXFXFXFXFXFXFXFXFXFXFXFXFXFXFXFXFXFX",
"FXFXFXFXFXFXFXFXFXFXFXrXlXbXbXMXMXbXMXbXgX7XOX].].].` [ E.^.].].g.h.h.k.`.x.Q FXFXFXFXFXFXFXFXFXFXFXFXFXFXFXFXFXFXFXFXFXFXFXFXFXFXFXFXFXFXFXFXFXFXFXFXFXFXFXFXFX",
"FXFXFXFXFXFXFXFXFX'.>X3X0XwXpXvXvXvXtXqXiX4X]._.].l.' z.[ ' | g.x.x.x.x.z.) FXFXFXFXFXFXFXFXFXFXFXFXFXFXFXFXFXFXFXFXFXFXFXFXFXFXFXFXFXFXFXFXFXFXFXFXFXFXFXFXFXFX",
"FXFXFXFXFXFX'.9XxXMXVXBXMXjXmXVXCXVXVXMXMXlX>X].c.Z.) x._._.^.g.) Q ! Q FXFXFXFXFXFXFXFXFXFXFXFXFXFXFXFXFXFXFXFXFXFXFXFXFXFXFXFXFXFXFXFXFXFXFXFXFXFXFXFXFXFXFXFX",
"FXFXFXFXFXh.tXMXZXZXZXZXVXVXZXZXZXZXZXZXZXZXVXxXoX^.Z.Z.l.x.x.x.^ T FXFXFXFXFXFXFXFXFXFXFXFXFXFXFXFXFXFXFXFXFXFXFXFXFXFXFXFXFXFXFXFXFXFXFXFXFXFXFXFXFXFXFXFXFXFX",
"FXFXFXFXQ.;.0XvXMXVXVXVXVXVXVXMXZXZXVXVXVXVXBXBXNXjX[.S.,X>XoXoX/.} h.+XXXW.FXFXFXFXFXFXFXFXFXFXFXFXFXFXFXFXFXFXFXFXFXFXFXFXFXFXFXFXFXFXFXFXFXFXFXFXFXFXFXFXFXFX",
"FXFX{ [.tX(.k.[.0X0XkXbXbXnXnXdXdXMXBXnXnXnXnXnXbXgX7X`.].1XiXiXtX9X X X6X9X X].FXFXFXFXFXFXFXFXFXFXFXFXFXFXFXFXFXFXFXFXFXFXFXFXFXFXFXFXFXFXFXFXFXFXFXFXFXFXFXFX",
"FXFX_ 0XpX0XXX6XsXgXzXbXbXnXnXbX X.XgXfXkXbXbXkX9XOXOXOX7X4XuXaXaXiXiXeXeXiXiXaXAXaXFXFXFXFXFXFXFXFXFXFXFXFXFXFXFXFXFXFXFXFXFXFXFXFXFXFXFXFXFXFXFXFXFXFXFXFXFXFX",
"FXFX! [.tX9XbXBXNXNXnXnXnXnXnXnX9X'.dX.X[. X7X8X7XOX XOXjXbX4XuXSXaXaXAXSXSXAXaXaXSXaXuXFXFXFXFXFXFXFXFXFXFXFXFXFXFXFXFXFXFXFXFXFXFXFXFXFXFXFXFXFXFXFXFXFXFXFXFX",
"FXFXh.0X7XgXnXnXnXbXnXnXzXzXzXkXrX3XsX8X5X(.h./.`.'. XjXnXNX8X1XyXA.m.$XaXaXSXaXuXuXAXSXaXFXFXFXFXFXFXFXFXFXFXFXFXFXFXFXFXFXFXFXFXFXFXFXFXFXFXFXFXFXFXFXFXFXFXFX",
"FXFXk.tXpXlXnXbX+XjXbXnXnXnXzXdX7XW.'.qXwX5X' ;.~.[.5XtXlXkX8X1XyXyXN.N.A.,XSXSXaX<X*XyXuXuXG.FXFXFXFXFXFXFXFXFXFXFXFXFXFXFXFXFXFXFXFXFXFXFXFXFXFXFXFXFXFXFXFXFX",
"FXFX) 3XtX9XnXzX'.zXnXnXnXnXnXNXbX6X(.^.3X^.) ~.wXwXwXwXwXtX>XA.uXuX2XD.A.1XuX1X*X&XA.D.D.*XG.x.FXFXFXFXFXFXFXFXFXFXFXFXFXFXFXFXFXFXFXFXFXFXFXFXFXFXFXFXFXFXFXFX",
"FXFXFX;. X5XbXjX~.qXlXnXnXnXnXnXnXNXfX)._ ) W.~.~.[.qXwXwXwX].A.2X2X2X<X*XG.G.*X%X<X2X*X<X&XD.].7XoX`.FXFXFXFXFXFXFXFXFXFXFXFXFXFXFXFXFXFXFXFXFXFXFXFXFXFXFXFXFX",
"FXFXFXFXj.5XtXgXz.^.^.+XsXdXkXbXnXnXNXbXXXj.~.4X[.z.j.^.3X].f.q.$XD.G.G.%X*X2X2X<X*XD.*X2X2X*XG.dXgXdX9X.X`.FXFXFXFXFXFXFXFXFXFXFXFXFXFXFXFXFXFXFXFXFXFXFXFXFXFX",
"FXFXFXFX{ 3XwXkX(.h.[.[.OX7XgXjXzXzXnXnXnXsXk.k..X3X^.g.f.M.D.n.=.N.=.&X2X2X2X2X&Xq.=.b.D.<X2XG.dXgXhXhXhX|.K.K.FXFXFXFXFXFXFXFXFXFXFXFXFXFXFXFXFXFXFXFXFXFXFXFX",
"FXFXFXFXFX[.wXrXjX X`.4XqXrXzXbXnXbXzXzXnXbXdX'.E.l.B.%X<X*XG.%X&XA.A.1X2X2X2X2X<X&XA.d.s.A.*X{.9XgXgXgX).I I.;XU U H.k = FX| Q.`. X X X/.k.| j.E.FXFXFXFXFXFXFX",
"FXFXFXFXFXj.4XwXtXrX[./..X5X5XtXkXbXnXnXnXbXbXbX6Xz.;.Z.<X2X2X*X*X*X<X2X2X*X%XG.F.F.C.B.M.M.S.{.4X5X7X).x P L.P.U -X;X-.>./. XOX7X9X9XgXhXgX7XXX/./.'.FXFXFXFXFX",
"FXFXFXFXFXFX;.[.wXtXwX[..X3X3X5X4X5XrXkXbXnXzXT.Y.L.-Xa.-.Z.&X1X<X<X*XG.D.C.C.F.F.F.F.F.F.M.g.x.x.~.z.d ;XU.P L.U L -.XX7X8X7X7X8X7X'./.(.oX8XhX9X X XoX[.FXFXFX",
"FXFXFXFXFXFXFX) ;.z.(.`.[.5X5X3X4X5X4X5XqX3XY.I.I.-XcXU.-XcXa.H l.Z.].].>X5XeXeXeX,Xc.V.B.Z.{.].W.x./ = L.P s cXP.a +XgXdX9X7X8X'.| _ ^ ~ ^ | :.(.wXXXW.3Xh.FXFX",
"FXFXFXFXFXFXFXFXR ;.[.[.~.~.[.4XqXwXwXwX[.x Y DX;XI.U.I.I.P j K.XX6XjXbXNXBXBXbXzXkX+X~.l._.4X4X4X{.] = = * = a a a 6XjXgX9X8X X} _ k.j.' Q _ ! ^ [ (.}.[.Q.FXFX",
"FXFXFXFXFXFXFXFXFX&.g.j.^.[.`.`.`.`.(.W./ d k Y L.;XDXP.j z |.xXnXnXbXmXBXVXVXjX X`.9XgX[.h._.].^.x./ H.I.= = P j a XX8XdX7XXXh.{ | } ( R Q | j.| ! ! { } } E.FX",
"FXFXFXFXFXFXFXFXFXFXM.S.l.g.g.z.z.z.W.W./ s U P k P Y a x sXnXnXnXNXBXVXzXoX7XgXgXXXE. XwX'.h.FXFXFXFXFXk = a I.P 8 W.8XjXgXdX'.( FXFXFXFXFXFX( { ..Q ^ ^ T FXFX",
"FXFXFXFXFXFXFXFXFXFXFXM.*X<X*XS.M.=.' ) ] H p.I j L.P = -.kXnXnXnXbXmXVXVXdX'./.9XrX`.k.[. Xk.FXFXFXFXFXFXFXFXFXFXFXFX/.oX9XgXhXW.Q FXFXFXFXFXFXFX! R FXFXFXFXFX",
"FXFXFXFXFXFXFXFXFXFXFXFX%.u.A.&XA.v.N.0.N.A.A.q.#.i g * ] 8XrXgXzXzXoX/.+XgXtX~.E.3XwXh.| XXj.FXFXFXFXFXFXFXFXFXFXFXFXFXFXj.`.3X[./.R.FXFXFXFXFXFXFXFXFXFXFXFXFX",
"FXFXFXFXFXFXFXFXFXFXFXFXD w.Z r.D w.u.u.u.F r.@.A F ,.H / W.3X~./.dX9XE.{ W.5XqXE.} ~./._ FXFXFXFXFXFXFXFXFXFXFXFXFXFXFXFXFXFXFX..(.R.FXFXFXFXFXFXFXFXFXFXFXFXFX",
"FXFXFXFXFXFXFXFXFXFXFXFXn ,.V 8.2.<.y.i.u.4.w.5.F 2.2.2.$.#.#.#./ :.oX5XQ.) W.4XE.! k.XXFXFXFXFXFXFXFXFXFXFXFXFXFXFXFXFXFXFXFXFXFXFXFXFXFXFXFXFXFXFXFXFXFXFXFXFX",
"FXFXFXFXFXFXFXFXFXFXFXFXo.G Z D D ,.5.<.e.@.D D M <.A F ,.,.<.<.4.$.&.W.(.-.] R.#.p FXFXFXFXFXFXFXFXFXFXFXFXFXFXFXFXFXFXFXFXFXFXFXFXFXFXFXFXFXFXFXFXFXFXFXFXFXFX",
"FXFXFXFXFXFXFXFXFXFXFX*.9.2.8.7.8.y.y.1.#X7.,.8.8.e.F <.5.5.5.5.5.2.H L z I z d z u B FXFXFXFXFXFXFXFXFXFXFXFXFXFXFXFXFXFXFXFXFXFXFXFXFXFXFXFXFXFXFXFXFXFXFXFXFX",
"FXFXFXFXFXFXFXFXFXFX+.q.t.<.t.t.t.w.4.4.u.w.<.t.t.t.4.F 4.5.5.5.4.H j h a k k U P l *.*.FXFXFXFXFXFXFXFXFXFXFXFXFXFXFXFXFXFXFXFXFXFXFXFXFXFXFXFXFXFXFXFXFXFXFXFX",
"FXFXFXFXFXFXFXFXFXFX+.q.t.,.7.7.4.2.5.8.5.<.@.,.,.7.8.D <.4.4.$.N h U U h k U L f N *.D.A.n.FXFXFXFXFXFXFXFXFXFXFXFXFXFXFXFXFXFXFXFXFXFXFXFXFXFXFXFXFXFXFXFXFXFX",
"FXFXFXFXFXFXFXFXFXFX=.q.8.D <.5.5.4.2.,.6.p.p.6.H H H y f j f j L P L s s P K u b X.m.D.G.*XV.d.FXFXFXFXFXFXFXFXFXFXFXFXFXFXFXFXFXFXFXFXFXFXFXFXFXFXFXFXFXFXFXFX",
"FXFXFXFXFXFXFXFXFXFX#.-.a.a.a.a.I J H J -X-X:X:X;X-X-XJ.h s s k j s s a s J f n M +.n.n.M.G.G.F.m.n.FXFXFXFXFXFXFXFXFXFXFXFXFXFXFXFXFXFXFXFXFXFXFXFXFXFXFXFXFXFX",
"FXFXFXFXFXFXFXFXFXFXa L.I.I.I.I.I.J.j k a.U L.P P U.;XI.L.-X-X-XU.a h g y A $.M M X.s.n.n.m.M.G.V.m.n.FXFXFXFXFXFXFXFXFXFXFXFXFXFXFXFXFXFXFXFXFXFXFXFXFXFXFXFXFX",
"FXFXFXFXFXFXFXFXs k k k j a f P U.I.U.;X;X;XI.k K U cX:X:X:X-X=XP.f u H F @.,.M D <.*.v.n.n.n.m.M.m.n.n.s.FXFXFXFXFXFXFXFXFXFXFXFXFXFXFXFXFXFXFXFXFXFXFXFXFXFXFX",
"FXFXFXFXFXFXFXFXs h k j j a s k U U P I J z z I a.I J f H 6.n <.1.F Z @.Z D N X.*.4.%.=.n.n.n.n.n.n.n.n.n.s.FXFXFXFXFXFXFXFXFXFXFXFXFXFXFXFXFXFXFXFXFXFXFXFXFXFX",
"FXFXFXFXFXFXFXFXFXFXFX* y g d g d d l d.A.D.V.B.M.B.M.*.w.w.v F F V Z Z t N *.s.+.3.5.%.*.s.n.n.n.n.n.n.n.n.*.FXFXFXFXFXFXFXFXFXFXFXFXFXFXFXFXFXFXFXFXFXFXFXFXFX",
"FXFXFXFXFXFXFXFXFXFXFXB X.X.f.f.f.M.M.M.F.F.F.F.F.F.V.m.9.w.v m b t t b m X.n.n.=.O.5.5.3.*.=.n.n.n.n.s.=.=.=.X.FXFXFXFXFXFXFXFXFXFXFXFXFXFXFXFXFXFXFXFXFXFXFXFX",
"FXFXFXFXFXFXFXFXFXFXFX*.n.X.s.F.F.V.m.s.B.C.C.V.V.M.V.B.9.e.t c V A o.*.n.*.*.s.=.O.5.5.5.5.3.*.*.*.*.=.s.D.*XB.=.FXFXFXFXFXFXFXFXFXFXFXFXFXFXFXFXFXFXFXFXFXFXFX",
"FXFXFXFXFXFXFXFXFXFXFXFXs.s.O.%.=.d.m.V.*X*XF.C.V.M.m.m.*.5.t v ,.5.5.*.=.s.*.X.+.O.5.5.5.5.4.,.D F O.=.n.M.D.B.n.=.FXFXFXFXFXFXFXFXFXFXFXFXFXFXFXFXFXFXFXFXFXFX",
"FXFXFXFXFXFXFXFXFXFXFXFX*.m.=.m Z m.F.F.<X*XF.F.F.F.v.o.3.C FXFXb D <.4.3.%.O.O.B B <.5.5.2.Z v F 4.5.%.=.s.s.d.d.s.O.FXFXFXFXFXFXFXFXFXFXFXFXFXFXFXFXFXFXFXFXFX",
"FXFXFXFXFXFXFXFXFXFXFXFXB =.N ,.8.n.C.F.F.F.F.F.F.F.B.Z G t FXFXFXFXV A F <.,.A <.Z M A D n v ,.5.5.5.5.3.3.*.+.*.*.S FXFXFXFXFXFXFXFXFXFXFXFXFXFXFXFXFXFXFXFXFX",
"FXFXFXFXFXFXFXFXFXFXFXo.m p F t.t.0.n.B.C.F.F.F.F.B.0.v v FXFXFXFXFXFXFXFXV V b b D $.Z v c F 5.5.5.5.5.5.5.5.5.5.5.D FXFXFXFXFXFXFXFXFXFXFXFXFXFXFXFXFXFXFXFXFX",
"FXFXFXFXFXFXFXFXFXm.C.C.*.c 8.t.t.t.9.q.v.n.n.n.n.0.8.t < FXFXFXFXFXFXFXFXFXv D ,.D M D A v <.5.5.5.5.5.5.5.5.5.5.<.V FXFXFXFXFXFXFXFXFXFXFXFXFXFXFXFXFXFXFXFXFX",
"FXFXFXFXFXFXFXFXm.F.F.B.9.n 7.t.t.u.@Xy.e.e.e.e.e.t.F t FXFXFXFXFXFXFXFXt A <.4.5.4.M b D Z C ,.5.5.5.5.5.5.8.8.4.C FXFXFXFXFXFXFXFXFXFXFXFXFXFXFXFXFXFXFXFXFXFX",
"FXFXFXFXFXFXFXM.F.C.m.9.8.@.D t.i.#Xi.t.t.t.t.t.t.,.v FXFXFXFXFXFXFXFXFXD 4.5.5.4.C C <.<.F D Z F 4.5.5.8.8.e.<.M FXFXFXFXFXFXFXFXFXFXFXFXFXFXFXFXFXFXFXFXFXFXFX",
"FXFXFXFXFXFXm.C.B.v.9.t.,.,.M ,.i.@Xy.t.t.e.8.2.Z t FXFXFXFXFXFXFXFXFXV <.5.5.5.F n 4.5.5.<.Z D D F ,.<.5.5.F v FXFXFXFXFXFXFXFXFXFXFXFXFXFXFXFXFXFXFXFXFXFXFXFX",
"FXFXFXFXFX*.m.v.0.e.8.5.5.<.2.A Z F ,.,.F C C M M FXFXFXFXFXFXFXFXFXFXV 4.5.5.5.Z ,.5.5.<.A D <.F 4.5.,.o.Z c FXFXFXFXFXFXFXFXFXFXFXFXFXFXFXFXFXFXFXFXFXFXFXFXFX",
"FXFXFXFXFX3.9.e.e.4.5.t.y.i.w.2.5.1.<.H D F ,.,.v FXFXFXFXFXFXFXFXFXFXt <.5.5.5.D <.5.5.F M 5.5.5.,.t.5.M t FXFXFXFXFXFXFXFXFXFXFXFXFXFXFXFXFXFXFXFXFXFXFXFXFXFX",
"FXFXFXFX< 4.t.t.7.,.t.u.i.#X#X<.e.u.5.2.5.5.8.F FXFXFXFXFXFXFXFXFXFXFXFX,.5.5.5.o.,.5.5.,.A 4.8.t.e.8.,.n FXFXFXFXFXFXFXFXFXFXFXFXFXFXFXFXFXFXFXFXFXFXFXFXFXFXFX",
"FXFXFXFX< 4.t.t.<.,.t.i.#X@Xu.5.w.e.e.t.<.5.2.b FXFXFXFXFXFXFXFXFXFXFXFXn <.5.5.<.D 4.5.4.D <.t.y.y.5.A FXFXFXFXFXFXFXFXFXFXFXFXFXFXFXFXFXFXFXFXFXFXFXFXFXFXFXFX",
"FXFXFXFX< 4.t.8.G 8.y.i.i.u.t.t.t.t.e.2.M A b FXFXFXFXFXFXFXFXFXFXFXFXFXt ,.5.5.4.V 4.5.5.,.5.t.y.4.M FXFXFXFXFXFXFXFXFXFXFXFXFXFXFXFXFXFXFXFXFXFXFXFXFXFXFXFXFX",
"FXFXFXFX< 5.t.4.,.t.u.@Xi.y.t.t.t.5.Z v t FXFXFXFXFXFXFXFXFXFXFXFXFXFXFXe p Z 4.<.v <.<.<.4.7.2.S v FXFXFXFXFXFXFXFXFXFXFXFXFXFXFXFXFXFXFXFXFXFXFXFXFXFXFXFXFXFX",
"FXFXFXFX< 2.t.@.8.y.u.i.y.t.t.t.5.M c t FXFXFXFXFXFXFXFXFXFXFXFXFXFXFXFX9 0 t A r r r r r Z C r 0 e FXFXFXFXFXFXFXFXFXFXFXFXFXFXFXFXFXFXFXFXFXFXFXFXFXFXFXFXFXFX",
"FXFXFXFX< N 4.<.8.y.i.u.y.t.t.8.F v FXFXFXFXFXFXFXFXFXFXFXFXFXFXFXFXFXv p p A D r 9 9 9 r A C i 9 e FXFXFXFXFXFXFXFXFXFXFXFXFXFXFXFXFXFXFXFXFXFXFXFXFXFXFXFXFXFX",
"FXFXFXFX< 7 i ,.S <.1.1.,.$.5.F t FXFXFXFXFXFXFXFXFXFXFXFXFXFXFXFXFX_ ) i p p M M M M M M M p i [ ( FXFXFXFXFXFXFXFXFXFXFXFXFXFXFXFXFXFXFXFXFXFXFXFXFXFXFXFXFXFX",
"FXFXFXFXv p B M 7 9 9 9 9 7 M C - FXFXFXFXFXFXFXFXFXFXFXFXFXFXFXFXFX ...! 5 0 q w w q 0 8 9 0 ! E.j.} ( FXFXFXFXFXFXFXFXFXFXFXFXFXFXFXFXFXFXFXFXFXFXFXFXFXFXFXFX",
"FXFXFXFXe Z 4.,.p p p p p p @.F < FXFXFXFXFXFXFXFXFXFXFXFXFXFXFXFX( h.| ! 7 7 q T T q 0 4 0 0 Q j.j.| h...k.| FXFXFXFXFXFXFXFXFXFXFXFXFXFXFXFXFXFXFXFXFXFXFXFXFX",
"FXFXFX4 q 7 i B B N N N N M N u FXFXFXFXFXFXFXFXFXFXFXFXFXFXFXFX7 ) } ! T T 0 6 7 7 6 6 0 0 0 T ^ _  .E.W.W.E... .} FXFXFXFXFXFXFXFXFXFXFXFXFXFXFXFXFXFXFXFXFXFX",
"FXFXFX0 q / | h.h.) ` ;.` w 0 6 FXFXFXFXFXFXFXFXFXFXFXFXFXFXFXFX4 w w 0 q q q q q q 0 6 6 7 0 0 q 0 ! } E.!.`.`.W.E.k.j.h.~ FXFXFXFXFXFXFXFXFXFXFXFXFXFXFXFXFXFX",
"FXFXFXw :.`.`.`.!.} W.`.`.h.q 4 FXFXFXFXFXFXFXFXFXFXFXFXFXFXFXFXFX% 4 4 4 4 4 4 4 4 # 7 7 % 4 6 6 % 0 T ! { k.W.E.k. .} _ Q 0 FXFXFXFXFXFXFXFXFXFXFXFXFXFXFXFXFX",
"FXFXFX[ `.!.Q.Q.k.} Q.W.!.Q.w FXFXFXFXFXFXFXFXFXFXFXFXFXFXFXFXFXFXFXFXFX# # # # # # FXFXFXFXFXFX4 4 6 4 6 5 0 0 0 0 5 5 6 6 6 $ FXFXFXFXFXFXFXFXFXFXFXFXFXFXFXFX",
"FXFXE j.Q.'..XoX'.W..X'.`.!.[ 8 FXFXFXFXFXFXFXFXFXFXFXFXFXFXFXFXFXFXFXFXFXFXFXFXFXFXFXFXFXFXFXFXFXFXFX4 6 5 5 5 5 5 5 0 5 4 FXFXFXFXFXFXFXFXFXFXFXFXFXFXFXFXFXFX",
"FX7 |  X7X8X8X8XOX'.OX8X8X7X X[ 4 FXFXFXFXFXFXFXFXFXFXFXFXFXFXFXFXFXFXFXFXFXFXFXFXFXFXFXFXFXFXFXFXFXFXFXFXFXFXFXFXFXFXFXFXFXFXFXFXFXFXFXFXFXFXFXFXFXFXFXFXFXFXFX",
"FXE } Q.'.XX6XgX+Xh./. X`.j.{ _ W FXFXFXFXFXFXFXFXFXFXFXFXFXFXFXFXFXFXFXFXFXFXFXFXFXFXFXFXFXFXFXFXFXFXFXFXFXFXFXFXFXFXFXFXFXFXFXFXFXFXFXFXFXFXFXFXFXFXFXFXFXFXFX",
"0 ^ ( ( { h.j.j...Q { j.h. .( ! 9 4 FXFXFXFXFXFXFXFXFXFXFXFXFXFXFXFXFXFXFXFXFXFXFXFXFXFXFXFXFXFXFXFXFXFXFXFXFXFXFXFXFXFXFXFXFXFXFXFXFXFXFXFXFXFXFXFXFXFXFXFXFXFX",
"% q E E ! ( ( ( ^ R ! ( ( ~ Q 0 % FXFXFXFXFXFXFXFXFXFXFXFXFXFXFXFXFXFXFXFXFXFXFXFXFXFXFXFXFXFXFXFXFXFXFXFXFXFXFXFXFXFXFXFXFXFXFXFXFXFXFXFXFXFXFXFXFXFXFXFXFXFXFX",
"# 4 4 7 E E E E E E E E E w 9 4 FXFXFXFXFXFXFXFXFXFXFXFXFXFXFXFXFXFXFXFXFXFXFXFXFXFXFXFXFXFXFXFXFXFXFXFXFXFXFXFXFXFXFXFXFXFXFXFXFXFXFXFXFXFXFXFXFXFXFXFXFXFXFXFX"
};
