/* XPM */
static char *result[] = {
/* columns rows colors chars-per-pixel */
"80 80 249 2 ",
"   c #020202",
".  c #080706",
"X  c #0B0B0A",
"o  c #0F0F10",
"O  c #131313",
"+  c #1C1410",
"@  c #1B1C1C",
"#  c #2C140A",
"$  c #351708",
"%  c #251913",
"&  c #2E231C",
"*  c #383918",
"=  c #1E2123",
"-  c #232323",
";  c #2A2725",
":  c #2C2C2C",
">  c #372926",
",  c #3D2333",
"<  c #343434",
"1  c #363738",
"2  c #393939",
"3  c #451B06",
"4  c #4B210A",
"5  c #5C2303",
"6  c #572409",
"7  c #482718",
"8  c #592914",
"9  c #503B16",
"0  c #66290A",
"q  c #752D05",
"w  c #662C11",
"e  c #723414",
"r  c #4F292A",
"t  c #493627",
"y  c #47263A",
"u  c #592C37",
"i  c #633037",
"p  c #6A3130",
"a  c #6F431C",
"s  c #474726",
"d  c #544B2D",
"f  c #54502F",
"g  c #594636",
"h  c #545434",
"j  c #5C5C3B",
"k  c #7A4828",
"l  c #6E4B32",
"z  c #67603D",
"x  c #4E2940",
"c  c #572C46",
"v  c #5B2E44",
"b  c #5E3149",
"n  c #642E4C",
"m  c #64334D",
"M  c #693348",
"N  c #76394B",
"B  c #6B3553",
"V  c #6A3652",
"C  c #723A56",
"Z  c #763854",
"A  c #743A59",
"S  c #7B3C5C",
"D  c #7E3E61",
"F  c #694B4B",
"G  c #704C4A",
"H  c #686646",
"J  c #6C6C4B",
"K  c #77694D",
"L  c #757554",
"P  c #7C7B59",
"I  c #833101",
"U  c #8B3A0A",
"Y  c #8E3B0C",
"T  c #853C14",
"R  c #813E3D",
"E  c #8B4318",
"W  c #944619",
"Q  c #9D4C1C",
"!  c #A14E1D",
"~  c #934D24",
"^  c #895A36",
"/  c #915332",
"(  c #A55221",
")  c #A85627",
"_  c #AD5A2A",
"`  c #AF5B2C",
"'  c #A85B37",
"]  c #8F6238",
"[  c #AE6436",
"{  c #B76537",
"}  c #BD6A3A",
"|  c #C16E3C",
" . c #C3713F",
".. c #953A4E",
"X. c #853B58",
"o. c #A43C4D",
"O. c #A33E51",
"+. c #833F61",
"@. c #895148",
"#. c #84435A",
"$. c #99425A",
"%. c #AB4153",
"&. c #AB4658",
"*. c #B44556",
"=. c #BC495B",
"-. c #B35A53",
";. c #916B4F",
":. c #A76947",
">. c #B96943",
",. c #BB7346",
"<. c #AF7252",
"1. c #844263",
"2. c #8B4466",
"3. c #8D466A",
"4. c #8F486A",
"5. c #954768",
"6. c #944A6B",
"7. c #954A70",
"8. c #9B4D73",
"9. c #965270",
"0. c #AC4C6A",
"q. c #B34B65",
"w. c #BA5061",
"e. c #A44F74",
"r. c #A35175",
"t. c #A5527A",
"y. c #AC557B",
"u. c #B5597C",
"i. c #B9587B",
"p. c #8F6B68",
"a. c #AE6C6A",
"s. c #C44C5C",
"d. c #CA4D5D",
"f. c #CD565D",
"g. c #C26B44",
"h. c #C37242",
"j. c #C97747",
"k. c #CC7B4C",
"l. c #D46859",
"z. c #CF7552",
"x. c #CB7A53",
"c. c #D47B58",
"v. c #E2775F",
"b. c #C74F62",
"n. c #CD5263",
"m. c #C8546C",
"M. c #C65869",
"N. c #D35263",
"B. c #DA5767",
"V. c #E75A69",
"C. c #E55A6A",
"Z. c #F25E6E",
"A. c #F75F70",
"S. c #D56B6A",
"D. c #F7646E",
"F. c #EC746C",
"G. c #E96879",
"H. c #FE6373",
"J. c #F76878",
"K. c #7F805F",
"L. c #85815E",
"P. c #B08156",
"I. c #888868",
"U. c #938E6B",
"Y. c #979676",
"T. c #AE9170",
"R. c #A9A07A",
"E. c #CE8353",
"W. c #C7875A",
"Q. c #D48454",
"!. c #D28856",
"~. c #D5875A",
"^. c #DC8C5B",
"/. c #E18E5C",
"(. c #E2905F",
"). c #D88764",
"_. c #DC8C63",
"`. c #CC906A",
"'. c #DB9666",
"]. c #E59766",
"[. c #E3926C",
"{. c #E39C6B",
"}. c #EA8A72",
"|. c #E88A74",
" X c #E79875",
".X c #EB9C7B",
"XX c #F4967C",
"oX c #D5A675",
"OX c #E8A16F",
"+X c #E4A372",
"@X c #ECA474",
"#X c #EBA77B",
"$X c #ECAC7B",
"%X c #F1AB79",
"&X c #F1B17F",
"*X c #BE5A80",
"=X c #C25A82",
"-X c #D87484",
";X c #EA7686",
":X c #F87787",
">X c #F87B8C",
",X c #A8A887",
"<X c #B4B495",
"1X c #EB8F89",
"2X c #F59984",
"3X c #FD8393",
"4X c #F48894",
"5X c #FF8C9D",
"6X c #EEA685",
"7X c #F2A483",
"8X c #F4A78A",
"9X c #F5AA8D",
"0X c #EBB786",
"qX c #F4B382",
"wX c #F8B685",
"eX c #F6B889",
"rX c #F4BC8A",
"tX c #EFAC94",
"yX c #F6AC92",
"uX c #F8AE94",
"iX c #F6B894",
"pX c #EE9BAC",
"aX c #FB96A6",
"sX c #FDA7A3",
"dX c #F8BDA5",
"fX c #FDA6B7",
"gX c #F4C18D",
"hX c #EBC690",
"jX c #F7C593",
"kX c #F8C593",
"lX c #F7C997",
"zX c #F7CD9A",
"xX c #F7D49D",
"cX c #F9D39E",
"vX c #C8C9B0",
"bX c #FAC8A5",
"nX c #F7D6A0",
"mX c #F7DDA4",
"MX c #F9DBA5",
"NX c #FADBA7",
"BX c #F8E0A7",
"VX c #F9E2AA",
"CX c #FCE7B3",
"ZX c #FFEEBB",
"AX c #FFF0BE",
"SX c #FFB3C5",
"DX c #FFB6C8",
"FX c #D3D5C1",
"GX c None",
/* pixels */
"GXGXGXGXGXGXGXGXGXGXGXGXGXGXGXGXGXGXGXGXGXGXGXGXGXGXGXGXGXGXGXX GXGXX O @ @ X GXGXGXGXGXGXGXGXGXGXGXGXGXGXGXGXGXGXGXGXGXGXGXGXGXGXGXGXGXGXGXGXGXGXGXGXGXGXGXGXGX",
"GXGXGXGXGXGXGXGXGXGXGXGXGXGXGXGXGXGXGXGXGXGXGXGXGXGXGXX @ @ @ @ @ @ ; @ - - O GXGXGXGXGXGXGXGXGXGXGXGXGXGXGXGXGXGXGXGXGXGXGXGXGXGXGXGXGXGXGXGXGXGXGXGXGXGXGXGXGX",
"GXGXGXGXGXGXGXGXGXGXGXGXGXGXGXGXGXGXGXGXGXGXGXGXGX  @ < 2 2 1 : ; @ ; 1 2 < - - : : O GXGX@ : @     GXGXGXGXGXGXGXGXGXGXGXGXGXGXGXGXGXGXGXGXGXGXGXGXGXGXGXGXGXGX",
"GXGXGXGXGXGXGXGXGXGXGXGXGXGXGXGXGXGXGXGXX - : : : : 1 2 2 2 2 2 2 2 2 2 2 2 < @ : ; - : : 2 1 O GXGXGXGXGXGXGXGXGXGXGXGXGXGXGXGXGXGXGXGXGXGXGXGXGXGXGXGXGXGXGXGX",
"GXGXGXGXGXGXGXGXGXGXGXGXGXGXGXGXGXGXGXGXO 1 2 2 2 2 2 1 : 1 2 2 2 2 2 2 2 2 2 < : @ @ 2 < - O GXGXGX  GXGXGXGXGXGXGXGXGXGXGXGXGXGXGXGXGXGXGXGXGXGXGXGXGXGXGXGXGX",
"GXGXGXGXGXGXGXGXGXGXGXGXGXGXGXGXGXGXGXGX  @ 1 2 2 : ; @ ; < 2 2 2 2 2 < 2 2 1 : : & % % O X X X GXGX  GXGXGXGXGXGXGXGXGXGXGXGXGXGXGXGXGXGXGXGXGXGXGXGXGXGXGXGXGX",
"GXGXGXGXGXGXGXGXGXGXGXGXGXGXGXGXGXGX  @ ; < 1 ; @ - : 1 2 2 2 2 < : % - < > > k ;.`.`.k % O O O X X GXGXGXGXGXGXGXGXGXGXGXGXGXGXGXGXGXGXGXGXGXGXGXGXGXGXGXGXGXGX",
"GXGXGXGXGXGXGXGXGXGXGXGXGXGXGXGXGXGXGXO 2 1 @ @ 1 2 2 2 2 2 1 : l l 7 = t :.'.&XeX0X0X%X] O O X X X GXGXGXGXGXGXGXGXGXGXGXGXGXGXGXGXGXGXGXGXGXGXGXGXGXGXGXGXGXGX",
"GXGXGXGXGXGXGXGXGXGXGXGXGXGXGXGXGXGX@ @ - : O < 2 2 2 2 < ; & 8 ^ t @.;.oXeXW.;./ <.^ ] l O X   GXGXGXGXGXGXGXGXGXGXGXGXGXGXGXGXGXGXGXGXGXGXGXGXGXGXGXGXGXGXGXGX",
"GXGXGXGXGXGXGXGXGXGXGXGXGXGXGXGXGX. O : < 1 O - 1 < : - % k E ] W.oXeXkX'.^ 7 $ P.cX'.~ + o X   GXGXGXGXGXGXGXGXGXGXGXGXGXGXGXGXGXGXGXGXGXGXGXGXGXGXGXGXGXGXGXGX",
"GXGXGXGXGXGXGXGXGXGXGXGXGXGXGX  O @ : 2 1 < @ : t t k <.W !.k.@XrXkX+X0X0X`.x.c.@X&XwX#X7 . GXGXGXGXGXGXGXGXGXGXGXGXGXGXGXGXGXGXGXGXGXGXGXGXGXGXGXGXGXGXGXGXGXGX",
"GXGXGXGXGXGXGXGXGXGXGXGXGXGXGXGXGX  X @ & 7 . > :.{.@XqXx.{ h.'.jXlX'.E.#X X.XqX%X].#XoXa . GXGXGXGXGXGXGXGXGXGXGXGXGXGXGXGXGXGXGXGXGXGXGXGXGXGXGXGXGXGXGXGXGXGX",
"GXGXGXGXGXGXGXGXGXGXGXGXGXGXGXGXX t @.T.oX0XR.R.T.&XqX.X}.g.! '.lXrX#Xz.} #XqXqX^.{ k $ X . GXGXGXGXGXGXGXGXGXGXGXGXGXGXGXGXGXGXGXGXGXGXGXGXGXGXGXGXGXGXGXGXGXGX",
"GXGXGXGXGXGXGXGXGXGXGXGXGXGXGX:.<.0XjXbXbXbXbXkXeXwX.X}.|.|.z.,.&X.X|.).` wXqX'.k.W.:.e GXGXGXGXGXGXGXGXGXGXGXGXGXGXGXGXGXGXGXGXGXGXGXGXGXGXGXGXGXGXGXGXGXGXGXGX",
"GXGXGXGXGXGXGXGXGXGXGX%XlXzXzXzXlX0XqXbXbXdXyX2X2X2X}.|.|.|.c.T ) } c._.g.x.~.[.{.{.{ GXGXGXGXGXGXGXGXGXGXGXGXGXGXGXGXGXGXGXGXGXGXGXGXGXGXGXGXGXGXGXGXGXGXGXGXGX",
"GXGXGXGXGXGXGXGXGXQ.{.nXZXAXAXZXmXNXNXCXZXZXCXNXjX8XXXF.}.}.).( >.} ) ` g.c.c.c.~.x.) GXGXGXGXGXGXGXGXGXGXGXGXGXGXGXGXGXGXGXGXGXGXGXGXGXGXGXGXGXGXGXGXGXGXGXGXGX",
"GXGXGXGXGXGXGXGX~.9XbXCXZXZXZXCXCXCXAXZXZXZXAXAXAXZXVXjX Xv.g.{ { }.}.z.{ ! Y W W GXGXGXGXGXGXGXGXGXGXGXGXGXGXGXGXGXGXGXGXGXGXGXGXGXGXGXGXGXGXGXGXGXGXGXGXGXGXGX",
"GXGXGXGXGXGX'.,. XdXiXMXVXVXCXCXcXNXZXZXZXZXZXZXZXCXCXVXjX$X|.S.g.h.c.c.>.W GXGXGXGXGXGXGXGXGXGXGXGXGXGXGXGXGXGXGXGXGXGXGXGXGXGXGXGXGXGXGXGXGXGXGXGXGXGXGXGXGXGX",
"GXGXGXGXGX{ tX#Xk.'.6XjXxXxXmXMXgXxXVXVXVXVXVXVXVXmXmXmXzX@XjX2X:X.X~.E.[ W GXGXGXGXGXGXGXGXGXGXGXGXGXGXGXGXGXGXGXGXGXGXGXGXGXGXGXGXGXGXGXGXGXGXGXGXGXGXGXGXGXGX",
"GXGXGXGX{ ).iXdXiXhXhXxXxXxXxXxX&X$XlXmXmXmXmXmXmXxXlXrX&X@XrXrX|.aXfXsXyX~.~.$X{.Q.GXGXGXGXGXGXGXGXGXGXGXGXGXGXGXGXGXGXGXGXGXGXGXGXGXGXGXGXGXGXGXGXGXGXGXGXGXGX",
"GXGXGXGX[.iX6XbXmXBXmXmXmXmXmXmXxXqX_.6XrXrX0X0XrXeXwXqX%X%XeXxXeX:XSXSXfX4X|. XeX$X` GXGXGXGXGXGXGXGXGXGXGXGXGXGXGXGXGXGXGXGXGXGXGXGXGXGXGXGXGXGXGXGXGXGXGXGXGX",
"GXGXGX,.dXdXiXxXMXxXxXmXmXxXxXMXzXiX_.Q.rX0X[.} ^.$X@X{.%XgXxXmXzX;XSXaX-Xs.-XpXfXsX1X4XGXGXGXGXGXGXGXGXGXGXGXGXGXGXGXGXGXGXGXGXGXGXGXGXGXGXGXGXGXGXGXGXGXGXGXGX",
"GXGXGX).dXdXlXgXlXMXmXmXMXxXrX&X#X.XQ.hXcXiX9X{ x. X.X8XiXlXnXMX6X>XSXSXpXn.1X-XpXDXfXfXfXGXGXGXGXGXGXGXGXGXGXGXGXGXGXGXGXGXGXGXGXGXGXGXGXGXGXGXGXGXGXGXGXGXGXGX",
"GXGXGX[.9XrX+X7XlXmXmXmXmXmXMXxXqX^._.eXyX9X_._ ~.#XuXuXyXyXiX6XS.3XfXSXfXaX4X1XfXSXfX>XaXSXfXGXGXGXGXGXGXGXGXGXGXGXGXGXGXGXGXGXGXGXGXGXGXGXGXGXGXGXGXGXGXGXGXGX",
"GXGXT ^.7X0Xj.8XiXnXmXmXmXmXmXmXMXrXQ..X Xk.h.[.[.k._.7XyX9X XS.B.3X5XaX5X5X5XaX5X3X>X;XG.4XaX3XGXGXGXGXGXGXGXGXGXGXGXGXGXGXGXGXGXGXGXGXGXGXGXGXGXGXGXGXGXGXGXGX",
"GXGXGXk.eXhX} k.[.@XgXzXnXmXmXmXmXmXgXx.j. X9XuXuX7X~.k.z.l.f.:XM.M.;X:XJ.J.:X:X>X:X3X5X3XJ.;X>XF.GXGXGXGXGXGXGXGXGXGXGXGXGXGXGXGXGXGXGXGXGXGXGXGXGXGXGXGXGXGXGX",
"GXGXGX' zXxXQ.j..X#XrXlXlXzXxXMXmXmXmXlX{. XyXyX7X X|.l.N.G.G.C.=.S.*.G.3X3X5X5X5X;XB.C.G.5X;XG.}.rXeX$X$XGXGXGXGXGXGXGXGXGXGXGXGXGXGXGXGXGXGXGXGXGXGXGXGXGXGXGX",
"GXGXGX[ iXxXyX[.[.8XyXjXnXMXMXxXxXnXMXMXzX+X).S.S.S.G.;X3X5X5X:XG.S.M.;X5X5X5X5X5X;XM.%.w.5X5X;X|.kXkXjXjXrX@XGXGXGXGXGXGXGXGXGXGXGXGXGXGXGXGXGXGXGXGXGXGXGXGXGX",
"GXGXGX{  XiXiXuX X[.7X9XiXzXmXmXmXMXMXMXxXlX+Xl.>X5X5X5X5X5X5X3X:X:X3X5X5X5X3X>X3X3Xm.M.=.G.5X>XXXjXjXjXjXjXjXqX].GXGXGXGXGXGXGXGXGXGXGXGXGXGXGXGXGXGXGXGXGXGXGX",
"GXGXGXGX{ ~.7X7X9X8X X.X8X9XiXjXxXmXmXBXMXhX`.;.;.a.-X3X5X5X5X5X5X:XJ.:X:XJ.D.D.D.D.V.B.n.C.3X>XXXjXkXkXjXjXjX`.;.L H h s GXGXGXGXGXGXGXGXGXGXGXGXGXGXGXGXGXGXGX",
"GXGXGXGXGXGX) x.[.7X7X8X7X7X9X9X9XeXlXzXoXL.I.<XvXU.Y.tXa.a.>X3X3X3XJ.V.D.D.D.A.H.H.H.H.H.D.G.J.v.7XeXrXkXrXP.H J <X,XL R.U.f l } ].].'.+X+X!.} k.E.^.GXGXGXGXGX",
"GXGXGXGXGXGXGX) '.7X X[.7X9XuXuXuXyX7X;.Y.vXY.Y.Y.Y.,X,Xh d / l.}.2X1X#XqXeXrXtXXXv.V.D.H.H.V.f.h.c.[.XX X[ U.,XL L L L Y.T.W.'.%XqXqXwXrXgXjXeX$X'.~.+Xk.GXGXGX",
"GXGXGXGXGXGXGXGX~ x.[. X_._. X X6X7X:.f I.vXY.<XvXU.J s ^ W.oXhXxXMXVXVXNXgXjXnXjX0X_.l.V.D.l.|.XX|.c.k.) 9 P U.j Y.Y.K W.%XwXwXqXqXwXwX%X'.~.@XgXkX+XE.$X'.) GX",
"GXGXGXGXGXGXGXGXGXGXGX' j.).[._.~.h.a h j j H ,X<Xh 9 P.eXlXmXNXNXNXNXNXNXlXrX$X+X0XuX7X).v.XX2X2X2X2XXX[ * * * * U.I.] qXrXrXrXgXrX+Xk.| _ W ! E.qXiXh.~.iX~.GX",
"GXGXGXGXGXGXGXGXGXGXGXGXf.F.l.l.c.Q.l j Y.J j K.j * ] &XMXBXmXmXCXCXcX&X{.{.qXlX Xc.[.9X7X{.[.XX2X2X2XXX,.H s * * * * ] eXlXjXjXjX'._ _ | _ ( h.) k.'.W.k.8X'.GX",
"GXGXGXGXGXGXGXGXGXGXGXGXw.-X;X:XV.-.&.&.M.@.l K h * ^ eXzXnXmXzXeXrXrXkXgX'.k.[.yX.Xh.} E.+XE.g.g.g.g.g.~ H s * j L * ]  XeXgXeXqX,.} Q Y GXGX{ E._ Q ~ ` ~.E.GX",
"GXGXGXGXGXGXGXGXGXGXGXGXc 2.i.$.i.$.Z 0.m.i.5.#.#.t / .XuX#XrXkXeXQ.>.W.6XuX.X| k.@X$X,.GXGXGXGXGXGXGXGXGXGXGXGXGXGX* a c.XXqXlXrX^.( I GXGXGXU | ! GXGX( ` GXGX",
"GXGXGXGXGXGXGXGXGXGXGXGXv 1.1.S t.1.S =X=Xi.1.8.r.v #.' <.>.k.qXkX$X-.G ;._.qX^.' :.'.h.GXGXGXGXGXGXGXGXGXGXGXGXGXGXGXGXGXc.OX$XeXrX X~.~.GXGXGXGXGXGXGXGXGXGXGX",
"GXGXGXGXGXGXGXGXGXGXGXGX..2.C B 3.2.D 3.5.+.B D 3.B B n n m N :.[.9X.X<.L z <.x.@.c GXGXGXGXGXGXGXGXGXGXGXGXGXGXGXGXGXGXGXGXGXGXh.E. X_.oX+XGXGXGXGXGXGXGXGXGXGX",
"GXGXGXGXGXGXGXGXGXGXGXo.&.8.2.3.2.7.r.9.4.p.G 1.1.6.6.G C G F g l >._.{.^ h f G 4.+.S GXGXGXGXGXGXGXGXGXGXGXGXGXGXGXGXGXGXGXGXGXGXGXGXGXGXGXGXGXGXGXGXGXGXGXGXGX",
"GXGXGXGXGXGXGXGXGXGXGX%.e.2.8.8.p.a.Y.,X,X,XI.g H H h H H J H H j 9 k k f L J g 6.2.V GXGXGXGXGXGXGXGXGXGXGXGXGXGXGXGXGXGXGXGXGXGXGXGXGXGXGXGXGXGXGXGXGXGXGXGXGX",
"GXGXGXGXGXGXGXGXGXGXo.&.6.#.p.Y.,X,XU.L J P I.I.P j H J f s s h h s j L P J F #.2.V N o.GXGXGXGXGXGXGXGXGXGXGXGXGXGXGXGXGXGXGXGXGXGXGXGXGXGXGXGXGXGXGXGXGXGXGXGX",
"GXGXGXGXGXGXGXGXGXGXR ;.H g h P ,X<XI.s J ,XFXvXvXvX<X,XJ s f d j J L H F M 2.1.m S N ..=.%.GXGXGXGXGXGXGXGXGXGXGXGXGXGXGXGXGXGXGXGXGXGXGXGXGXGXGXGXGXGXGXGXGXGX",
"GXGXGXGXGXGXGXGXGXh P U.J L ,X<X,XI.J J L J K @.T.p.p.K g g g g g g g C S D 6.V S M ..d.:XG.n.*.GXGXGXGXGXGXGXGXGXGXGXGXGXGXGXGXGXGXGXGXGXGXGXGXGXGXGXGXGXGXGXGX",
"GXGXGXGXGXGXGXGXf I.I.j I.,X,XL.l l G ;.a.f.V.Z.C.N.0.8.V S 6.6.6.6.S 2.1.D 1.b V Z o.d.B.J.J.C.=.%.GXGXGXGXGXGXGXGXGXGXGXGXGXGXGXGXGXGXGXGXGXGXGXGXGXGXGXGXGXGX",
"GXGXGXGXGXGXGX* h j f s J J j l N.Z.D.3XfX3XH.H.H.H.B.q.6.A 3.6.6.6.S 2.1.D 1.m m #.o.s.n.N.B.D.V.n.s.*.GXGXGXGXGXGXGXGXGXGXGXGXGXGXGXGXGXGXGXGXGXGXGXGXGXGXGXGX",
"GXGXGXGXGXGXGXh J P j * s d $.V.H.H.H.aXSX3XH.H.H.H.Z.=.t.C 1.6.6.6.S 2.1.D m S b #.$.*.n.n.n.N.B.B.n.n.=.GXGXGXGXGXGXGXGXGXGXGXGXGXGXGXGXGXGXGXGXGXGXGXGXGXGXGX",
"GXGXGXGXGXGXd J L h s t i $.C.H.H.H.H.3XaXJ.H.H.H.H.Z.=.r.8.V 4.6.2.S 2.A S v $.M 1.5.O.s.n.n.n.n.N.n.n.n.=.GXGXGXGXGXGXGXGXGXGXGXGXGXGXGXGXGXGXGXGXGXGXGXGXGXGX",
"GXGXGXGXGXGXd j s s s Z O...V.H.H.H.H.J.J.H.H.H.H.H.H.B.q.r.c S S B C B n M O.o.X.3.6.$.%.d.n.n.n.n.n.n.n.n.d.GXGXGXGXGXGXGXGXGXGXGXGXGXGXGXGXGXGXGXGXGXGXGXGXGX",
"GXGXGXGXGXGXGXGXGXGXGXX.n...&.Z.H.V.N.Z.H.H.H.H.H.H.H.V.q.t.x c x n B c X.=.n.=.$.6.6.6.5.%.=.n.n.n.n.n.n.n.n.O.GXGXGXGXGXGXGXGXGXGXGXGXGXGXGXGXGXGXGXGXGXGXGXGX",
"GXGXGXGXGXGXGXGXGXGXGXN n.d...O.N.d.n.G.G.V.Z.Z.Z.A.H.V.q.t.x c B S S S X.*.n.d.O.5.6.6.6.6.$.*.d.=.&.*.*.=.=.%.%.GXGXGXGXGXGXGXGXGXGXGXGXGXGXGXGXGXGXGXGXGXGXGX",
"GXGXGXGXGXGXGXGXGXGXGXM n.d.O.Z b.D.J.3X3XJ.Z.V.C.H.H.N.q.t.y c X.6.6.6.2.X.X.....5.6.6.6.6.6.$...$.=.s.b.G.:XC.N.s.GXGXGXGXGXGXGXGXGXGXGXGXGXGXGXGXGXGXGXGXGXGX",
"GXGXGXGXGXGXGXGXGXGXGXu o.N 3.e.b.V.H.H.H.H.H.H.B.&.V.*.e.1.y GXc S 4.6.6.6.2.C m 1.6.6.6.6.S m M =.N.n.N.B.J.D.B.n.*.GXGXGXGXGXGXGXGXGXGXGXGXGXGXGXGXGXGXGXGXGX",
"GXGXGXGXGXGXGXGXGXGXGXM M S t.t.t.q.b.B.V.V.V.C.n.$.*.0.7.c GXGXGXGXm S 2.6.6.S m b A 2.2.m c C 2.%.=.n.n.n.N.B.N.n.=.GXGXGXGXGXGXGXGXGXGXGXGXGXGXGXGXGXGXGXGXGX",
"GXGXGXGXGXGXGXGXGXGXB.6.C 8.t.t.y.t.t.0.0.0.0.0.0.1.m V c GXGXGXGXGXGXGXb V S S m b b b b x +.6.6.6.$.*.=.b.b.n.n.=.o.GXGXGXGXGXGXGXGXGXGXGXGXGXGXGXGXGXGXGXGXGX",
"GXGXGXGXGXGXGXGXd.C.B.2.C t.t.u.u.y.t.t.t.t.t.t.6.A +.y GXGXGXGXGXGXGXGXGXx m A X.S C C v x 1.6.6.6.6.5.$.%.%.%.%.O.X.GXGXGXGXGXGXGXGXGXGXGXGXGXGXGXGXGXGXGXGXGX",
"GXGXGXGXGXGXGXN.C.b.5.1.C t.u.=Xu.t.t.t.t.t.t.8.C A m GXGXGXGXGXGXGXGXGXc S 4.6.6.6.1.m n c S 6.6.6.6.6.6.5.6.5.5.5.S GXGXGXGXGXGXGXGXGXGXGXGXGXGXGXGXGXGXGXGXGX",
"GXGXGXGXGXGXC.B.q.t.D 4.C 1.i.*Xy.t.t.t.t.t.2.C S m GXGXGXGXGXGXGXGXGXGXA 6.6.6.6.S B A A S B 2.6.6.6.6.6.6.8.8.2.V GXGXGXGXGXGXGXGXGXGXGXGXGXGXGXGXGXGXGXGXGXGX",
"GXGXGXGXGXO.b.0.t.t.8.3.8.C C 5.8.t.t.8.2.C A A x GXGXGXGXGXGXGXGXGXGXS 3.6.6.6.+.C 6.6.2.D 1.C +.6.6.7.8.t.r.4.m GXGXGXGXGXGXGXGXGXGXGXGXGXGXGXGXGXGXGXGXGXGXGX",
"GXGXGXGXGXX.r.t.6.6.t.r.r.t.2.A C A C V A D 1.c GXGXGXGXGXGXGXGXGXGXGXC 2.6.6.6.B 1.6.6.6.A C 2.1.S S 3.7.2.S v GXGXGXGXGXGXGXGXGXGXGXGXGXGXGXGXGXGXGXGXGXGXGXGX",
"GXGXGXGX, 3.t.7.D t.y.i.i.2.y.u.y.6.1.D 3.7.8.V GXGXGXGXGXGXGXGXGXGXGXGXC 6.6.2.n 2.6.6.S v 1.1.3.8.6.6.1.V x GXGXGXGXGXGXGXGXGXGXGXGXGXGXGXGXGXGXGXGXGXGXGXGXGX",
"GXGXGXGX, 6.t.1.6.t.u.=X=Xr.y.r.7.4.7.D t.t.r.m GXGXGXGXGXGXGXGXGXGXGXGXy 1.6.2.B 3.6.6.m A 6.6.6.8.u.8.S y GXGXGXGXGXGXGXGXGXGXGXGXGXGXGXGXGXGXGXGXGXGXGXGXGXGX",
"GXGXGXGX, 6.t.D 8.y.u.=Xi.y.t.8.r.t.7.B t.t.S GXGXGXGXGXGXGXGXGXGXGXGXGXy D 6.+.S 6.6.3.n 2.6.8.t.y.y.1.v GXGXGXGXGXGXGXGXGXGXGXGXGXGXGXGXGXGXGXGXGXGXGXGXGXGXGX",
"GXGXGXGX, 2.t.D 8.y.u.i.u.t.t.t.t.7.m 1.8.G GXGXGXGXGXGXGXGXGXGXGXGXGXGXx 1.6.S S 6.6.3.B 6.6.t.t.r.A x GXGXGXGXGXGXGXGXGXGXGXGXGXGXGXGXGXGXGXGXGXGXGXGXGXGXGXGX",
"GXGXGXGXGXS t.D 8.y.u.u.u.t.t.t.t.V V S m GXGXGXGXGXGXGXGXGXGXGXGXGXGXy u S 2.C C 6.6.6.2.6.8.t.t.+.y GXGXGXGXGXGXGXGXGXGXGXGXGXGXGXGXGXGXGXGXGXGXGXGXGXGXGXGXGX",
"GXGXGXGXGXc t.D 8.u.u.u.y.t.t.8.S C S y GXGXGXGXGXGXGXGXGXGXGXGXGXGXGXr 8 V v r r M C 1.2.S S S N v GXGXGXGXGXGXGXGXGXGXGXGXGXGXGXGXGXGXGXGXGXGXGXGXGXGXGXGXGXGX",
"GXGXGXGXGXy 1.8.t.u.u.u.y.t.8.6.6.1.b GXGXGXGXGXGXGXGXGXGXGXGXGXGXGXGX> M 2.v w 0 0 8 Z M w 8 w 8 7 GXGXGXGXGXGXGXGXGXGXGXGXGXGXGXGXGXGXGXGXGXGXGXGXGXGXGXGXGXGX",
"GXGXGXGXGXr C N i p #.2.2.1.4.3.N u GXGXGXGXGXGXGXGXGXGXGXGXGXGXGXGXQ ~ e u m M N i M 1.v i u i u e T GXGXGXGXGXGXGXGXGXGXGXGXGXGXGXGXGXGXGXGXGXGXGXGXGXGXGXGXGX",
"GXGXGXGX, b 6.p 8 0 8 8 8 7 m V 8 7 GXGXGXGXGXGXGXGXGXGXGXGXGXGXGXQ |  .E 6 e w p i i u u i p E >.} _ Q GXGXGXGXGXGXGXGXGXGXGXGXGXGXGXGXGXGXGXGXGXGXGXGXGXGXGXGX",
"GXGXGXGXGXi V A V M u u i v 3.1.c , GXGXGXGXGXGXGXGXGXGXGXGXGXGXGX{ h.` e 6 I I I I q 3 0 I U  .Q.k.} ` ) U GXGXGXGXGXGXGXGXGXGXGXGXGXGXGXGXGXGXGXGXGXGXGXGXGXGX",
"GXGXGXGX$ 6 8 p e p N N N m M u 7 GXGXGXGXGXGXGXGXGXGXGXGXGXGXGXQ ` { W q 6 6 q q q 5 6 q I _ k.k.k.} | h.} { Q ( W GXGXGXGXGXGXGXGXGXGXGXGXGXGXGXGXGXGXGXGXGXGX",
"GXGXGXGX4 / Q./.{ ( k.x.h./ 6 q 0 GXGXGXGXGXGXGXGXGXGXGXGXGXGXGX6 q T I I I q 0 6 4 4 0 q q ) h.j.{ h.E.Q.Q.Q.Q.k.h.h.{ Q W GXGXGXGXGXGXGXGXGXGXGXGXGXGXGXGXGXGX",
"GXGXGX7 [ (.].(._ Q.].].].x.4 q 4 GXGXGXGXGXGXGXGXGXGXGXGXGXGXGX$ 3 3 3 5 5 5 5 3 3 3 3 3 0 q W ~ k | j.j.k.Q.^.^.Q.| ` ( Y 6 GXGXGXGXGXGXGXGXGXGXGXGXGXGXGXGXGX",
"GXGXGX' /.^.^.Q.{ /.(./.^.^.~ $ GXGXGXGXGXGXGXGXGXGXGXGXGXGXGXGXGX# # $ 3 3 3 3 $ GXGXGXGX+ $ 3 3 3 0 w w w 0 0 0 0 5 5 5 5 4 # GXGXGXGXGXGXGXGXGXGXGXGXGXGXGXGX",
"GXe ' ^.].@X%X@XQ.%X%X%X{.].Q.k GXGXGXGXGXGXGXGXGXGXGXGXGXGXGXGXGXGXGXGXGXGXGXGXGXGXGXGXGXGX# $ 6 5 5 0 5 5 5 5 5 5 5 0 5 3 GXGXGXGXGXGXGXGXGXGXGXGXGXGXGXGXGXGX",
"3 ) ].wXwXwXwX{.].wXwXwXwXwX%Xh.e # GXGXGXGXGXGXGXGXGXGXGXGXGXGXGXGXGXGXGXGXGXGXGXGXGXGXGXGXGXGXGXGXGXGXGXGXGXGXGXGXGXGXGXGXGXGXGXGXGXGXGXGXGXGXGXGXGXGXGXGXGXGX",
"w ( { ^.@X$X0X,.$X0X$X@X{.~.} _ Q 3 GXGXGXGXGXGXGXGXGXGXGXGXGXGXGXGXGXGXGXGXGXGXGXGXGXGXGXGXGXGXGXGXGXGXGXGXGXGXGXGXGXGXGXGXGXGXGXGXGXGXGXGXGXGXGXGXGXGXGXGXGXGX",
"e ! ) | j.j.j.! } j.j.| ) Q Q E w # GXGXGXGXGXGXGXGXGXGXGXGXGXGXGXGXGXGXGXGXGXGXGXGXGXGXGXGXGXGXGXGXGXGXGXGXGXGXGXGXGXGXGXGXGXGXGXGXGXGXGXGXGXGXGXGXGXGXGXGXGXGX",
"$ q T ~ ( ( ( w W ( ( ( W T e w w # GXGXGXGXGXGXGXGXGXGXGXGXGXGXGXGXGXGXGXGXGXGXGXGXGXGXGXGXGXGXGXGXGXGXGXGXGXGXGXGXGXGXGXGXGXGXGXGXGXGXGXGXGXGXGXGXGXGXGXGXGXGX",
"GX$ 3 4 8 8 8 # 4 8 8 8 8 w # # GXGXGXGXGXGXGXGXGXGXGXGXGXGXGXGXGXGXGXGXGXGXGXGXGXGXGXGXGXGXGXGXGXGXGXGXGXGXGXGXGXGXGXGXGXGXGXGXGXGXGXGXGXGXGXGXGXGXGXGXGXGXGXGX"
};
