/* XPM */
static char *result[] = {
/* columns rows colors chars-per-pixel */
"80 80 256 2 ",
"   c #040404",
".  c #0C0C0C",
"X  c #150E0C",
"o  c #121313",
"O  c #1E1712",
"+  c #1B1C1C",
"@  c #220E07",
"#  c #2A1208",
"$  c #341405",
"%  c #261C17",
"&  c #3D2416",
"*  c #3B3B1A",
"=  c #371E22",
"-  c gray14",
";  c #2B2725",
":  c gray17",
">  c #36292E",
",  c gray20",
"<  c #393939",
"1  c #461C07",
"2  c #501E06",
"3  c #5E2404",
"4  c #56240A",
"5  c #4B2D17",
"6  c #592715",
"7  c #682A09",
"8  c #782E04",
"9  c #79310A",
"0  c #672B19",
"q  c #683317",
"w  c #773816",
"e  c #592929",
"r  c #493826",
"t  c #4C3029",
"y  c #49273A",
"u  c #582B37",
"i  c #553C35",
"p  c #64322F",
"a  c #69323A",
"s  c #3F401F",
"d  c #494828",
"f  c #5B4B27",
"g  c #554829",
"h  c #4E512F",
"j  c #594738",
"k  c #545433",
"l  c #5B5A39",
"z  c #664638",
"x  c #715334",
"c  c #66613F",
"v  c #75603F",
"b  c #4D2542",
"n  c #542B43",
"m  c #582C45",
"M  c #5C2D4A",
"N  c #5E3249",
"B  c #662E4B",
"V  c #64324D",
"C  c #6A364A",
"Z  c #76384A",
"A  c #673252",
"S  c #6B3553",
"D  c #6E3954",
"F  c #733756",
"G  c #723956",
"H  c #753A59",
"J  c #7B3C5D",
"K  c #7D3E61",
"L  c #5F4B44",
"P  c #744C48",
"I  c #685747",
"U  c #794357",
"Y  c #646443",
"T  c #696648",
"R  c #6B6B4A",
"E  c #756C50",
"W  c #757453",
"Q  c #787755",
"!  c #7B7B5A",
"~  c #873506",
"^  c #913E0D",
"/  c #853D14",
"(  c #803C2C",
")  c #8B4319",
"_  c #994819",
"`  c #A14E1D",
"'  c #A3501F",
"]  c #994E23",
"[  c #93512D",
"{  c #A55322",
"}  c #AB5828",
"|  c #B05C2E",
" . c #A95937",
".. c #986539",
"X. c #AE6232",
"o. c #B76636",
"O. c #BD6B3B",
"+. c #C55B3E",
"@. c #C26F3D",
"#. c #C2703F",
"$. c #88364A",
"%. c #9F3A4A",
"&. c #843C58",
"*. c #993D53",
"=. c #A83D4E",
"-. c #A63E51",
";. c #833F62",
":. c #924F47",
">. c #86445C",
",. c #96435C",
"<. c #9A425C",
"1. c #AF534D",
"2. c #AC4253",
"3. c #A8445A",
"4. c #B64758",
"5. c #BC495B",
"6. c #8F6F52",
"7. c #B2704C",
"8. c #854263",
"9. c #8B4566",
"0. c #8D4965",
"q. c #8D4669",
"w. c #944767",
"e. c #944A6B",
"r. c #964A71",
"t. c #9C4D74",
"y. c #955570",
"u. c #AA4A66",
"i. c #B84C63",
"p. c #B15767",
"a. c #A64F75",
"s. c #A75276",
"d. c #A5527B",
"f. c #AC557B",
"g. c #B4597C",
"h. c #B8587D",
"j. c #987166",
"k. c #C44C5D",
"l. c #CC4E5E",
"z. c #CB555B",
"x. c #C36C47",
"c. c #C37242",
"v. c #C8774A",
"b. c #CC7B4B",
"n. c #D1774D",
"m. c #D6675B",
"M. c #CA7953",
"N. c #D27B56",
"B. c #CB4F60",
"V. c #C55766",
"C. c #CE5263",
"Z. c #D35364",
"A. c #D85968",
"S. c #E65B6B",
"D. c #F25E6E",
"F. c #EE5F70",
"G. c #D36E6A",
"H. c #D6687A",
"J. c #E76776",
"K. c #FE6373",
"L. c #F76878",
"P. c #E77575",
"I. c #F37778",
"U. c #81805F",
"Y. c #888867",
"T. c #958A6D",
"R. c #979776",
"E. c #B68C66",
"W. c #9FA07E",
"Q. c #CD804E",
"!. c #CC8656",
"~. c #D38353",
"^. c #D5875B",
"/. c #DA8C5C",
"(. c #D8915F",
"). c #E2905E",
"_. c #DB8B63",
"`. c #D98865",
"'. c #DA9666",
"]. c #D19471",
"[. c #E38A69",
"{. c #E39464",
"}. c #E3946C",
"|. c #E79968",
" X c #E29C6B",
".X c #EB8C74",
"XX c #E69974",
"oX c #E89875",
"OX c #EC9D7C",
"+X c #CCA577",
"@X c #DAA875",
"#X c #E6A06F",
"$X c #E5A473",
"%X c #E9A473",
"&X c #E7A87A",
"*X c #EDAB7A",
"=X c #F1A877",
"-X c #F1AC7B",
";X c #EDB07E",
":X c #BF5A80",
">X c #C25A82",
",X c #DB7084",
"<X c #E97586",
"1X c #FA7787",
"2X c #F37F90",
"3X c #A7A687",
"4X c #B3B395",
"5X c #B5B6A5",
"6X c #EE8A8E",
"7X c #F89C87",
"8X c #FD8494",
"9X c #F98A9B",
"0X c #FE8B9C",
"qX c #FC9494",
"wX c #CFA790",
"eX c #EEA584",
"rX c #F2A484",
"tX c #F5A88A",
"yX c #F4AB8B",
"uX c #EDB783",
"iX c #F4B483",
"pX c #F8B685",
"aX c #F5B78A",
"sX c #F4BC8A",
"dX c #F7AD93",
"fX c #EBBC90",
"gX c #F7B796",
"hX c #FE8FA0",
"jX c #FE94A4",
"kX c #F4B7A5",
"lX c #FDA8B7",
"zX c #C2C09F",
"xX c #EAC18E",
"cX c #F5C18E",
"vX c #F9C18F",
"bX c #F6C593",
"nX c #F8C493",
"mX c #F7C998",
"MX c #F7CD9A",
"NX c #F7D49E",
"BX c #FAD39C",
"VX c #C9C9A8",
"CX c #D2D3B6",
"ZX c #F7C7A3",
"AX c #F7DDA4",
"SX c #F8D8A4",
"DX c #F9DBA4",
"FX c #F9E0A7",
"GX c #FAE1AB",
"HX c #FCE7B4",
"JX c #FEEDBB",
"KX c #FFF0BE",
"LX c #FBAFC0",
"PX c #FFB5C6",
"IX c #D4D4C6",
"UX c None",
/* pixels */
"UXUXUXUXUXUXUXUXUXUXUXUXUXUXUXUXUXUXUXUXUXUXUXUXUXUXUXUXUXUXUXUX      UXUXUXUXUXUXUXUXUXUXUXUXUXUXUXUXUXUXUXUXUXUXUXUXUXUXUXUXUXUXUXUXUXUXUXUXUXUXUXUXUXUXUXUXUX",
"UXUXUXUXUXUXUXUXUXUXUXUXUXUXUXUXUXUXUXUXUXUXUXUXUXUXUXUXUXo + + + + . + + o   + + + o UXUXUXUXUXUXUXUXUXUXUXUXUXUXUXUXUXUXUXUXUXUXUXUXUXUXUXUXUXUXUXUXUXUXUXUXUX",
"UXUXUXUXUXUXUXUXUXUXUXUXUXUXUXUXUXUXUXUXUXUXUXUXUXUXUXUXo , < < - + - < < , o , < < : . UXUXo o UXUXUXUXUXUXUXUXUXUXUXUXUXUXUXUXUXUXUXUXUXUXUXUXUXUXUXUXUXUXUXUX",
"UXUXUXUXUXUXUXUXUXUXUXUXUXUXUXUXUXUXUXUXUXUXUXUXUXUX+ : , < < < < < < < < < : + + + - : : : , , o UXUX  UXUXUXUXUXUXUXUXUXUXUXUXUXUXUXUXUXUXUXUXUXUXUXUXUXUXUXUX",
"UXUXUXUXUXUXUXUXUXUXUXUXUXUXUXUXUXUXUXUXUXUXUXUXUXUX- < < , : + : < < < < < < < < < , + , , - + . UXUXUX  UXUXUXUXUXUXUXUXUXUXUXUXUXUXUXUXUXUXUXUXUXUXUXUXUXUXUX",
"UXUXUXUXUXUXUXUXUXUXUXUXUXUXUXUXUXUXUXUXUXUX. - - - , , + - - - , < < < < < < < < : : % % o o . . . .   UXUXUXUXUXUXUXUXUXUXUXUXUXUXUXUXUXUXUXUXUXUXUXUXUXUXUXUX",
"UXUXUXUXUXUXUXUXUXUXUXUXUXUXUXUXUXUXUXUXUXUXo < < < , - : < < < < < < < , ; % , > :.6.].7.5 o o o o o .   UXUXUXUXUXUXUXUXUXUXUXUXUXUXUXUXUXUXUXUXUXUXUXUXUXUXUX",
"UXUXUXUXUXUXUXUXUXUXUXUXUXUXUXUXUXUXUXUXUX  , < < < + - < < < < < < , : r 7.5 + x pXmXmXnX!.& . o . . . UXUXUXUXUXUXUXUXUXUXUXUXUXUXUXUXUXUXUXUXUXUXUXUXUXUXUXUX",
"UXUXUXUXUXUXUXUXUXUXUXUXUXUXUXUXUXUXUXUXUX. , < < < - o < < < : ; - r P `.pX!.t O 6.@X&X#XbX..X .   UXUXUXUXUXUXUXUXUXUXUXUXUXUXUXUXUXUXUXUXUXUXUXUXUXUXUXUXUXUX",
"UXUXUXUXUXUXUXUXUXUXUXUXUXUXUXUXUXUXUXUXo , < < < , : X : < : 5  .7.&XnX*X XE.z @ @ & x b.'.].+ .   UXUXUXUXUXUXUXUXUXUXUXUXUXUXUXUXUXUXUXUXUXUXUXUXUXUXUXUXUXUX",
"UXUXUXUXUXUXUXUXUXUXUXUXUXUXUXUXUXUXUXUXo - ; ; : j x 5 + , % ] '.nXmXmX'.!.yX`.7...7.'.'.q ..% . .   UXUXUXUXUXUXUXUXUXUXUXUXUXUXUXUXUXUXUXUXUXUXUXUXUXUXUXUXUX",
"UXUXUXUXUXUXUXUXUXUXUXUXUXUXUXUXUXUXUXUXUX6.E.E.+X@Xp % r i ) b.nXbXsX`.o.^.OXiXpX-XsXBX@X1 5 X       UXUXUXUXUXUXUXUXUXUXUXUXUXUXUXUXUXUXUXUXUXUXUXUXUXUXUXUXUX",
"UXUXUXUXUXUXUXUXUXUXUXUXUXUXUXUXUXUX{.iXbXSXAXFXFXxXE.E.}.[.|  XsX-X.X{ _.iX*X(.Q.@.Q.@X7.@ .   UXUXUXUXUXUXUXUXUXUXUXUXUXUXUXUXUXUXUXUXUXUXUXUXUXUXUXUXUXUXUXUX",
"UXUXUXUXUXUXUXUXUXUXUXUXUX X*XsXMXuX;XsXbXMXcXaXiXiX-XpXOX.XN._ `..X.XO.c.%X%X!.Q.c.] 4 UXUXUXUXUXUXUXUXUXUXUXUXUXUXUXUXUXUXUXUXUXUXUXUXUXUXUXUXUXUXUXUXUXUXUXUX",
"UXUXUXUXUXUXUXUXUXUXUX$XMXGXHXJXJXHXSXSXGXHXJXHXDXxX*X X_.[.N.)  .N..X[.N.N._._.[.oXo.UXUXUXUXUXUXUXUXUXUXUXUXUXUXUXUXUXUXUXUXUXUXUXUXUXUXUXUXUXUXUXUXUXUXUXUXUX",
"UXUXUXUXUXUXUXUXUXc.&XZXSXJXJXJXHXGXHXHXKXJXKXKXKXKXJXDXfX XN.} x. .O.`.[.`.`.N.O.} UXUXUXUXUXUXUXUXUXUXUXUXUXUXUXUXUXUXUXUXUXUXUXUXUXUXUXUXUXUXUXUXUXUXUXUXUXUX",
"UXUXUXUXUXUXUXUXv.v.gXkXgXSXFXHXHXGXAXHXJXJXJXJXJXJXHXHXGXSX$X| 7.x.7.7.x.} } _ UXUXUXUXUXUXUXUXUXUXUXUXUXUXUXUXUXUXUXUXUXUXUXUXUXUXUXUXUXUXUXUXUXUXUXUXUXUXUXUX",
"UXUXUXUXUXUXUX_.yX~.$XaXuXbXMXDXSXcXcXAXFXFXFXFXFXFXAXAXAXAXsX_.P.N._.^.X.^ UXUXUXUXUXUXUXUXUXUXUXUXUXUXUXUXUXUXUXUXUXUXUXUXUXUXUXUXUXUXUXUXUXUXUXUXUXUXUXUXUXUX",
"UXUXUXUXUXUXN.yXaXbXNXAXAXAXAXAXDXNXiX#XfXDXDXAXAXAXAXAXNXbX-XaXnX6X7X&X X(.UXUXUXUXUXUXUXUXUXUXUXUXUXUXUXUXUXUXUXUXUXUXUXUXUXUXUXUXUXUXUXUXUXUXUXUXUXUXUXUXUXUX",
"UXUXUXUXUXN.gXmXDXAXAXAXAXAXAXAXAXAXMXOX'.uXuX;XMXNXMXcXpX-X-XiXnXaX9XlXdXgX*X!. X(.UXUXUXUXUXUXUXUXUXUXUXUXUXUXUXUXUXUXUXUXUXUXUXUXUXUXUXUXUXUXUXUXUXUXUXUXUXUX",
"UXUXUXUXO.eXZXSXNXDXAXAXDXSXNXSXMXnXtX*XMXAXNXeX^.'.-X*X-X=X-XbXSXNXkXPXlX9X6X7XXXyX'.UXUXUXUXUXUXUXUXUXUXUXUXUXUXUXUXUXUXUXUXUXUXUXUXUXUXUXUXUXUXUXUXUXUXUXUXUX",
"UXUXUXUXM.mXZXcXbXSXAXAXNXNXMXsXXX}.$XNXDXMXyXdXoX} /.}.uXbXSXAXFXfX6XPXlX<Xk.<XjXlXqX6XjXUXUXUXUXUXUXUXUXUXUXUXUXUXUXUXUXUXUXUXUXUXUXUXUXUXUXUXUXUXUXUXUXUXUXUX",
"UXUXUXUXv.gXbX%XtXNXAXAXAXAXAXDXMXuX$XeXyXyXdXdX`.c.dXdXdXnXMXSXSXoX6XPXPX0XA.<X<XlXPXlXjXlXjXUXUXUXUXUXUXUXUXUXUXUXUXUXUXUXUXUXUXUXUXUXUXUXUXUXUXUXUXUXUXUXUXUX",
"UXUXUXUX_.ZXuXoXrXsXNXAXAXAXAXAXAXFXNX&XOXtX`.7.O.v._.tXdXdXdXdX[.J.jXlXLXlX9X6X6XLXPXjX1XPXLXlXUXUXUXUXUXUXUXUXUXUXUXUXUXUXUXUXUXUXUXUXUXUXUXUXUXUXUXUXUXUXUXUX",
"UXUXUXUXyXAX@Xb.}.*XiXbXMXNXDXAXAXAXAXAXcX'.O.'.tXXXN.b._.oXeXP.5.H.0X0X0X8X2X2X8X9X9X1X<X9XlXLXjXUXUXUXUXUXUXUXUXUXUXUXUXUXUXUXUXUXUXUXUXUXUXUXUXUXUXUXUXUXUXUX",
"UXUXUXUXaXAX@Xv.rXgXMXNXDXNXNXNXNXNXDXAXNXsX'.XXyXdXyX}.x. .V.J.i.V.V.<X1X1X8X8X8X8X1X2X8XL.<XhX8X.XiXpX-X-XUXUXUXUXUXUXUXUXUXUXUXUXUXUXUXUXUXUXUXUXUXUXUXUXUXUX",
"UXUXUXUX&XBXbX'.{.rXdXnXNXAXAXAXDXDXAXAXDXDXbX X~.N.G.A.P.<X8XL.Z.A.5.<X0X0X0X0X0X9X<XJ.J.1X1XJ.8X1XnXbXbXbXsXaXUXUXUXUXUXUXUXUXUXUXUXUXUXUXUXUXUXUXUXUXUXUXUXUX",
"UXUXUXUX`.dXgXdXOX{.OXrXyXgXMXDXAXFXFXFXDXxX+XT.T.H.G.1X0X0X0X0X1X<X<X8X0X0X0X0X0X2XV.3.2.<X0XL.J.I.bXbXbXbXbXbXcXUXUXUXUXUXUXUXUXUXUXUXUXUXUXUXUXUXUXUXUXUXUXUX",
"UXUXUXUXo.^.oXeXtXrXOX}.OXrXrXdXgXnXMXBX+XW Y.T.VXzXY.kXwX6.:.G.I.I.8XqXqXqXqX6XI.I.A.2.i.H.0X8XS.[.cXbXbXbXbXnXcX@X6.d UXUXUXUXUXUXUXUXUXUXUXUXUXUXUXUXUXUXUXUX",
"UXUXUXUXUXUXo./.XX}.}.eXOXrXtXdXdXdXdX].c 5XCXR.3X3XR.3X! d g 7.uXbXNXDXSXMXbXNXMXiX}.x.z.A.1X0X1X[.rXaXbXbXmXuX7.c U.3XE Y T UXUXUXUXUXUXUXUXUXUXUXUXUXUXUXUXUX",
"UXUXUXUXUXUXUX| ^._.}.XX{.}.XXrXeXeXOXx k T.4XT.IXIXY.k r ..@XNXSXSXNXGXHXAXaXiX%XuXbXeXoX[.m.1X1Xx.N..XyXnX%X..W Q U.R.! T.4XR v 7.).{.|.#X%X(.c.b.^.UXUXUXUXUX",
"UXUXUXUXUXUXUXUXUXUXo.M.`._.XX}.XXXX!.g l Y l T ! W k r 7.cXAXFXAXHXHXmX;X%XaXbXcXXX_.OXdXrXN.m.P..X_.n.N.[...c CXT.W ! W T 6.!.*X;X-XiXiXpXsXsXuX(.~.%X%XUXUXUX",
"UXUXUXUXUXUXUXUXUXUXUXk.I.m.m.m.M.N.x.g Q 4Xl W T.l d g xXFXFXAXAXDXNXnXsX#X~.(.dXdXXXo.c./.&X'.n.7X7XOXoXx.5 * l l ! CXW 6.*XpXpXpXpXpXiX|. X*XcXbX$X!.&XsX*XUX",
"UXUXUXUXUXUXUXUXUXUXUX5.1X0X0X8XH.V.A.G.6.j.:.j.T.k d g aXMXbXSXAX;X~. XaXMXeXM.v._.OX^.o.} N.^.oX7X7X7XtX7.5 s * * * k f %XsXsXsXcXnXiXb.} } ` ~.iXvX(.(.gXyXUX",
"UXUXUXUXUXUXUXUXUXUXUXUXJ.8X0X0XS.V.V.L.0X0X0X2XH.G.V. .[.eXb.%XmXsXb.+.N.oXdXtXO.x.n. X(.} o.x.v.`.[.[.`. .v R * * Y h ) sXbXbXbXbX$Xo.o.o.{ ` O.#.%XcX!.XX_.UX",
"UXUXUXUXUXUXUXUXUXUXUXUX-.V.H.H.V.u.3.V.H.H.H.H.H.H.H.z.5.1.[ 1.&XnXyX[.m.m.[.oX%X'.1.1.UXUXUXUXUXUXUXUXUXUXUX* * * Y d w oXaXnXcX-Xc.^ _ UXUX_ ~.} { c.o.O.^.UX",
"UXUXUXUXUXUXUXUXUXUXUXUXb q.a.H e.;.J s.s.a.9.J e.V q.q.q.q.q.q.p.N.=X-X^.1.,.:.7.7.:.UXUXUXUXUXUXUXUXUXUXUXUXUXUXUXUXUXw v.[.%XnXbX*XO.UXUXUX^ c._ UX` o.' UXUX",
"UXUXUXUXUXUXUXUXUXUXUXUXb K a.J t.q.J s.g.a.q.q.t.S &.8.8.8.8.8.8.>.1.7.7.>.U D >.J A UXUXUXUXUXUXUXUXUXUXUXUXUXUXUXUXUXUXUX_ b.#XaXnXgX%X;XX.UXUXUXUXUXUXUXUXUX",
"UXUXUXUXUXUXUXUXUXUXUXUX$.$.;.S S H J K ;.t.A S V j I L i N D S D H V i L I T k C F b UXUXUXUXUXUXUXUXUXUXUXUXUXUXUXUXUXUXUXUXUXUXUXc.^.~.@XQ.UXUXUXUXUXUXUXUXUX",
"UXUXUXUXUXUXUXUXUXUXUXUX3.w.r.d.t.s.f.e.e.f.;.>.j ! ! W Q ! W c k z j T W T k j U J n UXUXUXUXUXUXUXUXUXUXUXUXUXUXUXUXUXUXUXUXUXUXUXUXUXUXUXUXUXUXUXUXUXUXUXUXUX",
"UXUXUXUXUXUXUXUXUXUXUX=.u.9.d.d.a.y.T.3XT i P E Y.4XVX3Xd k l c k h d d d h r >.e.e.A UXUXUXUXUXUXUXUXUXUXUXUXUXUXUXUXUXUXUXUXUXUXUXUXUXUXUXUXUXUXUXUXUXUXUXUXUX",
"UXUXUXUXUXUXUXUXUXUX%.3.d.9.a.t.y.3X3X! Y.4XVXCXCX4XR.U.h * l W ! ! W W W Y g e.e.8.F A UXUXUXUXUXUXUXUXUXUXUXUXUXUXUXUXUXUXUXUXUXUXUXUXUXUXUXUXUXUXUXUXUXUXUXUX",
"UXUXUXUXUXUXUXUXUXUX%.4.d.;.>.6.3XR.R l R.4X3XY.W k k Y R c k k d j j j z j U e.G H U S S S UXUXUXUXUXUXUXUXUXUXUXUXUXUXUXUXUXUXUXUXUXUXUXUXUXUXUXUXUXUXUXUXUXUX",
"UXUXUXUXUXUXUXUXUXUX%.4.d.K C E Y.Y.Y.d Y ! R :.2.>.>.U i j I I C q.J 8.8.J e.G S H S q.u.i.A.k.2.UXUXUXUXUXUXUXUXUXUXUXUXUXUXUXUXUXUXUXUXUXUXUXUXUXUXUXUXUXUXUX",
"UXUXUXUXUXUXUXUXUXUX%.,.0.U U j Y.VXY.R Y.6.A.K.D.Z.3.a.H H e.e.e.e.J 9.8.K 9.M J V q.<.4.S.L.L.J.C.2.UXUXUXUXUXUXUXUXUXUXUXUXUXUXUXUXUXUXUXUXUXUXUXUXUXUXUXUXUX",
"UXUXUXUXUXUXUXUXUXUXz E 6.T T R.3XR d ! j.J.K.K.K.K.A.u.q.A q.e.e.e.J 9.8.;.H S S >.w.2.C.C.Z.S.L.L.A.4.UXUXUXUXUXUXUXUXUXUXUXUXUXUXUXUXUXUXUXUXUXUXUXUXUXUXUXUX",
"UXUXUXUXUXUXUXUXUXd W Y.Y Q W.T.I :.p.wX8XK.K.K.K.K.D.4.t.N 8.e.e.9.J q.J 9.m 9.V 8.<.2.C.C.C.C.Z.S.J.S.k.UXUXUXUXUXUXUXUXUXUXUXUXUXUXUXUXUXUXUXUXUXUXUXUXUXUXUX",
"UXUXUXUXUXUXUXUXs k k g i T R h x D.1XjXL.K.K.K.K.K.K.k.d.V 8.e.e.K H 9.S G S e.S 8.,.2.C.C.C.C.C.C.Z.A.Z.l.2.UXUXUXUXUXUXUXUXUXUXUXUXUXUXUXUXUXUXUXUXUXUXUXUXUX",
"UXUXUXUXUXUXUXUXd T W h k l l x A.K.K.L.K.K.K.K.K.K.K.Z.d.S S J J V S A M V ,.3.&.q.e.*.k.C.C.C.C.C.C.C.C.C.k.=.UXUXUXUXUXUXUXUXUXUXUXUXUXUXUXUXUXUXUXUXUXUXUXUX",
"UXUXUXUXUXUXUXUXh W k d h i 4.A.D.S.D.K.K.K.K.K.K.K.K.C.d.K M V y m n n B 3.k.=.,.e.e.<.2.B.C.C.C.C.C.C.C.C.Z.k.=.UXUXUXUXUXUXUXUXUXUXUXUXUXUXUXUXUXUXUXUXUXUXUX",
"UXUXUXUXUXUXUXUXUXd r :.2.2.*.*.B.A.H.J.S.S.D.D.D.K.K.5.d.F y m S G J J B 2.B.=.,.e.e.e.*.4.C.C.Z.Z.C.C.k.5.5.3.$.UXUXUXUXUXUXUXUXUXUXUXUXUXUXUXUXUXUXUXUXUXUXUX",
"UXUXUXUXUXUXUXUXUXUXUX5.B.*.&.4.S.1X0X1XK.D.S.Z.D.D.Z.3.t.N UXUX9.e.e.e.8.F *.=.,.e.e.e.e.<.4.k.5.4.4.4.5.C.S.,XA.k.UXUXUXUXUXUXUXUXUXUXUXUXUXUXUXUXUXUXUXUXUXUX",
"UXUXUXUXUXUXUXUXUXUXUXZ $.F t.s.i.Z.S.F.D.D.D.Z.$.5.u.d.8.UXUXUXUX8.w.e.e.q.H Z &.e.e.e.e.e.,.$.$.3.k.C.C.Z.S.L.F.C.=.UXUXUXUXUXUXUXUXUXUXUXUXUXUXUXUXUXUXUXUXUX",
"UXUXUXUXUXUXUXUXUXUXM M B e.d.d.d.u.i.5.i.i.i.i.F D d.e.V UXUXUXUXUXJ J 9.e.9.J S A q.e.e.8.N C -.k.C.C.C.C.C.Z.Z.C.4.UXUXUXUXUXUXUXUXUXUXUXUXUXUXUXUXUXUXUXUXUX",
"UXUXUXUXUXUXUXUXUXb K S 8.d.d.f.f.d.d.d.d.d.d.d.q.n H m > UXUXUXUXUXUXUXN V G G J V V 9.>.m H e.w.3.4.k.C.C.C.C.C.Z.4.UXUXUXUXUXUXUXUXUXUXUXUXUXUXUXUXUXUXUXUXUX",
"UXUXUXUXUXUXUXUXl.*.8.N t.d.g.h.g.d.d.d.d.d.d.d.8.F H y UXUXUXUXUXUXUXUXUXUXM M n S S m y V e.e.e.w.<.3.2.4.5.5.5.5.*.UXUXUXUXUXUXUXUXUXUXUXUXUXUXUXUXUXUXUXUXUX",
"UXUXUXUXUXUXUXZ.S.i.K V 8.g.>Xh.f.d.d.d.d.d.d.r.N G n UXUXUXUXUXUXUXUXUXUXF q.q.9.8.D G M V e.e.e.e.e.e.w.w.<.<.<.,.J UXUXUXUXUXUXUXUXUXUXUXUXUXUXUXUXUXUXUXUXUX",
"UXUXUXUXUXUX4.B.i.s.8.K A r.>Xg.d.d.d.d.d.t.8.m m UXUXUXUXUXUXUXUXUXUXUXJ e.e.e.e.e.J V S m H e.e.e.e.e.e.e.t.t.q.S UXUXUXUXUXUXUXUXUXUXUXUXUXUXUXUXUXUXUXUXUXUX",
"UXUXUXUXUXF a.s.t.r.t.8.e.G >.e.t.d.t.8.8.G S n UXUXUXUXUXUXUXUXUXUXUXF q.e.e.e.e.J F 9.8.S S S 9.e.e.e.t.t.t.K m UXUXUXUXUXUXUXUXUXUXUXUXUXUXUXUXUXUXUXUXUXUXUX",
"UXUXUXUXUXq.d.t.K r.f.g.f.f.e.G D G J J K K F b UXUXUXUXUXUXUXUXUXUXUXJ e.e.e.e.H J e.e.e.S H J S G J 8.8.J A y UXUXUXUXUXUXUXUXUXUXUXUXUXUXUXUXUXUXUXUXUXUXUXUX",
"UXUXUXUXJ t.d.e.q.d.g.h.>Xh.g.d.t.q.K q.r.t.t.N UXUXUXUXUXUXUXUXUXUXUXy J e.e.J F e.e.e.H V J K J H G G G G A UXUXUXUXUXUXUXUXUXUXUXUXUXUXUXUXUXUXUXUXUXUXUXUXUX",
"UXUXUXUXw.d.d.K t.f.g.>Xg.f.d.d.d.d.H r.d.d.q.y UXUXUXUXUXUXUXUXUXUXUXUXV e.e.J J e.e.8.V 9.e.e.9.t.f.f.e.H UXUXUXUXUXUXUXUXUXUXUXUXUXUXUXUXUXUXUXUXUXUXUXUXUXUX",
"UXUXUXUXJ e.d.K t.f.:Xg.f.d.d.d.d.e.M r.d.d.D UXUXUXUXUXUXUXUXUXUXUXUXUXn q.e.J 8.e.e.V >.e.e.e.e.d.g.f.9.A UXUXUXUXUXUXUXUXUXUXUXUXUXUXUXUXUXUXUXUXUXUXUXUXUXUX",
"UXUXUXUXA q.d.K t.f.g.f.d.d.d.d.r.V J d.d.9.y UXUXUXUXUXUXUXUXUXUXUXUXUXy 9.q.F 8.e.e.S 9.e.e.e.a.d.s.;.UXUXUXUXUXUXUXUXUXUXUXUXUXUXUXUXUXUXUXUXUXUXUXUXUXUXUXUX",
"UXUXUXUXb ;.d.K t.g.g.d.d.d.d.t.S D t.t.J n UXUXUXUXUXUXUXUXUXUXUXUXUXUXy q.9.F e.e.e.J w.e.e.t.d.e.S UXUXUXUXUXUXUXUXUXUXUXUXUXUXUXUXUXUXUXUXUXUXUXUXUXUXUXUXUX",
"UXUXUXUXUXF d.9.a.g.g.d.d.d.d.H J t.w.V UXUXUXUXUXUXUXUXUXUXUXUXUXUXUXt e S S M 8.q.e.e.e.e.t.t.q.M UXUXUXUXUXUXUXUXUXUXUXUXUXUXUXUXUXUXUXUXUXUXUXUXUXUXUXUXUXUX",
"UXUXUXUXUXm d.t.d.g.g.f.d.d.r.q.t.q.m UXUXUXUXUXUXUXUXUXUXUXUXUXUXUXUXt G N 6 6 e e S G a p p p y > UXUXUXUXUXUXUXUXUXUXUXUXUXUXUXUXUXUXUXUXUXUXUXUXUXUXUXUXUXUX",
"UXUXUXUXUXn q.C a &.0.0.9.q.e.C p u y UXUXUXUXUXUXUXUXUXUXUXUXUXUXUXUX) a m u p 0 e J m 6 6 0 0 5 = UXUXUXUXUXUXUXUXUXUXUXUXUXUXUXUXUXUXUXUXUXUXUXUXUXUXUXUXUXUX",
"UXUXUXUXUXn H 5 7 7 6 6 6 u K e 0 e UXUXUXUXUXUXUXUXUXUXUXUXUXUXUXUX} o.q [ a u a Z Z Z C u e w / / _ _ UXUXUXUXUXUXUXUXUXUXUXUXUXUXUXUXUXUXUXUXUXUXUXUXUXUXUXUX",
"UXUXUXUXUXy J D G a u u e S 8.D V y UXUXUXUXUXUXUXUXUXUXUXUXUXUXUX_ O.{ q } ~ 8 8 8 4 7 8 8 ~ { #.@.` ` { { { UXUXUXUXUXUXUXUXUXUXUXUXUXUXUXUXUXUXUXUXUXUXUXUXUX",
"UXUXUXUX1 q p ( Z C Z Z a e 6 0 6 % UXUXUXUXUXUXUXUXUXUXUXUXUXUXUX` ` 8 4 ~ ~ ~ ~ 8 4 4 ~ ^ | b.~.v.c.#.O.o.o.O.o.o.O.{ UXUXUXUXUXUXUXUXUXUXUXUXUXUXUXUXUXUXUXUX",
"UXUXUXUXw v.~.~.o.] b.b.c. .4 8 4 UXUXUXUXUXUXUXUXUXUXUXUXUXUXUX^ ~ ~ ~ 8 3 3 3 3 4 4 7 8 } v.b.@.O.b.~.~.~.b.#.#.O.O.o.o.) UXUXUXUXUXUXUXUXUXUXUXUXUXUXUXUXUXUX",
"UXUXUX{ Q.{.{.{.O.o.|.|.|.).) 1 # UXUXUXUXUXUXUXUXUXUXUXUXUXUXUX1 4 4 7 8 8 7 7 7 7 7 7 7 / ] | O.b.b.b.b./. X X X^.b.c.| 9 4 UXUXUXUXUXUXUXUXUXUXUXUXUXUXUXUXUX",
"UXUXUXv.{.#X|.{.O.{.{.)././.o.3 @ UXUXUXUXUXUXUXUXUXUXUXUXUXUXUXX $ 2 1 1 1 1 1 1 $ @ @ @ 1 1 4 7 7 7 9 ^ _ } X.X.] w 7 7 2 1 # UXUXUXUXUXUXUXUXUXUXUXUXUXUXUXUX",
"UX5 !.-X-XiXpX-X/.pX-X-X*X|.c._ 7 UXUXUXUXUXUXUXUXUXUXUXUXUXUXUXUXUXUX$ $ $ $ # # # UXUXUXUXUX4 3 3 3 $ # $ $ $ $ $ 2 3 3 1 UXUXUXUXUXUXUXUXUXUXUXUXUXUXUXUXUXUX",
"1 )  XpXpXpXpX'.*XpXpXpXpXpX-Xv./ # UXUXUXUXUXUXUXUXUXUXUXUXUXUXUXUXUXUXUXUXUXUXUXUXUXUXUXUXUXUXUXUXUXUXUXUXUXUXUXUXUXUXUXUXUXUXUXUXUXUXUXUXUXUXUXUXUXUXUXUXUXUX",
"q { o./.%X%XaX%XSXnXpXiX#X^.O.} ` 3 UXUXUXUXUXUXUXUXUXUXUXUXUXUXUXUXUXUXUXUXUXUXUXUXUXUXUXUXUXUXUXUXUXUXUXUXUXUXUXUXUXUXUXUXUXUXUXUXUXUXUXUXUXUXUXUXUXUXUXUXUXUX",
"4 _ _ } c.v./.O.'.'./.~.@.} _ ) 9 1 UXUXUXUXUXUXUXUXUXUXUXUXUXUXUXUXUXUXUXUXUXUXUXUXUXUXUXUXUXUXUXUXUXUXUXUXUXUXUXUXUXUXUXUXUXUXUXUXUXUXUXUXUXUXUXUXUXUXUXUXUXUX",
"# 7 8 ) ] { ' 9 _ ' ' ] ] ) w q 1 X UXUXUXUXUXUXUXUXUXUXUXUXUXUXUXUXUXUXUXUXUXUXUXUXUXUXUXUXUXUXUXUXUXUXUXUXUXUXUXUXUXUXUXUXUXUXUXUXUXUXUXUXUXUXUXUXUXUXUXUXUXUX",
"UX@ 3 3 4 w / 9 / / / 6 6 4 9 9 UXUXUXUXUXUXUXUXUXUXUXUXUXUXUXUXUXUXUXUXUXUXUXUXUXUXUXUXUXUXUXUXUXUXUXUXUXUXUXUXUXUXUXUXUXUXUXUXUXUXUXUXUXUXUXUXUXUXUXUXUXUXUXUX"
};
