/* XPM */
static char *result[] = {
/* columns rows colors chars-per-pixel */
"80 80 252 2 ",
"   c gray1",
".  c #0C0C0C",
"X  c #150E0B",
"o  c gray7",
"O  c #171818",
"+  c #1C1C1B",
"@  c #2B1409",
"#  c #371708",
"$  c #251A14",
"%  c #392316",
"&  c #3B3B1B",
"*  c #222323",
"=  c #282726",
"-  c gray17",
";  c #37262C",
":  c #3A2831",
">  c #333434",
",  c #383737",
"<  c #393939",
"1  c #461C06",
"2  c #511F05",
"3  c #4C210A",
"4  c #5C2303",
"5  c #562409",
"6  c #582814",
"7  c #4C3018",
"8  c #672908",
"9  c #772E04",
"0  c #6E3114",
"q  c #773718",
"w  c #522F2D",
"e  c #463729",
"r  c #49273B",
"t  c #5A2D38",
"y  c #6A2F2D",
"u  c #642D36",
"i  c #673538",
"p  c #49421E",
"a  c #464624",
"s  c #4C4D2B",
"d  c #524D2B",
"f  c #574635",
"g  c #585737",
"h  c #684D27",
"j  c #754D2E",
"k  c #654834",
"l  c #69583B",
"z  c #4E2840",
"x  c #542B43",
"c  c #582D44",
"v  c #5C2E49",
"b  c #5D3048",
"n  c #622E48",
"m  c #64334D",
"M  c #6A374A",
"N  c #77354B",
"B  c #6B3453",
"V  c #6A3653",
"C  c #733A55",
"Z  c #753855",
"A  c #753A59",
"S  c #7B3D5D",
"D  c #7E3F60",
"F  c #6F4B4D",
"G  c #646443",
"H  c #6A6745",
"J  c #6C6C4B",
"K  c #766A4E",
"L  c #767555",
"P  c #7C7C5B",
"I  c #7E7E63",
"U  c #853405",
"Y  c #8F3E0F",
"T  c #863D2F",
"R  c #93400F",
"E  c #974617",
"W  c #9C4B1B",
"Q  c #A24F1D",
"!  c #864A26",
"~  c #975331",
"^  c #A55221",
"/  c #A85627",
"(  c #AE572F",
")  c #AD5B2B",
"_  c #B15E2D",
"`  c #8D633B",
"'  c #AB6439",
"]  c #B66333",
"[  c #B86639",
"{  c #BD6B3A",
"}  c #C26F3D",
"|  c #873B4A",
" . c #923A4C",
".. c #843D59",
"X. c #993D53",
"o. c #A53E50",
"O. c #813F61",
"+. c #924F4B",
"@. c #83425E",
"#. c #87465C",
"$. c #9A425B",
"%. c #AC524C",
"&. c #AD4254",
"*. c #A74358",
"=. c #B44455",
"-. c #B84758",
";. c #BD4A5B",
":. c #8F6C4D",
">. c #AF6F4E",
",. c #BA6A43",
"<. c #A67954",
"1. c #844162",
"2. c #8B4466",
"3. c #884A64",
"4. c #8C4569",
"5. c #964866",
"6. c #93476A",
"7. c #944A6B",
"8. c #865664",
"9. c #9B4D73",
"0. c #9A4C74",
"q. c #AA4A67",
"w. c #B44C65",
"e. c #BE5262",
"r. c #A14F74",
"t. c #A84E73",
"y. c #A65175",
"u. c #A4527A",
"i. c #AB547B",
"p. c #B6577C",
"a. c #B3597C",
"s. c #917169",
"d. c #BF7660",
"f. c #C44C5C",
"g. c #CA4E5E",
"h. c #CD5755",
"j. c #CD6E4F",
"k. c #C47242",
"l. c #C87648",
"z. c #CB7B4B",
"x. c #CC7B52",
"c. c #CC7956",
"v. c #D37B57",
"b. c #C84E61",
"n. c #CD5263",
"m. c #C75769",
"M. c #D45465",
"N. c #DB5565",
"B. c #DA5A66",
"V. c #E35869",
"C. c #EB5B6C",
"Z. c #F45E6E",
"A. c #F85F70",
"S. c #D46E6F",
"D. c #E96777",
"F. c #FD6273",
"G. c #F86777",
"H. c #EE7171",
"J. c #7F805E",
"K. c #85805E",
"L. c #B88257",
"P. c #888868",
"I. c #938A6F",
"U. c #999A79",
"Y. c #AA916B",
"T. c #9FA07F",
"R. c #D0804F",
"E. c #CC8456",
"W. c #D48555",
"Q. c #D3845B",
"!. c #D78858",
"~. c #DB8C5C",
"^. c #DA905F",
"/. c #E28F5D",
"(. c #DA8665",
"). c #DC8C64",
"_. c #DD9464",
"`. c #D89569",
"'. c #DC9C6B",
"]. c #D59571",
"[. c #E4876C",
"{. c #E29363",
"}. c #E4956A",
"|. c #E39B6B",
" X c #ED8D77",
".X c #E39572",
"XX c #EA9A77",
"oX c #D9A471",
"OX c #E9A677",
"+X c #EBAA78",
"@X c #ECAC7B",
"#X c #F1AB7A",
"$X c #F2B17F",
"%X c #B35680",
"&X c #C25A82",
"*X c #DB7C8D",
"=X c #EF7483",
"-X c #F97787",
";X c #A59D87",
":X c #AAAB89",
">X c #AEAE92",
",X c #B6B796",
"<X c #EA9D84",
"1X c #F69D86",
"2X c #EF8B91",
"3X c #F58393",
"4X c #FE8495",
"5X c #FF8C9C",
"6X c #DAA288",
"7X c #EEA584",
"8X c #F2A483",
"9X c #F3AA86",
"0X c #F3A68B",
"qX c #F5AA8C",
"wX c #EDB483",
"eX c #ECB988",
"rX c #F4B383",
"tX c #F7B789",
"yX c #F5BC8B",
"uX c #F6AC93",
"iX c #F8AD95",
"pX c #EFBE93",
"aX c #F7B796",
"sX c #FC96A6",
"dX c #FDA9A5",
"fX c #F7BBA4",
"gX c #FCA7B8",
"hX c #C3C09E",
"jX c #EEC58F",
"kX c #F3C28E",
"lX c #F6C593",
"zX c #F8C695",
"xX c #F6CB96",
"cX c #F8C799",
"vX c #F6CE9A",
"bX c #F7D39D",
"nX c #F9D39E",
"mX c #C5C6AA",
"MX c #D6D5B4",
"NX c #F8C6A6",
"BX c #F7DDA4",
"VX c #F8DBA3",
"CX c #F9D9A5",
"ZX c #F9E1AA",
"AX c #FDE7B4",
"SX c #FFEEBC",
"DX c #FFF0BE",
"FX c #FFAFC0",
"GX c #FFB3C4",
"HX c #FFB7C9",
"JX c #E1E2DA",
"KX c None",
/* pixels */
"KXKXKXKXKXKXKXKXKXKXKXKXKXKXKXKXKXKXKXKXKXKXKXKXKXKXKXKXKX  . . KXKXKXKXKXKXKXKXKXKXKXKXKXKXKXKXKXKXKXKXKXKXKXKXKXKXKXKXKXKXKXKXKXKXKXKXKXKXKXKXKXKXKXKXKXKXKXKX",
"KXKXKXKXKXKXKXKXKXKXKXKXKXKXKXKXKXKXKXKXKXKXKXKXKXo + + + o + * .     o + +   KXKXKXKXKXKXKXKXKXKXKXKXKXKXKXKXKXKXKXKXKXKXKXKXKXKXKXKXKXKXKXKXKXKXKXKXKXKXKXKXKX",
"KXKXKXKXKXKXKXKXKXKXKXKXKXKXKXKXKXKXKXKXKXKXKXo - > < < < < + * - - - + > < . KXKXKX+ .     KXKXKXKXKXKXKXKXKXKXKXKXKXKXKXKXKXKXKXKXKXKXKXKXKXKXKXKXKXKXKXKXKXKX",
"KXKXKXKXKXKXKXKXKXKXKXKXKXKXKXKXKXKXo o o o o * < < < < < < < < < < < + * - * - - - > *   KX  KXKXKXKXKXKXKXKXKXKXKXKXKXKXKXKXKXKXKXKXKXKXKXKXKXKXKXKXKXKXKXKXKX",
"KXKXKXKXKXKXKXKXKXKXKXKXKXKXKXKXKXKX* < , , < < < < < < < < < < < < < < > = * * < * o . KXKX  KXKXKXKXKXKXKXKXKXKXKXKXKXKXKXKXKXKXKXKXKXKXKXKXKXKXKXKXKXKXKXKXKX",
"KXKXKXKXKXKXKXKXKXKXKXKXKXKXKXKXKXKX+ < < < < < < > * > < < < < < < < - - e e 6 + o .   KXKX  KXKXKXKXKXKXKXKXKXKXKXKXKXKXKXKXKXKXKXKXKXKXKXKXKXKXKXKXKXKXKXKXKX",
"KXKXKXKXKXKXKXKXKXKXKXKXKXKXKXKX  . + > < < < < > * - < < < < > = , - k <.wXeX_.! $ o . . .   KXKXKXKXKXKXKXKXKXKXKXKXKXKXKXKXKXKXKXKXKXKXKXKXKXKXKXKXKXKXKXKXKX",
"KXKXKXKXKXKXKXKXKXKXKXKXKXKXKX  o > < < < < < - * > < < < < + e ~ : O L.tXeXwXeX#X' o o . .   KXKXKXKXKXKXKXKXKXKXKXKXKXKXKXKXKXKXKXKXKXKXKXKXKXKXKXKXKXKXKXKXKX",
"KXKXKXKXKXKXKXKXKXKXKXKXKXKXKXo * < < < < < < + - < < < > - h Q.#Xd.% l :.~ <.:.` j o .   KXKXKXKXKXKXKXKXKXKXKXKXKXKXKXKXKXKXKXKXKXKXKXKXKXKXKXKXKXKXKXKXKXKXKX",
"KXKXKXKXKXKXKXKXKXKXKXKXKXKXKXo - < < < < < < + = < < < * j #XtXzX'.j X @ <.nX'.~ $ . o .   KXKXKXKXKXKXKXKXKXKXKXKXKXKXKXKXKXKXKXKXKXKXKXKXKXKXKXKXKXKXKXKXKXKX",
"KXKXKXKXKXKXKXKXKXKXKXKXKX  o > < < < < < < = 7 % > < < - k OXOX@XwX].d.c.OX$XrX@X7 . o .   KXKXKXKXKXKXKXKXKXKXKXKXKXKXKXKXKXKXKXKXKXKXKXKXKXKXKXKXKXKXKXKXKXKX",
"KXKXKXKXKXKXKXKXKXKXKXKXKXKXo > > - - > > + k `.L.e - = - - f '.z.OX XXXrX#X{.+XoX' KX      KXKXKXKXKXKXKXKXKXKXKXKXKXKXKXKXKXKXKXKXKXKXKXKXKXKXKXKXKXKXKXKXKXKX",
"KXKXKXKXKXKXKXKXKXKXKXKXKXKX  $ w <.<.f e :.jXnXyX`.+.q j e $ >.c.[ XXrXrX~.[ ! 3 KXKXKXKXKXKXKXKXKXKXKXKXKXKXKXKXKXKXKXKXKXKXKXKXKXKXKXKXKXKXKXKXKXKXKXKXKXKXKX",
"KXKXKXKXKXKXKXKXKXKXKXKXKXKXKX'.eXVXBXbXvXVXVXvXrX X Xv.,.'.>.>.v.) rXrX{.z.E.>.q KXKXKXKXKXKXKXKXKXKXKXKXKXKXKXKXKXKXKXKXKXKXKXKXKXKXKXKXKXKXKXKXKXKXKXKXKXKXKX",
"KXKXKXKXKXKXKXKXKXKXKXKXH..X<XfXfXfXNXfXiXNXcXrX).[. Xv.W k.{ v.[.k.z.Q._.|.XX{ KXKXKXKXKXKXKXKXKXKXKXKXKXKXKXKXKXKXKXKXKXKXKXKXKXKXKXKXKXKXKXKXKXKXKXKXKXKXKXKX",
"KXKXKXKXKXKXKXKXKXrXcXlXlXcXeXwXpXlXlXyX0XiX0X1X[.j.(.(.] ] ] / ) k.c.v.v.Q.x._ KXKXKXKXKXKXKXKXKXKXKXKXKXKXKXKXKXKXKXKXKXKXKXKXKXKXKXKXKXKXKXKXKXKXKXKXKXKXKXKX",
"KXKXKXKXKXKXKXOXbXAXSXDXDXAXCXAXSXDXDXSXAXAXBXcX9X Xv.j.( ] (.(.c.[ ] E R R KXKXKXKXKXKXKXKXKXKXKXKXKXKXKXKXKXKXKXKXKXKXKXKXKXKXKXKXKXKXKXKXKXKXKXKXKXKXKXKXKXKX",
"KXKXKXKXKXKXx.aXNXCXSXSXAXAXSXZXAXDXSXDXSXSXSXDXAXCXyXQ.H.h.Q.!.(.c.) KXKXKXKXKXKXKXKXKXKXKXKXKXKXKXKXKXKXKXKXKXKXKXKXKXKXKXKXKXKXKXKXKXKXKXKXKXKXKXKXKXKXKXKXKX",
"KXKXKXKXz.Q.x.aXfXfXnXBXZXZXZXbXCXAXAXAXAXZXZXZXBXBXBXrXwX1X3X0X1X@X'.R.z._.KXKXKXKXKXKXKXKXKXKXKXKXKXKXKXKXKXKXKXKXKXKXKXKXKXKXKXKXKXKXKXKXKXKXKXKXKXKXKXKXKXKX",
"KXKXKXKX.XaXW.).@XwXrXzXvXVXBXxXrXxXBXBXBXBXBXBXBXBXvXrX@XxX X-XgXdXdXaX@XOXyX_.KXKXKXKXKXKXKXKXKXKXKXKXKXKXKXKXKXKXKXKXKXKXKXKXKXKXKXKXKXKXKXKXKXKXKXKXKXKXKXKX",
"KXKXKXQ OXfXwXkXnXBXBXBXBXBXBXbXeX{.@XbXVXVXVXnXxXyXrX#X$XtXrXH.sXHXFXgXdX2X5XsX2XsXKXKXKXKXKXKXKXKXKXKXKXKXKXKXKXKXKXKXKXKXKXKXKXKXKXKXKXKXKXKXKXKXKXKXKXKXKXKX",
"KXKXKX,.9XaXVXBXBXBXBXBXBXBXBXZXbX8X~.wX$X|.|.$XrXrXOX#X$XlXnX<X3XgX2XS.*XgXHXGXHXgXFXsXKXKXKXKXKXKXKXKXKXKXKXKXKXKXKXKXKXKXKXKXKXKXKXKXKXKXKXKXKXKXKXKXKXKXKXKX",
"KXKXKXQ.aXbXBXBXVXVXBXBXnXbXnXxXaXuXE.jXtX1XQ.{ !._.|.rXxXVXZXpXD.gX2X;.m.2X*XGXHXsXsXHXHXKXKXKXKXKXKXKXKXKXKXKXKXKXKXKXKXKXKXKXKXKXKXKXKXKXKXKXKXKXKXKXKXKXKXKX",
"KXKXKX).aXCXBXvXwXzXVXBXBXbXlX$X#XQ.k.7XuXiX(.,.0X0XuXiXiXaXcXzXS.gXGX2XS.*XS.GXHX5X=XsXGXgX4XKXKXKXKXKXKXKXKXKXKXKXKXKXKXKXKXKXKXKXKXKXKXKXKXKXKXKXKXKXKXKXKXKX",
"KXKXKXW.8XpXBXOXwXnXBXBXBXBXBXVXxX+X).7X7X<Xc.l.}.0XiXiXiXiX0X(.B.5XsXsXsXsXsXsX3X-X=X-X-X4X4XG.KXKXKXKXKXKXKXKXKXKXKXKXKXKXKXKXKXKXKXKXKXKXKXKXKXKXKXKXKXKXKXKX",
"KXKXKX) 0XaXVX'.8XaXvXBXBXBXBXBXBXBXjX|.k.l.<X0XQ.z.Q.XXqXuX(.=.m.4X5X5X-X=XG.=XG.4X5X4XG.=X=XH.+X|.KXKXKXKXKXKXKXKXKXKXKXKXKXKXKXKXKXKXKXKXKXKXKXKXKXKXKXKXKXKX",
"KXKXKX/ XXiXcX`.z..XXXwXeXkXbXVXBXBXBXnX@X{.8XiXiX7X`.k.j.v.B.b.m.m.D.G.=X-X5X5X-X-XD.D.-X5X=XH.yXlXyXtXOXKXKXKXKXKXKXKXKXKXKXKXKXKXKXKXKXKXKXKXKXKXKXKXKXKXKXKX",
"KXKXKXKXc.uXaXlXW.!.XXwXlXxXxXvXvXVXBXBXBXeXW.}.[.S.S.H.D.D.D.M.n.e.m.4X5X5X5X5XS.m.e.&.D.5X4XH.yXlXlXlXyX$XKXKXKXKXKXKXKXKXKXKXKXKXKXKXKXKXKXKXKXKXKXKXKXKXKXKX",
"KXKXKXKX[ 7XiXcXlX.X}.0XaXvXVXBXVXnXbXBXVXVXkX!.B.-X4X5X5X5X5X-XD.D.3X5X5X5X5X5X4X=X;.;.=.=X5XH.kXlXlXlXzXzXoX<.a KXKXKXKXKXKXKXKXKXKXKXKXKXKXKXKXKXKXKXKXKXKXKX",
"KXKXKXKXKXQ.iXiXaXuXXX.XqXqXuXcXCXBXBXBXVXCXVXxXE.%.S.3X5X5X5X5X4X-X-X-X=X-XD.D.G.F.C.N.V.D.=X XtXlXzXzXkXY.H P :XL G L g q ^ R.{._.OXOXOX_.~.W.{.|.KXKXKXKXKXKX",
"KXKXKXKXKXQ (.7XqXOX0XqX8X8X0X0X9XtXxXCXBXVX6XY.K.:XI.:.S.-X=X5X5X5X-XC.V.C.A.A.A.F.F.F.F.A.h.v.XX9XtXrX<.L L P U.P P.hX<.E.OXrXrXtXyXkXzXzXkXrXOX|.OX|.KXKXKXKX",
"KXKXKXKXKXKXKX) ,.x.W.}.OX0X8X8XqX8XqXqXeXY.I.U.U.mX:XU.MXU.l %.=X-XD.H. X1XuXuX1X[.H.Z.F.N.v.Q.x.v.x./ l MXI.L J.L :.`.#XrXrXrXrXtXrXOX~.~.|.eXlXyX|.+X#XKXKXKX",
"KXKXKXKXKXKXKXKX{ !.XXXX{.)..X0XuXuXiX8X:.G JXmXI.U.U.I.P g ` :.oXeXxXVXBXBXCXvXbXxXwXQ.h.h.XX1XXX Xx.h & s a J MXP '.yXlXyXtXtXrX^.[ / W Y Q ^ E.iX7X!.7XXXKXKX",
"KXKXKXKXKXKXKXKXKXKX,.x..XXX}.).{..X(.' d g L P.U.JX>Xg d L.kXVXBXVXBXBXAXAXzXrX_.OXzXiXQ.) [.1X1X1X}.j & & & & g d wXlXlXlXtXrXW.W _ l.] E l.} ) ,.|.E.v.|.R.KX",
"KXKXKXKXKXKXKXKXKXKXKX-.h.%.,.x.c.l.c.>.a L L g J I g p Q.vXBXBXBXZXAXCXwX@XyXcXeXE._.qX8Xx.k.(.(.(.j.:.J & & G s a XXrXyXyX$X'.) E ) ] E Y / l.z.W E ) ] W.'.KX",
"KXKXKXKXKXKXKXKXKXKXKXKXw.D.D.S.B.&.%.~ i :.K d P J.a d rXnXBXBXBXVXCXCXlX+X|.OXaXuXQ.W.~.wXW.KXKXKXKXKXKXKX& G s e ,.{.yXzXzX+X{ Q KXKXKXKXKX^ W.] KX] ] R KXKX",
"KXKXKXKXKXKXKXKXKXKXKXKXA t.q.#.$.N ....N N n t e f e p `.aXcXxXVXrX|.'.yXcXqXz.x.uX0Xk.{ |.KXKXKXKXKXKXKXKXKXKXKXKXKX/ E.OXyXlXaX}.{ KXKXKXKXKXKXKXKXKXKXKXKXKX",
"KXKXKXKXKXKXKXKXKXKXKXKX1.%X7.6.7.m i.&X&Xi.1.u.c A @.F / .X.XW.rXyX}.%.' .X0X.X{ k.OX{.KXKXKXKXKXKXKXKXKXKXKXKXKXKXKXKXKXKX{ x..X}.wX'.KXKXKXKXKXKXKXKXKXKXKXKX",
"KXKXKXKXKXKXKXKXKXKXKXKXm C V 1.7.C 4.r.r.7.S 9.A V 2...T +.+.+.d.XXqX).! ! _.^.~ T R.!.KXKXKXKXKXKXKXKXKXKXKXKXKXKXKXKXKXKXKXKXKXKXKXKXKXKXKXKXKXKXKXKXKXKXKXKX",
"KXKXKXKXKXKXKXKXKXKXKX2.0.A D 4.2.7.9.2.r.2.6.4.2.2.7.A 4.6.7.7.5.>.x.OXL.K :.j k M KXKXKXKXKXKXKXKXKXKXKXKXKXKXKXKXKXKXKXKXKXKXKXKXKXKXKXKXKXKXKXKXKXKXKXKXKXKX",
"KXKXKXKXKXKXKXKXKXKXKX*.u.O.u.u.u.i.a.6.&X6.u.u.u.u.u.S 7.7.7.7.7.A k ` j H G g J e r KXKXKXKXKXKXKXKXKXKXKXKXKXKXKXKXKXKXKXKXKXKXKXKXKXKXKXKXKXKXKXKXKXKXKXKXKX",
"KXKXKXKXKXKXKXKXKXKX&.w.u.2.u.u.u.r.0.7.p.S 0.u.u.u.i.7.S 7.7.F F g g s & d G P J i  .N KXKXKXKXKXKXKXKXKXKXKXKXKXKXKXKXKXKXKXKXKXKXKXKXKXKXKXKXKXKXKXKXKXKXKXKX",
"KXKXKXKXKXKXKXKXKXKX=.b.u.1.6.9.6.3.s.s.8.F F F 8.#.#.F F F F g G G g d g L L g t @...-.;.o.KXKXKXKXKXKXKXKXKXKXKXKXKXKXKXKXKXKXKXKXKXKXKXKXKXKXKXKXKXKXKXKXKXKX",
"KXKXKXKXKXKXKXKXKXKX .+.K s.F @.@.G :X,X,X,X>X>XU.a g J G p g g s g s G L l f b A Z &.D.G.V.;.-.KXKXKXKXKXKXKXKXKXKXKXKXKXKXKXKXKXKXKXKXKXKXKXKXKXKXKXKXKXKXKXKX",
"KXKXKXKXKXKXKXKXKXf L P.L P.L G G J.U.U.I.J J P.U.P.I.U.:X:XU.G a G f M M M 1.B 1.n ;.M.C.G.C.M.f.;.KXKXKXKXKXKXKXKXKXKXKXKXKXKXKXKXKXKXKXKXKXKXKXKXKXKXKXKXKXKX",
"KXKXKXKXKXKXKXKXa J H a s P.U.:X:X:XT.U.:XL G L >XmXhX,X>X;XI.G f F A 2.1.O.4.V B Z =.n.n.M.C.C.M.n.f.KXKXKXKXKXKXKXKXKXKXKXKXKXKXKXKXKXKXKXKXKXKXKXKXKXKXKXKXKX",
"KXKXKXKXKXKXKXKXa g G a a G J H H l l l K s.I.:.l %.%.8.8.m @.6.7.7.A 1.S 1.S m B @.&.b.n.n.M.N.N.M.n.g.;.KXKXKXKXKXKXKXKXKXKXKXKXKXKXKXKXKXKXKXKXKXKXKXKXKXKXKX",
"KXKXKXKXKXKXKXKXg L G a s d k +.n.C.Z.G.3X-XG.G.Z.F.N.q.u.2.V 7.7.1.C 2.B S m 2.S 2.$.=.n.n.n.n.n.n.n.n.n.f.KXKXKXKXKXKXKXKXKXKXKXKXKXKXKXKXKXKXKXKXKXKXKXKXKXKX",
"KXKXKXKXKXKXKXKXg J g i i *.C.F.F.F.F.F.F.F.F.F.F.F.N.-.u.9.c ..2.C B S x B $.=.2.7.7.$.f.n.n.n.n.n.n.n.n.n.g.KXKXKXKXKXKXKXKXKXKXKXKXKXKXKXKXKXKXKXKXKXKXKXKXKX",
"KXKXKXKXKXKXKXKXKXKXKXq.o.X.C.F.F.C.M.Z.F.F.F.F.F.Z.N.b.t.u.x v v x v z t =.n.f.$.7.7.5.*.-.n.n.n.n.n.n.n.g.;.&.KXKXKXKXKXKXKXKXKXKXKXKXKXKXKXKXKXKXKXKXKXKXKXKX",
"KXKXKXKXKXKXKXKXKXKXKX=.n.&.X.n.N.g.g.N.D.D.C.V.V.V.F.M.q.u.r : z B B  .N &.n.g.&.$.7.7.7.$.&.f.b.g.-.=.-.b.M.n.g.KXKXKXKXKXKXKXKXKXKXKXKXKXKXKXKXKXKXKXKXKXKXKX",
"KXKXKXKXKXKXKXKXKXKXKXo.n.n.o...=.V.F.-XsX-XF.G.N.*.n.g.*.9.r r V 2.5.*.=. .X.-.;.X.7.7.7.7.5.X.X. .&.n.n.B.G.C.M.;.KXKXKXKXKXKXKXKXKXKXKXKXKXKXKXKXKXKXKXKXKXKX",
"KXKXKXKXKXKXKXKXKXKXKXi &.g.| 1.w.C.F.G.-XG.F.F.F.-.N *.r.2.KXKXm S 7.7.5.=. .N N  .6.7.7.7.2.C A X.=.f.n.n.M.M.n.n.&.KXKXKXKXKXKXKXKXKXKXKXKXKXKXKXKXKXKXKXKXKX",
"KXKXKXKXKXKXKXKXKXKXKXKXZ N S u.u.w.N.F.F.F.F.F.Z.b.B S 2.KXKXKXKXKXS 2.6.5.$...1.v B 2.6.@.B C 6.7.$.o.=.f.g.g.b.g.*.KXKXKXKXKXKXKXKXKXKXKXKXKXKXKXKXKXKXKXKXKX",
"KXKXKXKXKXKXKXKXKXKX;.7.0.b 9.u.u.i.t.b.N.C.C.C.n.t.V c v KXKXKXKXKXKXKXKX1.S A m C m v v x S 7.7.7.7.7.5.$.*.*.*.*...KXKXKXKXKXKXKXKXKXKXKXKXKXKXKXKXKXKXKXKXKX",
"KXKXKXKXKXKXKXKXN.C.C.i.9.b 9.u.a.p.i.t.q.q.q.q.y.9.v m KXKXKXKXKXKXKXKXKXKXz m B m V A x c 2.7.7.7.7.7.7.7.7.7.7.7.D KXKXKXKXKXKXKXKXKXKXKXKXKXKXKXKXKXKXKXKXKX",
"KXKXKXKXKXKXKXV.F.Z.n.u.9.b 9.a.&Xp.u.u.u.u.u.u.u.A v B KXKXKXKXKXKXKXKXKXc S 7.7.6.B v B b C 7.7.7.7.7.7.7.7.9.7.2.v KXKXKXKXKXKXKXKXKXKXKXKXKXKXKXKXKXKXKXKXKX",
"KXKXKXKXKXKXV.F.C.e.t.u.9.C S p.&Xi.u.u.u.u.u.9.C C KXKXKXKXKXKXKXKXKXKXb 1.7.7.7.1.C A S A B A 2.7.7.7.7.9.9.7.@.b KXKXKXKXKXKXKXKXKXKXKXKXKXKXKXKXKXKXKXKXKXKX",
"KXKXKXKXKXC.C.N.w.y.u.r.4.4.1.A 2.y.u.u.9.7.S V r KXKXKXKXKXKXKXKXKXKXx 1.7.7.7.2.m 2.7.7.S A S S O.2.9.r.u.7.S KXKXKXKXKXKXKXKXKXKXKXKXKXKXKXKXKXKXKXKXKXKXKXKX",
"KXKXKXKXKXw.w.q.u.9.7.r.i.y.4.2...@.A C C B S S r KXKXKXKXKXKXKXKXKXKXv 2.7.7.7.B C 7.7.2.B S S 2.2.1.2.D A v r KXKXKXKXKXKXKXKXKXKXKXKXKXKXKXKXKXKXKXKXKXKXKXKX",
"KXKXKXKXm 0.u.u.9.1.r.i.p.&X7.7.a.i.7.4.4.4.7.B KXKXKXKXKXKXKXKXKXKXKXKXB 7.7.7.B A 7.7.S m 7.7.4.1.u.9.A v z KXKXKXKXKXKXKXKXKXKXKXKXKXKXKXKXKXKXKXKXKXKXKXKXKX",
"KXKXKXKXA 7.u.u.D 7.i.a.&Xp.r.7.u.7.0.9.9.u.9.b KXKXKXKXKXKXKXKXKXKXKXKXx 2.7.7...B 7.7.S V 7.7.u.r.y.2.C c KXKXKXKXKXKXKXKXKXKXKXKXKXKXKXKXKXKXKXKXKXKXKXKXKXKX",
"KXKXKXKXv 2.u.9.S u.a.p.p.a.i.u.u.u.u.2.S u.1.KXKXKXKXKXKXKXKXKXKXKXKXKXr 1.7.7...A 7.7.1.C 7.r.u.a.r.1.V KXKXKXKXKXKXKXKXKXKXKXKXKXKXKXKXKXKXKXKXKXKXKXKXKXKXKX",
"KXKXKXKX: m 7.4.1.u.a.p.a.u.u.u.u.r.1.m 1.D c KXKXKXKXKXKXKXKXKXKXKXKXKXr 1.7.7.A 1.7.7.2.1.9.u.u.i.2.b KXKXKXKXKXKXKXKXKXKXKXKXKXKXKXKXKXKXKXKXKXKXKXKXKXKXKXKX",
"KXKXKXKXKXr 2.O.9.i.p.p.i.u.u.u.9.C v A V r KXKXKXKXKXKXKXKXKXKXKXKXKXKX6 t A 7.m 1.7.7.7.7.r.u.9.9.B KXKXKXKXKXKXKXKXKXKXKXKXKXKXKXKXKXKXKXKXKXKXKXKXKXKXKXKXKX",
"KXKXKXKXKXr 4.2.r.a.p.a.u.u.u.r.B v v z KXKXKXKXKXKXKXKXKXKXKXKXKXKXKX; 6 6 Z M w y | | A 7.@.i u r KXKXKXKXKXKXKXKXKXKXKXKXKXKXKXKXKXKXKXKXKXKXKXKXKXKXKXKXKXKX",
"KXKXKXKXKXw 1.7.i.a.p.a.i.u.u.1.1.m KXKXKXKXKXKXKXKXKXKXKXKXKXKXKXKXKXKXr m 1.w 8 6 8 6 b S y 8 6 r KXKXKXKXKXKXKXKXKXKXKXKXKXKXKXKXKXKXKXKXKXKXKXKXKXKXKXKXKXKX",
"KXKXKXKX; 6 y 2.@.| | 2.2.1.7.2.S r KXKXKXKXKXKXKXKXKXKXKXKXKXKXKXKXKX^ 0 i C M Z m t c S C u u w KXKXKXKXKXKXKXKXKXKXKXKXKXKXKXKXKXKXKXKXKXKXKXKXKXKXKXKXKXKXKX",
"KXKXKXKX: t Z S 6 8 8 6 6 6 m C 6 ; KXKXKXKXKXKXKXKXKXKXKXKXKXKXKXKX{ { R 5 8 0 y u u u t t y q ) ] / KXKXKXKXKXKXKXKXKXKXKXKXKXKXKXKXKXKXKXKXKXKXKXKXKXKXKXKXKX",
"KXKXKXKXKXb 4.1.C Z i u u u 2...w KXKXKXKXKXKXKXKXKXKXKXKXKXKXKXKX_ k.k.W 5 8 U U U U U 5 1 9 W l.R.z.[ { ^ KXKXKXKXKXKXKXKXKXKXKXKXKXKXKXKXKXKXKXKXKXKXKXKXKXKX",
"KXKXKXKX5 3 6 0 q i C F M n M c KXKXKXKXKXKXKXKXKXKXKXKXKXKXKXKXU [ } { E 8 5 5 8 9 9 8 5 4 9 Y ] z.k.l.z.z.k.} { ] KXKXKXKXKXKXKXKXKXKXKXKXKXKXKXKXKXKXKXKXKXKX",
"KXKXKX1 8 ! [ k.} W ,.Q.[ 6 9 8 KXKXKXKXKXKXKXKXKXKXKXKXKXKXKXKX9 E Q E U U U 9 4 5 5 5 8 8 8 9 Y W [ z.!.!.!.!.!.W.W.l._ ! KXKXKXKXKXKXKXKXKXKXKXKXKXKXKXKXKXKX",
"KXKXKX1 ~ /.}.}.R./ /.}.{.' 8 4 KXKXKXKXKXKXKXKXKXKXKXKXKXKXKXKX1 1 3 5 4 4 4 4 5 1 1 1 1 1 3 1 2 4 U ^ _ ] z.z.W.~.!.{ _ E 4 KXKXKXKXKXKXKXKXKXKXKXKXKXKXKXKXKX",
"KXKXKX~ ~./.~.~.k./ !./.{.!.0 KXKXKXKXKXKXKXKXKXKXKXKXKXKXKXKXKXKX@ # 1 1 1 1 1 1 1 KXKXKX@ # 1 2 2 1 2 4 4 8 8 8 8 8 4 4 5 5 @ KXKXKXKXKXKXKXKXKXKXKXKXKXKXKXKX",
"KXKX0 k.^.{.OX@X|.W.#XOX^./.' % KXKXKXKXKXKXKXKXKXKXKXKXKXKXKXKXKXKXKXKXKXKXKXKXKXKXKXKXKXKXKXKXKX# 2 8 4 8 4 4 4 4 4 8 4 1 KXKXKXKXKXKXKXKXKXKXKXKXKXKXKXKXKXKX",
"KX8 ,.#XtXtXtXtX+X{.tXtXtXrX#X' 3 KXKXKXKXKXKXKXKXKXKXKXKXKXKXKXKXKXKXKXKXKXKXKXKXKXKXKXKXKXKXKXKXKXKXKXKXKXKXKXKXKXKXKXKXKXKXKXKXKXKXKXKXKXKXKXKXKXKXKXKXKXKXKX",
"6 W ] ~.|.OX@XwXOX^.eX@XOX!.{ ) E # KXKXKXKXKXKXKXKXKXKXKXKXKXKXKXKXKXKXKXKXKXKXKXKXKXKXKXKXKXKXKXKXKXKXKXKXKXKXKXKXKXKXKXKXKXKXKXKXKXKXKXKXKXKXKXKXKXKXKXKXKXKX",
"8 W ^ ^ ) k.l.l.[ ^ l.l.k.{ Q W q @ KXKXKXKXKXKXKXKXKXKXKXKXKXKXKXKXKXKXKXKXKXKXKXKXKXKXKXKXKXKXKXKXKXKXKXKXKXKXKXKXKXKXKXKXKXKXKXKXKXKXKXKXKXKXKXKXKXKXKXKXKXKX",
"2 9 U Y E ^ ^ ^ E q ^ ^ ^ j q q 3 @ KXKXKXKXKXKXKXKXKXKXKXKXKXKXKXKXKXKXKXKXKXKXKXKXKXKXKXKXKXKXKXKXKXKXKXKXKXKXKXKXKXKXKXKXKXKXKXKXKXKXKXKXKXKXKXKXKXKXKXKXKXKX",
"# 5 1 3 6 6 6 6 6 3 6 6 6 6 6 3 KXKXKXKXKXKXKXKXKXKXKXKXKXKXKXKXKXKXKXKXKXKXKXKXKXKXKXKXKXKXKXKXKXKXKXKXKXKXKXKXKXKXKXKXKXKXKXKXKXKXKXKXKXKXKXKXKXKXKXKXKXKXKXKX"
};
