/* XPM */
static char *result[] = {
/* columns rows colors chars-per-pixel */
"80 80 248 2 ",
"   c gray1",
".  c #0C0C0C",
"X  c #13110F",
"o  c #131313",
"O  c #1B1B1B",
"+  c #2B140A",
"@  c #361709",
"#  c #271811",
"$  c #37271D",
"%  c #373716",
"&  c #1C1F21",
"*  c #252423",
"=  c #2C2C2C",
"-  c #392A27",
";  c #3D2333",
":  c #343434",
">  c #363738",
",  c #393939",
"<  c #451B06",
"1  c #551C00",
"2  c #4B210A",
"3  c #5C2303",
"4  c #572409",
"5  c #492619",
"6  c #5A2814",
"7  c #433E1C",
"8  c #66290A",
"9  c #752D05",
"0  c #652C11",
"q  c #723515",
"w  c #4D2B2A",
"e  c #553B2B",
"r  c #47263A",
"t  c #592C37",
"y  c #6B3330",
"u  c #643038",
"i  c #3D401E",
"p  c #4E411D",
"a  c #7E401D",
"s  c #484827",
"d  c #564927",
"f  c #4E502E",
"g  c #574938",
"h  c #545433",
"j  c #585738",
"k  c #5D5D3C",
"l  c #674839",
"z  c #724B33",
"x  c #645839",
"c  c #65603E",
"v  c #4E2940",
"b  c #542B44",
"n  c #5B2E44",
"m  c #5A2C49",
"M  c #5D3248",
"N  c #612E4D",
"B  c #64334D",
"V  c #683348",
"C  c #75394C",
"Z  c #682F51",
"A  c #6B3453",
"S  c #6A3652",
"D  c #733A56",
"F  c #743855",
"G  c #743A59",
"H  c #7B3C5C",
"J  c #7E3E61",
"K  c #6E4E47",
"L  c #7C4456",
"P  c #646443",
"I  c #6B6B4B",
"U  c #726B4D",
"Y  c #737453",
"T  c #7B7959",
"R  c #7E4061",
"E  c #833101",
"W  c #8A3909",
"Q  c #893C10",
"!  c #8B451C",
"~  c #954417",
"^  c #9D4C1C",
"/  c #A14E1D",
"(  c #944D24",
")  c #8E5031",
"_  c #A55221",
"`  c #A75527",
"'  c #AD5A2A",
"]  c #AD5C2E",
"[  c #806039",
"{  c #AF6636",
"}  c #B76537",
"|  c #BC6A3A",
" . c #C16D3D",
".. c #C2703F",
"X. c #923A4A",
"o. c #853C59",
"O. c #993C52",
"+. c #A33C4C",
"@. c #A33E51",
"#. c #823F61",
"$. c #92524C",
"%. c #84435B",
"&. c #994458",
"*. c #B14F4D",
"=. c #AB4153",
"-. c #AB465A",
";. c #B44556",
":. c #BC495B",
">. c #886749",
",. c #937053",
"<. c #B86B45",
"1. c #AF7049",
"2. c #844263",
"3. c #8B4466",
"4. c #8D4669",
"5. c #8D4868",
"6. c #954869",
"7. c #944A6B",
"8. c #95526D",
"9. c #954A70",
"0. c #9B4D73",
"q. c #AA4B69",
"w. c #B34B64",
"e. c #B35168",
"r. c #A54E74",
"t. c #A35176",
"y. c #A5527B",
"u. c #AC557B",
"i. c #B5597C",
"p. c #BA587A",
"a. c #946A6B",
"s. c #B2746A",
"d. c #C44C5C",
"f. c #CA4D5D",
"g. c #D15958",
"h. c #C47242",
"j. c #C87548",
"k. c #CC7B4B",
"l. c #CD6D50",
"z. c #C97A55",
"x. c #D37B59",
"c. c #C74F62",
"v. c #D04F61",
"b. c #CD5263",
"n. c #C65867",
"m. c #D35363",
"M. c #DA5566",
"N. c #DB5968",
"B. c #E75A69",
"V. c #E55A6A",
"C. c #F25E6E",
"Z. c #EF5F70",
"A. c #D66D69",
"S. c #DB6876",
"D. c #E96879",
"F. c #FE6373",
"G. c #F76979",
"H. c #F17275",
"J. c #868665",
"K. c #9D8B72",
"L. c #969576",
"P. c #AA8869",
"I. c #CB8455",
"U. c #D18452",
"Y. c #D48454",
"T. c #D48559",
"R. c #D48B5B",
"E. c #DB8C5B",
"W. c #DB905F",
"Q. c #E18E5C",
"!. c #E2905F",
"~. c #DB8566",
"^. c #DB8C64",
"/. c #D18E6B",
"(. c #DB9467",
"). c #E3896B",
"_. c #E49769",
"`. c #E88A76",
"'. c #F5887A",
"]. c #E89876",
"[. c #F4977C",
"{. c #DBA975",
"}. c #E4A473",
"|. c #EBA574",
" X c #E8A977",
".X c #E9A87A",
"XX c #ECAC7B",
"oX c #F1AA7B",
"OX c #B26981",
"+X c #C25A82",
"@X c #D77385",
"#X c #EA7686",
"$X c #F67887",
"%X c #F67A8C",
"&X c #FD7D8E",
"*X c #B49A84",
"=X c #A9A989",
"-X c #B0AF90",
";X c #B7B898",
":X c #D29595",
">X c #EC8A88",
",X c #F69784",
"<X c #FD8393",
"1X c #F78997",
"2X c #FE8C9C",
"3X c #C9B585",
"4X c #EDA584",
"5X c #F2A584",
"6X c #F3A788",
"7X c #F5AA8C",
"8X c #EDB885",
"9X c #F4B483",
"0X c #F8B685",
"qX c #F5B38C",
"wX c #F6BA89",
"eX c #F5BC8B",
"rX c #F6AD92",
"tX c #F8AD94",
"yX c #EFB296",
"uX c #F7B995",
"iX c #EE9BAC",
"pX c #FB96A7",
"aX c #FDA7A3",
"sX c #F8BDA4",
"dX c #FDA6B6",
"fX c #DEC994",
"gX c #EBC48E",
"hX c #F6C18E",
"jX c #F6C593",
"kX c #F8C696",
"lX c #F5CA96",
"zX c #F7CD9A",
"xX c #F6D39D",
"cX c #F9D49E",
"vX c #C5C6AA",
"bX c #F9C7A4",
"nX c #F7DDA4",
"mX c #F9D8A3",
"MX c #F8DBA5",
"NX c #F8E0A7",
"BX c #F9E2AA",
"VX c #FCE6B3",
"CX c #FFEEBB",
"ZX c #FFF0BE",
"AX c #FFB3C5",
"SX c #FFB6C8",
"DX c #D5D5C8",
"FX c None",
/* pixels */
"FXFXFXFXFXFXFXFXFXFXFXFXFXFXFXFXFXFXFXFXFXFXFXFXFXFXFXFXFXFXFXFXFXFXFXFXFXFXFXFXFXFXFXFXFXFXFXFXFXFXFXFXFXFXFXFXFXFXFXFXFXFXFXFXFXFXFXFXFXFXFXFXFXFXFXFXFXFXFXFX",
"FXFXFXFXFXFXFXFXFXFXFXFXFXFXFXFXFXFXFXFXFXFXFXFXFXFXFXFXO O FXFX  O O O o FXO O . FXFXFXFXFXFXFXFXFXFXFXFXFXFXFXFXFXFXFXFXFXFXFXFXFXFXFXFXFXFXFXFXFXFXFXFXFXFXFX",
"FXFXFXFXFXFXFXFXFXFXFXFXFXFXFXFXFXFXFXFXFXFXFXFXFXFXFX* , > O O O > , , = . * > & FXFXo O O FXFXFXFXFXFXFXFXFXFXFXFXFXFXFXFXFXFXFXFXFXFXFXFXFXFXFXFXFXFXFXFXFXFX",
"FXFXFXFXFXFXFXFXFXFXFXFXFXFXFXFXFXFXFXFXFXFXo o FXFXo : , , , , , , , , , : * O O O * > > = &   FX  FXFXFXFXFXFXFXFXFXFXFXFXFXFXFXFXFXFXFXFXFXFXFXFXFXFXFXFXFXFX",
"FXFXFXFXFXFXFXFXFXFXFXFXFXFXFXFXFXFXFXFXFX  : > = = , , , , , , , , , , , , , , > * * : O .   FXFXFX  FXFXFXFXFXFXFXFXFXFXFXFXFXFXFXFXFXFXFXFXFXFXFXFXFXFXFXFXFX",
"FXFXFXFXFXFXFXFXFXFXFXFXFXFXFXFXFXFXFXFX. * > , , , , , > > , , , , , > * = > = - e e O . . . .         FXFXFXFXFXFXFXFXFXFXFXFXFXFXFXFXFXFXFXFXFXFXFXFXFXFXFXFX",
"FXFXFXFXFXFXFXFXFXFXFXFXFXFXFXFXFXFXFX  O > , , , , , > O : , , , , > * o : w >./.8XXX,.# X o X . .   FXFXFXFXFXFXFXFXFXFXFXFXFXFXFXFXFXFXFXFXFXFXFXFXFXFXFXFXFX",
"FXFXFXFXFXFXFXFXFXFXFXFXFXFXFXFXFXFXFX. O : , , , , , * * , , , , , O ) $ * e }.kXkXjXeX) X . . .   FXFXFXFXFXFXFXFXFXFXFXFXFXFXFXFXFXFXFXFXFXFXFXFXFXFXFXFXFXFX",
"FXFXFXFXFXFXFXFXFXFXFXFXFXFXFXFXFXFXFXo : > , , , , , o > , , , , = e /.1.- o 5 >.,.1. X/.# .   FXFXFXFXFXFXFXFXFXFXFXFXFXFXFXFXFXFXFXFXFXFXFXFXFXFXFXFXFXFXFXFX",
"FXFXFXFXFXFXFXFXFXFXFXFXFXFXFXFX  o = : , , , , > : * o > , : = = z }.R.,.e # @ l 1.z.z ) @ X . . FXFXFXFXFXFXFXFXFXFXFXFXFXFXFXFXFXFXFXFXFXFXFXFXFXFXFXFXFXFXFX",
"FXFXFXFXFXFXFXFXFXFXFXFXFXFXFXFXFX  o * : : : = $ z q O > = e >./.eXeX<.].~.I./.8X9XeX) # o . .   FXFXFXFXFXFXFXFXFXFXFXFXFXFXFXFXFXFXFXFXFXFXFXFXFXFXFXFXFXFXFX",
"FXFXFXFXFXFXFXFXFXFXFXFXFXFXFXFXFXFXFXFXe g g >.{.8Xz & - 0 }.kXjX6Xx.' ].9X0X|._.XXxX1.# . FXFXFXFXFXFXFXFXFXFXFXFXFXFXFXFXFXFXFXFXFXFXFXFXFXFXFXFXFXFXFXFXFXFX",
"FXFXFXFXFXFXFXFXFXFXFXFXFXFXFXFXFXFX XhXjXxXmXnXMXhXK # 1.` (.9X.X~.' (.0XoXW.{ ) ( { FX.   FXFXFXFXFXFXFXFXFXFXFXFXFXFXFXFXFXFXFXFXFXFXFXFXFXFXFXFXFXFXFXFXFXFX",
"FXFXFXFXFXFXFXFXFXFXFXFXFXFXFXQ.|.hXjXbXbXbXbXuXeX0Xz.x.`.x.x.k.).~.} R.}.W.Y.I.1.) 1 FXFXFXFXFXFXFXFXFXFXFXFXFXFXFXFXFXFXFXFXFXFXFXFXFXFXFXFXFXFXFXFXFXFXFXFXFX",
"FXFXFXFXFXFXFXFXFXFXFXoXzXzXzXlXlX8X9XbXbXsXrX,X,X,X`.`.`.`.~./ j.`.~.l.x._._.R.h.' FXFXFXFXFXFXFXFXFXFXFXFXFXFXFXFXFXFXFXFXFXFXFXFXFXFXFXFXFXFXFXFXFXFXFXFXFXFX",
"FXFXFXFXFXFXFXFXFXY._.mXCXCXZXCXnXMXMXVXCXCXVXmXkX6X[.H.`.).~.| ' <.x.~.~.x.x.] W FXFXFXFXFXFXFXFXFXFXFXFXFXFXFXFXFXFXFXFXFXFXFXFXFXFXFXFXFXFXFXFXFXFXFXFXFXFXFX",
"FXFXFXFXFXFXFXFXT.7XbXVXCXCXCXVXVXVXZXCXCXCXZXZXZXCXBXjX].A.} } x.j.| ] ~ ~ ~ FXFXFXFXFXFXFXFXFXFXFXFXFXFXFXFXFXFXFXFXFXFXFXFXFXFXFXFXFXFXFXFXFXFXFXFXFXFXFXFXFX",
"FXFXFXFXFXFX(.<.].sXuXMXBXBXVXVXcXMXCXCXCXCXCXCXCXVXVXBXjXXX`.A.l.j.x.} FXFXFXFXFXFXFXFXFXFXFXFXFXFXFXFXFXFXFXFXFXFXFXFXFXFXFXFXFXFXFXFXFXFXFXFXFXFXFXFXFXFXFXFX",
"FXFXFXFXFXh.yX.Xk.(.4XjXxXxXnXnXjXxXBXBXBXBXBXBXBXnXnXnXzX|.jX,X$X].T.j.R.FXFXFXFXFXFXFXFXFXFXFXFXFXFXFXFXFXFXFXFXFXFXFXFXFXFXFXFXFXFXFXFXFXFXFXFXFXFXFXFXFXFXFX",
"FXFXFXFXFXY.sXqXeXgXgXxXxXxXnXmXjXXX8XlXnXnXnXnXnXmXlXeXoX|.eXuX'.pXdXaXrXR.R.XX_.Y.FXFXFXFXFXFXFXFXFXFXFXFXFXFXFXFXFXFXFXFXFXFXFXFXFXFXFXFXFXFXFXFXFXFXFXFXFXFX",
"FXFXFXFX| ].uXjXnXNXNXNXnXnXnXnXnXlX5X_.xXzXeXXX}.9X9X9XoXoXwXcXwX$XAXAXdX1X`.].qXXX] FXFXFXFXFXFXFXFXFXFXFXFXFXFXFXFXFXFXFXFXFXFXFXFXFXFXFXFXFXFXFXFXFXFXFXFXFX",
"FXFXFXFX~.sXzXnXnXnXmXmXmXmXmXmXzXuX5X8XnXmXqX6X` | ^.].oXeXxXnXzX#XAXpX@Xd.@XiXdXaX>X1XFXFXFXFXFXFXFXFXFXFXFXFXFXFXFXFXFXFXFXFXFXFXFXFXFXFXFXFXFXFXFXFXFXFXFXFX",
"FXFXFX1.yXsXkXhXmXnXmXxXxXzXeXXX]._.].kXkXuXrX7X] ].7X7XuXzXmXMX4X$XAXAXiXb.>X@XiXSXdXdXdXFXFXFXFXFXFXFXFXFXFXFXFXFXFXFXFXFXFXFXFXFXFXFXFXFXFXFXFXFXFXFXFXFXFXFX",
"FXFXFX<.uXqX8X4XzXnXnXnXnXnXmXxXhX}.].6XtXtX5XY...].tXtXrXrXtX4XA.<XdXAXdXpX>X>XdXAXdX&XpXAXdXFXFXFXFXFXFXFXFXFXFXFXFXFXFXFXFXFXFXFXFXFXFXFXFXFXFXFXFXFXFXFXFXFX",
"FXFXFX<.].qX{.^.7XkXMXnXnXnXnXnXnXnXxXXX].~.<.E._.k.^.4XrX7X].A.N.1X2XpX2X2X2XpX2X<X%X#XD.1XpX>XE.FXFXFXFXFXFXFXFXFXFXFXFXFXFXFXFXFXFXFXFXFXFXFXFXFXFXFXFXFXFXFX",
"FXFXFXFX^.zX{.} Y.].XXzXzXxXnXnXnXnXnXxX8XY.T.rXtX5XR.k.z.l.g.$Xn.n.#X$XG.G.$X$X&X&X<X2X<XD.#X<X[.eXeX9X|.FXFXFXFXFXFXFXFXFXFXFXFXFXFXFXFXFXFXFXFXFXFXFXFXFXFXFX",
"FXFXFXFX(.MXXX} ^..XeXxXxXzXxXmXmXmXmXnXnXjXE._.4X].).l.g.D.D.D.:.S.;.D.<X<X2X2X2X#XN.V.D.<X#XD.'.jXkXkXjXeX9XFXFXFXFXFXFXFXFXFXFXFXFXFXFXFXFXFXFXFXFXFXFXFXFXFX",
"FXFXFXFX~.mXxX(._.6XrXuXzXnXnXMXmXmXnXnXxXcXjX(.<.g.D.%X<X2X2X$XD.S.n.#X2X2X2X2X2X#Xn.=.w.2X2X#X`.jXkXkXkXkXjXwX_.FXFXFXFXFXFXFXFXFXFXFXFXFXFXFXFXFXFXFXFXFXFXFX",
"FXFXFXFXz.uXkXuX].^._.5X7XqXkXxXmXnXnXnXnXfX3XK.,.,.s.S.%X<X2X2X$X$X<X2X2X2X&X&X&X<XS.n.:.S.2X&X'.hXkXkXkXkXkX9XR.>.P FXFXFXFXFXFXFXFXFXFXFXFXFXFXFXFXFXFXFXFXFX",
"FXFXFXFX( T.4XrX5X5X.X5XoX5X5X6XqXkXzXmX3XT J.L.vX;XJ.-X:X>.$.S.$XH.H.>X[.[.].`.H.Z.N.M.v.S.<X&X'.5XeXjXkXjX(.[ x =X=XI Y U FXFXFXFXFXFXFXFXFXFXFXFXFXFXFXFXFXFX",
"FXFXFXFXFXFX] <.^.].5X5X7X5X5X7X5X7XrX].U ;XvXL.=X=XL.-XJ.f d 1.9XjXzXmXxXzXzXMXMX9X^.l.B.C.D.G.l.k.].9XeXI.,.J.Y J.J.Y =X=XI d | _._.(.}.}.T.| k.I.E.FXFXFXFXFX",
"FXFXFXFXFXFXFXFX{ ].].]._._..X5X5X4X_.z h L.;XL.DXDXJ.h d ,.{.xXMXmXmXVXCXMX8X9XXX8XkX4X~.A.B.A.`.).x.Y.z.p L.-XY T T P c 1.(.}.oX9X9X0XeXhXjX8XXX(.R.}.k.FXFXFX",
"FXFXFXFXFXFXFXFXFX( | ~.^.^.(._.].^.<.d k P k I J.T h 7 P.cXNXnXnXVXVXkX9XXXeXjXeXE._.7XtX].l.~.,X,X,X~.d % s j j ;X-Xx I.oX0X0X9X9X0X0XoX(.R.|.hXkX}.Y.XX(.' FX",
"FXFXFXFXFXFXFXFXFXFXFX=.g.l.l.x.j.z.<.s T -Xk Y J.k s d gXmXnXnXxXzXmXkXeX}.T.(.7X5XY.k.^.|. Xh.].[.,X[.x Y f % % s d { 9XeXwXwXhXeX}.k...' ~ / U.9XuXh.R.uXT.FX",
"FXFXFXFXFXFXFXFXFXFXFXFXD.2X<X%Xv.+.;.*.>.,.[ ,.L.h i d rXuXeXxXjXoXE.(.8XkX4XY.k.].oXI.` ] | ~ ' h.j.| x L.h % h P p j.wXkXjXjXjX(.' '  .' _ h.` k.(.R.k.6X(.FX",
"FXFXFXFXFXFXFXFXFXFXFXFXw.@X%X&XZ.n.c.N.<X&X&XS.n.$.z ] x.].k. XkXjXU.g.A.^.5X|.}  .(. Xh.FXFXFXFXFXFXFXFXFX% % Y L.d h.|.wXhXwX9X<.| ^ Q FXFX} U.' ^ ( ' R.I.FX",
"FXFXFXFXFXFXFXFXFXFXFXFXm 3.p.&.e.&.C q.p.p.q.q.p.%.q.q.X.&.$.<.(.qX6X).-.&.1. XI.X.FXFXFXFXFXFXFXFXFXFXFXFXFXFXFXFXFX/ x.[.9XkXeXE._ E FXFXFXW | / FXFX_ ] FXFX",
"FXFXFXFXFXFXFXFXFXFXFXFXm 3.3.H y.2.H +X+Xp.2.9.0.b 2.3.4.4.4.5.&.<.].].R.&.F &.$.b FXFXFXFXFXFXFXFXFXFXFXFXFXFXFXFXFXFXFXx.}.XXwXeX].T.R.FXFXFXFXFXFXFXFXFXFXFX",
"FXFXFXFXFXFXFXFXFXFXFXFXO.3.F A 4.2.H 4.6.3.Z J 4.A A Z A A A A A V ) <.1.l g M N m FXFXFXFXFXFXFXFXFXFXFXFXFXFXFXFXFXFXFXFXFXFXh.I.].^.{.}.FXFXFXFXFXFXFXFXFXFX",
"FXFXFXFXFXFXFXFXFXFXFX+.-.0.2.4.3.9.u.9.6.r.o.4.4.0.7.H G 3.2.%.H K l e K Y P f L 2.H FXFXFXFXFXFXFXFXFXFXFXFXFXFXFXFXFXFXFXFXFXFXFXFXFXFXFXFXFXFXFXFXFXFXFXFXFX",
"FXFXFXFXFXFXFXFXFXFXFX=.r.2.0.y.y.y.u.8.a.s.a.8.5.K U ,.T T Y I k s s f Y P h f L 4.S FXFXFXFXFXFXFXFXFXFXFXFXFXFXFXFXFXFXFXFXFXFXFXFXFXFXFXFXFXFXFXFXFXFXFXFXFX",
"FXFXFXFXFXFXFXFXFXFX+.-.y.2.y.0.a.OXK.-X;X;X;XT j j Y I P P k P I s s j I P P g C S C +.FXFXFXFXFXFXFXFXFXFXFXFXFXFXFXFXFXFXFXFXFXFXFXFXFXFXFXFXFXFXFXFXFXFXFXFX",
"FXFXFXFXFXFXFXFXFXFX+.w.y.#.5.L.-X=X-XJ.T =XvXvX;X;X;X=XY % s s h Y Y Y P g l D B H C O.:.=.FXFXFXFXFXFXFXFXFXFXFXFXFXFXFXFXFXFXFXFXFXFXFXFXFXFXFXFXFXFXFXFXFXFX",
"FXFXFXFXFXFXFXFXFXFX+.e.y.H K J.-X;XL.s k L.-X=X*XK.J.Y h f k h s k g g V G 4.S H V X.b.$XD.b.;.FXFXFXFXFXFXFXFXFXFXFXFXFXFXFXFXFXFXFXFXFXFXFXFXFXFXFXFXFXFXFXFX",
"FXFXFXFXFXFXFXFXFXFXO.&.D M U =X=XL.Y Y T k l $.m.v.&.%.V V L L L L G 3.3.#.2.M S F @.f.M.G.G.V.:.=.FXFXFXFXFXFXFXFXFXFXFXFXFXFXFXFXFXFXFXFXFXFXFXFXFXFXFXFXFXFX",
"FXFXFXFXFXFXFXFXFXFXl T x T ;XL.K x U ,.:XA.Z.F.F.F.M.w.7.H 7.7.7.7.H 3.2.J 2.B B o.@.d.b.m.M.Z.B.b.d.;.FXFXFXFXFXFXFXFXFXFXFXFXFXFXFXFXFXFXFXFXFXFXFXFXFXFXFXFX",
"FXFXFXFXFXFXFXFXFXf Y I Y =XJ.P z N.C.1XAX<XF.F.F.F.C.:.y.D 2.7.7.7.H 2.2.J B H M %.&.;.b.b.b.m.M.M.b.b.:.FXFXFXFXFXFXFXFXFXFXFXFXFXFXFXFXFXFXFXFXFXFXFXFXFXFXFX",
"FXFXFXFXFXFXFXFXs Y P h s s P P $.F.F.<XpXG.F.F.F.F.C.:.t.0.S 4.7.2.H 2.G H n &.V 3.6.@.d.b.b.b.b.m.b.b.b.:.FXFXFXFXFXFXFXFXFXFXFXFXFXFXFXFXFXFXFXFXFXFXFXFXFXFX",
"FXFXFXFXFXFXFXFXs h Y Y f j P z V.F.F.F.G.F.F.F.F.F.F.M.w.t.b H H A F A N V @.@.o.4.7.&.=.f.b.b.b.b.b.b.b.b.f.FXFXFXFXFXFXFXFXFXFXFXFXFXFXFXFXFXFXFXFXFXFXFXFXFX",
"FXFXFXFXFXFXFXFXh Y I s s l l N.F.B.m.C.F.F.F.F.F.F.F.B.w.y.v n b N A b o.:.b.:.&.7.7.7.6.=.:.b.b.b.b.b.b.b.b.@.FXFXFXFXFXFXFXFXFXFXFXFXFXFXFXFXFXFXFXFXFXFXFXFX",
"FXFXFXFXFXFXFXFXh k h d y :.O.O.m.f.b.D.D.Z.C.C.Z.C.F.B.w.y.v m A H H H o.;.b.f.@.6.7.7.7.7.&.;.f.:.-.;.;.:.:.&.=.FXFXFXFXFXFXFXFXFXFXFXFXFXFXFXFXFXFXFXFXFXFXFX",
"FXFXFXFXFXFXFXFXFXFXFXu f.f.O.F b.F.G.<X<XF.C.B.V.F.F.m.q.y.v m o.7.7.7.2.o.o.O.O.6.7.7.7.7.7.&.O.&.:.d.b.D.$XV.b.d.FXFXFXFXFXFXFXFXFXFXFXFXFXFXFXFXFXFXFXFXFXFX",
"FXFXFXFXFXFXFXFXFXFXFXt +.C 4.r.c.B.F.F.F.F.F.F.M.-.B.;.r.3.r FXm H 4.7.7.7.2.D Z 2.7.7.7.7.H B A :.m.b.m.N.G.F.M.b.;.FXFXFXFXFXFXFXFXFXFXFXFXFXFXFXFXFXFXFXFXFX",
"FXFXFXFXFXFXFXFXFXFXFXV V H y.y.y.e.c.M.B.B.B.V.b.&.:.q.7.b FXFXFXFXB H 3.7.7.H B M G 5.5.S m F 3.=.:.b.b.b.m.M.m.b.:.FXFXFXFXFXFXFXFXFXFXFXFXFXFXFXFXFXFXFXFXFX",
"FXFXFXFXFXFXFXFXFXFXM.7.F 0.y.y.u.y.y.q.q.q.q.q.q.2.B S b FXFXFXFXFXFXFXM S H H B M M M M v #.7.7.7.&.;.:.b.b.b.b.:.+.FXFXFXFXFXFXFXFXFXFXFXFXFXFXFXFXFXFXFXFXFX",
"FXFXFXFXFXFXFXFXf.V.N.3.F y.y.i.i.u.y.y.y.y.y.y.7.G 2.r FXFXFXFXFXFXFXFXFXv B G o.H D F n v 3.7.7.7.7.6.&.=.=.=.=.@.o.FXFXFXFXFXFXFXFXFXFXFXFXFXFXFXFXFXFXFXFXFX",
"FXFXFXFXFXFXFXm.V.c.6.2.D y.i.+Xi.y.y.y.y.y.y.0.F G B FXFXFXFXFXFXFXFXFXb H 7.7.7.7.2.Z N b H 7.7.7.7.7.7.6.6.6.6.6.H FXFXFXFXFXFXFXFXFXFXFXFXFXFXFXFXFXFXFXFXFX",
"FXFXFXFXFXFXV.M.e.y.J 4.F 2.p.+Xu.y.y.y.y.y.3.D H B FXFXFXFXFXFXFXFXFXFXG 7.7.7.7.H A G G H A 2.7.7.7.7.7.7.0.0.5.S FXFXFXFXFXFXFXFXFXFXFXFXFXFXFXFXFXFXFXFXFXFX",
"FXFXFXFXFX@.c.q.y.y.9.4.0.D F 6.0.y.y.0.3.F G G b FXFXFXFXFXFXFXFXFXFXH 4.7.7.7.#.F 7.7.2.J 2.F #.7.7.9.0.y.t.5.B FXFXFXFXFXFXFXFXFXFXFXFXFXFXFXFXFXFXFXFXFXFXFX",
"FXFXFXFXFXo.t.y.7.7.y.t.t.y.3.G F G D S G R 3.m FXFXFXFXFXFXFXFXFXFXFXF 5.7.7.7.A 2.7.7.7.G F 3.3.H H 4.9.3.H n FXFXFXFXFXFXFXFXFXFXFXFXFXFXFXFXFXFXFXFXFXFXFXFX",
"FXFXFXFX; 4.y.9.J y.u.p.i.3.u.i.u.7.2.J 4.9.0.S FXFXFXFXFXFXFXFXFXFXFXFXA 7.7.5.N 3.7.7.H n 2.3.4.0.7.7.2.S b FXFXFXFXFXFXFXFXFXFXFXFXFXFXFXFXFXFXFXFXFXFXFXFXFX",
"FXFXFXFX; 7.y.2.7.y.i.+X+Xt.u.t.7.4.9.J y.y.t.B FXFXFXFXFXFXFXFXFXFXFXFXr 2.7.2.A 5.7.7.Z G 7.7.7.0.i.0.H r FXFXFXFXFXFXFXFXFXFXFXFXFXFXFXFXFXFXFXFXFXFXFXFXFXFX",
"FXFXFXFX; 7.y.J 0.u.i.+Xp.u.y.0.t.y.9.A y.y.H FXFXFXFXFXFXFXFXFXFXFXFXFXr J 7.#.H 7.7.4.N 5.7.0.y.u.u.2.n FXFXFXFXFXFXFXFXFXFXFXFXFXFXFXFXFXFXFXFXFXFXFXFXFXFXFX",
"FXFXFXFX; 3.y.J 0.u.i.p.i.u.y.y.y.9.B 2.0.L FXFXFXFXFXFXFXFXFXFXFXFXFXFXv 2.9.H H 7.7.4.A 7.7.y.y.t.G r FXFXFXFXFXFXFXFXFXFXFXFXFXFXFXFXFXFXFXFXFXFXFXFXFXFXFXFX",
"FXFXFXFXFXH y.J 0.u.i.i.i.y.y.y.y.S S H B FXFXFXFXFXFXFXFXFXFXFXFXFXFXr t H 5.F D 7.7.7.2.7.0.y.y.#.r FXFXFXFXFXFXFXFXFXFXFXFXFXFXFXFXFXFXFXFXFXFXFXFXFXFXFXFXFX",
"FXFXFXFXFXb y.J 0.i.i.i.u.y.y.0.H F H r FXFXFXFXFXFXFXFXFXFXFXFXFXFXFXw 6 S n w w V F 2.5.H H H C n FXFXFXFXFXFXFXFXFXFXFXFXFXFXFXFXFXFXFXFXFXFXFXFXFXFXFXFXFXFX",
"FXFXFXFXFXr 3.0.y.i.i.i.u.y.0.7.7.3.M FXFXFXFXFXFXFXFXFXFXFXFXFXFXFXFX- V 3.n 0 8 8 6 F V 0 6 0 6 5 FXFXFXFXFXFXFXFXFXFXFXFXFXFXFXFXFXFXFXFXFXFXFXFXFXFXFXFXFXFX",
"FXFXFXFXFXw F C u y %.3.3.3.5.4.C t FXFXFXFXFXFXFXFXFXFXFXFXFXFXFXFX^ ( q t B V V u V 2.n u t u t q Q FXFXFXFXFXFXFXFXFXFXFXFXFXFXFXFXFXFXFXFXFXFXFXFXFXFXFXFXFX",
"FXFXFXFX; M 7.y 6 8 6 6 6 5 B S 6 5 FXFXFXFXFXFXFXFXFXFXFXFXFXFXFX^  ...! 4 0 0 y u u t t u y ! <.| ' ^ FXFXFXFXFXFXFXFXFXFXFXFXFXFXFXFXFXFXFXFXFXFXFXFXFXFXFXFX",
"FXFXFXFXFXu S G S V t t t n 4.2.b ; FXFXFXFXFXFXFXFXFXFXFXFXFXFXFX} h.] q 4 E E E E E < 8 E W  .Y.k.| ] ` W FXFXFXFXFXFXFXFXFXFXFXFXFXFXFXFXFXFXFXFXFXFXFXFXFXFX",
"FXFXFXFX@ 4 6 y q y C C C V V t 5 FXFXFXFXFXFXFXFXFXFXFXFXFXFXFX^ ] } ~ 9 4 4 9 9 9 3 4 9 E ' k.k.k.|  .h.| } ^ ` ~ FXFXFXFXFXFXFXFXFXFXFXFXFXFXFXFXFXFXFXFXFXFX",
"FXFXFXFX2 ) T.Q.} _ k.z.h.) 4 9 8 FXFXFXFXFXFXFXFXFXFXFXFXFXFXFX4 9 Q E E E 9 8 4 2 2 8 9 9 ` h.j.} h.U.Y.T.Y.T.k.h.h.} ^ ~ FXFXFXFXFXFXFXFXFXFXFXFXFXFXFXFXFXFX",
"FXFXFX5 { !._.!.' T._._._.z.4 9 2 FXFXFXFXFXFXFXFXFXFXFXFXFXFXFX@ < < < 3 3 3 3 < < < < < 8 9 ~ ( a  .k.k.k.U.R.E.Y. .' _ Q 4 FXFXFXFXFXFXFXFXFXFXFXFXFXFXFXFXFX",
"FXFXFX] Q.E.E.Y.} Q.!.Q.E.E.( @ FXFXFXFXFXFXFXFXFXFXFXFXFXFXFXFXFX+ + @ < < < < @ FXFXFXFX+ @ < < < 8 0 0 0 8 8 8 8 3 3 3 3 2 # FXFXFXFXFXFXFXFXFXFXFXFXFXFXFXFX",
"FXq ] E._.|.oX|.T.oXoXoX_._.Y.z FXFXFXFXFXFXFXFXFXFXFXFXFXFXFXFXFXFXFXFXFXFXFXFXFXFXFXFXFXFX+ @ 4 3 3 8 3 3 3 3 3 3 3 8 3 < FXFXFXFXFXFXFXFXFXFXFXFXFXFXFXFXFXFX",
"< ' _.0X0X0X0X_._.0X0X0X0X0XoXh.q + FXFXFXFXFXFXFXFXFXFXFXFXFXFXFXFXFXFXFXFXFXFXFXFXFXFXFXFXFXFXFXFXFXFXFXFXFXFXFXFXFXFXFXFXFXFXFXFXFXFXFXFXFXFXFXFXFXFXFXFXFXFX",
"0 _ } W.|.XX8X<.XX8XXX|._.R.| ' ^ < FXFXFXFXFXFXFXFXFXFXFXFXFXFXFXFXFXFXFXFXFXFXFXFXFXFXFXFXFXFXFXFXFXFXFXFXFXFXFXFXFXFXFXFXFXFXFXFXFXFXFXFXFXFXFXFXFXFXFXFXFXFX",
"0 / ` | j.j.j./ | j.j. .` ^ ^ ! 0 + FXFXFXFXFXFXFXFXFXFXFXFXFXFXFXFXFXFXFXFXFXFXFXFXFXFXFXFXFXFXFXFXFXFXFXFXFXFXFXFXFXFXFXFXFXFXFXFXFXFXFXFXFXFXFXFXFXFXFXFXFXFX",
"@ 9 Q ( _ _ _ 0 ~ _ _ _ ~ Q q 0 0 + FXFXFXFXFXFXFXFXFXFXFXFXFXFXFXFXFXFXFXFXFXFXFXFXFXFXFXFXFXFXFXFXFXFXFXFXFXFXFXFXFXFXFXFXFXFXFXFXFXFXFXFXFXFXFXFXFXFXFXFXFXFX",
"FX@ < 2 6 6 6 + 2 6 6 6 6 0 + + FXFXFXFXFXFXFXFXFXFXFXFXFXFXFXFXFXFXFXFXFXFXFXFXFXFXFXFXFXFXFXFXFXFXFXFXFXFXFXFXFXFXFXFXFXFXFXFXFXFXFXFXFXFXFXFXFXFXFXFXFXFXFXFX"
};
