/* XPM */
static char *result[] = {
/* columns rows colors chars-per-pixel */
"80 80 246 2 ",
"   c gray1",
".  c #0C0C0C",
"X  c #1A0D08",
"o  c gray7",
"O  c #191411",
"+  c gray11",
"@  c #2B1208",
"#  c #341708",
"$  c #261C16",
"%  c #362319",
"&  c #393A18",
"*  c gray14",
"=  c #292726",
"-  c gray17",
";  c #362927",
":  c #3B2233",
">  c #333434",
",  c #363738",
"<  c #393939",
"1  c #421B07",
"2  c #4B1D04",
"3  c #511F07",
"4  c #53230A",
"5  c #5A2408",
"6  c #49261A",
"7  c #592717",
"8  c #682908",
"9  c #742C05",
"0  c #7A350F",
"q  c #642B15",
"w  c #693517",
"e  c #4E2D2F",
"r  c #57282A",
"t  c #473829",
"y  c #49263A",
"u  c #552A39",
"i  c #68342B",
"p  c #683238",
"a  c #474524",
"s  c #4C4D2C",
"d  c #544A2A",
"f  c #594D38",
"g  c #585837",
"h  c #724832",
"j  c #66593A",
"k  c #6C603C",
"l  c #542B43",
"z  c #5A2C48",
"x  c #632E4C",
"c  c #64334D",
"v  c #6A3449",
"b  c #783448",
"n  c #632E50",
"m  c #6A3552",
"M  c #6B3453",
"N  c #733756",
"B  c #753A5A",
"V  c #7B3C5C",
"C  c #7E3E61",
"Z  c #5F5B40",
"A  c #72454B",
"S  c #714E4D",
"D  c #646342",
"F  c #6A6B4A",
"G  c #746A4F",
"H  c #737453",
"J  c #797B5A",
"K  c #843100",
"L  c #873709",
"P  c #8E3C0B",
"I  c #843A11",
"U  c #883E15",
"Y  c #843C2E",
"T  c #904113",
"R  c #984717",
"E  c #A14E1D",
"W  c #A3501F",
"Q  c #91502E",
"!  c #A55322",
"~  c #A95828",
"^  c #AD5B2B",
"/  c #B15F2E",
"(  c #AE4B30",
")  c #AA5D34",
"_  c #B45C38",
"`  c #91643C",
"'  c #B56332",
"]  c #B06334",
"[  c #B96739",
"{  c #C26F3E",
"}  c #C2703F",
"|  c #86364C",
" . c #8B3D54",
".. c #973D54",
"X. c #A33C4D",
"o. c #A53F51",
"O. c #823F61",
"+. c #904F4D",
"@. c #985748",
"#. c #86415A",
"$. c #9A435C",
"%. c #B34F4A",
"&. c #A34154",
"*. c #AD4253",
"=. c #A6445C",
"-. c #B64658",
";. c #BD4A5C",
":. c #906D4E",
">. c #B76E4B",
",. c #844163",
"<. c #8B4465",
"1. c #8D4669",
"2. c #8C4769",
"3. c #91476B",
"4. c #974869",
"5. c #944A6B",
"6. c #935C6E",
"7. c #964A71",
"8. c #9C4D73",
"9. c #A84A65",
"0. c #B14E6A",
"q. c #A34E74",
"w. c #A55176",
"e. c #A5527B",
"r. c #AB557B",
"t. c #B65777",
"y. c #B5597B",
"u. c #8E7867",
"i. c #B17169",
"p. c #C44B5C",
"a. c #CA4D5E",
"s. c #CE5A54",
"d. c #CC565A",
"f. c #C46748",
"g. c #C57242",
"h. c #C67548",
"j. c #CB7B4C",
"k. c #CB7B53",
"l. c #D07452",
"z. c #D47A5A",
"x. c #E06E5F",
"c. c #CA4F61",
"v. c #CE5263",
"b. c #C85467",
"n. c #D35364",
"m. c #DA5969",
"M. c #DA5A72",
"N. c #E4596A",
"B. c #E85A6A",
"V. c #F35E6F",
"C. c #F35E70",
"Z. c #D97364",
"A. c #DA6474",
"S. c #E8736F",
"D. c #EA6877",
"F. c #FE6273",
"G. c #F7697A",
"H. c #7E805E",
"J. c #868666",
"K. c #93896F",
"L. c #979776",
"P. c #A68C66",
"I. c #B2906E",
"U. c #CD8455",
"Y. c #D48453",
"T. c #D58458",
"R. c #D58A5B",
"E. c #DA8B5B",
"W. c #E3905E",
"Q. c #DC8B64",
"!. c #CD946B",
"~. c #DB9566",
"^. c #E38869",
"/. c #E3936B",
"(. c #E59868",
"). c #EA8B76",
"_. c #F28A7C",
"`. c #E89875",
"'. c #EA9C7A",
"]. c #F3987E",
"[. c #DAA777",
"{. c #E4A372",
"}. c #EBA473",
"|. c #E8A879",
" X c #EBAC7B",
".X c #F1A57C",
"XX c #F2AD7C",
"oX c #EDB07E",
"OX c #BF5A81",
"+X c #C45A83",
"@X c #E97787",
"#X c #EE7788",
"$X c #F87685",
"%X c #FC7B8B",
"&X c #A78F83",
"*X c #A8A887",
"=X c #B9AA8E",
"-X c #B6B795",
";X c #BFBFA4",
":X c #F58B86",
">X c #F79B87",
",X c #FE8394",
"<X c #F38F97",
"1X c #F58A9A",
"2X c #FF8C9C",
"3X c #ECA583",
"4X c #F1A384",
"5X c #F5AC87",
"6X c #F3A68A",
"7X c #F5A98D",
"8X c #EEB785",
"9X c #F6B583",
"0X c #F8B685",
"qX c #F6B68A",
"wX c #F4BD8B",
"eX c #F6AC92",
"rX c #F7AC94",
"tX c #EFB293",
"yX c #F7B797",
"uX c #FE97A6",
"iX c #F09EB0",
"pX c #F9BBA5",
"aX c #FCA7B7",
"sX c #FDB5B3",
"dX c #EBC28D",
"fX c #F5C18E",
"gX c #F7C593",
"hX c #F8C594",
"jX c #F5CB95",
"kX c #F7C79B",
"lX c #F7CD99",
"zX c #F6D49D",
"xX c #F8D19C",
"cX c #CACAB1",
"vX c #F9C9A4",
"bX c #FAD7A7",
"nX c #F7DDA4",
"mX c #F8DCA5",
"MX c #F9E1AA",
"NX c #FCE5B2",
"BX c #FDE9B5",
"VX c #FEEEBB",
"CX c #FFF0BE",
"ZX c #FFB4C5",
"AX c #D6D6C9",
"SX c None",
/* pixels */
"SXSXSXSXSXSXSXSXSXSXSXSXSXSXSXSXSXSXSXSXSXSXSXSXSXSXSXSX. .   SXSXSXSXSXSXSXSXSXSXSXSXSXSXSXSXSXSXSXSXSXSXSXSXSXSXSXSXSXSXSXSXSXSXSXSXSXSXSXSXSXSXSXSXSXSXSXSXSX",
"SXSXSXSXSXSXSXSXSXSXSXSXSXSXSXSXSXSXSXSXSXSXSXSXSX    O > > *   SXSXSXSXSXSXSXSXSXSXSXSXSXSXSXSXSXSXSXSXSXSXSXSXSXSXSXSXSXSXSXSXSXSXSXSXSXSXSXSXSXSXSXSXSXSXSXSX",
"SXSXSXSXSXSXSXSXSXSXSXSXSXSXSXSXSXSXSXSXSX  = - - - + + * * = * O + - + SXSXSX+ + + .     SXSXSXSXSXSXSXSXSXSXSXSXSXSXSXSXSXSXSXSXSXSXSXSXSXSXSXSXSXSXSXSXSXSXSX",
"SXSXSXSXSXSXSXSXSXSXSXSXSXSXSXSXSXSX. O . + < < < < < > - = = + + + * > + = - < - = O SXSXSXSXSXSXSXSXSXSXSXSXSXSXSXSXSXSXSXSXSXSXSXSXSXSXSXSXSXSXSXSXSXSXSXSXSX",
"SXSXSXSXSXSXSXSXSXSXSXSXSXSXSXSXSXSX* < > > < < < < < < < < < < , > + - > * + +   SXSXSXSX  SXSXSXSXSXSXSXSXSXSXSXSXSXSXSXSXSXSXSXSXSXSXSXSXSXSXSXSXSXSXSXSXSXSX",
"SXSXSXSXSXSXSXSXSXSXSXSXSXSXSXSXo . + > < < < < < < < < < < < < < - + = o o . .   SXSXSXSX    SXSXSXSXSXSXSXSXSXSXSXSXSXSXSXSXSXSXSXSXSXSXSXSXSXSXSXSXSXSXSXSXSX",
"SXSXSXSXSXSXSXSXSXSXSXSXSXSXSXSX+ * > < < < < < < > < < < < > + = ; * + + . o o . . .     SXSXSXSXSXSXSXSXSXSXSXSXSXSXSXSXSXSXSXSXSXSXSXSXSXSXSXSXSXSXSXSXSXSXSX",
"SXSXSXSXSXSXSXSXSXSXSXSXSXSXSX  O > < < < < < < * = < < < < < = t :.S h ; o o o o o o . .   SXSXSXSXSXSXSXSXSXSXSXSXSXSXSXSXSXSXSXSXSXSXSXSXSXSXSXSXSXSXSXSXSXSX",
"SXSXSXSXSXSXSXSXSXSXSXSXSXSXSX+ * , < < < < < > o > < < < < < < O ` :.h 6 ; . o o o o . .     SXSXSXSXSXSXSXSXSXSXSXSXSXSXSXSXSXSXSXSXSXSXSXSXSXSXSXSXSXSXSXSXSX",
"SXSXSXSXSXSXSXSXSXSXSXSXSXSX  * < > , < < < < + . > < < < < < * # [.jXj.w . . . o o . . .         SXSXSXSXSXSXSXSXSXSXSXSXSXSXSXSXSXSXSXSXSXSXSXSXSXSXSXSXSXSXSX",
"SXSXSXSXSXSXSXSXSXSXSXSXSX  SXSX+ o > < , < > ; :.j t * = > < * Q XXXX0X>.X           SXSXSXSXSXSX  SXSXSXSXSXSXSXSXSXSXSXSXSXSXSXSXSXSXSXSXSXSXSXSXSXSXSXSXSXSX",
"SXSXSXSXSXSXSXSXSXSXSXSXSXSXSXSXi O , - $ ; + 6 {.wX[.` Q i - * % @.~.|.!.SXSXSXSXSXSXSXSXSXSXSXSXSXSXSXSXSXSXSXSXSXSXSXSXSXSXSXSXSXSXSXSXSXSXSXSXSXSXSXSXSXSXSX",
"SXSXSXSXSXSXSXSXSXSXSXSXSX{.wXfX8X:.s t :.!.@.h [.hXqX`.>.h.I.P.>.Q ` w SXSXSXSXSXSXSXSXSXSXSXSXSXSXSXSXSXSXSXSXSXSXSXSXSXSXSXSXSXSXSXSXSXSXSXSXSXSXSXSXSXSXSXSX",
"SXSXSXSXSXSXSXSXSXSX}.wXgXzXnXnXnXnXzXwX0X.X).[ !.5X`.).>.U.0XXXE.Y.U.` 8 SXSXSXSXSXSXSXSXSXSXSXSXSXSXSXSXSXSXSXSXSXSXSXSXSXSXSXSXSXSXSXSXSXSXSXSXSXSXSXSXSXSXSX",
"SXSXSXSXSXSXSXSXSX XgXzXnXnXnXnXnXzXfX0X5X).)._ R / h.Q.z.g.U.R.(.`./.E SXSXSXSXSXSXSXSXSXSXSXSXSXSXSXSXSXSXSXSXSXSXSXSXSXSXSXSXSXSXSXSXSXSXSXSXSXSXSXSXSXSXSXSX",
"SXSXSXSXSXSXSX:X7XpXpXpXpXpXyXyXyX6X_.).Q.^.).[ ^ h._ ! ' h.z.z.T.T.h.R SXSXSXSXSXSXSXSXSXSXSXSXSXSXSXSXSXSXSXSXSXSXSXSXSXSXSXSXSXSXSXSXSXSXSXSXSXSXSXSXSXSXSXSX",
"SXSXSXSXSXSXE.3XvXbXbXbXhXyXyXkXgX8X4X>X_.$XS.z.W ^.).Q.h.~ T T T P SXSXSXSXSXSXSXSXSXSXSXSXSXSXSXSXSXSXSXSXSXSXSXSXSXSXSXSXSXSXSXSXSXSXSXSXSXSXSXSXSXSXSXSXSXSX",
"SXSXSXSX XzXNXVXCXCXCXBXmXBXVXCXCXCXVXBXbXvX>X:XS.S.S.z.k.! T ! h.j.SXSXSXSXSXSXSXSXSXSXSXSXSXSXSXSXSXSXSXSXSXSXSXSXSXSXSXSXSXSXSXSXSXSXSXSXSXSXSXSXSXSXSXSXSXSX",
"SXSX[ h.pXbXBXVXVXCXCXVXVXVXMXCXVXVXVXCXVXBXnX5XS.1X<X`.{.{.{.(.(. X8X~.SXSXSXSXSXSXSXSXSXSXSXSXSXSXSXSXSXSXSXSXSXSXSXSXSXSXSXSXSXSXSXSXSXSXSXSXSXSXSXSXSXSXSXSX",
"SXU.3XU.'.pXvXbXNXBXBXBXBXNXjXbXBXBXBXBXMXnXnXgXXX`.>XuXuXeXrX5X X(.}.oX4XuX2XSXSXSXSXSXSXSXSXSXSXSXSXSXSXSXSXSXSXSXSXSXSXSXSXSXSXSXSXSXSXSXSXSXSXSXSXSXSXSXSXSX",
"SX`.pXtXR.~.3XyXhXjXjXxXnXMXxXXXfXnXnXnXmXlXgX0X0X.X|.>XuXZXaXaXsXsXsXuXuXaXaXaXuXSXSXSXSXSXSXSXSXSXSXSXSXSXSXSXSXSXSXSXSXSXSXSXSXSXSXSXSXSXSXSXSXSXSXSXSXSXSXSX",
"SX[ 3XpXtX|.dXjXxXzXnXnXnXnXnXzX8X{.wX9XXX9X0X0XXXXXXXwX>XaXZXZXaXiXaXZXZXaX2X1XaXaXSXSXSXSXSXSXSXSXSXSXSXSXSXSXSXSXSXSXSXSXSXSXSXSXSXSXSXSXSXSXSXSXSXSXSXSXSXSX",
"SX[ R.yX3XjXMXnXnXnXnXnXnXnXnXnXyX`.8X XQ.(.XXXX}.|.jXMXwX<XZXaXM.;.A.1XaXZXZXuX#XaXZXaXSXSXSXSXSXSXSXSXSXSXSXSXSXSXSXSXSXSXSXSXSXSXSXSXSXSXSXSXSXSXSXSXSXSXSXSX",
"SXY.3XqXyXnXnXnXnXnXnXlXxXzXzXzXyX'. XeX4X' Q.'.5XqXkXkXlX:XuXuX1X@XA.@X#XZXaXuXD.D.uXuX:XQ.}.XX(.SXSXSXSXSXSXSXSXSXSXSXSXSXSXSXSXSXSXSXSXSXSXSXSXSXSXSXSXSXSXSX",
"SX[ 3XpXgXnXnXnXnXnXnXmXfXwXwX8X.X/.Q.4XeX) ~.rXrXrXrXeXrX/.$X2XuX2X#XD.%X,XG.G.$X,XG.D.$X^.wXgXwXwX9XSXSXSXSXSXSXSXSXSXSXSXSXSXSXSXSXSXSXSXSXSXSXSXSXSXSXSXSXSX",
"SXR '.pXkXnXnXnX8XgXnXnXnXnXnXnXzXjXwX{.E.^ g.T.'.7XrXrX7XZ.D.2X2X2X2X%XG.$X,X2X,X%X%X,X,X).9XhXhXhXgXfXSXSXSXSXSXSXSXSXSXSXSXSXSXSXSXSXSXSXSXSXSXSXSXSXSXSXSXSX",
"SXSXk.pXpXkXnXnX(.7XyXbXnXnXnXnXnXnXnXzX XU.Y.Q.k.j.Q.'.Q.d.D.@X@X@XD.G.%X2X2X2X@Xp.M.@X,X).8XhXgXgXhXhXgX XSXSXSXSXSXSXSXSXSXSXSXSXSXSXSXSXSXSXSXSXSXSXSXSXSXSX",
"SXSXR Q.yX|.lXnX8X`.'.}.8XwXjXzXnXnXnXnXMXzX{.E.'.Q.f.f.m.N.m.b.b.-.n.,X2X2X2X2XA.n.p.A.A.). XhXgXgXjXwXP.G u.H s SXSXSXSXSXSXSXSXSXSXSXSXSXSXSXSXSXSXSXSXSXSXSX",
"SXSXSXSXj.T.eXkXzX~.Q.'.'.wXgXgXjXxXzXnXnXnXnXwX~.x.D.$X,X%XD.a.b.b.A.2X2X2X2X,XG.G.m.a.b.Z./.5XgXhX X:.D H *X*XH L.L.s f j.W.(.}.}.{.R.{ [ g.j.SXSXSXSXSXSXSXSX",
"SXSXSXSXSX[ `.yXlXdX~./.6XeXyXhXzXzXxXlXzXnXzXxXwX^.S.,X2X2X,X$XG.G.%X2X2X%XG.F.C.F.F.F.N.>.g.T.'.'.Q K.-XH H H H J.:.>.!.}.XX9XwXwXfXfX9X|.~.E.R.R.E.SXSXSXSXSX",
"SXSXSXSXSXSX[ 6XyXlXwX{./.4X7X7XqXyXzXnXnXnXnXnXxXfX~.>.>.%X2X2X,X$XF.G.G.F.F.F.F.F.F.F.x.]./.T.T.) & F L.F *X*XD ` ~.9X0X0X0X0X0X0X0X X|.|.oXwXqX`.U.R.U.SXSXSX",
"SXSXSXSXSXSX%.z.7XrXrX7X'.4X4X4X6X6X7XqXyXgXlXmXdXI.J.L.K.:.i.#X:X%XD.N.V.F.F.F.F.F.F.B.).>X>X>X>XT & & & & H J ` oXhXfXwX0X0X0X}.U.>.' R ! ! ' R.3X3XR.U.U.SXSX",
"SXSXSXSXSXSXSX( f.Q.6X6X'./..X7X4X6XeXeXeX7X6X!.K.K.L.;X-XL.cX=XS @.l.).).:X_._._._.S.z.^./.].].^.Q F s & & a & :.hXhXhXgXwX0XE./ [ g.{ R ' ^ R R ! [ >.h.Y. XSX",
"SXSXSXSXSXSXSXSXd._ j.Q.`.Q.E./.3X7XeXeXrXrX!.g cXAXL.L.L.L.J.g k !.jXnXnXnXnXmXbXjXlX8X(.g.j.j.W w g a & g H & :.5XfXhXfXXXE.E ~ ^ R W T ' } g.[ ~ R ' g./ ! SX",
"SXSXSXSXSXSXSXSXv.B.s.l.z.'.6X'./.`.Q./.'./.j g H K.K.AXcXF d :.8XnXMXnXmXmXNXBXnX9X(.8XgX|.SXSXSXSXSXSXSXSX& & h Y.0XhXhXgX{.R SXSXSXSXSXSXSXE [ j.' P / ^ SXSX",
"SXSXSXSXSXSXSXSXSXSXm.G.x.f.z.z.Q.`.`.'.'.U.a F H g D J.F t I.zXMXnXnXMXMXbXwX{.gXgX XY.8XkXR.SXSXSXSXSXSXSXSXSXSXSX~. XwXgXwXh.SXSXSXSXSXSXSXSXSX/ W SXSXSXSXSX",
"SXSXSXSXSXSXSXSXSXSXSX9.D.#X$XS.s.%.f._ f._ h :.u.g H J.s t dXMXnXnXnXnXMXVXzXR.j. XlXQ.h.6X`.j.SXSXSXSXSXSXSXSXSXSXSX~ [ U.7X6Xk.SXSXSXSXSXSXSXSXSXSXSXSXSXSXSX",
"SXSXSXSXSXSXSXSXSXSXSXm 7. .t.9.0.0.t.9.$.0.t. .#.A A f a t [.lXlXzXnXfX{.oXwXhXQ.h.tXeXh.U.(.g.SXSXSXSXSXSXSXSXSXSXSXSXSXSXj.U.|.[ SXSXSXSXSXSXSXSXSXSXSXSXSXSX",
"SXSXSXSXSXSXSXSXSXSXSXl 3.n 8.,.8.OX+X+X4.5.7.B 5.1.<.,.A A >./.'.R.8XhX}.Y.E.yXeXk.T.4XT./ [ SXSXSXSXSXSXSXSXSXSXSXSXSXSXSXSXSXSXSXSXSXSXSXSXSXSXSXSXSXSXSXSXSX",
"SXSXSXSXSXSXSXSXSXSXSXv v z ,.3.B #.<.#.V ,.3.B V N M B V ,.#.+.@.Y ~ R.5X4Xh.k.'.h.T U.E.SXSXSXSXSXSXSXSXSXSXSXSXSXSXSXSXSXSXSXSXSXSXSXSXSXSXSXSXSXSXSXSXSXSXSX",
"SXSXSXSXSXSXSXSXSXSXSX*...C B B 5.r.w.<.q.N V B 1.V O.5.5.5.5.5.1.B S h ` h.! ~ !.%.v SXSXSXSXSXSXSXSXSXSXSXSXSXSXSXSXSXSXSXSXSXSXSXSXSXSXSXSXSXSXSXSXSXSXSXSXSX",
"SXSXSXSXSXSXSXSXSXSX*.a...8.e.e.e.e.e.1.y.3.e.e.e.7.B 1.5.5.5.5.3.B S g j d j F d #.t.n.;.SXSXSXSXSXSXSXSXSXSXSXSXSXSXSXSXSXSXSXSXSXSXSXSXSXSXSXSXSXSXSXSXSXSXSX",
"SXSXSXSXSXSXSXSXSXSX;.a...7.e.e.7.5.3.8.q.V ,.<.3.8.C <.5.5.5.5.5.N Z H F s F F a &.$X%XG.m.p.o.SXSXSXSXSXSXSXSXSXSXSXSXSXSXSXSXSXSXSXSXSXSXSXSXSXSXSXSXSXSXSXSX",
"SXSXSXSXSXSXSXSXSXSXa.-.<.6.6.,.1.7.7.3.5.3.1.<.O.N n ,.5.1.<.A A f g g a g Z f t *.n.D.G.G.B.a.-.SXSXSXSXSXSXSXSXSXSXSXSXSXSXSXSXSXSXSXSXSXSXSXSXSXSXSXSXSXSXSX",
"SXSXSXSXSXSXSXSXSX+.&.j L.*XL.K.u.u.S A 2.L.&X&X&XL.K.u.G f Z s & g s & a s t c c &.v.v.n.m.G.V.n.a.;.SXSXSXSXSXSXSXSXSXSXSXSXSXSXSXSXSXSXSXSXSXSXSXSXSXSXSXSXSX",
"SXSXSXSXSXSXSXSXg D j g F D G J.L.L.J.g F *X-X-X-X-X-X-XJ.g D F u.K.L.g s f N ,.V *.v.v.v.v.n.B.N.n.v.p.SXSXSXSXSXSXSXSXSXSXSXSXSXSXSXSXSXSXSXSXSXSXSXSXSXSXSXSX",
"SXSXSXSXSXSXSXSXs g Z D D g t a H.L.L.L.*X*X*X*XH g g J.;XcXcX;X-X-XL.f c <.m $.<...;.v.v.v.v.n.m.n.v.v.;.SXSXSXSXSXSXSXSXSXSXSXSXSXSXSXSXSXSXSXSXSXSXSXSXSXSXSX",
"SXSXSXSXSXSXSXSXSXSXl u & a s g D H H H H H J J.H.H.J G J.K.G G S A m M N M b *.$.4.&.-.v.v.v.v.v.v.v.v.v.-.SXSXSXSXSXSXSXSXSXSXSXSXSXSXSXSXSXSXSXSXSXSXSXSXSXSX",
"SXSXSXSXSXSXSXSXSXSXl <.h u h d d d d Q +.+.@.@.i.i.i.+.A 2.l V V n M z l b a.a.X.4.5.$.*.a.v.v.v.v.v.v.v.a.o.SXSXSXSXSXSXSXSXSXSXSXSXSXSXSXSXSXSXSXSXSXSXSXSXSX",
"SXSXSXSXSXSXSXSXSXSXl q.b.b m.n.d.d.d.F.F.F.F.F.F.F.N.;.q.q.l z l z x b ..| ;.v.o.4.5.5.4.&.-.p.a.v.;.-.-.p.M.n.*.SXSXSXSXSXSXSXSXSXSXSXSXSXSXSXSXSXSXSXSXSXSXSX",
"SXSXSXSXSXSXSXSXSXSXSX4.v.| -.F.F.B.N.F.F.F.F.F.F.F.m.N.=.,.y l n A #.*.a.-...;.-.$.5.5.5.5.4.$.&...&.p.v.m.$XD.a.SXSXSXSXSXSXSXSXSXSXSXSXSXSXSXSXSXSXSXSXSXSXSX",
"SXSXSXSXSXSXSXSXSXSXSXv v.;.| v.N.-.n.D.D.D.C.C.B.m.c.n.9.m SXl V 5.5.4.=.-.*..... .4.5.5.5.1.V B V &.-.-.a.a.v.p.X.SXSXSXSXSXSXSXSXSXSXSXSXSXSXSXSXSXSXSXSXSXSX",
"SXSXSXSXSXSXSXSXSXSXSXx -.n.;.b b ;.B.%X,XG.F.F.F.B.a.-.5.z SXSXl m V ,.1.4.$.o...B M ,.5.,.n n O.5.4.4.$.&.o.o.&.$.n SXSXSXSXSXSXSXSXSXSXSXSXSXSXSXSXSXSXSXSXSX",
"SXSXSXSXSXSXSXSXSXSXSXSX| n.*.v <.p.F.F.F.F.F.F.F.F.N.o.x SXSXSXSXSXSXy z M ,.,.,.5.V c c z c <.5.5.5.5.5.5.5.5.5.1.M SXSXSXSXSXSXSXSXSXSXSXSXSXSXSXSXSXSXSXSXSX",
"SXSXSXSXSXSXSXSXSXSXSXSXb ;.b 3.e.=.n.F.F.F.F.F.F.F.N...y SXSXSXSXSXSXSXSXSXl M n M ,.<.c c 5.5.5.5.5.5.5.5.5.5.5.<.z SXSXSXSXSXSXSXSXSXSXSXSXSXSXSXSXSXSXSXSXSX",
"SXSXSXSXSXSXSXSXSXSXSX*.o.*.c e.e.q.=.N.F.F.F.F.F.F.n.| : SXSXSXSXSXSXSXSXz O.<.<.V N V N c 3.5.5.5.5.5.5.5.5.8.5.B SXSXSXSXSXSXSXSXSXSXSXSXSXSXSXSXSXSXSXSXSXSX",
"SXSXSXSXSXSXSXSXSXn.B.B.=.*.c e.e.e.w.9.;.m.N.N.N.p.$.z SXSXSXSXSXSXSXSXc <.5.5.5.5.V n c m M ,.5.5.5.5.5.7.w.5.N y SXSXSXSXSXSXSXSXSXSXSXSXSXSXSXSXSXSXSXSXSXSX",
"SXSXSXSXSXSXSXa.V.F.F.M.4.$.c 8.e.r.y.y.q.9.9.9.9.4.M : SXSXSXSXSXSXSXl ,.5.5.5.5.<.m ,.<.N M N O.5.5.5.7.e.8.c SXSXSXSXSXSXSXSXSXSXSXSXSXSXSXSXSXSXSXSXSXSXSXSX",
"SXSXSXSXSXSXn.V.F.F.B.0.1.,.M V y.+Xy.r.e.e.e.e.3.c SXSXSXSXSXSXSXSXSXc 5.5.5.5.5.N V 5.5.5.N n B V O.,.1.2.z SXSXSXSXSXSXSXSXSXSXSXSXSXSXSXSXSXSXSXSXSXSXSXSXSX",
"SXSXSXSXSXa.F.F.F.F.b.e.e.,.1.B V 7.8.e.e.8.3.B l : SXSXSXSXSXSXSXSX: M 5.5.5.5.5.n 1.5.5.3.z B O.V 5.7.,.c y SXSXSXSXSXSXSXSXSXSXSXSXSXSXSXSXSXSXSXSXSXSXSXSXSX",
"SXSXSXSXX.N.F.B.N.b.w.7.7.e.7.3.,.V M B B M c m y SXSXSXSXSXSXSXSXSXSXz <.5.5.5.5.m 5.5.5.B M 5.8.5.8.w.,.l SXSXSXSXSXSXSXSXSXSXSXSXSXSXSXSXSXSXSXSXSXSXSXSXSXSX",
"SXSXSXSX| a.c.0.w.e.<.1.r.y.+Xr.,.r.e.8.2.C ,.c SXSXSXSXSXSXSXSXSXSXSXy V 5.5.5.5.B 5.5.5.B ,.5.8.r.y.5.n SXSXSXSXSXSXSXSXSXSXSXSXSXSXSXSXSXSXSXSXSXSXSXSXSXSXSX",
"SXSXSXSXy 4.e.e.e.3.2.e.y.y.OXy.8.e.e.3.V 1.2.l SXSXSXSXSXSXSXSXSXSXSXSXn <.5.5.5.B V 5.5.,.<.8.e.e.e.B SXSXSXSXSXSXSXSXSXSXSXSXSXSXSXSXSXSXSXSXSXSXSXSXSXSXSXSX",
"SXSXSXSX: <.e.e.8.,.q.y.y.y.y.r.e.e.e.8.B V z SXSXSXSXSXSXSXSXSXSXSXSXSXl ,.5.5.5.,.M 5.5.<.5.e.e.q.N SXSXSXSXSXSXSXSXSXSXSXSXSXSXSXSXSXSXSXSXSXSXSXSXSXSXSXSXSX",
"SXSXSXSX: ,.e.e.7.<.r.y.y.y.y.e.e.e.8.N z u SXSXSXSXSXSXSXSXSXSXSXSXSXSXe p v V 3.B n 3.5.5.8.8.3.v y SXSXSXSXSXSXSXSXSXSXSXSXSXSXSXSXSXSXSXSXSXSXSXSXSXSXSXSXSX",
"SXSXSXSX: B e.e.5.3.y.y.y.r.e.e.e.<.c l SXSXSXSXSXSXSXSXSXSXSXSXSXSXSXSX6 8 7 z c r r r p b ,.u q 7 SXSXSXSXSXSXSXSXSXSXSXSXSXSXSXSXSXSXSXSXSXSXSXSXSXSXSXSXSXSX",
"SXSXSXSX: y <.e.<.w.y.y.y.e.e.e.7.c l SXSXSXSXSXSXSXSXSXSXSXSXSXSXSXSXSXu u v #.c 7 7 7 8 7 B e q y SXSXSXSXSXSXSXSXSXSXSXSXSXSXSXSXSXSXSXSXSXSXSXSXSXSXSXSXSXSX",
"SXSXSXSX: 7 u 2.,.8.y.y.r.e.w.e.N : SXSXSXSXSXSXSXSXSXSXSXSXSXSXSXSX! ' T i u z M c c c v v M u r i SXSXSXSXSXSXSXSXSXSXSXSXSXSXSXSXSXSXSXSXSXSXSXSXSXSXSXSXSXSX",
"SXSXSXSXy 7 i V r w p p p p i B y SXSXSXSXSXSXSXSXSXSXSXSXSXSXSXSXSX' } R K 3 8 8 9 0 0 7 6 7 q 9 / { / SXSXSXSXSXSXSXSXSXSXSXSXSXSXSXSXSXSXSXSXSXSXSXSXSXSXSXSX",
"SXSXSXSXz V 3.B r q 7 7 5 7 p m y SXSXSXSXSXSXSXSXSXSXSXSXSXSXSXSXU { ~ K K 3 8 K K K K 8 4 8 9 K P ' h.g.' / ^ SXSXSXSXSXSXSXSXSXSXSXSXSXSXSXSXSXSXSXSXSXSXSXSX",
"SXSXSX4 6 p b m B N m m m m B l SXSXSXSXSXSXSXSXSXSXSXSXSXSXSXSXSXw ~ K K K 9 5 5 5 5 5 5 8 8 8 9 K L R ^ [ j.Y.{ ' SXSXSXSXSXSXSXSXSXSXSXSXSXSXSXSXSXSXSXSXSXSX",
"SXSX# 8 w ] [ @.@.h Q @.Q i 6 6 SXSXSXSXSXSXSXSXSXSXSXSXSXSXSXSXSX% q 5 8 9 9 9 9 9 8 5 8 8 4 4 5 8 9 K P ~ h.W.(.(.Y.} [ ' SXSXSXSXSXSXSXSXSXSXSXSXSXSXSXSXSXSX",
"SXSX# w >.(.(.(.(.' g.(.W.j.8 4 SXSXSXSXSXSXSXSXSXSXSXSXSXSXSXSXSX@ 1 2 4 1 2 2 2 2 # X @ # 3 4 5 4 4 5 9 9 9 I W ) ] ) ^ E 8 SXSXSXSXSXSXSXSXSXSXSXSXSXSXSXSXSX",
"SXSX% [ W.E.E.Y.j.^ [ j.Y.E.) SXSXSXSXSXSXSXSXSXSXSXSXSXSXSXSXSXSXSXSXSXSX@ @ @ @ @ SXSXSXSXSXSXSX# 5 4 2 2 2 2 2 2 2 2 5 5 4 @ SXSXSXSXSXSXSXSXSXSXSXSXSXSXSXSX",
"SXSX` T.~.(.|.}.}.E.E.{.}.(.E.W SXSXSXSXSXSXSXSXSXSXSXSXSXSXSXSXSXSXSXSXSXSXSXSXSXSXSXSXSXSXSXSXSXSXSXSX# # # # # 8 9 9 9 5 # SXSXSXSXSXSXSXSXSXSXSXSXSXSXSXSXSX",
"SXQ }.9X0X0X0X0X0X9X(.9X0X0X0XR.R SXSXSXSXSXSXSXSXSXSXSXSXSXSXSXSXSXSXSXSXSXSXSXSXSXSXSXSXSXSXSXSXSXSXSXSXSXSXSXSXSXSXSXSXSXSXSXSXSXSXSXSXSXSXSXSXSXSXSXSXSXSXSX",
"L ^ j.~.(.(.}.}. X8X~.wXwX X(.g.T SXSXSXSXSXSXSXSXSXSXSXSXSXSXSXSXSXSXSXSXSXSXSXSXSXSXSXSXSXSXSXSXSXSXSXSXSXSXSXSXSXSXSXSXSXSXSXSXSXSXSXSXSXSXSXSXSXSXSXSXSXSXSX",
"L E ! ! ~ [ h.h.h.h.R { h.g.' R 0 8 SXSXSXSXSXSXSXSXSXSXSXSXSXSXSXSXSXSXSXSXSXSXSXSXSXSXSXSXSXSXSXSXSXSXSXSXSXSXSXSXSXSXSXSXSXSXSXSXSXSXSXSXSXSXSXSXSXSXSXSXSXSX",
"2 L I I U E E ! W W T E ! ! R 0 1 X SXSXSXSXSXSXSXSXSXSXSXSXSXSXSXSXSXSXSXSXSXSXSXSXSXSXSXSXSXSXSXSXSXSXSXSXSXSXSXSXSXSXSXSXSXSXSXSXSXSXSXSXSXSXSXSXSXSXSXSXSXSX",
"@ 2 2 9 0 I I I I I I I I I 7 q # SXSXSXSXSXSXSXSXSXSXSXSXSXSXSXSXSXSXSXSXSXSXSXSXSXSXSXSXSXSXSXSXSXSXSXSXSXSXSXSXSXSXSXSXSXSXSXSXSXSXSXSXSXSXSXSXSXSXSXSXSXSXSX"
};
