/* XPM */
static char *result[] = {
/* columns rows colors chars-per-pixel */
"80 80 249 2 ",
"   c gray1",
".  c #070808",
"X  c #0B0C0C",
"o  c #160D0B",
"O  c #131313",
"+  c #181513",
"@  c gray11",
"#  c #26160F",
"$  c #2B1208",
"%  c #351505",
"&  c #3B2315",
"*  c #363716",
"=  c #3B3C1B",
"-  c #371E22",
";  c gray14",
":  c #2A2726",
">  c #2B2B2C",
",  c #3A282A",
"<  c #343434",
"1  c #3B3532",
"2  c #3A3A3A",
"3  c #461C06",
"4  c #501E06",
"5  c #5E2404",
"6  c #562409",
"7  c #48281C",
"8  c #592715",
"9  c #682A09",
"0  c #782E04",
"q  c #79310A",
"w  c #683317",
"e  c #6F3117",
"r  c #592929",
"t  c #4C3528",
"y  c #49273A",
"u  c #582B37",
"i  c #66342E",
"p  c #68333A",
"a  c #40401F",
"s  c #4B4928",
"d  c #534929",
"f  c #50502F",
"g  c #5B4937",
"h  c #545433",
"j  c #5A5737",
"k  c #654937",
"l  c #735332",
"z  c #61603F",
"x  c #4C2442",
"c  c #542C43",
"v  c #582C46",
"b  c #5D2E4A",
"n  c #5E3149",
"m  c #662E4B",
"M  c #64324D",
"N  c #69364A",
"B  c #76374B",
"V  c #6A3553",
"C  c #6B3553",
"Z  c #733A56",
"A  c #743856",
"S  c #753A59",
"D  c #7B3C5D",
"F  c #7D3E61",
"G  c #704D4C",
"H  c #646443",
"J  c #6B6646",
"K  c #6C6C4B",
"L  c #736A4B",
"P  c #787857",
"I  c #797A61",
"U  c #853201",
"Y  c #88390B",
"T  c #8D3A0A",
"R  c #853D14",
"E  c #803C2C",
"W  c #8A4219",
"Q  c #984717",
"!  c #A14E1D",
"~  c #A4501F",
"^  c #994D22",
"/  c #8E522F",
"(  c #A95727",
")  c #AE5935",
"_  c #AD6134",
"`  c #B46333",
"'  c #B86639",
"]  c #BD6B3B",
"[  c #C16E3D",
"{  c #C3703F",
"}  c #88364A",
"|  c #893B54",
" . c #983C53",
".. c #A73D4D",
"X. c #A53F52",
"o. c #813E61",
"O. c #8E4D48",
"+. c #83435D",
"@. c #97445A",
"#. c #9A425C",
"$. c #AC4253",
"%. c #A74559",
"&. c #B64658",
"*. c #BC4A5B",
"=. c #B05352",
"-. c #8A6B47",
";. c #906C50",
":. c #BC6846",
">. c #B97747",
",. c #A97B55",
"<. c #B27454",
"1. c #854263",
"2. c #8B4566",
"3. c #8E4866",
"4. c #8D4669",
"5. c #944767",
"6. c #944A6B",
"7. c #97536F",
"8. c #964A71",
"9. c #9C4D74",
"0. c #AA4A66",
"q. c #B84C63",
"w. c #B25368",
"e. c #A74F75",
"r. c #A55175",
"t. c #A5527B",
"y. c #AC557B",
"u. c #B4597C",
"i. c #B8587D",
"p. c #916F6A",
"a. c #BC6262",
"s. c #C44C5D",
"d. c #CC4E5E",
"f. c #CA6C4E",
"g. c #C47343",
"h. c #C97548",
"j. c #CB7B4B",
"k. c #D17F4D",
"l. c #CD7955",
"z. c #D37A5A",
"x. c #C94F61",
"c. c #CE5263",
"v. c #C75768",
"b. c #D35364",
"n. c #D85969",
"m. c #E35A6A",
"M. c #EA5C6C",
"N. c #F25E6E",
"B. c #F25F70",
"V. c #D46567",
"C. c #D66E73",
"Z. c #EB6B6F",
"A. c #E86777",
"S. c #F66777",
"D. c #FE6273",
"F. c #FC6B7B",
"G. c #FA767B",
"H. c #B9855B",
"J. c #8A8A69",
"K. c #8F906E",
"L. c #939372",
"P. c #9A9A79",
"I. c #AE9471",
"U. c #CA8457",
"Y. c #D48453",
"T. c #D48857",
"R. c #D6875B",
"E. c #DA8C5C",
"W. c #E3905E",
"Q. c #CA8863",
"!. c #DB8A65",
"~. c #DD9463",
"^. c #DA9A6A",
"/. c #D29872",
"(. c #E4896B",
"). c #E39464",
"_. c #E3946C",
"`. c #E79A69",
"'. c #E39C6B",
"]. c #E88D74",
"[. c #E99876",
"{. c #F3977A",
"}. c #D4A676",
"|. c #E4A474",
" X c #EAA477",
".X c #ECA775",
"XX c #ECAC7A",
"oX c #F0A579",
"OX c #F1AC7C",
"+X c #EBB27F",
"@X c #BF5A80",
"#X c #C25A82",
"$X c #DB7084",
"%X c #E97786",
"&X c #FD7384",
"*X c #F77989",
"=X c #F87F90",
"-X c #A09B80",
";X c #A8A887",
":X c #B0B08E",
">X c #B6B797",
",X c #BABAA8",
"<X c #F38E8D",
"1X c #F99C88",
"2X c #E78797",
"3X c #FE8595",
"4X c #F78B9C",
"5X c #FE8C9C",
"6X c #ECA586",
"7X c #F4A687",
"8X c #F4AA8B",
"9X c #EDB785",
"0X c #F5B483",
"qX c #F8B685",
"wX c #F4B986",
"eX c #F7B58C",
"rX c #F4BC8B",
"tX c #F7AD94",
"yX c #EBBC90",
"uX c #F7B694",
"iX c #FE8FA0",
"pX c #FE94A4",
"aX c #FDAAA1",
"sX c #F9BEA6",
"dX c #FEA8B8",
"fX c #F4C28E",
"gX c #F9C18E",
"hX c #ECC590",
"jX c #F6C593",
"kX c #F8C594",
"lX c #F5CA95",
"zX c #F7CD9A",
"xX c #F9CA99",
"cX c #F7D39D",
"vX c #F9D39E",
"bX c #CECEAD",
"nX c #F7C0A2",
"mX c #F9D7A4",
"MX c #F7DDA4",
"NX c #F9DCA4",
"BX c #F8E0A7",
"VX c #F9E2AB",
"CX c #FCE7B3",
"ZX c #FFEDBB",
"AX c #FFF0BE",
"SX c #FBAFC0",
"DX c #FFB5C6",
"FX c #E1E1D9",
"GX c None",
/* pixels */
"GXGXGXGXGXGXGXGXGXGXGXGXGXGXGXGXGXGXGXGXGXGXGXGXGXGXGXGXGXGXGXGXX GXGXGXGXX GXGXGXGXGXGXGXGXGXGXGXGXGXGXGXGXGXGXGXGXGXGXGXGXGXGXGXGXGXGXGXGXGXGXGXGXGXGXGXGXGXGX",
"GXGXGXGXGXGXGXGXGXGXGXGXGXGXGXGXGXGXGXGXGXGXGXGXGXGXGXGXGX+ @ @ ; X O + @ > > @ X GXGXGXGXGXGXGXGXGXGXGXGXGXGXGXGXGXGXGXGXGXGXGXGXGXGXGXGXGXGXGXGXGXGXGXGXGXGXGX",
"GXGXGXGXGXGXGXGXGXGXGXGXGXGXGXGXGXGXGXGXGXGXGXGXGXGX+ > > < 2 ; @ @ @ @ @ @ @ @ @ X @ X GXGXGXGX  GXGXGXGXGXGXGXGXGXGXGXGXGXGXGXGXGXGXGXGXGXGXGXGXGXGXGXGXGXGXGX",
"GXGXGXGXGXGXGXGXGXGXGXGXGXGXGXGXGXGXGXGXGXGXGXGXGX@ < 2 2 2 2 < > > < 2 2 2 > O ; @ > > + ; > ; GXGX  GXGXGXGXGXGXGXGXGXGXGXGXGXGXGXGXGXGXGXGXGXGXGXGXGXGXGXGXGX",
"GXGXGXGXGXGXGXGXGXGXGXGXGXGXGXGXGXGXGXGXGX@ > > > 2 2 < > > < 2 2 2 2 2 2 2 ; > > > @ > < > > ; O GXGXGXGXGXGXGXGXGXGXGXGXGXGXGXGXGXGXGXGXGXGXGXGXGXGXGXGXGXGXGX",
"GXGXGXGXGXGXGXGXGXGXGXGXGXGXGXGXGXGXGXGXGX+ < 2 2 < > ; ; ; < 2 2 2 2 2 2 2 < 1 t , + O @ O X . GXGXGXGXGXGXGXGXGXGXGXGXGXGXGXGXGXGXGXGXGXGXGXGXGXGXGXGXGXGXGXGX",
"GXGXGXGXGXGXGXGXGXGXGXGXGXGXGXGXGXGXGXX X @ < 2 < ; ; < 2 2 2 2 2 2 < > ; 2 > t '.^._ 7 + X O X X . GXGXGXGXGXGXGXGXGXGXGXGXGXGXGXGXGXGXGXGXGXGXGXGXGXGXGXGXGXGX",
"GXGXGXGXGXGXGXGXGXGXGXGXGXGXGXGXGXGX+ ; < 2 2 > ; < 2 2 2 2 2 2 2 < g i + < , ,.rXkXgXXXQ.t O O X X   GXGXGXGXGXGXGXGXGXGXGXGXGXGXGXGXGXGXGXGXGXGXGXGXGXGXGXGXGX",
"GXGXGXGXGXGXGXGXGXGXGXGXGXGXGXGXGX. + < 2 2 2 @ > 2 2 2 2 2 2 2 ; # -.l + t U.0XkX6X,.<.;.l # X . GXGXGXGXGXGXGXGXGXGXGXGXGXGXGXGXGXGXGXGXGXGXGXGXGXGXGXGXGXGXGX",
"GXGXGXGXGXGXGXGXGXGXGXGXGX  X @ @ < < 2 2 2 2 @ > 2 2 2 2 2 2 > 7 <././.Q.^.gXrXH.t -./.W %   GXGXGXGXGXGXGXGXGXGXGXGXGXGXGXGXGXGXGXGXGXGXGXGXGXGXGXGXGXGXGXGXGX",
"GXGXGXGXGXGXGXGXGXGXGXGXGXGXO < 2 < ; ; > < > @ > > : : : ; : & <.0XqXrX0XrX^./ & i hXfX+Xj.GXGXGXGXGXGXGXGXGXGXGXGXGXGXGXGXGXGXGXGXGXGXGXGXGXGXGXGXGXGXGXGXGXGX",
"GXGXGXGXGXGXGXGXGXGXGXGXGXGXGX+ ; . GXGXGXX . , k ,.H.I.,.W W Y.).0XrXkXXX|.|.<.<.!.|.E.9X>.GXGXGXGXGXGXGXGXGXGXGXGXGXGXGXGXGXGXGXGXGXGXGXGXGXGXGXGXGXGXGXGXGXGX",
"GXGXGXGXGXGXGXGXGXGXGXGXGXGX  GXGXGXGX.XqX,.& /.cXNXvXkXXX).R.j.Y.U.jXxX|.U._.].[.7X~.` w GXGXGXGXGXGXGXGXGXGXGXGXGXGXGXGXGXGXGXGXGXGXGXGXGXGXGXGXGXGXGXGXGXGXGX",
"GXGXGXGXGXGXGXGXGXGXGXGXGX^.|.rXvX9X+XrXjXjXH.wX9X0XOX0XoX(.[.l.( ( kXjX7Xz.` R.0X.Xg.j.;.GXGXGXGXGXGXGXGXGXGXGXGXGXGXGXGXGXGXGXGXGXGXGXGXGXGXGXGXGXGXGXGXGXGXGX",
"GXGXGXGXGXGXGXGXGXGXGX|.zXVXCXZXZXCXNXNXVXZXZXCXNXfXXX'.!.(.].].z.( XX X].].z.` |.E.E.oXh.U GXGXGXGXGXGXGXGXGXGXGXGXGXGXGXGXGXGXGXGXGXGXGXGXGXGXGXGXGXGXGXGXGXGX",
"GXGXGXGXGXGXGXGXGXg. XnXmXZXZXZXCXVXCXCXAXZXZXAXAXAXZXNXyX'.!.].].:.Q ' l.!.(.l.g.h.R.!.) GXGXGXGXGXGXGXGXGXGXGXGXGXGXGXGXGXGXGXGXGXGXGXGXGXGXGXGXGXGXGXGXGXGXGX",
"GXGXGXGXGXGXGXGXU.U.sXsXsXmXVXCXCXVXNXCXZXZXZXZXZXZXCXCXVXNX|.h.l.' Q :.:.' ` :.:.:.:.( GXGXGXGXGXGXGXGXGXGXGXGXGXGXGXGXGXGXGXGXGXGXGXGXGXGXGXGXGXGXGXGXGXGXGXGX",
"GXGXGXGXGXGXGX/.6Xh. XuXuXxXzXcXMXzXcXVXVXVXVXVXVXVXNXMXMXNX9X!.Z.z.:.h.!.(.l.T GXGXGXGXGXGXGXGXGXGXGXGXGXGXGXGXGXGXGXGXGXGXGXGXGXGXGXGXGXGXGXGXGXGXGXGXGXGXGXGX",
"GXGXGXGXGXGXh.6X X9XhXcXcXcXcXcXcXjX0XfXlXmXBXMXMXMXMXMXcXlXOX0XkX<X1X X|.'.] Q GXGXGXGXGXGXGXGXGXGXGXGXGXGXGXGXGXGXGXGXGXGXGXGXGXGXGXGXGXGXGXGXGXGXGXGXGXGXGXGX",
"GXGXGXGXGXU.tXtXfXmXMXMXMXMXMXMXMXMXlX_.Y.XXjXjXzXcXzXrXqXOX.X0XlXeX4XdXaXtXXXT.'.E.GXGXGXGXGXGXGXGXGXGXGXGXGXGXGXGXGXGXGXGXGXGXGXGXGXGXGXGXGXGXGXGXGXGXGXGXGXGX",
"GXGXGXGX_ 6XnXxXMXmXcXcXmXMXmXcXmXcXuX6XT.+XfXoX_.`.0X0X0XOXOXzXmXcXsXDXdX2X<X1X[.8X~.GXGXGXGXGXGXGXGXGXGXGXGXGXGXGXGXGXGXGXGXGXGXGXGXGXGXGXGXGXGXGXGXGXGXGXGXGX",
"GXGXGXGX[.sXzXzXrXzXMXMXMXMXcXwX0X8X6X'.9XMXcXeX[.] E._.OXfXcXMXBXyX2XDXdX%Xs.%XpXdXaX<XpXGXGXGXGXGXGXGXGXGXGXGXGXGXGXGXGXGXGXGXGXGXGXGXGXGXGXGXGXGXGXGXGXGXGXGX",
"GXGXGXGX X0XcX^.7XcXBXMXMXMXMXmXcXwX`.^.kXxXeX8Xj.` 7XtXeXuXzXNXNX[.2XDXDX5Xn.%X%XdXDXdXpXdXpXGXGXGXGXGXGXGXGXGXGXGXGXGXGXGXGXGXGXGXGXGXGXGXGXGXGXGXGXGXGXGXGXGX",
"GXGXGXGX).lXjXY.[.rXcXmXMXMXMXMXMXMXzX~.(.7X[.h.] h.!.7XtXtXtXeX].A.iXdXSXdX4X2X2XSXDXpX*XDXSXdXGXGXGXGXGXGXGXGXGXGXGXGXGXGXGXGXGXGXGXGXGXGXGXGXGXGXGXGXGXGXGXGX",
"GXGXGXGXE.mXfXg.R._. XfXlXmXMXMXMXMXBXzXY.] :.z.6X_.Y.j.!.[.6XC.*.C.5X5X5X3X=X=X3X4X4X*X%X4XdXSXpXGXGXGXGXGXGXGXGXGXGXGXGXGXGXGXGXGXGXGXGXGXGXGXGXGXGXGXGXGXGXGX",
"GXGXGXGXU.NXjXh.R.tXeXcXcXcXzXmXMXMXMXNXrXg._.tXtXtX8X_.g.) v.A.q.v.x.%X*X*X3X3X3X3X&X=X3XS.%XiX3XGXGXGXGXGXGXGXGXGXGXGXGXGXGXGXGXGXGXGXGXGXGXGXGXGXGXGXGXGXGXGX",
"GXGXGXGXU.xXmXrX!._.8XeXmXMXmXcXzXmXMXMXNXwXY.!.!.z.V.V.A.%X=XF.b.n.*.%X5X5X5X5X5X3X%XA.A.*X*XA.3XF.GXGXGXGXGXGXGXGXGXGXGXGXGXGXGXGXGXGXGXGXGXGXGXGXGXGXGXGXGXGX",
"GXGXGXGXl.[.uXkXeX_._.7XuXcXMXMXmXcXcXmXcXcXOX(.V.%X=X3X5X5X5X5X&XA.%X4X5X5X5X5X5X2Xv.$.$.%X5XS.A.G.0XXX|.E.GXGXGXGXGXGXGXGXGXGXGXGXGXGXGXGXGXGXGXGXGXGXGXGXGXGX",
"GXGXGXGXGX[ _.8X7X8X6X[.7X8XuXzXmXMXMXMXNXNXcX}.:.C.%X5X5X5X5X5X3X&X*X5X3X*XF.S.S.S.A.$.q.C.5X3Xm.[.kXkXjXrX0X|.GXGXGXGXGXGXGXGXGXGXGXGXGXGXGXGXGXGXGXGXGXGXGXGX",
"GXGXGXGXGXGX^ _ R.[.7X6X[.7X8X8XeXjXcXNXhX}.I.I.>XJ.;.C.%X3X5X5X5X3XF.F.S.B.D.D.D.D.D.m.n.m.&X5X&X7XkXkXkXkXxXjX|.U.H.GXGXGXGXGXGXGXGXGXGXGXGXGXGXGXGXGXGXGXGXGX",
"GXGXGXGXGXGXGXGX( !.6X[._.[.7XtXtX8X8X/.P.,XL.;X>XL.:X,Xp.;.V.*X3X*XG.G.G.G.G.F.S.B.D.D.D.D.m.&X&X{.rXjXkXkXjX/.L L.;XK K P h = GXGXGXGXGXGXGXGXGXGXGXGXGXGXGXGX",
"GXGXGXGXGXGXGXGXGX^ h.[.[.!.!._.7XtX6Xj I ,XP.P.-XL.:X:XK d ,.^.rXlXcXcXxXxXmXxX0X_.z.M.D.D.D.n.Z.{.7X7XeXrX^.z K L.P.P ;X:XL / Y.~.`..XoXOXOX.XE.k.E.~.E.GXGXGX",
"GXGXGXGXGXGXGXGXGXGXGX) z.!._._.).z.l h H z P >XFXK.H d -.}.mXmXmXcXVXZXCXfX0X+X9XkX6X_.R.Z.m.f.g.z.z.R.(.Q.k ;XL.K P P K -.T.XX0XqX0XqXqXqXrXjXjXXXT.'.0X.XGXGX",
"GXGXGXGXGXGXGXGXGXGXGX&.n.V.z.z.R.!.l H >XP j K P h = H.xXMXMXMXVXCXcXrX9XrXjXrX|.~.[.tX8XR.h.[.{.].(.l.h./ = P.P h bXJ.s T.0XqX0XrXrXrX.Xj.] j.XXjXrXY.^.kX0XGX",
"GXGXGXGXGXGXGXGXGXGXGXGXA.3X3X*Xn.=.) / -.j K >XK = l 9XNXMXMXMXNXNXzXrX|.T.E.rXuX[.:.g.~.|.|.l.1X1X1X1X{./ * * * = j s d 9XjXjXjXjXrX~.` ( ( Q ] ~.qX.XE.8X XGX",
"GXGXGXGXGXGXGXGXGXGXGXGXX.v.C.C.v.0.%.x.w.@.G J s * / 8XzXzXmXMXjX~.'.wXzX9Xl.g.!.7XR.` ! ` g.!.[.[.[.(.R.l J.J.* = z s d 9XjXkXfX0Xj.Q ( ` T ! j.` T.+X>.l.Y.GX",
"GXGXGXGXGXGXGXGXGXGXGXGXx 5.e.S 6.o.D e.y.e.2.D +.n / !.8X!.'.zXjXR.) <.|.tXtXj.) :.~.|.( GXGXGXGXGXGXGXGXGXJ H * s P.J s [.7X0XjX0XY.Q GXGXGXT k.( U ( [ ( ^.GX",
"GXGXGXGXGXGXGXGXGXGXGXGXx F r.D 9.4.D y.u.r.4.4.9.C +.@.=.) ) /.kXrXQ.l ;.!.oX`.|./ O.GXGXGXGXGXGXGXGXGXGXGXGXGXGXGXGXGXGX) g.).fXlXjX|.'.T.Q GX` Q GXQ ~ Q GXGX",
"GXGXGXGXGXGXGXGXGXGXGXGX} | o.V C S D F o.9.V Z A S F n V N t k H.[.7X~.-.l / >.Q.O.x GXGXGXGXGXGXGXGXGXGXGXGXGXGXGXGXGXGXGXGXGXj..X X6X~.9X>.GXGXGXGXGXGXGXGXGX",
"GXGXGXGXGXGXGXGXGXGXGXGX%.5.9.r.9.r.r.3.p.7.G r.6.+.G z H J J H z / U.Q.-.J K h G D v GXGXGXGXGXGXGXGXGXGXGXGXGXGXGXGXGXGXGXGXGXGXGXGXGXGXGXGXGXGXGXGXGXGXGXGXGX",
"GXGXGXGXGXGXGXGXGXGXGX..0.2.9.8.p.p.P.:X:XP.h d g s H K z f s h j h J ;.P K H G 2.6.V GXGXGXGXGXGXGXGXGXGXGXGXGXGXGXGXGXGXGXGXGXGXGXGXGXGXGXGXGXGXGXGXGXGXGXGXGX",
"GXGXGXGXGXGXGXGXGXGX..%.t.1.L -X:X>XL.J P J.J.K.L.J.K.J.j = s f H K H H G N S 6.6.1.A V GXGXGXGXGXGXGXGXGXGXGXGXGXGXGXGXGXGXGXGXGXGXGXGXGXGXGXGXGXGXGXGXGXGXGXGX",
"GXGXGXGXGXGXGXGXGXGX..%.6.Z H P.;XK.s j L.>X,X;X:X:X;XP.K f h g g k N Z 2.D 2.6.Z S +.V V V GXGXGXGXGXGXGXGXGXGXGXGXGXGXGXGXGXGXGXGXGXGXGXGXGXGXGXGXGXGXGXGXGXGX",
"GXGXGXGXGXGXGXGXGXGXp -.L g H ;X>XL.K J.P d k O.%.O.k G t G G +.6.6.D 2.1.D 6.A V A V 2.0.q.n.s.$.GXGXGXGXGXGXGXGXGXGXGXGXGXGXGXGXGXGXGXGXGXGXGXGXGXGXGXGXGXGXGX",
"GXGXGXGXGXGXGXGXGXGXP K.H J.:X;XP h P -.;.v.M.B.B.b.%.r.D S 6.6.6.6.D 1.1.F 2.b D M 2.#.&.m.F.S.A.c.$.GXGXGXGXGXGXGXGXGXGXGXGXGXGXGXGXGXGXGXGXGXGXGXGXGXGXGXGXGX",
"GXGXGXGXGXGXGXGXh P K.z L.:XK.j t O.a.2XiX&XD.D.D.D.n.0.4.V 2.6.6.6.D 2.1.1.S V V +.5.$.c.c.b.m.S.F.n.&.GXGXGXGXGXGXGXGXGXGXGXGXGXGXGXGXGXGXGXGXGXGXGXGXGXGXGXGX",
"GXGXGXGXGXGXGX= h H f s P J h d O.N.3XdX3XD.D.D.D.D.N.&.9.n 1.6.6.2.D 4.D 2.v 2.M 1.#.$.c.c.c.c.b.m.S.m.s.GXGXGXGXGXGXGXGXGXGXGXGXGXGXGXGXGXGXGXGXGXGXGXGXGXGXGX",
"GXGXGXGXGXGXGXz P K h a s f k *.D.D.&XiXF.D.D.D.D.D.D.s.t.M 1.6.6.F S 2.C Z V 6.V 1.#.$.c.c.c.c.c.c.b.n.b.d.$.GXGXGXGXGXGXGXGXGXGXGXGXGXGXGXGXGXGXGXGXGXGXGXGXGX",
"GXGXGXGXGXGXGXh J h = t k p b.D.D.D.S.F.D.D.D.D.D.D.D.n.t.C C D S b C V b V #.%.o.4.6. .s.c.c.c.c.c.c.c.c.c.s...GXGXGXGXGXGXGXGXGXGXGXGXGXGXGXGXGXGXGXGXGXGXGXGX",
"GXGXGXGXGXGXGXGXa = t $.*.B b.N.N.M.M.D.D.D.D.D.S.D.D.c.t.F b M y v c v m %.s...#.6.6.#.$.x.c.c.c.c.c.c.c.b.b.s...GXGXGXGXGXGXGXGXGXGXGXGXGXGXGXGXGXGXGXGXGXGXGX",
"GXGXGXGXGXGXGXGXGXGXGXb.c.$. . .x.n.C.A.m.m.M.M.N.D.D.*.t.S y v V A D S m $.x...#.6.6.6. .&.c.c.c.b.c.c.s.*.*.%.} GXGXGXGXGXGXGXGXGXGXGXGXGXGXGXGXGXGXGXGXGXGXGX",
"GXGXGXGXGXGXGXGXGXGXGX*.c.%.| &.m.&X5X&XD.B.m.b.M.B.b.%.8.n GXGX2.6.6.6.1.A  ...#.6.6.6.6.#.&.s.*.&.&.&.*.c.m.$Xn.s.GXGXGXGXGXGXGXGXGXGXGXGXGXGXGXGXGXGXGXGXGXGX",
"GXGXGXGXGXGXGXGXGXGXGXB } C 9.e.q.b.m.M.B.B.N.b.} *.0.t.1.GXGXGXGX1.5.6.6.4.S B | 6.6.6.6.6.@.} } %.s.c.c.b.m.S.M.c...GXGXGXGXGXGXGXGXGXGXGXGXGXGXGXGXGXGXGXGXGX",
"GXGXGXGXGXGXGXGXGXGXb b n 6.t.t.t.0.q.*.q.q.q.q.A B t.6.M GXGXGXGXGXD D 2.6.2.D C V 4.6.6.1.n N X.s.c.c.c.c.c.b.b.c.&.GXGXGXGXGXGXGXGXGXGXGXGXGXGXGXGXGXGXGXGXGX",
"GXGXGXGXGXGXGXGXGXx F V 1.t.t.y.y.t.t.t.t.t.t.t.4.c S v , GXGXGXGXGXGXGXn M Z Z D M M 2.G v S 6.5.%.&.s.c.c.c.c.c.b.&.GXGXGXGXGXGXGXGXGXGXGXGXGXGXGXGXGXGXGXGXGX",
"GXGXGXGXGXGXGXGXd. .1.n 9.t.y.i.u.t.t.t.t.t.t.t.1.S S y GXGXGXGXGXGXGXGXGXGXb b c V V v y M 6.6.6.5.#.%.$.&.*.*.*.*. .GXGXGXGXGXGXGXGXGXGXGXGXGXGXGXGXGXGXGXGXGX",
"GXGXGXGXGXGXGXb.m.q.F M 1.u.#Xi.y.t.t.t.t.t.t.8.n Z c GXGXGXGXGXGXGXGXGXGXA 4.2.2.1.C Z b M 6.6.6.6.6.6.5.5.#.#.#.@.S GXGXGXGXGXGXGXGXGXGXGXGXGXGXGXGXGXGXGXGXGX",
"GXGXGXGXGXGX&.x.q.r.1.F V 8.#Xu.t.t.t.t.t.9.1.v v GXGXGXGXGXGXGXGXGXGXGXD 6.6.6.6.6.D M C v S 6.6.6.6.6.6.6.8.8.2.C GXGXGXGXGXGXGXGXGXGXGXGXGXGXGXGXGXGXGXGXGXGX",
"GXGXGXGXGXA e.e.9.8.9.1.6.Z +.6.9.r.9.1.1.Z V x GXGXGXGXGXGXGXGXGXGXGXS 4.6.6.6.6.D A 2.1.A C C 2.6.6.6.8.9.9.F v GXGXGXGXGXGXGXGXGXGXGXGXGXGXGXGXGXGXGXGXGXGXGX",
"GXGXGXGXGX4.t.9.F 9.y.y.y.y.6.Z Z Z D D F F A x GXGXGXGXGXGXGXGXGXGXGXS 6.6.6.6.S D 6.6.6.C S S C Z D 1.1.D V y GXGXGXGXGXGXGXGXGXGXGXGXGXGXGXGXGXGXGXGXGXGXGXGX",
"GXGXGXGXD 9.t.6.4.t.u.i.#Xi.u.t.9.4.F 4.8.9.8.n GXGXGXGXGXGXGXGXGXGXGXy D 6.6.D S 6.6.6.S M D F D S Z Z Z Z V GXGXGXGXGXGXGXGXGXGXGXGXGXGXGXGXGXGXGXGXGXGXGXGXGX",
"GXGXGXGX5.r.t.F 9.y.i.#Xi.y.t.t.r.r.S 9.t.t.4.y GXGXGXGXGXGXGXGXGXGXGXGXM 6.6.D D 6.6.1.M 2.6.6.2.9.y.y.6.S GXGXGXGXGXGXGXGXGXGXGXGXGXGXGXGXGXGXGXGXGXGXGXGXGXGX",
"GXGXGXGXS 6.t.F 9.y.@Xi.y.t.t.t.t.6.b 8.t.t.Z GXGXGXGXGXGXGXGXGXGXGXGXGXc 2.6.D 1.6.6.M +.6.6.6.6.t.u.y.2.V GXGXGXGXGXGXGXGXGXGXGXGXGXGXGXGXGXGXGXGXGXGXGXGXGXGX",
"GXGXGXGXV 4.t.F 9.y.u.y.t.t.t.t.9.M D t.t.2.y GXGXGXGXGXGXGXGXGXGXGXGXGXy 2.4.A 1.6.6.V 2.6.6.6.r.t.r.o.GXGXGXGXGXGXGXGXGXGXGXGXGXGXGXGXGXGXGXGXGXGXGXGXGXGXGXGX",
"GXGXGXGXx o.t.F 9.u.u.t.t.t.t.8.V Z 9.8.D c GXGXGXGXGXGXGXGXGXGXGXGXGXGXy 2.2.A 6.6.6.D 5.6.6.9.t.8.V GXGXGXGXGXGXGXGXGXGXGXGXGXGXGXGXGXGXGXGXGXGXGXGXGXGXGXGXGX",
"GXGXGXGXGXA r.2.r.u.u.t.t.t.r.S D 9.5.M GXGXGXGXGXGXGXGXGXGXGXGXGXGXGX7 r V V b 1.4.6.6.6.6.9.9.4.b GXGXGXGXGXGXGXGXGXGXGXGXGXGXGXGXGXGXGXGXGXGXGXGXGXGXGXGXGXGX",
"GXGXGXGXGXv r.8.r.u.i.y.t.t.8.4.9.4.v GXGXGXGXGXGXGXGXGXGXGXGXGXGXGXGXy Z n 8 8 r r C Z p i i r y , GXGXGXGXGXGXGXGXGXGXGXGXGXGXGXGXGXGXGXGXGXGXGXGXGXGXGXGXGXGX",
"GXGXGXGXGXc 4.N p | 3.3.2.4.6.N i u y GXGXGXGXGXGXGXGXGXGXGXGXGXGXGXGXW p v u i 8 r D v 8 8 w w 7 - GXGXGXGXGXGXGXGXGXGXGXGXGXGXGXGXGXGXGXGXGXGXGXGXGXGXGXGXGXGX",
"GXGXGXGXGXc S 7 9 9 8 8 8 u F r e r GXGXGXGXGXGXGXGXGXGXGXGXGXGXGXGX( ' w / p u p B D B N p r e R R Q Q GXGXGXGXGXGXGXGXGXGXGXGXGXGXGXGXGXGXGXGXGXGXGXGXGXGXGXGX",
"GXGXGXGXGXy D Z Z p u u r V 1.Z M y GXGXGXGXGXGXGXGXGXGXGXGXGXGXGXQ ] ( w ( U 0 0 0 6 9 q 0 U ( { [ ! ! ( ( ( GXGXGXGXGXGXGXGXGXGXGXGXGXGXGXGXGXGXGXGXGXGXGXGXGX",
"GXGXGXGX3 e i E B N Z Z p r 8 e 8 # GXGXGXGXGXGXGXGXGXGXGXGXGXGXGX! ! q 6 Y U U U U 6 6 U T ` k.Y.g.{ { ] ` ' ] ' ` ] ( GXGXGXGXGXGXGXGXGXGXGXGXGXGXGXGXGXGXGXGX",
"GXGXGXGXe h.Y.Y.' ^ j.j.g.( 6 0 6 GXGXGXGXGXGXGXGXGXGXGXGXGXGXGXT U U U 0 5 5 5 5 6 6 9 q ( g.j.[ ] j.Y.Y.Y.j.[ { ] ' ' ` W GXGXGXGXGXGXGXGXGXGXGXGXGXGXGXGXGXGX",
"GXGXGX( Y.).).).] ` `.`.`.W./ 3 $ GXGXGXGXGXGXGXGXGXGXGXGXGXGXGX3 6 6 9 0 0 9 9 9 9 9 9 9 R ^ ` ] j.k.k.k.E.'.'.'.E.j.g.` q 6 GXGXGXGXGXGXGXGXGXGXGXGXGXGXGXGXGX",
"GXGXGXh.).`.`.).] ).).W.E.E.' 5 o GXGXGXGXGXGXGXGXGXGXGXGXGXGXGXo % 4 3 3 3 3 3 3 % $ $ $ 3 3 6 9 9 9 q T Q ( _ _ ^ e 9 9 4 3 # GXGXGXGXGXGXGXGXGXGXGXGXGXGXGXGX",
"GX7 U.OXOX0X0XOXE.0XOXOXXX`.g.Q 9 GXGXGXGXGXGXGXGXGXGXGXGXGXGXGXGXGXGX% % % % $ $ $ GXGXGXGXGX6 5 5 5 % $ % % % % % 4 5 5 3 GXGXGXGXGXGXGXGXGXGXGXGXGXGXGXGXGXGX",
"3 W '.qXqX0X0X~.XXqXqXqXqXqXOXj.Y $ GXGXGXGXGXGXGXGXGXGXGXGXGXGXGXGXGXGXGXGXGXGXGXGXGXGXGXGXGXGXGXGXGXGXGXGXGXGXGXGXGXGXGXGXGXGXGXGXGXGXGXGXGXGXGXGXGXGXGXGXGXGX",
"e ( ` E.|..XrX|.mXkX0X0X|.T.] ( ! 5 GXGXGXGXGXGXGXGXGXGXGXGXGXGXGXGXGXGXGXGXGXGXGXGXGXGXGXGXGXGXGXGXGXGXGXGXGXGXGXGXGXGXGXGXGXGXGXGXGXGXGXGXGXGXGXGXGXGXGXGXGXGX",
"6 Q Q ( g.j.E.] ~.^.E.Y.[ ( Q W q 3 GXGXGXGXGXGXGXGXGXGXGXGXGXGXGXGXGXGXGXGXGXGXGXGXGXGXGXGXGXGXGXGXGXGXGXGXGXGXGXGXGXGXGXGXGXGXGXGXGXGXGXGXGXGXGXGXGXGXGXGXGXGX",
"$ 9 0 W ^ ( ~ q Q ~ ! ^ ^ W q w 3 o GXGXGXGXGXGXGXGXGXGXGXGXGXGXGXGXGXGXGXGXGXGXGXGXGXGXGXGXGXGXGXGXGXGXGXGXGXGXGXGXGXGXGXGXGXGXGXGXGXGXGXGXGXGXGXGXGXGXGXGXGXGX",
"GX$ 5 5 6 q R q Y R R 8 8 6 q q GXGXGXGXGXGXGXGXGXGXGXGXGXGXGXGXGXGXGXGXGXGXGXGXGXGXGXGXGXGXGXGXGXGXGXGXGXGXGXGXGXGXGXGXGXGXGXGXGXGXGXGXGXGXGXGXGXGXGXGXGXGXGXGX"
};
