/* XPM */
static char *result[] = {
/* columns rows colors chars-per-pixel */
"80 80 241 2 ",
"   c gray1",
".  c #0C0C0C",
"X  c #130F0D",
"o  c gray7",
"O  c #1B1B1B",
"+  c #2E1408",
"@  c #311A0E",
"#  c #35251C",
"$  c #393A19",
"%  c #351F2E",
"&  c gray14",
"*  c #292421",
"=  c gray17",
"-  c #372D2B",
";  c #3D2334",
":  c #343434",
">  c #373838",
",  c #393939",
"<  c #461C07",
"1  c #5D2403",
"2  c #552308",
"3  c #5C260B",
"4  c #4A2D15",
"5  c #5C2714",
"6  c #672806",
"7  c #642A0B",
"8  c #732D06",
"9  c #693013",
"0  c #773A19",
"q  c #452529",
"w  c #572826",
"e  c #4A273C",
"r  c #593532",
"t  c #70382E",
"y  c #622E35",
"u  c #474526",
"i  c #4C4C2B",
"p  c #4F4C2F",
"a  c #58462A",
"s  c #584837",
"d  c #545433",
"f  c #5B5A3A",
"g  c #735036",
"h  c #5F603E",
"j  c #71613D",
"k  c #4D2841",
"l  c #542C44",
"z  c #5B2E48",
"x  c #5E314A",
"c  c #642E48",
"v  c #63334C",
"b  c #6A3749",
"n  c #75354A",
"m  c #652F50",
"M  c #653251",
"N  c #6C3553",
"B  c #6E3853",
"V  c #723956",
"C  c #753854",
"Z  c #753A59",
"A  c #7B3C5C",
"S  c #7E3E60",
"D  c #6E514B",
"F  c #7A4457",
"G  c #745A57",
"H  c #676644",
"J  c #6D6C4C",
"K  c #776B4F",
"L  c #747453",
"P  c #7A7959",
"I  c #873404",
"U  c #913E0D",
"Y  c #853B12",
"T  c #883D14",
"R  c #8E4013",
"E  c #944313",
"W  c #9A4818",
"Q  c #A14E1D",
"!  c #8F5230",
"~  c #A55222",
"^  c #AB5929",
"/  c #B15D2D",
"(  c #A85C34",
")  c #8B673D",
"_  c #B3602F",
"`  c #AC6438",
"'  c #B56333",
"]  c #B86737",
"[  c #BC6A3A",
"{  c #C16E3D",
"}  c #C3703F",
"|  c #89374A",
" . c #943B4D",
".. c #853C59",
"X. c #9A3D52",
"o. c #A63D4F",
"O. c #833F61",
"+. c #8F4B4F",
"@. c #9A425A",
"#. c #A74256",
"$. c #B64657",
"%. c #BC495B",
"&. c #AD5551",
"*. c #92704E",
"=. c #B2704A",
"-. c #844263",
";. c #8B4565",
":. c #8C4569",
">. c #8F4869",
",. c #954768",
"<. c #944A6B",
"1. c #8F586A",
"2. c #964B70",
"3. c #9B4D73",
"4. c #AC4B69",
"5. c #B74D67",
"6. c #B95766",
"7. c #A24E75",
"8. c #A45075",
"9. c #A5527B",
"0. c #AC557B",
"q. c #B7577C",
"w. c #B4597C",
"e. c #94696C",
"r. c #A76461",
"t. c #C44C5C",
"y. c #C84D5D",
"u. c #CF595C",
"i. c #C36A48",
"p. c #C47343",
"a. c #C97948",
"s. c #CC7A52",
"d. c #D47251",
"f. c #D37B58",
"g. c #C64E61",
"h. c #CD5162",
"j. c #CA5867",
"k. c #D25363",
"l. c #DB5767",
"z. c #E25867",
"x. c #E45B69",
"c. c #EB5C6D",
"v. c #F35E6F",
"b. c #FA5F70",
"n. c #D76A68",
"m. c #D96676",
"M. c #D06B71",
"N. c #E86878",
"B. c #FE6373",
"V. c #F66979",
"C. c #EB7273",
"Z. c #878766",
"A. c #918D6E",
"S. c #939373",
"D. c #9A9B7A",
"F. c #AE8A62",
"G. c #B98A62",
"H. c #B89F75",
"J. c #CE8353",
"K. c #CB885A",
"L. c #D28452",
"P. c #D58658",
"I. c #DB8C5B",
"U. c #E08D5C",
"Y. c #DA8766",
"T. c #DB8B64",
"R. c #C59469",
"E. c #DC9363",
"W. c #DB956A",
"Q. c #E48A6B",
"!. c #E69867",
"~. c #E2936B",
"^. c #E49C6B",
"/. c #E88973",
"(. c #E79875",
"). c #EC9E7C",
"_. c #F39679",
"`. c #DCA371",
"'. c #EBA575",
"]. c #E8A678",
"[. c #ECAC7A",
"{. c #F1A97B",
"}. c #EAB07E",
"|. c #F4B07F",
" X c #BD5A80",
".X c #C25A82",
"XX c #DF7686",
"oX c #F66F80",
"OX c #E87383",
"+X c #FD7384",
"@X c #F97989",
"#X c #A49C81",
"$X c #A7A787",
"%X c #B0B094",
"&X c #B7B797",
"*X c #BCBCA7",
"=X c #EC928B",
"-X c #F59A86",
";X c #FD8393",
":X c #F88796",
">X c #FF8C9C",
",X c #DAAC82",
"<X c #EDA585",
"1X c #F4A788",
"2X c #F4AA8C",
"3X c #EEB885",
"4X c #F5B483",
"5X c #F6B788",
"6X c #F4BE8B",
"7X c #EEAB93",
"8X c #F7AC95",
"9X c #F5B696",
"0X c #F496A7",
"qX c #FE95A5",
"wX c #FDA8A4",
"eX c #F7BDA3",
"rX c #FEA8B9",
"tX c #F6C18E",
"yX c #ECC690",
"uX c #F6C593",
"iX c #F9C594",
"pX c #F5CB95",
"aX c #F8C699",
"sX c #F6CD9A",
"dX c #F6D49D",
"fX c #F9D39D",
"gX c #C6C8AA",
"hX c #F8C7A6",
"jX c #F8D6A4",
"kX c #F7DDA4",
"lX c #F8DDA5",
"zX c #FADDAB",
"xX c #F8E1A9",
"cX c #FCE5B2",
"vX c #FDE9B5",
"bX c #FFEEBB",
"nX c #FFF0BE",
"mX c #FFAFC0",
"MX c #FFB5C6",
"NX c #CECEC4",
"BX c None",
/* pixels */
"BXBXBXBXBXBXBXBXBXBXBXBXBXBXBXBXBXBXBXBXBXBXBXBXBXBXBXBX. . . BXBX  . BXBXBXBXBXBXBXBXBXBXBXBXBXBXBXBXBXBXBXBXBXBXBXBXBXBXBXBXBXBXBXBXBXBXBXBXBXBXBXBXBXBXBXBXBX",
"BXBXBXBXBXBXBXBXBXBXBXBXBXBXBXBXBXBXBXBXBXBXBX. O O O . = & O O O O O = o BXBXBXBXBXBXBXBXBXBXBXBXBXBXBXBXBXBXBXBXBXBXBXBXBXBXBXBXBXBXBXBXBXBXBXBXBXBXBXBXBXBXBX",
"BXBXBXBXBXBXBXBXBXBXBXBXBXBXBXBXBXBXBXBXo O   O , , , = O = : , , > o = > & O O O O O .     BXBXBXBXBXBXBXBXBXBXBXBXBXBXBXBXBXBXBXBXBXBXBXBXBXBXBXBXBXBXBXBXBXBX",
"BXBXBXBXBXBXBXBXBXBXBXBXBXBXBXBXBXBX  & : , = : , , , , , , , , , , : O O , > , , > = O   BXBXBXBXBXBXBXBXBXBXBXBXBXBXBXBXBXBXBXBXBXBXBXBXBXBXBXBXBXBXBXBXBXBXBX",
"BXBXBXBXBXBXBXBXBXBXBXBXBXBXBXBXBXBX  : , , , , , , , , , , , , , , , > & O O O O o   BXBXBXBX  BXBXBXBXBXBXBXBXBXBXBXBXBXBXBXBXBXBXBXBXBXBXBXBXBXBXBXBXBXBXBXBX",
"BXBXBXBXBXBXBXBXBXBXBXBXBXBXBXBXBX. O > , , , , , , , , , , , , > & , , > = &   . . .   BXBXBXBXBXBXBXBXBXBXBXBXBXBXBXBXBXBXBXBXBXBXBXBXBXBXBXBXBXBXBXBXBXBXBXBX",
"BXBXBXBXBXBXBXBXBXBXBXBXBXBXBXBXBX  O > , , , , : , , , , , , , O . , : r *.*.) @ X o . . .   BXBXBXBXBXBXBXBXBXBXBXBXBXBXBXBXBXBXBXBXBXBXBXBXBXBXBXBXBXBXBXBXBX",
"BXBXBXBXBXBXBXBXBXBXBXBXBXBXBXBXBX. O > , , , = & , , , , , , > * a - O ) iXaXtX=.@ . o o .   BXBXBXBXBXBXBXBXBXBXBXBXBXBXBXBXBXBXBXBXBXBXBXBXBXBXBXBXBXBXBXBXBX",
"BXBXBXBXBXBXBXBXBXBXBXBXBXBXBXBXBXBXo > , , , O = , , , , , , O *.].*.r @ F.].'.tX! X o o .   BXBXBXBXBXBXBXBXBXBXBXBXBXBXBXBXBXBXBXBXBXBXBXBXBXBXBXBXBXBXBXBXBX",
"BXBXBXBXBXBXBXBXBXBXBXBXBXBXBXBXBX& > , , , , O . > , , , = - r G.=.g 4 X @ ! J.`.G.o . o o . .   BXBXBXBXBXBXBXBXBXBXBXBXBXBXBXBXBXBXBXBXBXBXBXBXBXBXBXBXBXBXBX",
"BXBXBXBXBXBXBXBXBXBXBXBXBXBXBXBX  = , , , , : w r = > , & j `.K.E.1XY.( ( =.`.R.t ( .   . . . .   BXBXBXBXBXBXBXBXBXBXBXBXBXBXBXBXBXBXBXBXBXBXBXBXBXBXBXBXBXBXBX",
"BXBXBXBXBXBXBXBXBXBXBXBXBXBXBXBXBX# - : : & * *.Q.g > = # G.P.] Y.).4X4X{.tXfXR.< 0 BXBXBXBX  .   BXBXBXBXBXBXBXBXBXBXBXBXBXBXBXBXBXBXBXBXBXBXBXBXBXBXBXBXBXBXBX",
"BXBXBXBXBXBXBXBXBXBXBXBXBXBXBXBXfXdXG.f - w G.'.Q.[ R.s q r W ~.4X'.I.s.} K.`.a.BXBXBXBXBXBXBXBX  BXBXBXBXBXBXBXBXBXBXBXBXBXBXBXBXBXBXBXBXBXBXBXBXBXBXBXBXBXBXBX",
"BXBXBXBXBXBXBXBXBXBXBXBXBX5XpXdXkXxXlXjXR.W.5X)./.s.W Y.Q.Y.' a.[.^.J.J.} ^ BXBXBXBXBXBXBXBXBXBXBXBXBXBXBXBXBXBXBXBXBXBXBXBXBXBXBXBXBXBXBXBXBXBXBXBXBXBXBXBXBXBX",
"BXBXBXBXBXBXBXBXBXBXBX<XaXjXzXzXzXzXzXjXuX|.{././.i.W ` f./.Q.s.f.T.Y.Q.(./ BXBXBXBXBXBXBXBXBXBXBXBXBXBXBXBXBXBXBXBXBXBXBXBXBXBXBXBXBXBXBXBXBXBXBXBXBXBXBXBXBXBX",
"BXBXBXBXBXBXBXBXBX!.<X<X7X8XeXhXhXhX9X7XwX1X/.Q./.i./ s.( i.f.Q.Y.Y.f.[ ^ BXBXBXBXBXBXBXBXBXBXBXBXBXBXBXBXBXBXBXBXBXBXBXBXBXBXBXBXBXBXBXBXBXBXBXBXBXBXBXBXBXBXBX",
"BXBXBXBXBXBX^.6XfXzXcXcXzXpXkXcXvXvXcXzXzXaX<X/.C.f.~ f.Y.i.=.i.~ ^ E BXBXBXBXBXBXBXBXBXBXBXBXBXBXBXBXBXBXBXBXBXBXBXBXBXBXBXBXBXBXBXBXBXBXBXBXBXBXBXBXBXBXBXBXBX",
"BXBXBXBXBXp.9XcXnXnXnXnXcXvXbXbXnXbXnXnXnXnXvXfX[.T.n.C.Y.f.s.] E BXBXBXBXBXBXBXBXBXBXBXBXBXBXBXBXBXBXBXBXBXBXBXBXBXBXBXBXBXBXBXBXBXBXBXBXBXBXBXBXBXBXBXBXBXBXBX",
"BXBXBXBXI.=.7XhXzXcXvXvXcXvXcXzXbXbXvXvXvXvXcXxXxXpX).C.=X<X[.[.I.] p.}.].P.BXBXBXBXBXBXBXBXBXBXBXBXBXBXBXBXBXBXBXBXBXBXBXBXBXBXBXBXBXBXBXBXBXBXBXBXBXBXBXBXBXBX",
"BXBX_ (.9XW.s.).9XeXjXkXkXkXlXtXtXzXxXkXkXkXkXkXjXuX4X!./.:XwXwX9X6X'.'.5X4X^./.BXBXBXBXBXBXBXBXBXBXBXBXBXBXBXBXBXBXBXBXBXBXBXBXBXBXBXBXBXBXBXBXBXBXBXBXBXBXBXBX",
"BXBX' 9XeXeX<XE.E.[.5XhXjXkXkXjX[.[.sXkXkXlXjXsX6X|.{.{.4X1XqXrXrXwXwX8X0XwXwXrXmXrXBXBXBXBXBXBXBXBXBXBXBXBXBXBXBXBXBXBXBXBXBXBXBXBXBXBXBXBXBXBXBXBXBXBXBXBXBXBX",
"BXBXW (.eXeX9X6XdXkXkXkXkXkXkXkXjX[.!.].3X5X4X5X4X{.{.|.pXjX-XqXMXrXrXmXMXMXmXrXrXMXrXqXBXBXBXBXBXBXBXBXBXBXBXBXBXBXBXBXBXBXBXBXBXBXBXBXBXBXBXBXBXBXBXBXBXBXBXBX",
"BXBX^ (.2XeXpXkXkXkXkXkXkXkXkXkXxXdX'.6X3X~.P.^.'.^.'.pXkXxX5X:X0Xm.k.XXrXrXMXrXqXqXmXMXrXBXBXBXBXBXBXBXBXBXBXBXBXBXBXBXBXBXBXBXBXBXBXBXBXBXBXBXBXBXBXBXBXBXBXBX",
"BXBXs.9X9XhXlXkXkXkXkXkXdXsXdXdXjXaX2X4XsX1X(.p.T.).2X9XaXsX5X:X0X0XM.M.M.=XMXMXrX;X@X0XqXqXV.BXBXBXBXBXBXBXBXBXBXBXBXBXBXBXBXBXBXBXBXBXBXBXBXBXBXBXBXBXBXBXBXBX",
"BXBXs.9XeXjXkXkXjXjXkXkXkXpX6X6X5X).).!.2X8X(.s.2X8X8X8X8X9X=Xm.qXqX>Xm.m.:XqX:X@XOXm.N.N.@XV.!.BXBXBXBXBXBXBXBXBXBXBXBXBXBXBXBXBXBXBXBXBXBXBXBXBXBXBXBXBXBXBXBX",
"BXBX( 9XeXjXkXkX3XuXjXkXkXkXkXkXdXpX}.W.<X8XT._ T.).2X8X8X8X/.m.>X>X>X;X@XV.V.@X+X;X>X+X;XOXN._.4X5X|.BXBXBXBXBXBXBXBXBXBXBXBXBXBXBXBXBXBXBXBXBXBXBXBXBXBXBXBXBX",
"BXBXT W.eXsXkXjXE.).9XjXlXlXkXkXkXxXkXjX3XE.] (.(.s.a.T.].Q.u.6.XXN.V.V.oX@X;X>X;X@XN.@X>X>X@XV.6XuXuX6XBXBXBXBXBXBXBXBXBXBXBXBXBXBXBXBXBXBXBXBXBXBXBXBXBXBXBXBX",
"BXBXBX( 2XhXpXlX].s.2X{.3X3XdXjXkXkXkXkXxX3XJ.<X8X].Y.i.u.l.N.h.%.l.%.OX>X>X>X>XOX5.%.j.N.;X;XV.6XuXuXuXuX4XBXBXBXBXBXBXBXBXBXBXBXBXBXBXBXBXBXBXBXBXBXBXBXBXBXBX",
"BXBXBXBXp.<X5XxXdXK.s.).3XyXsXsXdXdXdXjXjXlXpXI.n.n.m.N.;X@XV.oXOXM.m.;X>X>X>X>X;XOXm.y.t.m.@X_.uXuXiX6XG.*.*.J i BXBXBXBXBXBXBXBXBXBXBXBXBXBXBXBXBXBXBXBXBXBXBX",
"BXBXBXBXBX} ].kXxXuXP.P.1XaXjXkXkXjXdXdXdXkXlX6XQ.V.>X>X>X>X>X+X+X+X;X>X>X@X+XV.B.B.v.x.l.l.N.1XiXiX[.*.h J $X%XL D.S.4 9 ^ L.E.^.'.].E.a.] p.s.BXBXBXBXBXBXBXBX",
"BXBXBXBXBXBXs.9XaXsX9X~.T.).2X9XaXjXjXkXxXkXkXlXjX^.n.C.;X>X>X>X>X;X+XV.N.v.v.B.B.B.B.B.B.l.i.T.).].! Z.%XL L L L Z.*.=.K.^.'.4X6X6XuXiXuX4X].E.E.^.!.BXBXBXBXBX",
"BXBXBXBXBXBXBXP.1X9X1X1X1X).(.).1X2X2XuXfXkXxXpXH.H.R.*.+.6.OX;X>X>XV.x.v.b.B.B.B.B.B.B.x.n.(.P.P.` 4 L D.J $X$XH ) W.4X5X5X4X4X5X4X{.^.[.5XiXuX'.'.[.'.BXBXBXBX",
"BXBXBXBXBXBXBXBX] T.~.P.T.).2X2X<X{.{.1X2X9X,XZ.Z.$XgXD.S.$XK +.6.m.x.C./.-X-X-X8X-X/.u.u._.-X-X-XR $ $ $ $ P Z.*.4XuXtX6X5X4X4X'.J.[ Q Q [ a.E.2X1XP.<XL.BXBXBX",
"BXBXBXBXBXBXBXBXBX^ T.<X).~.~.(.].2X2X8X8XY.K %X$XS.A.S.$XgXZ.d g G.6XsXdXxXxXzXjXkXuX'.P.(.-X_._.! H i $ $ $ $ *.iXuXuXtX5X|.s._ a.a.] E ^ W Q ( T.].W.~.J.BXBX",
"BXBXBXBXBXBXBXBXBXBX' f.T.).<X(.~.~.~.W.K.g L gXS.S.*XD.L d ) R.yXlXkXkXzXcXvXcX6X^.^.uX6XY.p.s.( 0 f u $ d L $ *.2X5XtX5X[.K._ [ [ / E U ' p.{ W E ` ] ] J.BXBX",
"BXBXBXBXBXBXBXBXBXBXBXt.u.i.d.f.Y.Y.T.~.*.i f f d P NXL 4 ) yXxXxXkXxXxXzXuX[.6XiX6XE.I.1X2XT.BXBXBXBXBXBXBX$ $ g f.|.iXiXtX[./ Q BXBXBXBXBXBX' [ ~ W ~ U BXBXBX",
"BXBXBXBXBXBXBXBXBXBXBXBX@.w.j.j.&.$.&.&.g p A.J f L H u g {.dXkXkXkXkXxXbXzX}.!.^.aX2XP.L.).^.} BXBXBXBXBXBXBXBXBXBXE.[.5XuXiX^.Q BXBXBXBXBXBXBXW E BXBXBXBXBXBX",
"BXBXBXBXBXBXBXBXBXBXBXBXZ 7.B 0.Z 8.q.0.0.Z 8.B D *.H $ g {.9XaXpXjXpX].`.6XaX2Xf.T.2X2X' J.].] BXBXBXBXBXBXBXBXBXBXBXBXp.E.].<XI.K.E BXBXBXBXBXBXBXBXBXBXBXBXBX",
"BXBXBXBXBXBXBXBXBXBXBXBXx -.M 3.>.;.0.q.w.>.3.2.A -.F b t / ~.1XI.].pX}.p.[ (.8X1Xp.p.~.J.~ BXBXBXBXBXBXBXBXBXBXBXBXBXBXBXBXBXp.P.`.E BXBXBXBXBXBXBXBXBXBXBXBXBX",
"BXBXBXBXBXBXBXBXBXBXBXBX..S N Z Z -.<.;.8.O.Z Z M ;.V S -.+.&.r.+.! P.5X1Xa.` ~.<Xp.~ I.W.BXBXBXBXBXBXBXBXBXBXBXBXBXBXBXBXBXBXBXBXBXBXBXBXBXBXBXBXBXBXBXBXBXBXBX",
"BXBXBXBXBXBXBXBXBXBXBX$.4.:.3.2.3.0.0.,..X2.-.3.3.8.S ;.<.<.<.,.F p j =.E.T.*.] K.! n BXBXBXBXBXBXBXBXBXBXBXBXBXBXBXBXBXBXBXBXBXBXBXBXBXBXBXBXBXBXBXBXBXBXBXBXBX",
"BXBXBXBXBXBXBXBXBXBXo.5.9.;.8.9.9.7.,.>.w.7.;.9.9.9.>.A ,.<.>.F s f J H a J J g b n #.#.BXBXBXBXBXBXBXBXBXBXBXBXBXBXBXBXBXBXBXBXBXBXBXBXBXBXBXBXBXBXBXBXBXBXBXBX",
"BXBXBXBXBXBXBXBXBXBXo.5.8.O.2.2.>.;.<.2.<.;.O.-.-.2.3.Z F F D J P *.J d d J d z N B #.N.m.h.BXBXBXBXBXBXBXBXBXBXBXBXBXBXBXBXBXBXBXBXBXBXBXBXBXBXBXBXBXBXBXBXBXBX",
"BXBXBXBXBXBXBXBXBXBX&.r.e.P G F >.<.1.1.1.e.1.1.F b v s s i h J h u $ i f s b m v  .k.N.V.+Xc.y.BXBXBXBXBXBXBXBXBXBXBXBXBXBXBXBXBXBXBXBXBXBXBXBXBXBXBXBXBXBXBXBX",
"BXBXBXBXBXBXBXBXi Z.S.S.A.S.Z.f s H $X&X&X&X%X%XD.u d H L J D.A.i i p i p D -.v v o.h.h.l.V.V.B.k.h.BXBXBXBXBXBXBXBXBXBXBXBXBXBXBXBXBXBXBXBXBXBXBXBXBXBXBXBXBXBX",
"BXBXBXBXBXBXBXBXi J J i i Z.D.D.D.S.$X$XA.L J Z.S.Z.S.$XgXgX&XA.p s s F A S -.v v  .t.h.h.k.l.N.c.k.h.BXBXBXBXBXBXBXBXBXBXBXBXBXBXBXBXBXBXBXBXBXBXBXBXBXBXBXBXBX",
"BXBXBXBXBXBXBXd H H H d u H J P Z.S.D.$X$XL f L %XgXgX&X#XA.G D F ;.A ;.-.S -.v A ;.#.g.h.h.h.k.l.k.h.h.t.BXBXBXBXBXBXBXBXBXBXBXBXBXBXBXBXBXBXBXBXBXBXBXBXBXBXBX",
"BXBXBXBXBXBXBXi d i u u i d a a g a s f H *.Z.K j &.r.e.2.<.z >.<.-.B O.N Z b  .#.,.@.$.h.h.h.h.h.h.h.h.h.t.BXBXBXBXBXBXBXBXBXBXBXBXBXBXBXBXBXBXBXBXBXBXBXBXBXBX",
"BXBXBXBXBXBXBXBXBXBX$ r r g k.x.v.z.x.x.N.C.c.x.x.b.x.5.9.3.l A A m N N e n #.y.o.,.<.@.#.y.h.h.h.h.h.h.h.h.$.BXBXBXBXBXBXBXBXBXBXBXBXBXBXBXBXBXBXBXBXBXBXBXBXBX",
"BXBXBXBXBXBXBXBXBXBXBX.. . .B.B.B.B.c.l.B.B.B.B.B.B.c.k.4.8.l c z e e z c  .h.h.$.X.<.<.,.#.%.h.h.h.h.y.%.%.%.| BXBXBXBXBXBXBXBXBXBXBXBXBXBXBXBXBXBXBXBXBXBXBXBX",
"BXBXBXBXBXBXBXBXBXBXBX#.h.| t.B.B.c.h.y.x.v.v.c.c.l.c.z.4.8.e k M B ..#.h.#.#.y.%.X.<.<.<.<.,.#.#.#.#.$.y.N.+Xx.$.BXBXBXBXBXBXBXBXBXBXBXBXBXBXBXBXBXBXBXBXBXBXBX",
"BXBXBXBXBXBXBXBXBXBXBXBXt.y. .@.%.y.k.c.@X@XB.v.c.l.k.k.#.<.e l -.<.<.#.$.y.#. .o.X.<.<.<.<.,.-.Z A X.%.h.l.N.x.h.$.BXBXBXBXBXBXBXBXBXBXBXBXBXBXBXBXBXBXBXBXBXBX",
"BXBXBXBXBXBXBXBXBXBXBXBX#.k.%.c B k.B.B.;X@XB.B.B.B.g...,.M BXBXz A ;.,.,.@.X.X.n C :.<.<.>.B l A ,.<.@.$.t.y.y.y.y. .BXBXBXBXBXBXBXBXBXBXBXBXBXBXBXBXBXBXBXBXBX",
"BXBXBXBXBXBXBXBXBXBXBXBXn %.b -.3.h.v.B.B.B.B.B.B.B.z.N S e BXBXBXBXm V A :.-.Z ;.N v V Z x l -.<.<.<.<.,.,.#.o.#.#.A BXBXBXBXBXBXBXBXBXBXBXBXBXBXBXBXBXBXBXBXBX",
"BXBXBXBXBXBXBXBXBXBXBX..c y A 9.9.5.h.x.v.B.B.B.B.x.5.l l BXBXBXBXBXBXBXBXm v z z A -.B l k A <.<.<.<.<.<.<.<.<.<.<.Z BXBXBXBXBXBXBXBXBXBXBXBXBXBXBXBXBXBXBXBXBX",
"BXBXBXBXBXBXBXBXBXk.v.v.#.k 3.9.9.9.5.5.g.h.h.h.h.5.3.e ; BXBXBXBXBXBXBXBXBXl Z -.Z v Z V l ;.<.<.<.<.<.<.<.<.<.<.;.m BXBXBXBXBXBXBXBXBXBXBXBXBXBXBXBXBXBXBXBXBX",
"BXBXBXBXBXBXBXBXk.B.B.z.5.x 2.9.9.w. X0.8.8.8.8.8.9.A e BXBXBXBXBXBXBXBXe V :.,.<.,.v z Z N M -.<.<.<.<.<.<.3.3.,.M BXBXBXBXBXBXBXBXBXBXBXBXBXBXBXBXBXBXBXBXBXBX",
"BXBXBXBXBXBXBXl.B.v.k.4.3.S Z 9.w..Xw.9.9.9.9.9.9.-.l BXBXBXBXBXBXBXBXBXZ ,.<.<.,.M N ;.;.A A B A ,.<.<.3.3.8.:.v BXBXBXBXBXBXBXBXBXBXBXBXBXBXBXBXBXBXBXBXBXBXBX",
"BXBXBXBXBXBXk.v.x.g.4.9.-.-.v -.q.q.0.9.9.8.3.:.B e BXBXBXBXBXBXBXBXBXM :.<.<.<.A x ,.<.<.;.N Z Z A -.;.<.<.A l BXBXBXBXBXBXBXBXBXBXBXBXBXBXBXBXBXBXBXBXBXBXBXBX",
"BXBXBXBXBX$.k.g.5.8.3.<.<.;.:.V N A -.-.A N N v v BXBXBXBXBXBXBXBXBXBXM ,.<.<.<.N -.<.<.:.V Z ;.A >.<.-...N k BXBXBXBXBXBXBXBXBXBXBXBXBXBXBXBXBXBXBXBXBXBXBXBXBX",
"BXBXBXBXBX,.4.8.8.>.<.9.0.w.7.>.<.>.;.F Z A -.-.l BXBXBXBXBXBXBXBXBXBXe :.<.<.<.Z ;.<.<.A v <.<.<.-.9.<.v e BXBXBXBXBXBXBXBXBXBXBXBXBXBXBXBXBXBXBXBXBXBXBXBXBXBX",
"BXBXBXBX; >.9.9.2.-.9.w.q..X.X;.8.w.<.>.2.<.3.A BXBXBXBXBXBXBXBXBXBXBXBX-.<.<.<...-.<.<.-.V ,.3.9.8.3.S x BXBXBXBXBXBXBXBXBXBXBXBXBXBXBXBXBXBXBXBXBXBXBXBXBXBXBX",
"BXBXBXBX; <.9.9.;.-.9.w..X Xw.<.7.8.8.9.;.<.>.z BXBXBXBXBXBXBXBXBXBXBXBXx :.<.<.:.Z ,.<.,.Z ;.9.0.0.<.V BXBXBXBXBXBXBXBXBXBXBXBXBXBXBXBXBXBXBXBXBXBXBXBXBXBXBXBX",
"BXBXBXBX; >.9.3.S 3.0.q. Xw.9.9.9.9.8.:.v V z BXBXBXBXBXBXBXBXBXBXBXBXBXe -.<.<.,.M ,.<.<.-.<.9.0.,.v BXBXBXBXBXBXBXBXBXBXBXBXBXBXBXBXBXBXBXBXBXBXBXBXBXBXBXBXBX",
"BXBXBXBX; <.9.>.-.9.w. Xq.0.9.9.8.<.B l e BXBXBXBXBXBXBXBXBXBXBXBXBXBXBXq y B >.;.l ;.>.:.,.2.>.Z l BXBXBXBXBXBXBXBXBXBXBXBXBXBXBXBXBXBXBXBXBXBXBXBXBXBXBXBXBXBX",
"BXBXBXBX; :.9.O.3.0.w.q.0.9.9.9.<.v k e BXBXBXBXBXBXBXBXBXBXBXBXBXBXBXBX5 7 e V w w w w w B M w 7 q BXBXBXBXBXBXBXBXBXBXBXBXBXBXBXBXBXBXBXBXBXBXBXBXBXBXBXBXBXBX",
"BXBXBXBX; b ,.:.3.w.q.w.0.9.9.3.A l BXBXBXBXBXBXBXBXBXBXBXBXBXBXBXBXBXl y y B Z w 5 5 5 5 B M t 5 q BXBXBXBXBXBXBXBXBXBXBXBXBXBXBXBXBXBXBXBXBXBXBXBXBXBXBXBXBXBX",
"BXBXBXBX; 3 t -.C ;.>.>.-.;.<.A k BXBXBXBXBXBXBXBXBXBXBXBXBXBXBXBXBX/ ~ 0 y y v v v v v v v y t ( ~ BXBXBXBXBXBXBXBXBXBXBXBXBXBXBXBXBXBXBXBXBXBXBXBXBXBXBXBXBXBX",
"BXBXBXBXl y C v 3 5 5 5 5 3 v M % BXBXBXBXBXBXBXBXBXBXBXBXBXBXBXBXBX} } W 1 7 8 9 9 8 9 4 5 6 W L.a.] ~ BXBXBXBXBXBXBXBXBXBXBXBXBXBXBXBXBXBXBXBXBXBXBXBXBXBXBXBX",
"BXBXBXBXq N >.-.y y y y y y O.A ; BXBXBXBXBXBXBXBXBXBXBXBXBXBXBXBX~ p.[ W 3 3 8 I I 8 6 < 6 6 E a.a.[ p.} s.] BXBXBXBXBXBXBXBXBXBXBXBXBXBXBXBXBXBXBXBXBXBXBXBXBX",
"BXBXBX< 8 3 t n n b b b c v b y BXBXBXBXBXBXBXBXBXBXBXBXBXBXBXBX3 ~ ' W I I 6 2 3 3 2 2 7 6 6 I Q ^ { L.P.P.L.} } ' BXBXBXBXBXBXBXBXBXBXBXBXBXBXBXBXBXBXBXBXBXBX",
"BXBXBX6 8 ! [ p.p.~ ( =.( 0 7 2 BXBXBXBXBXBXBXBXBXBXBXBXBXBXBXBX< 9 9 6 8 8 8 8 8 8 7 2 2 3 7 7 8 7 W ] L.U.!.!.P.L.a.a.p.Q BXBXBXBXBXBXBXBXBXBXBXBXBXBXBXBXBXBX",
"BXBXBX9 =.!.!.!.U.' P.!.!.p.8 < BXBXBXBXBXBXBXBXBXBXBXBXBXBXBXBXBX@ < < < < < < < < + 3 3 @ < 2 2 @ 6 I W _ a.P.P.a.{ ' / E 7 BXBXBXBXBXBXBXBXBXBXBXBXBXBXBXBXBX",
"BXBXBX` !.U.I.I.a.' I.P.U.I.0 BXBXBXBXBXBXBXBXBXBXBXBXBXBXBXBXBXBXBXBXBX+ + + + + + BXBXBXBXBXBX< < 2 < 2 1 7 7 7 7 7 1 2 2 2 + BXBXBXBXBXBXBXBXBXBXBXBXBXBXBXBX",
"BXBXT a.I.^.'.[.!.I.'.!.!.I.` 4 BXBXBXBXBXBXBXBXBXBXBXBXBXBXBXBXBXBXBXBXBXBXBXBXBXBXBXBXBXBXBXBXBXBXBX< 2 1 1 1 1 1 6 6 1 < BXBXBXBXBXBXBXBXBXBXBXBXBXBXBXBXBXBX",
"BX3 ] '.4X5X5X5X|.!.|.5X4X4X'.` < BXBXBXBXBXBXBXBXBXBXBXBXBXBXBXBXBXBXBXBXBXBXBXBXBXBXBXBXBXBXBXBXBXBXBXBXBXBXBXBXBXBXBXBXBXBXBXBXBXBXBXBXBXBXBXBXBXBXBXBXBXBXBX",
"BXT ] I.^.[.3XuX}.p.E.'.^.a.' ^ R BXBXBXBXBXBXBXBXBXBXBXBXBXBXBXBXBXBXBXBXBXBXBXBXBXBXBXBXBXBXBXBXBXBXBXBXBXBXBXBXBXBXBXBXBXBXBXBXBXBXBXBXBXBXBXBXBXBXBXBXBXBXBX",
"7 Q ~ ~ ' p.a.a.} E _ a.p.} ~ W 5 < BXBXBXBXBXBXBXBXBXBXBXBXBXBXBXBXBXBXBXBXBXBXBXBXBXBXBXBXBXBXBXBXBXBXBXBXBXBXBXBXBXBXBXBXBXBXBXBXBXBXBXBXBXBXBXBXBXBXBXBXBXBX",
"@ 8 Y Y W ~ ~ ~ Q U W ~ ~ Q E 7 @ BXBXBXBXBXBXBXBXBXBXBXBXBXBXBXBXBXBXBXBXBXBXBXBXBXBXBXBXBXBXBXBXBXBXBXBXBXBXBXBXBXBXBXBXBXBXBXBXBXBXBXBXBXBXBXBXBXBXBXBXBXBXBX",
"+ < < 3 Y Y Y Y Y T Y Y Y 0 9 < BXBXBXBXBXBXBXBXBXBXBXBXBXBXBXBXBXBXBXBXBXBXBXBXBXBXBXBXBXBXBXBXBXBXBXBXBXBXBXBXBXBXBXBXBXBXBXBXBXBXBXBXBXBXBXBXBXBXBXBXBXBXBXBX"
};
