/* XPM */
static char *result[] = {
/* columns rows colors chars-per-pixel */
"80 80 185 2 ",
"   c #969066",
".  c #979268",
"X  c #9E9A6F",
"o  c #999176",
"O  c #9F9871",
"+  c #A29C73",
"@  c #A59E7A",
"#  c #A6A77A",
"$  c #ABA97F",
"%  c #887983",
"&  c #857596",
"*  c #867599",
"=  c #887799",
"-  c #8B7B9D",
";  c #8D7DA2",
":  c #9A9187",
">  c #9D948C",
",  c #9B8E9A",
"<  c #9A9193",
"1  c #ABA480",
"2  c #ACAB80",
"3  c #ABA789",
"4  c #B0AF89",
"5  c #AFB085",
"6  c #ACB58B",
"7  c #B3B289",
"8  c #B0B98F",
"9  c #A9A19F",
"0  c #B3B192",
"q  c #B5BB92",
"w  c #B6BB96",
"e  c #BEBF99",
"r  c #8F80A3",
"t  c #9183A4",
"y  c #978CA6",
"u  c #9485AB",
"i  c #9789AA",
"p  c #9A8CAC",
"a  c #9D90AF",
"s  c #9789B0",
"d  c #9B8DB2",
"f  c #9E91B5",
"g  c #9F93B8",
"h  c #A39DA2",
"j  c #A49AAD",
"k  c #A195B5",
"l  c #A599B6",
"z  c #A99FB5",
"x  c #A296B9",
"c  c #A59ABB",
"v  c #A99DBC",
"b  c #AAA4A6",
"n  c #AFAAAE",
"m  c #B3ABAA",
"M  c #B6B4A4",
"N  c #B9BDA4",
"B  c #B5B2AE",
"V  c #ADA5B3",
"C  c #ABA1BE",
"Z  c #B1ABB7",
"A  c #B0A7B8",
"S  c #B3ABBC",
"D  c #B6B1B6",
"F  c #BEBFB4",
"G  c #B7B3B9",
"H  c #BBB4BE",
"J  c #C0BEB9",
"K  c #BEC197",
"L  c #BCC39B",
"P  c #BEC4A6",
"I  c #C0C89D",
"U  c #C2C5A4",
"Y  c #C2CAA3",
"T  c #C8CCA3",
"R  c #C2C7AA",
"E  c #C6CCAB",
"W  c #CACDAB",
"Q  c #CCD3AC",
"!  c #C3C5B5",
"~  c #CACDB3",
"^  c #C3C2BC",
"/  c #CDCDBD",
"(  c #CDD2B6",
")  c #CED1BC",
"_  c #D1D7B3",
"`  c #D3DAB4",
"'  c #D1D5BC",
"]  c #D5DBBB",
"[  c #D8DEBC",
"{  c #D8E0B5",
"}  c #DCE3BD",
"|  c #AB9EC0",
" . c #ADA4C2",
".. c #B1A6C4",
"X. c #B4ABC6",
"o. c #B3A6C8",
"O. c #B6ACC9",
"+. c #B9AECB",
"@. c #BBB4C4",
"#. c #BBB3CC",
"$. c #BEB8C8",
"%. c #BFB5D1",
"&. c #C2BCC3",
"*. c #C0B7CF",
"=. c #C2BBCC",
"-. c #C0B7D1",
";. c #C5BCD5",
":. c #C8BFD9",
">. c #C5C2C4",
",. c #C8C5C7",
"<. c #CDCCC6",
"1. c #C9C4CC",
"2. c #CDCBCC",
"3. c #D1CECF",
"4. c #D3D6C1",
"5. c #DADEC4",
"6. c #D4D3CC",
"7. c #D8D7CF",
"8. c #DBDDCC",
"9. c #C5C0D4",
"0. c #CAC2D4",
"q. c #CEC9D5",
"w. c #CCC3DC",
"e. c #CDC8DA",
"r. c #D1CDD2",
"t. c #D2CDDA",
"y. c #D6D3D3",
"u. c #D9D7D3",
"i. c #DCDCD5",
"p. c #D6D1DD",
"a. c #DAD6DD",
"s. c #DDDBDB",
"d. c #DDE3C3",
"f. c #DDE1CA",
"g. c #DFE1D0",
"h. c #E0E7C5",
"j. c #E4EBC7",
"k. c #E2E6CC",
"l. c #E4E9CB",
"z. c #E9EFCF",
"x. c #E1E3D4",
"c. c #E5E9D3",
"v. c #E9EED4",
"b. c #E4E4DB",
"n. c #E6E9DA",
"m. c #EAEDDC",
"M. c #ECF2D5",
"N. c #EEF2DC",
"B. c #F1F5DE",
"V. c #CFC6E0",
"C. c #D0C7E1",
"Z. c #D5CDE6",
"A. c #D6CEE8",
"S. c #D7D1E3",
"D. c #D9D3E4",
"F. c #DEDAE3",
"G. c #DAD2E8",
"H. c #E1DDE6",
"J. c #E1DDEA",
"K. c #E5E3E5",
"L. c #E8E7E7",
"P. c #EBECE2",
"I. c #E9E7EA",
"U. c #EDECED",
"Y. c #EEF1E2",
"T. c #F2F5E3",
"R. c #F2F5E5",
"E. c #F5F8E5",
"W. c #F4F5EC",
"Q. c #F6F9EA",
"!. c #F7F9ED",
"~. c #F8FAEE",
"^. c #F8FBEF",
"/. c #EEEBF2",
"(. c #F5F5F2",
"). c #F7F8F1",
"_. c #FAFCF2",
"`. c #F9FAF5",
"'. c #FBFDF4",
"]. c #F5F3F8",
"[. c #FDFEF9",
"{. c #FDFEFA",
"}. c #FDFCFD",
"|. c #FEFEFD",
" X c None",
/* pixels */
" X X X X X X X X X X X X X X X X X X X X X X X X X X X X X X X X X X X X X X X X X X X X X X X X X X X X X X X X X X X X X X X X X X X X X X X X X X X X X X X X",
" X X X X X X X X X X X X X X X X X X X X X X X X X X X X X X X X X X X X X X X X X X X X X X X X X X X X X X X X X X X X X X X X X X X X X X X X X X X X X X X X",
" X X X X X X X X X X X X X X X X X X X X X X X X X X X X X X X X X X X X X X X X X X X X X X X X X X X X X X X X X X X X X X X X X X X X X X X X X X X X X X X X",
" X X X X X X X X X X X X X X X X X X X X X X X X X X X X X X X X X X X X X X X X X Xy w Y.[.} Q L  X X X X X X X X X X X X X X X X X X X X X X X X X X X X X X X",
" X X X X X X X X X X X X X X X X X X X X X X X X X X X X X X X X X X X X X X X X Xd X.F.[.|.`.).`.R.Q  X X X X X X X X X X X X X X X X X X X X X X X X X X X X X",
" X X X X X X X X X X X X X X X X X X X X X X X X X X X X X X X X X X X X X X X X Xo.Z.I.|.|.|.|.|.|.'.k.R  X X X X X X X X X X X X X X X X X X X X X X X X X X X",
" X X X X X X X X X X X X X X X X X X X X X X X X X X X X X X X5.f.c.c.T.T.[.|.Q.6.%.D.n.[.|.|.|.|.|.|.|.n. X X X X X X X X X X X X X X X X X X X X X X X X X X X",
" X X X X X X X X X X X X X X X X X X X X X X X X X X X{ Q.R.Q.[.|.|.|.|.|.|.|.|./.w.A.S.m.[.|.|.|.|.|.|.|.d. X X X X X X X X X X X X X X X X X X X X X X X X X X",
" X X X X X X X X X X X X X X X X X X X X X X X X X Xz.).[.|.|.|.|.|.|.|.|.|.[.[.U.w.A.A.S.m.[.|.|.|.|.|.|.Y. X X X X X X X X X X X X X X X X X X X X X X X X X X",
" X X X X X X X X X X X X X X X X X X X X X X Xd.} l._.|.|.|.|.|.|.|.|.[._.(.c.k.6.w.A.A.A.D.c.E._._.|.|.|.!.Q  X X X X X X X X X X X X X X X X X X X X X X X X X",
" X X X X X X X X X X X X X X X X X X X Xv.T.|.Q.m.|.|.|.|.|.|.|.|.|.^.Y.x.D.A.;.X.;.A.A.A.A.A.s.x.x.R.Q.Q.m./  X X X X X X X X X X X X X X X X X X X X X X X X X",
" X X X X X X X X X X X X X X X X X Xj.~.|.|.|.~.|.|.|.|.|.|.|.|.'.B.b.a.A.A.;.-.o. .A.A.A.A.A.A.A.A.s.i.s.y.;. X X X X X X X X X X X X X X X X X X X X X X X X X",
" X X X X X X X X X X X X X X X X Xc._.|.|.|.|.|.|.|.|.|.E.[.|.R.F.a.A.A.w.#.#.;.O.f w.A.A.A.A.A.@.: @.A.A.V.>. X X X X X X X X X X X X X X X X X X X X X X X X X",
" X X X X X X X X X X X X X X X XU [.|.|.|.|.|.|.|.|.|.|.k.m.b.D.A.A.C.-.#.-.;.;.+.t +.A.A.A.A.A.:.< > w.A.w.p.B. X X X X X X X X X X X X X X X X X X X X X X X X",
" X X X X X X X X X X X X X X X7 m.|.|.|.|.|.|.|.[.Q.Q.v.{ W q.Z.C.;.#.#.;.%.#.#.C c d +.w.A.G.A.A.A.Z.A.Z.-.|.`.}  X X X X X X X X X X X X X X X X X X X X X X X",
" X X X X X X X X X X X X XQ d.] `.|.|.|.|.|.|.|.[.T.T.c.N.M.R =.;.#.;.;.+.X.#.C f x u k #. .X.w.A.A.A.A.+.e.|.|.v. X X X X X X X X X X X X X X X X X X X X X X X",
" X X X X X X X X X X X X XY.[.M.[.|.|.|.|.|.|.|.|.|.|.|.|.'.` H ;.-.o.x C -.C d x s u i z x k #.O.C.Z.#.0.|.|.|.Y. X X X X X X X X X X X X X X X X X X X X X X X",
" X X X X X X X X X X X XQ.|.|.[.|.|.|.|.|.|.|.|.|.|.[.[.T.v.g.v d f c X.-.:.z i u t t t t C #.;.x p a *.}.|.|.|.m. X X X X X X X X X X X X X X X X X X X X X X X",
" X X X X X X X X X X XT.|.|.|.|.|.|.`.]._._._._._.].n.c.s.A.A. . .#.;.;.;.;.#.p t t t i x a  .X.z ,.`.}.|.|.|._.[  X X X X X X X X X X X X X X X X X X X X X X X",
" X X X X X X X X X Xd.[.|.|.|.|.|.|.R.i.x.x.x.x.s.A.A.A.A.A.w.#.;.;.;.;.;.;.;.#.#.#.#.-.;.#.v p A 8.L.E.[.|.|.l.I  X X X X X X X X X X X X X X X X X X X X X X X",
" X X X X X X X X XT T.|.|.|.|.Q.[.|.[.x.A.A.A.A.A.A.A.A.Z.w.;.;.;.;.;.;.;.;.;.;.;.;.;.;.;.#.-.:.:.;.;.6.a.Y.B.J  X X X X X X X X X X X X X X X X X X X X X X X X",
" X X X X X X X X7 v.|.|.[.|.[.M.[.|.'.x.V.w.A.A.Z.Z.0.#.#.;.;.;.;.;.;.;.;.;.;.;.;.;.;.;.;.;.+.O.;.;.;.;.;.1.S b  X X X X X X X X X X X X X X X X X X X X X X X X",
" X X X X X X X$ l.|.|._.M.M.l.[ v._.m.S.A.:.#.O.c k C #.-.-.;.;.;.;.-.#.#.#.;.;.-.-.;.;.#.X.v d v #.-.-.-.o.g 6.h.Q  X X X X X X X X X X X X X X X X X X X X X X",
" X X X X X XP ] [.|.|.|.|.|.|.T.d.Q p.A.A.A.;. .f x  .X.X.X.O.X. .v l l l  .X.O.X.X.X. .v f ; d f c  . .X. .c s.|.Q.l. X X X X X X X X X X X X X X X X X X X X X",
" X X X X Xh.c.E.|.|.|.|.|.|.|.|.`.] F 0.w.%.v ....k f x x x x x f f i i r t p k x x k i  X X Xi x k  .X.X. .f ,.Q.|.|.B. X X X X X X X X X X X X X X X X X X X X",
" X X X X XQ.E.~.|.|.|.|.|.|.|.|.|.[.` 9 v O.O.X.X.X.x f f f g g x c c c x p - -  X X X X X X Xu c x x f k x f #.v.|.|.[.l. X X X X X X X X X X X X X X X X X X X",
" X X X Xf.[.[.|.|.|.|.|.|.|.|.|.|.|._.W o H ;.#.X. .c c c c c c c c c x d ;  X1 1  X X X X X X- x c  . ...X. .#.r.E.|.|.N. X X X X X X X X X X X X X X X X X X X",
" X X X X5.c.P.`.|.|.|.|.|.|.|.|.|.|.|.Q._ 0 D X.O. .c c c c c c c x i ;  X Xd.Y.b. X X X X X X- x  .X.#.-.;.;.O.-.K.|.|.}.E  X  K  X X X X X X X X X X X X X X X",
" X X X Xw.Z.A.s.U.'.|.|.|.|.|.|.|.|.|.|.|.N.W M b o.O.X.X.X.X.X.c f * %  Xe Q.n. X X X X X X X Xx X.#.;.;.;.;.%.-.r.R.|.|.x. XO k.U  X X X X X X X X X X X X X X",
" X X X XC -.A.A.S.n.T.|.|.|.|.|.|.|.|.|.|.|.[.c.W M @.;.;.;.;.;. .9 # E 8.Y.P.U  X X X X X X X Xi X.-.;.;.;.;.;.-.;.y.E.|.W.q @ `./  X X X X X X X X X X X X X X",
" X X X X- f ;.A.A.S.s.v.!.|.[.|.|.|.|.|.|.|.|.|.'.l.~ N D #.m 0 ) x.P.(.|.P.0  X X X X X X X X X Xx %.;.;.;.;.;.;.;.;.u.!.|.f.$ v.1.~ Y  X X X X X X X X X X X X",
" X X X X X Xp %.A.A.A.S.D.c.c.W.'.'._.[.|.|.|.|.|.|.{.R.5.~ d.z.`.|.|.|.|.5.q  X X X X X X X X X X Xz ;.;.;.;.;.;.;.;.;.e.].P.3 / O.4.E._  X X X X X X X X X X X",
" X X X X X X Xi +.A.A.A.A.A.A.S.x.x.x.P.(.Q.Q.~.|.|.|.|.|.|.|.|.|.|.|.|.|.[.[ w  X X X X X X X X X X- C ;.;.;.;.;.;.;.;.;.x.&.z ;.O.B ~.R.Q  X X X X X X X X X X",
" X X X X X X X Xi ..w.A.A.A.A.A.A.A.A.A.a.i.i.s.I.T.T.~.~.[.|.|.|.|.|.|.|.|.'.] b O. X X X X X X X X Xt C %.;.;.;.;.;.;.;.0.S X.0.+.k y.].R.'  X X X X X X X X X",
" X X X X X X X X X Xa #.V.A.A.A.A.A.A.A.A.A.A.A.S.a.a.b.h.`.|.|.|.|.|.|.|.'.Q.v.&.C ^  X X X X X X X X X Xi v #.-.;.-.#.;.;.X.O.-.v ; c =.P.(.~  X X X X X X X X",
" X X X X X X X X X X X Xp  .;.V.Z.A.A.A.A.A.A.C.w.V.V.0.$.(.|.|.|.|.|.|.{.|.K.#.V.:.S ] [  X X X X X X X X X X Xt x  . . .+. .x  . .t c k A R.4. X X X X X X X X",
" X X X X X X X X X X X X X& ; j G @.%.:.:.%.S Z | x k x k i.[.|.|.|.|.|.m.K.D.:.o.:.C.C =.v.`  X X X X X X X X X X X X Xt u x X. ...t C x  .r.W.~  X X X X X X X",
" X X X X X X X X X X X X X X X2 Q 2.;.e.e.;.,.f.s.;. .;.a @.n.E.|.|.|.'.'.2.| %.w.X.#.C...q.M.l. X X X X X X X X X X X X X Xp X.-.X.t k C i , / x. X X X X X X X",
" X X X X X X X X X X X X X X XQ Q.|.|.|.|.|.|.|.R.r.x #.C a 0.s.M.~.|.T.d.k.:.o.O.w.+.C 0.-.J.~. X X X X X X X X X X X X X X- d -.#.k d C i v h ]  X X X X X X X",
" X X X X X X X X X X X X X Xq c.|.|.|.|.|.|.|.|.|.F.x  ...f p X.t.x.M.v.B ..w.V.O.O.w.O.f #.;./.Q. X X X X X X X X X X X X X X-  .#.x f v i z l j C  X X X X X X",
" X X X X X X X X X X X X X XL W.|.|.|.|.|.|.|.|.|.Y.j * - d  .p x #.;.:.0.;.v +.w...k #.-.k ../.|.m. X X X X X X X X X X X X X X Xs - - f k k l v C p  X X X X X",
" X X X X X X X X X X X X X XY _.|.|.|.|.|.|.|.|.|.B.z  X; x c X.X.#.l z X...;...o.O.;.x o.0.#.0.|.|.d. X X X X X X X X X X X X X X X X X X- k x k C #.p  X X X X",
" X X X X X X X X X X X X X X^ Y.|.|.|.|.|.|.|.|.|.m.n  X X Xs v X.#.;.V.0.o.X.C X.i k +...p X.o.].|.T.Q  X X X X X X X X X X X X X X X X X Xp k l k l k  X X X X",
" X X X X X X X X X X X X X X;.c.[.|.|.|.|.|.|.|.|.c. X X X X Xd C X.#.;.w.A.Z.#.0.:.$.u./.F.H.U.|.|.|.N. X X X X X X X X X X X X X X X X X X Xt p C g -  X X X X",
" X X X X X X X X X X X X X X%.D.N.|.|.|.|.|.|.|._._  X X X X X X Xx  .#.;.:.0.-.:.A.G.G.b.[.|.|.|.|.|.|.c. X X X X X X X X X X X X X X X X X X X Xp t  X X X X X",
" X X X X X X X X X X X X X X+.A.n.[.|.|.|.|.|.|.m. X X X X X X X X Xs c  .#.-.-.X.:.A.A.A.b.(.[.|.|.|.|.}.Q  X X X X X X X X X X X X X X X X X X X X X X X X X X",
" X X X X X X X X X X X X X Xl Z.S.m.[.|.|.|.|.[.[  X X X X X X X X X X Xf  .v #.X.X.w.A.A.A.a.I.E._.|.[.T.<. X X X X X X X X X X X X X X X X X X X X X X X X X X",
" X X X X X X X X X X X X X Xi w.A.t.v.Q.|.|.~.v.L  X X X X X X X X X X X X X Xx  .x O.V.A.A.A.A.s.H.G.p.3.%.c  X X X X X X X X X X X X X X X X X X X X X X X X X",
" X X X X X X X X X X X X X Xi w.A.w.0.q.x.v.7.N  X X X X X X X X X X X X X X X X Xt d #.0.Z.A.A.A.w.;.;.;.X. X X X X X X X X X X X X X X X X X X X X X X X X X X",
" X X X X X X X X X X X X Xx x w.Z.;.;.;.0.O.k  X X X X X X X X X X X X X X X X X X Xt p C -.w.Z.V.;.;.;.-. . X X X X X X X X X X X X X X X X X X X X X X X X X X",
" X X X X X X X X X X X X .#.#.Z.w.;.;.;.+.x d  X X X X X X X X X X X X X X X X X X X Xt x  .%.;.;.;.;.;.O.x  X X X X X X X X X X X X X X X X X X X X X X X X X X",
" X X X X X X X X X X Xx ;.Z.0.A.;.;.;.#.c k  X X X X X X X X X X X X X X X X X X X Xd +.w.#.X.;.;.;.;.;.v ;  X X X X X X X X X X X X X X X X X X X X X X X X X X",
" X X X X X X X X X Xd -.A.A.A.w.;.;.;.+.C t  X X X X X X X X X X X X X X X X X X X XO.A.A.Z.-.#.;.;.;.;.x *  X X X X X X X X X X X X X X X X X X X X X X X X X X",
" X X X X X X X X X XO.A.A.A.A.0.;.;.;.;.X.-  X X X X X X X X X X X X X X X X X X Xx w.A.A.A.w.;.;.;.;.-.X.p  X X X X X X X X X X X X X X X X X X X X X X X X X X",
" X X X X X X X X Xd -.A.A.A.w.;.;.;.;.-.#.x  X X X X X X X X X X X X X X X X X X X .Z.A.A.A.w.;.;.;.;.;.#.d  X X X X X X X X X X X X X X X X X X X X X X X X X X",
" X X X X X X X X X .w.A.A.A.V.;.;.;.;.;.;. . X X X X X X X X X X X X X X X X X X X+.Z.A.A.A.0.;.;.;.;.;.#.t  X X X X X X X X X X X X X X X X X X X X X X X X X X",
" X X X X X X X X X-.Z.A.A.A.0.;.;.;.;.;.#. . X X X X X X X X X X X X X X X X X X X .Z.A.A.Z.;.;.;.;.;.;.X. X X X X X X X X X X X X X X X X X X X X X X X X X X X",
" X X X X X X X X X;.Z.A.A.Z.;.;.;.;.;.;.X. X X X X X X X X X X X X X X X X X X X Xx %.w.A.Z.;.;.;.;.;.-.x  X X X X X X X X X X X X X X X X X X X X X X X X X X X",
" X X X X X X X X XX.w.A.A.0.;.;.;.;.;.#.x  X X X X X X X X X X X X X X X X X X X X X .;.;.;.;.;.;.;.;.O. X X X X X X X X X X X X X X X X X X X X X X X X X X X X",
" X X X X X X X X Xc -.A.Z.;.;.;.;.;.#. . X X X X X X X X X X X X X X X X X X X X X Xc +.;.;.;.;.;.;.-.v  X X X X X X X X X X X X X X X X X X X X X X X X X X X X",
" X X X X X X X X Xd %.A.w.;.;.;.;.-.c  X X X X X X X X X X X X X X X X X X X X X X X Xv -.;.;.;.;.;.%.f  X X X X X X X X X X X X X X X X X X X X X X X X X X X X",
" X X X X X X X X X- +.Z.;.;.;.;.X.x  X X X X X X X X X X X X X X X X X X X X X X X X Xx #.;.;.;.;.;.#. X X X X X X X X X X X X X X X X X X X X X X X X X X X X X",
" X X X X X X X X X= #.w.;.;.#.x  X X X X X X X X X X X X X X X X X X X X X X X X X X X XC ;.;.;.;.;. . X X X X X X X X X X X X X X X X X X X X X X X X X X X X X",
" X X X X X X X X Xs :.:.;.#.c  X X X X X X X X X X X X X X X X X X X X X X X X X X X X Xx #.;.;.;.;.x  X X X X X X X X X X X X X X X X X X X X X X X X X X X X X",
" X X X X X X X Xs c ;.;.;.X.f  X X X X X X X X X X X X X X X X X X X X X X X X X X X X Xu  .;.;.;.-.f  X X X X X X X X X X X X X X X X X X X X X X X X X X X X X",
" X X X X X X X- x #.;.;.;.X.g  X X X X X X X X X X X X X X X X X X X X X X X X X X X X Xu v ;.;.%. .x  X X X X X X X X X X X X X X X X X X X X X X X X X X X X X",
" X X X X X X Xt C $.0.;.;. .k  X X X X X X X X X X X X X X X X X X X X X X X X X X X X} Z X.;.;.#.2.] [  X X X X X X X X X X X X X X X X X X X X X X X X X X X X",
" X X X X X X Xh 4.l.v.' $. . . X X X X X X X X X X X X X X X X X X X X X X X X X X X' N.@.%.;.#.;.y.E.~.l. X X X X X X X X X X X X X X X X X X X X X X X X X X X",
" X X X X X X Xk.|.|.|.v./ #.z  X X X X X X X X X X X X X X X X X X X X X X X X X X( N.,...;.#.#.;.;.u.~.|.T.l. X X X X X X X X X X X X X X X X X X X X X X X X X",
" X X X X X X~ {.|.|.|.[.d.@.a d  X X X X X X X X X X X X X X X X X X X X X X X XP m.i.z C 0.O.X.;.;.;.i._.|.'.n.[  X X X X X X X X X X X X X X X X X X X X X X X",
" X X X X X0 W.|.|.|.|.|.M.!  . . X X X X X X X X X X X X X X X X X X X X X X X XE i.;.o.v #. .X.;.;.;.9.x.[.|.|.).k.L 6  X X X X X X X X X X X X X X X X X X X X",
" X X X Xq k.|.|.|.|.|.|.[.)  .f  X X X X X X X X X X X X X X X X X X X X X X X X@.;.;.-.v f t C -.;.;.;.0.c._.[.|.|.!.l.E  X X X X X X X X X X X X X X X X X X X",
" X X X8 d.[.|.|.|.|.|.|.|.8.k -  X X X X X X X X X X X X X X X X X X X X X X X Xx ;.;.;.;.%.X.X.X.O.-.;.;.q.8.g.Q.~.|.|.|.N.] `  X X X X X X X X X X X X X X X X",
" X X X[ [.|.|.|.|.|.|.|.|.n.h  X X X X X X X X X X X X X X X X X X X X X X X X X- l X.o.v a p i t p x  .O.O.#.#.6.6.F.L.T.Q.|.Q.v. X X X X X X X X X X X X X X X",
" X XW '.|.|.|.|.|.|.|.|.|.W.Q  X X X X X X X X X X X X X X X X X X X X X X X X X X X X X X X X X X X X Xt ; t t i i p l V @.9.e.=. X X X X X X X X X X X X X X X",
" XU ~.|.|.|.|.|.|.|.|.|.[.l.T  X X X X X X X X X X X X X X X X X X X X X X X X X X X X X X X X X X X X X X X X X X X X X X X X X X X X X X X X X X X X X X X X X",
"# m.|.|.|.|.|.|.|.|.|.|.M.K  X X X X X X X X X X X X X X X X X X X X X X X X X X X X X X X X X X X X X X X X X X X X X X X X X X X X X X X X X X X X X X X X X X",
"$ M.|.|.|.|.|.|.|.|.Q.k.K +  X X X X X X X X X X X X X X X X X X X X X X X X X X X X X X X X X X X X X X X X X X X X X X X X X X X X X X X X X X X X X X X X X X",
". q d.E.|.|.|.|._.N.Q 5  X X X X X X X X X X X X X X X X X X X X X X X X X X X X X X X X X X X X X X X X X X X X X X X X X X X X X X X X X X X X X X X X X X X X",
" X XX 4 R E U 0 @ 2  X X X X X X X X X X X X X X X X X X X X X X X X X X X X X X X X X X X X X X X X X X X X X X X X X X X X X X X X X X X X X X X X X X X X X X"
};
