/* XPM */
static char *result[] = {
/* columns rows colors chars-per-pixel */
"80 80 188 2 ",
"   c #928A6A",
".  c #98916E",
"X  c #90867D",
"o  c #9B9572",
"O  c #9F9F7A",
"+  c #A19D73",
"@  c #A2A074",
"#  c #847395",
"$  c #867598",
"%  c #8C7C9E",
"&  c #8E7DA3",
"*  c #938A87",
"=  c #9E958C",
"-  c #928793",
";  c #9E9C90",
":  c #A59F83",
">  c #A39B96",
",  c #A29B9B",
"<  c #ACA887",
"1  c #ACAC86",
"2  c #B0AA89",
"3  c #A9B187",
"4  c #ACB38A",
"5  c #B3B48C",
"6  c #B0B88E",
"7  c #A8A297",
"8  c #ABA797",
"9  c #B4B693",
"0  c #B5BD94",
"q  c #BAB990",
"w  c #B2B29B",
"e  c #B7BC9B",
"r  c #BCBB9B",
"t  c #8E80A0",
"y  c #9283A5",
"u  c #9689A6",
"i  c #988AA7",
"p  c #9485AB",
"a  c #9688AB",
"s  c #998CAC",
"d  c #9D92A7",
"f  c #9E92AF",
"g  c #9789B1",
"h  c #9B8EB3",
"j  c #9E92B4",
"k  c #9F94B8",
"l  c #A195AB",
"z  c #A59CAC",
"x  c #A295B4",
"c  c #A499B5",
"v  c #AA9FB0",
"b  c #A296B9",
"n  c #A59BBC",
"m  c #A99DBD",
"M  c #AAA8A6",
"N  c #A9A2AB",
"B  c #B2ACAA",
"V  c #B4B6A4",
"C  c #B5B3AA",
"Z  c #BABBAA",
"A  c #ADA4B6",
"S  c #AEAAB3",
"D  c #ACA2BD",
"F  c #B4ACBD",
"G  c #BDBDB3",
"H  c #B9B5BC",
"J  c #BDBBBC",
"K  c #C4BEBE",
"L  c #BFC095",
"P  c #BCC49C",
"I  c #BEC4A3",
"U  c #C1C39A",
"Y  c #C1C4A3",
"T  c #C5CBA4",
"R  c #CACDA5",
"E  c #C2C5AB",
"W  c #C6CCAB",
"Q  c #CACCAB",
"!  c #C8D0A7",
"~  c #CBD2AC",
"^  c #D0D8AD",
"/  c #C3C4B4",
"(  c #CBCBB4",
")  c #C9C7BF",
"_  c #CDD3B3",
"`  c #CED2BC",
"'  c #D0D5B6",
"]  c #D2DAB4",
"[  c #D1D6BA",
"{  c #D7DDBA",
"}  c #D8DFBC",
"|  c #DDE5BC",
" . c #AB9EC0",
".. c #ADA3C2",
"X. c #B1A6C4",
"o. c #B4ABC6",
"O. c #B8AFC4",
"+. c #B2A5C8",
"@. c #B6ACC9",
"#. c #B8AECB",
"$. c #BBB2C7",
"%. c #BDB8C0",
"&. c #BBB3CD",
"*. c #BFB8CA",
"=. c #BEB5D1",
"-. c #C2BDC4",
";. c #C4BDCD",
":. c #C0B7D2",
">. c #C5BCD5",
",. c #C8BFD7",
"<. c #C7BED8",
"1. c #C8BFD8",
"2. c #CBCBC1",
"3. c #C7C3CA",
"4. c #C8C2CE",
"5. c #CCCACB",
"6. c #D0CECB",
"7. c #D4D4C2",
"8. c #D6DAC2",
"9. c #D9DEC5",
"0. c #D5D5CD",
"q. c #DBDCCC",
"w. c #CAC3D4",
"e. c #CEC9D4",
"r. c #CBC3DC",
"t. c #D1CDD2",
"y. c #D3CCDE",
"u. c #D3D2D1",
"i. c #D8D7D5",
"p. c #DCDBD4",
"a. c #D7D1DF",
"s. c #D9D5DD",
"d. c #DDDBDB",
"f. c #DDE3C3",
"g. c #DDE2CA",
"h. c #DFE1D2",
"j. c #E0E6C5",
"k. c #E2E9C5",
"l. c #E1E6CC",
"z. c #E4EACC",
"x. c #E8EFCC",
"c. c #EAF0CE",
"v. c #E2E5D4",
"b. c #E5E9D3",
"n. c #E9EED4",
"m. c #E3E4DA",
"M. c #E6E8D9",
"N. c #EAEDDB",
"B. c #ECF2D4",
"V. c #EEF2DB",
"C. c #F0F5DD",
"Z. c #CFC7E0",
"A. c #D0C7E1",
"S. c #D5CDE6",
"D. c #D7CEE8",
"F. c #D7D0E4",
"G. c #D9D4E2",
"H. c #DED9E4",
"J. c #D7D0E8",
"K. c #E1DEE3",
"L. c #E1DDEA",
"P. c #E4E2E5",
"I. c #E8E7E6",
"U. c #E7E8E1",
"Y. c #EAECE2",
"T. c #EDEDEB",
"R. c #EFF1E2",
"E. c #EFF0E8",
"W. c #F2F6E4",
"Q. c #F4F8E5",
"!. c #F3F5EB",
"~. c #F4F6E9",
"^. c #F1F2ED",
"/. c #F6F9EA",
"(. c #F6F9EC",
"). c #F9FBEE",
"_. c #E9E5F1",
"`. c #EEECF1",
"'. c #F1EEF6",
"]. c #F5F4F0",
"[. c #F7F9F2",
"{. c #FAFCF3",
"}. c #FCFDF7",
"|. c #F8F7F9",
" X c #FDFDFA",
".X c #FDFDFD",
"XX c white",
"oX c None",
/* pixels */
"oXoXoXoXoXoXoXoXoXoXoXoXoXoXoXoXoXoXoXoXoXoXoXoXoXoXoXoXoXoXoXoXoXoXoXoXoXoXoXoXoXs V b.XXB.} _ oXoXoXoXoXoXoXoXoXoXoXoXoXoXoXoXoXoXoXoXoXoXoXoXoXoXoXoXoXoXoXoX",
"oXoXoXoXoXoXoXoXoXoXoXoXoXoXoXoXoXoXoXoXoXoXoXoXoXoXoXoXoXoXoXoXoXoXoXoXoXoXoXoXh o.F.XXXXXXXXXX}.g.] oXoXoXoXoXoXoXoXoXoXoXoXoXoXoXoXoXoXoXoXoXoXoXoXoXoXoXoXoX",
"oXoXoXoXoXoXoXoXoXoXoXoXoXoXoXoXoXoXoXoXoXoXoXoXoXoXoXoXoXoXoXoXoXoXoXoXoXoXoXoXn S.m.XXXXXXXXXXXXXX~.8.oXoXoXoXoXoXoXoXoXoXoXoXoXoXoXoXoXoXoXoXoXoXoXoXoXoXoXoX",
"oXoXoXoXoXoXoXoXoXoXoXoXoXoXoXoXoXoXoXoXoXoXoXoXoXoXoXoXoXoXoXoXoXoXoX4 4 4 P e &.D.d.W.XXXXXXXXXXXXXX|.` oXoXoXoXoXoXoXoXoXoXoXoXoXoXoXoXoXoXoXoXoXoXoXoXoXoXoX",
"oXoXoXoXoXoXoXoXoXoXoXoXoXoXoXoXoXoXoXoXoXoXoXoXoXoXoXoXoXoXoXoX{ k.B.^.^.^.].^.r.D.D.d.~.XXXXXXXXXXXXXXV.oXoXoXoXoXoXoXoXoXoXoXoXoXoXoXoXoXoXoXoXoXoXoXoXoXoXoX",
"oXoXoXoXoXoXoXoXoXoXoXoXoXoXoXoXoXoXoXoXoXoXoXoXoXoXoXoXoXoXV.{.XXXXXXXXXXXXXX.Xy.D.D.D.d./.}.XXXXXXXXXX}.Q oXoXoXoXoXoXoXoXoXoXoXoXoXoXoXoXoXoXoXoXoXoXoXoXoXoX",
"oXoXoXoXoXoXoXoXoXoXoXoXoXoXoXoXoXoXoXoXoXoXoXoXoXoXoXB.W. XXXXXXXXXXXXXXXXX{.R.r.D.D.D.D.p.N.Q.Q.{.XXXX X} oXoXoXoXoXoXoXoXoXoXoXoXoXoXoXoXoXoXoXoXoXoXoXoXoXoX",
"oXoXoXoXoXoXoXoXoXoXoXoXoXoXoXoXoXoXoXoXoXoXoX0 ~ | Q.{.XXXXXXXXXXXXXXXX/.V.K.3.X.D.D.D.D.D.F.d.d.M.C.V.V.6.oXoXoXoXoXoXoXoXoXoXoXoXoXoXoXoXoXoXoXoXoXoXoXoXoXoX",
"oXoXoXoXoXoXoXoXoXoXoXoXoXoXoXoXoXoXoXoX6 ] N.E.(.{.XXXX XXXXXXXXX XV.M.G.y.:.&.x Z.D.D.D.D.D.S.r.y.G.s.a.w.oXoXoXoXoXoXoXoXoXoXoXoXoXoXoXoXoXoXoXoXoXoXoXoXoXoX",
"oXoXoXoXoXoXoXoXoXoXoXoXoXoXoXoXoXoXoXW z.{.XXXXXXXXXXXXQ.).XX}.^.b.G.D.Z.:.&.>.n &.J.D.D.D.D.w.X > r.D.D.&.oXoXoXoXoXoXoXoXoXoXoXoXoXoXoXoXoXoXoXoXoXoXoXoXoXoX",
"oXoXoXoXoXoXoXoXoXoXoXoXoXoXoXoXoXoX8. XXXXXXXXXXXXXXXXXXXW.T.m.F.D.S.<.&.&.<.&.x b r.S.D.D.D.D.F > ;.D.r.H oXoXoXoXoXoXoXoXoXoXoXoXoXoXoXoXoXoXoXoXoXoXoXoXoXoX",
"oXoXoXoXoXoXoXoXoXoXoXoXoXoXoXoXoX[ |.XXXXXXXXXXXXXXXXXXXX!.2.D.S.<.&.&.>.>.:.m n h n :.r.D.D.D.D.J.D.S.o.' T oXoXoXoXoXoXoXoXoXoXoXoXoXoXoXoXoXoXoXoXoXoXoXoXoX",
"oXoXoXoXoXoXoXoXoXoXoXoXoXoXoXoX5 V.XXXXXXXXXXXX{.B.V.B.l.W Z r.&.&.:.<.&.o.&.j k p g o.m j =.S.D.D.D.#.-.~.n.T oXoXoXoXoXoXoXoXoXoXoXoXoXoXoXoXoXoXoXoXoXoXoXoX",
"oXoXoXoXoXoXoXoXoXoXoXoXoXoXoXI N./.XXXXXXXXXX XW.}. X/.x.f.I H :.<.:.#...#.#.y h p p s ..b &.m =.<.&.H ~.XXXXn.P oXoXoXoXoXoXoXoXoXoXoXoXoXoXoXoXoXoXoXoXoXoXoX",
"oXoXoXoXoXoXoXoXoXoXoXoXoXoX_ E.XXXXXXXXXXXXXXXXXXXXXXXXXXXX/.' %...n x o.<.&.y & p p & s o.1.o.i v $.W.XXXXXX X~ oXoXoXoXoXoXoXoXoXoXoXoXoXoXoXoXoXoXoXoXoXoXoX",
"oXoXoXoXoXoXoXoXoXoXoXoXoXz.!.XXXXXXXXXXXXXXXXXXXXXXXXXXXXXXXXB.Z b o.:.<.<.:.m a h h j b n c b F N.XXXXXXXXXXXXb.oXoXoXoXoXoXoXoXoXoXoXoXoXoXoXoXoXoXoXoXoXoXoX",
"oXoXoXoXoXoXoXoXoXoXoXoXoX(.XXXXXXXXXXXXXXXXXXXXXXXXXXXXXX}.V.d.-.:.<.<.<.<.<.:.&.&.&.:.<.&.D X.>.w.N.XXXXXXXXXXW.oXoXoXoXoXoXoXoXoXoXoXoXoXoXoXoXoXoXoXoXoXoXoX",
"oXoXoXoXoXoXoXoXoXoXoXoXR.XXXXXXXXXX XB.n.n.n.n.n.n.n.n.n.b.G.r.:.<.<.<.<.<.<.<.<.<.<.<.<.:.:.1.<.<.e.b./. XXX Xf.oXoXoXoXoXoXoXoXoXoXoXoXoXoXoXoXoXoXoXoXoXoXoX",
"oXoXoXoXoXoXoXoXoXoXoX9.XXXXXXXXXX XXX(.m.F.F.F.F.D.F.F.F.F.S.:.<.<.<.<.<.<.<.<.<.<.<.<.<.:.&.<.<.<.<.<.0.v.'.q.w oXoXoXoXoXoXoXoXoXoXoXoXoXoXoXoXoXoXoXoXoXoXoX",
"oXoXoXoXoXoXoXoXoXoXP W.XXXXXXXXXXW.{.XXV.a.S.D.D.D.D.D.D.S.:.:.<.<.<.<.<.<.:.>.<.<.<.<.<.>.#.&.<.<.<.<.<.<.:.n oXoXoXoXoXoXoXoXoXoXoXoXoXoXoXoXoXoXoXoXoXoXoXoX",
"oXoXoXoXoXoXoXoXoX0 b.XXXXXXXXXXXXW.l.n.B.F.r.S.D.D.D.S.<.#.:.<.<.<.<.<.:.&.&.:.<.<.<.<.<.<.#...o.:.<.<.<.#.F G oXoXoXoXoXoXoXoXoXoXoXoXoXoXoXoXoXoXoXoXoXoXoXoX",
"oXoXoXoXoXoXoXoXoX~ }.XXXXXXXXXXXX XW.{ P 4.S.=.n n n ..o.o.&.&.&.&.#.@.o.X.o.#.&.&.&.&.&.@...h y x b b s d v.~.c.oXoXoXoXoXoXoXoXoXoXoXoXoXoXoXoXoXoXoXoXoXoXoX",
"oXoXoXoXoXoXoXoXW n.XXXXXXXXXXXXXXXXXX}.n.Y 7 s ..X.j h D ........m h p t % p x D ......n g p j D ..D D b F XXXXW.~ oXoXoXoXoXoXoXoXoXoXoXoXoXoXoXoXoXoXoXoXoXoX",
"oXoXoXoXoXoXoXW !.).XXXXXXXXXXXXXXXXXXXXXX[.Q 7 N o.o.n h h h h h h b n n b a % $ p p p & - z ....D x h n b.XXXX}.} oXoXoXoXoX7.o oXoXoXoXoXoXoXoXoXoXoXoXoXoXoX",
"oXoXoXoXoXoXoX| C.{.XXXXXXXXXXXXXXXXXXXXXXXX}.] < z o...n n n n n n n n n n h p oXoXoXoXB ( K @.@.@.@.#.X.5.W.}.XX{.l.| oXoXoXi.. oXoXoXoXoXoXoXoXoXoXoXoXoXoXoX",
"oXoXoXoXoXoXoXt.s.H.N.Q.XXXXXXXXXXXXXXXXXXXXXX}.b.2 v n n n n n n n n b g y oXoXoXoXoXq W.!.J @.@.&.:.<.=.&.5.M. XXXXX~.z._ '.;.  oXoXoXoXoXoXoXoXoXoXoXoXoXoXoX",
"oXoXoXoXoXoXoXj <.Z.F.d.n.{.XXXXXXXXXXXXXXXXXXXXXXl.e > c n n n n n b y oXoXoXoXoX< 9 g.{.G x @.&.<.<.<.<.<.<.w.N.XXXX).U } _.:.N oXoXoXoXoXoXoXoXoXoXoXoXoXoXoX",
"oXoXoXoXoXoXoX$ h :.D.D.F.v.V.).}.XXXXXXXXXXXXXXXXXXV.Q O , A o.@...p oXoXoXoXr I M. X]._ oXy D &.<.<.<.<.<.<.<.e.U.`.q.8 / r.&.A N.oXoXoXoXoXoXoXoXoXoXoXoXoXoX",
"oXoXoXoXoXoXoXoXoXx >.D.D.D.s.h.M.Q./.XXXXXXXXXXXXXXXX(.9.W w J G M * oXL T n.}.XXXXXX' oXoXoXh &.<.<.<.<.<.<.<.<.<.<.X.m <.:.o.A {.v.oXoXoXoXoXoXoXoXoXoXoXoXoX",
"oXoXoXoXoXoXoXoXoXoXs :.S.D.D.D.F.d.d.V.{.XXXXXXXXXXXXXXXXXXW.V.N.h.q.v.W.{.XXXXXXXX Xz.P oXoXoXD <.<.<.<.<.<.<.<.<.<.D D r.:.&.O.s.|.R._ oXoXoXoXoXoXoXoXoXoXoX",
"oXoXoXoXoXoXoXoXoXoXoXu #.S.D.D.D.D.D.s.M.V. X XXXXXXXXXXXXXXXXXXXXXXXXXXXXXXXXXXXXXXXXXz.P oXoXoXD :.<.<.<.<.<.<.<.<.X.m <.<.<.X.n ;.R.^.W oXoXoXoXoXoXoXoXoXoX",
"oXoXoXoXoXoXoXoXoXoXoXoX% m :.S.D.D.D.D.D.F.d.b.N.|.{.{.{.{.}.}.{.|.XXXXXXXXXXXXXXXXXX X}.{ = oXoXoXn X.&.>.<.<.<.<.>.&.n #.&.&.m x j H N.Y.T oXoXoXoXoXoXoXoXoX",
"oXoXoXoXoXoXoXoXoXoXoXoXoXoXp o.<.D.J.D.D.D.D.D.D.d.v.v.v.v.v.v.v.s.^.XXXXXXXXXXXXXXXX{.U.u.S.m oXoXoX% x m o.o.X.m x s j m o.@.x f n X.B q.N.9 oXoXoXoXoXoXoXoX",
"oXoXoXoXoXoXoXoXoXoXoXoXoXoXoXoXx m =.S.D.D.D.D.D.r.>.#.+.+.+.X.m X.i.(.XXXXXXXXXXXXR.XXG.o.:.S.@.y oXoXoXoXoXoXoXoXoXoXp :.:.#.j f o.x X.> N.K oXoXoXoXoXoXoXoX",
"oXoXoXoXoXoXoXoXoXoXoXoXoXoXoXoXoXX.:.m  . . . .x i u n X.o.o.o.c p &.m.).XXXXXXXXXXT.>.:.r.o.&.S.&.u oXoXoXoXoXoXoXoXoX% ..<.&.k n X.x b c C { oXoXoXoXoXoXoXoX",
"oXoXoXoXoXoXoXoXoXoXoXoXoXoXoXoX..p.n.`.`.`.`.`.T.m.-.&.<.,.<.:...@.x >.v.V.}.XXXXW.W.0...o.r.&...r.=.b oXoXoXoXoXoXoXoXoXh @.o.j b D s o.x c A h oXoXoXoXoXoXoX",
"oXoXoXoXoXoXoXoXoXoXoXoXoXoXoXh e./.XXXXXXXXXXXXXXXXV.;.&.:.:.@...@.@.j &.a.b.W.{.z.E 0.S.&...r.>.c &.<.o.oXoXoXoXoXoXoXoXoX& p $ & c f s m c n D y oXoXoXoXoXoX",
"oXoXoXoXoXoXoXoXoXoXoXoXoXoXoXo.P.XXXXXXXXXXXXXXXXXX}.2...@.o...o.@.&.#.n m &.u.v.v.O.X.#.Z.:.m =.:.b m :.oXoXoXoXoXoXoXoXoXoXoXoXoXoXy f x c x o.X.% oXoXoXoXoX",
"oXoXoXoXoXoXoXoXoXoXoXoXoXoXoX$.V.XXXXXXXXXXXXXXXXXX}.) p u j o.&.&.&.:.<.#.X.x x m &.&.&.m :.&.m n <.o.m oXoXoXoXoXoXoXoXoXoXoXoXoXoXoXu x x c j m y oXoXoXoXoX",
"oXoXoXoXoXoXoXoXoXoXoXoXoXoXoX*.V.XXXXXXXXXXXXXXXXXX XQ X # j #.<.<.<.<.S.J.S.,.0.p./ l &.&...x >.#.b &.:.j oXoXoXoXoXoXoXoXoXoXoXoXoXoXoXoXa s ..y oXoXoXoXoXoX",
"oXoXoXoXoXoXoXoXoXoXoXoXoXoXX.>.V.XXXXXXXXXXXXXXXXXX XR oXoXy ..:.r.D.S.r.D.D.D.d.W. XE.9.A :.A c :.<.l A  .oXoXoXoXoXoXoXoXoXoXoXoXoXoXoXoXoX$ h oXoXoXoXoXoXoX",
"oXoXoXoXoXoXoXoXoXoXoXoXoXoX .w.U.XXXXXXXXXXXXXXXXXX}.~ oXoXoXa o.>.r.D.D.D.D.D.D.d.T.{.XXXXXXXXXXXXXX{.k.oXoXoXoXoXoXoXoXoXoXoXoXoXoXoXoXoXoXoXoXoXoXoXoXoXoXoX",
"oXoXoXoXoXoXoXoXoXoXoXoXoXoX .1.H.{.XXXXXXXXXXXXXXXXV.T oXoXoXoXs @.<.r.S.D.D.D.r.S.D.K.E. XXXXXXXXXXXXXn.^ oXoXoXoXoXoXoXoXoXoXoXoXoXoXoXoXoXoXoXoXoXoXoXoXoXoX",
"oXoXoXoXoXoXoXoXoXoXoXoXoXoXm 1.s.W.XXXXXXXXXXXXXXXXf.oXoXoXoXoXoXj ..&.1.r.A.S.o.:.S.D.F.K.~.XXXXXXXXXX}.f.oXoXoXoXoXoXoXoXoXoXoXoXoXoXoXoXoXoXoXoXoXoXoXoXoXoX",
"oXoXoXoXoXoXoXoXoXoXoXoXoXoXx 1.D.m.}.XXXXXXXXXXXXb.oXoXoXoXoXoXoXoXp j o.&.:.<.#.m >.S.D.D.d.n.{. XXXXXXX(.| oXoXoXoXoXoXoXoXoXoXoXoXoXoXoXoXoXoXoXoXoXoXoXoXoX",
"oXoXoXoXoXoXoXoXoXoXoXoXoXoXx r.D.d.T.). XXXXX}.N.oXoXoXoXoXoXoXoXoXoXoXoXh n m o.n m :.r.D.D.F.v.R.).).).T.` oXoXoXoXoXoXoXoXoXoXoXoXoXoXoXoXoXoXoXoXoXoXoXoXoX",
"oXoXoXoXoXoXoXoXoXoXoXoXoXoXx S.D.r.w.0.K.W.Q.k.oXoXoXoXoXoXoXoXoXoXoXoXoXoXoXoXa s h ..>.r.S.D.D.s.q.0.0.w.:.oXoXoXoXoXoXoXoXoXoXoXoXoXoXoXoXoXoXoXoXoXoXoXoXoX",
"oXoXoXoXoXoXoXoXoXoXoXoXoXh m S.S.<.<.<.<.5.5.J oXoXoXoXoXoXoXoXoXoXoXoXoXoXoXoXoXoXoXy X.>.r.S.D.A.<.>.<.<.o.oXoXoXoXoXoXoXoXoXoXoXoXoXoXoXoXoXoXoXoXoXoXoXoXoX",
"oXoXoXoXoXoXoXoXoXoXoXoX..#.&.D.r.<.<.<.:...o.oXoXoXoXoXoXoXoXoXoXoXoXoXoXoXoXoXoXoXoXy b o.>.r.S.<.<.<.<.:.x oXoXoXoXoXoXoXoXoXoXoXoXoXoXoXoXoXoXoXoXoXoXoXoXoX",
"oXoXoXoXoXoXoXoXoXoXoX..S.Z.r.D.<.<.<.:.#.&.n oXoXoXoXoXoXoXoXoXoXoXoXoXoXoXoXoXoXoXoXn :.r.=.>.<.<.<.<.<...p oXoXoXoXoXoXoXoXoXoXoXoXoXoXoXoXoXoXoXoXoXoXoXoXoX",
"oXoXoXoXoXoXoXoXoXoX .r.D.D.D.S.<.<.<.&.&.m oXoXoXoXoXoXoXoXoXoXoXoXoXoXoXoXoXoXoXoXb <.D.D.r.>.<.<.<.<.:.n h oXoXoXoXoXoXoXoXoXoXoXoXoXoXoXoXoXoXoXoXoXoXoXoXoX",
"oXoXoXoXoXoXoXoXoXj <.D.D.D.D.r.<.<.>.:.@.j oXoXoXoXoXoXoXoXoXoXoXoXoXoXoXoXoXoXoXoX#.D.D.D.S.,.<.<.<.<.#.o...oXoXoXoXoXoXoXoXoXoXoXoXoXoXoXoXoXoXoXoXoXoXoXoXoX",
"oXoXoXoXoXoXoXoXoX..S.D.D.D.S.<.<.<.<.:.&...oXoXoXoXoXoXoXoXoXoXoXoXoXoXoXoXoXoXoXb <.D.D.S.,.<.<.<.<.<.:.:.@.oXoXoXoXoXoXoXoXoXoXoXoXoXoXoXoXoXoXoXoXoXoXoXoXoX",
"oXoXoXoXoXoXoXoXoX#.D.D.D.D.r.<.<.<.<.<.>.m oXoXoXoXoXoXoXoXoXoXoXoXoXoXoXoXoXoXoX..r.D.D.S.<.<.<.<.<.<.<.&.n oXoXoXoXoXoXoXoXoXoXoXoXoXoXoXoXoXoXoXoXoXoXoXoXoX",
"oXoXoXoXoXoXoXoXoX:.D.D.D.S.<.<.<.<.<.<.:.j oXoXoXoXoXoXoXoXoXoXoXoXoXoXoXoXoXoXoX@.Z.D.D.1.<.<.<.<.<.<.<.D t oXoXoXoXoXoXoXoXoXoXoXoXoXoXoXoXoXoXoXoXoXoXoXoXoX",
"oXoXoXoXoXoXoXoXoX<.D.D.D.r.<.<.<.<.<.<.#.oXoXoXoXoXoXoXoXoXoXoXoXoXoXoXoXoXoXoXoX..1.D.S.<.<.<.<.<.<.<.>.x oXoXoXoXoXoXoXoXoXoXoXoXoXoXoXoXoXoXoXoXoXoXoXoXoXoX",
"oXoXoXoXoXoXoXoXoX<.D.D.D.1.<.<.<.<.<.:.n oXoXoXoXoXoXoXoXoXoXoXoXoXoXoXoXoXoXoXoXh #.D.r.<.<.<.<.<.<.<.&.y oXoXoXoXoXoXoXoXoXoXoXoXoXoXoXoXoXoXoXoXoXoXoXoXoXoX",
"oXoXoXoXoXoXoXoXoX:.D.D.r.<.<.<.<.<.:.D oXoXoXoXoXoXoXoXoXoXoXoXoXoXoXoXoXoXoXoXoXoX..<.<.<.<.<.<.<.<.<.m oXoXoXoXoXoXoXoXoXoXoXoXoXoXoXoXoXoXoXoXoXoXoXoXoXoXoX",
"oXoXoXoXoXoXoXoXoX=.D.D.r.<.<.<.:.=.o.oXoXoXoXoXoXoXoXoXoXoXoXoXoXoXoXoXoXoXoXoXoXoXh &.<.<.<.<.<.<.<.#.oXoXoXoXoXoXoXoXoXoXoXoXoXoXoXoXoXoXoXoXoXoXoXoXoXoXoXoX",
"oXoXoXoXoXoXoXoXoX#.J.D.r.<.<.&.m n oXoXoXoXoXoXoXoXoXoXoXoXoXoXoXoXoXoXoXoXoXoXoXoXoX..=.<.<.<.<.<.&.oXoXoXoXoXoXoXoXoXoXoXoXoXoXoXoXoXoXoXoXoXoXoXoXoXoXoXoXoX",
"oXoXoXoXoXoXoXoXoX#.J.S.<.<.&.s oXoXoXoXoXoXoXoXoXoXoXoXoXoXoXoXoXoXoXoXoXoXoXoXoXoXoXoXm <.<.<.<.<.m oXoXoXoXoXoXoXoXoXoXoXoXoXoXoXoXoXoXoXoXoXoXoXoXoXoXoXoXoX",
"oXoXoXoXoXoXoXoXoX=.J.A.<.>.c oXoXoXoXoXoXoXoXoXoXoXoXoXoXoXoXoXoXoXoXoXoXoXoXoXoXoXoXoXs :.<.<.<.&.h oXoXoXoXoXoXoXoXoXoXoXoXoXoXoXoXoXoXoXoXoXoXoXoXoXoXoXoXoX",
"oXoXoXoXoXoXoXoXj <.D.1.<.#.p oXoXoXoXoXoXoXoXoXoXoXoXoXoXoXoXoXoXoXoXoXoXoXoXoXoXoXoXoXy =.<.<.<.o.oXoXoXoXoXoXoXoXoXoXoXoXoXoXoXoXoXoXoXoXoXoXoXoXoXoXoXoXoXoX",
"oXoXoXoXoXoXoXoX..<.D.<.<.m # oXoXoXoXoXoXoXoXoXoXoXoXoXoXoXoXoXoXoXoXoXoXoXoXoXoXoXoX- s :.<.<.,.m oXoXoXoXoXoXoXoXoXoXoXoXoXoXoXoXoXoXoXoXoXoXoXoXoXoXoXoXoXoX",
"oXoXoXoXoXoXoX..#.=.D.<.:...& oXoXoXoXoXoXoXoXoXoXoXoXoXoXoXoXoXoXoXoXoXoXoXoXoXoXoXoXC X.<.<.<.:.s ; oXoXoXoXoXoXoXoXoXoXoXoXoXoXoXoXoXoXoXoXoXoXoXoXoXoXoXoXoX",
"oXoXoXoXoXoXoXD m 5.b.7.H &...oXoXoXoXoXoXoXoXoXoXoXoXoXoXoXoXoXoXoXoXoXoXoXoXoXoXoX_ -.&.<.<.&.&.@.( oXoXoXoXoXoXoXoXoXoXoXoXoXoXoXoXoXoXoXoXoXoXoXoXoXoXoXoXoX",
"oXoXoXoXoXoXoXA v.|.}.{.` *.:.oXoXoXoXoXoXoXoXoXoXoXoXoXoXoXoXoXoXoXoXoXoXoXoXoXoXv.e...:.:.o.&.<.,.k.{ oXoXoXoXoXoXoXoXoXoXoXoXoXoXoXoXoXoXoXoXoXoXoXoXoXoXoXoX",
"oXoXoXoXoXoXoX0. XXXXXXXl.S ..oXoXoXoXoXoXoXoXoXoXoXoXoXoXoXoXoXoXoXoXoXoXoXoXoXn.G.&.m <.#.n :.<.<.b. XW.' oXoXoXoXoXoXoXoXoXoXoXoXoXoXoXoXoXoXoXoXoXoXoXoXoXoX",
"oXoXoXoXoXoX_ {.XXXXXXXXW.Z r.oXoXoXoXoXoXoXoXoXoXoXoXoXoXoXoXoXoXoXoXoXoXoXoX[ 0.<.&.n <.....<.<.<.i.).XX Xb.} oXoXoXoXoXoXoXoXoXoXoXoXoXoXoXoXoXoXoXoXoXoXoXoX",
"oXoXoXoXoX4 g.XXXXXXXXXX}./ r.oXoXoXoXoXoXoXoXoXoXoXoXoXoXoXoXoXoXoXoXoXoXoXoX4.<.<.:.j s j &.<.<.<.<.p.{.XXXX(.b.oXoXoXoXoXoXoXoXoXoXoXoXoXoXoXoXoXoXoXoXoXoXoX",
"oXoXoXoX3 _ |.XXXXXXXXXXXXQ : oXoXoXoXoXoXoXoXoXoXoXoXoXoXoXoXoXoXoXoXoXoXoXoX:.<.<.<.#.D #.:.>.<.<.<.w.v.}.XXXXXXC.' I oXoXoXoXoXoXoXoXoXoXoXoXoXoXoXoXoXoXoXoX",
"oXoXoXoXW [.XXXXXXXXXXXXXXf.4 oXoXoXoXoXoXoXoXoXoXoXoXoXoXoXoXoXoXoXoXoXoXoXoX#.>.<.1.<.=.X.b x X.:.<.<.w.v.{.XXXXXX|.~.f.~ oXoXoXoXoXoXoXoXoXoXoXoXoXoXoXoXoXoX",
"oXoXoXj.!.XXXXXXXXXXXXXXXX(.R oXoXoXoXoXoXoXoXoXoXoXoXoXoXoXoXoXoXoXoXoXoXoXoXh n ..o.m n g & # % j X.&.>.e.q.I./.}.XXXXXX}.n._ oXoXoXoXoXoXoXoXoXoXoXoXoXoXoXoX",
"oXoXoX).XXXXXXXXXXXXXXXXXX}.T oXoXoXoXoXoXoXoXoXoXoXoXoXoXoXoXoXoXoXoXoXoXoXoXoXoXoXoXoXoXoXoXoXoXoX& s ..=.<.<.0.d.L.L.L.P.Q.B.G oXoXoXoXoXoXoXoXoXoXoXoXoXoXoX",
"oXoX/.XXXXXXXXXXXXXXXXXXXXXX9.oXoXoXoXoXoXoXoXoXoXoXoXoXoXoXoXoXoXoXoXoXoXoXoXoXoXoXoXoXoXoXoXoXoXoXoXoX& y s s a u u u h n H A s oXoXoXoXoXoXoXoXoXoXoXoXoXoXoX",
"oXv.XXXXXXXXXXXXXXXXXXXXXX{.{ oXoXoXoXoXoXoXoXoXoXoXoXoXoXoXoXoXoXoXoXoXoXoXoXoXoXoXoXoXoXoXoXoXoXoXoXoXoXoXoXoXoXoXoXoXoXoXoXoXoXoXoXoXoXoXoXoXoXoXoXoXoXoXoXoX",
"oXl.XXXXXXXXXXXXXXXXXX X/.{ 5 oXoXoXoXoXoXoXoXoXoXoXoXoXoXoXoXoXoXoXoXoXoXoXoXoXoXoXoXoXoXoXoXoXoXoXoXoXoXoXoXoXoXoXoXoXoXoXoXoXoXoXoXoXoXoXoXoXoXoXoXoXoXoXoXoX",
"oX! V.XXXXXXXXXXXXXX(.k.U 4 oXoXoXoXoXoXoXoXoXoXoXoXoXoXoXoXoXoXoXoXoXoXoXoXoXoXoXoXoXoXoXoXoXoXoXoXoXoXoXoXoXoXoXoXoXoXoXoXoXoXoXoXoXoXoXoXoXoXoXoXoXoXoXoXoXoX",
"oXoXoXg.{.XXXX XC.b.Y 1 oXoXoXoXoXoXoXoXoXoXoXoXoXoXoXoXoXoXoXoXoXoXoXoXoXoXoXoXoXoXoXoXoXoXoXoXoXoXoXoXoXoXoXoXoXoXoXoXoXoXoXoXoXoXoXoXoXoXoXoXoXoXoXoXoXoXoXoX",
"oXoXoX@ 5 W r 2 + o oXoXoXoXoXoXoXoXoXoXoXoXoXoXoXoXoXoXoXoXoXoXoXoXoXoXoXoXoXoXoXoXoXoXoXoXoXoXoXoXoXoXoXoXoXoXoXoXoXoXoXoXoXoXoXoXoXoXoXoXoXoXoXoXoXoXoXoXoXoX"
};
