/* XPM */
static char *result[] = {
/* columns rows colors chars-per-pixel */
"80 80 176 2 ",
"   c #8C866A",
".  c #908A6E",
"X  c #908976",
"o  c #928A7A",
"O  c #9E987E",
"+  c #A8A87F",
"@  c #7F6D8F",
"#  c #857496",
"$  c #877699",
"%  c #8B7B9D",
"&  c #8E7EA4",
"*  c #958B8B",
"=  c #9C9685",
"-  c #988A99",
";  c #A39C84",
":  c #A49D9B",
">  c #AEAB8B",
",  c #B2AC8C",
"<  c #ADB48B",
"1  c #AEAE95",
"2  c #A8A39D",
"3  c #A9A99B",
"4  c #B1AF93",
"5  c #B3AD98",
"6  c #B1B696",
"7  c #B2BA92",
"8  c #BBBA96",
"9  c #B7B79D",
"0  c #B7B999",
"q  c #BFBE9B",
"w  c #8F80A3",
"e  c #9284A4",
"r  c #998DA5",
"t  c #9586AB",
"y  c #9789AB",
"u  c #9A8DAD",
"i  c #9E91AE",
"p  c #9B8DB2",
"a  c #9E92B4",
"s  c #9F94B8",
"d  c #A59BAB",
"f  c #A195B4",
"g  c #A599B6",
"h  c #A296B9",
"j  c #A69ABB",
"k  c #A99DBC",
"l  c #ADAAA5",
"z  c #B0AAAF",
"x  c #BAB6AA",
"c  c #ACA2B3",
"v  c #ACA2BE",
"b  c #B3ABB4",
"n  c #B2A9BE",
"m  c #B6B2B5",
"M  c #B7B2BD",
"N  c #BBB5B9",
"B  c #BCB9BB",
"V  c #C1BDA3",
"C  c #BDC197",
"Z  c #BDC49D",
"A  c #BEC2A6",
"S  c #C4C49D",
"D  c #C0C89F",
"F  c #C2C6A4",
"G  c #C4CCA4",
"H  c #CACAA6",
"J  c #C2C5AF",
"K  c #C6CDA9",
"L  c #C8CDAD",
"P  c #C8D1A7",
"I  c #CBD3AB",
"U  c #D1DAAF",
"Y  c #CACDB2",
"T  c #C7C6B8",
"R  c #C9CABA",
"E  c #CDD3B3",
"W  c #CED2BA",
"Q  c #D4D7B5",
"!  c #D3DAB4",
"~  c #D1D6BA",
"^  c #D5DBBB",
"/  c #D8DFBD",
"(  c #DAE2B9",
")  c #AB9EC0",
"_  c #ADA3C2",
"`  c #B1A6C3",
"'  c #B3AAC5",
"]  c #B8AFC5",
"[  c #B3A7C8",
"{  c #B6ADC9",
"}  c #B9AECB",
"|  c #B7B0C6",
" . c #BBB5C5",
".. c #BEBBC1",
"X. c #BCB3CD",
"o. c #BEB5D1",
"O. c #BFB8D0",
"+. c #C0BAC1",
"@. c #C3BBCE",
"#. c #C0B7D1",
"$. c #C5BCD5",
"%. c #C8BFD7",
"&. c #C7BDD9",
"*. c #C8BFD8",
"=. c #C5C2C4",
"-. c #CECEC3",
";. c #C9C6CB",
":. c #CDCACD",
">. c #D1CDC4",
",. c #D0CECD",
"<. c #D6D4C5",
"1. c #D6DAC3",
"2. c #D8DCC5",
"3. c #D4D3CD",
"4. c #DADACC",
"5. c #C7C0D2",
"6. c #CAC3D4",
"7. c #CEC9D3",
"8. c #CCC3DC",
"9. c #D2CED3",
"0. c #D4CEDC",
"q. c #D5D2D3",
"w. c #D8D5D7",
"e. c #DCDDD3",
"r. c #D5D1DB",
"t. c #DAD6DE",
"y. c #DDDBDB",
"u. c #DCE2C5",
"i. c #DEE3CB",
"p. c #DEE0D0",
"a. c #E0E6C6",
"s. c #E6EEC6",
"d. c #E1E5CC",
"f. c #E5EBCD",
"g. c #E9F1CB",
"h. c #E1E3D4",
"j. c #E6E9D3",
"k. c #E9EDD4",
"l. c #E2E3DC",
"z. c #E6E9D9",
"x. c #EAECDC",
"c. c #ECF2D5",
"v. c #EEF2DB",
"b. c #F1F5DD",
"n. c #CFC7E0",
"m. c #D0C7E0",
"M. c #D5CDE6",
"N. c #D6CEE8",
"B. c #D7D1E2",
"V. c #D9D3E3",
"C. c #DEDAE4",
"Z. c #D8D0E9",
"A. c #E2DDEC",
"S. c #E3E1E3",
"D. c #EBECE3",
"F. c #E5E1EA",
"G. c #E9E7EC",
"H. c #EDECEC",
"J. c #EFF1E3",
"K. c #F2F5E4",
"L. c #F5F9E6",
"P. c #F3F5EB",
"I. c #F6F9EB",
"U. c #F8FBEE",
"Y. c #EEEBF2",
"T. c #F4F4F2",
"R. c #F8F7F3",
"E. c #F7F8F1",
"W. c #F9FAF2",
"Q. c #FAFCF1",
"!. c #FAFBF7",
"~. c #FBFCF4",
"^. c #FBFCF7",
"/. c #FDFEF9",
"(. c white",
"). c None",
/* pixels */
").).).).).).).).).).).).).).).).).).).).).).).).).).).).).).).).).).).).).).).).).).).).).).).).).).).).).).).).).).).).).).).).).).).).).).).).).).).).).).).).",
").).).).).).).).).).).).).).).).).).).).).).).).).).).).).).).).).).).).).).).).).).).).).).).).).).).).).).).).).).).).).).).).).).).).).).).).).).).).).).).).",
").).).).).).).).).).).).).).).).).).).).).).).).).).).).).).).).).).).).).).).).).).).).).).).).).).).).).).).).).).).).).).).).).).).).).).).).).).).).).).).).",
").).).).).).).).).).).).).).).).).).).).).).).).).).).).).).).).).).).).).).).).).: E (.b.! G ).).).).).).).).).).).).).).).).).).).).).).).).).).).).).).).).).",
").).).).).).).).).).).).).).).).).).).).).).).).).).).).).).).).).).).).).).).).h $.T.(./.!.E.~.a.).).).).).).).).).).).).).).).).).).).).).).).).).).).).).).).",
").).).).).).).).).).).).).).).).).).).).).).).).).).).).).).).).).).).).).).).p &.V.!.(.(.(.(.(.(.L.~ ).).).).).).).).).).).).).).).).).).).).).).).).).).).).).",
").).).).).).).).).).).).).).).).).).).).).).).).).).).).).).).).).).).).).).).g M.t.K.(.(.(.(.(.(.(.!.~ ).).).).).).).).).).).).).).).).).).).).).).).).).).).).",
").).).).).).).).).).).).).).).).).).).).).).).).).).).).).).).P s.g.P.z.h.e.4.6.M.M.y.P.(.(.(.(.(.(.(.K.).).).).).).).).).).).).).).).).).).).).).).).).).).).).",
").).).).).).).).).).).).).).).).).).).).).).).).).).).K ! c.E.P.W.Q.(.(.(.(.(.V.M.M.M.y.I.(.(.(.(.(.(.(.1.).).).).).).).).).).).).).).).).).).).).).).).).).).).",
").).).).).).).).).).).).).).).).).).).).).).).).7 ~ c.!.^./.(.(.(.(.(.(.(.(./.r.M.M.M.M.h.x.Q.Q.^.(.(.(.d.).).).).).).).).).).).).).).).).).).).).).).).).).).).",
").).).).).).).).).).).).).).).).).).).~ W i.d.! z.(.(.(.(.(.(.(.(.(.(.(.(.U.x. .M.N.M.M.M.B.h.h.z.I.I.I.4.).).).).).).).).).).).).).).).).).).).).).).).).).).).",
").).).).).).).).).).).).).).).).7 P i.W.(.(.(.Q.(.(.(.(.(.(.(.(.(.U.b.b.H.y.r.f *.N.M.M.M.M.N.N.B.e.y.y.7.).).).).).).).).).).).).).).).).).).).).).).).).).).).",
").).).).).).).).).).).).).).).7 z.U.(.(.(.(.(.(.(./.W.K./.v.c.x.A.C.t.t.M.*.} f } M.M.M.M.M.m.: : 8.N.N.%.2.).).).).).).).).).).).).).).).).).).).).).).).).).).",
").).).).).).).).).).).).).).).Q (.(.(.(.(.(.(./.v.f./ G L r.B.B.M.N.M.n.#.X.X.j a 8.M.M.M.M.M.n o b M.M.@.P.L.( ).).).).).).).).).).).).).).).).).).).).).).).).",
").).).).).).).).).).).).).).D K.(.(.(.(.(.(.(.(.(.(.~.k.K ;.N.N.m.8.*.%.%.o.| s s j #.m.M.Z.N.M.M.M.N.$.3./.(.v.G ).).).).).).).).).).).).).).).).).).).).).).).",
").).).).).).).).).).).).).P P K.(.(.(.(.(.(.(.(.(.(.(.(.U.2.;.*.X.X.$.%.X.} k s h t ` } _ o.m.N.M.M.8.n S.(.(.(.i.).).).).).).).).).).).).).).).).).).).).).).).",
").).).).).).).).).).).).G s.P.!.(.(.(.(.(.(.(.(.(.(.(.(.(./.7.X.#.%.%.X.' X.s j p t y _ u ' ' #.M.8.` 4./.(.(.(.J.).).).).).).).).).).).).).).).).).).).).).).).",
").).).).).).).).).).Z / v./.(.(.(.(.(.(.(.(.(.(.(.(.(.(././.r.X.%.#.' k X.} p j t t & y ` $.} p e f 3./.(.(.(.(.K.).).).).).).).).).).).).).).).).).).).).).).).",
").).).).).).).).).7 d./.(.(./.(.(.(.(.Q.Q.Q.Q.Q.Q.Q.Q.K.j.j.+._ } j h X.%.X.p a & & & e a ' ' u m J.(.(.(.(.(.(.x.).).).).).).).).).).).).).).).).).).).).).).).",
").).).).).).).).< u.^.I.L.L.c.v.x.K.L.h.h.h.h.h.h.h.h.y.M.M.X.k j ' $.%.%.#._ f i i ` #.} f i X.4.l.G.I.L.L.L.H.r.).).).).).).).).).).).).).).).).).).).).).).).",
").).).).).).).).i.^.(.L.L.L.L.L.j.U q 8.N.N.N.N.N.N.N.N.M.m.X.#.%.%.%.%.%.%.%.%.*.*.%.%.%.#.%.%.%.%.%.,.3.3.3.$. .W ).).).).).).).).).).).).).).).).).).).).).).",
").).).).).).).! /.(.(.(.(.(.(.(.(.P.^ 9 N M.M.M.M.M.M.M.8.*.$.%.%.%.%.%.%.%.%.X.%.%.#.$.%.#.X.$.%.%.%.%.%.$.$.' 3.v.! ).).).).).).).).).).).).).).).).).).).).).",
").).).).).).E U.(.(.(.(.(.(.(.(.(.(.(.x.8 b X.#.$.X.X.$.%.%.%.%.%.%.%.%.%.%.%.X.$. .5 x %.%.X._ ' } X.X.X.v g 3.^.(.k.! ).).).> ).).).).).).).).).).).).).).).).",
").).).).).E k.(.(.(.(.(.(.(.(.(.(.(.(.(.K.4 c k u t f ' X.%.%.%.%.%.%.%.%.#.X.X.N <.P.w.%.#.X.v p e t p s e b D.W.(./.k.a.).).<.Z ).).).).).).).).).).).).).).).",
").).).).! U.Q.(.(.(.(.(.(.(.(.(.(.(.(.(.(.k.4 * i j _ ' ' X.#.%.%.%.%.#.X.' c 3 F Q.e.N X.' k p u h s ` ' _ ' $.e.Q.(.(.U.).).<.l ).).).).).).).).).).).).).).).",
").).).).q.x.v.v.K.(.(.(.(.(.(.(.(.(.(.(.(.(.P.^ J = r _ ' ` ' | } | | ' 2 3 R h.P.h.m } _ h ).).).u _ | #.#.| #.5.r.D.(.(.E.x >.g F < ).).).).).).).).).).).).).",
").).).).| 0.V.B.y.k.v.^./.(.(.(.(.(.(.(.(.(.(./.E.f.A 1 ; = o X X O 6 ~ x.P.!.(.h.2 p t ).).).).).t _ X.%.%.%.X.%.%.5.w.P.(.Y >.v =.J.I ).).).).).).).).).).).).",
").).).).a } M.N.M.M.B.h.j.I.Q.Q.(.(.(.(.(.(.(.(.(.(./.!.!.P.k.E Y a.c./.(.(.(././ 3 ).).).).).).).).v ' #.%.%.%.%.%.%.%.5.p.J  .} m 2.K.! ).).).).).).).).).).).",
").).).).).t _ 8.M.M.M.M.M.e.h.h.H.L.L.L.L.(.(.(.(.(.(.(.(.(.(.(.(.(.(.(.(.(.(.(.^./ ).).).).).).).).u _ X.%.%.%.%.%.%.%.%.%.k ' %.i e h.b.I ).).).).).).).).).).",
").).).).).).).f #.m.M.M.M.N.N.N.B.y.y.y.y.F.D.b.b.b.b.b.b.b.b.~.(.(.(.(.(.(.(.(.(.~.! ).).).).).).).).f ' #.%.%.%.%.%.%.%.%.g ` 8._ p 5.H.I.~ ).).).).).).).).).",
").).).).).).).).e _ 8.M.N.N.M.M.M.N.N.N.N.M.B.t.t.t.t.t.t.t.9.H.(.(.(.(.(.(.(.(.Q.P.j.@.f ).).).).).).).h } %.%.%.%.%.%.%.%._ v #.k & h X.x.E.Y ).).).).).).).).",
").).).).).).).).).).u ` $.m.Z.Z.N.M.M.M.M.N.Z.Z.M.8.&.$.$.$.X.e.~.(.(.(.(.(.(.!.(.C.} 8.*.j ).).).).).).t j X.%.%.%.%.%.%.o._ j _ _ e k f c J.2.).).).).).).).).",
").).).).).).).).).).).# & f } o.&.m.N.Z.M.&.o.} k f h u u u f 5.x.^.(.(.(.(.(.x.A.M.*.[ &.n.k % ).).).).).p g _ X.%.%.%.%.` a _ ' ` e v j v ;.P.W ).).).).).).).",
").).).).).).).).).).).).).).).).f f k k g v _ k f j %.*.%.%.f ` B.x.L.(.(.(.W.W.;.) o.8.' } n.` ).).).).).).).).a h ) k i e w _ #.' t a _ t - T h.).).).).).).).",
").).).).).).).).).).).).).).).).).).).@ y _ ' | ` _ #.%.%.%.} y X.0.y.v.U.(.v./ d.*.' { 8.} k 8.o.).).).).).).).).).).).).).$ y #.X.h a v t _ d ~ ).).).).).).).",
").).).).).).).).).).).).).).).).).).).).a $.n.m.8.X.#.%.%.%.%.X.v p _ 6.e.f.f.z ' *.n.{ { 8.{ u X.#.).).).).).).).).).).).).).% _ } f s k y g g d k ).).).).).).",
").).).).).).).).).).).).).).).).).).).p X.M.N.N.M.8.#.%.%.%.%.%.%.X.k p _ | #.&.X.k } 8.` h } $.f ` ).).).).).).).).).).).).).).).t % % p a f g j _ i ).).).).).",
").).).).).).).).).).).).).).).).).).).{ M.N.N.M.M.M.#.%.%.%.%.%.%.%.} %.%.} c B j $.` ` ' $.k ` 8.| p ).).).).).).).).).).).).).).).).).).% f j f k X.i ).).).).",
").).).).).).).).).).).).).).).).).).' e.h.h.y.M.M.M.8.X.%.%.%.%.%.#.| %.%.5.x.I.9.R c ' y f X.` y ' k ).).).).).).).).).).).).).).).).).).).y f f j f f ).).).).",
").).).).).).).).).).).).).).).).).#.Y.Q.Q.~.K.j.V.M.n.' %.%.%.%.%.X.' X.%.7.K.(.(.W.G.Y.G.F.Y.T.F.h.W ).).).).).).).).).).).).).).).).).).).).e y k f % ).).).).",
").).).).).).).).).).).).).).).).F P.(.(.(.(.(./.E.h.m.' X.#.#.$.X._ ' | $.7.v.(.(.(.(.(.(.(.(.(.(.(.c.! ).).).).).).).).).).).).).).).).).).).).).y e ).).).).).",
").).).).).).).).).).).).).).).).d.(.(.(.(.(.(.(.(.I.B.| ' ' } ' j k ' ' X.8.t.K.(.(.(.(.(.(.(.(.(.(./.f.U ).).).).).).).).).).).).).).).).).).).).).).).).).).).",
").).).).).).).).).).).).).).).P K.(.(.(.(.(.(.(.(.(.l.%._ y y p h ' X.X.| X.m.y.H.K./.(.(.(.(.(.(.(.(.^.v./ ).).).).).).).).).).).).).).).).).).).).).).).).).).",
").).).).).).).).).).).).).).).^ !.(.(.(.(.(.(.(.(.(.z.#.h ).% p _ ' #.%.8.%.8.M.B.t.k.K.(.(.(.(.(.(.(.(.(.J.).).).).).).).).).).).).).).).).).).).).).).).).).).",
").).).).).).).).).).).).).).).R ^.(.(.(.(.(.(.(.(./.0.} ).).).p j _ | $.*.m.M.M.M.M.B.V.h.v.^.(.(.(.(.(.(.(.K.).).).).).).).).).).).).).).).).).).).).).).).).).",
").).).).).).).).).).).).).).).4./.(.(.(.(.(.(.(.(.D.5.j ).).).).).s v | #.%.8.m.M.8.M.M.M.V.h.H.~.(.(.(.(.(.(.d.).).).).).).).).).).).).).).).).).).).).).).).).",
").).).).).).).).).).).).).).} h./.(.(.(.(.(.(.(.v.3.[ ).).).).).).).).k ' X.#.%.8.8.&.m.M.M.N.M.S.P./.(.(.I.L.g.( ).).).).).).).).).).).).).).).).).).).).).).).",
").).).).).).).).).).).).).).} z./.(.(.(.(.(.(.K.^ ' ).).).).).).).).).).f f ' X.$.%.} X.8.M.M.N.N.B.F.v.S.9.,.3./ ).).).).).).).).).).).).).).).).).).).).).).).",
").).).).).).).).).).).).).).$.0.j.k.E././.W.d.:.] p ).).).).).).).).).).).).p p _ ` ' _ ' %.8.M.M.N.M.0.%.$.$.$. .).).).).).).).).).).).).).).).).).).).).).).).",
").).).).).).).).).).).).).h 8.8.5.5.6.4.d.4.@.` p ).).).).).).).).).).).).).).).).).p j s _ $.8.m.M.M.&.%.%.%.$.} ).).).).).).).).).).).).).).).).).).).).).).).",
").).).).).).).).).).).).).h 8.%.%.%.#._ #.X.k p ).).).).).).).).).).).).).).).).).).).).y y _ %.%.8.8.%.%.%.%.$.' ).).).).).).).).).).).).).).).).).).).).).).).",
").).).).).).).).).).).).)._ 8.%.%.%.X.} %._ p ).).).).).).).).).).).).).).).).).).).).).).e k | %.%.%.%.%.%.%.X.s ).).).).).).).).).).).).).).).).).).).).).).).",
").).).).).).).).).).).).} | %.%.%.X.} #.' p ).).).).).).).).).).).).).).).).).).).).).).)._ 8.X.$.%.%.%.%.%.%.` ).).).).).).).).).).).).).).).).).).).).).).).).",
").).).).).).).).).).).).&.*.%.%.#.' o.X.u # ).).).).).).).).).).).).).).).).).).).).).).g m.N.m.#.%.%.%.%.%.X.v ).).).).).).).).).).).).).).).).).).).).).).).).",
").).).).).).).).).).).} m.8.%.%.%.%.o.X.' % ).).).).).).).).).).).).).).).).).).).).).u o.M.M.M.8.%.%.%.%.%.X.k ).).).).).).).).).).).).).).).).).).).).).).).).",
").).).).).).).).).).).%.M.*.%.%.%.%.#.%.X.t ).).).).).).).).).).).).).).).).).).).).).g 8.M.M.n.%.%.%.%.%.%.%._ ).).).).).).).).).).).).).).).).).).).).).).).).",
").).).).).).).).).).k m.n.%.%.%.%.%.%.%.$.j ).).).).).).).).).).).).).).).).).).).).).| %.8.m.%.%.%.%.%.%.%.%._ ).).).).).).).).).).).).).).).).).).).).).).).).",
").).).).).).).).).)._ M.8.%.%.%.%.%.%.%.$._ ).).).).).).).).).).).).).).).).).).).).).X.%.%.%.%.%.%.%.%.%.%.o.h ).).).).).).).).).).).).).).).).).).).).).).).).",
").).).).).).).).).)._ 8.%.%.%.%.%.%.%.%.#.j ).).).).).).).).).).).).).).).).).).).).)._ %.%.%.%.%.%.%.%.%.%.' ).).).).).).).).).).).).).).).).).).).).).).).).).",
").).).).).).).).).).) 8.%.%.%.%.%.%.%.%.} p ).).).).).).).).).).).).).).).).).).).).).a #.%.%.%.%.%.%.%.%.X.f ).).).).).).).).).).).).).).).).).).).).).).).).).",
").).).).).).).).).).p %.%.%.%.%.%.%.%.#.k ).).).).).).).).).).).).).).).).).).).).).).t ' %.%.%.%.%.%.%.$.j ).).).).).).).).).).).).).).).).).).).).).).).).).).",
").).).).).).).).).).p X.%.%.%.%.%.%.| j ).).).).).).).).).).).).).).).).).).).).).).).).f #.%.%.%.%.%.%.} ).).).).).).).).).).).).).).).).).).).).).).).).).).).",
").).).).).).).).).).% } %.%.%.%.%.} j t ).).).).).).).).).).).).).).).).).).).).).).).).t ' %.%.%.%.%.} ).).).).).).).).).).).).).).).).).).).).).).).).).).).).",
").).).).).).).).).).% X.%.%.%.%.' e ).).).).).).).).).).).).).).).).).).).).).).).).).).).j $.%.%.%.X.s ).).).).).).).).).).).).).).).).).).).).).).).).).).).).",
").).).).).).).).).).t #.%.%.#.` p ).).).).).).).).).).).).).).).).).).).).).).).).).).).).f $.%.%.#.k ).).).).).).).).).).).).).).).).).).).).).).).).).).).).).",
").).).).).).).).).)._ %.%.$.k ).).).).).).).).).).).).).).).).).).).).).).).).).).).).).)._ %.%.} _ e ).).).).).).).).).).).).).).).).).).).).).).).).).).).).).",
").).).).).).).).).h X.%.%.X.s ).).).).).).).).).).).).).).).).).).).).).).).).).).).).).j o.%.| _ m 6 7 ).).).).).).).).).).).).).).).).).).).).).).).).).).).).",
").).).).).).).).).M :.6.$.' _ e ).).).).).).).).).).).).).).).).).).).).).).).).).).).l _ %.$.X.$.-.f.c.I ).).).).).).).).).).).).).).).).).).).).).).).).).).).",
").).).).).).).).H b.b.z.=.v #.a ).).).).).).).).).).).).).).).).).).).).).).).).).).I ,.{ #.#.%.%.4.Q.(.I.u.G ).).).).).).).).).).).).).).).).).).).).).).).).).",
").).).).).).).S I.(.(./.f.@.#.j ).).).).).).).).).).).).).).).).).).).).).).).).).G x.8.X.} %.%.%.4.Q.(.(.(.K./ Z < ).).).).).).).).).).).).).).).).).).).).).).",
").).).).).).q K.(.(.(.(.~.-.j k t ).).).).).).).).).).).).).).).).).).).).).).).).2.C.` v _ X.%.%.5.z./.(.(.(./.J.! Z 7 ).).).).).).).).).).).).).).).).).).).).",
").).).).).V R.(.(.(.(.(.(.4.k X._ ).).).).).).).).).).).).).).).).).).).).).).).).X.8.X.u j X.%.%.%.6.x.!.^.(.(.(./.U.a.^ Z < ).).).).).).).).).).).).).).).).).",
").).).).Y E.(.(.(.(.(.(.(.d.#.#.' ).).).).).).).).).).).).).).).).).).).).).).).)._ %.%.X.' X.%.*.*.%.%.q.h.I.U.(.(.(.(.(.v.2.G ).).).).).).).).).).).).).).).).",
").).).f.E.(.(.(.(.(.(.(.(.K.;._ ).).).).).).).).).).).).).).).).).).).).).).).).).e ` X.} j a f f j ' } $.5.3.4.K.K.L.(.(.(.(.U.~ ).).).).).).).).).).).).).).).",
").).U.~.(.(.(.(.(.(.(.(.(.^.L ).).).).).).).).).).).).).).).).).).).).).).).).).).).).).).).).).).).).t h j _ _ M ..=.6.6.O.' v d ).).).).).).).).).).).).).).).",
").L.(.(.(.(.(.(.(.(.(.(.(.P.C ).).).).).).).).).).).).).).).).).).).).).).).).).).).).).).).).).).).).).).).).).).).).).).).).).).).).).).).).).).).).).).).).).",
"f.(.(.(.(.(.(.(.(.(.(.(.I.! + ).).).).).).).).).).).).).).).).).).).).).).).).).).).).).).).).).).).).).).).).).).).).).).).).).).).).).).).).).).).).).).).).).",
"L E.(.(.(.(.(.(.(.(.U.u.C < ).).).).).).).).).).).).).).).).).).).).).).).).).).).).).).).).).).).).).).).).).).).).).).).).).).).).).).).).).).).).).).).).).).",
"  F !.(.(.(.(./.k.Y 8 ).).).).).).).).).).).).).).).).).).).).).).).).).).).).).).).).).).).).).).).).).).).).).).).).).).).).).).).).).).).).).).).).).).).).).",
").. 6 0 , > ; ; ).).).).).).).).).).).).).).).).).).).).).).).).).).).).).).).).).).).).).).).).).).).).).).).).).).).).).).).).).).).).).).).).).).).).).).).)."
};
