/* XPM */
static char *result[] = {
/* columns rows colors chars-per-pixel */
"80 80 212 2 ",
"   c #450414",
".  c #661B16",
"X  c #6D201B",
"o  c #732615",
"O  c #4C0E21",
"+  c #4F1126",
"@  c #511126",
"#  c #55182A",
"$  c #4D1A33",
"%  c #591D34",
"&  c #641B26",
"*  c #5D2931",
"=  c #5C243D",
"-  c #782A25",
";  c #7A322F",
":  c #672436",
">  c #7B2832",
",  c #7C3937",
"<  c #7E4B3E",
"1  c #5D2947",
"2  c #622A43",
"3  c #632D49",
"4  c #7D2A47",
"5  c #67324F",
"6  c #793649",
"7  c #6A3653",
"8  c #6A3655",
"9  c #6D3B5A",
"0  c #783B58",
"q  c #5E3460",
"w  c #75425D",
"e  c #7B415B",
"r  c #7B5258",
"t  c #734263",
"y  c #7A4860",
"u  c #694873",
"i  c #744D72",
"p  c #852B18",
"a  c #8A3624",
"s  c #8D3927",
"d  c #87302E",
"f  c #8C372A",
"g  c #953B25",
"h  c #973D27",
"j  c #863734",
"k  c #A7392B",
"l  c #B93739",
"z  c #C23233",
"x  c #8F4B1B",
"c  c #AA560E",
"v  c #AC5914",
"b  c #BA5E1B",
"n  c #BA680C",
"m  c #BB7105",
"M  c #B86814",
"N  c #AF7D1C",
"B  c #9D4126",
"V  c #9B422B",
"C  c #974538",
"Z  c #A94524",
"A  c #A4462A",
"S  c #A74928",
"D  c #AC4B2B",
"F  c #B04D27",
"G  c #B14E2D",
"H  c #A95429",
"J  c #B3512C",
"K  c #B9562F",
"L  c #BC582E",
"P  c #A24931",
"I  c #A24837",
"U  c #AA4D32",
"Y  c #B04435",
"T  c #AE5434",
"R  c #B55332",
"E  c #B85532",
"W  c #B55935",
"Q  c #BD5B34",
"!  c #B85639",
"~  c #B6593B",
"^  c #BC5C3A",
"/  c #94652B",
"(  c #B26227",
")  c #BE623B",
"_  c #C44E1E",
"`  c #D7770E",
"'  c #C97415",
"]  c #C15E35",
"[  c #C15E3A",
"{  c #C4692B",
"}  c #C97C29",
"|  c #C56234",
" . c #CD6D31",
".. c #C5633B",
"X. c #C9653C",
"o. c #CD6A3D",
"O. c #D16D3F",
"+. c #D07936",
"@. c #863C47",
"#. c #973C4F",
"$. c #813D58",
"%. c #A43D56",
"&. c #86434A",
"*. c #994943",
"=. c #904D4F",
"-. c #874851",
";. c #84415D",
":. c #985956",
">. c #BC4144",
",. c #A75447",
"<. c #BC5E46",
"1. c #B75949",
"2. c #A4565C",
"3. c #B25956",
"4. c #95734C",
"5. c #B86446",
"6. c #A96457",
"7. c #B86859",
"8. c #A67D53",
"9. c #854264",
"0. c #894866",
"q. c #984A65",
"w. c #89596C",
"e. c #995072",
"r. c #A45163",
"t. c #A55669",
"y. c #A95B75",
"u. c #B35F78",
"i. c #996C6C",
"p. c #886679",
"a. c #947974",
"s. c #AD6D6D",
"d. c #B76876",
"f. c #C65645",
"g. c #CD5D57",
"h. c #C56342",
"j. c #C96542",
"k. c #CE6B42",
"l. c #C66949",
"z. c #D16E41",
"x. c #D5684A",
"c. c #D67342",
"v. c #D97544",
"b. c #D57449",
"n. c #D6794D",
"m. c #DA7C4F",
"M. c #C87452",
"N. c #D77C52",
"B. c #D86E68",
"V. c #C37E69",
"C. c #CB7778",
"Z. c #D7890E",
"A. c #D18C0E",
"S. c #C78117",
"D. c #D8871A",
"F. c #D68D2E",
"G. c #E0B338",
"H. c #A48754",
"J. c #A88A7B",
"K. c #DB875E",
"L. c #DD8763",
"P. c #E39171",
"I. c #5A569D",
"U. c #774F89",
"Y. c #6F568C",
"T. c #7F668C",
"R. c #786D9B",
"E. c #485EBD",
"W. c #7D78A0",
"Q. c #A85A92",
"!. c #846786",
"~. c #906E8A",
"^. c #837497",
"/. c #A86882",
"(. c #AE7E8A",
"). c #897BA3",
"_. c #927FA7",
"`. c #B06BB2",
"'. c #B0B098",
"]. c #8D86AB",
"[. c #9893B7",
"{. c #A78BAD",
"}. c #A394B2",
"|. c #A9A6A4",
" X c #B5B2AD",
".X c #A6A5BC",
"XX c #B4B4B6",
"oX c #CCB497",
"OX c #C8C7A9",
"+X c #C8C2BB",
"@X c #D4D5B4",
"#X c #D5D5BB",
"$X c #9B9BCA",
"%X c #A59CC8",
"&X c #A9A5C9",
"*X c #BAB9C9",
"=X c #A7A8D5",
"-X c #B9B9D6",
";X c #BABAE1",
":X c #C4BEDD",
">X c #C7C5C9",
",X c #CBCBCC",
"<X c #DADAC3",
"1X c #CACAD5",
"2X c #D1D1D6",
"3X c #E5E5C6",
"4X c #EAEADA",
"5X c #C3C3E4",
"6X c #C7C7EB",
"7X c #F3F3EA",
"8X c #F6F6F5",
"9X c None",
/* pixels */
"9X9X9X9X9X9X9X9X9X9X9X9X9X9X9X9X9X9X9X9X9X9X9X9X9X9X9X9X9X9X9X9X9X9X9X9X9X9X9X9X9X9X9X9X9X9X9X9X9X9X9X9X9X9X9X9X9X9X9X9X9X9X9X9X9X9X9X9X9X9X9X9X9X9X9X9X9X9X9X9X",
"9X9X9X9X9X9X9X9X9X9X9X9X9X9X9X9X9X9X9X9X9X9X9X9X9X9X9X9X9X9X9X9X9X9X9X9X9X9X9X9X9X9X9X9X9X9X9X9X9X9X9X9X9X9X9X9X9X9X9X9X9X9X9X9X9X9X9X9X9X9X9X9X9X9X9X9X9X9X9X9X",
"9X9X9X9X9X9X9X9X9X9X9X9X9X9X9X9X9X9X9X9X9X9X9X9X9X9X9X9X9X9X9X9X9X9X9X9X9X9X9X9X9X9X9X9X9X9X9X9X9X9X9X9X9X9X9X9X9X9X9X9X9X9X9X9X9X9X9X9X9X9X9X9X9X9X9X9X9X9X9X9X",
"9X9X9X9X9X9X9X9X9X9X9X9X9X9X9X9X9X9X9X9X9X9X9X9X9X9X9X9X9X9X9X9X9X9X9X9X9X9X9X9X9X9X9X9X9X9X9X9X9X9X9X9X9X9X9X9X9X9X9X9X9X9X9X9X9X9X9X9X9X9X9X9X9X9X9X9X9X9X9X9X",
"9X9X9X9X9X9X9X9X9X9X9X9X9X9X9X9X9X9X9X9X9X9X9X9X9X9X9X9X9X9X9X9X9X9X9X9X9X9X9X9X9X9X9X9X9X9X9X9X9X9X9X9X9X9X9X9X9X9X9X9X9X9X9X9X9X9X9X9X9X9X9X9X9X9X9X9X9X9X9X9X",
"9X9X9X9X9X9X9X9X9X9X9X9X9X9X9X9X9X9X9X9X9X9X9X9X9X9X9X9X9X9X9X9X9X9X9X9X9X9X9X9X9X9X9X9X9X9X9X9X9X9X9X9X9X9X9X9X9X9X9X9X9X9X9X9X9X9X9X9X9X9X9X9X9X9X9X9X9X9X9X9X",
"9X9X9X9X9X9X9X9X9X9X9X9X9X9X9X9X9X9X9X9X9X9X9X9X9X9X9X9X9X9X9X9X9X9X9X9X9X9X9X9X9X9X9X9X9X9X9X9X9X9X9X9X9X9X9X9X9X9X9X9X9X9X9X9X9X9X9X9X9X9X9X9X9X9X9X9X9X9X9X9X",
"9X9X9X9X9X9X9X9X9X9X9X9X9X9X9X9X9X9X9X9X9X9X9X9X9X9X9X9X9X9X9X9X9X9X9X9X9X9X9X9X9X9X9X9X9X9X9X9X9X9X9X9X9X9X9X9X9X9X9X9X9X9X9X9X9X9X9X9X9X9X9X9X9X9X9X9X9X9X9X9X",
"9X9X9X9X9X9X9X9X9X9X9X9X9X9X9X9X9X9X9X9X9X9X9X9X9X9X9X9X9X9X9X9X9X9X9X9X9X9X9X9X9X9X9X9X9X9X9X9X9X9X9X9X9X9X9X9X9X9X9X9X9X9X9X9X9X9X9X9X9X9X9X9X9X9X9X9X9X9X9X9X",
"9X9X9X9X9X9X9X9X9X9X9X9X9X9X9X9X9X9X9X9X9X9X9X9X9X9X9X9X9X9X9X9X9X9X9X9X9X9X9X9X9X9X9X9X9X9X9X9X9X9X9X9X9X9X9X9X9X9X9X9X9X9X9X9X9X9X9X9X9X9X9X9X9X9X9X9X9X9X9X9X",
"9X9X9X9X9X9X9X9X9X9X9X9X9X9X9X9X9X9X9X9X9X9X9X9X9X9X9X9X9X9X9X9X9X9X9X9X9X9X9X9X9X9X9X9X9X9X9X9X9X9X9X9X9X9X9X9X9X9X9X9X9X9X9X9X9X9X9X9X9X9X9X9X9X9X9X9X9X9X9X9X",
"9X9X9X9X9X9X9X9X9X9X9X9X9X9X9X9X9X9X9X9X9X9X9X9X9X9X9X9X9X9X9X9X9X9X9X9X9X9X9X9X9X9X9X9X9X9X9X9X9X9X9X9X9X9X9X9X9X9X9X9X9X9X9X9X9X9X9X9X9X9X9X9X9X9X9X9X9X9X9X9X",
"9X9X9X9X9X9X9X9X9X9X9X9X9X9X9X9X9X9X9X9X9X9X9X9X9X9X9X9X9X9X9X9X9X9X9X9X9X9X9X9X9X9X9X9X9X9X9X9X9X9X9X9X9X9X9X9XOX7X4X9X9X9X9X9X9X9X9X9X9X9X9X9X9X9X9X9X9X9X9X9X",
"9X9X9X9X9X9X9X9X9X9X9X9X9X9X9X9X9X9X9X9X9X9X9X9X9X9X9X9X9X9X9X9X9X9X9X9X9X9X9X9X9X9X9X9X9X9X9X9X9X9X9X9X9X9X9X&X4X8X8X8X8X#X9X9X9X9X9X9X9X9X9X9X9X9X9X9X9X9X9X9X",
"9X9X9X9X9X9X9X9X9X9X9X9X9X9X9X9X9X9X9X9X9X9X9X9X9X9X9X9X9X9X9X9X9X9X9X9X9X9X9X9X9X9X9X9X9X9X9X9X9X9X9X9X9X9X$X=X,X4X7X8X7X3XOX9X9X9X9X9X9X9X9X9X9X9X9X9X9X9X9X9X",
"9X9X9X9X9X9X9X9X9X9X9X9X9X9X9X9X9X9X9X9X9X9X9X9X9X9X9X9X9X9X9X9X9X9X9X9X9X9X9X9X9X9X9X9X9X9X9X9X9X9X9X9X9X[.;X5X-X>X<X<X3X3X#X.X9X9X9X9X9X9X9X9X9X9X9X9X9X9X9X9X",
"9X9X9X9X9X9X9X9X9X9X9X9X9X9X9X9X9X9X9X9X9X9X9X9X9X9X9X9X9X9X9X9X9X9X9X9X9X9X9X9X9X9X9X9X9X9X9X9X9X9X9X9X9X$X6X5X-X6X X+X2X1X1X-X9X9X9X9X9X9X9X9X9X9X9X9X9X9X9X9X",
"9X9X9X9X9X9X9X9X9X9X9X9X9X9X9X9X9X9X9X9X9X9X9X9X9X9X9X9X9X9X9X9X9X9X9X9X9X9X9X9X9X9X9X9X9X9XJ X.j.E 9X9X9X9X=Xp.{.5XV.:.&X-XXX*X9X9X9X9X9X9X9X9X9X9X9X9X9X9X9X9X",
"9X9X9X9X9X9X9X9X9X9X9X9X9X9X9X9X9X9X9X9X9X9X9X9X9X9X9X9X9X9X9X9X9X9X9X9X9X9X9X9X9X9X9XE S W c.K.L.c.S.H.B.G.i.f :.[.7.- p..X|.&X9X9X9X9X9X9X9X9X9X9X9X9X9X9X9X9X",
"9X9X9X9X9X9X9X9X9X9X9X9X9X9X9X9X9X9X9X9X9X9X9X9X9X9X9X9X9X9X9X9X9X9X9X9X9XU Q j.j.h.l.E Q O.v.P.P.m.X.i.B.D.| f a s.6.w.w ,.r 9X9X9X9X9X9X9X9X9X9X9X9X9X9X9X9X9X",
"9X9X9X9X9X9X9X9X9X9X9X9X9X9X9X9X9X9X9X9X9X9X9X9X9X9X9X9X9X9X9X9XW | ....X.c.c.c.z.h.V.F.c.c.b.N.N.b.c.:.>.` b R f h.7.k.k.h 9X9X9X9X9X9X9X9X9X9X9X9X9X9X9X9X9X9X",
"9X9X9X9X9X9X9X9X9X9X9X9X9X9X9X9X9X9X9X9X9X9X9X9X9X9X9X9X9X9X9XR z.c.c.c.c.o.c.k.z.o.d.F.o.v.c.c.c.c.z.T.U._ n X - [ j.~ P . 9X9X9X9X9X9X9X9X9X9X9X9X9X9X9X9X9X9X",
"9X9X9X9X9X9X9X9X9X9X9X9X9X9X9X9X9X9X9X9X9X9X9X9X9X9X9X9X9X9X9XQ c.c.c.c.o.^ z.c.c.O.C.} | O.O.O.c.c.H r E.y H a 9Xp f . 9X9X9X9X9X9X9X9X9X9X9X9X9X9X9X9X9X9X9X9X",
"9X9X9X9X9X9X9X9X9X9X9X9X9X9X9X9X9X9X9X9X9X9X9X9X9X9X9X9X9X9X9XQ c.c.c.c.X.V Q | ..l.7.5.5.*., , , , x m =./ { ..9X9X9X9X9X9X9X9X9X9X9X9X9X9X9X9X9X9X9X9X9X9X9X9X",
"9X9X9X9X9X9X9X9X9X9X9X9X9X9X9X9X9X9X9X9X9X9X9X9X9X9X9X9X9X9X9XQ c.c.c.c...^ c.c.n.oX>X:X:X*X-X+XOXOXoXN m x ~ v.R 9X9X9X9X9X9X9X9X9X9X9X9X9X9X9X9X9X9X9X9X9X9X9X",
"9X9X9X9X9X9X9X9X9X9X9X9X9X9X9X9X9X9X9X9X9X9X9X9X9X9X9X9X9X9X9X9Xc.c.c.c.k.c.c.c.c.L.+X6X-X*X1X@X@X@XOXoX4.: 1.c.V 9X9X9X9X9X9X9X9X9X9X9X9X9X9X9X9X9X9X9X9X9X9X9X",
"9X9X9X9X9X9X9X9X9X9X9X9X9X9X9X9X9X9X9X9X9X9X9X9X9X9X9X9X9X9X9X9Xo.c.c.c.k.c.c.z.z.c.N.oX|.5X,X@X@XOX@X@Xa.% : 0 : 9X9X9X9X9X9X9X9X9X9X9X9X9X9X9X9X9X9X9X9X9X9X9X",
"9X9X9X9X9X9X9X9X9X9X9X9X9X9X9X9X9X9X9X9X9X9X9X9X9X9X9X9X9X9X9XD ..c.c.c.k.z.7.3.3.3.R J J.6X1X#X@X'.@X@Xa.9.0 @ 9X9X9X9X9X9X9X9X9X9X9X9X9X9X9X9X9X9X9X9X9X9X9X9X",
"9X9X9X9X9X9X9X9X9X9X9X9X9X9X9X9X9X9X9X9X9X9X9X9X9X9X9X9X9X9X9XX.o.c.c.c.l.7.r.r.r.r.I p < XX>X,XXX*X2XOX8.&.$.9X9X9X9X9X9X9X9X9X9X9X9X9X9X9X9X9X9X9X9X9X9X9X9X9X",
"9X9X9X9X9X9X9X9X9X9X9X9X9X9X9X9X9X9X9X9X9X9X9X9X9X9X9X9X9Xk.c.c.z.j.d.u.7.{.y.t.2.I 9X9X9X9X9X9X'.|.|.J.6.( H 9X9X9X9X9X9X9X9X9X9X9X9X9X9X9X9X9X9X9X9X9X9X9X9X9X",
"9X9X9X9X9X9X9X9X9X9X9X9X9X9X9X9X9X9X9X9X9X9X9X9X9X9X9X9X9Xz.c.c.| y.`.Q.d.&X%X%X{.9X9X9X9X9X9X9X9X9X* ;.9.e.e.9X9X9X9X9X9X9X9X9X9X9X9X9X9X9X9X9X9X9X9X9X9X9X9X9X",
"9X9X9X9X9X9X9X9X9X9X9X9X9X9X9X9X9X9X9X9X9X9X9X9X9X9X9X9XX.c.c.c.l.Q.} A.+.%X$X$X).9X9X9X9X9X9X9X9X9Xd ;.9.;.C 9X9X9X9X9X9X9X9X9X9X9X9X9X9X9X9X9X9X9X9X9X9X9X9X9X",
"9X9X9X9X9X9X9X9X9X9X9X9X9X9X9X9X9X9X9X9X9X9X9X9X9X9X9X9X..c.c.N.b.+.Z.{ ) }.=X$Xi 9 3 # 9X9X9X9X9X9X*.$.9.0 ; 9X9X9X9X9X9X9X9X9X9X9X9X9X9X9X9X9X9X9X9X9X9X9X9X9X",
"9X9X9X9X9X9X9X9X9X9X9X9X9X9X9X9X9X9X9X9X9X9X9X9X9X9X9X9X..c.b.K.c.{ x.g.f.(.=X[.t t t 7 2 9X9X9X9X9X6 6 @.6 : 9X9X9X9X9X9X9XP R R R U 9X9X9X9X9X9X9X9X9X9X9X9X9X",
"9X9X9X9X9X9X9X9X9X9X9X9X9X9X9X9X9X9X9X9X9X9X9X9X9X9X9X9XQ o.m.L.c.X./.W.!.s.=X!.t t t t t 9 2 9X9X9X@.;.*.~ 1.~ C s 9X9X9Xs ^ j.^ V h s A h 9X9X9X9X9X9X9X9X9X9X",
"9X9X9X9X9X9X9X9X9X9X9X9X9X9X9X9X9X9X9X9X9X9X9X9X9X9X9X9XE z.m.L.b.h.R.6.T ; _.i t t t t t t t 5 9X9X@.0.<.j.j.l.q.M c & $ U j.h.T ~ U U [ U 9X9X9X9X9X9X9X9X9X9X",
"9X9X9X9X9X9X9X9X9X9X9X9X9X9X9X9X9X9X9X9X9X9X9X9X9X9X9X9X9XO.m.K.c.^ ,.c.z.T =.t t t t t t t t t 8 % 6 0.<.h.h.,.q.n Y Y.w...h.W R ~ ^ R f 9X9X9X9X9X9X9X9X9X9X9X",
"9X9X9X9X9X9X9X9X9X9X9X9X9X9X9X9X9X9X9X9X9X9X9X9X9X9X9X9X9Xo.n.n.c.z.[ c.c.v.) 6 t t t t t t t t t 8 @ @.<.h.h.,.q.c k u ,.j.h.^ V a a a 9X9X9X9X9X9X9X9X9X9X9X9X",
"9X9X9X9X9X9X9X9X9X9X9X9X9X9X9X9X9X9X9X9X9X9X9X9X9X9X9X9X9XO.n.n.c.z.T c.c.c.c.T 0 t t t t t t t t t 3 & A V V h & . . $ - V V V 9X9X9X9X9X9X9X9X9X9X9X9X9X9X9X9X",
"9X9X9X9X9X9X9X9X9X9X9X9X9X9X9X9X9X9X9X9X9X9X9X9X9X9X9X9X9XO.c.c.c.c.^ c.c.c.z.^ 6 t t t t t t t t t w j g 9X9X9X9X9X9X9X9X9X9X9X9X9X9X9X9X9X9X9X9X9X9X9X9X9X9X9X",
"9X9X9X9X9X9X9X9X9X9X9X9X9X9X9X9X9X9X9X9X9X9X9X9X9X9X9X9X9XO.c.c.c.c...X.c.c.X.C 0 t t t t t t t t t e D D D 9X9X9X9X9X9X9X9X9X9X9X9X9X9X9X9X9X9X9X9X9X9X9X9X9X9X",
"9X9X9X9X9X9X9X9X9X9X9X9X9X9X9X9X9X9X9X9X9X9X9X9X9X9X9X9X9Xz.c.c.c.c...| v.c...9X= 9 t t t t t t t t e D R R D 9X9X9X9X9X9X9X9X9X9X9X9X9X9X9X9X9X9X9X9X9X9X9X9X9X",
"9X9X9X9X9X9X9X9X9X9X9X9X9X9X9X9X9X9X9X9X9X9X9X9X9X9X9X9X9Xz.c.c.c.c.c.^ W v.W 9X9X@ 3 t t t t t t t e D R R R G 9X9X9X9X9X9X9X9X9X9X9X9X9X9X9X9X9X9X9X9X9X9X9X9X",
"9X9X9X9X9X9X9X9X9X9X9X9X9X9X9X9X9X9X9X9X9X9X9X9X9X9X9X9X9X^ z.c.c.c.c.z.P W V 9X9X9X9X% 7 t t t t t e P R R R R D 9X9X9X9X9X9X9X9X9X9X9X9X9X9X9X9X9X9X9X9X9X9X9X",
"9X9X9X9X9X9X9X9X9X9X9X9X9X9X9X9X9X9X9X9X9X9X9X9X9X9X9X9X9X^ z.c.c.c.c.c.X.h 9X9X9X9X9X9X9X= 5 t t t t -.D R R R D 9X9X9X9X9X9X9X9X9X9X9X9X9X9X9X9X9X9X9X9X9X9X9X",
"9X9X9X9X9X9X9X9X9X9X9X9X9X9X9X9X9X9X9X9X9X9X9X9X9X9X9X9X9X^ X.c.c.c.c.c.O.9X9X9X9X9X9X9X9X9X9X@ 7 8 t t &.G R R D 9X9X9X9X9X9X9X9X9X9X9X9X9X9X9X9X9X9X9X9X9X9X9X",
"9X9X9X9X9X9X9X9X9X9X9X9X9X9X9X9X9X9X9X9X9X9X9X9X9X9X9X9X9X! E z.c.c.c.c.c.9X9X9X9X9X9X9X9X9X9X9X9XO = t t *.J R D 9X9X9X9X9X9X9X9X9X9X9X9X9X9X9X9X9X9X9X9X9X9X9X",
"9X9X9X9X9X9X9X9X9X9X9X9X9X9X9X9X9X9X9X9X9X9X9X9X9X9X9X9X9X! ^ k.c.c.c.c.] 9X9X9X9X9X9X9X9X9X9X9X9X9X  = 9 t I R A 9X9X9X9X9X9X9X9X9X9X9X9X9X9X9X9X9X9X9X9X9X9X9X",
"9X9X9X9X9X9X9X9X9X9X9X9X9X9X9X9X9X9X9X9X9X9X9X9X9X9X9X9X9XR ^ [ c.c.c.c.K 9X9X9X9X9X9X9X9X9X9X9X9X9X+ 2 = 3 &.A B 9X9X9X9X9X9X9X9X9X9X9X9X9X9X9X9X9X9X9X9X9X9X9X",
"9X9X9X9X9X9X9X9X9X9X9X9X9X9X9X9X9X9X9X9X9X9X9X9X9X9X9X9XR [ h.[ c.c.c.X.9X9X9X9X9X9X9X9X9X9X9X9X9X9X1 t 9 7 t C J 9X9X9X9X9X9X9X9X9X9X9X9X9X9X9X9X9X9X9X9X9X9X9X",
"9X9X9X9X9X9X9X9X9X9X9X9X9X9X9X9X9X9X9X9X9X9X9X9X9X9X9X..k.h.h...c.c.o.J 9X9X9X9X9X9X9X9X9X9X9X9X9X9X2 t t t t C G Z 9X9X9X9X9X9X9X9X9X9X9X9X9X9X9X9X9X9X9X9X9X9X",
"9X9X9X9X9X9X9X9X9X9X9X9X9X9X9X9X9X9X9X9X9X9X9X9X9X9XX.v.o.j.h.j.c.c.K 9X9X9X9X9X9X9X9X9X9X9X9X9X9X9Xd #.e e 0 #.l k 9X9X9X9X9X9X9X9X9X9X9X9X9X9X9X9X9X9X9X9X9X9X",
"9X9X9X9X9X9X9X9X9X9X9X9X9X9X9X9X9X9X9X9X9X9X9X9X9X2.f.f.f.^ ..j.X.Q 9X9X9X9X9X9X9X9X9X9X9X9X9X9X9X9Xq q.l z z %.0.C 9X9X9X9X9X9X9X9X9X9X9X9X9X9X9X9X9X9X9X9X9X9X",
"9X9X9X9X9X9X9X9X9X9X9X9X9X9X9X9X9X9X9X9X9X9X9X9X9X).^.R.~.f.[ h.R 9X9X9X9X9X9X9X9X9X9X9X9X9X9X9X9X9X1 I.Y.U.U.I.=.F 9X9X9X9X9X9X9X9X9X9X9X9X9X9X9X9X9X9X9X9X9X9X",
"9X9X9X9X9X9X9X9X9X9X9X9X9X9X9X9X9X9X9X9X9X9X9X9X[ M.M.6.].R.1.Q G 9X9X9X9X9X9X9X9X9X9X9X9X9X9X9X9X9X@ 8 u u u 1 &.S 9X9X9X9X9X9X9X9X9X9X9X9X9X9X9X9X9X9X9X9X9X9X",
"9X9X9X9X9X9X9X9X9X9X9X9X9X9X9X9X9X9X9X9X9X9X9X9Xk.c.c.c.X.^.^.f.9X9X9X9X9X9X9X9X9X9X9X9X9X9X9X9X9X9X9X# 9 t 2 8 w V 9X9X9X9X9X9X9X9X9X9X9X9X9X9X9X9X9X9X9X9X9X9X",
"9X9X9X9X9X9X9X9X9X9X9X9X9X9X9X9X9X9X9X9X9X9X9XF o.c.c.c.c.5.W./.9X9X9X9X9X9X9X9X9X9X9X9X9X9X9X9X9X9X9X9XO = 5 t w A 9X9X9X9X9X9X9X9X9X9X9X9X9X9X9X9X9X9X9X9X9X9X",
"9X9X9X9X9X9X9X9X9X9X9X9X9X9X9X9X9X9X9X9X9X9X9X] c.c.c.c.c.z.5.:.9X9X9X9X9X9X9X9X9X9X9X9X9X9X9X9X9X9X9X9X9X# t t t C 9X9X9X9X9X9X9X9X9X9X9X9X9X9X9X9X9X9X9X9X9X9X",
"9X9X9X9X9X9X9X9X9X9X9X9X9X9X9X9X9X9X9X9X9X9X9X[ c.c.c.c.z.k.L 9X9X9X9X9X9X9X9X9X9X9X9X9X9X9X9X9X9X9X9X9X9X9X5 t t -.A 9X9X9X9X9X9X9X9X9X9X9X9X9X9X9X9X9X9X9X9X9X",
"9X9X9X9X9X9X9X9X9X9X9X9X9X9X9X9X9X9X9X9X9X9X9Xh.k.k.k.k.j.9X9X9X9X9X9X9X9X9X9X9X9X9X9X9X9X9X9X9X9X9X9X9X9X9X3 t t 0 H 9X9X9X9X9X9X9X9X9X9X9X9X9X9X9X9X9X9X9X9X9X",
"9X9X9X9X9X9X9X9X9X9X9X9X9X9X9X9X9X9X9X9X9X9XG h.j.z.c.z...9X9X9X9X9X9X9X9X9X9X9X9X9X9X9X9X9X9X9X9X9X9X9X9X9X% &.4 V c 9X9X9X9X9X9X9X9X9X9X9X9X9X9X9X9X9X9X9X9X9X",
"9X9X9X9X9X9X9X9X9X9X9X9X9X9X9X9X9X9X9X9X9X9X..z.c.c.c.c.9X9X9X9X9X9X9X9X9X9X9X9X9X9X9X9X9X9X9X9X9X9X9X9X9X9Xo n v n c a 9X9X9X9X9X9X9X9X9X9X9X9X9X9X9X9X9X9X9X9X",
"9X9X9X9X9X9X9X9X9X9X9X9X9X9X9X9X9X9X9X9X9X9X..c.c.c.o.9X9X9X9X9X9X9X9X9X9X9X9X9X9X9X9X9X9X9X9X9X9X9X9X9X9X9X& > v M x S G Z 9X9X9X9X9X9X9X9X9X9X9X9X9X9X9X9X9X9X",
"9X9X9X9X9X9X9X9X9X9X9X9X9X9X9X9X9X9X9X9X9X9Xz.c.c.c.| 9X9X9X9X9X9X9X9X9X9X9X9X9X9X9X9X9X9X9X9X9X9X9X9X9X9X9XA - w y 3 g R R A B 9X9X9X9X9X9X9X9X9X9X9X9X9X9X9X9X",
"9X9X9X9X9X9X9X9X9X9X9X9X9X9X9X9X9X9X9X9X9XK c.c.c.z.9X9X9X9X9X9X9X9X9X9X9X9X9X9X9X9X9X9X9X9X9X9X9X9X9X9X9X9XD - 7 8 : A R R R R D V g Z Z Z 9X9X9X9X9X9X9X9X9X9X",
"9X9X9X9X9X9X9X9X9X9X9X9X9X9X9X9X9X9X9X9X9XE | | c...9X9X9X9X9X9X9X9X9X9X9X9X9X9X9X9X9X9X9X9X9X9X9X9X9X9X9X9XD @.% % 6 U R R R R R R G G R G B 9X9X9X9X9X9X9X9X9X",
"9X9X9X9X9X9X9X9X9X9X9X9X9X9X9X9X9X9X9X9X9X' A.Z.D.F 9X9X9X9X9X9X9X9X9X9X9X9X9X9X9X9X9X9X9X9X9X9X9X9X9X9X9X9XD &.t t 8 - A G G G G G D h h h 9X9X9X9X9X9X9X9X9X9X",
"9X9X9X9X9X9X9X9X9X9X9X9X9X9X9X9X9X9X9X9X' Z.S.' Z.b 9X9X9X9X9X9X9X9X9X9X9X9X9X9X9X9X9X9X9X9X9X9X9X9X9X9X9X9XB , 3 3 = X a a a a a a a 9X9X9X9X9X9X9X9X9X9X9X9X9X",
"9X9X9X9X9X9X9X9X9X9X9X9X9X9X9X9X9X9X9X9X .D.D.Z.' 9X9X9X9X9X9X9X9X9X9X9X9X9X9X9X9X9X9X9X9X9X9X9X9X9X9X9X9X9X9X9X9X9X9X9X9X9X9X9X9X9X9X9X9X9X9X9X9X9X9X9X9X9X9X9X",
"9X9X9X9X9X9X9X9X9X9X9X9X9X9X9X9X9X9X9XE O...X.Q J 9X9X9X9X9X9X9X9X9X9X9X9X9X9X9X9X9X9X9X9X9X9X9X9X9X9X9X9X9X9X9X9X9X9X9X9X9X9X9X9X9X9X9X9X9X9X9X9X9X9X9X9X9X9X9X",
"9X9X9X9X9X9X9X9X9X9X9X9X9X9X9X9X9X9X9X] c...o.X.X.R 9X9X9X9X9X9X9X9X9X9X9X9X9X9X9X9X9X9X9X9X9X9X9X9X9X9X9X9X9X9X9X9X9X9X9X9X9X9X9X9X9X9X9X9X9X9X9X9X9X9X9X9X9X9X",
"9X9X9X9X9X9X9X9X9X9X9X9X9X9X9X9X9X9X9XX.o.o.X.z.c.o.9X9X9X9X9X9X9X9X9X9X9X9X9X9X9X9X9X9X9X9X9X9X9X9X9X9X9X9X9X9X9X9X9X9X9X9X9X9X9X9X9X9X9X9X9X9X9X9X9X9X9X9X9X9X",
"9X9X9X9X9X9X9X9X9X9X9X9X9X9X9X9X9X9X| c.] o.O.c.c.c.X.Q R R 9X9X9X9X9X9X9X9X9X9X9X9X9X9X9X9X9X9X9X9X9X9X9X9X9X9X9X9X9X9X9X9X9X9X9X9X9X9X9X9X9X9X9X9X9X9X9X9X9X9X",
"9X9X9X9X9X9X9X9X9X9X9X9X9X9X9X9X9X9XX.c.o.o.c.c.c.c.c.X.o.o.W 9X9X9X9X9X9X9X9X9X9X9X9X9X9X9X9X9X9X9X9X9X9X9X9X9X9X9X9X9X9X9X9X9X9X9X9X9X9X9X9X9X9X9X9X9X9X9X9X9X",
"9X9X9X9X9X9X9X9X9X9X9X9X9X9X9X9X9X9Xk.c.c.z.z.c.c.c.c.c.o.] A 9X9X9X9X9X9X9X9X9X9X9X9X9X9X9X9X9X9X9X9X9X9X9X9X9X9X9X9X9X9X9X9X9X9X9X9X9X9X9X9X9X9X9X9X9X9X9X9X9X",
"9X9X9X9X9X9X9X9X9X9X9X9X9X9X9X9X9X9X..z.O.o.E ..X.X...K F 9X9X9X9X9X9X9X9X9X9X9X9X9X9X9X9X9X9X9X9X9X9X9X9X9X9X9X9X9X9X9X9X9X9X9X9X9X9X9X9X9X9X9X9X9X9X9X9X9X9X9X",
"9X9X9X9X9X9X9X9X9X9X9X9X9X9X9X9X9X9X9XR R 9X9Xa a a 9X9X9X9X9X9X9X9X9X9X9X9X9X9X9X9X9X9X9X9X9X9X9X9X9X9X9X9X9X9X9X9X9X9X9X9X9X9X9X9X9X9X9X9X9X9X9X9X9X9X9X9X9X9X",
"9X9X9X9X9X9X9X9X9X9X9X9X9X9X9X9X9X9X9X9X9X9X9X9X9X9X9X9X9X9X9X9X9X9X9X9X9X9X9X9X9X9X9X9X9X9X9X9X9X9X9X9X9X9X9X9X9X9X9X9X9X9X9X9X9X9X9X9X9X9X9X9X9X9X9X9X9X9X9X9X",
"9X9X9X9X9X9X9X9X9X9X9X9X9X9X9X9X9X9X9X9X9X9X9X9X9X9X9X9X9X9X9X9X9X9X9X9X9X9X9X9X9X9X9X9X9X9X9X9X9X9X9X9X9X9X9X9X9X9X9X9X9X9X9X9X9X9X9X9X9X9X9X9X9X9X9X9X9X9X9X9X",
"9X9X9X9X9X9X9X9X9X9X9X9X9X9X9X9X9X9X9X9X9X9X9X9X9X9X9X9X9X9X9X9X9X9X9X9X9X9X9X9X9X9X9X9X9X9X9X9X9X9X9X9X9X9X9X9X9X9X9X9X9X9X9X9X9X9X9X9X9X9X9X9X9X9X9X9X9X9X9X9X"
};
