/* XPM */
static char *result[] = {
/* columns rows colors chars-per-pixel */
"80 80 214 2 ",
"   c #450415",
".  c #4C0A18",
"X  c #5E1716",
"o  c #631719",
"O  c #77261E",
"+  c #7E3213",
"@  c #52152B",
"#  c #5D192C",
"$  c #571C34",
"%  c #591E34",
"&  c #5D2335",
"*  c #5C233D",
"=  c #6B2725",
"-  c #7B2B22",
";  c #782825",
":  c #652637",
">  c #762E32",
",  c #7D3539",
"<  c #572743",
"1  c #582E52",
"2  c #5D3050",
"3  c #632B43",
"4  c #652D48",
"5  c #782F41",
"6  c #6B3246",
"7  c #66314D",
"8  c #7B3944",
"9  c #673353",
"0  c #6B3857",
"q  c #723C57",
"w  c #7D4153",
"e  c #7C435B",
"r  c #76485C",
"t  c #734263",
"y  c #744669",
"u  c #6A4871",
"i  c #734070",
"p  c #7A5478",
"a  c #8A381B",
"s  c #802E23",
"d  c #853123",
"f  c #8B3524",
"g  c #8F3926",
"h  c #8D3829",
"j  c #923A24",
"k  c #923926",
"l  c #983E28",
"z  c #873934",
"x  c #983A3B",
"c  c #A73A33",
"v  c #BA3C3B",
"b  c #C7362C",
"n  c #984D0A",
"m  c #9B461A",
"M  c #A8580B",
"N  c #A64B1C",
"B  c #AF5D10",
"V  c #B75D18",
"C  c #B6680A",
"Z  c #B36517",
"A  c #9E4328",
"S  c #9C432A",
"D  c #9E4634",
"F  c #92433C",
"G  c #9B463A",
"H  c #AB4827",
"J  c #A3462B",
"K  c #AA452B",
"L  c #A6492D",
"P  c #AD4B2C",
"I  c #B14E2D",
"U  c #B3522F",
"Y  c #B8532D",
"T  c #A64C31",
"R  c #A94E36",
"E  c #B14F30",
"W  c #AD5131",
"Q  c #B55231",
"!  c #B75736",
"~  c #B65934",
"^  c #BD5B35",
"/  c #BC5D38",
"(  c #BF6039",
")  c #CE7315",
"_  c #CC7917",
"`  c #D27F1A",
"'  c #C44A2D",
"]  c #C25E36",
"[  c #C15E39",
"{  c #C7583F",
"}  c #C96928",
"|  c #C77727",
" . c #C76336",
".. c #C5633A",
"X. c #C9663C",
"o. c #CD6A3D",
"O. c #D06D3E",
"+. c #D4723D",
"@. c #D8713E",
"#. c #893C4C",
"$. c #854347",
"%. c #8D4345",
"&. c #99474A",
"*. c #814251",
"=. c #8B5550",
"-. c #995A57",
";. c #A54648",
":. c #AD5349",
">. c #A34E5A",
",. c #B35856",
"<. c #AB684E",
"1. c #B96C4A",
"2. c #B86958",
"3. c #8A5D6C",
"4. c #894771",
"5. c #A2586C",
"6. c #A95A72",
"7. c #996865",
"8. c #956C79",
"9. c #A76C68",
"0. c #AF716E",
"q. c #B97566",
"w. c #A86273",
"e. c #CB5643",
"r. c #D05A4F",
"t. c #C36544",
"y. c #C96642",
"u. c #CD6A41",
"i. c #D16E41",
"p. c #D6684B",
"a. c #CE7548",
"s. c #D67342",
"d. c #D87543",
"f. c #D67A4D",
"g. c #D87B4F",
"h. c #D86C5C",
"j. c #CF7755",
"k. c #D97F57",
"l. c #E0694D",
"z. c #CC6060",
"x. c #AD820D",
"c. c #D68610",
"v. c #DA9A11",
"b. c #E19D0B",
"n. c #D9A40C",
"m. c #E1B700",
"M. c #DC8720",
"N. c #D68534",
"B. c #F2BB20",
"V. c #B4A54C",
"C. c #BA8667",
"Z. c #B7A17F",
"A. c #DB835C",
"S. c #D88A63",
"D. c #D5996E",
"F. c #C89978",
"G. c #E28F6D",
"H. c #CAA37B",
"J. c #B2D06B",
"K. c #5E508D",
"L. c #57569F",
"P. c #6F538A",
"I. c #6F5193",
"U. c #5758A4",
"Y. c #7A7CB3",
"T. c #A35A9C",
"R. c #876C8A",
"E. c #98768B",
"W. c #8E7CA6",
"Q. c #B471B1",
"!. c #C77D81",
"~. c #7DA6CB",
"^. c #B39B99",
"/. c #BCBD9B",
"(. c #9488AE",
"). c #938BB5",
"_. c #9694B9",
"`. c #B496AA",
"'. c #B699A8",
"]. c #A791B7",
"[. c #ACACA4",
"{. c #C28681",
"}. c #D6B28B",
"|. c #CDAE93",
" X c #D5BB96",
".X c #CCBEA9",
"XX c #D4C4A2",
"oX c #D6CDAA",
"OX c #CECEBA",
"+X c #D7D9B8",
"@X c #9B99C8",
"#X c #A49CCA",
"$X c #ADA2C1",
"%X c #A4A3CD",
"&X c #ACABCD",
"*X c #A2A3D4",
"=X c #A7A8D7",
"-X c #A5A6D9",
";X c #B8B4D3",
":X c #B6B6DA",
">X c #BCBCDB",
",X c #C3AFC2",
"<X c #C0B0CE",
"1X c #C6C6CA",
"2X c #DCDCC5",
"3X c #D2D3CA",
"4X c #D4D4D2",
"5X c #E4E4CC",
"6X c #EAEAD8",
"7X c #C6C7E8",
"8X c #F3F3EA",
"9X c #F7F7F5",
"0X c #F8F8F9",
"qX c None",
/* pixels */
"qXqXqXqXqXqXqXqXqXqXqXqXqXqXqXqXqXqXqXqXqXqXqXqXqXqXqXqXqXqXqXqXqXqXqXqXqXqXqXqXqXqXqXqXqXqXqXqXqXqXqXqXqXqXqXqXqXqXqXqXqXqXqXqXqXqXqXqXqXqXqXqXqXqXqXqXqXqXqXqX",
"qXqXqXqXqXqXqXqXqXqXqXqXqXqXqXqXqXqXqXqXqXqXqXqXqXqXqXqXqXqXqXqXqXqXqXqXqXqXqXqXqXqXqXqXqXqXqXqXqXqXqXqXqXqXqXqXqXqXqXqXqXqXqXqXqXqXqXqXqXqXqXqXqXqXqXqXqXqXqXqX",
"qXqXqXqXqXqXqXqXqXqXqXqXqXqXqXqXqXqXqXqXqXqXqXqXqXqXqXqXqXqXqXqXqXqXqXqXqXqXqXqXqXqXqXqXqXqXqXqXqXqXqXqXqXqXqXqXqXqXqXqXqXqXqXqXqXqXqXqXqXqXqXqXqXqXqXqXqXqXqXqX",
"qXqXqXqXqXqXqXqXqXqXqXqXqXqXqXqXqXqXqXqXqXqXqXqXqXqXqXqXqXqXqXqXqXqXqXqXqXqXqXqXqXqXqXqXqXqXqXqXqXqXqXqX_.3X8X8X9X0X2XqXqXqXqXqXqXqXqXqXqXqXqXqXqXqXqXqXqXqXqXqX",
"qXqXqXqXqXqXqXqXqXqXqXqXqXqXqXqXqXqXqXqXqXqXqXqXqXqXqXqXqXqXqXqXqXqXqXqXqXqXqXqXqXqXqXqXqXqXqXqXqXqXqX).%X4X8X9X0X0X6X/.qXqXqXqXqXqXqXqXqXqXqXqXqXqXqXqXqXqXqXqX",
"qXqXqXqXqXqXqXqXqXqXqXqXqXqXqXqXqXqXqXqXqXqXqXqXqXqXqXqXqXqXqXqXqXqXqXqXqXqXqXqXqXqXqXqXqXqXqXqXqXqXqX@X:X:X1X5X6X6X5X+X[.qXqXqXqXqXqXqXqXqXqXqXqXqXqXqXqXqXqXqX",
"qXqXqXqXqXqXqXqXqXqXqXqXqXqXqXqXqXqXqXqXqXqXqXqXqXqXqXqXqXqXqXqXqXqXqXqXqXqXqXqXqXqXqXqXqXqXqXqXqXqXqX&X7X>X7X1XOX5X2X3X>XqXqXqXqXqXqXqXqXqXqXqXqXqXqXqXqXqXqXqX",
"qXqXqXqXqXqXqXqXqXqXqXqXqXqXqXqXqXqXqXqXqXqXqXqXqXqXqXqXqXqXqXqXqXqXqXqXqXqXqXqXqXqXqXqXqXqXqXqXqXqXqX&X$X(.7X^.0.&X7X:X>X).qXqXqXqXqXqXqXqXqXqXqXqXqXqXqXqXqXqX",
"qXqXqXqXqXqXqXqXqXqXqXqXqXqXqXqXqXqXqXqXqXqXqXqXqXqXqXqXqXqXqXqXqXqXqXqXqXqXqXqXqXqXqXqXqXqXqXqXqXqXqXR.$.9.%X{.J r ;X$X:XqXqXqXqXqXqXqXqXqXqXqXqXqXqXqXqXqXqXqX",
"qXqXqXqXqXqXqXqXqXqXqXqXqXqXqXqXqXqXqXqXqXqXqXqXqXqXqXqXqXqXqXqXqXqXqXqXqXqXqXqXqXqXqXqXqXqXqXqXqXqXx.~ h s 8.0.8 < 7.9._.qXqXqXqXqXqXqXqXqXqXqXqXqXqXqXqXqXqXqX",
"qXqXqXqXqXqXqXqXqXqXqXqXqXqXqXqXqXqXqXqXqXqXqXqXqXqXqXqXqXqXqXqXqXqXqXqXqXqXqXqXqXqXqX^ / Z m.J.~.!.B.c.~ s t.9.2.2.L qXqXqXqXqXqXqXqXqXqXqXqXqXqXqXqXqXqXqXqXqX",
"qXqXqXqXqXqXqXqXqXqXqXqXqXqXqXqXqXqXqXqXqXqXqXqXqXqXqXqXqXqXqXqXqXqXqXqXqXqXqXqXqXqX..s.s.+.| v.V.E.l.` V s [ t.y...f qXqXqXqXqXqXqXqXqXqXqXqXqXqXqXqXqXqXqXqXqX",
"qXqXqXqXqXqXqXqXqXqXqXqXqXqXqXqXqXqXqXqXqXqXqXqXqXqXqXqXqXqXqXqXqXqXqXqXqXqXqXqXqXQ s.s.s.s./ ..j.S.h.' B O l ! k - qXqXqXqXqXqXqXqXqXqXqXqXqXqXqXqXqXqXqXqXqXqX",
"qXqXqXqXqXqXqXqXqXqXqXqXqXqXqXqXqXqXqXqXqXqXqXqXqXqXqXqXqXqXqXqXqXqXqXqXqXqXqXqXqX..d.s.s.~ / d.G.G.k./ qXqXqXX qXqXqXqXqXqXqXqXqXqXqXqXqXqXqXqXqXqXqXqXqXqXqXqX",
"qXqXqXqXqXqXqXqXqXqXqXqXqXqXqXqXqXqXqXqXqXqXqXqXqXqXqXqXqXqXqXqXqXqXqXqXqXqXqXqX/ X.s.s.s.g Q W t.f.d.i.qXqXqXqXqXqXqXqXqXqXqXqXqXqXqXqXqXqXqXqXqXqXqXqXqXqXqXqX",
"qXqXqXqXqXqXqXqXqXqXqXqXqXqXqXqXqXqXqXqXqXqXqXqXqXqXqXqXqXqXqXqXqXqXqXqXqXqXqXqXi.s.s.s.O.&.2.N.+.X.i.o.d qXqXqXqXqXqXqXqXqXqXqXqXqXqXqXqXqXqXqXqXqXqXqXqXqXqXqX",
"qXqXqXqXqXqXqXqXqXqXqXqXqXqXqXqXqXqXqXqXqXqXqXqXqXqXqXqXqXqXqXqXqXqXqXqXqXqXqXF.}.S.d.d.W >.0.F.N.^ ^ L qXqXqXqXqXqXqX^ ^ j qXqXqXqXqXqXqXqXqXqXqXqXqXqXqXqXqXqX",
"qXqXqXqXqXqXqXqXqXqXqXqXqXqXqXqXqXqXqXqXqXqXqXqXqXqXqXqXqXqXqXqXqXqXqXqXqXqXqXXX+XoXXXC...O.X.6.0.<.-.=.qXqXqXqXqXqX] o.L qXqXqXqXqXqXqXqXqXqXqXqXqXqXqXqXqXqXqX",
"qXqXqXqXqXqXqXqXqXqXqXqXqXqXqXqXqXqXqXqXqXqXqXqXqXqXqXqXqXqXqXqXqXqXqXqXqXqXqXD.XX+X|.! ..X.s.X.w.;X3X/.qXqXqXqXqX^ s.o.~ Q Q Q qXqXqXqXqXqXqXqXqXqXqXqXqXqXqXqX",
"qXqXqXqXqXqXqXqXqXqXqXqXqXqXqXqXqXqXqXqXqXqXqXqXqXqXqXqXqXqXqXqXqXqXqXqXqXqXX.s.f.1.a.O.o.o...^ -.,X<X^.qXqXqX! X.s.s.s.d.d.d.i...qXqXqXqXqXqXqXqXqXqXqXqXqXqXqX",
"qXqXqXqXqXqXqXqXqXqXqXqXqXqXqXqXqXqXqXqXqXqXqXqXqXqXqXqXqXqXqXqXqXqXqXqXqXqXu.d...~ d.d.d.s.s.s...:.T.1.} :.3.X.d.d.d.d.d.d.s.s...qXqXqXqXqXqXqXqXqXqXqXqXqXqXqX",
"qXqXqXqXqXqXqXqXqXqXqXqXqXqXqXqXqXqXqXqXqXqXqXqXqXqXqXqXqXqXqXqXqXqXqXqXqX..s.d.../ d.s.s.s.s.s.+.,.Q.v.p.Y.9.@.d.o...X.X.X.( S S qXqXqXqXqXqXqXqXqXqXqXqXqXqXqX",
"qXqXqXqXqXqXqXqXqXqXqXqXqXqXqXqXqXqXqXqXqXqXqXqXqXqXqXqXqXqXqXqXqXqXqXqXqXo.d.s.o.T o.s.s.s.s.s.+.,.Q._ ' I.=.Q ~ D O f f f qXqXqXqXqXqXqXqXqXqXqXqXqXqXqXqXqXqX",
"qXqXqXqXqXqXqXqXqXqXqXqXqXqXqXqXqXqXqXqXqXqXqXqXqXqXqXqXqXqXqXqXqXqXqXqXZ. X XS.f.:.D D S S S S qXqXqXqXqXqXqXqXqXqXqXqXqXqXqXqXqXqXqXqXqXqXqXqXqXqXqXqXqXqXqXqX",
"qXqXqXqXqXqXqXqXqXqXqXqXqXqXqXqXqXqXqXqXqXqXqXqXqXqXqXqXqXqXqXqXqXqXqXqXH.}.}.oX.Xw.>.>.%.qXqXqXqXqXqXqXqXqXqXqXqXqXqXqXqXqXqXqXqXqXqXqXqXqXqXqXqXqXqXqXqXqXqXqX",
"qXqXqXqXqXqXqXqXqXqXqXqXqXqXqXqXqXqXqXqXqXqXqXqXqXqXqXqXqXqXqXqXqXqXu.o.s.s.s.D.OX].6.5.5 qXqXqXqXqXqXqXqXqXqXqXqXqXqXqXqXqXqXqXqXqXqXqXqXqXqXqXqXqXqXqXqXqXqXqX",
"qXqXqXqXqXqXqXqXqXqXqXqXqXqXqXqXqXqXqXqXqXqXqXqXqXqXqXqXqXqXqXqXqXy.s.d.s.s.s.d.|.=X#X#X< qXqXqXqXqXqXqXqXqXqXqXqXqXqXqXqXqXqXqXqXqXqXqXqXqXqXqXqXqXqXqXqXqXqXqX",
"qXqXqXqXqXqXqXqXqXqXqXqXqXqXqXqXqXqXqXqXqXqXqXqXqXqXqXqXqXqXqXqXqXi.s.s.s.s.s.d.|.*X@X@Xt @ qXqXqXqXqXqXqXqXqXqXqXqXqXqXqXqXqXqXqXqXqXqXqXqXqXqXqXqXqXqXqXqXqXqX",
"qXqXqXqXqXqXqXqXqXqXqXqXqXqXqXqXqXqXqXqXqXqXqXqXqXqXqXqXqXqXqXqXi.s.s.s.s.s.s.s.'.-X*X@Xp q z A qXqXqXqXqXqXqXqXqXqXqXqXqXqXqXqXqXqXqXqXqXqXqXqXqXqXqXqXqXqXqXqX",
"qXqXqXqXqXqXqXqXqXqXqXqXqXqXqXqXqXqXqXqXqXqXqXqXqXqXqXqXqXqXqXqXs.s.s.s.s.s.s.s.`.-X-XW.t %.I Q I P qXqXqXqXqXqXqXqXqXqXqXqXqXqXqXqXqXqXqXqXqXqXqXqXqXqXqXqXqXqX",
"qXqXqXqXqXqXqXqXqXqXqXqXqXqXqXqXqXqXqXqXqXqXqXqXqXqXqXqXqXqXqXI u.s.s.s.f.d.s.s.`.-X*Xp w P Q Q Q Q U P H qXqXqXqXqXqXqXqXqXqXqXqXqXqXqXqXqXqXqXqXqXqXqXqXqXqXqX",
"qXqXqXqXqXqXqXqXqXqXqXqXqXqXqXqXqXqXqXqXqXqXqXqXqXqXqXqXqXqXqXJ X.s.s.d.k.d.s.s.`.-X).y *.I Q Q Q Q Q Q Q P P qXqXqXqXqXqXqXqXqXqXqXqXqXqXqXqXqXqXqXqXqXqXqXqXqX",
"qXqXqXqXqXqXqXqXqXqXqXqXqXqXqXqXqXqXqXqXqXqXqXqXqXqXqXqXqXqXqXA / s.s.f.A.d.s.s.`.-XR.t *.P Q Q Q Q Q Q Q Q Q I I qXqXqXqXqXqXqXqXqXqXqXqXqXqXqXqXqXqXqXqXqXqXqX",
"qXqXqXqXqXqXqXqXqXqXqXqXqXqXqXqXqXqXqXqXqXqXqXqXqXqXqXqXqXqXqX^ s.s.s.k.A.s.s.j.$X(.y t *.P Q Q Q Q Q Q Q Q Q Q Q I P qXqXqXqXqXqXqXqXqXqXqXqXqXqXqXqXqXqXqXqXqX",
"qXqXqXqXqXqXqXqXqXqXqXqXqXqXqXqXqXqXqXqXqXqXqXqXqXqXqXqXqXqX^ O.s.s.d.S.g.s.s.q.W.0 * t *.I Q Q Q Q Q Q Q Q Q Q Q Q Q I qXqXqXqXqXqXqXqXqXqXqXqXqXqXqXqXqXqXqXqX",
"qXqXqXqXqXqXqXqXqXqXqXqXqXqXqXqXqXqXqXqXqXqXqXqXqXqXqXqXqXqXX.s.s.s.g.A.s.s.s.T       0 e T Q Q Q Q Q Q Q Q Q Q Q Q Q Q I qXqXqXqXqXqXqXqXqXqXqXqXqXqXqXqXqXqXqX",
"qXqXqXqXqXqXqXqXqXqXqXqXqXqXqXqXqXqXqXqXqXqXqXqXqXqXqXqXqXqXi.s.s.s.k.f.s.s.s.] qXqXqX@ 9 *.P Q Q Q Q Q Q Q Q Q Q Q Q Q Q I H qXqXqXqXqXqXqXqXqXqXqXqXqXqXqXqXqX",
"qXqXqXqXqXqXqXqXqXqXqXqXqXqXqXqXqXqXqXqXqXqXqXqXqXqXqXqXqX^ s.s.s.d.f.s.s.d.X.qXqXqXqXqX@ 4 $.I Q Q Q Q Q Q Q Q Q Q Q Q Q Q Q A qXqXqXqXqXqXqXqXqXqXqXqXqXqXqXqX",
"qXqXqXqXqXqXqXqXqXqXqXqXqXqXqXqXqXqXqXqXqXqXqXqXqXqXqXqXqX] s.s.s.s.s.s.s.s.[ qXqXqXqXqXqXqX$ z P Q Q Q Q Q Q Q Q Q Q Q Q Q Q E l qXqXqXqXqXqXqXqXqXqXqXqXqXqXqX",
"qXqXqXqXqXqXqXqXqXqXqXqXqXqXqXqXqXqXqXqXqXqXqXqXqXqXqXqXqXs.s.s.s.s.s.s.s.i.qXqXqXqXqXqXqXqXqX. s L J J P Q Q Q Q Q Q Q L P Q Q P qXqXqXqXqXqXqXqXqXqXqXqXqXqXqX",
"qXqXqXqXqXqXqXqXqXqXqXqXqXqXqXqXqXqXqXqXqXqXqXqXqXqXqXqXy.s.s.s.s.s.s.s.i.qXqXqXqXqXqXqXqXqXqXqXqXqXqXqXqXS P Q Q Q Q Q P J Q Q P qXqXqXqXqXqXqXqXqXqXqXqXqXqXqX",
"qXqXqXqXqXqXqXqXqXqXqXqXqXqXqXqXqXqXqXqXqXqXqXqXqXqXqXqXu.s.s.s.s.s.s.s...qXqXqXqXqXqXqXqXqXqXqXqXqXqXqXqXqXqXqXA l G R Q P Q Q P qXqXqXqXqXqXqXqXqXqXqXqXqXqXqX",
"qXqXqXqXqXqXqXqXqXqXqXqXqXqXqXqXqXqXqXqXqXqXqXqXqXqXqXqXi.s.s.s.s.s.s.u.qXqXqXqXqXqXqXqXqXqXqXqXqXqXqXqXqXqXqXqXqX# %.F Q Q Q Q d qXqXqXqXqXqXqXqXqXqXqXqXqXqXqX",
"qXqXqXqXqXqXqXqXqXqXqXqXqXqXqXqXqXqXqXqXqXqXqXqXqXqXqXX.i.s.s.s.s.s.O.qXqXqXqXqXqXqXqXqXqXqXqXqXqXqXqXqXqXqXqXqXqX> W P J Q Q P qXqXqXqXqXqXqXqXqXqXqXqXqXqXqXqX",
"qXqXqXqXqXqXqXqXqXqXqXqXqXqXqXqXqXqXqXqXqXqXqXqXqXqX..s.u.s.s.s.s.s.^ qXqXqXqXqXqXqXqXqXqXqXqXqXqXqXqXqXqXqXqXqX; q D Q L L Q d qXqXqXqXqXqXqXqXqXqXqXqXqXqXqXqX",
"qXqXqXqXqXqXqXqXqXqXqXqXqXqXqXqXqXqXqXqXqXqXqXqXqXX.s.d.u.i.s.s.s.] qXqXqXqXqXqXqXqXqXqXqXqXqXqXqXqXqXqXqXqXqXqXx #.G U Q E Q A qXqXqXqXqXqXqXqXqXqXqXqXqXqXqXqX",
"qXqXqXqXqXqXqXqXqXqXqXqXqXqXqXqXqXqXqXqXqXqXqXI o.s.s.s.X.O.d.d...qXqXqXqXqXqXqXqXqXqXqXqXqXqXqXqXqXqXqXqXqXqXqXp 4.c I Q Q Q K qXqXqXqXqXqXqXqXqXqXqXqXqXqXqXqX",
"qXqXqXqXqXqXqXqXqXqXqXqXqXqXqXqXqXqXqXqXqXqXl { o.d.s.s.O.o.s.X.qXqXqXqXqXqXqXqXqXqXqXqXqXqXqXqXqXqXqXqXqXqXqXqX2 U.P.;.v b v 4.qXqXqXqXqXqXqXqXqXqXqXqXqXqXqXqX",
"qXqXqXqXqXqXqXqXqXqXqXqXqXqXqXqXqXqXqXqXqXqX-.r.e.O.d.d.o.] ..qXqXqXqXqXqXqXqXqXqXqXqXqXqXqXqXqXqXqXqXqXqXqXqXqX* y K.L.I.4.i 6 qXqXqXqXqXqXqXqXqXqXqXqXqXqXqXqX",
"qXqXqXqXqXqXqXqXqXqXqXqXqXqXqXqXqXqXqXqXqX .2.8.h.{ i.d.s...qXqXqXqXqXqXqXqXqXqXqXqXqXqXqXqXqXqXqXqXqXqXqXqXqXqX7 t t t u K.1 qXqXqXqXqXqXqXqXqXqXqXqXqXqXqXqXqX",
"qXqXqXqXqXqXqXqXqXqXqXqXqXqXqXqXqXqXqXqXX.s.O.9.E.z.e.] ^ qXqXqXqXqXqXqXqXqXqXqXqXqXqXqXqXqXqXqXqXqXqXqXqXqXqXqXqXw t t t q = qXqXqXqXqXqXqXqXqXqXqXqXqXqXqXqXqX",
"qXqXqXqXqXqXqXqXqXqXqXqXqXqXqXqXqXqXqXqXi.s.s.o.E.Y.w.e.K qXqXqXqXqXqXqXqXqXqXqXqXqXqXqXqXqXqXqXqXqXqXqXqXqXqXqXqX; e t t 4 8 qXqXqXqXqXqXqXqXqXqXqXqXqXqXqXqXqX",
"qXqXqXqXqXqXqXqXqXqXqXqXqXqXqXqXqXqXqXX.s.s.s.s.s.q.8.Q qXqXqXqXqXqXqXqXqXqXqXqXqXqXqXqXqXqXqXqXqXqXqXqXqXqXqXqXqX. , e 7 4 qXqXqXqXqXqXqXqXqXqXqXqXqXqXqXqXqXqX",
"qXqXqXqXqXqXqXqXqXqXqXqXqXqXqXqXqXqXqXs.s.s.s.s.s.O.Y qXqXqXqXqXqXqXqXqXqXqXqXqXqXqXqXqXqXqXqXqXqXqXqXqXqXqXqXqXqX$ q e , #.qXqXqXqXqXqXqXqXqXqXqXqXqXqXqXqXqXqX",
"qXqXqXqXqXqXqXqXqXqXqXqXqXqXqXqXqXqXo.s.s.s.s.s.O.] qXqXqXqXqXqXqXqXqXqXqXqXqXqXqXqXqXqXqXqXqXqXqXqXqXqXqXqXqXqXqX% t t F k qXqXqXqXqXqXqXqXqXqXqXqXqXqXqXqXqXqX",
"qXqXqXqXqXqXqXqXqXqXqXqXqXqXqXqXqXqXs.s.s.s.s.X.qXqXqXqXqXqXqXqXqXqXqXqXqXqXqXqXqXqXqXqXqXqXqXqXqXqXqXqXqXqXqXqXqX% t t F P qXqXqXqXqXqXqXqXqXqXqXqXqXqXqXqXqXqX",
"qXqXqXqXqXqXqXqXqXqXqXqXqXqXqXqXqXo.s.s.s.d.o.qXqXqXqXqXqXqXqXqXqXqXqXqXqXqXqXqXqXqXqXqXqXqXqXqXqXqXqXqXqXqXqXqXqX- w e S o qXqXqXqXqXqXqXqXqXqXqXqXqXqXqXqXqXqX",
"qXqXqXqXqXqXqXqXqXqXqXqXqXqXqXqX..s.s.s.d.O.^ qXqXqXqXqXqXqXqXqXqXqXqXqXqXqXqXqXqXqXqXqXqXqXqXqXqXqXqXqXqXqXqXqXN N w %.L qXqXqXqXqXqXqXqXqXqXqXqXqXqXqXqXqXqXqX",
"qXqXqXqXqXqXqXqXqXqXqXqXqXqXqXqXo.s.s.s.s...qXqXqXqXqXqXqXqXqXqXqXqXqXqXqXqXqXqXqXqXqXqXqXqXqXqXqXqXqXqXqXqXqXqXm C Z m a qXqXqXqXqXqXqXqXqXqXqXqXqXqXqXqXqXqXqX",
"qXqXqXqXqXqXqXqXqXqXqXqXqXqXqX} +.s.s.s...qXqXqXqXqXqXqXqXqXqXqXqXqXqXqXqXqXqXqXqXqXqXqXqXqXqXqXqXqXqXqXqXqXqXqX+ M C B n qXqXqXqXqXqXqXqXqXqXqXqXqXqXqXqXqXqXqX",
"qXqXqXqXqXqXqXqXqXqXqXqXqXqXqXv.` o.d.o.qXqXqXqXqXqXqXqXqXqXqXqXqXqXqXqXqXqXqXqXqXqXqXqXqXqXqXqXqXqXqXqXqXqXqXP z = n M a j qXqXqXqXqXqXqXqXqXqXqXqXqXqXqXqXqXqX",
"qXqXqXqXqXqXqXqXqXqXqXqXqXqXc.n.b.) ] ..qXqXqXqXqXqXqXqXqXqXqXqXqXqXqXqXqXqXqXqXqXqXqXqXqXqXqXqXqXqXqXqXqXqXqXI - 9 3 & , P P qXqXqXqXqXqXqXqXqXqXqXqXqXqXqXqXqX",
"qXqXqXqXqXqXqXqXqXqXqXqXqX[ } b.c._ } qXqXqXqXqXqXqXqXqXqXqXqXqXqXqXqXqXqXqXqXqXqXqXqXqXqXqXqXqXqXqXqXqXqXqXH Q A : 0 7 h Q Q H qXqXqXqXqXqXqXqXqXqXqXqXqXqXqXqX",
"qXqXqXqXqXqXqXqXqXqXqXqXqXi.s.o.M.` qXqXqXqXqXqXqXqXqXqXqXqXqXqXqXqXqXqXqXqXqXqXqXqXqXqXqXqXqXqXqXqXqXqXqXqXI Q P 6 $ : L Q Q I H qXqXqXqXqXqXqXqXqXqXqXqXqXqXqX",
"qXqXqXqXqXqXqXqXqXqXqXqXi.s.s.u.i.^ qXqXqXqXqXqXqXqXqXqXqXqXqXqXqXqXqXqXqXqXqXqXqXqXqXqXqXqXqXqXqXqXqXqXqXqXJ L F 3 7 r &.Q Q Q I qXqXqXqXqXqXqXqXqXqXqXqXqXqXqX",
"qXqXqXqXqXqXqXqXqXqXqXX.s.s.X.i.o.qXqXqXqXqXqXqXqXqXqXqXqXqXqXqXqXqXqXqXqXqXqXqXqXqXqXqXqXqXqXqXqXqXqXqXqXqXqX. .     * F Q Q Q Q f g qXqXqXqXqXqXqXqXqXqXqXqXqX",
"qXqXqXqXqXqXqXqXqXqXqX] s.X.o.d.o.qXqXqXqXqXqXqXqXqXqXqXqXqXqXqXqXqXqXqXqXqXqXqXqXqXqXqXqXqXqXqXqXqXqXqXqXqXqXqXqXqXqXqXd Q Q Q P J Q P J qXqXqXqXqXqXqXqXqXqXqX",
"qXqXqXqXqXqXqXqXqXqXqX..o.X.s.d.o.qXqXqXqXqXqXqXqXqXqXqXqXqXqXqXqXqXqXqXqXqXqXqXqXqXqXqXqXqXqXqXqXqXqXqXqXqXqXqXqXqXqXqXqXf f a d f f k f O qXqXqXqXqXqXqXqXqXqX",
"qXqXqXqXqXqXqXqXqXqXqX..X.O.s.d.o.qXqXqXqXqXqXqXqXqXqXqXqXqXqXqXqXqXqXqXqXqXqXqXqXqXqXqXqXqXqXqXqXqXqXqXqXqXqXqXqXqXqXqXqXqXqXqXqXqXqXqXqXqXqXqXqXqXqXqXqXqXqXqX",
"qXqXqXqXqXqXqXqXqXqXqX..o.s.s.s.s.qXqXqXqXqXqXqXqXqXqXqXqXqXqXqXqXqXqXqXqXqXqXqXqXqXqXqXqXqXqXqXqXqXqXqXqXqXqXqXqXqXqXqXqXqXqXqXqXqXqXqXqXqXqXqXqXqXqXqXqXqXqXqX",
"qXqXqXqXqXqXqXqXqXqX[ s.s.s.s.s.s.X.qXqXqXqXqXqXqXqXqXqXqXqXqXqXqXqXqXqXqXqXqXqXqXqXqXqXqXqXqXqXqXqXqXqXqXqXqXqXqXqXqXqXqXqXqXqXqXqXqXqXqXqXqXqXqXqXqXqXqXqXqXqX",
"qXqXqXqXqXqXqXqXqXqXX.d.d.d.d.d.d.d...qXqXqXqXqXqXqXqXqXqXqXqXqXqXqXqXqXqXqXqXqXqXqXqXqXqXqXqXqXqXqXqXqXqXqXqXqXqXqXqXqXqXqXqXqXqXqXqXqXqXqXqXqXqXqXqXqXqXqXqXqX",
"qXqXqXqXqXqXqXqXqXqXS L W W W W W W W qXqXqXqXqXqXqXqXqXqXqXqXqXqXqXqXqXqXqXqXqXqXqXqXqXqXqXqXqXqXqXqXqXqXqXqXqXqXqXqXqXqXqXqXqXqXqXqXqXqXqXqXqXqXqXqXqXqXqXqXqX",
"qXqXqXqXqXqXqXqXqXqXqXqXqXqXqXqXqXqXqXqXqXqXqXqXqXqXqXqXqXqXqXqXqXqXqXqXqXqXqXqXqXqXqXqXqXqXqXqXqXqXqXqXqXqXqXqXqXqXqXqXqXqXqXqXqXqXqXqXqXqXqXqXqXqXqXqXqXqXqXqX",
"qXqXqXqXqXqXqXqXqXqXqXqXqXqXqXqXqXqXqXqXqXqXqXqXqXqXqXqXqXqXqXqXqXqXqXqXqXqXqXqXqXqXqXqXqXqXqXqXqXqXqXqXqXqXqXqXqXqXqXqXqXqXqXqXqXqXqXqXqXqXqXqXqXqXqXqXqXqXqXqX",
"qXqXqXqXqXqXqXqXqXqXqXqXqXqXqXqXqXqXqXqXqXqXqXqXqXqXqXqXqXqXqXqXqXqXqXqXqXqXqXqXqXqXqXqXqXqXqXqXqXqXqXqXqXqXqXqXqXqXqXqXqXqXqXqXqXqXqXqXqXqXqXqXqXqXqXqXqXqXqXqX",
"qXqXqXqXqXqXqXqXqXqXqXqXqXqXqXqXqXqXqXqXqXqXqXqXqXqXqXqXqXqXqXqXqXqXqXqXqXqXqXqXqXqXqXqXqXqXqXqXqXqXqXqXqXqXqXqXqXqXqXqXqXqXqXqXqXqXqXqXqXqXqXqXqXqXqXqXqXqXqXqX",
"qXqXqXqXqXqXqXqXqXqXqXqXqXqXqXqXqXqXqXqXqXqXqXqXqXqXqXqXqXqXqXqXqXqXqXqXqXqXqXqXqXqXqXqXqXqXqXqXqXqXqXqXqXqXqXqXqXqXqXqXqXqXqXqXqXqXqXqXqXqXqXqXqXqXqXqXqXqXqXqX",
"qXqXqXqXqXqXqXqXqXqXqXqXqXqXqXqXqXqXqXqXqXqXqXqXqXqXqXqXqXqXqXqXqXqXqXqXqXqXqXqXqXqXqXqXqXqXqXqXqXqXqXqXqXqXqXqXqXqXqXqXqXqXqXqXqXqXqXqXqXqXqXqXqXqXqXqXqXqXqXqX",
"qXqXqXqXqXqXqXqXqXqXqXqXqXqXqXqXqXqXqXqXqXqXqXqXqXqXqXqXqXqXqXqXqXqXqXqXqXqXqXqXqXqXqXqXqXqXqXqXqXqXqXqXqXqXqXqXqXqXqXqXqXqXqXqXqXqXqXqXqXqXqXqXqXqXqXqXqXqXqXqX"
};
