/* XPM */
static char *result[] = {
/* columns rows colors chars-per-pixel */
"80 80 213 2 ",
"   c #450314",
".  c #4E0913",
"X  c #4B0B1C",
"o  c #520C15",
"O  c #581319",
"+  c #661C1A",
"@  c #6E201B",
"#  c #79291D",
"$  c #4C0E21",
"%  c #521427",
"&  c #55192E",
"*  c #561B32",
"=  c #581D35",
"-  c #681B31",
";  c #5D2135",
":  c #5D243D",
">  c #6E2529",
",  c #7C2D21",
"<  c #662B37",
"1  c #722733",
"2  c #793336",
"3  c #5E2742",
"4  c #622B46",
"5  c #652E4A",
"6  c #693345",
"7  c #66304D",
"8  c #783949",
"9  c #663352",
"0  c #693552",
"q  c #6C3855",
"w  c #6E3B5A",
"e  c #783950",
"r  c #713E5D",
"t  c #5E3A62",
"y  c #6E3E68",
"u  c #7F4355",
"i  c #75425D",
"p  c #79425B",
"a  c #734263",
"s  c #784C6E",
"d  c #664A7C",
"f  c #775170",
"g  c #84380C",
"h  c #802E22",
"j  c #8C3524",
"k  c #86362B",
"l  c #8B3829",
"z  c #943B25",
"x  c #943D29",
"c  c #983A28",
"v  c #873B36",
"b  c #B93D2E",
"n  c #974A10",
"m  c #AB5B0C",
"M  c #A65216",
"N  c #BA680A",
"B  c #964029",
"V  c #9D432B",
"C  c #9B4534",
"Z  c #93443C",
"A  c #984539",
"S  c #96523E",
"D  c #A44626",
"F  c #A94625",
"G  c #AD4A27",
"H  c #A3452B",
"J  c #A64A2E",
"K  c #AC4B2C",
"L  c #B9452E",
"P  c #B24E2D",
"I  c #A65722",
"U  c #B5512E",
"Y  c #B8572A",
"T  c #A54733",
"R  c #AB4D30",
"E  c #AE5232",
"W  c #AA563B",
"Q  c #B55231",
"!  c #B75735",
"~  c #B65935",
"^  c #BC5B35",
"/  c #B55739",
"(  c #BB5B3A",
")  c #BF603A",
"_  c #B57B3B",
"`  c #D05519",
"'  c #C36A19",
"]  c #D17B11",
"[  c #C15E35",
"{  c #C25C38",
"}  c #CC5D3C",
"|  c #CC6F2E",
" . c #D57A29",
".. c #C36136",
"X. c #C96931",
"o. c #C5633B",
"O. c #C9663C",
"+. c #CD6A3D",
"@. c #D16D3E",
"#. c #D6743E",
"$. c #813C44",
"%. c #883E58",
"&. c #A53E51",
"*. c #854545",
"=. c #8A4346",
"-. c #8F4E4F",
";. c #934749",
":. c #A34049",
">. c #AA5A47",
",. c #B85B45",
"<. c #A15A56",
"1. c #B95A53",
"2. c #9B6149",
"3. c #BE6445",
"4. c #A96359",
"5. c #B87055",
"6. c #905070",
"7. c #A55669",
"8. c #B55E6A",
"9. c #906B74",
"0. c #A56B67",
"q. c #AE726A",
"w. c #B67C72",
"e. c #CB5C44",
"r. c #D25D53",
"t. c #C96641",
"y. c #CD6B42",
"u. c #C56748",
"i. c #D16E41",
"p. c #DA634D",
"a. c #CA7643",
"s. c #D67342",
"d. c #DA7543",
"f. c #D5764A",
"g. c #D6794C",
"h. c #C67557",
"j. c #D77C52",
"k. c #C66762",
"l. c #CC776B",
"z. c #B9940F",
"x. c #BEA92D",
"c. c #D88A0F",
"v. c #CE8411",
"b. c #D28010",
"n. c #E0970A",
"m. c #D3B808",
"M. c #E7AA06",
"N. c #E5B607",
"B. c #E29B26",
"V. c #F2CD16",
"C. c #DFF02C",
"Z. c #8E856B",
"A. c #BD8664",
"S. c #AE827D",
"D. c #D8865C",
"F. c #DDA248",
"G. c #CE8F6B",
"H. c #D88967",
"J. c #D39267",
"K. c #E3906E",
"L. c #D6A57D",
"P. c #56559D",
"I. c #74588E",
"U. c #535DB2",
"Y. c #897389",
"T. c #997787",
"R. c #86759A",
"E. c #AF6C8A",
"W. c #847BA5",
"Q. c #BC77A2",
"!. c #99858F",
"~. c #B1988A",
"^. c #AE8A9A",
"/. c #ADA98C",
"(. c #B5B494",
"). c #8380A8",
"_. c #9487A5",
"`. c #9A8CB5",
"'. c #9894BB",
"]. c #A99EBC",
"[. c #AEAEAC",
"{. c #A7A4BB",
"}. c #D6AE86",
"|. c #D4B28D",
" X c #C6B2B0",
".X c #99C8BC",
"XX c #C7C3A4",
"oX c #D6CBA7",
"OX c #D6D1AF",
"+X c #D5D5B7",
"@X c #DCDCBA",
"#X c #9D9ACB",
"$X c #9E9FD0",
"%X c #AAABCA",
"&X c #B4B2C9",
"*X c #A5A5D5",
"=X c #ABABD2",
"-X c #B8B8D5",
";X c #B5B5DA",
":X c #BBBCE1",
">X c #C4C4C8",
",X c #CCCCCE",
"<X c #D5D6CB",
"1X c #C6C5D6",
"2X c #DFE0C0",
"3X c #E1E1CE",
"4X c #E9E9D8",
"5X c #C1C1E4",
"6X c #C8C8E9",
"7X c #F3F3EB",
"8X c #F7F7F5",
"9X c #F7F7F8",
"0X c None",
/* pixels */
"0X0X0X0X0X0X0X0X0X0X0X0X0X0X0X0X0X0X0X0X0X0X0X0X0X0X0X0X0X0X0X0X0X0X0X0X0X0X0X0X0X0X0X0X0X0X0X0X0X0X0X0X0X0X0X0X0X0X0X0X0X0X0X0X0X0X0X0X0X0X0X0X0X0X0X0X0X0X0X0X",
"0X0X0X0X0X0X0X0X0X0X0X0X0X0X0X0X0X0X0X0X0X0X0X0X0X0X0X0X0X0X0X0X0X0X0X0X0X0X0X0X0X0X0X0X0X0X0X0X0X0X0X0X0X0X0X0X0X0X0X0X0X0X0X0X0X0X0X0X0X0X0X0X0X0X0X0X0X0X0X0X",
"0X0X0X0X0X0X0X0X0X0X0X0X0X0X0X0X0X0X0X0X0X0X0X0X0X0X0X0X0X0X0X0X0X0X0X0X0X0X0X0X0X0X0X0X0X0X0X0X0X0X0X0X0X0X0X0X0X0X0X0X0X0X0X0X0X0X0X0X0X0X0X0X0X0X0X0X0X0X0X0X",
"0X0X0X0X0X0X0X0X0X0X0X0X0X0X0X0X0X0X0X0X0X0X0X0X0X0X0X0X0X0X0X0X0X0X0X0X0X0X0X0X0X0X0X0X0X0X0X0X0X0X0X0X0X0X0X0X0X0X0X0X0X0X0X0X0X0X0X0X0X0X0X0X0X0X0X0X0X0X0X0X",
"0X0X0X0X0X0X0X0X0X0X0X0X0X0X0X0X0X0X0X0X0X0X0X0X0X0X0X0X0X0X0X0X0X0X0X0X0X0X0X0X0X0X0X0X0X0X0X0X0X0X0X0X0X0X0X0X0X0X0X0XXX4X7X0X0X0X0X0X0X0X0X0X0X0X0X0X0X0X0X0X",
"0X0X0X0X0X0X0X0X0X0X0X0X0X0X0X0X0X0X0X0X0X0X0X0X0X0X0X0X0X0X0X0X0X0X0X0X0X0X0X0X0X0X0X0X0X0X0X0X0X0X0X0X0X0X0X0X0X0X0X{.3X8X9X9X9X4X(.0X0X0X0X0X0X0X0X0X0X0X0X0X",
"0X0X0X0X0X0X0X0X0X0X0X0X0X0X0X0X0X0X0X0X0X0X0X0X0X0X0X0X0X0X0X0X0X0X0X0X0X0X0X0X0X0X0X0X0X0X0X0X0X0X0X0X0X0X0X0X0X0X'.=X>X<X4X7X7X4X@X(.0X0X0X0X0X0X0X0X0X0X0X0X",
"0X0X0X0X0X0X0X0X0X0X0X0X0X0X0X0X0X0X0X0X0X0X0X0X0X0X0X0X0X0X0X0X0X0X0X0X0X0X0X0X0X0X0X0X0X0X0X0X0X0X0X0X0X0X0X0X0X0X=X6X:X;X,X@X2X@XOX[.0X0X0X0X0X0X0X0X0X0X0X0X",
"0X0X0X0X0X0X0X0X0X0X0X0X0X0X0X0X0X0X0X0X0X0X0X0X0X0X0X0X0X0X0X0X0X0X0X0X0X0X0X0X0X0X0X0X0X0X0X0X0X0X0X0X0X0X0X0X0X0X6X-X`.5X%X/.1X1X1X;X0X0X0X0X0X0X0X0X0X0X0X0X",
"0X0X0X0X0X0X0X0X0X0X0X0X0X0X0X0X0X0X0X0X0X0X0X0X0X0X0X0X0X0X0X0X0X0X0X0X0X0X0X0X0X0X0X0X0X0X0X0X0X0X0X0X0X0X0X0X0X0X%X9.6.;X^./ 9.5X;X;X0X0X0X0X0X0X0X0X0X0X0X0X",
"0X0X0X0X0X0X0X0X0X0X0X0X0X0X0X0X0X0X0X0X0X0X0X0X0X0X0X0X0X0X0X0X0X0X0X0X0X0X0X0X0X0X0X0X0X0X0X0X0X0XG G z m.C..Xl.V._ v V T.T.x 6 _.].'.0X0X0X0X0X0X0X0X0X0X0X0X",
"0X0X0X0X0X0X0X0X0X0X0X0X0X0X0X0X0X0X0X0X0X0X0X0X0X0X0X0X0X0X0X0X0X0X0X0X0X0X0X0X0X0X0X0X0X0X0X0Xy.s.i.s.o.I z.x.S.d.] P @ ,.0.4.6.C v 0X0X0X0X0X0X0X0X0X0X0X0X0X",
"0X0X0X0X0X0X0X0X0X0X0X0X0X0X0X0X0X0X0X0X0X0X0X0X0X0X0X0X0X0X0X0X0X0X0X0X0X0X0X0X0X0X0X0X0X0X0Xy.s.s.s.+.~ 3.h.h.*.6.` ' l / 3.u.i./ + 0X0X0X0X0X0X0X0X0X0X0X0X0X",
"0X0X0X0X0X0X0X0X0X0X0X0X0X0X0X0X0X0X0X0X0X0X0X0X0X0X0X0X0X0X0X0X0X0X0X0X0X0X0X0X0X0X0X0X0X0XA.s.s.s.@.J ^ f.K.K.W y K M h c t./ V # 0X0X0X0X0X0X0X0X0X0X0X0X0X0X",
"0X0X0X0X0X0X0X0X0X0X0X0X0X0X0X0X0X0X0X0X0X0X0X0X0X0X0X0X0X0X0X0X0X0X0X0X0X0X0X0X0X0X0X0X0X(.XXJ.o.~ ,.h.| t.g.g.+.< < 0X0XO , + 0X0X0X0X0X0X0X0X0X0X0X0X0X0X0X0X",
"0X0X0X0X0X0X0X0X0X0X0X0X0X0X0X0X0X0X0X0X0X0X0X0X0X0X0X0X0X0X0X0X0X0X0X0X0X0X0X0X0X0X0X0X0Xq.A.W +.O.+.l.F.#.o.s.i.# 0X0X0X0X0X0X0X0X0X0X0X0X0X0X0X0X0X0X0X0X0X0X",
"0X0X0X0X0X0X0X0X0X0X0X0X0X0X0X0X0X0X0X0X0X0X0X0X0X0X0X0X0X0X0X0X0X0X0X0X0X0X0X0X0X0X0X0Xj ^ s.s.s.s.o.u.G. .E s.y.S 0X0X0X0X0X0X0X0X0X0X0X0X0X0X0X0X0X0X0X0X0X0X",
"0X0X0X0X0X0X0X0X0X0X0X0X0X0X0X0X0X0X0X0X0X0X0X0X0X0X0X0X0X0X0X0X0X0X0X0X0X0X0X0X0X0X0XO.E s.s.s.s.s.[ ,.5.2.A Q S Z.0X0X0X0X0X0X0X0X0X0X0X0X0X0X0X0X0X0X0X0X0X0X",
"0X0X0X0X0X0X0X0X0X0X0X0X0X0X0X0X0X0X0X0X0X0X0X0X0X0X0X0X0X0X0X0X0X0X0X0X0X0X0X0X0X0Xy.s.^ +.s.s.s.s.+.<._.%X!.9.~./.0X0X0X0X0X0X0X0X0X0X0X0X0X0X0X0X0X0X0X0X0X0X",
"0X0X0X0X0X0X0X0X0X0X0X0X0X0X0X0X0X0X0X0X0X0X0X0X0X0X0X0X0X0X0X0X0X0X0X0X0X0X0X0X0X5.t.y.i.~ +.s.s.s.@.q.{.-X<X@X+XXX0X0X0X0X0X0X0X0X0X0X0X0X0X0X0X0X0X0X0X0X0X0X",
"0X0X0X0X0X0X0X0X0X0X0X0X0X0X0X0X0X0X0X0X0X0X0X0X0X0X0X0X0X0X0X0X0X0X0X0X0X0X0X0X(.XXL.g.s.+.~ s.s.s.s.o.~.6X6X,X,X&X0X0X0X0X0X0X0X0X0X0X0X0X0X0X0X0X0X0X0X0X0X0X",
"0X0X0X0X0X0X0X0X0X0X0X0X0X0X0X0X0X0X0X0X0X0X0X0X0X0X0X0X0X0X0X0X0X0X0X0X0X0X0Xy.D.}.OX}.s.s.3./ s.s.s.s.u. X6X6X5X*X0X0X0X0X0X0X0X0X0X0X0X0X0X0X0X0X0X0X0X0X0X0X",
"0X0X0X0X0X0X0X0X0X0X0X0X0X0X0X0X0X0X0X0X0X0X0X0X0X0X0X0X0X0X0X0X0X0X0X0X0X0Xi.s.s.s.J.OXD.1.7.:.( s.s.s.O.>.{.;X=X0X0X0X0X0X0X0X0X0X0X0X0X0X0X0X0X0X0X0X0X0X0X0X",
"0X0X0X0X0X0X0X0X0X0X0X0X0X0X0X0X0X0X0X0X0X0X0X0X0X0X0X0X0X0X0X0X0X0X0X0Xt.s.s.s.s.s.g.oX XE.7.;.0Xy.s.@.8.E.4.i 0X0X0X0X0X0X0X0X0X0X0X0X0X0X0X0X0X0X0X0X0X0X0X0X",
"0X0X0X0X0X0X0X0X0X0X0X0X0X0X0X0X0X0X0X0X0X0X0X0X0X0X0X0X0X0X0X0X0X0X0X0Xi.s.s.s.s.s.s.|.>X*X`.< 0X0X~ k.Q.B.b.j 0X0X0X0X0X0X0X0X0X0X0X0X0X0X0X0X0X0X0X0X0X0X0X0X",
"0X0X0X0X0X0X0X0X0X0X0X0X0X0X0X0X0X0X0X0X0X0X0X0X0X0X0X0X0X0X0X0X0X0X0Xi.s.s.s.f.f.s.o.G.=X*X'.< 0X0X0X6.a.M.e.r.0X0X0X0X0X0X0X0X0X0X0X0X0X0X0X0X0X0X0X0X0X0X0X0X",
"0X0X0X0X0X0X0X0X0X0X0X0X0X0X0X0X0X0X0X0X0X0X0X0X0X0X0X0X0X0X0X0X0X0X0Xi.s.s.s.g.j.s.+.w.$X$XR.6 0X0X0X0XM ..k.).R.3.0X0X0X0X0X0X0X0X0X0X0X0X0X0X0X0X0X0X0X0X0X0X",
"0X0X0X0X0X0X0X0X0X0X0X0X0X0X0X0X0X0X0X0X0X0X0X0X0X0X0X0X0X0X0X0X0X0X0Xi.s.s.s.g.H.s.@.0.*X*XI.r a 0 0X0X0Xb <.Y...#.o.R 0X0X0X0X0X0X0X0X0X0X0X0X0X0X0X0X0X0X0X0X",
"0X0X0X0X0X0X0X0X0X0X0X0X0X0X0X0X0X0X0X0X0X0X0X0X0X0X0X0X0X0X0X0X0X0X0Xi.s.s.s.s.D.f.d.W `.#Xs a a a q : 0X0Xk / d.s.s.y.^ 0X0X0X0X0X0X0X0X0X0X0X0X0X0X0X0X0X0X0X",
"0X0X0X0X0X0X0X0X0X0X0X0X0X0X0X0X0X0X0X0X0X0X0X0X0X0X0X0X0X0X0X0X0X0X0Xy.s.s.s.s.D.j.d.) 9.R.a a a a a r l 0X0Xx +.s.s.s.s.^ 0X0X0X0X0X0X0X0X0X0X0X0X0X0X0X0X0X0X",
"0X0X0X0X0X0X0X0X0X0X0X0X0X0X0X0X0X0X0X0X0X0X0X0X0X0X0X0X0X0X0X0X0X0X0X( s.s.s.s.g.g.s.s.k 0 a a a a a ;.U P G 0XB ( s.s.s.@.^ 0X0X0X0X0X0X0X0X0X0X0X0X0X0X0X0X0X",
"0X0X0X0X0X0X0X0X0X0X0X0X0X0X0X0X0X0X0X0X0X0X0X0X0X0X0X0X0X0X0X0X0X0X0XV s.s.s.s.f.g.s.d.~ 6 a a a a =.P Q Q U P 0X0X~ s.i.V , 0X0X0X0X0X0X0X0X0X0X0X0X0X0X0X0X0X",
"0X0X0X0X0X0X0X0X0X0X0X0X0X0X0X0X0X0X0X0X0X0X0X0X0X0X0X0X0X0X0X0X0X0X0X0Xi.s.s.s.s.j.s.s.+.Z a a a a A U Q Q Q Q K 0X0Xo.O.h 0X0X0X0X0X0X0X0X0X0X0X0X0X0X0X0X0X0X",
"0X0X0X0X0X0X0X0X0X0X0X0X0X0X0X0X0X0X0X0X0X0X0X0X0X0X0X0X0X0X0X0X0X0X0X0XO.s.s.s.s.f.s.s.d.>.a a a a Z U Q Q Q Q Q Q # E x 0X0X0X0X0X0X0X0X0X0X0X0X0X0X0X0X0X0X0X",
"0X0X0X0X0X0X0X0X0X0X0X0X0X0X0X0X0X0X0X0X0X0X0X0X0X0X0X0X0X0X0X0X0X0X0X0Xt.s.s.s.s.s.s.s.s.u.p a a a *.K Q Q Q Q Q Q V J 0X0X0X0X0X0X0X0X0X0X0X0X0X0X0X0X0X0X0X0X",
"0X0X0X0X0X0X0X0X0X0X0X0X0X0X0X0X0X0X0X0X0X0X0X0X0X0X0X0X0X0X0X0X0X0X0X0X0Xi.s.s.s.s.s.s.s.@.-.a a a i C Q Q Q Q Q Q Q J 0X0X0X0X0X0X0X0X0X0X0X0X0X0X0X0X0X0X0X0X",
"0X0X0X0X0X0X0X0X0X0X0X0X0X0X0X0X0X0X0X0X0X0X0X0X0X0X0X0X0X0X0X0X0X0X0X0X0Xy.s.s.s.s.s.s.s.s.Z 9 a a a =.P Q Q Q Q Q Q Q K 0X0X0X0X0X0X0X0X0X0X0X0X0X0X0X0X0X0X0X",
"0X0X0X0X0X0X0X0X0X0X0X0X0X0X0X0X0X0X0X0X0X0X0X0X0X0X0X0X0X0X0X0X0X0X0X0X0Xt.s.s.s.s.s.s.s.s.) X : w a i A U Q Q Q Q Q Q Q J 0X0X0X0X0X0X0X0X0X0X0X0X0X0X0X0X0X0X",
"0X0X0X0X0X0X0X0X0X0X0X0X0X0X0X0X0X0X0X0X0X0X0X0X0X0X0X0X0X0X0X0X0X0X0X0X0X0Xi.s.s.s.s.s.s.s.y.0X0X% 5 w p T Q Q Q Q Q Q Q Q H 0X0X0X0X0X0X0X0X0X0X0X0X0X0X0X0X0X",
"0X0X0X0X0X0X0X0X0X0X0X0X0X0X0X0X0X0X0X0X0X0X0X0X0X0X0X0X0X0X0X0X0X0X0X0X0X0X0Xs.s.s.s.s.s.s.s.0X0X0X0X$ 3 e R Q Q Q Q Q Q Q Q V 0X0X0X0X0X0X0X0X0X0X0X0X0X0X0X0X",
"0X0X0X0X0X0X0X0X0X0X0X0X0X0X0X0X0X0X0X0X0X0X0X0X0X0X0X0X0X0X0X0X0X0X0X0X0X0X0Xs.s.s.s.s.s.s.s.0X0X0X0X0X0X& 2 K Q Q Q Q Q Q Q Q x 0X0X0X0X0X0X0X0X0X0X0X0X0X0X0X",
"0X0X0X0X0X0X0X0X0X0X0X0X0X0X0X0X0X0X0X0X0X0X0X0X0X0X0X0X0X0X0X0X0X0X0X0X0X0X0Xy.s.s.s.s.s.s.s.t.0X0X0X0X0X0XO # H Q Q Q Q Q Q K j 0X0X0X0X0X0X0X0X0X0X0X0X0X0X0X",
"0X0X0X0X0X0X0X0X0X0X0X0X0X0X0X0X0X0X0X0X0X0X0X0X0X0X0X0X0X0X0X0X0X0X0X0X0X0X0X0X+.s.s.s.s.s.s.i.0X0X0X0X0X0X0X0X+ A Q Q Q U K 2 0X0X0X0X0X0X0X0X0X0X0X0X0X0X0X0X",
"0X0X0X0X0X0X0X0X0X0X0X0X0X0X0X0X0X0X0X0X0X0X0X0X0X0X0X0X0X0X0X0X0X0X0X0X0X0X0X0X..s.s.s.s.s.s.s.0X0X0X0X0X0X0X+ j 1 A P K C 8 & 0X0X0X0X0X0X0X0X0X0X0X0X0X0X0X0X",
"0X0X0X0X0X0X0X0X0X0X0X0X0X0X0X0X0X0X0X0X0X0X0X0X0X0X0X0X0X0X0X0X0X0X0X0X0X0Xo.o.[ i.+.s.s.s.s.s.0X0X0X0X0X0Xz H H k < =.*.5 & 0X0X0X0X0X0X0X0X0X0X0X0X0X0X0X0X0X",
"0X0X0X0X0X0X0X0X0X0X0X0X0X0X0X0X0X0X0X0X0X0X0X0X0X0X0X0X0X0X0X0X0X0X0X0X<.e.{ s.o.s.O.i.s.s.s.s.0X0X0X0X0X0X:.L U Z 3 q : $ 0X0X0X0X0X0X0X0X0X0X0X0X0X0X0X0X0X0X",
"0X0X0X0X0X0X0X0X0X0X0X0X0X0X0X0X0X0X0X0X0X0X0X0X0X0X0X0X0X0X0X0X0X0X0Xy.T.1.{ s.+.s.s.y.s.s.s.t.0X0X0X0X0X2 P.&.L A a 4 7 = 0X0X0X0X0X0X0X0X0X0X0X0X0X0X0X0X0X0X",
"0X0X0X0X0X0X0X0X0X0X0X0X0X0X0X0X0X0X0X0X0X0X0X0X0X0X0X0X0X0X0X0X0X0Xy.s.!.^.p.s.s.s.s.t.^ P K 0X0X0X0X0XO c <.U.6.&.%.%.e 0X0X0X0X0X0X0X0X0X0X0X0X0X0X0X0X0X0X0X",
"0X0X0X0X0X0X0X0X0X0X0X0X0X0X0X0X0X0X0X0X0X0X0X0X0X0X0X0X0X0X0X0X0Xo.s.s.5.W.r.} s.s.s.t.( J 0X0X0X0X0X0X< T P f P.U.I.6.j 0X0X0X0X0X0X0X0X0X0X0X0X0X0X0X0X0X0X0X",
"0X0X0X0X0X0X0X0X0X0X0X0X0X0X0X0X0X0X0X0X0X0X0X0X0X0X0X0X0X0X0X0X^ +.s.s.y.R.8.p.s.s.@.! 0X0X0X0X0X0X0X0X; A =.p a d d t 0X0X0X0X0X0X0X0X0X0X0X0X0X0X0X0X0X0X0X0X",
"0X0X0X0X0X0X0X0X0X0X0X0X0X0X0X0X0X0X0X0X0X0X0X0X0X0X0X0X0X0X0X! y.s.s.s.#.w.Y.1.} O.^ 0X0X0X0X0X0X0X0X0X= a a a a q *   0X0X0X0X0X0X0X0X0X0X0X0X0X0X0X0X0X0X0X0X",
"0X0X0X0X0X0X0X0X0X0X0X0X0X0X0X0X0X0X0X0X0X0X0X0X0X0X0X0X0X0Xt.t.i.s.y.y.y.O.>.T L 0X0X0X0X0X0X0X0X0X0X0X= a a a r 7 X 0X0X0X0X0X0X0X0X0X0X0X0X0X0X0X0X0X0X0X0X0X",
"0X0X0X0X0X0X0X0X0X0X0X0X0X0X0X0X0X0X0X0X0X0X0X0X0X0X0X0Xt.i.s.s.s.s.s.s.i.o.F 0X0X0X0X0X0X0X0X0X0X0X0X0X< a w 3 : % 0X0X0X0X0X0X0X0X0X0X0X0X0X0X0X0X0X0X0X0X0X0X",
"0X0X0X0X0X0X0X0X0X0X0X0X0X0X0X0X0X0X0X0X0X0X0X0X0X0X0X .#.s.s.s.s.s.s.y.t.0X0X0X0X0X0X0X0X0X0X0X0X0X0XD Z a a 0 7 = 0X0X0X0X0X0X0X0X0X0X0X0X0X0X0X0X0X0X0X0X0X0X",
"0X0X0X0X0X0X0X0X0X0X0X0X0X0X0X0X0X0X0X0X0X0X0X0X0X' n.v.X.s.s.s.s.y.0X0X0X0X0X0X0X0X0X0X0X0X0X0X0X0X0XJ Z a a a : 0X0X0X0X0X0X0X0X0X0X0X0X0X0X0X0X0X0X0X0X0X0X0X",
"0X0X0X0X0X0X0X0X0X0X0X0X0X0X0X0X0X0X0XO.+.i.i.i.y.| M.N.] @.i.y.0X0X0X0X0X0X0X0X0X0X0X0X0X0X0X0X0X0X0XP Z a a 4 0X0X0X0X0X0X0X0X0X0X0X0X0X0X0X0X0X0X0X0X0X0X0X0X",
"0X0X0X0X0X0X0X0X0X0X0X0X0X0X0X0X0X0X0Xs.s.s.i.s.s.+.c.n.c.Y ^ 0X0X0X0X0X0X0X0X0X0X0X0X0X0X0X0X0X0X0Xx K Z a r & 0X0X0X0X0X0X0X0X0X0X0X0X0X0X0X0X0X0X0X0X0X0X0X0X",
"0X0X0X0X0X0X0X0X0X0X0X0X0X0X0X0X0X0Xs.s.i.y.y.s.s.s.X.' Y 0X0X0X0X0X0X0X0X0X0X0X0X0X0X0X0X0X0X0X0X0Xn M v y : 0X0X0X0X0X0X0X0X0X0X0X0X0X0X0X0X0X0X0X0X0X0X0X0X0X",
"0X0X0X0X0X0X0X0X0X0X0X0X0X0X0X0X0X0XO.i...O.+.i.s.s.O.0X0X0X0X0X0X0X0X0X0X0X0X0X0X0X0X0X0X0X0X0X0Xg N N I 1   0X0X0X0X0X0X0X0X0X0X0X0X0X0X0X0X0X0X0X0X0X0X0X0X0X",
"0X0X0X0X0X0X0X0X0X0X0X0X0X0X0X0X0X0X0X+.+.[ o.y.s.@.^ 0X0X0X0X0X0X0X0X0X0X0X0X0X0X0X0X0X0X0X0X0X0XD N m M g 0X0X0X0X0X0X0X0X0X0X0X0X0X0X0X0X0X0X0X0X0X0X0X0X0X0X",
"0X0X0X0X0X0X0X0X0X0X0X0X0X0X0X0X0X0X0Xo.s.s.s.s.s.t.0X0X0X0X0X0X0X0X0X0X0X0X0X0X0X0X0X0X0X0X0X0XP R , n m - 0X0X0X0X0X0X0X0X0X0X0X0X0X0X0X0X0X0X0X0X0X0X0X0X0X0X",
"0X0X0X0X0X0X0X0X0X0X0X0X0X0X0X0X0X0X0Xy.s.s.s.s.y.0X0X0X0X0X0X0X0X0X0X0X0X0X0X0X0X0X0X0X0X0X0XF U j 6 4 % w 3 0X0X0X0X0X0X0X0X0X0X0X0X0X0X0X0X0X0X0X0X0X0X0X0X0X",
"0X0X0X0X0X0X0X0X0X0X0X0X0X0X0X0X0X0X0Xs.s.s.s.i.0X0X0X0X0X0X0X0X0X0X0X0X0X0X0X0X0X0X0X0X0X0XF P U > i a : 8 C j 0X0X0X0X0X0X0X0X0X0X0X0X0X0X0X0X0X0X0X0X0X0X0X0X",
"0X0X0X0X0X0X0X0X0X0X0X0X0X0X0X0X0X0Xi.s.s.s.s.0X0X0X0X0X0X0X0X0X0X0X0X0X0X0X0X0X0X0X0X0X0X0XJ Q Q , 3 : % c U P x 0X0X0X0X0X0X0X0X0X0X0X0X0X0X0X0X0X0X0X0X0X0X0X",
"0X0X0X0X0X0X0X0X0X0X0X0X0X0X0X0X0X0XO.s.s.s.+.0X0X0X0X0X0X0X0X0X0X0X0X0X0X0X0X0X0X0X0X0X0X0XV K J A 5 5 0 C U Q K z 0X0X0X0X0X0X0X0X0X0X0X0X0X0X0X0X0X0X0X0X0X0X",
"0X0X0X0X0X0X0X0X0X0X0X0X0X0X0X0X0X0XO.s.s.s.0X0X0X0X0X0X0X0X0X0X0X0X0X0X0X0X0X0X0X0X0X0X0X0X0X@ . : 4 4 0 u R Q Q K F F H 0X0X0X0X0X0X0X0X0X0X0X0X0X0X0X0X0X0X0X",
"0X0X0X0X0X0X0X0X0X0X0X0X0X0X0X0X0X0Xo.s.s.[ 0X0X0X0X0X0X0X0X0X0X0X0X0X0X0X0X0X0X0X0X0X0X0X0X0X0X0X0X0X0X$ : $.H V z J K J h 0X0X0X0X0X0X0X0X0X0X0X0X0X0X0X0X0X0X",
"0X0X0X0X0X0X0X0X0X0X0X0X0X0X0X0X0X0X0Xs.s.Q h 0X0X0X0X0X0X0X0X0X0X0X0X0X0X0X0X0X0X0X0X0X0X0X0X0X0X0X0X0X0X0XX o . . o o o 0X0X0X0X0X0X0X0X0X0X0X0X0X0X0X0X0X0X0X",
"0X0X0X0X0X0X0X0X0X0X0X0X0X0X0X0X0X0X0X+.s.o.J 0X0X0X0X0X0X0X0X0X0X0X0X0X0X0X0X0X0X0X0X0X0X0X0X0X0X0X0X0X0X0X0X0X0X0X0X0X0X0X0X0X0X0X0X0X0X0X0X0X0X0X0X0X0X0X0X0X",
"0X0X0X0X0X0X0X0X0X0X0X0X0X0X0X0X0X0X0X0X@.^ 0X0X0X0X0X0X0X0X0X0X0X0X0X0X0X0X0X0X0X0X0X0X0X0X0X0X0X0X0X0X0X0X0X0X0X0X0X0X0X0X0X0X0X0X0X0X0X0X0X0X0X0X0X0X0X0X0X0X",
"0X0X0X0X0X0X0X0X0X0X0X0X0X0X0X0X0X0X0X0Xo.0X0X0X0X0X0X0X0X0X0X0X0X0X0X0X0X0X0X0X0X0X0X0X0X0X0X0X0X0X0X0X0X0X0X0X0X0X0X0X0X0X0X0X0X0X0X0X0X0X0X0X0X0X0X0X0X0X0X0X",
"0X0X0X0X0X0X0X0X0X0X0X0X0X0X0X0X0X0X0X0Xx 0X0X0X0X0X0X0X0X0X0X0X0X0X0X0X0X0X0X0X0X0X0X0X0X0X0X0X0X0X0X0X0X0X0X0X0X0X0X0X0X0X0X0X0X0X0X0X0X0X0X0X0X0X0X0X0X0X0X0X",
"0X0X0X0X0X0X0X0X0X0X0X0X0X0X0X0X0X0X0X0X0X0X0X0X0X0X0X0X0X0X0X0X0X0X0X0X0X0X0X0X0X0X0X0X0X0X0X0X0X0X0X0X0X0X0X0X0X0X0X0X0X0X0X0X0X0X0X0X0X0X0X0X0X0X0X0X0X0X0X0X",
"0X0X0X0X0X0X0X0X0X0X0X0X0X0X0X0X0X0X0X0X0X0X0X0X0X0X0X0X0X0X0X0X0X0X0X0X0X0X0X0X0X0X0X0X0X0X0X0X0X0X0X0X0X0X0X0X0X0X0X0X0X0X0X0X0X0X0X0X0X0X0X0X0X0X0X0X0X0X0X0X",
"0X0X0X0X0X0X0X0X0X0X0X0X0X0X0X0X0X0X0X0X0X0X0X0X0X0X0X0X0X0X0X0X0X0X0X0X0X0X0X0X0X0X0X0X0X0X0X0X0X0X0X0X0X0X0X0X0X0X0X0X0X0X0X0X0X0X0X0X0X0X0X0X0X0X0X0X0X0X0X0X",
"0X0X0X0X0X0X0X0X0X0X0X0X0X0X0X0X0X0X0X0X0X0X0X0X0X0X0X0X0X0X0X0X0X0X0X0X0X0X0X0X0X0X0X0X0X0X0X0X0X0X0X0X0X0X0X0X0X0X0X0X0X0X0X0X0X0X0X0X0X0X0X0X0X0X0X0X0X0X0X0X",
"0X0X0X0X0X0X0X0X0X0X0X0X0X0X0X0X0X0X0X0X0X0X0X0X0X0X0X0X0X0X0X0X0X0X0X0X0X0X0X0X0X0X0X0X0X0X0X0X0X0X0X0X0X0X0X0X0X0X0X0X0X0X0X0X0X0X0X0X0X0X0X0X0X0X0X0X0X0X0X0X",
"0X0X0X0X0X0X0X0X0X0X0X0X0X0X0X0X0X0X0X0X0X0X0X0X0X0X0X0X0X0X0X0X0X0X0X0X0X0X0X0X0X0X0X0X0X0X0X0X0X0X0X0X0X0X0X0X0X0X0X0X0X0X0X0X0X0X0X0X0X0X0X0X0X0X0X0X0X0X0X0X",
"0X0X0X0X0X0X0X0X0X0X0X0X0X0X0X0X0X0X0X0X0X0X0X0X0X0X0X0X0X0X0X0X0X0X0X0X0X0X0X0X0X0X0X0X0X0X0X0X0X0X0X0X0X0X0X0X0X0X0X0X0X0X0X0X0X0X0X0X0X0X0X0X0X0X0X0X0X0X0X0X",
"0X0X0X0X0X0X0X0X0X0X0X0X0X0X0X0X0X0X0X0X0X0X0X0X0X0X0X0X0X0X0X0X0X0X0X0X0X0X0X0X0X0X0X0X0X0X0X0X0X0X0X0X0X0X0X0X0X0X0X0X0X0X0X0X0X0X0X0X0X0X0X0X0X0X0X0X0X0X0X0X"
};
