/* XPM */
static char *result[] = {
/* columns rows colors chars-per-pixel */
"80 80 226 2 ",
"   c #4B0817",
".  c #49091B",
"X  c #581213",
"o  c #601518",
"O  c #68231D",
"+  c #77271A",
"@  c #4F1124",
"#  c #541224",
"$  c #541728",
"%  c #531634",
"&  c #561A31",
"*  c #611B37",
"=  c #5C233C",
"-  c #692128",
";  c #772926",
":  c #7A362F",
">  c #662935",
",  c #7B3438",
"<  c #5D0649",
"1  c #5E2641",
"2  c #5B2745",
"3  c #622C47",
"4  c #642E4A",
"5  c #67314D",
"6  c #6A3349",
"7  c #71324D",
"8  c #693452",
"9  c #683558",
"0  c #6E3B5B",
"q  c #7B3952",
"w  c #723E5C",
"e  c #6B3663",
"r  c #7E434E",
"t  c #76415E",
"y  c #794359",
"u  c #6C456D",
"i  c #734263",
"p  c #764A6A",
"a  c #6A4971",
"s  c #795074",
"d  c #90351E",
"f  c #A13E1E",
"g  c #832F24",
"h  c #863427",
"j  c #8B3624",
"k  c #8E3825",
"l  c #943927",
"z  c #9B3E24",
"x  c #933C29",
"c  c #873837",
"v  c #863D3B",
"b  c #B03A31",
"n  c #8B4816",
"m  c #94421C",
"M  c #AE5612",
"N  c #AA5C1A",
"B  c #B15716",
"V  c #AD6416",
"C  c #B46D15",
"Z  c #B7631B",
"A  c #8F4F2F",
"S  c #95412D",
"D  c #9C422A",
"F  c #8B413D",
"G  c #9D4737",
"H  c #94443E",
"J  c #A94527",
"K  c #A3452B",
"L  c #A6482D",
"P  c #AC4B2B",
"I  c #B14E2C",
"U  c #B5512D",
"Y  c #BA582D",
"T  c #A44735",
"R  c #A54B32",
"E  c #AA4E33",
"W  c #B04F30",
"Q  c #AD5135",
"!  c #AA5339",
"~  c #B55231",
"^  c #B95634",
"/  c #BC5B34",
"(  c #B35639",
")  c #B5593B",
"_  c #BD5B3B",
"`  c #99692E",
"'  c #BB653E",
"]  c #B47633",
"[  c #C77704",
"{  c #CC7715",
"}  c #D07315",
"|  c #C15E35",
" . c #C15E3B",
".. c #C7593E",
"X. c #C56729",
"o. c #D0742D",
"O. c #C36135",
"+. c #C5633B",
"@. c #C9663B",
"#. c #CD6A3D",
"$. c #D66833",
"%. c #D16E3F",
"&. c #D37C36",
"*. c #D5703D",
"=. c #883C4A",
"-. c #903649",
";. c #953D4A",
":. c #933E56",
">. c #8B4446",
",. c #82414C",
"<. c #97474B",
"1. c #8D4354",
"2. c #874259",
"3. c #954955",
"4. c #845954",
"5. c #9C5B57",
"6. c #A95447",
"7. c #B65A4C",
"8. c #B24F54",
"9. c #AD5456",
"0. c #996754",
"q. c #BA6648",
"w. c #BE624D",
"e. c #B6734F",
"r. c #A76357",
"t. c #BE6B53",
"y. c #844263",
"u. c #8D4A6F",
"i. c #93486B",
"p. c #8B5C6D",
"a. c #995762",
"s. c #A75562",
"d. c #B55B65",
"f. c #B25F79",
"g. c #936D63",
"h. c #886676",
"j. c #986976",
"k. c #977677",
"l. c #A66665",
"z. c #AD7172",
"x. c #A1727B",
"c. c #C65943",
"v. c #C66342",
"b. c #C96642",
"n. c #CB6A43",
"m. c #C56A4C",
"M. c #D86646",
"N. c #D16E41",
"B. c #D67342",
"V. c #D87543",
"C. c #D57648",
"Z. c #D7794D",
"A. c #DA7C4F",
"S. c #CD6754",
"D. c #D97D53",
"F. c #C86E68",
"G. c #BD8410",
"H. c #AF9729",
"J. c #D4890D",
"K. c #D48118",
"L. c #DA9513",
"P. c #DDA40B",
"I. c #E5A90C",
"U. c #CE8223",
"Y. c #E69B29",
"T. c #EDD905",
"R. c #918769",
"E. c #A49178",
"W. c #CA864F",
"Q. c #DB805A",
"!. c #DBAF40",
"~. c #DB8662",
"^. c #C4827A",
"/. c #E08A66",
"(. c #E49475",
"). c #585392",
"_. c #764F89",
"`. c #685193",
"'. c #7B7397",
"]. c #5A6ABF",
"[. c #7B76A1",
"{. c #757EB2",
"}. c #A75B9C",
"|. c #9B7E8C",
" X c #A6728F",
".X c #927CAA",
"XX c #B46DAA",
"oX c #7180B5",
"OX c #A49485",
"+X c #AC949B",
"@X c #BBBC9A",
"#X c #8A84A5",
"$X c #8B8DB1",
"%X c #9895B7",
"&X c #AE94A7",
"*X c #A394B6",
"=X c #AAACA4",
"-X c #ADA2BD",
";X c #B2ACB1",
":X c #BAB6BB",
">X c #C9B793",
",X c #C6C7A8",
"<X c #D0CBAF",
"1X c #D5D5B4",
"2X c #D8D9B9",
"3X c #8F97C6",
"4X c #A19CC2",
"5X c #8FACD5",
"6X c #A3A0CC",
"7X c #BABAC7",
"8X c #A5A6D3",
"9X c #BBBBD5",
"0X c #BABADC",
"qX c #BCBCE5",
"wX c #C5C6C8",
"eX c #DADACC",
"rX c #CCCCD8",
"tX c #D4D4D1",
"yX c #E4E4CE",
"uX c #EDEDD7",
"iX c #C3C3E5",
"pX c #CACAE9",
"aX c #EDEDE2",
"sX c #F6F6F3",
"dX c #F8F8F8",
"fX c None",
/* pixels */
"fXfXfXfXfXfXfXfXfXfXfXfXfXfXfXfXfXfXfXfXfXfXfXfXfXfXfXfXfXfXfXfXfXfXfXfXfXfXfXfXfXfXfXfXfXfXfXfXfXfXfXfXfXfXfXfXfXfXfXfXfXfXfXfXfXfXfXfXfXfXfXfXfXfXfXfXfXfXfXfX",
"fXfXfXfXfXfXfXfXfXfXfXfXfXfXfXfXfXfXfXfXfXfXfXfXfXfXfXfXfXfXfXfXfXfXfXfXfXfXfXfXfXfXfXfXfXfXfXfXfXfXfXfXfXfXfXfXfXfXfXfXfXfXfXfXfXfXfXfXfXfXfXfXfXfXfXfXfXfXfXfX",
"fXfXfXfXfXfXfXfXfXfXfXfXfXfXfXfXfXfXfXfXfXfXfXfXfXfXfXfXfXfXfXfXfXfXfXfXfXfXfXfXfXfXfXfXfXfXfXfXfXfXfXfXfXfXfXfXfXfXfXfXfXfXfXfXfXfXfXfXfXfXfXfXfXfXfXfXfXfXfXfX",
"fXfXfXfXfXfXfXfXfXfXfXfXfXfXfXfXfXfXfXfXfXfXfXfXfXfXfXfXfXfXfXfXfXfXfXfXfXfXfXfXfXfXfXfXfXfXfXfXfXfXfXfXfXfXfXfXfXfXfXfXfXfXfXfXfXfXfXfXfXfXfXfXfXfXfXfXfXfXfXfX",
"fXfXfXfXfXfXfXfXfXfXfXfXfXfXfXfXfXfXfXfXfXfXfXfXfXfXfXfXfXfXfXfXfXfXfXfXfXfXfXfXfXfXfXfXfXfXfXfXfXfXfXfXfXfXfXfXfXfXfXfXfXfXfXfXfXfXfXfXfXfXfXfXfXfXfXfXfXfXfXfX",
"fXfXfXfXfXfXfXfXfXfXfXfXfXfXfXfXfXfXfXfXfXfXfXfXfXfXfXfXfXfXfXfXfXfXfXfXfXfXfXfXfXfXfXfXfXfXfXfXfXfXfXfXfXfXfXfXfXfXfXfXfXfXfXfXfXfXfXfXfXfXfXfXfXfXfXfXfXfXfXfX",
"fXfXfXfXfXfXfXfXfXfXfXfXfXfXfXfXfXfXfXfXfXfXfXfXfXfXfXfXfXfXfXfXfXfXfXfXfXfXfXfXfXfXfXfXfXfXfXfXfXfXfXfXfXfXfXfXfXfXfXfXfXfXfXfXfXfXfXfXfXfXfXfXfXfXfXfXfXfXfXfX",
"fXfXfXfXfXfXfXfXfXfXfXfXfXfXfXfXfXfXfXfXfXfXfXfXfXfXfXfXfXfXfXfXfXfXfXfXfXfXfXfXfXfXfXfXfXfXfXfXfXfXfXfXfXfXfXfXfXfXfXfXfXfXfXfXfXfXfXfXfXfXfXfXfXfXfXfXfXfXfXfX",
"fXfXfXfXfXfXfXfXfXfXfXfXfXfXfXfXfXfXfXfXfXfXfXfXfXfXfXfXfXfXfXfXfXfXfXfXfXfXfXfXfXfXfXfXfXfXfXfXfXfXfXfXfXfXfXfXfXfXfXfXfXfXfXfXfXfXfXfXfXfXfXfXfXfXfXfXfXfXfXfX",
"fXfXfXfXfXfXfXfXfXfXfXfXfXfXfXfXfXfXfXfXfXfXfXfXfXfXfXfXfXfXfXfXfXfXfXfXfXfXfXfXfXfXfXfXfXfXfXfXfXfXfXfXfXfXfXfXfXfXfXfXfXfXfXfXfXfXfXfXfXfXfXfXfXfXfXfXfXfXfXfX",
"fXfXfXfXfXfXfXfXfXfXfXfXfXfXfXfXfXfXfXfXfXfXfXfXfXfXfXfXfXfXfXfXfXfXfXfXfXfXfXfXfXfXfXfXfXfXfXfXfXfXfXfXfXfXfXfXfXfXfXfXfXfXfXfXfXfXfXfXfXfXfXfXfXfXfXfXfXfXfXfX",
"fXfXfXfXfXfXfXfXfXfXfXfXfXfXfXfXfXfXfXfXfXfXfXfXfXfXfXfXfXfXfXfXfXfXfXfXfXfXfXfXfXfXfXfXfXfXfXfXfXfXfXfXfXfXfXfXfXfXfXfXfXfXfXfXfXfXfXfXfXfXfXfXfXfXfXfXfXfXfXfX",
"fXfXfXfXfXfXfXfXfXfXfXfXfXfXfXfXfXfXfXfXfXfXfXfXfXfXfXfXfXfXfXfXfXfXfXfXfXfXfXfXfXfXfXfXfXfXfXfXfXfXfXfX%XtXsXsXdXaX,XfXfXfXfXfXfXfXfXfXfXfXfXfXfXfXfXfXfXfXfXfX",
"fXfXfXfXfXfXfXfXfXfXfXfXfXfXfXfXfXfXfXfXfXfXfXfXfXfXfXfXfXfXfXfXfXfXfXfXfXfXfXfXfXfXfXfXfXfXfXfXfXfXfX#X4XtXuXsXdXdXaX,XfXfXfXfXfXfXfXfXfXfXfXfXfXfXfXfXfXfXfXfX",
"fXfXfXfXfXfXfXfXfXfXfXfXfXfXfXfXfXfXfXfXfXfXfXfXfXfXfXfXfXfXfXfXfXfXfXfXfXfXfXfXfXfXfXfXfXfXfXfXfXfXfX%X0X0XwXeXyXuXuX2X:XfXfXfXfXfXfXfXfXfXfXfXfXfXfXfXfXfXfXfX",
"fXfXfXfXfXfXfXfXfXfXfXfXfXfXfXfXfXfXfXfXfXfXfXfXfXfXfXfXfXfXfXfXfXfXfXfXfXfXfXfXfXfXfXfXfXfXfXfXfXfXfXqXpX0XiX9XwXeXeXtXpXfXfXfXfXfXfXfXfXfXfXfXfXfXfXfXfXfXfXfX",
"fXfXfXfXfXfXfXfXfXfXfXfXfXfXfXfXfXfXfXfXfXfXfXfXfXfXfXfXfXfXfXfXfXfXfXfXfXfXfXfXfXfXfXfXfXfXfXfXfXfXfX8X*X#XiX&Xx.%X0X0XiXiXfXfXfXfXfXfXfXfXfXfXfXfXfXfXfXfXfXfX",
"fXfXfXfXfXfXfXfXfXfXfXfXfXfXfXfXfXfXfXfXfXfXfXfXfXfXfXfXfXfXfXfXfXfXfXfXfXfXfXfXfXfX_ b.b.b.@.G.H.$X!.k.v r.4X^.D : +X-X*XfXfXfXfXfXfXfXfXfXfXfXfXfXfXfXfXfXfXfX",
"fXfXfXfXfXfXfXfXfXfXfXfXfXfXfXfXfXfXfXfXfXfXfXfXfXfXfXfXfXfXfXfXfXfXfXfXfXfXfXfX+.^ / C.~.Q.&.T.R.5XY.Z k ; z.j.r 2 6.a.'.fXfXfXfXfXfXfXfXfXfXfXfXfXfXfXfXfXfXfX",
"fXfXfXfXfXfXfXfXfXfXfXfXfXfXfXfXfXfXfXfXfXfXfXfXfXfXfXfXfXfXfXfXfXfXfXfXfXfXfX| +.+.B.D.(./.B.L.g.3X$.{ / h v.l.t.t.R fXfXfXfXfXfXfXfXfXfXfXfXfXfXfXfXfXfXfXfXfX",
"fXfXfXfXfXfXfXfXfXfXfXfXfXfXfXfXfXfXfXfXfXfXfXfXfXfXfXfXfXfXfXfXfXfXfXfXfXfX+ E | B.B.C.D.Z.V./ 4.].8.} m ;  .v.v._ g fXfXfXfXfXfXfXfXfXfXfXfXfXfXfXfXfXfXfXfXfX",
"fXfXfXfXfXfXfXfXfXfXfXfXfXfXfXfXfXfXfXfXfXfXfXfXfXfXfXfXfXfXfXfXfXfXfXfXfXx D X.%.B.B.B.B.B.B.Y V ).y z X fXk Q j + fXfXfXfXfXfXfXfXfXfXfXfXfXfXfXfXfXfXfXfXfXfX",
"fXfXfXfXfXfXfXfXfXfXfXfXfXfXfXfXfXfXfXfXfXfXfXfXfXfXfXfXfXfXfXfXfXfXfX+.#.+.F.I.&.B.B.B.B.%.+.] [ V ' @.g fXfXX fXfXfXfXfXfXfXfXfXfXfXfXfXfXfXfXfXfXfXfXfXfXfXfX",
"fXfXfXfXfXfXfXfXfXfXfXfXfXfXfXfXfXfXfXfXfXfXfXfXfXfXfXfXfXfXfXfXfXb.N.B.B.*.F.W.{ Y I ) ' e.>X>X` C V.V.~ fXfXfXfXfXfXfXfXfXfXfXfXfXfXfXfXfXfXfXfXfXfXfXfXfXfXfX",
"fXfXfXfXfXfXfXfXfXfXfXfXfXfXfXfXfXfXfXfXfXfXfXfXfXfXfXfXfXfX| @.N.B.B.B.B.V.n.f.K.O.5.-X<X<X2X1X,XE.n.V.Q fXfXfXfXfXfXfXfXfXfXfXfXfXfXfXfXfXfXfXfXfXfXfXfXfXfXfX",
"fXfXfXfXfXfXfXfXfXfXfXfXfXfXfXfXfXfXfXfXfXfXfXfXfXfXfXfXfX| N.V.B.B.B.B.V.B.N.w.' &X&XwX1X1X1X<X@XE.1.<.; fXfXfXfXfXfXfXfXfXfXfXfXfXfXfXfXfXfXfXfXfXfXfXfXfXfXfX",
"fXfXfXfXfXfXfXfXfXfXfXfXfXfXfXfXfXfXfXfXfXfXfXfXfXfXfXfXfXQ B.B.B.B.+./ Q ( / O.m.:X=X9XtX1X2X,X,XE.& . fXfXfXfXfXfXfXfXfXfXfXfXfXfXfXfXfXfXfXfXfXfXfXfXfXfXfXfX",
"fXfXfXfXfXfXfXfXfXfXfXfXfXfXfXfXfXfXfXfXfXfXfXfXfXfXfXfXfXR B.B.B.B.V.Q h _ m.9.9.l.k.9XpXrXrX:X<XOXq fXfXfXfXfXfXfXfXfXfXfXfXfXfXfXfXfXfXfXfXfXfXfXfXfXfXfXfXfX",
"fXfXfXfXfXfXfXfXfXfXfXfXfXfXfXfXfXfXfXfXfXfXfXfXfXfXfXfXfXfX^ V.B.B.V.@.6.9.s.s.1.=.$ +X7X7X7X=X;Xe.m fXfXfXfXfXfXfXfXfXfXfXfXfXfXfXfXfXfXfXfXfXfXfXfXfXfXfXfXfX",
"fXfXfXfXfXfXfXfXfXfXfXfXfXfXfXfXfXfXfXfXfXfXfXfXfXfXfXfXfXQ ^ %.B.B.B.B.w.+X X3.# fXfXfXfXR.0.0.p.i.l.fXfXfXfXfXfXfXfXfXfXfXfXfXfXfXfXfXfXfXfXfXfXfXfXfXfXfXfXfX",
"fXfXfXfXfXfXfXfXfXfXfXfXfXfXfXfXfXfXfXfXfXfXfXfXfXfXfXfXb.B.B.@.B.B.B.B.m.%X4XOXfXfXfXfXfXfX<.<.y.q * fXfXfXfXfXfXfXfXfXfXfXfXfXfXfXfXfXfXfXfXfXfXfXfXfXfXfXfXfX",
"fXfXfXfXfXfXfXfXfXfXfXfXfXfXfXfXfXfXfXfXfXfXfXfXfXfXfXfXN.B.B.B.#.B.B.B.@.x.6Xh.fXfXfXfXfXc y.1.<.v g fXfXfXfXfXfXfXfXfXfXfXfXfXfXfXfXfXfXfXfXfXfXfXfXfXfXfXfXfX",
"fXfXfXfXfXfXfXfXfXfXfXfXfXfXfXfXfXfXfXfXfXfXfXfXfXfXfX#.B.B.B.B.@.N.*.d.}.s.4Xs 5 fXfXfXfX<.y.y.2.1.1.G fXfXfXfXfXfXfXfXfXfXfXfXfXfXfXfXfXfXfXfXfXfXfXfXfXfXfXfX",
"fXfXfXfXfXfXfXfXfXfXfXfXfXfXfXfXfXfXfXfXfXfXfXfXfXfXfXO.V.B.V.C.B.+.7.XX^.W.k.s i i 8 = fX7 y.y.y.y.3.7._ E D fXfXfXfXfXfXfXfXfXfXfXfXfXfXfXfXfXfXfXfXfXfXfXfXfX",
"fXfXfXfXfXfXfXfXfXfXfXfXfXfXfXfXfXfXfXfXfXfXfXfXfXfXfX| V.B.Z.Z.B.%.d.W.P.X.K q i i i 0 4 # =.2.y.y.7.b.v.v._ <.1.d fXfXfXL ^ ~ x fXfXfXfXfXfXfXfXfXfXfXfXfXfXfX",
"fXfXfXfXfXfXfXfXfXfXfXfXfXfXfXfXfXfXfXfXfXfXfXfXfXfXfX+.V.B.A.A.B.B.w.U.o.S.d.p w i i i i 1 O H =.2.7.v.v.v.6.a.N b ;.> k v.v.Q k + fXfXfXfXfXfXfXfXfXfXfXfXfXfX",
"fXfXfXfXfXfXfXfXfXfXfXfXfXfXfXfXfXfXfXfXfXfXfXfXfXfXfX/ #.B.A.A.B.B.*.Y c.|.oX'., w w i i w 8 fXfXfXE ~ _ | <.3.M b a 6. .v.( Q E E E k fXfXfXfXfXfXfXfXfXfXfXfX",
"fXfXfXfXfXfXfXfXfXfXfXfXfXfXfXfXfXfXfXfXfXfXfXfXfXfXfXfX| B.A.Q.B.B.B.%.7.[.t.C.@.E R r i i i 5 fXfXfXfXfXfX;.<.M l a ( b.c.R v.b.b.v.( fXfXfXfXfXfXfXfXfXfXfXfX",
"fXfXfXfXfXfXfXfXfXfXfXfXfXfXfXfXfXfXfXfXfXfXfXfXfXfXfXfX| B.A.~.B.B.B.B.q.F %.B.B.V.V.! w i i i 0 % fXfXfXfXfXfXfXfXfXx D D Q _ _ v.b.v.I fXfXfXfXfXfXfXfXfXfXfX",
"fXfXfXfXfXfXfXfXfXfXfXfXfXfXfXfXfXfXfXfXfXfXfXfXfXfXfXfX/ B.C.D.V.B.B.B.B.( #.B.B.V.+./ ,.i i i t , + fXfXfXfXfXfXfXfXfXfXfXk j x Q Q ( fXfXfXfXfXfXfXfXfXfXfXfX",
"fXfXfXfXfXfXfXfXfXfXfXfXfXfXfXfXfXfXfXfXfXfXfXfXfXfXfXfX~ B.B.Z.V.B.B.B.V.( R V.B.V.E S v i t H T I P fXfXfXfXfXfXfXfXfXfXfXfXfXfXfXfXfXfXfXfXfXfXfXfXfXfXfXfXfX",
"fXfXfXfXfXfXfXfXfXfXfXfXfXfXfXfXfXfXfXfXfXfXfXfXfXfXfXfXP @.B.Z.V.B.B.B.V.#.j @.V.B.b.,.t i t G U ~ ~ P fXfXfXfXfXfXfXfXfXfXfXfXfXfXfXfXfXfXfXfXfXfXfXfXfXfXfXfX",
"fXfXfXfXfXfXfXfXfXfXfXfXfXfXfXfXfXfXfXfXfXfXfXfXfXfXfXfXfX+.B.B.B.B.B.B.B.B.D x B.V.%.F i i i >.I ~ ~ ~ P fXfXfXfXfXfXfXfXfXfXfXfXfXfXfXfXfXfXfXfXfXfXfXfXfXfXfX",
"fXfXfXfXfXfXfXfXfXfXfXfXfXfXfXfXfXfXfXfXfXfXfXfXfXfXfXfXfX^ N.B.B.B.B.B.B.B.b.fXQ V.*.F i i i t G U ~ ~ ~ I fXfXfXfXfXfXfXfXfXfXfXfXfXfXfXfXfXfXfXfXfXfXfXfXfXfX",
"fXfXfXfXfXfXfXfXfXfXfXfXfXfXfXfXfXfXfXfXfXfXfXfXfXfXfXfXfXfXb.B.B.B.B.B.B.B.b.fXfXE P v 4 w i i y R ~ ~ ~ ~ P fXfXfXfXfXfXfXfXfXfXfXfXfXfXfXfXfXfXfXfXfXfXfXfXfX",
"fXfXfXfXfXfXfXfXfXfXfXfXfXfXfXfXfXfXfXfXfXfXfXfXfXfXfXfXfXfXv.N.V.B.B.B.B.B.b.fXfXfXfXfXfX# 1 i i H U ~ ~ ~ P fXfXfXfXfXfXfXfXfXfXfXfXfXfXfXfXfXfXfXfXfXfXfXfXfX",
"fXfXfXfXfXfXfXfXfXfXfXfXfXfXfXfXfXfXfXfXfXfXfXfXfXfXfXfXfXfX^ N.#.B.B.B.B.B./ fXfXfXfXfXfXfXfX= 0 ,.P ~ ~ ~ P fXfXfXfXfXfXfXfXfXfXfXfXfXfXfXfXfXfXfXfXfXfXfXfXfX",
"fXfXfXfXfXfXfXfXfXfXfXfXfXfXfXfXfXfXfXfXfXfXfXfXfXfXfXfXfXfXfXb.+.N.B.B.B.%.P fXfXfXfXfXfXfXfXfX@ 6 G ~ ~ ~ I fXfXfXfXfXfXfXfXfXfXfXfXfXfXfXfXfXfXfXfXfXfXfXfXfX",
"fXfXfXfXfXfXfXfXfXfXfXfXfXfXfXfXfXfXfXfXfXfXfXfXfXfXfXfXfXfXfX .| n.B.B.B.%.I fXfXfXfXfXfXfXfXfX& 1 c I ~ ~ K fXfXfXfXfXfXfXfXfXfXfXfXfXfXfXfXfXfXfXfXfXfXfXfXfX",
"fXfXfXfXfXfXfXfXfXfXfXfXfXfXfXfXfXfXfXfXfXfXfXfXfXfXfXfXfXfXfX^ ^ +.B.B.B.%.I fXfXfXfXfXfXfXfXfX5 8 4 H U ~ z fXfXfXfXfXfXfXfXfXfXfXfXfXfXfXfXfXfXfXfXfXfXfXfXfX",
"fXfXfXfXfXfXfXfXfXfXfXfXfXfXfXfXfXfXfXfXfXfXfXfXfXfXfXfXfXfXk ^ _ +.B.B.V.+.fXfXfXfXfXfXfXfXfXfX8 i i ,.P L K J fXfXfXfXfXfXfXfXfXfXfXfXfXfXfXfXfXfXfXfXfXfXfXfX",
"fXfXfXfXfXfXfXfXfXfXfXfXfXfXfXfXfXfXfXfXfXfXfXfXfXfXfXfXfX#.+._ v.v.B.V.#.U fXfXfXfXfXfXfXfXfXfX-.:.i i >.D L T fXfXfXfXfXfXfXfXfXfXfXfXfXfXfXfXfXfXfXfXfXfXfXfX",
"fXfXfXfXfXfXfXfXfXfXfXfXfXfXfXfXfXfXfXfXfXfXfXfXfXfXfXfXc.M.@.b.v.v.B.%.Y fXfXfXfXfXfXfXfXfXfXfXe i.:.;.;.:.u.3.fXfXfXfXfXfXfXfXfXfXfXfXfXfXfXfXfXfXfXfXfXfXfXfX",
"fXfXfXfXfXfXfXfXfXfXfXfXfXfXfXfXfXfXfXfXfXfXfXfXfXfXfXh..Xd.F...v.v.^ U fXfXfXfXfXfXfXfXfXfXfXfX% ).`._._._.9 J fXfXfXfXfXfXfXfXfXfXfXfXfXfXfXfXfXfXfXfXfXfXfXfX",
"fXfXfXfXfXfXfXfXfXfXfXfXfXfXfXfXfXfXfXfXfXfXfXfXfXfXU ~ k..X$Xf.c._ ^ fXfXfXfXfXfXfXfXfXfXfXfXfXfX3 u a a u - f fXfXfXfXfXfXfXfXfXfXfXfXfXfXfXfXfXfXfXfXfXfXfXfX",
"fXfXfXfXfXfXfXfXfXfXfXfXfXfXfXfXfXfXfXfXfXfXfXfXfXfX+.V.B.+.z.{.j...^ fXfXfXfXfXfXfXfXfXfXfXfXfXfXfX5 i i 8 > z fXfXfXfXfXfXfXfXfXfXfXfXfXfXfXfXfXfXfXfXfXfXfXfX",
"fXfXfXfXfXfXfXfXfXfXfXfXfXfXfXfXfXfXfXfXfXfXfXfXfXU B.B.B.V.*.r.{.5.fXfXfXfXfXfXfXfXfXfXfXfXfXfXfXfX. & 9 4 4 > fXfXfXfXfXfXfXfXfXfXfXfXfXfXfXfXfXfXfXfXfXfXfXfX",
"fXfXfXfXfXfXfXfXfXfXfXfXfXfXfXfXfXfXfXfXfXfXfXfXfX| B.B.B.B.B.@.5.p.fXfXfXfXfXfXfXfXfXfXfXfXfXfXfXfXfX$ 5 4 5 5 fXfXfXfXfXfXfXfXfXfXfXfXfXfXfXfXfXfXfXfXfXfXfXfX",
"fXfXfXfXfXfXfXfXfXfXfXfXfXfXfXfXfXfXfXfXfXfXfXfXfX+.B.B.B.B.B.b.I fXfXfXfXfXfXfXfXfXfXfXfXfXfXfXfXfXfX$ 0 w t e < fXfXfXfXfXfXfXfXfXfXfXfXfXfXfXfXfXfXfXfXfXfXfX",
"fXfXfXfXfXfXfXfXfXfXfXfXfXfXfXfXfXfXfXfXfXfXfXfXfX+.B.B.B.n.+.~ fXfXfXfXfXfXfXfXfXfXfXfXfXfXfXfXfXfXfXfX3 e 7 S o fXfXfXfXfXfXfXfXfXfXfXfXfXfXfXfXfXfXfXfXfXfXfX",
"fXfXfXfXfXfXfXfXfXfXfXfXfXfXfXfXfXfXfXfXfXfXfXfXY N.b.b.+._ ~ fXfXfXfXfXfXfXfXfXfXfXfXfXfXfXfXfXfXfXfXfX# c V [ + + fXfXfXfXfXfXfXfXfXfXfXfXfXfXfXfXfXfXfXfXfXfX",
"fXfXfXfXfXfXfXfXfXfXfXfXfXfXfXfXfXfXfXfXfXfXfXfXO.B.N.b./ #.B.fXfXfXfXfXfXfXfXfXfXfXfXfXfXfXfXfXfXfXfXfXO N V [ n g P P fXfXfXfXfXfXfXfXfXfXfXfXfXfXfXfXfXfXfXfX",
"fXfXfXfXfXfXfXfXfXfXfXfXfXfXfXfXfXfXfXfXfXfXfXI %.B.B.B.V.V.fXfXfXfXfXfXfXfXfXfXfXfXfXfXfXfXfXfXfXfXfXfX@ n V A y - I ~ I P J fXfXfXfXfXfXfXfXfXfXfXfXfXfXfXfXfX",
"fXfXfXfXfXfXfXfXfXfXfXfXfXfXfXfXfXfXfXfXfXfXfX/ B.B.B.B.B.fXfXfXfXfXfXfXfXfXfXfXfXfXfXfXfXfXfXfXfXfXfXfXfX+ 6 i 8 ; I ~ ~ ~ ~ K x l P P z fXfXfXfXfXfXfXfXfXfXfX",
"fXfXfXfXfXfXfXfXfXfXfXfXfXfXfXfXfXfXfXfXfXfXfX#.V.V.B.B.n.fXfXfXfXfXfXfXfXfXfXfXfXfXfXfXfXfXfXfXfXfXfXfXfXj - & 1 ,.I ~ ~ ~ ~ ~ ~ W ~ P L fXfXfXfXfXfXfXfXfXfXfX",
"fXfXfXfXfXfXfXfXfXfXfXfXfXfXfXfXfXfXfXfXfXfXU O.O.N.V.#.fXfXfXfXfXfXfXfXfXfXfXfXfXfXfXfXfXfXfXfXfXfXfXfXfXz ,.0 i i T P P I ~ ~ I P K j j fXfXfXfXfXfXfXfXfXfXfX",
"fXfXfXfXfXfXfXfXfXfXfXfXfXfXfXfXfXfXfXfXfXfXK.P.J.{ #.@.fXfXfXfXfXfXfXfXfXfXfXfXfXfXfXfXfXfXfXfXfXfXfXfXfXk q 0 0 4 g k fXJ J P fXfXfXfXfXfXfXfXfXfXfXfXfXfXfXfX",
"fXfXfXfXfXfXfXfXfXfXfXfXfXfXfXfXfXfXfXfXfXB J.I.J.{ o.fXfXfXfXfXfXfXfXfXfXfXfXfXfXfXfXfXfXfXfXfXfXfXfXfXfX  . . . fXfXfXfXfXfXfXfXfXfXfXfXfXfXfXfXfXfXfXfXfXfXfX",
"fXfXfXfXfXfXfXfXfXfXfXfXfXfXfXfXfXfXfXfXfXI | o.{ L.X.fXfXfXfXfXfXfXfXfXfXfXfXfXfXfXfXfXfXfXfXfXfXfXfXfXfXfXfXfXfXfXfXfXfXfXfXfXfXfXfXfXfXfXfXfXfXfXfXfXfXfXfXfX",
"fXfXfXfXfXfXfXfXfXfXfXfXfXfXfXfXfXfXfXfX| B.V.N.| X.Y fXfXfXfXfXfXfXfXfXfXfXfXfXfXfXfXfXfXfXfXfXfXfXfXfXfXfXfXfXfXfXfXfXfXfXfXfXfXfXfXfXfXfXfXfXfXfXfXfXfXfXfXfX",
"fXfXfXfXfXfXfXfXfXfXfXfXfXfXfXfXfXfXfXfX@.N.V.N.+.B.@.fXfXfXfXfXfXfXfXfXfXfXfXfXfXfXfXfXfXfXfXfXfXfXfXfXfXfXfXfXfXfXfXfXfXfXfXfXfXfXfXfXfXfXfXfXfXfXfXfXfXfXfXfX",
"fXfXfXfXfXfXfXfXfXfXfXfXfXfXfXfXfXfXfX+.#.@.B.+.%.B.B.+.fXfXfXfXfXfXfXfXfXfXfXfXfXfXfXfXfXfXfXfXfXfXfXfXfXfXfXfXfXfXfXfXfXfXfXfXfXfXfXfXfXfXfXfXfXfXfXfXfXfXfXfX",
"fXfXfXfXfXfXfXfXfXfXfXfXfXfXfXfXfXfX+.B.B.@.+.#.B.B.B.B.#.fXfXfXfXfXfXfXfXfXfXfXfXfXfXfXfXfXfXfXfXfXfXfXfXfXfXfXfXfXfXfXfXfXfXfXfXfXfXfXfXfXfXfXfXfXfXfXfXfXfXfX",
"fXfXfXfXfXfXfXfXfXfXfXfXfXfXfXfXfXfX#.B.B.B.%.B.B.B.B.B.#.+.fXfXfXfXfXfXfXfXfXfXfXfXfXfXfXfXfXfXfXfXfXfXfXfXfXfXfXfXfXfXfXfXfXfXfXfXfXfXfXfXfXfXfXfXfXfXfXfXfXfX",
"fXfXfXfXfXfXfXfXfXfXfXfXfXfXfXfXfX/ B.V.V.V.V.V.V.V.B.+.+.+.+.+.+.fXfXfXfXfXfXfXfXfXfXfXfXfXfXfXfXfXfXfXfXfXfXfXfXfXfXfXfXfXfXfXfXfXfXfXfXfXfXfXfXfXfXfXfXfXfXfX",
"fXfXfXfXfXfXfXfXfXfXfXfXfXfXfXfXfXfX+.@.@.@.@.@.@.@.+.+.@.%.%.%.%.+.fXfXfXfXfXfXfXfXfXfXfXfXfXfXfXfXfXfXfXfXfXfXfXfXfXfXfXfXfXfXfXfXfXfXfXfXfXfXfXfXfXfXfXfXfXfX",
"fXfXfXfXfXfXfXfXfXfXfXfXfXfXfXfXfXfXfXj j j j j j j j j K ^ ~ ~ ^ ~ fXfXfXfXfXfXfXfXfXfXfXfXfXfXfXfXfXfXfXfXfXfXfXfXfXfXfXfXfXfXfXfXfXfXfXfXfXfXfXfXfXfXfXfXfXfX",
"fXfXfXfXfXfXfXfXfXfXfXfXfXfXfXfXfXfXfXfXfXfXfXfXfXfXfXfXfXfXfXfXfXfXfXfXfXfXfXfXfXfXfXfXfXfXfXfXfXfXfXfXfXfXfXfXfXfXfXfXfXfXfXfXfXfXfXfXfXfXfXfXfXfXfXfXfXfXfXfX",
"fXfXfXfXfXfXfXfXfXfXfXfXfXfXfXfXfXfXfXfXfXfXfXfXfXfXfXfXfXfXfXfXfXfXfXfXfXfXfXfXfXfXfXfXfXfXfXfXfXfXfXfXfXfXfXfXfXfXfXfXfXfXfXfXfXfXfXfXfXfXfXfXfXfXfXfXfXfXfXfX",
"fXfXfXfXfXfXfXfXfXfXfXfXfXfXfXfXfXfXfXfXfXfXfXfXfXfXfXfXfXfXfXfXfXfXfXfXfXfXfXfXfXfXfXfXfXfXfXfXfXfXfXfXfXfXfXfXfXfXfXfXfXfXfXfXfXfXfXfXfXfXfXfXfXfXfXfXfXfXfXfX"
};
