/* XPM */
static char *result[] = {
/* columns rows colors chars-per-pixel */
"80 80 218 2 ",
"   c #480614",
".  c #49091C",
"X  c #510B13",
"o  c #6B1D1B",
"O  c #6F211D",
"+  c #7B291F",
"@  c #4D0E22",
"#  c #4B0929",
"$  c #52142D",
"%  c #54182F",
"&  c #561C33",
"*  c #581E36",
"=  c #59193A",
"-  c #55223E",
";  c #5B233C",
":  c #6A2328",
">  c #7A2B27",
",  c #7B3126",
"<  c #642134",
"1  c #6C253A",
"2  c #7C3C3D",
"3  c #5E1B42",
"4  c #5B2541",
"5  c #4C2E5C",
"6  c #672C47",
"7  c #6F3244",
"8  c #66314D",
"9  c #78374B",
"0  c #6A3653",
"q  c #6D3B5A",
"w  c #793756",
"e  c #713E5D",
"r  c #713F60",
"t  c #78504D",
"y  c #784259",
"u  c #7A435B",
"i  c #734263",
"p  c #705476",
"a  c #891E1F",
"s  c #8A3619",
"d  c #903F16",
"f  c #822E22",
"g  c #853225",
"h  c #8D3828",
"j  c #973C24",
"k  c #943C26",
"l  c #933D2A",
"z  c #863432",
"x  c #973D37",
"c  c #A93E26",
"v  c #BD3937",
"b  c #C33A34",
"n  c #A8461F",
"m  c #AB5B19",
"M  c #B1531C",
"N  c #B6650C",
"B  c #AE6717",
"V  c #BC6517",
"C  c #994227",
"Z  c #9B422B",
"A  c #9D572D",
"S  c #8D4334",
"D  c #93443D",
"F  c #9D4839",
"G  c #865138",
"H  c #A14125",
"J  c #AA4525",
"K  c #AB4827",
"L  c #A4462B",
"P  c #A4492D",
"I  c #AD4B2B",
"U  c #B6482C",
"Y  c #B24E2D",
"T  c #A25822",
"R  c #B4512D",
"E  c #B9562F",
"W  c #B75A28",
"Q  c #A14734",
"!  c #A54A32",
"~  c #A94E30",
"^  c #B24E32",
"/  c #AE5333",
"(  c #A6513E",
")  c #B45332",
"_  c #B95634",
"`  c #B55835",
"'  c #BC5A34",
"]  c #B45739",
"[  c #BD5B3B",
"{  c #9C6537",
"}  c #BB613F",
"|  c #CF5119",
" . c #CC750C",
".. c #C87715",
"X. c #C0412E",
"o. c #C15E35",
"O. c #C6573C",
"+. c #C25F3D",
"@. c #CA6C2E",
"#. c #CB7624",
"$. c #C46136",
"%. c #CB6637",
"&. c #CC6C31",
"*. c #C5633A",
"=. c #C9663A",
"-. c #CD6A3D",
";. c #D16D3E",
":. c #D4703F",
">. c #D8713D",
",. c #853E43",
"<. c #803D5D",
"1. c #A6384A",
"2. c #803E60",
"3. c #974447",
"4. c #9B4C44",
"5. c #8F524E",
"6. c #9E5449",
"7. c #884856",
"8. c #9C475F",
"9. c #A35A4B",
"0. c #A85C49",
"q. c #BB5C45",
"w. c #AB4E54",
"e. c #A9535A",
"r. c #BB6147",
"t. c #AB645A",
"y. c #B56C56",
"u. c #844264",
"i. c #984466",
"p. c #9B5E64",
"a. c #8D4D7B",
"s. c #A75466",
"d. c #AF5C74",
"f. c #996B6E",
"g. c #8B697A",
"h. c #B16D71",
"j. c #CC5A46",
"k. c #CC594E",
"l. c #D25D59",
"z. c #C66342",
"x. c #C96642",
"c. c #C66B47",
"v. c #CD6B42",
"b. c #D16E41",
"n. c #DB634D",
"m. c #D67342",
"M. c #D87443",
"N. c #D7774A",
"B. c #D97A4C",
"V. c #C56756",
"C. c #C97854",
"Z. c #D87D54",
"A. c #C4776F",
"S. c #B4800A",
"D. c #CC8712",
"F. c #D38215",
"G. c #E19608",
"H. c #CE912F",
"J. c #A5A243",
"K. c #C7814F",
"L. c #D6835A",
"P. c #DB825C",
"I. c #DD8967",
"U. c #D59A70",
"Y. c #E69372",
"T. c #D4E944",
"R. c #4F4C93",
"E. c #665285",
"W. c #6D548C",
"Q. c #645A99",
"!. c #777694",
"~. c #6468B3",
"^. c #A1588A",
"/. c #886D87",
"(. c #927387",
"). c #827698",
"_. c #A9758C",
"`. c #6F80C4",
"'. c #A4848C",
"]. c #B78583",
"[. c #B29399",
"{. c #B0AA8F",
"}. c #B6B395",
"|. c #9797A9",
" X c #908EB2",
".X c #AB91AA",
"XX c #A6A3BB",
"oX c #B8B8B0",
"OX c #C48F8D",
"+X c #CFAD8B",
"@X c #CFB1A4",
"#X c #C9C5A6",
"$X c #D2CFB0",
"%X c #D9D9B7",
"&X c #9F9CC4",
"*X c #A19CC9",
"=X c #82A0D3",
"-X c #A5A4C7",
";X c #BAADCA",
":X c #ABABD7",
">X c #AFB0D9",
",X c #B2B2DA",
"<X c #BBBBDC",
"1X c #BDBEE3",
"2X c #C2B0C5",
"3X c #CACAC8",
"4X c #D6D6C7",
"5X c #D0D1CA",
"6X c #C6C7D9",
"7X c #E1E1CB",
"8X c #EBEBDB",
"9X c #C6C7E6",
"0X c #C5C6E8",
"qX c #C9C9EA",
"wX c #F2F2E8",
"eX c #F6F6F4",
"rX c #F8F8F9",
"tX c None",
/* pixels */
"tXtXtXtXtXtXtXtXtXtXtXtXtXtXtXtXtXtXtXtXtXtXtXtXtXtXtXtXtXtXtXtXtXtXtXtXtXtXtXtXtXtXtXtXtXtXtXtXtXtXtXtXtXtXtXtXtXtXtXtXtXtXtXtXtXtXtXtXtXtXtXtXtXtXtXtXtXtXtXtX",
"tXtXtXtXtXtXtXtXtXtXtXtXtXtXtXtXtXtXtXtXtXtXtXtXtXtXtXtXtXtXtXtXtXtXtXtXtXtXtXtXtXtXtXtXtXtXtXtXtXtXtXtXtXtXtXtXtXtXtXtXtXtXtXtXtXtXtXtXtXtXtXtXtXtXtXtXtXtXtXtX",
"tXtXtXtXtXtXtXtXtXtXtXtXtXtXtXtXtXtXtXtXtXtXtXtXtXtXtXtXtXtXtXtXtXtXtXtXtXtXtXtXtXtXtXtXtXtXtXtXtXtXtXtXtXtXtXtXtXtXtXtXtXtXtXtXtXtXtXtXtXtXtXtXtXtXtXtXtXtXtXtX",
"tXtXtXtXtXtXtXtXtXtXtXtXtXtXtXtXtXtXtXtXtXtXtXtXtXtXtXtXtXtXtXtXtXtXtXtXtXtXtXtXtXtXtXtXtXtXtXtXtXtXtXtXtXtXtXtXtXtXtXtXtXtXtXtXtXtXtXtXtXtXtXtXtXtXtXtXtXtXtXtX",
"tXtXtXtXtXtXtXtXtXtXtXtXtXtXtXtXtXtXtXtXtXtXtXtXtXtXtXtXtXtXtXtXtXtXtXtXtXtXtXtXtXtXtXtXtXtXtXtXtXtXtXtXtXtXtXtXtXtXtXtXtXtXtXtXtXtXtXtXtXtXtXtXtXtXtXtXtXtXtXtX",
"tXtXtXtXtXtXtXtXtXtXtXtXtXtXtXtXtXtXtXtXtXtXtXtXtXtXtXtXtXtXtXtXtXtXtXtXtXtXtXtXtXtXtXtXtXtXtXtXtX3XwXwXeXwXtXtXtXtXtXtXtXtXtXtXtXtXtXtXtXtXtXtXtXtXtXtXtXtXtXtX",
"tXtXtXtXtXtXtXtXtXtXtXtXtXtXtXtXtXtXtXtXtXtXtXtXtXtXtXtXtXtXtXtXtXtXtXtXtXtXtXtXtXtXtXtXtXtXtXtX X5XwXeXrXeX8X#XtXtXtXtXtXtXtXtXtXtXtXtXtXtXtXtXtXtXtXtXtXtXtXtX",
"tXtXtXtXtXtXtXtXtXtXtXtXtXtXtXtXtXtXtXtXtXtXtXtXtXtXtXtXtXtXtXtXtXtXtXtXtXtXtXtXtXtXtXtXtXtXtX X>X<X3X7X8X8X8X%XoXtXtXtXtXtXtXtXtXtXtXtXtXtXtXtXtXtXtXtXtXtXtXtX",
"tXtXtXtXtXtXtXtXtXtXtXtXtXtXtXtXtXtXtXtXtXtXtXtXtXtXtXtXtXtXtXtXtXtXtXtXtXtXtXtXtXtXtXtXtXtXtX,XqX1X1X6X5X7X7X4XqX-XtXtXtXtXtXtXtXtXtXtXtXtXtXtXtXtXtXtXtXtXtXtX",
"tXtXtXtXtXtXtXtXtXtXtXtXtXtXtXtXtXtXtXtXtXtXtXtXtXtXtXtXtXtXtXtXtXtXtXtXtXtXtXtXtXtXtXtXtXtXtX>X;X X9XXX'.XX6X<XqX9XtXtXtXtXtXtXtXtXtXtXtXtXtXtXtXtXtXtXtXtXtXtX",
"tXtXtXtXtXtXtXtXtXtXtXtXtXtXtXtXtXtXtXtXtXtXtXtXtXtXtXtXtXtXtXtXtXtXtXtXtXtXtXtXtXtXtXtXtXtXtX).7.t.-XOXP 2 .X-X-X-XtXtXtXtXtXtXtXtXtXtXtXtXtXtXtXtXtXtXtXtXtXtX",
"tXtXtXtXtXtXtXtXtXtXtXtXtXtXtXtXtXtXtXtXtXtXtXtXtXtXtXtXtXtXtXtXtXtXtXtXtXtXtXtXtXtXtXtXtXtXz T h g f.(.2 - 6.f.).tXtXtXtXtXtXtXtXtXtXtXtXtXtXtXtXtXtXtXtXtXtXtX",
"tXtXtXtXtXtXtXtXtXtXtXtXtXtXtXtXtXtXtXtXtXtXtXtXtXtXtXtXtXtXtXtXtXtXtXtXtXtXtXtX' ' ^ S.T.=Xn.F.' > z.f.y.t.~ : tXtXtXtXtXtXtXtXtXtXtXtXtXtXtXtXtXtXtXtXtXtXtXtX",
"tXtXtXtXtXtXtXtXtXtXtXtXtXtXtXtXtXtXtXtXtXtXtXtXtXtXtXtXtXtXtXtXtXtXtXtXtXtXo.;.*.o.o...J.~.b  .&.g [ z.x.=.l tXtXtXtXtXtXtXtXtXtXtXtXtXtXtXtXtXtXtXtXtXtXtXtXtX",
"tXtXtXtXtXtXtXtXtXtXtXtXtXtXtXtXtXtXtXtXtXtXtXtXtXtXtXtXtXtXtXtXtXtXtXtXtXv.m.-.o.$.*.*.D R.i.| V o k [ Z , tXtXtXtXtXtXtXtXtXtXtXtXtXtXtXtXtXtXtXtXtXtXtXtXtXtX",
"tXtXtXtXtXtXtXtXtXtXtXtXtXtXtXtXtXtXtXtXtXtXtXtXtXtXtXtXtXtXtXtXtXtXtXtXx.m.;.o.m.N.Y.Y.N.9.Q.i.c 9 1 : X tXtXtXtXtXtXtXtXtXtXtXtXtXtXtXtXtXtXtXtXtXtXtXtXtXtXtX",
"tXtXtXtXtXtXtXtXtXtXtXtXtXtXtXtXtXtXtXtXtXtXtXtXtXtXtXtXtXtXtXtXtXtXtXtX) ;.o.;.m.M.I.I.N.-.p !.{ u.u.w @ tXtXtXtXtXtXtXtXtXtXtXtXtXtXtXtXtXtXtXtXtXtXtXtXtXtXtX",
"tXtXtXtXtXtXtXtXtXtXtXtXtXtXtXtXtXtXtXtXtXtXtXtXtXtXtXtXtXtXtXtXtXtXtX{.G H ' m.m.m.M.M.m.-.m B S 2.7 < 1 X tXtXtXtXtXtXtXtXtXtXtXtXtXtXtXtXtXtXtXtXtXtXtXtXtXtX",
"tXtXtXtXtXtXtXtXtXtXtXtXtXtXtXtXtXtXtXtXtXtXtXtXtXtXtXtXtXtXtXtXtXtXtXy.0...*.m.m.m.m.m.m.c.{ G : < 6 <.A 7.= tXtXtXtXtXtXtXtXtXtXtXtXtXtXtXtXtXtXtXtXtXtXtXtXtX",
"tXtXtXtXtXtXtXtXtXtXtXtXtXtXtXtXtXtXtXtXtXtXtXtXtXtXtXtXtXtXtXtXtXo.-.;.A.H.#.m.m.;.%.%.C.+X{.}.5.  6 S t.^.x ] tXtXtXtXtXtXtXtXtXtXtXtXtXtXtXtXtXtXtXtXtXtXtXtX",
"tXtXtXtXtXtXtXtXtXtXtXtXtXtXtXtXtXtXtXtXtXtXtXtXtXtXtXtXtXtXtX) $.-.;.m.V.A.G.&.c.OX].].#X%X#X$X}.tXtX, a.3.z.z.+.[ tXtXtXtXtXtXtXtXtXtXtXtXtXtXtXtXtXtXtXtXtXtX",
"tXtXtXtXtXtXtXtXtXtXtXtXtXtXtXtXtXtXtXtXtXtXtXtXtXtXtXtXtX) -.m.M.;.=.M.N.h.#.K.;X0X1XqX5X%X$XoX}.tXtXtX$ ,.z.z.z.z.+.tXtXtXtXtXtXtXtXtXtXtXtXtXtXtXtXtXtXtXtXtX",
"tXtXtXtXtXtXtXtXtXtXtXtXtXtXtXtXtXtXtXtXtXtXtXtXtXtXtXtXtX=.m.m.m.m.] ~ ' *.$.L.@X2X,X9X6X5X3X|.tXtXtXtXtXf +.z.z.z.z.[ tXtXtXtXtXtXtXtXtXtXtXtXtXtXtXtXtXtXtXtX",
"tXtXtXtXtXtXtXtXtXtXtXtXtXtXtXtXtXtXtXtXtXtXtXtXtXtXtXtXtX=.m.m.m.m.! L =.m.m.v.b.C.[.1X9XqX<X|.tXtXtXtXtXtXtX' z.z.[ [ [ [ [ [ tXtXtXtXtXtXtXtXtXtXtXtXtXtXtXtX",
"tXtXtXtXtXtXtXtXtXtXtXtXtXtXtXtXtXtXtXtXtXtXtXtXtXtXtXtXtX=.m.m.m.m.C.U.L.c.e.s.e.x tX:X,X,X&XtXtXtXtXtXtXtXtXtXY [ ) z.z.z.z.*.R tXtXtXtXtXtXtXtXtXtXtXtXtXtXtX",
"tXtXtXtXtXtXtXtXtXtXtXtXtXtXtXtXtXtXtXtXtXtXtXtXtXtXtXtXtX$.m.m.m.;.C.$X@X_.s.s.3.tXtXtXtXtXtXtXtXtXtXtXtXtXtXtXtXf l z.z.z.z.z._ tXtXtXtXtXtXtXtXtXtXtXtXtXtXtX",
"tXtXtXtXtXtXtXtXtXtXtXtXtXtXtXtXtXtXtXtXtXtXtXtXtXtXtXtXtXtXb.m.m.m.' L.[..Xs.e.tXtXtXtXtXtXtXtXtXtXtXtXtXtXtXtXtXtXZ z.z.z.z.q.s.3 tXtXtXtXtXtXtXtXtXtXtXtXtXtX",
"tXtXtXtXtXtXtXtXtXtXtXtXtXtXtXtXtXtXtXtXtXtXtXtXtXtXtXtXtXtX=.m.m.m.' m.0.*X_.3.tXtXtXtXtXtXtXtXtXtXtXtXtXtXtXtXtXtXtX! [ z.[ a.h.T tXtXtXtXtXtXtXtXtXtXtXtXtXtX",
"tXtXtXtXtXtXtXtXtXtXtXtXtXtXtXtXtXtXtXtXtXtXtXtXtXtXtXtXtXtX' m.m.m.o.;.0.*X-XtXtXtXtXtXtXtXtXtXtXtXtXtXtXtXtXtXtXtXtXtXtXL 8.h...H o tXtXtXtXtXtXtXtXtXtXtXtXtX",
"tXtXtXtXtXtXtXtXtXtXtXtXtXtXtXtXtXtXtXtXtXtXtXtXtXtXtXtXtXR E m.:.:.$.%.0.&XXXtXtXtXtXtXtXtXtXtXtXtXtXtXtXtXtXtXtXtXtXtXtXtX= m c w.p tXtXtXtXtXtXtXtXtXtXtXtXtX",
"tXtXtXtXtXtXtXtXtXtXtXtXtXtXtXtXtXtXtXtXtXtXtXtXtXtXtXtXtX-.-.-.r.t.w.x.$./.-XtXtXtXtXtXtXtXtXtXtXtXtXtXtXtXtXtXtXtXtXtXtXtXtXtXa p E.Q tXtXtXtXtXtXtXtXtXtXtXtX",
"tXtXtXtXtXtXtXtXtXtXtXtXtXtXtXtXtXtXtXtXtXtXtXtXtXtXtXtX*.m.;.[ d.h.s.q.;.t.t tXtXtXtXtXtXtXtXtXtXtXtXtXtXtXtXtXtXtXtXtXtXtXtXtXtXy q.z.' tXtXtXtXtXtXtXtXtXtXtX",
"tXtXtXtXtXtXtXtXtXtXtXtXtXtXtXtXtXtXtXtXtXtXtXtXtXtXtXtXo.m.m._ F.G.D.W Z.v.[ tXtXtXtXtXtXtXtXtXtXtXtXtXtXtXtXtXtXtXtXtXtXtXtXtXtXJ +.z.z.+._ tXtXtXtXtXtXtXtXtX",
"tXtXtXtXtXtXtXtXtXtXtXtXtXtXtXtXtXtXtXtXtXtXtXtXtXtXtXtX' m.m.@.F.O.j.O.L.P.m.*.tXtXtXtXtXtXtXtXtXtXtXtXtXtXtXtXtXtXtXtXtXtXtXtXtXK +.+.[ z.z.' tXtXtXtXtXtXtXtX",
"tXtXtXtXtXtXtXtXtXtXtXtXtXtXtXtXtXtXtXtXtXtXtXtXtXtXtXtX' m.m.-.O.k.t.4.} I.P.m.-.tXtXtXtXtXtXtXtXtXtXtXtXtXtXtXtXtXtXtXtXtXtXtXtXtX[ [ h K L ' ' tXtXtXtXtXtXtX",
"tXtXtXtXtXtXtXtXtXtXtXtXtXtXtXtXtXtXtXtXtXtXtXtXtXtXtXtXE :.m.;.q.).!.p ! B.I.Z.m.b.E tXtXtXtXtXtXtXtXtXtXtXtXtXtXtXtXtXtXtXtXtXtXtXZ _ ) tXtXC ] _ tXtXtXtXtXtX",
"tXtXtXtXtXtXtXtXtXtXtXtXtXtXtXtXtXtXtXtXtXtXtXtXtXtXtXtXtX] b.M.r./.*.-./ -.Z.P.M.m.-.R tXtXtXtXtXtXtXtXtXtXtXtXtXtXtXtXtXtXtXtXtXtXtXtX] R tX! ! ) Z tXtXtXtXtX",
"tXtXtXtXtXtXtXtXtXtXtXtXtXtXtXtXtXtXtXtXtXtXtXtXtXtXtXtXtX0 4.;.*.S M.M.-.` b.B.Z.m.m.=.tXtXtXtXtXtXtXtXtXtXtXtXtXtXtXtXtXtXtXtXtXtXtXtXC P tXZ > tXg tXtXtXtXtX",
"tXtXtXtXtXtXtXtXtXtXtXtXtXtXtXtXtXtXtXtXtXtXtXtXtXtXtXtX& r y ( =.~ m.m.m.=.~ =.B.N.m.m.$.tXtXtXtXtXtXtXtXtXtXtXtXtXtXtXtXtXtXtXtXtXtXtXtXtXtXtXtXtXtXtXtXtXtXtX",
"tXtXtXtXtXtXtXtXtXtXtXtXtXtXtXtXtXtXtXtXtXtXtXtXtXtXtXtX6 i i u 4./ m.m.m.m.-.` -.m.m.m.m.o.tXtXtXtXtXtXtXtXtXtXtXtXtXtXtXtXtXtXtXtXtXtXtXtXtXtXtXtXtXtXtXtXtXtX",
"tXtXtXtXtXtXtXtXtXtXtXtXtXtXtXtXtXtXtXtXtXtXtXtXtXtXtX@ q i i i i 4.:.m.m.b.' =.` m.m.m.m.m._ tXtXtXtXtXtXtXtXtXtXtXtXtXtXtXtXtXtXtXtXtXtXtXtXtXtXtXtXtXtXtXtXtX",
"tXtXtXtXtXtXtXtXtXtXtXtXtXtXtXtXtXtXtXtXtXtXtXtXtXtXtX@ q i i i i 7.-.m.m.-.Z / / ' M.m.m.m.;.R tXtXtXtXtXtXtXtXtXtXtXtXtXtXtXtXtXtXtXtXtXtXtXtXtXtXtXtXtXtXtXtX",
"tXtXtXtXtXtXtXtXtXtXtXtXtXtXtXtXtXtXtXtXtXtXtXtXtXtXtX@ q i i i i 9 *.m.m.-.) -.` =.m.m.m.m.m.-.tXtXtXtXtXtXtXtXtXtXtXtXtXtXtXtXtXtXtXtXtXtXtXtXtXtXtXtXtXtXtXtX",
"tXtXtXtXtXtXtXtXtXtXtXtXtXtXtXtXtXtXtXtXtXtXtXtXtXtXtX@ q i i i i 6 P ' m.-./ m.M.m.m.m.m.m.m.m.=.tXtXtXtXtXtXtXtXtXtXtXtXtXtXtXtXtXtXtXtXtXtXtXtXtXtXtXtXtXtXtX",
"tXtXtXtXtXtXtXtXtXtXtXtXtXtXtXtXtXtXtXtXtXtXtXtXtXtXtX@ q i i i i 7 , 3.*.=.! z.v.m.m.m.m.m.m.m.m.x.tXtXtXtXtXtXtXtXtXtXtXtXtXtXtXtXtXtXtXtXtXtXtXtXtXtXtXtXtXtX",
"tXtXtXtXtXtXtXtXtXtXtXtXtXtXtXtXtXtXtXtXtXtXtXtXtXtXtX@ q i i i i y 0 tXk h O _ +.x.x.b.m.m.m.m.m.-.tXtXtXtXtXtXtXtXtXtXtXtXtXtXtXtXtXtXtXtXtXtXtXtXtXtXtXtXtXtX",
"tXtXtXtXtXtXtXtXtXtXtXtXtXtXtXtXtXtXtXtXtXtXtXtXtXtXtX. q i i i i i 0 tXtXtXtXtXtX' z.z.v.m.m.m.m.m.*.tXtXtXtXtXtXtXtXtXtXtXtXtXtXtXtXtXtXtXtXtXtXtXtXtXtXtXtXtX",
"tXtXtXtXtXtXtXtXtXtXtXtXtXtXtXtXtXtXtXtXtXF J J J tXh : q i i i i q * tXtXtXtXtXtXtX_ *.z.x.x.v.m.m.;.tXtXtXtXtXtXtXtXtXtXtXtXtXtXtXtXtXtXtXtXtXtXtXtXtXtXtXtXtX",
"tXtXtXtXtXtXtXtXtXtXtXtXtXtXtXtXtXtXtXtX) a.v ^ ) R k < e i i i i 4 tXtXtXtXtXtXtXtXtXY +.z.z.v.m.m.;.tXtXtXtXtXtXtXtXtXtXtXtXtXtXtXtXtXtXtXtXtXtXtXtXtXtXtXtXtX",
"tXtXtXtXtXtXtXtXtXtXtXtXtXtXtXtXtXtXtXY ) Q.8.U ) Y > q i i i i q $ tXtXtXtXtXtXtXtXtXtX! z.z.x.v.m.;.tXtXtXtXtXtXtXtXtXtXtXtXtXtXtXtXtXtXtXtXtXtXtXtXtXtXtXtXtX",
"tXtXtXtXtXtXtXtXtXtXtXtXtXtXtXtXtXtXY ) ) W.i.X.) H 9 i i i i i 8 tXtXtXtXtXtXtXtXtXtXtXP ) +.+.z.x.' tXtXtXtXtXtXtXtXtXtXtXtXtXtXtXtXtXtXtXtXtXtXtXtXtXtXtXtXtX",
"tXtXtXtXtXtXtXtXtXtXtXtXtXtXtXtXtXL R R R 6.W.v I ,.q i r q q q * tXtXtXtXtXtXtXtXtXtXtXE *.[ z.z.+.f tXtXtXtXtXtXtXtXtXtXtXtXtXtXtXtXtXtXtXtXtXtXtXtXtXtXtXtXtX",
"tXtXtXtXtXtXtXtXtXtXtXtXtXtXtXtXtXs h D D D W.1.x i e 6 %   . . tXtXtXtXtXtXtXtXtXtXtXtX=.m.v.z.z._ + tXtXtXtXtXtXtXtXtXtXtXtXtXtXtXtXtXtXtXtXtXtXtXtXtXtXtXtXtX",
"tXtXtXtXtXtXtXtXtXtXtXtXtXtXtXK Y 2 ; & & & 5 Q.1.< $ tXtXtXtXtXtXtXtXtXtXtXtXtXtXtXtXtX=.M.m.b.z._ I tXtXtXtXtXtXtXtXtXtXtXtXtXtXtXtXtXtXtXtXtXtXtXtXtXtXtXtXtX",
"tXtXtXtXtXtXtXtXtXtXtXtXtXJ I Y D i e q q 0 4 4 tXtXtXtXtXtXtXtXtXtXtXtXtXtXtXtXtXtXtXO.O.$.*.m.*.*.R tXtXtXtXtXtXtXtXtXtXtXtXtXtXtXtXtXtXtXtXtXtXtXtXtXtXtXtXtX",
"tXtXtXtXtXtXtXtXtXtXtXn K Y ) F y i i q ; % tXtXtXtXtXtXtXtXtXtXtXtXtXtXtXtXtXtXtXtXtX^ l.l.j.n.n.j.U tXtXtXtXtXtXtXtXtXtXtXtXtXtXtXtXtXtXtXtXtXtXtXtXtXtXtXtXtX",
"tXtXtXtXtXtXtXtXtXC s N m Y ! u q 8 * . tXtXtXtXtXtXtXtXtXtXtXtXtXtXtXtXtXtXtXtXtXtXtX5.`./.p.p.p.p.F tXtXtXtXtXtXtXtXtXtXtXtXtXtXtXtXtXtXtXtXtXtXtXtXtXtXtXtXtX",
"tXtXtXtXtXtXK I Y P N N N l 9 ; & tXtXtXtXtXtXtXtXtXtXtXtXtXtXtXtXtXtXtXtXtXtXtXtXtXtX' h.'.'.g.g.g.9.tXtXtXtXtXtXtXtXtXtXtXtXtXtXtXtXtXtXtXtXtXtXtXtXtXtXtXtXtX",
"tXtXtXtXK Y R ) Z : h V  .g # tXtXtXtXtXtXtXtXtXtXtXtXtXtXtXtXtXtXtXtXtXtXtXtXtXtXtXtXx.;.>.>.;.%.+.I tXtXtXtXtXtXtXtXtXtXtXtXtXtXtXtXtXtXtXtXtXtXtXtXtXtXtXtXtX",
"tXtXtX) ) ) ) ) > q i 1 d tXtXtXtXtXtXtXtXtXtXtXtXtXtXtXtXtXtXtXtXtXtXtXtXtXtXtXtXtXtXtXz.m.m.m.v.z.L tXtXtXtXtXtXtXtXtXtXtXtXtXtXtXtXtXtXtXtXtXtXtXtXtXtXtXtXtX",
"tXtXtXC Y R ) ) > 8 8 * $ tXtXtXtXtXtXtXtXtXtXtXtXtXtXtXtXtXtXtXtXtXtXtXtXtXtXtXtXtXtXtX+.x.m.v.z.+.tXtXtXtXtXtXtXtXtXtXtXtXtXtXtXtXtXtXtXtXtXtXtXtXtXtXtXtXtXtX",
"tXtXtXtXtXK Y ) L : ; q & tXtXtXtXtXtXtXtXtXtXtXtXtXtXtXtXtXtXtXtXtXtXtXtXtXtXtXtXtXtXtX[ z.z.z.z.*.tXtXtXtXtXtXtXtXtXtXtXtXtXtXtXtXtXtXtXtXtXtXtXtXtXtXtXtXtXtX",
"tXtXtXtXtXtXtXY ) ! u i 8 tXtXtXtXtXtXtXtXtXtXtXtXtXtXtXtXtXtXtXtXtXtXtXtXtXtXtXtXtXtXtXtX+.z.z.v.=.tXtXtXtXtXtXtXtXtXtXtXtXtXtXtXtXtXtXtXtXtXtXtXtXtXtXtXtXtXtX",
"tXtXtXtXtXtXtXJ Y R F u 0 tXtXtXtXtXtXtXtXtXtXtXtXtXtXtXtXtXtXtXtXtXtXtXtXtXtXtXtXtXtXtXtX_ v.v.m.=.tXtXtXtXtXtXtXtXtXtXtXtXtXtXtXtXtXtXtXtXtXtXtXtXtXtXtXtXtXtX",
"tXtXtXtXtXtXtXtXY ) R D e & tXtXtXtXtXtXtXtXtXtXtXtXtXtXtXtXtXtXtXtXtXtXtXtXtXtXtXtXtXtXtXE m.m.m.=.tXtXtXtXtXtXtXtXtXtXtXtXtXtXtXtXtXtXtXtXtXtXtXtXtXtXtXtXtXtX",
"tXtXtXtXtXtXtXtXtX) ) Y D 6 tXtXtXtXtXtXtXtXtXtXtXtXtXtXtXtXtXtXtXtXtXtXtXtXtXtXtXtXtXtXtX=.m.m.m.=.tXtXtXtXtXtXtXtXtXtXtXtXtXtXtXtXtXtXtXtXtXtXtXtXtXtXtXtXtXtX",
"tXtXtXtXtXtXtXtXtXY ) ! y y Z k tXtXtXtXtXtXtXtXtXtXtXtXtXtXtXtXtXtXtXtXtXtXtXtXtXtXtXtXtX' m.m.m.=.tXtXtXtXtXtXtXtXtXtXtXtXtXtXtXtXtXtXtXtXtXtXtXtXtXtXtXtXtXtX",
"tXtXtXtXtXtXtXtXtXL L L L P ) Y k tXtXtXtXtXtXtXtXtXtXtXtXtXtXtXtXtXtXtXtXtXtXtXtXtXtXtXtXY m.m.m.=.tXtXtXtXtXtXtXtXtXtXtXtXtXtXtXtXtXtXtXtXtXtXtXtXtXtXtXtXtXtX",
"tXtXtXtXtXtXtXtXtXtXtXtXZ j k + tXtXtXtXtXtXtXtXtXtXtXtXtXtXtXtXtXtXtXtXtXtXtXtXtXtXtXtXtXR m.m.M.=.tXtXtXtXtXtXtXtXtXtXtXtXtXtXtXtXtXtXtXtXtXtXtXtXtXtXtXtXtXtX",
"tXtXtXtXtXtXtXtXtXtXtXtXtXtXtXtXtXtXtXtXtXtXtXtXtXtXtXtXtXtXtXtXtXtXtXtXtXtXtXtXtXtXtXtXtXK *.*.*.' tXtXtXtXtXtXtXtXtXtXtXtXtXtXtXtXtXtXtXtXtXtXtXtXtXtXtXtXtXtX",
"tXtXtXtXtXtXtXtXtXtXtXtXtXtXtXtXtXtXtXtXtXtXtXtXtXtXtXtXtXtXtXtXtXtXtXtXtXtXtXtXtXtXtXtXtXM ..D. ...tXtXtXtXtXtXtXtXtXtXtXtXtXtXtXtXtXtXtXtXtXtXtXtXtXtXtXtXtXtX",
"tXtXtXtXtXtXtXtXtXtXtXtXtXtXtXtXtXtXtXtXtXtXtXtXtXtXtXtXtXtXtXtXtXtXtXtXtXtXtXtXtXtXtXtXtXn V D.....tXtXtXtXtXtXtXtXtXtXtXtXtXtXtXtXtXtXtXtXtXtXtXtXtXtXtXtXtXtX",
"tXtXtXtXtXtXtXtXtXtXtXtXtXtXtXtXtXtXtXtXtXtXtXtXtXtXtXtXtXtXtXtXtXtXtXtXtXtXtXtXtXtXtXtXtXR V D...@.=.tXtXtXtXtXtXtXtXtXtXtXtXtXtXtXtXtXtXtXtXtXtXtXtXtXtXtXtXtX",
"tXtXtXtXtXtXtXtXtXtXtXtXtXtXtXtXtXtXtXtXtXtXtXtXtXtXtXtXtXtXtXtXtXtXtXtXtXtXtXtXtXtXtXtXtX-._ *.o.-.m.*.tXtXtXtXtXtXtXtXtXtXtXtXtXtXtXtXtXtXtXtXtXtXtXtXtXtXtXtX",
"tXtXtXtXtXtXtXtXtXtXtXtXtXtXtXtXtXtXtXtXtXtXtXtXtXtXtXtXtXtXtXtXtXtXtXtXtXtXtXtXtXtXtXtXo.m.$.m.*.=.m.m.=.tXtXtXtXtXtXtXtXtXtXtXtXtXtXtXtXtXtXtXtXtXtXtXtXtXtXtX",
"tXtXtXtXtXtXtXtXtXtXtXtXtXtXtXtXtXtXtXtXtXtXtXtXtXtXtXtXtXtXtXtXtXtXtXtXtXtXtXtXtXtXtXtXv.m.-.$.$.=.m.m.m.b.tXtXtXtXtXtXtXtXtXtXtXtXtXtXtXtXtXtXtXtXtXtXtXtXtXtX",
"tXtXtXtXtXtXtXtXtXtXtXtXtXtXtXtXtXtXtXtXtXtXtXtXtXtXtXtXtXtXtXtXtXtXtXtXtXtXtXtXtXtXtXtXb.m.m.=.' ;.m.m.m.m.m.v.tXtXtXtXtXtXtXtXtXtXtXtXtXtXtXtXtXtXtXtXtXtXtXtX",
"tXtXtXtXtXtXtXtXtXtXtXtXtXtXtXtXtXtXtXtXtXtXtXtXtXtXtXtXtXtXtXtXtXtXtXtXtXtXtXtXtXtXtXtX*.-.-.-.=.$.m.m.m.m.m.m.m.x.tXtXtXtXtXtXtXtXtXtXtXtXtXtXtXtXtXtXtXtXtXtX",
"tXtXtXtXtXtXtXtXtXtXtXtXtXtXtXtXtXtXtXtXtXtXtXtXtXtXtXtXtXtXtXtXtXtXtXtXtXtXtXtXtXtXtXtXtXJ J j P ' ` =.m.m.m.m.m.m.' tXtXtXtXtXtXtXtXtXtXtXtXtXtXtXtXtXtXtXtXtX",
"tXtXtXtXtXtXtXtXtXtXtXtXtXtXtXtXtXtXtXtXtXtXtXtXtXtXtXtXtXtXtXtXtXtXtXtXtXtXtXtXtXtXtXtXtXtXtXtXtXtXtXC P P P P P P P tXtXtXtXtXtXtXtXtXtXtXtXtXtXtXtXtXtXtXtXtX"
};
