/* XPM */
static char *result[] = {
/* columns rows colors chars-per-pixel */
"80 80 216 2 ",
"   c #46081C",
".  c #4A0A1C",
"X  c #500E1D",
"o  c #5F1416",
"O  c #611619",
"+  c #7C320F",
"@  c #77271E",
"#  c #571936",
"$  c #621E28",
"%  c #5C2030",
"&  c #5D253E",
"*  c #66252B",
"=  c #752927",
"-  c #7C2C20",
";  c #7F3127",
":  c #6A2935",
">  c #772D38",
",  c #7B363C",
"<  c #5F2741",
"1  c #5B3354",
"2  c #612A45",
"3  c #642D4A",
"4  c #65314D",
"5  c #693149",
"6  c #7A3B47",
"7  c #743A4D",
"8  c #6F2459",
"9  c #693553",
"0  c #6D3955",
"q  c #6D3B5A",
"w  c #793B53",
"e  c #723F5D",
"r  c #6E3A60",
"t  c #7F4254",
"y  c #75415E",
"u  c #734263",
"i  c #7E4E67",
"p  c #6C4972",
"a  c #6E537F",
"s  c #872F1E",
"d  c #882E22",
"f  c #853225",
"g  c #8D3625",
"h  c #953E25",
"j  c #953D2A",
"k  c #802A3A",
"l  c #883D35",
"z  c #943F31",
"x  c #AC3F2C",
"c  c #90440F",
"v  c #924612",
"b  c #AD5B0F",
"n  c #A94E17",
"m  c #AD5715",
"M  c #B25519",
"N  c #9B432B",
"B  c #944134",
"V  c #9B4536",
"C  c #94443C",
"Z  c #9C473B",
"A  c #A84626",
"S  c #AB4626",
"D  c #A5472A",
"F  c #A74A2D",
"G  c #AD4B2B",
"H  c #B14E2D",
"J  c #A4522B",
"K  c #B4512E",
"L  c #B9562E",
"P  c #A44A32",
"I  c #A44A34",
"U  c #AA4D32",
"Y  c #BD4331",
"T  c #B14F30",
"R  c #A45437",
"E  c #AC5231",
"W  c #B55231",
"Q  c #B85532",
"!  c #B55936",
"~  c #BC5A34",
"^  c #BE5E3A",
"/  c #99602C",
"(  c #BE6A25",
")  c #BE6039",
"_  c #C26E19",
"`  c #C97716",
"'  c #C1582E",
"]  c #C15D35",
"[  c #C4513C",
"{  c #C25E3A",
"}  c #C3682A",
"|  c #CF792D",
" . c #D37C27",
".. c #C36136",
"X. c #C5633A",
"o. c #C9663C",
"O. c #CC6A3D",
"+. c #D16E3E",
"@. c #D6713F",
"#. c #863A45",
"$. c #993F44",
"%. c #AE3A4E",
"&. c #8B4547",
"*. c #85424C",
"=. c #9A4847",
"-. c #814454",
";. c #8F595C",
":. c #9B5053",
">. c #B14747",
",. c #AF5B42",
"<. c #B3564A",
"1. c #A45350",
"2. c #A3604D",
"3. c #B76B46",
"4. c #B46855",
"5. c #845473",
"6. c #AB5967",
"7. c #A55B70",
"8. c #9A6667",
"9. c #947876",
"0. c #A56768",
"q. c #BB756A",
"w. c #B37274",
"e. c #D05649",
"r. c #C75951",
"t. c #C96541",
"y. c #CE6B42",
"u. c #C36648",
"i. c #D16E41",
"p. c #D3634E",
"a. c #D67342",
"s. c #D87543",
"d. c #D6794B",
"f. c #DA784D",
"g. c #C16E50",
"h. c #D47E52",
"j. c #DB7D52",
"k. c #D4715B",
"l. c #C06865",
"z. c #CA8417",
"x. c #D68C16",
"c. c #E19506",
"v. c #E8B703",
"b. c #CF882C",
"n. c #E69526",
"m. c #A88069",
"M. c #C88157",
"N. c #D98158",
"B. c #D2A15E",
"V. c #DC8A64",
"C. c #D69266",
"Z. c #C2877E",
"A. c #C68B7C",
"S. c #E08865",
"D. c #D6A076",
"F. c #5C5494",
"G. c #604F89",
"H. c #744F8B",
"J. c #735090",
"K. c #7B648E",
"L. c #5F56A2",
"P. c #6670A7",
"I. c #7979A9",
"U. c #836187",
"Y. c #85738D",
"T. c #887597",
"R. c #9D7D95",
"E. c #B3658E",
"W. c #927FAA",
"Q. c #C27B8A",
"!. c #7284B4",
"~. c #9D8699",
"^. c #AA8691",
"/. c #B7AA88",
"(. c #BABA9A",
"). c #8686A9",
"_. c #978EBC",
"`. c #9591BA",
"'. c #A299B0",
"]. c #DB9785",
"[. c #C6A78C",
"{. c #D6B18A",
"}. c #D6BD98",
"|. c #CFC29F",
" X c #D5C19C",
".X c #C7C5A4",
"XX c #D7CEAB",
"oX c #CDCCB9",
"OX c #CED0B0",
"+X c #D6D5B4",
"@X c #D6D7B9",
"#X c #8893C0",
"$X c #9C9AC6",
"%X c #A29CCC",
"&X c #A7A2C2",
"*X c #A4A0CF",
"=X c #BCBAC6",
"-X c #A4A4D5",
";X c #ABACD5",
":X c #A5A6D8",
">X c #A6A8DB",
",X c #B0B0D4",
"<X c #B6B7DB",
"1X c #B9B9DE",
"2X c #BCBCE3",
"3X c #CECEC6",
"4X c #D8D8CD",
"5X c #C9CAD9",
"6X c #E5E5C5",
"7X c #E9E9D7",
"8X c #C7C7E7",
"9X c #EEEEE1",
"0X c #F3F3EC",
"qX c #F7F7F4",
"wX c #F7F7F8",
"eX c None",
/* pixels */
"eXeXeXeXeXeXeXeXeXeXeXeXeXeXeXeXeXeXeXeXeXeXeXeXeXeXeXeXeXeXeXeXeXeXeXeXeXeXeXeXeXeXeXeXeXeXeXeXeXeXeXeXeXeXeXeXeXeXeXeXeXeXeXeXeXeXeXeXeXeXeXeXeXeXeXeXeXeXeXeX",
"eXeXeXeXeXeXeXeXeXeXeXeXeXeXeXeXeXeXeXeXeXeXeXeXeXeXeXeXeXeXeXeXeXeXeXeXeXeXeXeXeXeXeXeXeXeXeXeXeXeXeXeXeXeXeXeXeXeXeXeXeXeXeXeXeXeXeXeXeXeXeXeXeXeXeXeXeXeXeXeX",
"eXeXeXeXeXeXeXeXeXeXeXeXeXeXeXeXeXeXeXeXeXeXeXeXeXeXeXeXeXeXeXeXeXeXeXeXeXeXeXeXeXeXeXeXeXeXeXeXeXeXeXeXeXeXeXeXeXeXeXeXeXeXeXeXeXeXeXeXeXeXeXeXeXeXeXeXeXeXeXeX",
"eXeXeXeXeXeXeXeXeXeXeXeXeXeXeXeXeXeXeXeXeXeXeXeXeXeXeXeXeXeXeXeXeXeXeXeXeXeXeXeXeXeXeXeXeXeXeXeXeXeXeXeXeXeXeXeXeXeXeXeXeXeXeXeXeXeXeXeXeXeXeXeXeXeXeXeXeXeXeXeX",
"eXeXeXeXeXeXeXeXeXeXeXeXeXeXeXeXeXeXeXeXeXeXeXeXeXeXeXeXeXeXeXeXeXeXeXeXeXeXeXeXeXeXeXeXeXeXeXeXeXeXeXeXeX4XqXeXeXeXeXeXeXeXeXeXeXeXeXeXeXeXeXeXeXeXeXeXeXeXeXeX",
"eXeXeXeXeXeXeXeXeXeXeXeXeXeXeXeXeXeXeXeXeXeXeXeXeXeXeXeXeXeXeXeXeXeXeXeXeXeXeXeXeXeXeXeXeXeXeXeXeXeXeX`.=X7XwXwXwX9XoXeXeXeXeXeXeXeXeXeXeXeXeXeXeXeXeXeXeXeXeXeX",
"eXeXeXeXeXeXeXeXeXeXeXeXeXeXeXeXeXeXeXeXeXeXeXeXeXeXeXeXeXeXeXeXeXeXeXeXeXeXeXeXeXeXeXeXeXeXeXeXeXeX).$X,X3X7X0X0X0X7X(.eXeXeXeXeXeXeXeXeXeXeXeXeXeXeXeXeXeXeXeX",
"eXeXeXeXeXeXeXeXeXeXeXeXeXeXeXeXeXeXeXeXeXeXeXeXeXeXeXeXeXeXeXeXeXeXeXeXeXeXeXeXeXeXeXeXeXeXeXeXeXeX).,X8X1X5XoX@X6X6X4XeXeXeXeXeXeXeXeXeXeXeXeXeXeXeXeXeXeXeXeX",
"eXeXeXeXeXeXeXeXeXeXeXeXeXeXeXeXeXeXeXeXeXeXeXeXeXeXeXeXeXeXeXeXeXeXeXeXeXeXeXeXeXeXeXeXeXeXeXeXeXeX).<X&X<X1X'.=X5X8X8X2XeXeXeXeXeXeXeXeXeXeXeXeXeXeXeXeXeXeXeX",
"eXeXeXeXeXeXeXeXeXeXeXeXeXeXeXeXeXeXeXeXeXeXeXeXeXeXeXeXeXeXeXeXeXeXeXeXeXeXeXeXeXeXeXeXeXeXeXeXeXeXeXY.;.&X<X0.&.~.1X,X;XeXeXeXeXeXeXeXeXeXeXeXeXeXeXeXeXeXeXeX",
"eXeXeXeXeXeXeXeXeXeXeXeXeXeXeXeXeXeXeXeXeXeXeXeXeXeXeXeXeXeXeXeXeXeXeXeXeXeXeXeXeXeXeXeXeXeXeXeXeXeXJ B j ;.`.5.* l w.$XeXeXeXeXeXeXeXeXeXeXeXeXeXeXeXeXeXeXeXeX",
"eXeXeXeXeXeXeXeXeXeXeXeXeXeXeXeXeXeXeXeXeXeXeXeXeXeXeXeXeXeXeXeXeXeXeXeXeXeXeXeXeXeXeXeXeXeXeX9.Q.f.z...= I 0.Y.K.B j eXeXeXeXeXeXeXeXeXeXeXeXeXeXeXeXeXeXeXeXeX",
"eXeXeXeXeXeXeXeXeXeXeXeXeXeXeXeXeXeXeXeXeXeXeXeXeXeXeXeXeXeXeXeXeXeXeXeXeXeXeXeXeXeXi.i.i.| z.9.#Xw.( _ N U t.4.g.^ @ eXeXeXeXeXeXeXeXeXeXeXeXeXeXeXeXeXeXeXeXeX",
"eXeXeXeXeXeXeXeXeXeXeXeXeXeXeXeXeXeXeXeXeXeXeXeXeXeXeXeXeXeXeXeXeXeXeXeXeXeXeXeXeXO.a.s.o.N y.S.].^.>.M h g X.^ P - eXeXeXeXeXeXeXeXeXeXeXeXeXeXeXeXeXeXeXeXeXeX",
"eXeXeXeXeXeXeXeXeXeXeXeXeXeXeXeXeXeXeXeXeXeXeXeXeXeXeXeXeXeXeXeXeXeXeXeXeXeXeXeXt.a.a.a.E X.s.V.V.h.#.d eXo - @ eXeXeXeXeXeXeXeXeXeXeXeXeXeXeXeXeXeXeXeXeXeXeXeX",
"eXeXeXeXeXeXeXeXeXeXeXeXeXeXeXeXeXeXeXeXeXeXeXeXeXeXeXeXeXeXeXeXeXeXeXeXeXeXeXeX^ a.a.a.! O.a.s.s.a.f eXeXeXeXeXeXeXeXeXeXeXeXeXeXeXeXeXeXeXeXeXeXeXeXeXeXeXeXeX",
"eXeXeXeXeXeXeXeXeXeXeXeXeXeXeXeXeXeXeXeXeXeXeXeXeXeXeXeXeXeXeXeXeXeXeXeXeXeXeX|.D.d.a.a.o.o.s.a.a.a.f eXeXeXeXeXeXeXeXeX~ ! N - g g eXeXeXeXeXeXeXeXeXeXeXeXeXeX",
"eXeXeXeXeXeXeXeXeXeXeXeXeXeXeXeXeXeXeXeXeXeXeXeXeXeXeXeXeXeXeXeXeXeXeXeXeXeX/.OX+X XC.N.! a.a.a.+.R / eXeXeXeXeXeXeXeX..a.s.a.o.o...h eXeXeXeXeXeXeXeXeXeXeXeXeX",
"eXeXeXeXeXeXeXeXeXeXeXeXeXeXeXeXeXeXeXeXeXeXeXeXeXeXeXeXeXeXeXeXeXeXeXeXeXeXh.{.@X@X@X Xb.n.| @.X.m.(.eXeXeXeXeXeXeX! a.a.a.a.s.s.^ eXeXeXeXeXeXeXeXeXeXeXeXeXeX",
"eXeXeXeXeXeXeXeXeXeXeXeXeXeXeXeXeXeXeXeXeXeXeXeXeXeXeXeXeXeXeXeXeXeXeXeXeXO.a.s.C.}.XX[.w.Q.B.b.M.oX@X.XeXeXeXeX<.I.0.+.a.a.s.O.^ eXeXeXeXeXeXeXeXeXeXeXeXeXeXeX",
"eXeXeXeXeXeXeXeXeXeXeXeXeXeXeXeXeXeXeXeXeXeXeXeXeXeXeXeXeXeXeXeXeXeXeXeXeXO.s.a.a.s.C.M.y.X.l.q.q.8X3X/.R eX,.` p.0.!.4.a.a...G eXeXeXeXeXeXeXeXeXeXeXeXeXeXeXeX",
"eXeXeXeXeXeXeXeXeXeXeXeXeXeXeXeXeXeXeXeXeXeXeXeXeXeXeXeXeXeXeXeXeXeXeXeX{ i.a.a.a.a.+.! a.X.X.,.Z 2.2.3.o.6.E.x. .r.P.8.] L eXeXeXeXeXeXeXeXeXeXeXeXeXeXeXeXeXeX",
"eXeXeXeXeXeXeXeXeXeXeXeXeXeXeXeXeXeXeXeXeXeXeXeXeXeXeXeXeXeXeXeXeXeXeXeXX.a.a.a.a.i.y.) a.P U O.@.+.+.a.s.O.E.q.` x u eXeXeXeXeXeXeXeXeXeXeXeXeXeXeXeXeXeXeXeXeX",
"eXeXeXeXeXeXeXeXeXeXeXeXeXeXeXeXeXeXeXeXeXeXeXeXeXeXeXeXeXeXeXeXeXeXeX3.d.h.a.a.o.<.1.O.s.s.s.a.a.a.a.s.s.+.<.1.n eXeXeXeXeXeXeXeXeXeXeXeXeXeXeXeXeXeXeXeXeXeXeX",
"eXeXeXeXeXeXeXeXeXeXeXeXeXeXeXeXeXeXeXeXeXeXeXeXeXeXeXeXeXeXeXeXeXeX/..X+XXXD.d.u.6.=.o.s.a.a.a.a.a.a...X.K eXeXeXeXeXeXeXeXeXeXeXeXeXeXeXeXeXeXeXeXeXeXeXeXeXeX",
"eXeXeXeXeXeXeXeXeXeXeXeXeXeXeXeXeXeXeXeXeXeXeXeXeXeXeXeXeXeXeXeXeXeXM.C.C.{.@X[.6.7.=.o.s.s.s.+.+.~ ~ eXeXeXeXeXeXeXeXeXeXeXeXeXeXeXeXeXeXeXeXeXeXeXeXeXeXeXeXeX",
"eXeXeXeXeXeXeXeXeXeXeXeXeXeXeXeXeXeXeXeXeXeXeXeXeXeXeXeXeXeXeXeXeXy.a.@.@.d.}.=X%X*XR.! ....~ G eXeXeXeXeXeXeXeXeXeXeXeXeXeXeXeXeXeXeXeXeXeXeXeXeXeXeXeXeXeXeXeX",
"eXeXeXeXeXeXeXeXeXeXeXeXeXeXeXeXeXeXeXeXeXeXeXeXeXeXeXeXeXeXeXeXy.a.a.a.a.@.A.;X-X:X*X7 > &.Z eXeXeXeXeXeXeXeXeXeXeXeXeXeXeXeXeXeXeXeXeXeXeXeXeXeXeXeXeXeXeXeXeX",
"eXeXeXeXeXeXeXeXeXeXeXeXeXeXeXeXeXeXeXeXeXeXeXeXeXeXeXeXeXeXeXy.y.a.a.a.a.@.Z.-X$X$X_.q # #.I = eXeXeXeXeXeXeXeXeXeXeXeXeXeXeXeXeXeXeXeXeXeXeXeXeXeXeXeXeXeXeXeX",
"eXeXeXeXeXeXeXeXeXeXeXeXeXeXeXeXeXeXeXeXeXeXeXeXeXeXeXeXeXeXeXa.y.a.a.a.a.@.Z.:X:X:XT.y &.P F N eXeXeXeXeXeXeXeXeXeXeXeXeXeXeXeXeXeXeXeXeXeXeXeXeXeXeXeXeXeXeXeX",
"eXeXeXeXeXeXeXeXeXeXeXeXeXeXeXeXeXeXeXeXeXeXeXeXeXeXeXeXeXeX~ O.i.a.s.s.a.@.Z.:X:X%Xp *.G W W W G N eXeXeXeXeXeXeXeXeXeXeXeXeXeXeXeXeXeXeXeXeXeXeXeXeXeXeXeXeXeX",
"eXeXeXeXeXeXeXeXeXeXeXeXeXeXeXeXeXeXeXeXeXeXeXeXeXeXeXeXeXeXK X.a.a.f.f.a.@.Z.:X:XW.u C K W W W W W W D A eXeXeXeXeXeXeXeXeXeXeXeXeXeXeXeXeXeXeXeXeXeXeXeXeXeXeX",
"eXeXeXeXeXeXeXeXeXeXeXeXeXeXeXeXeXeXeXeXeXeXeXeXeXeXeXeXeXeXh X.a.a.j.j.a.@.Z.:X-XU.y P W W W W W W W W H G S eXeXeXeXeXeXeXeXeXeXeXeXeXeXeXeXeXeXeXeXeXeXeXeXeX",
"eXeXeXeXeXeXeXeXeXeXeXeXeXeXeXeXeXeXeXeXeXeXeXeXeXeXeXeXeXeXW a.a.s.V.j.a.@.Z.>X_.u y P W W W W W W W W W W W H S eXeXeXeXeXeXeXeXeXeXeXeXeXeXeXeXeXeXeXeXeXeXeX",
"eXeXeXeXeXeXeXeXeXeXeXeXeXeXeXeXeXeXeXeXeXeXeXeXeXeXeXeXeXeXO.a.a.s.S.d.a.@.Z.$XU.u y V W W W W W W W W W W W W K H G eXeXeXeXeXeXeXeXeXeXeXeXeXeXeXeXeXeXeXeXeX",
"eXeXeXeXeXeXeXeXeXeXeXeXeXeXeXeXeXeXeXeXeXeXeXeXeXeXeXeXeXeXi.a.a.d.N.a.a.s.4.4 0 u u t U W W W W W W W W W W W W W W H eXeXeXeXeXeXeXeXeXeXeXeXeXeXeXeXeXeXeXeX",
"eXeXeXeXeXeXeXeXeXeXeXeXeXeXeXeXeXeXeXeXeXeXeXeXeXeXeXeXeXy.a.a.a.h.N.a.a.a.G eX% 3 u u *.G W W W W W W W W W W W W W W K eXeXeXeXeXeXeXeXeXeXeXeXeXeXeXeXeXeXeX",
"eXeXeXeXeXeXeXeXeXeXeXeXeXeXeXeXeXeXeXeXeXeXeXeXeXeXeXeXeXy.a.a.a.d.d.a.a.a.eXeXeXeX4 e u &.H W W W W W W W W W W W W W W W H eXeXeXeXeXeXeXeXeXeXeXeXeXeXeXeXeX",
"eXeXeXeXeXeXeXeXeXeXeXeXeXeXeXeXeXeXeXeXeXeXeXeXeXeXeXeXeXy.a.a.a.s.s.a.a.O.eXeXeXeXeX& 9 y C K W W W W W W W W W W W W W W K H eXeXeXeXeXeXeXeXeXeXeXeXeXeXeXeX",
"eXeXeXeXeXeXeXeXeXeXeXeXeXeXeXeXeXeXeXeXeXeXeXeXeXeXeXeXeXa.a.a.a.a.a.a.a.o.eXeXeXeXeXeXeX3 7 C U W W W W W W W W W W W W W W W S eXeXeXeXeXeXeXeXeXeXeXeXeXeXeX",
"eXeXeXeXeXeXeXeXeXeXeXeXeXeXeXeXeXeXeXeXeXeXeXeXeXeXeXeXeXa.a.a.a.a.a.a.a.eXeXeXeXeXeXeXeXeXeXeXeXG S H W K W W W W W W W W W W G eXeXeXeXeXeXeXeXeXeXeXeXeXeXeX",
"eXeXeXeXeXeXeXeXeXeXeXeXeXeXeXeXeXeXeXeXeXeXeXeXeXeXeXeXi.a.a.a.a.a.a.a.y.eXeXeXeXeXeXeXeXeXeXeXeXeXeXeXeXA G K W W W D G W W W G eXeXeXeXeXeXeXeXeXeXeXeXeXeXeX",
"eXeXeXeXeXeXeXeXeXeXeXeXeXeXeXeXeXeXeXeXeXeXeXeXeXeXeXeXy.a.a.a.a.a.a.i.eXeXeXeXeXeXeXeXeXeXeXeXeXeXeXeXeXeXeXeXH W W T G W W W G eXeXeXeXeXeXeXeXeXeXeXeXeXeXeX",
"eXeXeXeXeXeXeXeXeXeXeXeXeXeXeXeXeXeXeXeXeXeXeXeXeXeXeXt.a.a.a.a.a.a.+.L eXeXeXeXeXeXeXeXeXeXeXeXeXeXeXeXeXeXeXeXeXZ U W W W W W eXeXeXeXeXeXeXeXeXeXeXeXeXeXeXeX",
"eXeXeXeXeXeXeXeXeXeXeXeXeXeXeXeXeXeXeXeXeXeXeXeXeXeXeXo.a.a.a.a.a.s.O.eXeXeXeXeXeXeXeXeXeXeXeXeXeXeXeXeXeXeXeXeXeX> j G W W W G eXeXeXeXeXeXeXeXeXeXeXeXeXeXeXeX",
"eXeXeXeXeXeXeXeXeXeXeXeXeXeXeXeXeXeXeXeXeXeXeXeXeXeXy.a.a.y.a.a.a.+.L eXeXeXeXeXeXeXeXeXeXeXeXeXeXeXeXeXeXeXeXeXeX, G H H W F D eXeXeXeXeXeXeXeXeXeXeXeXeXeXeXeX",
"eXeXeXeXeXeXeXeXeXeXeXeXeXeXeXeXeXeXeXeXeXeXeXeXeXi.a.a.a.y.a.a.a.~ eXeXeXeXeXeXeXeXeXeXeXeXeXeXeXeXeXeXeXeXeXeX5 *.H W H W F H eXeXeXeXeXeXeXeXeXeXeXeXeXeXeXeX",
"eXeXeXeXeXeXeXeXeXeXeXeXeXeXeXeXeXeXeXeXeXeXeXo.a.a.a.a.a.i.a.a.] eXeXeXeXeXeXeXeXeXeXeXeXeXeXeXeXeXeXeXeXeXeXeX> $.H W W W W S eXeXeXeXeXeXeXeXeXeXeXeXeXeXeXeX",
"eXeXeXeXeXeXeXeXeXeXeXeXeXeXeXeXeXeXeXeXeXeX[ { a.a.a.a.a.i.o.] eXeXeXeXeXeXeXeXeXeXeXeXeXeXeXeXeXeXeXeXeXeXeXeX1 5.>.Y Y Y Y :.eXeXeXeXeXeXeXeXeXeXeXeXeXeXeXeX",
"eXeXeXeXeXeXeXeXeXeXeXeXeXeXeXeXeXeXeXeXeX:.0.k.p.o.a.a.a.a.X.eXeXeXeXeXeXeXeXeXeXeXeXeXeXeXeXeXeXeXeXeXeXeXeXeX: F.L.J.%.%.H.i eXeXeXeXeXeXeXeXeXeXeXeXeXeXeXeX",
"eXeXeXeXeXeXeXeXeXeXeXeXeXeXeXeXeXeXeXeXeXo.8.9.r.[ ] O.a.O.eXeXeXeXeXeXeXeXeXeXeXeXeXeXeXeXeXeXeXeXeXeXeXeXeXeX; e p F.a F.G.B eXeXeXeXeXeXeXeXeXeXeXeXeXeXeXeX",
"eXeXeXeXeXeXeXeXeXeXeXeXeXeXeXeXeXeXeXeX..a.y.T.I.6.e.[ ~ eXeXeXeXeXeXeXeXeXeXeXeXeXeXeXeXeXeXeXeXeXeXeXeXeXeXeXeX6 u y -.u 6 eXeXeXeXeXeXeXeXeXeXeXeXeXeXeXeXeX",
"eXeXeXeXeXeXeXeXeXeXeXeXeXeXeXeXeXeXeXeXa.a.a.y.0.I.Y.<.eXeXeXeXeXeXeXeXeXeXeXeXeXeXeXeXeXeXeXeXeXeXeXeXeXeXeXeXeX6 u u u 9 > eXeXeXeXeXeXeXeXeXeXeXeXeXeXeXeXeX",
"eXeXeXeXeXeXeXeXeXeXeXeXeXeXeXeXeXeXeXy.a.a.a.a.@.g.8.8.eXeXeXeXeXeXeXeXeXeXeXeXeXeXeXeXeXeXeXeXeXeXeXeXeXeXeXeXeXeXq u q < 7 eXeXeXeXeXeXeXeXeXeXeXeXeXeXeXeXeX",
"eXeXeXeXeXeXeXeXeXeXeXeXeXeXeXeXeXeXeXa.a.a.a.a.a.+.' eXeXeXeXeXeXeXeXeXeXeXeXeXeXeXeXeXeXeXeXeXeXeXeXeXeXeXeXeXeXeXu u & 9 : eXeXeXeXeXeXeXeXeXeXeXeXeXeXeXeXeX",
"eXeXeXeXeXeXeXeXeXeXeXeXeXeXeXeXeXeXy.a.a.a.a.a.O.{ eXeXeXeXeXeXeXeXeXeXeXeXeXeXeXeXeXeXeXeXeXeXeXeXeXeXeXeXeXeXeXeXu q 2 e z eXeXeXeXeXeXeXeXeXeXeXeXeXeXeXeXeX",
"eXeXeXeXeXeXeXeXeXeXeXeXeXeXeXeXeXX.a.a.a.a.a.a.t.eXeXeXeXeXeXeXeXeXeXeXeXeXeXeXeXeXeXeXeXeXeXeXeXeXeXeXeXeXeXeXeX6 u u e u * eXeXeXeXeXeXeXeXeXeXeXeXeXeXeXeXeX",
"eXeXeXeXeXeXeXeXeXeXeXeXeXeXeXeXeXO.s.a.a.a.a.X.eXeXeXeXeXeXeXeXeXeXeXeXeXeXeXeXeXeXeXeXeXeXeXeXeXeXeXeXeXeXeXeXeX- -.u u 4 eXeXeXeXeXeXeXeXeXeXeXeXeXeXeXeXeXeX",
"eXeXeXeXeXeXeXeXeXeXeXeXeXeXeXeXeXa.a.a.a.a.X.eXeXeXeXeXeXeXeXeXeXeXeXeXeXeXeXeXeXeXeXeXeXeXeXeXeXeXeXeXeXeXeXeXeX@ w u u & eXeXeXeXeXeXeXeXeXeXeXeXeXeXeXeXeXeX",
"eXeXeXeXeXeXeXeXeXeXeXeXeXeXeXeXi.a.a.a.a.o.eXeXeXeXeXeXeXeXeXeXeXeXeXeXeXeXeXeXeXeXeXeXeXeXeXeXeXeXeXeXeXeXeXeXeX+ B 8 8 # eXeXeXeXeXeXeXeXeXeXeXeXeXeXeXeXeXeX",
"eXeXeXeXeXeXeXeXeXeXeXeXeXeXeXo.a.a.a.a.O.eXeXeXeXeXeXeXeXeXeXeXeXeXeXeXeXeXeXeXeXeXeXeXeXeXeXeXeXeXeXeXeXeXeXeXeXc b m m v eXeXeXeXeXeXeXeXeXeXeXeXeXeXeXeXeXeX",
"eXeXeXeXeXeXeXeXeXeXeXeXeXeXeX..a.a.a.O.eXeXeXeXeXeXeXeXeXeXeXeXeXeXeXeXeXeXeXeXeXeXeXeXeXeXeXeXeXeXeXeXeXeXeXeXeXD A b b n eXeXeXeXeXeXeXeXeXeXeXeXeXeXeXeXeXeX",
"eXeXeXeXeXeXeXeXeXeXeXeXeXeXM ` } O.i.] eXeXeXeXeXeXeXeXeXeXeXeXeXeXeXeXeXeXeXeXeXeXeXeXeXeXeXeXeXeXeXeXeXeXeXeXH G #.k k : g eXeXeXeXeXeXeXeXeXeXeXeXeXeXeXeXeX",
"eXeXeXeXeXeXeXeXeXeXeXeXeXeXx.v.c._ F eXeXeXeXeXeXeXeXeXeXeXeXeXeXeXeXeXeXeXeXeXeXeXeXeXeXeXeXeXeXeXeXeXeXeXeXeXG W V # r 3 g G S eXeXeXeXeXeXeXeXeXeXeXeXeXeXeX",
"eXeXeXeXeXeXeXeXeXeXeXeXeX{ } x.c.z.eXeXeXeXeXeXeXeXeXeXeXeXeXeXeXeXeXeXeXeXeXeXeXeXeXeXeXeXeXeXeXeXeXeXeXeXeXeXK W V & q 9 = W H H S eXeXeXeXeXeXeXeXeXeXeXeXeX",
"eXeXeXeXeXeXeXeXeXeXeXeXX.y.i...` c eXeXeXeXeXeXeXeXeXeXeXeXeXeXeXeXeXeXeXeXeXeXeXeXeXeXeXeXeXeXeXeXeXeXeXeXeX@ A H V u 3 $ h W W W W H G eXeXeXeXeXeXeXeXeXeXeX",
"eXeXeXeXeXeXeXeXeXeXeX~ i.y.o.o.Q eXeXeXeXeXeXeXeXeXeXeXeXeXeXeXeXeXeXeXeXeXeXeXeXeXeXeXeXeXeXeXeXeXeXeXeXeXeXX , #.-.u q 7 l H Q Q Q Q W F H s eXeXeXeXeXeXeXeX",
"eXeXeXeXeXeXeXeXeXeXeX] a.o.o.s.O.eXeXeXeXeXeXeXeXeXeXeXeXeXeXeXeXeXeXeXeXeXeXeXeXeXeXeXeXeXeXeXeXeXeXeXeXeXeXeX  # 3 < .   . @ g g g g f O g @ eXeXeXeXeXeXeXeX",
"eXeXeXeXeXeXeXeXeXeXeX{ ..o.a.s.O.eXeXeXeXeXeXeXeXeXeXeXeXeXeXeXeXeXeXeXeXeXeXeXeXeXeXeXeXeXeXeXeXeXeXeXeXeXeXeXeXeXeXeXeXeXeXeXeXeXeXeXeXeXeXeXeXeXeXeXeXeXeXeX",
"eXeXeXeXeXeXeXeXeXeXeX..o.a.a.a.a.o.eXeXeXeXeXeXeXeXeXeXeXeXeXeXeXeXeXeXeXeXeXeXeXeXeXeXeXeXeXeXeXeXeXeXeXeXeXeXeXeXeXeXeXeXeXeXeXeXeXeXeXeXeXeXeXeXeXeXeXeXeXeX",
"eXeXeXeXeXeXeXeXeXeX] O.a.a.a.a.a.a.! eXeXeXeXeXeXeXeXeXeXeXeXeXeXeXeXeXeXeXeXeXeXeXeXeXeXeXeXeXeXeXeXeXeXeXeXeXeXeXeXeXeXeXeXeXeXeXeXeXeXeXeXeXeXeXeXeXeXeXeXeX",
"eXeXeXeXeXeXeXeXeXeXo.s.s.s.s.s.s.s.O.~ eXeXeXeXeXeXeXeXeXeXeXeXeXeXeXeXeXeXeXeXeXeXeXeXeXeXeXeXeXeXeXeXeXeXeXeXeXeXeXeXeXeXeXeXeXeXeXeXeXeXeXeXeXeXeXeXeXeXeXeX",
"eXeXeXeXeXeXeXeXeXeXW E E E E E E E E eXeXeXeXeXeXeXeXeXeXeXeXeXeXeXeXeXeXeXeXeXeXeXeXeXeXeXeXeXeXeXeXeXeXeXeXeXeXeXeXeXeXeXeXeXeXeXeXeXeXeXeXeXeXeXeXeXeXeXeXeX",
"eXeXeXeXeXeXeXeXeXeXeXeXeXeXeXeXeXeXeXeXeXeXeXeXeXeXeXeXeXeXeXeXeXeXeXeXeXeXeXeXeXeXeXeXeXeXeXeXeXeXeXeXeXeXeXeXeXeXeXeXeXeXeXeXeXeXeXeXeXeXeXeXeXeXeXeXeXeXeXeX",
"eXeXeXeXeXeXeXeXeXeXeXeXeXeXeXeXeXeXeXeXeXeXeXeXeXeXeXeXeXeXeXeXeXeXeXeXeXeXeXeXeXeXeXeXeXeXeXeXeXeXeXeXeXeXeXeXeXeXeXeXeXeXeXeXeXeXeXeXeXeXeXeXeXeXeXeXeXeXeXeX",
"eXeXeXeXeXeXeXeXeXeXeXeXeXeXeXeXeXeXeXeXeXeXeXeXeXeXeXeXeXeXeXeXeXeXeXeXeXeXeXeXeXeXeXeXeXeXeXeXeXeXeXeXeXeXeXeXeXeXeXeXeXeXeXeXeXeXeXeXeXeXeXeXeXeXeXeXeXeXeXeX",
"eXeXeXeXeXeXeXeXeXeXeXeXeXeXeXeXeXeXeXeXeXeXeXeXeXeXeXeXeXeXeXeXeXeXeXeXeXeXeXeXeXeXeXeXeXeXeXeXeXeXeXeXeXeXeXeXeXeXeXeXeXeXeXeXeXeXeXeXeXeXeXeXeXeXeXeXeXeXeXeX",
"eXeXeXeXeXeXeXeXeXeXeXeXeXeXeXeXeXeXeXeXeXeXeXeXeXeXeXeXeXeXeXeXeXeXeXeXeXeXeXeXeXeXeXeXeXeXeXeXeXeXeXeXeXeXeXeXeXeXeXeXeXeXeXeXeXeXeXeXeXeXeXeXeXeXeXeXeXeXeXeX",
"eXeXeXeXeXeXeXeXeXeXeXeXeXeXeXeXeXeXeXeXeXeXeXeXeXeXeXeXeXeXeXeXeXeXeXeXeXeXeXeXeXeXeXeXeXeXeXeXeXeXeXeXeXeXeXeXeXeXeXeXeXeXeXeXeXeXeXeXeXeXeXeXeXeXeXeXeXeXeXeX",
"eXeXeXeXeXeXeXeXeXeXeXeXeXeXeXeXeXeXeXeXeXeXeXeXeXeXeXeXeXeXeXeXeXeXeXeXeXeXeXeXeXeXeXeXeXeXeXeXeXeXeXeXeXeXeXeXeXeXeXeXeXeXeXeXeXeXeXeXeXeXeXeXeXeXeXeXeXeXeXeX"
};
