/* XPM */
static char *result[] = {
/* columns rows colors chars-per-pixel */
"80 80 219 2 ",
"   c #47050F",
".  c #48081A",
"X  c #691D1F",
"o  c #6F2D14",
"O  c #74241D",
"+  c #4B0D22",
"@  c #500C20",
"#  c #56172A",
"$  c #571D35",
"%  c #591F37",
"&  c #5C2035",
"*  c #5B223B",
"=  c #772721",
"-  c #662B37",
";  c #6D2B35",
":  c #7B363A",
">  c #5F2741",
",  c #5F2842",
"<  c #592E55",
"1  c #622847",
"2  c #642D49",
"3  c #68314A",
"4  c #693553",
"5  c #6D3A59",
"6  c #733953",
"7  c #76425E",
"8  c #7A435B",
"9  c #734263",
"0  c #784261",
"q  c #802F25",
"w  c #8A3526",
"e  c #833229",
"r  c #943C26",
"t  c #943D2C",
"y  c #993F28",
"u  c #833638",
"i  c #AA3724",
"p  c #BC3E3A",
"a  c #984F16",
"s  c #AA5B0E",
"d  c #A44C1C",
"f  c #AB4A1D",
"g  c #A95A16",
"h  c #B45315",
"j  c #B06E0F",
"k  c #BB6417",
"l  c #974129",
"z  c #9C422A",
"x  c #9B4432",
"c  c #994637",
"v  c #A74626",
"b  c #AA4725",
"n  c #A3452B",
"m  c #A44A2D",
"M  c #AD4C2D",
"N  c #BA452E",
"B  c #B14E2C",
"V  c #AF522F",
"C  c #BD5E25",
"Z  c #B4512E",
"A  c #B8542E",
"S  c #AB4C32",
"D  c #A44C38",
"F  c #AC5134",
"G  c #AE533D",
"H  c #B55332",
"J  c #B95633",
"K  c #B55A35",
"L  c #BC5A34",
"P  c #B25538",
"I  c #B7583B",
"U  c #BE5C3B",
"Y  c #BD6826",
"T  c #BF6E33",
"R  c #D65D1D",
"E  c #C97D0C",
"W  c #C46D19",
"Q  c #CB7713",
"!  c #C94D3D",
"~  c #C25E35",
"^  c #C15439",
"/  c #C15E3D",
"(  c #C36724",
")  c #CC712B",
"_  c #D5772D",
"`  c #C56237",
"'  c #C76836",
"]  c #C5623B",
"[  c #C9663C",
"{  c #CD6A3D",
"}  c #D16E3E",
"|  c #C57837",
" . c #D5713F",
".. c #D7783E",
"X. c #853D47",
"o. c #9A3C46",
"O. c #843E55",
"+. c #813A5F",
"@. c #A53D53",
"#. c #803F61",
"$. c #894749",
"%. c #994B47",
"&. c #8F5244",
"*. c #8B4351",
"=. c #824B50",
"-. c #A54D47",
";. c #A75445",
":. c #A45C4D",
">. c #B55947",
",. c #A14D5F",
"<. c #A65854",
"1. c #B76445",
"2. c #B7704D",
"3. c #AB6A58",
"4. c #864962",
"5. c #91496D",
"6. c #8A5967",
"7. c #945667",
"8. c #AA5662",
"9. c #9B6673",
"0. c #916D77",
"q. c #A36866",
"w. c #A86C72",
"e. c #B76574",
"r. c #CE5444",
"t. c #C25F40",
"y. c #C15B57",
"u. c #D65B51",
"i. c #C66342",
"p. c #C96542",
"a. c #C76A47",
"s. c #CC6A42",
"d. c #D16E41",
"f. c #CD7149",
"g. c #D67342",
"h. c #D87543",
"j. c #D5774A",
"k. c #C56657",
"l. c #D46352",
"z. c #C57A5A",
"x. c #D57C53",
"c. c #D77C55",
"v. c #C47966",
"b. c #BE9504",
"n. c #BD9036",
"m. c #C88B13",
"M. c #D48B13",
"N. c #EC9D12",
"B. c #DBBE00",
"V. c #D38D2E",
"C. c #E49023",
"Z. c #D7E22E",
"A. c #B7967C",
"S. c #BBAB7F",
"D. c #C88459",
"F. c #D98157",
"G. c #DDA351",
"H. c #CA8766",
"J. c #D88665",
"K. c #D79669",
"L. c #D69C72",
"P. c #E49272",
"I. c #D6F040",
"U. c #575090",
"Y. c #65549A",
"T. c #5E609B",
"R. c #68658C",
"E. c #7C7A9C",
"W. c #5E5AA5",
"Q. c #7473A3",
"!. c #94528B",
"~. c #A75A8C",
"^. c #836C85",
"/. c #927B91",
"(. c #AD658E",
"). c #B6688A",
"_. c #817CA1",
"`. c #7982AB",
"'. c #638EDE",
"]. c #BE9697",
"[. c #9AAB95",
"{. c #A5A584",
"}. c #BCBC9D",
"|. c #948FB1",
" X c #9695BB",
".X c #B797A6",
"XX c #A898B7",
"oX c #AFAFA5",
"OX c #C39F84",
"+X c #D5B38D",
"@X c #CFB795",
"#X c #D5B994",
"$X c #BEC0A0",
"%X c #D6C29E",
"&X c #C4C5A5",
"*X c #D3C8A7",
"=X c #C7C8B4",
"-X c #D5D5B4",
";X c #D7D8B8",
":X c #E0E0BF",
">X c #9D9EC7",
",X c #8FBBD0",
"<X c #A5A3CB",
"1X c #B7ABC9",
"2X c #BFBFCD",
"3X c #B3B3D8",
"4X c #BBBBDB",
"5X c #B9BAE2",
"6X c #BFC0E6",
"7X c #D7D7CB",
"8X c #CACBD6",
"9X c gray82",
"0X c #E2E2CC",
"qX c #EBEBD4",
"wX c #C6C7EA",
"eX c #F3F3EC",
"rX c #F6F6F5",
"tX c #F7F7F8",
"yX c None",
/* pixels */
"yXyXyXyXyXyXyXyXyXyXyXyXyXyXyXyXyXyXyXyXyXyXyXyXyXyXyXyXyXyXyXyXyXyXyXyXyXyXyXyXyXyXyXyXyXyXyXyXyXyXyXyXyXyXyXyXyXyXyXyXyXyXyXyXyXyXyXyXyXyXyXyXyXyXyXyXyXyXyXyX",
"yXyXyXyXyXyXyXyXyXyXyXyXyXyXyXyXyXyXyXyXyXyXyXyXyXyXyXyXyXyXyXyXyXyXyXyXyXyXyXyXyXyXyXyXyXyXyXyXyXyXyXyXyXyXyXyXyXyXyXyXyXyXyXyXyXyXyXyXyXyXyXyXyXyXyXyXyXyXyXyX",
"yXyXyXyXyXyXyXyXyXyXyXyXyXyXyXyXyXyXyXyXyXyXyXyXyXyXyXyXyXyXyXyXyXyXyXyXyXyXyXyXyXyXyXyXyXyXyXyXyXyXyXyXyXyXyXyXyXyXyXyXyXyXyXyXyXyXyXyXyXyXyXyXyXyXyXyXyXyXyXyX",
"yXyXyXyXyXyXyXyXyXyXyXyXyXyXyXyXyXyXyXyXyXyXyXyXyXyXyXyXyXyXyXyXyXyXyXyXyXyXyXyXyXyXyXyXyXyXyXyXyXyXyXyXyXyXyXyXyXyXyXyXyXyXyXyXyXyXyXyXyXyXyXyXyXyXyXyXyXyXyXyX",
"yXyXyXyXyXyXyXyXyXyXyXyXyXyXyXyXyXyXyXyXyXyXyXyXyXyXyXyXyXyXyXyXyXyXyXyXyXyXyXyXyXyXyXyXyXyXyXyXyXyXyXyXyXyXyXyXyXyXyXyXyXyXyXyXyXyXyXyXyXyXyXyXyXyXyXyXyXyXyXyX",
"yXyXyXyXyXyXyXyXyXyXyXyXyXyXyXyXyXyXyXyXyXyXyXyXyXyXyXyXyXyXyXyXyXyXyXyXyXyXyXyXyXyXyXyXyXyXyXyXyXyXyXyXyXyXyXyXyXyXyXyXyXyXyXyXyXyXyXyXyXyXyXyXyXyXyXyXyXyXyXyX",
"yXyXyXyXyXyXyXyXyXyXyXyXyXyXyXyXyXyXyXyXyXyXyXyXyXyXyXyXyXyXyXyXyXyXyXyXyXyXyXyXyXyXyXyXyXyXyXyXyXyXyXyXyXyXyXyXyXyXyXyXyXyXyXyXyXyXyXyXyXyXyXyXyXyXyXyXyXyXyXyX",
"yXyXyXyXyXyXyXyXyXyXyXyXyXyXyXyXyXyXyXyXyXyXyXyXyXyXyXyXyXyXyXyXyXyXyXyXyXyXyXyXyXyXyXyXyXyXyXyXyXyXyXyXyXyXyXyXyXyXyXyXyXyXyXyXyXyXyXyXyXyXyXyXyXyXyXyXyXyXyXyX",
"yXyXyXyXyXyXyXyXyXyXyXyXyXyXyXyXyXyXyXyXyXyXyXyXyXyXyXyXyXyXyXyXyXyXyXyXyXyXyXyXyXyXyXyXyXyXyXyXyXyXyXyXyXyXyXyXyXyXyXyXyXyXyXyXyXyXyXyXyXyXyXyXyXyXyXyXyXyXyXyX",
"yXyXyXyXyXyXyXyXyXyXyXyXyXyXyXyXyXyXyXyXyXyXyXyXyXyXyXyXyXyXyXyXyXyXyXyXyXyXyXyXyXyXyXyXyXyXyXyXyXyXyXyXyXyXyXyXyXyXyXyXyXyXyXyXyXyXyXyXyXyXyXyXyXyXyXyXyXyXyXyX",
"yXyXyXyXyXyXyXyXyXyXyXyXyXyXyXyXyXyXyXyXyXyXyXyXyXyXyXyXyXyXyXyXyXyXyXyXyXyXyXyXyXyXyXyXyXyXyXyXyXyXyXyXyX X9XeXrXrXeX;XyXyXyXyXyXyXyXyXyXyXyXyXyXyXyXyXyXyXyXyX",
"yXyXyXyXyXyXyXyXyXyXyXyXyXyXyXyXyXyXyXyXyXyXyXyXyXyXyXyXyXyXyXyXyXyXyXyXyXyXyXyXyXyXyXyXyXyXyXyXyXyXyXyX|.>X8XqXeXtXrXeX&XyXyXyXyXyXyXyXyXyXyXyXyXyXyXyXyXyXyXyX",
"yXyXyXyXyXyXyXyXyXyXyXyXyXyXyXyXyXyXyXyXyXyXyXyXyXyXyXyXyXyXyXyXyXyXyXyXyXyXyXyXyXyXyXyXyXyXyXyXyXyXyXyX X5X4X2X7X0XqXqX:X}.yXyXyXyXyXyXyXyXyXyXyXyXyXyXyXyXyXyX",
"yXyXyXyXyXyXyXyXyXyXyXyXyXyXyXyXyXyXyXyXyXyXyXyXyXyXyXyXyXyXyXyXyXyXyXyXyXyXyXyXyXyXyXyXyXyXyXyXyXyXyXyX<XwX4XwX2X=X7X7X9X4XyXyXyXyXyXyXyXyXyXyXyXyXyXyXyXyXyXyX",
"yXyXyXyXyXyXyXyXyXyXyXyXyXyXyXyXyXyXyXyXyXyXyXyXyXyXyXyXyXyXyXyXyXyXyXyXyXyXyXyXyXyXyXyXyXyXyXyXyXyXyXyX XXX/.wX].3.|.6X3X4X<XyXyXyXyXyXyXyXyXyXyXyXyXyXyXyXyXyX",
"yXyXyXyXyXyXyXyXyXyXyXyXyXyXyXyXyXyXyXyXyXyXyXyXyXyXyXyXyXyXyXyXyXyXyXyXyXyXyXyXyXyXyXyXyXyXyXyXyXyXyXyX6.: :. X].n ; |.>X X<XyXyXyXyXyXyXyXyXyXyXyXyXyXyXyXyXyX",
"yXyXyXyXyXyXyXyXyXyXyXyXyXyXyXyXyXyXyXyXyXyXyXyXyXyXyXyXyXyXyXyXyXyXyXyXyXyXyXyXyXyXyXyXyXyXyXH b.I.E.T m.l = q./.=.< $.6.yXyXyXyXyXyXyXyXyXyXyXyXyXyXyXyXyXyXyX",
"yXyXyXyXyXyXyXyXyXyXyXyXyXyXyXyXyXyXyXyXyXyXyXyXyXyXyXyXyXyXyXyXyXyXyXyXyXyXyXyXyXyXyXyXL L ] [ m.Z.,XJ.N.) e t.q.w.k.F yXyXyXyXyXyXyXyXyXyXyXyXyXyXyXyXyXyXyXyX",
"yXyXyXyXyXyXyXyXyXyXyXyXyXyXyXyXyXyXyXyXyXyXyXyXyXyXyXyXyXyXyXyXyXyXyXyXyXyXyXyXyXyX[ d.g.g.g.g.T B.[.!.R W = I p.i.U e yXyXyXyXyXyXyXyXyXyXyXyXyXyXyXyXyXyXyXyX",
"yXyXyXyXyXyXyXyXyXyXyXyXyXyXyXyXyXyXyXyXyXyXyXyXyXyXyXyXyXyXyXyXyXyXyXyXyXyXyXyXyX[ g.g.g.{ ` ~ m j n.W.p h O w S w O yXyXyXyXyXyXyXyXyXyXyXyXyXyXyXyXyXyXyXyXyX",
"yXyXyXyXyXyXyXyXyXyXyXyXyXyXyXyXyXyXyXyXyXyXyXyXyXyXyXyXyXyXyXyXyXyXyXyXyXyXyXyXyXD.g.g.[ { g.F.J...g R.5.S i.=   yXyXyXyXyXyXyXyXyXyXyXyXyXyXyXyXyXyXyXyXyXyXyX",
"yXyXyXyXyXyXyXyXyXyXyXyXyXyXyXyXyXyXyXyXyXyXyXyXyXyXyXyXyXyXyXyXyXyXyXyXyXyXyXyX&X%Xx.d.{ g.j.P.P.x.l j :.x X # yXyXyXyXyXyXyXyXyXyXyXyXyXyXyXyXyXyXyXyXyXyXyXyX",
"yXyXyXyXyXyXyXyXyXyXyXyXyXyXyXyXyXyXyXyXyXyXyXyXyXyXyXyXyXyXyXyXyXyXyXyXyXyXyXH.-X-X#Xs.{ h.j.x.c.j.' V.e ; O.#.O.yXyXyXyXyXyXyXyXyXyXyXyXyXyXyXyXyXyXyXyXyXyXyX",
"yXyXyXyXyXyXyXyXyXyXyXyXyXyXyXyXyXyXyXyXyXyXyXyXyXyXyXyXyXyXyXyXyXyXyXyXyXyXyXj.#X;X-X#X1.{ g.g.h.g.z.S.- u *.4.<.P yXyXyXyXyXyXyXyXyXyXyXyXyXyXyXyXyXyXyXyXyXyX",
"yXyXyXyXyXyXyXyXyXyXyXyXyXyXyXyXyXyXyXyXyXyXyXyXyXyXyXyXyXyXyXyXyXyXyXyXyXyXs.g.F.+X-X-X&.L h.g.{ a.@X$XyXO *.<.i.-.,.yXyXyXyXyXyXyXyXyXyXyXyXyXyXyXyXyXyXyXyXyX",
"yXyXyXyXyXyXyXyXyXyXyXyXyXyXyXyXyXyXyXyXyXyXyXyXyXyXyXyXyXyXyXyXyXyXyXyXyXyXd.g.g.j.K.OXK ( ..g.P A.;X}.yXyXO.<.G !.<.h yXyXyXyXyXyXyXyXyXyXyXyXyXyXyXyXyXyXyXyX",
"yXyXyXyXyXyXyXyXyXyXyXyXyXyXyXyXyXyXyXyXyXyXyXyXyXyXyXyXyXyXyXyXyXyXyXyXyXs.g.g.g.g. .>.| G.V._ 2.-X;X@XyXyXO.%.!.7.E f N yXyXyXyXyXyXyXyXyXyXyXyXyXyXyXyXyXyXyX",
"yXyXyXyXyXyXyXyXyXyXyXyXyXyXyXyXyXyXyXyXyXyXyXyXyXyXyXyXyXyXyXyXyXyXyXyXyXf.s. .g.g.{ J a.e.v.V..X8X8XoXyXyXyXyX*.k h p 4.yXyXyXyXyXyXyXyXyXyXyXyXyXyXyXyXyXyXyX",
"yXyXyXyXyXyXyXyXyXyXyXyXyXyXyXyXyXyXyXyXyXyXyXyXyXyXyXyXyXyXyXyXyXyXyXyX{.*X+XH.1.>.F { h.} >.8.1X5X3XyXyXyXyXyXyXi i 4.T.c yXyXyXyXyXyXyXyXyXyXyXyXyXyXyXyXyXyX",
"yXyXyXyXyXyXyXyXyXyXyXyXyXyXyXyXyXyXyXyXyXyXyXyXyXyXyXyXyXyXyXyXyXyXyX1.D.L.L.*X.X,.;.g.g.h.` S yXyXyXyXyXyXyXyXyXyX- U.$.i.L yXyXyXyXyXyXyXyXyXyXyXyXyXyXyXyXyX",
"yXyXyXyXyXyXyXyXyXyXyXyXyXyXyXyXyXyXyXyXyXyXyXyXyXyXyXyXyXyXyXyXyXyXyX{ g. . .H.<Xw.] h.g.h.[ yXyXyXyXyXyXyXyXyXyXyXyX; x p.i.H yXyXyXyXyXyXyXyXyXyXyXyXyXyXyXyX",
"yXyXyXyXyXyXyXyXyXyXyXyXyXyXyXyXyXyXyXyXyXyXyXyXyXyXyXyXyXyXyXyXyXyXd.g.g.g.g.g..X6.{ g.g.{ K yXyXyXyXyXyXyXyXyXyXyXyXyX= t.G P B yXyXyXyXyXyXyXyXyXyXyXyXyXyXyX",
"yXyXyXyXyXyXyXyXyXyXyXyXyXyXyXyXyXyXyXyXyXyXyXyXyXyXyXyXyXyXyXyXyXs.g.g.g.g.g.j.w.;.g.L L r yXyXyXyXyXyXyXyXyXyXyXyXyXyXX t F P / yXyXyXyXyXyXyXyXyXyXyXyXyXyXyX",
"yXyXyXyXyXyXyXyXyXyXyXyXyXyXyXyXyXyXyXyXyXyXyXyXyXyXyXyXyXyXyXyXs.g.g.g.g.g.h.{ K g.g.g.{ J yXyXyXyXyXyXyXyXyXyXyXyXyXyXyXe P P p.U yXyXyXyXyXyXyXyXyXyXyXyXyXyX",
"yXyXyXyXyXyXyXyXyXyXyXyXyXyXyXyXyXyXyXyXyXyXyXyXyXyXyXyXyXyXyXyXg.g.g.g.g.g.g.F d.g.g.g.h.g.L yXyXyXyXyXyXyXyXyXyXyXyXyXyXX x q U i.J yXyXyXyXyXyXyXyXyXyXyXyXyX",
"yXyXyXyXyXyXyXyXyXyXyXyXyXyXyXyXyXyXyXyXyXyXyXyXyXyXyXyXyXyXyXd.g.g.g.g.g.j.x.x ` h.g.g.g.g. .A yXyXyXyXyXyXyXyXyXyXyXyXyXyXq yXw / H yXyXyXyXyXyXyXyXyXyXyXyXyX",
"yXyXyXyXyXyXyXyXyXyXyXyXyXyXyXyXyXyXyXyXyXyXyXyXyXyXyXyXyXyXyXg.g.g.g.g.g.g.x.x.U P g.g.g.g.g.{ A yXyXyXyXyXyXyXyXyXyXyXyXyXyXyXyXO yXyXyXyXyXyXyXyXyXyXyXyXyXyX",
"yXyXyXyXyXyXyXyXyXyXyXyXyXyXyXyXyXyXyXyXyXyXyXyXyXyXyXyXyXyXyXp.g.g.g.g.g.g.g.c.J.a.[ g.g.g.g.g.g.H yXyXyXyXyXyXyXyXyXyXyXyXyXyXyXyXyXyXyXyXyXyXyXyXyXyXyXyXyXyX",
"yXyXyXyXyXyXyXyXyXyXyXyXyXyXyXyXyXyXyXyXyXyXyXyXyXyXyXyXyXyXyX~ g.h.g.g.g.g.g.g.j.F.f.~ d.g.g.h.p.).(.yXyXyXyXyXyXyXyXyXyXyXyXyXyXyXyXyXyXyXyXyXyXyXyXyXyXyXyXyX",
"yXyXyXyXyXyXyXyXyXyXyXyXyXyXyXyXyXyXyXyXyXyXyXyXyXyXyXyXyXyXyXyXL d.g.g.g.g.g.g.g.h.j.g.] [ g.{ 8.).C.( yXyXyXyXyXyXyXyXyXyXyXyXyXyXyXyXyXyXyXyXyXyXyXyXyXyXyXyX",
"yXyXyXyXyXyXyXyXyXyXyXyXyXyXyXyXyXyXyXyXyXyXyXyXyXyXyXyXyXyXyXyXyXH { g.g.g.g.g.g.g.g.g.g.{ ] J ~.T M.u.9.E.z yXyXyXyXyXyXyXyXyXyXyXyXyXyXyXyXyXyXyXyXyXyXyXyXyX",
"yXyXyXyXyXyXyXyXyXyXyXyXyXyXyXyXyXyXyXyXyXyXyXyXyXyXyXyXyXyXyXyXyX& D [ d.g.g.g.g.g.g.g.g.h.g.[ ,.E ' y.`.3.{ p.] J z yXyXyXyXyXyXyXyXyXyXyXyXyXyXyXyXyXyXyXyXyX",
"yXyXyXyXyXyXyXyXyXyXyXyXyXyXyXyXyXyXyXyXyXyXyXyXyXyXyXyXyXyXyXyXyX* 8 %.U s.g.g.g.g.g.g.g.g.g.h.` Y N 7.^.{ h.g.g.g.{ F yXyXyXyXyXyXyXyXyXyXyXyXyXyXyXyXyXyXyXyX",
"yXyXyXyXyXyXyXyXyXyXyXyXyXyXyXyXyXyXyXyXyXyXyXyXyXyXyXyXyXyXyXyXyX* 9 9 %./ p.s.g.g.g.g.g.g.g.g.h.g.` 9.:.g.g.g.g.h.{ ` K yXyXyXyXyXyXyXyXyXyXyXyXyXyXyXyXyXyXyX",
"yXyXyXyXyXyXyXyXyXyXyXyXyXyXyXyXyXyXyXyXyXyXyXyXyXyXyXyXyXyXyXyXyX* 9 9 7 %.I i.p.s.d.g.g.g.g.g.g.h.h.g.L L s.g.g.g.g.` V yXyXyXyXyXyXyXyXyXyXyXyXyXyXyXyXyXyXyX",
"yXyXyXyXyXyXyXyXyXyXyXyXyXyXyXyXyXyXyXyXyXyXyXyXyXyXyXyXyXyXyXyXyX+ 4 9 9 9 8 %.U i.p.p.d.g.g.g.g.h.g.h.} Z yXU g.h.g.g.Z yXyXyXyXyXyXyXyXyXyXyXyXyXyXyXyXyXyXyX",
"yXyXyXyXyXyXyXyXyXyXyXyXyXyXyXyXyXyXyXyXyXyXyXyXyXyXyXyXyXyXyXyXyXyX5 9 9 9 9 9 *.;.i.i.i.p.s.d.g.g.h.h.h.{ B yXyX` g.h.J yXyXyXyXyXyXyXyXyXyXyXyXyXyXyXyXyXyXyX",
"yXyXyXyXyXyXyXyXyXyXyXyXyXyXyXyXyXyXyXyXyXyXyXyXyXyXyXyXyXyXyXyXyXyX* 9 9 9 9 9 9 : yXJ ] i.i.p.p.d.g.g.g.h.[ yXyXyXF { m yXyXyXyXyXyXyXyXyXyXyXyXyXyXyXyXyXyXyX",
"yXyXyXyXyXyXyXyXyXyXyXyXyXyXyXyXyXyXyXyXyXyXyXyXyXyXyXyXyXyXyXyXyXyX* 9 9 9 9 9 9 % yXyXyXL / i.i.i.p.s.d.g.g.n yXyXyXyXyXyXyXyXyXyXyXyXyXyXyXyXyXyXyXyXyXyXyXyX",
"yXyXyXyXyXyXyXyXyXyXyXyXyXyXyXyXyXyXyXyXyXyXyXyXyXyXyXyXyXG P H H yXyX4 9 9 9 9 9 2 yXyXyXyXB U i.i.i.i.p.g.h.w yXyXyXyXyXyXyXyXyXyXyXyXyXyXyXyXyXyXyXyXyXyXyXyX",
"yXyXyXyXyXyXyXyXyXyXyXyXyXyXyXyXyXyXyXyXyXyXyXyXyXyXyXy Z 7.@.N S : . 2 9 9 9 9 4 yXyXyXyXyXyXyXB / i.i.i.s.} yXyXyXyXyXyXyXyXyXyXyXyXyXyXyXyXyXyXyXyXyXyXyXyXyX",
"yXyXyXyXyXyXyXyXyXyXyXyXyXyXyXyXyXyXyXyXyXyXyXyXyXyXr M A 6.@.N m 3 $ 3 9 9 9 9 * yXyXyXyXyXyXyXZ L i.i.U [ [ yXyXyXyXyXyXyXyXyXyXyXyXyXyXyXyXyXyXyXyXyXyXyXyXyX",
"yXyXyXyXyXyXyXyXyXyXyXyXyXyXyXyXyXyXyXyXyXyXyXyXyXr M H A 6.5.N *., 4 9 9 9 9 9 # yXyXyXyXyXyXyX[ { / i./ [ L yXyXyXyXyXyXyXyXyXyXyXyXyXyXyXyXyXyXyXyXyXyXyXyXyX",
"yXyXyXyXyXyXyXyXyXyXyXyXyXyXyXyXyXyXyXyXyXyXB Z v z m m v 4.Y.o.9 5 5 9 9 9 9 4 yXyXyXyXyXyXyXL h.g.] i./ / yXyXyXyXyXyXyXyXyXyXyXyXyXyXyXyXyXyXyXyXyXyXyXyXyXyX",
"yXyXyXyXyXyXyXyXyXyXyXyXyXyXyXyXyXyXd f b H H H H X.3 8 8 9 Y.@.0 9 1 2 2 2 2 % yXyXyXyXyXyXB / [ x.j.p.i.M yXyXyXyXyXyXyXyXyXyXyXyXyXyXyXyXyXyXyXyXyXyXyXyXyXyX",
"yXyXyXyXyXyXyXyXyXyXyXyXyXB H H H v g s d H Z Z B t > * % > U.+.$ $ +   yXyXyXyXyXyXyXyXyXyX9.k.l.l.U J t.J yXyXyXyXyXyXyXyXyXyXyXyXyXyXyXyXyXyXyXyXyXyXyXyXyXyX",
"yXyXyXyXyXyXyXyXyXyXyXyXM H H H H n g s k M m c $.6 2 * , . + @ yXyXyXyXyXyXyXyXyXyXyXyXyXyX0._.q.e.y.r.! ^ yXyXyXyXyXyXyXyXyXyXyXyXyXyXyXyXyXyXyXyXyXyXyXyXyXyX",
"yXyXyXyXyXyXyXyXyXyXyXyXyXM H H n r d s s a ; $ > yXyXyXyXyXyXyXyXyXyXyXyXyXyXyXyXyXyXyXyXyXP 0.E.'.Q.^.^.;.yXyXyXyXyXyXyXyXyXyXyXyXyXyXyXyXyXyXyXyXyXyXyXyXyXyX",
"yXyXyXyXyXyXyXyXyXyXyXyXyXz H H u 8 6 : a o yXyXyXyXyXyXyXyXyXyXyXyXyXyXyXyXyXyXyXyXyXyXyXyXL } s.z.3.:.:.F yXyXyXyXyXyXyXyXyXyXyXyXyXyXyXyXyXyXyXyXyXyXyXyXyXyX",
"yXyXyXyXyXyXyXyXyXyXyXyXyXw M H e * > 1 yXyXyXyXyXyXyXyXyXyXyXyXyXyXyXyXyXyXyXyXyXyXyXyXyXyXJ p.g.g.g.[ U yXyXyXyXyXyXyXyXyXyXyXyXyXyXyXyXyXyXyXyXyXyXyXyXyXyXyX",
"yXyXyXyXyXyXyXyXyXyXyXyXyXyXn H M : 4 # yXyXyXyXyXyXyXyXyXyXyXyXyXyXyXyXyXyXyXyXyXyXyXyXyXyXU i.s.g.s.i.H yXyXyXyXyXyXyXyXyXyXyXyXyXyXyXyXyXyXyXyXyXyXyXyXyXyXyX",
"yXyXyXyXyXyXyXyXyXyXyXyXyXyXz H Z *.3 yXyXyXyXyXyXyXyXyXyXyXyXyXyXyXyXyXyXyXyXyXyXyXyXyXyXyXM / i.i.i./ B yXyXyXyXyXyXyXyXyXyXyXyXyXyXyXyXyXyXyXyXyXyXyXyXyXyXyX",
"yXyXyXyXyXyXyXyXyXyXyXyXyXyXM H H D & yXyXyXyXyXyXyXyXyXyXyXyXyXyXyXyXyXyXyXyXyXyXyXyXyXyXyXb U i.i.i.J yXyXyXyXyXyXyXyXyXyXyXyXyXyXyXyXyXyXyXyXyXyXyXyXyXyXyXyX",
"yXyXyXyXyXyXyXyXyXyXyXyXyXb Z H H n yXyXyXyXyXyXyXyXyXyXyXyXyXyXyXyXyXyXyXyXyXyXyXyXyXyXyXyXb J i.i.[ L yXyXyXyXyXyXyXyXyXyXyXyXyXyXyXyXyXyXyXyXyXyXyXyXyXyXyXyX",
"yXyXyXyXyXyXyXyXyXyXyXyXyXv Z H F z yXyXyXyXyXyXyXyXyXyXyXyXyXyXyXyXyXyXyXyXyXyXyXyXyXyXyXyXB [ U ` d.J yXyXyXyXyXyXyXyXyXyXyXyXyXyXyXyXyXyXyXyXyXyXyXyXyXyXyXyX",
"yXyXyXyXyXyXyXyXyXyXyXyXyXyXM H %.c w yXyXyXyXyXyXyXyXyXyXyXyXyXyXyXyXyXyXyXyXyXyXyXyXyXyXyXZ } g.g.{ yXyXyXyXyXyXyXyXyXyXyXyXyXyXyXyXyXyXyXyXyXyXyXyXyXyXyXyXyX",
"yXyXyXyXyXyXyXyXyXyXyXyXyXyXr M H H M yXyXyXyXyXyXyXyXyXyXyXyXyXyXyXyXyXyXyXyXyXyXyXyXyXyXyXL d.g.g.} yXyXyXyXyXyXyXyXyXyXyXyXyXyXyXyXyXyXyXyXyXyXyXyXyXyXyXyXyX",
"yXyXyXyXyXyXyXyXyXyXyXyXyXyXyXr n n n w yXyXyXyXyXyXyXyXyXyXyXyXyXyXyXyXyXyXyXyXyXyXyXyXyXyXL d.g.g.{ yXyXyXyXyXyXyXyXyXyXyXyXyXyXyXyXyXyXyXyXyXyXyXyXyXyXyXyXyX",
"yXyXyXyXyXyXyXyXyXyXyXyXyXyXyXyXyXyXyXyXyXyXyXyXyXyXyXyXyXyXyXyXyXyXyXyXyXyXyXyXyXyXyXyXyXyX] d.g.g.L yXyXyXyXyXyXyXyXyXyXyXyXyXyXyXyXyXyXyXyXyXyXyXyXyXyXyXyXyX",
"yXyXyXyXyXyXyXyXyXyXyXyXyXyXyXyXyXyXyXyXyXyXyXyXyXyXyXyXyXyXyXyXyXyXyXyXyXyXyXyXyXyXyXyXyXyXY Y ~ _ d yXyXyXyXyXyXyXyXyXyXyXyXyXyXyXyXyXyXyXyXyXyXyXyXyXyXyXyXyX",
"yXyXyXyXyXyXyXyXyXyXyXyXyXyXyXyXyXyXyXyXyXyXyXyXyXyXyXyXyXyXyXyXyXyXyXyXyXyXyXyXyXyXyXyXyXyXW m.Q Q d yXyXyXyXyXyXyXyXyXyXyXyXyXyXyXyXyXyXyXyXyXyXyXyXyXyXyXyXyX",
"yXyXyXyXyXyXyXyXyXyXyXyXyXyXyXyXyXyXyXyXyXyXyXyXyXyXyXyXyXyXyXyXyXyXyXyXyXyXyXyXyXyXyXyXyXZ W M.Q M.( J yXyXyXyXyXyXyXyXyXyXyXyXyXyXyXyXyXyXyXyXyXyXyXyXyXyXyXyX",
"yXyXyXyXyXyXyXyXyXyXyXyXyXyXyXyXyXyXyXyXyXyXyXyXyXyXyXyXyXyXyXyXyXyXyXyXyXyXyXyXyXyXyXyXyX[ L ) C.C { { yXyXyXyXyXyXyXyXyXyXyXyXyXyXyXyXyXyXyXyXyXyXyXyXyXyXyXyX",
"yXyXyXyXyXyXyXyXyXyXyXyXyXyXyXyXyXyXyXyXyXyXyXyXyXyXyXyXyXyXyXyXyXyXyXyXyXyXyXyXyXyXyXyXyX[ ~ } g.L g.g.[ yXyXyXyXyXyXyXyXyXyXyXyXyXyXyXyXyXyXyXyXyXyXyXyXyXyXyX",
"yXyXyXyXyXyXyXyXyXyXyXyXyXyXyXyXyXyXyXyXyXyXyXyXyXyXyXyXyXyXyXyXyXyXyXyXyXyXyXyXyXyXyXyXyX{ [ [ g.L g.g.g.] yXyXyXyXyXyXyXyXyXyXyXyXyXyXyXyXyXyXyXyXyXyXyXyXyXyX",
"yXyXyXyXyXyXyXyXyXyXyXyXyXyXyXyXyXyXyXyXyXyXyXyXyXyXyXyXyXyXyXyXyXyXyXyXyXyXyXyXyXyXyXyXZ g.g.` ] { g.g.g.g.s.yXyXyXyXyXyXyXyXyXyXyXyXyXyXyXyXyXyXyXyXyXyXyXyXyX",
"yXyXyXyXyXyXyXyXyXyXyXyXyXyXyXyXyXyXyXyXyXyXyXyXyXyXyXyXyXyXyXyXyXyXyXyXyXyXyXyXyXyXyXyX` g.h.g.` d.g.g.g.g.g.L yXyXyXyXyXyXyXyXyXyXyXyXyXyXyXyXyXyXyXyXyXyXyXyX",
"yXyXyXyXyXyXyXyXyXyXyXyXyXyXyXyXyXyXyXyXyXyXyXyXyXyXyXyXyXyXyXyXyXyXyXyXyXyXyXyXyXyXyXyX~ { { { { ] g.h.g.g.g.d.] P r yXyXyXyXyXyXyXyXyXyXyXyXyXyXyXyXyXyXyXyXyX",
"yXyXyXyXyXyXyXyXyXyXyXyXyXyXyXyXyXyXyXyXyXyXyXyXyXyXyXyXyXyXyXyXyXyXyXyXyXyXyXyXyXyXyXyXyXb b b b B ] ` { h.g.g.g.g.[ yXyXyXyXyXyXyXyXyXyXyXyXyXyXyXyXyXyXyXyXyX",
"yXyXyXyXyXyXyXyXyXyXyXyXyXyXyXyXyXyXyXyXyXyXyXyXyXyXyXyXyXyXyXyXyXyXyXyXyXyXyXyXyXyXyXyXyXyXyXyXyXyXyXyXM m m m m m m l yXyXyXyXyXyXyXyXyXyXyXyXyXyXyXyXyXyXyXyX"
};
