/* XPM */
static char *result[] = {
/* columns rows colors chars-per-pixel */
"80 80 223 2 ",
"   c #41000F",
".  c #490716",
"X  c #520B14",
"o  c #5E1819",
"O  c #651A18",
"+  c #692709",
"@  c #6C2317",
"#  c #772A1A",
"$  c #4C0F23",
"%  c #4F1228",
"&  c #54162A",
"*  c #52162C",
"=  c #561B32",
"-  c #591D33",
";  c #581F38",
":  c #601E2C",
">  c #5D2135",
",  c #5B223C",
"<  c #782924",
"1  c #732A29",
"2  c #66283A",
"3  c #722835",
"4  c #431D44",
"5  c #5E2640",
"6  c #5F2843",
"7  c #612B46",
"8  c #622E4C",
"9  c #673248",
"0  c #793B49",
"q  c #693655",
"w  c #6A3655",
"e  c #6D3A5A",
"r  c #773A52",
"t  c #713F5F",
"y  c #513A73",
"u  c #7E4254",
"i  c #744B52",
"p  c #76415D",
"a  c #79425C",
"s  c #734263",
"d  c #7B4168",
"f  c #73506C",
"g  c #796167",
"h  c #832E1F",
"j  c #89381B",
"k  c #843122",
"l  c #8A3629",
"z  c #933B26",
"x  c #943D29",
"c  c #993F28",
"v  c #833A3C",
"b  c #8C3E38",
"n  c #923F34",
"m  c #B43D36",
"M  c #9C510E",
"N  c #8D4211",
"B  c #B05F0C",
"V  c #AA5812",
"C  c #BB5E1B",
"Z  c #A8680F",
"A  c #B86518",
"S  c #97402A",
"D  c #9B422B",
"F  c #9F482F",
"G  c #8B512E",
"H  c #99582D",
"J  c #974536",
"K  c #9E4635",
"L  c #93443D",
"P  c #A34326",
"I  c #A74925",
"U  c #AB4826",
"Y  c #A2452B",
"T  c #A54A2E",
"R  c #AC4B2D",
"E  c #B6432A",
"W  c #B24E2D",
"Q  c #B4512F",
"!  c #B8502E",
"~  c #A04633",
"^  c #A44933",
"/  c #AC4C32",
"(  c #B84B35",
")  c #AE5437",
"_  c #B55231",
"`  c #B85737",
"'  c #BD5B35",
"]  c #BE5E3C",
"[  c #966838",
"{  c #BE603D",
"}  c #C66818",
"|  c #CA7318",
" . c #D17C19",
".. c #CE4F3B",
"X. c #C15E36",
"o. c #C5553A",
"O. c #C35E3A",
"+. c #C86C29",
"@. c #CC7323",
"#. c #D2762F",
"$. c #C86636",
"%. c #C5633B",
"&. c #C9663C",
"*. c #CD6A3D",
"=. c #D26E3F",
"-. c #D6723F",
";. c #843D46",
":. c #A43949",
">. c #84424D",
",. c #8B4549",
"<. c #944744",
"1. c #814453",
"2. c #84445D",
"3. c #964D55",
"4. c #965957",
"5. c #A65748",
"6. c #B25944",
"7. c #A75457",
"8. c #BC585C",
"9. c #B96649",
"0. c #A6635A",
"q. c #B76955",
"w. c #BA7454",
"e. c #834567",
"r. c #845569",
"t. c #8D4F78",
"y. c #A95D61",
"u. c #B55E63",
"i. c #9B6874",
"p. c #906B79",
"a. c #A97765",
"s. c #B67267",
"d. c #A86978",
"f. c #B36B73",
"g. c #A5787B",
"h. c #CF5B4C",
"j. c #D4594C",
"k. c #C56442",
"l. c #C96542",
"z. c #CD6A42",
"x. c #C76B49",
"c. c #D16E41",
"v. c #D67342",
"b. c #D87543",
"n. c #D67649",
"m. c #D67B4D",
"M. c #CD6C52",
"N. c #C57657",
"B. c #D67B52",
"V. c #D87E59",
"C. c #D5890D",
"Z. c #D28E14",
"A. c #E49A07",
"S. c #EAAB06",
"D. c #D5852B",
"F. c #E68B2D",
"G. c #D3C105",
"H. c #BCA74B",
"J. c #BB966A",
"K. c #A8A37B",
"L. c #CB845D",
"P. c #D58057",
"I. c #DA825B",
"U. c #E1875E",
"Y. c #DA8C65",
"T. c #D18978",
"R. c #D39A70",
"E. c #E8987A",
"W. c #5C5293",
"Q. c #775587",
"!. c #685997",
"~. c #7D7497",
"^. c #7766A1",
"/. c #A05289",
"(. c #866A85",
"). c #887388",
"_. c #9A7386",
"`. c #AD6C8F",
"'. c #B16BA5",
"]. c #7C87AF",
"[. c #B7838E",
"{. c #B7B197",
"}. c #8C87A9",
"|. c #978EB4",
" X c #A396A3",
".X c #BDBDA7",
"XX c #A5A5B5",
"oX c #B6A5B5",
"OX c #B3B3BB",
"+X c #CCA686",
"@X c #D6B48D",
"#X c #CABEAB",
"$X c #D7C19B",
"%X c #C7C3A2",
"&X c #C8C8B4",
"*X c #D4D4BC",
"=X c #D8D8B8",
"-X c #999AC5",
";X c #9D9DD0",
":X c #A097C2",
">X c #A09FD1",
",X c #A8A8C7",
"<X c #BCB5C6",
"1X c #BABACD",
"2X c #ABA9D2",
"3X c #B9B9D3",
"4X c #B9B7D9",
"5X c #B2B4E0",
"6X c #BCBCE2",
"7X c #C4B8CE",
"8X c #CECECB",
"9X c #D7D7CA",
"0X c #C6C6DD",
"qX c #D6D6D2",
"wX c #E5E5C5",
"eX c #C6C6E5",
"rX c #C9CAE0",
"tX c #CECFF1",
"yX c #EEEEE5",
"uX c #F2F2E7",
"iX c #F6F6F5",
"pX c #F8F8F8",
"aX c None",
/* pixels */
"aXaXaXaXaXaXaXaXaXaXaXaXaXaXaXaXaXaXaXaXaXaXaXaXaXaXaXaXaXaXaXaXaXaXaXaXaXaXaXaXaXaXaXaXaXaXaXaXaXaXaXaXaXaXaXaXaXaXaXaXaXaXaXaXaXaXaXaXaXaXaXaXaXaXaXaXaXaXaXaX",
"aXaXaXaXaXaXaXaXaXaXaXaXaXaXaXaXaXaXaXaXaXaXaXaXaXaXaXaXaXaXaXaXaXaXaXaXaXaXaXaXaXaXaXaXaXaXaXaXaXaXaXaXaXaXaXaXaXaXaXaXaXaXaXaXaXaXaXaXaXaXaXaXaXaXaXaXaXaXaXaX",
"aXaXaXaXaXaXaXaXaXaXaXaXaXaXaXaXaXaXaXaXaXaXaXaXaXaXaXaXaXaXaXaXaXaXaXaXaXaXaXaXaXaXaXaXaXaXaXaXaXaXaXaXaXaXaXaXaXaXaXaXaXaXaXaXaXaXaXaXaXaXaXaXaXaXaXaXaXaXaXaX",
"aXaXaXaXaXaXaXaXaXaXaXaXaXaXaXaXaXaXaXaXaXaXaXaXaXaXaXaXaXaXaXaXaXaXaXaXaXaXaXaXaXaXaXaXaXaXaXaXaXaXaXaXaXaXaXaXaXaXaXaXaXaXaXaXaXaXaXaXaXaXaXaXaXaXaXaXaXaXaXaX",
"aXaXaXaXaXaXaXaXaXaXaXaXaXaXaXaXaXaXaXaXaXaXaXaXaXaXaXaXaXaXaXaXaXaXaXaXaXaXaXaXaXaXaXaXaXaXaXaXaXaXaXaXaXaXaXaXaXaXaXaXaXaXaXaXaXaXaXaXaXaXaXaXaXaXaXaXaXaXaXaX",
"aXaXaXaXaXaXaXaXaXaXaXaXaXaXaXaXaXaXaXaXaXaXaXaXaXaXaXaXaXaXaXaXaXaXaXaXaXaXaXaXaXaXaXaXaXaXaXaXaXaXaXaXaXaXaXaXaXaXaXaXaXaXaX*XiXaXaXaXaXaXaXaXaXaXaXaXaXaXaXaX",
"aXaXaXaXaXaXaXaXaXaXaXaXaXaXaXaXaXaXaXaXaXaXaXaXaXaXaXaXaXaXaXaXaXaXaXaXaXaXaXaXaXaXaXaXaXaXaXaXaXaXaXaXaXaXaXaXaXaXaXaXaXaX1XyXiXiXpXyX.XaXaXaXaXaXaXaXaXaXaXaX",
"aXaXaXaXaXaXaXaXaXaXaXaXaXaXaXaXaXaXaXaXaXaXaXaXaXaXaXaXaXaXaXaXaXaXaXaXaXaXaXaXaXaXaXaXaXaXaXaXaXaXaXaXaXaXaXaXaXaXaXaXaX-X3X9XyXiXiXuX=X{.aXaXaXaXaXaXaXaXaXaX",
"aXaXaXaXaXaXaXaXaXaXaXaXaXaXaXaXaXaXaXaXaXaXaXaXaXaXaXaXaXaXaXaXaXaXaXaXaXaXaXaXaXaXaXaXaXaXaXaXaXaXaXaXaXaXaXaXaXaXaXaX-X6X6X4X8X9XwXwXwX&XaXaXaXaXaXaXaXaXaXaX",
"aXaXaXaXaXaXaXaXaXaXaXaXaXaXaXaXaXaXaXaXaXaXaXaXaXaXaXaXaXaXaXaXaXaXaXaXaXaXaXaXaXaXaXaXaXaXaXaXaXaXaXaXaXaXaXaXaXaXaXaX,XtX4X4X0X.X8XqX8X0X,XaXaXaXaXaXaXaXaXaX",
"aXaXaXaXaXaXaXaXaXaXaXaXaXaXaXaXaXaXaXaXaXaXaXaXaXaXaXaXaXaXaXaXaXaXaXaXaXaXaXaXaXaXaXaXaXaXaXaXaXaXaXaXaXaXaXaXaXaXaXaX-X4Xp.2X7Xw._.6X3X1XOXaXaXaXaXaXaXaXaXaX",
"aXaXaXaXaXaXaXaXaXaXaXaXaXaXaXaXaXaXaXaXaXaXaXaXaXaXaXaXaXaXaXaXaXaXaXaXaXaXaXaXaXaXaXaXaXaXaXaXaXaXaX%.&.z.l./ N G.K.u.J.r.K p.oX) < ).XXOX,XaXaXaXaXaXaXaXaXaX",
"aXaXaXaXaXaXaXaXaXaXaXaXaXaXaXaXaXaXaXaXaXaXaXaXaXaXaXaXaXaXaXaXaXaXaXaXaXaXaXaXaXaXaXaXaXaXaXaXaXz.*.b.b.*.%.%.%.Z H.[.F.A < J g.5.f 0 4.(.aXaXaXaXaXaXaXaXaXaX",
"aXaXaXaXaXaXaXaXaXaXaXaXaXaXaXaXaXaXaXaXaXaXaXaXaXaXaXaXaXaXaXaXaXaXaXaXaXaXaXaXaXaXaXaXaXaXaXaXL.v.%.) F l ] U.E.9.[ ^...} x ^ 9.q.M.k.h aXaXaXaXaXaXaXaXaXaXaX",
"aXaXaXaXaXaXaXaXaXaXaXaXaXaXaXaXaXaXaXaXaXaXaXaXaXaXaXaXaXaXaXaXaXaXaXaXaXaXaXaXaXaXaXaXaXaX_ 9.N.' _ T ;.H _ B.Y.V.I f m C S c l.k.] D O aXaXaXaXaXaXaXaXaXaXaX",
"aXaXaXaXaXaXaXaXaXaXaXaXaXaXaXaXaXaXaXaXaXaXaXaXaXaXaXaXaXaXaXaXaXaXaXaXaXaXaXaXaXaXaXaXaX*.c.=.=.*.&.b.x.R.F.&.v.v.+.g 1 j k O S x @ aXaXaXaXaXaXaXaXaXaXaXaXaX",
"aXaXaXaXaXaXaXaXaXaXaXaXaXaXaXaXaXaXaXaXaXaXaXaXaXaXaXaXaXaXaXaXaXaXaXaXaXaXaXaXaXaXaXaXaX*.v.v.v.v.*.*.n.T.F.O.c.v.#.G aXaXaXaXaXaXaXaXaXaXaXaXaXaXaXaXaXaXaXaX",
"aXaXaXaXaXaXaXaXaXaXaXaXaXaXaXaXaXaXaXaXaXaXaXaXaXaXaXaXaXaXaXaXaXaXaXaXaXaXaXaXaXaXaXaXaX*.v.v.v.v.=.&.z.N.+.z c.' # + aXaXaXaXaXaXaXaXaXaXaXaXaXaXaXaXaXaXaXaX",
"aXaXaXaXaXaXaXaXaXaXaXaXaXaXaXaXaXaXaXaXaXaXaXaXaXaXaXaXaXaXaXaXaXaXaXaXaXaXaXaXaXaXaXaX&.%.v.v.v.v.=.s.[.s.^ < J a.i aXaXaXaXaXaXaXaXaXaXaXaXaXaXaXaXaXaXaXaXaX",
"aXaXaXaXaXaXaXaXaXaXaXaXaXaXaXaXaXaXaXaXaXaXaXaXaXaXaXaXaXaXaXaXaXaXaXaXaXaXaXaXaXaXaXc.v.*.c.v.v.v.-.[.5XeXoX X{.=X%XaXaXaXaXaXaXaXaXaXaXaXaXaXaXaXaXaXaXaXaXaX",
"aXaXaXaXaXaXaXaXaXaXaXaXaXaXaXaXaXaXaXaXaXaXaXaXaXaXaXaXaXaXaXaXaXaXaXaXaXaXaXaXaX+X%X+Xm.=.=.v.v.v.v.x.<X X<XrX=X=X&XaXaXaXaXaXaXaXaXaXaXaXaXaXaXaXaXaXaXaXaXaX",
"aXaXaXaXaXaXaXaXaXaXaXaXaXaXaXaXaXaXaXaXaXaXaXaXaXaXaXaXaXaXaXaXaXaXaXaXaXaXaXaXc.P.Y.@X@Xn.` *.v.v.v.*.5.i 3XeX8X*X1XaXaXaXaXaXaXaXaXaXaXaXaXaXaXaXaXaXaXaXaXaX",
"aXaXaXaXaXaXaXaXaXaXaXaXaXaXaXaXaXaXaXaXaXaXaXaXaXaXaXaXaXaXaXaXaXaXaXaXaXaXaXc.v.v.v.n.$X+X7.6.v.v.=.X.W aXXXeXeXeX,XaXaXaXaXaXaXaXaXaXaXaXaXaXaXaXaXaXaXaXaXaX",
"aXaXaXaXaXaXaXaXaXaXaXaXaXaXaXaXaXaXaXaXaXaXaXaXaXaXaXaXaXaXaXaXaXaXaXaXaXaXv.v.v.v.v.v.R.#Xd.7.*.*.`.'.t.aXaX|.:X|.r.aXaXaXaXaXaXaXaXaXaXaXaXaXaXaXaXaXaXaXaXaX",
"aXaXaXaXaXaXaXaXaXaXaXaXaXaXaXaXaXaXaXaXaXaXaXaXaXaXaXaXaXaXaXaXaXaXaXaXaXc.v.v.v.n.v.-.N.2X>X_.U f.'.N.A aXaX;.e.e.2.6.S aXaXaXaXaXaXaXaXaXaXaXaXaXaXaXaXaXaXaX",
"aXaXaXaXaXaXaXaXaXaXaXaXaXaXaXaXaXaXaXaXaXaXaXaXaXaXaXaXaXaXaXaXaXaXaXaXc.v.v.v.v.B.v.-.s.;X;X_.aX/.D.S.} I aXaX3 r <.l.` aXaXaXaXaXaXaXaXaXaXaXaXaXaXaXaXaXaXaX",
"aXaXaXaXaXaXaXaXaXaXaXaXaXaXaXaXaXaXaXaXaXaXaXaXaXaXaXaXaXaXaXaXaXaXaXaXc.v.v.v.v.B.v.v.q.:X>Xr.aX/ C.D.j.( aXaXaXl S ~ ] z aXaXaXaXaXaXaXaXaXaXaXaXaXaXaXaXaXaX",
"aXaXaXaXaXaXaXaXaXaXaXaXaXaXaXaXaXaXaXaXaXaXaXaXaXaXaXaXaXaXaXaXaXaXaXaXc.v.v.v.v.B.m.v.*.f.(.6 $ aXC h.d.~.(.S aXz k aXx @ aXaXaXaXaXaXaXaXaXaXaXaXaXaXaXaXaXaX",
"aXaXaXaXaXaXaXaXaXaXaXaXaXaXaXaXaXaXaXaXaXaXaXaXaXaXaXaXaXaXaXaXaXaXaXaXc.v.v.v.v.I.I.v.v.x.t.s e ; : J ].a.N.&.T S aXaXaXaXaXaXaXaXaXaXaXaXaXaXaXaXaXaXaXaXaXaX",
"aXaXaXaXaXaXaXaXaXaXaXaXaXaXaXaXaXaXaXaXaXaXaXaXaXaXaXaXaXaXaXaXaXaXaXaX&.c.v.v.v.m.I.v.v.z.1.s s s e r 0.-.v.v.v.%.S aXaXaXaXaXaXaXaXaXaXaXaXaXaXaXaXaXaXaXaXaX",
"aXaXaXaXaXaXaXaXaXaXaXaXaXaXaXaXaXaXaXaXaXaXaXaXaXaXaXaXaXaXaXaXaXaXaXaX%.z.v.v.v.v.V.n.v.v.5.s s s s s ,.&.v.v.b.` S aXaXaXaXaXaXaXaXaXaXaXaXaXaXaXaXaXaXaXaXaX",
"aXaXaXaXaXaXaXaXaXaXaXaXaXaXaXaXaXaXaXaXaXaXaXaXaXaXaXaXaXaXaXaXaXaXaXaXaX%.v.v.v.v.B.n.v.v.{ a s s s s p K *.v.v.c.z S aXaXaXaXaXaXaXaXaXaXaXaXaXaXaXaXaXaXaXaX",
"aXaXaXaXaXaXaXaXaXaXaXaXaXaXaXaXaXaXaXaXaXaXaXaXaXaXaXaXaXaXaXaXaXaXaXaXaXX.v.v.v.v.v.B.v.v.c.<.s s s s >.R D v.v.v.D aXaXaXaXaXaXaXaXaXaXaXaXaXaXaXaXaXaXaXaXaX",
"aXaXaXaXaXaXaXaXaXaXaXaXaXaXaXaXaXaXaXaXaXaXaXaXaXaXaXaXaXaXaXaXaXaXaXaXaXO.v.v.v.v.v.n.v.v.v.6.p s s s L Q _ %.b.v.D aXaXaXaXaXaXaXaXaXaXaXaXaXaXaXaXaXaXaXaXaX",
"aXaXaXaXaXaXaXaXaXaXaXaXaXaXaXaXaXaXaXaXaXaXaXaXaXaXaXaXaXaXaXaXaXaXaXaXaXaXc.v.v.v.v.v.v.v.v.z.2.s s p T _ _ T %.%.Y aXaXaXaXaXaXaXaXaXaXaXaXaXaXaXaXaXaXaXaXaX",
"aXaXaXaXaXaXaXaXaXaXaXaXaXaXaXaXaXaXaXaXaXaXaXaXaXaXaXaXaXaXaXaXaXaXaXaXaXaX&.v.v.v.v.v.v.v.v.v.,.s s p ^ _ _ W D D R _ aXaXaXaXaXaXaXaXaXaXaXaXaXaXaXaXaXaXaXaX",
"aXaXaXaXaXaXaXaXaXaXaXaXaXaXaXaXaXaXaXaXaXaXaXaXaXaXaXaXaXaXaXaXaXaXaXaXaXaXaX*.v.v.v.v.v.v.v.v.5.s s s <.Q _ _ _ _ _ _ _ aXaXaXaXaXaXaXaXaXaXaXaXaXaXaXaXaXaXaX",
"aXaXaXaXaXaXaXaXaXaXaXaXaXaXaXaXaXaXaXaXaXaXaXaXaXaXaXaXaXaXaXaXaXaXaXaXaXaXaX%.v.v.v.v.v.v.v.b.9.a s s 1.R _ _ _ _ _ _ _ W aXaXaXaXaXaXaXaXaXaXaXaXaXaXaXaXaXaX",
"aXaXaXaXaXaXaXaXaXaXaXaXaXaXaXaXaXaXaXaXaXaXaXaXaXaXaXaXaXaXaXaXaXaXaXaXaXaXaXaXc.v.v.v.v.v.v.v.%.0 s s s K Q _ _ _ _ _ _ W I aXaXaXaXaXaXaXaXaXaXaXaXaXaXaXaXaX",
"aXaXaXaXaXaXaXaXaXaXaXaXaXaXaXaXaXaXaXaXaXaXaXaXaXaXaXaXaXaXaXaXaXaXaXaXaXaXaXaXz.v.v.v.v.v.v.v.c.1 ; w s 1./ _ _ _ _ _ _ _ W aXaXaXaXaXaXaXaXaXaXaXaXaXaXaXaXaX",
"aXaXaXaXaXaXaXaXaXaXaXaXaXaXaXaXaXaXaXaXaXaXaXaXaXaXaXaXaXaXaXaXaXaXaXaXaXaXaXaXaXz.v.v.v.v.v.v.v.X.aX% = q >.W _ _ _ _ _ _ _ R aXaXaXaXaXaXaXaXaXaXaXaXaXaXaXaX",
"aXaXaXaXaXaXaXaXaXaXaXaXaXaXaXaXaXaXaXaXaXaXaXaXaXaXaXaXaXaXaXaXaXaXaXaXaXaXaXaXaXaXv.v.v.v.v.v.v.&.aXaXaX. , b Q _ _ _ Q _ _ _ U aXaXaXaXaXaXaXaXaXaXaXaXaXaXaX",
"aXaXaXaXaXaXaXaXaXaXaXaXaXaXaXaXaXaXaXaXaXaXaXaXaXaXaXaXaXaXaXaXaXaXaXaXaXaXaXaXaXaX%.v.v.v.v.v.v.&.aXaXaXaXaX- n Q _ W R _ Q R I aXaXaXaXaXaXaXaXaXaXaXaXaXaXaX",
"aXaXaXaXaXaXaXaXaXaXaXaXaXaXaXaXaXaXaXaXaXaXaXaXaXaXaXaXaXaXaXaXaXaXaXaXaXaXaXaXaXaX' *.*.=.v.v.v.c.aXaXaXaXaXaX& z W U Y W K >.aXaXaXaXaXaXaXaXaXaXaXaXaXaXaXaX",
"aXaXaXaXaXaXaXaXaXaXaXaXaXaXaXaXaXaXaXaXaXaXaXaXaXaXaXaXaXaXaXaXaXaXaXaXaXaXaXaXaX%.X.c.*.%.v.v.v.c.aXaXaXaXaXaX> 2 v v l ,.p 7 aXaXaXaXaXaXaXaXaXaXaXaXaXaXaXaX",
"aXaXaXaXaXaXaXaXaXaXaXaXaXaXaXaXaXaXaXaXaXaXaXaXaXaXaXaXaXaXaXaXaXaXaXaXaXaXaX( ! v.&.=.c.k.c.v.v.c.aXaXaXaXaXh S r 8 q 2 s 7 aXaXaXaXaXaXaXaXaXaXaXaXaXaXaXaXaX",
"aXaXaXaXaXaXaXaXaXaXaXaXaXaXaXaXaXaXaXaXaXaXaXaXaXaXaXaXaXaXaXaXaXaXaXaXaXX.g.y.o.v.&.=.c.k.z.v.v.&.aXaXaX4 d ( ! ~ a e 9 , aXaXaXaXaXaXaXaXaXaXaXaXaXaXaXaXaXaX",
"aXaXaXaXaXaXaXaXaXaXaXaXaXaXaXaXaXaXaXaXaXaXaXaXaXaXaXaXaXaXaXaXaXaXaXaXX.=.g.}.M.c.v.v.c.k.z.*.X.aXaXaXaXb !.t.m E u s s = aXaXaXaXaXaXaXaXaXaXaXaXaXaXaXaXaXaX",
"aXaXaXaXaXaXaXaXaXaXaXaXaXaXaXaXaXaXaXaXaXaXaXaXaXaXaXaXaXaXaXaXaXaXaXaX*.v.x.}.8.O.v.v.*._ ` U aXaXaXaX< W 5.Q.!.3.:.;.e $ aXaXaXaXaXaXaXaXaXaXaXaXaXaXaXaXaXaX",
"aXaXaXaXaXaXaXaXaXaXaXaXaXaXaXaXaXaXaXaXaXaXaXaXaXaXaXaXaXaXaXaXaXaXaX&.v.v.v.i.i.j.%.v.=.Y aXaXaXaXaXaX< _ Q _ 4.!.Q.:.3 aXaXaXaXaXaXaXaXaXaXaXaXaXaXaXaXaXaXaX",
"aXaXaXaXaXaXaXaXaXaXaXaXaXaXaXaXaXaXaXaXaXaXaXaXaXaXaXaXaXaXaXaXaXaX' *.v.v.v.*.i.u.j.%.&.aXaXaXaXaXaXaX# W R L L 1.W.y aXaXaXaXaXaXaXaXaXaXaXaXaXaXaXaXaXaXaXaX",
"aXaXaXaXaXaXaXaXaXaXaXaXaXaXaXaXaXaXaXaXaXaXaXaXaXaXaXaXaXaXaXaXaXz.=.v.v.v.v.v.k.(.d.` aXaXaXaXaXaXaXaX: >.u s s e - aXaXaXaXaXaXaXaXaXaXaXaXaXaXaXaXaXaXaXaXaX",
"aXaXaXaXaXaXaXaXaXaXaXaXaXaXaXaXaXaXaXaXaXaXaXaXaXaXaXaXaXaXaXaXz.v.v.v.v.z.z.z.l.6.aXaXaXaXaXaXaXaXaXaX- s s t 7 *   aXaXaXaXaXaXaXaXaXaXaXaXaXaXaXaXaXaXaXaXaX",
"aXaXaXaXaXaXaXaXaXaXaXaXaXaXaXaXaXaXaXaXaXaXaXaXaXaXaXaXaXaXaX&.v.v.v.v.v.v.c.z.aXaXaXaXaXaXaXaXaXaXaX. = s e > 5 * aXaXaXaXaXaXaXaXaXaXaXaXaXaXaXaXaXaXaXaXaXaX",
"aXaXaXaXaXaXaXaXaXaXaXaXaXaXaXaXaXaXaXaXaXaXaXaXaXaXaXaXaX| Z.$.v.v.v.v.v.z.aXaXaXaXaXaXaXaXaXaXaXaXaXP 3 s s e , aXaXaXaXaXaXaXaXaXaXaXaXaXaXaXaXaXaXaXaXaXaXaX",
"aXaXaXaXaXaXaXaXaXaXaXaXaXaXaXaXaXaXaXaXaXaXaXaXz.c.v.v.*.Z.C.$.v.v.v.c.aXaXaXaXaXaXaXaXaXaXaXaXaXaXaXQ L s s q aXaXaXaXaXaXaXaXaXaXaXaXaXaXaXaXaXaXaXaXaXaXaXaX",
"aXaXaXaXaXaXaXaXaXaXaXaXaXaXaXaXaXaXaXaXaXaXaXaXv.v.z.c.-.S.A. .*.*.z.aXaXaXaXaXaXaXaXaXaXaXaXaXaXaXY Q L s t ; aXaXaXaXaXaXaXaXaXaXaXaXaXaXaXaXaXaXaXaXaXaXaXaX",
"aXaXaXaXaXaXaXaXaXaXaXaXaXaXaXaXaXaXaXaXaXaXaXl.v.*.v.v.*.| C.A.@.aXaXaXaXaXaXaXaXaXaXaXaXaXaXaXaXo D Q L s , aXaXaXaXaXaXaXaXaXaXaXaXaXaXaXaXaXaXaXaXaXaXaXaXaX",
"aXaXaXaXaXaXaXaXaXaXaXaXaXaXaXaXaXaXaXaXaXaXaXaXv.*.&.*.&.*.@.@.aXaXaXaXaXaXaXaXaXaXaXaXaXaXaXaXaX+ V I b r * aXaXaXaXaXaXaXaXaXaXaXaXaXaXaXaXaXaXaXaXaXaXaXaXaX",
"aXaXaXaXaXaXaXaXaXaXaXaXaXaXaXaXaXaXaXaXaXaXaXaXc.v.*.&.v.v.=.' aXaXaXaXaXaXaXaXaXaXaXaXaXaXaXaXO N B V V @ aXaXaXaXaXaXaXaXaXaXaXaXaXaXaXaXaXaXaXaXaXaXaXaXaXaX",
"aXaXaXaXaXaXaXaXaXaXaXaXaXaXaXaXaXaXaXaXaXaXaXaXz.v.v.v.v.v.%.aXaXaXaXaXaXaXaXaXaXaXaXaXaXaXaXaXz j M B M o aXaXaXaXaXaXaXaXaXaXaXaXaXaXaXaXaXaXaXaXaXaXaXaXaXaX",
"aXaXaXaXaXaXaXaXaXaXaXaXaXaXaXaXaXaXaXaXaXaXaXaXv.v.v.v.v.z.aXaXaXaXaXaXaXaXaXaXaXaXaXaXaXaXaXz W Y # H G 9 * aXaXaXaXaXaXaXaXaXaXaXaXaXaXaXaXaXaXaXaXaXaXaXaXaX",
"aXaXaXaXaXaXaXaXaXaXaXaXaXaXaXaXaXaXaXaXaXaXaXz.v.v.v.v.c.aXaXaXaXaXaXaXaXaXaXaXaXaXaXaXaXaXaXR _ k J s e 5 8 aXaXaXaXaXaXaXaXaXaXaXaXaXaXaXaXaXaXaXaXaXaXaXaXaX",
"aXaXaXaXaXaXaXaXaXaXaXaXaXaXaXaXaXaXaXaXaXaXaXc.v.v.v.v.c.aXaXaXaXaXaXaXaXaXaXaXaXaXaXaXaXaXc _ Q 1 t s q 2 >.1 aXaXaXaXaXaXaXaXaXaXaXaXaXaXaXaXaXaXaXaXaXaXaXaX",
"aXaXaXaXaXaXaXaXaXaXaXaXaXaXaXaXaXaXaXaXaXaXl.v.v.v.v.c.aXaXaXaXaXaXaXaXaXaXaXaXaXaXaXaXaXaXR _ _ l = = , ;.R W W W U aXaXaXaXaXaXaXaXaXaXaXaXaXaXaXaXaXaXaXaXaX",
"aXaXaXaXaXaXaXaXaXaXaXaXaXaXaXaXaXaXaXaXaXaXl.v.v.v.v.&.aXaXaXaXaXaXaXaXaXaXaXaXaXaXaXaXaXO R _ _ W ;.e t <.W _ _ _ _ Y z S aXaXaXaXaXaXaXaXaXaXaXaXaXaXaXaXaXaX",
"aXaXaXaXaXaXaXaXaXaXaXaXaXaXaXaXaXaXaXaXaXaXO.v.v.v.*.aXaXaXaXaXaXaXaXaXaXaXaXaXaXaXaXaXaXaXz R R S 2 * * > v P R R R R R T < aXaXaXaXaXaXaXaXaXaXaXaXaXaXaXaXaX",
"aXaXaXaXaXaXaXaXaXaXaXaXaXaXaXaXaXaXaXaXaXaX' v.v.v.%.aXaXaXaXaXaXaXaXaXaXaXaXaXaXaXaXaXaXaXaXX X X aXaXaX  . X X X X X X X aXaXaXaXaXaXaXaXaXaXaXaXaXaXaXaXaXaX",
"aXaXaXaXaXaXaXaXaXaXaXaXaXaXaXaXaXaXaXaXaXaX' c.v.*.' aXaXaXaXaXaXaXaXaXaXaXaXaXaXaXaXaXaXaXaXaXaXaXaXaXaXaXaXaXaXaXaXaXaXaXaXaXaXaXaXaXaXaXaXaXaXaXaXaXaXaXaXaX",
"aXaXaXaXaXaXaXaXaXaXaXaXaXaXaXaXaXaXaXaXaXaXaX&.v.%.T aXaXaXaXaXaXaXaXaXaXaXaXaXaXaXaXaXaXaXaXaXaXaXaXaXaXaXaXaXaXaXaXaXaXaXaXaXaXaXaXaXaXaXaXaXaXaXaXaXaXaXaXaX",
"aXaXaXaXaXaXaXaXaXaXaXaXaXaXaXaXaXaXaXaXaXaXaXX.*.) aXaXaXaXaXaXaXaXaXaXaXaXaXaXaXaXaXaXaXaXaXaXaXaXaXaXaXaXaXaXaXaXaXaXaXaXaXaXaXaXaXaXaXaXaXaXaXaXaXaXaXaXaXaX",
"aXaXaXaXaXaXaXaXaXaXaXaXaXaXaXaXaXaXaXaXaXaXaXaXx aXaXaXaXaXaXaXaXaXaXaXaXaXaXaXaXaXaXaXaXaXaXaXaXaXaXaXaXaXaXaXaXaXaXaXaXaXaXaXaXaXaXaXaXaXaXaXaXaXaXaXaXaXaXaX",
"aXaXaXaXaXaXaXaXaXaXaXaXaXaXaXaXaXaXaXaXaXaXaXaXaXaXaXaXaXaXaXaXaXaXaXaXaXaXaXaXaXaXaXaXaXaXaXaXaXaXaXaXaXaXaXaXaXaXaXaXaXaXaXaXaXaXaXaXaXaXaXaXaXaXaXaXaXaXaXaX",
"aXaXaXaXaXaXaXaXaXaXaXaXaXaXaXaXaXaXaXaXaXaXaXaXaXaXaXaXaXaXaXaXaXaXaXaXaXaXaXaXaXaXaXaXaXaXaXaXaXaXaXaXaXaXaXaXaXaXaXaXaXaXaXaXaXaXaXaXaXaXaXaXaXaXaXaXaXaXaXaX",
"aXaXaXaXaXaXaXaXaXaXaXaXaXaXaXaXaXaXaXaXaXaXaXaXaXaXaXaXaXaXaXaXaXaXaXaXaXaXaXaXaXaXaXaXaXaXaXaXaXaXaXaXaXaXaXaXaXaXaXaXaXaXaXaXaXaXaXaXaXaXaXaXaXaXaXaXaXaXaXaX",
"aXaXaXaXaXaXaXaXaXaXaXaXaXaXaXaXaXaXaXaXaXaXaXaXaXaXaXaXaXaXaXaXaXaXaXaXaXaXaXaXaXaXaXaXaXaXaXaXaXaXaXaXaXaXaXaXaXaXaXaXaXaXaXaXaXaXaXaXaXaXaXaXaXaXaXaXaXaXaXaX",
"aXaXaXaXaXaXaXaXaXaXaXaXaXaXaXaXaXaXaXaXaXaXaXaXaXaXaXaXaXaXaXaXaXaXaXaXaXaXaXaXaXaXaXaXaXaXaXaXaXaXaXaXaXaXaXaXaXaXaXaXaXaXaXaXaXaXaXaXaXaXaXaXaXaXaXaXaXaXaXaX",
"aXaXaXaXaXaXaXaXaXaXaXaXaXaXaXaXaXaXaXaXaXaXaXaXaXaXaXaXaXaXaXaXaXaXaXaXaXaXaXaXaXaXaXaXaXaXaXaXaXaXaXaXaXaXaXaXaXaXaXaXaXaXaXaXaXaXaXaXaXaXaXaXaXaXaXaXaXaXaXaX",
"aXaXaXaXaXaXaXaXaXaXaXaXaXaXaXaXaXaXaXaXaXaXaXaXaXaXaXaXaXaXaXaXaXaXaXaXaXaXaXaXaXaXaXaXaXaXaXaXaXaXaXaXaXaXaXaXaXaXaXaXaXaXaXaXaXaXaXaXaXaXaXaXaXaXaXaXaXaXaXaX",
"aXaXaXaXaXaXaXaXaXaXaXaXaXaXaXaXaXaXaXaXaXaXaXaXaXaXaXaXaXaXaXaXaXaXaXaXaXaXaXaXaXaXaXaXaXaXaXaXaXaXaXaXaXaXaXaXaXaXaXaXaXaXaXaXaXaXaXaXaXaXaXaXaXaXaXaXaXaXaXaX"
};
