/* XPM */
static char *result[] = {
/* columns rows colors chars-per-pixel */
"80 80 216 2 ",
"   c #4B0C1F",
".  c #560F1A",
"X  c #5E1618",
"o  c #691F10",
"O  c #6C1E1A",
"+  c #682114",
"@  c #74241A",
"#  c #4E0C2F",
"$  c #4E1125",
"%  c #53162B",
"&  c #54192F",
"*  c #561B34",
"=  c #5A1E36",
"-  c #5C233C",
";  c #68212B",
":  c #7B2B21",
">  c #772B2A",
",  c #672638",
"<  c #7D3C35",
"1  c #49234B",
"2  c #5C2340",
"3  c #592D4A",
"4  c #5D3040",
"5  c #652C45",
"6  c #642E4A",
"7  c #6D2B4C",
"8  c #66314D",
"9  c #6D354D",
"0  c #793744",
"q  c #672B51",
"w  c #693552",
"e  c #693553",
"r  c #6F3D5D",
"t  c #763C5D",
"y  c #764359",
"u  c #79425B",
"i  c #734263",
"p  c #754B65",
"a  c #744B7A",
"s  c #776178",
"d  c #8E381A",
"f  c #8D3824",
"g  c #883528",
"h  c #923B25",
"j  c #983E26",
"k  c #933D2B",
"l  c #983F28",
"z  c #833A38",
"x  c #BF3F2E",
"c  c #AE3431",
"v  c #954418",
"b  c #A04F1E",
"n  c #AB5814",
"m  c #B65015",
"M  c #BA6B09",
"N  c #B96416",
"B  c #994525",
"V  c #9D442B",
"C  c #8D4B31",
"Z  c #9A4433",
"A  c #944837",
"S  c #A34325",
"D  c #A94625",
"F  c #AD4927",
"G  c #A3462B",
"H  c #A5492D",
"J  c #AC4B2C",
"K  c #B7432B",
"L  c #B14E2C",
"P  c #A45F2E",
"I  c #B5512E",
"U  c #B85A28",
"Y  c #A44A32",
"T  c #AA4E34",
"R  c #A04D3E",
"E  c #B54231",
"W  c #B04F30",
"Q  c #AE5132",
"!  c #A85037",
"~  c #B45332",
"^  c #B95634",
"/  c #B55937",
"(  c #BC5A35",
")  c #B55639",
"_  c #BD5B3A",
"`  c #B76128",
"'  c #AC623F",
"]  c #B4613F",
"[  c #BD6039",
"{  c #C27404",
"}  c #D37B0B",
"|  c #C87812",
" . c #D47B15",
".. c #CE512A",
"X. c #C15D35",
"o. c #C15E3C",
"O. c #C85939",
"+. c #C76929",
"@. c #CE7826",
"#. c #D5792D",
"$. c #C46136",
"%. c #CA6935",
"&. c #C4623B",
"*. c #C9663C",
"=. c #CD6A3D",
"-. c #D16D3E",
";. c #C97836",
":. c #D9723E",
">. c #813947",
",. c #853E4A",
"<. c #8F3D56",
"1. c #B63845",
"2. c #86424A",
"3. c #934444",
"4. c #954C43",
"5. c #9B544F",
"6. c #894555",
"7. c #9A485A",
"8. c #975658",
"9. c #A44E43",
"0. c #A0414E",
"q. c #AB5945",
"w. c #B55846",
"e. c #A55F51",
"r. c #BB6744",
"t. c #AB6559",
"y. c #BA6A55",
"u. c #9C4564",
"i. c #8A5A69",
"p. c #9C5E64",
"a. c #9D5F72",
"s. c #AD586A",
"d. c #8E6966",
"f. c #88677B",
"g. c #9D6870",
"h. c #A16865",
"j. c #B96C63",
"k. c #BB7263",
"l. c #C95342",
"z. c #C15F40",
"x. c #CB5D56",
"c. c #D85D53",
"v. c #C66342",
"b. c #C96542",
"n. c #CD6B42",
"m. c #D16E41",
"M. c #D67342",
"N. c #D87443",
"B. c #D6774B",
"V. c #CA7654",
"C. c #DB7D51",
"Z. c #CD6967",
"A. c #C2786B",
"S. c #CC8711",
"D. c #D58915",
"F. c #D1941B",
"G. c #E4A20D",
"H. c #CF8721",
"J. c #E29829",
"K. c #CFAA28",
"L. c #E7CD0F",
"P. c #B08C75",
"I. c #B5B974",
"U. c #DDA64D",
"Y. c #DA8A64",
"T. c #E4906E",
"R. c #5B548D",
"E. c #70578E",
"W. c #7C7297",
"Q. c #585BA9",
"!. c #505DB7",
"~. c #94568A",
"^. c #93798F",
"/. c #A16F81",
"(. c #B06280",
"). c #6C8BBD",
"_. c #6888D5",
"`. c #968B93",
"'. c #9F9F91",
"]. c #A48C8D",
"[. c #B2A89E",
"{. c #BABA99",
"}. c #8987A8",
"|. c #988CA6",
" X c #9F91AF",
".X c #948BB8",
"XX c #9191B6",
"oX c #A38EA3",
"OX c #90ABB3",
"+X c #B2AEAF",
"@X c #B4B4A7",
"#X c #C6908C",
"$X c #CAB796",
"%X c #CFB694",
"&X c #BEC1A0",
"*X c #CDCBAD",
"=X c #D2D2BA",
"-X c #D7D8B8",
";X c #E1E1BF",
":X c #9C9CCA",
">X c #A9A8C7",
",X c #A7A8D9",
"<X c #B7B6DB",
"1X c #BCBCE2",
"2X c #C6C6CA",
"3X c #D5D5C4",
"4X c #C7C7D8",
"5X c #E5E5CB",
"6X c #EAEADE",
"7X c #C4C4E4",
"8X c #C7C8E9",
"9X c #F0F0E3",
"0X c #F3F3EB",
"qX c #F6F6F3",
"wX c #F8F8F8",
"eX c None",
/* pixels */
"eXeXeXeXeXeXeXeXeXeXeXeXeXeXeXeXeXeXeXeXeXeXeXeXeXeXeXeXeXeXeXeXeXeXeXeXeXeXeXeXeXeXeXeXeXeXeXeXeXeXeXeXeXeXeXeXeXeXeXeXeXeXeXeXeXeXeXeXeXeXeXeXeXeXeXeXeXeXeXeX",
"eXeXeXeXeXeXeXeXeXeXeXeXeXeXeXeXeXeXeXeXeXeXeXeXeXeXeXeXeXeXeXeXeXeXeXeXeXeXeXeXeXeXeXeXeXeXeXeXeXeXeXeXeXeXeXeXeXeXeXeXeXeXeXeXeXeXeXeXeXeXeXeXeXeXeXeXeXeXeXeX",
"eXeXeXeXeXeXeXeXeXeXeXeXeXeXeXeXeXeXeXeXeXeXeXeXeXeXeXeXeXeXeXeXeXeXeXeXeXeXeXeXeXeXeXeXeXeXeXeXeXeXeXeXeXeXeXeXeXeXeXeXeXeXeXeXeXeXeXeXeXeXeXeXeXeXeXeXeXeXeXeX",
"eXeXeXeXeXeXeXeXeXeXeXeXeXeXeXeXeXeXeXeXeXeXeXeXeXeXeXeXeXeXeXeXeXeXeXeXeXeXeXeXeXeXeXeXeXeXeXeXeXeXeXeXeXeXeXeXeXeXeXeXeXeXeXeXeXeXeXeXeXeXeXeXeXeXeXeXeXeXeXeX",
"eXeXeXeXeXeXeXeXeXeXeXeXeXeXeXeXeXeXeXeXeXeXeXeXeXeXeXeXeXeXeXeXeXeXeXeXeXeXeXeXeXeXeXeXeXeXeXeXeXeXeXeXeXeXeXeXeXeXeXeXeXeXeXeXeXeXeXeXeXeXeXeXeXeXeXeXeXeXeXeX",
"eXeXeXeXeXeXeXeXeXeXeXeXeXeXeXeXeXeXeXeXeXeXeXeXeXeXeXeXeXeXeXeXeXeXeXeXeXeXeXeXeXeXeXeXeXeXeXeXeXeXeXeXeXeXeXeXeXeXeXeXeXeXeXeXeXeXeXeXeXeXeXeXeXeXeXeXeXeXeXeX",
"eXeXeXeXeXeXeXeXeXeXeXeXeXeXeXeXeXeXeXeXeXeXeXeXeXeXeXeXeXeXeXeXeXeXeXeXeXeXeXeXeXeXeXeXeXeXeXeXeXeXeX*XqX9XeXeXeXeXeXeXeXeXeXeXeXeXeXeXeXeXeXeXeXeXeXeXeXeXeXeX",
"eXeXeXeXeXeXeXeXeXeXeXeXeXeXeXeXeXeXeXeXeXeXeXeXeXeXeXeXeXeXeXeXeXeXeXeXeXeXeXeXeXeXeXeXeXeXeXeXeXeX>X6XqXqXwX0X=XeXeXeXeXeXeXeXeXeXeXeXeXeXeXeXeXeXeXeXeXeXeXeX",
"eXeXeXeXeXeXeXeXeXeXeXeXeXeXeXeXeXeXeXeXeXeXeXeXeXeXeXeXeXeXeXeXeXeXeXeXeXeXeXeXeXeXeXeXeXeXeXeXeX:X,X2X5X9X0X0X5X*XeXeXeXeXeXeXeXeXeXeXeXeXeXeXeXeXeXeXeXeXeXeX",
"eXeXeXeXeXeXeXeXeXeXeXeXeXeXeXeXeXeXeXeXeXeXeXeXeXeXeXeXeXeXeXeXeXeXeXeXeXeXeXeXeXeXeXeXeXeXeXeXXX1X8X1X4X3X-X5X;X3X+XeXeXeXeXeXeXeXeXeXeXeXeXeXeXeXeXeXeXeXeXeX",
"eXeXeXeXeXeXeXeXeXeXeXeXeXeXeXeXeXeXeXeXeXeXeXeXeXeXeXeXeXeXeXeXeXeXeXeXeXeXeXeXeXeXeXeXeXeXeXeXeX8X<X>X7X[.+X4X4X4X1XeXeXeXeXeXeXeXeXeXeXeXeXeXeXeXeXeXeXeXeXeX",
"eXeXeXeXeXeXeXeXeXeXeXeXeXeXeXeXeXeXeXeXeXeXeXeXeXeXeXeXeXeXeXeXeXeXeXeXeXeXeXeXeXeXeXeXeXeXeXeXeX>Xi.oX<XA.4.}.<X+X<XeXeXeXeXeXeXeXeXeXeXeXeXeXeXeXeXeXeXeXeXeX",
"eXeXeXeXeXeXeXeXeXeXeXeXeXeXeXeXeXeXeXeXeXeXeXeXeXeXeXeXeXeXeXeXeXeXeXeXeXeXeXeXeXeXeXeXeXeXeX. C 5.f 4. Xt.> 4 |.`.XXeXeXeXeXeXeXeXeXeXeXeXeXeXeXeXeXeXeXeXeXeX",
"eXeXeXeXeXeXeXeXeXeXeXeXeXeXeXeXeXeXeXeXeXeXeXeXeXeXeXeXeXeXeXeXeXeXeXeXeXeXeXeXeXeXeXeXeXL.I.Z.F.%.k g j.t.g.2.Z y eXeXeXeXeXeXeXeXeXeXeXeXeXeXeXeXeXeXeXeXeXeX",
"eXeXeXeXeXeXeXeXeXeXeXeXeXeXeXeXeXeXeXeXeXeXeXeXeXeXeXeXeXeXeXeXeXeXeXeXeXeXeXeX_ *.m.n.#.L.OXZ.G.+._ k b.y.n.n.f eXeXeXeXeXeXeXeXeXeXeXeXeXeXeXeXeXeXeXeXeXeXeX",
"eXeXeXeXeXeXeXeXeXeXeXeXeXeXeXeXeXeXeXeXeXeXeXeXeXeXeXeXeXeXeXeXeXeXeXeXeXeXeXI m.M.M.*.#.K.).~...} d O _ &.T k X eXeXeXeXeXeXeXeXeXeXeXeXeXeXeXeXeXeXeXeXeXeXeX",
"eXeXeXeXeXeXeXeXeXeXeXeXeXeXeXeXeXeXeXeXeXeXeXeXeXeXeXeXeXeXeXeXeXeXeXeXeXeXeX*.M.M.*.*.*.$.s Q.1.m B : @ : X eXeXeXeXeXeXeXeXeXeXeXeXeXeXeXeXeXeXeXeXeXeXeXeXeX",
"eXeXeXeXeXeXeXeXeXeXeXeXeXeXeXeXeXeXeXeXeXeXeXeXeXeXeXeXeXeXeXeXeXeXeXeXeXeXn.M.M.*.-.C.T.T.q.Q.!.r./ 0 + o eXeXeXeXeXeXeXeXeXeXeXeXeXeXeXeXeXeXeXeXeXeXeXeXeXeX",
"eXeXeXeXeXeXeXeXeXeXeXeXeXeXeXeXeXeXeXeXeXeXeXeXeXeXeXeXeXeXeXeXeXeXeXeXeXP.Y.M.*.$.M.C.Y.Y.M.e.d.P 3.,.| ' . eXeXeXeXeXeXeXeXeXeXeXeXeXeXeXeXeXeXeXeXeXeXeXeXeX",
"eXeXeXeXeXeXeXeXeXeXeXeXeXeXeXeXeXeXeXeXeXeXeXeXeXeXeXeXeXeXeXeXeXeXeXeXeX&X*XV.J X.M.B.B.B.M.%.n z ,.N r.6.,.J eXeXeXeXeXeXeXeXeXeXeXeXeXeXeXeXeXeXeXeXeXeXeXeX",
"eXeXeXeXeXeXeXeXeXeXeXeXeXeXeXeXeXeXeXeXeXeXeXeXeXeXeXeXeXeXeXeXeXeXeXeXeX%X$X[ =.=.M.M.M.M.-.r.h.< @ Y 6.6.7.z.^ eXeXeXeXeXeXeXeXeXeXeXeXeXeXeXeXeXeXeXeXeXeXeX",
"eXeXeXeXeXeXeXeXeXeXeXeXeXeXeXeXeXeXeXeXeXeXeXeXeXeXeXeXeXeXeXeXeXeXeXeX=.V.;.D.%.M.M.M.-.=.r.$X{.P.eX# , t 7.v.v.^ eXeXeXeXeXeXeXeXeXeXeXeXeXeXeXeXeXeXeXeXeXeX",
"eXeXeXeXeXeXeXeXeXeXeXeXeXeXeXeXeXeXeXeXeXeXeXeXeXeXeXeXeXeXeXeXeXeXeXeX*.X.w.U.D.=.=.y.#XP.%X-X{.{.eXeXeX% 6.v.v.v.W Y Y G eXeXeXeXeXeXeXeXeXeXeXeXeXeXeXeXeXeX",
"eXeXeXeXeXeXeXeXeXeXeXeXeXeXeXeXeXeXeXeXeXeXeXeXeXeXeXeXeXeXeXeXeXeXeX&.$.=.-.j.J. .] ].8X8X=X=X@X@XeXeXeXeX; ) v.v.~ v.b.o.J eXeXeXeXeXeXeXeXeXeXeXeXeXeXeXeXeX",
"eXeXeXeXeXeXeXeXeXeXeXeXeXeXeXeXeXeXeXeXeXeXeXeXeXeXeXeXeXeXeXeXeXeXeXG =.M.M.=.j.;.h.`.8X7X7X7X>X'.eXeXeXeXeXeXH T V v.v.v._ eXeXeXeXeXeXeXeXeXeXeXeXeXeXeXeXeX",
"eXeXeXeXeXeXeXeXeXeXeXeXeXeXeXeXeXeXeXeXeXeXeXeXeXeXeXeXeXeXeXeXeXH &.&.=.[ M.M.w.7.7.i.<X7X7X<XeXeXeXeXeXeXeXeXeXO k &.v.v.v.^ eXeXeXeXeXeXeXeXeXeXeXeXeXeXeXeX",
"eXeXeXeXeXeXeXeXeXeXeXeXeXeXeXeXeXeXeXeXeXeXeXeXeXeXeXeXeXeXeXeXH =.M.N.=.~ -.[ 9.7.3.eXeX:X:XeXeXeXeXeXeXeXeXeXeXeXL v.v.v.w.7.eXeXeXeXeXeXeXeXeXeXeXeXeXeXeXeX",
"eXeXeXeXeXeXeXeXeXeXeXeXeXeXeXeXeXeXeXeXeXeXeXeXeXeXeXeXeXeXeXeX~ M.M.M.M.J 6.0 >.> eXeXeXeXeXeXeXeXeXeXeXeXeXeXeXeXL &.b.w.~.k.b eXeXeXeXeXeXeXeXeXeXeXeXeXeXeX",
"eXeXeXeXeXeXeXeXeXeXeXeXeXeXeXeXeXeXeXeXeXeXeXeXeXeXeXeXeXeXeXeX^ M.M.M.M.~ p .X8 eXeXeXeXeXeXeXeXeXeXeXeXeXeXeXeXeXeXL ^ u.j. .E 3 eXeXeXeXeXeXeXeXeXeXeXeXeXeX",
"eXeXeXeXeXeXeXeXeXeXeXeXeXeXeXeXeXeXeXeXeXeXeXeXeXeXeXeXeXeXeX=.( =.M.M.M.$.i..XeXeXeXeXeXeXeXeXeXeXeXeXeXeXeXeXeXeXeXeXeX, N x E.R.g eXeXeXeXeXeXeXeXeXeXeXeXeX",
"eXeXeXeXeXeXeXeXeXeXeXeXeXeXeXeXeXeXeXeXeXeXeXeXeXeXeXeXeXeXn.M.=.*.M.M.M.=.g.,XeXeXeXeXeXeXeXeXeXeXeXeXeXeXeXeXeXeXeXeXeXeXeX5 R.9.o.I eXeXeXeXeXeXeXeXeXeXeXeX",
"eXeXeXeXeXeXeXeXeXeXeXeXeXeXeXeXeXeXeXeXeXeXeXeXeXeXeXeXeXeXM.M.=.( M.M.M.=.i.,XeXeXeXeXeXeXeXeXeXeXeXeXeXeXeXeXeXeXeXeXeXeXeXeX, o.b.o.^ eXeXeXeXeXeXeXeXeXeXeX",
"eXeXeXeXeXeXeXeXeXeXeXeXeXeXeXeXeXeXeXeXeXeXeXeXeXeXeXeXeX$.M.M.M.&.m.M.M.=.z i.eXeXeXeXeXeXeXeXeXeXeXeXeXeXeXeXeXeXeXeXeXeXeXeXg z.v.^ v.^ eXeXeXeXeXeXeXeXeXeX",
"eXeXeXeXeXeXeXeXeXeXeXeXeXeXeXeXeXeXeXeXeXeXeXeXeXeXeXeXeXn.M.M.M.$.$.M.M.=.Q V eXeXeXeXeXeXeXeXeXeXeXeXeXeXeXeXeXeXeXeXeXeXeXeXeX_ v.~ v.v._ eXeXeXeXeXeXeXeXeX",
"eXeXeXeXeXeXeXeXeXeXeXeXeXeXeXeXeXeXeXeXeXeXeXeXeXeXeXeXeXn.M.M.M.M.^ =.r.s.9.=.^ eXeXeXeXeXeXeXeXeXeXeXeXeXeXeXeXeXeXeXeXeXeXeXeXJ o.H H _ v.^ eXeXeXeXeXeXeXeX",
"eXeXeXeXeXeXeXeXeXeXeXeXeXeXeXeXeXeXeXeXeXeXeXeXeXeXeXeXeX*.M.M.M.M.=.s.(.A.` n.M.&.eXeXeXeXeXeXeXeXeXeXeXeXeXeXeXeXeXeXeXeXeXeXeXeXJ ) k Y T o.J eXeXeXeXeXeXeX",
"eXeXeXeXeXeXeXeXeXeXeXeXeXeXeXeXeXeXeXeXeXeXeXeXeXeXeXeXeXeX=.M.M.M.=.w.H.G.U V.C.M.=.I eXeXeXeXeXeXeXeXeXeXeXeXeXeXeXeXeXeXeXeXeXeXeXh : V eXY V eXeXeXeXeXeXeX",
"eXeXeXeXeXeXeXeXeXeXeXeXeXeXeXeXeXeXeXeXeXeXeXeXeXeXeXeXeXeXT M.M.M.M.+. .b.c.w.Y.B.M.m.( eXeXeXeXeXeXeXeXeXeXeXeXeXeXeXeXeXeXeXeXeXeXeXeXeXeXeXeXeXeXeXeXeXeXeX",
"eXeXeXeXeXeXeXeXeXeXeXeXeXeXeXeXeXeXeXeXeXeXeXeXeXeXeXeXeXeX5 8.n.M.M.$.l.x./.f.v.B.M.M.-.I eXeXeXeXeXeXeXeXeXeXeXeXeXeXeXeXeXeXeXeXeXeXeXeXeXeXeXeXeXeXeXeXeXeX",
"eXeXeXeXeXeXeXeXeXeXeXeXeXeXeXeXeXeXeXeXeXeXeXeXeXeXeXeXeXeX8 i 8.=.M.-.) W.}.e.I ~ =.M.M.=.I eXeXeXeXeXeXeXeXeXeXeXeXeXeXeXeXeXeXeXeXeXeXeXeXeXeXeXeXeXeXeXeXeX",
"eXeXeXeXeXeXeXeXeXeXeXeXeXeXeXeXeXeXeXeXeXeXeXeXeXeXeXeXeXeX8 i i 4.=.M./ h.n.M.M.M.^ =.M.M.*.eXeXeXeXeXeXeXeXeXeXeXeXeXeXeXeXeXeXeXeXeXeXeXeXeXeXeXeXeXeXeXeXeX",
"eXeXeXeXeXeXeXeXeXeXeXeXeXeXeXeXeXeXeXeXeXeXeXeXeXeXeXeXeXeX8 i i u R =.*.X.N.M.M.=.&./ m.M.M.$.eXeXeXeXeXeXeXeXeXeXeXeXeXeXeXeXeXeXeXeXeXeXeXeXeXeXeXeXeXeXeXeX",
"eXeXeXeXeXeXeXeXeXeXeXeXeXeXeXeXeXeXeXeXeXeXeXeXeXeXeXeXeXeX8 i i i u ! *.) =.M.M.=.J V &.M.M.M.X.eXeXeXeXeXeXeXeXeXeXeXeXeXeXeXeXeXeXeXeXeXeXeXeXeXeXeXeXeXeXeX",
"eXeXeXeXeXeXeXeXeXeXeXeXeXeXeXeXeXeXeXeXeXeXeXeXeXeXeXeXeXeX8 i i i i u ) ~ =.M.M.m.&.=.M.M.M.M.M.&.eXeXeXeXeXeXeXeXeXeXeXeXeXeXeXeXeXeXeXeXeXeXeXeXeXeXeXeXeXeX",
"eXeXeXeXeXeXeXeXeXeXeXeXeXeXeXeXeXeXeXeXeXeXeXeXeXeXeXeXeXeX- i i i i i 6.9.^ M.M.-.$.M.M.M.M.M.M.m.X.eXeXeXeXeXeXeXeXeXeXeXeXeXeXeXeXeXeXeXeXeXeXeXeXeXeXeXeXeX",
"eXeXeXeXeXeXeXeXeXeXeXeXeXeXeXeXeXeXeXeXeXeXeXeXeXeXeXeXeXeX% i i i i i i u k [ M.=.~ m.M.M.M.M.M.M.m.eXeXeXeXeXeXeXeXeXeXeXeXeXeXeXeXeXeXeXeXeXeXeXeXeXeXeXeXeX",
"eXeXeXeXeXeXeXeXeXeXeXeXeXeXeXeXeXeXeXeXeXeXeXeXeXeXeXeXeXeX% i i i i i r eXeXeXQ H T b.b.n.m.M.M.M.M.*.eXeXeXeXeXeXeXeXeXeXeXeXeXeXeXeXeXeXeXeXeXeXeXeXeXeXeXeX",
"eXeXeXeXeXeXeXeXeXeXeXeXeXeXeXeXeXeXeXeXeXeXeXeXeXeXeXeXeXeX% i i i i i 8 eXeXeXeXeX~ &.v.v.b.n.M.M.M.-.( eXeXeXeXeXeXeXeXeXeXeXeXeXeXeXeXeXeXeXeXeXeXeXeXeXeXeX",
"eXeXeXeXeXeXeXeXeXeXeXeXeXeXeXeXeXeXeXeXeXeXeXeXeXeXeXeXeXeX% i i i i i = eXeXeXeXeXeXeX_ v.v.v.b.n.M.M.$.eXeXeXeXeXeXeXeXeXeXeXeXeXeXeXeXeXeXeXeXeXeXeXeXeXeXeX",
"eXeXeXeXeXeXeXeXeXeXeXeXeXeXeXeXeXeXeXeXeXeXeXeXF 5.0.K J g = i i i i e eXeXeXeXeXeXeXeXeX_ b.v.v.v.m.M.&.eXeXeXeXeXeXeXeXeXeXeXeXeXeXeXeXeXeXeXeXeXeXeXeXeXeXeX",
"eXeXeXeXeXeXeXeXeXeXeXeXeXeXeXeXeXeXeXeXeXeXD L I 8.u...V > e i i i i 8 eXeXeXeXeXeXeXeXeXh / b.v.v.n.=.L eXeXeXeXeXeXeXeXeXeXeXeXeXeXeXeXeXeXeXeXeXeXeXeXeXeXeX",
"eXeXeXeXeXeXeXeXeXeXeXeXeXeXeXeXeXeXeXeXeXj I ~ I 8.E.c : 9 i i i i i - eXeXeXeXeXeXeXeXeX~ ! _ v.&.o.&.eXeXeXeXeXeXeXeXeXeXeXeXeXeXeXeXeXeXeXeXeXeXeXeXeXeXeXeX",
"eXeXeXeXeXeXeXeXeXeXeXeXeXeXeXeXeXeXeXeXh H ~ ~ I 5.E.c ,.i i i i i i % eXeXeXeXeXeXeXeXeX*.=.( v.&.) Q eXeXeXeXeXeXeXeXeXeXeXeXeXeXeXeXeXeXeXeXeXeXeXeXeXeXeXeX",
"eXeXeXeXeXeXeXeXeXeXeXeXeXeXeXeXS D D S G H H H H H E.7.<.i i 2 % & & eXeXeXeXeXeXeXeXeXI n.N.m.&.v.) k eXeXeXeXeXeXeXeXeXeXeXeXeXeXeXeXeXeXeXeXeXeXeXeXeXeXeXeX",
"eXeXeXeXeXeXeXeXeXeXeXeXF S + + B ~ L F Z u u u u u a E.<.7 6 $ eXeXeXeXeXeXeXeXeXeXeXeXK O.$.$.X.v._ eXeXeXeXeXeXeXeXeXeXeXeXeXeXeXeXeXeXeXeXeXeXeXeXeXeXeXeXeX",
"eXeXeXeXeXeXeXeXeXL ~ ~ W H n M n G A 2.6.i i r r r 2 1 2 eXeXeXeXeXeXeXeXeXeXeXeXeXeXeXa.x.x.l.l.c.l.eXeXeXeXeXeXeXeXeXeXeXeXeXeXeXeXeXeXeXeXeXeXeXeXeXeXeXeXeX",
"eXeXeXeXeXeXeXeXD ~ ~ J @ O v { M C i r 6 6 5 $     eXeXeXeXeXeXeXeXeXeXeXeXeXeXeXeXeXeXW._.^.p.p.p.8.eXeXeXeXeXeXeXeXeXeXeXeXeXeXeXeXeXeXeXeXeXeXeXeXeXeXeXeXeX",
"eXeXeXeXeXeXeXeXeXL ~ > 0 2.>.B { C * % eXeXeXeXeXeXeXeXeXeXeXeXeXeXeXeXeXeXeXeXeXeXeXeXq./.].f.f.f.d.eXeXeXeXeXeXeXeXeXeXeXeXeXeXeXeXeXeXeXeXeXeXeXeXeXeXeXeXeX",
"eXeXeXeXeXeXeXeXeXF L ; i i 6 7 v eXeXeXeXeXeXeXeXeXeXeXeXeXeXeXeXeXeXeXeXeXeXeXeXeXeXeX=.:.:.-.-.*.X.eXeXeXeXeXeXeXeXeXeXeXeXeXeXeXeXeXeXeXeXeXeXeXeXeXeXeXeXeX",
"eXeXeXeXeXeXeXeXeXeXL > - - 8 q eXeXeXeXeXeXeXeXeXeXeXeXeXeXeXeXeXeXeXeXeXeXeXeXeXeXeXeX*.M.M.M.M.&.v.eXeXeXeXeXeXeXeXeXeXeXeXeXeXeXeXeXeXeXeXeXeXeXeXeXeXeXeXeX",
"eXeXeXeXeXeXeXeXeXeXF Z 8 w u * eXeXeXeXeXeXeXeXeXeXeXeXeXeXeXeXeXeXeXeXeXeXeXeXeXeXeXeX^ n.M.n.o.o.v.eXeXeXeXeXeXeXeXeXeXeXeXeXeXeXeXeXeXeXeXeXeXeXeXeXeXeXeXeX",
"eXeXeXeXeXeXeXeXeXeXS Y u i w eXeXeXeXeXeXeXeXeXeXeXeXeXeXeXeXeXeXeXeXeXeXeXeXeXeXeXeXeXeXo.b.o.o.b.X.eXeXeXeXeXeXeXeXeXeXeXeXeXeXeXeXeXeXeXeXeXeXeXeXeXeXeXeXeX",
"eXeXeXeXeXeXeXeXeXeXJ L 2.i 6 eXeXeXeXeXeXeXeXeXeXeXeXeXeXeXeXeXeXeXeXeXeXeXeXeXeXeXeXeXeX^ v.v.v.n.&.eXeXeXeXeXeXeXeXeXeXeXeXeXeXeXeXeXeXeXeXeXeXeXeXeXeXeXeXeX",
"eXeXeXeXeXeXeXeXeXF ~ I 3.8 eXeXeXeXeXeXeXeXeXeXeXeXeXeXeXeXeXeXeXeXeXeXeXeXeXeXeXeXeXeXeXF v.v.b.m.&.eXeXeXeXeXeXeXeXeXeXeXeXeXeXeXeXeXeXeXeXeXeXeXeXeXeXeXeXeX",
"eXeXeXeXeXeXeXeXeXJ ~ ~ Y = eXeXeXeXeXeXeXeXeXeXeXeXeXeXeXeXeXeXeXeXeXeXeXeXeXeXeXeXeXeXeXI &._ m.=.eXeXeXeXeXeXeXeXeXeXeXeXeXeXeXeXeXeXeXeXeXeXeXeXeXeXeXeXeXeX",
"eXeXeXeXeXeXeXeXeXeXH ~ Y ; eXeXeXeXeXeXeXeXeXeXeXeXeXeXeXeXeXeXeXeXeXeXeXeXeXeXeXeXeXeXeXJ -.M.M.=.eXeXeXeXeXeXeXeXeXeXeXeXeXeXeXeXeXeXeXeXeXeXeXeXeXeXeXeXeXeX",
"eXeXeXeXeXeXeXeXeXeXh J ~ S S eXeXeXeXeXeXeXeXeXeXeXeXeXeXeXeXeXeXeXeXeXeXeXeXeXeXeXeXeXeXV m.M.M.=.eXeXeXeXeXeXeXeXeXeXeXeXeXeXeXeXeXeXeXeXeXeXeXeXeXeXeXeXeXeX",
"eXeXeXeXeXeXeXeXeXeXeXh J ~ ~ H eXeXeXeXeXeXeXeXeXeXeXeXeXeXeXeXeXeXeXeXeXeXeXeXeXeXeXeXeXV m.M.M.=.eXeXeXeXeXeXeXeXeXeXeXeXeXeXeXeXeXeXeXeXeXeXeXeXeXeXeXeXeXeX",
"eXeXeXeXeXeXeXeXeXeXeXeXh l l l eXeXeXeXeXeXeXeXeXeXeXeXeXeXeXeXeXeXeXeXeXeXeXeXeXeXeXeXeXV m.M.N.=.eXeXeXeXeXeXeXeXeXeXeXeXeXeXeXeXeXeXeXeXeXeXeXeXeXeXeXeXeXeX",
"eXeXeXeXeXeXeXeXeXeXeXeXeXeXeXeXeXeXeXeXeXeXeXeXeXeXeXeXeXeXeXeXeXeXeXeXeXeXeXeXeXeXeXeXeXB %.&.$.X.eXeXeXeXeXeXeXeXeXeXeXeXeXeXeXeXeXeXeXeXeXeXeXeXeXeXeXeXeXeX",
"eXeXeXeXeXeXeXeXeXeXeXeXeXeXeXeXeXeXeXeXeXeXeXeXeXeXeXeXeXeXeXeXeXeXeXeXeXeXeXeXeXeXeXeXeXv | S. .N eXeXeXeXeXeXeXeXeXeXeXeXeXeXeXeXeXeXeXeXeXeXeXeXeXeXeXeXeXeX",
"eXeXeXeXeXeXeXeXeXeXeXeXeXeXeXeXeXeXeXeXeXeXeXeXeXeXeXeXeXeXeXeXeXeXeXeXeXeXeXeXeXeXeXeXeX` | S.| D.^ eXeXeXeXeXeXeXeXeXeXeXeXeXeXeXeXeXeXeXeXeXeXeXeXeXeXeXeXeX",
"eXeXeXeXeXeXeXeXeXeXeXeXeXeXeXeXeXeXeXeXeXeXeXeXeXeXeXeXeXeXeXeXeXeXeXeXeXeXeXeXeXeXeXeXeX$.@.J.J.%.m.X.eXeXeXeXeXeXeXeXeXeXeXeXeXeXeXeXeXeXeXeXeXeXeXeXeXeXeXeX",
"eXeXeXeXeXeXeXeXeXeXeXeXeXeXeXeXeXeXeXeXeXeXeXeXeXeXeXeXeXeXeXeXeXeXeXeXeXeXeXeXeXeXeXeXeX=.*.m.=.=.M.-.( eXeXeXeXeXeXeXeXeXeXeXeXeXeXeXeXeXeXeXeXeXeXeXeXeXeXeX",
"eXeXeXeXeXeXeXeXeXeXeXeXeXeXeXeXeXeXeXeXeXeXeXeXeXeXeXeXeXeXeXeXeXeXeXeXeXeXeXeXeXeXeXeX( -.$.m.$.*.M.M.=.eXeXeXeXeXeXeXeXeXeXeXeXeXeXeXeXeXeXeXeXeXeXeXeXeXeXeX",
"eXeXeXeXeXeXeXeXeXeXeXeXeXeXeXeXeXeXeXeXeXeXeXeXeXeXeXeXeXeXeXeXeXeXeXeXeXeXeXeXeXeXeXeX*.M.=.$.$.=.M.M.M.m.eXeXeXeXeXeXeXeXeXeXeXeXeXeXeXeXeXeXeXeXeXeXeXeXeXeX",
"eXeXeXeXeXeXeXeXeXeXeXeXeXeXeXeXeXeXeXeXeXeXeXeXeXeXeXeXeXeXeXeXeXeXeXeXeXeXeXeXeXeXeXeX*.M.M.X.X.M.M.M.M.M.M.&.eXeXeXeXeXeXeXeXeXeXeXeXeXeXeXeXeXeXeXeXeXeXeXeX",
"eXeXeXeXeXeXeXeXeXeXeXeXeXeXeXeXeXeXeXeXeXeXeXeXeXeXeXeXeXeXeXeXeXeXeXeXeXeXeXeXeXeXeXeX( =.=.$.&.=.M.M.M.M.M.-.*.( eXeXeXeXeXeXeXeXeXeXeXeXeXeXeXeXeXeXeXeXeXeX",
"eXeXeXeXeXeXeXeXeXeXeXeXeXeXeXeXeXeXeXeXeXeXeXeXeXeXeXeXeXeXeXeXeXeXeXeXeXeXeXeXeXeXeXeXeXf f f f V &.-.M.M.M.M.M.M.( eXeXeXeXeXeXeXeXeXeXeXeXeXeXeXeXeXeXeXeXeX",
"eXeXeXeXeXeXeXeXeXeXeXeXeXeXeXeXeXeXeXeXeXeXeXeXeXeXeXeXeXeXeXeXeXeXeXeXeXeXeXeXeXeXeXeXeXeXeXeXeXeXeXH H H H H H H V eXeXeXeXeXeXeXeXeXeXeXeXeXeXeXeXeXeXeXeXeX"
};
