/* XPM */
static char *result[] = {
/* columns rows colors chars-per-pixel */
"80 80 219 2 ",
"   c #570F1A",
".  c #691A17",
"X  c #6F241D",
"o  c #78281D",
"O  c #78311F",
"+  c #4A0325",
"@  c #4D0E22",
"#  c #4E1126",
"$  c #54162A",
"%  c #59182A",
"&  c #541634",
"*  c #561B33",
"=  c #591D34",
"-  c #5D223B",
";  c #752728",
":  c #712E2D",
">  c #622433",
",  c #67263F",
"<  c #783234",
"1  c #5E2641",
"2  c #5B2A48",
"3  c #563154",
"4  c #612944",
"5  c #642E49",
"6  c #66314D",
"7  c #753244",
"8  c #6C2B56",
"9  c #6A3553",
"0  c #6C3857",
"q  c #6A355A",
"w  c #6E3B5B",
"e  c #773D52",
"r  c #703D5E",
"t  c #713F60",
"y  c #74464D",
"u  c #7D4255",
"i  c #76425C",
"p  c #7C435A",
"a  c #6B436A",
"s  c #734263",
"d  c #6B4873",
"f  c #784A77",
"g  c #6C5071",
"h  c #775579",
"j  c #863D1F",
"k  c #912A2E",
"l  c #853224",
"z  c #8A3523",
"x  c #843229",
"c  c #8E3A29",
"v  c #953C25",
"b  c #973E29",
"n  c #873738",
"m  c #B53F27",
"M  c #CD3731",
"N  c #9F4D15",
"B  c #AD5B0F",
"V  c #AC5815",
"C  c #B9630E",
"Z  c #BE710D",
"A  c #BC6516",
"S  c #9A4029",
"D  c #9C432C",
"F  c #974338",
"G  c #A34426",
"H  c #AC4927",
"J  c #A3462B",
"K  c #A54B2E",
"L  c #AC4B2D",
"P  c #B24E2D",
"I  c #AD502C",
"U  c #B5512E",
"Y  c #A84434",
"T  c #A44A32",
"R  c #AA4E32",
"E  c #B14F30",
"W  c #AE5134",
"Q  c #A5533E",
"!  c #B55332",
"~  c #B85532",
"^  c #B55835",
"/  c #BC5B34",
"(  c #B35439",
")  c #B85738",
"_  c #BC5B3B",
"`  c #B86729",
"'  c #B47C29",
"]  c #A46836",
"[  c #D04E1E",
"{  c #CD7412",
"}  c #CA7614",
"|  c #C15E35",
" . c #C8553F",
".. c #C25E3C",
"X. c #C66A26",
"o. c #CA7627",
"O. c #C46136",
"+. c #CC6637",
"@. c #C5633B",
"#. c #C9663B",
"$. c #CD6A3D",
"%. c #D16E3E",
"&. c #D27336",
"*. c #D5703F",
"=. c #ED7A3A",
"-. c #893644",
";. c #993A4C",
":. c #883F58",
">. c #AC3A4D",
",. c #8E4443",
"<. c #894748",
"1. c #984B45",
"2. c #9C5546",
"3. c #844353",
"4. c #9A5E5D",
"5. c #A24D40",
"6. c #A65646",
"7. c #B45A48",
"8. c #B35450",
"9. c #91654A",
"0. c #AC664D",
"q. c #B96547",
"w. c #AA675B",
"e. c #B46957",
"r. c #A97855",
"t. c #9A5D6A",
"y. c #A75666",
"u. c #B75F62",
"i. c #98686C",
"p. c #8A6779",
"a. c #AB6E71",
"s. c #B96977",
"d. c #D55A4E",
"f. c #CF5C50",
"g. c #C56342",
"h. c #C96642",
"j. c #CD6A42",
"k. c #C86B4A",
"l. c #D16E41",
"z. c #C97246",
"x. c #D67342",
"c. c #D87543",
"v. c #D67649",
"b. c #D67A4E",
"n. c #C86F54",
"m. c #D47E50",
"M. c #D97D54",
"N. c #CA706F",
"B. c #DA970C",
"V. c #D78A13",
"C. c #D59615",
"Z. c #E49412",
"A. c #EABC13",
"S. c #DE8526",
"D. c #E0872A",
"F. c #BB8055",
"G. c #B8B258",
"H. c #9C8779",
"J. c #C9824E",
"K. c #D98359",
"L. c #C88F6C",
"P. c #DB8561",
"I. c #CF9578",
"U. c #E69473",
"Y. c #D6A67D",
"T. c #71508E",
"R. c #685490",
"E. c #776C91",
"W. c #777AAA",
"Q. c #89728C",
"!. c #937488",
"~. c #9E7B94",
"^. c #A07B8E",
"/. c #927EA1",
"(. c #798AB3",
"). c #6383CD",
"_. c #988D93",
"`. c #A0A085",
"'. c #BDA48A",
"]. c #B4B393",
"[. c #B8B89B",
"{. c #9F8AA9",
"}. c #9494BA",
"|. c #A39DA4",
" X c #B796A3",
".X c #A893B4",
"XX c #B49DB2",
"oX c #B1AEB1",
"OX c #D3AA84",
"+X c #C4B495",
"@X c #D4BD99",
"#X c #C4A7B1",
"$X c #9FCB92",
"%X c #A5D99A",
"&X c #D5CAA7",
"*X c #CACAB6",
"=X c #D5D6B5",
"-X c #D6D9B8",
";X c #ABABCA",
":X c #B8B8C8",
">X c #A2A2D1",
",X c #B9B9D4",
"<X c #B5B5DC",
"1X c #BFC2D2",
"2X c #CDCCC5",
"3X c #DBDBC6",
"4X c #CDCDD3",
"5X c #C1C2DD",
"6X c #D0D0D6",
"7X c #E4E4C2",
"8X c #E7E7D8",
"9X c #C3C3E4",
"0X c #C8CAE8",
"qX c #CFCFF1",
"wX c #EFEFE0",
"eX c #F3F3EC",
"rX c #F6F6F5",
"tX c #F8F8F8",
"yX c None",
/* pixels */
"yXyXyXyXyXyXyXyXyXyXyXyXyXyXyXyXyXyXyXyXyXyXyXyXyXyXyXyXyXyXyXyXyXyXyXyXyXyXyXyXyXyXyXyXyXyXyXyXyXyXyXyXyXyXyXyXyXyXyXyXyXyXyXyXyXyXyXyXyXyXyXyXyXyXyXyXyXyXyXyX",
"yXyXyXyXyXyXyXyXyXyXyXyXyXyXyXyXyXyXyXyXyXyXyXyXyXyXyXyXyXyXyXyXyXyXyXyXyXyXyXyXyXyXyXyXyXyXyXyXyXyXyXyXyXyXyXyXyXyXyXyXyXyXyXyXyXyXyXyXyXyXyXyXyXyXyXyXyXyXyXyX",
"yXyXyXyXyXyXyXyXyXyXyXyXyXyXyXyXyXyXyXyXyXyXyXyXyXyXyXyXyXyXyXyXyXyXyXyXyXyXyXyXyXyXyXyXyXyXyXyXyXyXyXyXyXyXyXyXyXyXyXyXyXyXyXyXyXyXyXyXyXyXyXyXyXyXyXyXyXyXyXyX",
"yXyXyXyXyXyXyXyXyXyXyXyXyXyXyXyXyXyXyXyXyXyXyXyXyXyXyXyXyXyXyXyXyXyXyXyXyXyXyXyXyXyXyXyXyXyXyXyXyXyXyXyXyXyXyXyXyXyXyXyXyXyXyXyXyXyXyXyXyXyXyXyXyXyXyXyXyXyXyXyX",
"yXyXyXyXyXyXyXyXyXyXyXyXyXyXyXyXyXyXyXyXyXyXyXyXyXyXyXyXyXyXyXyXyXyXyXyXyXyXyXyXyXyXyXyXyXyXyXyXyXyXyXyXyXyXyXyXyXyXyXyXyXyXyXyXyXyXyXyXyXyXyXyXyXyXyXyXyXyXyXyX",
"yXyXyXyXyXyXyXyXyXyXyXyXyXyXyXyXyXyXyXyXyXyXyXyXyXyXyXyXyXyXyXyXyXyXyXyXyXyXyXyXyXyXyXyXyXyXyXyXyXyXyXyXyXyXyXyXyXyXyXyXyXyXyXyXyXyXyXyXyXyXyXyXyXyXyXyXyXyXyXyX",
"yXyXyXyXyXyXyXyXyXyXyXyXyXyXyXyXyXyXyXyXyXyXyXyXyXyXyXyXyXyXyXyXyXyXyXyXyXyXyXyXyXyXyXyXyXyXyXyXyXyXyXyXyXyXyXyXyXyXyXyXyXyXyXyXyXyXyXyXyXyXyXyXyXyXyXyXyXyXyXyX",
"yXyXyXyXyXyXyXyXyXyXyXyXyXyXyXyXyXyXyXyXyXyXyXyXyXyXyXyXyXyXyXyXyXyXyXyXyXyXyXyXyXyXyXyXyXyXyXyXyXyXyXyXyXyXyXyXyXyXyXyXyXyXyXyXyXyXyXyXyXyXyXyXyXyXyXyXyXyXyXyX",
"yXyXyXyXyXyXyXyXyXyXyXyXyXyXyXyXyXyXyXyXyXyXyXyXyXyXyXyXyXyXyXyXyXyXyXyXyXyXyXyXyXyXyXyXyXyXyXyXyXyXyXyXyXyXyXyXyXyXyXyXyXyXyXyXyXyXyXyXyXyXyXyXyXyXyXyXyXyXyXyX",
"yXyXyXyXyXyXyXyXyXyXyXyXyXyXyXyXyXyXyXyXyXyXyXyXyXyXyXyXyXyXyXyXyXyXyXyXyXyXyXyXyXyXyXyXyXyXyXyXyXyXyXyXyXyXyXyXyXyXyXyXyXyXyXyXyXyXyXyXyXyXyXyXyXyXyXyXyXyXyXyX",
"yXyXyXyXyXyXyXyXyXyXyXyXyXyXyXyXyXyXyXyXyXyXyXyXyXyXyXyXyXyXyXyXyXyXyXyXyXyXyXyXyXyXyXyXyXyXyXyXyXyXyXyXyXyXyXyXyXyXyXyXyXyXyXyXyXyXyXyXyXyXyXyXyXyXyXyXyXyXyXyX",
"yXyXyXyXyXyXyXyXyXyXyXyXyXyXyXyXyXyXyXyXyXyXyXyXyXyXyXyXyXyXyXyXyXyXyXyXyXyXyXyXyXyXyXyXyXyXyXyXyXyXyXyXyXyXyXyXyXyXyXyXyXyXyXyXyXyXyXyXyXyXyXyXyXyXyXyXyXyXyXyX",
"yXyXyXyXyXyXyXyXyXyXyXyXyXyXyXyXyXyXyXyXyXyXyXyXyXyXyXyXyXyXyXyXyXyXyXyXyXyXyXyXyXyXyXyXyXyXyX8XeXyXyXyXyXyXyXyXyXyXyXyXyXyXyXyXyXyXyXyXyXyXyXyXyXyXyXyXyXyXyXyX",
"yXyXyXyXyXyXyXyXyXyXyXyXyXyXyXyXyXyXyXyXyXyXyXyXyXyXyXyXyXyXyXyXyXyXyXyXyXyXyXyXyXyXyXyXyX}.4XeXrXrXtX8X[.yXyXyXyXyXyXyXyXyXyXyXyXyXyXyXyXyXyXyXyXyXyXyXyXyXyXyX",
"yXyXyXyXyXyXyXyXyXyXyXyXyXyXyXyXyXyXyXyXyXyXyXyXyXyXyXyXyXyXyXyXyXyXyXyXyXyXyXyXyXyXyXyX}.>X,X3XwXrXeX8X=X].yXyXyXyXyXyXyXyXyXyXyXyXyXyXyXyXyXyXyXyXyXyXyXyXyXyX",
"yXyXyXyXyXyXyXyXyXyXyXyXyXyXyXyXyXyXyXyXyXyXyXyXyXyXyXyXyXyXyXyXyXyXyXyXyXyXyXyXyXyXyXyX>X9X9X,X2X3X7X7X7X*XyXyXyXyXyXyXyXyXyXyXyXyXyXyXyXyXyXyXyXyXyXyXyXyXyXyX",
"yXyXyXyXyXyXyXyXyXyXyXyXyXyXyXyXyXyXyXyXyXyXyXyXyXyXyXyXyXyXyXyXyXyXyXyXyXyXyXyXyXyXyXyX<XqX;X9X,X[.6X6X4X9XoXyXyXyXyXyXyXyXyXyXyXyXyXyXyXyXyXyXyXyXyXyXyXyXyXyX",
"yXyXyXyXyXyXyXyXyXyXyXyXyXyXyXyXyXyXyXyXyXyXyXyXyXyXyXyXyXyXyXyXyXyXyXyXyXyXyXyXyXyXyXyX}..Xp.<X#Xq.~.<X:X,XoXyXyXyXyXyXyXyXyXyXyXyXyXyXyXyXyXyXyXyXyXyXyXyXyXyX",
"yXyXyXyXyXyXyXyXyXyXyXyXyXyXyXyXyXyXyXyXyXyXyXyXyXyXyXyXyXyXyXyXyXyXyXyXyXyXH ! o.%XQ.K r.,.T !. XD : _.|.;X}.yXyXyXyXyXyXyXyXyXyXyXyXyXyXyXyXyXyXyXyXyXyXyXyXyX",
"yXyXyXyXyXyXyXyXyXyXyXyXyXyXyXyXyXyXyXyXyXyXyXyXyXyXyXyXyXyXyXyXyXyXyX#.j.$.$.$.A.$X.X=.Z.^ X 6.a.6.f F <.E.yXyXyXyXyXyXyXyXyXyXyXyXyXyXyXyXyXyXyXyXyXyXyXyXyXyX",
"yXyXyXyXyXyXyXyXyXyXyXyXyXyXyXyXyXyXyXyXyXyXyXyXyXyXyXyXyXyXyXyXyXyX#.x.O.#.j.l.A.G.~.M { X.c ) e.q.x._ . yXyXyXyXyXyXyXyXyXyXyXyXyXyXyXyXyXyXyXyXyXyXyXyXyXyXyX",
"yXyXyXyXyXyXyXyXyXyXyXyXyXyXyXyXyXyXyXyXyXyXyXyXyXyXyXyXyXyXyXyXyX/ x.#.O.$.v.b.&.` E.>.[ C o J h...W l yXyXyXyXyXyXyXyXyXyXyXyXyXyXyXyXyXyXyXyXyXyXyXyXyXyXyXyX",
"yXyXyXyXyXyXyXyXyXyXyXyXyXyXyXyXyXyXyXyXyXyXyXyXyXyXyXyXyXyXyXyXyXO.x./ x.v.U.U.M./ 9.R.k . yX. c o yXyXyXyXyXyXyXyXyXyXyXyXyXyXyXyXyXyXyXyXyXyXyXyXyXyXyXyXyXyX",
"yXyXyXyXyXyXyXyXyXyXyXyXyXyXyXyXyXyXyXyXyXyXyXyXyXyXyXyXyXyXyXyX'.m.*./ x.v.K.P.b.#.V ' O c yXyXyXyXyXyXyXyXyXyXyXyXyXyXyXyXyXyXyXyXyXyXyXyXyXyXyXyXyXyXyXyXyXyX",
"yXyXyXyXyXyXyXyXyXyXyXyXyXyXyXyXyXyXyXyXyXyXyXyXyXyXyXyXyXyXyX+X=X@XK./ x.x.x.x.x.#.] ' < < yXyXyXyXyXyXyXyXyXyXyXyXyXyXyXyXyXyXyXyXyXyXyXyXyXyXyXyXyXyXyXyXyXyX",
"yXyXyXyXyXyXyXyXyXyXyXyXyXyXyXyXyXyXyXyXyXyXyXyXyXyXyXyXyXyXj.OX=X-X&XL.#.x.x.x.x.q.+XH., yXyXyXyXyXyXyXyXyXyXyXyXyXyXyXyXyXyXyXyXyXyXyXyXyXyXyXyXyXyXyXyXyXyXyX",
"yXyXyXyXyXyXyXyXyXyXyXyXyXyXyXyXyXyXyXyXyXyXyXyXyXyXyXyXyXyXx.v.I.&X=XF.S.D.$.x.q.'.=X].y yXyXyXyXyXyXyXyXyXyXyXyXyXyXyXyXyXyXyXyXyXyXyXyXyXyXyXyXyXyXyXyXyXyXyX",
"yXyXyXyXyXyXyXyXyXyXyXyXyXyXyXyXyXyXyXyXyXyXyXyXyXyXyXyXyXv.j.x.*.K.L.N.I.J.C.X.w.2X=X[.[.yXyXyXyXo   ^ T ^ / W yXyXyXyXyXyXyXyXyXyXyXyXyXyXyXyXyXyXyXyXyXyXyXyX",
"yXyXyXyXyXyXyXyXyXyXyXyXyXyXyXyXyXyXyXyXyXyXyXyXyXyXyXyX^ OX&XY.b.h.8.k.n.s.s.X. X0X*X[.`.yXyXyX^ ^ R x.c.c.c._ yXyXyXyXyXyXyXyXyXyXyXyXyXyXyXyXyXyXyXyXyXyXyXyX",
"yXyXyXyXyXyXyXyXyXyXyXyXyXyXyXyXyXyXyXyXyXyXyXyXyXyXyXyX$.K.I.@XI.F 6.x.x.x.q.y.XX0X5X`.yXyXyXK l.x.x.x.x.x.^ S yXyXyXyXyXyXyXyXyXyXyXyXyXyXyXyXyXyXyXyXyXyXyXyX",
"yXyXyXyXyXyXyXyXyXyXyXyXyXyXyXyXyXyXyXyXyXyXyXyXyXyXyXl.x.x.*.2./.i 7.c.x.x.%.e.oX1X|.y yXyX. @.x.x.x.x.#.! yXyXyXyXyXyXyXyXyXyXyXyXyXyXyXyXyXyXyXyXyXyXyXyXyXyX",
"yXyXyXyXyXyXyXyXyXyXyXyXyXyXyXyXyXyXyXyXyXyXyXyXyXyXj.x.x.x.x.#.^.{.z.l.j.@.@.L 0.r.t.6.I 1.g k.x.x.l./ J yXyXyXyXyXyXyXyXyXyXyXyXyXyXyXyXyXyXyXyXyXyXyXyXyXyXyX",
"yXyXyXyXyXyXyXyXyXyXyXyXyXyXyXyXyXyXyXyXyXyXyXyXyXj.x.x.v.x.x._ a.0.*.x.l.$.$.%.%.+.y.z.V.n.Q.q.x.#.W yXyXyXyXyXyXyXyXyXyXyXyXyXyXyXyXyXyXyXyXyXyXyXyXyXyXyXyXyX",
"yXyXyXyXyXyXyXyXyXyXyXyXyXyXyXyXyXyXyXyXyXyXyXyXyXl.x.x.b.v.x.$.W $.x.x.x.x.x.x.x.x.g.s.V. .p.1.^ S yXyXyXyXyXyXyXyXyXyXyXyXyXyXyXyXyXyXyXyXyXyXyXyXyXyXyXyXyXyX",
"yXyXyXyXyXyXyXyXyXyXyXyXyXyXyXyXyXyXyXyXyXyXyXyX@.x.x.x.K.M.x.#./ x.x.x.x.x.x.c.c.x._ y.V Y ,.yXyXyXyXyXyXyXyXyXyXyXyXyXyXyXyXyXyXyXyXyXyXyXyXyXyXyXyXyXyXyXyXyX",
"yXyXyXyXyXyXyXyXyXyXyXyXyXyXyXyXyXyXyXyXyXyXyXyXj.x.x.x.M.P.v.#.^ x.x.x.x.x.@.^ ^ _ n ; :.8.) yXyXyXyXyXyXyXyXyXyXyXyXyXyXyXyXyXyXyXyXyXyXyXyXyXyXyXyXyXyXyXyXyX",
"yXyXyXyXyXyXyXyXyXyXyXyXyXyXyXyXyXyXyXyXyXyXyXyXj.x.x.x.x.K.K.x.^ K K D F Q 3.e e p w 4 = F ( y.Q yXyXyXyXyXyXyXyXyXyXyXyXyXyXyXyXyXyXyXyXyXyXyXyXyXyXyXyXyXyXyX",
"yXyXyXyXyXyXyXyXyXyXyXyXyXyXyXyXyXyXyXyXyXyXyXyX@.x.x.x.x.x.K.M.x.%.%.^ u s s s s s s s w 4 - 7 Z P yXyXyXyXyXyXyXyXyXyXyXyXyXyXyXyXyXyXyXyXyXyXyXyXyXyXyXyXyXyX",
"yXyXyXyXyXyXyXyXyXyXyXyXyXyXyXyXyXyXyXyXyXyXyXyXyX#.x.x.x.x.v.M.v.x.x.*.Q i s s s s s s s s s 5 X k h g yXyXyXyXyXyXyXyXyXyXyXyXyXyXyXyXyXyXyXyXyXyXyXyXyXyXyXyX",
"yXyXyXyXyXyXyXyXyXyXyXyXyXyXyXyXyXyXyXyXyXyXyXyXyXU %.x.x.x.x.v.b.x.x.x.%.1.s s s s s s s s s s D l 3 F ! P P P yXyXyXyXyXyXyXyXyXyXyXyXyXyXyXyXyXyXyXyXyXyXyXyX",
"yXyXyXyXyXyXyXyXyXyXyXyXyXyXyXyXyXyXyXyXyXyXyXyXyXyX~ #.x.x.x.x.v.b.x.x.x.#.<.s s s s s s s s 3.L ! b l ( g.g.g.L J yXyXyXyXyXyXyXyXyXyXyXyXyXyXyXyXyXyXyXyXyXyX",
"yXyXyXyXyXyXyXyXyXyXyXyXyXyXyXyXyXyXyXyXyXyXyXyXyXyXyX~ x.x.x.x.x.b.v.x.x.x.@.p s s s s s s s F U ! ! L ; T g.R R E L yXyXyXyXyXyXyXyXyXyXyXyXyXyXyXyXyXyXyXyXyX",
"yXyXyXyXyXyXyXyXyXyXyXyXyXyXyXyXyXyXyXyXyXyXyXyXyXyXyXyX#.x.x.x.x.x.x.x.x.x.x.1.s s s s s s i T ! ! ! ! ! z x ) W _ J yXyXyXyXyXyXyXyXyXyXyXyXyXyXyXyXyXyXyXyXyX",
"yXyXyXyXyXyXyXyXyXyXyXyXyXyXyXyXyXyXyXyXyXyXyXyXyXyXyXyX~ l.x.x.x.x.x.x.x.x.x.q.i s s s s s s ,.P ! ! ! ! E D ( @.! z yXyXyXyXyXyXyXyXyXyXyXyXyXyXyXyXyXyXyXyXyX",
"yXyXyXyXyXyXyXyXyXyXyXyXyXyXyXyXyXyXyXyXyXyXyXyXyXyXyXyXyX/ l.x.x.x.x.x.x.x.x.$.< = 5 t r r s u R ! ! ! ! ! L l D yXyXyXyXyXyXyXyXyXyXyXyXyXyXyXyXyXyXyXyXyXyXyX",
"yXyXyXyXyXyXyXyXyXyXyXyXyXyXyXyXyXyXyXyXyXyXyXyXyXyXyXyXyXyX_ j.x.x.x.x.x.x.x.x.I yXyX@ @ @ - w 3.L ! ! ! ! L yXyXyXyXyXyXyXyXyXyXyXyXyXyXyXyXyXyXyXyXyXyXyXyXyX",
"yXyXyXyXyXyXyXyXyXyXyXyXyXyXyXyXyXyXyXyXyXyXyXyXyXyXyXyXyXyXb _ j.x.x.x.x.x.x.x.%.yXyXyXyXyX* - 5 ,.H P ! ! G yXyXyXyXyXyXyXyXyXyXyXyXyXyXyXyXyXyXyXyXyXyXyXyXyX",
"yXyXyXyXyXyXyXyXyXyXyXyXyXyXyXyXyXyXyXyXyXyXyXyXyXyXyXyXyXyXyXL ..h.l.x.x.x.x.x.x.yXyXyXyX% w 5 * - u ,.L K yXyXyXyXyXyXyXyXyXyXyXyXyXyXyXyXyXyXyXyXyXyXyXyXyXyX",
"yXyXyXyXyXyXyXyXyXyXyXyXyXyXyXyXyXyXyXyXyXyXyXyXyXyXyXyXyXyXyXyXyX_ h.#.x.x.x.x.x.#.yXyXyXk :.s 1 0 s s 7 yXyXyXyXyXyXyXyXyXyXyXyXyXyXyXyXyXyXyXyXyXyXyXyXyXyXyX",
"yXyXyXyXyXyXyXyXyXyXyXyXyXyXyXyXyXyXyXyXyXyXyXyXyXyXyXyXyXyXyXyXyXyX.._ j.x.l.x.x.x.yXyX5 f >.;.w 2 s w # yXyXyXyXyXyXyXyXyXyXyXyXyXyXyXyXyXyXyXyXyXyXyXyXyXyXyX",
"yXyXyXyXyXyXyXyXyXyXyXyXyXyXyXyXyXyXyXyXyXyXyXyXyXyXyXyXyXyXyXyXyXyXb _ g.@./ x.x.x.#.% 0 d f >.;.;.;.-.  yXyXyXyXyXyXyXyXyXyXyXyXyXyXyXyXyXyXyXyXyXyXyXyXyXyXyX",
"yXyXyXyXyXyXyXyXyXyXyXyXyXyXyXyXyXyXyXyXyXyXyXyXyXyXyXyXyXyXyXyXyXyXo ~ g.../ x.x.c._ > s s d R.T.T.T.8 yXyXyXyXyXyXyXyXyXyXyXyXyXyXyXyXyXyXyXyXyXyXyXyXyXyXyXyX",
"yXyXyXyXyXyXyXyXyXyXyXyXyXyXyXyXyXyXyXyXyXyXyXyXyXyXyXyXyXyXyXyXyX/ @.#.g.g.@.x.x.x.! > s s s s d a 2 yXyXyXyXyXyXyXyXyXyXyXyXyXyXyXyXyXyXyXyXyXyXyXyXyXyXyXyXyX",
"yXyXyXyXyXyXyXyXyXyXyXyXyXyXyXyXyXyXyXyXyXyXyXyXyXyXyXyXyXyXyXyXm | x.x.h.h.x.x.x.^ yX# 0 s s s w 1 @ yXyXyXyXyXyXyXyXyXyXyXyXyXyXyXyXyXyXyXyXyXyXyXyXyXyXyXyXyX",
"yXyXyXyXyXyXyXyXyXyXyXyXyXyXyXyXyXyXyXyXyXyXyXyXyXyXyXyXyXyXyXi.y.f...%.j.h.x.$.^ yXyXyX1 s s 5 = = yXyXyXyXyXyXyXyXyXyXyXyXyXyXyXyXyXyXyXyXyXyXyXyXyXyXyXyXyXyX",
"yXyXyXyXyXyXyXyXyXyXyXyXyXyXyXyXyXyXyXyXyXyXyXyXyXyXyXyXyXyXn.!.).!.d...h.g.@.K yXyXyXyX* 6 - 4 w $ yXyXyXyXyXyXyXyXyXyXyXyXyXyXyXyXyXyXyXyXyXyXyXyXyXyXyXyXyXyX",
"yXyXyXyXyXyXyXyXyXyXyXyXyXyXyXyXyXyXyXyXyXyXyXyXyXyXyXyXyX#.x.l.e.(.a.d._ _ J yXyXyXyXyX9 w w s 4 yXyXyXyXyXyXyXyXyXyXyXyXyXyXyXyXyXyXyXyXyXyXyXyXyXyXyXyXyXyXyX",
"yXyXyXyXyXyXyXyXyXyXyXyXyXyXyXyXyXyXyXyXyXyXyXyXyXyXyXyXyX$.x.x.*.w.W.u.d.( yXyXyXyXyX5 s s s 6 yXyXyXyXyXyXyXyXyXyXyXyXyXyXyXyXyXyXyXyXyXyXyXyXyXyXyXyXyXyXyXyX",
"yXyXyXyXyXyXyXyXyXyXyXyXyXyXyXyXyXyXyXyXyXyXyXyXyXyXyXyX| x.x.x.x.%.i.W.7.yXyXyXyXyX+ 8 s s s - yXyXyXyXyXyXyXyXyXyXyXyXyXyXyXyXyXyXyXyXyXyXyXyXyXyXyXyXyXyXyXyX",
"yXyXyXyXyXyXyXyXyXyXyXyXyXyXyXyXyXyXyXyXyXyXyXyXyXyXyXyX#.x.x.x.x.x.@.4.c yXyXyXyXyXo n 8 8 0 @ yXyXyXyXyXyXyXyXyXyXyXyXyXyXyXyXyXyXyXyXyXyXyXyXyXyXyXyXyXyXyXyX",
"yXyXyXyXyXyXyXyXyXyXyXyXyXyXyXyXyXyXyXyXyXyXyXyXyXyXyX/ j.x.x.x.l.#.( yXyXyXyXyXyXH B C V A j yXyXyXyXyXyXyXyXyXyXyXyXyXyXyXyXyXyXyXyXyXyXyXyXyXyXyXyXyXyXyXyXyX",
"yXyXyXyXyXyXyXyXyXyXyXyXyXyXyXyXyXyXyXyXyXyXyXyXyXyXyX#.j.j.j.h.j._ yXyXyXyXyXyXyXJ z V B { n & yXyXyXyXyXyXyXyXyXyXyXyXyXyXyXyXyXyXyXyXyXyXyXyXyXyXyXyXyXyXyXyX",
"yXyXyXyXyXyXyXyXyXyXyXyXyXyXyXyXyXyXyXyXyXyXyXyXyXyX#.x.j.h.j.l.$.J yXyXyXyXyXyXP x 6 <.-.; r w $ yXyXyXyXyXyXyXyXyXyXyXyXyXyXyXyXyXyXyXyXyXyXyXyXyXyXyXyXyXyXyX",
"yXyXyXyXyXyXyXyXyXyXyXyXyXyXyXyXyXyXyXyXyXyXyXyXyX_ x.x.x.x.x.#.yXyXyXyXyXyXyXH ! ; w s q 1 s s 9 % yXyXyXyXyXyXyXyXyXyXyXyXyXyXyXyXyXyXyXyXyXyXyXyXyXyXyXyXyXyX",
"yXyXyXyXyXyXyXyXyXyXyXyXyXyXyXyXyXyXyXyXyXyXyXyXyXj.x.x.x.x.$.yXyXyXyXyXyXyXH ! ! D > > 9 ,.5.5.5.D G v yXyXyXyXyXyXyXyXyXyXyXyXyXyXyXyXyXyXyXyXyXyXyXyXyXyXyXyX",
"yXyXyXyXyXyXyXyXyXyXyXyXyXyXyXyXyXyXyXyXyXyXyXyX#.x.x.x.x.l._ yXyXyXyXyXyXyXG E ! W i r 5 F ~ ! ! ! ! J v S yXyXyXyXyXyXyXyXyXyXyXyXyXyXyXyXyXyXyXyXyXyXyXyXyXyX",
"yXyXyXyXyXyXyXyXyXyXyXyXyXyXyXyXyXyXyXyXyXyXyXA o.x.x.x.x.@.yXyXyXyXyXyXyXyXyXD b c * $ yXz J P ! ! ! L J D v b yXyXyXyXyXyXyXyXyXyXyXyXyXyXyXyXyXyXyXyXyXyXyXyX",
"yXyXyXyXyXyXyXyXyXyXyXyXyXyXyXyXyXyXyXyXyXyXA } C.} &.x.@.yXyXyXyXyXyXyXyXyXyXyXyXyXyXyXyXyXyXv J J J J J J O l yXyXyXyXyXyXyXyXyXyXyXyXyXyXyXyXyXyXyXyXyXyXyXyX",
"yXyXyXyXyXyXyXyXyXyXyXyXyXyXyXyXyXyXyXyXyX/ X.B.B.{ } / yXyXyXyXyXyXyXyXyXyXyXyXyXyXyXyXyXyXyXyXyXyXyXyXyXyXyXyXyXyXyXyXyXyXyXyXyXyXyXyXyXyXyXyXyXyXyXyXyXyXyXyX",
"yXyXyXyXyXyXyXyXyXyXyXyXyXyXyXyXyXyXyXyXyX#.$.` } V.N yXyXyXyXyXyXyXyXyXyXyXyXyXyXyXyXyXyXyXyXyXyXyXyXyXyXyXyXyXyXyXyXyXyXyXyXyXyXyXyXyXyXyXyXyXyXyXyXyXyXyXyXyX",
"yXyXyXyXyXyXyXyXyXyXyXyXyXyXyXyXyXyXyXyX#.O.$.| O.O.L yXyXyXyXyXyXyXyXyXyXyXyXyXyXyXyXyXyXyXyXyXyXyXyXyXyXyXyXyXyXyXyXyXyXyXyXyXyXyXyXyXyXyXyXyXyXyXyXyXyXyXyXyX",
"yXyXyXyXyXyXyXyXyXyXyXyXyXyXyXyXyXyXyX$.#.O.c.| $.c.x.| yXyXyXyXyXyXyXyXyXyXyXyXyXyXyXyXyXyXyXyXyXyXyXyXyXyXyXyXyXyXyXyXyXyXyXyXyXyXyXyXyXyXyXyXyXyXyXyXyXyXyXyX",
"yXyXyXyXyXyXyXyXyXyXyXyXyXyXyXyXyXyXyX$.$.$.x.| x.x.x.x.@.yXyXyXyXyXyXyXyXyXyXyXyXyXyXyXyXyXyXyXyXyXyXyXyXyXyXyXyXyXyXyXyXyXyXyXyXyXyXyXyXyXyXyXyXyXyXyXyXyXyXyX",
"yXyXyXyXyXyXyXyXyXyXyXyXyXyXyXyXyXyX$.x.x.#.#.| x.x.x.x.x.#.G yXyXyXyXyXyXyXyXyXyXyXyXyXyXyXyXyXyXyXyXyXyXyXyXyXyXyXyXyXyXyXyXyXyXyXyXyXyXyXyXyXyXyXyXyXyXyXyXyX",
"yXyXyXyXyXyXyXyXyXyXyXyXyXyXyXyXyXyX$.x.x.l.@.| x.x.x.x.x.x.^ _ / ! yXyXyXyXyXyXyXyXyXyXyXyXyXyXyXyXyXyXyXyXyXyXyXyXyXyXyXyXyXyXyXyXyXyXyXyXyXyXyXyXyXyXyXyXyXyX",
"yXyXyXyXyXyXyXyXyXyXyXyXyXyXyXyXyXyX#.%.%.%.%.#.O.@.#.@.~ #.%.%.%.| yXyXyXyXyXyXyXyXyXyXyXyXyXyXyXyXyXyXyXyXyXyXyXyXyXyXyXyXyXyXyXyXyXyXyXyXyXyXyXyXyXyXyXyXyXyX",
"yXyXyXyXyXyXyXyXyXyXyXyXyXyXyXyXyXyXyX~ ~ ~ ~ ~ ! v z z z G U ~ ~ yXyXyXyXyXyXyXyXyXyXyXyXyXyXyXyXyXyXyXyXyXyXyXyXyXyXyXyXyXyXyXyXyXyXyXyXyXyXyXyXyXyXyXyXyXyXyX",
"yXyXyXyXyXyXyXyXyXyXyXyXyXyXyXyXyXyXyXyXyXyXyXyXyXyXyXyXyXyXyXyXyXyXyXyXyXyXyXyXyXyXyXyXyXyXyXyXyXyXyXyXyXyXyXyXyXyXyXyXyXyXyXyXyXyXyXyXyXyXyXyXyXyXyXyXyXyXyXyX",
"yXyXyXyXyXyXyXyXyXyXyXyXyXyXyXyXyXyXyXyXyXyXyXyXyXyXyXyXyXyXyXyXyXyXyXyXyXyXyXyXyXyXyXyXyXyXyXyXyXyXyXyXyXyXyXyXyXyXyXyXyXyXyXyXyXyXyXyXyXyXyXyXyXyXyXyXyXyXyXyX",
"yXyXyXyXyXyXyXyXyXyXyXyXyXyXyXyXyXyXyXyXyXyXyXyXyXyXyXyXyXyXyXyXyXyXyXyXyXyXyXyXyXyXyXyXyXyXyXyXyXyXyXyXyXyXyXyXyXyXyXyXyXyXyXyXyXyXyXyXyXyXyXyXyXyXyXyXyXyXyXyX"
};
