/* XPM */
static char *result[] = {
/* columns rows colors chars-per-pixel */
"80 80 219 2 ",
"   c #41000E",
".  c #48091B",
"X  c #520C14",
"o  c #5E1418",
"O  c #661B19",
"+  c #701C18",
"@  c #6E211F",
"#  c #73241E",
"$  c #7B291D",
"%  c #4F1126",
"&  c #52152A",
"*  c #54182E",
"=  c #561C33",
"-  c #581E37",
";  c #611C25",
":  c #5B233D",
">  c #67272E",
",  c #782C28",
"<  c #7C322E",
"1  c #6E2F3F",
"2  c #712D38",
"3  c #7A383C",
"4  c #47254E",
"5  c #592748",
"6  c #682C44",
"7  c #732B42",
"8  c #6A334C",
"9  c #7B3948",
"0  c #6A3553",
"q  c #6B3856",
"w  c #6E3B5B",
"e  c #743A51",
"r  c #7A3C57",
"t  c #683F65",
"y  c #76425E",
"u  c #7A425B",
"i  c #7C4558",
"p  c #7A505A",
"a  c #69436B",
"s  c #734263",
"d  c #724867",
"f  c #7E5E70",
"g  c #842F1F",
"h  c #903D1E",
"j  c #822D23",
"k  c #833224",
"l  c #8F3A27",
"z  c #913B26",
"x  c #993B2C",
"c  c #873B37",
"v  c #A03323",
"b  c #A4362F",
"n  c #B5383C",
"m  c #C23C2B",
"M  c #8F430F",
"N  c #944B1C",
"B  c #A54C18",
"V  c #AF5D14",
"C  c #B35B11",
"Z  c #BD6E03",
"A  c #B96618",
"S  c #994127",
"D  c #95412B",
"F  c #9B432C",
"G  c #92572B",
"H  c #8E413E",
"J  c #9B4737",
"K  c #94453D",
"L  c #9B4639",
"P  c #9A5136",
"I  c #A84625",
"U  c #A3452A",
"Y  c #A5492D",
"T  c #AC4B2D",
"R  c #B14E2D",
"E  c #B5522E",
"W  c #B8552E",
"Q  c #A44A34",
"!  c #AA4C34",
"~  c #A84738",
"^  c #B74E33",
"/  c #AC5234",
"(  c #A5513E",
")  c #AC543A",
"_  c #B45332",
"`  c #B95633",
"'  c #B65935",
"]  c #BC5B34",
"[  c #B55539",
"{  c #B5593C",
"}  c #BC5A3A",
"|  c #BE6627",
" . c #BE6039",
".. c #C97B09",
"X. c #C26616",
"o. c #CA741C",
"O. c #C15E35",
"+. c #C15E3C",
"@. c #CA593B",
"#. c #C3652B",
"$. c #C56237",
"%. c #CB6734",
"&. c #C5633B",
"*. c #C9663C",
"=. c #CD6A3D",
"-. c #D16E3E",
";. c #D5723E",
":. c #D8773E",
">. c #903A4B",
",. c #A13848",
"<. c #874647",
"1. c #9D4D42",
"2. c #934A49",
"3. c #814352",
"4. c #8D4851",
"5. c #974C59",
"6. c #8D5453",
"7. c #9A5753",
"8. c #AF5249",
"9. c #B95A47",
"0. c #B96945",
"q. c #AB685A",
"w. c #B96656",
"e. c #8F466B",
"r. c #944F6E",
"t. c #8B6C6F",
"y. c #946875",
"u. c #A06F6E",
"i. c #B56B72",
"p. c #C05F44",
"a. c #C85958",
"s. c #D75D50",
"d. c #C66342",
"f. c #C96642",
"g. c #CD6B42",
"h. c #C1644C",
"j. c #D16E41",
"k. c #D86C48",
"l. c #C7724C",
"z. c #D67342",
"x. c #D87543",
"c. c #D67748",
"v. c #D6794C",
"b. c #C76557",
"n. c #D86656",
"m. c #C77755",
"M. c #D67B52",
"N. c #DC7F55",
"B. c #C06168",
"V. c #D5880E",
"C. c #D99C0D",
"Z. c #D38918",
"A. c #E9AA07",
"S. c #DC8735",
"D. c #E3A833",
"F. c #9F8F72",
"G. c #A98A69",
"H. c #C9824D",
"J. c #CA8657",
"K. c #D78253",
"L. c #DB835D",
"P. c #DD8661",
"I. c #D28E66",
"U. c #D6956A",
"Y. c #CA9773",
"T. c #E28F6E",
"R. c #B4C45D",
"E. c #534C8B",
"W. c #674E88",
"Q. c #70508E",
"!. c #5859A5",
"~. c #7E7CA2",
"^. c #88678B",
"/. c #8A7489",
"(. c #967788",
"). c #997C8D",
"_. c #887796",
"`. c #A66982",
"'. c #AA7B8F",
"]. c #7B9EBD",
"[. c #B38A8A",
"{. c #B6AF8F",
"}. c #8D8DAF",
"|. c #9588AE",
" X c #8689B0",
".X c #9B93B3",
"XX c #B6AEBC",
"oX c #C3829D",
"OX c #D3AC86",
"+X c #CFB490",
"@X c #C3B8A1",
"#X c #C3C3A2",
"$X c #D6C9A6",
"%X c #CDCDB8",
"&X c #CFD2B1",
"*X c #D7D7B6",
"=X c #A7A6C8",
"-X c #B5AAC5",
";X c #BDBEC7",
":X c #B3B3CC",
">X c #ACACD5",
",X c #B7B7D8",
"<X c #BCBDE0",
"1X c #C2B8D2",
"2X c gray81",
"3X c #DBDBC4",
"4X c #D4D4CA",
"5X c #CCCCDA",
"6X c #DCDCD1",
"7X c #E7E7C7",
"8X c #E3E3CE",
"9X c #EDEDD5",
"0X c #C4C4E4",
"qX c #CACAED",
"wX c #D6D6E5",
"eX c #EFEFE3",
"rX c #F6F6F4",
"tX c #F8F8F7",
"yX c None",
/* pixels */
"yXyXyXyXyXyXyXyXyXyXyXyXyXyXyXyXyXyXyXyXyXyXyXyXyXyXyXyXyXyXyXyXyXyXyXyXyXyXyXyXyXyXyXyXyXyXyXyXyXyXyXyXyXyXyXyXyXyXyXyXyXyXyXyXyXyXyXyXyXyXyXyXyXyXyXyXyXyXyXyX",
"yXyXyXyXyXyXyXyXyXyXyXyXyXyXyXyXyXyXyXyXyXyXyXyXyXyXyXyXyXyXyXyXyXyXyXyXyXyXyXyXyXyXyXyXyXyXyXyXyXyXyXyXyXyXyXyXyXyXyXyXyXyXyXyXyXyXyXyXyXyXyXyXyXyXyXyXyXyXyXyX",
"yXyXyXyXyXyXyXyXyXyXyXyXyXyXyXyXyXyXyXyXyXyXyXyXyXyXyXyXyXyXyXyXyXyXyXyXyXyXyXyXyXyXyXyXyXyXyXyXyXyXyXyXyXyXyXyXyXyXyXyXyXyXyXyXyXyXyXyXyXyXyXyXyXyXyXyXyXyXyXyX",
"yXyXyXyXyXyXyXyXyXyXyXyXyXyXyXyXyXyXyXyXyXyXyXyXyXyXyXyXyXyXyXyXyXyXyXyXyXyXyXyXyXyXyXyXyXyXyXyXyXyXyXyXyXyXyXyXyXyXyXyXyXyXyXyXyXyXyXyXyXyXyXyXyXyXyXyXyXyXyXyX",
"yXyXyXyXyXyXyXyXyXyXyXyXyXyXyXyXyXyXyXyXyXyXyXyXyXyXyXyXyXyXyXyXyXyXyXyXyXyXyXyXyXyXyXyXyXyXyXyXyXyXyXyXyXyXyXyXyXyXyXyXyXyXyXyXyXyXyXyXyXyXyXyXyXyXyXyXyXyXyXyX",
"yXyXyXyXyXyXyXyXyXyXyXyXyXyXyXyXyXyXyXyXyXyXyXyXyXyXyXyXyXyXyXyXyXyXyXyXyXyXyXyXyXyXyXyXyXyXyXyXyXyXyXyXyXyXyXyXyXyXyXyXyXyXyXyXyXyXyXyXyXyXyXyXyXyXyXyXyXyXyXyX",
"yXyXyXyXyXyXyXyXyXyXyXyXyXyXyXyXyXyXyXyXyXyXyXyXyXyXyXyXyXyXyXyXyXyXyXyXyXyXyXyXyXyXyXyXyXyXyXyXyXyXyXyXyXyXyXyXyXyXyXyXyXyXyXyXyXyXyXyXyXyXyXyXyXyXyXyXyXyXyXyX",
"yXyXyXyXyXyXyXyXyXyXyXyXyXyXyXyXyXyXyXyXyXyXyXyXyXyXyXyXyXyXyXyXyXyXyXyXyXyXyXyXyXyXyXyXyXyXyXyXyXyXyXyXyXyXyXyXyXyXyXyXyXyXyXyXyXyXyXyXyXyXyXyXyXyXyXyXyXyXyXyX",
"yXyXyXyXyXyXyXyXyXyXyXyXyXyXyXyXyXyXyXyXyXyXyXyXyXyXyXyXyXyXyXyXyXyXyXyXyXyXyXyXyXyXyXyXyXyXyXyXyXyXyXyXyXyXyXyXyXyXyXyXyXyXyXyXyXyXyXyXyXyXyXyXyXyXyXyXyXyXyXyX",
"yXyXyXyXyXyXyXyXyXyXyXyXyXyXyXyXyXyXyXyXyXyXyXyXyXyXyXyXyXyXyXyXyXyXyXyXyXyXyXyXyXyXyXyXyXyXyXyXyXyXyXyXyXyXyXyXyXyXyXyXyXyXyXyXyXyXyXyXyXyXyXyXyXyXyXyXyXyXyXyX",
"yXyXyXyXyXyXyXyXyXyXyXyXyXyXyXyXyXyXyXyXyXyXyXyXyXyXyXyXyXyXyXyXyXyXyXyXyXyXyXyXyXyXyXyXyXyXyXyXyXyXyXyXyXyXyXyXyXyXyXyXyXyX:XeXtXrXtX3XyXyXyXyXyXyXyXyXyXyXyXyX",
"yXyXyXyXyXyXyXyXyXyXyXyXyXyXyXyXyXyXyXyXyXyXyXyXyXyXyXyXyXyXyXyXyXyXyXyXyXyXyXyXyXyXyXyXyXyXyXyXyXyXyXyXyXyXyXyXyXyXyXyXyX}.:X8XeXtXtXrX3X{.yXyXyXyXyXyXyXyXyXyX",
"yXyXyXyXyXyXyXyXyXyXyXyXyXyXyXyXyXyXyXyXyXyXyXyXyXyXyXyXyXyXyXyXyXyXyXyXyXyXyXyXyXyXyXyXyXyXyXyXyXyXyXyXyXyXyXyXyXyXyXyX}.>X<X,X4X8X8X9X7X%XyXyXyXyXyXyXyXyXyXyX",
"yXyXyXyXyXyXyXyXyXyXyXyXyXyXyXyXyXyXyXyXyXyXyXyXyXyXyXyXyXyXyXyXyXyXyXyXyXyXyXyXyXyXyXyXyXyXyXyXyXyXyXyXyXyXyXyXyXyXyXyX>XqX<X<X0X;X4X6X4XwX,XyXyXyXyXyXyXyXyXyX",
"yXyXyXyXyXyXyXyXyXyXyXyXyXyXyXyXyXyXyXyXyXyXyXyXyXyXyXyXyXyXyXyXyXyXyXyXyXyXyXyXyXyXyXyXyXyXyXyXyXyXyXyXf.f.f.d.A R.].b ^.,X/.=X1Xi.(.=X<X,X0XyXyXyXyXyXyXyXyXyX",
"yXyXyXyXyXyXyXyXyXyXyXyXyXyXyXyXyXyXyXyXyXyXyXyXyXyXyXyXyXyXyXyXyXyXyXyXyXyXyXyXyXyXyXyXyXyXyXyXyXyX*.z.z.j.*.+.] 0.t.8.q.p J (.XX{ , 6.-X.X=XyXyXyXyXyXyXyXyXyX",
"yXyXyXyXyXyXyXyXyXyXyXyXyXyXyXyXyXyXyXyXyXyXyXyXyXyXyXyXyXyXyXyXyXyXyXyXyXyXyXyXyXyXyXyXyXyXyXyXyX*.z.z.z.O.=.N.T.N.D n %.B # L ).6.a , q.f yXyXyXyXyXyXyXyXyXyX",
"yXyXyXyXyXyXyXyXyXyXyXyXyXyXyXyXyXyXyXyXyXyXyXyXyXyXyXyXyXyXyXyXyXyXyXyXyXyXyXyXyXyXyXyXyXyXyXyXl.z.z.x.$.*.x.L.T.P.=.x m X.l Q w.q.m.0.j yXyXyXyXyXyXyXyXyXyXyX",
"yXyXyXyXyXyXyXyXyXyXyXyXyXyXyXyXyXyXyXyXyXyXyXyXyXyXyXyXyXyXyXyXyXyXyXyXyXyXyXyXyXyXyXyXyXyXyXG.+XK.z.x.' &.z.v.M.v.z.j v B k F f.d.&.Q O yXyXyXyXyXyXyXyXyXyXyX",
"yXyXyXyXyXyXyXyXyXyXyXyXyXyXyXyXyXyXyXyXyXyXyXyXyXyXyXyXyXyXyXyXyXyXyXyXyXyXyXyXyXyXyXyXyXyXl.OX&X+Xv.*.[ &.&.&.z.z.z.k k yXyX+ Q F # yXyXyXyXyXyXyXyXyXyXyXyXyX",
"yXyXyXyXyXyXyXyXyXyXyXyXyXyXyXyXyXyXyXyXyXyXyXyXyXyXyXyXyXyXyXyXyXyXyXyXyXyXyXyXyXyXyXyXyXyXz.I.$X*XOX| S.x.z./  .z. .D yXyXyXyXX yXyXyXyXyXyXyXyXyXyXyXyXyXyXyX",
"yXyXyXyXyXyXyXyXyXyXyXyXyXyXyXyXyXyXyXyXyXyXyXyXyXyXyXyXyXyXyXyXyXyXyXyXyXyXyXyXyXyXyXyXyXj.z.z.U.*X@X`.I.D.:.&.Y P c F yXyXyXyXyXyXyXyXyXyXyXyXyXyXyXyXyXyXyXyX",
"yXyXyXyXyXyXyXyXyXyXyXyXyXyXyXyXyXyXyXyXyXyXyXyXyXyXyXyXyXyXyXyXyXyXyXyXyXyXyXyXyXyXyXyXl.z.z.z.x.Y.0.` w.oXS.) u.@XF.yXyXyXyXyXyXyXyXyXyXyXyXyXyXyXyXyXyXyXyXyX",
"yXyXyXyXyXyXyXyXyXyXyXyXyXyXyXyXyXyXyXyXyXyXyXyXyXyXyXyXyXyXyXyXyXyXyXyXyXyXyXyXyXyXyX{.$XU.x.z.z.' =.x.=.i.H.[.2X*X#XyXyXyXyXyXyXyXyXyXyXyXyXyXyXyXyXyXyXyXyXyX",
"yXyXyXyXyXyXyXyXyXyXyXyXyXyXyXyXyXyXyXyXyXyXyXyXyXyXyXyXyXyXyXyXyXyXyXyXyXyXyXyXyXyX&.m.OX$XOXz.` ` z.x.x.b.'.0X5X*X#XyXyXyXyXyXyXyXyXyXyXyXyXyXyXyXyXyXyXyXyXyX",
"yXyXyXyXyXyXyXyXyXyXyXyXyXyXyXyXyXyXyXyXyXyXyXyXyXyXyXyXyXyXyXyXyXyXyXyXyXyXyXyXf.z.z.z.;.J.Y.*.=.=._ ' / 3 -XqX0X5XXXyXyXyXyXyXyXyXyXyXyXyXyXyXyXyXyXyXyXyXyXyX",
"yXyXyXyXyXyXyXyXyXyXyXyXyXyXyXyXyXyXyXyXyXyXyXyXyXyXyXyXyXyXyXyXyXyXyXyXyXyXyXyXj.z.z.z.z._ =.z.x.x.j.' S e .X,X<X>X}.yXyXyXyXyXyXyXyXyXyXyXyXyXyXyXyXyXyXyXyXyX",
"yXyXyXyXyXyXyXyXyXyXyXyXyXyXyXyXyXyXyXyXyXyXyXyXyXyXyXyXyXyXyXyXyXyXyXyXyXyXyXj.z.z.z.x.=.U z.z.z.z.z.x.=./ <.r.^.d yXyXyXyXyXyXyXyXyXyXyXyXyXyXyXyXyXyXyXyXyXyX",
"yXyXyXyXyXyXyXyXyXyXyXyXyXyXyXyXyXyXyXyXyXyXyXyXyXyXyXyXyXyXyXyXyXyXyXyXyXyXj.z.z.z.z.x.=.U z.x.z.z.z.z.x.z.*.1.F < yXyXyXyXyXyXyXyXyXyXyXyXyXyXyXyXyXyXyXyXyXyX",
"yXyXyXyXyXyXyXyXyXyXyXyXyXyXyXyXyXyXyXyXyXyXyXyXyXyXyXyXyXyXyXyXyXyXyXyXyXyXj.z.z.z.z.z.x.' F  .z.;.z.x.x.z.h.i.o.@.4.4 $ / F D x F l yXyXyXyXyXyXyXyXyXyXyXyXyX",
"yXyXyXyXyXyXyXyXyXyXyXyXyXyXyXyXyXyXyXyXyXyXyXyXyXyXyXyXyXyXyXyXyXyXyXyXyXz.z.z.z.z.z.x.x.z.] q.<.c 8.&.&.;.w.J.Z.b.~.7.&.x.x.' Y z yXyXyXyXyXyXyXyXyXyXyXyXyXyX",
"yXyXyXyXyXyXyXyXyXyXyXyXyXyXyXyXyXyXyXyXyXyXyXyXyXyXyXyXyXyXyXyXyXyXyXyXyXg.z.z.z.z.z.x.M.c.x.j.J u y 9 k Y L P X.9./.*.x.x.z.z.=._ z yXyXyXyXyXyXyXyXyXyXyXyXyX",
"yXyXyXyXyXyXyXyXyXyXyXyXyXyXyXyXyXyXyXyXyXyXyXyXyXyXyXyXyXyXyXyXyXyXyXyXyX` j.z.z.z.z.z.L.P.x.z.z.( y s 6 2 r r 4.! J ] =.=.z.x.x.z.&., yXyXyXyXyXyXyXyXyXyXyXyX",
"yXyXyXyXyXyXyXyXyXyXyXyXyXyXyXyXyXyXyXyXyXyXyXyXyXyXyXyXyXyXyXyXyXyXyXyXyXyX$.j.z.z.z.z.x.P.L.x.x.-.1.s s q 8 r 5.d.[ # yXI =.O.O.z.-.F yXyXyXyXyXyXyXyXyXyXyXyX",
"yXyXyXyXyXyXyXyXyXyXyXyXyXyXyXyXyXyXyXyXyXyXyXyXyXyXyXyXyXyXyXyXyXyXyXyXyXyXyX&.z.z.z.z.z.v.P.c.z.z.=.2.s s w 0 c &.p.c yXyXyXyXyXW T z yXyXyXyXyXyXyXyXyXyXyXyX",
"yXyXyXyXyXyXyXyXyXyXyXyXyXyXyXyXyXyXyXyXyXyXyXyXyXyXyXyXyXyXyXyXyXyXyXyXyXyXyXE =.z.z.z.z.z.x.M.x.z.x.&.3.s s s 8 H e.r.M yXyXyXyXyXyXyXyXyXyXyXyXyXyXyXyXyXyXyX",
"yXyXyXyXyXyXyXyXyXyXyXyXyXyXyXyXyXyXyXyXyXyXyXyXyXyXyXyXyXyXyXyXyXyXyXyXyXyXyXyX` z.z.z.z.z.z.x.v.x.z.z.} i s s s w 6 V C + yXyXyXyXyXyXyXyXyXyXyXyXyXyXyXyXyXyX",
"yXyXyXyXyXyXyXyXyXyXyXyXyXyXyXyXyXyXyXyXyXyXyXyXyXyXyXyXyXyXyXyXyXyXyXyXyXyXyXyXyX*.z.z.z.z.z.z.c.x.z.z.z.) u s s s 0 N v >.4 yXyXyXyXyXyXyXyXyXyXyXyXyXyXyXyXyX",
"yXyXyXyXyXyXyXyXyXyXyXyXyXyXyXyXyXyXyXyXyXyXyXyXyXyXyXyXyXyXyXyXyXyXyXyXyXyXyXyXyX} g.z.z.z.z.z.z.z.z.z.z.-.4.s s s s K , E.p F z yXyXyXyXyXyXyXyXyXyXyXyXyXyXyX",
"yXyXyXyXyXyXyXyXyXyXyXyXyXyXyXyXyXyXyXyXyXyXyXyXyXyXyXyXyXyXyXyXyXyXyXyXyXyXyXyXyXyX} d.g.z.z.z.z.z.z.z.z.x.{ u s s s L Y < } d.[ / yXyXyXyXyXyXyXyXyXyXyXyXyXyX",
"yXyXyXyXyXyXyXyXyXyXyXyXyXyXyXyXyXyXyXyXyXyXyXyXyXyXyXyXyXyXyXyXyXyXyXyXyXyXyXyXyXyXyX} &.f.j.z.z.z.z.z.z.z.;.( s s i Q _ T _ } Y } I yXyXyXyXyXyXyXyXyXyXyXyXyX",
"yXyXyXyXyXyXyXyXyXyXyXyXyXyXyXyXyXyXyXyXyXyXyXyXyXyXyXyXyXyXyXyXyXyXyXyXyXyXyXyXyXyXyXyX} &.d.g.z.z.z.z.z.z.x.f.3.s 3.R _ _ R _ } ! g yXyXyXyXyXyXyXyXyXyXyXyXyX",
"yXyXyXyXyXyXyXyXyXyXyXyXyXyXyXyXyXyXyXyXyXyXyXyXyXyXyXyXyXyXyXyXyXyXyXyXyXyXyXyXyXyXyXyXyXyX} d.f.g.z.z.z.z.z.z.) y 3.T _ _ _ Y { } F yXyXyXyXyXyXyXyXyXyXyXyXyX",
"yXyXyXyXyXyXyXyXyXyXyXyXyXyXyXyXyXyXyXyXyXyXyXyXyXyXyXyXyXyXyXyXyXyXyXyXyXyXyXyXyXyXyXyXyXyXyXyX+.d.&.-.z.z.z.z.-.1.y J E _ _ _ Y ) ! yXyXyXyXyXyXyXyXyXyXyXyXyX",
"yXyXyXyXyXyXyXyXyXyXyXyXyXyXyXyXyXyXyXyXyXyXyXyXyXyXyXyXyXyXyXyXyXyXyXyXyXyXyXyXyXyXyXyXyXyXyXyXyX} &.&.z.z.z.z.x.O.1 L E _ _ _ U O @ yXyXyXyXyXyXyXyXyXyXyXyXyX",
"yXyXyXyXyXyXyXyXyXyXyXyXyXyXyXyXyXyXyXyXyXyXyXyXyXyXyXyXyXyXyXyXyXyXyXyXyXyXyXyXyXyXyXyXyXyXyXyXyXyXT } &.z.z.z.z.} ; K E _ E T 3 yXyXyXyXyXyXyXyXyXyXyXyXyXyXyX",
"yXyXyXyXyXyXyXyXyXyXyXyXyXyXyXyXyXyXyXyXyXyXyXyXyXyXyXyXyXyXyXyXyXyXyXyXyXyXyXyXyXyXyXyXyXyXyXyXyXyXU _ +.j.z.z.z.1.: 8 Q T Q 3 & yXyXyXyXyXyXyXyXyXyXyXyXyXyXyX",
"yXyXyXyXyXyXyXyXyXyXyXyXyXyXyXyXyXyXyXyXyXyXyXyXyXyXyXyXyXyXyXyXyXyXyXyXyXyXyXyXyXyXyXyXyXyXyXyXyXyX*.g.f.z.z.z.f.3.: 8 6 9 e = yXyXyXyXyXyXyXyXyXyXyXyXyXyXyXyX",
"yXyXyXyXyXyXyXyXyXyXyXyXyXyXyXyXyXyXyXyXyXyXyXyXyXyXyXyXyXyXyXyXyXyXyXyXyXyXyXyXyXyXyXyXyXyXyXyXyXg.z.z.j.*.z.z.^ r 8 s : - & yXyXyXyXyXyXyXyXyXyXyXyXyXyXyXyXyX",
"yXyXyXyXyXyXyXyXyXyXyXyXyXyXyXyXyXyXyXyXyXyXyXyXyXyXyXyXyXyXyXyXyXyXyXyXyXyXyXyXyXyXyXyXyXyXyXyX@.k.j.z.z.W $.9.e.,.u s 6 = yXyXyXyXyXyXyXyXyXyXyXyXyXyXyXyXyXyX",
"yXyXyXyXyXyXyXyXyXyXyXyXyXyXyXyXyXyXyXyXyXyXyXyXyXyXyXyXyXyXyXyXyXyXyXyXyXyXyXyXyXyXyXyXyXyXyX5.r.a.n.k.=.j.O.7.!.e.n >.7 yXyXyXyXyXyXyXyXyXyXyXyXyXyXyXyXyXyXyX",
"yXyXyXyXyXyXyXyXyXyXyXyXyXyXyXyXyXyXyXyXyXyXyXyXyXyXyXyXyXyXyXyXyXyXyXyXyXyXyXyXyXyXyXyXyXyXyXw./. X|.B.s.*.&.4.a W.Q.Q.5 yXyXyXyXyXyXyXyXyXyXyXyXyXyXyXyXyXyXyX",
"yXyXyXyXyXyXyXyXyXyXyXyXyXyXyXyXyXyXyXyXyXyXyXyXyXyXyXyXyXyXyXyXyXyXyXyXyXyXyXyXyXyXyXyXyXyXf.z.z.l.y._.`.a.~ y s s t 5 yXyXyXyXyXyXyXyXyXyXyXyXyXyXyXyXyXyXyXyX",
"yXyXyXyXyXyXyXyXyXyXyXyXyXyXyXyXyXyXyXyXyXyXyXyXyXyXyXyXyXyXyXyXyXyXyXyXyXyXyXyXyXyXyXyXyXyXf.z.z.z.x.g.u.y.2.w w - & yXyXyXyXyXyXyXyXyXyXyXyXyXyXyXyXyXyXyXyXyX",
"yXyXyXyXyXyXyXyXyXyXyXyXyXyXyXyXyXyXyXyXyXyXyXyXyXyXyXyXyXyXyXyXyXyXyXyXyXyXyXyXyXyXyXyXyXyXf.z.z.z.z.x.$.Q 1 = %   yXyXyXyXyXyXyXyXyXyXyXyXyXyXyXyXyXyXyXyXyXyX",
"yXyXyXyXyXyXyXyXyXyXyXyXyXyXyXyXyXyXyXyXyXyXyXyXyXyXyXyXyXyXyXyXyXyXyXyXyXyXyXyXyXyXyXyXyXyX&.z.x.z.z.g.j.4.0 w * yXyXyXyXyXyXyXyXyXyXyXyXyXyXyXyXyXyXyXyXyXyXyX",
"yXyXyXyXyXyXyXyXyXyXyXyXyXyXyXyXyXyXyXyXyXyXyXyXyXyXyXyXyXyXyXyXyXyXyXyXyXyXyXyXyXyXyXyXyXyX` j.j.j.g.z.{ u s - yXyXyXyXyXyXyXyXyXyXyXyXyXyXyXyXyXyXyXyXyXyXyXyX",
"yXyXyXyXyXyXyXyXyXyXyXyXyXyXyXyXyXyXyXyXyXyXyXyXyXyXyXyXyXyXyXyXyXyXyXyXyXyXyXyXyXyXyXyXyXyXg.z.g.j.z.&.3.s 5 yXyXyXyXyXyXyXyXyXyXyXyXyXyXyXyXyXyXyXyXyXyXyXyXyX",
"yXyXyXyXyXyXyXyXyXyXyXyXyXyXyXyXyXyXyXyXyXyXyXyXyXyXyXyXyXyXyXyXyXyXyXyXyXyXyXyXyXyXyXyXyXyXz.z.z.z.z.~ 9 6 yXyXyXyXyXyXyXyXyXyXyXyXyXyXyXyXyXyXyXyXyXyXyXyXyXyX",
"yXyXyXyXyXyXyXyXyXyXyXyXyXyXyXyXyXyXyXyXyXyXyXyXyXyXyXyXyXyXyXyXyXyXyXyXyXyXyXyXyXyXyXyXyXf.z.z.z.z.] A ..yXyXyXyXyXyXyXyXyXyXyXyXyXyXyXyXyXyXyXyXyXyXyXyXyXyXyX",
"yXyXyXyXyXyXyXyXyXyXyXyXyXyXyXyXyXyXyXyXyXyXyXyXyXyXyXyXyXyXyXyXyXyXyXyXyXyXyXyXyXyXyXyXyXj.z.z.z.z.h Z C yXyXyXyXyXyXyXyXyXyXyXyXyXyXyXyXyXyXyXyXyXyXyXyXyXyXyX",
"yXyXyXyXyXyXyXyXyXyXyXyXyXyXyXyXyXyXyXyXyXyXyXyXyXyXyXyXyXyXyXyXyXyXyXyXyXyXyXyXyXyXyXyXyXj.z.z.x.} > G N > yXyXyXyXyXyXyXyXyXyXyXyXyXyXyXyXyXyXyXyXyXyXyXyXyXyX",
"yXyXyXyXyXyXyXyXyXyXyXyXyXyXyXyXyXyXyXyXyXyXyXyXyXyXyXyXyXyXyXyXyXyXyXyXyXyXyXyXyXyXyXyXyXz.z.z.z.Q w w : w = yXyXyXyXyXyXyXyXyXyXyXyXyXyXyXyXyXyXyXyXyXyXyXyXyX",
"yXyXyXyXyXyXyXyXyXyXyXyXyXyXyXyXyXyXyXyXyXyXyXyXyXyXyXyXyXyXyXyXyXyXyXyXyXyXyXyXyXyXyXyX#.%.z.z.=., s w : s e o yXyXyXyXyXyXyXyXyXyXyXyXyXyXyXyXyXyXyXyXyXyXyXyX",
"yXyXyXyXyXyXyXyXyXyXyXyXyXyXyXyXyXyXyXyXyXyXyXyXyXyXyXyXyXyXyXyXyXyXyXyXyXyXyXyXyXyXyXyXo.C.#.#.Q 6 = = 0 y K U I I yXyXyXyXyXyXyXyXyXyXyXyXyXyXyXyXyXyXyXyXyXyX",
"yXyXyXyXyXyXyXyXyXyXyXyXyXyXyXyXyXyXyXyXyXyXyXyXyXyXyXyXyXyXyXyXyXyXyXyXyXyXyXyXyXyXyXyXV.A.V...2.s w w i Q R _ _ _ T I T yXyXyXyXyXyXyXyXyXyXyXyXyXyXyXyXyXyXyX",
"yXyXyXyXyXyXyXyXyXyXyXyXyXyXyXyXyXyXyXyXyXyXyXyXyXyXyXyXyXyXyXyXyXyXyXyXyXyXyXyXyXyXyXO.Z.A.V.A e w w q ; S T T T U U T T j yXyXyXyXyXyXyXyXyXyXyXyXyXyXyXyXyXyX",
"yXyXyXyXyXyXyXyXyXyXyXyXyXyXyXyXyXyXyXyXyXyXyXyXyXyXyXyXyXyXyXyXyXyXyXyXyXyXyXyXyXyXyX=.] :.#.W ; . . . yXX X X X X X X X yXyXyXyXyXyXyXyXyXyXyXyXyXyXyXyXyXyXyX",
"yXyXyXyXyXyXyXyXyXyXyXyXyXyXyXyXyXyXyXyXyXyXyXyXyXyXyXyXyXyXyXyXyXyXyXyXyXyXyXyXyXyX` =.] *.-.*.yXyXyXyXyXyXyXyXyXyXyXyXyXyXyXyXyXyXyXyXyXyXyXyXyXyXyXyXyXyXyXyX",
"yXyXyXyXyXyXyXyXyXyXyXyXyXyXyXyXyXyXyXyXyXyXyXyXyXyXyXyXyXyXyXyXyXyXyXyXyXyXyXyXyX&.&.-.=.*.x.=.yXyXyXyXyXyXyXyXyXyXyXyXyXyXyXyXyXyXyXyXyXyXyXyXyXyXyXyXyXyXyXyX",
"yXyXyXyXyXyXyXyXyXyXyXyXyXyXyXyXyXyXyXyXyXyXyXyXyXyXyXyXyXyXyXyXyXyXyXyXyXyXyXyXyX=.*.-.*.-.x.z.] yXyXyXyXyXyXyXyXyXyXyXyXyXyXyXyXyXyXyXyXyXyXyXyXyXyXyXyXyXyXyX",
"yXyXyXyXyXyXyXyXyXyXyXyXyXyXyXyXyXyXyXyXyXyXyXyXyXyXyXyXyXyXyXyXyXyXyXyXyXyXyXyXyX*.*.&.=.z.=.=.O.yXyXyXyXyXyXyXyXyXyXyXyXyXyXyXyXyXyXyXyXyXyXyXyXyXyXyXyXyXyXyX",
"yXyXyXyXyXyXyXyXyXyXyXyXyXyXyXyXyXyXyXyXyXyXyXyXyXyXyXyXyXyXyXyXyXyXyXyXyXyXyXyXyXW O.=.x.z.&.&.z.&.yXyXyXyXyXyXyXyXyXyXyXyXyXyXyXyXyXyXyXyXyXyXyXyXyXyXyXyXyXyX",
"yXyXyXyXyXyXyXyXyXyXyXyXyXyXyXyXyXyXyXyXyXyXyXyXyXyXyXyXyXyXyXyXyXyXyXyXyXyXyXyXyXyXyX&.z.x.x.x.x.z.*.yXyXyXyXyXyXyXyXyXyXyXyXyXyXyXyXyXyXyXyXyXyXyXyXyXyXyXyXyX",
"yXyXyXyXyXyXyXyXyXyXyXyXyXyXyXyXyXyXyXyXyXyXyXyXyXyXyXyXyXyXyXyXyXyXyXyXyXyXyXyXyXyXyXyX_ / _ _ / _ D yXyXyXyXyXyXyXyXyXyXyXyXyXyXyXyXyXyXyXyXyXyXyXyXyXyXyXyXyX",
"yXyXyXyXyXyXyXyXyXyXyXyXyXyXyXyXyXyXyXyXyXyXyXyXyXyXyXyXyXyXyXyXyXyXyXyXyXyXyXyXyXyXyXyXyXyXyXyXyXyXyXyXyXyXyXyXyXyXyXyXyXyXyXyXyXyXyXyXyXyXyXyXyXyXyXyXyXyXyXyX",
"yXyXyXyXyXyXyXyXyXyXyXyXyXyXyXyXyXyXyXyXyXyXyXyXyXyXyXyXyXyXyXyXyXyXyXyXyXyXyXyXyXyXyXyXyXyXyXyXyXyXyXyXyXyXyXyXyXyXyXyXyXyXyXyXyXyXyXyXyXyXyXyXyXyXyXyXyXyXyXyX",
"yXyXyXyXyXyXyXyXyXyXyXyXyXyXyXyXyXyXyXyXyXyXyXyXyXyXyXyXyXyXyXyXyXyXyXyXyXyXyXyXyXyXyXyXyXyXyXyXyXyXyXyXyXyXyXyXyXyXyXyXyXyXyXyXyXyXyXyXyXyXyXyXyXyXyXyXyXyXyXyX",
"yXyXyXyXyXyXyXyXyXyXyXyXyXyXyXyXyXyXyXyXyXyXyXyXyXyXyXyXyXyXyXyXyXyXyXyXyXyXyXyXyXyXyXyXyXyXyXyXyXyXyXyXyXyXyXyXyXyXyXyXyXyXyXyXyXyXyXyXyXyXyXyXyXyXyXyXyXyXyXyX",
"yXyXyXyXyXyXyXyXyXyXyXyXyXyXyXyXyXyXyXyXyXyXyXyXyXyXyXyXyXyXyXyXyXyXyXyXyXyXyXyXyXyXyXyXyXyXyXyXyXyXyXyXyXyXyXyXyXyXyXyXyXyXyXyXyXyXyXyXyXyXyXyXyXyXyXyXyXyXyXyX"
};
