/* XPM */
static char *result[] = {
/* columns rows colors chars-per-pixel */
"80 80 217 2 ",
"   c #3F000E",
".  c #4E0E0B",
"X  c #4C0817",
"o  c #4A0B1E",
"O  c #5C1518",
"+  c #661B18",
"@  c #6B2416",
"#  c #752916",
"$  c #460525",
"%  c #4D0E22",
"&  c #4E1227",
"*  c #5D1B27",
"=  c #52152A",
"-  c #531636",
";  c #561B32",
":  c #581E36",
">  c #6E1B26",
",  c #5D2136",
"<  c #5C223B",
"1  c #7A2B26",
"2  c #762C2A",
"3  c #662739",
"4  c #762D32",
"5  c #7A3538",
"6  c #7F4811",
"7  c #5F2741",
"8  c #55294C",
"9  c #632C45",
"0  c #652F4A",
"q  c #772B49",
"w  c #65304D",
"e  c #6B364F",
"r  c #783A4A",
"t  c #722A56",
"y  c #6A3552",
"u  c #6C3855",
"i  c #6A3658",
"p  c #6E3B5A",
"a  c #7A3856",
"s  c #713E5D",
"d  c #4C3267",
"f  c #653F65",
"g  c #713C60",
"h  c #794248",
"j  c #79425E",
"k  c #734263",
"l  c #76486A",
"z  c #6E4F70",
"x  c #7A4D78",
"c  c #7C577B",
"v  c #813511",
"b  c #8A3525",
"n  c #8D3A2B",
"m  c #933B27",
"M  c #853338",
"N  c #963F30",
"B  c #954613",
"V  c #AC5716",
"C  c #B85A1D",
"Z  c #B76A07",
"A  c #A96418",
"S  c #B47612",
"D  c #9B432B",
"F  c #8D4E31",
"G  c #994537",
"H  c #A94624",
"J  c #A94725",
"K  c #A4462B",
"L  c #A6492D",
"P  c #AD4B2B",
"I  c #B14E2C",
"U  c #A2532A",
"Y  c #B95827",
"T  c #B5522D",
"R  c #B9562E",
"E  c #A54A32",
"W  c #A74D36",
"Q  c #BA4B31",
"!  c #AD5132",
"~  c #AD553E",
"^  c #B55331",
"/  c #B75936",
"(  c #BC5B35",
")  c #B45539",
"_  c #BC5C3A",
"`  c #BD603A",
"'  c #C45B15",
"]  c #CF7A07",
"[  c #C3691A",
"{  c #CB7914",
"}  c #CB4D37",
"|  c #C15E35",
" . c #C2573A",
".. c #C15E3C",
"X. c #C57225",
"o. c #C56237",
"O. c #C86636",
"+. c #C5633A",
"@. c #C9663A",
"#. c #CC6A3D",
"$. c #D06E36",
"%. c #D16D3F",
"&. c #C17231",
"*. c #D6713F",
"=. c #983A4C",
"-. c #953C50",
";. c #B13947",
":. c #873F68",
">. c #84434B",
",. c #914642",
"<. c #90554F",
"1. c #87425B",
"2. c #994C5B",
"3. c #A54B48",
"4. c #A75448",
"5. c #B95A49",
"6. c #BC6949",
"7. c #B76856",
"8. c #844262",
"9. c #8F4A70",
"0. c #A65566",
"q. c #B05865",
"w. c #B35F74",
"e. c #966062",
"r. c #976975",
"t. c #9C7477",
"y. c #AB6E6A",
"u. c #A97763",
"i. c #CC5547",
"p. c #C56242",
"a. c #C86745",
"s. c #CC6A43",
"d. c #D16E40",
"f. c #CD754B",
"g. c #D67342",
"h. c #D87442",
"j. c #D5764B",
"k. c #D6794B",
"l. c #D9794A",
"z. c #C67654",
"x. c #D67C52",
"c. c #D87E55",
"v. c #E8754F",
"b. c #C76469",
"n. c #C27464",
"m. c #D68E0D",
"M. c #D98916",
"N. c #E6A805",
"B. c #D58E2B",
"V. c #A48A5F",
"C. c #9D9B7D",
"Z. c #B59469",
"A. c #BA9575",
"S. c #DF855E",
"D. c #CE9052",
"F. c #E98150",
"G. c #CDAC4A",
"H. c #C28665",
"J. c #D4926E",
"K. c #CC8872",
"L. c #E49272",
"P. c #D7A47B",
"I. c #5C5396",
"U. c #764C87",
"Y. c #655184",
"T. c #685596",
"R. c #7D6481",
"E. c #565CAE",
"W. c #797AA6",
"Q. c #6D79B3",
"!. c #8E4B84",
"~. c #9A7488",
"^. c #877090",
"/. c #8B7495",
"(. c #B46687",
"). c #A77997",
"_. c #907BA5",
"`. c #7F82B9",
"'. c #5D87D4",
"]. c #928F8F",
"[. c #B39190",
"{. c #B6B694",
"}. c #9889A4",
"|. c #9790B3",
" X c #B093AA",
".X c #B7B6A4",
"XX c #AFA8B7",
"oX c #B5B2B1",
"OX c #C7AA8E",
"+X c #D5A986",
"@X c #C7B6B9",
"#X c #C9C9A9",
"$X c #D2CBA9",
"%X c #C0C0B0",
"&X c #D5D5B5",
"*X c #DBDCBC",
"=X c #9A9CC5",
"-X c #A39BC9",
";X c #A7A7CA",
":X c #B7B8C7",
">X c #A5A4D5",
",X c #A5A6D8",
"<X c #B8B7D7",
"1X c #BBBBE0",
"2X c gray78",
"3X c #D6D6C3",
"4X c #CAC9D6",
"5X c #CDD0D8",
"6X c #E3E3C8",
"7X c #EEEEDE",
"8X c #C4C3E5",
"9X c #C8C9E9",
"0X c #EFEFE8",
"qX c #F2F2E9",
"wX c #F6F6F4",
"eX c #F8F8F8",
"rX c None",
/* pixels */
"rXrXrXrXrXrXrXrXrXrXrXrXrXrXrXrXrXrXrXrXrXrXrXrXrXrXrXrXrXrXrXrXrXrXrXrXrXrXrXrXrXrXrXrXrXrXrXrXrXrXrXrXrXrXrXrXrXrXrXrXrXrXrXrXrXrXrXrXrXrXrXrXrXrXrXrXrXrXrXrX",
"rXrXrXrXrXrXrXrXrXrXrXrXrXrXrXrXrXrXrXrXrXrXrXrXrXrXrXrXrXrXrXrXrXrXrXrXrXrXrXrXrXrXrXrXrXrXrXrXrXrXrXrXrXrXrXrXrXrXrXrXrXrXrXrXrXrXrXrXrXrXrXrXrXrXrXrXrXrXrXrX",
"rXrXrXrXrXrXrXrXrXrXrXrXrXrXrXrXrXrXrXrXrXrXrXrXrXrXrXrXrXrXrXrXrXrXrXrXrXrXrXrXrXrXrXrXrXrXrXrXrXrXrXrXrXrXrXrXrXrXrXrXrXrXrXrXrXrXrXrXrXrXrXrXrXrXrXrXrXrXrXrX",
"rXrXrXrXrXrXrXrXrXrXrXrXrXrXrXrXrXrXrXrXrXrXrXrXrXrXrXrXrXrXrXrXrXrXrXrXrXrXrXrXrXrXrXrXrXrXrXrXrXrXrXrXrXrXrXrXrXrXrXrXrXrXrXrXrXrXrXrXrXrXrXrXrXrXrXrXrXrXrXrX",
"rXrXrXrXrXrXrXrXrXrXrXrXrXrXrXrXrXrXrXrXrXrXrXrXrXrXrXrXrXrXrXrXrXrXrXrXrXrXrXrXrXrXrXrXrXrXrXrXrXrXrXrXrXrXrXrXrXrXrXrXrXrXrXrXrXrXrXrXrXrXrXrXrXrXrXrXrXrXrXrX",
"rXrXrXrXrXrXrXrXrXrXrXrXrXrXrXrXrXrXrXrXrXrXrXrXrXrXrXrXrXrXrXrXrXrXrXrXrXrXrXrXrXrXrXrXrXrXrXrXrXrXrXrXrXrXrXrXrXrXrXrXrXrXrXrXrXrXrXrXrXrXrXrXrXrXrXrXrXrXrXrX",
"rXrXrXrXrXrXrXrXrXrXrXrXrXrXrXrXrXrXrXrXrXrXrXrXrXrXrXrXrXrXrXrXrXrXrXrXrXrXrXrXrXrXrXrXrXrXrXrXrXrXrXrXrXrXrXrXrXrXrXrXrXrXrXrXrXrXrXrXrXrXrXrXrXrXrXrXrXrXrXrX",
"rXrXrXrXrXrXrXrXrXrXrXrXrXrXrXrXrXrXrXrXrXrXrXrXrXrXrXrXrXrXrXrXrXrXrXrXrXrXrXrXrXrXrXrXrXrXrXrXrXrXrXrXrXrXrXrXrXrXrXrXrXrXrXrXrXrXrXrXrXrXrXrXrXrXrXrXrXrXrXrX",
"rXrXrXrXrXrXrXrXrXrXrXrXrXrXrXrXrXrXrXrXrXrXrXrXrXrXrXrXrXrXrXrXrXrXrXrXrXrXrXrXrXrXrXrXrXrXrXrXrXrXrXrXrXrXrXrXrXrXrXrXrXrXrXrXrXrXrXrXrXrXrXrXrXrXrXrXrXrXrXrX",
"rXrXrXrXrXrXrXrXrXrXrXrXrXrXrXrXrXrXrXrXrXrXrXrXrXrXrXrXrXrXrXrXrXrXrXrXrXrXrXrXrXrXrXrXrXrXrXrXrXrXrXrXrXrXrXrXrXrXrXrXrXrXrXrXrXrXrXrXrXrXrXrXrXrXrXrXrXrXrXrX",
"rXrXrXrXrXrXrXrXrXrXrXrXrXrXrXrXrXrXrXrXrXrXrXrXrXrXrXrXrXrXrXrXrXrXrXrXrXrXrXrXrXrXrXrXrXrXrXrXrXrXrXrXrXrXrXrXrXrXrXrXrXrXrXrXrXrXrXrXrXrXrXrXrXrXrXrXrXrXrXrX",
"rXrXrXrXrXrXrXrXrXrXrXrXrXrXrXrXrXrXrXrXrXrXrXrXrXrXrXrXrXrXrXrXrXrXrXrXrXrXrXrXrXrXrXrXrXrXrXrXrXrXrXrXrXrXrXrXrXrXrXrXrXrXrXrXrXrXrXrXrXrXrXrXrXrXrXrXrXrXrXrX",
"rXrXrXrXrXrXrXrXrXrXrXrXrXrXrXrXrXrXrXrXrXrXrXrXrXrXrXrXrXrXrXrXrXrXrXrXrXrXrXrXrXrXrXrXrXrXrXrXrXrXrXrXrXrXrXrXrXrXrXrXrXrXrXrXrXrXrXrXrXrXrXrXrXrXrXrXrXrXrXrX",
"rXrXrXrXrXrXrXrXrXrXrXrXrXrXrXrXrXrXrXrXrXrXrXrXrXrXrXrXrXrXrXrXrXrXrXrXrXrXrXrXrXrXrXrXrXrXrXrXrXrXrXrXrXrXrXrXrXrXrXrXrXrXrXrXrXrXrXrXrXrXrXrXrXrXrXrXrXrXrXrX",
"rXrXrXrXrXrXrXrXrXrXrXrXrXrXrXrXrXrXrXrXrXrXrXrXrXrXrXrXrXrXrXrXrXrXrXrXrXrXrXrXrXrXrXrXrXrXrXrXrXrXrXrXrXrXrXrXrXrXrXrXrXrXrX3XwXrXrXrXrXrXrXrXrXrXrXrXrXrXrXrX",
"rXrXrXrXrXrXrXrXrXrXrXrXrXrXrXrXrXrXrXrXrXrXrXrXrXrXrXrXrXrXrXrXrXrXrXrXrXrXrXrXrXrXrXrXrXrXrXrXrXrXrXrXrXrXrXrXrXrXrXrXrX|.3XqXwXwXeX0X#XrXrXrXrXrXrXrXrXrXrXrX",
"rXrXrXrXrXrXrXrXrXrXrXrXrXrXrXrXrXrXrXrXrXrXrXrXrXrXrXrXrXrXrXrXrXrXrXrXrXrXrXrXrXrXrXrXrXrXrXrXrXrXrXrXrXrXrXrXrXrXrXrXrX=X2X6X7XwXwX0X*X{.rXrXrXrXrXrXrXrXrXrX",
"rXrXrXrXrXrXrXrXrXrXrXrXrXrXrXrXrXrXrXrXrXrXrXrXrXrXrXrXrXrXrXrXrXrXrXrXrXrXrXrXrXrXrXrXrXrXrXrXrXrXrXrXrXrXrXrXrXrXrXrX=X8X1X<X2X3X6X6X*X.XrXrXrXrXrXrXrXrXrXrX",
"rXrXrXrXrXrXrXrXrXrXrXrXrXrXrXrXrXrXrXrXrXrXrXrXrXrXrXrXrXrXrXrXrXrXrXrXrXrXrXrXrXrXrXrXrXrXrXrXrXrXrXrXb m H rXrXrXrXrX<X9X;X<X<X.X2X5X2X<XrXrXrXrXrXrXrXrXrXrX",
"rXrXrXrXrXrXrXrXrXrXrXrXrXrXrXrXrXrXrXrXrXrXrXrXrXrXrXrXrXrXrXrXrXrXrXrXrXrXrXrXrXrXrXrXrXL P W I P I J ^ +.#.O.R 6 @ rX2X|.l <XXX7.t.8X1X1XrXrXrXrXrXrXrXrXrXrX",
"rXrXrXrXrXrXrXrXrXrXrXrXrXrXrXrXrXrXrXrXrXrXrXrXrXrXrXrXrXrXrXrXrXrXrXrXrXrX+.+.+.+.+.+.s.d.%.7.D.X.@.#.g.l.S.S.O.S u.F.G.>.D ~.}.W 2 }.;X;XrXrXrXrXrXrXrXrXrXrX",
"rXrXrXrXrXrXrXrXrXrXrXrXrXrXrXrXrXrXrXrXrXrXrXrXrXrXrXrXrXrXrXrXrXrXrXrXrXrXg.h.h.h.g.g.g.g.h.p.K.X.d.g.g.c.L.L.g.t.=Xv.M.+.1 G t.4.c h <.rXrXrXrXrXrXrXrXrXrXrX",
"rXrXrXrXrXrXrXrXrXrXrXrXrXrXrXrXrXrXrXrXrXrXrXrXrXrXrXrXrXrXrXrXrXrXrXrXrXd.g.g.g.g.g.o.g.g.g.j.K.X.g.g.g.j.c.x.*.t.`.} ] $.D E a.7.f.+.# rXrXrXrXrXrXrXrXrXrXrX",
"rXrXrXrXrXrXrXrXrXrXrXrXrXrXrXrXrXrXrXrXrXrXrXrXrXrXrXrXrXrXrXrXrXrXrXrXO.g.g.g.g.g.o.| #.d.%.s.7.C +.g.g.g.g.g.%.G E.2.' B + m p.p./ m O rXrXrXrXrXrXrXrXrXrXrX",
"rXrXrXrXrXrXrXrXrXrXrXrXrXrXrXrXrXrXrXrXrXrXrXrXrXrXrXrXrXrXrXrXrXrXrX+.g.g.g.g.g.O.rXD ( +.+.H.H.u.e._ *.g.g.h./ B z E.5 . rX+ n b + rXrXrXrXrXrXrXrXrXrXrXrXrX",
"rXrXrXrXrXrXrXrXrXrXrXrXrXrXrXrXrXrXrXrXrXrXrXrXrXrXrXrXrXrXrXrXrXrXrXg.g.g.g.d.| rXp.g.g.g.g.+X&X5X8X X6._ ` 6.A.S A <.F . rXrXrXrXrXrXrXrXrXrXrXrXrXrXrXrXrXrX",
"rXrXrXrXrXrXrXrXrXrXrXrXrXrXrXrXrXrXrXrXrXrXrXrXrXrXrXrXrXrXrXrXrXrXR O.g.h.#.6.Z.+Xg.g.g.g.d.k.+X4X9X9XoX@X$X$X#XZ.S Z 5 O rXrXrXrXrXrXrXrXrXrXrXrXrXrXrXrXrXrX",
"rXrXrXrXrXrXrXrXrXrXrXrXrXrXrXrXrXrXrXrXrXrXrXrXrXrXrXrXrXrXrXrXrXq.(.(.s.#.^ f.P.$XJ.g.g.d.s.g.g.K.@X2X4X4X&X&X#X$XV.F >.G rXrXrXrXrXH H rXrXrXrXrXrXrXrXrXrXrX",
"rXrXrXrXrXrXrXrXrXrXrXrXrXrXrXrXrXrXrXrXrXrXrXrXrXrXrXrXrXrXrXrXrXX.&.(.q.^ #.g.g.+X$Xz.q.0.4.o.O.O.6.oX9X4X&X&X$X&XOX7.z.2.rXrXrXrXb ) ..^ rXrXrXrXrXrXrXrXrXrX",
"rXrXrXrXrXrXrXrXrXrXrXrXrXrXrXrXrXrXrXrXrXrXrXrXrXrXrXrXrXrXrXrX[ { m.B.2.o.h.g.*.A.:X).0.0.0.3.3.K U oX9X9X5X2X%X&X[.!.!.1.rXrXE ! E ! p...rXrXrXrXrXrXrXrXrXrX",
"rXrXrXrXrXrXrXrXrXrXrXrXrXrXrXrXrXrXrXrXrXrXrXrXrXrXrXrXrXrXrX5.w.b.i.{ ` h.g.g.*.A.>X>X-X).0.3.rXrXrXrXoX:X:XoX].C.h 8.8.1.2 rX) ) D ) p./ rXrXrXrXrXrXrXrXrXrX",
"rXrXrXrXrXrXrXrXrXrXrXrXrXrXrXrXrXrXrXrXrXrXrXrXrXrXrXrXrXrXrXR.'.Q.5.Y g.g.g.g.*.[.,X,X,X,X}.W rXrXrXrXrXrXrXrXrXrX2 a 8.a % rXE p.! _ p.^ rXrXrXrXrXrXrXrXrXrX",
"rXrXrXrXrXrXrXrXrXrXrXrXrXrXrXrXrXrXrXrXrXrXrXrXrXrXrXrXrXrX! z.7.r.,.^ h.h.g.g.%.[.,X,X,X>X/.rXrXrXrXrXrXrXrXrXrXrXrX3 q > * + G K E p._ rXrXrXrXrXrXrXrXrXrXrX",
"rXrXrXrXrXrXrXrXrXrXrXrXrXrXrXrXrXrXrXrXrXrXrXrXrXrXrXrXrXrX#.h.g.O./ g.x.h.g.g.z. X,X,X,X_.k u 3 rXrXrXrXrXrXrXrXrXrXM n 5.n.7.Y.~ _ / P rXrXrXrXrXrXrXrXrXrXrX",
"rXrXrXrXrXrXrXrXrXrXrXrXrXrXrXrXrXrXrXrXrXrXrXrXrXrXrXrXrX! d.h.h.g.! j.c.h.g.g.n.>X,X,X|.l k k s y y * rXrXrXrXrXrXrXn p.a.y.T U.T.f rXrXrXrXrXrXrXrXrXrXrXrXrX",
"rXrXrXrXrXrXrXrXrXrXrXrXrXrXrXrXrXrXrXrXrXrXrXrXrXrXrXrXrX#.h.#._ #._ c.k.g.g.g.7.>X,X=Xx k k k k k k k e 3 rXrXrXrXrX+ _ p.2.U ' m rXrXrXrXrXrXrXrXrXrXrXrXrXrX",
"rXrXrXrXrXrXrXrXrXrXrXrXrXrXrXrXrXrXrXrXrXrXrXrXrXrXrXrX#.g.h./ D ( s.k.g.g.g.*.7.,X-X!.k k k k k k k k k k u e rXrXrXrXN ) G :.2.@ rXrXrXrXrXrXrXrXrXrXrXrXrXrX",
"rXrXrXrXrXrXrXrXrXrXrXrXrXrXrXrXrXrXrXrXrXrXrXrXrXrXrXrX! h.h.` m ` x.g.g.g.g.g.5.^.c k k k k k k k k k k k k k s 9 rXrXrXX X o $ rXrXrXrXrXrXrXrXrXrXrXrXrXrXrX",
"rXrXrXrXrXrXrXrXrXrXrXrXrXrXrXrXrXrXrXrXrXrXrXrXrXrXrXrX! h.g./ _ j.k.g.g.g.h.` + & w k k k k k k k k k k k k k k k y < rXrXrXrXrXrXrXrXrXrXrXrXrXrXrXrXrXrXrXrX",
"rXrXrXrXrXrXrXrXrXrXrXrXrXrXrXrXrXrXrXrXrXrXrXrXrXrXrXrXL / / +.h.x.h.g.g.g.g.n   ; 7 p k k k k k k k k k k k k k k k g 0 rXrXrXrXrXrXrXrXrXrXrXrXrXrXrXrXrXrXrX",
"rXrXrXrXrXrXrXrXrXrXrXrXrXrXrXrXrXrXrXrXrXrXrXrXrXrXrXrXrXrX( g.h.x.g.g.g.g.s.rXrXrX& 7 s k k k k k k k k k k k k k k k k r K rXrXrXrXrXrXrXrXrXrXrXrXrXrXrXrXrX",
"rXrXrXrXrXrXrXrXrXrXrXrXrXrXrXrXrXrXrXrXrXrXrXrXrXrXrXrXrXrX%.h.g.h.g.g.g.g._ rXrXrXrXrX= w k k k k k k k k k k k k k k k j E I rXrXrXrXrXrXrXrXrXrXrXrXrXrXrXrX",
"rXrXrXrXrXrXrXrXrXrXrXrXrXrXrXrXrXrXrXrXrXrXrXrXrXrXrXrXrXrXd.g.g.g.g.g.g.g...rXrXrXrXrXrXrX; 9 s k k k k k k k k k k k k >.P ^ I rXrXrXrXrXrXrXrXrXrXrXrXrXrXrX",
"rXrXrXrXrXrXrXrXrXrXrXrXrXrXrXrXrXrXrXrXrXrXrXrXrXrXrXrXrX+.g.g.g.g.g.g.g.+.rXrXrXrXrXrXrXrXrXrX% 9 w 0 u k k k k k k k k >.I ^ I rXrXrXrXrXrXrXrXrXrXrXrXrXrXrX",
"rXrXrXrXrXrXrXrXrXrXrXrXrXrXrXrXrXrXrXrXrXrXrXrXrXrXrXrXrX@.g.g.g.g.g.g.g.rXrXrXrXrXrXrXrXrXrXrXrXrXrXrX= : : < p g k k k k ,.T P rXrXrXrXrXrXrXrXrXrXrXrXrXrXrX",
"rXrXrXrXrXrXrXrXrXrXrXrXrXrXrXrXrXrXrXrXrXrXrXrXrXrXrXrX_ _ #.h.g.g.g.g.+.rXrXrXrXrXrXrXrXrXrXrXrXrXrXrXrXrXrXrX% % 0 k k k j G b rXrXrXrXrXrXrXrXrXrXrXrXrXrXrX",
"rXrXrXrXrXrXrXrXrXrXrXrXrXrXrXrXrXrXrXrXrXrXrXrXrXrXrXrX_ / O.h.g.g.g.O.rXrXrXrXrXrXrXrXrXrXrXrXrXrXrXrXrXrXrXrXrXrX; y k k k k ; rXrXrXrXrXrXrXrXrXrXrXrXrXrXrX",
"rXrXrXrXrXrXrXrXrXrXrXrXrXrXrXrXrXrXrXrXrXrXrXrXrXrX^ ..p.( g.g.g.h.#.rXrXrXrXrXrXrXrXrXrXrXrXrXrXrXrXrXrXrXrXrXrX< p 7 y y k 0 rXrXrXrXrXrXrXrXrXrXrXrXrXrXrXrX",
"rXrXrXrXrXrXrXrXrXrXrXrXrXrXrXrXrXrXrXrXrXrXrXrXrX( p.p...#.h.g.g.#.rXrXrXrXrXrXrXrXrXrXrXrXrXrXrXrXrXrXrXrXrXrXrXy k p < = : o rXrXrXrXrXrXrXrXrXrXrXrXrXrXrXrX",
"rXrXrXrXrXrXrXrXrXrXrXrXrXrXrXrXrXrXrXrXrXrXrXrX( g.s.p./ O.g.g.( P rXrXrXrXrXrXrXrXrXrXrXrXrXrXrXrXrXrXrXrXrXrX> =.j k k p w < rXrXrXrXrXrXrXrXrXrXrXrXrXrXrXrX",
"rXrXrXrXrXrXrXrXrXrXrXrXrXrXrXrXrXrXrXrXrXrXrXQ | %.s.p.p.^ @.+.H rXrXrXrXrXrXrXrXrXrXrXrXrXrXrXrXrXrXrXrXrXrXrXd 9.;.=.=.=.-.3 rXrXrXrXrXrXrXrXrXrXrXrXrXrXrXrX",
"rXrXrXrXrXrXrXrXrXrXrXrXrXrXrXrXrXrXrXrXrXrX<.r.i. .( p.p.p...rXrXrXrXrXrXrXrXrXrXrXrXrXrXrXrXrXrXrXrXrXrXrXrXrX8 I.T.U.;.;.x - rXrXrXrXrXrXrXrXrXrXrXrXrXrXrXrX",
"rXrXrXrXrXrXrXrXrXrXrXrXrXrXrXrXrXrXrXrXrXrXW W.~.b.} Q / +.O.rXrXrXrXrXrXrXrXrXrXrXrXrXrXrXrXrXrXrXrXrXrXrXrXrX< k l I.I.I.f = rXrXrXrXrXrXrXrXrXrXrXrXrXrXrXrX",
"rXrXrXrXrXrXrXrXrXrXrXrXrXrXrXrXrXrXrXrXrXI #.7.}./.5.i.Q T rXrXrXrXrXrXrXrXrXrXrXrXrXrXrXrXrXrXrXrXrXrXrXrXrXrX= p k k 0 s 9 rXrXrXrXrXrXrXrXrXrXrXrXrXrXrXrXrX",
"rXrXrXrXrXrXrXrXrXrXrXrXrXrXrXrXrXrXrXrXrX( g.*.g.y.^.r.(.i.rXrXrXrXrXrXrXrXrXrXrXrXrXrXrXrXrXrXrXrXrXrXrXrXrXrXrXw k 0 0 s = rXrXrXrXrXrXrXrXrXrXrXrXrXrXrXrXrX",
"rXrXrXrXrXrXrXrXrXrXrXrXrXrXrXrXrXrXrXrXrXO.h.g.g.g.a.~.W.rXrXrXrXrXrXrXrXrXrXrXrXrXrXrXrXrXrXrXrXrXrXrXrXrXrXrXrX% 0 9 k w rXrXrXrXrXrXrXrXrXrXrXrXrXrXrXrXrXrX",
"rXrXrXrXrXrXrXrXrXrXrXrXrXrXrXrXrXrXrXrXrXO.h.g.g.g.h.O.rXrXrXrXrXrXrXrXrXrXrXrXrXrXrXrXrXrXrXrXrXrXrXrXrXrXrXrXrX; p k k < rXrXrXrXrXrXrXrXrXrXrXrXrXrXrXrXrXrX",
"rXrXrXrXrXrXrXrXrXrXrXrXrXrXrXrXrXrXrXrXI O.h.g.g.g.%.T rXrXrXrXrXrXrXrXrXrXrXrXrXrXrXrXrXrXrXrXrXrXrXrXrXrXrXrXrX: k k p o rXrXrXrXrXrXrXrXrXrXrXrXrXrXrXrXrXrX",
"rXrXrXrXrXrXrXrXrXrXrXrXrXrXrXrXrXrXrXrX| #.h.g.g.O.o.rXrXrXrXrXrXrXrXrXrXrXrXrXrXrXrXrXrXrXrXrXrXrXrXrXrXrXrXrXrX: k k u o rXrXrXrXrXrXrXrXrXrXrXrXrXrXrXrXrXrX",
"rXrXrXrXrXrXrXrXrXrXrXrXrXrXrXrXrXrXrX( g.g.g.g.#.rXrXrXrXrXrXrXrXrXrXrXrXrXrXrXrXrXrXrXrXrXrXrXrXrXrXrXrXrXrXrXrX- g k i o rXrXrXrXrXrXrXrXrXrXrXrXrXrXrXrXrXrX",
"rXrXrXrXrXrXrXrXrXrXrXrXrXrXrXrXrXrXrX+.g.g.g.g.T rXrXrXrXrXrXrXrXrXrXrXrXrXrXrXrXrXrXrXrXrXrXrXrXrXrXrXrXrXrXrXrX@ M q 4 O rXrXrXrXrXrXrXrXrXrXrXrXrXrXrXrXrXrX",
"rXrXrXrXrXrXrXrXrXrXrXrXrXrXrXrXrXrXrXd.g.g.g.O.rXrXrXrXrXrXrXrXrXrXrXrXrXrXrXrXrXrXrXrXrXrXrXrXrXrXrXrXrXrXrXrXrX# ] Z V v b rXrXrXrXrXrXrXrXrXrXrXrXrXrXrXrXrX",
"rXrXrXrXrXrXrXrXrXrXrXrXrXrXrXrXrXrX+.g.g.g.%.T rXrXrXrXrXrXrXrXrXrXrXrXrXrXrXrXrXrXrXrXrXrXrXrXrXrXrXrXrXrXrXrXrXn A Z V F 1 P rXrXrXrXrXrXrXrXrXrXrXrXrXrXrXrX",
"rXrXrXrXrXrXrXrXrXrXrXrXrXrXrXrXrXrXO.g.g.h.O.rXrXrXrXrXrXrXrXrXrXrXrXrXrXrXrXrXrXrXrXrXrXrXrXrXrXrXrXrXrXrXrXrXH G < t t s b ^ I rXrXrXrXrXrXrXrXrXrXrXrXrXrXrX",
"rXrXrXrXrXrXrXrXrXrXrXrXrXrXrXrXrXrXR O.%.#.R rXrXrXrXrXrXrXrXrXrXrXrXrXrXrXrXrXrXrXrXrXrXrXrXrXrXrXrXrXrXrXrXrXK L 3 u p 9 D ^ ^ T P rXrXrXrXrXrXrXrXrXrXrXrXrX",
"rXrXrXrXrXrXrXrXrXrXrXrXrXrXrXrXrX+ { N.{ [ rXrXrXrXrXrXrXrXrXrXrXrXrXrXrXrXrXrXrXrXrXrXrXrXrXrXrXrXrXrXrXrXrXrXK I M : : , D ^ ^ ^ ^ P m + rXrXrXrXrXrXrXrXrXrX",
"rXrXrXrXrXrXrXrXrXrXrXrXrXrXrXrXrXV m.M.{ [ rXrXrXrXrXrXrXrXrXrXrXrXrXrXrXrXrXrXrXrXrXrXrXrXrXrXrXrXrXrXrXrXrXrXP ^ G k k u D ^ ^ ^ ^ ^ P b m m rXrXrXrXrXrXrXrX",
"rXrXrXrXrXrXrXrXrXrXrXrXrXrXrXrXrX^ B.m.M.Y rXrXrXrXrXrXrXrXrXrXrXrXrXrXrXrXrXrXrXrXrXrXrXrXrXrXrXrXrXrXrXrXrXrXD K n 0 r r 1 K K K K K K L L K n rXrXrXrXrXrXrX",
"rXrXrXrXrXrXrXrXrXrXrXrXrXrXrXrX/ | ( @.o.( rXrXrXrXrXrXrXrXrXrXrXrXrXrXrXrXrXrXrXrXrXrXrXrXrXrXrXrXrXrXrXrXrXrXrXrXrXrXrXrXrXrXrXrXrXrXrXrXrXrXrXrXrXrXrXrXrXrX",
"rXrXrXrXrXrXrXrXrXrXrXrXrXrXrXR %.| %.h.O.R rXrXrXrXrXrXrXrXrXrXrXrXrXrXrXrXrXrXrXrXrXrXrXrXrXrXrXrXrXrXrXrXrXrXrXrXrXrXrXrXrXrXrXrXrXrXrXrXrXrXrXrXrXrXrXrXrXrX",
"rXrXrXrXrXrXrXrXrXrXrXrXrXrXrXR #.#.h.h.o.H rXrXrXrXrXrXrXrXrXrXrXrXrXrXrXrXrXrXrXrXrXrXrXrXrXrXrXrXrXrXrXrXrXrXrXrXrXrXrXrXrXrXrXrXrXrXrXrXrXrXrXrXrXrXrXrXrXrX",
"rXrXrXrXrXrXrXrXrXrXrXrXrXrXrXR O.g.g.h.O.H rXrXrXrXrXrXrXrXrXrXrXrXrXrXrXrXrXrXrXrXrXrXrXrXrXrXrXrXrXrXrXrXrXrXrXrXrXrXrXrXrXrXrXrXrXrXrXrXrXrXrXrXrXrXrXrXrXrX",
"rXrXrXrXrXrXrXrXrXrXrXrXrXrXrXT g.g.g.g.g.( rXrXrXrXrXrXrXrXrXrXrXrXrXrXrXrXrXrXrXrXrXrXrXrXrXrXrXrXrXrXrXrXrXrXrXrXrXrXrXrXrXrXrXrXrXrXrXrXrXrXrXrXrXrXrXrXrXrX",
"rXrXrXrXrXrXrXrXrXrXrXrXrXrXrX| g.g.g.g.g.O.rXrXrXrXrXrXrXrXrXrXrXrXrXrXrXrXrXrXrXrXrXrXrXrXrXrXrXrXrXrXrXrXrXrXrXrXrXrXrXrXrXrXrXrXrXrXrXrXrXrXrXrXrXrXrXrXrXrX",
"rXrXrXrXrXrXrXrXrXrXrXrXrXrXrX/ g.g.g.g.g.g.( rXrXrXrXrXrXrXrXrXrXrXrXrXrXrXrXrXrXrXrXrXrXrXrXrXrXrXrXrXrXrXrXrXrXrXrXrXrXrXrXrXrXrXrXrXrXrXrXrXrXrXrXrXrXrXrXrX",
"rXrXrXrXrXrXrXrXrXrXrXrXrXrXrXrXD D D D D D rXrXrXrXrXrXrXrXrXrXrXrXrXrXrXrXrXrXrXrXrXrXrXrXrXrXrXrXrXrXrXrXrXrXrXrXrXrXrXrXrXrXrXrXrXrXrXrXrXrXrXrXrXrXrXrXrXrX",
"rXrXrXrXrXrXrXrXrXrXrXrXrXrXrXrXrXrXrXrXrXrXrXrXrXrXrXrXrXrXrXrXrXrXrXrXrXrXrXrXrXrXrXrXrXrXrXrXrXrXrXrXrXrXrXrXrXrXrXrXrXrXrXrXrXrXrXrXrXrXrXrXrXrXrXrXrXrXrXrX",
"rXrXrXrXrXrXrXrXrXrXrXrXrXrXrXrXrXrXrXrXrXrXrXrXrXrXrXrXrXrXrXrXrXrXrXrXrXrXrXrXrXrXrXrXrXrXrXrXrXrXrXrXrXrXrXrXrXrXrXrXrXrXrXrXrXrXrXrXrXrXrXrXrXrXrXrXrXrXrXrX",
"rXrXrXrXrXrXrXrXrXrXrXrXrXrXrXrXrXrXrXrXrXrXrXrXrXrXrXrXrXrXrXrXrXrXrXrXrXrXrXrXrXrXrXrXrXrXrXrXrXrXrXrXrXrXrXrXrXrXrXrXrXrXrXrXrXrXrXrXrXrXrXrXrXrXrXrXrXrXrXrX",
"rXrXrXrXrXrXrXrXrXrXrXrXrXrXrXrXrXrXrXrXrXrXrXrXrXrXrXrXrXrXrXrXrXrXrXrXrXrXrXrXrXrXrXrXrXrXrXrXrXrXrXrXrXrXrXrXrXrXrXrXrXrXrXrXrXrXrXrXrXrXrXrXrXrXrXrXrXrXrXrX"
};
