/* XPM */
static char *result[] = {
/* columns rows colors chars-per-pixel */
"80 80 212 2 ",
"   c #4A0715",
".  c #500C15",
"X  c #5A1517",
"o  c #681B1C",
"O  c #6E231F",
"+  c #78271D",
"@  c #560F2F",
"#  c #511528",
"$  c #521429",
"%  c #561B32",
"&  c #5A1E30",
"*  c #661F2B",
"=  c #5D2236",
"-  c #5D243D",
";  c #682226",
":  c #7C2C23",
">  c #72292E",
",  c #7B322D",
"<  c #67273B",
"1  c #6E313E",
"2  c #7B343E",
"3  c #7E4038",
"4  c #5E2641",
"5  c #562748",
"6  c #5C3358",
"7  c #622A45",
"8  c #642D48",
"9  c #762545",
"0  c #6C3242",
"q  c #66314D",
"w  c #6A334C",
"e  c #6A3653",
"r  c #6C3957",
"t  c #6C335C",
"y  c #6E3B5B",
"u  c #793C57",
"i  c #713E5E",
"p  c #6E3561",
"a  c #723F60",
"s  c #7D3F66",
"d  c #7B494C",
"f  c #7A425A",
"g  c #6B4565",
"h  c #734162",
"j  c #684573",
"k  c #794B7A",
"l  c #8A381E",
"z  c #832C24",
"x  c #843223",
"c  c #8D3625",
"v  c #8B3929",
"b  c #963C27",
"n  c #943C2A",
"m  c #822737",
"M  c #873937",
"N  c #9E4B16",
"B  c #AE5615",
"V  c #994422",
"C  c #95402A",
"Z  c #9B412B",
"A  c #8E423E",
"S  c #9B4535",
"D  c #994635",
"F  c #93433C",
"G  c #A64426",
"H  c #A54B2E",
"J  c #AD4B2B",
"K  c #B14E2C",
"L  c #B3512D",
"P  c #B85628",
"I  c #A44B32",
"U  c #AB4D32",
"Y  c #A94C3C",
"T  c #B64C34",
"R  c #AD5232",
"E  c #A9523B",
"W  c #B45332",
"Q  c #B95634",
"!  c #B65A35",
"~  c #BD5C34",
"^  c #B6593B",
"/  c #A86329",
"(  c #BE6037",
")  c #BE623A",
"_  c #C5571B",
"`  c #C67112",
"'  c #C25F36",
"]  c #C6553D",
"[  c #C55E3C",
"{  c #C46C2A",
"}  c #CE782B",
"|  c #C36236",
" . c #C5633A",
".. c #C9663A",
"X. c #C6683C",
"o. c #CD6B3D",
"O. c #D16E3E",
"+. c #D4723F",
"@. c #863946",
"#. c #973A4A",
"$. c #863E56",
"%. c #A63B4E",
"&. c #813F60",
"*. c #894348",
"=. c #974548",
"-. c #85435A",
";. c #8C5152",
":. c #A44A41",
">. c #AC4E4E",
",. c #A85A47",
"<. c #BA5D4A",
"1. c #A75559",
"2. c #B35C58",
"3. c #9D615C",
"4. c #B56547",
"5. c #AC6857",
"6. c #B76A59",
"7. c #834162",
"8. c #88476E",
"9. c #975970",
"0. c #A45162",
"q. c #AE5E6F",
"w. c #99676E",
"e. c #907071",
"r. c #A26763",
"t. c #B96766",
"y. c #B66A78",
"u. c #A9757A",
"i. c #C75847",
"p. c #D3584B",
"a. c #C66341",
"s. c #C76743",
"d. c #CD6B41",
"f. c #D16F41",
"g. c #D57341",
"h. c #D87542",
"j. c #D57749",
"k. c #D57A4C",
"l. c #D16A50",
"z. c #C77956",
"x. c #D97E54",
"c. c #D57F59",
"v. c #DB8800",
"b. c #D5860C",
"n. c #D58615",
"m. c #D78E11",
"M. c #E3A709",
"N. c #D48A34",
"B. c #B4936E",
"V. c #D9994D",
"C. c #DA8359",
"Z. c #D6A956",
"A. c #E0A842",
"S. c #C98E6E",
"D. c #DE8A67",
"F. c #CA9C7A",
"G. c #E28E6B",
"H. c #694E88",
"J. c #734D88",
"K. c #7E6E8A",
"L. c #737DB1",
"P. c #A15C89",
"I. c #836687",
"U. c #8F7390",
"Y. c #8B7896",
"T. c #AE6D8C",
"R. c #A37C88",
"E. c #8F7DA7",
"W. c #A47EA0",
"Q. c #7482BE",
"!. c #A78E88",
"~. c #AB8695",
"^. c #BDBC9C",
"/. c #8883AA",
"(. c #978EAB",
"). c #8E8EB5",
"_. c #AB94AE",
"`. c #B6B6AB",
"'. c #ACADB5",
"]. c #BAA2B9",
"[. c #C0949B",
"{. c #D1B390",
"}. c #C9BEA3",
"|. c #B4C686",
" X c #D7C29D",
".X c #C8C8AA",
"XX c #D5D5B3",
"oX c #D7D8B7",
"OX c #E0E0BE",
"+X c #9A98C8",
"@X c #A59CC6",
"#X c #A29FD0",
"$X c #A7A5C6",
"%X c #B5A9C9",
"&X c #A3A3D4",
"*X c #A8A9D8",
"=X c #B6B6D6",
"-X c #BABADC",
";X c #BDBEE2",
":X c #C4B8D0",
">X c #BFC0D7",
",X c #C9C9C8",
"<X c #D9D9C9",
"1X c #C6C6D8",
"2X c #EAEAD5",
"3X c #C3C3E4",
"4X c #C5C7E9",
"5X c #CDCDE9",
"6X c #EEEEE7",
"7X c #F4F4EE",
"8X c #F5F5F4",
"9X c None",
/* pixels */
"9X9X9X9X9X9X9X9X9X9X9X9X9X9X9X9X9X9X9X9X9X9X9X9X9X9X9X9X9X9X9X9X9X9X9X9X9X9X9X9X9X9X9X9X9X9X9X9X9X9X9X9X9X9X9X9X9X9X9X9X9X9X9X9X9X9X9X9X9X9X9X9X9X9X9X9X9X9X9X9X",
"9X9X9X9X9X9X9X9X9X9X9X9X9X9X9X9X9X9X9X9X9X9X9X9X9X9X9X9X9X9X9X9X9X9X9X9X9X9X9X9X9X9X9X9X9X9X9X9X9X9X9X9X9X9X9X9X9X9X9X9X9X9X9X9X9X9X9X9X9X9X9X9X9X9X9X9X9X9X9X9X",
"9X9X9X9X9X9X9X9X9X9X9X9X9X9X9X9X9X9X9X9X9X9X9X9X9X9X9X9X9X9X9X9X9X9X9X9X9X9X9X9X9X9X9X9X9X9X9X9X9X9X9X9X9X9X9X9X9X9X9X9X9X9X9X9X9X9X9X9X9X9X9X9X9X9X9X9X9X9X9X9X",
"9X9X9X9X9X9X9X9X9X9X9X9X9X9X9X9X9X9X9X9X9X9X9X9X9X9X9X9X9X9X9X9X9X9X9X9X9X9X9X9X9X9X9X9X9X9X9X9X9X9X9X9X9X9X9X9X9X9X9X9X9X9X9X9X9X9X9X9X9X9X9X9X9X9X9X9X9X9X9X9X",
"9X9X9X9X9X9X9X9X9X9X9X9X9X9X9X9X9X9X9X9X9X9X9X9X9X9X9X9X9X9X9X9X9X9X9X9X9X9X9X9X9X9X9X9X9X9X9X9X9X9X9X9X9X9X9X9X9X9X9X9X9X9X9X9X9X9X9X9X9X9X9X9X9X9X9X9X9X9X9X9X",
"9X9X9X9X9X9X9X9X9X9X9X9X9X9X9X9X9X9X9X9X9X9X9X9X9X9X9X9X9X9X9X9X9X9X9X9X9X9X9X9X9X9X9X9X9X9X9X9X9X9X9X9X9X9X9X9X9X9X9X9X9X9X9X9X9X9X9X9X9X9X9X9X9X9X9X9X9X9X9X9X",
"9X9X9X9X9X9X9X9X9X9X9X9X9X9X9X9X9X9X9X9X9X9X9X9X9X9X9X9X9X9X9X9X9X9X9X9X9X9X9X9X9X9X9X9X9X9X9X9X9X9X9X9X9X9X9X9X9X9X9X9X9X9X9X9X9X9X9X9X9X9X9X9X9X9X9X9X9X9X9X9X",
"9X9X9X9X9X9X9X9X9X9X9X9X9X9X9X9X9X9X9X9X9X9X9X9X9X9X9X9X9X9X9X9X9X9X9X9X9X9X9X9X9X9X9X9X9X9X9X9X9X9X9X9X9X9X9X9X9X9X9X9X9X9X9X9X9X9X9X9X9X9X9X9X9X9X9X9X9X9X9X9X",
"9X9X9X9X9X9X9X9X9X9X9X9X9X9X9X9X9X9X9X9X9X9X9X9X9X9X9X9X9X9X9X9X9X9X9X9X9X9X9X9X9X9X9X9X9X9X9X9X9X9X9X9X9X9X9X9X9X9X9X9X9X9X9X9X9X9X9X9X9X9X9X9X9X9X9X9X9X9X9X9X",
"9X9X9X9X9X9X9X9X9X9X9X9X9X9X9X9X9X9X9X9X9X9X9X9X9X9X9X9X9X9X9X9X9X9X9X9X9X9X9X9X9X9X9X9X9X9X9X9X9X9X9X9X9X9X9X9X9X9X9X9X9X9X9X9X9X9X9X9X9X9X9X9X9X9X9X9X9X9X9X9X",
"9X9X9X9X9X9X9X9X9X9X9X9X9X9X9X9X9X9X9X9X9X9X9X9X9X9X9X9X9X9X9X9X9X9X9X9X9X9X9X9X9X9X9X9X9X9X9X9X9X9X9X9X9X9X9X9X9X9X9X9X9X9X9X9X9X9X9X9X9X9X9X9X9X9X9X9X9X9X9X9X",
"9X9X9X9X9X9X9X9X9X9X9X9X9X9X9X9X9X9X9X9X9X9X9X9X9X9X9X9X9X9X9X9X9X9X9X9X9X9X9X9X9X9X9X9X9X9X9X9X9X9X9X9X9X9X9X9X9X9X9X9X9X9X9X9X9X9X9X9X9X9X9X9X9X9X9X9X9X9X9X9X",
"9X9X9X9X9X9X9X9X9X9X9X9X9X9X9X9X9X9X9X9X9X9X9X9X9X9X9X9X9X9X9X9X9X9X9X9X9X9X9X9X9X9X9X9X9X9X9X9X9X9X9X9X9X9X9X9X9X9X9X9X9X9X9X9X9X9X9X9X9X9X9X9X9X9X9X9X9X9X9X9X",
"9X9X9X9X9X9X9X9X9X9X9X9X9X9X9X9X9X9X9X9X9X9X9X9X9X9X9X9X9X9X9X9X9X9X9X9X9X9X9X9X9X9X9X9X9X9X9X9X9X9X9X9X9X9X9X9X9X9X9X9X9X9X9X9X9X9X9X9X9X9X9X9X9X9X9X9X9X9X9X9X",
"9X9X9X9X9X9X9X9X9X9X9X9X9X9X9X9X9X9X9X9X9X9X9X9X9X9X9X9X9X9X9X9X9X9X9X9X9X9X9X9X9X9X9X9X9X9X9X9X9X9X9X9X9X9X9X9X9X9X9X9X9X9X9X9X,X6X8X8X7X.X9X9X9X9X9X9X9X9X9X9X",
"9X9X9X9X9X9X9X9X9X9X9X9X9X9X9X9X9X9X9X9X9X9X9X9X9X9X9X9X9X9X9X9X9X9X9X9X9X9X9X9X9X9X9X9X9X9X9X9X9X9X9X9X9X9X9X9X9X9X9X9X9X9X9X).1X2X7X8X8X6X.X9X9X9X9X9X9X9X9X9X",
"9X9X9X9X9X9X9X9X9X9X9X9X9X9X9X9X9X9X9X9X9X9X9X9X9X9X9X9X9X9X9X9X9X9X9X9X9X9X9X9X9X9X9X9X9X9X9X9X9X9X9X9X9X9X9X9X9X9X9X9X9X9X).*X-X,X<X2X2X2XOX`.9X9X9X9X9X9X9X9X",
"9X9X9X9X9X9X9X9X9X9X9X9X9X9X9X9X9X9X9X9X9X9X9X9X9X9X9X9X9X9X9X9X9X9X9X9X9X9X9X9X9X9X9X9X9X9X9X9X9X9X9X9X9X9X9X9X9X9X9X9X9X9X-X5X-X;X>X,X<X<X<X5X$X9X9X9X9X9X9X9X",
"9X9X9X9X9X9X9X9X9X9X9X9X9X9X9X9X9X9X9X9X9X9X9X9X9X9X9X9X9X9X9X9X9X9X9X9X9X9X9X9X9X9X9X9X9X9X9X9X9X9X9X9X ...d.d.d.d.d.} |.Z.'.%XY.;X].u.(.-X-X3X3X9X9X9X9X9X9X9X",
"9X9X9X9X9X9X9X9X9X9X9X9X9X9X9X9X9X9X9X9X9X9X9X9X9X9X9X9X9X9X9X9X9X9X9X9X9X9X9X9X9X9X9X9X9X9X9X9X9X9Xs.d.g.g.! +.C.G.D.+.!.V.B.d ,.(.[.H , R.%X_.$X9X9X9X9X9X9X9X",
"9X9X9X9X9X9X9X9X9X9X9X9X9X9X9X9X9X9X9X9X9X9X9X9X9X9X9X9X9X9X9X9X9X9X9X9X9X9X9X9X9X9X9X9X9X9X9X9X9XF.o.~ ~ L | h.C.D.C.g.R T n.C : 3.U.*.5 F r.K.9X9X9X9X9X9X9X9X",
"9X9X9X9X9X9X9X9X9X9X9X9X9X9X9X9X9X9X9X9X9X9X9X9X9X9X9X9X9X9X9X9X9X9X9X9X9X9X9X9X9X9X9X9X9X9X9X9XR 4. .^ 6.{ O.o.g.j.j.h.( + _ { : ^ r.6.6.R O 9X9X9X9X9X9X9X9X9X",
"9X9X9X9X9X9X9X9X9X9X9X9X9X9X9X9X9X9X9X9X9X9X9X9X9X9X9X9X9X9X9X9X9X9X9X9X9X9X9X9X9X9X9X9X~ Q ~ o.o...d.o.t.A.+.O...h.h.h.E 1 J P z ^ a.a. .n 9X9X9X9X9X9X9X9X9X9X",
"9X9X9X9X9X9X9X9X9X9X9X9X9X9X9X9X9X9X9X9X9X9X9X9X9X9X9X9X9X9X9X9X9X9X9X9X9X9X9X9X9X9Xd.f.g.h.h.g...g.h.O.2.N.O. .S ( ~ ! V 3 9X9X9Xx W b + 9X9X9X9X9X9X9X9X9X9X9X",
"9X9X9X9X9X9X9X9X9X9X9X9X9X9X9X9X9X9X9X9X9X9X9X9X9X9X9X9X9X9X9X9X9X9X9X9X9X9X9X9X9Xd.g.h.g.g.g.o.U ....d.S.B.2.>.2 d ;.e.B.9X9X9X9X9XX 9X9X9X9X9X9X9X9X9X9X9X9X9X",
"9X9X9X9X9X9X9X9X9X9X9X9X9X9X9X9X9X9X9X9X9X9X9X9X9X9X9X9X9X9X9X9X9X9X9X9X9X9X9X9Xd.g.g.g.g.h.+...! o.d.{.1X4X%X].!.^.oXoX^.9X9X9X9X9X9X9X9X9X9X9X9X9X9X9X9X9X9X9X",
"9X9X9X9X9X9X9X9X9X9X9X9X9X9X9X9X9X9X9X9X9X9X9X9X9X9X9X9X9X9X9X9X9X9X9X9X9X9XK  .g.g.g.g.o.( ( o.h.h.h.F.:X4X4X-X.XXXXXXX^.9X9X9X9X9X9X9X9X9X9X9X9X9X9X9X9X9X9X9X",
"9X9X9X9X9X9X9X9X9X9X9X9X9X9X9X9X9X9X9X9X9X9X9X9X9X9X9X9X9X9X9X9X9X9X9X9X9X9Xy.q.o.h.g.s.S.) g.f.+.+.g.g.y._.:X%X,XXXXXXX'.9X9X9X9X9X9X9X9X9X9X9X9X9X9X9X9X9X9X9X",
"9X9X9X9X9X9X9X9X9X9X9X9X9X9X9X9X9X9X9X9X9X9X9X9X9X9X9X9X9X9X9X9X9X9X9X9X9Xb.N.T.6.o.| z.{. XC.a.<.<.<.<.<.t.6.(.3X,X,X,X/.9X9X9X9X9X9X9X9X9X9X9X9X9X9X9X9X9X9X9X",
"9X9X9X9X9X9X9X9X9X9X9X9X9X9X9X9X9X9X9X9X9X9X9X9X9X9X9X9X9X9X9X9X9X9X9X9Xi.i.m.N.2.o.g.g.k. XF.1.0.0.1.Y 9X9X9X9X=X3X3X@Xf 9X9X9X9X9X9X9X9X9X9X9X9X9X9X9X9X9X9X9X",
"9X9X9X9X9X9X9X9X9X9X9X9X9X9X9X9X9X9X9X9X9X9X9X9X9X9X9X9X9X9X9X9X9X9X9XI.Q.t.s.B  .h.g.g.g.{.}.T.q.1.:.9X9X9X9X9X9XY.U.8.7.=.9X9X9X9X9X9X9X9X9X9X9X9X9X9X9X9X9X9X",
"9X9X9X9X9X9X9X9X9X9X9X9X9X9X9X9X9X9X9X9X9X9X9X9X9X9X9X9X9X9X9X9X9X9X' ,.K.e.z C h.g.g.g.+.S.`.&X@XW.-.9X9X9X9X9X9XM $.7.7.7.=.9X9X9X9X9X9X9X9X9X9X9X9X9X9X9X9X9X",
"9X9X9X9X9X9X9X9X9X9X9X9X9X9X9X9X9X9X9X9X9X9X9X9X9X9X9X9X9X9X9X9XL o.g.+.! M ! g.g.g.g.g.+.z.$X&X&X&Xg e 9X9X9X9X9X9XM u 7.7.-., o 9X9X9X9X9X9X9X9X9X9X9X9X9X9X9X",
"9X9X9X9X9X9X9X9X9X9X9X9X9X9X9X9X9X9X9X9X9X9X9X9X9X9X9X9X9X9X9X9X..h.g.h.R H h.g.g.g.g.g.+.4.#X&X+X+Xh i h 9X9X9X9X9X9X< &.7.$.F ! $.8.9X9Xn K U I b 9X9X9X9X9X9X",
"9X9X9X9X9X9X9X9X9X9X9X9X9X9X9X9X9X9X9X9X9X9X9X9X9X9X9X9X9X9X9X .g.g.h.h.o.! h.g.j.k.g.g.+.~.&X&X#XI.h h h h h 9X9X9X9X9X7 2 M E :.P.^ 9.1. .[ a.a.^ Q 9X9X9X9X9X",
"9X9X9X9X9X9X9X9X9X9X9X9X9X9X9X9X9X9X9X9X9X9X9X9X9X9X9X9X9X9X~ g.g.g.X.o.~ ( g.j.c.j.g.h...~.*X&XU.h h h h h h y 7 9X9X9X9X@.-.<.=.5.G k ^ s.^ I W S v : 9X9X9X9X",
"9X9X9X9X9X9X9X9X9X9X9X9X9X9X9X9X9X9X9X9X9X9X9X9X9X9X9X9X9X9Xo.h.O.( Z R ! g.g.x.x.g.g.+.z.@X*XE.h h h h h h h h h q $ 9X9X> @.*.S *.V u 0 U ^ U v 9X9X9X9X9X9X9X",
"9X9X9X9X9X9X9X9X9X9X9X9X9X9X9X9X9X9X9X9X9X9X9X9X9X9X9X9X9X! g.o.H 9Xx x ! h.j.D.j.g.g.+.6.&XE.r - 8 h h h h h h h h u Z 9X9X          9X9X9Xx c X 9X9X9X9X9X9X9X",
"9X9X9X9X9X9X9X9X9X9X9X9X9X9X9X9X9X9X9X9X9X9X9X9X9X9X9X9X9X9XC c 9X9XR ! g.g.x.C.g.g.h...R./.r e 8 4 % 7 h h h h h h h F K K 9X9X9X9X9X9X9X9X9X9X9X9X9X9X9X9X9X9X",
"9X9X9X9X9X9X9X9X9X9X9X9X9X9X9X9X9X9X9X9X9X9X9X9X9X9X9X9X9X9X9X9X9X9Xo.h.g.h.c.j.g.g.g. .9X# e h h h y 7 q h h h h h h f J W J 9X9X9X9X9X9X9X9X9X9X9X9X9X9X9X9X9X",
"9X9X9X9X9X9X9X9X9X9X9X9X9X9X9X9X9X9X9X9X9X9X9X9X9X9X9X9X9X9X9X9X9X~ g.g.g.j.j.g.g.g.g.s.9X9X& y h h h i e h h h h h h f D L W J 9X9X9X9X9X9X9X9X9X9X9X9X9X9X9X9X",
"9X9X9X9X9X9X9X9X9X9X9X9X9X9X9X9X9X9X9X9X9X9X9X9X9X9X9X9X9X9X9X9X9X..g.g.g.h.g.g.g.g.d.9X9X9X9X- e h h h h h h h h h h h F L W W W 9X9X9X9X9X9X9X9X9X9X9X9X9X9X9X",
"9X9X9X9X9X9X9X9X9X9X9X9X9X9X9X9X9X9X9X9X9X9X9X9X9X9X9X9X9X9X9X9X..g.g.g.g.g.g.g.g.d.9X9X9X9X9X9X9X7 i h h h h h h h h h F L W W W K 9X9X9X9X9X9X9X9X9X9X9X9X9X9X",
"9X9X9X9X9X9X9X9X9X9X9X9X9X9X9X9X9X9X9X9X9X9X9X9X9X9X9X9X9X9X9X9Xo.g.g.g.g.g.g.g.f.9X9X9X9X9X9X9X9X9X# - q i h h h h h h *.K W W W W J 9X9X9X9X9X9X9X9X9X9X9X9X9X",
"9X9X9X9X9X9X9X9X9X9X9X9X9X9X9X9X9X9X9X9X9X9X9X9X9X9X9X9X9X9X9X~ g.g.g.g.g.g.g.g.9X9X9X9X9X9X9X9X9X9X9X9X9X& 4 i a h h h f H W W W W W J 9X9X9X9X9X9X9X9X9X9X9X9X",
"9X9X9X9X9X9X9X9X9X9X9X9X9X9X9X9X9X9X9X9X9X9X9X9X9X9X9X9X9X9XL O.g.g.g.g.g.g.g.9X9X9X9X9X9X9X9X9X9X9X9X9X9X9X9X$ 4 e i h h *.K W W W W W J 9X9X9X9X9X9X9X9X9X9X9X",
"9X9X9X9X9X9X9X9X9X9X9X9X9X9X9X9X9X9X9X9X9X9X9X9X9X9X9X9X9X| ~ g.g.g.g.g.g.f.9X9X9X9X9X9X9X9X9X9X9X9X9X9X9X9X9X9X9X9X4 7 a h F K W W W W K 9X9X9X9X9X9X9X9X9X9X9X",
"9X9X9X9X9X9X9X9X9X9X9X9X9X9X9X9X9X9X9X9X9X9X9X9X9X9X9X| O.o.o.g.g.g.g.g.d.9X9X9X9X9X9X9X9X9X9X9X9X9X9X9X9X9X9X9X9X9X9X9X& q r F J K K K J 9X9X9X9X9X9X9X9X9X9X9X",
"9X9X9X9X9X9X9X9X9X9X9X9X9X9X9X9X9X9X9X9X9X9X9X9X9X9X[ g.g...O.g.g.g.g...9X9X9X9X9X9X9X9X9X9X9X9X9X9X9X9X9X9X9X9X9X9X9X9X9X; & h *.A A M + 9X9X9X9X9X9X9X9X9X9X9X",
"9X9X9X9X9X9X9X9X9X9X9X9X9X9X9X9X9X9X9X9X9X9X9X9XI T ] O.g...g.h.h.O...9X9X9X9X9X9X9X9X9X9X9X9X9X9X9X9X9X9X9X9X9X9X9X9X9X7 *.M f r e = # 9X9X9X9X9X9X9X9X9X9X9X9X",
"9X9X9X9X9X9X9X9X9X9X9X9X9X9X9X9X9X9X9X9X9X9X9XP 5.w.l.[ +.g.g...' Q 9X9X9X9X9X9X9X9X9X9X9X9X9X9X9X9X9X9X9X9X9X9X9X9X9Xw u f I Z X < 8 9X9X9X9X9X9X9X9X9X9X9X9X9X",
"9X9X9X9X9X9X9X9X9X9X9X9X9X9X9X9X9X9X9X9X9X9XK o.d./.u.p. .g.h.~ G 9X9X9X9X9X9X9X9X9X9X9X9X9X9X9X9X9X9X9X9X9X9X9X9X9X9Xj %.$.S *.= r $ 9X9X9X9X9X9X9X9X9X9X9X9X9X",
"9X9X9X9X9X9X9X9X9X9X9X9X9X9X9X9X9X9X9X9X9X9X..h.+.5.L.2.p...X.: 9X9X9X9X9X9X9X9X9X9X9X9X9X9X9X9X9X9X9X9X9X9X9X9X9X9X9X6 k %.#.#.m @.@ 9X9X9X9X9X9X9X9X9X9X9X9X9X",
"9X9X9X9X9X9X9X9X9X9X9X9X9X9X9X9X9X9X9X9X9X| g.g.g.O.w.L.9.] J 9X9X9X9X9X9X9X9X9X9X9X9X9X9X9X9X9X9X9X9X9X9X9X9X9X9X9X9X8 j H.J.J.J.s 9X9X9X9X9X9X9X9X9X9X9X9X9X9X",
"9X9X9X9X9X9X9X9X9X9X9X9X9X9X9X9X9X9X9X9X9Xo.g.g.g.g.g.6.Y.>.9X9X9X9X9X9X9X9X9X9X9X9X9X9X9X9X9X9X9X9X9X9X9X9X9X9X9X9X9X4 h h j 6 6 5 9X9X9X9X9X9X9X9X9X9X9X9X9X9X",
"9X9X9X9X9X9X9X9X9X9X9X9X9X9X9X9X9X9X9X9X .g.g.g.g.g.g.o.9X9X9X9X9X9X9X9X9X9X9X9X9X9X9X9X9X9X9X9X9X9X9X9X9X9X9X9X9X9X9X; w h q 7 7 9X9X9X9X9X9X9X9X9X9X9X9X9X9X9X",
"9X9X9X9X9X9X9X9X9X9X9X9X9X9X9X9X9X9X9X .g.g.g.g.g.g.| 9X9X9X9X9X9X9X9X9X9X9X9X9X9X9X9X9X9X9X9X9X9X9X9X9X9X9X9X9X9X9X9X; r 4 - a y 9X9X9X9X9X9X9X9X9X9X9X9X9X9X9X",
"9X9X9X9X9X9X9X9X9X9X9X9X9X9X9X9X9X9X9X..g.g.g.g.o...9X9X9X9X9X9X9X9X9X9X9X9X9X9X9X9X9X9X9X9X9X9X9X9X9X9X9X9X9X9X9X9X9X; 7 q h h 9X9X9X9X9X9X9X9X9X9X9X9X9X9X9X9X",
"9X9X9X9X9X9X9X9X9X9X9X9X9X9X9X9X9X9X| g.g.g.g.o.~ 9X9X9X9X9X9X9X9X9X9X9X9X9X9X9X9X9X9X9X9X9X9X9X9X9X9X9X9X9X9X9X9X9X9X0 y h h h 9X9X9X9X9X9X9X9X9X9X9X9X9X9X9X9X",
"9X9X9X9X9X9X9X9X9X9X9X9X9X9X9X9X9X~ g.g.g.g.o.9X9X9X9X9X9X9X9X9X9X9X9X9X9X9X9X9X9X9X9X9X9X9X9X9X9X9X9X9X9X9X9X9X9X9X+ q h h h 9X9X9X9X9X9X9X9X9X9X9X9X9X9X9X9X9X",
"9X9X9X9X9X9X9X9X9X9X9X9X9X9X9X9X9XO.g.g.g.o.9X9X9X9X9X9X9X9X9X9X9X9X9X9X9X9X9X9X9X9X9X9X9X9X9X9X9X9X9X9X9X9X9X9X9X9Xo 9 p p t 9X9X9X9X9X9X9X9X9X9X9X9X9X9X9X9X9X",
"9X9X9X9X9X9X9X9X9X9X9X9X9X9X9X9XL g.g.g.O.~ 9X9X9X9X9X9X9X9X9X9X9X9X9X9X9X9X9X9X9X9X9X9X9X9X9X9X9X9X9X9X9X9X9X9X9X9XN ` Z Z : 9X9X9X9X9X9X9X9X9X9X9X9X9X9X9X9X9X",
"9X9X9X9X9X9X9X9X9X9X9X9X9X9X9X` M.} o.O.' 9X9X9X9X9X9X9X9X9X9X9X9X9X9X9X9X9X9X9X9X9X9X9X9X9X9X9X9X9X9X9X9X9X9X9X9X9Xb B v.v.B o 9X9X9X9X9X9X9X9X9X9X9X9X9X9X9X9X",
"9X9X9X9X9X9X9X9X9X9X9X9X9X9XP n.M.b.` | 9X9X9X9X9X9X9X9X9X9X9X9X9X9X9X9X9X9X9X9X9X9X9X9X9X9X9X9X9X9X9X9X9X9X9X9X9XK n * / / l J J 9X9X9X9X9X9X9X9X9X9X9X9X9X9X9X",
"9X9X9X9X9X9X9X9X9X9X9X9X9X9X..{ m.b.n.9X9X9X9X9X9X9X9X9X9X9X9X9X9X9X9X9X9X9X9X9X9X9X9X9X9X9X9X9X9X9X9X9X9X9X9X9X9XL S - y a ; K W J G 9X9X9X9X9X9X9X9X9X9X9X9X9X",
"9X9X9X9X9X9X9X9X9X9X9X9X9Xo.O.g.o.P V 9X9X9X9X9X9X9X9X9X9X9X9X9X9X9X9X9X9X9X9X9X9X9X9X9X9X9X9X9X9X9X9X9X9X9X9X9XK L S r - 4 > K W W L J Z b 9X9X9X9X9X9X9X9X9X9X",
"9X9X9X9X9X9X9X9X9X9X9X9X .o...g.h.o.9X9X9X9X9X9X9X9X9X9X9X9X9X9X9X9X9X9X9X9X9X9X9X9X9X9X9X9X9X9X9X9X9X9X9X9X9X9XG Q U f e 8 u Z J W W W W W H 9X9X9X9X9X9X9X9X9X",
"9X9X9X9X9X9X9X9X9X9X9X9X! ! o.g.g.| 9X9X9X9X9X9X9X9X9X9X9X9X9X9X9X9X9X9X9X9X9X9X9X9X9X9X9X9X9X9X9X9X9X9X9X9X9X9Xc c c < 8 8 -   + c c c c c c O 9X9X9X9X9X9X9X9X",
"9X9X9X9X9X9X9X9X9X9X9X9XC ..h.g.h. .9X9X9X9X9X9X9X9X9X9X9X9X9X9X9X9X9X9X9X9X9X9X9X9X9X9X9X9X9X9X9X9X9X9X9X9X9X9X9X9X9X9X9X9X9X9X9X9X9X9X9X9X9X9X9X9X9X9X9X9X9X9X",
"9X9X9X9X9X9X9X9X9X9X9XH ! h.g.g.g.O.9X9X9X9X9X9X9X9X9X9X9X9X9X9X9X9X9X9X9X9X9X9X9X9X9X9X9X9X9X9X9X9X9X9X9X9X9X9X9X9X9X9X9X9X9X9X9X9X9X9X9X9X9X9X9X9X9X9X9X9X9X9X",
"9X9X9X9X9X9X9X9X9X9X9X! ( h.g.g.g.O.9X9X9X9X9X9X9X9X9X9X9X9X9X9X9X9X9X9X9X9X9X9X9X9X9X9X9X9X9X9X9X9X9X9X9X9X9X9X9X9X9X9X9X9X9X9X9X9X9X9X9X9X9X9X9X9X9X9X9X9X9X9X",
"9X9X9X9X9X9X9X9X9X9X9X( g.h.h.h.h.h.g.9X9X9X9X9X9X9X9X9X9X9X9X9X9X9X9X9X9X9X9X9X9X9X9X9X9X9X9X9X9X9X9X9X9X9X9X9X9X9X9X9X9X9X9X9X9X9X9X9X9X9X9X9X9X9X9X9X9X9X9X9X",
"9X9X9X9X9X9X9X9X9X9X9XH R R R R H v x . 9X9X9X9X9X9X9X9X9X9X9X9X9X9X9X9X9X9X9X9X9X9X9X9X9X9X9X9X9X9X9X9X9X9X9X9X9X9X9X9X9X9X9X9X9X9X9X9X9X9X9X9X9X9X9X9X9X9X9X9X",
"9X9X9X9X9X9X9X9X9X9X9X9X9X9X9X9X9X9X9X9X9X9X9X9X9X9X9X9X9X9X9X9X9X9X9X9X9X9X9X9X9X9X9X9X9X9X9X9X9X9X9X9X9X9X9X9X9X9X9X9X9X9X9X9X9X9X9X9X9X9X9X9X9X9X9X9X9X9X9X9X",
"9X9X9X9X9X9X9X9X9X9X9X9X9X9X9X9X9X9X9X9X9X9X9X9X9X9X9X9X9X9X9X9X9X9X9X9X9X9X9X9X9X9X9X9X9X9X9X9X9X9X9X9X9X9X9X9X9X9X9X9X9X9X9X9X9X9X9X9X9X9X9X9X9X9X9X9X9X9X9X9X",
"9X9X9X9X9X9X9X9X9X9X9X9X9X9X9X9X9X9X9X9X9X9X9X9X9X9X9X9X9X9X9X9X9X9X9X9X9X9X9X9X9X9X9X9X9X9X9X9X9X9X9X9X9X9X9X9X9X9X9X9X9X9X9X9X9X9X9X9X9X9X9X9X9X9X9X9X9X9X9X9X",
"9X9X9X9X9X9X9X9X9X9X9X9X9X9X9X9X9X9X9X9X9X9X9X9X9X9X9X9X9X9X9X9X9X9X9X9X9X9X9X9X9X9X9X9X9X9X9X9X9X9X9X9X9X9X9X9X9X9X9X9X9X9X9X9X9X9X9X9X9X9X9X9X9X9X9X9X9X9X9X9X",
"9X9X9X9X9X9X9X9X9X9X9X9X9X9X9X9X9X9X9X9X9X9X9X9X9X9X9X9X9X9X9X9X9X9X9X9X9X9X9X9X9X9X9X9X9X9X9X9X9X9X9X9X9X9X9X9X9X9X9X9X9X9X9X9X9X9X9X9X9X9X9X9X9X9X9X9X9X9X9X9X",
"9X9X9X9X9X9X9X9X9X9X9X9X9X9X9X9X9X9X9X9X9X9X9X9X9X9X9X9X9X9X9X9X9X9X9X9X9X9X9X9X9X9X9X9X9X9X9X9X9X9X9X9X9X9X9X9X9X9X9X9X9X9X9X9X9X9X9X9X9X9X9X9X9X9X9X9X9X9X9X9X",
"9X9X9X9X9X9X9X9X9X9X9X9X9X9X9X9X9X9X9X9X9X9X9X9X9X9X9X9X9X9X9X9X9X9X9X9X9X9X9X9X9X9X9X9X9X9X9X9X9X9X9X9X9X9X9X9X9X9X9X9X9X9X9X9X9X9X9X9X9X9X9X9X9X9X9X9X9X9X9X9X"
};
