/* XPM */
static char *result[] = {
/* columns rows colors chars-per-pixel */
"80 80 208 2 ",
"   c #4A0A1D",
".  c #550D1A",
"X  c #56181E",
"o  c #641A1A",
"O  c #73251D",
"+  c #7B281F",
"@  c #4D1023",
"#  c #571923",
"$  c #561C32",
"%  c #741420",
"&  c #5C223B",
"*  c #772A27",
"=  c #602636",
"-  c #763537",
";  c #592442",
":  c #612A44",
">  c #642E4A",
",  c #68324C",
"<  c #7A3846",
"1  c #6A3653",
"2  c #6A3858",
"3  c #753B54",
"4  c #723F5C",
"5  c #703F60",
"6  c #7D4456",
"7  c #77415B",
"8  c #7E555B",
"9  c #734263",
"0  c #664B7D",
"q  c #8F2F1B",
"w  c #87301D",
"e  c #822D22",
"r  c #8A3526",
"t  c #8C3624",
"y  c #89362A",
"u  c #963D27",
"i  c #953F28",
"p  c #883A38",
"a  c #903932",
"s  c #A6282E",
"d  c #9B4719",
"f  c #A8481D",
"g  c #AA5B11",
"h  c #AA5813",
"j  c #B4640C",
"k  c #B36514",
"l  c #9C4126",
"z  c #9B432A",
"x  c #8E4439",
"c  c #974537",
"v  c #9A4536",
"b  c #A24425",
"n  c #A94625",
"m  c #AD4B27",
"M  c #A2462A",
"N  c #A84729",
"B  c #A3492D",
"V  c #AC4B2C",
"C  c #B14E2C",
"Z  c #AB5922",
"A  c #B55824",
"S  c #B5512E",
"D  c #B9562F",
"F  c #AB4F32",
"G  c #B04F30",
"H  c #AE5238",
"J  c #B55331",
"K  c #B95634",
"L  c #BC5B34",
"P  c #B65539",
"I  c #BD5B3A",
"U  c #BE6134",
"Y  c #CC5A14",
"T  c #C56D16",
"R  c #CF7614",
"E  c #CD7E14",
"W  c #C64735",
"Q  c #C15E35",
"!  c #C4563F",
"~  c #C15E3A",
"^  c #C66C22",
"/  c #D2742F",
"(  c #C56136",
")  c #C5633B",
"_  c #C9663B",
"`  c #CC6A3D",
"'  c #D16E3F",
"]  c #D7743C",
"[  c #8B3D48",
"{  c #953648",
"}  c #9B3C57",
"|  c #A2384E",
" . c #884248",
".. c #964A44",
"X. c #814456",
"o. c #974657",
"O. c #8E545C",
"+. c #9E5F51",
"@. c #A84D46",
"#. c #A35446",
"$. c #AA584E",
"%. c #BD5C51",
"&. c #BB6546",
"*. c #B7624B",
"=. c #B76856",
"-. c #BC7856",
";. c #895768",
":. c #8E4770",
">. c #80527F",
",. c #A25063",
"<. c #8F6070",
"1. c #926771",
"2. c #A96B65",
"3. c #B76869",
"4. c #A87665",
"5. c #B56471",
"6. c #BB7672",
"7. c #C25545",
"8. c #CC5C51",
"9. c #C66342",
"0. c #CA6642",
"q. c #CD6B42",
"w. c #CC614E",
"e. c #CC6D49",
"r. c #D16E41",
"t. c #DC644D",
"y. c #D67342",
"u. c #D87543",
"i. c #D77847",
"p. c #D6774A",
"a. c #D67A4C",
"s. c #D97A4C",
"d. c #CC7259",
"f. c #D47D54",
"g. c #C27862",
"h. c #D08F0F",
"j. c #CD8211",
"k. c #D28218",
"l. c #CE9318",
"z. c #E0A009",
"x. c #DD8F38",
"c. c #E39822",
"v. c #ECCD02",
"b. c #DDD62E",
"n. c #A99056",
"m. c #BF9371",
"M. c #D68354",
"N. c #DB8159",
"B. c #EA874E",
"V. c #DC8763",
"C. c #D68E61",
"Z. c #D69B70",
"A. c #E69474",
"S. c #CFA47E",
"D. c #AFDD7A",
"F. c #745289",
"G. c #7E7499",
"H. c #7A78A4",
"J. c #A85A92",
"K. c #8D788A",
"L. c #947588",
"P. c #93758D",
"I. c #A86E8B",
"U. c #7480B5",
"Y. c #7A89CD",
"T. c #6C96D8",
"R. c #98859E",
"E. c #9B9A9D",
"W. c #AA9096",
"Q. c #B9A989",
"!. c #968BAC",
"~. c #8B8BB5",
"^. c #9794B7",
"/. c #B39BAD",
"(. c #AC95B4",
"). c #BFA1AA",
"_. c #A8A9B7",
"`. c #B5B4BB",
"'. c #C68888",
"]. c #C49387",
"[. c #CC8C95",
"{. c #D4A983",
"}. c #CDB894",
"|. c #D4BA96",
" X c #D7C4A0",
".X c #D6CDAB",
"XX c #CAC8B0",
"oX c #D7D7B6",
"OX c #D6D8B7",
"+X c #D8D8BB",
"@X c #979BC9",
"#X c #A79EC9",
"$X c #A6A5D3",
"%X c #B4B5D4",
"&X c #BCBCDE",
"*X c #BBBCE2",
"=X c #C0BEDF",
"-X c #D6D6CA",
";X c #CBCBD0",
":X c #DADAD7",
">X c #E7E7C8",
",X c #EAEAD6",
"<X c #C2C3E7",
"1X c #C8C9EB",
"2X c #EFEFE7",
"3X c #F3F3EB",
"4X c #F6F6F5",
"5X c None",
/* pixels */
"5X5X5X5X5X5X5X5X5X5X5X5X5X5X5X5X5X5X5X5X5X5X5X5X5X5X5X5X5X5X5X5X5X5X5X5X5X5X5X5X5X5X5X5X5X5X5X5X5X5X5X5X5X5X5X5X5X5X5X5X5X5X5X5X5X5X5X5X5X5X5X5X5X5X5X5X5X5X5X5X",
"5X5X5X5X5X5X5X5X5X5X5X5X5X5X5X5X5X5X5X5X5X5X5X5X5X5X5X5X5X5X5X5X5X5X5X5X5X5X5X5X5X5X5X5X5X5X5X5X5X5X5X5X5X5X5X5X5X5X5X5X5X5X5X5X5X5X5X5X5X5X5X5X5X5X5X5X5X5X5X5X",
"5X5X5X5X5X5X5X5X5X5X5X5X5X5X5X5X5X5X5X5X5X5X5X5X5X5X5X5X5X5X5X5X5X5X5X5X5X5X5X5X5X5X5X5X5X5X5X5X5X5X5X5X5X5X5X5X5X5X5X5X5X5X5X5X5X5X5X5X5X5X5X5X5X5X5X5X5X5X5X5X",
"5X5X5X5X5X5X5X5X5X5X5X5X5X5X5X5X5X5X5X5X5X5X5X5X5X5X5X5X5X5X5X5X5X5X5X5X5X5X5X5X5X5X5X5X5X5X5X5X5X5X5X5X5X5X5X5X5X5X5X5X5X5X5X5X5X5X5X5X5X5X5X5X5X5X5X5X5X5X5X5X",
"5X5X5X5X5X5X5X5X5X5X5X5X5X5X5X5X5X5X5X5X5X5X5X5X5X5X5X5X5X5X5X5X5X5X5X5X5X5X5X5X5X5X5X5X5X5X5X5X5X5X5X5X5X5X5X5X5X5X5X5X5X5X5X5X5X5X5X5X5X5X5X5X5X5X5X5X5X5X5X5X",
"5X5X5X5X5X5X5X5X5X5X5X5X5X5X5X5X5X5X5X5X5X5X5X5X5X5X5X5X5X5X5X5X5X5X5X5X5X5X5X5X5X5X5X5X5X5X5X5X5X5X5X5X5X5X5X5X5X5X5X5X5X5X5X5X5X5X5X5X5X5X5X5X5X5X5X5X5X5X5X5X",
"5X5X5X5X5X5X5X5X5X5X5X5X5X5X5X5X5X5X5X5X5X5X5X5X5X5X5X5X5X5X5X5X5X5X5X5X5X5X5X5X5X5X5X5X5X5X5X5X5X5X5X5X5X5X5X5X5X5X5X5X5X5X5X5X5X5X5X5X5X5X5X5X5X5X5X5X5X5X5X5X",
"5X5X5X5X5X5X5X5X5X5X5X5X5X5X5X5X5X5X5X5X5X5X5X5X5X5X5X5X5X5X5X5X5X5X5X5X5X5X5X5X5X5X5X5X5X5X5X5X5X5X5X5X5X5X5X5X5X5X5X5X5X5X5X5X5X5X5X5X5X5X5X5X5X5X5X5X5X5X5X5X",
"5X5X5X5X5X5X5X5X5X5X5X5X5X5X5X5X5X5X5X5X5X5X5X5X5X5X5X5X5X5X5X5X5X5X5X5X5X5X5X5X5X5X5X5X5X5X5X5X5X5X5X5X5X5X5X5X5X5X5X5X5X5X5X5X5X5X5X5X5X5X5X5X5X5X5X5X5X5X5X5X",
"5X5X5X5X5X5X5X5X5X5X5X5X5X5X5X5X5X5X5X5X5X5X5X5X5X5X5X5X5X5X5X5X5X5X5X5X5X5X5X5X5X5X5X5X5X5X5X5X5X5X5X5X5X5X5X5X5X5X5X5X5X5X5X5X5X5X5X5X5X5X5X5X5X5X5X5X5X5X5X5X",
"5X5X5X5X5X5X5X5X5X5X5X5X5X5X5X5X5X5X5X5X5X5X5X5X5X5X5X5X5X5X5X5X5X5X5X5X5X5X5X5X5X5X5X5X5X5X5X5X5X5X5X5X5X5X5X5X5X5X5X5X5X5X5X5X5X5X5X5X5X5X5X5X5X5X5X5X5X5X5X5X",
"5X5X5X5X5X5X5X5X5X5X5X5X5X5X5X5X5X5X5X5X5X5X5X5X5X5X5X5X5X5X5X5X5X5X5X5X5X5X5X5X5X5X5X5X5X5X5X5X5X5X5X5X5X5X5X5X5X5X5X5X5X5X5X5X5X5X5X5X5X5X5X5X5X5X5X5X5X5X5X5X",
"5X5X5X5X5X5X5X5X5X5X5X5X5X5X5X5X5X5X5X5X5X5X5X5X5X5X5X5X5X5X5X5X5X5X5X5X5X5X5X5X5X5X5X5X5X5X5X5X5X5X5X5X5X5X5X5X5X5X5X5X5X5X5X5X5X5X5X5X5X5X5X5X5X5X5X5X5X5X5X5X",
"5X5X5X5X5X5X5X5X5X5X5X5X5X5X5X5X5X5X5X5X5X5X5X5X5X5X5X5X5X5X5X5X5X5X5X5X5X5X5X5X5X5X5X5X5X5X5X5X5X5X5X5X5X5X5X5X5X5X5X5X5X5X5X5X5X5X5X5X5X5X5X5X5X5X5X5X5X5X5X5X",
"5X5X5X5X5X5X5X5X5X5X5X5X5X5X5X5X5X5X5X5X5X5X5X5X5X5X5X5X5X5X5X5X5X5X5X5X5X5X5X5X5X5X5X5X5X5X5X5X5X5X5X5X5X5X5X5X5X5X5X5X5X5X5X5X5X5X5X5X5X5X5X5X5X5X5X5X5X5X5X5X",
"5X5X5X5X5X5X5X5X5X5X5X5X5X5X5X5X5X5X5X5X5X5X5X5X5X5X5X5X5X5X5X5X5X5X5X5X5X5X5X5X5X5X5X5X5X5X5X5X5X5X5X5X5X5X5X5X5X5X5X5X5X5X5X5X5X5X5X5X5X5X5X5X5X5X5X5X5X5X5X5X",
"5X5X5X5X5X5X5X5X5X5X5X5X5X5X5X5X5X5X5X5X5X5X5X5X5X5X5X5X5X5X5X5X5X5X5X5X5X5X5X5X5X5X5X5X5X5X5X5X5X5X5X5X5X5X5X5X5X5X5X5X5X5X5X2X5X5X5X5X5X5X5X5X5X5X5X5X5X5X5X5X",
"5X5X5X5X5X5X5X5X5X5X5X5X5X5X5X5X5X5X5X5X5X5X5X5X5X5X5X5X5X5X5X5X5X5X5X5X5X5X5X5X5X5X5X5X5X5X5X5X5X5X5X5X5X5X5X5X5X5X5X5X5X@X:X4X4X4X3XOX5X5X5X5X5X5X5X5X5X5X5X5X",
"5X5X5X5X5X5X5X5X5X5X5X5X5X5X5X5X5X5X5X5X5X5X5X5X5X5X5X5X5X5X5X5X5X5X5X5X5X5X5X5X5X5X5X5X5X5X5X5X5X5X5X5X5X5X5X5X5X5X5X5X^.$X;X,X3X4X4X,XXX5X5X5X5X5X5X5X5X5X5X5X",
"5X5X5X5X5X5X5X5X5X5X5X5X5X5X5X5X5X5X5X5X5X5X5X5X5X5X5X5X5X5X5X5X5X5X5X5X5X5X5X5X5X5X5X5X5X5X5X5X5X5X5X5X5X5X5X5X5X5X5X~.%X<X&X&X-X-X>X>X+X_.5X5X5X5X5X5X5X5X5X5X",
"5X5X5X5X5X5X5X5X5X5X5X5X5X5X5X5X5X5X5X5X5X5X5X5X5X5X5X5X5X5X5X5X5X5X5X5X5X5X5X5X5X5X5X5X5X5X5X5X5X5X5X5X5X5X5X5X5X5X5X5X<X1X%X<X`.XX:X;X;X&X5X5X5X5X5X5X5X5X5X5X",
"5X5X5X5X5X5X5X5X5X5X5X5X5X5X5X5X5X5X5X5X5X5X5X5X5X5X5X5X5X5X5X5X5X5X5X5X5X5X5X5X5X5X5X5X5X5X5X5X5X_ q.I S S k v.D.@XB.b.%XP.R.<X].+.!.*X`.&X$X5X5X5X5X5X5X5X5X5X",
"5X5X5X5X5X5X5X5X5X5X5X5X5X5X5X5X5X5X5X5X5X5X5X5X5X5X5X5X5X5X5X5X5X5X5X5X5X5X5X5X5X5X5X5X5X5X5X5XI _ y.y.y.` U l.n.T.I.x.4.p #.^.6.t = ^.E.^.5X5X5X5X5X5X5X5X5X5X",
"5X5X5X5X5X5X5X5X5X5X5X5X5X5X5X5X5X5X5X5X5X5X5X5X5X5X5X5X5X5X5X5X5X5X5X5X5X5X5X5X5X5X5X5X5X5X5X}.a.y.y.y.` ` ` q.e.4.F.W R w * 2.2.O.1 ..8 5X5X5X5X5X5X5X5X5X5X5X",
"5X5X5X5X5X5X5X5X5X5X5X5X5X5X5X5X5X5X5X5X5X5X5X5X5X5X5X5X5X5X5X5X5X5X5X5X5X5X5X5X5X5X5X5X5X5XS.oXZ.y.y.` _ y.s.A.A.u.6 } Y A y 9.=.e.e.B 5X5X5X5X5X5X5X5X5X5X5X5X",
"5X5X5X5X5X5X5X5X5X5X5X5X5X5X5X5X5X5X5X5X5X5X5X5X5X5X5X5X5X5X5X5X5X5X5X5X5X5X5X5X5X5X5X5XD ` S.OX.XM.y.Q ' y.p.V.V.u.2.o.q o O I 0.I H O 5X5X5X5X5X5X5X5X5X5X5X5X",
"5X5X5X5X5X5X5X5X5X5X5X5X5X5X5X5X5X5X5X5X5X5X5X5X5X5X5X5X5X5X5X5X5X5X5X5X5X5X5X5X5X5X5X0.r.y.f..XoXZ._ S Q _ y.u.u.y.I 5X5X5X5Xe z O 5X5X5X5X5X5X5X5X5X5X5X5X5X5X",
"5X5X5X5X5X5X5X5X5X5X5X5X5X5X5X5X5X5X5X5X5X5X5X5X5X5X5X5X5X5X5X5X5X5X5X5X5X5X5X5X5X5X5Xr.y.r.u.{.OX.X-.a @.@.D D _ q.r 5X5X5X5X5X5X5X5X5X5X5X5X5X5X5X5X5X5X5X5X5X",
"5X5X5X5X5X5X5X5X5X5X5X5X5X5X5X5X5X5X5X5X5X5X5X5X5X5X5X5X5X5X5X5X5X5X5X5X5X5X5X5X5X0.y.y.y.q.y.p.|.OXoXP.[ P ' ` ( B 5X5X5X5X5X5X5X5X5X5X5X5X5X5X5X5X5X5X5X5X5X5X",
"5X5X5X5X5X5X5X5X5X5X5X5X5X5X5X5X5X5X5X5X5X5X5X5X5X5X5X5X5X5X5X5X5X5X5X5X5X5X5X5XQ.{.a.u.y.q.y.y.M. X;X=XW.&.] c.l.E A 5X5X5X5X5X5X5X5X5X5X5X5X5X5X5X5X5X5X5X5X5X",
"5X5X5X5X5X5X5X5X5X5X5X5X5X5X5X5X5X5X5X5X5X5X5X5X5X5X5X5X5X5X5X5X5X5X5X5X5X5X5X5Xm.}.|.{.i.' _ _ _ q.).*X1X).^ 6.[.'.H 5X5X5X5X5X5X5X5X5X5X5X5X5X5X5X5X5X5X5X5X5X",
"5X5X5X5X5X5X5X5X5X5X5X5X5X5X5X5X5X5X5X5X5X5X5X5X5X5X5X5X5X5X5X5X5X5X5X5X5X5X5Xm L ` C..X].=.$.a q 5XR.*X1X/.,.%.y.u._ B z 5X5X5X5X5X5X5X5X5X5X5X5X5X5X5X5X5X5X5X",
"5X5X5X5X5X5X5X5X5X5X5X5X5X5X5X5X5X5X5X5X5X5X5X5X5X5X5X5X5X5X5X5X5X5X5X5X5X5XJ _ y.y.y.].$XI.o.a 5X5X5X%X*X%X3.' y.y._ u P F 5X5X5X5X5X5X5X5X5X5X5X5X5X5X5X5X5X5X",
"5X5X5X5X5X5X5X5X5X5X5X5X5X5X5X5X5X5X5X5X5X5X5X5X5X5X5X5X5X5X5X5X5X5X5X5X5X~ 0.y.y.y.y.g.#X#X;.5X5X5X5X5X@X~.#.y.y.y.y.V r P * 5X5X5X5X5X5X5X5X5X5X5X5X5X5X5X5X5X",
"5X5X5X5X5X5X5X5X5X5X5X5X5X5X5X5X5X5X5X5X5X5X5X5X5X5X5X5X5X5X5X5X5X5X5X5XQ r.y.y.y.y.y.9.(.$X5X5X5X5X5X5X5X5X5X` y.y.y.S . o 5X5X5X5X5X5X5X5X5X5X5X5X5X5X5X5X5X5X",
"5X5X5X5X5X5X5X5X5X5X5X5X5X5X5X5X5X5X5X5X5X5X5X5X5X5X5X5X5X5X5X5X5X5X5X5X` y.y.y.y.y.' K (._.5X5X5X5X5X5X5X5X5X) y.y.` J 5X5X5X5X5X5X5X5X5X5X5X5X5X5X5X5X5X5X5X5X",
"5X5X5X5X5X5X5X5X5X5X5X5X5X5X5X5X5X5X5X5X5X5X5X5X5X5X5X5X5X5X5X5X5X5X5X) y.y.y.y.y.y.r.L 2.W.5X5X5X5X5X5X5X5X5X_ y.y.` ) J 5X5X5X5X5X5X5X5X5X5X5X5X5X5X5X5X5X5X5X",
"5X5X5X5X5X5X5X5X5X5X5X5X5X5X5X5X5X5X5X5X5X5X5X5X5X5X5X5X5X5X5X5X5X5X5Xq.y.y.y.y.y.u.a.y.r.) 5X5X5X5X5X5X5X5X5XK r.y.y.y.y.y._ _ 5X5X5X5X5X5X5X5X5X5X5X5X5X5X5X5X",
"5X5X5X5X5X5X5X5X5X5X5X5X5X5X5X5X5X5X5X5X5X5X5X5X5X5X5X5X5X5X5X5X5X5X5X0.y.y.y.y.y.y.a.f.s.y.r.r.5X5X5X5X5X5X5Xz ' y.y.y.y.y.y.y.` 3.5X5X5X5X5X5Xm m m 5X5X5X5X5X",
"5X5X5X5X5X5X5X5X5X5X5X5X5X5X5X5X5X5X5X5X5X5X5X5X5X5X5X5X5X5X5X5X5X5X5X~ y.y.y.y.y.y.y.s.V.N.u.y.r.q.5X5X5X5X5X5X_ y.y.y.y.y.y.y.u.*.5.T K +.G D J J J 5X5X5X5X5X",
"5X5X5X5X5X5X5X5X5X5X5X5X5X5X5X5X5X5X5X5X5X5X5X5X5X5X5X5X5X5X5X5X5X5X5X5X_ y.y.y.y.y.y.y.u.N.N.u.y.y.q.5X5X5X5X5Xz B L r.` ' y.u.y.5.I.h.w.K.&.` K L L F 5X5X5X5X",
"5X5X5X5X5X5X5X5X5X5X5X5X5X5X5X5X5X5X5X5X5X5X5X5X5X5X5X5X5X5X5X5X5X5X5X5XS _ y.y.y.y.y.y.y.y.p.N.p.y.y.r.5X5X5X5X5X5X5Xi u m _ I I J.g.k.%.G.&.u.y.u.u.y.I 5X5X5X",
"5X5X5X5X5X5X5X5X5X5X5X5X5X5X5X5X5X5X5X5X5X5X5X5X5X5X5X5X5X5X5X5X5X5X5X5X5X5X) q.y.y.y.y.y.y.y.y.p.y.y.y.y.~ 5X5X5X5X5X5X5X5X5X5X5X5XZ b c ;.q.' r.r.y.u.u.K 5X5X",
"5X5X5X5X5X5X5X5X5X5X5X5X5X5X5X5X5X5X5X5X5X5X5X5X5X5X5X5X5X5X5X5X5X5X5X5X5X5Xy I 0.r.y.y.y.y.y.y.y.y.y.y.y.r.5X5X5X5X5X5X5X5X5X5X5X5X5X5X5X5X5Xm l B _ U ) J 5X5X",
"5X5X5X5X5X5X5X5X5X5X5X5X5X5X5X5X5X5X5X5X5X5X5X5X5X5X5X5X5X5X5X5X5X5X5X5X5X5X5Xp ~ 0.q.y.y.y.y.y.y.y.y.y.y.y.' D 5X5X5X5X5X5X5X5X5X5X5X5X5X5X5X5X5X5X5X5X5X5X5X5X",
"5X5X5X5X5X5X5X5X5X5X5X5X5X5X5X5X5X5X5X5X5X5X5X5X5X5X5X5X5X5X5X5X5X5X5X5X5X5X5X1 ..) 9.0.q.y.y.y.y.y.y.y.y.y.y.` S 5X5X5X5X5X5X5X5X5X5X5X5X5X5X5X5X5X5X5X5X5X5X5X",
"5X5X5X5X5X5X5X5X5X5X5X5X5X5X5X5X5X5X5X5X5X5X5X5X5X5X5X5X5X5X5X5X5X5X5X5X5X5X5X> 7 ..I 9.9.0.q.r.y.y.y.y.y.y.y.y._ 5X5X5X5X5X5X5X5X5X5X5X5X5X5X5X5X5X5X5X5X5X5X5X",
"5X5X5X5X5X5X5X5X5X5X5X5X5X5X5X5X5X5X5X5X5X5X5X5X5X5X5X5X5X5X5X5X5X5X5X5X5X5X5X5X> 9 X.@.~ 9.9.9.q.y.y.y.y.y.y.y.y.( 5X5X5X5X5X5X5X5X5X5X5X5X5X5X5X5X5X5X5X5X5X5X",
"5X5X5X5X5X5X5X5X5X5X5X5X5X5X5X5X5X5X5X5X5X5X5X5X5X5X5X5X5X5X5X5X5X5X5X5X5X5X5X5X5X; 5 9  .#.I ~ 9.9.q.r.y.y.y.y.y.y.Q 5X5X5X5X5X5X5X5X5X5X5X5X5X5X5X5X5X5X5X5X5X",
"5X5X5X5X5X5X5X5X5X5X5X5X5X5X5X5X5X5X5X5X5X5X5X5X5X5X5X5X5X5X5X5X5X5X5X5X5X5X* . . $ > 9 9 9 X...J ~ 9.9.0.0.r.y.y.y.y.~ 5X5X5X5X5X5X5X5X5X5X5X5X5X5X5X5X5X5X5X5X",
"5X5X5X5X5X5X5X5X5X5X5X5X5X5X5X5X5X5X5X5X5X5X5X5X5X5X5X5X5X5X5X5X5X5X5X5XV S ;.| [ 2 & 1 9 9 9 1 5XC J I I 9.9.q.y.y.y._ 5X5X5X5X5X5X5X5X5X5X5X5X5X5X5X5X5X5X5X5X",
"5X5X5X5X5X5X5X5X5X5X5X5X5X5X5X5X5X5X5X5X5X5X5X5X5X5X5X5X5X5X5X5X5X5Xz V J S ;.F.[ : , & 9 9 9 : 5X5X5XM C J I 9.q.y.y.K 5X5X5X5X5X5X5X5X5X5X5X5X5X5X5X5X5X5X5X5X",
"5X5X5X5X5X5X5X5X5X5X5X5X5X5X5X5X5X5X5X5X5X5X5X5X5X5X5X5X5X5X5X5X5Xu V J J J H >.s : 4 & 9 9 4 > 5X5X5X5Xb C J 9.q.y.` 5X5X5X5X5X5X5X5X5X5X5X5X5X5X5X5X5X5X5X5X5X",
"5X5X5X5X5X5X5X5X5X5X5X5X5X5X5X5X5X5X5X5X5X5X5X5X5X5X5X5X5X5X5X5Xt V J J J J F F.} 3 > , 9 4 1   5X5X5X5X_ ( J 9.q.r.~ 5X5X5X5X5X5X5X5X5X5X5X5X5X5X5X5X5X5X5X5X5X",
"5X5X5X5X5X5X5X5X5X5X5X5X5X5X5X5X5X5X5X5X5X5X5X5X5X5X5X5X5X5X5XV G J J C b w [ 0 :.{ $ > >     5X5X5X5X( y.y.( 9.9.I 5X5X5X5X5X5X5X5X5X5X5X5X5X5X5X5X5X5X5X5X5X5X",
"5X5X5X5X5X5X5X5X5X5X5X5X5X5X5X5X5X5X5X5X5X5X5X5X5X5X5X5Xf l J J S C V ..< : 2 1 ; % 5X5X5X5X5X5X5X5X7.t.e.f.y.9.I n 5X5X5X5X5X5X5X5X5X5X5X5X5X5X5X5X5X5X5X5X5X5X",
"5X5X5X5X5X5X5X5X5X5X5X5X5X5X5X5X5X5X5X5X5X5X5X5X5X5Xw h g g V V v  .< , 1 # # 5X5X5X5X5X5X5X5X5X5X<.K.5.d.! 0.) I n 5X5X5X5X5X5X5X5X5X5X5X5X5X5X5X5X5X5X5X5X5X5X",
"5X5X5X5X5X5X5X5X5X5X5X5X5X5X5X5X5X5X5X5X5X5Xn C V r e d j j x < = = X 5X5X5X5X5X5X5X5X5X5X5X5X5X5X*.K.T.G.I.7.8.P 5X5X5X5X5X5X5X5X5X5X5X5X5X5X5X5X5X5X5X5X5X5X5X",
"5X5X5X5X5X5X5X5X5X5X5X5X5X5X5X5X5X5X5X5X5XC S J V + C m g j g @ 5X5X5X5X5X5X5X5X5X5X5X5X5X5X5X5X5X~ r.=.L.U.H.Y.<.5X5X5X5X5X5X5X5X5X5X5X5X5X5X5X5X5X5X5X5X5X5X5X",
"5X5X5X5X5X5X5X5X5X5X5X5X5X5X5X5X5X5X5X5Xu J J J C * [ * - + 5X5X5X5X5X5X5X5X5X5X5X5X5X5X5X5X5X5X5XI r.y.u.) *.1.v 5X5X5X5X5X5X5X5X5X5X5X5X5X5X5X5X5X5X5X5X5X5X5X",
"5X5X5X5X5X5X5X5X5X5X5X5X5X5X5X5X5X5X5X5Xu J J J V - $ : 9 < 5X5X5X5X5X5X5X5X5X5X5X5X5X5X5X5X5X5X5XL 0.y.y.y._ C 5X5X5X5X5X5X5X5X5X5X5X5X5X5X5X5X5X5X5X5X5X5X5X5X",
"5X5X5X5X5X5X5X5X5X5X5X5X5X5X5X5X5X5X5X5X5XM N m N 6 5 9 9 6 5X5X5X5X5X5X5X5X5X5X5X5X5X5X5X5X5X5X5XJ 9.0.q.0.K n 5X5X5X5X5X5X5X5X5X5X5X5X5X5X5X5X5X5X5X5X5X5X5X5X",
"5X5X5X5X5X5X5X5X5X5X5X5X5X5X5X5X5X5X5X5X5X5X5Xp X.9 9 9 9 9 x 5X5X5X5X5X5X5X5X5X5X5X5X5X5X5X5X5X5XJ 9.9.9.I K 5X5X5X5X5X5X5X5X5X5X5X5X5X5X5X5X5X5X5X5X5X5X5X5X5X",
"5X5X5X5X5X5X5X5X5X5X5X5X5X5X5X5X5X5X5X5X5X5X5X5X< 3 9 9 9 9 4 - 5X5X5X5X5X5X5X5X5X5X5X5X5X5X5X5X5XI ~ 9.) ) D 5X5X5X5X5X5X5X5X5X5X5X5X5X5X5X5X5X5X5X5X5X5X5X5X5X",
"5X5X5X5X5X5X5X5X5X5X5X5X5X5X5X5X5X5X5X5X5X5X5X5X5X5Xp c v v c y t 5X5X5X5X5X5X5X5X5X5X5X5X5X5X5XL ` K K ) _ 5X5X5X5X5X5X5X5X5X5X5X5X5X5X5X5X5X5X5X5X5X5X5X5X5X5X",
"5X5X5X5X5X5X5X5X5X5X5X5X5X5X5X5X5X5X5X5X5X5X5X5X5X5X5Xl S S S S J B 5X5X5X5X5X5X5X5X5X5X5X5X5X5XD y._ ~ ' Q 5X5X5X5X5X5X5X5X5X5X5X5X5X5X5X5X5X5X5X5X5X5X5X5X5X5X",
"5X5X5X5X5X5X5X5X5X5X5X5X5X5X5X5X5X5X5X5X5X5X5X5X5X5X5X5Xu u u u u u t 5X5X5X5X5X5X5X5X5X5X5X5X5XQ y.y.y.y.5X5X5X5X5X5X5X5X5X5X5X5X5X5X5X5X5X5X5X5X5X5X5X5X5X5X5X",
"5X5X5X5X5X5X5X5X5X5X5X5X5X5X5X5X5X5X5X5X5X5X5X5X5X5X5X5X5X5X5X5X5X5X5X5X5X5X5X5X5X5X5X5X5X5X5X5X` y.y.y.` 5X5X5X5X5X5X5X5X5X5X5X5X5X5X5X5X5X5X5X5X5X5X5X5X5X5X5X",
"5X5X5X5X5X5X5X5X5X5X5X5X5X5X5X5X5X5X5X5X5X5X5X5X5X5X5X5X5X5X5X5X5X5X5X5X5X5X5X5X5X5X5X5X5X5X5X5X` u.y.y.( 5X5X5X5X5X5X5X5X5X5X5X5X5X5X5X5X5X5X5X5X5X5X5X5X5X5X5X",
"5X5X5X5X5X5X5X5X5X5X5X5X5X5X5X5X5X5X5X5X5X5X5X5X5X5X5X5X5X5X5X5X5X5X5X5X5X5X5X5X5X5X5X5X5X5X5XA / ( ( ` 5X5X5X5X5X5X5X5X5X5X5X5X5X5X5X5X5X5X5X5X5X5X5X5X5X5X5X5X",
"5X5X5X5X5X5X5X5X5X5X5X5X5X5X5X5X5X5X5X5X5X5X5X5X5X5X5X5X5X5X5X5X5X5X5X5X5X5X5X5X5X5X5X5X5X5X5X^ z.j.E T 5X5X5X5X5X5X5X5X5X5X5X5X5X5X5X5X5X5X5X5X5X5X5X5X5X5X5X5X",
"5X5X5X5X5X5X5X5X5X5X5X5X5X5X5X5X5X5X5X5X5X5X5X5X5X5X5X5X5X5X5X5X5X5X5X5X5X5X5X5X5X5X5X5X5X5XK ^ j.E T f 5X5X5X5X5X5X5X5X5X5X5X5X5X5X5X5X5X5X5X5X5X5X5X5X5X5X5X5X",
"5X5X5X5X5X5X5X5X5X5X5X5X5X5X5X5X5X5X5X5X5X5X5X5X5X5X5X5X5X5X5X5X5X5X5X5X5X5X5X5X5X5X5X5X5X5X' ( k.j.E L C 5X5X5X5X5X5X5X5X5X5X5X5X5X5X5X5X5X5X5X5X5X5X5X5X5X5X5X",
"5X5X5X5X5X5X5X5X5X5X5X5X5X5X5X5X5X5X5X5X5X5X5X5X5X5X5X5X5X5X5X5X5X5X5X5X5X5X5X5X5X5X5X5X5X( y.( _ Q ( u._ 5X5X5X5X5X5X5X5X5X5X5X5X5X5X5X5X5X5X5X5X5X5X5X5X5X5X5X",
"5X5X5X5X5X5X5X5X5X5X5X5X5X5X5X5X5X5X5X5X5X5X5X5X5X5X5X5X5X5X5X5X5X5X5X5X5X5X5X5X5X5X5X5X5X` y.Q ` _ ( y.y.( 5X5X5X5X5X5X5X5X5X5X5X5X5X5X5X5X5X5X5X5X5X5X5X5X5X5X",
"5X5X5X5X5X5X5X5X5X5X5X5X5X5X5X5X5X5X5X5X5X5X5X5X5X5X5X5X5X5X5X5X5X5X5X5X5X5X5X5X5X5X5X5X0.y.y.` K L ' y.y.y.q.5X5X5X5X5X5X5X5X5X5X5X5X5X5X5X5X5X5X5X5X5X5X5X5X5X",
"5X5X5X5X5X5X5X5X5X5X5X5X5X5X5X5X5X5X5X5X5X5X5X5X5X5X5X5X5X5X5X5X5X5X5X5X5X5X5X5X5X5X5X5Xy.y.y.y.q.y.y.y.y.y.y.( 5X5X5X5X5X5X5X5X5X5X5X5X5X5X5X5X5X5X5X5X5X5X5X5X",
"5X5X5X5X5X5X5X5X5X5X5X5X5X5X5X5X5X5X5X5X5X5X5X5X5X5X5X5X5X5X5X5X5X5X5X5X5X5X5X5X5X5X5X5X_ ' ` ` ) ` y.y.y.y.y._ ` _ _ 5X5X5X5X5X5X5X5X5X5X5X5X5X5X5X5X5X5X5X5X5X",
"5X5X5X5X5X5X5X5X5X5X5X5X5X5X5X5X5X5X5X5X5X5X5X5X5X5X5X5X5X5X5X5X5X5X5X5X5X5X5X5X5X5X5X5X5XK M t t N I ` y.y.' y.y.y.y.5X5X5X5X5X5X5X5X5X5X5X5X5X5X5X5X5X5X5X5X5X",
"5X5X5X5X5X5X5X5X5X5X5X5X5X5X5X5X5X5X5X5X5X5X5X5X5X5X5X5X5X5X5X5X5X5X5X5X5X5X5X5X5X5X5X5X5X5X5X5X5X5X5Xz B B z B B B B M 5X5X5X5X5X5X5X5X5X5X5X5X5X5X5X5X5X5X5X5X"
};
