/* XPM */
static char *result[] = {
/* columns rows colors chars-per-pixel */
"80 80 216 2 ",
"   c #500D19",
".  c #5A1614",
"X  c #691A1A",
"o  c #6A2410",
"O  c #7B271A",
"+  c #4D0E22",
"@  c #4E1126",
"#  c #54162B",
"$  c #571829",
"%  c #561932",
"&  c #591E35",
"*  c #601E35",
"=  c #5B223A",
"-  c #69222A",
";  c #772726",
":  c #65283A",
">  c #722834",
",  c #7B3537",
"<  c #581743",
"1  c #601E42",
"2  c #4D254C",
"3  c #5E2C43",
"4  c #642C45",
"5  c #642E4A",
"6  c #762D49",
"7  c #69354E",
"8  c #793A4B",
"9  c #6F2659",
"0  c #6A3653",
"q  c #6D3955",
"w  c #6E3B5A",
"e  c #703E5E",
"r  c #7B395B",
"t  c #6D3960",
"y  c #723E61",
"u  c #764951",
"i  c #7A425A",
"p  c #734263",
"a  c #6E4E71",
"s  c #7D587C",
"d  c #813A19",
"f  c #90351F",
"g  c #863425",
"h  c #893526",
"j  c #8C3A2C",
"k  c #943A23",
"l  c #9A3E24",
"z  c #953E2B",
"x  c #8E313A",
"c  c #86393C",
"v  c #AA3932",
"b  c #9B4F16",
"n  c #AB5817",
"m  c #9E641B",
"M  c #AE6313",
"N  c #BE6A18",
"B  c #96402E",
"V  c #9A432A",
"C  c #964435",
"Z  c #A64725",
"A  c #A94625",
"S  c #A4462C",
"D  c #A5492D",
"F  c #AD4B2B",
"G  c #BD4420",
"H  c #B14E2C",
"J  c #AC5423",
"K  c #B5532D",
"L  c #B8552E",
"P  c #BC5C2A",
"I  c #A44A31",
"U  c #AA4D32",
"Y  c #A2483F",
"T  c #BA4D32",
"R  c #A95435",
"E  c #B45332",
"W  c #B95634",
"Q  c #BC5A34",
"!  c #B3593A",
"~  c #BD5B39",
"^  c #9A663C",
"/  c #BF6039",
"(  c #C57804",
")  c #CE6F18",
"_  c #CB7B15",
"`  c #C24C3A",
"'  c #C15E35",
"]  c #C15E3C",
"[  c #C56627",
"{  c #C87526",
"}  c #C46136",
"|  c #CD6B37",
" . c #C4633B",
".. c #C9663B",
"X. c #CD6A3D",
"o. c #D06D3E",
"O. c #D6713F",
"+. c #803443",
"@. c #853E58",
"#. c #973C52",
"$. c #AF3743",
"%. c #A23C52",
"&. c #884447",
"*. c #984846",
"=. c #974752",
"-. c #895055",
";. c #AA4C48",
":. c #A95B4B",
">. c #B85C48",
",. c #A55C52",
"<. c #A6515A",
"1. c #B35A55",
"2. c #BA5D54",
"3. c #BA674D",
"4. c #AB6A5A",
"5. c #B46653",
"6. c #BA6056",
"7. c #B8755C",
"8. c #8B4E6C",
"9. c #9B4D65",
"0. c #A55364",
"q. c #AF5169",
"w. c #9A756D",
"e. c #A56667",
"r. c #B76867",
"t. c #BB6B72",
"y. c #A17579",
"u. c #CB5643",
"i. c #CE554C",
"p. c #C56342",
"a. c #C96641",
"s. c #C26943",
"d. c #CE6B41",
"f. c #D56647",
"g. c #D16E41",
"h. c #D67342",
"j. c #D87442",
"k. c #D47749",
"l. c #D6794E",
"z. c #DA7949",
"x. c #D06E56",
"c. c #C5755C",
"v. c #D97F57",
"b. c #C37372",
"n. c #BE8D3F",
"m. c #D7870B",
"M. c #DE960C",
"N. c #CD8517",
"B. c #CB9113",
"V. c #E29B04",
"C. c #DDA00E",
"Z. c #D3892A",
"A. c #DC8831",
"S. c #B88D4C",
"D. c #AE8B79",
"F. c #BFA868",
"G. c #D98259",
"H. c #CE8F6D",
"J. c #DA8561",
"K. c #E69474",
"L. c #5E508C",
"P. c #5A5399",
"I. c #684F89",
"U. c #764F8B",
"Y. c #766382",
"T. c #777AA8",
"R. c #866688",
"E. c #887487",
"W. c #967A88",
"Q. c #897699",
"!. c #947C95",
"~. c #A87587",
"^. c #B2689E",
"/. c #7E85AB",
"(. c #AA8B92",
"). c #ABA299",
"_. c #BBBB99",
"`. c #958CB1",
"'. c #9891B9",
"]. c #A487A8",
"[. c #A498BF",
"{. c #A7A6A5",
"}. c #B4ADB5",
"|. c #D0B28E",
" X c #CDA9AB",
".X c #C0C09F",
"XX c #C9C6A6",
"oX c #D6CCAB",
"OX c #C9C5B6",
"+X c #D5D5B4",
"@X c #D5D6B9",
"#X c #9799C2",
"$X c #A39DCC",
"%X c #A8A6C4",
"&X c #B7B7CB",
"*X c #A5A5D6",
"=X c #ADACD3",
"-X c #A5A7D9",
";X c #A6A8D9",
":X c #BBBBD9",
">X c #BABAE0",
",X c #C9C9C2",
"<X c #CECECC",
"1X c #D9DAC6",
"2X c #C3C2DD",
"3X c #CACBDB",
"4X c #D8D8D1",
"5X c #E9E9C9",
"6X c #E4E4D3",
"7X c #C4C4E3",
"8X c #C8C9E6",
"9X c #C6C6EA",
"0X c #F4F4EC",
"qX c #F6F6F4",
"wX c #F8F8F9",
"eX c None",
/* pixels */
"eXeXeXeXeXeXeXeXeXeXeXeXeXeXeXeXeXeXeXeXeXeXeXeXeXeXeXeXeXeXeXeXeXeXeXeXeXeXeXeXeXeXeXeXeXeXeXeXeXeXeXeXeXeXeXeXeXeXeXeXeXeXeXeXeXeXeXeXeXeXeXeXeXeXeXeXeXeXeXeX",
"eXeXeXeXeXeXeXeXeXeXeXeXeXeXeXeXeXeXeXeXeXeXeXeXeXeXeXeXeXeXeXeXeXeXeXeXeXeXeXeXeXeXeXeXeXeXeXeXeXeXeXeXeXeXeXeXeXeXeXeXeXeXeXeXeXeXeXeXeXeXeXeXeXeXeXeXeXeXeXeX",
"eXeXeXeXeXeXeXeXeXeXeXeXeXeXeXeXeXeXeXeXeXeXeXeXeXeXeXeXeXeXeXeXeXeXeXeXeXeXeXeXeXeXeXeXeXeXeXeXeXeXeXeXeXeXeXeXeXeXeXeXeXeXeXeXeXeXeXeXeXeXeXeXeXeXeXeXeXeXeXeX",
"eXeXeXeXeXeXeXeXeXeXeXeXeXeXeXeXeXeXeXeXeXeXeXeXeXeXeXeXeXeXeXeXeXeXeXeXeXeXeXeXeXeXeXeXeXeXeXeXeXeXeXeXeXeXeXeXeXeXeXeXeXeXeXeXeXeXeXeXeXeXeXeXeXeXeXeXeXeXeXeX",
"eXeXeXeXeXeXeXeXeXeXeXeXeXeXeXeXeXeXeXeXeXeXeXeXeXeXeXeXeXeXeXeXeXeXeXeXeXeXeXeXeXeXeXeXeXeXeXeXeXeXeXeXeXeXeXeXeXeXeXeXeXeXeXeXeXeXeXeXeXeXeXeXeXeXeXeXeXeXeXeX",
"eXeXeXeXeXeXeXeXeXeXeXeXeXeXeXeXeXeXeXeXeXeXeXeXeXeXeXeXeXeXeXeXeXeXeXeXeXeXeXeXeXeXeXeXeXeXeXeXeXeXeXeXeXeXeXeXeXeXeXeXeXeXeXeXeXeXeXeXeXeXeXeXeXeXeXeXeXeXeXeX",
"eXeXeXeXeXeXeXeXeXeXeXeXeXeXeXeXeXeXeXeXeXeXeXeXeXeXeXeXeXeXeXeXeXeXeXeXeXeXeXeXeXeXeXeXeXeXeXeXeXeXeXeXeXeXeXeXeXeXeXeXeXeXeXeXeXeXeXeXeXeXeXeXeXeXeXeXeXeXeXeX",
"eXeXeXeXeXeXeXeXeXeXeXeXeXeXeXeXeXeXeXeXeXeXeXeXeXeXeXeXeXeXeXeXeXeXeXeXeXeXeXeXeXeXeXeXeXeXeXeXeXeXeXeXeXeXeXeXeXeXeXeXeXeXeXeXeXeXeXeXeXeXeXeXeXeXeXeXeXeXeXeX",
"eXeXeXeXeXeXeXeXeXeXeXeXeXeXeXeXeXeXeXeXeXeXeXeXeXeXeXeXeXeXeXeXeXeXeXeXeXeXeXeXeXeXeXeXeXeXeXeXeXeXeXeXeXeXeXeXeXeXeXeXeXeXeXeXeXeXeXeXeXeXeXeXeXeXeXeXeXeXeXeX",
"eXeXeXeXeXeXeXeXeXeXeXeXeXeXeXeXeXeXeXeXeXeXeXeXeXeXeXeXeXeXeXeXeXeXeXeXeXeXeXeXeXeXeXeXeXeXeXeXeXeXeXeXeXeXeXeXeXeXeXeXeXeXeXeXeXeXeXeXeXeXeXeXeXeXeXeXeXeXeXeX",
"eXeXeXeXeXeXeXeXeXeXeXeXeXeXeXeXeXeXeXeXeXeXeXeXeXeXeXeXeXeXeXeXeXeXeXeXeXeXeXeXeXeXeXeXeXeXeXeXeXeXeXeXeXeXeXeXeXeXeXeXeXeXeXeXeXeXeXeXeXeXeXeXeXeXeXeXeXeXeXeX",
"eXeXeXeXeXeXeXeXeXeXeXeXeXeXeXeXeXeXeXeXeXeXeXeXeXeXeXeXeXeXeXeXeXeXeXeXeXeXeXeXeXeXeXeXeXeXeXeXeXeXeXeXeXeXeXeXeXeXeXeXeXeXeXeXeXeXeXeXeXeXeXeXeXeXeXeXeXeXeXeX",
"eXeXeXeXeXeXeXeXeXeXeXeXeXeXeXeXeXeXeXeXeXeXeXeXeXeXeXeXeXeXeXeXeXeXeXeXeXeXeXeXeXeXeXeXeXeXeXeXeXeXeXeXeXeXeXeXeXeXeXeXeXeXeXeXeXeXeXeXeXeXeXeXeXeXeXeXeXeXeXeX",
"eXeXeXeXeXeXeXeXeXeXeXeXeXeXeXeXeXeXeXeXeXeXeXeXeXeXeXeXeXeXeXeXeXeXeXeXeXeXeXeXeXeXeXeXeXeXeXeXeXeXeXeXeXeXeXeXeXeXeXeXeXeXeXeXeXeXeXeXeXeXeXeXeXeXeXeXeXeXeXeX",
"eXeXeXeXeXeXeXeXeXeXeXeXeXeXeXeXeXeXeXeXeXeXeXeXeXeXeXeXeXeXeXeXeXeXeXeXeXeXeXeXeXeXeXeXeXeXeXeXeXeXeXeXeXeXeXeXeXeXeXeXeXeXeXeXeXeXeXeXeXeXeXeXeXeXeXeXeXeXeXeX",
"eXeXeXeXeXeXeXeXeXeXeXeXeXeXeXeXeXeXeXeXeXeXeXeXeXeXeXeXeXeXeXeXeXeXeXeXeXeXeXeXeXeXeXeXeXeXeXeXeXeXeXeXeXeXeXeXeXeXeXeXeXeXeXeXeXeXeXeXeXeXeXeXeXeXeXeXeXeXeXeX",
"eXeXeXeXeXeXeXeXeXeXeXeXeXeXeXeXeXeXeXeXeXeXeXeXeXeXeXeXeXeXeXeXeXeXeXeXeXeXeXeXeXeXeXeXeXeXeXeXeXeXeXeXeXeXeXeXeXeXeXeXeXeXeXeX%X4XqX0XqX0XXXeXeXeXeXeXeXeXeXeX",
"eXeXeXeXeXeXeXeXeXeXeXeXeXeXeXeXeXeXeXeXeXeXeXeXeXeXeXeXeXeXeXeXeXeXeXeXeXeXeXeXeXeXeXeXeXeXeXeXeXeXeXeXeXeXeXeXeXeXeXeXeXeXeX'.=X6X0XqXwX0X1X_.eXeXeXeXeXeXeXeX",
"eXeXeXeXeXeXeXeXeXeXeXeXeXeXeXeXeXeXeXeXeXeXeXeXeXeXeXeXeXeXeXeXeXeXeXeXeXeXeXeXeXeXeXeXeXeXeXeXeXeXeXeXeXeXeXeXeXeXeXeXeXeX`.=X>X:X<X6X6X5X5X+XeXeXeXeXeXeXeXeX",
"eXeXeXeXeXeXeXeXeXeXeXeXeXeXeXeXeXeXeXeXeXeXeXeXeXeXeXeXeXeXeXeXeXeXeXeXeXeXeXeXeXeXeXeXeXeXeXeXeXeXeXeXeXeXeXeXeXeXeXeXeXeX#X9X9X>X7X,X@X1X1X<X&XeXeXeXeXeXeXeX",
"eXeXeXeXeXeXeXeXeXeXeXeXeXeXeXeXeXeXeXeXeXeXeXeXeXeXeXeXeXeXeXeXeXeXeXeXeXeXeXeXeXeXeXeXeXeXeXeXeXeXeXeXeXeXK } } Q Z _ M eXa 9X].%X7XD.(.>X2X&X&XeXeXeXeXeXeXeX",
"eXeXeXeXeXeXeXeXeXeXeXeXeXeXeXeXeXeXeXeXeXeXeXeXeXeXeXeXeXeXeXeXeXeXeXeXeXeXeXeXeXeXE ..X.X... .X.} r.{  . .g.j.z.l.} B.w.2.S.!.C y.=Xc.z W.%X}.&XeXeXeXeXeXeXeX",
"eXeXeXeXeXeXeXeXeXeXeXeXeXeXeXeXeXeXeXeXeXeXeXeXeXeXeXeXeXeXeXeXeXeXeXeXeXeXeXeXeX .h.j.j.h.j.j.j...b.Z.X.j.j.z.K.K.z.E E.x._ ! g j W.,.7 3 y.E.eXeXeXeXeXeXeXeX",
"eXeXeXeXeXeXeXeXeXeXeXeXeXeXeXeXeXeXeXeXeXeXeXeXeXeXeXeXeXeXeXeXeXeXeXeXeXeXeXU ..h.h.h.h.j.j.h.j...t.A.h.j.h.k.J.J.z.E a v ) [ U z 3.4.7.>.l eXeXeXeXeXeXeXeXeX",
"eXeXeXeXeXeXeXeXeXeXeXeXeXeXeXeXeXeXeXeXeXeXeXeXeXeXeXeXeXeXeXeXeXeXeXeXeXeX! ..j.h.h.h.h. .Q h.k...r.A.h.o.h.h.k.k.h.[ a @.G Z h h p.p.a.~ ; eXeXeXeXeXeXeXeXeX",
"eXeXeXeXeXeXeXeXeXeXeXeXeXeXeXeXeXeXeXeXeXeXeXeXeXeXeXeXeXeXeXeXeXeXeXeXeXE h.h.h.h.h.h.g.S U ~ D I *.R R ! X.o.o.X.| ( ^ P.u o eXX D E g O eXeXeXeXeXeXeXeXeXeX",
"eXeXeXeXeXeXeXeXeXeXeXeXeXeXeXeXeXeXeXeXeXeXeXeXeXeXeXeXeXeXeXeXeXeXeXeXr.X.j.h.h.h.h.d.] Q h.X.W l.|.XXOX}.e.4.7.7.|.n.( n m . eXeX  . eXeXeXeXeXeXeXeXeXeXeXeX",
"eXeXeXeXeXeXeXeXeXeXeXeXeXeXeXeXeXeXeXeXeXeXeXeXeXeXeXeXeXeXeXeXeXeXM N.^.t.o.j.h.Q s.s.k...X.h...h.H.oX3X9X2X&X<X+X+XXXF.S., + eXeXA eXeXeXeXeXeXeXeXeXeXeXeXeX",
"eXeXeXeXeXeXeXeXeXeXeXeXeXeXeXeXeXeXeXeXeXeXeXeXeXeXeXeXeXeXeXeXeXl T M.Z.^.>. .F K H.|.oXH.O.h.g.h.j.G. X2X}.7X<X+X+X.X+XD.> 8.& U  .~ eXeXeXeXeXeXeXeXeXeXeXeX",
"eXeXeXeXeXeXeXeXeXeXeXeXeXeXeXeXeXeXeXeXeXeXeXeXeXeXeXeXeXeXeXeXY.Q.b.f.m.0.Y E } h.h.G.|.OXt.2.6.6.6.2.1.H.).7X3X@X+X.X+X(.:.9.+.I p.p.W eXeXeXeXeXeXeXeXeXeXeX",
"eXeXeXeXeXeXeXeXeXeXeXeXeXeXeXeXeXeXeXeXeXeXeXeXeXeXeXeXeXeXeXD >.W./.2.P I  .h.j.j.h.O.c.%X].0.0.0.9.=.$ . u 7X8X8X,XOX<XD.9.6 B U ] p.~ eXeXeXeXeXeXeXeXeXeXeX",
"eXeXeXeXeXeXeXeXeXeXeXeXeXeXeXeXeXeXeXeXeXeXeXeXeXeXeXeXeXeXE ..j...E.8.H ..h.h.j.j.j.h...].*X~.0.<.*.eXeXeXeXeX{.{.).{.{.-.y r , I  .p.~ eXeXeXeXeXeXeXeXeXeXeX",
"eXeXeXeXeXeXeXeXeXeXeXeXeXeXeXeXeXeXeXeXeXeXeXeXeXeXeXeXeXeXX.j.h.h.! eX} h.h.h.h.h.h.O.5.$X*X$X[.e.eXeXeXeXeXeXeXeXeXeXeXeX* - C > :.a.U X eXeXeXeXeXeXeXeXeXeX",
"eXeXeXeXeXeXeXeXeXeXeXeXeXeXeXeXeXeXeXeXeXeXeXeXeXeXeXeXeX..j.h.h.g.V eXh.h.h.h.h.h.h.X.~.*X*X;X`.3 eXeXeXeXeXeXeXeXeXeXeXeX# C 6.q.8.R.z O eXeXeXeXeXeXeXeXeXeX",
"eXeXeXeXeXeXeXeXeXeXeXeXeXeXeXeXeXeXeXeXeXeXeXeXeXeXeXeX..h.d.I g.X.V H X.k.v.k.h.h.h.~ ].-X*X$Xs 0 w $ eXeXeXeXeXeXeXeXeXeXeXV 2.1.T ;.[ d eXeXeXeXeXeXeXeXeXeX",
"eXeXeXeXeXeXeXeXeXeXeXeXeXeXeXeXeXeXeXeXeXeXeXeXeXeXeXQ h.j.! I ..D F X.k.G.v.h.h.h.h.5.[.-X*XR.p p p p 0 : 7 eXeXeXeXeXeXeXeXz ! =.5.3.,.1 eXeXeXeXeXeXeXeXeXeX",
"eXeXeXeXeXeXeXeXeXeXeXeXeXeXeXeXeXeXeXeXeXeXeXeXeXeXeXQ j.h.R g z Z ..j.v.G.j.h.h.h.X.y.-X*XQ.p p p p p p p p q 0 $ eXeXeXeXeXeXz ; < < < eXeXeXeXeXeXeXeXeXeXeX",
"eXeXeXeXeXeXeXeXeXeXeXeXeXeXeXeXeXeXeXeXeXeXeXeXeXeXeXg V h eXeXeX..h.k.G.k.h.h.h.j.! '.$XQ.p p p p p p p p p p p e = + eXeXeXeXeXeXeXeXeXeXeXeXeXeXeXeXeXeXeXeX",
"eXeXeXeXeXeXeXeXeXeXeXeXeXeXeXeXeXeXeXeXeXeXeXeXeXeXeXeXeXeXeXeXeXh.j.l.k.h.h.h.h.j.:.s s p p p p p p p p p p p p p p 0 % eXeXeXeXeXeXeXeXeXeXeXeXeXeXeXeXeXeXeX",
"eXeXeXeXeXeXeXeXeXeXeXeXeXeXeXeXeXeXeXeXeXeXeXeXeXeXeXeXeXeXeXeXX.h.l.k.h.h.h.h.h...,.p w w p p p p p p p p p p p p p p p 4 - eXeXeXeXeXeXeXeXeXeXeXeXeXeXeXeXeX",
"eXeXeXeXeXeXeXeXeXeXeXeXeXeXeXeXeXeXeXeXeXeXeXeXeXeXeXeXeXeXeXeXo.j.k.h.h.h.h.j.X.V eXeX0 : p p p p p p p p p p p p p p p p i C F eXeXeXeXeXeXeXeXeXeXeXeXeXeXeX",
"eXeXeXeXeXeXeXeXeXeXeXeXeXeXeXeXeXeXeXeXeXeXeXeXeXeXeXeXeXeXeXE h.h.h.h.h.h.h.h. .eXeXeXeX@ 0 p p p p p p p p p p p p p p p p i D F eXeXeXeXeXeXeXeXeXeXeXeXeXeX",
"eXeXeXeXeXeXeXeXeXeXeXeXeXeXeXeXeXeXeXeXeXeXeXeXeXeXeXeXeXeXeX..j.h.h.h.h.h.j.X.eXeXeXeXeXeXeX= w e p p p p p p p p p p p p p p &.F H eXeXeXeXeXeXeXeXeXeXeXeXeX",
"eXeXeXeXeXeXeXeXeXeXeXeXeXeXeXeXeXeXeXeXeXeXeXeXeXeXeXeXeXeXV g.h.h.h.h.h.h.o.K eXeXeXeXeXeXeXeXeX% 0 5 0 p p p p p p p p p p p p &.H F eXeXeXeXeXeXeXeXeXeXeXeX",
"eXeXeXeXeXeXeXeXeXeXeXeXeXeXeXeXeXeXeXeXeXeXeXeXeXeXeXeXeXQ  .h.h.h.h.h.h.d.W eXeXeXeXeXeXeXeXeXeXeXeXeXeX= & & = w e p p p p p p i S A eXeXeXeXeXeXeXeXeXeXeXeX",
"eXeXeXeXeXeXeXeXeXeXeXeXeXeXeXeXeXeXeXeXeXeXeXeXeXeXeXeXW  .j.h.h.h.h.j.X.eXeXeXeXeXeXeXeXeXeXeXeXeXeXeXeXeXeXeXeXeX+ # 0 p p p p p i : eXeXeXeXeXeXeXeXeXeXeXeX",
"eXeXeXeXeXeXeXeXeXeXeXeXeXeXeXeXeXeXeXeXeXeXeXeXeXeXeX~ p.a.h.h.h.h.j.o.K eXeXeXeXeXeXeXeXeXeXeXeXeXeXeXeXeXeXeXeXeXeXeX= 5 p p p p w @ eXeXeXeXeXeXeXeXeXeXeXeX",
"eXeXeXeXeXeXeXeXeXeXeXeXeXeXeXeXeXeXeXeXeXeXeXeXeXQ X.a.p.~ h.h.h.h.X.eXeXeXeXeXeXeXeXeXeXeXeXeXeXeXeXeXeXeXeXeXeXeXeX4 p 4 w p p p 4 eXeXeXeXeXeXeXeXeXeXeXeXeX",
"eXeXeXeXeXeXeXeXeXeXeXeXeXeXeXeXeXeXeXeXeXeXeXeXv ..h.a. .Q h.h.h.} eXeXeXeXeXeXeXeXeXeXeXeXeXeXeXeXeXeXeXeXeXeXeXeX; i p p p p p 5 # eXeXeXeXeXeXeXeXeXeXeXeXeX",
"eXeXeXeXeXeXeXeXeXeXeXeXeXeXeXeXeXeXeXeXeXeXeXI ` ..h.p.Q ..j.h.} eXeXeXeXeXeXeXeXeXeXeXeXeXeXeXeXeXeXeXeXeXeXeXeXeXv #.p p p p p = eXeXeXeXeXeXeXeXeXeXeXeXeXeX",
"eXeXeXeXeXeXeXeXeXeXeXeXeXeXeXeXeXeXeXeXeXeX,.Q.i.u.} p.~ Q } Q eXeXeXeXeXeXeXeXeXeXeXeXeXeXeXeXeXeXeXeXeXeXeXeXeX2 8.$.$.@.p p e % eXeXeXeXeXeXeXeXeXeXeXeXeXeX",
"eXeXeXeXeXeXeXeXeXeXeXeXeXeXeXeXeXeXeXeXeXL a.Q.!.i.u.T ~ W F eXeXeXeXeXeXeXeXeXeXeXeXeXeXeXeXeXeXeXeXeXeXeXeXeXeX& a I.U.%.#.%.x eXeXeXeXeXeXeXeXeXeXeXeXeXeXeX",
"eXeXeXeXeXeXeXeXeXeXeXeXeXeXeXeXeXeXeXeXeX..j.s./.R.2.u.` F eXeXeXeXeXeXeXeXeXeXeXeXeXeXeXeXeXeXeXeXeXeXeXeXeXeXeX& p p L.P.P.I.* eXeXeXeXeXeXeXeXeXeXeXeXeXeXeX",
"eXeXeXeXeXeXeXeXeXeXeXeXeXeXeXeXeXeXeXeXK o.j.O.3.Q.T.e.v eXeXeXeXeXeXeXeXeXeXeXeXeXeXeXeXeXeXeXeXeXeXeXeXeXeXeXeX& p p p p p 0 @ eXeXeXeXeXeXeXeXeXeXeXeXeXeXeX",
"eXeXeXeXeXeXeXeXeXeXeXeXeXeXeXeXeXeXeXeX..h.h.h.j.h.3.w.eXeXeXeXeXeXeXeXeXeXeXeXeXeXeXeXeXeXeXeXeXeXeXeXeXeXeXeXeX& p p p p p 4 eXeXeXeXeXeXeXeXeXeXeXeXeXeXeXeX",
"eXeXeXeXeXeXeXeXeXeXeXeXeXeXeXeXeXeXeXeXX.j.h.h.h.j.h.g.eXeXeXeXeXeXeXeXeXeXeXeXeXeXeXeXeXeXeXeXeXeXeXeXeXeXeXeXeX& p p p p e # eXeXeXeXeXeXeXeXeXeXeXeXeXeXeXeX",
"eXeXeXeXeXeXeXeXeXeXeXeXeXeXeXeXeXeXeX] h.h.h.h.h...} eXeXeXeXeXeXeXeXeXeXeXeXeXeXeXeXeXeXeXeXeXeXeXeXeXeXeXeXeXeX& p p p p 5 eXeXeXeXeXeXeXeXeXeXeXeXeXeXeXeXeX",
"eXeXeXeXeXeXeXeXeXeXeXeXeXeXeXeXeXeX .d.h.h.h.h.Q eXeXeXeXeXeXeXeXeXeXeXeXeXeXeXeXeXeXeXeXeXeXeXeXeXeXeXeXeXeXeXeX& p p p p & eXeXeXeXeXeXeXeXeXeXeXeXeXeXeXeXeX",
"eXeXeXeXeXeXeXeXeXeXeXeXeXeXeXeXeXeX..h.h.h.d.~ z eXeXeXeXeXeXeXeXeXeXeXeXeXeXeXeXeXeXeXeXeXeXeXeXeXeXeXeXeXeXeXeX% y p p e @ eXeXeXeXeXeXeXeXeXeXeXeXeXeXeXeXeX",
"eXeXeXeXeXeXeXeXeXeXeXeXeXeXeXeXeXeXg.h.h.h.X.D eXeXeXeXeXeXeXeXeXeXeXeXeXeXeXeXeXeXeXeXeXeXeXeXeXeXeXeXeXeXeXeXeXX 6 9 9 5 eXeXeXeXeXeXeXeXeXeXeXeXeXeXeXeXeXeX",
"eXeXeXeXeXeXeXeXeXeXeXeXeXeXeXeXeX..h.h.h.h.U eXeXeXeXeXeXeXeXeXeXeXeXeXeXeXeXeXeXeXeXeXeXeXeXeXeXeXeXeXeXeXeXeXeXo n n n d eXeXeXeXeXeXeXeXeXeXeXeXeXeXeXeXeXeX",
"eXeXeXeXeXeXeXeXeXeXeXeXeXeXeXeXeXh.h.h.h.W eXeXeXeXeXeXeXeXeXeXeXeXeXeXeXeXeXeXeXeXeXeXeXeXeXeXeXeXeXeXeXeXeXeXeXh b n M C ; eXeXeXeXeXeXeXeXeXeXeXeXeXeXeXeXeX",
"eXeXeXeXeXeXeXeXeXeXeXeXeXeXeXeXP X.j.j./ eXeXeXeXeXeXeXeXeXeXeXeXeXeXeXeXeXeXeXeXeXeXeXeXeXeXeXeXeXeXeXeXeXeXeXeXS &.c x 8 j A eXeXeXeXeXeXeXeXeXeXeXeXeXeXeXeX",
"eXeXeXeXeXeXeXeXeXeXeXeXeXeXeX_ M._ } } eXeXeXeXeXeXeXeXeXeXeXeXeXeXeXeXeXeXeXeXeXeXeXeXeXeXeXeXeXeXeXeXeXeXeXeXH E I * t y j H F eXeXeXeXeXeXeXeXeXeXeXeXeXeXeX",
"eXeXeXeXeXeXeXeXeXeXeXeXeXeXeXM.N.V.m.N eXeXeXeXeXeXeXeXeXeXeXeXeXeXeXeXeXeXeXeXeXeXeXeXeXeXeXeXeXeXeXeXeXeXeXeXF E H - q 8 c H E H eXeXeXeXeXeXeXeXeXeXeXeXeXeX",
"eXeXeXeXeXeXeXeXeXeXeXeXeXeX' { C.V.m.J eXeXeXeXeXeXeXeXeXeXeXeXeXeXeXeXeXeXeXeXeXeXeXeXeXeXeXeXeXeXeXeXeXeXeXeXE E H , # 8 &.H E E E F f k l eXeXeXeXeXeXeXeXeX",
"eXeXeXeXeXeXeXeXeXeXeXeXeXeXQ h.| A.{ eXeXeXeXeXeXeXeXeXeXeXeXeXeXeXeXeXeXeXeXeXeXeXeXeXeXeXeXeXeXeXeXeXeXeXeXZ E E F 8 7 i &.H E E E E k S F F eXeXeXeXeXeXeXeX",
"eXeXeXeXeXeXeXeXeXeXeXeXeX} ' j.j.o.O eXeXeXeXeXeXeXeXeXeXeXeXeXeXeXeXeXeXeXeXeXeXeXeXeXeXeXeXeXeXeXeXeXeXeXeXeXS S z 8 8 , 8 B S S S S S S S S V eXeXeXeXeXeXeX",
"eXeXeXeXeXeXeXeXeXeXeXeX..X.' h.j.X.k eXeXeXeXeXeXeXeXeXeXeXeXeXeXeXeXeXeXeXeXeXeXeXeXeXeXeXeXeXeXeXeXeXeXeXeXeXeXeXeXeXeXeXeXeXeXeXeXeXeXeXeXeXeXeXeXeXeXeXeXeX",
"eXeXeXeXeXeXeXeXeXeXeXeX..} X.h.h.o.H eXeXeXeXeXeXeXeXeXeXeXeXeXeXeXeXeXeXeXeXeXeXeXeXeXeXeXeXeXeXeXeXeXeXeXeXeXeXeXeXeXeXeXeXeXeXeXeXeXeXeXeXeXeXeXeXeXeXeXeXeX",
"eXeXeXeXeXeXeXeXeXeXeXeXL X.h.h.j...eXeXeXeXeXeXeXeXeXeXeXeXeXeXeXeXeXeXeXeXeXeXeXeXeXeXeXeXeXeXeXeXeXeXeXeXeXeXeXeXeXeXeXeXeXeXeXeXeXeXeXeXeXeXeXeXeXeXeXeXeXeX",
"eXeXeXeXeXeXeXeXeXeXeXL X.h.h.h.h...V eXeXeXeXeXeXeXeXeXeXeXeXeXeXeXeXeXeXeXeXeXeXeXeXeXeXeXeXeXeXeXeXeXeXeXeXeXeXeXeXeXeXeXeXeXeXeXeXeXeXeXeXeXeXeXeXeXeXeXeXeX",
"eXeXeXeXeXeXeXeXeXeXeX' h.h.h.h.h.h.Q eXeXeXeXeXeXeXeXeXeXeXeXeXeXeXeXeXeXeXeXeXeXeXeXeXeXeXeXeXeXeXeXeXeXeXeXeXeXeXeXeXeXeXeXeXeXeXeXeXeXeXeXeXeXeXeXeXeXeXeXeX",
"eXeXeXeXeXeXeXeXeXeXeXeXV V V V V V z eXeXeXeXeXeXeXeXeXeXeXeXeXeXeXeXeXeXeXeXeXeXeXeXeXeXeXeXeXeXeXeXeXeXeXeXeXeXeXeXeXeXeXeXeXeXeXeXeXeXeXeXeXeXeXeXeXeXeXeXeX",
"eXeXeXeXeXeXeXeXeXeXeXeXeXeXeXeXeXeXeXeXeXeXeXeXeXeXeXeXeXeXeXeXeXeXeXeXeXeXeXeXeXeXeXeXeXeXeXeXeXeXeXeXeXeXeXeXeXeXeXeXeXeXeXeXeXeXeXeXeXeXeXeXeXeXeXeXeXeXeXeX",
"eXeXeXeXeXeXeXeXeXeXeXeXeXeXeXeXeXeXeXeXeXeXeXeXeXeXeXeXeXeXeXeXeXeXeXeXeXeXeXeXeXeXeXeXeXeXeXeXeXeXeXeXeXeXeXeXeXeXeXeXeXeXeXeXeXeXeXeXeXeXeXeXeXeXeXeXeXeXeXeX",
"eXeXeXeXeXeXeXeXeXeXeXeXeXeXeXeXeXeXeXeXeXeXeXeXeXeXeXeXeXeXeXeXeXeXeXeXeXeXeXeXeXeXeXeXeXeXeXeXeXeXeXeXeXeXeXeXeXeXeXeXeXeXeXeXeXeXeXeXeXeXeXeXeXeXeXeXeXeXeXeX",
"eXeXeXeXeXeXeXeXeXeXeXeXeXeXeXeXeXeXeXeXeXeXeXeXeXeXeXeXeXeXeXeXeXeXeXeXeXeXeXeXeXeXeXeXeXeXeXeXeXeXeXeXeXeXeXeXeXeXeXeXeXeXeXeXeXeXeXeXeXeXeXeXeXeXeXeXeXeXeXeX",
"eXeXeXeXeXeXeXeXeXeXeXeXeXeXeXeXeXeXeXeXeXeXeXeXeXeXeXeXeXeXeXeXeXeXeXeXeXeXeXeXeXeXeXeXeXeXeXeXeXeXeXeXeXeXeXeXeXeXeXeXeXeXeXeXeXeXeXeXeXeXeXeXeXeXeXeXeXeXeXeX",
"eXeXeXeXeXeXeXeXeXeXeXeXeXeXeXeXeXeXeXeXeXeXeXeXeXeXeXeXeXeXeXeXeXeXeXeXeXeXeXeXeXeXeXeXeXeXeXeXeXeXeXeXeXeXeXeXeXeXeXeXeXeXeXeXeXeXeXeXeXeXeXeXeXeXeXeXeXeXeXeX"
};
