/* XPM */
static char *result[] = {
/* columns rows colors chars-per-pixel */
"80 80 220 2 ",
"   c #40000D",
".  c #56110D",
"X  c #450415",
"o  c #58131E",
"O  c #681A19",
"+  c #6E221B",
"@  c #7D2C17",
"#  c #4F1227",
"$  c #53152B",
"%  c #55182E",
"&  c #561B32",
"*  c #591E36",
"=  c #5B223B",
"-  c #6B2024",
";  c #782922",
":  c #7A2E2B",
">  c #662538",
",  c #76343C",
"<  c #472047",
"1  c #5E2741",
"2  c #612944",
"3  c #682D47",
"4  c #66314E",
"5  c #6C344D",
"6  c #783648",
"7  c #6C2F50",
"8  c #6C3856",
"9  c #6E3C5C",
"0  c #773854",
"q  c #713F5E",
"w  c #7A444C",
"e  c #7B4258",
"r  c #5A4168",
"t  c #694B6F",
"y  c #734264",
"u  c #863416",
"i  c #913D1B",
"p  c #853123",
"a  c #893524",
"s  c #8D3824",
"d  c #923B25",
"f  c #9B3F25",
"g  c #953E2A",
"h  c #843839",
"j  c #913030",
"k  c #AD3230",
"l  c #B23434",
"z  c #934418",
"x  c #AD5A0E",
"c  c #A84D1A",
"v  c #AC5616",
"b  c #B55B14",
"n  c #BB680C",
"m  c #B6621A",
"M  c #9E4127",
"N  c #904A25",
"B  c #9C422B",
"V  c #984637",
"C  c #A34723",
"Z  c #AA4726",
"A  c #AB4827",
"S  c #A4472C",
"D  c #A4492D",
"F  c #AB4B2C",
"G  c #BA472F",
"H  c #B14D2C",
"J  c #AA512B",
"K  c #B4512E",
"L  c #BA582B",
"P  c #A54A31",
"I  c #AD4E33",
"U  c #A84936",
"Y  c #B14C34",
"T  c #AD5233",
"R  c #AE5239",
"E  c #B55332",
"W  c #B95633",
"Q  c #B55834",
"!  c #BC5A35",
"~  c #B5563B",
"^  c #B55A38",
"/  c #BD5B3A",
"(  c #BC6529",
")  c #BE6D37",
"_  c #BF603C",
"`  c #C97907",
"'  c #C46C1C",
"]  c #D96F11",
"[  c #CC7914",
"{  c #C8751B",
"}  c #C15E33",
"|  c #C15E3C",
" . c #CC6F27",
".. c #C56335",
"X. c #CF6837",
"o. c #C4623B",
"O. c #C9663C",
"+. c #C7683F",
"@. c #CC6A3D",
"#. c #D16D3E",
"$. c #CD7F31",
"%. c #D6723C",
"&. c #823849",
"*. c #8D3E55",
"=. c #AD3B48",
"-. c #A73D55",
";. c #8A3F64",
":. c #8A4141",
">. c #83424C",
",. c #954744",
"<. c #9A5144",
"1. c #94534E",
"2. c #814555",
"3. c #8C525B",
"4. c #9D5858",
"5. c #B24140",
"6. c #A75245",
"7. c #B55845",
"8. c #AA4C53",
"9. c #BA6446",
"0. c #A4615A",
"q. c #B96B56",
"w. c #B27358",
"e. c #BC7B5A",
"r. c #854264",
"t. c #974E64",
"y. c #985B66",
"u. c #865870",
"i. c #AD596E",
"p. c #886778",
"a. c #926A7A",
"s. c #BB6366",
"d. c #BE7565",
"f. c #B16578",
"g. c #CA5644",
"h. c #D6584B",
"j. c #D55E5E",
"k. c #C66342",
"l. c #C96642",
"z. c #C16944",
"x. c #CD6A41",
"c. c #D26E41",
"v. c #CF7044",
"b. c #D67342",
"n. c #D87543",
"m. c #D1744B",
"M. c #D9794C",
"N. c #C86F51",
"B. c #C97B53",
"V. c #D77C53",
"C. c #CE6460",
"Z. c #D5880E",
"A. c #C78313",
"S. c #CC8814",
"D. c #D09011",
"F. c #D29010",
"G. c #D4AE0D",
"H. c #E0A70B",
"J. c #DA8B27",
"K. c #EFA324",
"L. c #D7DD25",
"P. c #AD8844",
"I. c #BD8966",
"U. c #D88358",
"Y. c #D1916C",
"T. c #E39171",
"R. c #575797",
"E. c #764C82",
"W. c #63518F",
"Q. c #4F55A5",
"!. c #7B7CA4",
"~. c #9C5391",
"^. c #8B6C83",
"/. c #88778F",
"(. c #95798A",
"). c #806F92",
"_. c #867694",
"`. c #A67E84",
"'. c #B26598",
"]. c #B56EAB",
"[. c #5C92DF",
"{. c #6F86C4",
"}. c #878098",
"|. c #9F8093",
" X c #AC8594",
".X c #ADAD8E",
"XX c #B8B695",
"oX c #8A95B1",
"OX c #9496BA",
"+X c #A19BBA",
"@X c #BFBFA0",
"#X c #B5A0B9",
"$X c #BEBFB0",
"%X c #CCAB89",
"&X c #D2B490",
"*X c #97CFAB",
"=X c #CCCAAA",
"-X c #D5CBA9",
";X c #C6C6B3",
":X c #D6D6B7",
">X c #9B9BC8",
",X c #A6A5C8",
"<X c #B4AAC7",
"1X c #B9B9CA",
"2X c #A9A9D3",
"3X c #B5B6D6",
"4X c #BABADC",
"5X c #BDBEE1",
"6X c #C3B5C7",
"7X c #D1CDCE",
"8X c #D3D3CA",
"9X c #C8C8DA",
"0X c #E3E3CC",
"qX c #E8E8C8",
"wX c #C7C7E9",
"eX c #EEEEE4",
"rX c #F2F2E8",
"tX c #F6F6F5",
"yX c #F7F7F8",
"uX c None",
/* pixels */
"uXuXuXuXuXuXuXuXuXuXuXuXuXuXuXuXuXuXuXuXuXuXuXuXuXuXuXuXuXuXuXuXuXuXuXuXuXuXuXuXuXuXuXuXuXuXuXuXuXuXuXuXuXuXuXuXuXuXuXuXuXuXuXuXuXuXuXuXuXuXuXuXuXuXuXuXuXuXuXuX",
"uXuXuXuXuXuXuXuXuXuXuXuXuXuXuXuXuXuXuXuXuXuXuXuXuXuXuXuXuXuXuXuXuXuXuXuXuXuXuXuXuXuXuXuXuXuXuXuXuXuXuXuXuXuXuXuXuXuXuXuXuXuXuXuXuXuXuXuXuXuXuXuXuXuXuXuXuXuXuXuX",
"uXuXuXuXuXuXuXuXuXuXuXuXuXuXuXuXuXuXuXuXuXuXuXuXuXuXuXuXuXuXuXuXuXuXuXuXuXuXuXuXuXuXuXuXuXuXuXuXuXuXuXuXuXuXuXuXuXuXuXuXuXuXuXuXuXuXuXuXuXuXuXuXuXuXuXuXuXuXuXuX",
"uXuXuXuXuXuXuXuXuXuXuXuXuXuXuXuXuXuXuXuXuXuXuXuXuXuXuXuXuXuXuXuXuXuXuXuXuXuXuXuXuXuXuXuXuXuXuXuXuXuXuXuXuXuXuXuXuXuXuXuXuXuXuXuXuXuXuXuXuXuXuXuXuXuXuXuXuXuXuXuX",
"uXuXuXuXuXuXuXuXuXuXuXuXuXuXuXuXuXuXuXuXuXuXuXuXuXuXuXuXuXuXuXuXuXuXuXuXuXuXuXuXuXuXuXuXuXuXuXuXuXuXuXuXuXuXuXuXuXuXuXuXuXuXuXuXuXuXuXuXuXuXuXuXuXuXuXuXuXuXuXuX",
"uXuXuXuXuXuXuXuXuXuXuXuXuXuXuXuXuXuXuXuXuXuXuXuXuXuXuXuXuXuXuXuXuXuXuXuXuXuXuXuXuXuXuXuXuXuXuXuXuXuXuXuXuXuXuXuXuXuXuXuXuXuXuXuXuXuXuXuXuXuXuXuXuXuXuXuXuXuXuXuX",
"uXuXuXuXuXuXuXuXuXuXuXuXuXuXuXuXuXuXuXuXuXuXuXuXuXuXuXuXuXuXuXuXuXuXuXuXuXuXuXuXuXuXuXuXuXuXuXuXuXuXuXuXuXuXuXuXuXuXuXuXuXuXuXuXuXuXuXuXuXuXuXuXuXuXuXuXuXuXuXuX",
"uXuXuXuXuXuXuXuXuXuXuXuXuXuXuXuXuXuXuXuXuXuXuXuXuXuXuXuXuXuXuXuXuXuXuXuXuXuXuXuXuXuXuXuXuXuXuXuXuXuXuXuXuXuXuXuXuXuXuXuXuXuXuXuXuXuXuXuXuXuXuXuXuXuXuXuXuXuXuXuX",
"uXuXuXuXuXuXuXuXuXuXuXuXuXuXuXuXuXuXuXuXuXuXuXuXuXuXuXuXuXuXuXuXuXuXuXuXuXuXuXuXuXuXuXuXuXuXuXuXuXuXuXuX1XeXyXtXyXrX@XuXuXuXuXuXuXuXuXuXuXuXuXuXuXuXuXuXuXuXuXuX",
"uXuXuXuXuXuXuXuXuXuXuXuXuXuXuXuXuXuXuXuXuXuXuXuXuXuXuXuXuXuXuXuXuXuXuXuXuXuXuXuXuXuXuXuXuXuXuXuXuXuXuX>X3X0XrXyXyXrX:X.XuXuXuXuXuXuXuXuXuXuXuXuXuXuXuXuXuXuXuXuX",
"uXuXuXuXuXuXuXuXuXuXuXuXuXuXuXuXuXuXuXuXuXuXuXuXuXuXuXuXuXuXuXuXuXuXuXuXuXuXuXuXuXuXuXuXuXuXuXuXuXuXoX3X5X3X8X8X0XqXqX;XuXuXuXuXuXuXuXuXuXuXuXuXuXuXuXuXuXuXuXuX",
"uXuXuXuXuXuXuXuXuXuXuXuXuXuXuXuXuXuXuXuXuXuXuXuXuXuXuXuXuXuXuXuXuXuXuXuXuXuXuXuXuXuXuXuXuXuXuXuXuXuXOXwX4X5X9X$X8X0X8X9X2XuXuXuXuXuXuXuXuXuXuXuXuXuXuXuXuXuXuXuX",
"uXuXuXuXuXuXuXuXuXuXuXuXuXuXuXuXuXuXuXuXuXuXuXuXuXuXuXuXuXuXuXuXuXuXuXuXuXuXuXuXuXuXuXuXuXuXuXuXuXuXOX,X^.3X6Xw.(.5X4X4X,XuXuXuXuXuXuXuXuXuXuXuXuXuXuXuXuXuXuXuX",
"uXuXuXuXuXuXuXuXuXuXuXuXuXuXuXuXuXuXuXuXuXuXuXuXuXuXuXuXuXuXuXuXuXuXuXuXuXuXuXuXuXuXuXuXuXuXuXuXuXuXuXw U (.#XR ; /.<X<X,XuXuXuXuXuXuXuXuXuXuXuXuXuXuXuXuXuXuXuX",
"uXuXuXuXuXuXuXuXuXuXuXuXuXuXuXuXuXuXuXuXuXuXuXuXuXuXuXuXuXuXuXuXuXuXuXuXuXuXuXuXuXuXuXuXuXuXuXuX[.I.D.J ; <.`.<.y , 0.^.uXuXuXuXuXuXuXuXuXuXuXuXuXuXuXuXuXuXuXuX",
"uXuXuXuXuXuXuXuXuXuXuXuXuXuXuXuXuXuXuXuXuXuXuXuXuXuXuXuXuXuXuXuXuXuXuXuXuXuXuXuXuXuXuXuXuXD ! G.*X XK.Z.d I q.q.N._ @ uXuXuXuXuXuXuXuXuXuXuXuXuXuXuXuXuXuXuXuXuX",
"uXuXuXuXuXuXuXuXuXuXuXuXuXuXuXuXuXuXuXuXuXuXuXuXuXuXuXuXuXuXuXuXuXuXuXuXuXuXuXuXuXuXk.@.c.b.@.A.L.oX8.] i B l.k.o.B O uXuXuXuXuXuXuXuXuXuXuXuXuXuXuXuXuXuXuXuXuX",
"uXuXuXuXuXuXuXuXuXuXuXuXuXuXuXuXuXuXuXuXuXuXuXuXuXuXuXuXuXuXuXuXuXuXuXuXuXuXuXuXuXx.b.b.b.} L K [ P.Q.5.u - D g + uXuXuXuXuXuXuXuXuXuXuXuXuXuXuXuXuXuXuXuXuXuXuX",
"uXuXuXuXuXuXuXuXuXuXuXuXuXuXuXuXuXuXuXuXuXuXuXuXuXuXuXuXuXuXuXuXuXuXuXuXuXuXuXuXE b.b.c.x.b.U.U.#.N Q.E.6 0 o uXuXuXuXuXuXuXuXuXuXuXuXuXuXuXuXuXuXuXuXuXuXuXuXuX",
"uXuXuXuXuXuXuXuXuXuXuXuXuXuXuXuXuXuXuXuXuXuXuXuXuXuXuXuXuXuXuXuXuXuXuXuXuXuXuXXXN.#.b.@.c.M.T.T.M.W N 5 r.r.0 uXuXuXuXuXuXuXuXuXuXuXuXuXuXuXuXuXuXuXuXuXuXuXuXuX",
"uXuXuXuXuXuXuXuXuXuXuXuXuXuXuXuXuXuXuXuXuXuXuXuXuXuXuXuXuXuXuXuXuXuXuXuXuXuXuX=X%XU.#.! b.n.V.V.n.@.x > r.r.r.3 uXuXuXuXuXuXuXuXuXuXuXuXuXuXuXuXuXuXuXuXuXuXuXuX",
"uXuXuXuXuXuXuXuXuXuXuXuXuXuXuXuXuXuXuXuXuXuXuXuXuXuXuXuXuXuXuXuXuXuXuXuXuXuXI.:X:X-Xe.D b.b.b.b.b.U.1.> r.r.r.8.B uXuXuXuXuXuXuXuXuXuXuXuXuXuXuXuXuXuXuXuXuXuXuX",
"uXuXuXuXuXuXuXuXuXuXuXuXuXuXuXuXuXuXuXuXuXuXuXuXuXuXuXuXuXuXuXuXuXuXuXuXuXuX+.Y.-X%X( ..b.b.b.c.O.Y..XuX7 r.&.| E E H uXuXuXuXuXuXuXuXuXuXuXuXuXuXuXuXuXuXuXuXuX",
"uXuXuXuXuXuXuXuXuXuXuXuXuXuXuXuXuXuXuXuXuXuXuXuXuXuXuXuXuXuXuXuXuXuXuXuXuXE #.c.B.9.q.S.%.b.@.Y.&X-XXXuXuX$ : k.k.k.k.K uXuXuXuXuXuXuXuXuXuXuXuXuXuXuXuXuXuXuXuX",
"uXuXuXuXuXuXuXuXuXuXuXuXuXuXuXuXuXuXuXuXuXuXuXuXuXuXuXuXuXuXuXuXuXuXuXuXuX@.b.b.O.@.s.d.J. .d.7X:X:XXXuXuXuXg k.k.k.k.| H uXuXuXuXuXuXuXuXuXuXuXuXuXuXuXuXuXuXuX",
"uXuXuXuXuXuXuXuXuXuXuXuXuXuXuXuXuXuXuXuXuXuXuXuXuXuXuXuXuXuXuXuXuXuXuXuX9.n.b.O.@.b.c.s.f.6.|.wX9X9X1XuXuXuXuX~ k.k.k.7.h uXuXuXuXuXuXuXuXuXuXuXuXuXuXuXuXuXuXuX",
"uXuXuXuXuXuXuXuXuXuXuXuXuXuXuXuXuXuXuXuXuXuXuXuXuXuXuXuXuXuXuXuXuXuXuXuX=X&XB.} b.b.b.%.Y <.+XwXwXwX2XuXuXuXuXuXK / 6.~.t.uXuXuXuXuXuXuXuXuXuXuXuXuXuXuXuXuXuXuX",
"uXuXuXuXuXuXuXuXuXuXuXuXuXuXuXuXuXuXuXuXuXuXuXuXuXuXuXuXuXuXuXuXuXuXuXe.Y.%Xe.#.b.n.n.O.Z uXuX2X2X,XuXuXuXuXuXuXuXu &.t.` z uXuXuXuXuXuXuXuXuXuXuXuXuXuXuXuXuXuX",
"uXuXuXuXuXuXuXuXuXuXuXuXuXuXuXuXuXuXuXuXuXuXuXuXuXuXuXuXuXuXuXuXuXuX! c...^ c.b.c.! Q H uXuXuXuXuXuXuXuXuXuXuXuXuXuXo x b k O uXuXuXuXuXuXuXuXuXuXuXuXuXuXuXuXuX",
"uXuXuXuXuXuXuXuXuXuXuXuXuXuXuXuXuXuXuXuXuXuXuXuXuXuXuXuXuXuXuXuXuXO.b.@.Q b.b.b.@.T p uXuXuXuXuXuXuXuXuXuXuXuXuXuXuXuXu k y.r uXuXuXuXuXuXuXuXuXuXuXuXuXuXuXuXuX",
"uXuXuXuXuXuXuXuXuXuXuXuXuXuXuXuXuXuXuXuXuXuXuXuXuXuXuXuXuXuXuXuXx.b.n._ D b.b.b.b.b.O.uXuXuXuXuXuXuXuXuXuXuXuXuXuXuXuXuX> R.>.; uXuXuXuXuXuXuXuXuXuXuXuXuXuXuXuX",
"uXuXuXuXuXuXuXuXuXuXuXuXuXuXuXuXuXuXuXuXuXuXuXuXuXuXuXuXuXuXuXuXc.b.b.b.T T b.b.b.b.O.uXuXuXuXuXuXuXuXuXuXuXuXuXuXuXuXuXuX6 o.| W uXuXuXuXuXuXuXuXuXuXuXuXuXuXuX",
"uXuXuXuXuXuXuXuXuXuXuXuXuXuXuXuXuXuXuXuXuXuXuXuXuXuXuXuXuXuXuXc.b.b.b.b.b.P @.b.b.b.c.W uXuXuXuXuXuXuXuXuXuXuXuXuXuXuXuXuXg | k./ | / uXuXuXuXuXuXuXuXuXuXuXuXuX",
"uXuXuXuXuXuXuXuXuXuXuXuXuXuXuXuXuXuXuXuXuXuXuXuXuXuXuXuXuXuXx.b.b.b.b.b.M.m.Q b.b.b.b.o.uXuXuXuXuXuXuXuXuXuXuXuXuXuXuXuXuXuXd / P | k.W uXuXuXuXuXuXuXuXuXuXuXuX",
"uXuXuXuXuXuXuXuXuXuXuXuXuXuXuXuXuXuXuXuXuXuXuXuXuXuXuXuXuXuXx.b.b.b.b.b.n.U.9.o.b.b.b.@.uXuXuXuXuXuXuXuXuXuXuXuXuXuXuXuXuXuXuX! g p ! | uXuXuXuXuXuXuXuXuXuXuXuX",
"uXuXuXuXuXuXuXuXuXuXuXuXuXuXuXuXuXuXuXuXuXuXuXuXuXuXuXuXuXuXx.b.b.b.b.b.b.n.V.9.@.b.b.o.8.uXuXuXuXuXuXuXuXuXuXuXuXuXuXuXuXuXuXB a ; P W B uXuXuXuXuXuXuXuXuXuXuX",
"uXuXuXuXuXuXuXuXuXuXuXuXuXuXuXuXuXuXuXuXuXuXuXuXuXuXuXuXuXuXo.b.b.b.b.b.b.b.b.v.Q @.@.s.'.uXuXuXuXuXuXuXuXuXuXuXuXuXuXuXuXuXuXuXuXuXO B B uXuXuXuXuXuXuXuXuXuXuX",
"uXuXuXuXuXuXuXuXuXuXuXuXuXuXuXuXuXuXuXuXuXuXuXuXuXuXuXuXuXuXuXx.b.b.b.b.b.b.b.b.@.P i.].$.{ uXuXuXuXuXuXuXuXuXuXuXuXuXuXuXuXuXuXuXuXuXg g uXuXuXuXuXuXuXuXuXuXuX",
"uXuXuXuXuXuXuXuXuXuXuXuXuXuXuXuXuXuXuXuXuXuXuXuXuXuXuXuXuXuXuXuXo.n.b.b.b.b.b.b.b.k.t.) H.O.6.uXuXuXuXuXuXuXuXuXuXuXuXuXuXuXuXuXuXuXuXuXuXuXuXuXuXuXuXuXuXuXuXuX",
"uXuXuXuXuXuXuXuXuXuXuXuXuXuXuXuXuXuXuXuXuXuXuXuXuXuXuXuXuXuXuXuX: 6.@.b.b.b.b.b.b.n.J v c.C.).<.uXuXuXuXuXuXuXuXuXuXuXuXuXuXuXuXuXuXuXuXuXuXuXuXuXuXuXuXuXuXuXuX",
"uXuXuXuXuXuXuXuXuXuXuXuXuXuXuXuXuXuXuXuXuXuXuXuXuXuXuXuXuXuXuXuX1 8 V c.b.b.b.b.b.b.b.I 7._.}.+.@.o.W uXuXuXuXuXuXuXuXuXuXuXuXuXuXuXuXuXuXuXuXuXuXuXuXuXuXuXuXuX",
"uXuXuXuXuXuXuXuXuXuXuXuXuXuXuXuXuXuXuXuXuXuXuXuXuXuXuXuXuXuXuXuX1 y 5 V c.b.b.b.b.b.n.^ t _.z.b.b.b.b.! uXuXuXuXuXuXuXuXuXuXuXuXuXuXuXuXuXuXuXuXuXuXuXuXuXuXuXuX",
"uXuXuXuXuXuXuXuXuXuXuXuXuXuXuXuXuXuXuXuXuXuXuXuXuXuXuXuXuXuXuXuX1 y y 6 ~ x.b.b.b.b.b.b.B F b.b.b.b.@./ uXuXuXuXuXuXuXuXuXuXuXuXuXuXuXuXuXuXuXuXuXuXuXuXuXuXuXuX",
"uXuXuXuXuXuXuXuXuXuXuXuXuXuXuXuXuXuXuXuXuXuXuXuXuXuXuXuXuXuXuXuX1 y y y 2.7.l.x.b.b.b.b.c.Q O.b.b.b.b.Q s uXuXuXuXuXuXuXuXuXuXuXuXuXuXuXuXuXuXuXuXuXuXuXuXuXuXuX",
"uXuXuXuXuXuXuXuXuXuXuXuXuXuXuXuXuXuXuXuXuXuXuXuXuXuXuXuXuXuXuXuX4 y y y y 2.R o.l.x.c.b.b.@._ o.b.b.b.@.g uXuXuXuXuXuXuXuXuXuXuXuXuXuXuXuXuXuXuXuXuXuXuXuXuXuXuX",
"uXuXuXuXuXuXuXuXuXuXuXuXuXuXuXuXuXuXuXuXuXuXuXuXuXuXuXuXuXuXuXuXuXq y y y y e ,.~ k.k.x.b.b.b.! o.b.n.@.B uXuXuXuXuXuXuXuXuXuXuXuXuXuXuXuXuXuXuXuXuXuXuXuXuXuXuX",
"uXuXuXuXuXuXuXuXuXuXuXuXuXuXuXuXuXuXuXuXuXuXuXuXuXuXuXuXuXuXuXuXuX4 y y y y y 8 : ! | k.k.x.b.b./ O.T I D uXuXuXuXuXuXuXuXuXuXuXuXuXuXuXuXuXuXuXuXuXuXuXuXuXuXuX",
"uXuXuXuXuXuXuXuXuXuXuXuXuXuXuXuXuXuXuXuXuXuXuXuXuXuXuXuXuXuXuXuXuX* y y y y y 4 uXuXW / | k.l.l.b.x.o.o.@.@.uXuXuXuXuXuXuXuXuXuXuXuXuXuXuXuXuXuXuXuXuXuXuXuXuXuX",
"uXuXuXuXuXuXuXuXuXuXuXuXuXuXuXuXuXuXuXuXuXuXuXuXuXuXuXuXuXuXuXuX% = 9 y y y y 2 uXuXuXuXuXK / k.k.l.c.b.b.b.! uXuXuXuXuXuXuXuXuXuXuXuXuXuXuXuXuXuXuXuXuXuXuXuXuX",
"uXuXuXuXuXuXuXuXuXuXuXuXuXuXuXuXuXuXuXuXuXuXuXuXuXuXd F 3.=.G B 5 2 q y y y 9 # uXuXuXuXuXuXM Q k.k.k.x.b.b.o.uXuXuXuXuXuXuXuXuXuXuXuXuXuXuXuXuXuXuXuXuXuXuXuXuX",
"uXuXuXuXuXuXuXuXuXuXuXuXuXuXuXuXuXuXuXuXuXuXuXuXuXuXF E u.=.G B > 9 y y y y 2 uXuXuXuXuXuXuXuXM o.k.k.k.x.c.uXuXuXuXuXuXuXuXuXuXuXuXuXuXuXuXuXuXuXuXuXuXuXuXuXuX",
"uXuXuXuXuXuXuXuXuXuXuXuXuXuXuXuXuXuXuXuXuXuXuXuX+ D E K u.-.G : 8 y y y y y 1 uXuXuXuXuXuXuXuXo.O.o.k./ l.@.uXuXuXuXuXuXuXuXuXuXuXuXuXuXuXuXuXuXuXuXuXuXuXuXuXuX",
"uXuXuXuXuXuXuXuXuXuXuXuXuXuXuXuXuXuXuXuXuXuXF S f H H H 3.E.l q y y y y y 9 # uXuXuXuXuXuXuXQ b.b.o.k./ / o.uXuXuXuXuXuXuXuXuXuXuXuXuXuXuXuXuXuXuXuXuXuXuXuXuXuX",
"uXuXuXuXuXuXuXuXuXuXuXuXuXuXuXuXuXuXuXF H E K h >.>.>.>.2.R.=.*.q & $ % & $ X uXuXuXuXuXuXuXo.#.b.c.k.k./ uXuXuXuXuXuXuXuXuXuXuXuXuXuXuXuXuXuXuXuXuXuXuXuXuXuXuX",
"uXuXuXuXuXuXuXuXuXuXuXf A A A Z c c c F E E K :.4 9 y y y W.;.j 2 X   uXuXuXuXuXuXuXuXuXuXY h.g.o...W o.D uXuXuXuXuXuXuXuXuXuXuXuXuXuXuXuXuXuXuXuXuXuXuXuXuXuXuX",
"uXuXuXuXuXuXuXuXuXuXuXF E E H Z c n n C H F P e 1 & & & & * < uXuXuXuXuXuXuXuXuXuXuXuXuXuX1.f.j.h.g.g.h.U uXuXuXuXuXuXuXuXuXuXuXuXuXuXuXuXuXuXuXuXuXuXuXuXuXuXuX",
"uXuXuXuXuXuXuXuXuXuXuXH E K D V g n ` m ,.0 3 2 $ X   uXuXuXuXuXuXuXuXuXuXuXuXuXuXuXuXuXuX<.!.{.a.y.y.4.B uXuXuXuXuXuXuXuXuXuXuXuXuXuXuXuXuXuXuXuXuXuXuXuXuXuXuX",
"uXuXuXuXuXuXuXuXuXuXuXF E F , y 7 z x z * & uXuXuXuXuXuXuXuXuXuXuXuXuXuXuXuXuXuXuXuXuXuXuXQ 9.`.|.a.p.a.7.uXuXuXuXuXuXuXuXuXuXuXuXuXuXuXuXuXuXuXuXuXuXuXuXuXuXuX",
"uXuXuXuXuXuXuXuXuXuXuXB E F > 4 1 6 u . uXuXuXuXuXuXuXuXuXuXuXuXuXuXuXuXuXuXuXuXuXuXuXuXuX! b.%.%.#.X.O.! uXuXuXuXuXuXuXuXuXuXuXuXuXuXuXuXuXuXuXuXuXuXuXuXuXuXuX",
"uXuXuXuXuXuXuXuXuXuXuXd F I , = 8 2 uXuXuXuXuXuXuXuXuXuXuXuXuXuXuXuXuXuXuXuXuXuXuXuXuXuXuX/ x.b.b.b.c./ D uXuXuXuXuXuXuXuXuXuXuXuXuXuXuXuXuXuXuXuXuXuXuXuXuXuXuX",
"uXuXuXuXuXuXuXuXuXuXuXuXC K P e 4 uXuXuXuXuXuXuXuXuXuXuXuXuXuXuXuXuXuXuXuXuXuXuXuXuXuXuXuXW k.x.b.c.l.! uXuXuXuXuXuXuXuXuXuXuXuXuXuXuXuXuXuXuXuXuXuXuXuXuXuXuXuX",
"uXuXuXuXuXuXuXuXuXuXuXuXS E H h # uXuXuXuXuXuXuXuXuXuXuXuXuXuXuXuXuXuXuXuXuXuXuXuXuXuXuXuXuX| k.k.k.| ! uXuXuXuXuXuXuXuXuXuXuXuXuXuXuXuXuXuXuXuXuXuXuXuXuXuXuXuX",
"uXuXuXuXuXuXuXuXuXuXuXuXF E E M uXuXuXuXuXuXuXuXuXuXuXuXuXuXuXuXuXuXuXuXuXuXuXuXuXuXuXuXuXuX| k.k.| O.O.uXuXuXuXuXuXuXuXuXuXuXuXuXuXuXuXuXuXuXuXuXuXuXuXuXuXuXuX",
"uXuXuXuXuXuXuXuXuXuXuXM E E E M uXuXuXuXuXuXuXuXuXuXuXuXuXuXuXuXuXuXuXuXuXuXuXuXuXuXuXuXuXuXx.o.k.o.c.uXuXuXuXuXuXuXuXuXuXuXuXuXuXuXuXuXuXuXuXuXuXuXuXuXuXuXuXuX",
"uXuXuXuXuXuXuXuXuXuXuXF E E F p uXuXuXuXuXuXuXuXuXuXuXuXuXuXuXuXuXuXuXuXuXuXuXuXuXuXuXuXuXuX@.O./ x.#.uXuXuXuXuXuXuXuXuXuXuXuXuXuXuXuXuXuXuXuXuXuXuXuXuXuXuXuXuX",
"uXuXuXuXuXuXuXuXuXuXuXZ K E g ; uXuXuXuXuXuXuXuXuXuXuXuXuXuXuXuXuXuXuXuXuXuXuXuXuXuXuXuXuXuXO.b.b.b.#.uXuXuXuXuXuXuXuXuXuXuXuXuXuXuXuXuXuXuXuXuXuXuXuXuXuXuXuXuX",
"uXuXuXuXuXuXuXuXuXuXuXuXF E E E S uXuXuXuXuXuXuXuXuXuXuXuXuXuXuXuXuXuXuXuXuXuXuXuXuXuXuXuXuXO.b.b.b.O.uXuXuXuXuXuXuXuXuXuXuXuXuXuXuXuXuXuXuXuXuXuXuXuXuXuXuXuXuX",
"uXuXuXuXuXuXuXuXuXuXuXuXuXS S S S f uXuXuXuXuXuXuXuXuXuXuXuXuXuXuXuXuXuXuXuXuXuXuXuXuXuXuXuXO.b.b.b.o.uXuXuXuXuXuXuXuXuXuXuXuXuXuXuXuXuXuXuXuXuXuXuXuXuXuXuXuXuX",
"uXuXuXuXuXuXuXuXuXuXuXuXuXuXuXuXuXuXuXuXuXuXuXuXuXuXuXuXuXuXuXuXuXuXuXuXuXuXuXuXuXuXuXuXuXuXL #.c.c.| uXuXuXuXuXuXuXuXuXuXuXuXuXuXuXuXuXuXuXuXuXuXuXuXuXuXuXuXuX",
"uXuXuXuXuXuXuXuXuXuXuXuXuXuXuXuXuXuXuXuXuXuXuXuXuXuXuXuXuXuXuXuXuXuXuXuXuXuXuXuXuXuXuXuXuXuXv { ' ' L uXuXuXuXuXuXuXuXuXuXuXuXuXuXuXuXuXuXuXuXuXuXuXuXuXuXuXuXuX",
"uXuXuXuXuXuXuXuXuXuXuXuXuXuXuXuXuXuXuXuXuXuXuXuXuXuXuXuXuXuXuXuXuXuXuXuXuXuXuXuXuXuXuXuXuXuX' S.A.[ [ uXuXuXuXuXuXuXuXuXuXuXuXuXuXuXuXuXuXuXuXuXuXuXuXuXuXuXuXuX",
"uXuXuXuXuXuXuXuXuXuXuXuXuXuXuXuXuXuXuXuXuXuXuXuXuXuXuXuXuXuXuXuXuXuXuXuXuXuXuXuXuXuXuXuXuXK L F.Z.Z. .W uXuXuXuXuXuXuXuXuXuXuXuXuXuXuXuXuXuXuXuXuXuXuXuXuXuXuXuX",
"uXuXuXuXuXuXuXuXuXuXuXuXuXuXuXuXuXuXuXuXuXuXuXuXuXuXuXuXuXuXuXuXuXuXuXuXuXuXuXuXuXuXuXuXuXO.@.L } ..b.@.uXuXuXuXuXuXuXuXuXuXuXuXuXuXuXuXuXuXuXuXuXuXuXuXuXuXuXuX",
"uXuXuXuXuXuXuXuXuXuXuXuXuXuXuXuXuXuXuXuXuXuXuXuXuXuXuXuXuXuXuXuXuXuXuXuXuXuXuXuXuXuXuXuXuX#.#.} b.O.b.b.O.uXuXuXuXuXuXuXuXuXuXuXuXuXuXuXuXuXuXuXuXuXuXuXuXuXuXuX",
"uXuXuXuXuXuXuXuXuXuXuXuXuXuXuXuXuXuXuXuXuXuXuXuXuXuXuXuXuXuXuXuXuXuXuXuXuXuXuXuXuXuXuXuXuXb.#.} b.o.b.b.b.O.uXuXuXuXuXuXuXuXuXuXuXuXuXuXuXuXuXuXuXuXuXuXuXuXuXuX",
"uXuXuXuXuXuXuXuXuXuXuXuXuXuXuXuXuXuXuXuXuXuXuXuXuXuXuXuXuXuXuXuXuXuXuXuXuXuXuXuXuXuXuXuXx.b.b.@.@.o.b.b.b.b.o.uXuXuXuXuXuXuXuXuXuXuXuXuXuXuXuXuXuXuXuXuXuXuXuXuX",
"uXuXuXuXuXuXuXuXuXuXuXuXuXuXuXuXuXuXuXuXuXuXuXuXuXuXuXuXuXuXuXuXuXuXuXuXuXuXuXuXuXuXuXuXo.b.b.@.| @.b.b.b.b.@.W uXuXuXuXuXuXuXuXuXuXuXuXuXuXuXuXuXuXuXuXuXuXuXuX",
"uXuXuXuXuXuXuXuXuXuXuXuXuXuXuXuXuXuXuXuXuXuXuXuXuXuXuXuXuXuXuXuXuXuXuXuXuXuXuXuXuXuXuXuX! @.@.@.@.| @.b.b.b.b.@.@.o.uXuXuXuXuXuXuXuXuXuXuXuXuXuXuXuXuXuXuXuXuXuX",
"uXuXuXuXuXuXuXuXuXuXuXuXuXuXuXuXuXuXuXuXuXuXuXuXuXuXuXuXuXuXuXuXuXuXuXuXuXuXuXuXuXuXuXuXuXuXs s s a F o.b.b.b.b.b.b.o.uXuXuXuXuXuXuXuXuXuXuXuXuXuXuXuXuXuXuXuXuX",
"uXuXuXuXuXuXuXuXuXuXuXuXuXuXuXuXuXuXuXuXuXuXuXuXuXuXuXuXuXuXuXuXuXuXuXuXuXuXuXuXuXuXuXuXuXuXuXuXuXuXuXuXD D D D D D B uXuXuXuXuXuXuXuXuXuXuXuXuXuXuXuXuXuXuXuXuX"
};
