/* XPM */
static char *result[] = {
/* columns rows colors chars-per-pixel */
"80 80 218 2 ",
"   c #48081A",
".  c #681C19",
"X  c #732C15",
"o  c #75271E",
"O  c #4B0D21",
"+  c #520F23",
"@  c #4E1126",
"#  c #51162C",
"$  c #54182F",
"%  c #5A192A",
"&  c #561B33",
"*  c #581E36",
"=  c #641B25",
"-  c #5D2335",
";  c #5B233C",
":  c #6A252D",
">  c #6E282D",
",  c #782922",
"<  c #7C2D2A",
"1  c #67293B",
"2  c #742E35",
"3  c #612A44",
"4  c #642E4A",
"5  c #712E46",
"6  c #66304D",
"7  c #753248",
"8  c #693452",
"9  c #6C3857",
"0  c #6D3B5B",
"q  c #773D5C",
"w  c #7F3A67",
"e  c #7D4255",
"r  c #754852",
"t  c #76415D",
"y  c #7A4259",
"u  c #734263",
"i  c #764D69",
"p  c #6B4A75",
"a  c #7E5D7B",
"s  c #8D361E",
"d  c #973D1C",
"f  c #8C3624",
"g  c #85342B",
"h  c #893528",
"j  c #943624",
"k  c #943B24",
"l  c #993D25",
"z  c #943D2A",
"x  c #993F28",
"c  c #8A3934",
"v  c #923D39",
"b  c #AA3E2C",
"n  c #B73A34",
"m  c #C53E27",
"M  c #914013",
"N  c #B05E0C",
"B  c #B25B13",
"V  c #B9660C",
"C  c #BC6B0B",
"Z  c #B66114",
"A  c #9C442A",
"S  c #9C432C",
"D  c #9B4534",
"F  c #994536",
"G  c #954D35",
"H  c #93433C",
"J  c #A44424",
"K  c #A94625",
"L  c #AC4926",
"P  c #A2452A",
"I  c #A0492D",
"U  c #AC4B2B",
"Y  c #B14D2C",
"T  c #BA492D",
"R  c #B5512E",
"E  c #B9562F",
"W  c #A44A32",
"Q  c #A74936",
"!  c #AC4F33",
"~  c #AD5132",
"^  c #AD523A",
"/  c #B45332",
"(  c #B95635",
")  c #B65935",
"_  c #BD5B35",
"`  c #B3553A",
"'  c #B65A39",
"]  c #BC5B3B",
"[  c #BC613B",
"{  c #C8790B",
"}  c #CE7311",
"|  c #CB751C",
" . c #C24F3D",
".. c #C15E35",
"X. c #C45738",
"o. c #C25E3C",
"O. c #C6682C",
"+. c #C46236",
"@. c #CA6333",
"#. c #C5633B",
"$. c #C9663C",
"%. c #CD6A3D",
"&. c #D16E3F",
"*. c #C2763C",
"=. c #D3713A",
"-. c #8C3D56",
";. c #AF3745",
":. c #89444A",
">. c #994947",
",. c #93544A",
"<. c #824453",
"1. c #954755",
"2. c #8B585B",
"3. c #9A5954",
"4. c #A64F4A",
"5. c #A55241",
"6. c #B55A47",
"7. c #A9555A",
"8. c #B45654",
"9. c #A6714B",
"0. c #BC6653",
"q. c #854365",
"w. c #954669",
"e. c #925862",
"r. c #864A7A",
"t. c #885D72",
"y. c #A65365",
"u. c #94726A",
"i. c #89697B",
"p. c #996873",
"a. c #A56865",
"s. c #BE6C66",
"d. c #B97263",
"f. c #A67177",
"g. c #D15847",
"h. c #C66342",
"j. c #C96642",
"k. c #CD6B42",
"l. c #C2694C",
"z. c #D16E41",
"x. c #D9614F",
"c. c #D67342",
"v. c #D87543",
"b. c #D47548",
"n. c #CA7354",
"m. c #D57B53",
"M. c #DA7D55",
"N. c #CC5F61",
"B. c #CB6E6A",
"V. c #DD8F04",
"C. c #D69209",
"Z. c #D38414",
"A. c #DC9912",
"S. c #E18E12",
"D. c #DFA30C",
"F. c #CA8634",
"G. c #E39334",
"H. c #E1A634",
"J. c #A7807C",
"K. c #D88C52",
"L. c #D1926E",
"P. c #E38F6F",
"I. c #43458F",
"U. c #725082",
"Y. c #685A97",
"T. c #7979A6",
"R. c #905B84",
"E. c #AD5E84",
"W. c #866A87",
"Q. c #8B758B",
"!. c #85769A",
"~. c #9A789B",
"^. c #A86E82",
"/. c #A87785",
"(. c #B26595",
"). c #B26EB4",
"_. c #7B86B0",
"`. c #94839D",
"'. c #A78082",
"]. c #AC9490",
"[. c #BAB597",
"{. c #8787AE",
"}. c #9695B9",
"|. c #A68DA3",
" X c #B6B3B5",
".X c #C89489",
"XX c #C2A8B9",
"oX c #D0C89C",
"OX c #CBC7AA",
"+X c #D5CEAD",
"@X c #D1D2AF",
"#X c #D6D6B5",
"$X c #D4D5BB",
"%X c #9E9BC2",
"&X c #A69DC7",
"*X c #A5A3C6",
"=X c #B6AFC1",
"-X c #BAB4C6",
";X c #A8A8D4",
":X c #B8B8DA",
">X c #B6B7E0",
",X c #BCBCE1",
"<X c #CAB4C4",
"1X c #C3BDDC",
"2X c #C8C8C6",
"3X c #DEDEC0",
"4X c #C5C6D5",
"5X c #CDCDD3",
"6X c #C5C5DC",
"7X c #E1E2C4",
"8X c #E4E4D3",
"9X c #C4C4E5",
"0X c #C6C7E6",
"qX c #EDEDE2",
"wX c #F1F1E5",
"eX c #F4F4EC",
"rX c gray97",
"tX c None",
/* pixels */
"tXtXtXtXtXtXtXtXtXtXtXtXtXtXtXtXtXtXtXtXtXtXtXtXtXtXtXtXtXtXtXtXtXtXtXtXtXtXtXtXtXtX X8XeXwXtXtXtXtXtXtXtXtXtXtXtXtXtXtXtXtXtXtXtXtXtXtXtXtXtXtXtXtXtXtXtXtXtXtX",
"tXtXtXtXtXtXtXtXtXtXtXtXtXtXtXtXtXtXtXtXtXtXtXtXtXtXtXtXtXtXtXtXtXtXtXtXtXtXtXtXtX}.4XwXrXrXrXqXOXtXtXtXtXtXtXtXtXtXtXtXtXtXtXtXtXtXtXtXtXtXtXtXtXtXtXtXtXtXtXtX",
"tXtXtXtXtXtXtXtXtXtXtXtXtXtXtXtXtXtXtXtXtXtXtXtXtXtXtXtXtXtXtXtXtXtXtXtXtXtXtXtX{.;X:X2X8XqXwXeX7X[.tXtXtXtXtXtXtXtXtXtXtXtXtXtXtXtXtXtXtXtXtXtXtXtXtXtXtXtXtXtX",
"tXtXtXtXtXtXtXtXtXtXtXtXtXtXtXtXtXtXtXtXtXtXtXtXtXtXtXtXtXtXtXtXtXtXtXtXtXtXtXtX}.9X0X:X4X$X7X7X3X2XtXtXtXtXtXtXtXtXtXtXtXtXtXtXtXtXtXtXtXtXtXtXtXtXtXtXtXtXtXtX",
"tXtXtXtXtXtXtXtXtXtXtXtXtXtXtXtXtXtXtXtXtXtXtXtXtXtXtXtXtXtXtXtXtXtXtXtXtXtXtXtX}.9X}.:X-X].=X6X6X9X*XtXtXtXtXtXtXtXtXtXtXtXtXtXtXtXtXtXtXtXtXtXtXtXtXtXtXtXtXtX",
"tXtXtXtXtXtXtXtXtXtXtXtXtXtXtXtXtXtXtXtXtXtXtXtXtXtXtXtXtXtXtXtXtXtXtXtXtXtXtXtXp i.3.*XXX] r %X;X*X;XtXtXtXtXtXtXtXtXtXtXtXtXtXtXtXtXtXtXtXtXtXtXtXtXtXtXtXtXtX",
"tXtXtXtXtXtXtXtXtXtXtXtXtXtXtXtXtXtXtXtXtXtXtXtXtXtXtXtXtXtXtXtXtXtXtXtXtXtXtXtX) F z e.|.H - r `.!.tXtXtXtXtXtXtXtXtXtXtXtXtXtXtXtXtXtXtXtXtXtXtXtXtXtXtXtXtXtX",
"tXtXtXtXtXtXtXtXtXtXtXtXtXtXtXtXtXtXtXtXtXtXtXtXtXtXtXtXtXtXtXtXtXtXtXtXtXtXJ.G.A.+., ^ f.i.p.D h tXtXtXtXtXtXtXtXtXtXtXtXtXtXtXtXtXtXtXtXtXtXtXtXtXtXtXtXtXtXtX",
"tXtXtXtXtXtXtXtXtXtXtXtXtXtXtXtXtXtXtXtXtXtXtXtXtXtXtXtXtXtXtXtXtXR _ ] [ F.|.x.S.| z ^ l.0.z.' . tXtXtXtXtXtXtXtXtXtXtXtXtXtXtXtXtXtXtXtXtXtXtXtXtXtXtXtXtXtXtX",
"tXtXtXtXtXtXtXtXtXtXtXtXtXtXtXtXtXtXtXtXtXtXtXtXtXtXtXtXtXtXtXtXS &.c.P.P.M.d.e.m } M h #.) z o tXtXtXtXtXtXtXtXtXtXtXtXtXtXtXtXtXtXtXtXtXtXtXtXtXtXtXtXtXtXtXtX",
"tXtXtXtXtXtXtXtXtXtXtXtXtXtXtXtXtXtXtXtXtXtXtXtXtXtXtXtXtXtXtX_ +.v.c.K.P.m.c.2.1.U tXtXo . tXtXtXtXtXtXtXtXtXtXtXtXtXtXtXtXtXtXtXtXtXtXtXtXtXtXtXtXtXtXtXtXtXtX",
"tXtXtXtXtXtXtXtXtXtXtXtXtXtXtXtXtXtXtXtXtXtXtXtXtXtXtXtXtXtXtXU %.c.c.c.v.v.c.S I.p.tXtXtXtXtXtXtXtXtXtXtXtXtXtXtXtXtXtXtXtXtXtXtXtXtXtXtXtXtXtXtXtXtXtXtXtXtXtX",
"tXtXtXtXtXtXtXtXtXtXtXtXtXtXtXtXtXtXtXtXtXtXtXtXtXtXtXtXtXtXs J #.c.c.c.c.c.c.) 9.,.= tXtXtXtXtXtXtXtXtXtXtXtXtXtXtXtXtXtXtXtXtXtXtXtXtXtXtXtXtXtXtXtXtXtXtXtXtX",
"tXtXtXtXtXtXtXtXtXtXtXtXtXtXtXtXtXtXtXtXtXtXtXtXtXtXtXtXtX8.K.Z.$.c.c.c.v.v.&.L.oX2.= tXtXtXtXtXtXtXtXtXtXtXtXtXtXtXtXtXtXtXtXtXtXtXtXtXtXtXtXtXtXtXtXtXtXtXtXtX",
"tXtXtXtXtXtXtXtXtXtXtXtXtXtXtXtXtXtXtXtXtXtXtXtXtXtXtXo.%.%.d.H.| z.&._ S h d.+X@Xe.g tXtXtXtXtXtXtXtXtXtXtXtXtXtXtXtXtXtXtXtXtXtXtXtXtXtXtXtXtXtXtXtXtXtXtXtXtX",
"tXtXtXtXtXtXtXtXtXtXtXtXtXtXtXtXtXtXtXtXtXtXtXtXtXtX#.c.c.v.$.s.H.=.d.f.^.^.OX#X#X[.9.2 tXtXtXtXtXtXtXtXtXtXtXtXtXtXtXtXtXtXtXtXtXtXtXtXtXtXtXtXtXtXtXtXtXtXtXtX",
"tXtXtXtXtXtXtXtXtXtXtXtXtXtXtXtXtXtXtXtXtXtXtXtX_ %.c.c.c.c.c.' l..X1X0X4X0X$X#X#X@X'.w + tXtXtXtXtXtXtXtXtXtXtXtXtXtXtXtXtXtXtXtXtXtXtXtXtXtXtXtXtXtXtXtXtXtXtX",
"tXtXtXtXtXtXtXtXtXtXtXtXtXtXtXtXtXtXtXtXtXtX/ #.c.c.$.z.v.c.+.E %..X<X<X:X9X5X#X#X@Xu.-.- tXtXtXtXtXtXtXtXtXtXtXtXtXtXtXtXtXtXtXtXtXtXtXtXtXtXtXtXtXtXtXtXtXtXtX",
"tXtXtXtXtXtXtXtXtXtXtXtXtXtXtXtXtXtXtXtXtXS k.c.c.c.c._ I ) #.c.v.c.c.m.'.=X0X5X5X Xt.q.5 g / tXtXtXtXtXtXtXtXtXtXtXtXtXtXtXtXtXtXtXtXtXtXtXtXtXtXtXtXtXtXtXtXtX",
"tXtXtXtXtXtXtXtXtXtXtXtXtXtXtXtXtXtXtXtXtXA c.c.c.c.v._ ) %.v.%.k.0.7.4.f u.:X,X>Xa q q.5 Q j.U tXtXtXtXtXtXtXtXtXtXtXtXtXtXtXtXtXtXtXtXtXtXtXtXtXtXtXtXtXtXtXtX",
"tXtXtXtXtXtXtXtXtXtXtXtXtXtXtXtXtXtXtXtXtXtX#.v.c.c.v.%._ v.c.k.7.y.1.c tXtXtX;XtXtX% 1 c o.7.w.+ tXtXtXtXtXtXtXtXtXtXtXtXtXtXtXtXtXtXtXtXtXtXtXtXtXtXtXtXtXtXtX",
"tXtXtXtXtXtXtXtXtXtXtXtXtXtXtXtXtXtXtXtXtXtXI %.v.v.c.c.%.L.,.1.1.1.v tXtXtXtXtXtXtX= 7 6.6.R.>.< z ` / tXtXtXtXtXtXtXtXtXtXtXtXtXtXtXtXtXtXtXtXtXtXtXtXtXtXtXtX",
"tXtXtXtXtXtXtXtXtXtXtXtXtXtXtXtXtXtXtXtXtXtXtX~ #.v.v.v.$._ n./.i = tXtXtXtXtXtXtXtXtX7 6.>.7.d ( ! / #./ tXtXtXtXtXtXtXtXtXtXtXtXtXtXtXtXtXtXtXtXtXtXtXtXtXtXtX",
"tXtXtXtXtXtXtXtXtXtXtXtXtXtXtXtXtXtXtXtXtXtXtXtXtX#.v.n.(.(.k.n.&XW.tXtXtXtXtXtXtXtXtXtXg < v o.W S h ` ! ( tXtXtXtXtXtXtXtXtXtXtXtXtXtXtXtXtXtXtXtXtXtXtXtXtXtX",
"tXtXtXtXtXtXtXtXtXtXtXtXtXtXtXtXtXtXtXtXtXtXtXtXtX) +.E.).F.Z.U a !.tXtXtXtXtXtXtXtXtXtXtX  h z S h.` z W ! tXtXtXtXtXtXtXtXtXtXtXtXtXtXtXtXtXtXtXtXtXtXtXtXtXtX",
"tXtXtXtXtXtXtXtXtXtXtXtXtXtXtXtXtXtXtXtXtXtXtXtXtXz._ w.*.D.g.Q e.W.tXtXtXtXtXtXtXtXtXtXtXtXo o , ` ] ` W tXtXtXtXtXtXtXtXtXtXtXtXtXtXtXtXtXtXtXtXtXtXtXtXtXtXtX",
"tXtXtXtXtXtXtXtXtXtXtXtXtXtXtXtXtXtXtXtXtXtXtXtXz.c.c.` Z @.B._.!.p.tXtXtXtXtXtXtXtXtXtXtXtXtXtXtXh f f tXtXtXtXtXtXtXtXtXtXtXtXtXtXtXtXtXtXtXtXtXtXtXtXtXtXtXtX",
"tXtXtXtXtXtXtXtXtXtXtXtXtXtXtXtXtXtXtXtXtXtXtXtXz.c.c.c._ b a.Q.%.c.z.$.$.$._ tXtXtXtXtXtXtXtXtXtXtXtXtXtXtXtXtXtXtXtXtXtXtXtXtXtXtXtXtXtXtXtXtXtXtXtXtXtXtXtXtX",
"tXtXtXtXtXtXtXtXtXtXtXtXtXtXtXtXtXtXtXtXtXtXtXj.c.c.c.c.v./ ,.3.=.c.c.v.%.#.) k tXtXtXtXtXtXtXtXtXtXtXtXtXtXtXtXtXtXtXtXtXtXtXtXtXtXtXtXtXtXtXtXtXtXtXtXtXtXtXtX",
"tXtXtXtXtXtXtXtXtXtXtXtXtXtXtXtXtXtXtXtXtXtXtXh.c.c.c.c.c.v.$.~ c.c.c.c.c.) f tXtXtXtXtXtXtXtXtXtXtXtXtXtXtXtXtXtXtXtXtXtXtXtXtXtXtXtXtXtXtXtXtXtXtXtXtXtXtXtXtX",
"tXtXtXtXtXtXtXtXtXtXtXtXtXtXtXtXtXtXtXtXtXtXtXtXc.c.c.c.c.c.b.n.' c.c.c.c.%.#.tXtXtXtXtXtXtXtXtXtXtXtXtXtXtXtXtXtXtXtXtXtXtXtXtXtXtXtXtXtXtXtXtXtXtXtXtXtXtXtXtX",
"tXtXtXtXtXtXtXtXtXtXtXtXtXtXtXtXtXtXtXtXtXtXtXtX$.c.c.c.c.c.c.m.l.[ c.c.c.~ #.tXtXtXtXtXtXtXtXtXtXtXtXtXtXtXtXtXtXtXtXtXtXtXtXtXtXtXtXtXtXtXtXtXtXtXtXtXtXtXtXtX",
"tXtXtXtXtXtXtXtXtXtXtXtXtXtXtXtXtXtXtXtXtXtXtXtXtXc.c.c.c.c.c.c.m.6.#.v.v.$.) / tXtXtXtXtXtXtXtXtXtXtXtXtXtXtXtXtXtXtXtXtXtXtXtXtXtXtXtXtXtXtXtXtXtXtXtXtXtXtXtX",
"tXtXtXtXtXtXtXtXtXtXtXtXtXtXtXtXtXtXtXtXtXtXtXtXtX..c.c.c.c.c.c.c.b.' %.c.) S / tXtXtXtXtXtXtXtXtXtXtXtXtXtXtXtXtXtXtXtXtXtXtXtXtXtXtXtXtXtXtXtXtXtXtXtXtXtXtXtX",
"tXtXtXtXtXtXtXtXtXtXtXtXtXtXtXtXtXtXtXtXtXtXtXtXtX: 5.&.c.c.c.c.c.c.z.~ S I #.c.#.tXtXtXtXtXtXtXtXtXtXtXtXtXtXtXtXtXtXtXtXtXtXtXtXtXtXtXtXtXtXtXtXtXtXtXtXtXtXtX",
"tXtXtXtXtXtXtXtXtXtXtXtXtXtXtXtXtXtXtXtXtXtXtXtXtX# y ^ z.v.c.c.c.c.c.c.b.c.v.c.z...tXtXtXtXtXtXtXtXtXtXtXtXtXtXtXtXtXtXtXtXtXtXtXtXtXtXtXtXtXtXtXtXtXtXtXtXtXtX",
"tXtXtXtXtXtXtXtXtXtXtXtXtXtXtXtXtXtXtXtXtXtXtXtXtX$ u e ` k.c.c.c.c.c.c.c.c.c.c.c.%.tXtXtXtXtXtXtXtXtXtXtXtXtXtXtXtXtXtXtXtXtXtXtXtXtXtXtXtXtXtXtXtXtXtXtXtXtXtX",
"tXtXtXtXtXtXtXtXtXtXtXtXtXtXtXtXtXtXtXtXtXtXtXtXtX$ u u <.( j.k.c.c.c.c.c.c.v.v.c.c.$.tXtXtXtXtXtXtXtXtXtXtXtXtXtXtXtXtXtXtXtXtXtXtXtXtXtXtXtXtXtXtXtXtXtXtXtXtX",
"tXtXtXtXtXtXtXtXtXtXtXtXtXtXtXtXtXtXtXtXtXtXtXtXtX$ u u u <.6.h.j.k.c.c.v.c.c.c.c.c.c.$.tXtXtXtXtXtXtXtXtXtXtXtXtXtXtXtXtXtXtXtXtXtXtXtXtXtXtXtXtXtXtXtXtXtXtXtX",
"tXtXtXtXtXtXtXtXtXtXtXtXtXtXtXtXtXtXtXtXtXtXtXtXtX$ u u u u e 5.o.h.h.k.c.v.c.c.c.c.c.c._ tXtXtXtXtXtXtXtXtXtXtXtXtXtXtXtXtXtXtXtXtXtXtXtXtXtXtXtXtXtXtXtXtXtXtX",
"tXtXtXtXtXtXtXtXtXtXtXtXtXtXtXtXtXtXtXtXtXtXtXtXtXtX8 u u u u t :.` h.h.j.k.c.c.c.c.c.c.&.E tXtXtXtXtXtXtXtXtXtXtXtXtXtXtXtXtXtXtXtXtXtXtXtXtXtXtXtXtXtXtXtXtXtX",
"tXtXtXtXtXtXtXtXtXtXtXtXtXtXtXtXtXtXtXtXtXtXtXtXtXtX; u u u u u u 1 x o.h.h.j.k.c.v.c.c.c.%.tXtXtXtXtXtXtXtXtXtXtXtXtXtXtXtXtXtXtXtXtXtXtXtXtXtXtXtXtXtXtXtXtXtX",
"tXtXtXtXtXtXtXtXtXtXtXtXtXtXtXtXtXtXtXtXtXtXtXtXtXtXO 0 u u u u u 3 tXtX( #.h.h.j.#.c.c.c.z.E tXtXtXtXtXtXtXtXtXtXtXtXtXtXtXtXtXtXtXtXtXtXtXtXtXtXtXtXtXtXtXtXtX",
"tXtXtXtXtXtXtXtXtXtXtXtXtXtXtXtXtXtXtXtXtXtXtXtXtXtX- 4 u u u u u 6 tXtXtXtX] h.h./ %.c.c.v.$.tXtXtXtXtXtXtXtXtXtXtXtXtXtXtXtXtXtXtXtXtXtXtXtXtXtXtXtXtXtXtXtXtX",
"tXtXtXtXtXtXtXtXtXtXtXtXtXtXtXtXtXtXtXtXtXtXtXtXtXtX< ; 8 u u u 0 O tXtXtXtXU o.h./ $.c.c.c.%.L tXtXtXtXtXtXtXtXtXtXtXtXtXtXtXtXtXtXtXtXtXtXtXtXtXtXtXtXtXtXtXtX",
"tXtXtXtXtXtXtXtXtXtXtXtXtXtXtXtXtXtXtXtXtXtXtXtXtXtXs # 0 u u u 8 tXtXtXtXtXR / h.#.k.c.c.c._ tXtXtXtXtXtXtXtXtXtXtXtXtXtXtXtXtXtXtXtXtXtXtXtXtXtXtXtXtXtXtXtXtX",
"tXtXtXtXtXtXtXtXtXtXtXtXtXtXtXtXtXtXtXtXtXtXtXtXtXk j 3 u u u u ; tXtXtXtXb ..%.$.h.k.c.c.+.tXtXtXtXtXtXtXtXtXtXtXtXtXtXtXtXtXtXtXtXtXtXtXtXtXtXtXtXtXtXtXtXtXtX",
"tXtXtXtXtXtXtXtXtXtXtXtXtXtXtXtXtXtXtXtXtXtXc j J J < 0 u u u 9 @ tXtX3.T.8.X.c.z.o.k.j._ tXtXtXtXtXtXtXtXtXtXtXtXtXtXtXtXtXtXtXtXtXtXtXtXtXtXtXtXtXtXtXtXtXtXtX",
"tXtXtXtXtXtXtXtXtXtXtXtXtXtXtXtXtXtXtXtXL 3.U.n R Y H u u u u 3 tXtXR $.{.~.x.#.%._ h.] tXtXtXtXtXtXtXtXtXtXtXtXtXtXtXtXtXtXtXtXtXtXtXtXtXtXtXtXtXtXtXtXtXtXtXtX",
"tXtXtXtXtXtXtXtXtXtXtXtXtXtXtXtXtXtXtXL / ^ Y.w.T F t u u u u & tXtX$.c.a._.s.g..._ #./ tXtXtXtXtXtXtXtXtXtXtXtXtXtXtXtXtXtXtXtXtXtXtXtXtXtXtXtXtXtXtXtXtXtXtXtX",
"tXtXtXtXtXtXtXtXtXtXtXtXtXtXtXtXtXtXx / / R t.r.n y u u u u 0 @ tXtX%.v.&.p.T.N.g.o./ tXtXtXtXtXtXtXtXtXtXtXtXtXtXtXtXtXtXtXtXtXtXtXtXtXtXtXtXtXtXtXtXtXtXtXtXtX",
"tXtXtXtXtXtXtXtXtXtXtXtXtXtXtXtXtXf P R R R 5.Y.;.y 0 0 9 & # tXtX..c.c.c.%.Q.Q.N. .tXtXtXtXtXtXtXtXtXtXtXtXtXtXtXtXtXtXtXtXtXtXtXtXtXtXtXtXtXtXtXtXtXtXtXtXtXtX",
"tXtXtXtXtXtXtXtXtXtXtXtXtXtXtXtXL P D H H H H U.w.-.;     tXtXtXtX$.c.c.c.c.c.a.W.tXtXtXtXtXtXtXtXtXtXtXtXtXtXtXtXtXtXtXtXtXtXtXtXtXtXtXtXtXtXtXtXtXtXtXtXtXtXtX",
"tXtXtXtXtXtXtXtXtXtXtXtXtXtXtXL / Y :.u u u u p p , # tXtXtXtXtXL $.v.c.c.c.%.( tXtXtXtXtXtXtXtXtXtXtXtXtXtXtXtXtXtXtXtXtXtXtXtXtXtXtXtXtXtXtXtXtXtXtXtXtXtXtXtX",
"tXtXtXtXtXtXtXtXtXtXtXtXtXK U / R F t u u 0 4 *   tXtXtXtXtXtXtX( j.z.z.k._ U tXtXtXtXtXtXtXtXtXtXtXtXtXtXtXtXtXtXtXtXtXtXtXtXtXtXtXtXtXtXtXtXtXtXtXtXtXtXtXtXtX",
"tXtXtXtXtXtXtXtXtXtXtXtXB U / R W y u u 8 $ tXtXtXtXtXtXtXtXtX_ h.h.h.h.] x tXtXtXtXtXtXtXtXtXtXtXtXtXtXtXtXtXtXtXtXtXtXtXtXtXtXtXtXtXtXtXtXtXtXtXtXtXtXtXtXtXtX",
"tXtXtXtXtXtXtXtXtXtXJ Z V B S F <.u 6 ;   tXtXtXtXtXtXtXtXtX_ c.c.j.j.( S tXtXtXtXtXtXtXtXtXtXtXtXtXtXtXtXtXtXtXtXtXtXtXtXtXtXtXtXtXtXtXtXtXtXtXtXtXtXtXtXtXtXtX",
"tXtXtXtXtXtXtXtXL Y U B C C G u 9 & tXtXtXtXtXtXtXtXtXtXtX{ O.c.c.v.$.tXtXtXtXtXtXtXtXtXtXtXtXtXtXtXtXtXtXtXtXtXtXtXtXtXtXtXtXtXtXtXtXtXtXtXtXtXtXtXtXtXtXtXtXtX",
"tXtXtXtXtXtXK Y / / Y J N N C 1 O tXtXtXtXtXtXtXtXtXtXtXS.V.| z.v.%.I tXtXtXtXtXtXtXtXtXtXtXtXtXtXtXtXtXtXtXtXtXtXtXtXtXtXtXtXtXtXtXtXtXtXtXtXtXtXtXtXtXtXtXtXtX",
"tXtXtXtXtXL R / / J K W > X X tXtXtXtXtXtXtXtXtXtXtXk.%.A.C.C.O.&./ tXtXtXtXtXtXtXtXtXtXtXtXtXtXtXtXtXtXtXtXtXtXtXtXtXtXtXtXtXtXtXtXtXtXtXtXtXtXtXtXtXtXtXtXtXtX",
"tXtXtXtXL / / / U c e y ; & tXtXtXtXtXtXtXtXtXtXj.c.c.%.O.A.{ V.| tXtXtXtXtXtXtXtXtXtXtXtXtXtXtXtXtXtXtXtXtXtXtXtXtXtXtXtXtXtXtXtXtXtXtXtXtXtXtXtXtXtXtXtXtXtXtX",
"tXtXtXtXtXL R / R g ; ; 3 3 tXtXtXtXtXtXtXtXtXk.c.&._ ..&.+.Z.{ tXtXtXtXtXtXtXtXtXtXtXtXtXtXtXtXtXtXtXtXtXtXtXtXtXtXtXtXtXtXtXtXtXtXtXtXtXtXtXtXtXtXtXtXtXtXtXtX",
"tXtXtXtXtXtXk P Y H 8 6 0 0 @ tXtXtXtXtXtXtX_ &.v.#...v.+.$.=.O.tXtXtXtXtXtXtXtXtXtXtXtXtXtXtXtXtXtXtXtXtXtXtXtXtXtXtXtXtXtXtXtXtXtXtXtXtXtXtXtXtXtXtXtXtXtXtXtX",
"tXtXtXtXtXtXtXtXK S y u <.:.: tXtXtXtXtXtXtXtX#.c.$.E .._ &.c.o.tXtXtXtXtXtXtXtXtXtXtXtXtXtXtXtXtXtXtXtXtXtXtXtXtXtXtXtXtXtXtXtXtXtXtXtXtXtXtXtXtXtXtXtXtXtXtXtX",
"tXtXtXtXtXtXtXtXtXl c F U Y l + tXtXtXtXtXtXtXtX$.&.#.+.%.c.c.o.tXtXtXtXtXtXtXtXtXtXtXtXtXtXtXtXtXtXtXtXtXtXtXtXtXtXtXtXtXtXtXtXtXtXtXtXtXtXtXtXtXtXtXtXtXtXtXtX",
"tXtXtXtXtXtXtXtXtXtXK R / / U 5 > tXtXtXtXtXtXtXtXo.c.v.c.c.c.o.tXtXtXtXtXtXtXtXtXtXtXtXtXtXtXtXtXtXtXtXtXtXtXtXtXtXtXtXtXtXtXtXtXtXtXtXtXtXtXtXtXtXtXtXtXtXtXtX",
"tXtXtXtXtXtXtXtXtXtXtXY R / U y 2 U L tXtXtXtXtXtXtX#.c.c.c.c.#.tXtXtXtXtXtXtXtXtXtXtXtXtXtXtXtXtXtXtXtXtXtXtXtXtXtXtXtXtXtXtXtXtXtXtXtXtXtXtXtXtXtXtXtXtXtXtXtX",
"tXtXtXtXtXtXtXtXtXtXtXJ J L U :.D / / Y tXtXtXtXtXtX_ c.c.c.c.%.tXtXtXtXtXtXtXtXtXtXtXtXtXtXtXtXtXtXtXtXtXtXtXtXtXtXtXtXtXtXtXtXtXtXtXtXtXtXtXtXtXtXtXtXtXtXtXtX",
"tXtXtXtXtXtXtXtXtXtXtXtXtXtXtXj k l l x tXtXtXtXtXtXE c.c.c.c.c.tXtXtXtXtXtXtXtXtXtXtXtXtXtXtXtXtXtXtXtXtXtXtXtXtXtXtXtXtXtXtXtXtXtXtXtXtXtXtXtXtXtXtXtXtXtXtXtX",
"tXtXtXtXtXtXtXtXtXtXtXtXtXtXtXtXtXtXtXtXtXtXtXtXtXtXtX_ c.c.c.v.#.tXtXtXtXtXtXtXtXtXtXtXtXtXtXtXtXtXtXtXtXtXtXtXtXtXtXtXtXtXtXtXtXtXtXtXtXtXtXtXtXtXtXtXtXtXtXtX",
"tXtXtXtXtXtXtXtXtXtXtXtXtXtXtXtXtXtXtXtXtXtXtXtXtXtXtXtX! %.c.v.%.L tXtXtXtXtXtXtXtXtXtXtXtXtXtXtXtXtXtXtXtXtXtXtXtXtXtXtXtXtXtXtXtXtXtXtXtXtXtXtXtXtXtXtXtXtXtX",
"tXtXtXtXtXtXtXtXtXtXtXtXtXtXtXtXtXtXtXtXtXtXtXtXtXtXtXtXtXx ) z.c.E L tXtXtXtXtXtXtXtXtXtXtXtXtXtXtXtXtXtXtXtXtXtXtXtXtXtXtXtXtXtXtXtXtXtXtXtXtXtXtXtXtXtXtXtXtX",
"tXtXtXtXtXtXtXtXtXtXtXtXtXtXtXtXtXtXtXtXtXtXtXtXtXtXtXtXtXtXtX~ c.#.A tXtXtXtXtXtXtXtXtXtXtXtXtXtXtXtXtXtXtXtXtXtXtXtXtXtXtXtXtXtXtXtXtXtXtXtXtXtXtXtXtXtXtXtXtX",
"tXtXtXtXtXtXtXtXtXtXtXtXtXtXtXtXtXtXtXtXtXtXtXtXtXtXtXtXtXtXtXtX) c.A tXtXtXtXtXtXtXtXtXtXtXtXtXtXtXtXtXtXtXtXtXtXtXtXtXtXtXtXtXtXtXtXtXtXtXtXtXtXtXtXtXtXtXtXtX",
"tXtXtXtXtXtXtXtXtXtXtXtXtXtXtXtXtXtXtXtXtXtXtXtXtXtXtXtXtXtXtXtXtX~ tXtXtXtXtXtXtXtXtXtXtXtXtXtXtXtXtXtXtXtXtXtXtXtXtXtXtXtXtXtXtXtXtXtXtXtXtXtXtXtXtXtXtXtXtXtX",
"tXtXtXtXtXtXtXtXtXtXtXtXtXtXtXtXtXtXtXtXtXtXtXtXtXtXtXtXtXtXtXtXtXtXtXtXtXtXtXtXtXtXtXtXtXtXtXtXtXtXtXtXtXtXtXtXtXtXtXtXtXtXtXtXtXtXtXtXtXtXtXtXtXtXtXtXtXtXtXtX",
"tXtXtXtXtXtXtXtXtXtXtXtXtXtXtXtXtXtXtXtXtXtXtXtXtXtXtXtXtXtXtXtXtXtXtXtXtXtXtXtXtXtXtXtXtXtXtXtXtXtXtXtXtXtXtXtXtXtXtXtXtXtXtXtXtXtXtXtXtXtXtXtXtXtXtXtXtXtXtXtX",
"tXtXtXtXtXtXtXtXtXtXtXtXtXtXtXtXtXtXtXtXtXtXtXtXtXtXtXtXtXtXtXtXtXtXtXtXtXtXtXtXtXtXtXtXtXtXtXtXtXtXtXtXtXtXtXtXtXtXtXtXtXtXtXtXtXtXtXtXtXtXtXtXtXtXtXtXtXtXtXtX",
"tXtXtXtXtXtXtXtXtXtXtXtXtXtXtXtXtXtXtXtXtXtXtXtXtXtXtXtXtXtXtXtXtXtXtXtXtXtXtXtXtXtXtXtXtXtXtXtXtXtXtXtXtXtXtXtXtXtXtXtXtXtXtXtXtXtXtXtXtXtXtXtXtXtXtXtXtXtXtXtX",
"tXtXtXtXtXtXtXtXtXtXtXtXtXtXtXtXtXtXtXtXtXtXtXtXtXtXtXtXtXtXtXtXtXtXtXtXtXtXtXtXtXtXtXtXtXtXtXtXtXtXtXtXtXtXtXtXtXtXtXtXtXtXtXtXtXtXtXtXtXtXtXtXtXtXtXtXtXtXtXtX"
};
