/* XPM */
static char *result[] = {
/* columns rows colors chars-per-pixel */
"80 80 200 2 ",
"   c #4B0814",
".  c #520B14",
"X  c #5D1515",
"o  c #6B1D18",
"O  c #782F0D",
"+  c #6E211C",
"@  c #4F1226",
"#  c #561230",
"$  c #581E36",
"%  c #601922",
"&  c #5E233E",
"*  c #6D242C",
"=  c #792A24",
"-  c #672735",
";  c #763439",
":  c #5F2742",
">  c #572E55",
",  c #632C47",
"<  c #793B48",
"1  c #6A3654",
"2  c #6B3655",
"3  c #6E3C5B",
"4  c #703E5F",
"5  c #723F62",
"6  c #78415A",
"7  c #734263",
"8  c #724C72",
"9  c #786779",
"0  c #81351A",
"q  c #90381F",
"w  c #812E21",
"e  c #863325",
"r  c #8A3624",
"t  c #8E3925",
"y  c #8A3829",
"u  c #923A24",
"i  c #933C29",
"p  c #993F28",
"a  c #893A3A",
"s  c #943D34",
"d  c #913E3E",
"f  c #96490B",
"g  c #954519",
"h  c #AC5617",
"j  c #B8650B",
"k  c #BA6A0A",
"l  c #8B422D",
"z  c #9B432B",
"x  c #9C4129",
"c  c #8B4638",
"v  c #974030",
"b  c #9D4635",
"n  c #92443C",
"m  c #99443B",
"M  c #A54526",
"N  c #A1452B",
"B  c #A44A2D",
"V  c #AC4B2C",
"C  c #B6472E",
"Z  c #B14E2D",
"A  c #AC5B23",
"S  c #B4512D",
"D  c #BB5C2A",
"F  c #A34935",
"G  c #AC4D31",
"H  c #A34C3A",
"J  c #AE5332",
"K  c #A4533C",
"L  c #B45332",
"P  c #B95733",
"I  c #B75935",
"U  c #BC5A34",
"Y  c #B5563A",
"T  c #BC5A3A",
"R  c #B96327",
"E  c #BE6039",
"W  c #CA770E",
"Q  c #C26715",
"!  c #CD7A11",
"~  c #C05E34",
"^  c #C9543D",
"/  c #C25F3C",
"(  c #D15F32",
")  c #CA7825",
"_  c #D2782A",
"`  c #C56136",
"'  c #C86636",
"]  c #C4623B",
"[  c #C9663B",
"{  c #CD6A3D",
"}  c #D16D3F",
"|  c #C37331",
" . c #D5703F",
".. c #853F43",
"X. c #8C4544",
"o. c #864249",
"O. c #9A4F47",
"+. c #874359",
"@. c #984A51",
"#. c #8F5150",
"$. c #AA5745",
"%. c #AC544B",
"&. c #B95B45",
"*. c #A34F5F",
"=. c #B45C56",
"-. c #B5674C",
";. c #A56B58",
":. c #BA6A52",
">. c #B1725D",
",. c #884462",
"<. c #AE5A71",
"1. c #8C636A",
"2. c #94616B",
"3. c #A76A70",
"4. c #CC5C4C",
"5. c #C55554",
"6. c #C66342",
"7. c #C96642",
"8. c #CD6B42",
"9. c #C0614B",
"0. c #D16E41",
"q. c #C77347",
"w. c #D67342",
"e. c #D97644",
"r. c #D67648",
"t. c #D6794C",
"y. c #D97B4E",
"u. c #D97D52",
"i. c #D58A0F",
"p. c #CB9809",
"a. c #D7960A",
"s. c #D68615",
"d. c #E29916",
"f. c #D5B500",
"g. c #E0A70A",
"h. c #C58B28",
"j. c #EACB0F",
"k. c #B4815E",
"l. c #BD8160",
"z. c #BB9879",
"x. c #BFA17C",
"c. c #D7865A",
"v. c #DC8865",
"b. c #D59266",
"n. c #C89775",
"m. c #D59873",
"M. c #E28E6C",
"N. c #D2A37C",
"B. c #B7D06F",
"V. c #674F81",
"C. c #766A8C",
"Z. c #987B89",
"A. c #8B7899",
"S. c #A97D8C",
"D. c #A57694",
"F. c #8C7DA5",
"G. c #5E91DD",
"H. c #9C819B",
"J. c #B0878C",
"K. c #A18293",
"L. c #AFAF8F",
"P. c #A2A095",
"I. c #BBBB9B",
"U. c #918AAC",
"Y. c #9898B9",
"T. c #AB95A8",
"R. c #97B0A6",
"E. c #B7B6AB",
"W. c #A6A7BA",
"Q. c #D3AC86",
"!. c #C8B28E",
"~. c #D6B38C",
"^. c #C09DA6",
"/. c #C1BAB1",
"(. c #C1C09E",
"). c #D6C19D",
"_. c #CACEAD",
"`. c #D4CDAB",
"'. c #D3D0AF",
"]. c #D4D4B3",
"[. c #D7D9B8",
"{. c #9C97C3",
"}. c #A6A6CD",
"|. c #B5B5CD",
" X c #A8A6D1",
".X c #BBBBD7",
"XX c #B7B7DE",
"oX c #BCBDE2",
"OX c #C7C2C5",
"+X c #D6D6C9",
"@X c #C2C2DD",
"#X c #D1D1D6",
"$X c #E5E5C5",
"%X c #E6E6D7",
"&X c #C1C1E4",
"*X c #C8C8EA",
"=X c #F4F4ED",
"-X c #F6F6F3",
";X c #F8F8F8",
":X c None",
/* pixels */
":X:X:X:X:X:X:X:X:X:X:X:X:X:X:X:X:X:X:X:X:X:X:X:X:X:X:X:X:X:X:X:X:X:X:X:X:X:X:X:X:X:X:X:X:X:X:X:X:X:X:X:X:X:X:X:X:X:X:X:X:X:X:X:X:X:X:X:X:X:X:X:X:X:X:X:X:X:X:X:X",
":X:X:X:X:X:X:X:X:X:X:X:X:X:X:X:X:X:X:X:X:X:X:X:X:X:X:X:X:X:X:X:X:X:X:X:X:X:X:X:X:X:X:X:X:X:X:X:X:X:X:X:X:X:X:X:X:X:X:X:X:X:X:X:X:X:X:X:X:X:X:X:X:X:X:X:X:X:X:X:X",
":X:X:X:X:X:X:X:X:X:X:X:X:X:X:X:X:X:X:X:X:X:X:X:X:X:X:X:X:X:X:X:X:X:X:X:X:X:X:X:X:X:X:X:X:X:X:X:X:X:X:X:X:X:X:X:X:X:X:X:X:X:X:X:X:X:X:X:X:X:X:X:X:X:X:X:X:X:X:X:X",
":X:X:X:X:X:X:X:X:X:X:X:X:X:X:X:X:X:X:X:X:X:X:X:X:X:X:X:X:X:X:X:X:X:X:X:X:X:X:X:X:X:X:X:X:X:X:X:X:X:X:X:X:X:X:X:X:X:X:X:X:X:X:X:X:X:X:X:X:X:X:X:X:X:X:X:X:X:X:X:X",
":X:X:X:X:X:X:X:X:X:X:X:X:X:X:X:X:X:X:X:X:X:X:X:X:X:X:X:X:X:X:X:X:X:X:X:X:X:X:X:X:X:X:X:X:X:X:X:X:X:X:X:X:X:X:X:X:X:X:X:X:X:X:X:X:X:X:X:X:X:X:X:X:X:X:X:X:X:X:X:X",
":X:X:X:X:X:X:X:X:X:X:X:X:X:X:X:X:X:X:X:X:X:X:X:X:X:X:X:X:X:X:X:X:X:X:X:X:X:X:X:X:X:X:X:X:X:X:X:X:X:X:X:X:X:X:X:X:X:X:X:X:X:X:X:X:X:X:X:X:X:X:X:X:X:X:X:X:X:X:X:X",
":X:X:X:X:X:X:X:X:X:X:X:X:X:X:X:X:X:X:X:X:X:X:X:X:X:X:X:X:X:X:X:X:X:X:X:X:X:X:X:X:X:X:X:X:X:X:X:X:X:X:X:X:X:X:X:X:X:X:X:X:X:X:X:X:X:X:X:X:X:X:X:X:X:X:X:X:X:X:X:X",
":X:X:X:X:X:X:X:X:X:X:X:X:X:X:X:X:X:X:X:X:X:X:X:X:X:X:X:X:X:X:X:X:X:X:X:X:X:X:X:X:X:X:X:X:X:X:X:X:X:X:X:X:X:X:X:X:X:X:X:X:X:X:X:X:X:X:X:X:X:X:X:X:X:X:X:X:X:X:X:X",
":X:X:X:X:X:X:X:X:X:X:X:X:X:X:X:X:X:X:X:X:X:X:X:X:X:X:X:X:X:X:X:X:X:X:X:X:X:X:X:X:X:X:X:X:X:X:X:X:X:X:X:X:X:X:X:X:X:X:X:X:X:X:X:X:X:X:X:X:X:X:X:X:X:X:X:X:X:X:X:X",
":X:X:X:X:X:X:X:X:X:X:X:X:X:X:X:X:X:X:X:X:X:X:X:X:X:X:X:X:X:X:X:X:X:X:X:X:X:X:X:X:X:X:X:X:X:X:X:X:X:X:X:X:X:X:X:X:X:X:X:X:X:X:X:X:X:X:X:X:X:X:X:X:X:X:X:X:X:X:X:X",
":X:X:X:X:X:X:X:X:X:X:X:X:X:X:X:X:X:X:X:X:X:X:X:X:X:X:X:X:X:X:X:X:X:X:X:X:X:X:X:X:X:X:X:X:X:X:X:X:X:X:X:X:X:X:X:X:X:X:X:X:X:X:X:X:X:X:X:X:X:X:X:X:X:X:X:X:X:X:X:X",
":X:X:X:X:X:X:X:X:X:X:X:X:X:X:X:X:X:X:X:X:X:X:X:X:X:X:X:X:X:X:X:X:X:X:X:X:X:X:X:X:X:X:X:X:X:X:X:X:X:X:X:X:X:X:X:X:X:X:X:X:X:X:X:X:X:X:X:X:X:X:X:X:X:X:X:X:X:X:X:X",
":X:X:X:X:X:X:X:X:X:X:X:X:X:X:X:X:X:X:X:X:X:X:X:X:X:X:X:X:X:X:X:X:X:X:X:X:X:X:X:X:X:X:X:X:X:X:X:X:X:X:X:X:X:X:X:X:X:X:X:X:X:X:X:X:X:X:X:X:X:X:X:X:X:X:X:X:X:X:X:X",
":X:X:X:X:X:X:X:X:X:X:X:X:X:X:X:X:X:X:X:X:X:X:X:X:X:X:X:X:X:X:X:X:X:X:X:X:X:X:X:X:X:X:X:X:X:X:X:X:X:X:X:X:X:X:X:X:X:X:X:X:X:X:X:X:X:X:X:X:X:X:X:X:X:X:X:X:X:X:X:X",
":X:X:X:X:X:X:X:X:X:X:X:X:X:X:X:X:X:X:X:X:X:X:X:X:X:X:X:X:X:X:X:X:X:X:X:X:X:X:X:X:X:X:X:X:X:X:X:X:X:X:X:X:X:X:X:X:X:X:X:X:X:X:X:X:X:X%X=X:X:X:X:X:X:X:X:X:X:X:X:X",
":X:X:X:X:X:X:X:X:X:X:X:X:X:X:X:X:X:X:X:X:X:X:X:X:X:X:X:X:X:X:X:X:X:X:X:X:X:X:X:X:X:X:X:X:X:X:X:X:X:X:X:X:X:X:X:X:X:X:X:X:X:X:X:XY.#X-X-X-X;X%XI.:X:X:X:X:X:X:X:X",
":X:X:X:X:X:X:X:X:X:X:X:X:X:X:X:X:X:X:X:X:X:X:X:X:X:X:X:X:X:X:X:X:X:X:X:X:X:X:X:X:X:X:X:X:X:X:X:X:X:X:X:X:X:X:X:X:X:X:X:X:X:X:XU.}..X%X=X-X-X%X].L.:X:X:X:X:X:X:X",
":X:X:X:X:X:X:X:X:X:X:X:X:X:X:X:X:X:X:X:X:X:X:X:X:X:X:X:X:X:X:X:X:X:X:X:X:X:X:X:X:X:X:X:X:X:X:XZ V V V u :X:X:X:X:X:X:X:X:X:X:X}.&X&X.X#X+X$X$X[.E.:X:X:X:X:X:X:X",
":X:X:X:X:X:X:X:X:X:X:X:X:X:X:X:X:X:X:X:X:X:X:X:X:X:X:X:X:X:X:X:X:X:X:X:X:X:X:X:X:X:X:X:XL P 6.6.6.6.6.s ; 0 J z J J 0 :X:X:X:XXX*X XoX|.E.#X#XOX@X:X:X:X:X:X:X:X",
":X:X:X:X:X:X:X:X:X:X:X:X:X:X:X:X:X:X:X:X:X:X:X:X:X:X:X:X:X:X:X:X:X:X:X:X:X:X:X:X:X:X:X:XT 6.6.6.6.6.6.$.>.q.w.e.w.0.A f.B.G.:X XU.1.XXT.-.K.*XXXoX:X:X:X:X:X:X:X",
":X:X:X:X:X:X:X:X:X:X:X:X:X:X:X:X:X:X:X:X:X:X:X:X:X:X:X:X:X:X:X:X:X:X:X:X:X:X:X:X:X:X:X:XT 6.6.6.6.6.l.I.`.c.` ~ 8.[ D p.j.R.D.>.c H H.K.z ; Y.{.}.:X:X:X:X:X:X:X",
":X:X:X:X:X:X:X:X:X:X:X:X:X:X:X:X:X:X:X:X:X:X:X:X:X:X:X:X:X:X:X:X:X:X:X:X:X:X:X:X:X:X:X:X/ 6.%.@.@.F z.].z.` { [ w.0.] R a.h.F.( h o $.3.O.8 X.#.C.:X:X:X:X:X:X:X",
":X:X:X:X:X:X:X:X:X:X:X:X:X:X:X:X:X:X:X:X:X:X:X:X:X:X:X:X:X:X:X:X:X:X:X:X:X:X:X:X:X:X:X:X] 6.$.m J ~ z._.Q.} w.w.{ [ w.w.[ R 9 %.Q y Y :.:.w.T + :X:X:X:X:X:X:X:X",
":X:X:X:X:X:X:X:X:X:X:X:X:X:X:X:X:X:X:X:X:X:X:X:X:X:X:X:X:X:X:X:X:X:X:X:X:X:X:X:X:X:X:Xb &.&.+.b P ` Q.[.~.w.w.w.0.w.y.M.M.{ l % o o B 7.] Y e X :X:X:X:X:X:X:X:X",
":X:X:X:X:X:X:X:X:X:X:X:X:X:X:X:X:X:X:X:X:X:X:X:X:X:X:X:X:X:X:X:X:X:X:X:X:X:X:X:X:X:X:Xa ,.+.s S { w.~.[.'.c.w.} w.w.y.M.v.e.[ :X:X:Xo i w X :X:X:X:X:X:X:X:X:X:X",
":X:X:X:X:X:X:X:X:X:X:X:X:X:X:X:X:X:X:X:X:X:X:X:X:X:X:X:X:X:X:X:X:X:X:X:X:X:X:X:X:X:X:Xa +.O.' w.w.w.b.`.'.N.w.[ 0.w.e.t.t.w.{ :X:X:X:X:X:X:X:X:X:X:X:X:X:X:X:X:X",
":X:X:X:X:X:X:X:X:X:X:X:X:X:X:X:X:X:X:X:X:X:X:X:X:X:X:X:X:X:X:X:X:X:X:X:X:X:X:X:X:X:X:X* H 0.w.0.w.w.w.n.I.x.[ ] ] w.w.w.w.w./ :X:X:X:X:X:X:X:X:X:X:X:X:X:X:X:X:X",
":X:X:X:X:X:X:X:X:X:X:X:X:X:X:X:X:X:X:X:X:X:X:X:X:X:X:X:X:X:X:X:X:X:X:X:X:X:X:X:X:X:X:Xi q.r.w.8.w.w.w.c.`.OX^.3.H w.w.w.w.~ :X:X:X:X:X:X:X:X:X:X:X:X:X:X:X:X:X:X",
":X:X:X:X:X:X:X:X:X:X:X:X:X:X:X:X:X:X:X:X:X:X:X:X:X:X:X:X:X:X:X:X:X:X:X:X:X:X:X:X:X:Xk.N.`.).b.8.[ 0.w. .m.&X*X&X3.U 0.w.8.w :X:X:X:X:X:X:X:X:X:X:X:X:X:X:X:X:X:X",
":X:X:X:X:X:X:X:X:X:X:X:X:X:X:X:X:X:X:X:X:X:X:X:X:X:X:X:X:X:X:X:X:X:X:X:X:X:X:X:X:X(.Q.m.m.).].n.%.=.=.=.6.T.oX*Xz.Q d.d.s.x :X:X:X:X:X:X:X:X:X. :X:X:X:X:X:X:X:X",
":X:X:X:X:X:X:X:X:X:X:X:X:X:X:X:X:X:X:X:X:X:X:X:X:X:X:X:X:X:X:X:X:X:X:X:X:X:X:X:X:Xb.r. . .c.!./.3.*.d :X:XU.oX*XJ.;.-.-.$.y :X:X:X:X:X:X:X:XJ e :X:X:X:X:X:X:X:X",
":X:X:X:X:X:X:X:X:X:X:X:X:X:X:X:X:X:X:X:X:X:X:X:X:X:X:X:X:X:X:X:X:X:X:X:X:X:X:X:X0.w.w.w.w.w.;.{.D.< :X:X:X:XY.Y.1.O.<.<.*.y :X:X:X:X:X:X:XJ I = i L L :X:X:X:X:X",
":X:X:X:X:X:X:X:X:X:X:X:X:X:X:X:X:X:X:X:X:X:X:X:X:X:X:X:X:X:X:X:X:X:X:X:X:X:X:X8.w.w.w.w.w.w.c {.Y.:X:X:X:X:X:X:XK L ~ { ' L :X:X:X:X:X:Xz { I E { } } ' :X:X:X:X",
":X:X:X:X:X:X:X:X:X:X:X:X:X:X:X:X:X:X:X:X:X:X:X:X:X:X:X:X:X:X:X:X:X:X:X:X:X:X8.w.w.w.w.w.w.0.c {.W.:X:X:X:X:X:X:X:X} 8.w.} S :X:X:X:X:X:Xz  .w.w.w.w.w.8.x :X:X:X",
":X:X:X:X:X:X:X:X:X:X:X:X:X:X:X:X:X:X:X:X:X:X:X:X:X:X:X:X:X:X:X:X:X:X:X:X:X:Xw.w.w.w.w.w.w.` n A.P.:X:X:X:X:X:X:X:X} w.w.{ B U U U P 9.' T &.{ w.w.w.{ ] i :X:X:X",
":X:X:X:X:X:X:X:X:X:X:X:X:X:X:X:X:X:X:X:X:X:X:X:X:X:X:X:X:X:X:X:X:X:X:X:X:XS } w.w.w.w.w.w.{ U * :X:X:X:X:X:X:X:X:X} w.w.} ` w.w.w.6.<.) [ 3.;. .w.] B :X:X:X:X:X",
":X:X:X:X:X:X:X:X:X:X:X:X:X:X:X:X:X:X:X:X:X:X:X:X:X:X:X:X:X:X:X:X:X:X:X:X:XP 0.w.w.w.w.w.t.e.w.T w . :X:X:X:X:X:XP 0.w.w.w.w.w.w.w.} <.| ) =.1.` v :X:X:X:X:X:X:X",
":X:X:X:X:X:X:X:X:X:X:X:X:X:X:X:X:X:X:X:X:X:X:X:X:X:X:X:X:X:X:X:X:X:X:X:X:XP } w.w.w.w.w.t.u.t.w.[ N X :X:X:X:X:X:X{ w.w.w.w.w.w.w.{ %.J h G y :X:X:X:X:X:X:X:X:X",
":X:X:X:X:X:X:X:X:X:X:X:X:X:X:X:X:X:X:X:X:X:X:X:X:X:X:X:X:X:X:X:X:X:X:X:X:X:X{ w.w.w.w.w.w.y.v.u.w.w.L :X:X:X:X:X:XJ 0.0.{ { ` V N B :X:X:X:X:X:X:X:X:X:X:X:X:X:X",
":X:X:X:X:X:X:X:X:X:X:X:X:X:X:X:X:X:X:X:X:X:X:X:X:X:X:X:X:X:X:X:X:X:X:X:X:X:X] w.w.w.w.w.w.w.u.v.u.w.w.w.8.:X:X:X:X:XG P N t :X:X:X:X:X:X:X:X:X:X:X:X:X:X:X:X:X:X",
":X:X:X:X:X:X:X:X:X:X:X:X:X:X:X:X:X:X:X:X:X:X:X:X:X:X:X:X:X:X:X:X:X:X:X:X:X:X:XU 8.w.w.w.w.w.w.t.c.t.w.w.w.8.:X:X:X:X:X:X:X:X:X:X:X:X:X:X:X:X:X:X:X:X:X:X:X:X:X:X",
":X:X:X:X:X:X:X:X:X:X:X:X:X:X:X:X:X:X:X:X:X:X:X:X:X:X:X:X:X:X:X:X:X:X:X:X:X:X:X:Xv 8.w.w.w.w.w.w.e.t.e.w.w.0.:X:X:X:X:X:X:X:X:X:X:X:X:X:X:X:X:X:X:X:X:X:X:X:X:X:X",
":X:X:X:X:X:X:X:X:X:X:X:X:X:X:X:X:X:X:X:X:X:X:X:X:X:X:X:X:X:X:X:X:X:X:X:X:X:X:X:X:XF 7.0.w.w.w.w.w.e.t.w.w.w.0.:X:X:X:X:X:X:X:X:X:X:X:X:X:X:X:X:X:X:X:X:X:X:X:X:X",
":X:X:X:X:X:X:X:X:X:X:X:X:X:X:X:X:X:X:X:X:X:X:X:X:X:X:X:X:X:X:X:X:X:X:X:X:X:X:X:X:X+ T 6.7.0.w.w.w.w.e.w.w.w.w.8.:X:X:X:X:X:X:X:X:X:X:X:X:X:X:X:X:X:X:X:X:X:X:X:X",
":X:X:X:X:X:X:X:X:X:X:X:X:X:X:X:X:X:X:X:X:X:X:X:X:X:X:X:X:X:X:X:X:X:X:X:X:X:X:X:X:X:XZ / 6.6.8.w.w.w.w.w.w.w.w.w.8.:X:X:X:X:X:X:X:X:X:X:X:X:X:X:X:X:X:X:X:X:X:X:X",
":X:X:X:X:X:X:X:X:X:X:X:X:X:X:X:X:X:X:X:X:X:X:X:X:X:X:X:X:X:X:X:X:X:X:X:X:X:X:X:X:X:X:XZ T 6.6.7.0.w.w.w.w.w.w.w.w.8.:X:X:X:X:X:X:X:X:X:X:X:X:X:X:X:X:X:X:X:X:X:X",
":X:X:X:X:X:X:X:X:X:X:X:X:X:X:X:X:X:X:X:X:X:X:X:X:X:X:X:X:X:X:X:X:X:X:X:X:X:X:X:X:X:X:X:X:XL / 6.6.8.w.w.w.w.w.w.w.w.:X:X:X:X:X:X:X:X:X:X:X:X:X:X:X:X:X:X:X:X:X:X",
":X:X:X:X:X:X:X:X:X:X:X:X:X:X:X:X:X:X:X:X:X:X:X:X:X:X:X:X:X:X:X:X:X:X:X:X:X:X:X:X:X:X:X:X:X< O.Y ] 6.7.8.w.w.w.w.w.w.0.:X:X:X:X:X:X:X:X:X:X:X:X:X:X:X:X:X:X:X:X:X",
":X:X:X:X:X:X:X:X:X:X:X:X:X:X:X:X:X:X:X:X:X:X:X:X:X:X:X:X:X:X:X:X:X:X:X:X:X:X:X:X:X:X:X* 2 7 7 +.H T 6.6.7.0.w.w.w.w.w.{ :X:X:X:X:X:X:X:X:X:X:X:X:X:X:X:X:X:X:X:X",
":X:X:X:X:X:X:X:X:X:X:X:X:X:X:X:X:X:X:X:X:X:X:X:X:X:X:X:X:X:X:X:X:X:X:X:X:X:X:X:X:X:X:Xa 7 7 7 7 7 8 $./ 6.6.8.0.0.w.w.w.U :X:X:X:X:X:X:X:X:X:X:X:X:X:X:X:X:X:X:X",
":X:X:X:X:X:X:X:X:X:X:X:X:X:X:X:X:X:X:X:X:X:X:X:X:X:X:X:X:X:X:X:X:X:X:X:X:X:X:X:X:X:Xx n 7 7 7 7 7 8 V.m T 6.6.6.8.w.w.w.8.:X:X:X:X:X:X:X:X:X:X:X:X:X:X:X:X:X:X:X",
":X:X:X:X:X:X:X:X:X:X:X:X:X:X:X:X:X:X:X:X:X:X:X:X:X:X:X:X:X:X:X:X:X:X:X:X:X:X:X:X:X:Xu n 7 7 7 7 7 7 > :Xp G 6.6.8.w.w.w.8.:X:X:X:X:X:X:X:X:X:X:X:X:X:X:X:X:X:X:X",
":X:X:X:X:X:X:X:X:X:X:X:X:X:X:X:X:X:X:X:X:X:X:X:X:X:X:X:X:X:X:X:X:X:X:X:X:X:X:X:X:X:X- 7 7 7 7 7 3 , :X:XP P T 6.8.w.w.{ :X:X:X:X:X:X:X:X:X:X:X:X:X:X:X:X:X:X:X:X",
":X:X:X:X:X:X:X:X:X:X:X:X:X:X:X:X:X:X:X:X:X:X:X:X:X:X:X:X:X:X:X:X:X:X:X:X:X:X:X:X:X; 2 7 7 7 7 3 $ :X:X:X{ } ] 6.8.w.} :X:X:X:X:X:X:X:X:X:X:X:X:X:X:X:X:X:X:X:X:X",
":X:X:X:X:X:X:X:X:X:X:X:X:X:X:X:X:X:X:X:X:X:X:X:X:X:X:X:X:X:X:X:X:X:X:X:X:X:X:X:X:Xo.7 7 7 7 1 :X:X:X:XC [ w.8.6.0.0.L :X:X:X:X:X:X:X:X:X:X:X:X:X:X:X:X:X:X:X:X:X",
":X:X:X:X:X:X:X:X:X:X:X:X:X:X:X:X:X:X:X:X:X:X:X:X:X:X:X:X:X:X:X:X:X:X:X:X:X:X:X:Xp 6 7 7 7 : @ :X:X:X2.5.^ 0.0.7.{ L :X:X:X:X:X:X:X:X:X:X:X:X:X:X:X:X:X:X:X:X:X:X",
":X:X:X:X:X:X:X:X:X:X:X:X:X:X:X:X:X:X:X:X:X:X:X:X:X:X:X:X:X:X:X:X:X:X:X:X:X:X:Xq s 7 7 3 : :X:X:X:XU Z.C.S.4.^ 6.T V :X:X:X:X:X:X:X:X:X:X:X:X:X:X:X:X:X:X:X:X:X:X",
":X:X:X:X:X:X:X:X:X:X:X:X:X:X:X:X:X:X:X:X:X:X:X:X:X:X:X:X:X:X:X:X:X:X:X:X:X:XO j a 5 4 $ :X:X:X:X:X} } >.Z.A.D.5.&.:X:X:X:X:X:X:X:X:X:X:X:X:X:X:X:X:X:X:X:X:X:X:X",
":X:X:X:X:X:X:X:X:X:X:X:X:X:X:X:X:X:X:X:X:X:X:X:X:X:X:X:X:X:X:X:X:X:X:X:X:Xu j k k l & :X:X:X:X:X:X{ w. .} :.A.F.2.:X:X:X:X:X:X:X:X:X:X:X:X:X:X:X:X:X:X:X:X:X:X:X",
":X:X:X:X:X:X:X:X:X:X:X:X:X:X:X:X:X:X:X:X:X:X:X:X:X:X:X:X:X:X:X:X:X:X:X:X:XV g k W f :X:X:X:X:X:X:X{ w.w.w.w.0.I M :X:X:X:X:X:X:X:X:X:X:X:X:X:X:X:X:X:X:X:X:X:X:X",
":X:X:X:X:X:X:X:X:X:X:X:X:X:X:X:X:X:X:X:X:X:X:X:X:X:X:X:X:X:X:X:X:X:X:Xp S x - < A O :X:X:X:X:X:X:X] e.e.w.w.] T :X:X:X:X:X:X:X:X:X:X:X:X:X:X:X:X:X:X:X:X:X:X:X:X",
":X:X:X:X:X:X:X:X:X:X:X:X:X:X:X:X:X:X:X:X:X:X:X:X:X:X:X:X:X:X:X:X:X:Xu V S = 2 7 2 #   :X:X:X:X:X:XJ w.w.} 0.0.U :X:X:X:X:X:X:X:X:X:X:X:X:X:X:X:X:X:X:X:X:X:X:X:X",
":X:X:X:X:X:X:X:X:X:X:X:X:X:X:X:X:X:X:X:X:X:X:X:X:X:X:X:X:X:X:X:X:X:XN L S a : 2 , , : :X:X:X:X:X:X] { w.[ w.} :X:X:X:X:X:X:X:X:X:X:X:X:X:X:X:X:X:X:X:X:X:X:X:X:X",
":X:X:X:X:X:X:X:X:X:X:X:X:X:X:X:X:X:X:X:X:X:X:X:X:X:X:X:X:X:X:X:X:Xe L L S X.1 $ & 6 ..= :X:X:X:X` w.0.0.w.} S :X:X:X:X:X:X:X:X:X:X:X:X:X:X:X:X:X:X:X:X:X:X:X:X:X",
":X:X:X:X:X:X:X:X:X:X:X:X:X:X:X:X:X:X:X:X:X:X:X:X:X:X:X:X:X:X:X:X:Xx V V Z X.7 7 X.b V Z V r :X:X{ w.w.w.w.[ :X:X:X:X:X:X:X:X:X:X:X:X:X:X:X:X:X:X:X:X:X:X:X:X:X:X",
":X:X:X:X:X:X:X:X:X:X:X:X:X:X:X:X:X:X:X:X:X:X:X:X:X:X:X:X:X:X:X:X:X:Xr u V a < X.Z S L L L Z V u ` w.w.w.w.U :X:X:X:X:X:X:X:X:X:X:X:X:X:X:X:X:X:X:X:X:X:X:X:X:X:X",
":X:X:X:X:X:X:X:X:X:X:X:X:X:X:X:X:X:X:X:X:X:X:X:X:X:X:X:X:X:X:X:X:X:X:X:X:X:X:X:XN V V V V V V N { w.w.w.{ :X:X:X:X:X:X:X:X:X:X:X:X:X:X:X:X:X:X:X:X:X:X:X:X:X:X:X",
":X:X:X:X:X:X:X:X:X:X:X:X:X:X:X:X:X:X:X:X:X:X:X:X:X:X:X:X:X:X:X:X:X:X:X:X:X:X:X:X:X. . . . . . i w.w.w.w.{ :X:X:X:X:X:X:X:X:X:X:X:X:X:X:X:X:X:X:X:X:X:X:X:X:X:X:X",
":X:X:X:X:X:X:X:X:X:X:X:X:X:X:X:X:X:X:X:X:X:X:X:X:X:X:X:X:X:X:X:X:X:X:X:X:X:X:X:X:X:X:X:X:X:X:X_ _ w.w.w.:X:X:X:X:X:X:X:X:X:X:X:X:X:X:X:X:X:X:X:X:X:X:X:X:X:X:X:X",
":X:X:X:X:X:X:X:X:X:X:X:X:X:X:X:X:X:X:X:X:X:X:X:X:X:X:X:X:X:X:X:X:X:X:X:X:X:X:X:X:X:X:X:X:X:X:X! g.! _ { :X:X:X:X:X:X:X:X:X:X:X:X:X:X:X:X:X:X:X:X:X:X:X:X:X:X:X:X",
":X:X:X:X:X:X:X:X:X:X:X:X:X:X:X:X:X:X:X:X:X:X:X:X:X:X:X:X:X:X:X:X:X:X:X:X:X:X:X:X:X:X:X:X:X:XD a.i.! i.:X:X:X:X:X:X:X:X:X:X:X:X:X:X:X:X:X:X:X:X:X:X:X:X:X:X:X:X:X",
":X:X:X:X:X:X:X:X:X:X:X:X:X:X:X:X:X:X:X:X:X:X:X:X:X:X:X:X:X:X:X:X:X:X:X:X:X:X:X:X:X:X:X:X:X:XU ) d.i.g :X:X:X:X:X:X:X:X:X:X:X:X:X:X:X:X:X:X:X:X:X:X:X:X:X:X:X:X:X",
":X:X:X:X:X:X:X:X:X:X:X:X:X:X:X:X:X:X:X:X:X:X:X:X:X:X:X:X:X:X:X:X:X:X:X:X:X:X:X:X:X:X:X:X:X:XP w.' U T / :X:X:X:X:X:X:X:X:X:X:X:X:X:X:X:X:X:X:X:X:X:X:X:X:X:X:X:X",
":X:X:X:X:X:X:X:X:X:X:X:X:X:X:X:X:X:X:X:X:X:X:X:X:X:X:X:X:X:X:X:X:X:X:X:X:X:X:X:X:X:X:X:X:X] [ w.` { e.0.U :X:X:X:X:X:X:X:X:X:X:X:X:X:X:X:X:X:X:X:X:X:X:X:X:X:X:X",
":X:X:X:X:X:X:X:X:X:X:X:X:X:X:X:X:X:X:X:X:X:X:X:X:X:X:X:X:X:X:X:X:X:X:X:X:X:X:X:X:X:X:X:X:X[ [ w.{ w.w.w.{ :X:X:X:X:X:X:X:X:X:X:X:X:X:X:X:X:X:X:X:X:X:X:X:X:X:X:X",
":X:X:X:X:X:X:X:X:X:X:X:X:X:X:X:X:X:X:X:X:X:X:X:X:X:X:X:X:X:X:X:X:X:X:X:X:X:X:X:X:X:X:X:X0.{ ~ [ 0.w.w.w.w.8.:X:X:X:X:X:X:X:X:X:X:X:X:X:X:X:X:X:X:X:X:X:X:X:X:X:X",
":X:X:X:X:X:X:X:X:X:X:X:X:X:X:X:X:X:X:X:X:X:X:X:X:X:X:X:X:X:X:X:X:X:X:X:X:X:X:X:X:X:X:X:Xw.} S ` w.w.w.w.w.w.8.:X:X:X:X:X:X:X:X:X:X:X:X:X:X:X:X:X:X:X:X:X:X:X:X:X",
":X:X:X:X:X:X:X:X:X:X:X:X:X:X:X:X:X:X:X:X:X:X:X:X:X:X:X:X:X:X:X:X:X:X:X:X:X:X:X:X:X:X:X:X] { P ' w.w.w.w.w.w.w.w.0.:X:X:X:X:X:X:X:X:X:X:X:X:X:X:X:X:X:X:X:X:X:X:X",
":X:X:X:X:X:X:X:X:X:X:X:X:X:X:X:X:X:X:X:X:X:X:X:X:X:X:X:X:X:X:X:X:X:X:X:X:X:X:X:X:X:X:X:X:Xt r t L [ w.w.w.w.w.{ E 0.T :X:X:X:X:X:X:X:X:X:X:X:X:X:X:X:X:X:X:X:X:X",
":X:X:X:X:X:X:X:X:X:X:X:X:X:X:X:X:X:X:X:X:X:X:X:X:X:X:X:X:X:X:X:X:X:X:X:X:X:X:X:X:X:X:X:X:X:X:X:X:XN B B B B B x r B x :X:X:X:X:X:X:X:X:X:X:X:X:X:X:X:X:X:X:X:X:X"
};
