/* XPM */
static char *result[] = {
/* columns rows colors chars-per-pixel */
"80 80 218 2 ",
"   c #480517",
".  c #49091C",
"X  c #581317",
"o  c #681B1A",
"O  c #6D201B",
"+  c #73231D",
"@  c #4D0E22",
"#  c #4D1024",
"$  c #511326",
"%  c #5A1D26",
"&  c #52152B",
"*  c #551A31",
"=  c #5A1F37",
"-  c #5B233C",
";  c #5A2B3D",
":  c #6E2525",
">  c #7D2C23",
",  c #762928",
"<  c #6B2335",
"1  c #632B3E",
"2  c #76303B",
"3  c #5F2842",
"4  c #562B58",
"5  c #612A44",
"6  c #662B4A",
"7  c #722C43",
"8  c #68354B",
"9  c #69334C",
"0  c #773648",
"q  c #72334C",
"w  c #672D55",
"e  c #693553",
"r  c #6C3856",
"t  c #6E3B5B",
"y  c #783654",
"u  c #713E5D",
"i  c #6E3E61",
"p  c #703864",
"a  c #7A4256",
"s  c #79425A",
"d  c #6C4363",
"f  c #734263",
"g  c #74476B",
"h  c #69497B",
"j  c #7B5175",
"k  c #853B16",
"l  c #853225",
"z  c #8D3625",
"x  c #8C3926",
"c  c #8A352A",
"v  c #933B25",
"b  c #923C2C",
"n  c #863C3A",
"m  c #903F3A",
"M  c #9D431D",
"N  c #AC5212",
"B  c #AB591B",
"V  c #AF751E",
"C  c #BC7814",
"Z  c #964029",
"A  c #9B432B",
"S  c #8C4E34",
"D  c #9C4534",
"F  c #96443B",
"G  c #974839",
"H  c #A44324",
"J  c #AA4727",
"K  c #A14429",
"L  c #A54A2D",
"P  c #AC4B2B",
"I  c #B24E2D",
"U  c #B4522F",
"Y  c #B8572C",
"T  c #A34932",
"R  c #AA4E32",
"E  c #A94B3C",
"W  c #AC5231",
"Q  c #B55332",
"!  c #B85432",
"~  c #BC5B35",
"^  c #B85738",
"/  c #B95A39",
"(  c #A4602D",
")  c #BE652A",
"_  c #A26837",
"`  c #D5770F",
"'  c #C97719",
"]  c #C44C37",
"[  c #C15E35",
"{  c #C25D3C",
"}  c #CA5F39",
"|  c #C26525",
" . c #C46135",
".. c #C86631",
"X. c #C5633B",
"o. c #C9663A",
"O. c #CC693D",
"+. c #D26E3E",
"@. c #CC7E3C",
"#. c #D07C31",
"$. c #D5723F",
"%. c #8A3A4D",
"&. c #9C3D53",
"*. c #AB3D4A",
"=. c #8C4448",
"-. c #934E4C",
";. c #844351",
":. c #894158",
">. c #964458",
",. c #B85945",
"<. c #AA5952",
"1. c #AA545C",
"2. c #AB5C58",
"3. c #986A52",
"4. c #B9674B",
"5. c #AA685C",
"6. c #B86B57",
"7. c #844264",
"8. c #8B4662",
"9. c #8C4C6E",
"0. c #8A5768",
"q. c #A75463",
"w. c #956A76",
"e. c #957070",
"r. c #A5676A",
"t. c #B86766",
"y. c #B16C71",
"u. c #C75245",
"i. c #C26545",
"p. c #CA6642",
"a. c #CD6A42",
"s. c #D16E41",
"d. c #D46C4D",
"f. c #CC7148",
"g. c #D67342",
"h. c #D87543",
"j. c #D4764A",
"k. c #D67A4C",
"l. c #C56C53",
"z. c #C57D57",
"x. c #D67C53",
"c. c #DA7E53",
"v. c #C56F60",
"b. c #AC9E26",
"n. c #D1830E",
"m. c #DA8C0C",
"M. c #D9980B",
"N. c #D88716",
"B. c #D09410",
"V. c #E1A81B",
"C. c #D0942A",
"Z. c #A78750",
"A. c #B18B78",
"S. c #D38E42",
"D. c #D98059",
"F. c #E08942",
"G. c #D0B64C",
"H. c #CE8A6B",
"J. c #DC8762",
"K. c #DD8966",
"L. c #CD9973",
"P. c #E18C69",
"I. c #E59373",
"U. c #D1A67C",
"Y. c #574482",
"T. c #6B4E86",
"R. c #615497",
"E. c #7779A8",
"W. c #805D82",
"Q. c #9A7588",
"!. c #8B6F91",
"~. c #AD6991",
"^. c #937BA3",
"/. c #788DB9",
"(. c #928492",
"). c #B0848C",
"_. c #A5899D",
"`. c #BBA481",
"'. c #AFA093",
"]. c #B4A696",
"[. c #8887AC",
"{. c #948CB3",
"}. c #AB8EAC",
"|. c #A396B8",
" X c #ACA8AB",
".X c #C09882",
"XX c #C0B291",
"oX c #CACAAA",
"OX c #D2CAAA",
"+X c #CECBB9",
"@X c #D5D6B5",
"#X c #D9D9BC",
"$X c #9D99C9",
"%X c #A39AC7",
"&X c #9FA1D3",
"*X c #A9A9C5",
"=X c #A4A4CD",
"-X c #B0ABCB",
";X c #A3A3D5",
":X c #ABAAD5",
">X c #AFAFDA",
",X c #B3B3D6",
"<X c #BAB9DB",
"1X c #BCBCE2",
"2X c #C2B0C9",
"3X c #C9C9CA",
"4X c #CFD0C6",
"5X c #DADAC9",
"6X c #C8C8D8",
"7X c #E6E6C9",
"8X c #E8E8DB",
"9X c #C5C5E6",
"0X c #C7C7E9",
"qX c #C7C9EB",
"wX c #EDEDE0",
"eX c #F1F1E7",
"rX c #F7F7F5",
"tX c None",
/* pixels */
"tXtXtXtXtXtXtXtXtXtXtXtXtXtXtXtXtXtXtXtXtXtXtXtXtXtXtXtXtXtXtXtXtXtXtXtXtXtXtXtXtXtXtXtXtXtXtXtXtXtXtXtXtXtXtXtXtXtXtXtXtXtXtXtXtXtXtXtXtXtXtXtXtXtXtXtXtXtXtXtX",
"tXtXtXtXtXtXtXtXtXtXtXtXtXtXtXtXtXtXtXtXtXtXtXtXtXtXtXtXtXtXtXtXtXtXtXtXtXtXtXtXtXtXtXtXtXtXtXtXtXtXtXtXtXtXtXtXtXtXtXtXtXtXtXtXtXtXtXtXtXtXtXtXtXtXtXtXtXtXtXtX",
"tXtXtXtXtXtXtXtXtXtXtXtXtXtXtXtXtXtXtXtXtXtXtXtXtXtXtXtXtXtXtXtXtXtXtXtXtXtXtXtXtXtXtXtXtXtXtXtXtXtXtXtXtXtXtXtXtXtXtXtXtXtXtXtXtXtXtXtXtXtXtXtXtXtXtXtXtXtXtXtX",
"tXtXtXtXtXtXtXtXtXtXtXtXtXtXtXtXtXtXtXtXtXtXtXtXtXtXtXtXtXtXtXtXtXtXtXtXtXtXtXtXtXtXtXtXtXtXtXtXtXtXtXtXtXtXtXtXtXtXtXtXtXtXtXtXtXtXtXtXtXtXtXtXtXtXtXtXtXtXtXtX",
"tXtXtXtXtXtXtXtXtXtXtXtXtXtXtXtXtXtXtXtXtXtXtXtXtXtXtXtXtXtXtXtXtXtXtXtXtXtXtXtXtXtXtXtXtXtXtXtXtXtXtXtXtXtXtXtXtXtXtXtXtXtXtXtXtXtXtXtXtXtXtXtXtXtXtXtXtXtXtXtX",
"tXtXtXtXtXtXtXtXtXtXtXtXtXtXtXtXtXtXtXtXtXtXtXtXtXtXtXtXtXtXtXtXtXtXtXtXtXtXtXtXtXtXtXtXtXtXtXtXtXtXtXtXtXtXtXtXtXtXtXtXtXtXtXtXtXtXtXtXtXtXtXtXtXtXtXtXtXtXtXtX",
"tXtXtXtXtXtXtXtXtXtXtXtXtXtXtXtXtXtXtXtXtXtXtXtXtXtXtXtXtXtXtXtXtXtXtXtXtXtXtXtXtXtXtXtXtXtXtXtXtXtXtXtXtXtXtXtXtXtXtXtXtXtXtXtXtXtXtXtXtXtXtXtXtXtXtXtXtXtXtXtX",
"tXtXtXtXtXtXtXtXtXtXtXtXtXtXtXtXtXtXtXtXtXtXtXtXtXtXtXtXtXtXtXtXtXtXtXtXtXtXtXtXtXtXtXtXtXtXtXtXtXtXtXtXtXtXtXtXtXtXtXtXtXtXtXtXtXtXtXtXtXtXtXtXtXtXtXtXtXtXtXtX",
"tXtXtXtXtXtXtXtXtXtXtXtXtXtXtXtXtXtXtXtXtXtXtXtXtXtXtXtXtXtXtXtXtXtXtXtXtXtXtXtXtXtXtXtXtXtXtXtXtXtXtXtXtXtXtXtXtXtXtXtXtXtXtXtXtXtXtXtXtXtXtXtXtXtXtXtXtXtXtXtX",
"tXtXtXtXtXtXtXtXtXtXtXtXtXtXtXtXtXtXtXtXtXtXtXtXtXtXtXtXtXtXtXtXtXtXtXtXtXtXtXtXtXtXtXtXtXtXtXtXtXtXtXtXtXtXtXtXtXtXtXtXtXtXtXtXtXtXtXtXtXtXtXtXtXtXtXtXtXtXtXtX",
"tXtXtXtXtXtXtXtXtXtXtXtXtXtXtXtXtXtXtXtXtXtXtXtXtXtXtXtXtXtXtXtXtXtXtXtXtXtXtXtXtXtXtXtXtXtXtXtXtXtXtXtXtXtXtXtXtXtXtXtXtXtXtXtXtXtXtXtXtXtXtXtXtXtXtXtXtXtXtXtX",
"tXtXtXtXtXtXtXtXtXtXtXtXtXtXtXtXtXtXtXtXtXtXtXtXtXtXtXtXtXtXtXtXtXtXtXtXtXtXtXtXtXtXtXtXtXtXtXtXtXtXtXtXtXtXtXtXtXtXtXtXtXtXtXtXtXtXtXtXtXtXtXtXtXtXtXtXtXtXtXtX",
"tXtXtXtXtXtXtXtXtXtXtXtXtXtXtXtXtXtXtXtXtXtXtXtXtXtXtXtXtXtXtXtXtXtXtXtXtXtXtXtXtXtXtXtXtXtXtXtXtXtXtXtXtXtXtXtXtXtXtXtXtXtXtXtXtXtXtXtXtXtXtXtXtXtXtXtXtXtXtXtX",
"tXtXtXtXtXtXtXtXtXtXtXtXtXtXtXtXtXtXtXtXtXtXtXtXtXtXtXtXtXtXtXtXtXtXtXtXtXtXtXtXtXtXtXtXtXtXtXtXtXtXtXtXtXtXtXtXtXtXtXtXtXtXtXtXtXtXtXtXtXtXtXtXtXtXtXtXtXtXtXtX",
"tXtXtXtXtXtXtXtXtXtXtXtXtXtXtXtXtXtXtXtXtXtXtXtXtXtXtXtXtXtXtXtXtXtXtXtXtXtXtXtXtXtXtXtXtXtXtXtXtXtXtXtXtXtXtXtXtXtXtXtXtXtXtXtXtXtXtXtXtXtXtXtXtXtXtXtXtXtXtXtX",
"tXtXtXtXtXtXtXtXtXtXtXtXtXtXtXtXtXtXtXtXtXtXtXtXtXtXtXtXtXtXtXtXtXtXtXtXtXtXtXtXtXtXtXtXtXtXtXtXtXtXtXtXtXtXtXtXtXtXtXtXtXtXtXtXtX+XrXeXtXtXtXtXtXtXtXtXtXtXtXtX",
"tXtXtXtXtXtXtXtXtXtXtXtXtXtXtXtXtXtXtXtXtXtXtXtXtXtXtXtXtXtXtXtXtXtXtXtXtXtXtXtXtXtXtXtXtXtXtXtXtXtXtXtXtXtXtXtXtXtXtXtXtXtXtX[.*X8XrXrXrXeX#XtXtXtXtXtXtXtXtXtX",
"tXtXtXtXtXtXtXtXtXtXtXtXtXtXtXtXtXtXtXtXtXtXtXtXtXtXtXtXtXtXtXtXtXtXtXtXtXtXtXtXtXtXtXtXtXtXtXtXtXtXtXtXtXtXtXtXtXtXtXtXtXtXtX=X>X3X5XwXeXeX7XoXtXtXtXtXtXtXtXtX",
"tXtXtXtXtXtXtXtXtXtXtXtXtXtXtXtXtXtXtXtXtXtXtXtXtXtXtXtXtXtXtXtXtXtXtXtXtXtXtXtXtXtXtXtXtXtXtXtXtXtXtXtXtXtXtXtXtXtXtXtXtXtX{.9X0X1X6X4X#X7X#X5X*XtXtXtXtXtXtXtX",
"tXtXtXtXtXtXtXtXtXtXtXtXtXtXtXtXtXtXtXtXtXtXtXtXtXtXtXtXtXtXtXtXtXtXtXtXtXtXtXtXtXtXtXtXtXtXtXtXtXtXtXtXtXX.p.p.{ { { ) V tX].qX-X-X9X'. X6X6X6X1XtXtXtXtXtXtXtX",
"tXtXtXtXtXtXtXtXtXtXtXtXtXtXtXtXtXtXtXtXtXtXtXtXtXtXtXtXtXtXtXtXtXtXtXtXtXtXtXtXtXtXtXtXtXtXtXtXtXtXtXa.s.g.O.X.X.X.X.Y b.].G.|.-._.<Xv.F ^.<X X,XtXtXtXtXtXtXtX",
"tXtXtXtXtXtXtXtXtXtXtXtXtXtXtXtXtXtXtXtXtXtXtXtXtXtXtXtXtXtXtXtXtXtXtXtXtXtXtXtXtXtXtXtXtXtXtXtXtXtX`.k.g.a.Q O.h.P.I.j.S Q.F.( c F _.5., ; (.(.{.tXtXtXtXtXtXtX",
"tXtXtXtXtXtXtXtXtXtXtXtXtXtXtXtXtXtXtXtXtXtXtXtXtXtXtXtXtXtXtXtXtXtXtXtXtXtXtXtXtXtXtXtXtXtXtXtXtXXX@XL.l.#.| g.h.K.P.c.O.0.,.` x c 6.5.r.=.A 8 tXtXtXtXtXtXtXtX",
"tXtXtXtXtXtXtXtXtXtXtXtXtXtXtXtXtXtXtXtXtXtXtXtXtXtXtXtXtXtXtXtXtXtXtXtXtXtXtXtXtXtXtXtXtXtXtXtXQ L.z.f.i.H.V.$.g.j.k.h.O.d *.N A b p.4.a.O.l tXtXtXtXtXtXtXtXtX",
"tXtXtXtXtXtXtXtXtXtXtXtXtXtXtXtXtXtXtXtXtXtXtXtXtXtXtXtXtXtXtXtXtXtXtXtXtXtXtXtXtXtXtXtXtXtXtXP L X.+.g.g.~.S...h.g.g.g.Y _ G o   + ^ { T x X tXtXtXtXtXtXtXtXtX",
"tXtXtXtXtXtXtXtXtXtXtXtXtXtXtXtXtXtXtXtXtXtXtXtXtXtXtXtXtXtXtXtXtXtXtXtXtXtXtXtXtXtXtXp.O.O.O.O.O.s.g.g.$.v.@.Y U / i.4.3.C tXtXtXtXO + tXtXtXtXtXtXtXtXtXtXtXtX",
"tXtXtXtXtXtXtXtXtXtXtXtXtXtXtXtXtXtXtXtXtXtXtXtXtXtXtXtXtXtXtXtXtXtXtXtXtXtXtXtXtXtXa.g.g.h.h.h.g.O.g.g.o.H.y.0.0.A.OXOXoXZ.tXtXtXtXtXtXtXtXtXtXtXtXtXtXtXtXtXtX",
"tXtXtXtXtXtXtXtXtXtXtXtXtXtXtXtXtXtXtXtXtXtXtXtXtXtXtXtXtXtXtXtXtXtXtXtXtXtXtXtX/ s.g.g.g.g.g.h.X.L ~ +.z.+XqX0X<X+X@X@X@X'.tXtXtXtXtXtXtXtXtXtXtXtXtXtXtXtXtXtX",
"tXtXtXtXtXtXtXtXtXtXtXtXtXtXtXtXtXtXtXtXtXtXtXtXtXtXtXtXtXtXtXtXtXtXtXtXtXtXC ~.y.O.g.g.g.g.h.O.Q O.+.g.k.H.2X1X,X4X#X@X#X*XtXtXtXtXtXtXtXtXtXtXtXtXtXtXtXtXtXtX",
"tXtXtXtXtXtXtXtXtXtXtXtXtXtXtXtXtXtXtXtXtXtXtXtXtXtXtXtXtXtXtXtXtXtXtXtXm u.N.C.~.X.g.g.g.O.~ Q i.a.p.[ R R t.}.:X0X6X6X6X|.0 tXtXtXtXtXtXtXtXtXtXtXtXtXtXtXtXtX",
"tXtXtXtXtXtXtXtXtXtXtXtXtXtXtXtXtXtXtXtXtXtXtXtXtXtXtXtXtXtXtXtXtXtXO.<.E.t.d.n.q.~ O.~ [ g.L..X1.1.1.E tXtXtXtXtX<X0X0X1X!.:.F tXtXtXtXtXtXtXtXtXtXtXtXtXtXtXtX",
"tXtXtXtXtXtXtXtXtXtXtXtXtXtXtXtXtXtXtXtXtXtXtXtXtXtXtXtXtXtXtXtXa.s.g.+.w.w.I | [  .g.g.h.g.U. X~.q.<.tXtXtXtXtXtXtX>X:X^.7.7.:., tXtXtXtXtXtXtXtXtXtXtXtXtXtXtX",
"tXtXtXtXtXtXtXtXtXtXtXtXtXtXtXtXtXtXtXtXtXtXtXtXtXtXtXtXtXtXp.s.g.g.g.g.b T o.O.h.h.g.g.g.g.A.=X;X%Xr.tXtXtXtXtXtXtXtXtX;.7.7.7.=.v z tXtX> ^ ! tXtXtXtXtXtXtXtX",
"tXtXtXtXtXtXtXtXtXtXtXtXtXtXtXtXtXtXtXtXtXtXtXtXtXtXtXtXtXa.g.g.h.g.h.X.v o.h.h.h.x.h.g.g.+.).;X$X&Xw.u tXtXtXtXtXtXtXtXtXq 7.7.8.F E -.k c T R Q Q tXtXtXtXtXtX",
"tXtXtXtXtXtXtXtXtXtXtXtXtXtXtXtXtXtXtXtXtXtXtXtXtXtXtXtX/ g.g.h.+.~ X.R J a.h.g.D.J.h.g.g.4.|.;X;X{.g f f f tXtXtXtXtXtXtXtX2 y y < :.4./ p.R A D X.U tXtXtXtXtX",
"tXtXtXtXtXtXtXtXtXtXtXtXtXtXtXtXtXtXtXtXtXtXtXtXtXtXtX> X.g.g.O.P ^ Q tXI +.g.h.J.c.g.g.g.4.=X;X$Xj f f f f t tXtXtXtXtXtXtXtX. = 7 >.r.a b D > b ^ P tXtXtXtXtX",
"tXtXtXtXtXtXtXtXtXtXtXtXtXtXtXtXtXtXtXtXtXtXtXtXtXtXtXtX: Z L tXtXZ tXtX~ g.g.c.J.h.g.g.g.).;X%XW.f f f f f u 6 # . tXtXtXtXtXtXq y %.9.4   o : : tXtXtXtXtXtXtX",
"tXtXtXtXtXtXtXtXtXtXtXtXtXtXtXtXtXtXtXtXtXtXtXtXtXtXtXtXtXtXtXtXtXtXtXtXs.h.h.J.D.g.g.g.o._.;X!.f f f f f f f f u 9 * @ tXtXtXtXtX    . tXtXtXtXtXtXtXtXtXtXtXtX",
"tXtXtXtXtXtXtXtXtXtXtXtXtXtXtXtXtXtXtXtXtXtXtXtXtXtXtXtXtXtXtXtXtXtXtXO.g.g.k.J.h.g.g.g.l.|.^.f f f f f f f f f f f f e 2 tXtXtXtXtXtXtXtXtXtXtXtXtXtXtXtXtXtXtX",
"tXtXtXtXtXtXtXtXtXtXtXtXtXtXtXtXtXtXtXtXtXtXtXtXtXtXtXtXtXtXtXtXtXtXa.g.g.g.D.c.g.g.g.g.E p f f f f f f f f f f f f f f s D J tXtXtXtXtXtXtXtXtXtXtXtXtXtXtXtXtX",
"tXtXtXtXtXtXtXtXtXtXtXtXtXtXtXtXtXtXtXtXtXtXtXtXtXtXtXtXtXtXtXtXtXtXa.g.g.h.x.h.g.g.h.O.tXtXw f f f f f f f f f f f f f f a T I tXtXtXtXtXtXtXtXtXtXtXtXtXtXtXtX",
"tXtXtXtXtXtXtXtXtXtXtXtXtXtXtXtXtXtXtXtXtXtXtXtXtXtXtXtXtXtXtXtXtXtXg.g.g.j.h.g.g.g.g.o.tXtXtX- u f f f f f f f f f f f f f ;.P I tXtXtXtXtXtXtXtXtXtXtXtXtXtXtX",
"tXtXtXtXtXtXtXtXtXtXtXtXtXtXtXtXtXtXtXtXtXtXtXtXtXtXtXtXtXtXtXtXtXtXg.g.g.g.g.g.g.g.X.tXtXtXtXtX3 f f f f f f f f f f f f f f =.I Q tXtXtXtXtXtXtXtXtXtXtXtXtXtX",
"tXtXtXtXtXtXtXtXtXtXtXtXtXtXtXtXtXtXtXtXtXtXtXtXtXtXtXtXtXtXtXtXtXs.g.g.g.g.g.g.h.O.tXtXtXtXtXtXtX- e t f f f f f f f f f f f f G U Q P tXtXtXtXtXtXtXtXtXtXtXtX",
"tXtXtXtXtXtXtXtXtXtXtXtXtXtXtXtXtXtXtXtXtXtXtXtXtXtXtXtXtXtXtXtXtXg.g.g.g.g.g.g.+.U tXtXtXtXtXtXtXtXtX= - 5 f f f f f f f f f f F U Q I J tXtXtXtXtXtXtXtXtXtXtX",
"tXtXtXtXtXtXtXtXtXtXtXtXtXtXtXtXtXtXtXtXtXtXtXtXtXtXtXtXtXtXtXtXO.g.g.g.g.g.g.s.tXtXtXtXtXtXtXtXtXtXtXtXtXtX$ 5 e r f f f f f f F U Q Q I tXtXtXtXtXtXtXtXtXtXtX",
"tXtXtXtXtXtXtXtXtXtXtXtXtXtXtXtXtXtXtXtXtXtXtXtXtXtXtXtXtXtXtXY s.g.g.g.g.g.g.tXtXtXtXtXtXtXtXtXtXtXtXtXtXtXtXtXtX* - 3 i f f f =.I Q Q Q J tXtXtXtXtXtXtXtXtXtX",
"tXtXtXtXtXtXtXtXtXtXtXtXtXtXtXtXtXtXtXtXtXtXtXtXtXtXtXtXtXs.s. .g.g.g.g.g.g.p.tXtXtXtXtXtXtXtXtXtXtXtXtXtXtXtXtXtXtXtXtX& - e i f =.I Q Q K tXtXtXtXtXtXtXtXtXtX",
"tXtXtXtXtXtXtXtXtXtXtXtXtXtXtXtXtXtXtXtXtXtXtXtXtXtXtXa.s.g. .O.h.g.g.g.+.~ tXtXtXtXtXtXtXtXtXtXtXtXtXtXtXtXtXtXtXtXtXtXtXtX* 5 f f G P K tXtXtXtXtXtXtXtXtXtXtX",
"tXtXtXtXtXtXtXtXtXtXtXtXtXtXtXtXtXtXtXtXtXtXtXtXtXtX] s.g.g.~ g.g.g.g.g.~ tXtXtXtXtXtXtXtXtXtXtXtXtXtXtXtXtXtXtXtXtXtXtXtXX 5 * e e 8 0 0 tXtXtXtXtXtXtXtXtXtXtX",
"tXtXtXtXtXtXtXtXtXtXtXtXtXtXtXtXtXtXtXtXtXtXtXtXi.5.u.} h.g.~ g.g.g.g. .tXtXtXtXtXtXtXtXtXtXtXtXtXtXtXtXtXtXtXtXtXtXtXtX+ A a e * $ = . tXtXtXtXtXtXtXtXtXtXtXtX",
"tXtXtXtXtXtXtXtXtXtXtXtXtXtXtXtXtXtXtXtXtXtXtXtXf.[.y.p.+.g.O.g.p.X.~ tXtXtXtXtXtXtXtXtXtXtXtXtXtXtXtXtXtXtXtXtXtXtXtX# %.P s f i 5 e $ tXtXtXtXtXtXtXtXtXtXtXtX",
"tXtXtXtXtXtXtXtXtXtXtXtXtXtXtXtXtXtXtXtXtXtXtXs.g.5./.2.{ g.h.s.U tXtXtXtXtXtXtXtXtXtXtXtXtXtXtXtXtXtXtXtXtXtXtXtXtXtX$ h >.%.f f u < # tXtXtXtXtXtXtXtXtXtXtXtX",
"tXtXtXtXtXtXtXtXtXtXtXtXtXtXtXtXtXtXtXtXtXtXX.g.g.+.e.E.,.} g.Q tXtXtXtXtXtXtXtXtXtXtXtXtXtXtXtXtXtXtXtXtXtXtXtXtXtXtX$ d T.9.&.&.&.w tXtXtXtXtXtXtXtXtXtXtXtXtX",
"tXtXtXtXtXtXtXtXtXtXtXtXtXtXtXtXtXtXtXtXtX~ g.g.g.g.O.Q.!.1.U tXtXtXtXtXtXtXtXtXtXtXtXtXtXtXtXtXtXtXtXtXtXtXtXtXtXtXtX# r f h R.R.Y.tXtXtXtXtXtXtXtXtXtXtXtXtXtX",
"tXtXtXtXtXtXtXtXtXtXtXtXtXtXtXtXtXtXtXtXtXg.g.g.g.g.g.+.6.0.tXtXtXtXtXtXtXtXtXtXtXtXtXtXtXtXtXtXtXtXtXtXtXtXtXtXtXtXtXtX& u f f r & tXtXtXtXtXtXtXtXtXtXtXtXtXtX",
"tXtXtXtXtXtXtXtXtXtXtXtXtXtXtXtXtXtXtXtXa.g.g.g.g.g.g.O.tXtXtXtXtXtXtXtXtXtXtXtXtXtXtXtXtXtXtXtXtXtXtXtXtXtXtXtXtXtXtX% 9 5 u 9 $ tXtXtXtXtXtXtXtXtXtXtXtXtXtXtX",
"tXtXtXtXtXtXtXtXtXtXtXtXtXtXtXtXtXtXtXa.g.g.g.g.g.s.X.tXtXtXtXtXtXtXtXtXtXtXtXtXtXtXtXtXtXtXtXtXtXtXtXtXtXtXtXtXtXtXtX9 f e t e 1 tXtXtXtXtXtXtXtXtXtXtXtXtXtXtX",
"tXtXtXtXtXtXtXtXtXtXtXtXtXtXtXtXtXtXa.g.g.g.g.g.s.tXtXtXtXtXtXtXtXtXtXtXtXtXtXtXtXtXtXtXtXtXtXtXtXtXtXtXtXtXtXtXtXtXtX8 f f f r tXtXtXtXtXtXtXtXtXtXtXtXtXtXtXtX",
"tXtXtXtXtXtXtXtXtXtXtXtXtXtXtXtXtXtXs.g.g.g.g.s.tXtXtXtXtXtXtXtXtXtXtXtXtXtXtXtXtXtXtXtXtXtXtXtXtXtXtXtXtXtXtXtXtXtXtXr f f f 9 tXtXtXtXtXtXtXtXtXtXtXtXtXtXtXtX",
"tXtXtXtXtXtXtXtXtXtXtXtXtXtXtXtXtX .g.g.g.g.X.tXtXtXtXtXtXtXtXtXtXtXtXtXtXtXtXtXtXtXtXtXtXtXtXtXtXtXtXtXtXtXtXtXtXtX< 6 w f t tXtXtXtXtXtXtXtXtXtXtXtXtXtXtXtXtX",
"tXtXtXtXtXtXtXtXtXtXtXtXtXtXtXtXtXO.g.h.g.o.tXtXtXtXtXtXtXtXtXtXtXtXtXtXtXtXtXtXtXtXtXtXtXtXtXtXtXtXtXtXtXtXtXtXtXtXS B D _ S tXtXtXtXtXtXtXtXtXtXtXtXtXtXtXtXtX",
"tXtXtXtXtXtXtXtXtXtXtXtXtXtXtXtXn.'  .s.o.tXtXtXtXtXtXtXtXtXtXtXtXtXtXtXtXtXtXtXtXtXtXtXtXtXtXtXtXtXtXtXtXtXtXtXtXtX7 B N M M H tXtXtXtXtXtXtXtXtXtXtXtXtXtXtXtX",
"tXtXtXtXtXtXtXtXtXtXtXtXtXtXtX| B.M.m.) tXtXtXtXtXtXtXtXtXtXtXtXtXtXtXtXtXtXtXtXtXtXtXtXtXtXtXtXtXtXtXtXtXtXtXtXtXH F 7 ( n : U P tXtXtXtXtXtXtXtXtXtXtXtXtXtXtX",
"tXtXtXtXtXtXtXtXtXtXtXtXtXtX[ O.' n.' B tXtXtXtXtXtXtXtXtXtXtXtXtXtXtXtXtXtXtXtXtXtXtXtXtXtXtXtXtXtXtXtXtXtXtXtXtXI G - t i , Q Q I J tXtXtXtXtXtXtXtXtXtXtXtXtX",
"tXtXtXtXtXtXtXtXtXtXtXtXtXY X.p.X.| N.tXtXtXtXtXtXtXtXtXtXtXtXtXtXtXtXtXtXtXtXtXtXtXtXtXtXtXtXtXtXtXtXtXtXtXtXtXJ U T q 3 5 l Q Q Q Q I J v tXtXtXtXtXtXtXtXtXtX",
"tXtXtXtXtXtXtXtXtXtXtXtXH  .o.+.s.s.o.tXtXtXtXtXtXtXtXtXtXtXtXtXtXtXtXtXtXtXtXtXtXtXtXtXtXtXtXtXtXtXtXtXtXtXtXtXP ! I ;.e 5 n P ! ! ! ! ! Q z tXtXtXtXtXtXtXtXtX",
"tXtXtXtXtXtXtXtXtXtXtXtXU O.O.g.g.o.tXtXtXtXtXtXtXtXtXtXtXtXtXtXtXtXtXtXtXtXtXtXtXtXtXtXtXtXtXtXtXtXtXtXtXtXtXtXz z > 5 6 -   o z z z z z z l l tXtXtXtXtXtXtXtX",
"tXtXtXtXtXtXtXtXtXtXtXtX/ s.g.g.g.[ tXtXtXtXtXtXtXtXtXtXtXtXtXtXtXtXtXtXtXtXtXtXtXtXtXtXtXtXtXtXtXtXtXtXtXtXtXtXtXtXtXtXtXtXtXtXtXtXtXtXtXtXtXtXtXtXtXtXtXtXtXtX",
"tXtXtXtXtXtXtXtXtXtXtXK R g.g.g.g.X.tXtXtXtXtXtXtXtXtXtXtXtXtXtXtXtXtXtXtXtXtXtXtXtXtXtXtXtXtXtXtXtXtXtXtXtXtXtXtXtXtXtXtXtXtXtXtXtXtXtXtXtXtXtXtXtXtXtXtXtXtXtX",
"tXtXtXtXtXtXtXtXtXtXtX~ / g.g.g.g.+.tXtXtXtXtXtXtXtXtXtXtXtXtXtXtXtXtXtXtXtXtXtXtXtXtXtXtXtXtXtXtXtXtXtXtXtXtXtXtXtXtXtXtXtXtXtXtXtXtXtXtXtXtXtXtXtXtXtXtXtXtXtX",
"tXtXtXtXtXtXtXtXtXtXtXX.a.h.h.h.g.s./ tXtXtXtXtXtXtXtXtXtXtXtXtXtXtXtXtXtXtXtXtXtXtXtXtXtXtXtXtXtXtXtXtXtXtXtXtXtXtXtXtXtXtXtXtXtXtXtXtXtXtXtXtXtXtXtXtXtXtXtXtX",
"tXtXtXtXtXtXtXtXtXtXtXl x W W L A A x o tXtXtXtXtXtXtXtXtXtXtXtXtXtXtXtXtXtXtXtXtXtXtXtXtXtXtXtXtXtXtXtXtXtXtXtXtXtXtXtXtXtXtXtXtXtXtXtXtXtXtXtXtXtXtXtXtXtXtXtX",
"tXtXtXtXtXtXtXtXtXtXtXtXtXtXtXtXtXtXtXtXtXtXtXtXtXtXtXtXtXtXtXtXtXtXtXtXtXtXtXtXtXtXtXtXtXtXtXtXtXtXtXtXtXtXtXtXtXtXtXtXtXtXtXtXtXtXtXtXtXtXtXtXtXtXtXtXtXtXtXtX",
"tXtXtXtXtXtXtXtXtXtXtXtXtXtXtXtXtXtXtXtXtXtXtXtXtXtXtXtXtXtXtXtXtXtXtXtXtXtXtXtXtXtXtXtXtXtXtXtXtXtXtXtXtXtXtXtXtXtXtXtXtXtXtXtXtXtXtXtXtXtXtXtXtXtXtXtXtXtXtXtX",
"tXtXtXtXtXtXtXtXtXtXtXtXtXtXtXtXtXtXtXtXtXtXtXtXtXtXtXtXtXtXtXtXtXtXtXtXtXtXtXtXtXtXtXtXtXtXtXtXtXtXtXtXtXtXtXtXtXtXtXtXtXtXtXtXtXtXtXtXtXtXtXtXtXtXtXtXtXtXtXtX",
"tXtXtXtXtXtXtXtXtXtXtXtXtXtXtXtXtXtXtXtXtXtXtXtXtXtXtXtXtXtXtXtXtXtXtXtXtXtXtXtXtXtXtXtXtXtXtXtXtXtXtXtXtXtXtXtXtXtXtXtXtXtXtXtXtXtXtXtXtXtXtXtXtXtXtXtXtXtXtXtX",
"tXtXtXtXtXtXtXtXtXtXtXtXtXtXtXtXtXtXtXtXtXtXtXtXtXtXtXtXtXtXtXtXtXtXtXtXtXtXtXtXtXtXtXtXtXtXtXtXtXtXtXtXtXtXtXtXtXtXtXtXtXtXtXtXtXtXtXtXtXtXtXtXtXtXtXtXtXtXtXtX",
"tXtXtXtXtXtXtXtXtXtXtXtXtXtXtXtXtXtXtXtXtXtXtXtXtXtXtXtXtXtXtXtXtXtXtXtXtXtXtXtXtXtXtXtXtXtXtXtXtXtXtXtXtXtXtXtXtXtXtXtXtXtXtXtXtXtXtXtXtXtXtXtXtXtXtXtXtXtXtXtX",
"tXtXtXtXtXtXtXtXtXtXtXtXtXtXtXtXtXtXtXtXtXtXtXtXtXtXtXtXtXtXtXtXtXtXtXtXtXtXtXtXtXtXtXtXtXtXtXtXtXtXtXtXtXtXtXtXtXtXtXtXtXtXtXtXtXtXtXtXtXtXtXtXtXtXtXtXtXtXtXtX"
};
