/* XPM */
static char *result[] = {
/* columns rows colors chars-per-pixel */
"80 80 214 2 ",
"   c #480718",
".  c #590C16",
"X  c #5C1516",
"o  c #641A16",
"O  c #76271A",
"+  c #7C331E",
"@  c #480C22",
"#  c #510F24",
"$  c #4F1126",
"%  c #52152B",
"&  c #5A1A2A",
"*  c #591E35",
"=  c #5D2234",
"-  c #5D243D",
";  c #782A27",
":  c #6D2C3B",
">  c #6F303E",
",  c #79323D",
"<  c #5E2741",
"1  c #412553",
"2  c #632B45",
"3  c #632D49",
"4  c #712E4A",
"5  c #6E3246",
"6  c #66314E",
"7  c #743848",
"8  c #693553",
"9  c #6E3B5B",
"0  c #733F5C",
"q  c #7A3958",
"w  c #462D62",
"e  c #7F4448",
"r  c #7D4155",
"t  c #77435F",
"y  c #7A435C",
"u  c #594478",
"i  c #734263",
"p  c #704569",
"a  c #833719",
"s  c #853223",
"d  c #893628",
"f  c #8E3929",
"g  c #953D26",
"h  c #9B3E23",
"j  c #933C2A",
"k  c #983F28",
"l  c #883731",
"z  c #B63428",
"x  c #B9373A",
"c  c #C23D2E",
"v  c #97490E",
"b  c #AB5815",
"n  c #AE561B",
"m  c #B8660B",
"M  c #BD6516",
"N  c #9C4229",
"B  c #9E442D",
"V  c #8D4130",
"C  c #9B4535",
"Z  c #984936",
"A  c #95453D",
"S  c #9A463A",
"D  c #A24425",
"F  c #A94625",
"G  c #A54E24",
"H  c #A2462B",
"J  c #AA452B",
"K  c #A54A2D",
"L  c #AC4B2B",
"P  c #B14E2C",
"I  c #B9492F",
"U  c #AF502D",
"Y  c #B5512E",
"T  c #B9562E",
"R  c #BC5D29",
"E  c #AB4D33",
"W  c #AA4C37",
"Q  c #A34A3D",
"!  c #B94B34",
"~  c #AC5132",
"^  c #A6563C",
"/  c #AB523A",
"(  c #B55231",
")  c #B95634",
"_  c #B65934",
"`  c #BC5A34",
"'  c #B5563B",
"]  c #B65E3D",
"[  c #BD5C3A",
"{  c #B16B26",
"}  c #BD613B",
"|  c #C55916",
" . c #C86A0E",
".. c #C97716",
"X. c #C24734",
"o. c #C05435",
"O. c #C25E35",
"+. c #C15E3C",
"@. c #C5672D",
"#. c #CE712A",
"$. c #C46236",
"%. c #C86436",
"&. c #C5633B",
"*. c #C9663C",
"=. c #CC6A3D",
"-. c #D16E3F",
";. c #CA7333",
":. c #D4733B",
">. c #873B4D",
",. c #833D55",
"<. c #B23945",
"1. c #894348",
"2. c #964746",
"3. c #834353",
"4. c #8C4459",
"5. c #974954",
"6. c #87545B",
"7. c #955C5D",
"8. c #A85645",
"9. c #B65A46",
"0. c #A65B5E",
"q. c #B75957",
"w. c #826257",
"e. c #916155",
"r. c #B5644A",
"t. c #BA6A57",
"y. c #B27354",
"u. c #864265",
"i. c #90486A",
"p. c #835667",
"a. c #82567A",
"s. c #A65465",
"d. c #8A6F6D",
"f. c #BE6B67",
"g. c #B07965",
"h. c #A46177",
"j. c #AF7270",
"k. c #CC5448",
"l. c #D45854",
"z. c #C56342",
"x. c #C96642",
"c. c #CD6B42",
"v. c #C96C48",
"b. c #D16E41",
"n. c #C8754C",
"m. c #D67342",
"M. c #D87543",
"N. c #D8794B",
"B. c #CC7C58",
"V. c #C36565",
"C. c #BA853A",
"Z. c #D8830D",
"A. c #DB920D",
"S. c #D88218",
"D. c #D39311",
"F. c #D7A01D",
"G. c #E2A703",
"H. c #CF8224",
"J. c #E5AB2F",
"K. c #D5885A",
"L. c #DB8561",
"P. c #CA927B",
"I. c #E69474",
"U. c #7D4D85",
"Y. c #685693",
"T. c #7E7797",
"R. c #7A77A1",
"E. c #967788",
"W. c #916B92",
"Q. c #837696",
"!. c #A66E83",
"~. c #AA7489",
"^. c #807CA1",
"/. c #AF68AF",
"(. c #7F80AE",
"). c #7A8AB7",
"_. c #9D8C8F",
"`. c #AB888F",
"'. c #B9B093",
"]. c #8B87A8",
"[. c #9E8FB4",
"{. c #9B9ABE",
"}. c #A795A8",
"|. c #A39FBB",
" X c #B49FB5",
".X c #A9A4B5",
"XX c #C7B79B",
"oX c #CDC9AD",
"OX c #C9CAB1",
"+X c #D6D5B5",
"@X c #D7D8B9",
"#X c #9D9DC4",
"$X c #A4A2C6",
"%X c #A6A6C9",
"&X c #BABAC9",
"*X c #ACACD5",
"=X c #B8B5D1",
"-X c #BABBDD",
";X c #BFBFE4",
":X c #C9B8C2",
">X c #C8C8CB",
",X c #DADACA",
"<X c #C4C2D6",
"1X c #CDCDD2",
"2X c #E4E4C6",
"3X c #E9E9D8",
"4X c #C4C5E6",
"5X c #C9C9E6",
"6X c #C6C7E8",
"7X c #EFEFE5",
"8X c #F2F2E7",
"9X c #F3F3EC",
"0X c #F7F7F5",
"qX c None",
/* pixels */
"qXqXqXqXqXqXqXqXqXqXqXqXqXqXqXqXqXqXqXqXqXqXqXqXqXqXqXqXqXqXqXqXqXqXqXqXqXqXqXqXqXqXqXOX9X8XqXqXqXqXqXqXqXqXqXqXqXqXqXqXqXqXqXqXqXqXqXqXqXqXqXqXqXqXqXqXqXqXqXqX",
"qXqXqXqXqXqXqXqXqXqXqXqXqXqXqXqXqXqXqXqXqXqXqXqXqXqXqXqXqXqXqXqXqXqXqXqXqXqXqXqXqXqX$X,X9X0X0X9X3XqXqXqXqXqXqXqXqXqXqXqXqXqXqXqXqXqXqXqXqXqXqXqXqXqXqXqXqXqXqXqX",
"qXqXqXqXqXqXqXqXqXqXqXqXqXqXqXqXqXqXqXqXqXqXqXqXqXqXqXqXqXqXqXqXqXqXqXqXqXqXqXqXqX].*X&X,X3X7X8X8X@XqXqXqXqXqXqXqXqXqXqXqXqXqXqXqXqXqXqXqXqXqXqXqXqXqXqXqXqXqXqX",
"qXqXqXqXqXqXqXqXqXqXqXqXqXqXqXqXqXqXqXqXqXqXqXqXqXqXqXqXqXqXqXqXqXqXqXqXqXqXqXqXqX{.6X;X-X>XOX2X2X,X<XqXqXqXqXqXqXqXqXqXqXqXqXqXqXqXqXqXqXqXqXqXqXqXqXqXqXqXqXqX",
"qXqXqXqXqXqXqXqXqXqXqXqXqXqXqXqXqXqXqXqXqXqXqXqXqXqXqXqXqXqXqXqXqXqXqXqXqXqXqXqXqX#X=X{.6X|.}.=X5X5X4XqXqXqXqXqXqXqXqXqXqXqXqXqXqXqXqXqXqXqXqXqXqXqXqXqXqXqXqXqX",
"qXqXqXqXqXqXqXqXqXqXqXqXqXqXqXqXqXqXqXqXqXqXqXqXqXqXqXqXqXqXqXqXqXqXqXqXqXqXqXqXqXT.6.E.-X}.S p..X-X%XqXqXqXqXqXqXqXqXqXqXqXqXqXqXqXqXqXqXqXqXqXqXqXqXqXqXqXqXqX",
"qXqXqXqXqXqXqXqXqXqXqXqXqXqXqXqXqXqXqXqXqXqXqXqXqXqXqXqXqXqXqXqXqXqXqXqXqXqXqXqXqX^ d V E.].7 & 8._.qXqXqXqXqXqXqXqXqXqXqXqXqXqXqXqXqXqXqXqXqXqXqXqXqXqXqXqXqXqX",
"qXqXqXqXqXqXqXqXqXqXqXqXqXqXqXqXqXqXqXqXqXqXqXqXqXqXqXqXqXqXqXqXqXqXqXqXqXqXqXf.F.:.~ ; r.d.Q.6.H o qXqXqXqXqXqXqXqXqXqXqXqXqXqXqXqXqXqXqXqXqXqXqXqXqXqXqXqXqXqX",
"qXqXqXqXqXqXqXqXqXqXqXqXqXqXqXqXqXqXqXqXqXqXqXqXqXqXqXqXqXqXqXqXqXqXK =.m.n.7.q.S.@.=.d z.z.t.c.j qXqXqXqXqXqXqXqXqXqXqXqXqXqXqXqXqXqXqXqXqXqXqXqXqXqXqXqXqXqXqX",
"qXqXqXqXqXqXqXqXqXqXqXqXqXqXqXqXqXqXqXqXqXqXqXqXqXqXqXqXqXqXqXqXqXL -.N.I.I.m.P |  .$.f E &.K f X qXqXqXqXqXqXqXqXqXqXqXqXqXqXqXqXqXqXqXqXqXqXqXqXqXqXqXqXqXqXqX",
"qXqXqXqXqXqXqXqXqXqXqXqXqXqXqXqXqXqXqXqXqXqXqXqXqXqXqXqXqXqXqX` %.%.m.N.L.L.N.&.z  .n f o O X qXqXqXqXqXqXqXqXqXqXqXqXqXqXqXqXqXqXqXqXqXqXqXqXqXqXqXqXqXqXqXqXqX",
"qXqXqXqXqXqXqXqXqXqXqXqXqXqXqXqXqXqXqXqXqXqXqXqXqXqXqXqXqXqXqX&.~ -.m.m.M.M.M.&.5.5.G qXqXqXqXqXqXqXqXqXqXqXqXqXqXqXqXqXqXqXqXqXqXqXqXqXqXqXqXqXqXqXqXqXqXqXqXqX",
"qXqXqXqXqXqXqXqXqXqXqXqXqXqXqXqXqXqXqXqXqXqXqXqXqXqXqXqXqXqXU ` _ m.m.m.m.m.M.$.e.d.+ . qXqXqXqXqXqXqXqXqXqXqXqXqXqXqXqXqXqXqXqXqXqXqXqXqXqXqXqXqXqXqXqXqXqXqXqX",
"qXqXqXqXqXqXqXqXqXqXqXqXqXqXqXqXqXqXqXqXqXqXqXqXqXqXqXqXqXE v...=.m.m.m.m.m.m.^ C.{ ,.l qXqXqXqXqXqXqXqXqXqXqXqXqXqXqXqXqXqXqXqXqXqXqXqXqXqXqXqXqXqXqXqXqXqXqXqX",
"qXqXqXqXqXqXqXqXqXqXqXqXqXqXqXqXqXqXqXqXqXqXqXqXqXqXqXqX~ *.f.J...b.j g K K g.'.'.6.l { 2.qXqXqXqXqXqXqXqXqXqXqXqXqXqXqXqXqXqXqXqXqXqXqXqXqXqXqXqXqXqXqXqXqXqXqX",
"qXqXqXqXqXqXqXqXqXqXqXqXqXqXqXqXqXqXqXqXqXqXqXqXqXqXB ` b.m.x.f.J.#.Q 6.h.~.:X@XoXw.V h.5.E qXqXqXqXqXqXqXqXqXqXqXqXqXqXqXqXqXqXqXqXqXqXqXqXqXqXqXqXqXqXqXqXqXqX",
"qXqXqXqXqXqXqXqXqXqXqXqXqXqXqXqXqXqXqXqXqXqXqXqXF ` =.m.m.m.m.9.t.y. X6X6X4X1X+X+XXX6.,.u.5.s h F qXqXqXqXqXqXqXqXqXqXqXqXqXqXqXqXqXqXqXqXqXqXqXqXqXqXqXqXqXqXqX",
"qXqXqXqXqXqXqXqXqXqXqXqXqXqXqXqXqXqXqXqXqXqXqXY *.m.-.$.M.m.=.( [ P.:X<X4X&X>X+X+X+Xw.4 u.,.C +.+.( qXqXqXqXqXqXqXqXqXqXqXqXqXqXqXqXqXqXqXqXqXqXqXqXqXqXqXqXqXqX",
"qXqXqXqXqXqXqXqXqXqXqXqXqXqXqXqXqXqXqXqXqXqX~ m.m.m.m.$.j ( O.=.m.M.m.P.`..X6X1X1X>Xd.# q ,.W x.z.[ qXqXqXqXqXqXqXqXqXqXqXqXqXqXqXqXqXqXqXqXqXqXqXqXqXqXqXqXqXqX",
"qXqXqXqXqXqXqXqXqXqXqXqXqXqXqXqXqXqXqXqXqXqX[ M.m.m.m.*.s %.m.m.m.m.v.x.Z |.6X6X6X-XqXqX# >.9.z.9.s., qXqXqXqXqXqXqXqXqXqXqXqXqXqXqXqXqXqXqXqXqXqXqXqXqXqXqXqXqX",
"qXqXqXqXqXqXqXqXqXqXqXqXqXqXqXqXqXqXqXqXqXqX_ m.m.m.m.m.H &.m.m.m.q.s.2.qXqX$X*X%X$XqXqX% 4.z.' 0.H.N w @ qXqXqXqXqXqXqXqXqXqXqXqXqXqXqXqXqXqXqXqXqXqXqXqXqXqXqX",
"qXqXqXqXqXqXqXqXqXqXqXqXqXqXqXqXqXqXqXqXqXqXqX_ m.m.m.m.&.B.K.B.q.s.5.qXqXqXqXqXqXqXqXqX  & 2.Q 0.M W.u ; D L L qXqXqXqXqXqXqXqXqXqXqXqXqXqXqXqXqXqXqXqXqXqXqXqX",
"qXqXqXqXqXqXqXqXqXqXqXqXqXqXqXqXqXqXqXqXqXqXqXqX=.m.m.m.=.P.+XoXh.>., qXqXqXqXqXqXqXqXqXqXqXX ; , h a.9.+.z.z.z.[ qXqXqXqXqXqXqXqXqXqXqXqXqXqXqXqXqXqXqXqXqXqXqX",
"qXqXqXqXqXqXqXqXqXqXqXqXqXqXqXqXqXqXqXqXqXqXqXqX_ m.m.m.v.r.K.XX[.= qXqXqXqXqXqXqXqXqXqXqXqXqXqXqX. * W ' ' z./ +.) qXqXqXqXqXqXqXqXqXqXqXqXqXqXqXqXqXqXqXqXqXqX",
"qXqXqXqXqXqXqXqXqXqXqXqXqXqXqXqXqXqXqXqXqXqXqXqXqX` -.V./.s.%.B.$X_.qXqXqXqXqXqXqXqXqXqXqXqXqXqXqXqXqXB z.f B E +.z.qXqXqXqXqXqXqXqXqXqXqXqXqXqXqXqXqXqXqXqXqXqX",
"qXqXqXqXqXqXqXqXqXqXqXqXqXqXqXqXqXqXqXqXqXqXqXqXqXU 9./.B.;._ c.`.%XqXqXqXqXqXqXqXqXqXqXqXqXqXqXqXqXqXqXB j j J [ [ qXqXqXqXqXqXqXqXqXqXqXqXqXqXqXqXqXqXqXqXqXqX",
"qXqXqXqXqXqXqXqXqXqXqXqXqXqXqXqXqXqXqXqXqXqXqXqXO.$.Q n.G.Z.R %.j..XqXqXqXqXqXqXqXqXqXqXqXqXqXqXqXqXqXqXqXs s h F qXqXqXqXqXqXqXqXqXqXqXqXqXqXqXqXqXqXqXqXqXqXqX",
"qXqXqXqXqXqXqXqXqXqXqXqXqXqXqXqXqXqXqXqXqXqXqXqX=.m.` ..:.l.q.} O.g.qXqXqXqXqXqXqXqXqXqXqXqXqXqXqXqXqXqXqXqXqXqXqXqXqXqXqXqXqXqXqXqXqXqXqXqXqXqXqXqXqXqXqXqXqXqX",
"qXqXqXqXqXqXqXqXqXqXqXqXqXqXqXqXqXqXqXqXqXqXqXqXm.m.m.O.l.E.(.e K K qXqXqXqXqXqXqXqXqXqXqXqXqXqXqXqXqXqXqXqXqXqXqXqXqXqXqXqXqXqXqXqXqXqXqXqXqXqXqXqXqXqXqXqXqXqX",
"qXqXqXqXqXqXqXqXqXqXqXqXqXqXqXqXqXqXqXqXqXqXqXx.m.m.m.*./ T.r.` B ( ~ B qXqXqXqXqXqXqXqXqXqXqXqXqXqXqXqXqXqXqXqXqXqXqXqXqXqXqXqXqXqXqXqXqXqXqXqXqXqXqXqXqXqXqXqX",
"qXqXqXqXqXqXqXqXqXqXqXqXqXqXqXqXqXqXqXqXqXqXqXx.m.m.m.m._ / m.M.M.m.E [ D qXqXqXqXqXqXqXqXqXqXqXqXqXqXqXqXqXqXqXqXqXqXqXqXqXqXqXqXqXqXqXqXqXqXqXqXqXqXqXqXqXqXqX",
"qXqXqXqXqXqXqXqXqXqXqXqXqXqXqXqXqXqXqXqXqXqXqXqXm.m.m.m.m._ =.m.m.m.=._ _ ( O.qXqXqXqXqXqXqXqXqXqXqXqXqXqXqXqXqXqXqXqXqXqXqXqXqXqXqXqXqXqXqXqXqXqXqXqXqXqXqXqXqX",
"qXqXqXqXqXqXqXqXqXqXqXqXqXqXqXqXqXqXqXqXqXqXqXqX$.m.m.m.m.-._ =.m.m.m.} d ~ -.` qXqXqXqXqXqXqXqXqXqXqXqXqXqXqXqXqXqXqXqXqXqXqXqXqXqXqXqXqXqXqXqXqXqXqXqXqXqXqXqX",
"qXqXqXqXqXqXqXqXqXqXqXqXqXqXqXqXqXqXqXqXqXqXqXqXqX=.m.m.m.m.=.` m.m.m.&.] M.m.m.$.qXqXqXqXqXqXqXqXqXqXqXqXqXqXqXqXqXqXqXqXqXqXqXqXqXqXqXqXqXqXqXqXqXqXqXqXqXqXqX",
"qXqXqXqXqXqXqXqXqXqXqXqXqXqXqXqXqXqXqXqXqXqXqXqXqX; ] m.m.m.m.*.$.m.m.&.] N.m.m.m.` qXqXqXqXqXqXqXqXqXqXqXqXqXqXqXqXqXqXqXqXqXqXqXqXqXqXqXqXqXqXqXqXqXqXqXqXqXqX",
"qXqXqXqXqXqXqXqXqXqXqXqXqXqXqXqXqXqXqXqXqXqXqXqXqX6 y / b.m.m.m.} } m.` &.m.m.m.m.-.T qXqXqXqXqXqXqXqXqXqXqXqXqXqXqXqXqXqXqXqXqXqXqXqXqXqXqXqXqXqXqXqXqXqXqXqXqX",
"qXqXqXqXqXqXqXqXqXqXqXqXqXqXqXqXqXqXqXqXqXqXqXqXqX8 i r ' c.m.m.m._ K K m.m.m.m.m.m.=.Y qXqXqXqXqXqXqXqXqXqXqXqXqXqXqXqXqXqXqXqXqXqXqXqXqXqXqXqXqXqXqXqXqXqXqXqX",
"qXqXqXqXqXqXqXqXqXqXqXqXqXqXqXqXqXqXqXqXqXqXqXqX* i i i 3.8.&.c.b.m.b.m.m.m.m.m.m.m.m.=.` qXqXqXqXqXqXqXqXqXqXqXqXqXqXqXqXqXqXqXqXqXqXqXqXqXqXqXqXqXqXqXqXqXqXqX",
"qXqXqXqXqXqXqXqXqXqXqXqXqXqXqXqXqXqXqXqXqXqXqXqX* i i i i y Q z.x.x.c.m.m.m.m.m.m.m.m.m.-.T qXqXqXqXqXqXqXqXqXqXqXqXqXqXqXqXqXqXqXqXqXqXqXqXqXqXqXqXqXqXqXqXqXqX",
"qXqXqXqXqXqXqXqXqXqXqXqXqXqXqXqXqXqXqXqXqXqXqXqX2 i i i i i i 5.9.z.z.x.c.b.m.m.m.m.m.m.m.=.Y qXqXqXqXqXqXqXqXqXqXqXqXqXqXqXqXqXqXqXqXqXqXqXqXqXqXqXqXqXqXqXqXqX",
"qXqXqXqXqXqXqXqXqXqXqXqXqXqXqXqXqXqXqXqXqXqXqX/ y i i i i i i i r qX` z.z.z.x.c.b.m.m.m.m.m.*.qXqXqXqXqXqXqXqXqXqXqXqXqXqXqXqXqXqXqXqXqXqXqXqXqXqXqXqXqXqXqXqXqX",
"qXqXqXqXqXqXqXqXqXqXqXqXqXqXqXqXqXqXqXqXqXqXqX/ 3.i i i i i i i - qXqXL [ [ z.z.x.x.b.m.m.m.m.=.qXqXqXqXqXqXqXqXqXqXqXqXqXqXqXqXqXqXqXqXqXqXqXqXqXqXqXqXqXqXqXqX",
"qXqXqXqXqXqXqXqXqXqXqXqXqXqXqXqXqXqXqXqXqXqXqXqXA i i i i i i i 3 qXqXqXqXqX) &.z.z.z.x.c.m.m.m.&.qXqXqXqXqXqXqXqXqXqXqXqXqXqXqXqXqXqXqXqXqXqXqXqXqXqXqXqXqXqXqX",
"qXqXqXqXqXqXqXqXqXqXqXqXqXqXqXqXqXqXqXqXqXqXqXP L r i i i i i 9 qXqXqXqXqXqXqXP [ x.z.z.z.b.m.m.&.qXqXqXqXqXqXqXqXqXqXqXqXqXqXqXqXqXqXqXqXqXqXqXqXqXqXqXqXqXqXqX",
"qXqXqXqXqXqXqXqXqXqXqXqXqXqXqXqXqXqXqXqXqXqXqXL P 1.i i i i i 3 qXqXqXqXqXqXqXqXqXH z.z.z.b.m.m.O.qXqXqXqXqXqXqXqXqXqXqXqXqXqXqXqXqXqXqXqXqXqXqXqXqXqXqXqXqXqXqX",
"qXqXqXqXqXqXqXqXqXqXqXqXqXqXqXqXqXqXqXqXqXqXqXL ( C i i i i 8 qXqXqXqXqXqXqXqXqXqXj ` +.&.b.m.-.Y qXqXqXqXqXqXqXqXqXqXqXqXqXqXqXqXqXqXqXqXqXqXqXqXqXqXqXqXqXqXqX",
"qXqXqXqXqXqXqXqXqXqXqXqXqXqXqXqXqXqXqXqXqXqXD ( Y S i i i i 2 qXqXqXqXqXqXqXqXqXqX&.) +.+.b.m.*.qXqXqXqXqXqXqXqXqXqXqXqXqXqXqXqXqXqXqXqXqXqXqXqXqXqXqXqXqXqXqXqX",
"qXqXqXqXqXqXqXqXqXqXqXqXqXqXqXqXqXqXqXJ F J J ( Y j i i i 3 qXqXqXqXqXqXqXqXqXqXO.m.=.` +.=.` qXqXqXqXqXqXqXqXqXqXqXqXqXqXqXqXqXqXqXqXqXqXqXqXqXqXqXqXqXqXqXqXqX",
"qXqXqXqXqXqXqXqXqXqXqXqXqXqXqXqXqXL p.<.I Y L ( B : i i 8 qXqXqXqXqXqXqXqXqXqX! X.=.m.=.&.x.( qXqXqXqXqXqXqXqXqXqXqXqXqXqXqXqXqXqXqXqXqXqXqXqXqXqXqXqXqXqXqXqXqX",
"qXqXqXqXqXqXqXqXqXqXqXqXqXqXqXqXP Y a.i.c ( P B : i i 9 % qXqXqXqXqXqXqXqXqXqXQ.V.k.o.=.&.[ qXqXqXqXqXqXqXqXqXqXqXqXqXqXqXqXqXqXqXqXqXqXqXqXqXqXqXqXqXqXqXqXqXqX",
"qXqXqXqXqXqXqXqXqXqXqXqXqXqXqXL ( ( 8.Y.x I S 0 2 < < - qXqXqXqXqXqXqXqXqXqX~ E.).!.k.k.! J qXqXqXqXqXqXqXqXqXqXqXqXqXqXqXqXqXqXqXqXqXqXqXqXqXqXqXqXqXqXqXqXqXqX",
"qXqXqXqXqXqXqXqXqXqXqXqXqXqXqXP ( ( ( U.U.x 3.i 2   qXqXqXqXqXqXqXqXqXqXqXqX*.-.g.^.R.W.q.W qXqXqXqXqXqXqXqXqXqXqXqXqXqXqXqXqXqXqXqXqXqXqXqXqXqXqXqXqXqXqXqXqXqX",
"qXqXqXqXqXqXqXqXqXqXqXqXqXqXP ( ( ( ( / Y.U.u.2 $ qXqXqXqXqXqXqXqXqXqXqXqXqX*.m.:.c.r.Q.Q.7.qXqXqXqXqXqXqXqXqXqXqXqXqXqXqXqXqXqXqXqXqXqXqXqXqXqXqXqXqXqXqXqXqXqX",
"qXqXqXqXqXqXqXqXqXqXqXqXqXqX( ( ( Y L S p u 1 qXqXqXqXqXqXqXqXqXqXqXqXqXqXF *.m.m.m.M.=.( qXqXqXqXqXqXqXqXqXqXqXqXqXqXqXqXqXqXqXqXqXqXqXqXqXqXqXqXqXqXqXqXqXqXqX",
"qXqXqXqXqXqXqXqXqXqXqXqXqXP ( ( E C 1.i -   qXqXqXqXqXqXqXqXqXqXqXqXqXqXqXF *.m.m.m.m.z.( qXqXqXqXqXqXqXqXqXqXqXqXqXqXqXqXqXqXqXqXqXqXqXqXqXqXqXqXqXqXqXqXqXqXqX",
"qXqXqXqXqXqXqXqXqXqXqXqXP ( ( P 1.i 9 * qXqXqXqXqXqXqXqXqXqXqXqXqXqXqXqXqXF &.m.m.b.x.` qXqXqXqXqXqXqXqXqXqXqXqXqXqXqXqXqXqXqXqXqXqXqXqXqXqXqXqXqXqXqXqXqXqXqXqX",
"qXqXqXqXqXqXqXqXqXqXO L ( ( Y 2.i 6 @ qXqXqXqXqXqXqXqXqXqXqXqXqXqXqXqXqXqXL +.x.x.x.) qXqXqXqXqXqXqXqXqXqXqXqXqXqXqXqXqXqXqXqXqXqXqXqXqXqXqXqXqXqXqXqXqXqXqXqXqX",
"qXqXqXqXqXqXqXqXqXo v G ( Y S 0 < $ qXqXqXqXqXqXqXqXqXqXqXqXqXqXqXqXqXqXqXO.z.z.z.[ P qXqXqXqXqXqXqXqXqXqXqXqXqXqXqXqXqXqXqXqXqXqXqXqXqXqXqXqXqXqXqXqXqXqXqXqXqX",
"qXqXqXqXqXqXqXqXg m m m K C 5 % qXqXqXqXqXqXqXqXqXqXqXqXqXqXqXqXqXqXqXqXqXc.c.x.b.*.qXqXqXqXqXqXqXqXqXqXqXqXqXqXqXqXqXqXqXqXqXqXqXqXqXqXqXqXqXqXqXqXqXqXqXqXqXqX",
"qXqXqXqXqXqXF L L G  .m b =   qXqXqXqXqXqXqXqXqXqXqXqXqXqXqXqXqXqXqXqXqXb.m.m.m.m.&.qXqXqXqXqXqXqXqXqXqXqXqXqXqXqXqXqXqXqXqXqXqXqXqXqXqXqXqXqXqXqXqXqXqXqXqXqXqX",
"qXqXqXqXqXL Y ( H H b m O qXqXqXqXqXqXqXqXqXqXqXqXqXqXqXqXqXqXqXqXqXqXqXb.m.m.m.c.qXqXqXqXqXqXqXqXqXqXqXqXqXqXqXqXqXqXqXqXqXqXqXqXqXqXqXqXqXqXqXqXqXqXqXqXqXqXqX",
"qXqXqXqXL Y ( H D F ; a qXqXqXqXqXqXqXqXqXqXqXqXqXqXqXqXqXqXqXqXqXqXqXqX;.m.m.m.&.qXqXqXqXqXqXqXqXqXqXqXqXqXqXqXqXqXqXqXqXqXqXqXqXqXqXqXqXqXqXqXqXqXqXqXqXqXqXqX",
"qXqXqXH ( ( g > 3.q # @ qXqXqXqXqXqXqXqXqXqXqXqXqXqXqXqXqXqXqXqXqXqXqX@.D.S.@.&.qXqXqXqXqXqXqXqXqXqXqXqXqXqXqXqXqXqXqXqXqXqXqXqXqXqXqXqXqXqXqXqXqXqXqXqXqXqXqXqX",
"qXqXF ( ( Y C 2 < - * 8 $ qXqXqXqXqXqXqXqXqXqXqXqXqXqXqXqXqXqXqXqXqXC ..A.Z.A.D qXqXqXqXqXqXqXqXqXqXqXqXqXqXqXqXqXqXqXqXqXqXqXqXqXqXqXqXqXqXqXqXqXqXqXqXqXqXqXqX",
"qXqXqXk L J A 0 3 2 7 t 6 qXqXqXqXqXqXqXqXqXqXqXqXqXqXqXqXqXqXqXqX*.b.R A.Z.M a qXqXqXqXqXqXqXqXqXqXqXqXqXqXqXqXqXqXqXqXqXqXqXqXqXqXqXqXqXqXqXqXqXqXqXqXqXqXqXqX",
"qXqXqXqXqXO - 9 i A J C 1.; qXqXqXqXqXqXqXqXqXqXqXqXqXqXqXqXqXqX*.b.$.=.=.R Y qXqXqXqXqXqXqXqXqXqXqXqXqXqXqXqXqXqXqXqXqXqXqXqXqXqXqXqXqXqXqXqXqXqXqXqXqXqXqXqXqX",
"qXqXqXqXqXqXqX% 5 L ( Y P L D H g qXqXqXqXqXqXqXqXqXqXqXqXqXqX*.m.*.&.m.O.m.*.qXqXqXqXqXqXqXqXqXqXqXqXqXqXqXqXqXqXqXqXqXqXqXqXqXqXqXqXqXqXqXqXqXqXqXqXqXqXqXqXqX",
"qXqXqXqXqXqXqXqXqXJ ( ( ( L L ( P N qXqXqXqXqXqXqXqXqXqXqXqX` m.m.O.=.=.&.m.*.qXqXqXqXqXqXqXqXqXqXqXqXqXqXqXqXqXqXqXqXqXqXqXqXqXqXqXqXqXqXqXqXqXqXqXqXqXqXqXqXqX",
"qXqXqXqXqXqXqXqXqXg k k k f g k k g qXqXqXqXqXqXqXqXqXqXqXqXY m.m.=.` ` =.m.-.` qXqXqXqXqXqXqXqXqXqXqXqXqXqXqXqXqXqXqXqXqXqXqXqXqXqXqXqXqXqXqXqXqXqXqXqXqXqXqXqX",
"qXqXqXqXqXqXqXqXqXqXqXqXqXqXqXqXqXqXqXqXqXqXqXqXqXqXqXqXqXqXqX` %.b.-.-.m.m.m.` qXqXqXqXqXqXqXqXqXqXqXqXqXqXqXqXqXqXqXqXqXqXqXqXqXqXqXqXqXqXqXqXqXqXqXqXqXqXqXqX",
"qXqXqXqXqXqXqXqXqXqXqXqXqXqXqXqXqXqXqXqXqXqXqXqXqXqXqXqXqXqXqXqXqX` -.m.m.m.m.O.qXqXqXqXqXqXqXqXqXqXqXqXqXqXqXqXqXqXqXqXqXqXqXqXqXqXqXqXqXqXqXqXqXqXqXqXqXqXqXqX",
"qXqXqXqXqXqXqXqXqXqXqXqXqXqXqXqXqXqXqXqXqXqXqXqXqXqXqXqXqXqXqXqXqXqX&.m.m.m.m.=.qXqXqXqXqXqXqXqXqXqXqXqXqXqXqXqXqXqXqXqXqXqXqXqXqXqXqXqXqXqXqXqXqXqXqXqXqXqXqXqX",
"qXqXqXqXqXqXqXqXqXqXqXqXqXqXqXqXqXqXqXqXqXqXqXqXqXqXqXqXqXqXqXqXqXqXqX*.m.m.m.=.qXqXqXqXqXqXqXqXqXqXqXqXqXqXqXqXqXqXqXqXqXqXqXqXqXqXqXqXqXqXqXqXqXqXqXqXqXqXqXqX",
"qXqXqXqXqXqXqXqXqXqXqXqXqXqXqXqXqXqXqXqXqXqXqXqXqXqXqXqXqXqXqXqXqXqXqXT -.m.m.=.qXqXqXqXqXqXqXqXqXqXqXqXqXqXqXqXqXqXqXqXqXqXqXqXqXqXqXqXqXqXqXqXqXqXqXqXqXqXqXqX",
"qXqXqXqXqXqXqXqXqXqXqXqXqXqXqXqXqXqXqXqXqXqXqXqXqXqXqXqXqXqXqXqXqXqXqXqX` m.m.m.O.&.qXqXqXqXqXqXqXqXqXqXqXqXqXqXqXqXqXqXqXqXqXqXqXqXqXqXqXqXqXqXqXqXqXqXqXqXqXqX",
"qXqXqXqXqXqXqXqXqXqXqXqXqXqXqXqXqXqXqXqXqXqXqXqXqXqXqXqXqXqXqXqXqXqXqXqXqX) %.-.b.m.c.qXqXqXqXqXqXqXqXqXqXqXqXqXqXqXqXqXqXqXqXqXqXqXqXqXqXqXqXqXqXqXqXqXqXqXqXqX",
"qXqXqXqXqXqXqXqXqXqXqXqXqXqXqXqXqXqXqXqXqXqXqXqXqXqXqXqXqXqXqXqXqXqXqXqXqXqXqXY _ =.m.qXqXqXqXqXqXqXqXqXqXqXqXqXqXqXqXqXqXqXqXqXqXqXqXqXqXqXqXqXqXqXqXqXqXqXqXqX",
"qXqXqXqXqXqXqXqXqXqXqXqXqXqXqXqXqXqXqXqXqXqXqXqXqXqXqXqXqXqXqXqXqXqXqXqXqXqXqXqXqXK =.x.qXqXqXqXqXqXqXqXqXqXqXqXqXqXqXqXqXqXqXqXqXqXqXqXqXqXqXqXqXqXqXqXqXqXqXqX",
"qXqXqXqXqXqXqXqXqXqXqXqXqXqXqXqXqXqXqXqXqXqXqXqXqXqXqXqXqXqXqXqXqXqXqXqXqXqXqXqXqXqX) qXqXqXqXqXqXqXqXqXqXqXqXqXqXqXqXqXqXqXqXqXqXqXqXqXqXqXqXqXqXqXqXqXqXqXqXqX",
"qXqXqXqXqXqXqXqXqXqXqXqXqXqXqXqXqXqXqXqXqXqXqXqXqXqXqXqXqXqXqXqXqXqXqXqXqXqXqXqXqXqXqXqXqXqXqXqXqXqXqXqXqXqXqXqXqXqXqXqXqXqXqXqXqXqXqXqXqXqXqXqXqXqXqXqXqXqXqXqX"
};
