/* XPM */
static char *result[] = {
/* columns rows colors chars-per-pixel */
"80 80 211 2 ",
"   c #4E0C15",
".  c #621917",
"X  c #6C1E1C",
"o  c #75241D",
"O  c #4F1125",
"+  c #521325",
"@  c #561A2D",
"#  c #571D35",
"$  c #5C233C",
"%  c #6C2222",
"&  c #772722",
"*  c #7D2D25",
"=  c #692C3C",
"-  c #74333D",
";  c #5E2641",
":  c #5A2745",
">  c #622B46",
",  c #642E4A",
"<  c #66314E",
"1  c #6E3348",
"2  c #75394C",
"3  c #663350",
"4  c #693552",
"5  c #6E3B5B",
"6  c #773B55",
"7  c #703E5F",
"8  c #4E3F79",
"9  c #7F414B",
"0  c #74405C",
"q  c #79425A",
"w  c #734364",
"e  c #842E1D",
"r  c #8F3C1C",
"t  c #831E29",
"y  c #812E24",
"u  c #8C3625",
"i  c #8B3728",
"p  c #943C25",
"a  c #983E25",
"s  c #863B39",
"d  c #943F31",
"f  c #A35210",
"g  c #AA5B13",
"h  c #B25C12",
"j  c #B86909",
"k  c #B7740F",
"l  c #BE641B",
"z  c #9B422B",
"x  c #9E4D29",
"c  c #915123",
"v  c #88413C",
"b  c #984539",
"n  c #A74626",
"m  c #AA4623",
"M  c #A3462B",
"N  c #A34A2D",
"B  c #AB4C2D",
"V  c #B14E2C",
"C  c #B75627",
"Z  c #B4512E",
"A  c #A64A37",
"S  c #AC4E33",
"D  c #B54B32",
"F  c #AD5233",
"G  c #AE553A",
"H  c #B45332",
"J  c #BA5634",
"K  c #B75835",
"L  c #BD5B35",
"P  c #B55639",
"I  c #BD5C3A",
"U  c #BF602D",
"Y  c #BD6038",
"T  c #D05F15",
"R  c #C86E16",
"E  c #C77413",
"W  c #C15E36",
"Q  c #C0523F",
"!  c #C25F3B",
"~  c #C47223",
"^  c #D47C27",
"/  c #C46136",
"(  c #C5633B",
")  c #C9663B",
"_  c #C66939",
"`  c #CC6A3D",
"'  c #D16D3E",
"]  c #CF703F",
"[  c #943D54",
"{  c #AB3948",
"}  c #8D4445",
"|  c #884349",
" . c #984746",
".. c #9D5143",
"X. c #864952",
"o. c #93565A",
"O. c #905A58",
"+. c #AA5945",
"@. c #B8584B",
"#. c #A65557",
"$. c #B25350",
"%. c #866C5E",
"&. c #B76148",
"*. c #A5655D",
"=. c #B76958",
"-. c #B07D5B",
";. c #835A68",
":. c #834874",
">. c #99676B",
",. c #8E7172",
"<. c #9C767B",
"1. c #A1696A",
"2. c #B9656B",
"3. c #B16576",
"4. c #A77171",
"5. c #AB7B73",
"6. c #CE5C4B",
"7. c #C66342",
"8. c #C96642",
"9. c #CD6A42",
"0. c #CD6749",
"q. c #D26046",
"w. c #D16E41",
"e. c #CE734B",
"r. c #D67342",
"t. c #D87443",
"y. c #D67648",
"u. c #D57A4C",
"i. c #D9794C",
"p. c #C06E5D",
"a. c #D17056",
"s. c #D47B52",
"d. c #D87C52",
"f. c #C56368",
"g. c #C67D60",
"h. c #CE8B11",
"j. c #D88518",
"k. c #E3A507",
"l. c #E7A329",
"z. c #E5AA31",
"x. c #E7D712",
"c. c #DED92D",
"v. c #9D8B50",
"b. c #BC8060",
"n. c #AA9673",
"m. c #CC885F",
"M. c #D58558",
"N. c #DB835C",
"B. c #D78563",
"V. c #CE936F",
"C. c #D49166",
"Z. c #E5916F",
"A. c #50478E",
"S. c #4B559C",
"D. c #73538A",
"F. c #675390",
"G. c #766A96",
"H. c #A95B8D",
"J. c #8D7289",
"K. c #A46F8E",
"L. c #A9778B",
"P. c #B57884",
"I. c #847EB0",
"U. c #7C8AB5",
"Y. c #7191D9",
"T. c #9A9A87",
"R. c #B0908C",
"E. c #B5AA98",
"W. c #8383A9",
"Q. c #9687A8",
"!. c #9898AD",
"~. c #8C8CB2",
"^. c #9594B6",
"/. c #A39ABE",
"(. c #A5A6A9",
"). c #B0B0A5",
"_. c #B3A2BA",
"`. c #C2888D",
"'. c #CA8893",
"]. c #D6B690",
"[. c #A6CEA1",
"{. c #D6C19C",
"}. c #C6C5A4",
"|. c #D3C3A1",
" X c #D5CAA7",
".X c #D6D1AF",
"XX c #CDCFB8",
"oX c #D6D8B7",
"OX c #D6D9B8",
"+X c #9E9EC9",
"@X c #A6A4C7",
"#X c #A5A2CC",
"$X c #B5ACC8",
"%X c #B7B0D0",
"&X c #BBBBD4",
"*X c #BABBDC",
"=X c #B7B7E0",
"-X c #C4C5CB",
";X c #CFCECC",
":X c #D9D9C6",
">X c #C1C1D9",
",X c #D0D0D2",
"<X c #E4E4C9",
"1X c #E9E9D6",
"2X c #F0F0DF",
"3X c #C2C2E5",
"4X c #C9CAEB",
"5X c #F3F3EE",
"6X c #F6F6F4",
"7X c #F8F8F9",
"8X c None",
/* pixels */
"8X8X8X8X8X8X8X8X8X8X8X8X8X8X8X8X8X8X8X8X8X8X8X8X8X8X8X8X8X8X8X8X8X8X8X8X8X8X8X8X8X8X8X8X8X8X8X8X8X8X8X8X8X8X8X8X8X8X8X8X8X8X8X8X8X8X8X8X8X8X8X8X8X8X8X8X8X8X8X8X",
"8X8X8X8X8X8X8X8X8X8X8X8X8X8X8X8X8X8X8X8X8X8X8X8X8X8X8X8X8X8X8X8X8X8X8X8X8X8X8X8X8X8X8X8X8X8X8X8X8X8X8X8X8X8X8X8X8X8X8X8X8X8X8X8X8X8X8X8X8X8X8X8X8X8X8X8X8X8X8X8X",
"8X8X8X8X8X8X8X8X8X8X8X8X8X8X8X8X8X8X8X8X8X8X8X8X8X8X8X8X8X8X8X8X8X8X8X8X8X8X8X8X8X8X8X8X8X8X8X8X8X8X8X8X8X8X8X8X8X8X8X8X8X8X8X8X8X8X8X8X8X8X8X8X8X8X8X8X8X8X8X8X",
"8X8X8X8X8X8X8X8X8X8X8X8X8X8X8X8X8X8X8X8X8X8X8X8X8X8X8X8X8X8X8X8X8X8X8X8X8X8X8X8X8X8X8X8X8X8X8X8X8X8X8X8X8X8X8X8X8X8X8X8X8X8X8X8X8X8X8X8X8X8X8X8X8X8X8X8X8X8X8X8X",
"8X8X8X8X8X8X8X8X8X8X8X8X8X8X8X8X8X8X8X8X8X8X8X8X8X8X8X8X8X8X8X8X8X8X8X8X8X8X8X8X8X8X8X8X8X8X8X8X8X8X8X8X8X8X8X8X8X8X8X8X8X8X8X8X8X8X8X8X8X8X8X8X8X8X8X8X8X8X8X8X",
"8X8X8X8X8X8X8X8X8X8X8X8X8X8X8X8X8X8X8X8X8X8X8X8X8X8X8X8X8X8X8X8X8X8X8X8X8X8X8X8X8X8X8X8X8X8X8X8X8X8X8X8X8X8X8X8X8X8X8X8X8X8X8X8X8X8X8X8X8X8X8X8X8X8X8X8X8X8X8X8X",
"8X8X8X8X8X8X8X8X8X8X8X8X8X8X8X8X8X8X8X8X8X8X8X8X8X8X8X8X8X8X8X8X8X8X8X8X8X8X8X8X8X8X8X8X8X8X8X8X8X8X8X8X8X8X8X8X8X8X8X8X8X8X8X8X8X8X8X8X8X8X8X8X8X8X8X8X8X8X8X8X",
"8X8X8X8X8X8X8X8X8X8X8X8X8X8X8X8X8X8X8X8X8X8X8X8X8X8X8X8X8X8X8X8X8X8X8X8X8X8X8X8X8X8X8X8X8X8X8X8X8X8X8X8X8X8X8X8X8X8X8X8X8X8X8X8X8X8X8X8X8X8X8X8X8X8X8X8X8X8X8X8X",
"8X8X8X8X8X8X8X8X8X8X8X8X8X8X8X8X8X8X8X8X8X8X8X8X8X8X8X8X8X8X8X8X8X8X8X8X8X8X8X8X8X8X8X8X8X8X8X8X8X8X8X8X8X8X8X8X8X8X8X8X8X8X8X8X8X8X8X8X8X8X8X8X8X8X8X8X8X8X8X8X",
"8X8X8X8X8X8X8X8X8X8X8X8X8X8X8X8X8X8X8X8X8X8X8X8X8X8X8X8X8X8X8X8X8X8X8X8X8X8X8X8X8X8X8X8X8X8X8X8X8X8X8X8X8X8X8X8X8X8X8X8X8X8X8X8X8X8X8X8X8X8X8X8X8X8X8X8X8X8X8X8X",
"8X8X8X8X8X8X8X8X8X8X8X8X8X8X8X8X8X8X8X8X8X8X8X8X8X8X8X8X8X8X8X8X8X8X8X8X8X8X8X8X8X8X8X8X8X8X8X8X8X8X8X8X8X8X8X8X8X8X8X8X8X8X8X8X8X8X8X8X8X8X8X8X8X8X8X8X8X8X8X8X",
"8X8X8X8X8X8X8X8X8X8X8X8X8X8X8X8X8X8X8X8X8X8X8X8X8X8X8X8X8X8X8X8X8X8X8X8X8X8X8X8X8X8X8X8X8X8X8X8X8X8X8X8X8X8X8X8X8X8X8X8X8X8X8X8X8X8X8X8X8X8X8X8X8X8X8X8X8X8X8X8X",
"8X8X8X8X8X8X8X8X8X8X8X8X8X8X8X8X8X8X8X8X8X8X8X8X8X8X8X8X8X8X8X8X8X8X8X8X8X8X8X8X8X8X8X8X8X8X8X8X8X8X8X8X8X8X8X8X8X8X8X8X8X8X8X8X8X8X8X8X8X8X8X8X8X8X8X8X8X8X8X8X",
"8X8X8X8X8X8X8X8X8X8X8X8X8X8X8X8X8X8X8X8X8X8X8X8X8X8X8X8X8X8X8X8X8X8X8X8X8X8X8X8X8X8X8X8X8X8X8X8X8X8X8X8X8X8X8X8X8X8X8X8X8X8X8X8X8X8X8X8X8X8X8X8X8X8X8X8X8X8X8X8X",
"8X8X8X8X8X8X8X8X8X8X8X8X8X8X8X8X8X8X8X8X8X8X8X8X8X8X8X8X8X8X8X8X8X8X8X8X8X8X8X8X8X8X8X8X8X8X8X8X8X8X8X8X8X8X8X8X8X8X8X8X8X8X8X8X8X8X8X8X8X8X8X8X8X8X8X8X8X8X8X8X",
"8X8X8X8X8X8X8X8X8X8X8X8X8X8X8X8X8X8X8X8X8X8X8X8X8X8X8X8X8X8X8X8X8X8X8X8X8X8X8X8X8X8X8X8X8X8X8X8X8X8X8X8X8X8X8X8X8X8X8X8X8X8X8X8X8X8X8X8X8X8X8X8X8X8X8X8X8X8X8X8X",
"8X8X8X8X8X8X8X8X8X8X8X8X8X8X8X8X8X8X8X8X8X8X8X8X8X8X8X8X8X8X8X8X8X8X8X8X8X8X8X8X8X8X8X8X8X8X8X8X8X8X8X8X8X8X8X8X8X8X8X8X8X8X^.;X5X5X6X7X:X8X8X8X8X8X8X8X8X8X8X8X",
"8X8X8X8X8X8X8X8X8X8X8X8X8X8X8X8X8X8X8X8X8X8X8X8X8X8X8X8X8X8X8X8X8X8X8X8X8X8X8X8X8X8X8X8X8X8X8X8X8X8X8X8X8X8X8X8X8X8X8X8X8X~.+X,X2X6X7X6X1X}.8X8X8X8X8X8X8X8X8X8X",
"8X8X8X8X8X8X8X8X8X8X8X8X8X8X8X8X8X8X8X8X8X8X8X8X8X8X8X8X8X8X8X8X8X8X8X8X8X8X8X8X8X8X8X8X8X8X8X8X8X8X8X8X8X8X8X8X8X8X8X8X8X#X=X*X-X<X1X1X<XOX).8X8X8X8X8X8X8X8X8X",
"8X8X8X8X8X8X8X8X8X8X8X8X8X8X8X8X8X8X8X8X8X8X8X8X8X8X8X8X8X8X8X8X8X8X8X8X8X8X8X8X8X8X8X8X8X8X8X8X8X8X8X8X8X8X8X8X8X8X8X8X8X=X4X*X3X-XXX:X:X:X&X!.8X8X8X8X8X8X8X8X",
"8X8X8X8X8X8X8X8X8X8X8X8X8X8X8X8X8X8X8X8X8X8X8X8X8X8X8X8X8X8X8X8X8X8X8X8X8X8X8X8X8X8X8X8X8X8X8X8X8X8X8Xm / 9.9.9.] x.8X8Xc.&X$XQ.4XE.5.%X3X&X>XE.8X8X8X8X8X8X8X8X",
"8X8X8X8X8X8X8X8X8X8X8X8X8X8X8X8X8X8X8X8X8X8X8X8X8X8X8X8X8X8X8X8X8X8X8X8X8X8X8X8X8X8X8X8X8X8X8X8X8X8Xn.) w.9.8./ _ x.[.`.z.T.X.*.@X`.M ;.@X(.&X!.8X8X8X8X8X8X8X8X",
"8X8X8X8X8X8X8X8X8X8X8X8X8X8X8X8X8X8X8X8X8X8X8X8X8X8X8X8X8X8X8X8X8X8X8X8X8X8X8X8X8X8X8X8X8X8X8X8X%.}.|.e.r.r.r.' L k v.Y.$.E e y >.4.v : >.,.^.8X8X8X8X8X8X8X8X8X",
"8X8X8X8X8X8X8X8X8X8X8X8X8X8X8X8X8X8X8X8X8X8X8X8X8X8X8X8X8X8X8X8X8X8X8X8X8X8X8X8X8X8X8X8X8X8X8X8Xb.oX|.y.r.t.` ) ` 9...S.:.T C * &.*.=.=.B % 8X8X8X8X8X8X8X8X8X8X",
"8X8X8X8X8X8X8X8X8X8X8X8X8X8X8X8X8X8X8X8X8X8X8X8X8X8X8X8X8X8X8X8X8X8X8X8X8X8X8X8X8X8X8X8X8X8X/ ' m.oX XM.r.w.) r.N.Z.B.} A.p r & I 7.8.) i 8X8X8X8X8X8X8X8X8X8X8X",
"8X8X8X8X8X8X8X8X8X8X8X8X8X8X8X8X8X8X8X8X8X8X8X8X8X8X8X8X8X8X8X8X8X8X8X8X8X8X8X8X8X8X8X8X8X/ r.w.e.{.OX{.d.) ` t.d.B.N.` - 8X8X8Xp P p * 8X8X8X8X8X8X8X8X8X8X8X8X",
"8X8X8X8X8X8X8X8X8X8X8X8X8X8X8X8X8X8X8X8X8X8X8X8X8X8X8X8X8X8X8X8X8X8X8X8X8X8X8X8X8X8X8X8XL r.r.r.r.M. XOX].G B I r.t.t.t.i 8X8X8X8X. 8X8X8X8X8X8X8X8X8X8X8X8X8X8X",
"8X8X8X8X8X8X8X8X8X8X8X8X8X8X8X8X8X8X8X8X8X8X8X8X8X8X8X8X8X8X8X8X8X8X8X8X8X8X8X8X8X8X8Xm ) t.r.9.r.r.C..XoXR. .G r.9.( ' z 8X8X8X8X8X8X8X8X8X8X8X8X8X8X8X8X8X8X8X",
"8X8X8X8X8X8X8X8X8X8X8X8X8X8X8X8X8X8X8X8X8X8X8X8X8X8X8X8X8X8X8X8X8X8X8X8X8X8X8X8X8X8X-.m.M.r.w.) t.r.r.V.;X3XL.I t.r.) z 8X8X8X8X8X8X8X8X8X8X8X8X8X8X8X8X8X8X8X8X",
"8X8X8X8X8X8X8X8X8X8X8X8X8X8X8X8X8X8X8X8X8X8X8X8X8X8X8X8X8X8X8X8X8X8X8X8X8X8X8X8X8XE.}..X Xg.` I ` r.r.y.5.@X_.H ^ l.l.x * 8X8X8X8X8X8X8X8X8X8X8X8X8X8X8X8X8X8X8X",
"8X8X8X8X8X8X8X8X8X8X8X8X8X8X8X8X8X8X8X8X8X8X8X8X8X8X8X8X8X8X8X8X8X8X8X8X8X8X8X8XK u.M.s.C.|.R.#.A ! 8.) M #X$X&.g.P.'.3.A % 8X8X8X8X8X8X8X8X8X8X8X8X8X8X8X8X8X8X",
"8X8X8X8X8X8X8X8X8X8X8X8X8X8X8X8X8X8X8X8X8X8X8X8X8X8X8X8X8X8X8X8X8X8X8X8X8X8X8XV ) w.9.r.w.V.$XK.#.8X8X8X8X+X*XP.@.W w.) H A 8X8X8X8X8X8X8X8X8X8X8X8X8X8X8X8X8X8X",
"8X8X8X8X8X8X8X8X8X8X8X8X8X8X8X8X8X8X8X8X8X8X8X8X8X8X8X8X8X8X8X8X8X8X8X8X8X8X8XI w.r.r.r.w.p.#X/.#.8X8X8X8X8XW.O.` t.r.r.L H u 8X8X8X8X8X8X8X8X8X8X8X8X8X8X8X8X8X",
"8X8X8X8X8X8X8X8X8X8X8X8X8X8X8X8X8X8X8X8X8X8X8X8X8X8X8X8X8X8X8X8X8X8X8X8X8X8X` w.r.r.r.r.8.p.@X(.8X8X8X8X8X8X8X8X/ t.r.t.F 8X8X8X8X8X8X8X8X8X8X8X8X8X8X8X8X8X8X8X",
"8X8X8X8X8X8X8X8X8X8X8X8X8X8X8X8X8X8X8X8X8X8X8X8X8X8X8X8X8X8X8X8X8X8X8X8X8X) r.r.r.r.r.r.) =.@XT.8X8X8X8X8X8X8X8XF t.w.) B 8X8X8X8X8X8X8X8X8X8X8X8X8X8X8X8X8X8X8X",
"8X8X8X8X8X8X8X8X8X8X8X8X8X8X8X8X8X8X8X8X8X8X8X8X8X8X8X8X8X8X8X8X8X8X8X8X/ r.r.r.r.r.r.t.) +.Q.8X8X8X8X8X8X8X8X8XK r.` F F H 8X8X8X8X8X8X8X8X8X8X8X8X8X8X8X8X8X8X",
"8X8X8X8X8X8X8X8X8X8X8X8X8X8X8X8X8X8X8X8X8X8X8X8X8X8X8X8X8X8X8X8X8X8X8X8X8.r.r.r.r.r.r.t.w.B v 8X8X8X8X8X8X8X8X8X8Xr.r.t.t.` / Z 8X8X8X8X8X8X8X8X8Xa p 8X8X8X8X8X",
"8X8X8X8X8X8X8X8X8X8X8X8X8X8X8X8X8X8X8X8X8X8X8X8X8X8X8X8X8X8X8X8X8X8X8X8X8.r.r.r.r.r.r.y.N.y.` 9.8X8X8X8X8X8X8X8X8X9.r.r.r.t.r.r.) K $.8X8X8X8Xe H ` J a 8X8X8X8X",
"8X8X8X8X8X8X8X8X8X8X8X8X8X8X8X8X8X8X8X8X8X8X8X8X8X8X8X8X8X8X8X8X8X8X8X8XJ r.r.r.r.r.r.r.d.N.y.r.r.9.8X8X8X8X8X8X8X( t.t.t.r.r.r.r.r.&.2.E J o.+.` w.( ( ( K 8X8X",
"8X8X8X8X8X8X8X8X8X8X8X8X8X8X8X8X8X8X8X8X8X8X8X8X8X8X8X8X8X8X8X8X8X8X8X8X8X) r.r.r.r.r.r.r.d.N.i.r.r.w.8X8X8X8X8X8XN L L I r.t.r.t.r.@.H.h.0.J.=.r.r.t.t.t.r.W 8X",
"8X8X8X8X8X8X8X8X8X8X8X8X8X8X8X8X8X8X8X8X8X8X8X8X8X8X8X8X8X8X8X8X8X8X8X8X8XV ( r.r.r.r.r.r.r.i.N.y.r.r.r.8X8X8X8X8X8X8X8X8XF N N B I H.=.R @.G.+.t.t.t.t.r.' ( 8X",
"8X8X8X8X8X8X8X8X8X8X8X8X8X8X8X8X8X8X8X8X8X8X8X8X8X8X8X8X8X8X8X8X8X8X8X8X8X8Xo H 9.w.r.r.r.r.r.t.d.t.r.r.r.9.8X8X8X8X8X8X8X8X8X8X8X8X8Xp p S +.I ) / / ( L n p 8X",
"8X8X8X8X8X8X8X8X8X8X8X8X8X8X8X8X8X8X8X8X8X8X8X8X8X8X8X8X8X8X8X8X8X8X8X8X8X8X8Xs I 8.9.w.r.r.r.r.r.r.r.r.r.r.8.8X8X8X8X8X8X8X8X8X8X8X8X8X8X8X8X8X8X8X8X8X8X8X8X8X",
"8X8X8X8X8X8X8X8X8X8X8X8X8X8X8X8X8X8X8X8X8X8X8X8X8X8X8X8X8X8X8X8X8X8X8X8X8X8X8X=  .! 7.7.8.w.r.r.r.r.r.r.r.r.r.8X8X8X8X8X8X8X8X8X8X8X8X8X8X8X8X8X8X8X8X8X8X8X8X8X",
"8X8X8X8X8X8X8X8X8X8X8X8X8X8X8X8X8X8X8X8X8X8X8X8X8X8X8X8X8X8X8X8X8X8X8X8X8X8X8X8X1 A ! 7.7.7.9.r.r.r.r.r.r.r.r.w.8X8X8X8X8X8X8X8X8X8X8X8X8X8X8X8X8X8X8X8X8X8X8X8X",
"8X8X8X8X8X8X8X8X8X8X8X8X8X8X8X8X8X8X8X8X8X8X8X8X8X8X8X8X8X8X8X8X8X8X8X8X8X8X8X8X# 2 } I 7.7.7.8.w.r.r.r.r.r.r.r.) 8X8X8X8X8X8X8X8X8X8X8X8X8X8X8X8X8X8X8X8X8X8X8X",
"8X8X8X8X8X8X8X8X8X8X8X8X8X8X8X8X8X8X8X8X8X8X8X8X8X8X8X8X8X8X8X8X8X8X8X8X8X8X8X8X8X8X, | G ! 7.7.7.9.r.r.r.r.r.r.r.W 8X8X8X8X8X8X8X8X8X8X8X8X8X8X8X8X8X8X8X8X8X8X",
"8X8X8X8X8X8X8X8X8X8X8X8X8X8X8X8X8X8X8X8X8X8X8X8X8X8X8X8X8X8X8X8X8X8X8X8X8X8X8X8X8X8X+ 4 q b H ( 7.7.8.9.r.r.r.r.t.' Z 8X8X8X8X8X8X8X8X8X8X8X8X8X8X8X8X8X8X8X8X8X",
"8X8X8X8X8X8X8X8X8X8X8X8X8X8X8X8X8X8X8X8X8X8X8X8X8X8X8X8X8X8X8X8X8X8X8X8X8X8X8X8X8X8X  @ w w 6 b K 7.7.7.8.9.w.r.r.t.` V 8X8X8X8X8X8X8X8X8X8X8X8X8X8X8X8X8X8X8X8X",
"8X8X8X8X8X8X8X8X8X8X8X8X8X8X8X8X8X8X8X8X8X8X8X8X8X8X8X8X8X8X8X8X8X8X8X8X8X8X8Xi i - , $ w w w 0 | A ! 7.7.7.7.8.r.r.t.) 8X8X8X8X8X8X8X8X8X8X8X8X8X8X8X8X8X8X8X8X",
"8X8X8X8X8X8X8X8X8X8X8X8X8X8X8X8X8X8X8X8X8X8X8X8X8X8X8X8X8X8X8X8X8X8X8X8X8X8Xn o.[ [ w > 3 w w w w 2 u P 7.7.7.7.7.9.r.r.L 8X8X8X8X8X8X8X8X8X8X8X8X8X8X8X8X8X8X8X",
"8X8X8X8X8X8X8X8X8X8X8X8X8X8X8X8X8X8X8X8X8X8X8X8X8X8X8X8X8X8X8X8X8X8X8X8X8XB Z o.D.{ w > < w 5 < 5 $ 8X8XG 7.7.7.7.7.r.r.N 8X8X8X8X8X8X8X8X8X8X8X8X8X8X8X8X8X8X8X",
"8X8X8X8X8X8X8X8X8X8X8X8X8X8X8X8X8X8X8X8X8X8X8X8X8X8X8X8X8X8X8X8X8X8X8X8XB H H S D.{ [ 3 > w , $ O 8X8X8X8XG G I 7.7.r.) 8X8X8X8X8X8X8X8X8X8X8X8X8X8X8X8X8X8X8X8X",
"8X8X8X8X8X8X8X8X8X8X8X8X8X8X8X8X8X8X8X8X8X8X8X8X8X8X8X8X8X8X8X8X8X8X8Xy M H B } F.F.{ 6 ; @ $ 8X8X8X8X8X8XH Y ( 7.7.9.S 8X8X8X8X8X8X8X8X8X8X8X8X8X8X8X8X8X8X8X8X",
"8X8X8X8X8X8X8X8X8X8X8X8X8X8X8X8X8X8X8X8X8X8X8X8X8X8X8X8X8X8X8X8X8X8XM M M p = , , 8 :.t   8X8X8X8X8X8X8XL y.i.9.7.7.H 8X8X8X8X8X8X8X8X8X8X8X8X8X8X8X8X8X8X8X8X8X",
"8X8X8X8X8X8X8X8X8X8X8X8X8X8X8X8X8X8X8X8X8X8X8X8X8X8X8X8X8X8X8X8X8XV H Z z 1 ; ; $ + # 8X8X8X8X8X8X8X8XQ q.s.B.e.7.H a 8X8X8X8X8X8X8X8X8X8X8X8X8X8X8X8X8X8X8X8X8X",
"8X8X8X8X8X8X8X8X8X8X8X8X8X8X8X8X8X8X8X8X8X8X8X8X8X8X8X8X8X8X8X8XB H V b q w 5 , O 8X8X8X8X8X8X8X8X8X;.J.f.a.7.0./ H 8X8X8X8X8X8X8X8X8X8X8X8X8X8X8X8X8X8X8X8X8X8X",
"8X8X8X8X8X8X8X8X8X8X8X8X8X8X8X8X8X8X8X8X8X8X8X8X8X8X8X8X8X8Xf h B B } q 5 , 8X8X8X8X8X8X8X8X8X8X8X8X1.J.U.Q.2.6.q.D 8X8X8X8X8X8X8X8X8X8X8X8X8X8X8X8X8X8X8X8X8X8X",
"8X8X8X8X8X8X8X8X8X8X8X8X8X8X8X8X8X8X8X8X8X8X8X8X8X8X8X8XB n g j h v 7 < 8X8X8X8X8X8X8X8X8X8X8X8X8XV 8.' g.<.W.I.3.A 8X8X8X8X8X8X8X8X8X8X8X8X8X8X8X8X8X8X8X8X8X8X",
"8X8X8X8X8X8X8X8X8X8X8X8X8X8X8X8X8X8X8X8X8X8X8X8X8X8X8XV H H g j j c ; 8X8X8X8X8X8X8X8X8X8X8X8X8X8XV 7.w.r.r.9.4.J.8X8X8X8X8X8X8X8X8X8X8X8X8X8X8X8X8X8X8X8X8X8X8X",
"8X8X8X8X8X8X8X8X8X8X8X8X8X8X8X8X8X8X8X8X8X8X8X8X8XB Z H H N 9 c f . 8X8X8X8X8X8X8X8X8X8X8X8X8X8X8XB 7.9.r.r.w.L V 8X8X8X8X8X8X8X8X8X8X8X8X8X8X8X8X8X8X8X8X8X8X8X",
"8X8X8X8X8X8X8X8X8X8X8X8X8X8X8X8X8X8X8X8X8X8X8X8Xm Z H H Z s w 4 @ , 8X8X8X8X8X8X8X8X8X8X8X8X8X8X8Xm L 7.9.9.I H H 8X8X8X8X8X8X8X8X8X8X8X8X8X8X8X8X8X8X8X8X8X8X8X",
"8X8X8X8X8X8X8X8X8X8X8X8X8X8X8X8X8X8X8X8X8X8X8X8Xn H H H Z s 5 , > w > 8X8X8X8X8X8X8X8X8X8X8X8X8X8Xm J 7.7.! ! J 8X8X8X8X8X8X8X8X8X8X8X8X8X8X8X8X8X8X8X8X8X8X8X8X",
"8X8X8X8X8X8X8X8X8X8X8X8X8X8X8X8X8X8X8X8X8X8X8X8Xa M M H B 1 $ $ 7 w w $ 8X8X8X8X8X8X8X8X8X8X8X8X8XH I 7.( ) ` 8X8X8X8X8X8X8X8X8X8X8X8X8X8X8X8X8X8X8X8X8X8X8X8X8X",
"8X8X8X8X8X8X8X8X8X8X8X8X8X8X8X8X8X8X8X8X8X8X8X8X8X8X8Xz u @ > w | b b d e u 8X8X8X8X8X8X8X8X8X8X8X! ! J ( r.( 8X8X8X8X8X8X8X8X8X8X8X8X8X8X8X8X8X8X8X8X8X8X8X8X8X",
"8X8X8X8X8X8X8X8X8X8X8X8X8X8X8X8X8X8X8X8X8X8X8X8X8X8X8X8X8X8X@ 2 B Z Z M B H B u 8X8X8X8X8X8X8X8X8X` ` ) r.` 8X8X8X8X8X8X8X8X8X8X8X8X8X8X8X8X8X8X8X8X8X8X8X8X8X8X",
"8X8X8X8X8X8X8X8X8X8X8X8X8X8X8X8X8X8X8X8X8X8X8X8X8X8X8X8X8X8X8X+ X X X . X X X . 8X8X8X8X8X8X8X8X8X` t.r.r.( 8X8X8X8X8X8X8X8X8X8X8X8X8X8X8X8X8X8X8X8X8X8X8X8X8X8X",
"8X8X8X8X8X8X8X8X8X8X8X8X8X8X8X8X8X8X8X8X8X8X8X8X8X8X8X8X8X8X8X8X8X8X8X8X8X8X8X8X8X8X8X8X8X8X8X8X! r.r.r.' L 8X8X8X8X8X8X8X8X8X8X8X8X8X8X8X8X8X8X8X8X8X8X8X8X8X8X",
"8X8X8X8X8X8X8X8X8X8X8X8X8X8X8X8X8X8X8X8X8X8X8X8X8X8X8X8X8X8X8X8X8X8X8X8X8X8X8X8X8X8X8X8X8X8X8X8XL w.t.t.) 8X8X8X8X8X8X8X8X8X8X8X8X8X8X8X8X8X8X8X8X8X8X8X8X8X8X8X",
"8X8X8X8X8X8X8X8X8X8X8X8X8X8X8X8X8X8X8X8X8X8X8X8X8X8X8X8X8X8X8X8X8X8X8X8X8X8X8X8X8X8X8X8X8X8X8X8Xl ~ ) r.` 8X8X8X8X8X8X8X8X8X8X8X8X8X8X8X8X8X8X8X8X8X8X8X8X8X8X8X",
"8X8X8X8X8X8X8X8X8X8X8X8X8X8X8X8X8X8X8X8X8X8X8X8X8X8X8X8X8X8X8X8X8X8X8X8X8X8X8X8X8X8X8X8X8X8X8Xm E k.j.j.U 8X8X8X8X8X8X8X8X8X8X8X8X8X8X8X8X8X8X8X8X8X8X8X8X8X8X8X",
"8X8X8X8X8X8X8X8X8X8X8X8X8X8X8X8X8X8X8X8X8X8X8X8X8X8X8X8X8X8X8X8X8X8X8X8X8X8X8X8X8X8X8X8X8X8X8XV h.k.E l Z 8X8X8X8X8X8X8X8X8X8X8X8X8X8X8X8X8X8X8X8X8X8X8X8X8X8X8X",
"8X8X8X8X8X8X8X8X8X8X8X8X8X8X8X8X8X8X8X8X8X8X8X8X8X8X8X8X8X8X8X8X8X8X8X8X8X8X8X8X8X8X8X8X8X8XL L / ^ j.C Z 8X8X8X8X8X8X8X8X8X8X8X8X8X8X8X8X8X8X8X8X8X8X8X8X8X8X8X",
"8X8X8X8X8X8X8X8X8X8X8X8X8X8X8X8X8X8X8X8X8X8X8X8X8X8X8X8X8X8X8X8X8X8X8X8X8X8X8X8X8X8X8X8X8X8X` ( t.L ( ` ) 8X8X8X8X8X8X8X8X8X8X8X8X8X8X8X8X8X8X8X8X8X8X8X8X8X8X8X",
"8X8X8X8X8X8X8X8X8X8X8X8X8X8X8X8X8X8X8X8X8X8X8X8X8X8X8X8X8X8X8X8X8X8X8X8X8X8X8X8X8X8X8X8X8X( ` W r.W ` t.r.( 8X8X8X8X8X8X8X8X8X8X8X8X8X8X8X8X8X8X8X8X8X8X8X8X8X8X",
"8X8X8X8X8X8X8X8X8X8X8X8X8X8X8X8X8X8X8X8X8X8X8X8X8X8X8X8X8X8X8X8X8X8X8X8X8X8X8X8X8X8X8X8X8.r.r.J N ( r.r.r.r.9.8X8X8X8X8X8X8X8X8X8X8X8X8X8X8X8X8X8X8X8X8X8X8X8X8X",
"8X8X8X8X8X8X8X8X8X8X8X8X8X8X8X8X8X8X8X8X8X8X8X8X8X8X8X8X8X8X8X8X8X8X8X8X8X8X8X8X8X8X8X8X) r.t.` ` r.r.r.r.r.r.w.8X8X8X8X8X8X8X8X8X8X8X8X8X8X8X8X8X8X8X8X8X8X8X8X",
"8X8X8X8X8X8X8X8X8X8X8X8X8X8X8X8X8X8X8X8X8X8X8X8X8X8X8X8X8X8X8X8X8X8X8X8X8X8X8X8X8X8X8X8XL ` ` ( ( r.t.r.r.r.r.r.w.w.8.8X8X8X8X8X8X8X8X8X8X8X8X8X8X8X8X8X8X8X8X8X",
"8X8X8X8X8X8X8X8X8X8X8X8X8X8X8X8X8X8X8X8X8X8X8X8X8X8X8X8X8X8X8X8X8X8X8X8X8X8X8X8X8X8X8X8X8Xa u u B I I r.t.r.r.r.r.r.r.8X8X8X8X8X8X8X8X8X8X8X8X8X8X8X8X8X8X8X8X8X",
"8X8X8X8X8X8X8X8X8X8X8X8X8X8X8X8X8X8X8X8X8X8X8X8X8X8X8X8X8X8X8X8X8X8X8X8X8X8X8X8X8X8X8X8X8X8X8X8X8X8X8XL W L N N N N N B 8X8X8X8X8X8X8X8X8X8X8X8X8X8X8X8X8X8X8X8X"
};
