/* XPM */
static char *result[] = {
/* columns rows colors chars-per-pixel */
"80 80 222 2 ",
"   c #510D18",
".  c #651A18",
"X  c #6F2415",
"o  c #73241E",
"O  c #7C281F",
"+  c #4D0925",
"@  c #571829",
"#  c #561C33",
"$  c #751F3C",
"%  c #5D2136",
"&  c #5C243D",
"*  c #6D262C",
"=  c #7B2A24",
"-  c #672734",
";  c #732B3A",
":  c #7B3030",
">  c #652D46",
",  c #762240",
"<  c #7F2943",
"1  c #6B344D",
"2  c #7A3A44",
"3  c #7A3B49",
"4  c #6D2356",
"5  c #6A3453",
"6  c #6A3655",
"7  c #6D3B5A",
"8  c #763D57",
"9  c #6F3F61",
"0  c #703A62",
"q  c #7E4254",
"w  c #75415E",
"e  c #77465E",
"r  c #734263",
"t  c #714868",
"y  c #684A7C",
"u  c #744B70",
"i  c #8A3D0F",
"p  c #843418",
"a  c #822F25",
"s  c #833325",
"d  c #8D3525",
"f  c #943B26",
"g  c #933B2B",
"h  c #83393A",
"j  c #8B3B3B",
"k  c #913F36",
"l  c #A3352D",
"z  c #B53D3C",
"x  c #A95217",
"c  c #AF5A12",
"v  c #AD551A",
"b  c #B85C17",
"n  c #B36112",
"m  c #9A422A",
"M  c #9C452B",
"N  c #8F413B",
"B  c #9C4534",
"V  c #984538",
"C  c #96513C",
"Z  c #A54627",
"A  c #AB4827",
"S  c #A4462B",
"D  c #A44A2D",
"F  c #AC4B2C",
"G  c #B24E2D",
"H  c #B84829",
"J  c #A55F22",
"K  c #B4512E",
"L  c #BB572F",
"P  c #A64D31",
"I  c #A0483B",
"U  c #B14F30",
"Y  c #BB4934",
"T  c #AC5131",
"R  c #B55231",
"E  c #B95533",
"W  c #B65935",
"Q  c #BC5B35",
"!  c #B55A38",
"~  c #BD5F38",
"^  c #BB6A25",
"/  c #B1722E",
"(  c #CB7C1B",
")  c #D37D15",
"_  c #C15E29",
"`  c #C15E36",
"'  c #C45F39",
"]  c #CA5F3F",
"[  c #C76828",
"{  c #CD7720",
"}  c #C36135",
"|  c #C86837",
" . c #C4623A",
".. c #C9663C",
"X. c #CD6A3E",
"o. c #D16E3F",
"O. c #D27332",
"+. c #D4713F",
"@. c #823E44",
"#. c #8F3E59",
"$. c #894548",
"%. c #974946",
"&. c #884455",
"*. c #8D4D56",
"=. c #985759",
"-. c #B14E4D",
";. c #A15743",
":. c #B95F41",
">. c #B45D48",
",. c #A55451",
"<. c #956B55",
"1. c #BC684D",
"2. c #AC665C",
"3. c #BC6655",
"4. c #844262",
"5. c #864C6F",
"6. c #8A4873",
"7. c #815B78",
"8. c #9F6A6B",
"9. c #886978",
"0. c #966B75",
"q. c #B56469",
"w. c #B97863",
"e. c #A66B72",
"r. c #AC6E7B",
"t. c #D45A4D",
"y. c #CE5D54",
"u. c #C46341",
"i. c #C96442",
"p. c #C26846",
"a. c #CD6B42",
"s. c #D16E41",
"d. c #D3674E",
"f. c #CB7147",
"g. c #D67342",
"h. c #D87443",
"j. c #D67749",
"k. c #D6794D",
"l. c #C06753",
"z. c #C47158",
"x. c #D67C53",
"c. c #D87D53",
"v. c #CC7E61",
"b. c #CF8A0F",
"n. c #D8880C",
"m. c #D98815",
"M. c #E2980E",
"N. c #E49E18",
"B. c #DDA01B",
"V. c #E0AC08",
"C. c #AD8A58",
"Z. c #9B817C",
"A. c #B68E72",
"S. c #D28E48",
"D. c #D88358",
"F. c #D5AF4C",
"G. c #DB8A64",
"H. c #D69C72",
"J. c #E79370",
"K. c #CBA07E",
"L. c #714F8A",
"P. c #725189",
"I. c #7D759A",
"U. c #7979AA",
"Y. c #737EB2",
"T. c #805C81",
"R. c #876A91",
"E. c #917496",
"W. c #A27A82",
"Q. c #AF619B",
"!. c #B36A91",
"~. c #6486CF",
"^. c #9A8289",
"/. c #B28A96",
"(. c #BFA28D",
"). c #B7B899",
"_. c #9787A6",
"`. c #9893BE",
"'. c #AC92A7",
"]. c #A59CB3",
"[. c #B1B1AD",
"{. c #A6A8BB",
"}. c #AFB0B6",
"|. c #BCBDB3",
" X c #D1AE89",
".X c #C7BAA7",
"XX c #9CC387",
"oX c #C6C5A3",
"OX c #D6C8A4",
"+X c #CECEB6",
"@X c #D7D8B7",
"#X c #9D96C3",
"$X c #9A9AC8",
"%X c #9D9ED1",
"&X c #A69FC7",
"*X c #A29CCA",
"=X c #A8A4C7",
"-X c #ABABC5",
";X c #B1AAC6",
":X c #B9B9C6",
">X c #A5A4D5",
",X c #AFAFD3",
"<X c #A5A7D9",
"1X c #B9B9DA",
"2X c #BCBBDD",
"3X c #BBBBE1",
"4X c #C4BDD6",
"5X c #BFC0E1",
"6X c #CDCDCC",
"7X c #D8D8C7",
"8X c #CCCCDA",
"9X c #D8D8D1",
"0X c #E6E6C7",
"qX c #E9E9DE",
"wX c #C3C3E4",
"eX c #C7C7E8",
"rX c #C7C8E9",
"tX c #CCCCF0",
"yX c #F1F1E7",
"uX c #F6F6F5",
"iX c #F8F8F8",
"pX c None",
/* pixels */
"pXpXpXpXpXpXpXpXpXpXpXpXpXpXpXpXpXpXpXpXpXpXpXpXpXpXpXpXpXpXpXpXpXpXpXpXpXpXpXpXpXpXpXpXpXpXpXpXpXpXpXpXpXpXpXpXpXpXpXpXpXpXpXpXpXpXpXpXpXpXpXpXpXpXpXpXpXpXpXpX",
"pXpXpXpXpXpXpXpXpXpXpXpXpXpXpXpXpXpXpXpXpXpXpXpXpXpXpXpXpXpXpXpXpXpXpXpXpXpXpXpXpXpXpXpXpXpXpXpXpXpXpXpXpXpXpXpXpXpXpXpXpXpXpXpXpXpXpXpXpXpXpXpXpXpXpXpXpXpXpXpX",
"pXpXpXpXpXpXpXpXpXpXpXpXpXpXpXpXpXpXpXpXpXpXpXpXpXpXpXpXpXpXpXpXpXpXpXpXpXpXpXpXpXpXpXpXpXpXpXpXpXpXpXpXpXpXpXpXpXpXpXpXpXpXpXpXpXpXpXpXpXpXpXpXpXpXpXpXpXpXpXpX",
"pXpXpXpXpXpXpXpXpXpXpXpXpXpXpXpXpXpXpXpXpXpXpXpXpXpXpXpXpXpXpXpXpXpXpXpXpXpXpXpXpXpXpXpXpXpXpXpXpXpXpXpXpXpXpXpXpXpXpXpXpXpXpXpXpXpXpXpXpXpXpXpXpXpXpXpXpXpXpXpX",
"pXpXpXpXpXpXpXpXpXpXpXpXpXpXpXpXpXpXpXpXpXpXpXpXpXpXpXpXpXpXpXpXpXpXpXpXpXpXpXpXpXpXpXpXpXpXpXpXpXpXpXpXpXpXpXpXpXpXpXpXpXpXpXpXpXpXpXpXpXpXpXpXpXpXpXpXpXpXpXpX",
"pXpXpXpXpXpXpXpXpXpXpXpXpXpXpXpXpXpXpXpXpXpXpXpXpXpXpXpXpXpXpXpXpXpXpXpXpXpXpXpXpXpXpXpXpXpXpXpXpXpXpXpXpXpXpXpXpXpXpXpXpXpXpXpXpXpXpXpXpXpXpXpXpXpXpXpXpXpXpXpX",
"pXpXpXpXpXpXpXpXpXpXpXpXpXpXpXpXpXpXpXpXpXpXpXpXpXpXpXpXpXpXpXpXpXpXpXpXpXpXpXpXpXpXpXpXpXpXpXpXpXpXpXpXpXpXpXpXpXpXpXpXpXpXpXpXpXpXpXpXpXpXpXpXpXpXpXpXpXpXpXpX",
"pXpXpXpXpXpXpXpXpXpXpXpXpXpXpXpXpXpXpXpXpXpXpXpXpXpXpXpXpXpXpXpXpXpXpXpXpXpXpXpXpXpXpXpXpXpXpXpXpXpXpXpXpXpXpXpXpXpXpXpXpXpXpXpXpXpXpXpXpXpXpXpXpXpXpXpXpXpXpXpX",
"pXpXpXpXpXpXpXpXpXpXpXpXpXpXpXpXpXpXpXpXpXpXpXpXpXpXpXpXpXpXpXpXpXpXpXpXpXpXpXpXpXpXpXpXpXpXpXpXpXpXpXpXpXpXpXpXpXpX{.qXuXuXiXyXoXpXpXpXpXpXpXpXpXpXpXpXpXpXpXpX",
"pXpXpXpXpXpXpXpXpXpXpXpXpXpXpXpXpXpXpXpXpXpXpXpXpXpXpXpXpXpXpXpXpXpXpXpXpXpXpXpXpXpXpXpXpXpXpXpXpXpXpXpXpXpXpXpXpX$X,X9XyXuXuXyX7X).pXpXpXpXpXpXpXpXpXpXpXpXpXpX",
"pXpXpXpXpXpXpXpXpXpXpXpXpXpXpXpXpXpXpXpXpXpXpXpXpXpXpXpXpXpXpXpXpXpXpXpXpXpXpXpXpXpXpXpXpXpXpXpXpXpXpXpXpXpXpXpX`.3X3X1X6X7X0X0X0X+XpXpXpXpXpXpXpXpXpXpXpXpXpXpX",
"pXpXpXpXpXpXpXpXpXpXpXpXpXpXpXpXpXpXpXpXpXpXpXpXpXpXpXpXpXpXpXpXpXpXpXpXpXpXpXpXpXpXpXpXpXpXpXpXpXpXpXpXpXpXpXpX$XtX5X2XwX|.7X9X6X8X;XpXpXpXpXpXpXpXpXpXpXpXpXpX",
"pXpXpXpXpXpXpXpXpXpXpXpXpXpXpXpXpXpXpXpXpXpXpXpXpXpXpXpXpXpXpXpXpXpXpXpXpXpXpXpXpXpXpXpXpXpXpXpXpXpXpXpXpXpXpXpX].2XR.-X4Xw.W.1X1X:X:XpXpXpXpXpXpXpXpXpXpXpXpXpX",
"pXpXpXpXpXpXpXpXpXpXpXpXpXpXpXpXpXpXpXpXpXpXpXpXpXpXpXpXpXpXpXpXpXpXpXpXpXpXpXpXpXpXpXpXpXpXpXpX . .a.i.E J XX(.F.0.B 0.;X>.s _.{.}.=XpXpXpXpXpXpXpXpXpXpXpXpXpX",
"pXpXpXpXpXpXpXpXpXpXpXpXpXpXpXpXpXpXpXpXpXpXpXpXpXpXpXpXpXpXpXpXpXpXpXpXpXpXpXpXpXpXpXpXpXpXpXR g.g.~ a. .P <./.N.^ = V r.;.t e <.9.pXpXpXpXpXpXpXpXpXpXpXpXpXpX",
"pXpXpXpXpXpXpXpXpXpXpXpXpXpXpXpXpXpXpXpXpXpXpXpXpXpXpXpXpXpXpXpXpXpXpXpXpXpXpXpXpXpXpXpXpXpXD X.h... .h.J.J.w.P.[ ) M B 1.2.z.u.s pXpXpXpXpXpXpXpXpXpXpXpXpXpXpX",
"pXpXpXpXpXpXpXpXpXpXpXpXpXpXpXpXpXpXpXpXpXpXpXpXpXpXpXpXpXpXpXpXpXpXpXpXpXpXpXpXpXpXpXpXpXpX} s.g. .g.h.G.G.j.S l b s g i.i. .D . pXpXpXpXpXpXpXpXpXpXpXpXpXpXpX",
"pXpXpXpXpXpXpXpXpXpXpXpXpXpXpXpXpXpXpXpXpXpXpXpXpXpXpXpXpXpXpXpXpXpXpXpXpXpXpXpXpXpXpXpXpXD.X.g.o.` g.g.h.h.h. .O pXpX. m m o pXpXpXpXpXpXpXpXpXpXpXpXpXpXpXpXpX",
"pXpXpXpXpXpXpXpXpXpXpXpXpXpXpXpXpXpXpXpXpXpXpXpXpXpXpXpXpXpXpXpXpXpXpXpXpXpXpXpXpXpXpXpXoXOXG.g.E | g.g.g.h.h.} x pXpXpXpXpXpXpXpXpXpXpXpXpXpXpXpXpXpXpXpXpXpXpX",
"pXpXpXpXpXpXpXpXpXpXpXpXpXpXpXpXpXpXpXpXpXpXpXpXpXpXpXpXpXpXpXpXpXpXpXpXpXpXpXpXpXpXpXf. X@XOXp.z.N.| g.X. .! / n pXpXpXpXpXpXpXpXpXpXpXpXpXpXpXpXpXpXpXpXpXpXpX",
"pXpXpXpXpXpXpXpXpXpXpXpXpXpXpXpXpXpXpXpXpXpXpXpXpXpXpXpXpXpXpXpXpXpXpXpXpXpXpXpXpXpX` s.D.OX X..l.F.m.} m 8.Z.OXC.pXpXpXpXpXpXpXpXpXpXpXpXpXpXpXpXpXpXpXpXpXpXpX",
"pXpXpXpXpXpXpXpXpXpXpXpXpXpXpXpXpXpXpXpXpXpXpXpXpXpXpXpXpXpXpXpXpXpXpXpXpXpXpXpXpXQ o.h.X.;.f.g.o.3.S.^ '.wX7X@X).pXpXpXpXpXpXpXpXpXpXpXpXpXpXpXpXpXpXpXpXpXpXpX",
"pXpXpXpXpXpXpXpXpXpXpXpXpXpXpXpXpXpXpXpXpXpXpXpXpXpXpXpXpXpXpXpXpXpXpXpXpXpXpXpXpXX.h.} ! Q h...X.o.,.*.2XrX6X@X[.pXpXpXpXpXpXpXpXpXpXpXpXpXpXpXpXpXpXpXpXpXpXpX",
"pXpXpXpXpXpXpXpXpXpXpXpXpXpXpXpXpXpXpXpXpXpXpXpXpXpXpXpXpXpXpXpXpXpXpXpXpXpXpXE K.H.f.M X.h.h.X.W u.e.].1XeXeX8X-XpXpXpXpXpXpXpXpXpXpXpXpXpXpXpXpXpXpXpXpXpXpXpX",
"pXpXpXpXpXpXpXpXpXpXpXpXpXpXpXpXpXpXpXpXpXpXpXpXpXpXpXpXpXpXpXpXpXpXpXpXpXpX} o.H.OXA. .h.g.g.h.Q I ,.@._.eXeXwX=XpXpXpXpXpXpXpXpXpXpXpXpXpXpXpXpXpXpXpXpXpXpXpX",
"pXpXpXpXpXpXpXpXpXpXpXpXpXpXpXpXpXpXpXpXpXpXpXpXpXpXpXpXpXpXpXpXpXpXpXpXpXX.s.g.+. XA. .h.g.h.h.X.G pX8 5.E.&X=XpXpXpXpXpXpXpXpXpXpXpXpXpXpXpXpXpXpXpXpXpXpXpXpX",
"pXpXpXpXpXpXpXpXpXpXpXpXpXpXpXpXpXpXpXpXpXpXpXpXpXpXpXpXpXpXpXpXpXpXpXa.g.g.g.g.g.D..X2.X.h.g.h.o.L g 4.4.4.,.pXpXpXpXpXpXpXpXpXpXpXpXpXpXpXpXpXpXpXpXpXpXpXpXpX",
"pXpXpXpXpXpXpXpXpXpXpXpXpXpXpXpXpXpXpXpXpXpXpXpXpXpXpXpXpXpXpXpXpXpXa.g.g.g.g.g.g.x.;X#Xr. .h.+.3.!.r.*.4.4.j pXpXpXpXpXpXpXpXpXpXpXpXpXpXpXpXpXpXpXpXpXpXpXpXpX",
"pXpXpXpXpXpXpXpXpXpXpXpXpXpXpXpXpXpXpXpXpXpXpXpXpXpXpXpXpXpXpXpXpX .g.g.g.g.g.g.g.1.*X%X$X0.:. .Q.S.B.v &.&.pXpXpXpXpXpXpXpXpXpXpXpXpXpXpXpXpXpXpXpXpXpXpXpXpXpX",
"pXpXpXpXpXpXpXpXpXpXpXpXpXpXpXpXpXpXpXpXpXpXpXpXpXpXpXpXpXpXpXpXpXX.X.X.g.j.h.g.h.$.#X<X<X`.q I q.n.X.y.%.%.pXpXpXpXpXpXpXpXpXpXpXpXpXpXpXpXpXpXpXpXpXpXpXpXpXpX",
"pXpXpXpXpXpXpXpXpXpXpXpXpXpXpXpXpXpXpXpXpXpXpXpXpXpXpXpXpXpXpXpXpX..} g.g.x.h.g.g./.>X<X<XR.r 8 C _ y._.U.9.` pXpXpXpXpXpXpXpXpXpXpXpXpXpXpXpXpXpXpXpXpXpXpXpXpX",
"pXpXpXpXpXpXpXpXpXpXpXpXpXpXpXpXpXpXpXpXpXpXpXpXpXpXpXpXpXpXpXpXR Q o.g.c.D.h.g.+./.<X<X#Xu r r r &.=.I.:.g.g.X.F D } pXpXpXpXpXpXpXpXpXpXpXpXpXpXpXpXpXpXpXpXpX",
"pXpXpXpXpXpXpXpXpXpXpXpXpXpXpXpXpXpXpXpXpXpXpXpXpXpXpXpXpXpXpXpXF X.g.g.D.c.g.g.a.'.<X*XT.r r r r r 7 j o.h.g.h.g.X. ...pXpXpXpXpXpXpXpXpXpXpXpXpXpXpXpXpXpXpXpX",
"pXpXpXpXpXpXpXpXpXpXpXpXpXpXpXpXpXpXpXpXpXpXpXpXpXpXpXpXpXpXpXpXX.g.g.j.G.h.g.g.v.>X>XR.r r r r r r $.B s.g.g.g.g.g.X.Q pXpXpXpXpXpXpXpXpXpXpXpXpXpXpXpXpXpXpXpX",
"pXpXpXpXpXpXpXpXpXpXpXpXpXpXpXpXpXpXpXpXpXpXpXpXpXpXpXpXpXpXpXa.g.g.g.k.c.g.g.g.v.*XE.r r r r r r q F F } g.g.g.g.Q P ` pXpXpXpXpXpXpXpXpXpXpXpXpXpXpXpXpXpXpXpX",
"pXpXpXpXpXpXpXpXpXpXpXpXpXpXpXpXpXpXpXpXpXpXpXpXpXpXpXpXpXpXpXs.g.g.g.x.j.g.g.g.1.7.r r r r r r r q F R R Q g.h...f pXD pXpXpXpXpXpXpXpXpXpXpXpXpXpXpXpXpXpXpXpX",
"pXpXpXpXpXpXpXpXpXpXpXpXpXpXpXpXpXpXpXpXpXpXpXpXpXpXpXpXpXpXa.g.g.g.h.x.g.g.g.g.pXpX> r r r r r r q F R R F ~  .T F A pXpXpXpXpXpXpXpXpXpXpXpXpXpXpXpXpXpXpXpXpX",
"pXpXpXpXpXpXpXpXpXpXpXpXpXpXpXpXpXpXpXpXpXpXpXpXpXpXpXpXpXpXs.g.g.g.j.j.g.g.g...pXpXpX5 r r r r r q F R R R S F R R G F pXpXpXpXpXpXpXpXpXpXpXpXpXpXpXpXpXpXpXpX",
"pXpXpXpXpXpXpXpXpXpXpXpXpXpXpXpXpXpXpXpXpXpXpXpXpXpXpXpXpXpXg.g.g.g.g.g.g.g.g.pXpXpXpXpX5 r r r r w B R R R R R R R R R A pXpXpXpXpXpXpXpXpXpXpXpXpXpXpXpXpXpXpX",
"pXpXpXpXpXpXpXpXpXpXpXpXpXpXpXpXpXpXpXpXpXpXpXpXpXpXpXpXpXpXg.g.g.g.g.g.g.g. .pXpXpXpXpX# r r r r r $.G R R R R R R R R K A pXpXpXpXpXpXpXpXpXpXpXpXpXpXpXpXpXpX",
"pXpXpXpXpXpXpXpXpXpXpXpXpXpXpXpXpXpXpXpXpXpXpXpXpXpXpXpXpXa.g.g.g.g.g.g.g.X.pXpXpXpXpXpXpXpXr r r r r V K R R R R R R R R R Z d S pXpXpXpXpXpXpXpXpXpXpXpXpXpXpX",
"pXpXpXpXpXpXpXpXpXpXpXpXpXpXpXpXpXpXpXpXpXpXpXpXpXpXpXpXpXa.g.g.g.g.g.g.X.pXpXpXpXpXpXpXpXpXpXpXr 6 r w B G R R R R R R R R R K E W m pXpXpXpXpXpXpXpXpXpXpXpXpX",
"pXpXpXpXpXpXpXpXpXpXpXpXpXpXpXpXpXpXpXpXpXpXpXpXpXpXpXpXQ g.g.g.g.g.g.o.Q pXpXpXpXpXpXpXpXpXpXpXpXpXpX5 q N F K R R R R R R R R Z a g pXpXpXpXpXpXpXpXpXpXpXpXpX",
"pXpXpXpXpXpXpXpXpXpXpXpXpXpXpXpXpXpXpXpXpXpXpXpXpXpXpXL X.X.g.g.g.g.g. .pXpXpXpXpXpXpXpXpXpXpXpXpXpXpXpXpX- 2 B R R R R R R R R Z pXpXpXpXpXpXpXpXpXpXpXpXpXpXpX",
"pXpXpXpXpXpXpXpXpXpXpXpXpXpXpXpXpXpXpXpXpXpXpXpXpXpXpXX.s.T g.g.g.h.X.pXpXpXpXpXpXpXpXpXpXpXpXpXpXpXpXpXpXpXpX1 d K R R R R R R A pXpXpXpXpXpXpXpXpXpXpXpXpXpXpX",
"pXpXpXpXpXpXpXpXpXpXpXpXpXpXpXpXpXpXpXpXpXpXpXpXpXi.s.g.s.W g.g.g.s.Q pXpXpXpXpXpXpXpXpXpXpXpXpXpXpXpXpXpXpXpXpXpX= F R R R E m pXpXpXpXpXpXpXpXpXpXpXpXpXpXpXpX",
"pXpXpXpXpXpXpXpXpXpXpXpXpXpXpXpXpXpXpXpXpXpXpXpXa.g.g.g.g.a.g.g.g. .pXpXpXpXpXpXpXpXpXpXpXpXpXpXpXpXpXpXpXpXpXpXpX. d k F A f o pXpXpXpXpXpXpXpXpXpXpXpXpXpXpXpX",
"pXpXpXpXpXpXpXpXpXpXpXpXpXpXpXpXpXpXpXpXpXpXi.o.h.g.g.g.g.s.h.o.} pXpXpXpXpXpXpXpXpXpXpXpXpXpXpXpXpXpXpXpXpXpXpXpXh F : 3 8 - + pXpXpXpXpXpXpXpXpXpXpXpXpXpXpXpX",
"pXpXpXpXpXpXpXpXpXpXpXpXpXpXpXpXpXpXpXpXpXpXY d.a.g.g.g.g.o. .K pXpXpXpXpXpXpXpXpXpXpXpXpXpXpXpXpXpXpXpXpXpXpXpXpX@.G R g > 7 @ pXpXpXpXpXpXpXpXpXpXpXpXpXpXpXpX",
"pXpXpXpXpXpXpXpXpXpXpXpXpXpXpXpXpXpXpXpXpX7.I.2.t.] g.g.s.W pXpXpXpXpXpXpXpXpXpXpXpXpXpXpXpXpXpXpXpXpXpXpXpXpXpX< z G R K h 7 @ pXpXpXpXpXpXpXpXpXpXpXpXpXpXpXpX",
"pXpXpXpXpXpXpXpXpXpXpXpXpXpXpXpXpXpXpXpXa.a.^.~.e.t.' s...pXpXpXpXpXpXpXpXpXpXpXpXpXpXpXpXpXpXpXpXpXpXpXpXpXpXpXy 6.z Y Y z #.- pXpXpXpXpXpXpXpXpXpXpXpXpXpXpXpX",
"pXpXpXpXpXpXpXpXpXpXpXpXpXpXpXpXpXpXpXpXg.g.g.8.Y.q.t.` ` pXpXpXpXpXpXpXpXpXpXpXpXpXpXpXpXpXpXpXpXpXpXpXpXpXpXpX9 y L.P.L.P.5 pXpXpXpXpXpXpXpXpXpXpXpXpXpXpXpXpX",
"pXpXpXpXpXpXpXpXpXpXpXpXpXpXpXpXpXpXpXs.g.g.g.o.8.U.-.l pXpXpXpXpXpXpXpXpXpXpXpXpXpXpXpXpXpXpXpXpXpXpXpXpXpXpXpX& r e &.t r ; pXpXpXpXpXpXpXpXpXpXpXpXpXpXpXpXpX",
"pXpXpXpXpXpXpXpXpXpXpXpXpXpXpXpXpXpXs.g.g.g.g.g.X.=.$.pXpXpXpXpXpXpXpXpXpXpXpXpXpXpXpXpXpXpXpXpXpXpXpXpXpXpXpXpX@ 6 r r w 2 - pXpXpXpXpXpXpXpXpXpXpXpXpXpXpXpXpX",
"pXpXpXpXpXpXpXpXpXpXpXpXpXpXpXpXpXpXs.g.g.g.g.g.X.H pXpXpXpXpXpXpXpXpXpXpXpXpXpXpXpXpXpXpXpXpXpXpXpXpXpXpXpXpXpXpX; r w 3 8 @ pXpXpXpXpXpXpXpXpXpXpXpXpXpXpXpXpX",
"pXpXpXpXpXpXpXpXpXpXpXpXpXpXpXpXpXs.g.g.g.g.g.X.pXpXpXpXpXpXpXpXpXpXpXpXpXpXpXpXpXpXpXpXpXpXpXpXpXpXpXpXpXpXpXpXpX%.r 3 8 r pXpXpXpXpXpXpXpXpXpXpXpXpXpXpXpXpXpX",
"pXpXpXpXpXpXpXpXpXpXpXpXpXpXpXpXpXg.g.g.g.g.s.pXpXpXpXpXpXpXpXpXpXpXpXpXpXpXpXpXpXpXpXpXpXpXpXpXpXpXpXpXpXpXpXpXpX%.r w r r pXpXpXpXpXpXpXpXpXpXpXpXpXpXpXpXpXpX",
"pXpXpXpXpXpXpXpXpXpXpXpXpXpXpXpXa.g.g.g.g.g.a.pXpXpXpXpXpXpXpXpXpXpXpXpXpXpXpXpXpXpXpXpXpXpXpXpXpXpXpXpXpXpXpXpXpX%.r r r 5 pXpXpXpXpXpXpXpXpXpXpXpXpXpXpXpXpXpX",
"pXpXpXpXpXpXpXpXpXpXpXpXpXpXpXpXX.g.g.g.g.a.pXpXpXpXpXpXpXpXpXpXpXpXpXpXpXpXpXpXpXpXpXpXpXpXpXpXpXpXpXpXpXpXpXpXpX%.r r r 7 pXpXpXpXpXpXpXpXpXpXpXpXpXpXpXpXpXpX",
"pXpXpXpXpXpXpXpXpXpXpXpXpXpXpXs.g.g.g.g.a.pXpXpXpXpXpXpXpXpXpXpXpXpXpXpXpXpXpXpXpXpXpXpXpXpXpXpXpXpXpXpXpXpXpXpXpX; 0 r 0 4 pXpXpXpXpXpXpXpXpXpXpXpXpXpXpXpXpXpX",
"pXpXpXpXpXpXpXpXpXpXpXpXpXpXpXs.g.g.g.s.pXpXpXpXpXpXpXpXpXpXpXpXpXpXpXpXpXpXpXpXpXpXpXpXpXpXpXpXpXpXpXpXpXpXpXpXpXX j < , + pXpXpXpXpXpXpXpXpXpXpXpXpXpXpXpXpXpX",
"pXpXpXpXpXpXpXpXpXpXpXpXpXpXa.g.g.g.s.pXpXpXpXpXpXpXpXpXpXpXpXpXpXpXpXpXpXpXpXpXpXpXpXpXpXpXpXpXpXpXpXpXpXpXpXpXpXp c c c i pXpXpXpXpXpXpXpXpXpXpXpXpXpXpXpXpXpX",
"pXpXpXpXpXpXpXpXpXpXpXpXpXx m.[ O.s.` pXpXpXpXpXpXpXpXpXpXpXpXpXpXpXpXpXpXpXpXpXpXpXpXpXpXpXpXpXpXpXpXpXpXpXpXpXF A v c p m Z pXpXpXpXpXpXpXpXpXpXpXpXpXpXpXpXpX",
"pXpXpXpXpXpXpXpXpXpXpXpXpXb b.V.) { pXpXpXpXpXpXpXpXpXpXpXpXpXpXpXpXpXpXpXpXpXpXpXpXpXpXpXpXpXpXpXpXpXpXpXpXpXpXG U $ 4 4 g K A pXpXpXpXpXpXpXpXpXpXpXpXpXpXpXpX",
"pXpXpXpXpXpXpXpXpXpXpXpXQ O.( M.n.n pXpXpXpXpXpXpXpXpXpXpXpXpXpXpXpXpXpXpXpXpXpXpXpXpXpXpXpXpXpXpXpXpXpXpXpXpXpXR G * 6 1 a R R G pXpXpXpXpXpXpXpXpXpXpXpXpXpXpX",
"pXpXpXpXpXpXpXpXpXpXpXpXE s.s.+.[ v pXpXpXpXpXpXpXpXpXpXpXpXpXpXpXpXpXpXpXpXpXpXpXpXpXpXpXpXpXpXpXpXpXpXpXpXpXG R R g # % B R R R R G A A pXpXpXpXpXpXpXpXpXpXpX",
"pXpXpXpXpXpXpXpXpXpXpXD Q a.g.s...pXpXpXpXpXpXpXpXpXpXpXpXpXpXpXpXpXpXpXpXpXpXpXpXpXpXpXpXpXpXpXpXpXpXpXpXpXpXf E U $.7 & h S R E E R U R G m pXpXpXpXpXpXpXpXpX",
"pXpXpXpXpXpXpXpXpXpXpXX. .g.g.o.W pXpXpXpXpXpXpXpXpXpXpXpXpXpXpXpXpXpXpXpXpXpXpXpXpXpXpXpXpXpXpXpXpXpXpXpXpXpX= d : > > &     a d d d o d d d pXpXpXpXpXpXpXpXpX",
"pXpXpXpXpXpXpXpXpXpXpXs.X.g.g.g.} pXpXpXpXpXpXpXpXpXpXpXpXpXpXpXpXpXpXpXpXpXpXpXpXpXpXpXpXpXpXpXpXpXpXpXpXpXpXpXpXpXpXpXpXpXpXpXpXpXpXpXpXpXpXpXpXpXpXpXpXpXpXpX",
"pXpXpXpXpXpXpXpXpXpX ...g.g.g.g.o.pXpXpXpXpXpXpXpXpXpXpXpXpXpXpXpXpXpXpXpXpXpXpXpXpXpXpXpXpXpXpXpXpXpXpXpXpXpXpXpXpXpXpXpXpXpXpXpXpXpXpXpXpXpXpXpXpXpXpXpXpXpXpX",
"pXpXpXpXpXpXpXpXpXpXQ  .g.h.h.g.g.X.pXpXpXpXpXpXpXpXpXpXpXpXpXpXpXpXpXpXpXpXpXpXpXpXpXpXpXpXpXpXpXpXpXpXpXpXpXpXpXpXpXpXpXpXpXpXpXpXpXpXpXpXpXpXpXpXpXpXpXpXpXpX",
"pXpXpXpXpXpXpXpXpXpXd X.X.X.X. .} h...pXpXpXpXpXpXpXpXpXpXpXpXpXpXpXpXpXpXpXpXpXpXpXpXpXpXpXpXpXpXpXpXpXpXpXpXpXpXpXpXpXpXpXpXpXpXpXpXpXpXpXpXpXpXpXpXpXpXpXpXpX",
"pXpXpXpXpXpXpXpXpXpXpXg m m m D m T T pXpXpXpXpXpXpXpXpXpXpXpXpXpXpXpXpXpXpXpXpXpXpXpXpXpXpXpXpXpXpXpXpXpXpXpXpXpXpXpXpXpXpXpXpXpXpXpXpXpXpXpXpXpXpXpXpXpXpXpXpX",
"pXpXpXpXpXpXpXpXpXpXpXpXpXpXpXpXpXpXpXpXpXpXpXpXpXpXpXpXpXpXpXpXpXpXpXpXpXpXpXpXpXpXpXpXpXpXpXpXpXpXpXpXpXpXpXpXpXpXpXpXpXpXpXpXpXpXpXpXpXpXpXpXpXpXpXpXpXpXpXpX",
"pXpXpXpXpXpXpXpXpXpXpXpXpXpXpXpXpXpXpXpXpXpXpXpXpXpXpXpXpXpXpXpXpXpXpXpXpXpXpXpXpXpXpXpXpXpXpXpXpXpXpXpXpXpXpXpXpXpXpXpXpXpXpXpXpXpXpXpXpXpXpXpXpXpXpXpXpXpXpXpX",
"pXpXpXpXpXpXpXpXpXpXpXpXpXpXpXpXpXpXpXpXpXpXpXpXpXpXpXpXpXpXpXpXpXpXpXpXpXpXpXpXpXpXpXpXpXpXpXpXpXpXpXpXpXpXpXpXpXpXpXpXpXpXpXpXpXpXpXpXpXpXpXpXpXpXpXpXpXpXpXpX",
"pXpXpXpXpXpXpXpXpXpXpXpXpXpXpXpXpXpXpXpXpXpXpXpXpXpXpXpXpXpXpXpXpXpXpXpXpXpXpXpXpXpXpXpXpXpXpXpXpXpXpXpXpXpXpXpXpXpXpXpXpXpXpXpXpXpXpXpXpXpXpXpXpXpXpXpXpXpXpXpX",
"pXpXpXpXpXpXpXpXpXpXpXpXpXpXpXpXpXpXpXpXpXpXpXpXpXpXpXpXpXpXpXpXpXpXpXpXpXpXpXpXpXpXpXpXpXpXpXpXpXpXpXpXpXpXpXpXpXpXpXpXpXpXpXpXpXpXpXpXpXpXpXpXpXpXpXpXpXpXpXpX",
"pXpXpXpXpXpXpXpXpXpXpXpXpXpXpXpXpXpXpXpXpXpXpXpXpXpXpXpXpXpXpXpXpXpXpXpXpXpXpXpXpXpXpXpXpXpXpXpXpXpXpXpXpXpXpXpXpXpXpXpXpXpXpXpXpXpXpXpXpXpXpXpXpXpXpXpXpXpXpXpX",
"pXpXpXpXpXpXpXpXpXpXpXpXpXpXpXpXpXpXpXpXpXpXpXpXpXpXpXpXpXpXpXpXpXpXpXpXpXpXpXpXpXpXpXpXpXpXpXpXpXpXpXpXpXpXpXpXpXpXpXpXpXpXpXpXpXpXpXpXpXpXpXpXpXpXpXpXpXpXpXpX"
};
