/* XPM */
static char *result[] = {
/* columns rows colors chars-per-pixel */
"80 80 222 2 ",
"   c #4D0914",
".  c #5A1418",
"X  c #641B1A",
"o  c #6C1E1B",
"O  c #73241E",
"+  c #762F19",
"@  c #7B2919",
"#  c #561924",
"$  c #561927",
"%  c #5A1F37",
"&  c #5C233C",
"*  c #6C2328",
"=  c #7A2A23",
"-  c #74292A",
";  c #662A39",
":  c #632A3C",
">  c #742A3A",
",  c #733635",
"<  c #5D2743",
"1  c #622A43",
"2  c #6C2940",
"3  c #632D49",
"4  c #66314D",
"5  c #69334B",
"6  c #793842",
"7  c #6A2B5C",
"8  c #6B3752",
"9  c #6D3A55",
"0  c #6F3C5A",
"q  c #713E5D",
"w  c #7D3C59",
"e  c #6F3963",
"r  c #7E414D",
"t  c #7E4253",
"y  c #7A435C",
"u  c #7F4859",
"i  c #5D4067",
"p  c #68456D",
"a  c #734263",
"s  c #764769",
"d  c #684574",
"f  c #794E78",
"g  c #7E5A7E",
"h  c #883619",
"j  c #843225",
"k  c #8C3524",
"l  c #893729",
"z  c #943A23",
"x  c #993B26",
"c  c #953E2A",
"v  c #8F3C3A",
"b  c #A93E36",
"n  c #B93A37",
"m  c #954A0E",
"M  c #9B471C",
"N  c #BB481F",
"B  c #A95618",
"V  c #B95C1A",
"C  c #BB6B0C",
"Z  c #9C4224",
"A  c #9B422B",
"S  c #88453B",
"D  c #984737",
"F  c #9C4535",
"G  c #9E5035",
"H  c #A64725",
"J  c #A2452B",
"K  c #A64A2D",
"L  c #AD4B2B",
"P  c #B2472B",
"I  c #B14E2D",
"U  c #B4522D",
"Y  c #B9562F",
"T  c #BD5B2D",
"R  c #A14733",
"E  c #A64A32",
"W  c #AA4D32",
"Q  c #A54E39",
"!  c #AE5232",
"~  c #B55431",
"^  c #B95532",
"/  c #B65936",
"(  c #BC5A33",
")  c #B7573A",
"_  c #BE5D3A",
"`  c #9B6033",
"'  c #BE602E",
"]  c #D0750E",
"[  c #C5691D",
"{  c #C24F3D",
"}  c #C15E35",
"|  c #C45C38",
" . c #CA742E",
".. c #C56136",
"X. c #C86A36",
"o. c #C4623A",
"O. c #C9663B",
"+. c #CC6A3D",
"@. c #D16D3E",
"#. c #D6733D",
"$. c #833A4A",
"%. c #9A3B4C",
"&. c #873E52",
"*. c #9D3C51",
"=. c #A23D57",
"-. c #854046",
";. c #8B434A",
":. c #974747",
">. c #96544B",
",. c #894755",
"<. c #994B5A",
"1. c #A95747",
"2. c #B85947",
"3. c #A54E50",
"4. c #A75759",
"5. c #B85A51",
"6. c #B35B5C",
"7. c #B6674B",
"8. c #B56954",
"9. c #B86851",
"0. c #874466",
"q. c #8A5869",
"w. c #844D72",
"e. c #A55162",
"r. c #AB5F75",
"t. c #9A696A",
"y. c #966D77",
"u. c #A96962",
"i. c #B06E6E",
"p. c #AD6C76",
"a. c #C25842",
"s. c #C66444",
"d. c #CD6B42",
"f. c #C26C4E",
"g. c #D16E41",
"h. c #D26947",
"j. c #CB714B",
"k. c #D67342",
"l. c #D87442",
"z. c #D67749",
"x. c #D6794C",
"c. c #D87A4E",
"v. c #D86355",
"b. c #D77D53",
"n. c #DA7E53",
"m. c #C15F62",
"M. c #C37468",
"N. c #DA8B0D",
"B. c #D5911C",
"V. c #E29808",
"C. c #DFA50B",
"Z. c #E0A209",
"A. c #BE8659",
"S. c #B69D61",
"D. c #D08E54",
"F. c #D88359",
"G. c #DB825A",
"H. c #DEA94E",
"J. c #DA8963",
"K. c #CC936D",
"L. c #E49271",
"P. c #C4A17F",
"I. c #62508E",
"U. c #615498",
"Y. c #6C75A8",
"T. c #797CAB",
"R. c #8B7485",
"E. c #85728E",
"W. c #937789",
"Q. c #B76A8B",
"!. c #A97987",
"~. c #8A7AA0",
"^. c #B975B1",
"/. c #768EB6",
"(. c #6780CB",
"). c #A88494",
"_. c #BDA890",
"`. c #B7B698",
"'. c #9585A9",
"]. c #8C8CB1",
"[. c #9A95BD",
"{. c #A789A1",
"}. c #BA97A9",
"|. c #A798BD",
" X c #A9A9AD",
".X c #B9B7A5",
"XX c #AEACB7",
"oX c #C9A688",
"OX c #CABC9A",
"+X c #C2B4BA",
"@X c #D7C19C",
"#X c #D5C7A6",
"$X c #C1C1B7",
"%X c #D5D5B6",
"&X c #D7D9BA",
"*X c #9E97C4",
"=X c #9D9DCD",
"-X c #A599C6",
";X c #AAA4C9",
":X c #B4B4C5",
">X c #A5A4D2",
",X c #ACACD6",
"<X c #A5A6D8",
"1X c #AFB0D9",
"2X c #BBBBD3",
"3X c #B6B6D9",
"4X c #BCBCE3",
"5X c #C2B8D8",
"6X c #C7C8C9",
"7X c #D9D9C9",
"8X c #C6C3DF",
"9X c #D3D3D2",
"0X c #E5E5C4",
"qX c #E1E1CD",
"wX c #EBEBDC",
"eX c #C2C2E4",
"rX c #C9CAE0",
"tX c #D0D0F1",
"yX c #F2F2E8",
"uX c #F6F6F4",
"iX c #F8F8F9",
"pX c None",
/* pixels */
"pXpXpXpXpXpXpXpXpXpXpXpXpXpXpXpXpXpXpXpXpXpXpXpXpXpXpXpXpXpXpXpXpXpXpXpXpXpXpXpXpXpXpXpXpXpXpXpXpXpXpXpXpXpXpXpXpXpXpXpXpXpXpXpXpXpXpXpXpXpXpXpXpXpXpXpXpXpXpXpX",
"pXpXpXpXpXpXpXpXpXpXpXpXpXpXpXpXpXpXpXpXpXpXpXpXpXpXpXpXpXpXpXpXpXpXpXpXpXpXpXpXpXpXpXpXpXpXpXpXpXpXpXpXpXpXpXpXpXpXpXpXpXpXpXpXpXpXpXpXpXpXpXpXpXpXpXpXpXpXpXpX",
"pXpXpXpXpXpXpXpXpXpXpXpXpXpXpXpXpXpXpXpXpXpXpXpXpXpXpXpXpXpXpXpXpXpXpXpXpXpXpXpXpXpXpXpXpXpXpXpXpXpXpXpXpXpXpXpXpXpXpXpXpXpXpXpXpXpXpXpXpXpXpXpXpXpXpXpXpXpXpXpX",
"pXpXpXpXpXpXpXpXpXpXpXpXpXpXpXpXpXpXpXpXpXpXpXpXpXpXpXpXpXpXpXpXpXpXpXpXpXpXpXpXpXpXpXpXpXpXpXpXpXpXpXpXpXpXpXpXpXpXpXpXpXpXpXpXpXpXpXpXpXpXpXpXpXpXpXpXpXpXpXpX",
"pXpXpXpXpXpXpXpXpXpXpXpXpXpXpXpXpXpXpXpXpXpXpXpXpXpXpXpXpXpXpXpXpXpXpXpXpXpXpXpXpXpXpXpXpXpXpXpXpXpXpXpXpXpXpXpXpXpXpXpXpXpXpXpXpXpXpXpXpXpXpXpXpXpXpXpXpXpXpXpX",
"pXpXpXpXpXpXpXpXpXpXpXpXpXpXpXpXpXpXpXpXpXpXpXpXpXpXpXpXpXpXpXpXpXpXpXpXpXpXpXpXpXpXpXpXpXpXpXpXpXpXpXpXpXpXpXpXpXpXpXpXpXpXpXpXpXpXpXpXpXpXpXpXpXpXpXpXpXpXpXpX",
"pXpXpXpXpXpXpXpXpXpXpXpXpXpXpXpXpXpXpXpXpXpXpXpXpXpXpXpXpXpXpXpXpXpXpXpXpXpXpXpXpXpXpXpXpXpXpXpXpXpXpXpXpXpXpXpXpXpXpXpXpXpXpXpXpXpXpXpXpXpXpXpXpXpXpXpXpXpXpXpX",
"pXpXpXpXpXpXpXpXpXpXpXpXpXpXpXpXpXpXpXpXpXpXpXpXpXpXpXpXpXpXpXpXpXpXpXpXpXpXpXpXpXpXpXpXpXpXpXpXpXpXpXpXpXpXpXpXpXpXpXpXpXpXpXpXpXpXpXpXpXpXpXpXpXpXpXpXpXpXpXpX",
"pXpXpXpXpXpXpXpXpXpXpXpXpXpXpXpXpXpXpXpXpXpXpXpXpXpXpXpXpXpXpXpXpXpXpXpXpXpXpXpXpXpXpXpXpXpXpXpXpXpXpXpXpXpXpXpXpXpXpXpXpXpXpXpXpXpXpXpXpXpXpXpXpXpXpXpXpXpXpXpX",
"pXpXpXpXpXpXpXpXpXpXpXpXpXpXpXpXpXpXpXpXpXpXpXpXpXpXpXpXpXpXpXpXpXpXpXpXpXpXpXpXpXpXpXpXpXpXpXpXpXpXpXpXpXpXpXpXpXpXpXpXpXpXpXpXpXpXpXpXpXpXpXpXpXpXpXpXpXpXpXpX",
"pXpXpXpXpXpXpXpXpXpXpXpXpXpXpXpXpXpXpXpXpXpXpXpXpXpXpXpXpXpXpXpXpXpXpXpXpXpXpXpXpXpXpXpXpXpXpXpXpXpXpXpXpXpXpXpXpXpXpXpXpXpXpXpXpXpXpXpXpXpXpXpXpXpXpXpXpXpXpXpX",
"pXpXpXpXpXpXpXpXpXpXpXpXpXpXpXpXpXpXpXpXpXpXpXpXpXpXpXpXpXpXpXpXpXpXpXpXpXpXpXpXpXpXpXpXpXpXpXpXpXpXpXpXpXpXpXpXpXpXpXpXpXpXpXpXpXpXpXpXpXpXpXpXpXpXpXpXpXpXpXpX",
"pXpXpXpXpXpXpXpXpXpXpXpXpXpXpXpXpXpXpXpXpXpXpXpXpXpXpXpXpXpXpXpXpXpXpXpXpXpXpXpXpXpXpXpXpXpXpXpXpXpXpXpXpXpXpXpXpXpXpXpXpXpXpXpXpXpXpXpXpXpXpXpXpXpXpXpXpXpXpXpX",
"pXpXpXpXpXpXpXpXpXpXpXpXpXpXpXpXpXpXpXpXpXpXpXpXpXpXpXpXpXpXpXpXpXpXpXpXpXpXpXpXpXpXpXpXpXpXpXpXpXpXpXpXpXpXpXpXpXpXpXpXpXpXpXpXpXpXpXpXpXpXpXpXpXpXpXpXpXpXpXpX",
"pXpXpXpXpXpXpXpXpXpXpXpXpXpXpXpXpXpXpXpXpXpXpXpXpXpXpXpXpXpXpXpXpXpXpXpXpXpXpXpXpXpXpXpXpXpXpXpXpXpXpXpXpXpXpXpXpXpXpXpXpXpXpXpXpXpXpXpXpXpXpXpXpXpXpXpXpXpXpXpX",
"pXpXpXpXpXpXpXpXpXpXpXpXpXpXpXpXpXpXpXpXpXpXpXpXpXpXpXpXpXpXpXpXpXpXpXpXpXpXpXpXpXpXpXpXpXpXpXpXpXpXpXpXpXpXpXpXpXpXpXpXpXpXpXpXpXpXpXpXpXpXpXpXpXpXpXpXpXpXpXpX",
"pXpXpXpXpXpXpXpXpXpXpXpXpXpXpXpXpXpXpXpXpXpXpXpXpXpXpXpXpXpXpXpXpXpXpXpXpXpXpXpXpXpXpXpXpXpXpXpXpXpXpXpXpXpXpXpXpXpXpXpXpXpXpXpXpXpX7XyXpXpXpXpXpXpXpXpXpXpXpXpX",
"pXpXpXpXpXpXpXpXpXpXpXpXpXpXpXpXpXpXpXpXpXpXpXpXpXpXpXpXpXpXpXpXpXpXpXpXpXpXpXpXpXpXpXpXpXpXpXpXpXpXpXpXpXpXpXpXpXpXpXpXpXpXpXpX].6XyXuXuXiXwX`.pXpXpXpXpXpXpXpX",
"pXpXpXpXpXpXpXpXpXpXpXpXpXpXpXpXpXpXpXpXpXpXpXpXpXpXpXpXpXpXpXpXpXpXpXpXpXpXpXpXpXpXpXpXpXpXpXpXpXpXpXpXpXpXpXpXpXpXpXpXpXpXpX].=X2XqXyXuXuXwX%XpXpXpXpXpXpXpXpX",
"pXpXpXpXpXpXpXpXpXpXpXpXpXpXpXpXpXpXpXpXpXpXpXpXpXpXpXpXpXpXpXpXpXpXpXpXpXpXpXpXpXpXpXpXpXpXpXpXpXpXpXpXpXpXpXpXpXpXpXpXpXpXpX;XeX4X3X9X7X0X0X0X$XpXpXpXpXpXpXpX",
"pXpXpXpXpXpXpXpXpXpXpXpXpXpXpXpXpXpXpXpXpXpXpXpXpXpXpXpXpXpXpXpXpXpXpXpXpXpXpXpXpXpXpXpXpXpXpXpXpXpXpXpXpXpXpXpXpXpXpXpXpXpXpX1XtX3XeX2X.X9X9X9X8X XpXpXpXpXpXpX",
"pXpXpXpXpXpXpXpXpXpXpXpXpXpXpXpXpXpXpXpXpXpXpXpXpXpXpXpXpXpXpXpXpXpXpXpXpXpXpXpXpXpXpXpXpXpXpXpXpXpXpXpXpXk.k.k./ U Y T ` /.D..X;Xy.3X+X7.{.4X:X2XXXpXpXpXpXpXpX",
"pXpXpXpXpXpXpXpXpXpXpXpXpXpXpXpXpXpXpXpXpXpXpXpXpXpXpXpXpXpXpXpXpXpXpXpXpXpXpXpXpXpXpXpXpXpXpXpXpXpXpXJ.k.O.O.....z.G.G.O.t.z.A.6 Q W.}.J - '. X:X[.pXpXpXpXpXpX",
"pXpXpXpXpXpXpXpXpXpXpXpXpXpXpXpXpXpXpXpXpXpXpXpXpXpXpXpXpXpXpXpXpXpXpXpXpXpXpXpXpXpXpXpXpXpXpXpXpX^ 7.j.s.M. .+.k.n.L.L.l.+.b ] B O 1.y.>.p S >.E.pXpXpXpXpXpXpX",
"pXpXpXpXpXpXpXpXpXpXpXpXpXpXpXpXpXpXpXpXpXpXpXpXpXpXpXpXpXpXpXpXpXpXpXpXpXpXpXpXpXpXpXpXpX( Y Y } +.#.k.k.^.H.#.k.z.n.b.l.1.p N [ l ) 9.9.j._ o pXpXpXpXpXpXpXpX",
"pXpXpXpXpXpXpXpXpXpXpXpXpXpXpXpXpXpXpXpXpXpXpXpXpXpXpXpXpXpXpXpXpXpXpXpXpXpXpXpXpXpX( +.+.k.l.k.k.k.k.k.k.r.D.X.k.k.l.l.l.D i z Z O E s.o.) k . pXpXpXpXpXpXpXpX",
"pXpXpXpXpXpXpXpXpXpXpXpXpXpXpXpXpXpXpXpXpXpXpXpXpXpXpXpXpXpXpXpXpXpXpXpXpXpXpXpX..+.k.k.l.k.k.k.O.l.l.l.@.5.X.Y K ( ....( m + pXpXpXo A j X pXpXpXpXpXpXpXpXpXpX",
"pXpXpXpXpXpXpXpXpXpXpXpXpXpXpXpXpXpXpXpXpXpXpXpXpXpXpXpXpXpXpXpXpXpXpXpXpXpXi.Q.+.k.k.k.k.l.l.O.c ! ..} F.oXoXp.;.u.oXP.P.S.pXpXpXpXpXpXpXpXpXpXpXpXpXpXpXpXpXpX",
"pXpXpXpXpXpXpXpXpXpXpXpXpXpXpXpXpXpXpXpXpXpXpXpXpXpXpXpXpXpXpXpXpXpXpXpXa. .B.Q.6.#.k.k.l.+.} ( O.O.g.@.J.#X8XeX5X+X&X&X&X`., pXpXpXpXpXpXpXpXpXpXpXpXpXpXpXpXpX",
"pXpXpXpXpXpXpXpXpXpXpXpXpXpXpXpXpXpXpXpXpXpXpXpXpXpXpXpXpXpXpXpXpX..7.Y.i.v.N.9.6.@.d...( A.P.K.k.g.k.k.k.M.}.8X3X6X%X%X&XXXq.:.c pXpXpXpXpXpXpXpXpXpXpXpXpXpXpX",
"pXpXpXpXpXpXpXpXpXpXpXpXpXpXpXpXpXpXpXpXpXpXpXpXpXpXpXpXpXpXpX..g.k.#.u.T.2.[ X.W ^ d.@.+.F.@X#Xf.2.s.2.2.3.4.4.E.eXrXrXrX,Xw.0.,.l pXpXpXpXpXpXpXpXpXpXpXpXpXpX",
"pXpXpXpXpXpXpXpXpXpXpXpXpXpXpXpXpXpXpXpXpXpXpXpXpXpXpXpXpX..g.k.k.l.l._ q.pXpX( O.k.k.l.k.k.b.OXu.e.e.3.F pXpXpXpX,XeXeXeXR.w 0.;.v E Q   . R _ ) k pXpXpXpXpXpX",
"pXpXpXpXpXpXpXpXpXpXpXpXpXpXpXpXpXpXpXpXpXpXpXpXpXpXpXpX} k.k.l.k.+.@.K pXpXd.g.l.k.k.k.k.k.x._.{.r.4.pXpXpXpXpXpXpX,X1X>XpXv &.$.<.2.<.G h _ F Q E = pXpXpXpXpX",
"pXpXpXpXpXpXpXpXpXpXpXpXpXpXpXpXpXpXpXpXpXpXpXpXpXpXpX~ k.l.k...~ _ ( pXpXd.k.k.k.l.z.k.k.k.O.{.<X-X,.pXpXpXpXpXpXpXpXpXpXpXpX- $.0.&.0.V $.D o = ) A . pXpXpXpX",
"pXpXpXpXpXpXpXpXpXpXpXpXpXpXpXpXpXpXpXpXpXpXpXpXpXpXpX~ @.+.Y J K / pXpXpX+.l.k.k.G.b.k.k.k.9.*X=X=Xg 1 pXpXpXpXpXpXpXpXpXpXpXpX2 w &.&.G :.<   pXR j pXpXpXpXpX",
"pXpXpXpXpXpXpXpXpXpXpXpXpXpXpXpXpXpXpXpXpXpXpXpXpXpXpXJ ^ K pXpXj pXpXpXpXk.k.k.b.J.l.k.k.@.).<X<X~.a a a 5 pXpXpXpXpXpXpXpXpXpXpXX j j j k . pXpXpXpXpXpXpXpXpX",
"pXpXpXpXpXpXpXpXpXpXpXpXpXpXpXpXpXpXpXpXpXpXpXpXpXpXpXpXpXpXpXpXpXpXpXpXU @.k.k.J.G.k.k.k.f.|.<X'.s a a a a q 8 $ pXpXpXpXpXpXpXpXpXpXpXpXpXpXpXpXpXpXpXpXpXpXpX",
"pXpXpXpXpXpXpXpXpXpXpXpXpXpXpXpXpXpXpXpXpXpXpXpXpXpXpXpXpXpXpXpXpXpXpXpXd.k.k.c.J.z.k.k.k.7.>X[.f a a a a a a a q 5 : pXpXpXpXpXpXpXpXpXpXpXpXpXpXpXpXpXpXpXpXpX",
"pXpXpXpXpXpXpXpXpXpXpXpXpXpXpXpXpXpXpXpXpXpXpXpXpXpXpXpXpXpXpXpXpXpXpXd.k.k.k.G.n.k.k.k.@.!.*Xg a a a a a a a a a a a 8 5 pXpXpXpXpXpXpXpXpXpXpXpXpXpXpXpXpXpXpX",
"pXpXpXpXpXpXpXpXpXpXpXpXpXpXpXpXpXpXpXpXpXpXpXpXpXpXpXpXpXpXpXpXpXpXpXk.k.k.l.b.l.k.k.l.( q.a a a a a a a a a a a a a a a q ; pXpXpXpXpXpXpXpXpXpXpXpXpXpXpXpXpX",
"pXpXpXpXpXpXpXpXpXpXpXpXpXpXpXpXpXpXpXpXpXpXpXpXpXpXpXpXpXpXpXpXpXpXpXk.k.k.c.z.k.k.k.k.A # : a a a a a a a a a a a a a a a 0 5 pXpXpXpXpXpXpXpXpXpXpXpXpXpXpXpX",
"pXpXpXpXpXpXpXpXpXpXpXpXpXpXpXpXpXpXpXpXpXpXpXpXpXpXpXpXpXpXpXpXpXpXg.k.k.l.c.k.k.k.k.g.pXpXpX8 a a a a a a a a a a a a a a a a 9 $ pXpXpXpXpXpXpXpXpXpXpXpXpXpX",
"pXpXpXpXpXpXpXpXpXpXpXpXpXpXpXpXpXpXpXpXpXpXpXpXpXpXpXpXpXpXpXpXpXpXk.k.k.k.k.k.k.k.g.} pXpXpXpX5 a a a a a a a a a a a a a a a a 6 x pXpXpXpXpXpXpXpXpXpXpXpXpX",
"pXpXpXpXpXpXpXpXpXpXpXpXpXpXpXpXpXpXpXpXpXpXpXpXpXpXpXpXpXpXpXpXpXk.k.k.k.k.k.k.k.k...pXpXpXpXpXpX5 q a a a a a a a a a a a a a a y F A pXpXpXpXpXpXpXpXpXpXpXpX",
"pXpXpXpXpXpXpXpXpXpXpXpXpXpXpXpXpXpXpXpXpXpXpXpXpXpXpXpXpXpXpXpXpXk.k.k.k.k.k.k.k.g.pXpXpXpXpXpXpXpX: 8 a a a a a a a a a a a a a a ;.I J pXpXpXpXpXpXpXpXpXpXpX",
"pXpXpXpXpXpXpXpXpXpXpXpXpXpXpXpXpXpXpXpXpXpXpXpXpXpXpXpXpXpXpXpX+.k.k.k.k.k.k.k.g.pXpXpXpXpXpXpXpXpXpXpX$ ; q 8 a a a a a a a a a a y E ~ A pXpXpXpXpXpXpXpXpXpX",
"pXpXpXpXpXpXpXpXpXpXpXpXpXpXpXpXpXpXpXpXpXpXpXpXpXpXpXpXpXpXpXo.k.k.k.k.k.k.k.g.pXpXpXpXpXpXpXpXpXpXpXpXpXpXpXpX9 & 1 a a a a a a a a R ~ I pXpXpXpXpXpXpXpXpXpX",
"pXpXpXpXpXpXpXpXpXpXpXpXpXpXpXpXpXpXpXpXpXpXpXpXpXpXpXpXpXd.+./ k.k.k.k.k.k.g.pXpXpXpXpXpXpXpXpXpXpXpXpXpXpXpXpXpXpXpXpX# : 0 a a a a R ~ I x pXpXpXpXpXpXpXpXpX",
"pXpXpXpXpXpXpXpXpXpXpXpXpXpXpXpXpXpXpXpXpXpXpXpXpXpXpX..g.k./ o.l.k.k.k.k.g.pXpXpXpXpXpXpXpXpXpXpXpXpXpXpXpXpXpXpXpXpXpXpXpX# : 9 a a F L J pXpXpXpXpXpXpXpXpXpX",
"pXpXpXpXpXpXpXpXpXpXpXpXpXpXpXpXpXpXpXpXpXpXpXpXpXpX{ ..l.../ g.k.k.k.k.} pXpXpXpXpXpXpXpXpXpXpXpXpXpXpXpXpXpXpXpXpXpXpXpXpXo 6 & 4 a t t * pXpXpXpXpXpXpXpXpXpX",
"pXpXpXpXpXpXpXpXpXpXpXpXpXpXpXpXpXpXpXpXpXpXpXpXf.~.m.d.l.O.O.k.l.k.k...pXpXpXpXpXpXpXpXpXpXpXpXpXpXpXpXpXpXpXpXpXpXpXpXpXz L ,.a 4 < < & pXpXpXpXpXpXpXpXpXpXpX",
"pXpXpXpXpXpXpXpXpXpXpXpXpXpXpXpXpXpXpXpXpXpXpXpXg.W.!.h.@.l.+.O.@.@.O.pXpXpXpXpXpXpXpXpXpXpXpXpXpXpXpXpXpXpXpXpXpXpXpXpXj n P t a 8 3 % pXpXpXpXpXpXpXpXpXpXpXpX",
"pXpXpXpXpXpXpXpXpXpXpXpXpXpXpXpXpXpXpXpXpXpXpXg.k.8./.6.| k.k.( H H pXpXpXpXpXpXpXpXpXpXpXpXpXpXpXpXpXpXpXpXpXpXpXpXpX# r 0.n %.a a a 8 pXpXpXpXpXpXpXpXpXpXpXpX",
"pXpXpXpXpXpXpXpXpXpXpXpXpXpXpXpXpXpXpXpXpXpXd.k.k.@.t.T.5.( +.O.pXpXpXpXpXpXpXpXpXpXpXpXpXpXpXpXpXpXpXpXpXpXpXpXpXpXpX$ q u f =.*.*.*.> pXpXpXpXpXpXpXpXpXpXpXpX",
"pXpXpXpXpXpXpXpXpXpXpXpXpXpXpXpXpXpXpXpXpXpXk.k.k.k.+.R.(.p.^ pXpXpXpXpXpXpXpXpXpXpXpXpXpXpXpXpXpXpXpXpXpXpXpXpXpXpXpX# 9 y y I.U.U.d pXpXpXpXpXpXpXpXpXpXpXpXpX",
"pXpXpXpXpXpXpXpXpXpXpXpXpXpXpXpXpXpXpXpXpXO.k.k.k.k.k.d.y.t.pXpXpXpXpXpXpXpXpXpXpXpXpXpXpXpXpXpXpXpXpXpXpXpXpXpXpXpXpXpX$ q a q 0 1 $ pXpXpXpXpXpXpXpXpXpXpXpXpX",
"pXpXpXpXpXpXpXpXpXpXpXpXpXpXpXpXpXpXpXpX..k.k.k.k.k.g.O.pXpXpXpXpXpXpXpXpXpXpXpXpXpXpXpXpXpXpXpXpXpXpXpXpXpXpXpXpXpXpXpX= ; a & $   pXpXpXpXpXpXpXpXpXpXpXpXpXpX",
"pXpXpXpXpXpXpXpXpXpXpXpXpXpXpXpXpXpXpX} k.k.k.k.k.@...pXpXpXpXpXpXpXpXpXpXpXpXpXpXpXpXpXpXpXpXpXpXpXpXpXpXpXpXpXpXpXpXpX$.9 a a 0 pXpXpXpXpXpXpXpXpXpXpXpXpXpXpX",
"pXpXpXpXpXpXpXpXpXpXpXpXpXpXpXpXpXpXd.k.k.k.k.k.O.pXpXpXpXpXpXpXpXpXpXpXpXpXpXpXpXpXpXpXpXpXpXpXpXpXpXpXpXpXpXpXpXpXpX@ -.a a q : pXpXpXpXpXpXpXpXpXpXpXpXpXpXpX",
"pXpXpXpXpXpXpXpXpXpXpXpXpXpXpXpXpXpXk.l.k.k.k.d.pXpXpXpXpXpXpXpXpXpXpXpXpXpXpXpXpXpXpXpXpXpXpXpXpXpXpXpXpXpXpXpXpXpXpXZ ;.a a 9 pXpXpXpXpXpXpXpXpXpXpXpXpXpXpXpX",
"pXpXpXpXpXpXpXpXpXpXpXpXpXpXpXpXpX/ k.k.k.k.d.pXpXpXpXpXpXpXpXpXpXpXpXpXpXpXpXpXpXpXpXpXpXpXpXpXpXpXpXpXpXpXpXpXpXpXpXZ 6 e q : pXpXpXpXpXpXpXpXpXpXpXpXpXpXpXpX",
"pXpXpXpXpXpXpXpXpXpXpXpXpXpXpXpXpX' g.l.k.d.pXpXpXpXpXpXpXpXpXpXpXpXpXpXpXpXpXpXpXpXpXpXpXpXpXpXpXpXpXpXpXpXpXpXpXpXm V c A S pXpXpXpXpXpXpXpXpXpXpXpXpXpXpXpXpX",
"pXpXpXpXpXpXpXpXpXpXpXpXpXpXpXpX[ C.X.+._ pXpXpXpXpXpXpXpXpXpXpXpXpXpXpXpXpXpXpXpXpXpXpXpXpXpXpXpXpXpXpXpXpXpXpXpXpXM C C B M O pXpXpXpXpXpXpXpXpXpXpXpXpXpXpXpX",
"pXpXpXpXpXpXpXpXpXpXpXpXpXpXpX .Z.N.N.V pXpXpXpXpXpXpXpXpXpXpXpXpXpXpXpXpXpXpXpXpXpXpXpXpXpXpXpXpXpXpXpXpXpXpXpXpXL F > H Z k L J pXpXpXpXpXpXpXpXpXpXpXpXpXpXpX",
"pXpXpXpXpXpXpXpXpXpXpXpXpXpX} O.B.V.] B pXpXpXpXpXpXpXpXpXpXpXpXpXpXpXpXpXpXpXpXpXpXpXpXpXpXpXpXpXpXpXpXpXpXpXpXpXI F % 7 7 * I ~ L x pXpXpXpXpXpXpXpXpXpXpXpXpX",
"pXpXpXpXpXpXpXpXpXpXpXpXpX/ +.k.+.T H pXpXpXpXpXpXpXpXpXpXpXpXpXpXpXpXpXpXpXpXpXpXpXpXpXpXpXpXpXpXpXpXpXpXpXpXpXH U F 1 1 < - I ~ ~ ~ L k = z pXpXpXpXpXpXpXpXpX",
"pXpXpXpXpXpXpXpXpXpXpXpXpXO.k.k.g.g.O.pXpXpXpXpXpXpXpXpXpXpXpXpXpXpXpXpXpXpXpXpXpXpXpXpXpXpXpXpXpXpXpXpXpXpXpXpXL ^ D q 3 3 6 L ^ ^ ^ ^ ^ J A z pXpXpXpXpXpXpXpX",
"pXpXpXpXpXpXpXpXpXpXpXpXJ O.l.k.O...pXpXpXpXpXpXpXpXpXpXpXpXpXpXpXpXpXpXpXpXpXpXpXpXpXpXpXpXpXpXpXpXpXpXpXpXpXpXk k ; 3 3 3 # h k k k k k k k O pXpXpXpXpXpXpXpX",
"pXpXpXpXpXpXpXpXpXpXpXpX( k.k.l._ ! pXpXpXpXpXpXpXpXpXpXpXpXpXpXpXpXpXpXpXpXpXpXpXpXpXpXpXpXpXpXpXpXpXpXpXpXpXpXpXpXpXpXpXpXpXpXpXpXpXpXpXpXpXpXpXpXpXpXpXpXpXpX",
"pXpXpXpXpXpXpXpXpXpXpXW k.k.k.l.O.A pXpXpXpXpXpXpXpXpXpXpXpXpXpXpXpXpXpXpXpXpXpXpXpXpXpXpXpXpXpXpXpXpXpXpXpXpXpXpXpXpXpXpXpXpXpXpXpXpXpXpXpXpXpXpXpXpXpXpXpXpXpX",
"pXpXpXpXpXpXpXpXpXpXpX_ g.k.k.k.l.E pXpXpXpXpXpXpXpXpXpXpXpXpXpXpXpXpXpXpXpXpXpXpXpXpXpXpXpXpXpXpXpXpXpXpXpXpXpXpXpXpXpXpXpXpXpXpXpXpXpXpXpXpXpXpXpXpXpXpXpXpXpX",
"pXpXpXpXpXpXpXpXpXpX! k.k.k.k.g.k.O.pXpXpXpXpXpXpXpXpXpXpXpXpXpXpXpXpXpXpXpXpXpXpXpXpXpXpXpXpXpXpXpXpXpXpXpXpXpXpXpXpXpXpXpXpXpXpXpXpXpXpXpXpXpXpXpXpXpXpXpXpXpX",
"pXpXpXpXpXpXpXpXpXpXk ! W E K c j j pXpXpXpXpXpXpXpXpXpXpXpXpXpXpXpXpXpXpXpXpXpXpXpXpXpXpXpXpXpXpXpXpXpXpXpXpXpXpXpXpXpXpXpXpXpXpXpXpXpXpXpXpXpXpXpXpXpXpXpXpXpX",
"pXpXpXpXpXpXpXpXpXpXpXpXpXpXpXpXpXpXpXpXpXpXpXpXpXpXpXpXpXpXpXpXpXpXpXpXpXpXpXpXpXpXpXpXpXpXpXpXpXpXpXpXpXpXpXpXpXpXpXpXpXpXpXpXpXpXpXpXpXpXpXpXpXpXpXpXpXpXpXpX",
"pXpXpXpXpXpXpXpXpXpXpXpXpXpXpXpXpXpXpXpXpXpXpXpXpXpXpXpXpXpXpXpXpXpXpXpXpXpXpXpXpXpXpXpXpXpXpXpXpXpXpXpXpXpXpXpXpXpXpXpXpXpXpXpXpXpXpXpXpXpXpXpXpXpXpXpXpXpXpXpX",
"pXpXpXpXpXpXpXpXpXpXpXpXpXpXpXpXpXpXpXpXpXpXpXpXpXpXpXpXpXpXpXpXpXpXpXpXpXpXpXpXpXpXpXpXpXpXpXpXpXpXpXpXpXpXpXpXpXpXpXpXpXpXpXpXpXpXpXpXpXpXpXpXpXpXpXpXpXpXpXpX",
"pXpXpXpXpXpXpXpXpXpXpXpXpXpXpXpXpXpXpXpXpXpXpXpXpXpXpXpXpXpXpXpXpXpXpXpXpXpXpXpXpXpXpXpXpXpXpXpXpXpXpXpXpXpXpXpXpXpXpXpXpXpXpXpXpXpXpXpXpXpXpXpXpXpXpXpXpXpXpXpX",
"pXpXpXpXpXpXpXpXpXpXpXpXpXpXpXpXpXpXpXpXpXpXpXpXpXpXpXpXpXpXpXpXpXpXpXpXpXpXpXpXpXpXpXpXpXpXpXpXpXpXpXpXpXpXpXpXpXpXpXpXpXpXpXpXpXpXpXpXpXpXpXpXpXpXpXpXpXpXpXpX",
"pXpXpXpXpXpXpXpXpXpXpXpXpXpXpXpXpXpXpXpXpXpXpXpXpXpXpXpXpXpXpXpXpXpXpXpXpXpXpXpXpXpXpXpXpXpXpXpXpXpXpXpXpXpXpXpXpXpXpXpXpXpXpXpXpXpXpXpXpXpXpXpXpXpXpXpXpXpXpXpX",
"pXpXpXpXpXpXpXpXpXpXpXpXpXpXpXpXpXpXpXpXpXpXpXpXpXpXpXpXpXpXpXpXpXpXpXpXpXpXpXpXpXpXpXpXpXpXpXpXpXpXpXpXpXpXpXpXpXpXpXpXpXpXpXpXpXpXpXpXpXpXpXpXpXpXpXpXpXpXpXpX"
};
