/* XPM */
static char *result[] = {
/* columns rows colors chars-per-pixel */
"80 80 214 2 ",
"   c #490817",
".  c #5B0914",
"X  c #591415",
"o  c #5E161B",
"O  c #661F0B",
"+  c #6C201B",
"@  c #79291A",
"#  c #4E0E22",
"$  c #53162A",
"%  c #52152D",
"&  c #6A1D25",
"*  c #6B1D2E",
"=  c #59243A",
"-  c #6C2629",
";  c #772A27",
":  c #652738",
">  c #792C3E",
",  c #7A353A",
"<  c #7E4A36",
"1  c #611D44",
"2  c #681859",
"3  c #592644",
"4  c #642B47",
"5  c #752E44",
"6  c #6D3D48",
"7  c #733644",
"8  c #7B3B49",
"9  c #6D2A5D",
"0  c #693451",
"q  c #6A3756",
"w  c #783853",
"e  c #733F5C",
"r  c #703660",
"t  c #713E61",
"y  c #76425D",
"u  c #7C4258",
"i  c #734263",
"p  c #715377",
"a  c #863417",
"s  c #852D2E",
"d  c #873326",
"f  c #8B3625",
"g  c #8B362A",
"h  c #8C392A",
"j  c #943C27",
"k  c #993E26",
"l  c #953E29",
"z  c #993F28",
"x  c #843838",
"c  c #B9382A",
"v  c #A63537",
"b  c #BC393A",
"n  c #C63C31",
"m  c #9C4F14",
"M  c #9A4919",
"N  c #AB5E09",
"B  c #A64B1E",
"V  c #A6561A",
"C  c #B65C16",
"Z  c #B7640D",
"A  c #B46815",
"S  c #97412B",
"D  c #9C432C",
"F  c #9F482F",
"G  c #89443D",
"H  c #95463B",
"J  c #A34224",
"K  c #AA4725",
"L  c #AB4927",
"P  c #A3462B",
"I  c #A54A2E",
"U  c #AD4B2B",
"Y  c #B4492A",
"T  c #B14E2C",
"R  c #B4512E",
"E  c #BA592D",
"W  c #A44932",
"Q  c #A44A37",
"!  c #AB4E32",
"~  c #BB4D31",
"^  c #AE5234",
"/  c #AD533B",
"(  c #B55332",
")  c #B95633",
"_  c #B65935",
"`  c #BC5B34",
"'  c #B6583A",
"]  c #BC5B3A",
"[  c #95623F",
"{  c #AD6A32",
"}  c #BF6039",
"|  c #CF5619",
" . c #C06713",
".. c #C77617",
"X. c #C05435",
"o. c #C15E36",
"O. c #C15E3B",
"+. c #C36428",
"@. c #C67927",
"#. c #C46136",
"$. c #CB6A36",
"%. c #C5633A",
"&. c #C9663C",
"*. c #CC6A3D",
"=. c #D16E3E",
"-. c #D4713E",
";. c #D8733F",
":. c #863B43",
">. c #913E45",
",. c #853D58",
"<. c #AD3B4A",
"1. c #B53A41",
"2. c #89444A",
"3. c #954848",
"4. c #9A584A",
"5. c #884656",
"6. c #8F4E5B",
"7. c #965757",
"8. c #A75C47",
"9. c #A6564D",
"0. c #BA5D43",
"q. c #B35A57",
"w. c #AE694E",
"e. c #B9694A",
"r. c #A9675A",
"t. c #BB6A55",
"y. c #854165",
"u. c #95496F",
"i. c #A35363",
"p. c #966369",
"a. c #A86A66",
"s. c #B7656A",
"d. c #C14D44",
"f. c #CC5749",
"g. c #C66342",
"h. c #C96543",
"j. c #CD6A42",
"k. c #CA6B46",
"l. c #D16E41",
"z. c #D67342",
"x. c #D87543",
"c. c #D6794C",
"v. c #D8784B",
"b. c #CB6255",
"n. c #C87B57",
"m. c #D77D55",
"M. c #D97E54",
"N. c #CC716B",
"B. c #D4880D",
"V. c #CD8D15",
"C. c #E6841D",
"Z. c #E3A614",
"A. c #D78D36",
"S. c #B08C76",
"D. c #CE8257",
"F. c #D9835A",
"G. c #C88767",
"H. c #DA8664",
"J. c #CC9372",
"K. c #E18F6E",
"L. c #CFAD65",
"P. c #B7CC74",
"I. c #565495",
"U. c #7A4E87",
"Y. c #73558B",
"T. c #685793",
"R. c #7C6989",
"E. c #7F7091",
"W. c #9C5286",
"Q. c #847A96",
"!. c #AE6A8B",
"~. c #7389C4",
"^. c #8E8786",
"/. c #978D96",
"(. c #A9818E",
"). c #A18396",
"_. c #ABA293",
"`. c #BCBB9A",
"'. c #918CAF",
"]. c #998EB7",
"[. c #B58EA7",
"{. c #B498A9",
"}. c #A398BB",
"|. c #ACA6A7",
" X c #B7B7A2",
".X c #CE9F98",
"XX c #CAB595",
"oX c #C0B6A7",
"OX c #C9CAA9",
"+X c #D4CCAD",
"@X c #D4D5B4",
"#X c #D8D8BD",
"$X c #9F9AC9",
"%X c #9EA0D4",
"&X c #A5A3CD",
"*X c #AAAAC8",
"=X c #B4B4C9",
"-X c #A9AAD7",
";X c #B6B4D7",
":X c #BDBDE3",
">X c #C7BDD6",
",X c #C1C1CC",
"<X c #CDCECE",
"1X c #CFD0C7",
"2X c #D7D7C5",
"3X c #C7C7DB",
"4X c #E7E7CA",
"5X c #EAEADE",
"6X c #C5C5E7",
"7X c #C6C6EA",
"8X c #C7CAEA",
"9X c #F2F2E8",
"0X c #F6F6F4",
"qX c None",
/* pixels */
"qXqXqXqXqXqXqXqXqXqXqXqXqXqXqXqXqXqXqXqXqXqXqXqXqXqXqXqXqXqXqXqXqXqXqXqXqXqXqXqXqXqXqXqXqXqXqXqXqXqXqXqXqXqXqXqXqXqXqXqXqXqXqXqXqXqXqXqXqXqXqXqXqXqXqXqXqXqXqXqX",
"qXqXqXqXqXqXqXqXqXqXqXqXqXqXqXqXqXqXqXqXqXqXqXqXqXqXqXqXqXqXqXqXqXqXqXqXqXqXqXqXqXqXqXqXqXqXqXqXqXqXqXqXqXqXqXqXqXqXqXqXqXqXqXqXqXqXqXqXqXqXqXqXqXqXqXqXqXqXqXqX",
"qXqXqXqXqXqXqXqXqXqXqXqXqXqXqXqXqXqXqXqXqXqXqXqXqXqXqXqXqXqXqXqXqXqXqXqXqXqXqXqXqXqX@X0X9XqXqXqXqXqXqXqXqXqXqXqXqXqXqXqXqXqXqXqXqXqXqXqXqXqXqXqXqXqXqXqXqXqXqXqX",
"qXqXqXqXqXqXqXqXqXqXqXqXqXqXqXqXqXqXqXqXqXqXqXqXqXqXqXqXqXqXqXqXqXqXqXqXqXqXqXqX'.&X5X0X0X0X9X2XqXqXqXqXqXqXqXqXqXqXqXqXqXqXqXqXqXqXqXqXqXqXqXqXqXqXqXqXqXqXqXqX",
"qXqXqXqXqXqXqXqXqXqXqXqXqXqXqXqXqXqXqXqXqXqXqXqXqXqXqXqXqXqXqXqXqXqXqXqXqXqXqXqX&X-X,X2X5X9X9X4XOXqXqXqXqXqXqXqXqXqXqXqXqXqXqXqXqXqXqXqXqXqXqXqXqXqXqXqXqXqXqXqX",
"qXqXqXqXqXqXqXqXqXqXqXqXqXqXqXqXqXqXqXqXqXqXqXqXqXqXqXqXqXqXqXqXqXqXqXqXqXqXqX].6X8X:X>X1X#X4X#X2X*XqXqXqXqXqXqXqXqXqXqXqXqXqXqXqXqXqXqXqXqXqXqXqXqXqXqXqXqXqXqX",
"qXqXqXqXqXqXqXqXqXqXqXqXqXqXqXqXqXqXqXqXqXqXqXqXqXqXqXqXqXqXqXqXqXqXqXqXqXqXqXqX7X=X*X7X_.|.3X3X3X:XqXqXqXqXqXqXqXqXqXqXqXqXqXqXqXqXqXqXqXqXqXqXqXqXqXqXqXqXqXqX",
"qXqXqXqXqXqXqXqXqXqXqXqXqXqXqXqXqXqXqXqXqXqXqXqXqXqXqXqXqXqXqXqXqXqXqXqXqXqXqXqX}.6.).;XN.H Q.;X|.;XqXqXqXqXqXqXqXqXqXqXqXqXqXqXqXqXqXqXqXqXqXqXqXqXqXqXqXqXqXqX",
"qXqXqXqXqXqXqXqXqXqXqXqXqXqXqXqXqXqXqXqXqXqXqXqXqXqXqXqXqXqXqXqXqXqXqXqXqXqXqXqX3.h H /.r.; = ).^.'.qXqXqXqXqXqXqXqXqXqXqXqXqXqXqXqXqXqXqXqXqXqXqXqXqXqXqXqXqXqX",
"qXqXqXqXqXqXqXqXqXqXqXqXqXqXqXqXqXqXqXqXqXqXqXqXqXqXqXqXqXqXqXqXqXqXqXqXqXqXqX{ -.D d t.a.a.2.D 6 qXqXqXqXqXqXqXqXqXqXqXqXqXqXqXqXqXqXqXqXqXqXqXqXqXqXqXqXqXqXqX",
"qXqXqXqXqXqXqXqXqXqXqXqXqXqXqXqXqXqXqXqXqXqXqXqXqXqXqXqXqXqXqXqXqXqXqXqXqX^.N.Z.$.%.h h.t.j.j.h qXqXqXqXqXqXqXqXqXqXqXqXqXqXqXqXqXqXqXqXqXqXqXqXqXqXqXqXqXqXqXqX",
"qXqXqXqXqXqXqXqXqXqXqXqXqXqXqXqXqXqXqXqXqXqXqXqXqXqXqXqXqXqXqXqXqXk I ( V.P.N.C...E @ ) %.W h X qXqXqXqXqXqXqXqXqXqXqXqXqXqXqXqXqXqXqXqXqXqXqXqXqXqXqXqXqXqXqXqX",
"qXqXqXqXqXqXqXqXqXqXqXqXqXqXqXqXqXqXqXqXqXqXqXqXqXqXqXqXqXqXqXqX) %.z.H.F.[ s n |  .x ; @ X qXqXqXqXqXqXqXqXqXqXqXqXqXqXqXqXqXqXqXqXqXqXqXqXqXqXqXqXqXqXqXqXqXqX",
"qXqXqXqXqXqXqXqXqXqXqXqXqXqXqXqXqXqXqXqXqXqXqXqXqXqXqXqXqXqXqXI %.z.M.K.K.&.7 y.1.Y 5.5.o qXqXqXqXqXqXqXqXqXqXqXqXqXqXqXqXqXqXqXqXqXqXqXqXqXqXqXqXqXqXqXqXqXqXqX",
"qXqXqXqXqXqXqXqXqXqXqXqXqXqXqXqXqXqXqXqXqXqXqXqXqX) ) ) &.b.A.+.%.z.x.c.c.x./ I.T.{ 2.: 4 5   qXqXqXqXqXqXqXqXqXqXqXqXqXqXqXqXqXqXqXqXqXqXqXqXqXqXqXqXqXqXqXqXqX",
"qXqXqXqXqXqXqXqXqXqXqXqXqXqXqXqXqXqXqXqXqXqXo.o.z.z.l.l.z.g.J.V.*.x.=.=.z.x.` A V.N : w y.,.m x j qXqXl U U qXqXqXqXqXqXqXqXqXqXqXqXqXqXqXqXqXqXqXqXqXqXqXqXqXqX",
"qXqXqXqXqXqXqXqXqXqXqXqXqXqXqXqXqXqXqXqXqX_ z.z.z.z.z.z.x.j.!.A.+.z.o.#.=.*.w.L.L.< w ,.y.H @.i.( W k ' g.O.T qXqXqXqXqXqXqXqXqXqXqXqXqXqXqXqXqXqXqXqXqXqXqXqXqX",
"qXqXqXqXqXqXqXqXqXqXqXqXqXqXqXqXqXqXqXqXqX] x.z.z.z._ z.x.-.q.e.B Q ; g 4.r.XXOX@X_.= # : M w.9.g.g.] ) g.g.] qXqXqXqXqXqXqXqXqXqXqXqXqXqXqXqXqXqXqXqXqXqXqXqXqX",
"qXqXqXqXqXqXqXqXqXqXqXqXqXqXqXqXqXqXqXqXqX} x.z.z.z.I l d 8.J.S.(.[.[.[.=X<X@XOXOX@X`.qXqX% : x 0.g.' ! g.g.g.Q 1 qXqXqXqXqXqXqXqXqXqXqXqXqXqXqXqXqXqXqXqXqXqXqX",
"qXqXqXqXqXqXqXqXqXqXqXqXqXqXqXqXqXqXqXqXqX&.z.z.z.l.D qXX S.+X#X8X8X8X:X7X<X@X@X X@X`.qXqXqXqXqXd h S O.g.g.' W.6.@ . qXqXqXqXqXqXqXqXqXqXqXqXqXqXqXqXqXqXqXqXqX",
"qXqXqXqXqXqXqXqXqXqXqXqXqXqXqXqXqXqXqXqXqXS z.z.x.} qXqXE z.x.J..X.X>X;X6X3X1X#X=X<X XqXqXqXqXqXqXqXD ) ( O.3.u...C :.= qXqXqXqXqXqXqXqXqXqXqXqXqXqXqXqXqXqXqXqX",
"qXqXqXqXqXqXqXqXqXqXqXqXqXqXqXqXqXqXqXqXqX; l.z.x.} qXqXo.x.z.z.-.z.H.{.6X7X8X3X*X=X_.qXqXqXqXqXqXqXqXqXqXL > :.N v T.5.` qXqXqXqXqXqXqXqXqXqXqXqXqXqXqXqXqXqXqX",
"qXqXqXqXqXqXqXqXqXqXqXqXqXqXqXqXqXqXqXqXqXqX*.z.x.} qXqXj.z.z.z.z.z.;.t.].;X;X-X/.qXqXqXqXqXqXqXqXqXqXqXqXqXqXX a & p 0.g.O.( ( ( ( ) qXqXqXqXqXqXqXqXqXqXqXqXqX",
"qXqXqXqXqXqXqXqXqXqXqXqXqXqXqXqXqXqXqXqXqXqX%.x.x.^ qX&.z.=.l.x.z.k.q.; qXqXqXqXqXqXqXqXqXqXqXqXqXqXqXqXqXqXqXqXqXqX7 g.g.g.) R ! ] O.] qXqXqXqXqXqXqXqXqXqXqXqX",
"qXqXqXqXqXqXqXqXqXqXqXqXqXqXqXqXqXqXqXqXqXqXl #.%.>.qXn.D.J.n.0.q.i.5 qXqXqXqXqXqXqXqXqXqXqXqXqXqXqXqXqXqXqXqXqXqXqXqX] g.g.^ ^ ' k T ] ) qXqXqXqXqXqXqXqXqXqXqX",
"qXqXqXqXqXqXqXqXqXqXqXqXqXqXqXqXqXqXqXqXqXqXu.!.!.2.G G.XX+XoXy 5.5.qXqXqXqXqXqXqXqXqXqXqXqXqXqXqXqXqXqXqXqXqXqXqXqXqXqXW S d qXS qXqXqXqXqXqXqXqXqXqXqXqXqXqXqX",
"qXqXqXqXqXqXqXqXqXqXqXqXqXqXqXqXqXqXqXqXqXqX' @.@.V 4.j.c.c.G.}.$X].qXqXqXqXqXqXqXqXqXqXqXqXqXqXqXqXqXqXqXqXqXqXqXqXqXqXqXqXqXqXqXqXqXqXqXqXqXqXqXqXqXqXqXqXqXqX",
"qXqXqXqXqXqXqXqXqXqXqXqXqXqXqXqXqXqXqXqXqXqXa ....z D x.z.z.z.G.&X&XqXqXqXqXqXqXqXqXqXqXqXqXqXqXqXqXqXqXqXqXqXqXqXqXqXqXqXqXqXqXqXqXqXqXqXqXqXqXqXqXqXqXqXqXqXqX",
"qXqXqXqXqXqXqXqXqXqXqXqXqXqXqXqXqXqXqXqXqXqX& d.b.3._ x.z.z.z.*.(.%XqXqXqXqXqXqXqXqXqXqXqXqXqXqXqXqXqXqXqXqXqXqXqXqXqXqXqXqXqXqXqXqXqXqXqXqXqXqXqXqXqXqXqXqXqXqX",
"qXqXqXqXqXqXqXqXqXqXqXqXqXqXqXqXqXqXqXqXqXqXqXR.Q.p.I z.z.z.x.*.!.%XqXqXqXqXqXqXqXqXqXqXqXqXqXqXqXqXqXqXqXqXqXqXqXqXqXqXqXqXqXqXqXqXqXqXqXqXqXqXqXqXqXqXqXqXqXqX",
"qXqXqXqXqXqXqXqXqXqXqXqXqXqXqXqXqXqXqXqXqXqXqX8.8.*.^ *.x.z.z.z.e.).qXqXqXqXqXqXqXqXqXqXqXqXqXqXqXqXqXqXqXqXqXqXqXqXqXqXqXqXqXqXqXqXqXqXqXqXqXqXqXqXqXqXqXqXqXqX",
"qXqXqXqXqXqXqXqXqXqXqXqXqXqXqXqXqXqXqXqXqXqXqX! x.x.*._ l.z.M.v.-.o.U qXqXqXqXqXqXqXqXqXqXqXqXqXqXqXqXqXqXqXqXqXqXqXqXqXqXqXqXqXqXqXqXqXqXqXqXqXqXqXqXqXqXqXqXqX",
"qXqXqXqXqXqXqXqXqXqXqXqXqXqXqXqXqXqXqXqXqXqXqXF x.z.x.} D x.m.H.M.x.*.%.qXqXqXqXqXqXqXqXqXqXqXqXqXqXqXqXqXqXqXqXqXqXqXqXqXqXqXqXqXqXqXqXqXqXqXqXqXqXqXqXqXqXqXqX",
"qXqXqXqXqXqXqXqXqXqXqXqXqXqXqXqXqXqXqXqXqXqXd *.x.x.&.^ ^ z.x.M.H.F.x.z.z.&.) qXqXqXqXqXqXqXqXqXqXqXqXqXqXqXqXqXqXqXqXqXqXqXqXqXqXqXqXqXqXqXqXqXqXqXqXqXqXqXqXqX",
"qXqXqXqXqXqXqXqXqXqXqXqXqXqXqXqXqXqXqXqXqXqXP *.x.x.' S ` *.z.z.c.H.F.x.z.z.=.o.qXqXqXqXqXqXqXqXqXqXqXqXqXqXqXqXqXqXqXqXqXqXqXqXqXqXqXqXqXqXqXqXqXqXqXqXqXqXqXqX",
"qXqXqXqXqXqXqXqXqXqXqXqXqXqXqXqXqXqXqXqXqXqXW D x.x.' + D *.x.z.z.x.m.m.x.z.z.z.%.qXqXqXqXqXqXqXqXqXqXqXqXqXqXqXqXqXqXqXqXqXqXqXqXqXqXqXqXqXqXqXqXqXqXqXqXqXqXqX",
"qXqXqXqXqXqXqXqXqXqXqXqXqXqXqXqXqXqXqXqXqX_ h h z.x.( _ %.z.z.z.z.z.z.v.x.z.z.z.z.&.qXqXqXqXqXqXqXqXqXqXqXqXqXqXqXqXqXqXqXqXqXqXqXqXqXqXqXqXqXqXqXqXqXqXqXqXqXqX",
"qXqXqXqXqXqXqXqXqXqXqXqXqXqXqXqXqXqXqXqXS S qXo %.*.H *.x.z.z.z.z.z.z.z.z.z.z.z.z.z.j.) qXqXqXqXqXqXqXqXqXqXqXqXqXqXqXqXqXqXqXqXqXqXqXqXqXqXqXqXqXqXqXqXqXqXqXqX",
"qXqXqXqXqXqXqXqXqXqXqXqXqXqXqXqXqXqXqXqXqXqXqXX _ _ 8 3.g.j.z.z.x.z.z.z.z.z.z.z.z.z.x.=.R qXqXqXqXqXqXqXqXqXqXqXqXqXqXqXqXqXqXqXqXqXqXqXqXqXqXqXqXqXqXqXqXqXqXqX",
"qXqXqXqXqXqXqXqXqXqXqXqXqXqXqXqXqXqXqXqXqXqXqX4 > :.i i 2.' h.j.l.z.z.z.z.z.z.z.z.z.z.x.*.` qXqXqXqXqXqXqXqXqXqXqXqXqXqXqXqXqXqXqXqXqXqXqXqXqXqXqXqXqXqXqXqXqXqX",
"qXqXqXqXqXqXqXqXqXqXqXqXqXqXqXqXqXqXqXqXqXqXD y i i i i i 5.Q ] g.h.j.l.z.z.z.z.z.z.z.z.z.z.` qXqXqXqXqXqXqXqXqXqXqXqXqXqXqXqXqXqXqXqXqXqXqXqXqXqXqXqXqXqXqXqXqX",
"qXqXqXqXqXqXqXqXqXqXqXqXqXqXqXqXqXqXqXqXqXqXW y i i i i i i y >.] O.g.g.h.l.l.z.z.z.z.z.z.z.z.%.qXqXqXqXqXqXqXqXqXqXqXqXqXqXqXqXqXqXqXqXqXqXqXqXqXqXqXqXqXqXqXqX",
"qXqXqXqXqXqXqXqXqXqXqXqXqXqXqXqXqXqXqXqXqX( W y i i i i i i r 2 qXqX] ( g.g.g.j.j.z.z.z.z.z.z.z.o.qXqXqXqXqXqXqXqXqXqXqXqXqXqXqXqXqXqXqXqXqXqXqXqXqXqXqXqXqXqXqX",
"qXqXqXqXqXqXqXqXqXqXqXqXqXqXqXqXqXqXqXqXqXT W y i i i i i t 2 qXqXqXqXqXU ( ] g.g.h.j.l.z.z.z.z.z.R qXqXqXqXqXqXqXqXqXqXqXqXqXqXqXqXqXqXqXqXqXqXqXqXqXqXqXqXqXqX",
"qXqXqXqXqXqXqXqXqXqXqXqXqXqXqXqXqXqXqXqXU ( W y i i i i t 2 qXqXqXqXqXqXqXqXqXR O.g.g.g.l.z.z.z.z.R qXqXqXqXqXqXqXqXqXqXqXqXqXqXqXqXqXqXqXqXqXqXqXqXqXqXqXqXqXqX",
"qXqXqXqXqXqXqXqXqXqXqXqXqXqXqXqXqXqXqXqXL ( W y i i i i 9 qXqXqXqXqXqXqXqXqXqXqXL ) g.g.j.z.z.z.l.qXqXqXqXqXqXqXqXqXqXqXqXqXqXqXqXqXqXqXqXqXqXqXqXqXqXqXqXqXqXqX",
"qXqXqXqXqXqXqXqXqXqXqXqXqXqXqXqXqXqXqXU U ( W y i i i 9 qXqXqXqXqXqXqXqXqXqXqXqXqXqXQ g.g.j.z.x.*.qXqXqXqXqXqXqXqXqXqXqXqXqXqXqXqXqXqXqXqXqXqXqXqXqXqXqXqXqXqXqX",
"qXqXqXqXqXqXqXqXqXqXqXqXqXqXqXqXqXK J U R ( W y i i e qXqXqXqXqXqXqXqXqXqXqXqXqXqXqXo / g.g.l.x.#.qXqXqXqXqXqXqXqXqXqXqXqXqXqXqXqXqXqXqXqXqXqXqXqXqXqXqXqXqXqXqX",
"qXqXqXqXqXqXqXqXqXqXqXqXqXqXqXc Y ( ( ( ( ( W y i 4 $ qXqXqXqXqXqXqXqXqXqXqXqXqXqXqX; P O.g.j.l.R qXqXqXqXqXqXqXqXqXqXqXqXqXqXqXqXqXqXqXqXqXqXqXqXqXqXqXqXqXqXqX",
"qXqXqXqXqXqXqXqXqXqXqXqXqXT 7.<.n ( ( ( ( T 3.i 4 qXqXqXqXqXqXqXqXqXqXqXqXqXqXqXqXqXJ *.` g.g.g.` qXqXqXqXqXqXqXqXqXqXqXqXqXqXqXqXqXqXqXqXqXqXqXqXqXqXqXqXqXqXqX",
"qXqXqXqXqXqXqXqXqXqXqXqXU ( / Y.1.~ ( T U I u 0 qXqXqXqXqXqXqXqXqXqXqXqXqXqXqXqXqXqXR z.z.z.h.g.O.qXqXqXqXqXqXqXqXqXqXqXqXqXqXqXqXqXqXqXqXqXqXqXqXqXqXqXqXqXqXqX",
"qXqXqXqXqXqXqXqXqXqXqXqXR ( ( p Y.b ~ f - 8 0 $ qXqXqXqXqXqXqXqXqXqXqXqXqXqXqXqXqXqX~ X.` o.l.h.O.qXqXqXqXqXqXqXqXqXqXqXqXqXqXqXqXqXqXqXqXqXqXqXqXqXqXqXqXqXqXqX",
"qXqXqXqXqXqXqXqXqXqXqXU ( ( ( ( Y.U.<.,.3     qXqXqXqXqXqXqXqXqXqXqXqXqXqXqXqXqXqXQ p.s.b.f.f.f.s.qXqXqXqXqXqXqXqXqXqXqXqXqXqXqXqXqXqXqXqXqXqXqXqXqXqXqXqXqXqXqX",
"qXqXqXqXqXqXqXqXqXqXqXT ( ( ( T 5.I.T.v * qXqXqXqXqXqXqXqXqXqXqXqXqXqXqXqXqXqXqXqX/ Q.~.Q.E.E.E.7.qXqXqXqXqXqXqXqXqXqXqXqXqXqXqXqXqXqXqXqXqXqXqXqXqXqXqXqXqXqXqX",
"qXqXqXqXqXqXqXqXqXqXk ( ( ( T 3.i e 3 qXqXqXqXqXqXqXqXqXqXqXqXqXqXqXqXqXqXqXqXqXqX) h.n.e.8.8.e.) qXqXqXqXqXqXqXqXqXqXqXqXqXqXqXqXqXqXqXqXqXqXqXqXqXqXqXqXqXqXqX",
"qXqXqXqXqXqXqXqXqXqXI ( ( ! 2.e e 7 qXqXqXqXqXqXqXqXqXqXqXqXqXqXqXqXqXqXqXqXqXqXqX) j.z.z.z.z.h.( qXqXqXqXqXqXqXqXqXqXqXqXqXqXqXqXqXqXqXqXqXqXqXqXqXqXqXqXqXqXqX",
"qXqXqXqXqXqXqXqXqXU ( ( U , 4 : , qXqXqXqXqXqXqXqXqXqXqXqXqXqXqXqXqXqXqXqXqXqXqXqXqXO.z.z.z.j.g.o.qXqXqXqXqXqXqXqXqXqXqXqXqXqXqXqXqXqXqXqXqXqXqXqXqXqXqXqXqXqXqX",
"qXqXqXqXqXqXqXqXU ( ( R x : 7 qXqXqXqXqXqXqXqXqXqXqXqXqXqXqXqXqXqXqXqXqXqXqXqXqXqXqXT &.z.j.g.j.#.qXqXqXqXqXqXqXqXqXqXqXqXqXqXqXqXqXqXqXqXqXqXqXqXqXqXqXqXqXqXqX",
"qXqXqXqXqXqXqXk ( ( T H y 8 qXqXqXqXqXqXqXqXqXqXqXqXqXqXqXqXqXqXqXqXqXqXqXqXqXqXqXqXqX] h.g.h.z.&.qXqXqXqXqXqXqXqXqXqXqXqXqXqXqXqXqXqXqXqXqXqXqXqXqXqXqXqXqXqXqX",
"qXqXqXqXqXqXX M P I G w , qXqXqXqXqXqXqXqXqXqXqXqXqXqXqXqXqXqXqXqXqXqXqXqXqXqXqXqXqXqX( g.h.l.x.*.qXqXqXqXqXqXqXqXqXqXqXqXqXqXqXqXqXqXqXqXqXqXqXqXqXqXqXqXqXqXqX",
"qXqXqXqXqX@ m Z Z M - qXqXqXqXqXqXqXqXqXqXqXqXqXqXqXqXqXqXqXqXqXqXqXqXqXqXqXqXqXqXqXqXqXo.l.z.x.*.qXqXqXqXqXqXqXqXqXqXqXqXqXqXqXqXqXqXqXqXqXqXqXqXqXqXqXqXqXqXqX",
"qXqXqXqXP P Z Z Z N qXqXqXqXqXqXqXqXqXqXqXqXqXqXqXqXqXqXqXqXqXqXqXqXqXqXqXqXqXqXqXqXqXqX&.z.z.x.*.qXqXqXqXqXqXqXqXqXqXqXqXqXqXqXqXqXqXqXqXqXqXqXqXqXqXqXqXqXqXqX",
"qXqXqXK R j f V N O qXqXqXqXqXqXqXqXqXqXqXqXqXqXqXqXqXqXqXqXqXqXqXqXqXqXqXqXqXqXqXqXqXqX%.z.z.x.*.qXqXqXqXqXqXqXqXqXqXqXqXqXqXqXqXqXqXqXqXqXqXqXqXqXqXqXqXqXqXqX",
"qXqXqXT ) d 0 i = # qXqXqXqXqXqXqXqXqXqXqXqXqXqXqXqXqXqXqXqXqXqXqXqXqXqXqXqXqXqXqXqXqXqXo.z.z.z.*.qXqXqXqXqXqXqXqXqXqXqXqXqXqXqXqXqXqXqXqXqXqXqXqXqXqXqXqXqXqXqX",
"qXqXT ( ( g 4 0 4 q # qXqXqXqXqXqXqXqXqXqXqXqXqXqXqXqXqXqXqXqXqXqXqXqXqXqXqXqXqXqXqXqXqXo.z.x.x.*.qXqXqXqXqXqXqXqXqXqXqXqXqXqXqXqXqXqXqXqXqXqXqXqXqXqXqXqXqXqXqX",
"qXL ( ( R h = = t i e $ qXqXqXqXqXqXqXqXqXqXqXqXqXqXqXqXqXqXqXqXqXqXqXqXqXqXqXqXqXqXqXqX) #.#.z.*.qXqXqXqXqXqXqXqXqXqXqXqXqXqXqXqXqXqXqXqXqXqXqXqXqXqXqXqXqXqXqX",
"qXT ( ( ( ; 0 e y u G l P P qXqXqXqXqXqXqXqXqXqXqXqXqXqXqXqXqXqXqXqXqXqXqXqXqXqXqXqXqXqXV B.B.+.E qXqXqXqXqXqXqXqXqXqXqXqXqXqXqXqXqXqXqXqXqXqXqXqXqXqXqXqXqXqXqX",
"qXP P P D 8 > & D I R ( ( ( U f qXqXqXqXqXqXqXqXqXqXqXqXqXqXqXqXqXqXqXqXqXqXqXqXqXqXqXqXB ..Z.B...qXqXqXqXqXqXqXqXqXqXqXqXqXqXqXqXqXqXqXqXqXqXqXqXqXqXqXqXqXqXqX",
"qXqXqXqXqXqXqXqXj k z z z z k qXqXqXqXqXqXqXqXqXqXqXqXqXqXqXqXqXqXqXqXqXqXqXqXqXqXqXqXqX+..... .A qXqXqXqXqXqXqXqXqXqXqXqXqXqXqXqXqXqXqXqXqXqXqXqXqXqXqXqXqXqXqX",
"qXqXqXqXqXqXqXqXqXqXqXqXqXqXqXqXqXqXqXqXqXqXqXqXqXqXqXqXqXqXqXqXqXqXqXqXqXqXqXqXqXqXqXT &.` &.$.-.` qXqXqXqXqXqXqXqXqXqXqXqXqXqXqXqXqXqXqXqXqXqXqXqXqXqXqXqXqXqX",
"qXqXqXqXqXqXqXqXqXqXqXqXqXqXqXqXqXqXqXqXqXqXqXqXqXqXqXqXqXqXqXqXqXqXqXqXqXqXqXqXqXqXqX` *.*.z.%.x.*.qXqXqXqXqXqXqXqXqXqXqXqXqXqXqXqXqXqXqXqXqXqXqXqXqXqXqXqXqXqX",
"qXqXqXqXqXqXqXqXqXqXqXqXqXqXqXqXqXqXqXqXqXqXqXqXqXqXqXqXqXqXqXqXqXqXqXqXqXqXqXqXqXqXqX*.*.*.l.%.x.z.o.qXqXqXqXqXqXqXqXqXqXqXqXqXqXqXqXqXqXqXqXqXqXqXqXqXqXqXqXqX",
"qXqXqXqXqXqXqXqXqXqXqXqXqXqXqXqXqXqXqXqXqXqXqXqXqXqXqXqXqXqXqXqXqXqXqXqXqXqXqXqXqXqXE z.l.#.*.%.z.z.*.qXqXqXqXqXqXqXqXqXqXqXqXqXqXqXqXqXqXqXqXqXqXqXqXqXqXqXqXqX",
"qXqXqXqXqXqXqXqXqXqXqXqXqXqXqXqXqXqXqXqXqXqXqXqXqXqXqXqXqXqXqXqXqXqXqXqXqXqXqXqXqXqX` =.x.*.` =.z.z.l.o.qXqXqXqXqXqXqXqXqXqXqXqXqXqXqXqXqXqXqXqXqXqXqXqXqXqXqXqX",
"qXqXqXqXqXqXqXqXqXqXqXqXqXqXqXqXqXqXqXqXqXqXqXqXqXqXqXqXqXqXqXqXqXqXqXqXqXqXqXqXqXqXqXR ) _ %.z.z.z.z.l.qXqXqXqXqXqXqXqXqXqXqXqXqXqXqXqXqXqXqXqXqXqXqXqXqXqXqXqX",
"qXqXqXqXqXqXqXqXqXqXqXqXqXqXqXqXqXqXqXqXqXqXqXqXqXqXqXqXqXqXqXqXqXqXqXqXqXqXqXqXqXqXqXqXqXqXS *.x.z.x.*.j T qXqXqXqXqXqXqXqXqXqXqXqXqXqXqXqXqXqXqXqXqXqXqXqXqXqX",
"qXqXqXqXqXqXqXqXqXqXqXqXqXqXqXqXqXqXqXqXqXqXqXqXqXqXqXqXqXqXqXqXqXqXqXqXqXqXqXqXqXqXqXqXqXqXqXI l.x.z.z.l.l.o.) qXqXqXqXqXqXqXqXqXqXqXqXqXqXqXqXqXqXqXqXqXqXqXqX",
"qXqXqXqXqXqXqXqXqXqXqXqXqXqXqXqXqXqXqXqXqXqXqXqXqXqXqXqXqXqXqXqXqXqXqXqXqXqXqXqXqXqXqXqXqXqXqXqX( *.*.=.x.x.x.l.%.qXqXqXqXqXqXqXqXqXqXqXqXqXqXqXqXqXqXqXqXqXqXqX",
"qXqXqXqXqXqXqXqXqXqXqXqXqXqXqXqXqXqXqXqXqXqXqXqXqXqXqXqXqXqXqXqXqXqXqXqXqXqXqXqXqXqXqXqXqXqXqXqXqXK K L _ _ _ _ ) qXqXqXqXqXqXqXqXqXqXqXqXqXqXqXqXqXqXqXqXqXqXqX",
"qXqXqXqXqXqXqXqXqXqXqXqXqXqXqXqXqXqXqXqXqXqXqXqXqXqXqXqXqXqXqXqXqXqXqXqXqXqXqXqXqXqXqXqXqXqXqXqXqXqXqXqXqXqXqXqXqXqXqXqXqXqXqXqXqXqXqXqXqXqXqXqXqXqXqXqXqXqXqXqX"
};
