/* XPM */
static char *result[] = {
/* columns rows colors chars-per-pixel */
"80 80 219 2 ",
"   c #40000D",
".  c #4D0A11",
"X  c #5A1514",
"o  c #631716",
"O  c #76281B",
"+  c #7F3019",
"@  c #4C0D21",
"#  c #4B1027",
"$  c #501122",
"%  c #52152A",
"&  c #551B32",
"*  c #591F36",
"=  c #671C27",
"-  c #6C1F31",
";  c #5B223B",
":  c #732927",
">  c #7B2C23",
",  c #662936",
"<  c #793030",
"1  c #482247",
"2  c #5F2843",
"3  c #59365D",
"4  c #612A45",
"5  c #6F2D45",
"6  c #642E4A",
"7  c #722E46",
"8  c #6E3244",
"9  c #66304D",
"0  c #733A4B",
"q  c #6B3756",
"w  c #6F3D5C",
"e  c #703E5F",
"r  c #5E396D",
"t  c #6D4754",
"y  c #7E4655",
"u  c #7C445B",
"i  c #734263",
"p  c #6E4A74",
"a  c #78647F",
"s  c #8B3614",
"d  c #8C371D",
"f  c #853227",
"g  c #8B3624",
"h  c #8D3825",
"j  c #8D3B2C",
"k  c #923A24",
"l  c #993925",
"z  c #943D2A",
"x  c #863934",
"c  c #BA3C2C",
"v  c #BA383B",
"b  c #96540E",
"n  c #9A4719",
"m  c #AA5A0E",
"M  c #AB4A1E",
"N  c #AC5817",
"B  c #B65B1A",
"V  c #B9680A",
"C  c #B57218",
"Z  c #9B4223",
"A  c #9C432C",
"S  c #994638",
"D  c #9D553F",
"F  c #A04226",
"G  c #A94424",
"H  c #AC4B26",
"J  c #A2452B",
"K  c #A44A2E",
"L  c #AC4B2B",
"P  c #B7462D",
"I  c #B14E2D",
"U  c #B5522D",
"Y  c #B9572C",
"T  c #A24632",
"R  c #A44A32",
"E  c #AB4D33",
"W  c #A04D3C",
"Q  c #B14F30",
"!  c #AD5133",
"~  c #AC513A",
"^  c #B55231",
"/  c #BA5536",
"(  c #B65935",
")  c #BC5A34",
"_  c #B3543A",
"`  c #BA503F",
"'  c #BD5B39",
"]  c #BE6726",
"[  c #BF613A",
"{  c #C87706",
"}  c #C56B1C",
"|  c #DB6F1E",
" . c #CB7714",
".. c #C15E36",
"X. c #C15E3C",
"o. c #C8593E",
"O. c #C8692B",
"+. c #C97627",
"@. c #C26335",
"#. c #CD6C37",
"$. c #C5633B",
"%. c #C9663C",
"&. c #CC6A3D",
"*. c #D06D3E",
"=. c #CD7036",
"-. c #D17332",
";. c #D5713F",
":. c #843D45",
">. c #833D4F",
",. c #8C3D5B",
"<. c #AC3947",
"1. c #93444F",
"2. c #9C5149",
"3. c #874756",
"4. c #965858",
"5. c #A0494A",
"6. c #A55644",
"7. c #B75A44",
"8. c #A75756",
"9. c #B35B58",
"0. c #946D59",
"q. c #B9634D",
"w. c #A86154",
"e. c #B86B51",
"r. c #BB775D",
"t. c #8A4C69",
"y. c #85576B",
"u. c #904473",
"i. c #80547A",
"p. c #A65173",
"a. c #956E6D",
"s. c #9B6976",
"d. c #A5686A",
"f. c #B76E6A",
"g. c #A76D73",
"h. c #CB584A",
"j. c #D25347",
"k. c #C65C57",
"l. c #C66342",
"z. c #C96642",
"x. c #CD6A42",
"c. c #C56548",
"v. c #D16E41",
"b. c #CB7343",
"n. c #D67342",
"m. c #D87543",
"M. c #D47649",
"N. c #D67A4C",
"B. c #DC7C4E",
"V. c #D86858",
"C. c #C87955",
"Z. c #D67954",
"A. c #D97D52",
"S. c #CD7E61",
"D. c #AF9333",
"F. c #D3860E",
"G. c #D68A1A",
"H. c #DD9515",
"J. c #DBAB12",
"K. c #E2A50F",
"L. c #CB8525",
"P. c #EC8D3D",
"I. c #CC8E58",
"U. c #D68253",
"Y. c #DC845E",
"T. c #C58461",
"R. c #DB8A64",
"E. c #D29271",
"W. c #E18D6C",
"Q. c #E5916E",
"!. c #B7CE68",
"~. c #595C9E",
"^. c #6A529B",
"/. c #696395",
"(. c #4F60B7",
"). c #6E78B0",
"_. c #954E94",
"`. c #856B88",
"'. c #987985",
"]. c #8B7B95",
"[. c #A76D81",
"{. c #B46588",
"}. c #7583A5",
"|. c #7785B8",
" X c #9B869C",
".X c #B1AD8D",
"XX c #8686A7",
"oX c #8C8CB2",
"OX c #A392B7",
"+X c #B1A8B2",
"@X c #B8B9B9",
"#X c #D6AB83",
"$X c #D4B38E",
"%X c #C6B79A",
"&X c #D6BD98",
"*X c #D6C49B",
"=X c #CBC5A6",
"-X c #CDCAAF",
";X c #D6D4B3",
":X c #D7DBBA",
">X c #9B99C7",
",X c #A69FC1",
"<X c #9EA0C3",
"1X c #A5A5C8",
"2X c #B8B8CD",
"3X c #A5A2D1",
"4X c #A8A9D6",
"5X c #B6B6D5",
"6X c #BCBDE2",
"7X c #C1BFD9",
"8X c #D8D8C8",
"9X c #C0C0DC",
"0X c #E5E5CC",
"qX c #EAEAD7",
"wX c #CCCDE7",
"eX c #F4F4EC",
"rX c #F6F6F3",
"tX c #F8F8F8",
"yX c None",
/* pixels */
"yXyXyXyXyXyXyXyXyXyXyXyXyXyXyXyXyXyXyXyXyXyXyXyXyXyXyXyXyXyXyXyXyXyXyXyXyXyXyXyXyXyXyXyXyXyXyXyXyXyXyXyXyXyXyXyXyXyXyXyXyXyXyXyXyXyXyXyXyXyXyXyXyXyXyXyXyXyXyXyX",
"yXyXyXyXyXyXyXyXyXyXyXyXyXyXyXyXyXyXyXyXyXyXyXyXyXyXyXyXyXyXyXyXyXyXyXyXyXyXyXyXyXyXyXyXyXyXyXyXyXyXyXyXyXyXyXyXyXyXyXyXyXyXyXyXyXyXyXyXyXyXyXyXyXyXyXyXyXyXyXyX",
"yXyXyXyXyXyXyXyXyXyXyXyXyXyXyXyXyXyXyXyXyXyXyXyXyXyXyXyXyXyXyXyXyXyXyXyXyXyXyXyXyXyXyXyXyXyXyXyXyXyXyXyXyXyXyXyXyXyXyXyXyXyXyXyXyXyXyXyXyXyXyXyXyXyXyXyXyXyXyXyX",
"yXyXyXyXyXyXyXyXyXyXyXyXyXyXyXyXyXyXyXyXyXyXyXyXyXyXyXyXyXyXyXyXyXyXyXyXyXyXyXyXyXyXyXyXyXyXyXyXyXyXyXyXyXyXyXyXyXyXyXyXyXyXyXyXyXyXyXyXyXyXyXyXyXyXyXyXyXyXyXyX",
"yXyXyXyXyXyXyXyXyXyXyXyXyXyXyXyXyXyXyXyXyXyXyXyXyXyXyXyXyXyXyXyXyXyXyXyXyXyXyXyXyXyXyXyXyXyXyXyXyXyXyXyXyXyXyXyXyXyXyXyXyXyXyXyXyXyXyXyXyXyXyXyXyXyXyXyXyXyXyXyX",
"yXyXyXyXyXyXyXyXyXyXyXyXyXyXyXyXyXyXyXyXyXyXyXyXyXyXyXyXyXyXyXyXyXyXyXyXyXyXyXyXyXyXyXyXyXyXyXyXyXyXyXyXyXyXyXyXyXyXyXyXyXyXyXyXyXyXyXyXyXyXyXyXyXyXyXyXyXyXyXyX",
"yXyXyXyXyXyXyXyXyXyXyXyXyXyXyXyXyXyXyXyXyXyXyXyXyXyXyXyXyXyXyXyXyXyXyXyXyXyXyXyXyXyXyXyXyXyXyXyXyXyXyXyXyXyXyXyXyXyXyXyXyXyXyXyXyXyXyXyXyXyXyXyXyXyXyXyXyXyXyXyX",
"yXyXyXyXyXyXyXyXyXyXyXyXyXyXyXyXyXyXyXyXyXyXyXyXyXyXyXyXyXyXyXyXyXyXyXyXyXyXyXyXyXyXyXyXyXyXyXyXyXyXyXyXyXyXyXyXyXyXyXyXyXyXyXyXyXyXyXyXyXyXyXyXyXyXyXyXyXyXyXyX",
"yXyXyXyXyXyXyXyXyXyXyXyXyXyXyXyXyXyXyXyXyXyXyXyXyXyXyXyXyXyXyXyXyXyXyXyXyXyXyXyXyXyXyXyXyXyXyXyXyXyXyXyXyXyXyXyXyXyXyXyXyXyXyXyXyXyXyXyXyXyXyXyXyXyXyXyXyXyXyXyX",
"yXyXyXyXyXyXyXyXyXyXyXyXyXyXyXyXyXyXyXyXyXyXyXyXyXyXyXyXyXyXyXyXyXyXyXyXyXyXyXyXyXyXyXyXyXyXyXyXyXyXyXyXyXyXyXyXyXyXyXyXyXyXyXyXyXyXyXyXyXyXyXyXyXyXyXyXyXyXyXyX",
"yXyXyXyXyXyXyXyXyXyXyXyXyXyXyXyXyXyXyXyXyXyXyXyXyXyXyXyXyXyXyXyXyXyXyXyXyXyXyXyXyXyXyXyXyXyXyXyXyXyXyXyXyXyXyXyXyXyXyXyXyXyXyXyXyXyXyXyXyXyXyXyXyXyXyXyXyXyXyXyX",
"yXyXyXyXyXyXyXyXyXyXyXyXyXyXyXyXyXyXyXyXyXyXyXyXyXyXyXyXyXyXyXyXyXyXyXyXyXyXyXyXyXyXyXyXyXyXyXyXyXyXyXyXyXyXyXyXyXyXyXyXyXyXyXyXyXyXyXyXyXyXyXyXyXyXyXyXyXyXyXyX",
"yXyXyXyXyXyXyXyXyXyXyXyXyXyXyXyXyXyXyXyXyXyXyXyXyXyXyXyXyXyXyXyXyXyXyXyXyXyXyXyXyXyXyXyXyXyXyXyXyXyXyXyXyXyXyXyX@XqXtXrXrX0XyXyXyXyXyXyXyXyXyXyXyXyXyXyXyXyXyXyX",
"yXyXyXyXyXyXyXyXyXyXyXyXyXyXyXyXyXyXyXyXyXyXyXyXyXyXyXyXyXyXyXyXyXyXyXyXyXyXyXyXyXyXyXyXyXyXyXyXyXyXyXyXyXyXyX>X2X0XeXtXtXrX8XyXyXyXyXyXyXyXyXyXyXyXyXyXyXyXyXyX",
"yXyXyXyXyXyXyXyXyXyXyXyXyXyXyXyXyXyXyXyXyXyXyXyXyXyXyXyXyXyXyXyXyXyXyXyXyXyXyXyXyXyXyXyXyXyXyXyXyXyXyXyXyXyXXX1X6X2X8X0XqXqX0X-XyXyXyXyXyXyXyXyXyXyXyXyXyXyXyXyX",
"yXyXyXyXyXyXyXyXyXyXyXyXyXyXyXyXyXyXyXyXyXyXyXyXyXyXyXyXyXyXyXyXyXyXyXyXyXyXyXyXyXyXyXyXyXyXyXyXyXyXyXyXyXyXoX6X6X6X9X@X8X8X8XwXyXyXyXyXyXyXyXyXyXyXyXyXyXyXyXyX",
"yXyXyXyXyXyXyXyXyXyXyXyXyXyXyXyXyXyXyXyXyXyXyXyXyXyXyXyXyXyXyXyXyXyXyXyXyXyXyXyXyXyXyXyXyXyXyXyXyXyXyXyXyXyXXX,X].5X5X'. X5XwX5X6XyXyXyXyXyXyXyXyXyXyXyXyXyXyXyX",
"yXyXyXyXyXyXyXyXyXyXyXyXyXyXyXyXyXyXyXyXyXyXyXyXyXyXyXyXyXyXyXyXyXyXyXyXyXyXyXyXyXyXyXyXyXyXyXyX../ C !.OXP.D.0 6. X1X4.> a.+X4X1XyXyXyXyXyXyXyXyXyXyXyXyXyXyXyX",
"yXyXyXyXyXyXyXyXyXyXyXyXyXyXyXyXyXyXyXyXyXyXyXyXyXyXyXyXyXyXyXyXyXyXyXyXyXyXyXyXyXyXyXyX) &.n.n.n.&.C J.XXZ.K.Z > 2.].a 3 f 6.yXyXyXyXyXyXyXyXyXyXyXyXyXyXyXyXyX",
"yXyXyXyXyXyXyXyXyXyXyXyXyXyXyXyXyXyXyXyXyXyXyXyXyXyXyXyXyXyXyXyXyXyXyXyXyXyXyXyXyXyXyXX.v.v.n.n.v.&.+.J.}.p.| ] f _ q.s.g.' O yXyXyXyXyXyXyXyXyXyXyXyXyXyXyXyXyX",
"yXyXyXyXyXyXyXyXyXyXyXyXyXyXyXyXyXyXyXyXyXyXyXyXyXyXyXyXyXyXyXyXyXyXyXyXyXyXyXyXyXyX..n.n.n.&.v.x.$.@.m 0.^.c M > E z.l.$.A X yXyXyXyXyXyXyXyXyXyXyXyXyXyXyXyXyX",
"yXyXyXyXyXyXyXyXyXyXyXyXyXyXyXyXyXyXyXyXyXyXyXyXyXyXyXyXyXyXyXyXyXyXyXyXyXyXyXyXyXyXM.n.n.n.n.n.B.Q.W.^ t (.>.yXyXO E A O yXyXyXyXyXyXyXyXyXyXyXyXyXyXyXyXyXyXyX",
"yXyXyXyXyXyXyXyXyXyXyXyXyXyXyXyXyXyXyXyXyXyXyXyXyXyXyXyXyXyXyXyXyXyXyXyXyXyXyXyXyX.X$XN.n.&.%.n.A.W.R.n.] 0.yXyXyXyXX yXyXyXyXyXyXyXyXyXyXyXyXyXyXyXyXyXyXyXyXyX",
"yXyXyXyXyXyXyXyXyXyXyXyXyXyXyXyXyXyXyXyXyXyXyXyXyXyXyXyXyXyXyXyXyXyXyXyXyXyXyXyXT.=X;X#XN.&.$.n.m.N.M.n.I.L.yXyXyXyXyXyXyXyXyXyXyXyXyXyXyXyXyXyXyXyXyXyXyXyXyXyX",
"yXyXyXyXyXyXyXyXyXyXyXyXyXyXyXyXyXyXyXyXyXyXyXyXyXyXyXyXyXyXyXyXyXyXyXyXyXyXyXyXx.E.;X;X*Xr.A m.n.n.n.M..X,   yXyXyXyXyXyXyXyXyXyXyXyXyXyXyXyXyXyXyXyXyXyXyXyXyX",
"yXyXyXyXyXyXyXyXyXyXyXyXyXyXyXyXyXyXyXyXyXyXyXyXyXyXyXyXyXyXyXyXyXyXyXyXyXyXyXyXn.m.#X;X:X%Xj ' n.n.[ r.a.7 7 7 yXyXyXyXyXyXyXyXyXyXyXyXyXyXyXyXyXyXyXyXyXyXyXyX",
"yXyXyXyXyXyXyXyXyXyXyXyXyXyXyXyXyXyXyXyXyXyXyXyXyXyXyXyXyXyXyXyXyXyXyXyXyXyXyX$.v.n.m.R.&X*X+.b @.n.D =X.Xt.3.t.1.yXyXyXyXyXyXyXyXyXyXyXyXyXyXyXyXyXyXyXyXyXyXyX",
"yXyXyXyXyXyXyXyXyXyXyXyXyXyXyXyXyXyXyXyXyXyXyXyXyXyXyXyXyXyXyXyXyXyXyXyXyXyXyX%.v.n.n.n.N.T.E.I.G.+.6.-X+Xt.,._.8.B yXyXyXyXyXyXyXyXyXyXyXyXyXyXyXyXyXyXyXyXyXyX",
"yXyXyXyXyXyXyXyXyXyXyXyXyXyXyXyXyXyXyXyXyXyXyXyXyXyXyXyXyXyXyXyXyXyXyXyXyXyXT.R.N.n.n.m.n.) 7.f.f.b.4.7X1X0 u.2.{ H d yXyXyXyXyXyXyXyXyXyXyXyXyXyXyXyXyXyXyXyXyX",
"yXyXyXyXyXyXyXyXyXyXyXyXyXyXyXyXyXyXyXyXyXyXyXyXyXyXyXyXyXyXyXyXyXyXyXyXyX.X-X;X&XC.) $.7.c.n.n.q.8.'.<XyXyX:.m M v p 1 yXyXyXyXyXyXyXyXyXyXyXyXyXyXyXyXyXyXyXyX",
"yXyXyXyXyXyXyXyXyXyXyXyXyXyXyXyXyXyXyXyXyXyXyXyXyXyXyXyXyXyXyXyXyXyXyXyXx.N.U.U.$X+X3.8.5.$.n.n.n.Y yXyXyXyXyXd l u /.W A yXyXyXyXyXyXyXyXyXyXyXyXyXyXyXyXyXyXyX",
"yXyXyXyXyXyXyXyXyXyXyXyXyXyXyXyXyXyXyXyXyXyXyXyXyXyXyXyXyXyXyXyXyXyXyXx.n.n.n.;.S.3XOXs.A &.n.m.n.^ yXyXyXyXyXyXyX3 3.%.l.J yXyXyXyXyXyXyXyXyXyXyXyXyXyXyXyXyXyX",
"yXyXyXyXyXyXyXyXyXyXyXyXyXyXyXyXyXyXyXyXyXyXyXyXyXyXyXyXyXyXyXyXyXyXx.n.n.n.n.n.r.3X4X>Xq.n.n.$.%.yXyXyXyXyXyXyXyXyXj X.' _ A yXyXyXyXyXyXyXyXyXyXyXyXyXyXyXyXyX",
"yXyXyXyXyXyXyXyXyXyXyXyXyXyXyXyXyXyXyXyXyXyXyXyXyXyXyXyXyXyXyXyXyXx.n.n.n.n.n.;.w.3X4X>XS n.v.( ! d yXyXyXyXyXyXyXyXz E T R E J yXyXyXyXyXyXyXyXyXyXyXyXyXyXyXyX",
"yXyXyXyXyXyXyXyXyXyXyXyXyXyXyXyXyXyXyXyXyXyXyXyXyXyXyXyXyXyXyXyXyXn.n.n.n.n.n.m.l.`.>X X) n.n.n.n.( yXyXyXyXyXyXyXyXyXz E z z ~ A yXyXyXyXyXyXyXyXyXyXyXyXyXyXyX",
"yXyXyXyXyXyXyXyXyXyXyXyXyXyXyXyXyXyXyXyXyXyXyXyXyXyXyXyXyXyXyXyXx.n.n.n.n.n.M.N.n.R y 3.&.n.n.n.n.n...yXyXyXyXyXyXyXyXyXyXz f _ T yXyXyXyXyXyXyXyXyXyXyXyXyXyXyX",
"yXyXyXyXyXyXyXyXyXyXyXyXyXyXyXyXyXyXyXyXyXyXyXyXyXyXyXyXyXyXyXyXn.n.n.n.n.n.m.Y.Y.m.$.h ^ m.n.n.n.n.n.&.yXyXyXyXyXyXyXyXyXyXA _ > yXyXyXyXyXyXyXyXyXyXyXyXyXyXyX",
"yXyXyXyXyXyXyXyXyXyXyXyXyXyXyXyXyXyXyXyXyXyXyXyXyXyXyXyXyXyXyXyXv.n.n.n.n.n.n.M.R.Y.B.( K ' n.n.n.n.n.n.&.) yXyXyXyXyXyXyXyXyXyX. yXyXyXyXyXyXyXyXyXyXyXyXyXyXyX",
"yXyXyXyXyXyXyXyXyXyXyXyXyXyXyXyXyXyXyXyXyXyXyXyXyXyXyXyXyXyXyXyX^ &.n.n.n.n.n.n.n.A.R.A.v.( ! &.n.n.n.n.n.n.^ E yXyXyXyXyXyXyXyXyXyXyXyXyXyXyXyXyXyXyXyXyXyXyXyX",
"yXyXyXyXyXyXyXyXyXyXyXyXyXyXyXyXyXyXyXyXyXyXyXyXyXyXyXyXyXyXyXyXyX) n.n.n.n.n.n.n.n.m.A.A.m.*.%.%.%.n.n.n.;.9.9.B yXyXyXyXyXyXyXyXyXyXyXyXyXyXyXyXyXyXyXyXyXyXyX",
"yXyXyXyXyXyXyXyXyXyXyXyXyXyXyXyXyXyXyXyXyXyXyXyXyXyXyXyXyXyXyXyXyXyX) n.m.n.n.n.n.n.n.n.N.N.n.n.&.U ) $.n.z.{.r. .` y.~ ( ! ( A yXyXyXyXyXyXyXyXyXyXyXyXyXyXyXyX",
"yXyXyXyXyXyXyXyXyXyXyXyXyXyXyXyXyXyXyXyXyXyXyXyXyXyXyXyXyXyXyXyXyXyXyXS $.n.n.n.n.n.n.n.n.m.n.n.n.n.) yXL p.{.H.L.k.).d.&.z &.) g yXyXyXyXyXyXyXyXyXyXyXyXyXyXyX",
"yXyXyXyXyXyXyXyXyXyXyXyXyXyXyXyXyXyXyXyXyXyXyXyXyXyXyXyXyXyXyXyXyXyXyX2 S z.v.n.n.n.n.n.n.n.n.n.n.n.n.) yXyXB } h.g.|.e.m.n.n.[ K yXyXyXyXyXyXyXyXyXyXyXyXyXyXyX",
"yXyXyXyXyXyXyXyXyXyXyXyXyXyXyXyXyXyXyXyXyXyXyXyXyXyXyXyXyXyXyXyXyXyXyX9 u ~ l.x.v.n.n.n.n.n.n.n.n.n.n.*.U yXyXyXyX~.4.&.m.n.n.m.n.! yXyXyXyXyXyXyXyXyXyXyXyXyXyX",
"yXyXyXyXyXyXyXyXyXyXyXyXyXyXyXyXyXyXyXyXyXyXyXyXyXyXyXyXyXyXyXyXyXyXyX9 i y 6.l.l.z.x.n.n.n.n.n.n.n.n.n.&.yXyXyXyXyXyX^ ^ v.n.n.n.$.yXyXyXyXyXyXyXyXyXyXyXyXyXyX",
"yXyXyXyXyXyXyXyXyXyXyXyXyXyXyXyXyXyXyXyXyXyXyXyXyXyXyXyXyXyXyXyXyXyXyX4 i i i 3.7.l.l.z.x.v.n.n.n.n.n.n.n.v.yXyXyXyXyXyXyXyX&.%.v.&.z yXyXyXyXyXyXyXyXyXyXyXyXyX",
"yXyXyXyXyXyXyXyXyXyXyXyXyXyXyXyXyXyXyXyXyXyXyXyXyXyXyXyXyXyXyXyXyXyXyX% e i i i u 2.7.l.l.l.x.x.n.n.n.n.n.n.x.yXyXyXyXyXyXyXyXyXK ! yXyXyXyXyXyXyXyXyXyXyXyXyXyX",
"yXyXyXyXyXyXyXyXyXyXyXyXyXyXyXyXyXyXyXyXyXyXyXyXyXyXyXyXyXyXyXyXyXyXyXyX6 i i i i i 3.T X.$.l.l.z.x.n.n.n.n.n...yXyXyXyXyXyXyXyXyXyXyXyXyXyXyXyXyXyXyXyXyXyXyXyX",
"yXyXyXyXyXyXyXyXyXyXyXyXyXyXyXyXyXyXyXyXyXyXyXyXyXyXyXyXyXyXyXyXyXyXyXyX; i i i i i e yXyXI ' l.l.l.l.x.v.n.n.*.Y yXyXyXyXyXyXyXyXyXyXyXyXyXyXyXyXyXyXyXyXyXyXyX",
"yXyXyXyXyXyXyXyXyXyXyXyXyXyXyXyXyXyXyXyXyXyXyXyXyXyXyXyXyXyXG J A G z yX@ w i i i i 6 yXyXyXyXI X.l.l.l.l.x.n.n...yXyXyXyXyXyXyXyXyXyXyXyXyXyXyXyXyXyXyXyXyXyXyX",
"yXyXyXyXyXyXyXyXyXyXyXyXyXyXyXyXyXyXyXyXyXyXyXyXyXyXyXyXF L ^ 4.<.c x @ % w i i i i ; yXyXyXyXyXI ' l.l.l.l.v.n...yXyXyXyXyXyXyXyXyXyXyXyXyXyXyXyXyXyXyXyXyXyXyX",
"yXyXyXyXyXyXyXyXyXyXyXyXyXyXyXyXyXyXyXyXyXyXyXyXyXyXyXyXL ^ ^ i.v P S 4 4 i i i i w % yXyXyXyXyXyXl ' l.l.l.v.*.^ yXyXyXyXyXyXyXyXyXyXyXyXyXyXyXyXyXyXyXyXyXyXyX",
"yXyXyXyXyXyXyXyXyXyXyXyXyXyXyXyXyXyXyXyXyXyXyXyXyXyXF L ^ ^ ^ i.v T 0 2 i i q i i 9 yXyXyXyXyXyXyX) ..X.l.l.v.&.yXyXyXyXyXyXyXyXyXyXyXyXyXyXyXyXyXyXyXyXyXyXyXyX",
"yXyXyXyXyXyXyXyXyXyXyXyXyXyXyXyXyXyXyXyXyXyXyXG I I ^ ^ ^ U I p <.3.6 6 i i 4 2 i * yXyXyXyXyXyXU n.*.) l.l.v.&.yXyXyXyXyXyXyXyXyXyXyXyXyXyXyXyXyXyXyXyXyXyXyXyX",
"yXyXyXyXyXyXyXyXyXyXyXyXyXyXyXyXyXyXyXyX+ O b L ^ ^ I I R S 1.p u.<.i q 2 6 9 w e & yXyXyXyXyXyXo.%.v.x.l.l.' yXyXyXyXyXyXyXyXyXyXyXyXyXyXyXyXyXyXyXyXyXyXyXyXyX",
"yXyXyXyXyXyXyXyXyXyXyXyXyXyXL L L L L J n m { Z L S :.:.< & & & r ,.- & $ yXyXyXyXyXyXyXyXyXyXs.9.k.V.o.' l.^ yXyXyXyXyXyXyXyXyXyXyXyXyXyXyXyXyXyXyXyXyXyXyXyXyX",
"yXyXyXyXyXyXyXyXyXyXyXyXyXyXL ^ ^ ^ ^ K n V V N 5 8 , $ > o     @ # yXyXyXyXyXyXyXyXyXyXyXyXyXs.).|.d.k.j.j.P yXyXyXyXyXyXyXyXyXyXyXyXyXyXyXyXyXyXyXyXyXyXyXyXyX",
"yXyXyXyXyXyXyXyXyXyXyXyXyXyXL ^ ^ ^ z h k N V s . yXyXyXyXyXyXyXyXyXyXyXyXyXyXyXyXyXyXyXyXyXL ..e.'.|.|.`.[./ yXyXyXyXyXyXyXyXyXyXyXyXyXyXyXyXyXyXyXyXyXyXyXyXyX",
"yXyXyXyXyXyXyXyXyXyXyXyXyXyXyXL ^ ^ f 8 u 8 = yXyXyXyXyXyXyXyXyXyXyXyXyXyXyXyXyXyXyXyXyXyXyXH %.n.*.C.r.8.6.yXyXyXyXyXyXyXyXyXyXyXyXyXyXyXyXyXyXyXyXyXyXyXyXyXyX",
"yXyXyXyXyXyXyXyXyXyXyXyXyXyXyXz ^ ^ H : ; = yXyXyXyXyXyXyXyXyXyXyXyXyXyXyXyXyXyXyXyXyXyXyXyXH $.n.n.n.n.%./ yXyXyXyXyXyXyXyXyXyXyXyXyXyXyXyXyXyXyXyXyXyXyXyXyXyX",
"yXyXyXyXyXyXyXyXyXyXyXyXyXyXyXyXL ^ ^ S , yXyXyXyXyXyXyXyXyXyXyXyXyXyXyXyXyXyXyXyXyXyXyXyXyXyXl.x.n.n.x.l./ yXyXyXyXyXyXyXyXyXyXyXyXyXyXyXyXyXyXyXyXyXyXyXyXyXyX",
"yXyXyXyXyXyXyXyXyXyXyXyXyXyXyXyXL ^ ^ L :.yXyXyXyXyXyXyXyXyXyXyXyXyXyXyXyXyXyXyXyXyXyXyXyXyXyX' l.x.x.l./ yXyXyXyXyXyXyXyXyXyXyXyXyXyXyXyXyXyXyXyXyXyXyXyXyXyXyX",
"yXyXyXyXyXyXyXyXyXyXyXyXyXyXyXyXL ^ ^ Q j yXyXyXyXyXyXyXyXyXyXyXyXyXyXyXyXyXyXyXyXyXyXyXyXyXyXI l.l.l.l.( yXyXyXyXyXyXyXyXyXyXyXyXyXyXyXyXyXyXyXyXyXyXyXyXyXyXyX",
"yXyXyXyXyXyXyXyXyXyXyXyXyXyXyXyXL ^ ^ ^ k yXyXyXyXyXyXyXyXyXyXyXyXyXyXyXyXyXyXyXyXyXyXyXyXyXyXI ' l.l.x.yXyXyXyXyXyXyXyXyXyXyXyXyXyXyXyXyXyXyXyXyXyXyXyXyXyXyXyX",
"yXyXyXyXyXyXyXyXyXyXyXyXyXyXyXyXL ^ ^ ^ k yXyXyXyXyXyXyXyXyXyXyXyXyXyXyXyXyXyXyXyXyXyXyXyXyXyX$.) ' &.&.yXyXyXyXyXyXyXyXyXyXyXyXyXyXyXyXyXyXyXyXyXyXyXyXyXyXyXyX",
"yXyXyXyXyXyXyXyXyXyXyXyXyXyXyXyXJ ^ ^ ^ A yXyXyXyXyXyXyXyXyXyXyXyXyXyXyXyXyXyXyXyXyXyXyXyXyXyXn.n.n.n.%.yXyXyXyXyXyXyXyXyXyXyXyXyXyXyXyXyXyXyXyXyXyXyXyXyXyXyXyX",
"yXyXyXyXyXyXyXyXyXyXyXyXyXyXyXyXyXK I I Q L yXyXyXyXyXyXyXyXyXyXyXyXyXyXyXyXyXyXyXyXyXyXyXyX) v.n.n.v.yXyXyXyXyXyXyXyXyXyXyXyXyXyXyXyXyXyXyXyXyXyXyXyXyXyXyXyXyX",
"yXyXyXyXyXyXyXyXyXyXyXyXyXyXyXyXyXyXg g g g yXyXyXyXyXyXyXyXyXyXyXyXyXyXyXyXyXyXyXyXyXyXyXyXn.n.n.n.&.yXyXyXyXyXyXyXyXyXyXyXyXyXyXyXyXyXyXyXyXyXyXyXyXyXyXyXyXyX",
"yXyXyXyXyXyXyXyXyXyXyXyXyXyXyXyXyXyXyXyXyXyXyXyXyXyXyXyXyXyXyXyXyXyXyXyXyXyXyXyXyXyXyXyXyXyX$.n.n.n.*.yXyXyXyXyXyXyXyXyXyXyXyXyXyXyXyXyXyXyXyXyXyXyXyXyXyXyXyXyX",
"yXyXyXyXyXyXyXyXyXyXyXyXyXyXyXyXyXyXyXyXyXyXyXyXyXyXyXyXyXyXyXyXyXyXyXyXyXyXyXyXyXyXyXyXyXyX} -.$.#.O.yXyXyXyXyXyXyXyXyXyXyXyXyXyXyXyXyXyXyXyXyXyXyXyXyXyXyXyXyX",
"yXyXyXyXyXyXyXyXyXyXyXyXyXyXyXyXyXyXyXyXyXyXyXyXyXyXyXyXyXyXyXyXyXyXyXyXyXyXyXyXyXyXyXyXyXyXG.K.F.F. .yXyXyXyXyXyXyXyXyXyXyXyXyXyXyXyXyXyXyXyXyXyXyXyXyXyXyXyXyX",
"yXyXyXyXyXyXyXyXyXyXyXyXyXyXyXyXyXyXyXyXyXyXyXyXyXyXyXyXyXyXyXyXyXyXyXyXyXyXyXyXyXyXyXyXyXO.H.K. .B H yXyXyXyXyXyXyXyXyXyXyXyXyXyXyXyXyXyXyXyXyXyXyXyXyXyXyXyXyX",
"yXyXyXyXyXyXyXyXyXyXyXyXyXyXyXyXyXyXyXyXyXyXyXyXyXyXyXyXyXyXyXyXyXyXyXyXyXyXyXyXyXyXyXyXyX*.=.G. .Y ) ) yXyXyXyXyXyXyXyXyXyXyXyXyXyXyXyXyXyXyXyXyXyXyXyXyXyXyXyX",
"yXyXyXyXyXyXyXyXyXyXyXyXyXyXyXyXyXyXyXyXyXyXyXyXyXyXyXyXyXyXyXyXyXyXyXyXyXyXyXyXyXyXyXyXyXn.%.%.%.$.n.v.) yXyXyXyXyXyXyXyXyXyXyXyXyXyXyXyXyXyXyXyXyXyXyXyXyXyXyX",
"yXyXyXyXyXyXyXyXyXyXyXyXyXyXyXyXyXyXyXyXyXyXyXyXyXyXyXyXyXyXyXyXyXyXyXyXyXyXyXyXyXyXyXyX&.n.@.*.n.$.n.n.&.yXyXyXyXyXyXyXyXyXyXyXyXyXyXyXyXyXyXyXyXyXyXyXyXyXyXyX",
"yXyXyXyXyXyXyXyXyXyXyXyXyXyXyXyXyXyXyXyXyXyXyXyXyXyXyXyXyXyXyXyXyXyXyXyXyXyXyXyXyXyXyXyX*.n.&.@.&.v.n.n.n.x.yXyXyXyXyXyXyXyXyXyXyXyXyXyXyXyXyXyXyXyXyXyXyXyXyXyX",
"yXyXyXyXyXyXyXyXyXyXyXyXyXyXyXyXyXyXyXyXyXyXyXyXyXyXyXyXyXyXyXyXyXyXyXyXyXyXyXyXyXyXyXyXv.n.n.%...n.n.n.n.n.n.x.yXyXyXyXyXyXyXyXyXyXyXyXyXyXyXyXyXyXyXyXyXyXyXyX",
"yXyXyXyXyXyXyXyXyXyXyXyXyXyXyXyXyXyXyXyXyXyXyXyXyXyXyXyXyXyXyXyXyXyXyXyXyXyXyXyXyXyXyXyX$.&.&.&.%.&.n.n.n.n.n.n.n.v.yXyXyXyXyXyXyXyXyXyXyXyXyXyXyXyXyXyXyXyXyXyX",
"yXyXyXyXyXyXyXyXyXyXyXyXyXyXyXyXyXyXyXyXyXyXyXyXyXyXyXyXyXyXyXyXyXyXyXyXyXyXyXyXyXyXyXyXyXh h h g A %.*.n.n.n.n.n.n.v.yXyXyXyXyXyXyXyXyXyXyXyXyXyXyXyXyXyXyXyXyX",
"yXyXyXyXyXyXyXyXyXyXyXyXyXyXyXyXyXyXyXyXyXyXyXyXyXyXyXyXyXyXyXyXyXyXyXyXyXyXyXyXyXyXyXyXyXyXyXyXyXyXyXyXK K K K A > A yXyXyXyXyXyXyXyXyXyXyXyXyXyXyXyXyXyXyXyXyX"
};
