/* XPM */
static char *result[] = {
/* columns rows colors chars-per-pixel */
"80 80 211 2 ",
"   c #4C0815",
".  c #520C15",
"X  c #5C1513",
"o  c #5F1518",
"O  c #6A1E1D",
"+  c #762B14",
"@  c #7B2A1F",
"#  c #52152B",
"$  c #54182F",
"%  c #581E35",
"&  c #701624",
"*  c #5C233D",
"=  c #66252B",
"-  c #7C2C22",
";  c #75292A",
":  c #692838",
">  c #7E393D",
",  c #774223",
"<  c #3F1E49",
"1  c #5E2641",
"2  c #602841",
"3  c #642D49",
"4  c #69324C",
"5  c #77394A",
"6  c #772C50",
"7  c #693452",
"8  c #683752",
"9  c #6D3A5A",
"0  c #713C59",
"q  c #593763",
"w  c #6F3F61",
"e  c #7C4155",
"r  c #75415E",
"t  c #794558",
"y  c #79425C",
"u  c #6D466F",
"i  c #734263",
"p  c #774C66",
"a  c #705062",
"s  c #8E381F",
"d  c #842E23",
"f  c #893627",
"g  c #8F3925",
"h  c #853229",
"j  c #943C27",
"k  c #943D2B",
"l  c #993A29",
"z  c #873D38",
"x  c #943F31",
"c  c #B73229",
"v  c #9B4A15",
"b  c #B75919",
"n  c #B7640C",
"m  c #B06C0D",
"M  c #BB6414",
"N  c #9F4127",
"B  c #9B412A",
"V  c #9C4433",
"C  c #974739",
"Z  c #9A473A",
"A  c #A44427",
"S  c #AD4926",
"D  c #A54829",
"F  c #A6482D",
"G  c #AB4A2C",
"H  c #BE402E",
"J  c #B14E2D",
"K  c #B4502E",
"L  c #B8552E",
"P  c #A34A32",
"I  c #A74D38",
"U  c #B04D39",
"Y  c #AD5239",
"T  c #B55331",
"R  c #B95632",
"E  c #BD5B34",
"W  c #B45639",
"Q  c #BB5C3B",
"!  c #B96F2F",
"~  c #BF6037",
"^  c #C37007",
"/  c #CA7719",
"(  c #D17B1A",
")  c #C0402F",
"_  c #CB4D3E",
"`  c #C25D35",
"'  c #CE553F",
"]  c #C25D3B",
"[  c #CD7726",
"{  c #C56237",
"}  c #C96637",
"|  c #CA6934",
" . c #C5633A",
".. c #C9663B",
"X. c #CD6A3D",
"o. c #D06D3E",
"O. c #CA7130",
"+. c #D4703E",
"@. c #823D43",
"#. c #823F49",
"$. c #923C50",
"%. c #AF3941",
"&. c #8D3E62",
"*. c #894348",
"=. c #914541",
"-. c #944946",
";. c #8C504D",
":. c #824353",
">. c #8B4857",
",. c #955956",
"<. c #AA5645",
"1. c #B65B45",
"2. c #A24654",
"3. c #BA6444",
"4. c #A96458",
"5. c #B17653",
"6. c #88476E",
"7. c #8B5A66",
"8. c #B05A68",
"9. c #906271",
"0. c #9B757D",
"q. c #A46C69",
"w. c #B77163",
"e. c #AF7175",
"r. c #A9767C",
"t. c #C7514A",
"y. c #C66543",
"u. c #C96643",
"i. c #CD6A42",
"p. c #D36047",
"a. c #D16E42",
"s. c #CA704A",
"d. c #D67342",
"f. c #D87543",
"g. c #D67749",
"h. c #D6794D",
"j. c #C26653",
"k. c #C3735A",
"l. c #D77C54",
"z. c #C76C65",
"x. c #CA726E",
"c. c #B68C0D",
"v. c #DB8E0C",
"b. c #DF9D0B",
"n. c #CF8016",
"m. c #D88C1A",
"M. c #E09508",
"N. c #D8A10C",
"B. c #DF9733",
"V. c #E28D31",
"C. c #B89977",
"Z. c #C4815E",
"A. c #D8855D",
"S. c #D88963",
"D. c #CD8D71",
"F. c #E3906F",
"G. c #595497",
"H. c #634D80",
"J. c #5958A4",
"K. c #6257A1",
"L. c #787DAE",
"P. c #95768A",
"I. c #B36788",
"U. c #A67890",
"Y. c #8978A1",
"T. c #AE69B1",
"R. c #7781B8",
"E. c #6781C2",
"W. c #978696",
"Q. c #B98F88",
"!. c #A3849C",
"~. c #A9A09A",
"^. c #8F8BAD",
"/. c #9897BB",
"(. c #AB9AA7",
"). c #A799B7",
"_. c #BDAFAA",
"`. c #A5A5B7",
"'. c #B9A7B6",
"]. c #D0B38F",
"[. c #CAB99A",
"{. c #C4B8A4",
"}. c #C1BDBE",
"|. c #C0C09F",
" X c #D6C29E",
".X c #C6C8AA",
"XX c #D6C6A2",
"oX c #D3D4BE",
"OX c #DBDCBB",
"+X c #E1E1BF",
"@X c #9C9AC8",
"#X c #9C9ED2",
"$X c #A6A1CA",
"%X c #A9A9D5",
"&X c #B3B3D3",
"*X c #B7B7DB",
"=X c #A6ABE0",
"-X c #C1B8D6",
";X c #CDCDC9",
":X c #D4D4C3",
">X c #C8C8D8",
",X c #E5E5C7",
"<X c #EBEBD8",
"1X c #C4C4E5",
"2X c #C7C8E7",
"3X c #CDCDF0",
"4X c #EFEFE2",
"5X c #F3F3EB",
"6X c #F6F6F3",
"7X c #F7F7F8",
"8X c None",
/* pixels */
"8X8X8X8X8X8X8X8X8X8X8X8X8X8X8X8X8X8X8X8X8X8X8X8X8X8X8X8X8X8X8X8X8X8X8X8X8X8X8X8X8X8X8X8X8X8X8X8X8X8X8X8X8X8X8X8X8X8X8X8X8X8X8X8X8X8X8X8X8X8X8X8X8X8X8X8X8X8X8X8X",
"8X8X8X8X8X8X8X8X8X8X8X8X8X8X8X8X8X8X8X8X8X8X8X8X8X8X8X8X8X8X8X8X8X8X8X8X8X8X8X8X8X8X8X8X8X8X8X8X8X8X8X8X8X8X8X8X8X8X8X8X8X8X8X8X8X8X8X8X8X8X8X8X8X8X8X8X8X8X8X8X",
"8X8X8X8X8X8X8X8X8X8X8X8X8X8X8X8X8X8X8X8X8X8X8X8X8X8X8X8X8X8X8X8X8X8X8X8X8X8X8X8X8X8X8X8X8X8X8X8X8X8X8X8X8X8X8X8X8X8X8X8X8X8X8X8X8X8X8X8X8X8X8X8X8X8X8X8X8X8X8X8X",
"8X8X8X8X8X8X8X8X8X8X8X8X8X8X8X8X8X8X8X8X8X8X8X8X8X8X8X8X8X8X8X8X8X8X8X8X8X8X8X8X8X8X8X8X8X8X8X8X8X8X8X8X8X8X8X8X8X8X8X8X8X8X8X8X8X8X8X8X8X8X8X8X8X8X8X8X8X8X8X8X",
"8X8X8X8X8X8X8X8X8X8X8X8X8X8X8X8X8X8X8X8X8X8X8X8X8X8X8X8X8X8X8X8X8X8X8X8X8X8X8X8X8X8X8X8X8X8X8X8X8X8X8X8X8X8X8X8X8X8X8X8X8X8X8X8X8X8X8X8X8X8X8X8X8X8X8X8X8X8X8X8X",
"8X8X8X8X8X8X8X8X8X8X8X8X8X8X8X8X8X8X8X8X8X8X8X8X8X8X8X8X8X8X8X8X8X8X8X8X8X8X8X8X8X8X8X8X8X8X8X8X8X8X8X8X8X8X8X8X8X8X8X8X8X8X8X8X8X8X8X8X8X8X8X8X8X8X8X8X8X8X8X8X",
"8X8X8X8X8X8X8X8X8X8X8X8X8X8X8X8X8X8X8X8X8X8X8X8X8X8X8X8X8X8X8X8X8X8X8X8X8X8X8X8X8X8X8X8X8X8X8X8X8X8X8X8X8X8X8X8X8X8X8X8X8X8X8X8X8X8X8X8X8X8X8X8X8X8X8X8X8X8X8X8X",
"8X8X8X8X8X8X8X8X8X8X8X8X8X8X8X8X8X8X8X8X8X8X8X8X8X8X8X8X8X8X8X8X8X8X8X8X8X8X8X8X8X8X8X8X8X8X8X8X8X8X8X8X8X8X8X8X8X8X8X8X8X8X8X8X8X8X8X8X8X8X8X8X8X8X8X8X8X8X8X8X",
"8X8X8X8X8X8X8X8X8X8X8X8X8X8X8X8X8X8X8X8X8X8X8X8X8X8X8X8X8X8X8X8X8X8X8X8X8X8X8X8X8X8X8X8X8X8X8X8X8X8X8X8X8X8X8X8X8X8X8X8X8X8X8X8XoX6X<X8X8X8X8X8X8X8X8X8X8X8X8X8X",
"8X8X8X8X8X8X8X8X8X8X8X8X8X8X8X8X8X8X8X8X8X8X8X8X8X8X8X8X8X8X8X8X8X8X8X8X8X8X8X8X8X8X8X8X8X8X8X8X8X8X8X8X8X8X8X8X8X8X8X8X8X8X^.&X4X7X7X7X4X.X8X8X8X8X8X8X8X8X8X8X",
"8X8X8X8X8X8X8X8X8X8X8X8X8X8X8X8X8X8X8X8X8X8X8X8X8X8X8X8X8X8X8X8X8X8X8X8X8X8X8X8X8X8X8X8X8X8X8X8X8X8X8X8X8X8X8X8X8X8X8X8X8X8X$X%X;X<X5X5X5X,X|.8X8X8X8X8X8X8X8X8X",
"8X8X8X8X8X8X8X8X8X8X8X8X8X8X8X8X8X8X8X8X8X8X8X8X8X8X8X8X8X8X8X8X8X8X8X8X8X8X8X8X8X8X8X8X8X8X8X8X8X8X8X8X8X8X8X8X8X8X8X8X8X/.1X1X*X>X:XOX,X+X:X`.8X8X8X8X8X8X8X8X",
"8X8X8X8X8X8X8X8X8X8X8X8X8X8X8X8X8X8X8X8X8X8X8X8X8X8X8X8X8X8X8X8X8X8X8X8X8X8X8X8X8X8X8X8X8X8X8X8X8X8X8X8X8XR R R j 8X8X8X8X@X3X&X&X1X~.}.>X>X>X*X8X8X8X8X8X8X8X8X",
"8X8X8X8X8X8X8X8X8X8X8X8X8X8X8X8X8X8X8X8X8X8X8X8X8X8X8X8X8X8X8X8X8X8X8X8X8X8X8X8X8X8X8X8X8X8X8X8X8X8X8XR K X.d.X.] g c.C.P.U.$X7.).-Xk.;./.*X`.&X8X8X8X8X8X8X8X8X",
"8X8X8X8X8X8X8X8X8X8X8X8X8X8X8X8X8X8X8X8X8X8X8X8X8X8X8X8X8X8X8X8X8X8X8X8X8X8X8X8X8X8X8X8X8X8X8X8X8X8X{ ..X.f.~ W X.l.k.! 0.x.5.k ,.).<.; 8 ).W./.8X8X8X8X8X8X8X8X",
"8X8X8X8X8X8X8X8X8X8X8X8X8X8X8X8X8X8X8X8X8X8X8X8X8X8X8X8X8X8X8X8X8X8X8X8X8X8X8X8X8X8X8X8X8X8X8X8X.X].d.] { { B E g.F.F.s.t t.n.- k e.4.9.> C a 8X8X8X8X8X8X8X8X8X",
"8X8X8X8X8X8X8X8X8X8X8X8X8X8X8X8X8X8X8X8X8X8X8X8X8X8X8X8X8X8X8X8X8X8X8X8X8X8X8X8X8X8X8X8X8X8X8X5.D.Z.F E ` <.X.~  .h.h.g.j c b B V y.5.a.i.d 8X8X8X8X8X8X8X8X8X8X",
"8X8X8X8X8X8X8X8X8X8X8X8X8X8X8X8X8X8X8X8X8X8X8X8X8X8X8X8X8X8X8X8X8X8X8X8X8X8X8X8X8X8X8X8X8XE X.o.o.o.R X.f.y.D.B...d.d.d.j d s @ d ]  .Y j X 8X8X8X8X8X8X8X8X8X8X",
"8X8X8X8X8X8X8X8X8X8X8X8X8X8X8X8X8X8X8X8X8X8X8X8X8X8X8X8X8X8X8X8X8X8X8X8X8X8X8X8X8X8X8X8Xu. .d.d.d.d.+.` d.d.D.V.W X.d.X.- 8X8X8X8X- - X 8X8X8X8X8X8X8X8X8X8X8X8X",
"8X8X8X8X8X8X8X8X8X8X8X8X8X8X8X8X8X8X8X8X8X8X8X8X8X8X8X8X8X8X8X8X8X8X8X8X8X8X8X8X8X8X8XX.d...d.d.d.d.d.` } ..x.[ Q d.d.R O 8X8X8X8X8X8X8X8X8X8X8X8X8X8X8X8X8X8X8X",
"8X8X8X8X8X8X8X8X8X8X8X8X8X8X8X8X8X8X8X8X8X8X8X8X8X8X8X8X8X8X8X8X8X8X8X8X8X8X8X8X8X8XC.S.g.a.X.d.d.d.d.~ e.r.<.@ R E 3.5.8X8X8X8X8X8X8X8X8X8X8X8X8X8X8X8X8X8X8X8X",
"8X8X8X8X8X8X8X8X8X8X8X8X8X8X8X8X8X8X8X8X8X8X8X8X8X8X8X8X8X8X8X8X8X8X8X8X8X8X8X8X8XC.[.XX XS.i.d.d.d.d.s.).=X'.(.'.[.[.{.: 8X8X8X8X8X8X8X8X8X8X8X8X8X8X8X8X8X8X8X",
"8X8X8X8X8X8X8X8X8X8X8X8X8X8X8X8X8X8X8X8X8X8X8X8X8X8X8X8X8X8X8X8X8X8X8X8X8X8X8X8Xi.d.g.A.]. Xg.X.d.d.d.+.4.P.~.2X2XoXOX{.5 h 8X8X8X8X8X8X8X8X8X8X8X8X8X8X8X8X8X8X",
"8X8X8X8X8X8X8X8X8X8X8X8X8X8X8X8X8X8X8X8X8X8X8X8X8X8X8X8X8X8X8X8X8X8X8X8X8X8X8Xa.d.d.d.d.i.].Q.1.o.d.d.f.` 8X~.1X2X;XoX_.#.Q T Y 8X8X8X8X8X8X8X8X8X8X8X8X8X8X8X8X",
"8X8X8X8X8X8X8X8X8X8X8X8X8X8X8X8X8X8X8X8X8X8X8X8X8X8X8X8X8X8X8X8X8X8X8X8X8X8Xa.d.d.d.d.d.} Q.$XU.1.d.o.j.8.8X8X&X>X1X>XP.>.1.k Q Y 8X8X8X8X8X8X8X8X8X8X8X8X8X8X8X",
"8X8X8X8X8X8X8X8X8X8X8X8X8X8X8X8X8X8X8X8X8X8X8X8X8X8X8X8X8X8X8X8X8X8X8X8X8Xi.d.d.d.d.d.d.{ !.%X@X> { j.T.T.e.8X8X`./.^.6.>.Y k h ; O 8X8X8X8X8X8X8X8X8X8X8X8X8X8X",
"8X8X8X8X8X8X8X8X8X8X8X8X8X8X8X8X8X8X8X8X8X8X8X8X8X8X8X8X8X8X8X8X8X8X8X8X8Xd.d.d.d.d.d.d.L !.#X@X8 W I.w.m.( 8X8X8X8X8Xh ; O W Q Q k 8X8X8X8X8X8X8X8X8X8X8X8X8X8X",
"8X8X8X8X8X8X8X8X8X8X8X8X8X8X8X8X8X8X8X8X8X8X8X8X8X8X8X8X8X8X8X8X8X8X8X8Xa.d.d.d.d.g.h.d.X.q.$XY.i e 2.n./ t._ 8X8X8X8X8X8XV y.u.u.h 8X8X8X8X8X8X8X8X8X8X8X8X8X8X",
"8X8X8X8X8X8X8X8X8X8X8X8X8X8X8X8X8X8X8X8X8X8X8X8X8X8X8X8X8X8X8X8X8X8X8X8Xd.d.d.d.d.g.A.h.d.X.r.p 7 i e ! ] x.q.7.8X8X8X8X8X8Xk V I h 8X8X8X8X8X8X8X8X8X8X8X8X8X8X",
"8X8X8X8X8X8X8X8X8X8X8X8X8X8X8X8X8X8X8X8X8X8X8X8X8X8X8X8X8X8X8X8X8X8X8X8Xi.d.d.d.d.d.l.S.g.d.a.F 0 i i :.U Y.E.0.w.8X8X8X8X8X8X8X8X8X8X8X8X8X8X8X8X8X8X8X8X8X8X8X",
"8X8X8X8X8X8X8X8X8X8X8X8X8X8X8X8X8X8X8X8X8X8X8X8X8X8X8X8X8X8X8X8X8X8X8X8Xu.d.d.d.d.d.g.S.l.d.d.+.I r i i >.9.3.+.f.X.8X8X8X8X8X8X8X8X8X8X8X8X8X8X8X8X8X8X8X8X8X8X",
"8X8X8X8X8X8X8X8X8X8X8X8X8X8X8X8X8X8X8X8X8X8X8X8X8X8X8X8X8X8X8X8X8X8X8X8X8X..i.d.d.d.d.g.A.g.d.d.X.-.i i i @.{ f.d.d...8X8X8X8X8X8X8X8X8X8X8X8X8X8X8X8X8X8X8X8X8X",
"8X8X8X8X8X8X8X8X8X8X8X8X8X8X8X8X8X8X8X8X8X8X8X8X8X8X8X8X8X8X8X8X8X8X8X8X8X8X` d.d.d.d.d.h.h.d.d.f.3.r i i i C X.d.d.d. .8X8X8X8X8X8X8X8X8X8X8X8X8X8X8X8X8X8X8X8X",
"8X8X8X8X8X8X8X8X8X8X8X8X8X8X8X8X8X8X8X8X8X8X8X8X8X8X8X8X8X8X8X8X8X8X8X8X8X8X8Xa.d.d.d.d.d.g.d.d.d.o.-.i i i 7 V f.d.d.{ 8X8X8X8X8X8X8X8X8X8X8X8X8X8X8X8X8X8X8X8X",
"8X8X8X8X8X8X8X8X8X8X8X8X8X8X8X8X8X8X8X8X8X8X8X8X8X8X8X8X8X8X8X8X8X8X8X8X8X8X8Xi.d.d.d.d.d.d.d.d.d.d.X.>.i i 7 f P d.d. .8X8X8X8X8X8X8X8X8X8X8X8X8X8X8X8X8X8X8X8X",
"8X8X8X8X8X8X8X8X8X8X8X8X8X8X8X8X8X8X8X8X8X8X8X8X8X8X8X8X8X8X8X8X8X8X8X8X8X8X8X8Xd.d.d.d.d.d.d.d.d.d.f.<.r i 8 k - Q f. .8X8X8X8X8X8X8X8X8X8X8X8X8X8X8X8X8X8X8X8X",
"8X8X8X8X8X8X8X8X8X8X8X8X8X8X8X8X8X8X8X8X8X8X8X8X8X8X8X8X8X8X8X8X8X8X8X8X8X8X8X8Xi.d.d.d.d.d.d.d.d.d.d.X.-.i e j l G Q j 8X8X8X8X8X8X8X8X8X8X8X8X8X8X8X8X8X8X8X8X",
"8X8X8X8X8X8X8X8X8X8X8X8X8X8X8X8X8X8X8X8X8X8X8X8X8X8X8X8X8X8X8X8X8X8X8X8X8X8X8X8X8Xi.d.d.d.d.d.d.d.d.d.d.1.r e G T T j B F 8X8X8X8X8X8X8X8X8X8X8X8X8X8X8X8X8X8X8X",
"8X8X8X8X8X8X8X8X8X8X8X8X8X8X8X8X8X8X8X8X8X8X8X8X8X8X8X8X8X8X8X8X8X8X8X8X8X8X8X8X8X8Xa.d.d.d.d.d.d.d.d.d.X.-.e G T T T T T S 8X8X8X8X8X8X8X8X8X8X8X8X8X8X8X8X8X8X",
"8X8X8X8X8X8X8X8X8X8X8X8X8X8X8X8X8X8X8X8X8X8X8X8X8X8X8X8X8X8X8X8X8X8X8X8X8X8X8X8X8X8X8Xd.d.d.d.d.d.d.d.d.d.Y y C K T T T T T S 8X8X8X8X8X8X8X8X8X8X8X8X8X8X8X8X8X",
"8X8X8X8X8X8X8X8X8X8X8X8X8X8X8X8X8X8X8X8X8X8X8X8X8X8X8X8X8X8X8X8X8X8X8X8X8X8X8X8X8X8X8X8Xi.d.d.d.d.d.d.d.d...:.:.G T T T T T K S 8X8X8X8X8X8X8X8X8X8X8X8X8X8X8X8X",
"8X8X8X8X8X8X8X8X8X8X8X8X8X8X8X8X8X8X8X8X8X8X8X8X8X8X8X8X8X8X8X8X8X8X8X8X8X8X8X8X8X8X8X8X8Xa.d.d.d.d.d.d.d.d.I i *.J T T T T T J 8X8X8X8X8X8X8X8X8X8X8X8X8X8X8X8X",
"8X8X8X8X8X8X8X8X8X8X8X8X8X8X8X8X8X8X8X8X8X8X8X8X8X8X8X8X8X8X8X8X8X8X8X8X8X8X8X8X8X8X8X8X8X8X{ d.d.d.d.d.d.d.Q :.i =.K T T T T T G 8X8X8X8X8X8X8X8X8X8X8X8X8X8X8X",
"8X8X8X8X8X8X8X8X8X8X8X8X8X8X8X8X8X8X8X8X8X8X8X8X8X8X8X8X8X8X8X8X8X8X8X8X8X8X8X8X8X8X8X8X8X8Xk  .i.d.d.d.d.d.X.V 9 r Z K T T T T G 8X8X8X8X8X8X8X8X8X8X8X8X8X8X8X",
"8X8X8X8X8X8X8X8X8X8X8X8X8X8X8X8X8X8X8X8X8X8X8X8X8X8X8X8X8X8X8X8X8X8X8X8X8X8X8X8X8X8X8X8X,.4.] { X.X.d.d.d.d...8X8X* 5 J T G J G N 8X8X8X8X8X8X8X8X8X8X8X8X8X8X8X",
"8X8X8X8X8X8X8X8X8X8X8X8X8X8X8X8X8X8X8X8X8X8X8X8X8X8X8X8X8X8X8X8X8X8X8X8X8X8X8X8X8X8X8Xo.4.L.z.a.d.{ d.d.d.+.L O 5 4 : A K j x #.= 8X8X8X8X8X8X8X8X8X8X8X8X8X8X8X",
"8X8X8X8X8X8X8X8X8X8X8X8X8X8X8X8X8X8X8X8X8X8X8X8X8X8X8X8X8X8X8X8X8X8X8X8X8X8X8X8X8X8Xa.d.X.^.!.' o.i.d.d.X.E l l V P 5 ; =.: 7 1 8X8X8X8X8X8X8X8X8X8X8X8X8X8X8X8X",
"8X8X8X8X8X8X8X8X8X8X8X8X8X8X8X8X8X8X8X8X8X8X8X8X8X8X8X8X8X8X8X8X8X8X8X8X8X8X8X8X8Xa.d.d.d.q.R.t...d.d.{ J 8XH.6.H K Z : w 9 # 8X8X8X8X8X8X8X8X8X8X8X8X8X8X8X8X8X",
"8X8X8X8X8X8X8X8X8X8X8X8X8X8X8X8X8X8X8X8X8X8X8X8X8X8X8X8X8X8X8X8X8X8X8X8X8X8X8X8X8X..d.d.d.s.L.e.p.d.{ 8X8X5 u J.2.) F y i 7 8X8X8X8X8X8X8X8X8X8X8X8X8X8X8X8X8X8X",
"8X8X8X8X8X8X8X8X8X8X8X8X8X8X8X8X8X8X8X8X8X8X8X8X8X8X8X8X8X8X8X8X8X8X8X8X8X8X8X8X..X.d.d.d.+.4.P.p.X.8X8X> i i p J.6.%.$.0 # 8X8X8X8X8X8X8X8X8X8X8X8X8X8X8X8X8X8X",
"8X8X8X8X8X8X8X8X8X8X8X8X8X8X8X8X8X8X8X8X8X8X8X8X8X8X8X8X8X8X8X8X8X8X8X8X8X8X8Xd.d.d.d.d.d.d.3.,.S 8X8X8X5 i i i u G.K.&.& 8X8X8X8X8X8X8X8X8X8X8X8X8X8X8X8X8X8X8X",
"8X8X8X8X8X8X8X8X8X8X8X8X8X8X8X8X8X8X8X8X8X8X8X8X8X8X8X8X8X8X8X8X8X8X8X8X8Xa.d.d.d.d.d.X.] E R 8X8X8X8X8Xi i i i i i q < 8X8X8X8X8X8X8X8X8X8X8X8X8X8X8X8X8X8X8X8X",
"8X8X8X8X8X8X8X8X8X8X8X8X8X8X8X8X8X8X8X8X8X8X8X8X8X8X8X8X8X8X8X8X8X8X8X8Xa.d.d.d.d.d.d.a.y.8X8X8X8X8X8X8X3 i i i 8 *   8X8X8X8X8X8X8X8X8X8X8X8X8X8X8X8X8X8X8X8X8X",
"8X8X8X8X8X8X8X8X8X8X8X8X8X8X8X8X8X8X8X8X8X8X8X8X8X8X8X8X8X8X8X8X8X8X/ ( d.d.d.d.d.d.i.8X8X8X8X8X8X8X8Xg 4 i 9 % * * 8X8X8X8X8X8X8X8X8X8X8X8X8X8X8X8X8X8X8X8X8X8X",
"8X8X8X8X8X8X8X8X8X8X8X8X8X8X8X8X8X8X8X8X8X8X8X8X8X8X8X8X8X8X8X8XR [ M.b.O.d.d.d.i.u.8X8X8X8X8X8X8X8X8XG y i i 9 4 # 8X8X8X8X8X8X8X8X8X8X8X8X8X8X8X8X8X8X8X8X8X8X",
"8X8X8X8X8X8X8X8X8X8X8X8X8X8X8X8X8X8X8X8X8X8X8X8X8X8X8X8X8Xi.a.d.d.X.b.N.v.| a.i.8X8X8X8X8X8X8X8X8X8XJ F y i i 9 $ 8X8X8X8X8X8X8X8X8X8X8X8X8X8X8X8X8X8X8X8X8X8X8X",
"8X8X8X8X8X8X8X8X8X8X8X8X8X8X8X8X8X8X8X8X8X8X8X8X8X8X8X8Xi.d.d.X.i.i.[ M.v./ S 8X8X8X8X8X8X8X8X8X8X8XA =.i i 0 % 8X8X8X8X8X8X8X8X8X8X8X8X8X8X8X8X8X8X8X8X8X8X8X8X",
"8X8X8X8X8X8X8X8X8X8X8X8X8X8X8X8X8X8X8X8X8X8X8X8X8X8X8X8X{ d...{ d.d. .( v.M 8X8X8X8X8X8X8X8X8X8X8XX s @.i i * 8X8X8X8X8X8X8X8X8X8X8X8X8X8X8X8X8X8X8X8X8X8X8X8X8X",
"8X8X8X8X8X8X8X8X8X8X8X8X8X8X8X8X8X8X8X8X8X8X8X8X8X8X8X8X8Xd.d.` L ` d.} b 8X8X8X8X8X8X8X8X8X8X8X8Xv n D 6 3 8X8X8X8X8X8X8X8X8X8X8X8X8X8X8X8X8X8X8X8X8X8X8X8X8X8X",
"8X8X8X8X8X8X8X8X8X8X8X8X8X8X8X8X8X8X8X8X8X8X8X8X8X8X8X8X8Xi.d.d.d.d.d.X.8X8X8X8X8X8X8X8X8X8X8X8X+ n n ^ M 8X8X8X8X8X8X8X8X8X8X8X8X8X8X8X8X8X8X8X8X8X8X8X8X8X8X8X",
"8X8X8X8X8X8X8X8X8X8X8X8X8X8X8X8X8X8X8X8X8X8X8X8X8X8X8X8X8X8Xd.d.d.d.d.i.8X8X8X8X8X8X8X8X8X8X8X8XS v z m m 8X8X8X8X8X8X8X8X8X8X8X8X8X8X8X8X8X8X8X8X8X8X8X8X8X8X8X",
"8X8X8X8X8X8X8X8X8X8X8X8X8X8X8X8X8X8X8X8X8X8X8X8X8X8X8X8X8X8Xa.d.d.d.a.8X8X8X8X8X8X8X8X8X8X8X8XF D : w t , = 8X8X8X8X8X8X8X8X8X8X8X8X8X8X8X8X8X8X8X8X8X8X8X8X8X8X",
"8X8X8X8X8X8X8X8X8X8X8X8X8X8X8X8X8X8X8X8X8X8X8X8X8X8X8X8X8X8Xa.d.d.d.d.8X8X8X8X8X8X8X8X8X8X8XG T j 3 i 9 * 0 9 8X8X8X8X8X8X8X8X8X8X8X8X8X8X8X8X8X8X8X8X8X8X8X8X8X",
"8X8X8X8X8X8X8X8X8X8X8X8X8X8X8X8X8X8X8X8X8X8X8X8X8X8X8X8X8Xi.d.d.d.d.8X8X8X8X8X8X8X8X8X8X8X8XJ T S : 1 * 3 i y ; 8X8X8X8X8X8X8X8X8X8X8X8X8X8X8X8X8X8X8X8X8X8X8X8X",
"8X8X8X8X8X8X8X8X8X8X8X8X8X8X8X8X8X8X8X8X8X8X8X8X8X8X8X8X8Xi.d.d.d.d.8X8X8X8X8X8X8X8X8X8X8XS T T J #.3 3 i i =.G F F g 8X8X8X8X8X8X8X8X8X8X8X8X8X8X8X8X8X8X8X8X8X",
"8X8X8X8X8X8X8X8X8X8X8X8X8X8X8X8X8X8X8X8X8X8X8X8X8X8X8X8X8X..d.d.d.a.8X8X8X8X8X8X8X8X8X8X8XA T T T Z i i i y P T T T T F B 8X8X8X8X8X8X8X8X8X8X8X8X8X8X8X8X8X8X8X",
"8X8X8X8X8X8X8X8X8X8X8X8X8X8X8X8X8X8X8X8X8X8X8X8X8X8X8X8X8XE o.d.d...8X8X8X8X8X8X8X8X8X8X8Xg F G G x * $ 2 z F G G G j j G B o 8X8X8X8X8X8X8X8X8X8X8X8X8X8X8X8X8X",
"8X8X8X8X8X8X8X8X8X8X8X8X8X8X8X8X8X8X8X8X8X8X8X8X8X8X8X8X8X8Xo.d.X.R 8X8X8X8X8X8X8X8X8X8X8X8X. . .   8X8X8X. . . . .     . . 8X8X8X8X8X8X8X8X8X8X8X8X8X8X8X8X8X8X",
"8X8X8X8X8X8X8X8X8X8X8X8X8X8X8X8X8X8X8X8X8X8X8X8X8X8X8X8X8X8X..a.` S 8X8X8X8X8X8X8X8X8X8X8X8X8X8X8X8X8X8X8X8X8X8X8X8X8X8X8X8X8X8X8X8X8X8X8X8X8X8X8X8X8X8X8X8X8X8X",
"8X8X8X8X8X8X8X8X8X8X8X8X8X8X8X8X8X8X8X8X8X8X8X8X8X8X8X8X8X8X .a.{ S 8X8X8X8X8X8X8X8X8X8X8X8X8X8X8X8X8X8X8X8X8X8X8X8X8X8X8X8X8X8X8X8X8X8X8X8X8X8X8X8X8X8X8X8X8X8X",
"8X8X8X8X8X8X8X8X8X8X8X8X8X8X8X8X8X8X8X8X8X8X8X8X8X8X8X8X8X8X8Xo.{ 8X8X8X8X8X8X8X8X8X8X8X8X8X8X8X8X8X8X8X8X8X8X8X8X8X8X8X8X8X8X8X8X8X8X8X8X8X8X8X8X8X8X8X8X8X8X8X",
"8X8X8X8X8X8X8X8X8X8X8X8X8X8X8X8X8X8X8X8X8X8X8X8X8X8X8X8X8X8X8X{ { 8X8X8X8X8X8X8X8X8X8X8X8X8X8X8X8X8X8X8X8X8X8X8X8X8X8X8X8X8X8X8X8X8X8X8X8X8X8X8X8X8X8X8X8X8X8X8X",
"8X8X8X8X8X8X8X8X8X8X8X8X8X8X8X8X8X8X8X8X8X8X8X8X8X8X8X8X8X8X8X8X8X8X8X8X8X8X8X8X8X8X8X8X8X8X8X8X8X8X8X8X8X8X8X8X8X8X8X8X8X8X8X8X8X8X8X8X8X8X8X8X8X8X8X8X8X8X8X8X",
"8X8X8X8X8X8X8X8X8X8X8X8X8X8X8X8X8X8X8X8X8X8X8X8X8X8X8X8X8X8X8X8X8X8X8X8X8X8X8X8X8X8X8X8X8X8X8X8X8X8X8X8X8X8X8X8X8X8X8X8X8X8X8X8X8X8X8X8X8X8X8X8X8X8X8X8X8X8X8X8X",
"8X8X8X8X8X8X8X8X8X8X8X8X8X8X8X8X8X8X8X8X8X8X8X8X8X8X8X8X8X8X8X8X8X8X8X8X8X8X8X8X8X8X8X8X8X8X8X8X8X8X8X8X8X8X8X8X8X8X8X8X8X8X8X8X8X8X8X8X8X8X8X8X8X8X8X8X8X8X8X8X",
"8X8X8X8X8X8X8X8X8X8X8X8X8X8X8X8X8X8X8X8X8X8X8X8X8X8X8X8X8X8X8X8X8X8X8X8X8X8X8X8X8X8X8X8X8X8X8X8X8X8X8X8X8X8X8X8X8X8X8X8X8X8X8X8X8X8X8X8X8X8X8X8X8X8X8X8X8X8X8X8X",
"8X8X8X8X8X8X8X8X8X8X8X8X8X8X8X8X8X8X8X8X8X8X8X8X8X8X8X8X8X8X8X8X8X8X8X8X8X8X8X8X8X8X8X8X8X8X8X8X8X8X8X8X8X8X8X8X8X8X8X8X8X8X8X8X8X8X8X8X8X8X8X8X8X8X8X8X8X8X8X8X",
"8X8X8X8X8X8X8X8X8X8X8X8X8X8X8X8X8X8X8X8X8X8X8X8X8X8X8X8X8X8X8X8X8X8X8X8X8X8X8X8X8X8X8X8X8X8X8X8X8X8X8X8X8X8X8X8X8X8X8X8X8X8X8X8X8X8X8X8X8X8X8X8X8X8X8X8X8X8X8X8X",
"8X8X8X8X8X8X8X8X8X8X8X8X8X8X8X8X8X8X8X8X8X8X8X8X8X8X8X8X8X8X8X8X8X8X8X8X8X8X8X8X8X8X8X8X8X8X8X8X8X8X8X8X8X8X8X8X8X8X8X8X8X8X8X8X8X8X8X8X8X8X8X8X8X8X8X8X8X8X8X8X",
"8X8X8X8X8X8X8X8X8X8X8X8X8X8X8X8X8X8X8X8X8X8X8X8X8X8X8X8X8X8X8X8X8X8X8X8X8X8X8X8X8X8X8X8X8X8X8X8X8X8X8X8X8X8X8X8X8X8X8X8X8X8X8X8X8X8X8X8X8X8X8X8X8X8X8X8X8X8X8X8X"
};
