/* XPM */
static char *result[] = {
/* columns rows colors chars-per-pixel */
"80 80 213 2 ",
"   c #4F0B18",
".  c #591314",
"X  c #601618",
"o  c #6F231C",
"O  c #782A1C",
"+  c #4F0C27",
"@  c #51142B",
"#  c #54182F",
"$  c #571C33",
"%  c #621A21",
"&  c #781B27",
"*  c #6A1F38",
"=  c #5B212F",
"-  c #5C233C",
";  c #65242C",
":  c #732B27",
">  c #7C2B21",
",  c #66283A",
"<  c #783737",
"1  c #5C2744",
"2  c #593052",
"3  c #672943",
"4  c #612A44",
"5  c #632D4A",
"6  c #66314D",
"7  c #6A344D",
"8  c #783548",
"9  c #672857",
"0  c #6A3652",
"q  c #6E3B5A",
"w  c #773B57",
"e  c #5F3D6E",
"r  c #6E3061",
"t  c #794747",
"y  c #7F4356",
"u  c #79415A",
"i  c #734263",
"p  c #6E4A72",
"a  c #7C6C74",
"s  c #812C1D",
"d  c #873814",
"f  c #822E21",
"g  c #9A2D25",
"h  c #843224",
"j  c #8A3423",
"k  c #863729",
"l  c #933A25",
"z  c #993E26",
"x  c #933D2A",
"c  c #843A37",
"v  c #943839",
"b  c #A13F3E",
"n  c #9F4B16",
"m  c #AA4D16",
"M  c #AC5612",
"N  c #B96712",
"B  c #9D4226",
"V  c #9C432B",
"C  c #94492F",
"Z  c #9C4532",
"A  c #92413B",
"S  c #954438",
"D  c #8F5833",
"F  c #A54626",
"G  c #A2452C",
"H  c #A5492F",
"J  c #AC4C2C",
"K  c #B14F2D",
"L  c #AF522F",
"P  c #B5522E",
"I  c #BA5928",
"U  c #A44A31",
"Y  c #A94D32",
"T  c #AF4439",
"R  c #B44234",
"E  c #A75536",
"W  c #AD5333",
"Q  c #B55332",
"!  c #B95634",
"~  c #B65A36",
"^  c #BD5A33",
"/  c #B65739",
"(  c #B65A3B",
")  c #BD5C3B",
"_  c #B56E39",
"`  c #CF5F11",
"'  c #C6780E",
"]  c #CB7116",
"[  c #C97714",
"{  c #C15E36",
"}  c #C2523C",
"|  c #C15E3C",
" . c #C46B25",
".. c #CC7427",
"X. c #C36135",
"o. c #CA6635",
"O. c #C5623B",
"+. c #C9663C",
"@. c #CD6A3D",
"#. c #D06D3F",
"$. c #D6723A",
"%. c #863B4A",
"&. c #863E56",
"*. c #9D3D53",
"=. c #983E56",
"-. c #A93B45",
";. c #894449",
":. c #924342",
">. c #984946",
",. c #9F524C",
"<. c #844558",
"1. c #954757",
"2. c #A24B42",
"3. c #A85746",
"4. c #AF514A",
"5. c #BC5C40",
"6. c #B65850",
"7. c #846552",
"8. c #BD6A4A",
"9. c #A86359",
"0. c #BA6D57",
"q. c #B07553",
"w. c #844363",
"e. c #916B6C",
"r. c #957A79",
"t. c #B66A67",
"y. c #AA7275",
"u. c #C85843",
"i. c #D55D51",
"p. c #C66342",
"a. c #C96542",
"s. c #CD6B42",
"d. c #C7664C",
"f. c #D26246",
"g. c #D16E41",
"h. c #C9734C",
"j. c #D67342",
"k. c #D77748",
"l. c #C66A5A",
"z. c #C97753",
"x. c #D67B51",
"c. c #D97D52",
"v. c #C6746D",
"b. c #D5920E",
"n. c #CA8616",
"m. c #D98E1A",
"M. c #E29809",
"N. c #CC802A",
"B. c #D38929",
"V. c #D6DA32",
"C. c #A38F7F",
"Z. c #D68056",
"A. c #D18B50",
"S. c #DB835D",
"D. c #C88B64",
"F. c #DB8561",
"G. c #C79976",
"H. c #E69575",
"J. c #D5BA79",
"K. c #5F5396",
"L. c #685289",
"P. c #735089",
"I. c #7D7696",
"U. c #525BB4",
"Y. c #787DAC",
"T. c #557DCE",
"R. c #937286",
"E. c #8C7897",
"W. c #AD6A8B",
"Q. c #B56A8B",
"!. c #7C8AB6",
"~. c #79A6D6",
"^. c #9B8886",
"/. c #BE959F",
"(. c #AAA989",
"). c #B5AD8F",
"_. c #988EAF",
"`. c #9996B7",
"'. c #B399A4",
"]. c #AAAAA9",
"[. c #B8ABAE",
"{. c #B7B7AA",
"}. c #C6948B",
"|. c #C8B18F",
" X c #C7C7A6",
".X c #CCCCAB",
"XX c #D1CDAA",
"oX c #C7C8B4",
"OX c #D3D3B2",
"+X c #D7D8B7",
"@X c #D7D7BD",
"#X c #E1E1BE",
"$X c #9E9EC8",
"%X c #86BCDD",
"&X c #ADA7CB",
"*X c #BCBCC8",
"=X c #ADAED8",
"-X c #B2B2DB",
";X c #BCBCDC",
":X c #BCBDE3",
">X c #D3D3C7",
",X c #DADACA",
"<X c #CDCED0",
"1X c #C6C6D8",
"2X c #E6E6CD",
"3X c #EBEBD6",
"4X c #C2C3E6",
"5X c #CECEEF",
"6X c #EEEEE2",
"7X c #F3F3ED",
"8X c #F6F6F4",
"9X c #F8F8F8",
"0X c None",
/* pixels */
"0X0X0X0X0X0X0X0X0X0X0X0X0X0X0X0X0X0X0X0X0X0X0X0X0X0X0X0X0X0X0X0X0X0X0X0X0X0X0X0X0X0X0X0X0X0X0X0X0X0X0X0X0X0X0X0X0X0X0X0X0X0X0X0X0X0X0X0X0X0X0X0X0X0X0X0X0X0X0X0X",
"0X0X0X0X0X0X0X0X0X0X0X0X0X0X0X0X0X0X0X0X0X0X0X0X0X0X0X0X0X0X0X0X0X0X0X0X0X0X0X0X0X0X0X0X0X0X0X0X0X0X0X0X0X0X0X0X0X0X0X0X0X0X0X0X0X0X0X0X0X0X0X0X0X0X0X0X0X0X0X0X",
"0X0X0X0X0X0X0X0X0X0X0X0X0X0X0X0X0X0X0X0X0X0X0X0X0X0X0X0X0X0X0X0X0X0X0X0X0X0X0X0X0X0X0X0X0X0X0X0X0X0X0X0X0X0X0X0X0X0X0X0X0X0X0X0X0X0X0X0X0X0X0X0X0X0X0X0X0X0X0X0X",
"0X0X0X0X0X0X0X0X0X0X0X0X0X0X0X0X0X0X0X0X0X0X0X0X0X0X0X0X0X0X0X0X0X0X0X0X0X0X0X0X0X0X0X0X0X0X0X0X0X0X0X0X0X0X0X0X0X0X0X0X0X0X0X0X0X0X0X0X0X0X0X0X0X0X0X0X0X0X0X0X",
"0X0X0X0X0X0X0X0X0X0X0X0X0X0X0X0X0X0X0X0X0X0X0X0X0X0X0X0X0X0X0X0X0X0X0X0X0X0X0X0X0X0X0X0X0X0X0X0X0X0X0X0X0X0X0X0X0X0X0X0X0X0X0X0X0X0X0X0X0X0X0X0X0X0X0X0X0X0X0X0X",
"0X0X0X0X0X0X0X0X0X0X0X0X0X0X0X0X0X0X0X0X0X0X0X0X0X0X0X0X0X0X0X0X0X0X0X0X0X0X0X0X0X0X0X0X0X0X0X0X0X0X0X0X0X0X0X0X0X0X0X0X0X0X0X0X0X0X0X0X0X0X0X0X0X0X0X0X0X0X0X0X",
"0X0X0X0X0X0X0X0X0X0X0X0X0X0X0X0X0X0X0X0X0X0X0X0X0X0X0X0X0X0X0X0X0X0X0X0X0X0X0X0X0X0X0X0X0X0X0X0X0X0X0X0X0X0X0X0X0X0X0X0X0X0X0X0X0X0X0X0X0X0X0X0X0X0X0X0X0X0X0X0X",
"0X0X0X0X0X0X0X0X0X0X0X0X0X0X0X0X0X0X0X0X0X0X0X0X0X0X0X0X0X0X0X0X0X0X0X0X0X0X0X0X0X0X0X0X0X0X0X0X0X0X0X0X0X0X0X0X0X0X0X0X0X0X0X0X0X0X0X0X0X0X0X0X0X0X0X0X0X0X0X0X",
"0X0X0X0X0X0X0X0X0X0X0X0X0X0X0X0X0X0X0X0X0X0X0X0X0X0X0X0X0X0X0X0X0X0X0X0X0X0X0X0X0X0X0X0X0X0X0X0X0X0X0X0X0X0X0X0X0X0X0X0X0X0X0X0X0X0X0X0X0X0X0X0X0X0X0X0X0X0X0X0X",
"0X0X0X0X0X0X0X0X0X0X0X0X0X0X0X0X0X0X0X0X0X0X0X0X0X0X0X0X0X0X0X0X0X0X0X0X0X0X0X0X0X0X0X0X0X0X0X0X0X0X0X0X0X0X0X0X0X0X0X0X0X0X0X0X0X0X0X0X0X0X0X0X0X0X0X0X0X0X0X0X",
"0X0X0X0X0X0X0X0X0X0X0X0X0X0X0X0X0X0X0X0X0X0X0X0X0X0X0X0X0X0X0X0X0X0X0X0X0X0X0X0X0X0X0X0X0X0X0X0X0X0X0X0X0X0X0X0X0X0X0X0X0X0X0X0X0X0X0X0X0X0X0X0X0X0X0X0X0X0X0X0X",
"0X0X0X0X0X0X0X0X0X0X0X0X0X0X0X0X0X0X0X0X0X0X0X0X0X0X0X0X0X0X0X0X0X0X0X0X0X0X0X0X0X0X0X0X0X0X0X0X0X0X0X0X0X0X0X0X0X0X0X0X0X0X0X0X0X0X0X0X0X0X0X0X0X0X0X0X0X0X0X0X",
"0X0X0X0X0X0X0X0X0X0X0X0X0X0X0X0X0X0X0X0X0X0X0X0X0X0X0X0X0X0X0X0X0X0X0X0X0X0X0X0X0X0X0X0X0X0X0X0X0X`.<X7X8X8X7X@X0X0X0X0X0X0X0X0X0X0X0X0X0X0X0X0X0X0X0X0X0X0X0X0X",
"0X0X0X0X0X0X0X0X0X0X0X0X0X0X0X0X0X0X0X0X0X0X0X0X0X0X0X0X0X0X0X0X0X0X0X0X0X0X0X0X0X0X0X0X0X0X0X0X0X$X1X3X7X9X9X6X.X0X0X0X0X0X0X0X0X0X0X0X0X0X0X0X0X0X0X0X0X0X0X0X",
"0X0X0X0X0X0X0X0X0X0X0X0X0X0X0X0X0X0X0X0X0X0X0X0X0X0X0X0X0X0X0X0X0X0X0X0X0X0X0X0X0X0X0X0X0X0X0X0X$X:X;X*X,X2X3X2X#X{.0X0X0X0X0X0X0X0X0X0X0X0X0X0X0X0X0X0X0X0X0X0X",
"0X0X0X0X0X0X0X0X0X0X0X0X0X0X0X0X0X0X0X0X0X0X0X0X0X0X0X0X0X0X0X0X0X0X0X0X0X0X0X0X0X0X0X0X0X0X0X0X-X5X;X4X1XoX,X,X>X1X$X0X0X0X0X0X0X0X0X0X0X0X0X0X0X0X0X0X0X0X0X0X",
"0X0X0X0X0X0X0X0X0X0X0X0X0X0X0X0X0X0X0X0X0X0X0X0X0X0X0X0X0X0X0X0X0X0X0X0X0X0X0X0X0X0X0X0X0X0X0X0X=X&XE.4X[.q._.:X*X;X=X0X0X0X0X0X0X0X0X0X0X0X0X0X0X0X0X0X0X0X0X0X",
"0X0X0X0X0X0X0X0X0X0X0X0X0X0X0X0X0X0X0X0X0X0X0X0X0X0X0X0X0X0X0X0X0X0X0X0X0X0X0X0X0X0X0X0X0X0X0XD r.<.3._./.H < _.].`.$X0X0X0X0X0X0X0X0X0X0X0X0X0X0X0X0X0X0X0X0X0X",
"0X0X0X0X0X0X0X0X0X0X0X0X0X0X0X0X0X0X0X0X0X0X0X0X0X0X0X0X0X0X0X0X0X0X0X0X0X0X0XO.O.Q J P ..V.%XA. .Z > 9.y.:.2 t e.I.0X0X0X0X0X0X0X0X0X0X0X0X0X0X0X0X0X0X0X0X0X0X",
"0X0X0X0X0X0X0X0X0X0X0X0X0X0X0X0X0X0X0X0X0X0X0X0X0X0X0X0X0X0X0X0X0X0X0X0X0Xs.g.#.{ +.j.s.B.V.~.8.] X.h ) t.0.0.Q o 0X0X0X0X0X0X0X0X0X0X0X0X0X0X0X0X0X0X0X0X0X0X0X",
"0X0X0X0X0X0X0X0X0X0X0X0X0X0X0X0X0X0X0X0X0X0X0X0X0X0X0X0X0X0X0X0X0X0X0X0X0Xg.j.X.@.k.H.H.s._ T.P.` I k Q a.p.O.x 0X0X0X0X0X0X0X0X0X0X0X0X0X0X0X0X0X0X0X0X0X0X0X0X",
"0X0X0X0X0X0X0X0X0X0X0X0X0X0X0X0X0X0X0X0X0X0X0X0X0X0X0X0X0X0X0X0X0X0X0X0X|.Z.+.! j.k.S.F.k.I a U.b F O s W l o 0X0X0X0X0X0X0X0X0X0X0X0X0X0X0X0X0X0X0X0X0X0X0X0X0X",
"0X0X0X0X0X0X0X0X0X0X0X0X0X0X0X0X0X0X0X0X0X0X0X0X0X0X0X0X0X0X0X0X0X0X0X).XXD.L P j.j.j.j.j.I ' e.3.g.h 0X. 0X0X0X0X0X0X0X0X0X0X0X0X0X0X0X0X0X0X0X0X0X0X0X0X0X0X0X",
"0X0X0X0X0X0X0X0X0X0X0X0X0X0X0X0X0X0X0X0X0X0X0X0X0X0X0X0X0X0X0X0X0X0X( G.v.z.$.#.j.j.j.j.@.G.J.B.E j.V 0X0X0X0X0X0X0X0X0X0X0X0X0X0X0X0X0X0X0X0X0X0X0X0X0X0X0X0X0X",
"0X0X0X0X0X0X0X0X0X0X0X0X0X0X0X0X0X0X0X0X0X0X0X0X0X0X0X0X0X0X0X0X0XO.^ ~ l.}.N.#.j.@.+.h.G.OXOXXXr.4.>.0X0X0X0X0X0X0X0X0X0X0X0X0X0X0X0X0X0X0X0X0X0X0X0X0X0X0X0X0X",
"0X0X0X0X0X0X0X0X0X0X0X0X0X0X0X0X0X0X0X0X0X0X0X0X0X0X0X0X0X0X0X0X0XO.{ @.j.Q.D. .o.8.}.|.+XOXOXOXC.3 0X0X0X0X0X0X0X0X0X0X0X0X0X0X0X0X0X0X0X0X0X0X0X0X0X0X0X0X0X0X",
"0X0X0X0X0X0X0X0X0X0X0X0X0X0X0X0X0X0X0X0X0X0X0X0X0X0X0X0X0X0X0X0XG @.j.j.j.g.l.N.q.'.<X+XOXOX X.X.X7.0X0X0X0X0X0X0X0X0X0X0X0X0X0X0X0X0X0X0X0X0X0X0X0X0X0X0X0X0X0X",
"0X0X0X0X0X0X0X0X0X0X0X0X0X0X0X0X0X0X0X0X0X0X0X0X0X0X0X0X0X0X0XO.#.j.j.j.j.@.Q >.y.*X1X@X+X.X(..XOX(.0X0X0X0X0X0X0X0X0X0X0X0X0X0X0X0X0X0X0X0X0X0X0X0X0X0X0X0X0X0X",
"0X0X0X0X0X0X0X0X0X0X0X0X0X0X0X0X0X0X0X0X0X0X0X0X0X0X0X0X0X0X@.j.j.j.O.O.( S %   ; [.4X1X>X{.{.@X.X(.0X0X0X0X0X0X0X0X0X0X0X0X0X0X0X0X0X0X0X0X0X0X0X0X0X0X0X0X0X0X",
"0X0X0X0X0X0X0X0X0X0X0X0X0X0X0X0X0X0X0X0X0X0X0X0X0X0X0X0X0XP j.j.j.j.j.j./ c t 0X0X0X].{.].r.^.).(.0X0X0X0X0X0X0X0X0X0X0X0X0X0X0X0X0X0X0X0X0X0X0X0X0X0X0X0X0X0X0X",
"0X0X0X0X0X0X0X0X0X0X0X0X0X0X0X0X0X0X0X0X0X0X0X0X0X0X0X0X{ J j.j.j.j.j.j.j.E 7.0X0X0X0X0X, w.w.<.= 0X0X0X0X0X0X0X0X0X0X0X0X0X0X0X0X0X0X0X0X0X0X0X0X0X0X0X0X0X0X0X",
"0X0X0X0X0X0X0X0X0X0X0X0X0X0X0X0X0X0X0X0X0X0X0X0X0X0X0X+.j.^ ^ @.j.j.j.j.j.j.J 0X0X0X0X0X8 w.w.w + 0X0X0X0X0X0X0X0X0X0X0X0X0X0X0X0X0X0X0X0X0X0X0X0X0X0X0X0X0X0X0X",
"0X0X0X0X0X0X0X0X0X0X0X0X0X0X0X0X0X0X0X0X0X0X0X0X0X0X0Xj.j.k.@.^ X.g.j.j.j.j.5.v d 0X0X0Xw w.<.8 0X0X0X0X0X0X0X0X0X0X0X0X0X0X0X0X0X0X0X0X0X0X0X0X0X0X0X0X0X0X0X0X",
"0X0X0X0X0X0X0X0X0X0X0X0X0X0X0X0X0X0X0X0X0X0X0X0X0X0XO.j.j.k.x.j.@.O.@.j.j.@.Q.t. .T 0X0Xw.<.:.>.>.8 0X0X0X0X0X0X0X0X0X0X0X0X0X0X0X0X0X0X0X0X0X0X0X0X0X0X0X0X0X0X",
"0X0X0X0X0X0X0X0X0X0X0X0X0X0X0X0X0X0X0X0X0X0X0X0X0X0Xs.j.j.k.S.k.j.j.+.O.#.5.Q.n.f.t.I.:.v S v &.&.&.1.2.0X0X0X0X0X0X0X0X0X0X0X0X0X0X0X0X0X0X0X0X0X0X0X0X0X0X0X0X",
"0X0X0X0X0X0X0X0X0X0X0X0X0X0X0X0X0X0X0X0X0X0X0X0X0X0XO.j.j.j.F.c.j.j.j.@.( 9.6.[ f.E.e.#.j.j.@.V H Z 2.p.) J 0X0X0X0X0X0X0X0X0XU U 0X0X0X0X0X0X0X0X0X0X0X0X0X0X0X",
"0X0X0X0X0X0X0X0X0X0X0X0X0X0X0X0X0X0X0X0X0X0X0X0X0X0XP #.j.j.c.S.j.j.j.j.z.R.<.C 4.e.h.j.j.j.j.@.+.Y Y p.p./ 1.N M k < f x ( ( ) / U 0X0X0X0X0X0X0X0X0X0X0X0X0X0X",
"0X0X0X0X0X0X0X0X0X0X0X0X0X0X0X0X0X0X0X0X0X0X0X0X0X0X0XO.j.j.k.Z.k.j.j.j.j.3.i i u ;.Q ~ @.j.j.j.j.> W p.O.1.3.' R L.p Z ) p.| Y U V h 0X0X0X0X0X0X0X0X0X0X0X0X0X",
"0X0X0X0X0X0X0X0X0X0X0X0X0X0X0X0X0X0X0X0X0X0X0X0X0X0X0XY s.j.j.k.x.j.j.j.j.s.<.i i i w 8 < x O.O.O.j 0XQ J %.S m -.L.c p.a.p.! p.a.a.) x 0X0X0X0X0X0X0X0X0X0X0X0X",
"0X0X0X0X0X0X0X0X0X0X0X0X0X0X0X0X0X0X0X0X0X0X0X0X0X0X0X0Xs.j.j.j.x.k.j.j.j.j.,.i i i i i q 0 : O > h 0X0X0X0XO m v 2 > V Q Y ) ) ! ! Q f 0X0X0X0X0X0X0X0X0X0X0X0X",
"0X0X0X0X0X0X0X0X0X0X0X0X0X0X0X0X0X0X0X0X0X0X0X0X0X0X0X0X+.j.j.j.k.j.j.j.j.j.( u i i i i i i :.P Q Q K 0X0X0X0X0X0X0X0X0X0Xl V 0X0X0X0X0X0X0X0X0X0X0X0X0X0X0X0X0X",
"0X0X0X0X0X0X0X0X0X0X0X0X0X0X0X0X0X0X0X0X0X0X0X0X0X0X0X0XO.j.j.j.j.j.j.j.j.j.O.y i i i i i i A P Q Q Q Q F 0X0X0X0X0X0X0X0X0X0X0X0X0X0X0X0X0X0X0X0X0X0X0X0X0X0X0X",
"0X0X0X0X0X0X0X0X0X0X0X0X0X0X0X0X0X0X0X0X0X0X0X0X0X0X0X0X0X| j.j.j.j.j.j.j.j.g.>.i i i i i i <.J Q Q Q Q K F 0X0X0X0X0X0X0X0X0X0X0X0X0X0X0X0X0X0X0X0X0X0X0X0X0X0X",
"0X0X0X0X0X0X0X0X0X0X0X0X0X0X0X0X0X0X0X0X0X0X0X0X0X0X0X0X0XQ a.j.j.j.j.j.j.j.j.K , q q i i i i ;.J Q Q Q Q K z 0X0X0X0X0X0X0X0X0X0X0X0X0X0X0X0X0X0X0X0X0X0X0X0X0X",
"0X0X0X0X0X0X0X0X0X0X0X0X0X0X0X0X0X0X0X0X0X0X0X0X0X0X0X0X0X0Xp.s.j.j.j.j.j.j.j.P 0X0X0X7 q i i i :.K Q Q Q Q J 0X0X0X0X0X0X0X0X0X0X0X0X0X0X0X0X0X0X0X0X0X0X0X0X0X",
"0X0X0X0X0X0X0X0X0X0X0X0X0X0X0X0X0X0X0X0X0X0X0X0X0X0X0X0X0X0X) p.s.j.j.j.j.j.j.O.0X0X0X0X0X, 0 q i S P Q Q Q J 0X0X0X0X0X0X0X0X0X0X0X0X0X0X0X0X0X0X0X0X0X0X0X0X0X",
"0X0X0X0X0X0X0X0X0X0X0X0X0X0X0X0X0X0X0X0X0X0X0X0X0X0X0X0X0X0X0X! p.g.j.j.j.j.j.+.0X0X0X0X0X0X0X@ 5 u U P Q Q J 0X0X0X0X0X0X0X0X0X0X0X0X0X0X0X0X0X0X0X0X0X0X0X0X0X",
"0X0X0X0X0X0X0X0X0X0X0X0X0X0X0X0X0X0X0X0X0X0X0X0X0X0X0X0X0X0X0X0X| p.O.j.j.j.j.+.0X0X0X0X0X0X0X0X- 6 y Y Q Q B 0X0X0X0X0X0X0X0X0X0X0X0X0X0X0X0X0X0X0X0X0X0X0X0X0X",
"0X0X0X0X0X0X0X0X0X0X0X0X0X0X0X0X0X0X0X0X0X0X0X0X0X0X0X0X0X0X0X0X! p.O.O.j.j.j.j.! 0X0X0X0X0X0X# q 6 i ;.J Q l 0X0X0X0X0X0X0X0X0X0X0X0X0X0X0X0X0X0X0X0X0X0X0X0X0X",
"0X0X0X0X0X0X0X0X0X0X0X0X0X0X0X0X0X0X0X0X0X0X0X0X0X0X0X0X0X0X0X0X0X! p.! s.j.j.j.P 0X0X0X0X0X0X& &.i i i ;.G g 0X0X0X0X0X0X0X0X0X0X0X0X0X0X0X0X0X0X0X0X0X0X0X0X0X",
"0X0X0X0X0X0X0X0X0X0X0X0X0X0X0X0X0X0X0X0X0X0X0X0X0X0X0X0X0X0X0X0X0XQ O.p.a.j.j.j.P 0X0X0X0X0X0X, -.&.i i i =.%.0X0X0X0X0X0X0X0X0X0X0X0X0X0X0X0X0X0X0X0X0X0X0X0X0X",
"0X0X0X0X0X0X0X0X0X0X0X0X0X0X0X0X0X0X0X0X0X0X0X0X0X0X0X0X0X0X0X0XO.{ | p.a.j.j.j.P 0X0X0X0X0X0X1 P.*.*.*.*.P.e 0X0X0X0X0X0X0X0X0X0X0X0X0X0X0X0X0X0X0X0X0X0X0X0X0X",
"0X0X0X0X0X0X0X0X0X0X0X0X0X0X0X0X0X0X0X0X0X0X0X0X0X0X0X0X0X0Xu.a.j.j.a.p.a.j.j.~ 0X0X0X0X0X0X0X$ i L.K.K.K.p 1 0X0X0X0X0X0X0X0X0X0X0X0X0X0X0X0X0X0X0X0X0X0X0X0X0X",
"0X0X0X0X0X0X0X0X0X0X0X0X0X0X0X0X0X0X0X0X0X0X0X0X0X0X0X0X0XY 6.i.f.g.a.p.a.j.) 0X0X0X0X0X0X0X0X0X- i i i i 7 % 0X0X0X0X0X0X0X0X0X0X0X0X0X0X0X0X0X0X0X0X0X0X0X0X0X",
"0X0X0X0X0X0X0X0X0X0X0X0X0X0X0X0X0X0X0X0X0X0X0X0X0X0X0X0X^ 9.Y.E.v.i.) | { Q 0X0X0X0X0X0X0X0X0X0X0X4 i i q ; s 0X0X0X0X0X0X0X0X0X0X0X0X0X0X0X0X0X0X0X0X0X0X0X0X0X",
"0X0X0X0X0X0X0X0X0X0X0X0X0X0X0X0X0X0X0X0X0X0X0X0X0X0X0X0X@.j.d.R.!.W.} | Q l 0X0X0X0X0X0X0X0X0X0X0X$ - q 4 4 0X0X0X0X0X0X0X0X0X0X0X0X0X0X0X0X0X0X0X0X0X0X0X0X0X0X",
"0X0X0X0X0X0X0X0X0X0X0X0X0X0X0X0X0X0X0X0X0X0X0X0X0X0X0X! g.j.j.j.0.Y.y.u.Y 0X0X0X0X0X0X0X0X0X0X0X0X4 7 6 i 5 0X0X0X0X0X0X0X0X0X0X0X0X0X0X0X0X0X0X0X0X0X0X0X0X0X0X",
"0X0X0X0X0X0X0X0X0X0X0X0X0X0X0X0X0X0X0X0X0X0X0X0X0X0X0X) j.j.j.j.$.9.E.u.0X0X0X0X0X0X0X0X0X0X0X0X0X@ i i i 5 0X0X0X0X0X0X0X0X0X0X0X0X0X0X0X0X0X0X0X0X0X0X0X0X0X0X",
"0X0X0X0X0X0X0X0X0X0X0X0X0X0X0X0X0X0X0X0X0X0X0X0X0X0X0X{ j.j.j.j.j.+.E 0X0X0X0X0X0X0X0X0X0X0X0X0X0X@ 9 r r * 0X0X0X0X0X0X0X0X0X0X0X0X0X0X0X0X0X0X0X0X0X0X0X0X0X0X",
"0X0X0X0X0X0X0X0X0X0X0X0X0X0X0X0X0X0X0X0X0X0X0X0X0X0X0X{ j.j.j.s.s.O.0X0X0X0X0X0X0X0X0X0X0X0X0X0X0XX B B V d 0X0X0X0X0X0X0X0X0X0X0X0X0X0X0X0X0X0X0X0X0X0X0X0X0X0X",
"0X0X0X0X0X0X0X0X0X0X0X0X0X0X0X0X0X0X0X0X0X0X0X0X0X0X! O.j.j.j.j.@.{ 0X0X0X0X0X0X0X0X0X0X0X0X0X0X0X. n M M d o 0X0X0X0X0X0X0X0X0X0X0X0X0X0X0X0X0X0X0X0X0X0X0X0X0X",
"0X0X0X0X0X0X0X0X0X0X0X0X0X0X0X0X0X0X0X0X0X0X0X0X0X0X+.j.j.j.j.j.{ 0X0X0X0X0X0X0X0X0X0X0X0X0X0X0X0X+ k B V * j P J J 0X0X0X0X0X0X0X0X0X0X0X0X0X0X0X0X0X0X0X0X0X0X",
"0X0X0X0X0X0X0X0X0X0X0X0X0X0X0X0X0X0X0X0X0X0X0X0X0XX.j.j.j.j.j.O.0X0X0X0X0X0X0X0X0X0X0X0X0X0X0X0X0X4 1 9 9 4 z Q Q P K J 0X0X0X0X0X0X0X0X0X0X0X0X0X0X0X0X0X0X0X0X",
"0X0X0X0X0X0X0X0X0X0X0X0X0X0X0X0X0X0X0X0X0X0X0X0X0X#.j.j.j.j.+.0X0X0X0X0X0X0X0X0X0X0X0X0X0X0X0X0X0X6 i 6 $ ; j Q Q Q Q K B B B B l 0X0X0X0X0X0X0X0X0X0X0X0X0X0X0X",
"0X0X0X0X0X0X0X0X0X0X0X0X0X0X0X0X0X0X0X0X0X0X0X0X+.j.j.j.j.@.0X0X0X0X0X0X0X0X0X0X0X0X0X0X0X0X0X0X0X6 i i i q 4 x Q Q Q K K J G J V 0X0X0X0X0X0X0X0X0X0X0X0X0X0X0X",
"0X0X0X0X0X0X0X0X0X0X0X0X0X0X0X0X0X0X0X0X0X0X0X0X{ g.j.j.#.0X0X0X0X0X0X0X0X0X0X0X0X0X0X0X0X0X0X0X0X6 i i i 5 1 ; V G G G F j h j 0X0X0X0X0X0X0X0X0X0X0X0X0X0X0X0X",
"0X0X0X0X0X0X0X0X0X0X0X0X0X0X0X0X0X0X0X0X0X0X0X[ b.m.@.g.{ 0X0X0X0X0X0X0X0X0X0X0X0X0X0X0X0X0X0X0X0X@ # # # 0X0X0X0X0X0X0X0X0X0X0X0X0X0X0X0X0X0X0X0X0X0X0X0X0X0X0X",
"0X0X0X0X0X0X0X0X0X0X0X0X0X0X0X0X0X0X0X0X0X0XI M.b.M.] L 0X0X0X0X0X0X0X0X0X0X0X0X0X0X0X0X0X0X0X0X0X0X0X0X0X0X0X0X0X0X0X0X0X0X0X0X0X0X0X0X0X0X0X0X0X0X0X0X0X0X0X0X",
"0X0X0X0X0X0X0X0X0X0X0X0X0X0X0X0X0X0X0X0X0X^ O. .n.M.N 0X0X0X0X0X0X0X0X0X0X0X0X0X0X0X0X0X0X0X0X0X0X0X0X0X0X0X0X0X0X0X0X0X0X0X0X0X0X0X0X0X0X0X0X0X0X0X0X0X0X0X0X0X",
"0X0X0X0X0X0X0X0X0X0X0X0X0X0X0X0X0X0X0X0X0X+.j.g.{ ..' 0X0X0X0X0X0X0X0X0X0X0X0X0X0X0X0X0X0X0X0X0X0X0X0X0X0X0X0X0X0X0X0X0X0X0X0X0X0X0X0X0X0X0X0X0X0X0X0X0X0X0X0X0X",
"0X0X0X0X0X0X0X0X0X0X0X0X0X0X0X0X0X0X0X0XO.@.j.g.s.g.+.{ 0X0X0X0X0X0X0X0X0X0X0X0X0X0X0X0X0X0X0X0X0X0X0X0X0X0X0X0X0X0X0X0X0X0X0X0X0X0X0X0X0X0X0X0X0X0X0X0X0X0X0X0X",
"0X0X0X0X0X0X0X0X0X0X0X0X0X0X0X0X0X0X0X+.@.@.j.s.j.j.j.#.^ 0X0X0X0X0X0X0X0X0X0X0X0X0X0X0X0X0X0X0X0X0X0X0X0X0X0X0X0X0X0X0X0X0X0X0X0X0X0X0X0X0X0X0X0X0X0X0X0X0X0X0X",
"0X0X0X0X0X0X0X0X0X0X0X0X0X0X0X0X0X0XX.j.@.@.j.+.#.j.j.j.@.0X0X0X0X0X0X0X0X0X0X0X0X0X0X0X0X0X0X0X0X0X0X0X0X0X0X0X0X0X0X0X0X0X0X0X0X0X0X0X0X0X0X0X0X0X0X0X0X0X0X0X",
"0X0X0X0X0X0X0X0X0X0X0X0X0X0X0X0X0X0Xs.j.j.X.+.X.j.j.j.j.@.^ ^ 0X0X0X0X0X0X0X0X0X0X0X0X0X0X0X0X0X0X0X0X0X0X0X0X0X0X0X0X0X0X0X0X0X0X0X0X0X0X0X0X0X0X0X0X0X0X0X0X0X",
"0X0X0X0X0X0X0X0X0X0X0X0X0X0X0X0X0X0Xs.j.j.#.{ j.j.j.j.j.j.j.j.@.^ 0X0X0X0X0X0X0X0X0X0X0X0X0X0X0X0X0X0X0X0X0X0X0X0X0X0X0X0X0X0X0X0X0X0X0X0X0X0X0X0X0X0X0X0X0X0X0X",
"0X0X0X0X0X0X0X0X0X0X0X0X0X0X0X0X0X0XO.@.#.#.g.#.#.#.#.#.+.( { #.#.^ 0X0X0X0X0X0X0X0X0X0X0X0X0X0X0X0X0X0X0X0X0X0X0X0X0X0X0X0X0X0X0X0X0X0X0X0X0X0X0X0X0X0X0X0X0X0X",
"0X0X0X0X0X0X0X0X0X0X0X0X0X0X0X0X0X0X0XG ! Q Q ! Q Q Q ! G h 0X! ! 0X0X0X0X0X0X0X0X0X0X0X0X0X0X0X0X0X0X0X0X0X0X0X0X0X0X0X0X0X0X0X0X0X0X0X0X0X0X0X0X0X0X0X0X0X0X0X",
"0X0X0X0X0X0X0X0X0X0X0X0X0X0X0X0X0X0X0X0X0X0X0X0X0X0X0X0X0X0X0X0X0X0X0X0X0X0X0X0X0X0X0X0X0X0X0X0X0X0X0X0X0X0X0X0X0X0X0X0X0X0X0X0X0X0X0X0X0X0X0X0X0X0X0X0X0X0X0X0X",
"0X0X0X0X0X0X0X0X0X0X0X0X0X0X0X0X0X0X0X0X0X0X0X0X0X0X0X0X0X0X0X0X0X0X0X0X0X0X0X0X0X0X0X0X0X0X0X0X0X0X0X0X0X0X0X0X0X0X0X0X0X0X0X0X0X0X0X0X0X0X0X0X0X0X0X0X0X0X0X0X",
"0X0X0X0X0X0X0X0X0X0X0X0X0X0X0X0X0X0X0X0X0X0X0X0X0X0X0X0X0X0X0X0X0X0X0X0X0X0X0X0X0X0X0X0X0X0X0X0X0X0X0X0X0X0X0X0X0X0X0X0X0X0X0X0X0X0X0X0X0X0X0X0X0X0X0X0X0X0X0X0X"
};
