/* XPM */
static char *result[] = {
/* columns rows colors chars-per-pixel */
"80 80 223 2 ",
"   c #460519",
".  c #520D12",
"X  c #5D1517",
"o  c #661517",
"O  c #6C2216",
"+  c #72251C",
"@  c #4B0B24",
"#  c #521429",
"$  c #561B33",
"%  c #591F36",
"&  c #591F38",
"*  c #691D25",
"=  c #701A2E",
"-  c #53223D",
";  c #5C223B",
":  c #6D2325",
">  c #772A26",
",  c #7A312C",
"<  c #632437",
"1  c #5F2742",
"2  c #622A45",
"3  c #6B2D47",
"4  c #642D49",
"5  c #782C48",
"6  c #66314F",
"7  c #773A4C",
"8  c #6A2E51",
"9  c #6A3654",
"0  c #6B3856",
"q  c #6E3C5B",
"w  c #7C3E55",
"e  c #703F5F",
"r  c #523A6E",
"t  c #6F3E60",
"y  c #733866",
"u  c #7C4256",
"i  c #74425D",
"p  c #7A425A",
"a  c #5A4074",
"s  c #734263",
"d  c #76486B",
"f  c #725367",
"g  c #704F74",
"h  c #813314",
"j  c #8B3623",
"k  c #873528",
"l  c #963C25",
"z  c #9D3C24",
"x  c #943D2A",
"c  c #863530",
"v  c #893B38",
"b  c #903C3A",
"n  c #B33E29",
"m  c #AA3735",
"M  c #9A540E",
"N  c #B25E0F",
"B  c #AA4D18",
"V  c #A65A1E",
"C  c #AD6018",
"Z  c #BA6616",
"A  c #B36E10",
"S  c #984329",
"D  c #9C432B",
"F  c #92592E",
"G  c #9A4639",
"H  c #A34525",
"J  c #AA4726",
"K  c #AA4925",
"L  c #A4462B",
"P  c #A44A2E",
"I  c #AC4B2B",
"U  c #B4442B",
"Y  c #B14E2C",
"T  c #A9532F",
"R  c #B4512E",
"E  c #BA592A",
"W  c #A44A32",
"Q  c #AA4E32",
"!  c #BE4836",
"~  c #AC5131",
"^  c #AA5837",
"/  c #B45332",
"(  c #B95533",
")  c #B75835",
"_  c #BC5B34",
"`  c #B45539",
"'  c #BC5C3A",
"]  c #B46E2C",
"[  c #BA6236",
"{  c #CD790E",
"}  c #C55637",
"|  c #C15E35",
" . c #C25E3B",
".. c #C36626",
"X. c #CE782C",
"o. c #C86435",
"O. c #C5633A",
"+. c #C9663B",
"@. c #CD6A3D",
"#. c #D36330",
"$. c #D26E3E",
"%. c #D6753C",
"&. c #812C43",
"*. c #883D47",
"=. c #863E59",
"-. c #AA3A48",
";. c #8B4547",
":. c #974346",
">. c #894156",
",. c #96555D",
"<. c #AC534F",
"1. c #B7594B",
"2. c #A64E54",
"3. c #A9565E",
"4. c #B6644B",
"5. c #BF704C",
"6. c #A9685C",
"7. c #BC6C55",
"8. c #A2755C",
"9. c #884265",
"0. c #914469",
"q. c #8C4774",
"w. c #A75564",
"e. c #B45C61",
"r. c #A75477",
"t. c #926469",
"y. c #8A7177",
"u. c #9D747A",
"i. c #A76769",
"p. c #B66F6E",
"a. c #A96876",
"s. c #A27776",
"d. c #D3574C",
"f. c #C56442",
"g. c #C66947",
"h. c #CD6B42",
"j. c #D16E41",
"k. c #D67342",
"l. c #D87543",
"z. c #D5764A",
"x. c #D6794B",
"c. c #CC6A53",
"v. c #CA7955",
"b. c #D77D54",
"n. c #C27A6D",
"m. c #BE861D",
"M. c #D2850D",
"N. c #D7880D",
"B. c #DD940D",
"V. c #D48E18",
"C. c #DA9814",
"Z. c #E8B203",
"A. c #DA8536",
"S. c #D39A38",
"D. c #B5A772",
"F. c #CF8B5E",
"G. c #DA8155",
"H. c #DB825C",
"J. c #DCA054",
"K. c #DC8764",
"L. c #D29577",
"P. c #E69473",
"I. c #D6A57C",
"U. c #595293",
"Y. c #624D84",
"T. c #65518C",
"R. c #6A5398",
"E. c #786E8F",
"W. c #797CB0",
"Q. c #805D82",
"!. c #866785",
"~. c #846D89",
"^. c #8A7398",
"/. c #A67C88",
"(. c #B57694",
"). c #7687B5",
"_. c #998D96",
"`. c #AB918A",
"'. c #B1A699",
"]. c #BBBB9B",
"[. c #8D87AD",
"{. c #8E8EB4",
"}. c #9996BD",
"|. c #AB8CA9",
" X c #A796B5",
".X c #9FA0A0",
"XX c #A7A7A5",
"oX c #BCBCAA",
"OX c #B7B4B5",
"+X c #CA9A8C",
"@X c #D0AE91",
"#X c #CBBD98",
"$X c #C5AFB9",
"%X c #CFC39D",
"&X c #C3C4A5",
"*X c #CCCBAB",
"=X c #D6D1AF",
"-X c #CFCBB2",
";X c #D6D6B5",
":X c #D4D5BB",
">X c #9D95C4",
",X c #A59FCB",
"<X c #A9A8CA",
"1X c #BABACB",
"2X c #A5A4D4",
"3X c #AAAAD1",
"4X c #A5A6D8",
"5X c #BABAD7",
"6X c #BCBCE2",
"7X c #C9B6C7",
"8X c #BEC2D8",
"9X c #CACAC8",
"0X c #D9D9CA",
"qX c #CACAD7",
"wX c #DADAD2",
"eX c #E5E5CB",
"rX c #E8E8D5",
"tX c #C6C6E6",
"yX c #EFEFE0",
"uX c #F3F3E8",
"iX c #F6F6F4",
"pX c #F8F8F9",
"aX c None",
/* pixels */
"aXaXaXaXaXaXaXaXaXaXaXaXaXaXaXaXaXaXaXaXaXaXaXaXaXaXaXaXaXaXaXaXaXaXaXaXaXaXaXaXaXaXaXaXaXaXaXaXaXaXaXaXaXaXaXaXaXaXaXaXaXaXaXaXaXaXaXaXaXaXaXaXaXaXaXaXaXaXaXaX",
"aXaXaXaXaXaXaXaXaXaXaXaXaXaXaXaXaXaXaXaXaXaXaXaXaXaXaXaXaXaXaXaXaXaXaXaXaXaXaXaXaXaXaXaXaXaXaXaXaXaXaXaXaXaXaXaXaXaXaXaXaXaXaXaXaXaXaXaXaXaXaXaXaXaXaXaXaXaXaXaX",
"aXaXaXaXaXaXaXaXaXaXaXaXaXaXaXaXaXaXaXaXaXaXaXaXaXaXaXaXaXaXaXaXaXaXaXaXaXaXaXaXaXaXaXaXaXaXaXaXaXaXaXaXaXaXaXaXaXaXaXaXaXaXaXaXaXaXaXaXaXaXaXaXaXaXaXaXaXaXaXaX",
"aXaXaXaXaXaXaXaXaXaXaXaXaXaXaXaXaXaXaXaXaXaXaXaXaXaXaXaXaXaXaXaXaXaXaXaXaXaXaXaXaXaXaXaXaXaXaXaXaXaXaXaXaXaXaXaXaXaXaXaXaXaXaXaXaXaXaXaXaXaXaXaXaXaXaXaXaXaXaXaX",
"aXaXaXaXaXaXaXaXaXaXaXaXaXaXaXaXaXaXaXaXaXaXaXaXaXaXaXaXaXaXaXaXaXaXaXaXaXaXaXaXaXaXaXaXaXaXaXaXaXaXaXaXaXaXaXaXaXaXaXaXaXaXaXaXaXaXaXaXaXaXaXaXaXaXaXaXaXaXaXaX",
"aXaXaXaXaXaXaXaXaXaXaXaXaXaXaXaXaXaXaXaXaXaXaXaXaXaXaXaXaXaXaXaXaXaXaXaXaXaXaXaXaXaXaXaXaXaXaXaXaXaXaXaXaXaXaXaXaXaXaXaXaXaXaXaXaXaXaXaXaXaXaXaXaXaXaXaXaXaXaXaX",
"aXaXaXaXaXaXaXaXaXaXaXaXaXaXaXaXaXaXaXaXaXaXaXaXaXaXaXaXaXaXaXaXaXaXaXaXaXaXaXaXaXaXaXaXaXaXaXaXaXaXaXaXaXaXaXaXaXaXaXaXaXaXaXaXaXaXaXaXaXaXaXaXaXaXaXaXaXaXaXaX",
"aXaXaXaXaXaXaXaXaXaXaXaXaXaXaXaXaXaXaXaXaXaXaXaXaXaXaXaXaXaXaXaXaXaXaXaXaXaXaXaXaXaXaXaXaXaXaXaXaXaXaXaXaXaXaXaXaXaXaXaXaXaXaXaXaXaXaXaXaXaXaXaXaXaXaXaXaXaXaXaX",
"aXaXaXaXaXaXaXaXaXaXaXaXaXaXaXaXaXaXaXaXaXaXaXaXaXaXaXaXaXaXaXaXaXaXaXaXaXaXaXaXaXaXaXaXaXaXaXaXaXaXaXaXaXaXaXaXaXaXaXaXaXaXaXaXaXaXaXaXaXaXaXaXaXaXaXaXaXaXaXaX",
"aXaXaXaXaXaXaXaXaXaXaXaXaXaXaXaXaXaXaXaXaXaXaXaXaXaXaXaXaXaXaXaXaXaXaXaXaXaXaXaXaXaXaXaXaXaXaXaXaXaXaXaXaXaXaXaXaXaXaXaXaXaXaXaXaXaXaXaXaXaXaXaXaXaXaXaXaXaXaXaX",
"aXaXaXaXaXaXaXaXaXaXaXaXaXaXaXaXaXaXaXaXaXaXaXaXaXaXaXaXaXaXaXaXaXaXaXaXaXaXaXaXaXaXaXaXaXaXaXaXaXaXaXaXaXaXaXaXaXaXaXaXaXaXaXaXaXaXaXaXaXaXaXaXaXaXaXaXaXaXaXaX",
"aXaXaXaXaXaXaXaXaXaXaXaXaXaXaXaXaXaXaXaXaXaXaXaXaXaXaXaXaXaXaXaXaXaXaXaXaXaXaXaXaXaXaXaXaXaXaXaXaXaXaXaXaXaXaXaXaXaXaXaXaXaXaXaXaXaXaXaXaXaXaXaXaXaXaXaXaXaXaXaX",
"aXaXaXaXaXaXaXaXaXaXaXaXaXaXaXaXaXaXaXaXaXaXaXaXaXaXaXaXaXaXaXaXaXaXaXaXaXaXaXaXaXaXaXaXaXaXaXaXaXaXaXaXaXaXaXaXaXaXaXaXaXaXaXaXaXaXaXaXaXaXaXaXaXaXaXaXaXaXaXaX",
"aXaXaXaXaXaXaXaXaXaXaXaXaXaXaXaXaXaXaXaXaXaXaXaXaXaXaXaXaXaXaXaXaXaXaXaXaXaXaXaXaXaXaXaXaXaXaXaXaXaXaXaXaXaXaXaXaXaXaXaXaXaXaXaXaXaXaXaXaXaXaXaXaXaXaXaXaXaXaXaX",
"aXaXaXaXaXaXaXaXaXaXaXaXaXaXaXaXaXaXaXaXaXaXaXaXaXaXaXaXaXaXaXaXaXaXaXaXaXaXaXaXaXaXaXaXaXaXaXaXaXaXaXaXaXaXaXaXaXaXaXaXaXaXaXaXaXaXaXaXaXaXaXaXaXaXaXaXaXaXaXaX",
"aXaXaXaXaXaXaXaXaXaXaXaXaXaXaXaXaXaXaXaXaXaXaXaXaXaXaXaXaXaXaXaXaXaXaXaXaXaXaXaXaXaXaXaXaXaXaXaXaXaXaXaXaXaXaXaXaXaXaXaXaXaXaXaXaXaXaXaXaXaXaXaXaXaXaXaXaXaXaXaX",
"aXaXaXaXaXaXaXaXaXaXaXaXaXaXaXaXaXaXaXaXaXaXaXaXaXaXaXaXaXaXaXaXaXaXaXaXaXaXaXaXaXaXaXaXaXaXaXaXaXaXaXaXaXaXaXaXaXaXaXaXaXaXaXaXaX}.0XiXuXpXyX*XaXaXaXaXaXaXaXaX",
"aXaXaXaXaXaXaXaXaXaXaXaXaXaXaXaXaXaXaXaXaXaXaXaXaXaXaXaXaXaXaXaXaXaXaXaXaXaXaXaXaXaXaXaXaXaXaXaXaXaXaXaXaXaXaXaXaXaXaXaXaXaXaXaX{.2XwXuXpXpXiXeX].aXaXaXaXaXaXaX",
"aXaXaXaXaXaXaXaXaXaXaXaXaXaXaXaXaXaXaXaXaXaXaXaXaXaXaXaXaXaXaXaXaXaXaXaXaXaXaXaXaXaXaXaXaXaXaXaXaXaXaXaXaXaXaXaXaXaXaXaXaXaXaX{.3X6X5X9XeXrXrXeX;XXXaXaXaXaXaXaX",
"aXaXaXaXaXaXaXaXaXaXaXaXaXaXaXaXaXaXaXaXaXaXaXaXaXaXaXaXaXaXaXaXaXaXaXaXaXaXaXaXaXaXaXaXaXaXaXaXaXaXaXaXaXaXaXaXaXaXaXaXaXaXaX}.tXtX5XtX9X:XeX0X0X5XaXaXaXaXaXaX",
"aXaXaXaXaXaXaXaXaXaXaXaXaXaXaXaXaXaXaXaXaXaXaXaXaXaXaXaXaXaXaXaXaXaXaXaXaXaXaXaXaXaXaXaXaXaXaXaXaXaXaXaXaXaXL O.h.h.) [ V.6.g.8.6X X}.tX`.s.3XtX1X6XaXaXaXaXaXaX",
"aXaXaXaXaXaXaXaXaXaXaXaXaXaXaXaXaXaXaXaXaXaXaXaXaXaXaXaXaXaXaXaXaXaXaXaXaXaXaXaXaXaXaXaXaXaXS x l x S K O.' _ k.k.x.z.T F ~.A.] _.;.s.3Xn.x f 3X.X<XaXaXaXaXaXaX",
"aXaXaXaXaXaXaXaXaXaXaXaXaXaXaXaXaXaXaXaXaXaXaXaXaXaXaXaXaXaXaXaXaXaXaXaXaXaXaXaXaXaX) | O.O.@.k.$.1.F.C.%.k.k.k.l.P.P.h.f E.A.A O.j k /.6.7 - t.y.[.aXaXaXaXaXaX",
"aXaXaXaXaXaXaXaXaXaXaXaXaXaXaXaXaXaXaXaXaXaXaXaXaXaXaXaXaXaXaXaXaXaXaXaXaXaXaXaXO.$.k.k.k.k.k.j.k.$.(.J.%.j.k.k.l.H.K.%.y.E.#.{ @.~ k g.i.7.4.L aXaXaXaXaXaXaXaX",
"aXaXaXaXaXaXaXaXaXaXaXaXaXaXaXaXaXaXaXaXaXaXaXaXaXaXaXaXaXaXaXaXaXaXaXaXaXaXaXO.k.k.k.k.k.k.O.[ k.k.c.F.../ k.k.k.l.O...F Y.m B B x > f.f.h.| , aXaXaXaXaXaXaXaX",
"aXaXaXaXaXaXaXaXaXaXaXaXaXaXaXaXaXaXaXaXaXaXaXaXaXaXaXaXaXaXaXaXaXaXaXaXaXR @.k.k.k.k.k.l.@./ @.@.@.g.5.T , / j.j.%.^ M A g T.F _ S X D ` j > aXaXaXaXaXaXaXaXaX",
"aXaXaXaXaXaXaXaXaXaXaXaXaXaXaXaXaXaXaXaXaXaXaXaXaXaXaXaXaXaXaXaXaXaXaXaX2.e.h.k.k.k.k.$._ S + P P +.L.*X*X$Xv.| O.F.#X#Xm.A V ] @.W + . X aXaXaXaXaXaXaXaXaXaXaX",
"aXaXaXaXaXaXaXaXaXaXaXaXaXaXaXaXaXaXaXaXaXaXaXaXaXaXaXaXaXaXaXaXaXaXU E S.(.a.$.k.@.( R aX~ @.%.k.k.z.@XqXtX$X+X@X=X;X;XD.A C T ;.: + aXaXaXaXaXaXaXaXaXaXaXaXaX",
"aXaXaXaXaXaXaXaXaXaXaXaXaXaXaXaXaXaXaXaXaXaXaXaXaXaXaXaXaXaXaXaXaXt.6.c.N.X.r.| R K aXaX^ @X@XG.k.k.k.z.L.7XtX8XqX;X;X;X&X%X8.* ;.[ 3.*.aXaXaXaXaXaXaXaXaXaXaXaX",
"aXaXaXaXaXaXaXaXaXaXaXaXaXaXaXaXaXaXaXaXaXaXaXaXaXaXaXaXaXaXaXaXg.u.).e.} Z :.aXaXf.h.j.x.I.;X%Xx.k.k.k.k.b.+X'.tX9X;X:XoX*X].X T e.q.>.c aXaXz / Q aXaXaXaXaXaX",
"aXaXaXaXaXaXaXaXaXaXaXaXaXaXaXaXaXaXaXaXaXaXaXaXaXaXaXaXaXaX~ j.k.$.u.,.n aXaXaXO.k.k.k.k.k.I.;Xp.3.3.3.2.:.~ 8.5XtXtXtXOX-X&XaX>.>.9.=.v W o H R I Q aXaXaXaXaX",
"aXaXaXaXaXaXaXaXaXaXaXaXaXaXaXaXaXaXaXaXaXaXaXaXaXaXaXaXaX_ @.k.k.l.4.;.aXaXR @.k.k.k.k.k.k.b.OX/.w.w.3.b aXaXaX.XOXOXXX_.XXaXaXaX5 9.;.` *.x ) Q W  .K aXaXaXaX",
"aXaXaXaXaXaXaXaXaXaXaXaXaXaXaXaXaXaXaXaXaXaXaXaXaXaXaXaX/ k.k.k.k.j.P aXaXaX@.k.k.k.k.k.k.k.v.,X2X|.a.aXaXaXaXaXaXaXaXaXaXaXaXaXaX# 3 G ) 9.<.f.W `  .J aXaXaXaX",
"aXaXaXaXaXaXaXaXaXaXaXaXaXaXaXaXaXaXaXaXaXaXaXaXaXaXaX~ k.k.k.k.l.' aXaXaX@.j.k.k.k.k.k.k.k.p.2X4X4X^.aXaXaXaXaXaXaXaXaXaXaXaXaXaXaXaX/ ) 9.v 1.Q D ' D aXaXaXaX",
"aXaXaXaXaXaXaXaXaXaXaXaXaXaXaXaXaXaXaXaXaXaXaXaXaXaXP @.k.l.O.@.@.D aXaX| @.k.k.z.z.k.k.k.h.|.4X4X{.s ;   aXaXaXaXaXaXaXaXaXaXaXaXaXaXaX/ *.y : x ` Q aXaXaXaXaX",
"aXaXaXaXaXaXaXaXaXaXaXaXaXaXaXaXaXaXaXaXaXaXaXaXaXaX@.k.k.' > S P aXaXaXO.j.k.l.H.l.k.k.k.7.,X4X>Xg s s 6 % ; aXaXaXaXaXaXaXaXaXaXaXaXaXaXo     + j aXaXaXaXaXaX",
"aXaXaXaXaXaXaXaXaXaXaXaXaXaXaXaXaXaXaXaXaXaXaXaXaXaX/ | Q + aXaXaXaXaXP @.k.l.H.b.k.k.k.@./.4X,XQ.s s s s s s 0 4 # aXaXaXaXaXaXaXaXaXaXaXaXaXaXaXaXaXaXaXaXaXaX",
"aXaXaXaXaXaXaXaXaXaXaXaXaXaXaXaXaXaXaXaXaXaXaXaXaXaXaXaXaXaXaXaXaXaXaXj.k.k.b.H.k.k.k.k.g. X2X~.s s s s s s s s s e 0 $ aXaXaXaXaXaXaXaXaXaXaXaXaXaXaXaXaXaXaXaX",
"aXaXaXaXaXaXaXaXaXaXaXaXaXaXaXaXaXaXaXaXaXaXaXaXaXaXaXaXaXaXaXaXaXaX+.k.k.z.G.l.k.k.k.h./.>X!.s s s s s s s s s s s s e 2 @ aXaXaXaXaXaXaXaXaXaXaXaXaXaXaXaXaXaX",
"aXaXaXaXaXaXaXaXaXaXaXaXaXaXaXaXaXaXaXaXaXaXaXaXaXaXaXaXaXaXaXaXaXaXj.k.l.b.z.k.k.k.k.~ i d s s s s s s s s s s s s s s s q & aXaXaXaXaXaXaXaXaXaXaXaXaXaXaXaXaX",
"aXaXaXaXaXaXaXaXaXaXaXaXaXaXaXaXaXaXaXaXaXaXaXaXaXaXaXaXaXaXaXaXaXaXk.k.x.z.k.k.k.k.+.aXaXaXs s s s s s s s s s s s s s s s s 6 c aXaXaXaXaXaXaXaXaXaXaXaXaXaXaX",
"aXaXaXaXaXaXaXaXaXaXaXaXaXaXaXaXaXaXaXaXaXaXaXaXaXaXaXaXaXaXaXaXaX+.k.k.l.k.k.k.k.j.aXaXaXaXaXs s s s s s s s s s s s s s s s s ;.Y J aXaXaXaXaXaXaXaXaXaXaXaXaX",
"aXaXaXaXaXaXaXaXaXaXaXaXaXaXaXaXaXaXaXaXaXaXaXaXaXaXaXaXaXaXaXaXaXj.k.k.k.k.k.k.$._ aXaXaXaXaXaXs s s s s s s s s s s s s s s s i G Y I aXaXaXaXaXaXaXaXaXaXaXaX",
"aXaXaXaXaXaXaXaXaXaXaXaXaXaXaXaXaXaXaXaXaXaXaXaXaXaXaXaXaXaXaXaXO.k.k.k.k.k.k.k.| aXaXaXaXaXaXaXaXs s s s s s s s s s s s s s s s p W R J aXaXaXaXaXaXaXaXaXaXaX",
"aXaXaXaXaXaXaXaXaXaXaXaXaXaXaXaXaXaXaXaXaXaXaXaXaXaXaXaXaXaXaXO.k.k.k.k.k.k.k.O.aXaXaXaXaXaXaXaXaXaXaXaX4 q s s s s s s s s s s s s u Q R l aXaXaXaXaXaXaXaXaXaX",
"aXaXaXaXaXaXaXaXaXaXaXaXaXaXaXaXaXaXaXaXaXaXaXaXaXaXaXaXaXaX' j.k.k.k.k.k.k.O.aXaXaXaXaXaXaXaXaXaXaXaXaXaXaXaXaXaXq e 6 6 q s s s s s ;.G < aXaXaXaXaXaXaXaXaXaX",
"aXaXaXaXaXaXaXaXaXaXaXaXaXaXaXaXaXaXaXaXaXaXaXaXaXaXaXaX( @.h.j.k.k.k.k.k.| aXaXaXaXaXaXaXaXaXaXaXaXaXaXaXaXaXaXaXaXaXaXaX# 4 s s s s s s $ aXaXaXaXaXaXaXaXaXaX",
"aXaXaXaXaXaXaXaXaXaXaXaXaXaXaXaXaXaXaXaXaXaXaXaXaXaX/ @.j.j.f.j.k.k.k.k.O.aXaXaXaXaXaXaXaXaXaXaXaXaXaXaXaXaXaXaXaXaXaXaXaX< 2 6 s s s s 0 aXaXaXaXaXaXaXaXaXaXaX",
"aXaXaXaXaXaXaXaXaXaXaXaXaXaXaXaXaXaXaXaXaXaXaXaXaX1.} k.k.| ' j.k.k.k.+.aXaXaXaXaXaXaXaXaXaXaXaXaXaXaXaXaXaXaXaXaXaXaXaXJ I u 2 0 s 9 ; % aXaXaXaXaXaXaXaXaXaXaX",
"aXaXaXaXaXaXaXaXaXaXaXaXaXaXaXaXaXaXaXaXaXaXaXaXu.i.} $.k._ ' j.k.$._ aXaXaXaXaXaXaXaXaXaXaXaXaXaXaXaXaXaXaXaXaXaXaXaXo U I p q q s q $ aXaXaXaXaXaXaXaXaXaXaXaX",
"aXaXaXaXaXaXaXaXaXaXaXaXaXaXaXaXaXaXaXaXaXaXaXo.`.W.d. .j.| ) ) ) ) aXaXaXaXaXaXaXaXaXaXaXaXaXaXaXaXaXaXaXaXaXaXaXaXaX< -.n u s s s e # aXaXaXaXaXaXaXaXaXaXaXaX",
"aXaXaXaXaXaXaXaXaXaXaXaXaXaXaXaXaXaXaXaXaXaX| k.7.W.a.d. .O.Q l aXaXaXaXaXaXaXaXaXaXaXaXaXaXaXaXaXaXaXaXaXaXaXaXaXaXaX6 T.q.-.=.w >.3 aXaXaXaXaXaXaXaXaXaXaXaXaX",
"aXaXaXaXaXaXaXaXaXaXaXaXaXaXaXaXaXaXaXaXaX| k.k.$.6.).e.d.! z aXaXaXaXaXaXaXaXaXaXaXaXaXaXaXaXaXaXaXaXaXaXaXaXaXaXaXaX4 g U.R.0.0.0.= aXaXaXaXaXaXaXaXaXaXaXaXaX",
"aXaXaXaXaXaXaXaXaXaXaXaXaXaXaXaXaXaXaXaXaX@.k.k.k.$.6.~.^.2.aXaXaXaXaXaXaXaXaXaXaXaXaXaXaXaXaXaXaXaXaXaXaXaXaXaXaXaXaX4 s s Y.Y.r a @ aXaXaXaXaXaXaXaXaXaXaXaXaX",
"aXaXaXaXaXaXaXaXaXaXaXaXaXaXaXaXaXaXaXaX| k.k.k.k.k.%.4.;.aXaXaXaXaXaXaXaXaXaXaXaXaXaXaXaXaXaXaXaXaXaXaXaXaXaXaXaXaXaX4 s s q 2 4 % aXaXaXaXaXaXaXaXaXaXaXaXaXaX",
"aXaXaXaXaXaXaXaXaXaXaXaXaXaXaXaXaXaXaXaX$.k.k.k.k.k.O.D aXaXaXaXaXaXaXaXaXaXaXaXaXaXaXaXaXaXaXaXaXaXaXaXaXaXaXaXaXaXaX4 s 4 ; 4 9 aXaXaXaXaXaXaXaXaXaXaXaXaXaXaX",
"aXaXaXaXaXaXaXaXaXaXaXaXaXaXaXaXaXaXaX| k.k.k.k.k.O.aXaXaXaXaXaXaXaXaXaXaXaXaXaXaXaXaXaXaXaXaXaXaXaXaXaXaXaXaXaXaXaXaX4 e 2 q s ; aXaXaXaXaXaXaXaXaXaXaXaXaXaXaX",
"aXaXaXaXaXaXaXaXaXaXaXaXaXaXaXaXaXaX+.k.k.k.k.k.j.aXaXaXaXaXaXaXaXaXaXaXaXaXaXaXaXaXaXaXaXaXaXaXaXaXaXaXaXaXaXaXaXaXaX4 s s s 0 # aXaXaXaXaXaXaXaXaXaXaXaXaXaXaX",
"aXaXaXaXaXaXaXaXaXaXaXaXaXaXaXaXaXaX+.k.k.k.k.h.aXaXaXaXaXaXaXaXaXaXaXaXaXaXaXaXaXaXaXaXaXaXaXaXaXaXaXaXaXaXaXaXaXaXaX4 s s s $ aXaXaXaXaXaXaXaXaXaXaXaXaXaXaXaX",
"aXaXaXaXaXaXaXaXaXaXaXaXaXaXaXaXaX_ k.k.k.k.j.aXaXaXaXaXaXaXaXaXaXaXaXaXaXaXaXaXaXaXaXaXaXaXaXaXaXaXaXaXaXaXaXaXaXaX@ 8 s t 0 aXaXaXaXaXaXaXaXaXaXaXaXaXaXaXaXaX",
"aXaXaXaXaXaXaXaXaXaXaXaXaXaXaXaXaXo.k.k.k.O.aXaXaXaXaXaXaXaXaXaXaXaXaXaXaXaXaXaXaXaXaXaXaXaXaXaXaXaXaXaXaXaXaXaXaXaXO V &.5 = aXaXaXaXaXaXaXaXaXaXaXaXaXaXaXaXaX",
"aXaXaXaXaXaXaXaXaXaXaXaXaXaXaXaXZ C.+.k.@.D aXaXaXaXaXaXaXaXaXaXaXaXaXaXaXaXaXaXaXaXaXaXaXaXaXaXaXaXaXaXaXaXaXaXaXaX* { N N M aXaXaXaXaXaXaXaXaXaXaXaXaXaXaXaXaX",
"aXaXaXaXaXaXaXaXaXaXaXaXaXaXaXZ M.B.{ ..P aXaXaXaXaXaXaXaXaXaXaXaXaXaXaXaXaXaXaXaXaXaXaXaXaXaXaXaXaXaXaXaXaXaXaXaXaXc v C N h H aXaXaXaXaXaXaXaXaXaXaXaXaXaXaXaX",
"aXaXaXaXaXaXaXaXaXaXaXaXaXaXaXV Z.N.N.M.aXaXaXaXaXaXaXaXaXaXaXaXaXaXaXaXaXaXaXaXaXaXaXaXaXaXaXaXaXaXaXaXaXaXaXaXaXI x 1 p i : Y R K aXaXaXaXaXaXaXaXaXaXaXaXaXaX",
"aXaXaXaXaXaXaXaXaXaXaXaXaXaX~ @.X.B.M.Z aXaXaXaXaXaXaXaXaXaXaXaXaXaXaXaXaXaXaXaXaXaXaXaXaXaXaXaXaXaXaXaXaXaXaXaXaXR j 2 s t : Y / R L j aXaXaXaXaXaXaXaXaXaXaXaX",
"aXaXaXaXaXaXaXaXaXaXaXaXaXP O.k.k.@.H aXaXaXaXaXaXaXaXaXaXaXaXaXaXaXaXaXaXaXaXaXaXaXaXaXaXaXaXaXaXaXaXaXaXaXaXaX/ R G 2 2 1 > Y / / / I l l l aXaXaXaXaXaXaXaXaX",
"aXaXaXaXaXaXaXaXaXaXaXaXI | @.k.k.$.j aXaXaXaXaXaXaXaXaXaXaXaXaXaXaXaXaXaXaXaXaXaXaXaXaXaXaXaXaXaXaXaXaXaXaXaXaX/ R G q 4 4 *.Y / / / / R / R Y J aXaXaXaXaXaXaX",
"aXaXaXaXaXaXaXaXaXaXaXaXI @.k.k.k.) aXaXaXaXaXaXaXaXaXaXaXaXaXaXaXaXaXaXaXaXaXaXaXaXaXaXaXaXaXaXaXaXaXaXaXaXaXaXJ L *.7 7 7 v L P L L L L l L L L aXaXaXaXaXaXaX",
"aXaXaXaXaXaXaXaXaXaXaXaX| k.k.k.k._ aXaXaXaXaXaXaXaXaXaXaXaXaXaXaXaXaXaXaXaXaXaXaXaXaXaXaXaXaXaXaXaXaXaXaXaXaXaXaXaXaXaXaXaXaXaXaXaXaXaXaXaXaXaXaXaXaXaXaXaXaXaX",
"aXaXaXaXaXaXaXaXaXaXaXR k.k.k.k.@.J aXaXaXaXaXaXaXaXaXaXaXaXaXaXaXaXaXaXaXaXaXaXaXaXaXaXaXaXaXaXaXaXaXaXaXaXaXaXaXaXaXaXaXaXaXaXaXaXaXaXaXaXaXaXaXaXaXaXaXaXaXaX",
"aXaXaXaXaXaXaXaXaXaXaX_ k.k.k.k.j.R aXaXaXaXaXaXaXaXaXaXaXaXaXaXaXaXaXaXaXaXaXaXaXaXaXaXaXaXaXaXaXaXaXaXaXaXaXaXaXaXaXaXaXaXaXaXaXaXaXaXaXaXaXaXaXaXaXaXaXaXaXaX",
"aXaXaXaXaXaXaXaXaXaXaX@.l.l.l.l.l.O.aXaXaXaXaXaXaXaXaXaXaXaXaXaXaXaXaXaXaXaXaXaXaXaXaXaXaXaXaXaXaXaXaXaXaXaXaXaXaXaXaXaXaXaXaXaXaXaXaXaXaXaXaXaXaXaXaXaXaXaXaXaX",
"aXaXaXaXaXaXaXaXaXaXaX~ ~ ~ ~ ~ ~ ~ aXaXaXaXaXaXaXaXaXaXaXaXaXaXaXaXaXaXaXaXaXaXaXaXaXaXaXaXaXaXaXaXaXaXaXaXaXaXaXaXaXaXaXaXaXaXaXaXaXaXaXaXaXaXaXaXaXaXaXaXaXaX",
"aXaXaXaXaXaXaXaXaXaXaXaXaXaXaXaXaXaXaXaXaXaXaXaXaXaXaXaXaXaXaXaXaXaXaXaXaXaXaXaXaXaXaXaXaXaXaXaXaXaXaXaXaXaXaXaXaXaXaXaXaXaXaXaXaXaXaXaXaXaXaXaXaXaXaXaXaXaXaXaX",
"aXaXaXaXaXaXaXaXaXaXaXaXaXaXaXaXaXaXaXaXaXaXaXaXaXaXaXaXaXaXaXaXaXaXaXaXaXaXaXaXaXaXaXaXaXaXaXaXaXaXaXaXaXaXaXaXaXaXaXaXaXaXaXaXaXaXaXaXaXaXaXaXaXaXaXaXaXaXaXaX",
"aXaXaXaXaXaXaXaXaXaXaXaXaXaXaXaXaXaXaXaXaXaXaXaXaXaXaXaXaXaXaXaXaXaXaXaXaXaXaXaXaXaXaXaXaXaXaXaXaXaXaXaXaXaXaXaXaXaXaXaXaXaXaXaXaXaXaXaXaXaXaXaXaXaXaXaXaXaXaXaX",
"aXaXaXaXaXaXaXaXaXaXaXaXaXaXaXaXaXaXaXaXaXaXaXaXaXaXaXaXaXaXaXaXaXaXaXaXaXaXaXaXaXaXaXaXaXaXaXaXaXaXaXaXaXaXaXaXaXaXaXaXaXaXaXaXaXaXaXaXaXaXaXaXaXaXaXaXaXaXaXaX",
"aXaXaXaXaXaXaXaXaXaXaXaXaXaXaXaXaXaXaXaXaXaXaXaXaXaXaXaXaXaXaXaXaXaXaXaXaXaXaXaXaXaXaXaXaXaXaXaXaXaXaXaXaXaXaXaXaXaXaXaXaXaXaXaXaXaXaXaXaXaXaXaXaXaXaXaXaXaXaXaX",
"aXaXaXaXaXaXaXaXaXaXaXaXaXaXaXaXaXaXaXaXaXaXaXaXaXaXaXaXaXaXaXaXaXaXaXaXaXaXaXaXaXaXaXaXaXaXaXaXaXaXaXaXaXaXaXaXaXaXaXaXaXaXaXaXaXaXaXaXaXaXaXaXaXaXaXaXaXaXaXaX",
"aXaXaXaXaXaXaXaXaXaXaXaXaXaXaXaXaXaXaXaXaXaXaXaXaXaXaXaXaXaXaXaXaXaXaXaXaXaXaXaXaXaXaXaXaXaXaXaXaXaXaXaXaXaXaXaXaXaXaXaXaXaXaXaXaXaXaXaXaXaXaXaXaXaXaXaXaXaXaXaX"
};
