/* XPM */
static char *result[] = {
/* columns rows colors chars-per-pixel */
"80 80 212 2 ",
"   c #4B0C1F",
".  c #530C15",
"X  c #591314",
"o  c #641A15",
"O  c #682116",
"+  c #75251E",
"@  c #78261D",
"#  c #4C0F24",
"$  c #51152A",
"%  c #53142A",
"&  c #41173A",
"*  c #561B32",
"=  c #581E35",
"-  c #601D34",
";  c #5B223C",
":  c #6B2529",
">  c #762924",
",  c #7D2B22",
"<  c #7E302C",
"1  c #652738",
"2  c #7D3A37",
"3  c #5F2740",
"4  c #50305D",
"5  c #632947",
"6  c #772A4E",
"7  c #65324D",
"8  c #77374A",
"9  c #6B3655",
"0  c #6C3957",
"q  c #643858",
"w  c #6D3A59",
"e  c #783E57",
"r  c #703E5E",
"t  c #713F61",
"y  c #774348",
"u  c #6E415F",
"i  c #7E4255",
"p  c #7A425A",
"a  c #6E4466",
"s  c #734263",
"d  c #754B6E",
"f  c #765266",
"g  c #654B7F",
"h  c #893816",
"j  c #822F21",
"k  c #843223",
"l  c #8B3523",
"z  c #85342A",
"x  c #953C26",
"c  c #983F2B",
"v  c #86373B",
"b  c #B83A35",
"n  c #954B15",
"m  c #A65413",
"M  c #AA5716",
"N  c #B35A12",
"B  c #B4620C",
"V  c #B36012",
"C  c #9C4229",
"Z  c #994428",
"A  c #8B423D",
"S  c #92443E",
"D  c #994738",
"F  c #955A30",
"G  c #A84627",
"H  c #A4462B",
"J  c #A3492D",
"K  c #AC4B2C",
"L  c #B24E2D",
"P  c #AE5728",
"I  c #B4502E",
"U  c #B9582C",
"Y  c #A24A37",
"T  c #A44934",
"R  c #AA4C31",
"E  c #B74831",
"W  c #AC5131",
"Q  c #B55231",
"!  c #B55933",
"~  c #BB5A35",
"^  c #BA5937",
"/  c #B3553B",
"(  c #BF6138",
")  c #C27305",
"_  c #CC6D13",
"`  c #C87516",
"'  c #C34F35",
"]  c #C15E35",
"[  c #C35F38",
"{  c #C85C3D",
"}  c #CC6D29",
"|  c #C56336",
" . c #C5633A",
".. c #C9663B",
"X. c #CA6839",
"o. c #CD6A3D",
"O. c #D16E3F",
"+. c #D6713F",
"@. c #833C47",
"#. c #863C53",
"$. c #B43B41",
"%. c #86424A",
"&. c #8A4848",
"*. c #914441",
"=. c #855F4F",
"-. c #9B5349",
";. c #824255",
":. c #A64C45",
">. c #B3524D",
",. c #AA5858",
"<. c #9B6D58",
"1. c #A8665A",
"2. c #B66958",
"3. c #B97050",
"4. c #9D4260",
"5. c #894976",
"6. c #A45162",
"7. c #9C696C",
"8. c #9D6476",
"9. c #906A7A",
"0. c #B86C66",
"q. c #AB637C",
"w. c #A37479",
"e. c #BC7770",
"r. c #C65647",
"t. c #D35B55",
"y. c #C66442",
"u. c #C76747",
"i. c #CD6B42",
"p. c #D16F41",
"a. c #CC704F",
"s. c #D67342",
"d. c #D87442",
"f. c #D57649",
"g. c #D6794D",
"h. c #D97A4C",
"j. c #CC7B56",
"k. c #D97E53",
"l. c #C37262",
"z. c #DA8D0C",
"x. c #D78612",
"c. c #E69C12",
"v. c #D6AE0F",
"b. c #E2A60C",
"n. c #DD862B",
"m. c #CB8C30",
"M. c #E9A127",
"N. c #A78A5E",
"B. c #8C837B",
"V. c #AC8068",
"C. c #D58154",
"Z. c #DA8759",
"A. c #DC8763",
"S. c #D68E62",
"D. c #C6916C",
"F. c #E39170",
"G. c #D4A27A",
"H. c #C3D349",
"J. c #5F5696",
"K. c #70508C",
"L. c #7D718F",
"P. c #4E5AAD",
"I. c #5B5BA7",
"U. c #7B7AA5",
"Y. c #AB5E95",
"T. c #866A87",
"R. c #997A88",
"E. c #837394",
"W. c #A8708A",
"Q. c #917DA8",
"!. c #C57E85",
"~. c #BC8989",
"^. c #A98E98",
"/. c #BBA988",
"(. c #BBBB9C",
"). c #918CB1",
"_. c #9A8DB6",
"`. c #A895AB",
"'. c #AA95B0",
"]. c #84B0BD",
"[. c #B4ABAD",
"{. c #C3918E",
"}. c #D0AF8B",
"|. c #D6B48D",
" X c #C7B1A2",
".X c #D3CBA9",
"XX c #D5CAA8",
"oX c #CACBB9",
"OX c #CED0B0",
"+X c #D4D4B7",
"@X c #9B99C8",
"#X c #A19FCD",
"$X c #A6A4CA",
"%X c #B2A9C5",
"&X c #BABACA",
"*X c #A8AAD7",
"=X c #A4A6D9",
"-X c #B6B6D9",
";X c #B6B7E1",
":X c #BFC0E2",
">X c #D8D8C6",
",X c #C6C6D5",
"<X c #DBDBD4",
"1X c #E6E6C5",
"2X c #E9E9D9",
"3X c #C3C3E4",
"4X c #C6C7E8",
"5X c #C9CAE8",
"6X c #ECECE2",
"7X c #F3F3EB",
"8X c gray97",
"9X c None",
/* pixels */
"9X9X9X9X9X9X9X9X9X9X9X9X9X9X9X9X9X9X9X9X9X9X9X9X9X9X9X9X9X9X9X9X9X9X9X9X9X9X9X9X9X9X9X9X9X9X9X9X9X9X9X9X9X9X9X9X9X9X9X9X9X9X9X9X9X9X9X9X9X9X9X9X9X9X9X9X9X9X9X9X",
"9X9X9X9X9X9X9X9X9X9X9X9X9X9X9X9X9X9X9X9X9X9X9X9X9X9X9X9X9X9X9X9X9X9X9X9X9X9X9X9X9X9X9X9X9X9X9X9X9X9X9X9X9X9X9X9X9X9X9X9X9X9X9X9X9X9X9X9X9X9X9X9X9X9X9X9X9X9X9X9X",
"9X9X9X9X9X9X9X9X9X9X9X9X9X9X9X9X9X9X9X9X9X9X9X9X9X9X9X9X9X9X9X9X9X9X9X9X9X9X9X9X9X9X9X9X9X9X9X9X9X9X9X9X9X9X9X9X9X9X9X9X9X9X9X9X9X9X9X9X9X9X9X9X9X9X9X9X9X9X9X9X",
"9X9X9X9X9X9X9X9X9X9X9X9X9X9X9X9X9X9X9X9X9X9X9X9X9X9X9X9X9X9X9X9X9X9X9X9X9X9X9X9X9X9X9X9X9X9X9X9X9X9X9X9X9X9X9X9X9X&X2X8X7X8X6X9X9X9X9X9X9X9X9X9X9X9X9X9X9X9X9X9X",
"9X9X9X9X9X9X9X9X9X9X9X9X9X9X9X9X9X9X9X9X9X9X9X9X9X9X9X9X9X9X9X9X9X9X9X9X9X9X9X9X9X9X9X9X9X9X9X9X9X9X9X9X9X9X9X9X@X,X6X8X8X8X7X+X9X9X9X9X9X9X9X9X9X9X9X9X9X9X9X9X",
"9X9X9X9X9X9X9X9X9X9X9X9X9X9X9X9X9X9X9X9X9X9X9X9X9X9X9X9X9X9X9X9X9X9X9X9X9X9X9X9X9X9X9X9X9X9X9X9X9X9X9X9X9X9X9X_.-X-X&X<X2X2X1X1X(.9X9X9X9X9X9X9X9X9X9X9X9X9X9X9X",
"9X9X9X9X9X9X9X9X9X9X9X9X9X9X9X9X9X9X9X9X9X9X9X9X9X9X9X9X9X9X9X9X9X9X9X9X9X9X9X9X9X9X9X9X9X9X9X9X9X9X9X9X9X9X9X$X5X:X;X,XoX>X>XoX&X9X9X9X9X9X9X9X9X9X9X9X9X9X9X9X",
"9X9X9X9X9X9X9X9X9X9X9X9X9X9X9X9X9X9X9X9X9X9X9X9X9X9X9X9X9X9X9X9X9X9X9X9X9X9X9X9X9X9X9X9X9X9X9X9X9X9X9X9X9X9X9X;X-XE.-X%XV.`.5X3X3X9X9X9X9X9X9X9X9X9X9X9X9X9X9X9X",
"9X9X9X9X9X9X9X9X9X9X9X9X9X9X9X9X9X9X9X9X9X9X9X9X9X9X9X9X9X9X9X9X9X9X9X9X9X9X9X9X9X9X9X9X9X9X9X9X9X9X9X9X9X9X9X^.9.D '.`./ A %X*X*X9X9X9X9X9X9X9X9X9X9X9X9X9X9X9X",
"9X9X9X9X9X9X9X9X9X9X9X9X9X9X9X9X9X9X9X9X9X9X9X9X9X9X9X9X9X9X9X9X9X9X9X9X9X9X9X9X9X9X9X9X9X9X9X9X9X9X9X9XB.7.n.v.C , -.R.D q f w.).9X9X9X9X9X9X9X9X9X9X9X9X9X9X9X",
"9X9X9X9X9X9X9X9X9X9X9X9X9X9X9X9X9X9X9X9X9X9X9X9X9X9X9X9X9X9X9X9X9X9X9X9X9X9X9X9X9X9X9X9X9X9X9Xs.p.o.m.v.H.].!.c._ z R 2.1.0./ k 9X9X9X9X9X9X9X9X9X9X9X9X9X9X9X9X",
"9X9X9X9X9X9X9X9X9X9X9X9X9X9X9X9X9X9X9X9X9X9X9X9X9X9X9X9X9X9X9X9X9X9X9X9X9X9X9X9X9X9X9X9X9X9Xp.s.s. .! ! P y I.>._ Z T y.y.i.W O 9X9X9X9X9X9X9X9X9X9X9X9X9X9X9X9X",
"9X9X9X9X9X9X9X9X9X9X9X9X9X9X9X9X9X9X9X9X9X9X9X9X9X9X9X9X9X9X9X9X9X9X9X9X9X9X9X9X9X9X9X9X9Xp.s.d.p. .s.C.F.j.q J.x j @ / R , 9X9X9X9X9X9X9X9X9X9X9X9X9X9X9X9X9X9X",
"9X9X9X9X9X9X9X9X9X9X9X9X9X9X9X9X9X9X9X9X9X9X9X9X9X9X9X9X9X9X9X9X9X9X9X9X9X9X9X9X9X9X9X9X .s.s.d.J W s.Z.F.A.( =.9X9X9XX X 9X9X9X9X9X9X9X9X9X9X9X9X9X9X9X9X9X9X9X",
"9X9X9X9X9X9X9X9X9X9X9X9X9X9X9X9X9X9X9X9X9X9X9X9X9X9X9X9X9X9X9X9X9X9X9X9X9X9X9X9X9X9X9X/.G.g.o.^ q.m.n.f.g.g. .V 9X9X9X9X9X9X9X9X9X9X9X9X9X9X9X9X9X9X9X9X9X9X9X9X",
"9X9X9X9X9X9X9X9X9X9X9X9X9X9X9X9X9X9X9X9X9X9X9X9X9X9X9X9X9X9X9X9X9X9X9X9X9X9X9X9X9X9X9XOX}.D.^ i.a.l.M.X.O.d. .n 9X9X9X9X9X9X9X9X9X9X9X9X9X9X9X9X9X9X9X9X9X9X9X9X",
"9X9X9X9X9X9X9X9X9X9X9X9X9X9X9X9X9X9X9X9X9X9X9X9X9X9X9X9X9X9X9X9X9X9X9X9X9X9X9X9X9X9Xj.D.u.O.d.o.X.l.Z.U  ...3.N.9X9X9X9X9X9X9X9X9X9X9X9X9X9X9X9X9X9X9X9X9X9X9X9X",
"9X9X9X9X9X9X9X9X9X9X9X9X9X9X9X9X9X9X9X9X9X9X9X9X9X9X9X9X9X9X9X9X9X9X9X9X9X9X9X9X9X .! | s.d.s.s.X.2.8.y y <..X(.9X9X9X9X9X9X9X9X9X9X9X9X9X9X9X9X9X9X9X9X9X9X9X9X",
"9X9X9X9X9X9X9X9X9X9X9X9X9X9X9X9X9X9X9X9X9X9X9X9X9X9X9X9X9X9X9X9X9X9X9X9X9X9X9X9X9Xd.!  .d.s.s.d.+.2.#X-X,X+X+X(.9X9X9X9X9X9X9X9X9X9X9X9X9X9X9X9X9X9X9X9X9X9X9X9X",
"9X9X9X9X9X9X9X9X9X9X9X9X9X9X9X9X9X9X9X9X9X9X9X9X9X9X9X9X9X9X9X9X9X9X9X9X9X9X9X9Xi.s...~ s.s.s.s.s.i.^.4X4X>X>X(.9X9X9X9X9X9X9X9X9X9X9X9X9X9X9X9X9X9X9X9X9X9X9X9X",
"9X9X9X9X9X9X9X9X9X9X9X9X9X9X9X9X9X9X9X9X9X9X9X9X9X9X9X9X9X9X9X9X9X9X9X9X9X9X9X<...s.s.o...p.s.s.s.s.u.[.4X4X4X[.9X9X9X9X9X9X9X9X9X9X9X9X9X9X9X9X9X9X9X9X9X9X9X9X",
"9X9X9X9X9X9X9X9X9X9X9X9X9X9X9X9X9X9X9X9X9X9X9X9X9X9X9X9X9X9X9X9X9X9X9X9X9X9X9X(.}.j.s.d.u.,.y.s.s.s.s.a.{.-X-X9X9X9X9X9X9X9X9X9X9X9X9X9X9X9X9X9X9X9X9X9X9X9X9X9X",
"9X9X9X9X9X9X9X9X9X9X9X9X9X9X9X9X9X9X9X9X9X9X9X9X9X9X9X9X9X9X9X9X9X9X9X9X9Xu.D.}.|.XXS.s.u.6.:.~ o.s.s.+.~ 7.9X9X9X9X9X9X9X9X9X9X9X9X9X9X9X9X9X9X9X9X9X9X9X9X9X9X",
"9X9X9X9X9X9X9X9X9X9X9X9X9X9X9X9X9X9X9X9X9X9X9X9X9X9X9X9X9X9X9X9X9X9X9X9Xp.s.s.+.f.|.XXC.>.6.:.9X9Xo.O.u.Y.0.N 9X9X9X9X9X9X9X9X9X9X9X9X9X9X9X9X9X9X9X9X9X9X9X9X9X",
"9X9X9X9X9X9X9X9X9X9X9X9X9X9X9X9X9X9X9X9X9X9X9X9X9X9X9X9X9X9X9X9X9X9X9Xi.s.s.s.s.s.C.XX XW.8.9X9X9X9X/ Y.e.b.n.K 9X9X9X9X9X9X9X9X9X9X9X9X9X9X9X9X9X9X9X9X9X9X9X9X",
"9X9X9X9X9X9X9X9X9X9X9X9X9X9X9X9X9X9X9X9X9X9X9X9X9X9X9X9X9X9X9X9X9X9Xi.s.s.s.s.s.s.C..X&X=X_.D D z l z 6 ` } r.R.L.Y ~ 9X9X9X9X9X9X9X9X9X9X9X9X9X9X9X9X9X9X9X9X9X",
"9X9X9X9X9X9X9X9X9X9X9X9X9X9X9X9X9X9X9X9X9X9X9X9X9X9X9X9X9X9X9X9X9X9Xs.s.s.s.s.s.s.f. X$X@X).7 @.;.:./ > 9X' ,.U.3.s.s.O. .9X9X9X9X9X9X9X9X9X9X9X9X9X9X9X9X9X9X9X",
"9X9X9X9X9X9X9X9X9X9X9X9X9X9X9X9X9X9X9X9X9X9X9X9X9X9X9X9X9X9X9X9X9X9Xp.p.s.s.f.f.s.| ~.=X=XT.= e 9 %.>.^ , 9X9X-.] s.d.d.d...o.9X9X9X9X9X9X9X9X9X9X9X9X9X9X9X9X9X",
"9X9X9X9X9X9X9X9X9X9X9X9X9X9X9X9X9X9X9X9X9X9X9X9X9X9X9X9X9X9X9X9X9X9Xp.p.s.s.k.f.s.| ~.=X=Xa w s s s 8 Y @ 9X9X9X9XW  .^ ( s.s.J 9X9X9X9X9X9X9X9X9X9X9X9X9X9X9X9X",
"9X9X9X9X9X9X9X9X9X9X9X9X9X9X9X9X9X9X9X9X9X9X9X9X9X9X9X9X9X9X9X9X9X9Xo.s.s.f.A.h.s.X.W.=X@Xs t s i S S T L 9X9X9X9X9X9X9X9X^ s.J 9X9X9X9X9X9X9X9X9X9X9X9X9X9X9X9X",
"9X9X9X9X9X9X9X9X9X9X9X9X9X9X9X9X9X9X9X9X9X9X9X9X9X9X9X9X9X9X9X9X9X9Xo.s.s.f.A.h.s.X.w.=XQ.s i D K I I Q Q I K 9X9X9X9X9X9X9X~ Z 9X9X9X9X9X9X9X9X9X9X9X9X9X9X9X9X",
"9X9X9X9X9X9X9X9X9X9X9X9X9X9X9X9X9X9X9X9X9X9X9X9X9X9X9X9X9X9X9X9X9X9X..s.s.f.A.h.s.+.~._.d s *.I Q Q Q Q Q Q Q L K 9X9X9X9X9X9X9X9X9X9X9X9X9X9X9X9X9X9X9X9X9X9X9X",
"9X9X9X9X9X9X9X9X9X9X9X9X9X9X9X9X9X9X9X9X9X9X9X9X9X9X9X9X9X9X9X9X9X9Xo.s.s.f.Z.h.s.s.e.u 9 s p T Q Q Q Q Q Q Q Q I K 9X9X9X9X9X9X9X9X9X9X9X9X9X9X9X9X9X9X9X9X9X9X",
"9X9X9X9X9X9X9X9X9X9X9X9X9X9X9X9X9X9X9X9X9X9X9X9X9X9X9X9X9X9X9X9X9X9Xp.s.s.s.g.f.s.d.~ 1 w s s ;.R Q Q Q Q Q Q Q Q Q K 9X9X9X9X9X9X9X9X9X9X9X9X9X9X9X9X9X9X9X9X9X",
"9X9X9X9X9X9X9X9X9X9X9X9X9X9X9X9X9X9X9X9X9X9X9X9X9X9X9X9X9X9X9X9X9X9Xs.s.s.s.g.f.s.d.~ : ; s s s %.K Q Q Q Q Q Q Q Q Q L 9X9X9X9X9X9X9X9X9X9X9X9X9X9X9X9X9X9X9X9X",
"9X9X9X9X9X9X9X9X9X9X9X9X9X9X9X9X9X9X9X9X9X9X9X9X9X9X9X9X9X9X9X9X9X9Xs.s.s.s.g.f.s.d.~ 9X# 0 s s s *.L Q Q Q Q Q Q Q Q Q L 9X9X9X9X9X9X9X9X9X9X9X9X9X9X9X9X9X9X9X",
"9X9X9X9X9X9X9X9X9X9X9X9X9X9X9X9X9X9X9X9X9X9X9X9X9X9X9X9X9X9X9X9X9X9Xs.s.s.s.f.f.s.d.! 9X9X* 9 s s p D I Q Q Q Q Q Q Q Q Q I G 9X9X9X9X9X9X9X9X9X9X9X9X9X9X9X9X9X",
"9X9X9X9X9X9X9X9X9X9X9X9X9X9X9X9X9X9X9X9X9X9X9X9X9X9X9X9X9X9X9X9X9X9Xs.s.s.s.s.s.s.s.i.9X9X9X  3 r s p Y Q Q Q Q Q Q Q Q Q Q L 9X9X9X9X9X9X9X9X9X9X9X9X9X9X9X9X9X",
"9X9X9X9X9X9X9X9X9X9X9X9X9X9X9X9X9X9X9X9X9X9X9X9X9X9X9X9X9X9X9X9X9X9Xs.s.s.s.s.s.s.s.y.9X9X9X9X9X; 9 t i T Q Q Q Q Q Q Q Q Q Q L 9X9X9X9X9X9X9X9X9X9X9X9X9X9X9X9X",
"9X9X9X9X9X9X9X9X9X9X9X9X9X9X9X9X9X9X9X9X9X9X9X9X9X9X9X9X9X9X9X9X9X9Xo.s.s.s.s.s.s.p.~ 9X9X9X9X9X9X9X9Xw @.R Q Q Q Q Q Q Q Q Q Q K 9X9X9X9X9X9X9X9X9X9X9X9X9X9X9X",
"9X9X9X9X9X9X9X9X9X9X9X9X9X9X9X9X9X9X9X9X9X9X9X9X9X9X9X9X9X9X9X9X9X9X[ s.s.s.s.s.s.p.9X9X9X9X9X9X9X9X9X9X9Xc C L Q Q Q Q Q Q Q Q K 9X9X9X9X9X9X9X9X9X9X9X9X9X9X9X",
"9X9X9X9X9X9X9X9X9X9X9X9X9X9X9X9X9X9X9X9X9X9X9X9X9X9X9X9X9X9X9X9X9X9X[ s.s.s.s.s.s.s.9X9X9X9X9X9X9X9X9X9X9X9X9X9XC Q Q Q Q Q Q Q K 9X9X9X9X9X9X9X9X9X9X9X9X9X9X9X",
"9X9X9X9X9X9X9X9X9X9X9X9X9X9X9X9X9X9X9X9X9X9X9X9X9X9X9X9X9X9X9X9X9X9XQ s.s.s.s.s.s.i.9X9X9X9X9X9X9X9X9X9X9X9X9X9X9Xk H Q Q Q Q Q H 9X9X9X9X9X9X9X9X9X9X9X9X9X9X9X",
"9X9X9X9X9X9X9X9X9X9X9X9X9X9X9X9X9X9X9X9X9X9X9X9X9X9X9X9X9X9X9X9X9X9XJ s.s.s.s.s.s. .9X9X9X9X9X9X9X9X9X9X9X9X9X9Xl x H H Q Q L H 9X9X9X9X9X9X9X9X9X9X9X9X9X9X9X9X",
"9X9X9X9X9X9X9X9X9X9X9X9X9X9X9X9X9X9X9X9X9X9X9X9X9X9X9X9X9X9X9X9X9X9XJ s.s.s.s.s.s. .9X9X9X9X9X9X9X9X9X9X9X9X9X9XH I K k K K A : 9X9X9X9X9X9X9X9X9X9X9X9X9X9X9X9X",
"9X9X9X9X9X9X9X9X9X9X9X9X9X9X9X9X9X9X9X9X9X9X9X9X9X9X9X9X9X9X9X9X9X9XW s.s.s.s.s.p.9X9X9X9X9X9X9X9X9X9X9X9X9X9X6 E Q Q j 2 1 7 9X9X9X9X9X9X9X9X9X9X9X9X9X9X9X9X9X",
"9X9X9X9X9X9X9X9X9X9X9X9X9X9X9X9X9X9X9X9X9X9X9X9X9X9X9X9X9X9X9X9X..i. .s.s.i.s.s.o.9X9X9X9X9X9X9X9X9X9X9X9X9X7 J.4.b L *.w ; ; 9X9X9X9X9X9X9X9X9X9X9X9X9X9X9X9X9X",
"9X9X9X9X9X9X9X9X9X9X9X9X9X9X9X9X9X9X9X9X9X9X9X9X9X9X9X9X9X9X:.r.X.s.X.s.s.i.s.s.p.9X9X9X9X9X9X9X9X9X9X9X9X9X;.&.I.K.$.b #.8 # 9X9X9X9X9X9X9X9X9X9X9X9X9X9X9X9X9X",
"9X9X9X9X9X9X9X9X9X9X9X9X9X9X9X9X9X9X9X9X9X9X9X9X9X9X9X9X9X( T.r.[ d.s.s.s.i.s.s.i.9X9X9X9X9X9X9X9X9X9X9X9X9Xs %.d P.I.5.5.5 9X9X9X9X9X9X9X9X9X9X9X9X9X9X9X9X9X9X",
"9X9X9X9X9X9X9X9X9X9X9X9X9X9X9X9X9X9X9X9X9X9X9X9X9X9X9X9Xi.s.7.q.u.o.d.s.s.i. .~ 9X9X9X9X9X9X9X9X9X9X9X9X9X9X; s s a g g 4 & 9X9X9X9X9X9X9X9X9X9X9X9X9X9X9X9X9X9X",
"9X9X9X9X9X9X9X9X9X9X9X9X9X9X9X9X9X9X9X9X9X9X9X9X9X9X9X] s.s.3.U.t.{ O.s.s.i.9X9X9X9X9X9X9X9X9X9X9X9X9X9X9X9X$ t s s 0 1 - 9X9X9X9X9X9X9X9X9X9X9X9X9X9X9X9X9X9X9X",
"9X9X9X9X9X9X9X9X9X9X9X9X9X9X9X9X9X9X9X9X9X9X9X9X9X9X9Xo.s.s.O.1.7.t.{ O.i.9X9X9X9X9X9X9X9X9X9X9X9X9X9X9X9X9X$ w w 5 ; ; % 9X9X9X9X9X9X9X9X9X9X9X9X9X9X9X9X9X9X9X",
"9X9X9X9X9X9X9X9X9X9X9X9X9X9X9X9X9X9X9X9X9X9X9X9X9X9X .s.s.s.s.o.7.W.>.I 9X9X9X9X9X9X9X9X9X9X9X9X9X9X9X9X9X9X$ 5 * 5 r = 9X9X9X9X9X9X9X9X9X9X9X9X9X9X9X9X9X9X9X9X",
"9X9X9X9X9X9X9X9X9X9X9X9X9X9X9X9X9X9X9X9X9X9X9X9X9X[ p.s.s.s.s.s.i.w.9X9X9X9X9X9X9X9X9X9X9X9X9X9X9X9X9X9X9X9X: s s s 9 9X9X9X9X9X9X9X9X9X9X9X9X9X9X9X9X9X9X9X9X9X",
"9X9X9X9X9X9X9X9X9X9X9X9X9X9X9X9X9X9X9X9X9X9X9X9Xi.s.s.s.p.i.i. .y.9X9X9X9X9X9X9X9X9X9X9X9X9X9X9X9X9X9X9X9X9X< s s s % 9X9X9X9X9X9X9X9X9X9X9X9X9X9X9X9X9X9X9X9X9X",
"9X9X9X9X9X9X9X9X9X9X9X9X9X9X9X9X9X9X9X9X9X9X9Xp.s.s.s.s.s.s.p.9X9X9X9X9X9X9X9X9X9X9X9X9X9X9X9X9X9X9X9X9X9X9X> t s 7 9X9X9X9X9X9X9X9X9X9X9X9X9X9X9X9X9X9X9X9X9X9X",
"9X9X9X9X9X9X9X9X9X9X9X9X9X9X9X9X9X9X9X9X9X9Xo.s.s.s.s.s.s.i.9X9X9X9X9X9X9X9X9X9X9X9X9X9X9X9X9X9X9X9X9X9X9Xh V v &.5 9X9X9X9X9X9X9X9X9X9X9X9X9X9X9X9X9X9X9X9X9X9X",
"9X9X9X9X9X9X9X9X9X9X9X9X9X9X9X9X9X9X9X9Xx ` | d.s.s.s.p.9X9X9X9X9X9X9X9X9X9X9X9X9X9X9X9X9X9X9X9X9X9X9X9Xo B N ) ) m 9X9X9X9X9X9X9X9X9X9X9X9X9X9X9X9X9X9X9X9X9X9X",
"9X9X9X9X9X9X9X9X9X9X9X9X9X9X9X9X9X9X9XG x.b.} s.s.s.p.9X9X9X9X9X9X9X9X9X9X9X9X9X9X9X9X9X9X9X9X9X9X9X9XG H m ) B n O 9X9X9X9X9X9X9X9X9X9X9X9X9X9X9X9X9X9X9X9X9X9X",
"9X9X9X9X9X9X9X9X9X9X9X9X9X9X9X9X9X .X.X.b.b.z.X.s.i.9X9X9X9X9X9X9X9X9X9X9X9X9X9X9X9X9X9X9X9X9X9X9X9X9XL L : F F 2 # 9X9X9X9X9X9X9X9X9X9X9X9X9X9X9X9X9X9X9X9X9X9X",
"9X9X9X9X9X9X9X9X9X9X9X9X9X9X9X9Xo.] s.s.` z.z.z.P 9X9X9X9X9X9X9X9X9X9X9X9X9X9X9X9X9X9X9X9X9X9X9X9X9XK Q L : 9 5 1 c 9X9X9X9X9X9X9X9X9X9X9X9X9X9X9X9X9X9X9X9X9X9X",
"9X9X9X9X9X9X9X9X9X9X9X9X9X9X9X .s.] s.o.~ x.` M 9X9X9X9X9X9X9X9X9X9X9X9X9X9X9X9X9X9X9X9X9X9X9X9X9Xx Q Q L v ; 1 D I K 9X9X9X9X9X9X9X9X9X9X9X9X9X9X9X9X9X9X9X9X9X",
"9X9X9X9X9X9X9X9X9X9X9X9X9X9X9X .s. .X. .o.| 9X9X9X9X9X9X9X9X9X9X9X9X9X9X9X9X9X9X9X9X9X9X9X9X9X9X9X+ H H *.r s *.L Q L 9X9X9X9X9X9X9X9X9X9X9X9X9X9X9X9X9X9X9X9X9X",
"9X9X9X9X9X9X9X9X9X9X9X9X9X9X9X9Xp.] ~ p.d.i.9X9X9X9X9X9X9X9X9X9X9X9X9X9X9X9X9X9X9X9X9X9X9X9X9X9X9X9X9X1 1 = s S I Q Q K 9X9X9X9X9X9X9X9X9X9X9X9X9X9X9X9X9X9X9X9X",
"9X9X9X9X9X9X9X9X9X9X9X9X9X9X9X9X .o.s.s.s. .9X9X9X9X9X9X9X9X9X9X9X9X9X9X9X9X9X9X9X9X9X9X9X9X9X9X9X9X9X9X9X9X= e R Q Q Q K 9X9X9X9X9X9X9X9X9X9X9X9X9X9X9X9X9X9X9X",
"9X9X9X9X9X9X9X9X9X9X9X9X9X9X9X9X~ s.s.s.p.9X9X9X9X9X9X9X9X9X9X9X9X9X9X9X9X9X9X9X9X9X9X9X9X9X9X9X9X9X9X9X9X9X9X; %.K Q Q Q Z c C 9X9X9X9X9X9X9X9X9X9X9X9X9X9X9X9X",
"9X9X9X9X9X9X9X9X9X9X9X9X9X9X9X9X| d.s.d...9X9X9X9X9X9X9X9X9X9X9X9X9X9X9X9X9X9X9X9X9X9X9X9X9X9X9X9X9X9X9X9X9X9X9X% , H K K K K K @ 9X9X9X9X9X9X9X9X9X9X9X9X9X9X9X",
"9X9X9X9X9X9X9X9X9X9X9X9X9X9X9X~ O.s.s.d.o.9X9X9X9X9X9X9X9X9X9X9X9X9X9X9X9X9X9X9X9X9X9X9X9X9X9X9X9X9X9X9X9X9X9X9X9X9X. . . . j l j 9X9X9X9X9X9X9X9X9X9X9X9X9X9X9X",
"9X9X9X9X9X9X9X9X9X9X9X9X9X9X9X[ s.s.s.s...9X9X9X9X9X9X9X9X9X9X9X9X9X9X9X9X9X9X9X9X9X9X9X9X9X9X9X9X9X9X9X9X9X9X9X9X9X9X9X9X9X9X9X9X9X9X9X9X9X9X9X9X9X9X9X9X9X9X9X",
"9X9X9X9X9X9X9X9X9X9X9X9X9X9X9XU p.s.s.p.Z 9X9X9X9X9X9X9X9X9X9X9X9X9X9X9X9X9X9X9X9X9X9X9X9X9X9X9X9X9X9X9X9X9X9X9X9X9X9X9X9X9X9X9X9X9X9X9X9X9X9X9X9X9X9X9X9X9X9X9X",
"9X9X9X9X9X9X9X9X9X9X9X9X9X9X9X9X .s.s.s...! 9X9X9X9X9X9X9X9X9X9X9X9X9X9X9X9X9X9X9X9X9X9X9X9X9X9X9X9X9X9X9X9X9X9X9X9X9X9X9X9X9X9X9X9X9X9X9X9X9X9X9X9X9X9X9X9X9X9X",
"9X9X9X9X9X9X9X9X9X9X9X9X9X9X9X9X9XX.d.d.d.O.9X9X9X9X9X9X9X9X9X9X9X9X9X9X9X9X9X9X9X9X9X9X9X9X9X9X9X9X9X9X9X9X9X9X9X9X9X9X9X9X9X9X9X9X9X9X9X9X9X9X9X9X9X9X9X9X9X9X",
"9X9X9X9X9X9X9X9X9X9X9X9X9X9X9X9X9X9XW W W W J 9X9X9X9X9X9X9X9X9X9X9X9X9X9X9X9X9X9X9X9X9X9X9X9X9X9X9X9X9X9X9X9X9X9X9X9X9X9X9X9X9X9X9X9X9X9X9X9X9X9X9X9X9X9X9X9X9X",
"9X9X9X9X9X9X9X9X9X9X9X9X9X9X9X9X9X9X9X9X9X9X9X9X9X9X9X9X9X9X9X9X9X9X9X9X9X9X9X9X9X9X9X9X9X9X9X9X9X9X9X9X9X9X9X9X9X9X9X9X9X9X9X9X9X9X9X9X9X9X9X9X9X9X9X9X9X9X9X9X",
"9X9X9X9X9X9X9X9X9X9X9X9X9X9X9X9X9X9X9X9X9X9X9X9X9X9X9X9X9X9X9X9X9X9X9X9X9X9X9X9X9X9X9X9X9X9X9X9X9X9X9X9X9X9X9X9X9X9X9X9X9X9X9X9X9X9X9X9X9X9X9X9X9X9X9X9X9X9X9X9X",
"9X9X9X9X9X9X9X9X9X9X9X9X9X9X9X9X9X9X9X9X9X9X9X9X9X9X9X9X9X9X9X9X9X9X9X9X9X9X9X9X9X9X9X9X9X9X9X9X9X9X9X9X9X9X9X9X9X9X9X9X9X9X9X9X9X9X9X9X9X9X9X9X9X9X9X9X9X9X9X9X",
"9X9X9X9X9X9X9X9X9X9X9X9X9X9X9X9X9X9X9X9X9X9X9X9X9X9X9X9X9X9X9X9X9X9X9X9X9X9X9X9X9X9X9X9X9X9X9X9X9X9X9X9X9X9X9X9X9X9X9X9X9X9X9X9X9X9X9X9X9X9X9X9X9X9X9X9X9X9X9X9X",
"9X9X9X9X9X9X9X9X9X9X9X9X9X9X9X9X9X9X9X9X9X9X9X9X9X9X9X9X9X9X9X9X9X9X9X9X9X9X9X9X9X9X9X9X9X9X9X9X9X9X9X9X9X9X9X9X9X9X9X9X9X9X9X9X9X9X9X9X9X9X9X9X9X9X9X9X9X9X9X9X",
"9X9X9X9X9X9X9X9X9X9X9X9X9X9X9X9X9X9X9X9X9X9X9X9X9X9X9X9X9X9X9X9X9X9X9X9X9X9X9X9X9X9X9X9X9X9X9X9X9X9X9X9X9X9X9X9X9X9X9X9X9X9X9X9X9X9X9X9X9X9X9X9X9X9X9X9X9X9X9X9X",
"9X9X9X9X9X9X9X9X9X9X9X9X9X9X9X9X9X9X9X9X9X9X9X9X9X9X9X9X9X9X9X9X9X9X9X9X9X9X9X9X9X9X9X9X9X9X9X9X9X9X9X9X9X9X9X9X9X9X9X9X9X9X9X9X9X9X9X9X9X9X9X9X9X9X9X9X9X9X9X9X"
};
