/* XPM */
static char *result[] = {
/* columns rows colors chars-per-pixel */
"80 80 220 2 ",
"   c #480717",
".  c #4E0815",
"X  c #5D1714",
"o  c #761B1D",
"O  c #6E251E",
"+  c #71241D",
"@  c #4C0E22",
"#  c #551325",
"$  c #52152B",
"%  c #45193A",
"&  c #561B33",
"*  c #591C30",
"=  c #5C243D",
"-  c #6A2226",
";  c #73292D",
":  c #793528",
">  c #66253E",
",  c #773639",
"<  c #5D2748",
"1  c #612A45",
"2  c #642E49",
"3  c #702F4C",
"4  c #66314E",
"5  c #6B3249",
"6  c #793747",
"7  c #673552",
"8  c #6E3B5A",
"9  c #723552",
"0  c #713E5C",
"q  c #6C3C60",
"w  c #77425D",
"e  c #7A425A",
"r  c #734263",
"t  c #704B6F",
"y  c #725372",
"u  c #7B6B7B",
"i  c #802B1F",
"p  c #89351A",
"a  c #8B3623",
"s  c #8D3825",
"d  c #863528",
"f  c #943A25",
"g  c #933D2B",
"h  c #983F28",
"j  c #843230",
"k  c #A03927",
"l  c #C63A2E",
"z  c #96461F",
"x  c #A3550C",
"c  c #A9491B",
"v  c #A75610",
"b  c #B25916",
"n  c #A86309",
"m  c #BC6A0A",
"M  c #B6661C",
"N  c #95402C",
"B  c #9E4628",
"V  c #9C432C",
"C  c #8C433C",
"Z  c #9D4634",
"A  c #9A4935",
"S  c #94443D",
"D  c #AA4726",
"F  c #AA4A26",
"G  c #A4472C",
"H  c #A4492E",
"J  c #AB4B2D",
"K  c #BB432F",
"L  c #B14E2D",
"P  c #A55627",
"I  c #B5512D",
"U  c #B9562E",
"Y  c #BB5C28",
"T  c #A54B32",
"R  c #AA4E32",
"E  c #A34A38",
"W  c #B54A32",
"Q  c #AD5134",
"!  c #A8553B",
"~  c #B55231",
"^  c #B95633",
"/  c #B65935",
"(  c #BC5B34",
")  c #B25439",
"_  c #B7593A",
"`  c #BC5B3A",
"'  c #BE6526",
"]  c #BE6A38",
"[  c #D0780D",
"{  c #C56C1A",
"}  c #C97717",
"|  c #D37C1E",
" . c #C44731",
".. c #C15E35",
"X. c #C25F3D",
"o. c #C4682B",
"O. c #C9722A",
"+. c #C46135",
"@. c #C5633B",
"#. c #C9663B",
"$. c #CD6A3D",
"%. c #D16E3F",
"&. c #D5723D",
"*. c #D9723E",
"=. c #863948",
"-. c #9D3C5F",
";. c #A03944",
":. c #884348",
">. c #974847",
",. c #995349",
"<. c #9C485C",
"1. c #925757",
"2. c #A64D41",
"3. c #A65646",
"4. c #B2564D",
"5. c #A65A5E",
"6. c #B85F58",
"7. c #BD6545",
"8. c #B56B4E",
"9. c #B76757",
"0. c #BC6C53",
"q. c #95446A",
"w. c #805265",
"e. c #86587C",
"r. c #AB5E61",
"t. c #8C6669",
"y. c #936E6F",
"u. c #896575",
"i. c #996974",
"p. c #A96865",
"a. c #B86D65",
"s. c #B76778",
"d. c #B37F7A",
"f. c #CB5445",
"g. c #C95A58",
"h. c #C66342",
"j. c #C86542",
"k. c #CD6A42",
"l. c #C66B4A",
"z. c #CD6A4F",
"x. c #D16E41",
"c. c #D67342",
"v. c #D87442",
"b. c #D47449",
"n. c #D67B4E",
"m. c #D87849",
"M. c #D87D55",
"N. c #C2766E",
"B. c #CF890F",
"V. c #D7890D",
"C. c #D98A16",
"Z. c #E29808",
"A. c #DEA20B",
"S. c #E4A727",
"D. c #8F846E",
"F. c #BF897C",
"G. c #D68854",
"H. c #DAA34D",
"J. c #C18B6A",
"K. c #DB8765",
"L. c #E29171",
"P. c #D6A278",
"I. c #5C4E83",
"U. c #784B82",
"Y. c #775688",
"T. c #645B97",
"R. c #7A6996",
"E. c #5B57A4",
"W. c #7575A4",
"Q. c #975486",
"!. c #89708F",
"~. c #937382",
"^. c #B06790",
"/. c #7690AE",
"(. c #7488C2",
"). c #90819A",
"_. c #A98D90",
"`. c #A6A785",
"'. c #B4B292",
"]. c #908AAA",
"[. c #9495BB",
"{. c #AF94A8",
"}. c #B29AA9",
"|. c #A895B3",
" X c #B1A9B1",
".X c #C7AA8A",
"XX c #D7B18A",
"oX c #CBB694",
"OX c #CCB995",
"+X c #C7B1B7",
"@X c #CCC09F",
"#X c #D5C79E",
"$X c #C3C2A5",
"%X c #C8C8AB",
"&X c #D5D5B4",
"*X c #D4D4BC",
"=X c #D8D9BA",
"-X c #9A9BCD",
";X c #A299C2",
":X c #9FA2D6",
">X c #A2A2CD",
",X c #BBB3C6",
"<X c #A6A6D4",
"1X c #B6B6D6",
"2X c #B5B6DC",
"3X c #BFBFE1",
"4X c #C6B1C3",
"5X c #C3B6D6",
"6X c #CDCDCA",
"7X c #DADAC7",
"8X c #C9C9D2",
"9X c #D3D3D5",
"0X c #E6E6C7",
"qX c #C3C3E4",
"wX c #C6C8EA",
"eX c #D1D1EF",
"rX c #EFEFE1",
"tX c #F3F3EA",
"yX c #F6F6F4",
"uX c None",
/* pixels */
"uXuXuXuXuXuXuXuXuXuXuXuXuXuXuXuXuXuXuXuXuXuXuXuXuXuXuXuXuXuXuXuXuXuXuXuXuXuXuXuXuXuXuXuXuXuXuXuXuXuXuXuXuXuXuXuXuXuXuXuXuXuXuXuXuXuXuXuXuXuXuXuXuXuXuXuXuXuXuXuX",
"uXuXuXuXuXuXuXuXuXuXuXuXuXuXuXuXuXuXuXuXuXuXuXuXuXuXuXuXuXuXuXuXuXuXuXuXuXuXuXuXuXuXuX7XtXuXuXuXuXuXuXuXuXuXuXuXuXuXuXuXuXuXuXuXuXuXuXuXuXuXuXuXuXuXuXuXuXuXuXuX",
"uXuXuXuXuXuXuXuXuXuXuXuXuXuXuXuXuXuXuXuXuXuXuXuXuXuXuXuXuXuXuXuXuXuXuXuXuXuXuXuXuX].8XtXyXyXyX7XuXuXuXuXuXuXuXuXuXuXuXuXuXuXuXuXuXuXuXuXuXuXuXuXuXuXuXuXuXuXuXuX",
"uXuXuXuXuXuXuXuXuXuXuXuXuXuXuXuXuXuXuXuXuXuXuXuXuXuXuXuXuXuXuXuXuXuXuXuXuXuXuXuXuX[.1X7XrXyXyXyX=X'.uXuXuXuXuXuXuXuXuXuXuXuXuXuXuXuXuXuXuXuXuXuXuXuXuXuXuXuXuXuX",
"uXuXuXuXuXuXuXuXuXuXuXuXuXuXuXuXuXuXuXuXuXuXuXuXuXuXuXuXuXuXuXuXuXuXuXuXuXuXuXuX[.2XqX1X6X7X0X0X0X6XuXuXuXuXuXuXuXuXuXuXuXuXuXuXuXuXuXuXuXuXuXuXuXuXuXuXuXuXuXuX",
"uXuXuXuXuXuXuXuXuXuXuXuXuXuXuXuXuXuXuXuXuXuXuXuXuXuXuXuXuXuXuXuXuXuXuXuXuXuXuXuX2XeX1X3X2X,X9X9X9XeX1XuXuXuXuXuXuXuXuXuXuXuXuXuXuXuXuXuXuXuXuXuXuXuXuXuXuXuXuXuX",
"uXuXuXuXuXuXuXuXuXuXuXuXuXuXuXuXuXuXuXuXuXuXuXuXuXuXuXuXuXuXuXuXuXuXuXuXuXuXuXuX[.|.u.<X4X9.u.|.2X2X3XuXuXuXuXuXuXuXuXuXuXuXuXuXuXuXuXuXuXuXuXuXuXuXuXuXuXuXuXuX",
"uXuXuXuXuXuXuXuXuXuXuXuXuXuXuXuXuXuXuXuXuXuXuXuXuXuXuXuXuXuXuXuXuXuXuXuXuXuXuXuXuX, E ~.}.T O 1. X].[.uXuXuXuXuXuXuXuXuXuXuXuXuXuXuXuXuXuXuXuXuXuXuXuXuXuXuXuXuX",
"uXuXuXuXuXuXuXuXuXuXuXuXuXuXuXuXuXuXuXuXuXuXuXuXuXuXuXuXuXuXuXuXuXuXuXuXuXuXuXuXP ~ + ! ~.1.t d ,.y uXuXuXuXuXuXuXuXuXuXuXuXuXuXuXuXuXuXuXuXuXuXuXuXuXuXuXuXuXuX",
"uXuXuXuXuXuXuXuXuXuXuXuXuXuXuXuXuXuXuXuXuXuXuXuXuXuXuXuXuXuXuXuXuXuXuXuXuXuX/.{.S.&.N ) 8.9.b.@.+ uXuXuXuXuXuXuXuXuXuXuXuXuXuXuXuXuXuXuXuXuXuXuXuXuXuXuXuXuXuXuX",
"uXuXuXuXuXuXuXuXuXuXuXuXuXuXuXuXuXuXuXuXuXuXuXuXuXuXuXuXuXuXuXuXuXX.$.M.K.G._.N.C.{ g V j.@._ s X uXuXuXuXuXuXuXuXuXuXuXuXuXuXuXuXuXuXuXuXuXuXuXuXuXuXuXuXuXuXuX",
"uXuXuXuXuXuXuXuXuXuXuXuXuXuXuXuXuXuXuXuXuXuXuXuXuXuXuXuXuXuXuXuXT x.c.K.L.G.l.e.l [ c i g d X uXuXuXuXuXuXuXuXuXuXuXuXuXuXuXuXuXuXuXuXuXuXuXuXuXuXuXuXuXuXuXuXuX",
"uXuXuXuXuXuXuXuXuXuXuXuXuXuXuXuXuXuXuXuXuXuXuXuXuXuXuXuXuXuXP M ` c.c.m.n.b.c.r -.K z ; -   uXuXuXuXuXuXuXuXuXuXuXuXuXuXuXuXuXuXuXuXuXuXuXuXuXuXuXuXuXuXuXuXuXuX",
"uXuXuXuXuXuXuXuXuXuXuXuXuXuXuXuXuXuXuXuXuXuXuXuXuXuXuXk.x.@.a.S.&.c.c.c.c.c.c.8.u t.z 9 >.C uXuXuXuXuXuXuXuXuXuXuXuXuXuXuXuXuXuXuXuXuXuXuXuXuXuXuXuXuXuXuXuXuXuX",
"uXuXuXuXuXuXuXuXuXuXuXuXuXuXuXuXuXuXuXuXuXuXuXj.c.x.c.c.c.*.9.H.} c.c.c.v.v.c.O.V.B., =.! 5./ L uXuXuXuXuXuXuXuXuXuXuXuXuXuXuXuXuXuXuXuXuXuXuXuXuXuXuXuXuXuXuXuX",
"uXuXuXuXuXuXuXuXuXuXuXuXuXuXuXuXuXuXuXuXuXj.x.c.c.c.c.c.c.c.@.N.C.( T Q ` ` l.OX#XOXy.P 5.=.7.X.I L L G V uXuXuXuXuXuXuXuXuXuXuXuXuXuXuXuXuXuXuXuXuXuXuXuXuXuXuX",
"uXuXuXuXuXuXuXuXuXuXuXuXuXuXuXuXuXuXuXuXuX$.c.c.c.c.` c.c.x.@.3.] ,.6 =.>.p..X=X%X$X'.: ; 6 <.h.h.h.h.h.X.uXuXuXuXuXuXuXuXuXuXuXuXuXuXuXuXuXuXuXuXuXuXuXuXuXuXuX",
"uXuXuXuXuXuXuXuXuXuXuXuXuXuXuXuXuXuXuXuXuX@.c.c.c.c.H Q ~ E .X@X+X5X5X5X,X$X=X&X&X$X%XD.uX# 3 >.X.h.h.h.2.6 uXuXuXuXuXuXuXuXuXuXuXuXuXuXuXuXuXuXuXuXuXuXuXuXuXuX",
"uXuXuXuXuXuXuXuXuXuXuXuXuXuXuXuXuXuXuXuXuX@.c.c.c.c.Q uXuX0.P.#X6XqXwXwX8X6X*X&X&X X%X`.uXuX. p L X.h.) Q.a.z uXuXuXuXuXuXuXuXuXuXuXuXuXuXuXuXuXuXuXuXuXuXuXuXuX",
"uXuXuXuXuXuXuXuXuXuXuXuXuXuXuXuXuXuXuXuXuXuX#.c.c.c.x.uXuX%.*.n.G.K.+X4X XqX9X*X6X1X XuXuXuXuXuXi ^ j.2.p.} K > - uXuXuXuXuXuXuXuXuXuXuXuXuXuXuXuXuXuXuXuXuXuXuX",
"uXuXuXuXuXuXuXuXuXuXuXuXuXuXuXuXuXuXuXuXuXuX( c.c.c.$.uXuXx.c.c.c.c.b.b.J.1XqXqXqX>XuXuXuXuXuXuXuXJ ~ Z A c Q.R._ ` ~ uXuXuXuXuXuXuXuXuXuXuXuXuXuXuXuXuXuXuXuXuX",
"uXuXuXuXuXuXuXuXuXuXuXuXuXuXuXuXuXuXuXuXuXuXF $.c.c.%.~ @.c.c.c.c.c.c.k.Q !.<X>X>XuXuXuXuXuXuXuXuXuXuXuXuXo Y.0.h.h.X.` uXuXuXuXuXuXuXuXuXuXuXuXuXuXuXuXuXuXuXuX",
"uXuXuXuXuXuXuXuXuXuXuXuXuXuXuXuXuXuXuXuXuXuXuX..c.c.c.~ $.#.#.#.c.l.6.=.uXuXuXuXuXuXuXuXuXuXuXuXuXuXuXuXuXuX7 ` @.h.h.h.X.uXuXuXuXuXuXuXuXuXuXuXuXuXuXuXuXuXuXuX",
"uXuXuXuXuXuXuXuXuXuXuXuXuXuXuXuXuXuXuXuXuXuXuXI %.c.#.) 7..XoXOXF.<.=.uXuXuXuXuXuXuXuXuXuXuXuXuXuXuXuXuXuXuXuX~ I ` h.h.h.~ uXuXuXuXuXuXuXuXuXuXuXuXuXuXuXuXuXuX",
"uXuXuXuXuXuXuXuXuXuXuXuXuXuXuXuXuXuXuXuXuXuXuXuX..7.^.s.J.XXXXXX}.e.uXuXuXuXuXuXuXuXuXuXuXuXuXuXuXuXuXuXuXuXuX~ uXuXX.` ~ uXuXuXuXuXuXuXuXuXuXuXuXuXuXuXuXuXuXuX",
"uXuXuXuXuXuXuXuXuXuXuXuXuXuXuXuXuXuXuXuXuXuXuXuX4.^.s.O.Y c.c.%._.:XuXuXuXuXuXuXuXuXuXuXuXuXuXuXuXuXuXuXuXuXuXJ uXuXL uXuXuXuXuXuXuXuXuXuXuXuXuXuXuXuXuXuXuXuXuX",
"uXuXuXuXuXuXuXuXuXuXuXuXuXuXuXuXuXuXuXuXuXuXuXuXuX' A.V.I $.c.c.d.>XuXuXuXuXuXuXuXuXuXuXuXuXuXuXuXuXuXuXuXuXuXa uXuXuXuXuXuXuXuXuXuXuXuXuXuXuXuXuXuXuXuXuXuXuXuX",
"uXuXuXuXuXuXuXuXuXuXuXuXuXuXuXuXuXuXuXuXuXuXuXuXuX{ O.z.f./ c.c.7.;X-XuXuXuXuXuXuXuXuXuXuXuXuXuXuXuXuXuXuXuXuXuXuXuXuXuXuXuXuXuXuXuXuXuXuXuXuXuXuXuXuXuXuXuXuXuX",
"uXuXuXuXuXuXuXuXuXuXuXuXuXuXuXuXuXuXuXuXuXuXuXuXuXW f.9.!.,.%.c.h.|.<XuXuXuXuXuXuXuXuXuXuXuXuXuXuXuXuXuXuXuXuXuXuXuXuXuXuXuXuXuXuXuXuXuXuXuXuXuXuXuXuXuXuXuXuXuX",
"uXuXuXuXuXuXuXuXuXuXuXuXuXuXuXuXuXuXuXuXuXuXuXuXuXI t.(.W._ ..$.v.0.w.uXuXuXuXuXuXuXuXuXuXuXuXuXuXuXuXuXuXuXuXuXuXuXuXuXuXuXuXuXuXuXuXuXuXuXuXuXuXuXuXuXuXuXuXuX",
"uXuXuXuXuXuXuXuXuXuXuXuXuXuXuXuXuXuXuXuXuXuXuXuX$.#.! 9.l.c.x./ #.%.( uXuXuXuXuXuXuXuXuXuXuXuXuXuXuXuXuXuXuXuXuXuXuXuXuXuXuXuXuXuXuXuXuXuXuXuXuXuXuXuXuXuXuXuXuX",
"uXuXuXuXuXuXuXuXuXuXuXuXuXuXuXuXuXuXuXuXuXuXuXuXk.c.( %.c.c.c.$./ x.c.$.+.uXuXuXuXuXuXuXuXuXuXuXuXuXuXuXuXuXuXuXuXuXuXuXuXuXuXuXuXuXuXuXuXuXuXuXuXuXuXuXuXuXuXuX",
"uXuXuXuXuXuXuXuXuXuXuXuXuXuXuXuXuXuXuXuXuXuXuXuXk.c.$.$.c.c.` R #._ b.c.c.$.( uXuXuXuXuXuXuXuXuXuXuXuXuXuXuXuXuXuXuXuXuXuXuXuXuXuXuXuXuXuXuXuXuXuXuXuXuXuXuXuXuX",
"uXuXuXuXuXuXuXuXuXuXuXuXuXuXuXuXuXuXuXuXuXuXuXuXk.c.#./ c.c.x.Z T 3.K.m.c.c.c.#.uXuXuXuXuXuXuXuXuXuXuXuXuXuXuXuXuXuXuXuXuXuXuXuXuXuXuXuXuXuXuXuXuXuXuXuXuXuXuXuX",
"uXuXuXuXuXuXuXuXuXuXuXuXuXuXuXuXuXuXuXuXuXuXuXuXuX$.@./ c.c.c.N B Q M.K.n.c.c.c.#.uXuXuXuXuXuXuXuXuXuXuXuXuXuXuXuXuXuXuXuXuXuXuXuXuXuXuXuXuXuXuXuXuXuXuXuXuXuXuX",
"uXuXuXuXuXuXuXuXuXuXuXuXuXuXuXuXuXuXuXuXuXuXuXuXuXA ~ / v.c.c.V $.c.c.m.n.c.c.c.c.%.U uXuXuXuXuXuXuXuXuXuXuXuXuXuXuXuXuXuXuXuXuXuXuXuXuXuXuXuXuXuXuXuXuXuXuXuXuX",
"uXuXuXuXuXuXuXuXuXuXuXuXuXuXuXuXuXuXuXuXuXuXuXuX& 0 :.N Q x.v.~ x.c.c.c.c.c.c.c.c.c.$.U uXuXuXuXuXuXuXuXuXuXuXuXuXuXuXuXuXuXuXuXuXuXuXuXuXuXuXuXuXuXuXuXuXuXuXuX",
"uXuXuXuXuXuXuXuXuXuXuXuXuXuXuXuXuXuXuXuXuXuXuXuX1 r r 0 - H / H x.c.c.c.c.c.c.c.c.c.c.c.( uXuXuXuXuXuXuXuXuXuXuXuXuXuXuXuXuXuXuXuXuXuXuXuXuXuXuXuXuXuXuXuXuXuXuX",
"uXuXuXuXuXuXuXuXuXuXuXuXuXuXuXuXuXuXuXuXuXuXuX# 8 r r r 8 6 g _ k.c.c.c.c.c.c.c.c.c.c.c.%.U uXuXuXuXuXuXuXuXuXuXuXuXuXuXuXuXuXuXuXuXuXuXuXuXuXuXuXuXuXuXuXuXuXuX",
"uXuXuXuXuXuXuXuXuXuXuXuXuXuXuXuXuXuXuXuXuXuXuX6 r r r r r q 6 E h.j.k.x.c.c.c.c.c.c.c.c.c.$.( uXuXuXuXuXuXuXuXuXuXuXuXuXuXuXuXuXuXuXuXuXuXuXuXuXuXuXuXuXuXuXuXuX",
"uXuXuXuXuXuXuXuXuXuXuXuXuXuXuXuXuXuXuXuXuXuXuXZ w r r r r r r 5 Z h.h.j.k.k.c.c.c.c.c.c.c.c.x.( uXuXuXuXuXuXuXuXuXuXuXuXuXuXuXuXuXuXuXuXuXuXuXuXuXuXuXuXuXuXuXuX",
"uXuXuXuXuXuXuXuXuXuXuXuXuXuXuXuXuXuXuXuXuXuXD J e r r r r r r 8 > g ` ` h.h.h.j.x.x.c.c.c.c.c.x.U uXuXuXuXuXuXuXuXuXuXuXuXuXuXuXuXuXuXuXuXuXuXuXuXuXuXuXuXuXuXuX",
"uXuXuXuXuXuXuXuXuXuXuXuXuXuXuXuXuXuXuXuXuXuXD J e r r r r r r 1 uXuXuXuX~ ~ X.h.h.h.k.k.k.c.c.c.$.I uXuXuXuXuXuXuXuXuXuXuXuXuXuXuXuXuXuXuXuXuXuXuXuXuXuXuXuXuXuX",
"uXuXuXuXuXuXuXuXuXuXuXuXuXuXuXuXuXuXuXuXuXuX~ J e r r r r r 0 uXuXuXuXuXuXuXD L ` h.h.h.j.c.c.c.c.#.uXuXuXuXuXuXuXuXuXuXuXuXuXuXuXuXuXuXuXuXuXuXuXuXuXuXuXuXuXuX",
"uXuXuXuXuXuXuXuXuXuXuXuXuXuXuXuXuXuXuXuXuXuXJ J e r r r r r = uXuXuXuXuXuXuXuXuXD ~ h.h.X.#.c.c.c.#.uXuXuXuXuXuXuXuXuXuXuXuXuXuXuXuXuXuXuXuXuXuXuXuXuXuXuXuXuXuX",
"uXuXuXuXuXuXuXuXuXuXuXuXuXuXuXuXuXuXuXuXuXf L J e r r r r 1 uXuXuXuXuXuXuXuXuXuXuXuXg h.h.X.c.c.c.$.uXuXuXuXuXuXuXuXuXuXuXuXuXuXuXuXuXuXuXuXuXuXuXuXuXuXuXuXuXuX",
"uXuXuXuXuXuXuXuXuXuXuXuXuXuXuXuXuXuXuXuXf J ~ J e r r r 4 uXuXuXuXuXuXuXuXuXuXuXuXuXuXR h.@.c.c.c.I uXuXuXuXuXuXuXuXuXuXuXuXuXuXuXuXuXuXuXuXuXuXuXuXuXuXuXuXuXuX",
"uXuXuXuXuXuXuXuXuXuXuXuXuXuXuXuXuXuXuXuXh J ~ J e r r 4 $ uXuXuXuXuXuXuXuXuXuXuXuXuXQ ^ ` h.x.v.@.uXuXuXuXuXuXuXuXuXuXuXuXuXuXuXuXuXuXuXuXuXuXuXuXuXuXuXuXuXuXuX",
"uXuXuXuXuXuXuXuXuXuXuXuXuXuXuXuXI.=.k V G ~ ~ J e r 7   uXuXuXuXuXuXuXuXuXuXuXuXuXuX` j.@.j.k.c.` uXuXuXuXuXuXuXuXuXuXuXuXuXuXuXuXuXuXuXuXuXuXuXuXuXuXuXuXuXuXuX",
"uXuXuXuXuXuXuXuXuXuXuXuXuXuXuXJ T.q.l ~ ~ ~ ~ J e r 2 uXuXuXuXuXuXuXuXuXuXuXuXuXuX~ #.$.v.c.j.j.^ uXuXuXuXuXuXuXuXuXuXuXuXuXuXuXuXuXuXuXuXuXuXuXuXuXuXuXuXuXuXuX",
"uXuXuXuXuXuXuXuXuXuXuXuXuXuX~ I 1.U.l W ~ L f j w =   uXuXuXuXuXuXuXuXuXuXuXuXuXuXW f.f...+.k.h.J uXuXuXuXuXuXuXuXuXuXuXuXuXuXuXuXuXuXuXuXuXuXuXuXuXuXuXuXuXuXuX",
"uXuXuXuXuXuXuXuXuXuXuXuXuXL ~ ~ ! T.q.K H :.5 2 & uXuXuXuXuXuXuXuXuXuXuXuXuXuXuX,.!.~.g.g.f. .L uXuXuXuXuXuXuXuXuXuXuXuXuXuXuXuXuXuXuXuXuXuXuXuXuXuXuXuXuXuXuXuX",
"uXuXuXuXuXuXuXuXuXuXuXuXuXL ~ ~ I 3.T.<.;.w 4   uXuXuXuXuXuXuXuXuXuXuXuXuXuXuXuXI 9.)./.(.i.^.r.uXuXuXuXuXuXuXuXuXuXuXuXuXuXuXuXuXuXuXuXuXuXuXuXuXuXuXuXuXuXuXuX",
"uXuXuXuXuXuXuXuXuXuXuXuXJ ~ ~ ~ L H t E.U.< @ uXuXuXuXuXuXuXuXuXuXuXuXuXuXuXuXuXI c.*.l.d.i.t.,.uXuXuXuXuXuXuXuXuXuXuXuXuXuXuXuXuXuXuXuXuXuXuXuXuXuXuXuXuXuXuXuX",
"uXuXuXuXuXuXuXuXuXuXuXuXJ ~ ~ R :.w r q % uXuXuXuXuXuXuXuXuXuXuXuXuXuXuXuXuXuXuXI c.c.v.*.%.$.^ uXuXuXuXuXuXuXuXuXuXuXuXuXuXuXuXuXuXuXuXuXuXuXuXuXuXuXuXuXuXuXuX",
"uXuXuXuXuXuXuXuXuXuXuXG ~ ~ J :.r r 1 $ uXuXuXuXuXuXuXuXuXuXuXuXuXuXuXuXuXuXuXuXuXc.c.c.c.c.@.~ uXuXuXuXuXuXuXuXuXuXuXuXuXuXuXuXuXuXuXuXuXuXuXuXuXuXuXuXuXuXuXuX",
"uXuXuXuXuXuXuXuXuXuXV ~ ~ L :.r 7 & uXuXuXuXuXuXuXuXuXuXuXuXuXuXuXuXuXuXuXuXuXuXuX..c.c.c.j.T uXuXuXuXuXuXuXuXuXuXuXuXuXuXuXuXuXuXuXuXuXuXuXuXuXuXuXuXuXuXuXuXuX",
"uXuXuXuXuXuXuXuXuXh ~ ~ I S 0 = @ uXuXuXuXuXuXuXuXuXuXuXuXuXuXuXuXuXuXuXuXuXuXuXuXQ c.c.k.R G uXuXuXuXuXuXuXuXuXuXuXuXuXuXuXuXuXuXuXuXuXuXuXuXuXuXuXuXuXuXuXuXuX",
"uXuXuXuXuXuXuXuXp B ~ L Z 9 = uXuXuXuXuXuXuXuXuXuXuXuXuXuXuXuXuXuXuXuXuXuXuXuXuXuXQ j.j.) Q ..uXuXuXuXuXuXuXuXuXuXuXuXuXuXuXuXuXuXuXuXuXuXuXuXuXuXuXuXuXuXuXuXuX",
"uXuXuXuXuXuXuXuXx n B S 9 $ uXuXuXuXuXuXuXuXuXuXuXuXuXuXuXuXuXuXuXuXuXuXuXuXuXuXuXQ h.X.~ #.uXuXuXuXuXuXuXuXuXuXuXuXuXuXuXuXuXuXuXuXuXuXuXuXuXuXuXuXuXuXuXuXuXuX",
"uXuXuXuXuXuXs v m m M 5 @ uXuXuXuXuXuXuXuXuXuXuXuXuXuXuXuXuXuXuXuXuXuXuXuXuXuXuXuX^ j.j.x.$.uXuXuXuXuXuXuXuXuXuXuXuXuXuXuXuXuXuXuXuXuXuXuXuXuXuXuXuXuXuXuXuXuXuX",
"uXuXuXuXuXG R F m b x uXuXuXuXuXuXuXuXuXuXuXuXuXuXuXuXuXuXuXuXuXuXuXuXuXuXuXuXuXuX+.c.c.c.U uXuXuXuXuXuXuXuXuXuXuXuXuXuXuXuXuXuXuXuXuXuXuXuXuXuXuXuXuXuXuXuXuXuX",
"uXuXuXuXJ ~ ~ J C j # uXuXuXuXuXuXuXuXuXuXuXuXuXuXuXuXuXuXuXuXuXuXuXuXuXuXuXuXuXuX$.c.c.c.^ uXuXuXuXuXuXuXuXuXuXuXuXuXuXuXuXuXuXuXuXuXuXuXuXuXuXuXuXuXuXuXuXuXuX",
"uXuXuXJ ~ ~ ~ T r q & uXuXuXuXuXuXuXuXuXuXuXuXuXuXuXuXuXuXuXuXuXuXuXuXuXuXuXuXuXuX( k.c.%.uXuXuXuXuXuXuXuXuXuXuXuXuXuXuXuXuXuXuXuXuXuXuXuXuXuXuXuXuXuXuXuXuXuXuX",
"uXuXD I ~ ~ ~ Z r r 8 $ uXuXuXuXuXuXuXuXuXuXuXuXuXuXuXuXuXuXuXuXuXuXuXuXuXuXuXuXb B.' +.+.uXuXuXuXuXuXuXuXuXuXuXuXuXuXuXuXuXuXuXuXuXuXuXuXuXuXuXuXuXuXuXuXuXuXuX",
"uXuXL ~ ~ ~ ~ Z r r r 7 * uXuXuXuXuXuXuXuXuXuXuXuXuXuXuXuXuXuXuXuXuXuXuXuXuXuXuX{ B.Z.Z.Y uXuXuXuXuXuXuXuXuXuXuXuXuXuXuXuXuXuXuXuXuXuXuXuXuXuXuXuXuXuXuXuXuXuXuX",
"uXuXJ L L L L Z r r :.S A G G G a uXuXuXuXuXuXuXuXuXuXuXuXuXuXuXuXuXuXuXuXuXuXuX} A.Z.[ Y uXuXuXuXuXuXuXuXuXuXuXuXuXuXuXuXuXuXuXuXuXuXuXuXuXuXuXuXuXuXuXuXuXuXuX",
"uXuXa a a a a : 2 S J I I ~ ~ ~ J uXuXuXuXuXuXuXuXuXuXuXuXuXuXuXuXuXuXuXuXuXuX( %.o.| C.o.uXuXuXuXuXuXuXuXuXuXuXuXuXuXuXuXuXuXuXuXuXuXuXuXuXuXuXuXuXuXuXuXuXuXuX",
"uXuXuXuXuXuXuXuXuXf h h h h h h a uXuXuXuXuXuXuXuXuXuXuXuXuXuXuXuXuXuXuXuXuXU %.+.%.c.@.$.uXuXuXuXuXuXuXuXuXuXuXuXuXuXuXuXuXuXuXuXuXuXuXuXuXuXuXuXuXuXuXuXuXuXuX",
"uXuXuXuXuXuXuXuXuXuXuXuXuXuXuXuXuXuXuXuXuXuXuXuXuXuXuXuXuXuXuXuXuXuXuXuXuXI $.c.( c.x.( c...uXuXuXuXuXuXuXuXuXuXuXuXuXuXuXuXuXuXuXuXuXuXuXuXuXuXuXuXuXuXuXuXuXuX",
"uXuXuXuXuXuXuXuXuXuXuXuXuXuXuXuXuXuXuXuXuXuXuXuXuXuXuXuXuXuXuXuXuXuXuXuXuX#.c.c.+.%.#.#.c.#.uXuXuXuXuXuXuXuXuXuXuXuXuXuXuXuXuXuXuXuXuXuXuXuXuXuXuXuXuXuXuXuXuXuX",
"uXuXuXuXuXuXuXuXuXuXuXuXuXuXuXuXuXuXuXuXuXuXuXuXuXuXuXuXuXuXuXuXuXuXuXuXN @.c.v.$.U +.c.c.%.( uXuXuXuXuXuXuXuXuXuXuXuXuXuXuXuXuXuXuXuXuXuXuXuXuXuXuXuXuXuXuXuXuX",
"uXuXuXuXuXuXuXuXuXuXuXuXuXuXuXuXuXuXuXuXuXuXuXuXuXuXuXuXuXuXuXuXuXuXuXuXuXuXR Q #.c.c.c.c.c.@.uXuXuXuXuXuXuXuXuXuXuXuXuXuXuXuXuXuXuXuXuXuXuXuXuXuXuXuXuXuXuXuXuX",
"uXuXuXuXuXuXuXuXuXuXuXuXuXuXuXuXuXuXuXuXuXuXuXuXuXuXuXuXuXuXuXuXuXuXuXuXuXuXuXuXg / c.c.c.c.%.^ uXuXuXuXuXuXuXuXuXuXuXuXuXuXuXuXuXuXuXuXuXuXuXuXuXuXuXuXuXuXuXuX",
"uXuXuXuXuXuXuXuXuXuXuXuXuXuXuXuXuXuXuXuXuXuXuXuXuXuXuXuXuXuXuXuXuXuXuXuXuXuXuXuXuXuX#.c.c.c.c.` uXuXuXuXuXuXuXuXuXuXuXuXuXuXuXuXuXuXuXuXuXuXuXuXuXuXuXuXuXuXuXuX",
"uXuXuXuXuXuXuXuXuXuXuXuXuXuXuXuXuXuXuXuXuXuXuXuXuXuXuXuXuXuXuXuXuXuXuXuXuXuXuXuXuXuX^ x.c.c.%.#.@.uXuXuXuXuXuXuXuXuXuXuXuXuXuXuXuXuXuXuXuXuXuXuXuXuXuXuXuXuXuXuX",
"uXuXuXuXuXuXuXuXuXuXuXuXuXuXuXuXuXuXuXuXuXuXuXuXuXuXuXuXuXuXuXuXuXuXuXuXuXuXuXuXuXuXuX#.c.c.#.c.c.x.@.uXuXuXuXuXuXuXuXuXuXuXuXuXuXuXuXuXuXuXuXuXuXuXuXuXuXuXuXuX",
"uXuXuXuXuXuXuXuXuXuXuXuXuXuXuXuXuXuXuXuXuXuXuXuXuXuXuXuXuXuXuXuXuXuXuXuXuXuXuXuXuXuXuX~ #.#.#.#.#.#.@.^ uXuXuXuXuXuXuXuXuXuXuXuXuXuXuXuXuXuXuXuXuXuXuXuXuXuXuXuX",
"uXuXuXuXuXuXuXuXuXuXuXuXuXuXuXuXuXuXuXuXuXuXuXuXuXuXuXuXuXuXuXuXuXuXuXuXuXuXuXuXuXuXuXuXa s s s s s s s uXuXuXuXuXuXuXuXuXuXuXuXuXuXuXuXuXuXuXuXuXuXuXuXuXuXuXuX",
"uXuXuXuXuXuXuXuXuXuXuXuXuXuXuXuXuXuXuXuXuXuXuXuXuXuXuXuXuXuXuXuXuXuXuXuXuXuXuXuXuXuXuXuXuXuXuXuXuXuXuXuXuXuXuXuXuXuXuXuXuXuXuXuXuXuXuXuXuXuXuXuXuXuXuXuXuXuXuXuX"
};
