/* XPM */
static char *result[] = {
/* columns rows colors chars-per-pixel */
"80 80 216 2 ",
"   c #490616",
".  c #520B14",
"X  c #651A19",
"o  c #6D2116",
"O  c #74251D",
"+  c #78281D",
"@  c #4E112F",
"#  c #5D1E27",
"$  c #51152B",
"%  c #561B32",
"&  c #581B33",
"*  c #661D22",
"=  c #5D243D",
"-  c #6B242B",
";  c #782B27",
":  c #68273E",
">  c #5B1744",
",  c #5F2741",
"<  c #5F2B46",
"1  c #482957",
"2  c #642C45",
"3  c #66314E",
"4  c #68344C",
"5  c #7B3A45",
"6  c #663250",
"7  c #6A3654",
"8  c #6A3858",
"9  c #6D3B5B",
"0  c #71385B",
"q  c #723F5D",
"w  c #7D4641",
"e  c #7A425A",
"r  c #734263",
"t  c #694876",
"y  c #754877",
"u  c #765679",
"i  c #8B311D",
"p  c #863123",
"a  c #8C3623",
"s  c #87372C",
"d  c #943923",
"f  c #973D28",
"g  c #9A3E29",
"h  c #853B34",
"j  c #A43424",
"k  c #B93D32",
"l  c #934115",
"z  c #A65514",
"x  c #AA5417",
"c  c #B8650C",
"v  c #B86713",
"b  c #9F4326",
"n  c #9C422C",
"m  c #8F413D",
"M  c #994434",
"N  c #9F4835",
"B  c #97453B",
"V  c #98453A",
"C  c #A54323",
"Z  c #AA4726",
"A  c #A4492A",
"S  c #AC4B2C",
"D  c #B9472E",
"F  c #B14E2C",
"G  c #B4512F",
"H  c #A54932",
"J  c #A14936",
"K  c #AA4B31",
"L  c #B74F33",
"P  c #AD5232",
"I  c #B55231",
"U  c #BA5633",
"Y  c #BB5B35",
"T  c #B25738",
"R  c #BC5C3A",
"E  c #BF6039",
"W  c #C9720F",
"Q  c #C97319",
"!  c #D17E10",
"~  c #C34931",
"^  c #C15D35",
"/  c #C4533B",
"(  c #C25F39",
")  c #C5672A",
"_  c #CA7128",
"`  c #C36236",
"'  c #C86B33",
"]  c #C5633A",
"[  c #CA663B",
"{  c #CD6A3D",
"}  c #D16D3E",
"|  c #D07431",
" . c #D6713E",
".. c #9E3948",
"X. c #923D5F",
"o. c #B23B48",
"O. c #AC3C51",
"+. c #874447",
"@. c #924540",
"#. c #9F4940",
"$. c #864852",
"%. c #984856",
"&. c #A45547",
"*. c #B85C47",
"=. c #A14A51",
"-. c #A75656",
";. c #946146",
":. c #A96643",
">. c #B76A4C",
",. c #A9665B",
"<. c #8C516C",
"1. c #965878",
"2. c #AB5E68",
"3. c #B35B68",
"4. c #966365",
"5. c #8E7168",
"6. c #936A76",
"7. c #A66665",
"8. c #AC6F6F",
"9. c #B96B7A",
"0. c #C85344",
"q. c #C46745",
"w. c #CA6742",
"e. c #CE6B41",
"r. c #D16E41",
"t. c #C67247",
"y. c #D67342",
"u. c #D87543",
"i. c #D67649",
"p. c #D97849",
"a. c #C3665A",
"s. c #CC7956",
"d. c #D47C51",
"f. c #D87C52",
"g. c #CF7E62",
"h. c #CE756D",
"j. c #C06E7E",
"k. c #BD8D0E",
"l. c #D38809",
"z. c #DA9308",
"x. c #D88E17",
"c. c #E48F0F",
"v. c #E19C08",
"b. c #D8A40C",
"n. c #E7A900",
"m. c #F0BE1F",
"M. c #DC8E28",
"N. c #D9D011",
"B. c #C4C235",
"V. c #AC9559",
"C. c #B0967D",
"Z. c #DD8C41",
"A. c #D68253",
"S. c #DC8259",
"D. c #D8A44A",
"F. c #C68865",
"G. c #DA8B63",
"H. c #E49374",
"J. c #C7E45F",
"K. c #5D508E",
"L. c #5A5396",
"P. c #745991",
"I. c #5C57A4",
"U. c #747AAA",
"Y. c #A55B99",
"T. c #8A7689",
"R. c #8F7092",
"E. c #A5708C",
"W. c #A67F8E",
"Q. c #B26692",
"!. c #9A8C8F",
"~. c #B09E8D",
"^. c #A48195",
"/. c #AB8493",
"(. c #A3A387",
"). c #B9B799",
"_. c #9585A8",
"`. c #918CB2",
"'. c #9998BB",
"]. c #AE91A0",
"[. c #AE96B1",
"{. c #A6A5B5",
"}. c #B4B1B4",
"|. c #C69E91",
" X c #D0A88A",
".X c #CBB190",
"XX c #D6BA95",
"oX c #C49FA6",
"OX c #D0BCA1",
"+X c #D1C3A5",
"@X c #D7C9A6",
"#X c #CFCFBB",
"$X c #D5D4B2",
"%X c #D6D7B8",
"&X c #9B9AC5",
"*X c #9F9FD0",
"=X c #93AFC5",
"-X c #BBB3C0",
";X c #A2A3D4",
":X c #ACACD4",
">X c #A7A8DA",
",X c #B6B6D7",
"<X c #C2B4CA",
"1X c #C8C8CC",
"2X c #D8D8C4",
"3X c #C7C7D8",
"4X c #E5E5C7",
"5X c #E9E9DB",
"6X c #C2C2E4",
"7X c #C7C8EA",
"8X c #C9C9EA",
"9X c #EFEFE7",
"0X c #F2F2E8",
"qX c gray97",
"wX c #F8F8F8",
"eX c None",
/* pixels */
"eXeXeXeXeXeXeXeXeXeXeXeXeXeXeXeXeXeXeXeXeXeXeXeXeXeXeXeXeXeXeXeXeXeXeXeXeXeXeXeXeXeXeXeXeXeXeXeXeXeXeXeXeXeXeXeXeXeXeXeXeXeXeXeXeXeXeXeXeXeXeXeXeXeXeXeXeXeXeXeX",
"eXeXeXeXeXeXeXeXeXeXeXeXeXeXeXeXeXeXeXeXeXeXeXeXeXeXeXeXeXeXeXeXeXeXeXeXeXeXeXeXeXeXeXeXeXeXeXeXeXeXeXeXeXeXeXeXeXeXeXeXeXeXeXeXeXeXeXeXeXeXeXeXeXeXeXeXeXeXeXeX",
"eXeXeXeXeXeXeXeXeXeXeXeXeXeXeXeXeXeXeXeXeXeXeXeXeXeXeXeXeXeXeXeXeXeXeXeXeXeXeXeXeXeXeXeXeXeXeXeXeXeXeXeXeXeXeX}.5X0XeXeXeXeXeXeXeXeXeXeXeXeXeXeXeXeXeXeXeXeXeXeX",
"eXeXeXeXeXeXeXeXeXeXeXeXeXeXeXeXeXeXeXeXeXeXeXeXeXeXeXeXeXeXeXeXeXeXeXeXeXeXeXeXeXeXeXeXeXeXeXeXeXeXeXeXeXeX&X3X0XqXwXwX5X).eXeXeXeXeXeXeXeXeXeXeXeXeXeXeXeXeXeX",
"eXeXeXeXeXeXeXeXeXeXeXeXeXeXeXeXeXeXeXeXeXeXeXeXeXeXeXeXeXeXeXeXeXeXeXeXeXeXeXeXeXeXeXeXeXeXeXeXeXeXeXeXeX'.:X,X2X5X9X9X5X%X).eXeXeXeXeXeXeXeXeXeXeXeXeXeXeXeXeX",
"eXeXeXeXeXeXeXeXeXeXeXeXeXeXeXeXeXeXeXeXeXeXeXeXeXeXeXeXeXeXeXeXeXeXeXeXeXeXeXeXeXeXeXeXeXeXeXeXeXeXeXeXeX:X8X6X,X1X%X4X4X2X1X'.eXeXeXeXeXeXeXeXeXeXeXeXeXeXeXeX",
"eXeXeXeXeXeXeXeXeXeXeXeXeXeXeXeXeXeXeXeXeXeXeXeXeXeXeXeXeXeXeXeXeXeXeXeXeXeXeXeXeXeXeXeXeXeXeXeXeXeXeXeXeX,X8X'.6X-X~.3X3X3X3X}.eXeXeXeXeXeXeXeXeXeXeXeXeXeXeXeX",
"eXeXeXeXeXeXeXeXeXeXeXeXeXeXeXeXeXeXeXeXeXeXeXeXeXeXeXeXeXeXeXeXeXeXeXeXeXeXeXeXeXeXeXeXeXeXeXeXeXeXeXeXeX'.R.4.:XoXT 6.:X}.,X{.eXeXeXeXeXeXeXeXeXeXeXeXeXeXeXeX",
"eXeXeXeXeXeXeXeXeXeXeXeXeXeXeXeXeXeXeXeXeXeXeXeXeXeXeXeXeXeXeXeXeXeXeXeXeXeXeXeXeXeXeXeXeXeXeXeXeXeXeXeXeX>.h f 6./.s 2 _.!.{.eXeXeXeXeXeXeXeXeXeXeXeXeXeXeXeXeX",
"eXeXeXeXeXeXeXeXeXeXeXeXeXeXeXeXeXeXeXeXeXeXeXeXeXeXeXeXeXeXeXeXeXeXeXeXeXeXeXeXeXeXeXeXeXeXeXeXeXB.T.h.m.x.Y ; *.7.,.1.N s eXeXeXeXeXeXeXeXeXeXeXeXeXeXeXeXeXeX",
"eXeXeXeXeXeXeXeXeXeXeXeXeXeXeXeXeXeXeXeXeXeXeXeXeXeXeXeXeXeXeXeXeXeXeXeXeXeXeXeXeXeXeXeX] y.{ ' k.N.J.=Xg.c.) a R >.q.r.P X eXeXeXeXeXeXeXeXeXeXeXeXeXeXeXeXeXeX",
"eXeXeXeXeXeXeXeXeXeXeXeXeXeXeXeXeXeXeXeXeXeXeXeXeXeXeXeXeXeXeXeXeXeXeXeXeXeXeXeXeXeXeX[ y.y.y.y.Y v l.V.P.~ W + g w.T n O eXeXeXeXeXeXeXeXeXeXeXeXeXeXeXeXeXeXeX",
"eXeXeXeXeXeXeXeXeXeXeXeXeXeXeXeXeXeXeXeXeXeXeXeXeXeXeXeXeXeXeXeXeXeXeXeXeXeXeXeXeXeX[ y.y.y.y.[ R s.g.M.5.y C eXX ; X eXeXeXeXeXeXeXeXeXeXeXeXeXeXeXeXeXeXeXeXeX",
"eXeXeXeXeXeXeXeXeXeXeXeXeXeXeXeXeXeXeXeXeXeXeXeXeXeXeXeXeXeXeXeXeXeXeXeXeXeXeXeXeXeXr.y.y.y.} S ] G.H.S.` ; eXeXeXeXeXeXeXeXeXeXeXeXeXeXeXeXeXeXeXeXeXeXeXeXeXeX",
"eXeXeXeXeXeXeXeXeXeXeXeXeXeXeXeXeXeXeXeXeXeXeXeXeXeXeXeXeXeXeXeXeXeXeXeXeXeXeXeXeX:.y.y.} r.[ A ` q.t.i.y.U eXeXeXeXeXeXeXeXeXeXeXeXeXeXeXeXeXeXeXeXeXeXeXeXeXeX",
"eXeXeXeXeXeXeXeXeXeXeXeXeXeXeXeXeXeXeXeXeXeXeXeXeXeXeXeXeXeXeXeXeXeXeXeXeXeXeXeXeX).+XF.] I m D.M. .] y.y.U eXeXeXeXeXeXeXeXeXeXeXeXeXeXeXeXeXeXeXeXeXeXeXeXeXeX",
"eXeXeXeXeXeXeXeXeXeXeXeXeXeXeXeXeXeXeXeXeXeXeXeXeXeXeXeXeXeXeXeXeXeXeXeXeXeXeXeXq..X%X%XXX>.a.j.9.Z.` [ T ;.eXeXeXeXeXeXeXeXeXeXeXeXeXeXeXeXeXeXeXeXeXeXeXeXeXeX",
"eXeXeXeXeXeXeXeXeXeXeXeXeXeXeXeXeXeXeXeXeXeXeXeXeXeXeXeXeXeXeXeXeXeXeXeXeXeXeXeX{ s.XX+XC.s ` } a.9.&.w 5.(.eXeXeXeXeXeXeXeXeXeXeXeXeXeXeXeXeXeXeXeXeXeXeXeXeXeX",
"eXeXeXeXeXeXeXeXeXeXeXeXeXeXeXeXeXeXeXeXeXeXeXeXeXeXeXeXeXeXeXeXeXeXeXeXeXeXeXe.y.y.y.>.{ { I E y.8.}.%X$X(.eXeXeXeXeXeXeXeXeXeXeXeXeXeXeXeXeXeXeXeXeXeXeXeXeXeX",
"eXeXeXeXeXeXeXeXeXeXeXeXeXeXeXeXeXeXeXeXeXeXeXeXeXeXeXeXeXeXeXeXeXeXeXeXeXeXeXy.y.y.Y [ y.y.y.] n ].8X1X#X(.eXeXeXeXeXeXeXeXeXeXeXeXeXeXeXeXeXeXeXeXeXeXeXeXeXeX",
"eXeXeXeXeXeXeXeXeXeXeXeXeXeXeXeXeXeXeXeXeXeXeXeXeXeXeXeXeXeXeXeXeXeXeXeXeXeXe.y.y.E ] y.y.y.y.y.P [.7X7X6X`.eXeXeXeXeXeXeXeXeXeXeXeXeXeXeXeXeXeXeXeXeXeXeXeXeXeX",
"eXeXeXeXeXeXeXeXeXeXeXeXeXeXeXeXeXeXeXeXeXeXeXeXeXeXeXeXeXeXeXeXeXeXeXeXeXeXd.A.A.I [ u.y.y.y.y.y.s.oX<X&XeXeXeXeXeXeXeXeXeXeXeXeXeXeXeXeXeXeXeXeXeXeXeXeXeXeXeX",
"eXeXeXeXeXeXeXeXeXeXeXeXeXeXeXeXeXeXeXeXeXeXeXeXeXeXeXeXeXeXeXeXeXeXeXeXeXC.$X$X@Xs.#.R e.y.y.y.y.y.} -.1.eXeXeXeXeXeXeXeXeXeXeXeXeXeXeXeXeXeXeXeXeXeXeXeXeXeXeX",
"eXeXeXeXeXeXeXeXeXeXeXeXeXeXeXeXeXeXeXeXeXeXeXeXeXeXeXeXeXeXeXeXeXeXeX] [ t.G.G.XXOX2.=.K Y { r.u.u.*.Y.t.W g h eXeXeXU Y Y U eXeXeXeXeXeXeXeXeXeXeXeXeXeXeXeXeX",
"eXeXeXeXeXeXeXeXeXeXeXeXeXeXeXeXeXeXeXeXeXeXeXeXeXeXeXeXeXeXeXeXeXeXw.r.y.y.y. .A.OX[.E.&.eXeXR Y [ Q.9.n.| a.U.4.S P { y.y.{ eXeXeXeXeXeXeXeXeXeXeXeXeXeXeXeXeX",
"eXeXeXeXeXeXeXeXeXeXeXeXeXeXeXeXeXeXeXeXeXeXeXeXeXeXeXeXeXeXeXeXeXeXr.r.y.y.y.y.y. X:X>X^.eXeXeXeXeX%.J z.` 7.T.{ u.u.u.u.u.y.[ eXeXeXeXeXeXeXeXeXeXeXeXeXeXeXeX",
"eXeXeXeXeXeXeXeXeXeXeXeXeXeXeXeXeXeXeXeXeXeXeXeXeXeXeXeXeXeXeXeXeXr.y.e.y.y.y.y.y.|.;X;X_.& eXeXeXeXeXeXeXj =.4.P Y Y Y Y Y ] r.Y eXeXeXeXeXeXeXeXeXeXeXeXeXeXeX",
"eXeXeXeXeXeXeXeXeXeXeXeXeXeXeXeXeXeXeXeXeXeXeXeXeXeXeXeXeXeXeXeXeXy.r.r.y.y.y.y.} /.;X*Xu , 8 2 eXeXeXeXeXeXeXeXeXeXeXeXeXeXeXY R eXeXeXeXeXeXeXeXeXeXeXeXeXeXeX",
"eXeXeXeXeXeXeXeXeXeXeXeXeXeXeXeXeXeXeXeXeXeXeXeXeXeXeXeXeXeXeXeXw.y.y.y.y.y.y.y.] /.>X;X2 3 e m F S S eXeXeXeXeXeXeXeXeXeXeXeXeXA eXeXeXeXeXeXeXeXeXeXeXeXeXeXeX",
"eXeXeXeXeXeXeXeXeXeXeXeXeXeXeXeXeXeXeXeXeXeXeXeXeXeXeXeXeXeXeXeXw.y.y.y.y.i.u.y.] W.>X`.< e J F I I I F F Z eXeXeXeXeXeXeXeXeXeXeXeXeXeXeXeXeXeXeXeXeXeXeXeXeXeX",
"eXeXeXeXeXeXeXeXeXeXeXeXeXeXeXeXeXeXeXeXeXeXeXeXeXeXeXeXeXeXeXeX( ] r.y.y.f.i.y.[ W.>XP.2 B G I I I I I I G F eXeXeXeXeXeXeXeXeXeXeXeXeXeXeXeXeXeXeXeXeXeXeXeXeX",
"eXeXeXeXeXeXeXeXeXeXeXeXeXeXeXeXeXeXeXeXeXeXeXeXeXeXeXeXeXeXeXeXp ^ y.y.y.S.p.y.[ W.*X6 9 V G I I I I I I I I I F eXeXeXeXeXeXeXeXeXeXeXeXeXeXeXeXeXeXeXeXeXeXeX",
"eXeXeXeXeXeXeXeXeXeXeXeXeXeXeXeXeXeXeXeXeXeXeXeXeXeXeXeXeXeXeXeXP y.y.y.y.S.p.y.[ /.u = r m G I I I I I I I I I I G S eXeXeXeXeXeXeXeXeXeXeXeXeXeXeXeXeXeXeXeXeX",
"eXeXeXeXeXeXeXeXeXeXeXeXeXeXeXeXeXeXeXeXeXeXeXeXeXeXeXeXeXeXeXeXe.y.y.y.u.G.p.y.[ $.3 2 r e N I I I I I I I I I I I G S eXeXeXeXeXeXeXeXeXeXeXeXeXeXeXeXeXeXeXeX",
"eXeXeXeXeXeXeXeXeXeXeXeXeXeXeXeXeXeXeXeXeXeXeXeXeXeXeXeXeXeXeXG r.y.y.y.u.S.u.y.] eX$ % 7 r e H I I I I I I I I I I I I S eXeXeXeXeXeXeXeXeXeXeXeXeXeXeXeXeXeXeX",
"eXeXeXeXeXeXeXeXeXeXeXeXeXeXeXeXeXeXeXeXeXeXeXeXeXeXeXeXeXeXeXF r.y.y.y.i.d.y.y.^ eXeXeX2 r r $.S I I I I I I I I I I I I F eXeXeXeXeXeXeXeXeXeXeXeXeXeXeXeXeXeX",
"eXeXeXeXeXeXeXeXeXeXeXeXeXeXeXeXeXeXeXeXeXeXeXeXeXeXeXeXeXeXeXF y.y.y.y.i.d.y.y.( eXeXeXeX% 9 r +.F I I I I I I I I I I I I F S eXeXeXeXeXeXeXeXeXeXeXeXeXeXeXeX",
"eXeXeXeXeXeXeXeXeXeXeXeXeXeXeXeXeXeXeXeXeXeXeXeXeXeXeXeXeXeXeXF y.y.y.y.u.i.y.r.eXeXeXeXeXeX= 7 r @.F I I I I I I I I I I I I F Z eXeXeXeXeXeXeXeXeXeXeXeXeXeXeX",
"eXeXeXeXeXeXeXeXeXeXeXeXeXeXeXeXeXeXeXeXeXeXeXeXeXeXeXeXeXeXeXF y.y.y.y.y.y.y.r.eXeXeXeXeXeXeXeX% # d G G I I I I I I I I F G I F eXeXeXeXeXeXeXeXeXeXeXeXeXeXeX",
"eXeXeXeXeXeXeXeXeXeXeXeXeXeXeXeXeXeXeXeXeXeXeXeXeXeXeXeXeXeXeXF y.y.y.y.y.y.y.e.eXeXeXeXeXeXeXeXeXeXeXC Z F S F I I I I I S F I I Z eXeXeXeXeXeXeXeXeXeXeXeXeXeX",
"eXeXeXeXeXeXeXeXeXeXeXeXeXeXeXeXeXeXeXeXeXeXeXeXeXeXeXeXeXeXeX` y.y.y.y.y.y.r.eXeXeXeXeXeXeXeXeXeXeXeXeXeXeXeXeXS G I I I S F I H M eXeXeXeXeXeXeXeXeXeXeXeXeXeX",
"eXeXeXeXeXeXeXeXeXeXeXeXeXeXeXeXeXeXeXeXeXeXeXeXeXeXeXeXeXeXeX[ y.y.y.y.y.y.e.eXeXeXeXeXeXeXeXeXeXeXeXeXeXeXeXeXeXd a S I I I K +.n eXeXeXeXeXeXeXeXeXeXeXeXeXeX",
"eXeXeXeXeXeXeXeXeXeXeXeXeXeXeXeXeXeXeXeXeXeXeXeXeXeXeXeXeXeXeX{ y.y.y.y.y.y.eXeXeXeXeXeXeXeXeXeXeXeXeXeXeXeXeXeXeXX p p F G F B m eXeXeXeXeXeXeXeXeXeXeXeXeXeXeX",
"eXeXeXeXeXeXeXeXeXeXeXeXeXeXeXeXeXeXeXeXeXeXeXeXeXeXeXeXeXeXR y.y.y.y.y.y.r.eXeXeXeXeXeXeXeXeXeXeXeXeXeXeXeXeXeXeXK U g ; M M s eXeXeXeXeXeXeXeXeXeXeXeXeXeXeXeX",
"eXeXeXeXeXeXeXeXeXeXeXeXeXeXeXeXeXeXeXeXeXeXeXeXeXeXeXeXeXeX{ y.r.y.y.y.y.eXeXeXeXeXeXeXeXeXeXeXeXeXeXeXeXeXeXeX<.L I J 4 q r 9 eXeXeXeXeXeXeXeXeXeXeXeXeXeXeXeX",
"eXeXeXeXeXeXeXeXeXeXeXeXeXeXeXeXeXeXeXeXeXeXeXeXeXeXeXeX^ [ y.y.r.y.y.y.e.eXeXeXeXeXeXeXeXeXeXeXeXeXeXeXeXeXeX$.<.k L N r r r 8 eXeXeXeXeXeXeXeXeXeXeXeXeXeXeXeX",
"eXeXeXeXeXeXeXeXeXeXeXeXeXeXeXeXeXeXeXeXeXeXeXeXeXeXD ] y.r.r.y.r.y.y.y.] eXeXeXeXeXeXeXeXeXeXeXeXeXeXeXeXeXeXn y y o.k ......2 eXeXeXeXeXeXeXeXeXeXeXeXeXeXeXeX",
"eXeXeXeXeXeXeXeXeXeXeXeXeXeXeXeXeXeXeXeXeXeXeXeXeXT *.( y.r.y.y.r.u.y.[ eXeXeXeXeXeXeXeXeXeXeXeXeXeXeXeXeXeXeXM e K.I.P.O.o.X.% eXeXeXeXeXeXeXeXeXeXeXeXeXeXeXeX",
"eXeXeXeXeXeXeXeXeXeXeXeXeXeXeXeXeXeXeXeXeXeXeXeX^ 8.R.0.[ y.y.} ^ ^ U eXeXeXeXeXeXeXeXeXeXeXeXeXeXeXeXeXeXeXeXeX0 r t L.L.L.1 eXeXeXeXeXeXeXeXeXeXeXeXeXeXeXeXeX",
"eXeXeXeXeXeXeXeXeXeXeXeXeXeXeXeXeXeXeXeXeXeXeXeX} t.T.a.0.{ y.y.[ ^ eXeXeXeXeXeXeXeXeXeXeXeXeXeXeXeXeXeXeXeXeXeX2 r r r r 7   eXeXeXeXeXeXeXeXeXeXeXeXeXeXeXeXeX",
"eXeXeXeXeXeXeXeXeXeXeXeXeXeXeXeXeXeXeXeXeXeXeXr.y. .>.T.3./ } y.y.eXeXeXeXeXeXeXeXeXeXeXeXeXeXeXeXeXeXeXeXeXeXeX$ q r 9 6 @ eXeXeXeXeXeXeXeXeXeXeXeXeXeXeXeXeXeX",
"eXeXeXeXeXeXeXeXeXeXeXeXeXeXeXeXeXeXeXeXeXeXw.y.y.y. .,.U.2./ ] eXeXeXeXeXeXeXeXeXeXeXeXeXeXeXeXeXeXeXeXeXeXeXeXX q 9 2 7 eXeXeXeXeXeXeXeXeXeXeXeXeXeXeXeXeXeXeX",
"eXeXeXeXeXeXeXeXeXeXeXeXeXeXeXeXeXeXeXeXeXeXr.y.y.y.y. .8.R.-.eXeXeXeXeXeXeXeXeXeXeXeXeXeXeXeXeXeXeXeXeXeXeXeXeXO e 3 q r eXeXeXeXeXeXeXeXeXeXeXeXeXeXeXeXeXeXeX",
"eXeXeXeXeXeXeXeXeXeXeXeXeXeXeXeXeXeXeXeXeXr.y.y.y.y.y.y.{ G eXeXeXeXeXeXeXeXeXeXeXeXeXeXeXeXeXeXeXeXeXeXeXeXeXi O e r r r eXeXeXeXeXeXeXeXeXeXeXeXeXeXeXeXeXeXeX",
"eXeXeXeXeXeXeXeXeXeXeXeXeXeXeXeXeXeXeXeXeXy.y.y.y.y.y.{ eXeXeXeXeXeXeXeXeXeXeXeXeXeXeXeXeXeXeXeXeXeXeXeXeXeXeXd p e r r eXeXeXeXeXeXeXeXeXeXeXeXeXeXeXeXeXeXeXeX",
"eXeXeXeXeXeXeXeXeXeXeXeXeXeXeXeXeXeXeXeXr.y.y.y.y.y.[ eXeXeXeXeXeXeXeXeXeXeXeXeXeXeXeXeXeXeXeXeXeXeXeXeXeXeXeXC A e 7 3 eXeXeXeXeXeXeXeXeXeXeXeXeXeXeXeXeXeXeXeX",
"eXeXeXeXeXeXeXeXeXeXeXeXeXeXeXeXeXeXeXe.y.y.y.y.r.] eXeXeXeXeXeXeXeXeXeXeXeXeXeXeXeXeXeXeXeXeXeXeXeXeXeXeXeXeXx z +.> @ eXeXeXeXeXeXeXeXeXeXeXeXeXeXeXeXeXeXeXeX",
"eXeXeXeXeXeXeXeXeXeXeXeXeXeXeXeXeXeXS } y.y.y.{ ] eXeXeXeXeXeXeXeXeXeXeXeXeXeXeXeXeXeXeXeXeXeXeXeXeXeXeXeXeXd z c v b X eXeXeXeXeXeXeXeXeXeXeXeXeXeXeXeXeXeXeXeX",
"eXeXeXeXeXeXeXeXeXeXeXeXeXeXeXeXeXQ z._ y.y.{ eXeXeXeXeXeXeXeXeXeXeXeXeXeXeXeXeXeXeXeXeXeXeXeXeXeXeXeXeXeXeXn z c W l o eXeXeXeXeXeXeXeXeXeXeXeXeXeXeXeXeXeXeXeX",
"eXeXeXeXeXeXeXeXeXeXeXeXeXeXeXeXeXx.b.z.' r.^ eXeXeXeXeXeXeXeXeXeXeXeXeXeXeXeXeXeXeXeXeXeXeXeXeXeXeXeXeXeXS I ; +.P O g eXeXeXeXeXeXeXeXeXeXeXeXeXeXeXeXeXeXeXeX",
"eXeXeXeXeXeXeXeXeXeXeXeXeXeXeX[ r._ v.! l.) eXeXeXeXeXeXeXeXeXeXeXeXeXeXeXeXeXeXeXeXeXeXeXeXeXeXeXeXeXeXS I I ; 8 9 - S n eXeXeXeXeXeXeXeXeXeXeXeXeXeXeXeXeXeXeX",
"eXeXeXeXeXeXeXeXeXeXeXeXeXeXeX} r.w.Q ! z eXeXeXeXeXeXeXeXeXeXeXeXeXeXeXeXeXeXeXeXeXeXeXeXeXeXeXeXeXeXa S I I V = = 5 F I g eXeXeXeXeXeXeXeXeXeXeXeXeXeXeXeXeXeX",
"eXeXeXeXeXeXeXeXeXeXeXeXeXeXG r.r.e.{ ' v eXeXeXeXeXeXeXeXeXeXeXeXeXeXeXeXeXeXeXeXeXeXeXeXeXeXeXeXeXeXeXn S S N 7 & V G I S a eXeXeXeXeXeXeXeXeXeXeXeXeXeXeXeXeX",
"eXeXeXeXeXeXeXeXeXeXeXeXeXG { e.{ [ y.U eXeXeXeXeXeXeXeXeXeXeXeXeXeXeXeXeXeXeXeXeXeXeXeXeXeXeXeXeXeXeXeXeXa ; : 3 3 @.G I I n eXeXeXeXeXeXeXeXeXeXeXeXeXeXeXeXeX",
"eXeXeXeXeXeXeXeXeXeXeXeXeXY y.[ y.y.e.eXeXeXeXeXeXeXeXeXeXeXeXeXeXeXeXeXeXeXeXeXeXeXeXeXeXeXeXeXeXeXeXeXeXeXeXeX$ = 0 N G I I g a eXeXeXeXeXeXeXeXeXeXeXeXeXeXeX",
"eXeXeXeXeXeXeXeXeXeXeXeXeXT [ r.y.y.eXeXeXeXeXeXeXeXeXeXeXeXeXeXeXeXeXeXeXeXeXeXeXeXeXeXeXeXeXeXeXeXeXeXeXeXeXeXeXeX$ 2 H I I I S g eXeXeXeXeXeXeXeXeXeXeXeXeXeX",
"eXeXeXeXeXeXeXeXeXeXeXeXeXn } y.y.y.eXeXeXeXeXeXeXeXeXeXeXeXeXeXeXeXeXeXeXeXeXeXeXeXeXeXeXeXeXeXeXeXeXeXeXeXeXeXeXeXeXeX* b S + d S f X eXeXeXeXeXeXeXeXeXeXeXeX",
"eXeXeXeXeXeXeXeXeXeXeXeXeX[ y.y.y.e.eXeXeXeXeXeXeXeXeXeXeXeXeXeXeXeXeXeXeXeXeXeXeXeXeXeXeXeXeXeXeXeXeXeXeXeXeXeXeXeXeXeXeX. .     . . eXeXeXeXeXeXeXeXeXeXeXeXeX",
"eXeXeXeXeXeXeXeXeXeXeXeXe.y.y.y.y.e.eXeXeXeXeXeXeXeXeXeXeXeXeXeXeXeXeXeXeXeXeXeXeXeXeXeXeXeXeXeXeXeXeXeXeXeXeXeXeXeXeXeXeXeXeXeXeXeXeXeXeXeXeXeXeXeXeXeXeXeXeXeX",
"eXeXeXeXeXeXeXeXeXeXeXeXy.y.y.y.y.e.eXeXeXeXeXeXeXeXeXeXeXeXeXeXeXeXeXeXeXeXeXeXeXeXeXeXeXeXeXeXeXeXeXeXeXeXeXeXeXeXeXeXeXeXeXeXeXeXeXeXeXeXeXeXeXeXeXeXeXeXeXeX",
"eXeXeXeXeXeXeXeXeXeXeXr.y.y.y.y.y.y.eXeXeXeXeXeXeXeXeXeXeXeXeXeXeXeXeXeXeXeXeXeXeXeXeXeXeXeXeXeXeXeXeXeXeXeXeXeXeXeXeXeXeXeXeXeXeXeXeXeXeXeXeXeXeXeXeXeXeXeXeXeX",
"eXeXeXeXeXeXeXeXeXeXeX} u.u.u.u.u.u.] eXeXeXeXeXeXeXeXeXeXeXeXeXeXeXeXeXeXeXeXeXeXeXeXeXeXeXeXeXeXeXeXeXeXeXeXeXeXeXeXeXeXeXeXeXeXeXeXeXeXeXeXeXeXeXeXeXeXeXeXeX",
"eXeXeXeXeXeXeXeXeXeXeXP P P P P P P A eXeXeXeXeXeXeXeXeXeXeXeXeXeXeXeXeXeXeXeXeXeXeXeXeXeXeXeXeXeXeXeXeXeXeXeXeXeXeXeXeXeXeXeXeXeXeXeXeXeXeXeXeXeXeXeXeXeXeXeXeX",
"eXeXeXeXeXeXeXeXeXeXeXeXeXeXeXeXeXeXeXeXeXeXeXeXeXeXeXeXeXeXeXeXeXeXeXeXeXeXeXeXeXeXeXeXeXeXeXeXeXeXeXeXeXeXeXeXeXeXeXeXeXeXeXeXeXeXeXeXeXeXeXeXeXeXeXeXeXeXeXeX",
"eXeXeXeXeXeXeXeXeXeXeXeXeXeXeXeXeXeXeXeXeXeXeXeXeXeXeXeXeXeXeXeXeXeXeXeXeXeXeXeXeXeXeXeXeXeXeXeXeXeXeXeXeXeXeXeXeXeXeXeXeXeXeXeXeXeXeXeXeXeXeXeXeXeXeXeXeXeXeXeX",
"eXeXeXeXeXeXeXeXeXeXeXeXeXeXeXeXeXeXeXeXeXeXeXeXeXeXeXeXeXeXeXeXeXeXeXeXeXeXeXeXeXeXeXeXeXeXeXeXeXeXeXeXeXeXeXeXeXeXeXeXeXeXeXeXeXeXeXeXeXeXeXeXeXeXeXeXeXeXeXeX",
"eXeXeXeXeXeXeXeXeXeXeXeXeXeXeXeXeXeXeXeXeXeXeXeXeXeXeXeXeXeXeXeXeXeXeXeXeXeXeXeXeXeXeXeXeXeXeXeXeXeXeXeXeXeXeXeXeXeXeXeXeXeXeXeXeXeXeXeXeXeXeXeXeXeXeXeXeXeXeXeX",
"eXeXeXeXeXeXeXeXeXeXeXeXeXeXeXeXeXeXeXeXeXeXeXeXeXeXeXeXeXeXeXeXeXeXeXeXeXeXeXeXeXeXeXeXeXeXeXeXeXeXeXeXeXeXeXeXeXeXeXeXeXeXeXeXeXeXeXeXeXeXeXeXeXeXeXeXeXeXeXeX",
"eXeXeXeXeXeXeXeXeXeXeXeXeXeXeXeXeXeXeXeXeXeXeXeXeXeXeXeXeXeXeXeXeXeXeXeXeXeXeXeXeXeXeXeXeXeXeXeXeXeXeXeXeXeXeXeXeXeXeXeXeXeXeXeXeXeXeXeXeXeXeXeXeXeXeXeXeXeXeXeX",
"eXeXeXeXeXeXeXeXeXeXeXeXeXeXeXeXeXeXeXeXeXeXeXeXeXeXeXeXeXeXeXeXeXeXeXeXeXeXeXeXeXeXeXeXeXeXeXeXeXeXeXeXeXeXeXeXeXeXeXeXeXeXeXeXeXeXeXeXeXeXeXeXeXeXeXeXeXeXeXeX"
};
