/* XPM */
static char *result[] = {
/* columns rows colors chars-per-pixel */
"80 80 220 2 ",
"   c #480618",
".  c #5E1614",
"X  c #731E1C",
"o  c #76330B",
"O  c #75261D",
"+  c #7E2B1B",
"@  c #4C0D21",
"#  c #55182C",
"$  c #4D1736",
"%  c #5F1534",
"&  c #561B33",
"*  c #591D35",
"=  c #6A1C27",
"-  c #621F34",
";  c #5C292F",
":  c #5C233B",
">  c #782A25",
",  c #742F2E",
"<  c #692A3B",
"1  c #702B30",
"2  c #5F2640",
"3  c #5D2844",
"4  c #57305C",
"5  c #612A45",
"6  c #61274A",
"7  c #642E4B",
"8  c #712849",
"9  c #68324C",
"0  c #7D3A45",
"q  c #77364A",
"w  c #693552",
"e  c #693657",
"r  c #6D3B5A",
"t  c #753C53",
"y  c #7C3D57",
"u  c #743E5C",
"i  c #593A66",
"p  c #6D3062",
"a  c #7C4257",
"s  c #7D455B",
"d  c #734263",
"f  c #784A68",
"g  c #7A586A",
"h  c #863815",
"j  c #84282B",
"k  c #8B3623",
"l  c #893725",
"z  c #83332C",
"x  c #933B26",
"c  c #953D28",
"v  c #872E34",
"b  c #863A38",
"n  c #A63526",
"m  c #9B471C",
"M  c #985E1E",
"N  c #AA570F",
"B  c #AB4D1C",
"V  c #AB5715",
"C  c #B75C14",
"Z  c #B46D12",
"A  c #B86B12",
"S  c #9B4125",
"D  c #9C422B",
"F  c #9B4433",
"G  c #99473C",
"H  c #A94623",
"J  c #A84726",
"K  c #A1452B",
"L  c #A54B2E",
"P  c #AC4C2D",
"I  c #B7442A",
"U  c #B14E2E",
"Y  c #A7562C",
"T  c #B4502E",
"R  c #A44735",
"E  c #A54A32",
"W  c #AA4D33",
"Q  c #B14F30",
"!  c #BE4039",
"~  c #AC5138",
"^  c #B55332",
"/  c #B85533",
"(  c #B65835",
")  c #BD5B35",
"_  c #B45539",
"`  c #BC5B3A",
"'  c #A5682B",
"]  c #B86728",
"[  c #BD603A",
"{  c #C86E1C",
"}  c #D46918",
"|  c #CA7816",
" . c #C8493E",
".. c #C15E34",
"X. c #C25E3C",
"o. c #CD722E",
"O. c #C46235",
"+. c #CC6936",
"@. c #C5633B",
"#. c #C9663C",
"$. c #CD6A3D",
"%. c #D16D3E",
"&. c #D2723A",
"*. c #853C42",
"=. c #9E3A4B",
"-. c #9E3C52",
";. c #863E62",
":. c #84434D",
">. c #884848",
",. c #964945",
"<. c #9B5145",
"1. c #864557",
"2. c #89545B",
"3. c #925050",
"4. c #A34D42",
"5. c #A65749",
"6. c #A14855",
"7. c #A55D59",
"8. c #B45C5C",
"9. c #8E6C59",
"0. c #BA6544",
"q. c #AF6C51",
"w. c #B66957",
"e. c #854662",
"r. c #964964",
"t. c #8A5D67",
"y. c #805676",
"u. c #A9556C",
"i. c #97676C",
"p. c #917373",
"a. c #B46565",
"s. c #A76C70",
"d. c #B0607C",
"f. c #C65A42",
"g. c #C56341",
"h. c #C96542",
"j. c #CD6B42",
"k. c #CF6449",
"l. c #C26A49",
"z. c #D16E41",
"x. c #D67342",
"c. c #D87543",
"v. c #D57649",
"b. c #D7784B",
"n. c #CC7052",
"m. c #D57B53",
"M. c #DA7D51",
"N. c #C56364",
"B. c #DA8E0D",
"V. c #DA950B",
"C. c #CF8518",
"Z. c #D18814",
"A. c #E99A11",
"S. c #D9AE09",
"D. c #EEB804",
"F. c #F0BD0D",
"G. c #C88437",
"H. c #D58A32",
"J. c #B48C7C",
"K. c #CA845E",
"L. c #D68253",
"P. c #DC825B",
"I. c #D68C64",
"U. c #C79A78",
"Y. c #E3906F",
"T. c #E59474",
"R. c #CBA27E",
"E. c #5D5498",
"W. c #674D83",
"Q. c #7E548F",
"!. c #675395",
"~. c #616299",
"^. c #717F9C",
"/. c #575AAC",
"(. c #787BA9",
"). c #747EB3",
"_. c #977987",
"`. c #B76E91",
"'. c #8F8097",
"]. c #A5A192",
"[. c #B5B697",
"{. c #B9B998",
"}. c #8686A7",
"|. c #8C8CB2",
" X c #9793B6",
".X c #B292A1",
"XX c #AD9BB6",
"oX c #84AEB5",
"OX c #A7A4A1",
"+X c #A8A2AA",
"@X c #B4B3AB",
"#X c #B6AABE",
"$X c #C59B82",
"%X c #CCB28B",
"&X c #D1B995",
"*X c #ACD182",
"=X c #C8C7A8",
"-X c #D0C2A1",
";X c #CDCDBD",
":X c #D6D5B8",
">X c #D7D9B8",
",X c #9D9DCA",
"<X c #A8A7C6",
"1X c #AAABD1",
"2X c #B1AFD1",
"3X c #B2B2D5",
"4X c #B7B7D6",
"5X c #B9B9DC",
"6X c #C3B6CD",
"7X c #CAC8CA",
"8X c #D7D7C6",
"9X c #C8C8DA",
"0X c #D4D4DA",
"qX c #E5E5C4",
"wX c #ECECDB",
"eX c #C7C8E8",
"rX c #F2F2E9",
"tX c #F6F6F3",
"yX c #F7F7F8",
"uX c None",
/* pixels */
"uXuXuXuXuXuXuXuXuXuXuXuXuXuXuXuXuXuXuXuXuXuXuXuXuXuXuXuXuXuXuXuXuXuXuXuXuXuXuXuXuXuXuXuXuXuXuXuXuXuXuXuXuXuXuXuXuXuXuXuXuXuXuXuXuXuXuXuXuXuXuXuXuXuXuXuXuXuXuXuX",
"uXuXuXuXuXuXuXuXuXuXuXuXuXuXuXuXuXuXuXuXuXuXuXuXuXuXuXuXuXuXuXuXuXuXuXuXuXuXuXuXuXuXuXuXuXuXuXuXuXuXuXuXuXuXuXuXuXuXuXuXuXuXuXuXuXuXuXuXuXuXuXuXuXuXuXuXuXuXuXuX",
"uXuXuXuXuXuXuXuXuXuXuXuXuXuXuXuXuXuXuXuXuXuXuXuXuXuXuXuXuXuXuXuXuXuXuXuXuXuXuXuXuXuXuXuXuXuXuXuXuXuXuXuXuXuXuXuXuXuXuXuXuXuXuXuXuXuXuXuXuXuXuXuXuXuXuXuXuXuXuXuX",
"uXuXuXuXuXuXuXuXuXuXuXuXuXuXuXuXuXuXuXuXuXuXuXuXuXuXuXuXuXuXuXuXuXuXuXuXuXuXuXuXuXuXuXuXuXuXuXuXuXuXuXuXuXuXuXuXuXuXuXuXuXuXuXuXuXuXuXuXuXuXuXuXuXuXuXuXuXuXuXuX",
"uXuXuXuXuXuXuXuXuXuXuXuXuXuXuXuXuXuXuXuXuXuXuXuXuXuXuXuXuXuXuXuXuXuXuXuXuXuXuXuXuXuXuXuXuXuXuXuXuXuXuXuXuXuXuXuXuXuXuXuXuXuXuXuXuXuXuXuXuXuXuXuXuXuXuXuXuXuXuXuX",
"uXuXuXuXuXuXuXuXuXuXuXuXuXuXuXuXuXuXuXuXuXuXuXuXuXuXuXuXuXuXuXuXuXuXuXuXuXuXuXuXuXuXuXuXuXuXuXuXuXuXuXuXuXuXuXuXuXuXuXuXuXuXuXuXuXuXuXuXuXuXuXuXuXuXuXuXuXuXuXuX",
"uXuXuXuXuXuXuXuXuXuXuXuXuXuXuXuXuXuXuXuXuXuXuXuXuXuXuXuXuXuXuXuXuXuXuXuXuXuXuXuXuXuXuXuXuXuXuXuXuXuXuXuXuXuXuXuXuXuXuXuXuXuXuXuXuXuXuXuXuXuXuXuXuXuXuXuXuXuXuXuX",
"uXuXuXuXuXuXuXuXuXuXuXuXuXuXuXuXuXuXuXuXuXuXuXuXuXuXuXuXuXuXuXuXuXuXuXuXuXuXuXuXuXuXuXuXuXuXuXuXuXuXuXuXuXuXuXuXuXuXuXuXuXuXuXuXuXuXuXuXuXuXuXuXuXuXuXuXuXuXuXuX",
"uXuXuXuXuXuXuXuXuXuXuXuXuXuXuXuXuXuXuXuXuXuXuXuXuXuXuXuXuXuXuXuXuXuXuXuXuXuXuXuXuXuXuXuXuXuXuXuXuXuXuXuXuXuXuXuXuXuXuXuXuXuXuXuXuXuXuXuXuXuXuXuXuXuXuXuXuXuXuXuX",
"uXuXuXuXuXuXuXuXuXuXuXuXuXuXuXuXuXuXuXuXuXuXuXuXuXuXuXuXuXuXuXuXuXuXuXuXuXuXuXuXuXuXuXuXuXuXuXuXuXuXuXuXuXuXuXuXuXuXuXuXuXuXuXuXuXuXuXuXuXuXuXuXuXuXuXuXuXuXuXuX",
"uXuXuXuXuXuXuXuXuXuXuXuXuXuXuXuXuXuXuXuXuXuXuXuXuXuXuXuXuXuXuXuXuXuXuXuXuXuXuXuXuXuXuXuXuXuXuXuXuXuXuXuXuXuXuXuXuXuXuXuXuXuXuXuXuXuXuXuXuXuXuXuXuXuXuXuXuXuXuXuX",
"uXuXuXuXuXuXuXuXuXuXuXuXuXuXuXuXuXuXuXuXuXuXuXuXuXuXuXuXuXuXuXuXuXuXuXuXuXuXuXuXuXuXuXuXuXuXuXuXuXuXuXuXuXuXuXuXuXuXuXuXuXuXuXuXuXuXuXuXuXuXuXuXuXuXuXuXuXuXuXuX",
"uXuXuXuXuXuXuXuXuXuXuXuXuXuXuXuXuXuXuXuXuXuXuXuXuXuXuXuXuXuXuXuXuXuXuXuXuXuXuXuXuXuXuXuXuXuXuXuXuX:XtXuXuXuXuXuXuXuXuXuXuXuXuXuXuXuXuXuXuXuXuXuXuXuXuXuXuXuXuXuX",
"uXuXuXuXuXuXuXuXuXuXuXuXuXuXuXuXuXuXuXuXuXuXuXuXuXuXuXuXuXuXuXuXuXuXuXuXuXuXuXuXuXuXuXuXuXuXuX|.4XrXtXtXyXrX=XuXuXuXuXuXuXuXuXuXuXuXuXuXuXuXuXuXuXuXuXuXuXuXuXuX",
"uXuXuXuXuXuXuXuXuXuXuXuXuXuXuXuXuXuXuXuXuXuXuXuXuXuXuXuXuXuXuXuXuXuXuXuXuXuXuXuXuXuXuXuXuXuXuX,X3X8XwXtXtXrX8X{.uXuXuXuXuXuXuXuXuXuXuXuXuXuXuXuXuXuXuXuXuXuXuXuX",
"uXuXuXuXuXuXuXuXuXuXuXuXuXuXuXuXuXuXuXuXuXuXuXuXuXuXuXuXuXuXuXuXuXuXuXuXuXuXuXuXuXuXuXuXuXuX|.4XeX5X7X8XqXqXqX;X<XuXuXuXuXuXuXuXuXuXuXuXuXuXuXuXuXuXuXuXuXuXuXuX",
"uXuXuXuXuXuXuXuXuXuXuXuXuXuXuXuXuXuXuXuXuXuXuXuXuXuXuXuXuXuXuXuXuXuXuXuXuXuXuXuXuXuXuXuXuXuX XeX3X5X9X@X7X0X0X9X2XuXuXuXuXuXuXuXuXuXuXuXuXuXuXuXuXuXuXuXuXuXuXuX",
"uXuXuXuXuXuXuXuXuXuXuXuXuXuXuXuXuXuXuXuXuXuXuXuXuXuXuXuXuXuXuXuXuXuXuXuXuXuXuXuXuXuXuXuXuXuXJ. Xt.<X6Xw.t.2X5X3X<XuXuXuXuXuXuXuXuXuXuXuXuXuXuXuXuXuXuXuXuXuXuXuX",
"uXuXuXuXuXuXuXuXuXuXuXuXuXuXuXuXuXuXuXuXuXuXuXuXuXuXuXuXuXuXuXuXuXuXuXuXuXj.j.X.#.j.#.S.*X$XC.G F i.XX~ O g #XXX1XuXuXuXuXuXuXuXuXuXuXuXuXuXuXuXuXuXuXuXuXuXuXuX",
"uXuXuXuXuXuXuXuXuXuXuXuXuXuXuXuXuXuXuXuXuXuXuXuXuXuXuXuXuXuXuXuXuXuXuXuXj.$.#.$.z.j.&.F.oXJ.A.O.> F s.5.y., <.f uXuXuXuXuXuXuXuXuXuXuXuXuXuXuXuXuXuXuXuXuXuXuXuX",
"uXuXuXuXuXuXuXuXuXuXuXuXuXuXuXuXuXuXuXuXuXuXuXuXuXuXuXuXuXuXuXuXuXuXuX$.z.#.x.b.P.P.@.Z.^.Q.} { D R l.w.z.h.> uXuXuXuXuXuXuXuXuXuXuXuXuXuXuXuXuXuXuXuXuXuXuXuXuX",
"uXuXuXuXuXuXuXuXuXuXuXuXuXuXuXuXuXuXuXuXuXuXuXuXuXuXuXuXuXuXuXuXuXuXl.x.z.#.x.M.T.Y.v.] 9./.I C D x g.@._ x . uXuXuXuXuXuXuXuXuXuXuXuXuXuXuXuXuXuXuXuXuXuXuXuXuX",
"uXuXuXuXuXuXuXuXuXuXuXuXuXuXuXuXuXuXuXuXuXuXuXuXuXuXuXuXuXuXuXuXuX[.&XL.^ @.x.v.m.m.v.O.] ~.:.+ uX. l l . uXuXuXuXuXuXuXuXuXuXuXuXuXuXuXuXuXuXuXuXuXuXuXuXuXuXuX",
"uXuXuXuXuXuXuXuXuXuXuXuXuXuXuXuXuXuXuXuXuXuXuXuXuXuXuXuXuXuXuXuXuX-X>X%XE @.x.x.x.x.c.[ Z ' 5.L uXuXuXuXuXuXuXuXuXuXuXuXuXuXuXuXuXuXuXuXuXuXuXuXuXuXuXuXuXuXuXuX",
"uXuXuXuXuXuXuXuXuXuXuXuXuXuXuXuXuXuXuXuXuXuXuXuXuXuXuXuXuXuXuXuXg.&X>XR.$.z.x.x.x.x.#.U.%XM b G uXuXuXuXuXuXuXuXuXuXuXuXuXuXuXuXuXuXuXuXuXuXuXuXuXuXuXuXuXuXuXuX",
"uXuXuXuXuXuXuXuXuXuXuXuXuXuXuXuXuXuXuXuXuXuXuXuXuXuXuXuXuXuXuXj.$.L.$XG.o.&.z.@.0.n.%X:X=X>.q & uXuXuXuXuXuXuXuXuXuXuXuXuXuXuXuXuXuXuXuXuXuXuXuXuXuXuXuXuXuXuXuX",
"uXuXuXuXuXuXuXuXuXuXuXuXuXuXuXuXuXuXuXuXuXuXuXuXuXuXuXuXuXuX@.j.z.#.5.`.I.H.+.` .X7X>X>X=X9.<.uXuXuXuXuXuXuXuXuXuXuXuXuXuXuXuXuXuXuXuXuXuXuXuXuXuXuXuXuXuXuXuXuX",
"uXuXuXuXuXuXuXuXuXuXuXuXuXuXuXuXuXuXuXuXuXuXuXuXuXuXuXuXuXuXJ.U.l.( z.%.a.`.H.0.#XeX7X:X=X[.uXuXuXuXuXuXuXuXuXuXuXuXuXuXuXuXuXuXuXuXuXuXuXuXuXuXuXuXuXuXuXuXuXuX",
"uXuXuXuXuXuXuXuXuXuXuXuXuXuXuXuXuXuXuXuXuXuXuXuXuXuXuXuXuX` K.-Xq.$.x.x.$.a.o.q.+XeXeXeX@X].uXuXuXuXuXuXuXuXuXuXuXuXuXuXuXuXuXuXuXuXuXuXuXuXuXuXuXuXuXuXuXuXuXuX",
"uXuXuXuXuXuXuXuXuXuXuXuXuXuXuXuXuXuXuXuXuXuXuXuXuXuXuXuX#.x.x.m.@.@.@.@.x.P = - p.OXOXOXp.2.uXuXuXuXuXuXuXuXuXuXuXuXuXuXuXuXuXuXuXuXuXuXuXuXuXuXuXuXuXuXuXuXuXuX",
"uXuXuXuXuXuXuXuXuXuXuXuXuXuXuXuXuXuXuXuXuXuXuXuXuXuXuXj.x.x.j.z.x.z.%.$.) S uXuXuX; s e.e.q uXuXuXuXuXuXuXuXuXuXuXuXuXuXuXuXuXuXuXuXuXuXuXuXuXuXuXuXuXuXuXuXuXuX",
"uXuXuXuXuXuXuXuXuXuXuXuXuXuXuXuXuXuXuXuXuXuXuXuXuXuXuXx.x.$.#.x.x.x.x.x.x.@.@.^ _ = y 1.e.v H ) ....L ^ / uXuXuXuXuXuXuXuXuXuXuXuXuXuXuXuXuXuXuXuXuXuXuXuXuXuXuX",
"uXuXuXuXuXuXuXuXuXuXuXuXuXuXuXuXuXuXuXuXuXuXuXuXuXuXz.x.x.@.x.x.x.x.x.x.x.x.$.u.u.H R 3.~ #.$.x.v.x.x.%.%.) uXuXuXuXuXuXuXuXuXuXuXuXuXuXuXuXuXuXuXuXuXuXuXuXuXuX",
"uXuXuXuXuXuXuXuXuXuXuXuXuXuXuXuXuXuXuXuXuXuXuXuXuXj.x.x.x.@.x.x.x.x.x.x.x.x.@.`.G.+.s.).0.x.x.x.x.x.x.x.#.L uXuXuXuXuXuXuXuXuXuXuXuXuXuXuXuXuXuXuXuXuXuXuXuXuXuX",
"uXuXuXuXuXuXuXuXuXuXuXuXuXuXuXuXuXuXuXuXuXuXuXuXuXj.x.x.v.l.L ) #.%.%.%.%.x.@.d.Z.k.'.(.+.c.x.c.x.@.@.W uXuXuXuXuXuXuXuXuXuXuXuXuXuXuXuXuXuXuXuXuXuXuXuXuXuXuXuX",
"uXuXuXuXuXuXuXuXuXuXuXuXuXuXuXuXuXuXuXuXuXuXuXuXuXj.x.x.x.m.m.x.$.@.X.a.7.<.4.6.V P 2.g L ^ ^ ^ Q K uXuXuXuXuXuXuXuXuXuXuXuXuXuXuXuXuXuXuXuXuXuXuXuXuXuXuXuXuXuX",
"uXuXuXuXuXuXuXuXuXuXuXuXuXuXuXuXuXuXuXuXuXuXuXuXuX@.x.x.x.v.P.b.x.x.x.w.f d s t t t t t 0 z *.~ ( 6.,.uXuXuXuXuXuXuXuXuXuXuXuXuXuXuXuXuXuXuXuXuXuXuXuXuXuXuXuXuX",
"uXuXuXuXuXuXuXuXuXuXuXuXuXuXuXuXuXuXuXuXuXuXuXuXuXuXz.x.x.x.P.P.x.x.x.%.,.d d d d d d d d u *.W 4.r.| B n uXuXuXuXuXuXuXuXuXuXuXuXuXuXuXuXuXuXuXuXuXuXuXuXuXuXuX",
"uXuXuXuXuXuXuXuXuXuXuXuXuXuXuXuXuXuXuXuXuXuXuXuXuXuXX.z.x.x.v.P.M.x.x.x.#.3.d d d d d d d d d q - l C ! 1.,.K S W / / / uXuXuXuXuXuXuXuXuXuXuXuXuXuXuXuXuXuXuXuX",
"uXuXuXuXuXuXuXuXuXuXuXuXuXuXuXuXuXuXuXuXuXuXuXuXuXuXuX#.x.x.x.v.m.x.x.x.x.@.1.d d d d d d d d d 0 + O v ~.w.X.X.g.X.^ _ D uXuXuXuXuXuXuXuXuXuXuXuXuXuXuXuXuXuXuX",
"uXuXuXuXuXuXuXuXuXuXuXuXuXuXuXuXuXuXuXuXuXuXuXuXuXuXuXX.x.x.x.x.v.b.x.x.x.x.5.d d d d d d d d d :.U D 1 i _ h.g.E ^ ` _ l uXuXuXuXuXuXuXuXuXuXuXuXuXuXuXuXuXuXuX",
"uXuXuXuXuXuXuXuXuXuXuXuXuXuXuXuXuXuXuXuXuXuXuXuXuXuXuXuXz.x.x.x.x.v.x.x.x.x.@.s d d d d d d d d :.U / E > x W / ( X.g.h.` D uXuXuXuXuXuXuXuXuXuXuXuXuXuXuXuXuXuX",
"uXuXuXuXuXuXuXuXuXuXuXuXuXuXuXuXuXuXuXuXuXuXuXuXuXuXuXuX@.x.x.x.x.x.x.x.x.x.x.<.d d d d d d d d :.U ^ ^ ^ D O uXK L / f.g.E uXuXuXuXuXuXuXuXuXuXuXuXuXuXuXuXuXuX",
"uXuXuXuXuXuXuXuXuXuXuXuXuXuXuXuXuXuXuXuXuXuXuXuXuXuXuXuXuX@.x.x.x.x.x.x.x.x.x.0.t d d d d d d d :.P ^ ^ ^ ^ P uXuXuXuXx x l uXuXuXuXuXuXuXuXuXuXuXuXuXuXuXuXuXuX",
"uXuXuXuXuXuXuXuXuXuXuXuXuXuXuXuXuXuXuXuXuXuXuXuXuXuXuXuXuXP #.x.x.x.x.x.x.x.x.z., * * 5 u d d d d >.U ^ ^ ^ U uXuXuXuXuXuXuXuXuXuXuXuXuXuXuXuXuXuXuXuXuXuXuXuXuX",
"uXuXuXuXuXuXuXuXuXuXuXuXuXuXuXuXuXuXuXuXuXuXuXuXuXuXuXuXuXuXT #.x.x.x.x.x.x.x.x.uXuXuXuX@ # 9 w d a P ^ ^ ^ U uXuXuXuXuXuXuXuXuXuXuXuXuXuXuXuXuXuXuXuXuXuXuXuXuX",
"uXuXuXuXuXuXuXuXuXuXuXuXuXuXuXuXuXuXuXuXuXuXuXuXuXuXuXuXuXuXuX^ g.z.x.x.x.x.x.x.z.uXuXuXuXuXuX  2 d >.U ^ ^ K uXuXuXuXuXuXuXuXuXuXuXuXuXuXuXuXuXuXuXuXuXuXuXuXuX",
"uXuXuXuXuXuXuXuXuXuXuXuXuXuXuXuXuXuXuXuXuXuXuXuXuXuXuXuXuXuXuXuX/ h.x.x.x.x.x.x.x.uXuXuXuXuXuX: 5 & w ,.U U c uXuXuXuXuXuXuXuXuXuXuXuXuXuXuXuXuXuXuXuXuXuXuXuXuX",
"uXuXuXuXuXuXuXuXuXuXuXuXuXuXuXuXuXuXuXuXuXuXuXuXuXuXuXuXuXuXuXuXuX` h.x.x.x.x.x.x.uXuXuXuXuX= u d # * 9 G z uXuXuXuXuXuXuXuXuXuXuXuXuXuXuXuXuXuXuXuXuXuXuXuXuXuX",
"uXuXuXuXuXuXuXuXuXuXuXuXuXuXuXuXuXuXuXuXuXuXuXuXuXuXuXuXuXuXuXuXuXuX` h.z.x.x.x.x.O.uXuXuXuXj =.d 9 5 r u # uXuXuXuXuXuXuXuXuXuXuXuXuXuXuXuXuXuXuXuXuXuXuXuXuXuX",
"uXuXuXuXuXuXuXuXuXuXuXuXuXuXuXuXuXuXuXuXuXuXuXuXuXuXuXuXuXuXuXuXuXuXD ` g.$.x.x.x.%.uXuXuXuX4 6.=.y 7 d q X uXuXuXuXuXuXuXuXuXuXuXuXuXuXuXuXuXuXuXuXuXuXuXuXuXuX",
"uXuXuXuXuXuXuXuXuXuXuXuXuXuXuXuXuXuXuXuXuXuXuXuXuXuXuXuXuXuXuXuXuXuXK ^ X.O.x.x.x.$.J uXuXuX3 W.!.r.-.-.;.$ uXuXuXuXuXuXuXuXuXuXuXuXuXuXuXuXuXuXuXuXuXuXuXuXuXuX",
"uXuXuXuXuXuXuXuXuXuXuXuXuXuXuXuXuXuXuXuXuXuXuXuXuXuXuXuXuXuXuXuXuX^ @.( h.x.x.x.x.$.x uXuXuX: d W.E.!.!.i uXuXuXuXuXuXuXuXuXuXuXuXuXuXuXuXuXuXuXuXuXuXuXuXuXuXuX",
"uXuXuXuXuXuXuXuXuXuXuXuXuXuXuXuXuXuXuXuXuXuXuXuXuXuXuXuXuXuXuXR I %.x.h.j.x.x.x.x.( uXuXuXuX  w d d d d 2 uXuXuXuXuXuXuXuXuXuXuXuXuXuXuXuXuXuXuXuXuXuXuXuXuXuXuX",
"uXuXuXuXuXuXuXuXuXuXuXuXuXuXuXuXuXuXuXuXuXuXuXuXuXuXuXuXuXuX7.(.8.k.$.j.z.x.x.x.` uXuXuXuXuX  & r d d w @ uXuXuXuXuXuXuXuXuXuXuXuXuXuXuXuXuXuXuXuXuXuXuXuXuXuXuX",
"uXuXuXuXuXuXuXuXuXuXuXuXuXuXuXuXuXuXuXuXuXuXuXuXuXuXuXuXuX) +.i.(.N.f./ j.x.j.) uXuXuXuXuXuX@ r d d 5 @ uXuXuXuXuXuXuXuXuXuXuXuXuXuXuXuXuXuXuXuXuXuXuXuXuXuXuXuX",
"uXuXuXuXuXuXuXuXuXuXuXuXuXuXuXuXuXuXuXuXuXuXuXuXuXuXuXuXuXj.x.$._.}.N. .X.x.) uXuXuXuXuXuXuX@ r d e 7 * uXuXuXuXuXuXuXuXuXuXuXuXuXuXuXuXuXuXuXuXuXuXuXuXuXuXuXuX",
"uXuXuXuXuXuXuXuXuXuXuXuXuXuXuXuXuXuXuXuXuXuXuXuXuXuXuXuXuXz.x.x.v._.).8.f.) uXuXuXuXuXuXuXuX@ r d d r # uXuXuXuXuXuXuXuXuXuXuXuXuXuXuXuXuXuXuXuXuXuXuXuXuXuXuXuX",
"uXuXuXuXuXuXuXuXuXuXuXuXuXuXuXuXuXuXuXuXuXuXuXuXuXuXuXuX#.x.x.x.x.%.i.(.2.uXuXuXuXuXuXuXuXuX  8 p p 6 uXuXuXuXuXuXuXuXuXuXuXuXuXuXuXuXuXuXuXuXuXuXuXuXuXuXuXuXuX",
"uXuXuXuXuXuXuXuXuXuXuXuXuXuXuXuXuXuXuXuXuXuXuXuXuXuXuXuXz.x.x.x.x.x.#.~ uXuXuXuXuXuXuXuXuXuX+ m S D h uXuXuXuXuXuXuXuXuXuXuXuXuXuXuXuXuXuXuXuXuXuXuXuXuXuXuXuXuX",
"uXuXuXuXuXuXuXuXuXuXuXuXuXuXuXuXuXuXuXuXuXuXuXuXuXuXuXT %.x.x.x.z.h._ uXuXuXuXuXuXuXuXuXuXuXS N N N V % uXuXuXuXuXuXuXuXuXuXuXuXuXuXuXuXuXuXuXuXuXuXuXuXuXuXuXuX",
"uXuXuXuXuXuXuXuXuXuXuXuXuXuXuXuXuXuXuXuXuXuXuXuXuXuXuX@.x.x.x.j.z.( uXuXuXuXuXuXuXuXuXuXuXP Q m Y ' 0 7 < uXuXuXuXuXuXuXuXuXuXuXuXuXuXuXuXuXuXuXuXuXuXuXuXuXuXuX",
"uXuXuXuXuXuXuXuXuXuXuXuXuXuXuXuXuXuXuXuXuXuXuXuXuXuX$.x.x.x.x.x.#.uXuXuXuXuXuXuXuXuXuXuXuXU / z e d e < F x uXuXuXuXuXuXuXuXuXuXuXuXuXuXuXuXuXuXuXuXuXuXuXuXuXuX",
"uXuXuXuXuXuXuXuXuXuXuXuXuXuXuXuXuXuXuXuXuXuXuXuXuX@.x.x.x.x.x.$.uXuXuXuXuXuXuXuXuXuXuXuXP ^ ^ x : 2 : z T P k uXuXuXuXuXuXuXuXuXuXuXuXuXuXuXuXuXuXuXuXuXuXuXuXuX",
"uXuXuXuXuXuXuXuXuXuXuXuXuXuXuXuXuXuXuXuXuXuXuXuXuXj.x.x.x.x.@.uXuXuXuXuXuXuXuXuXuXuXuXuXU ^ ^ P q 7 9 R ^ ^ P x uXuXuXuXuXuXuXuXuXuXuXuXuXuXuXuXuXuXuXuXuXuXuXuX",
"uXuXuXuXuXuXuXuXuXuXuXuXuXuXuXuXuXuXuXuXuXuXuXuXP x.x.x.x...uXuXuXuXuXuXuXuXuXuXuXuXuXuXP T ^ P < 5 0 P ^ ^ T J c c k uXuXuXuXuXuXuXuXuXuXuXuXuXuXuXuXuXuXuXuXuX",
"uXuXuXuXuXuXuXuXuXuXuXuXuXuXuXuXuXuXuXuXuXuXuXA | O.z.z.O.uXuXuXuXuXuXuXuXuXuXuXuXuXuXuXuXuXJ H uXuXk P U U U U Q P H c uXuXuXuXuXuXuXuXuXuXuXuXuXuXuXuXuXuXuXuX",
"uXuXuXuXuXuXuXuXuXuXuXuXuXuXuXuXuXuXuXuXuXuXA B.V.B.{ B uXuXuXuXuXuXuXuXuXuXuXuXuXuXuXuXuXuXuXuXuXuXuXk k k k k k l k k uXuXuXuXuXuXuXuXuXuXuXuXuXuXuXuXuXuXuXuX",
"uXuXuXuXuXuXuXuXuXuXuXuXuXuXuXuXuXuXuXuXuX/ { D.V.| A o uXuXuXuXuXuXuXuXuXuXuXuXuXuXuXuXuXuXuXuXuXuXuXuXuXuXuXuXuXuXuXuXuXuXuXuXuXuXuXuXuXuXuXuXuXuXuXuXuXuXuXuX",
"uXuXuXuXuXuXuXuXuXuXuXuXuXuXuXuXuXuXuXuXuX#.x.o.A.B.A uXuXuXuXuXuXuXuXuXuXuXuXuXuXuXuXuXuXuXuXuXuXuXuXuXuXuXuXuXuXuXuXuXuXuXuXuXuXuXuXuXuXuXuXuXuXuXuXuXuXuXuXuX",
"uXuXuXuXuXuXuXuXuXuXuXuXuXuXuXuXuXuXuXuX@.#.x.$.@.O.) L uXuXuXuXuXuXuXuXuXuXuXuXuXuXuXuXuXuXuXuXuXuXuXuXuXuXuXuXuXuXuXuXuXuXuXuXuXuXuXuXuXuXuXuXuXuXuXuXuXuXuXuX",
"uXuXuXuXuXuXuXuXuXuXuXuXuXuXuXuXuXuXuX#.$.$.%.@.z.x.c.$.) uXuXuXuXuXuXuXuXuXuXuXuXuXuXuXuXuXuXuXuXuXuXuXuXuXuXuXuXuXuXuXuXuXuXuXuXuXuXuXuXuXuXuXuXuXuXuXuXuXuXuX",
"uXuXuXuXuXuXuXuXuXuXuXuXuXuXuXuXuXuX#.x.#.#.$...x.x.x.x.$.uXuXuXuXuXuXuXuXuXuXuXuXuXuXuXuXuXuXuXuXuXuXuXuXuXuXuXuXuXuXuXuXuXuXuXuXuXuXuXuXuXuXuXuXuXuXuXuXuXuXuX",
"uXuXuXuXuXuXuXuXuXuXuXuXuXuXuXuXuXuX#.c.#.O.O...c.x.x.x.x.[ c uXuXuXuXuXuXuXuXuXuXuXuXuXuXuXuXuXuXuXuXuXuXuXuXuXuXuXuXuXuXuXuXuXuXuXuXuXuXuXuXuXuXuXuXuXuXuXuXuX",
"uXuXuXuXuXuXuXuXuXuXuXuXuXuXuXuXuXuX$.x.x.O.) #.+.x.x.#.x.x.#.@.@.uXuXuXuXuXuXuXuXuXuXuXuXuXuXuXuXuXuXuXuXuXuXuXuXuXuXuXuXuXuXuXuXuXuXuXuXuXuXuXuXuXuXuXuXuXuXuX",
"uXuXuXuXuXuXuXuXuXuXuXuXuXuXuXuXuXuX@.$.$.$.$.O.@.$.@.#.%.%.%.%.%.@.uXuXuXuXuXuXuXuXuXuXuXuXuXuXuXuXuXuXuXuXuXuXuXuXuXuXuXuXuXuXuXuXuXuXuXuXuXuXuXuXuXuXuXuXuXuX",
"uXuXuXuXuXuXuXuXuXuXuXuXuXuXuXuXuXuXuXH H H H uXuX/ ^ / / / / / / uXuXuXuXuXuXuXuXuXuXuXuXuXuXuXuXuXuXuXuXuXuXuXuXuXuXuXuXuXuXuXuXuXuXuXuXuXuXuXuXuXuXuXuXuXuXuX",
"uXuXuXuXuXuXuXuXuXuXuXuXuXuXuXuXuXuXuXuXuXuXuXuXuXuXuXuXuXuXuXuXuXuXuXuXuXuXuXuXuXuXuXuXuXuXuXuXuXuXuXuXuXuXuXuXuXuXuXuXuXuXuXuXuXuXuXuXuXuXuXuXuXuXuXuXuXuXuXuX",
"uXuXuXuXuXuXuXuXuXuXuXuXuXuXuXuXuXuXuXuXuXuXuXuXuXuXuXuXuXuXuXuXuXuXuXuXuXuXuXuXuXuXuXuXuXuXuXuXuXuXuXuXuXuXuXuXuXuXuXuXuXuXuXuXuXuXuXuXuXuXuXuXuXuXuXuXuXuXuXuX",
"uXuXuXuXuXuXuXuXuXuXuXuXuXuXuXuXuXuXuXuXuXuXuXuXuXuXuXuXuXuXuXuXuXuXuXuXuXuXuXuXuXuXuXuXuXuXuXuXuXuXuXuXuXuXuXuXuXuXuXuXuXuXuXuXuXuXuXuXuXuXuXuXuXuXuXuXuXuXuXuX"
};
