/* XPM */
static char *result[] = {
/* columns rows colors chars-per-pixel */
"80 80 222 2 ",
"   c #480718",
".  c #520C15",
"X  c #5A1410",
"o  c #671B19",
"O  c #71101A",
"+  c #762F0A",
"@  c #6D211B",
"#  c #7E2A1E",
"$  c #4D0D22",
"%  c #4E1024",
"&  c #52152A",
"*  c #4E1E3E",
"=  c #561C33",
"-  c #591F37",
";  c #601B36",
":  c #5C223A",
">  c #6D272B",
",  c #782A23",
"<  c #69283B",
"1  c #762A34",
"2  c #671C49",
"3  c #5B2946",
"4  c #472D5E",
"5  c #682A47",
"6  c #632E4A",
"7  c #7D2844",
"8  c #66314D",
"9  c #7A3749",
"0  c #722457",
"q  c #693552",
"w  c #6C3857",
"e  c #6D3B5A",
"r  c #703E5F",
"t  c #713F63",
"y  c #7B524B",
"u  c #79425A",
"i  c #7B435B",
"p  c #734263",
"a  c #74476B",
"s  c #7C497B",
"d  c #7B5376",
"f  c #78607A",
"g  c #913C18",
"h  c #8D2F2B",
"j  c #853225",
"k  c #8B3623",
"l  c #8A3629",
"z  c #8D3C2F",
"x  c #943B24",
"c  c #983D25",
"v  c #923C2B",
"b  c #873732",
"n  c #BF3E26",
"m  c #955113",
"M  c #AF5A13",
"N  c #A75619",
"B  c #B1511B",
"V  c #9E6307",
"C  c #BD6812",
"Z  c #984024",
"A  c #9C432C",
"S  c #9A4739",
"D  c #9B513B",
"F  c #A54424",
"G  c #A94423",
"H  c #AD4B23",
"J  c #A3462B",
"K  c #A8442B",
"L  c #A54A2D",
"P  c #AC4B2C",
"I  c #B14E2C",
"U  c #AA5527",
"Y  c #B45424",
"T  c #B4512E",
"R  c #B9562E",
"E  c #A14131",
"W  c #A54B32",
"Q  c #AB4F32",
"!  c #B84F3B",
"~  c #AD5232",
"^  c #A65439",
"/  c #B55332",
"(  c #B95633",
")  c #B65934",
"_  c #BC5B34",
"`  c #B6583B",
"'  c #BC5B3B",
"]  c #BD613D",
"[  c #CC5519",
"{  c #C17105",
"}  c #D57A0E",
"|  c #C06B16",
" . c #CA7B13",
".. c #C15D33",
"X. c #C3563A",
"o. c #C15E3C",
"O. c #C26922",
"+. c #C97626",
"@. c #D47B24",
"#. c #C56236",
"$. c #CA6537",
"%. c #C4623B",
"&. c #CA663B",
"*. c #CC6A3D",
"=. c #D06D3E",
"-. c #C67637",
";. c #D5713E",
":. c #873944",
">. c #963B4D",
",. c #863F59",
"<. c #A93946",
"1. c #B63845",
"2. c #8C4444",
"3. c #85434B",
"4. c #984944",
"5. c #99534A",
"6. c #954956",
"7. c #8B5055",
"8. c #AB5846",
"9. c #B15648",
"0. c #B45C58",
"q. c #976954",
"w. c #B86248",
"e. c #A76253",
"r. c #B26E52",
"t. c #B5765E",
"y. c #874265",
"u. c #984461",
"i. c #895A68",
"p. c #935862",
"a. c #924974",
"s. c #A55669",
"d. c #A4526F",
"f. c #98696A",
"g. c #8B6B74",
"h. c #966371",
"j. c #B16F66",
"k. c #A26A78",
"l. c #B57A75",
"z. c #C84B41",
"x. c #CA5241",
"c. c #CF564F",
"v. c #C66342",
"b. c #C96642",
"n. c #C86747",
"m. c #CE6B42",
"M. c #D16E41",
"N. c #CC754D",
"B. c #D67342",
"V. c #D87544",
"C. c #D67849",
"Z. c #C86F53",
"A. c #D86454",
"S. c #C17374",
"D. c #B48B35",
"F. c #D6860D",
"G. c #DC9309",
"H. c #CC8018",
"J. c #DE9719",
"K. c #CF8A2A",
"L. c #BE8764",
"P. c #BD837B",
"I. c #C4835E",
"U. c #D2875B",
"Y. c #DE845C",
"T. c #DE876A",
"R. c #C38D77",
"E. c #E59475",
"W. c #D0A37C",
"Q. c #554E91",
"!. c #595397",
"~. c #6D548C",
"^. c #5258A7",
"/. c #757EB1",
"(. c #AB5A87",
"). c #846688",
"_. c #85798E",
"`. c #AE7397",
"'. c #97849A",
"]. c #96929F",
"[. c #B88B89",
"{. c #B39190",
"}. c #BCB488",
"|. c #B3AD9C",
" X c #9684AA",
".X c #988CB6",
"XX c #9391B7",
"oX c #A58EB6",
"OX c #A99CBD",
"+X c #8BADA6",
"@X c #ACABA8",
"#X c #B3ADB7",
"$X c #B9B9B7",
"%X c #D19686",
"&X c #D6B998",
"*X c #C2BFAE",
"=X c #CAC8A6",
"-X c #D5CAAB",
";X c #CDCCB9",
":X c #D7D7B7",
">X c #D6D6BA",
",X c #9C99C5",
"<X c #A399C4",
"1X c #B5ADCB",
"2X c #BBBBCB",
"3X c #A5A6D7",
"4X c #A8A8D7",
"5X c #A5A6D8",
"6X c #B6B7D9",
"7X c #BBBBE1",
"8X c #C3BEDB",
"9X c #CDCDC6",
"0X c #C6C6DB",
"qX c #E4E4C5",
"wX c #E8E8D7",
"eX c #C5C5E3",
"rX c #C9C9E3",
"tX c #C6C6E9",
"yX c #EEEEE4",
"uX c #F2F2EA",
"iX c #F7F7F6",
"pX c None",
/* pixels */
"pXpXpXpXpXpXpXpXpXpXpXpXpXpXpXpXpXpXpXpXpXpXpXpXpXpXpXpXpXpXpXpXpXpXpXpXpXpXpXpXpXpXpXpXpXpXpXpXpXpXpXpXpXpXpXpXpXpXpXpXpXpXpXpXpXpXpXpXpXpXpXpXpXpXpXpXpXpXpXpX",
"pXpXpXpXpXpXpXpXpXpXpXpXpXpXpXpXpXpXpXpXpXpXpXpXpXpXpXpXpXpXpXpXpXpXpXpXpXpXpXpXpXpXpXpXpXpXpXpXpXpXpXpXpXpXpXpXpXpXpXpXpXpXpXpXpXpXpXpXpXpXpXpXpXpXpXpXpXpXpXpX",
"pXpXpXpXpXpXpXpXpXpXpXpXpXpXpXpXpXpXpXpXpXpXpXpXpXpXpXpXpXpXpXpXpXpXpXpXpXpXpXpXpXpXpXpXpXpXpXpXpXpXpXpXpXpXpXpXpXpXpXpXpXpXpXpXpXpXpXpXpXpXpXpXpXpXpXpXpXpXpXpX",
"pXpXpXpXpXpXpXpXpXpXpXpXpXpXpXpXpXpXpXpXpXpXpXpXpXpXpXpXpXpXpXpXpXpXpXpXpXpXpXpXpXpXpXpXpXpXpXpXpXpXpXpXpXpXpXpXpXpXpXpXpXpXpXpXpXpXpXpXpXpXpXpXpXpXpXpXpXpXpXpX",
"pXpXpXpXpXpXpXpXpXpXpXpXpXpXpXpXpXpXpXpXpXpXpXpXpXpXpXpXpXpXpXpXpXpXpXpXpXpXpXpXpXpXpXpXpXpXpXpXpXpXpXpXpXpXpXpXpXpXpXpXpXpXpXpXpXpXpXpXpXpXpXpXpXpXpXpXpXpXpXpX",
"pXpXpXpXpXpXpXpXpXpXpXpXpXpXpXpXpXpXpXpXpXpXpXpXpXpXpXpXpXpXpXpXpXpXpXpXpXpXpXpXpXpXpXpXpXpXpXpXpXpXpXpXpXpXpXpXpXpXpXpXpXpXpXpXpXpXpXpXpXpXpXpXpXpXpXpXpXpXpXpX",
"pXpXpXpXpXpXpXpXpXpXpXpXpXpXpXpXpXpXpXpXpXpXpXpXpXpXpXpXpXpXpXpXpXpXpXpXpXpXpXpXpXpXpXpXpXpXpXpXpXpXpXpXpXpXpXpXpXpXpXpXpXpXpXpXpXpXpXpXpXpXpXpXpXpXpXpXpXpXpXpX",
"pXpXpXpXpXpXpXpXpXpXpXpXpXpXpXpXpXpXpXpXpXpXpXpXpXpXpXpXpXpXpXpXpXpXpXpXpXpXpXpXpXpXpXpXpXpXpXpXpXpXpXpXpXpXpXpXpXpXpXpXpXpXpXpXpXpXpXpXpXpXpXpXpXpXpXpXpXpXpXpX",
"pXpXpXpXpXpXpXpXpXpXpXpXpXpXpXpXpXpXpXpXpXpXpXpXpXpXpXpXpXpXpXpXpXpXpXpXpXpXpXpXpXpXpXpXpXpXpXpXpXpXpXpXpXpXpXpXpXpXpXpXpXpXpXpXpXpXpXpXpXpXpXpXpXpXpXpXpXpXpXpX",
"pXpXpXpXpXpXpXpXpXpXpXpXpXpXpXpXpXpXpXpXpXpXpXpXpXpXpXpXpXpXpXpXpXpXpXpXpXpXpXpXpXpXpXpXpXpXpXpXpXpXpXpXpXpXpXpXpXpXpXpXpXpXpXpXpXpXpXpXpXpXpXpXpXpXpXpXpXpXpXpX",
"pXpXpXpXpXpXpXpXpXpXpXpXpXpXpXpXpXpXpXpXpXpXpXpXpXpXpXpXpXpXpXpXpXpXpXpXpXpXpXpXpXpXpXpXpXpXpXpXpXpXpXpXpXpXpXpXpXpXpXpXpXpXpXpXpXpXpXpXpXpXpXpXpXpXpXpXpXpXpXpX",
"pXpXpXpXpXpXpXpXpXpXpXpXpXpXpXpXpXpXpXpXpXpXpXpXpXpXpXpXpXpXpXpXpXpXpXpXpXpXpXpXpXpXpXpXpXpXpXpXpXpXpXpXpXpXpXpXpXpXpXpXpXpXpXpXpXpXpXpXpXpXpXpXpXpXpXpXpXpXpXpX",
"pXpXpXpXpXpXpXpXpXpXpXpXpXpXpXpXpXpXpXpXpXpXpXpXpXpXpXpXpXpXpXpXpXpXpXpXpXpXpXpXpXpXpXpXpXpXpXpXpXpXpXpXpXpXpXpXpXpXpXpXpXpXpXpXpXpXpXpXpXpXpXpXpXpXpXpXpXpXpXpX",
"pXpXpXpXpXpXpXpXpXpXpXpXpXpXpXpXpXpXpXpXpXpXpXpXpXpXpXpXpXpXpXpXpXpXpXpXpXpXpXpXpXpXpXpXpXpXpXpXpXpXpXpXpXpXpXpXpXpX#X;XuXyXpXpXpXpXpXpXpXpXpXpXpXpXpXpXpXpXpXpX",
"pXpXpXpXpXpXpXpXpXpXpXpXpXpXpXpXpXpXpXpXpXpXpXpXpXpXpXpXpXpXpXpXpXpXpXpXpXpXpXpXpXpXpXpXpXpXpXpXpXpXpXpXpXpXpXpXpXXX6XuXiXiXiXuX;XpXpXpXpXpXpXpXpXpXpXpXpXpXpXpX",
"pXpXpXpXpXpXpXpXpXpXpXpXpXpXpXpXpXpXpXpXpXpXpXpXpXpXpXpXpXpXpXpXpXpXpXpXpXpXpXpXpXpXpXpXpXpXpXpXpXpXpXpXpXpXpXpXXX4X6X9XwXyXyXwXqX|.pXpXpXpXpXpXpXpXpXpXpXpXpXpX",
"pXpXpXpXpXpXpXpXpXpXpXpXpXpXpXpXpXpXpXpXpXpXpXpXpXpXpXpXpXpXpXpXpXpXpXpXpXpXpXpXpXpXpXpXpXpXpXpXpXpXpXpXpXpXpXpX,XtXtX7X0X9X>XqX>X$X6XpXpXpXpXpXpXpXpXpXpXpXpXpX",
"pXpXpXpXpXpXpXpXpXpXpXpXpXpXpXpXpXpXpXpXpXpXpXpXpXpXpXpXpXpXpXpXpXpXpXpXpXpXpXpXpXpXpXpXpXpXpXpXpXpXpXpXpXpXpXpX5XtX.X6X6X{.#XrX0XeXtXpXpXpXpXpXpXpXpXpXpXpXpXpX",
"pXpXpXpXpXpXpXpXpXpXpXpXpXpXpXpXpXpXpXpXpXpXpXpXpXpXpXpXpXpXpXpXpXpXpXpXpXpXpXpXpXk F G k k , # J ' M.m.m.K.+X[.}. X2.OXOXw.5.1X6X6X6XpXpXpXpXpXpXpXpXpXpXpXpXpX",
"pXpXpXpXpXpXpXpXpXpXpXpXpXpXpXpXpXpXpXpXpXpXpXpXpXpXpXpXpXpXpXpXpXpX( b.b.b.T H R %.*.*.9.N.U A B.V.Y.E.Y.-.].T.K.D l 5.'.D < f '..XpXpXpXpXpXpXpXpXpXpXpXpXpXpX",
"pXpXpXpXpXpXpXpXpXpXpXpXpXpXpXpXpXpXpXpXpXpXpXpXpXpXpXpXpXpXpXpXpXpX*.B.B.B.B.*.B.V.V.V.&.R.K.*.V.B.Y.T.Y.] '.A.} =.l A j.e.k.4.v pXpXpXpXpXpXpXpXpXpXpXpXpXpXpX",
"pXpXpXpXpXpXpXpXpXpXpXpXpXpXpXpXpXpXpXpXpXpXpXpXpXpXpXpXpXpXpXpXpX%.B.B.B.B.*.M.V.B.B.V.&.S.+.=.V.B.V.C.C.^ ~.z.} O.A A b.w.M.%., pXpXpXpXpXpXpXpXpXpXpXpXpXpXpX",
"pXpXpXpXpXpXpXpXpXpXpXpXpXpXpXpXpXpXpXpXpXpXpXpXpXpXpXpXpXpXpXpXpX~ B.B.B.V.%.~ B.B.B.B.B.S.O.o.*.B.B.B.B.L Q.~.G +   # ' ' A j pXpXpXpXpXpXpXpXpXpXpXpXpXpXpXpX",
"pXpXpXpXpXpXpXpXpXpXpXpXpXpXpXpXpXpXpXpXpXpXpXpXpXpXpXpXpXpXpXpXpX%.B.B.B.B.) pXQ L L L ^ 5.D 8.w.*.*.*.n.C 7.^.y L ( pX@ @ pXpXpXpXpXpXpXpXpXpXpXpXpXpXpXpXpXpX",
"pXpXpXpXpXpXpXpXpXpXpXpXpXpXpXpXpXpXpXpXpXpXpXpXpXpXpXpXpXpXpXpXpXm.B.B.V.%.J ' M.%.*.M.W.;X8X8X8X[.t.L.=XD.{ N m &.) pXpXpXpXpXpXpXpXpXpXpXpXpXpXpXpXpXpXpXpXpX",
"pXpXpXpXpXpXpXpXpXpXpXpXpXpXpXpXpXpXpXpXpXpXpXpXpXpXpXpXpXpXpXpXx *.V.B.B.I.N.B.B.m.B.B.C.&XeXeX2XrX>X:X:X}.D.V > 6.z pXpXpXpXpXpXpXpXpXpXpXpXpXpXpXpXpXpXpXpXpX",
"pXpXpXpXpXpXpXpXpXpXpXpXpXpXpXpXpXpXpXpXpXpXpXpXpXpXpXpXpXpXpXpXL _ &.V.*.R.&XC.B.M.B.V.B.V.%X|.2X0X:X:X=X=X=Xi.5 < pXpXpXpXpXpXpXpXpXpXpXpXpXpXpXpXpXpXpXpXpXpX",
"pXpXpXpXpXpXpXpXpXpXpXpXpXpXpXpXpXpXpXpXpXpXpXpXpXpXpXpXpXpXpXpXd.(.`.Z.) U.-X[.0.0.8.W W P T r.6XrX9X>X=X=X-Xq.z o pXpXpXpXpXpXpXpXpXpXpXpXpXpXpXpXpXpXpXpXpXpX",
"pXpXpXpXpXpXpXpXpXpXpXpXpXpXpXpXpXpXpXpXpXpXpXpXpXpXpXpXpXpXpXpXU -.-.0.Q &.P.<Xs.s.s.6.:.> pXpX2XtXrXrX$X;X*Xt.-.m pXpXpXpXpXpXpXpXpXpXpXpXpXpXpXpXpXpXpXpXpXpX",
"pXpXpXpXpXpXpXpXpXpXpXpXpXpXpXpXpXpXpXpXpXpXpXpXpXpXpXpXpXpXpXR | H. .| _ ..l.5XoX`.s.b pXpXpXpXpX@X@X@X|.@Xf.,.a.< pXpXpXpXpXpXpXpXpXpXpXpXpXpXpXpXpXpXpXpXpXpX",
"pXpXpXpXpXpXpXpXpXpXpXpXpXpXpXpXpXpXpXpXpXpXpXpXpXpXpXpXpXpX_ &.! c.c.( ) ..l.5X5X3X.X< pXpXpXpXpXpXpXpXpXpX3.,.y.5 pXpXpXpXpXpXpXpXpXpXpXpXpXpXpXpXpXpXpXpXpXpX",
"pXpXpXpXpXpXpXpXpXpXpXpXpXpXpXpXpXpXpXpXpXpXpXpXpXpXpXpXpXpX*.*.p._.h./ *.T P.5X3X3X Xw p pXpXpXpXpXpXpXpXpX6.y.y.5 pXpXpXpXpXP ) ) v Q o.' pXpXpXpXpXpXpXpXpXpX",
"pXpXpXpXpXpXpXpXpXpXpXpXpXpXpXpXpXpXpXpXpXpXpXpXpXpXpXpXpXpX&.Z.i.e.f.5.*.H P.5X3X<Xd p p p pXpXpXpXpXpXpXpX6.,.z z pXpXpXpXpX' ' v W v.v.o.pXpXpXpXpXpXpXpXpXpX",
"pXpXpXpXpXpXpXpXpXpXpXpXpXpXpXpXpXpXpXpXpXpXpXpXpXpXpXpXpXpX#.) *.;.*.L &.P {.5X5X Xp p p p p p pXpXpXpXpXpX9 4.%.v.~ W pXpXL o.~ A ' v.v.( pXpXpXpXpXpXpXpXpXpX",
"pXpXpXpXpXpXpXpXpXpXpXpXpXpXpXpXpXpXpXpXpXpXpXpXpXpXpXpXpXpXR P M.B.V.%._ ' OX5X.Xa p p p p p p p p pXpXpXpX9 v.v.v.' u.B E i.W W ' v.o./ pXpXpXpXpXpXpXpXpXpXpX",
"pXpXpXpXpXpXpXpXpXpXpXpXpXpXpXpXpXpXpXpXpXpXpXpXpXpXpXpXpXG &.~ =.B.B.B.L ` OX,Xd p p p p p p p p p p p pXpX9 v.v.v.` a.O.! !.5.v.v.( P pXpXpXpXpXpXpXpXpXpXpXpX",
"pXpXpXpXpXpXpXpXpXpXpXpXpXpXpXpXpXpXpXpXpXpXpXpXpXpXpXpXpXT M.~ M.B.B.*.W ` .X).p p p p p p p p p p p p p 6 :.b.b.b.' y.U n p Q.9 c pXpXpXpXpXpXpXpXpXpXpXpXpXpX",
"pXpXpXpXpXpXpXpXpXpXpXpXpXpXpXpXpXpXpXpXpXpXpXpXpXpXpXpXpX&.B.~ =.B.B.v ~ / p p q p p p p p p p p p p p p p 3.S v v v 1 :.[ h pXpXpXpXpXpXpXpXpXpXpXpXpXpXpXpXpX",
"pXpXpXpXpXpXpXpXpXpXpXpXpXpXpXpXpXpXpXpXpXpXpXpXpXpXpXpXpXB.B.~ =.B.B.j ) A & w : r p p p p p p p p p p p p p < o pXpXpXpXpXpXpXpXpXpXpXpXpXpXpXpXpXpXpXpXpXpXpX",
"pXpXpXpXpXpXpXpXpXpXpXpXpXpXpXpXpXpXpXpXpXpXpXpXpXpXpXpXpXM.B.] M.B.B.Q B.) . : = t p p p p p p p p p p p p p u S J pXpXpXpXpXpXpXpXpXpXpXpXpXpXpXpXpXpXpXpXpXpX",
"pXpXpXpXpXpXpXpXpXpXpXpXpXpXpXpXpXpXpXpXpXpXpXpXpXpXpXpXpX*.V.N.] V.*.%.B.%.pXpXpX6 p p p p p p p p p p p p p p 2.I P P pXpXpXpXpXpXpXpXpXpXpXpXpXpXpXpXpXpXpXpX",
"pXpXpXpXpXpXpXpXpXpXpXpXpXpXpXpXpXpXpXpXpXpXpXpXpXpXpXpXpX*.B.C.' _ ~ %.B.%.pXpXpXpX- q p p p p p p p p p p p p 2.T / / P pXpXpXpXpXpXpXpXpXpXpXpXpXpXpXpXpXpXpX",
"pXpXpXpXpXpXpXpXpXpXpXpXpXpXpXpXpXpXpXpXpXpXpXpXpXpXpXpXpX%.M.C.B.) ) *.M.pXpXpXpXpXpX% = q r p p p p p p p p p 2.T / / T G pXpXpXpXpXpXpXpXpXpXpXpXpXpXpXpXpXpX",
"pXpXpXpXpXpXpXpXpXpXpXpXpXpXpXpXpXpXpXpXpXpXpXpXpXpXpXpXpX' B.B.B.V.V.V.=.pXpXpXpXpXpXpXpX  % e q 6 e p p p p p 3.I / / T G pXpXpXpXpXpXpXpXpXpXpXpXpXpXpXpXpXpX",
"pXpXpXpXpXpXpXpXpXpXpXpXpXpXpXpXpXpXpXpXpXpXpXpXpXpXpXpXpX' M.B.B.B.B.B._ pXpXpXpXpXpXpXpXpXpXpXpXpX: : - w p p p 4.T / T G pXpXpXpXpXpXpXpXpXpXpXpXpXpXpXpXpXpX",
"pXpXpXpXpXpXpXpXpXpXpXpXpXpXpXpXpXpXpXpXpXpXpXpXpXpXpXpXv ' m.B.B.B.B.M.pXpXpXpXpXpXpXpXpXpXpXpXpXpXpXpXpX$ : q p u S T T F pXpXpXpXpXpXpXpXpXpXpXpXpXpXpXpXpXpX",
"pXpXpXpXpXpXpXpXpXpXpXpXpXpXpXpXpXpXpXpXpXpXpXpXpXpXpXpXW v.b.B.B.B.B.&.pXpXpXpXpXpXpXpXpXpXpXpXpXpXpXpXpX% - : 8 p u W J pXpXpXpXpXpXpXpXpXpXpXpXpXpXpXpXpXpXpX",
"pXpXpXpXpXpXpXpXpXpXpXpXpXpXpXpXpXpXpXpXpXpXpXpXpXpXpXL ~ b.M.B.B.B.B._ pXpXpXpXpXpXpXpXpXpXpXpXpXpXpXpXpXpX& e 6 p 3.J o pXpXpXpXpXpXpXpXpXpXpXpXpXpXpXpXpXpXpX",
"pXpXpXpXpXpXpXpXpXpXpXpXpXpXpXpXpXpXpXpXpXpXpXpXpXpX( o.v.' M.B.B.V.*.pXpXpXpXpXpXpXpXpXpXpXpXpXpXpXpXpXpXpX6 p p p 4.Z   pXpXpXpXpXpXpXpXpXpXpXpXpXpXpXpXpXpXpX",
"pXpXpXpXpXpXpXpXpXpXpXpXpXpXpXpXpXpXpXpXpXpXpXpXpXR =.m.%./ M.B.V.=.R pXpXpXpXpXpXpXpXpXpXpXpXpXpXpXpXpXpXO :.p p p u K o pXpXpXpXpXpXpXpXpXpXpXpXpXpXpXpXpXpXpX",
"pXpXpXpXpXpXpXpXpXpXpXpXpXpXpXpXpXpXpXpXpXpXpXpXG &.V.m.%.I *.B.M._ pXpXpXpXpXpXpXpXpXpXpXpXpXpXpXpXpXpXpX; u.<.>.>.>.<.< pXpXpXpXpXpXpXpXpXpXpXpXpXpXpXpXpXpXpX",
"pXpXpXpXpXpXpXpXpXpXpXpXpXpXpXpXpXpXpXpXpXpXpXpXx.X.&.&.v.' ( _ ( pXpXpXpXpXpXpXpXpXpXpXpXpXpXpXpXpXpXpXpX* ^.~.1.1.1.s 4 pXpXpXpXpXpXpXpXpXpXpXpXpXpXpXpXpXpXpX",
"pXpXpXpXpXpXpXpXpXpXpXpXpXpXpXpXpXpXpXpXpXpXpX5.k.c.c.n.o.b.' L pXpXpXpXpXpXpXpXpXpXpXpXpXpXpXpXpXpXpXpXpX& e Q.!.!.Q.3 o pXpXpXpXpXpXpXpXpXpXpXpXpXpXpXpXpXpXpX",
"pXpXpXpXpXpXpXpXpXpXpXpXpXpXpXpXpXpXpXpXpXpXpXt.h.).s.A.x.' ` pXpXpXpXpXpXpXpXpXpXpXpXpXpXpXpXpXpXpXpXpXpXpX6 p p p 8 - pXpXpXpXpXpXpXpXpXpXpXpXpXpXpXpXpXpXpXpX",
"pXpXpXpXpXpXpXpXpXpXpXpXpXpXpXpXpXpXpXpXpXpX' =.=.w.g.g.0.x.! pXpXpXpXpXpXpXpXpXpXpXpXpXpXpXpXpXpXpXpXpXpXpX& e p p 6 3 pXpXpXpXpXpXpXpXpXpXpXpXpXpXpXpXpXpXpXpX",
"pXpXpXpXpXpXpXpXpXpXpXpXpXpXpXpXpXpXpXpXpXpX%.B.B.B.$.f./.h.pXpXpXpXpXpXpXpXpXpXpXpXpXpXpXpXpXpXpXpXpXpXpXpXpX= r r q q pXpXpXpXpXpXpXpXpXpXpXpXpXpXpXpXpXpXpXpX",
"pXpXpXpXpXpXpXpXpXpXpXpXpXpXpXpXpXpXpXpXpXpX#.V.B.B.V.B.w.3.pXpXpXpXpXpXpXpXpXpXpXpXpXpXpXpXpXpXpXpXpXpXpXpXpX$ w 8 p q pXpXpXpXpXpXpXpXpXpXpXpXpXpXpXpXpXpXpXpX",
"pXpXpXpXpXpXpXpXpXpXpXpXpXpXpXpXpXpXpXpXpXpX*.B.B.B.V.=.L pXpXpXpXpXpXpXpXpXpXpXpXpXpXpXpXpXpXpXpXpXpXpXpXpXpX  6 p p q pXpXpXpXpXpXpXpXpXpXpXpXpXpXpXpXpXpXpXpX",
"pXpXpXpXpXpXpXpXpXpXpXpXpXpXpXpXpXpXpXpXpXR B.B.B.B.*.%.pXpXpXpXpXpXpXpXpXpXpXpXpXpXpXpXpXpXpXpXpXpXpXpXpXpXpX  q p p q pXpXpXpXpXpXpXpXpXpXpXpXpXpXpXpXpXpXpXpX",
"pXpXpXpXpXpXpXpXpXpXpXpXpXpXpXpXpXpXpXpXpX&.V.M.m.*.J pXpXpXpXpXpXpXpXpXpXpXpXpXpXpXpXpXpXpXpXpXpXpXpXpXpXpXpX$ e t p 5 pXpXpXpXpXpXpXpXpXpXpXpXpXpXpXpXpXpXpXpX",
"pXpXpXpXpXpXpXpXpXpXpXpXpXpXpXpXpXpXpXpXpX&.M.m.B.&.pXpXpXpXpXpXpXpXpXpXpXpXpXpXpXpXpXpXpXpXpXpXpXpXpXpXpXpXpX. 7 7 :.Z . pXpXpXpXpXpXpXpXpXpXpXpXpXpXpXpXpXpXpX",
"pXpXpXpXpXpXpXpXpXpXpXpXpXpXpXpXpXpXpXpXR B.B.B.B.*.pXpXpXpXpXpXpXpXpXpXpXpXpXpXpXpXpXpXpXpXpXpXpXpXpXpXpXpXpXX N M M { g pXpXpXpXpXpXpXpXpXpXpXpXpXpXpXpXpXpXpX",
"pXpXpXpXpXpXpXpXpXpXpXpXpXpXpXpXpXpXpXpX..B.B.B.M.pXpXpXpXpXpXpXpXpXpXpXpXpXpXpXpXpXpXpXpXpXpXpXpXpXpXpXpXpXpX$ j M M M A I pXpXpXpXpXpXpXpXpXpXpXpXpXpXpXpXpXpX",
"pXpXpXpXpXpXpXpXpXpXpXpXpXpXpXpXpXpXpXpX*.V.B.B.&.pXpXpXpXpXpXpXpXpXpXpXpXpXpXpXpXpXpXpXpXpXpXpXpXpXpXpXpXpXpXv > 2 0 2 j ) I P pXpXpXpXpXpXpXpXpXpXpXpXpXpXpXpX",
"pXpXpXpXpXpXpXpXpXpXpXpXpXpXpXpXpXpXpXpX*.;.M.B._ pXpXpXpXpXpXpXpXpXpXpXpXpXpXpXpXpXpXpXpXpXpXpXpXpXpXpXpXpXpXP j 8 e 6 l / / / I pXpXpXpXpXpXpXpXpXpXpXpXpXpXpX",
"pXpXpXpXpXpXpXpXpXpXpXpXpXpXpXpXpXpXpXB G.G.@.#.pXpXpXpXpXpXpXpXpXpXpXpXpXpXpXpXpXpXpXpXpXpXpXpXpXpXpXpXpXpXpXI P > = : S / / / / T F x x pXpXpXpXpXpXpXpXpXpXpX",
"pXpXpXpXpXpXpXpXpXpXpXpXpXpXpXpXpXpXpXO. . .G.C pXpXpXpXpXpXpXpXpXpXpXpXpXpXpXpXpXpXpXpXpXpXpXpXpXpXpXpXpXpXpXP T S p i L I / / / / P L c x I pXpXpXpXpXpXpXpXpX",
"pXpXpXpXpXpXpXpXpXpXpXpXpXpXpXpXpXpXY J.J.F.F.g pXpXpXpXpXpXpXpXpXpXpXpXpXpXpXpXpXpXpXpXpXpXpXpXpXpXpXpXpXpXpXA J b 6 5 j c F J J J J L J j A pXpXpXpXpXpXpXpXpX",
"pXpXpXpXpXpXpXpXpXpXpXpXpXpXpXpXpXpXI =.R H +._ pXpXpXpXpXpXpXpXpXpXpXpXpXpXpXpXpXpXpXpXpXpXpXpXpXpXpXpXpXpXpXpXpXpXpXpXpXpXpXpXpXpXpXpXpXpXpXpXpXpXpXpXpXpXpXpX",
"pXpXpXpXpXpXpXpXpXpXpXpXpXpXpXpXpXpXT _ &.=._ _ pXpXpXpXpXpXpXpXpXpXpXpXpXpXpXpXpXpXpXpXpXpXpXpXpXpXpXpXpXpXpXpXpXpXpXpXpXpXpXpXpXpXpXpXpXpXpXpXpXpXpXpXpXpXpXpX",
"pXpXpXpXpXpXpXpXpXpXpXpXpXpXpXpXpX%._ #.V.V.*.F pXpXpXpXpXpXpXpXpXpXpXpXpXpXpXpXpXpXpXpXpXpXpXpXpXpXpXpXpXpXpXpXpXpXpXpXpXpXpXpXpXpXpXpXpXpXpXpXpXpXpXpXpXpXpXpX",
"pXpXpXpXpXpXpXpXpXpXpXpXpXpXpXpXpX&.B.B.B.B.B._ pXpXpXpXpXpXpXpXpXpXpXpXpXpXpXpXpXpXpXpXpXpXpXpXpXpXpXpXpXpXpXpXpXpXpXpXpXpXpXpXpXpXpXpXpXpXpXpXpXpXpXpXpXpXpXpX",
"pXpXpXpXpXpXpXpXpXpXpXpXpXpXpXpX( ..B.B.B.B.B.=.J pXpXpXpXpXpXpXpXpXpXpXpXpXpXpXpXpXpXpXpXpXpXpXpXpXpXpXpXpXpXpXpXpXpXpXpXpXpXpXpXpXpXpXpXpXpXpXpXpXpXpXpXpXpXpX",
"pXpXpXpXpXpXpXpXpXpXpXpXpXpXpXpX_ =...=.B.B.B.B._ ) pXpXpXpXpXpXpXpXpXpXpXpXpXpXpXpXpXpXpXpXpXpXpXpXpXpXpXpXpXpXpXpXpXpXpXpXpXpXpXpXpXpXpXpXpXpXpXpXpXpXpXpXpXpX",
"pXpXpXpXpXpXpXpXpXpXpXpXpXpXpXpXI #._ *.V.V.V.B.B.M.R pXpXpXpXpXpXpXpXpXpXpXpXpXpXpXpXpXpXpXpXpXpXpXpXpXpXpXpXpXpXpXpXpXpXpXpXpXpXpXpXpXpXpXpXpXpXpXpXpXpXpXpXpX",
"pXpXpXpXpXpXpXpXpXpXpXpXpXpXpXpXpXpXk ) *.&.%._ J A x pXpXpXpXpXpXpXpXpXpXpXpXpXpXpXpXpXpXpXpXpXpXpXpXpXpXpXpXpXpXpXpXpXpXpXpXpXpXpXpXpXpXpXpXpXpXpXpXpXpXpXpXpX",
"pXpXpXpXpXpXpXpXpXpXpXpXpXpXpXpXpXpXpXk k k pXpXpXpXpXpXpXpXpXpXpXpXpXpXpXpXpXpXpXpXpXpXpXpXpXpXpXpXpXpXpXpXpXpXpXpXpXpXpXpXpXpXpXpXpXpXpXpXpXpXpXpXpXpXpXpXpXpX",
"pXpXpXpXpXpXpXpXpXpXpXpXpXpXpXpXpXpXpXpXpXpXpXpXpXpXpXpXpXpXpXpXpXpXpXpXpXpXpXpXpXpXpXpXpXpXpXpXpXpXpXpXpXpXpXpXpXpXpXpXpXpXpXpXpXpXpXpXpXpXpXpXpXpXpXpXpXpXpXpX",
"pXpXpXpXpXpXpXpXpXpXpXpXpXpXpXpXpXpXpXpXpXpXpXpXpXpXpXpXpXpXpXpXpXpXpXpXpXpXpXpXpXpXpXpXpXpXpXpXpXpXpXpXpXpXpXpXpXpXpXpXpXpXpXpXpXpXpXpXpXpXpXpXpXpXpXpXpXpXpXpX",
"pXpXpXpXpXpXpXpXpXpXpXpXpXpXpXpXpXpXpXpXpXpXpXpXpXpXpXpXpXpXpXpXpXpXpXpXpXpXpXpXpXpXpXpXpXpXpXpXpXpXpXpXpXpXpXpXpXpXpXpXpXpXpXpXpXpXpXpXpXpXpXpXpXpXpXpXpXpXpXpX"
};
