/* XPM */
static char *result[] = {
/* columns rows colors chars-per-pixel */
"80 80 218 2 ",
"   c #591816",
".  c #651818",
"X  c #7B171C",
"o  c #752C16",
"O  c #76291E",
"+  c #4F122C",
"@  c #56172A",
"#  c #54182E",
"$  c #5B1D34",
"%  c #6B1E38",
"&  c #5C233D",
"*  c #66212E",
"=  c #792B27",
"-  c #662838",
";  c #79363D",
":  c #552646",
">  c #5E2741",
",  c #642C43",
"<  c #662D47",
"1  c #7E2F47",
"2  c #69324B",
"3  c #783C4A",
"4  c #6C3753",
"5  c #6B3958",
"6  c #743C53",
"7  c #7A3856",
"8  c #703D5A",
"9  c #563F72",
"0  c #7E3660",
"q  c #6C415C",
"w  c #7A4156",
"e  c #75415E",
"r  c #734263",
"t  c #724A65",
"y  c #734D6E",
"u  c #8B3B17",
"i  c #843224",
"p  c #8C3523",
"a  c #893729",
"s  c #953C26",
"d  c #993B24",
"f  c #943E2A",
"g  c #983F28",
"h  c #873A36",
"j  c #913D38",
"k  c #A73A29",
"l  c #B83E2F",
"z  c #CC3928",
"x  c #954B15",
"c  c #925810",
"v  c #AC5B0D",
"b  c #A44A1C",
"n  c #BA680A",
"m  c #B27406",
"M  c #BC671B",
"N  c #9D4026",
"B  c #9D442B",
"V  c #934F2F",
"C  c #994638",
"Z  c #A84626",
"A  c #A3462A",
"S  c #A54A2D",
"D  c #AC4A2B",
"F  c #BF422F",
"G  c #B14E2D",
"H  c #B4512E",
"J  c #B9562F",
"K  c #BD5D2D",
"L  c #A54A32",
"P  c #AB4D32",
"I  c #A7493A",
"U  c #B14D32",
"Y  c #AC5134",
"T  c #A8543A",
"R  c #B45332",
"E  c #B65935",
"W  c #BC5B34",
"Q  c #B55638",
"!  c #BD5B3B",
"~  c #B96428",
"^  c #BC772A",
"/  c #AC643C",
"(  c #BF6037",
")  c #BD613B",
"_  c #D57D0C",
"`  c #C86F10",
"'  c #CA7817",
"]  c #CE4721",
"[  c #C05E36",
"{  c #C4533A",
"}  c #C15E3C",
"|  c #C46527",
" . c #C3752F",
".. c #D17726",
"X. c #C56236",
"o. c #CA6537",
"O. c #C5633C",
"+. c #C9663B",
"@. c #CD6A3D",
"#. c #D16E3F",
"$. c #D6713F",
"%. c #843C45",
"&. c #823E58",
"*. c #B23848",
"=. c #884249",
"-. c #964845",
";. c #824158",
":. c #94455A",
">. c #95595B",
",. c #A34848",
"<. c #A75647",
"1. c #BA5E42",
"2. c #BB574C",
"3. c #A1485B",
"4. c #AC5859",
"5. c #B75C5A",
"6. c #90775F",
"7. c #B76749",
"8. c #B26B51",
"9. c #B66858",
"0. c #874264",
"q. c #984A70",
"w. c #A4556E",
"e. c #A95F6A",
"r. c #9B7071",
"t. c #B86962",
"y. c #AB7878",
"u. c #C75744",
"i. c #D45C53",
"p. c #C66342",
"a. c #C96642",
"s. c #C36847",
"d. c #CE6B42",
"f. c #D16E42",
"g. c #D96B4D",
"h. c #D67342",
"j. c #D87543",
"k. c #D67749",
"l. c #D6794C",
"z. c #D9794A",
"x. c #C97350",
"c. c #D97E54",
"v. c #C26E66",
"b. c #D2880E",
"n. c #D38E12",
"m. c #D5A80D",
"M. c #E08C29",
"N. c #E3C008",
"B. c #95957E",
"V. c #B18D74",
"C. c #CE845A",
"Z. c #DB825A",
"A. c #DEA143",
"S. c #D78768",
"D. c #C99669",
"F. c #C88273",
"G. c #D49A75",
"H. c #E69473",
"J. c #C4E260",
"K. c #5D539B",
"L. c #675A8C",
"P. c #7B5085",
"I. c #655B98",
"U. c #717087",
"Y. c #7C7395",
"T. c #5F59A6",
"R. c #7C7BAA",
"E. c #9B5586",
"W. c #AB5C87",
"Q. c #866B83",
"!. c #897793",
"~. c #A86687",
"^. c #8D79A7",
"/. c #6F87B0",
"(. c #95859B",
"). c #B08990",
"_. c #BAAB89",
"`. c #B7B086",
"'. c #9D8DA8",
"]. c #8E8FB0",
"[. c #A88BA1",
"{. c #AC98AA",
"}. c #A494B8",
"|. c #B2AABD",
" X c #B7B8BB",
".X c #C8918D",
"XX c #C2AC98",
"oX c #CFB898",
"OX c #CCACB2",
"+X c #93CEB9",
"@X c #C6C198",
"#X c #C9C9A9",
"$X c #D8D1AD",
"%X c #C9C9BB",
"&X c #D5D5B5",
"*X c #D7D8B6",
"=X c #9595C2",
"-X c #A99FC2",
";X c #A3A4C2",
":X c #A6A6C9",
">X c #BAA8C3",
",X c #B8B8CB",
"<X c #B9B8D6",
"1X c #B2B3DB",
"2X c #BDBDE1",
"3X c #C3BACF",
"4X c #CFCFCD",
"5X c #D9D9C6",
"6X c #C7C7D8",
"7X c #E7E7C7",
"8X c #E8E8D7",
"9X c #C4C4E5",
"0X c #C7C7E9",
"qX c #CACBEE",
"wX c #EBEBE1",
"eX c #F3F3EC",
"rX c gray97",
"tX c None",
/* pixels */
"tXtXtXtXtXtXtXtXtXtXtXtXtXtXtXtXtXtXtXtXtXtXtXtXtXtXtXtXtXtXtXtXtXtXtXtXtXtXtXtXtXtXtXtXtXtXtXtXtXtXtXtXtXtXtXtXtXtXtXtXtXtXtXtXtXtXtXtXtXtXtXtXtXtXtXtXtXtXtXtX",
"tXtXtXtXtXtXtXtXtXtXtXtXtXtXtXtXtXtXtXtXtXtXtXtXtXtXtXtXtXtXtXtXtXtXtXtXtXtXtXtXtXtXtXtXtXtXtXtXtXtXtXtXtXtXtXtXtXtXtXtXtXtXtXtXtXtXtXtXtXtXtXtXtXtXtXtXtXtXtXtX",
"tXtXtXtXtXtXtXtXtXtXtXtXtXtXtXtXtXtXtXtXtXtXtXtXtXtXtXtXtXtXtXtXtXtXtXtXtXtXtXtXtXtXtXtXtXtXtXtXtXtXtXtXtXtXtXtXtXtXtXtXtXtXtXtXtXtXtXtXtXtXtXtXtXtXtXtXtXtXtXtX",
"tXtXtXtXtXtXtXtXtXtXtXtXtXtXtXtXtXtXtXtXtXtXtXtXtXtXtXtXtXtXtXtXtXtXtXtXtXtXtXtXtXtXtX,X8XrXeXrXwXtXtXtXtXtXtXtXtXtXtXtXtXtXtXtXtXtXtXtXtXtXtXtXtXtXtXtXtXtXtXtX",
"tXtXtXtXtXtXtXtXtXtXtXtXtXtXtXtXtXtXtXtXtXtXtXtXtXtXtXtXtXtXtXtXtXtXtXtXtXtXtXtXtXtX=X<X8XeXrXrXeX&XtXtXtXtXtXtXtXtXtXtXtXtXtXtXtXtXtXtXtXtXtXtXtXtXtXtXtXtXtXtX",
"tXtXtXtXtXtXtXtXtXtXtXtXtXtXtXtXtXtXtXtXtXtXtXtXtXtXtXtXtXtXtXtXtXtXtXtXtXtXtXtXtX}.1X1X,X5X8X8X7X7X#XtXtXtXtXtXtXtXtXtXtXtXtXtXtXtXtXtXtXtXtXtXtXtXtXtXtXtXtXtX",
"tXtXtXtXtXtXtXtXtXtXtXtXtXtXtXtXtXtXtXtXtXtXtXtXtXtXtXtXtXtXtXtXtXtXtXtXtXtXtXtXtX:XqX9X2X6X%X5X5X5X6X;XtXtXtXtXtXtXtXtXtXtXtXtXtXtXtXtXtXtXtXtXtXtXtXtXtXtXtXtX",
"tXtXtXtXtXtXtXtXtXtXtXtXtXtXtXtXtXtXtXtXtXtXtXtXtXtXtXtXtXtXtXtXtXtXtXtXtXtXtXtXtX:X9X(.1X3XV.{.9X6X<X XtXtXtXtXtXtXtXtXtXtXtXtXtXtXtXtXtXtXtXtXtXtXtXtXtXtXtXtX",
"tXtXtXtXtXtXtXtXtXtXtXtXtXtXtXtXtXtXtXtXtXtXtXtXtXtXtXtXtXtXtXtXtXtXtXtXtXtXtXtXtX!.Q.-.(.>X1.C '.|. X:XtXtXtXtXtXtXtXtXtXtXtXtXtXtXtXtXtXtXtXtXtXtXtXtXtXtXtXtX",
"tXtXtXtXtXtXtXtXtXtXtXtXtXtXtXtXtXtXtXtXtXtXtXtXtXtXtXtXtXtXtXtXtXtXtXtXtXtXtXtXtX~ L = -.).C 2 3 r.(.tXtXtXtXtXtXtXtXtXtXtXtXtXtXtXtXtXtXtXtXtXtXtXtXtXtXtXtXtX",
"tXtXtXtXtXtXtXtXtXtXtXtXtXtXtXtXtXtXtXtXtXtXtXtXtXtXtXtXtXtXtXtXtXtXtXtXtXtXm.J.D.n.#.f L 9.9.t.Q i tXtXtXtXtXtXtXtXtXtXtXtXtXtXtXtXtXtXtXtXtXtXtXtXtXtXtXtXtXtX",
"tXtXtXtXtXtXtXtXtXtXtXtXtXtXtXtXtXtXtXtXtXtXtXtXtXtXtXtXtXtXtXtXtXtXtXN s x N.+X.X_ | g A a.p.@.Y . tXtXtXtXtXtXtXtXtXtXtXtXtXtXtXtXtXtXtXtXtXtXtXtXtXtXtXtXtXtX",
"tXtXtXtXtXtXtXtXtXtXtXtXtXtXtXtXtXtXtXtXtXtXtXtXtXtXtXtXtXtXtXtXtXS X.@.d.O.^ /.w.] ` b = R P i tXtXtXtXtXtXtXtXtXtXtXtXtXtXtXtXtXtXtXtXtXtXtXtXtXtXtXtXtXtXtXtX",
"tXtXtXtXtXtXtXtXtXtXtXtXtXtXtXtXtXtXtXtXtXtXtXtXtXtXtXtXtXtXtXtXp R h.z.H.H.h.>.K.*.z U 6 * * tXtXtXtXtXtXtXtXtXtXtXtXtXtXtXtXtXtXtXtXtXtXtXtXtXtXtXtXtXtXtXtXtX",
"tXtXtXtXtXtXtXtXtXtXtXtXtXtXtXtXtXtXtXtXtXtXtXtXtXtXtXtXtXtXtXtXO +.h.l.S.S.k.X.L.T.P./ &.7 &.L p tXtXtXtXtXtXtXtXtXtXtXtXtXtXtXtXtXtXtXtXtXtXtXtXtXtXtXtXtXtXtX",
"tXtXtXtXtXtXtXtXtXtXtXtXtXtXtXtXtXtXtXtXtXtXtXtXtXtXtXtXtXtXtXK +.h.h.h.j.j.h.+.M 6.U.V - $ $ * O V tXtXtXtXtXtXtXtXtXtXtXtXtXtXtXtXtXtXtXtXtXtXtXtXtXtXtXtXtXtX",
"tXtXtXtXtXtXtXtXtXtXtXtXtXtXtXtXtXtXtXtXtXtXtXtXtXtXtXtX! p.F.m.$.h.h.h.h.h.$.x.^ m m x %.;.0.=./ E.i tXtXtXtXtXtXtXtXtXtXtXtXtXtXtXtXtXtXtXtXtXtXtXtXtXtXtXtXtX",
"tXtXtXtXtXtXtXtXtXtXtXtXtXtXtXtXtXtXtXtXtXtXtXtXtXtX[ d.f.h.v.A...j.h.o.o.o.s.oX@X`.@X_.tXh &.T w.3.O.! D tXtXtXtXtXtXtXtXtXtXtXtXtXtXtXtXtXtXtXtXtXtXtXtXtXtXtX",
"tXtXtXtXtXtXtXtXtXtXtXtXtXtXtXtXtXtXtXtXtXtXtXtXO.d.h.h.h.h.x.C.M.) 9.).y.>.XX*X&X#X&X#XtXtX= O 0.,.a.p.} E G H R ! tXtXtXtXtXtXtXtXtXtXtXtXtXtXtXtXtXtXtXtXtXtX",
"tXtXtXtXtXtXtXtXtXtXtXtXtXtXtXtXtXtXtXtXtXtXtXO.h.h.h.h.j.h.O.1.8.|.<XqX9X<X6X&X*X%X X#XtXtXtXtX+ < <.a.p.p.O.p.p.p.} tXtXtXtXtXtXtXtXtXtXtXtXtXtXtXtXtXtXtXtXtX",
"tXtXtXtXtXtXtXtXtXtXtXtXtXtXtXtXtXtXtXtXtXtXtXO.h.h.h.f.R B R O.S.XXOX9X2X1X9X4X4X6X,X%XtXtXtXtXtXtX* L B P ! p.p.p.<.0 tXtXtXtXtXtXtXtXtXtXtXtXtXtXtXtXtXtXtXtX",
"tXtXtXtXtXtXtXtXtXtXtXtXtXtXtXtXtXtXtXtXtXtXtXO.h.h.h.h.Y tXO.h.h.$.l.S.F.-X0X0X0X<X:X XtXtXtXtXtXtXtXtXtXtXR } p.<.E.8.o tXtXtXtXtXtXtXtXtXtXtXtXtXtXtXtXtXtXtX",
"tXtXtXtXtXtXtXtXtXtXtXtXtXtXtXtXtXtXtXtXtXtXtXO.h.h.h.h.d.tX+.h.h.h.h.h.Q t 1X1X1X:XB.tXtXtXtXtXtXtXtXtXtXtXL W } :.9.' k   tXtXtXtXtXtXtXtXtXtXtXtXtXtXtXtXtXtX",
"tXtXtXtXtXtXtXtXtXtXtXtXtXtXtXtXtXtXtXtXtXtXtXO.h.h.h.f.tXE $.+.#.h.f.9.-.tXtXtXtXtXtXtXtXtXtXtXtXtXtXtXtXtXtXs Z :.~ k ,.L.-.tXtXtXtXtXtXtXtXtXtXtXtXtXtXtXtXtX",
"tXtXtXtXtXtXtXtXtXtXtXtXtXtXtXtXtXtXtXtXtXtXtXO.h.h.h.+.tXC.G.G.x.s.4.3.j tXtXtXtXtXtXtXtXtXtXtXtXtXtXtXtXtXtXtXtXtXtXX 9 y a.} R tXtXtXtXtXtXtXtXtXtXtXtXtXtXtX",
"tXtXtXtXtXtXtXtXtXtXtXtXtXtXtXtXtXtXtXtXtXtXtXO.h.h.j.O._.V.XX$XoXe.w.-.tXtXtXtXtXtXtXtXtXtXtXtXtXtXtXtXtXtXtXtXtXtXtXtX# B a.p.p.! tXtXtXtXtXtXtXtXtXtXtXtXtXtX",
"tXtXtXtXtXtXtXtXtXtXtXtXtXtXtXtXtXtXtXtXtXtXtX+.#.X.X.) V.<.k.l.G.[.~.- tXtXtXtXtXtXtXtXtXtXtXtXtXtXtXtXtXtXtXtXtXtXtXtXtXR p.p.p.p.p.R tXtXtXtXtXtXtXtXtXtXtXtX",
"tXtXtXtXtXtXtXtXtXtXtXtXtXtXtXtXtXtXtXtXtXtXtXtX5.~.W.4.7.f.h.h.j.V.;X^.tXtXtXtXtXtXtXtXtXtXtXtXtXtXtXtXtXtXtXtXtXtXtXtXtXR p.L L } p.} R tXtXtXtXtXtXtXtXtXtXtX",
"tXtXtXtXtXtXtXtXtXtXtXtXtXtXtXtXtXtXtXtXtXtXtXj 4. .^ H @.h.h.h.h.O.}.;XtXtXtXtXtXtXtXtXtXtXtXtXtXtXtXtXtXtXtXtXtXtXtXtXtXtXQ L tXN H ! Y g tXtXtXtXtXtXtXtXtXtX",
"tXtXtXtXtXtXtXtXtXtXtXtXtXtXtXtXtXtXtXtXtXtXtXu ` ' ' Z d.h.h.h.h.X.}.;XtXtXtXtXtXtXtXtXtXtXtXtXtXtXtXtXtXtXtXtXtXtXtXtXtXtXB Q tXtXtXD R i tXtXtXtXtXtXtXtXtXtX",
"tXtXtXtXtXtXtXtXtXtXtXtXtXtXtXtXtXtXtXtXtXtXtXp { i.u.k @.h.h.h.h.+.[.;XtXtXtXtXtXtXtXtXtXtXtXtXtXtXtXtXtXtXtXtXtXtXtXtXtXtXtXP B tXtXtXN tXtXtXtXtXtXtXtXtXtXtX",
"tXtXtXtXtXtXtXtXtXtXtXtXtXtXtXtXtXtXtXtXtXtXtXp e.!.Q.3 +.h.h.j.k.h.7.'.tXtXtXtXtXtXtXtXtXtXtXtXtXtXtXtXtXtXtXtXtXtXtXtXtXtXtXtXtXtXtXtXtXtXtXtXtXtXtXtXtXtXtXtX",
"tXtXtXtXtXtXtXtXtXtXtXtXtXtXtXtXtXtXtXtXtXtXtXh Y.r.<.C @.h.h.j.c.k.#.1.tXtXtXtXtXtXtXtXtXtXtXtXtXtXtXtXtXtXtXtXtXtXtXtXtXtXtXtXtXtXtXtXtXtXtXtXtXtXtXtXtXtXtXtX",
"tXtXtXtXtXtXtXtXtXtXtXtXtXtXtXtXtXtXtXtXtXtXtXp ! h.$.R @.h.h.h.l.c.j.h.O.tXtXtXtXtXtXtXtXtXtXtXtXtXtXtXtXtXtXtXtXtXtXtXtXtXtXtXtXtXtXtXtXtXtXtXtXtXtXtXtXtXtXtX",
"tXtXtXtXtXtXtXtXtXtXtXtXtXtXtXtXtXtXtXtXtXtXtXf h.h.h.R @.h.h.h.h.c.Z.j.h.@.! tXtXtXtXtXtXtXtXtXtXtXtXtXtXtXtXtXtXtXtXtXtXtXtXtXtXtXtXtXtXtXtXtXtXtXtXtXtXtXtXtX",
"tXtXtXtXtXtXtXtXtXtXtXtXtXtXtXtXtXtXtXtXtXtXtXY h.h.h.W E h.h.h.h.h.Z.Z.h.h.h.X.tXtXtXtXtXtXtXtXtXtXtXtXtXtXtXtXtXtXtXtXtXtXtXtXtXtXtXtXtXtXtXtXtXtXtXtXtXtXtXtX",
"tXtXtXtXtXtXtXtXtXtXtXtXtXtXtXtXtXtXtXtXtXtXY h.h.h.j.h.Y +.h.h.h.h.j.c.c.h.h.h.+.tXtXtXtXtXtXtXtXtXtXtXtXtXtXtXtXtXtXtXtXtXtXtXtXtXtXtXtXtXtXtXtXtXtXtXtXtXtXtX",
"tXtXtXtXtXtXtXtXtXtXtXtXtXtXtXtXtXtXtXtXtXS h.h.h.h.Y ) E +.h.h.h.h.h.h.c.k.h.h.h.X.tXtXtXtXtXtXtXtXtXtXtXtXtXtXtXtXtXtXtXtXtXtXtXtXtXtXtXtXtXtXtXtXtXtXtXtXtXtX",
"tXtXtXtXtXtXtXtXtXtXtXtXtXtXtXtXtXtXtXtXtXY j.d.h.E - Y E O.h.h.h.h.h.h.h.l.j.h.h.h.W tXtXtXtXtXtXtXtXtXtXtXtXtXtXtXtXtXtXtXtXtXtXtXtXtXtXtXtXtXtXtXtXtXtXtXtXtX",
"tXtXtXtXtXtXtXtXtXtXtXtXtXtXtXtXtXtXtXtXtXf @.B ) h 6 E C C #.h.h.h.h.h.h.h.h.h.h.h.f.J tXtXtXtXtXtXtXtXtXtXtXtXtXtXtXtXtXtXtXtXtXtXtXtXtXtXtXtXtXtXtXtXtXtXtXtX",
"tXtXtXtXtXtXtXtXtXtXtXtXtXtXtXtXtXtXtXtXtXtXS f B 2 e =.w w T d.h.h.h.h.h.h.h.h.h.h.h.@.H tXtXtXtXtXtXtXtXtXtXtXtXtXtXtXtXtXtXtXtXtXtXtXtXtXtXtXtXtXtXtXtXtXtXtX",
"tXtXtXtXtXtXtXtXtXtXtXtXtXtXtXtXtXtXtXtXtXtXtXO a 5 r r r r e -.O.f.h.h.h.h.h.h.h.h.h.h.+.tXtXtXtXtXtXtXtXtXtXtXtXtXtXtXtXtXtXtXtXtXtXtXtXtXtXtXtXtXtXtXtXtXtXtX",
"tXtXtXtXtXtXtXtXtXtXtXtXtXtXtXtXtXtXtXtXtXtXtX6 6 r r r r r r 6 g O.d.d.h.h.h.h.h.h.h.h.h.X.tXtXtXtXtXtXtXtXtXtXtXtXtXtXtXtXtXtXtXtXtXtXtXtXtXtXtXtXtXtXtXtXtXtX",
"tXtXtXtXtXtXtXtXtXtXtXtXtXtXtXtXtXtXtXtXtXtXtXr r r r r r r e ; tXtX! ! a.f.h.h.h.h.h.h.h.h.[ tXtXtXtXtXtXtXtXtXtXtXtXtXtXtXtXtXtXtXtXtXtXtXtXtXtXtXtXtXtXtXtXtX",
"tXtXtXtXtXtXtXtXtXtXtXtXtXtXtXtXtXtXtXtXtXtXa e r r r r r r 3 tXtXtXtXtXW p.a.f.h.h.h.h.h.h.h.W tXtXtXtXtXtXtXtXtXtXtXtXtXtXtXtXtXtXtXtXtXtXtXtXtXtXtXtXtXtXtXtX",
"tXtXtXtXtXtXtXtXtXtXtXtXtXtXtXtXtXtXtXtXtXtXp , r r r r r 3 tXtXtXtXtXtXtXtX! p.a.d.h.h.h.h.h.#.J tXtXtXtXtXtXtXtXtXtXtXtXtXtXtXtXtXtXtXtXtXtXtXtXtXtXtXtXtXtXtX",
"tXtXtXtXtXtXtXtXtXtXtXtXtXtXtXtXtXtXtXtXtXg N - 8 r r r 2 tXtXtXtXtXtXtXtXtXtXR } p.a.f.h.h.h.h.X.tXtXtXtXtXtXtXtXtXtXtXtXtXtXtXtXtXtXtXtXtXtXtXtXtXtXtXtXtXtXtX",
"tXtXtXtXtXtXtXtXtXtXtXtXtXtXtXtXtXtXZ Z Z G L 4 > r r 4 + tXtXtXtXtXtXtXtXtXtXtXG O.p.p.d.h.h.h.X.tXtXtXtXtXtXtXtXtXtXtXtXtXtXtXtXtXtXtXtXtXtXtXtXtXtXtXtXtXtXtX",
"tXtXtXtXtXtXtXtXtXtXtXtXtXtXtXZ -.l U D H H C 2 < r 8 # tXtXtXtXtXtXtXtXtXtXtXtXtXR p.! } f.h.h.X.tXtXtXtXtXtXtXtXtXtXtXtXtXtXtXtXtXtXtXtXtXtXtXtXtXtXtXtXtXtXtX",
"tXtXtXtXtXtXtXtXtXtXtXtXtXtXD R L.3.G G R G ; , r 8 & tXtXtXtXtXtXtXtXtXtXtXtXtXtXtXP ! Y a.h.h.X.tXtXtXtXtXtXtXtXtXtXtXtXtXtXtXtXtXtXtXtXtXtXtXtXtXtXtXtXtXtXtX",
"tXtXtXtXtXtXtXtXtXtXtXtXtXN R H >.P.l R R G = > 8 > tXtXtXtXtXtXtXtXtXtXtXtXtXtXtXtXa } O.p.h.h.H tXtXtXtXtXtXtXtXtXtXtXtXtXtXtXtXtXtXtXtXtXtXtXtXtXtXtXtXtXtXtX",
"tXtXtXtXtXtXtXtXtXtXtXtXtXS R R T I.q.F G C w > # tXtXtXtXtXtXtXtXtXtXtXtXtXtXtXtXtX! d.[ p.d.h.G tXtXtXtXtXtXtXtXtXtXtXtXtXtXtXtXtXtXtXtXtXtXtXtXtXtXtXtXtXtXtX",
"tXtXtXtXtXtXtXtXtXtXtXtXs U R R H I I.:.-.8 > + tXtXtXtXtXtXtXtXtXtXtXtXtXtXtXtXtXY f.h.@.O.p.d.G tXtXtXtXtXtXtXtXtXtXtXtXtXtXtXtXtXtXtXtXtXtXtXtXtXtXtXtXtXtXtX",
"tXtXtXtXtXtXtXtXtXtXtXd A R D S C %.t K.1 @ tXtXtXtXtXtXtXtXtXtXtXtXtXtXtXtXtXtXtXP @.#.h.f.p.p.G tXtXtXtXtXtXtXtXtXtXtXtXtXtXtXtXtXtXtXtXtXtXtXtXtXtXtXtXtXtXtX",
"tXtXtXtXtXtXtXtXtXtXtXS S H C < , & @ : tXtXtXtXtXtXtXtXtXtXtXtXtXtXtXtXtXtXtXtXtXU { u.g.g.g.u.d tXtXtXtXtXtXtXtXtXtXtXtXtXtXtXtXtXtXtXtXtXtXtXtXtXtXtXtXtXtXtX",
"tXtXtXtXtXtXtXtXtXtXG R R P ;.< & - tXtXtXtXtXtXtXtXtXtXtXtXtXtXtXtXtXtXtXtXtXtXtXq ^.t.2.2.2.I . tXtXtXtXtXtXtXtXtXtXtXtXtXtXtXtXtXtXtXtXtXtXtXtXtXtXtXtXtXtXtX",
"tXtXtXtXtXtXtXtXtXD R R D =.r 8 - tXtXtXtXtXtXtXtXtXtXtXtXtXtXtXtXtXtXtXtXtXtXtXtX; R.].Y.Y.Y.!.<.tXtXtXtXtXtXtXtXtXtXtXtXtXtXtXtXtXtXtXtXtXtXtXtXtXtXtXtXtXtXtX",
"tXtXtXtXtXtXtXtXD R R G -.r 4 - tXtXtXtXtXtXtXtXtXtXtXtXtXtXtXtXtXtXtXtXtXtXtXtXtXP h.@.! [ W ! O.tXtXtXtXtXtXtXtXtXtXtXtXtXtXtXtXtXtXtXtXtXtXtXtXtXtXtXtXtXtXtX",
"tXtXtXtXtXtXtXb G R H C e - tXtXtXtXtXtXtXtXtXtXtXtXtXtXtXtXtXtXtXtXtXtXtXtXtXtXtXtX+.h.h.h.d.p.+.tXtXtXtXtXtXtXtXtXtXtXtXtXtXtXtXtXtXtXtXtXtXtXtXtXtXtXtXtXtXtX",
"tXtXtXtXtXtX. v b S L 6 , tXtXtXtXtXtXtXtXtXtXtXtXtXtXtXtXtXtXtXtXtXtXtXtXtXtXtXtXtXS @.h.d.p.a.d.tXtXtXtXtXtXtXtXtXtXtXtXtXtXtXtXtXtXtXtXtXtXtXtXtXtXtXtXtXtXtX",
"tXtXtXtXtXN v n n x % + tXtXtXtXtXtXtXtXtXtXtXtXtXtXtXtXtXtXtXtXtXtXtXtXtXtXtXtXtXtXtXP a.p.p.d.f.tXtXtXtXtXtXtXtXtXtXtXtXtXtXtXtXtXtXtXtXtXtXtXtXtXtXtXtXtXtXtX",
"tXtXtXD G U u n n n u tXtXtXtXtXtXtXtXtXtXtXtXtXtXtXtXtXtXtXtXtXtXtXtXtXtXtXtXtXtXtXtXB ! p.a.h.f.tXtXtXtXtXtXtXtXtXtXtXtXtXtXtXtXtXtXtXtXtXtXtXtXtXtXtXtXtXtXtX",
"tXtXH R R a i B x c tXtXtXtXtXtXtXtXtXtXtXtXtXtXtXtXtXtXtXtXtXtXtXtXtXtXtXtXtXtXtXtXtXtXP p.d.h.f.tXtXtXtXtXtXtXtXtXtXtXtXtXtXtXtXtXtXtXtXtXtXtXtXtXtXtXtXtXtXtX",
"tXD R R G = 8 8 & 8 $ tXtXtXtXtXtXtXtXtXtXtXtXtXtXtXtXtXtXtXtXtXtXtXtXtXtXtXtXtXtXtXtXtX[ d.f.h.f.tXtXtXtXtXtXtXtXtXtXtXtXtXtXtXtXtXtXtXtXtXtXtXtXtXtXtXtXtXtXtX",
"D R R R R S @ $ 5 r < tXtXtXtXtXtXtXtXtXtXtXtXtXtXtXtXtXtXtXtXtXtXtXtXtXtXtXtXtXtXtXtXtXf.h.h.h.f.tXtXtXtXtXtXtXtXtXtXtXtXtXtXtXtXtXtXtXtXtXtXtXtXtXtXtXtXtXtXtX",
"A A S R R R = 4 r w %.= tXtXtXtXtXtXtXtXtXtXtXtXtXtXtXtXtXtXtXtXtXtXtXtXtXtXtXtXtXtXtXtX[ h.h.h.d.tXtXtXtXtXtXtXtXtXtXtXtXtXtXtXtXtXtXtXtXtXtXtXtXtXtXtXtXtXtXtX",
"tXtXtXs s B N 6 =.L G S Z G D tXtXtXtXtXtXtXtXtXtXtXtXtXtXtXtXtXtXtXtXtXtXtXtXtXtXtXtXtX[ h.h.h.+.tXtXtXtXtXtXtXtXtXtXtXtXtXtXtXtXtXtXtXtXtXtXtXtXtXtXtXtXtXtXtX",
"tXtXtXtXtXtX  3 C H R R S R R G tXtXtXtXtXtXtXtXtXtXtXtXtXtXtXtXtXtXtXtXtXtXtXtXtXtXtXtX[ h.h.h.+.tXtXtXtXtXtXtXtXtXtXtXtXtXtXtXtXtXtXtXtXtXtXtXtXtXtXtXtXtXtXtX",
"tXtXtXtXtXtXtXtXs g g g g g g p . tXtXtXtXtXtXtXtXtXtXtXtXtXtXtXtXtXtXtXtXtXtXtXtXtXtXtXJ K ~ K K tXtXtXtXtXtXtXtXtXtXtXtXtXtXtXtXtXtXtXtXtXtXtXtXtXtXtXtXtXtXtX",
"tXtXtXtXtXtXtXtXtXtXtXtXtXtXtXtXtXtXtXtXtXtXtXtXtXtXtXtXtXtXtXtXtXtXtXtXtXtXtXtXtXtXtXtX| b.n.b.' tXtXtXtXtXtXtXtXtXtXtXtXtXtXtXtXtXtXtXtXtXtXtXtXtXtXtXtXtXtXtX",
"tXtXtXtXtXtXtXtXtXtXtXtXtXtXtXtXtXtXtXtXtXtXtXtXtXtXtXtXtXtXtXtXtXtXtXtXtXtXtXtXtXtXtXtX~ b.n._ ..O.tXtXtXtXtXtXtXtXtXtXtXtXtXtXtXtXtXtXtXtXtXtXtXtXtXtXtXtXtXtX",
"tXtXtXtXtXtXtXtXtXtXtXtXtXtXtXtXtXtXtXtXtXtXtXtXtXtXtXtXtXtXtXtXtXtXtXtXtXtXtXtXtXtXtXtXK M ~ M | @.tXtXtXtXtXtXtXtXtXtXtXtXtXtXtXtXtXtXtXtXtXtXtXtXtXtXtXtXtXtX",
"tXtXtXtXtXtXtXtXtXtXtXtXtXtXtXtXtXtXtXtXtXtXtXtXtXtXtXtXtXtXtXtXtXtXtXtXtXtXtXtXtXtXtXtX@.W @.[ #.h.+.tXtXtXtXtXtXtXtXtXtXtXtXtXtXtXtXtXtXtXtXtXtXtXtXtXtXtXtXtX",
"tXtXtXtXtXtXtXtXtXtXtXtXtXtXtXtXtXtXtXtXtXtXtXtXtXtXtXtXtXtXtXtXtXtXtXtXtXtXtXtXtXtXtXtXh.W h.+.@.h.h.O.tXtXtXtXtXtXtXtXtXtXtXtXtXtXtXtXtXtXtXtXtXtXtXtXtXtXtXtX",
"tXtXtXtXtXtXtXtXtXtXtXtXtXtXtXtXtXtXtXtXtXtXtXtXtXtXtXtXtXtXtXtXtXtXtXtXtXtXtXtXtXtXtX+.h.W #.@.f.h.h.h.O.tXtXtXtXtXtXtXtXtXtXtXtXtXtXtXtXtXtXtXtXtXtXtXtXtXtXtX",
"tXtXtXtXtXtXtXtXtXtXtXtXtXtXtXtXtXtXtXtXtXtXtXtXtXtXtXtXtXtXtXtXtXtXtXtXtXtXtXtXtXtXtX#.h.+.J H #.h.h.h.h.f.tXtXtXtXtXtXtXtXtXtXtXtXtXtXtXtXtXtXtXtXtXtXtXtXtXtX",
"tXtXtXtXtXtXtXtXtXtXtXtXtXtXtXtXtXtXtXtXtXtXtXtXtXtXtXtXtXtXtXtXtXtXtXtXtXtXtXtXtXtXtXf.h.h.h.O.( h.h.h.h.h.d.tXtXtXtXtXtXtXtXtXtXtXtXtXtXtXtXtXtXtXtXtXtXtXtXtX",
"tXtXtXtXtXtXtXtXtXtXtXtXtXtXtXtXtXtXtXtXtXtXtXtXtXtXtXtXtXtXtXtXtXtXtXtXtXtXtXtXtXtXtXtXB B B B s O.j.j.j.j.h.d.f.f.a.tXtXtXtXtXtXtXtXtXtXtXtXtXtXtXtXtXtXtXtXtX",
"tXtXtXtXtXtXtXtXtXtXtXtXtXtXtXtXtXtXtXtXtXtXtXtXtXtXtXtXtXtXtXtXtXtXtXtXtXtXtXtXtXtXtXtXtXtXtXtXtXB E E E E E ! @.h.@.tXtXtXtXtXtXtXtXtXtXtXtXtXtXtXtXtXtXtXtXtX",
"tXtXtXtXtXtXtXtXtXtXtXtXtXtXtXtXtXtXtXtXtXtXtXtXtXtXtXtXtXtXtXtXtXtXtXtXtXtXtXtXtXtXtXtXtXtXtXtXtXtXtXtXtXtXtXtXA S A tXtXtXtXtXtXtXtXtXtXtXtXtXtXtXtXtXtXtXtXtX"
};
