/* XPM */
static char *result[] = {
/* columns rows colors chars-per-pixel */
"80 80 225 2 ",
"   c #4C080F",
".  c #4A0511",
"X  c #561417",
"o  c #661A1B",
"O  c #6D221D",
"+  c #7A281C",
"@  c #4F1126",
"#  c #54152A",
"$  c #5A1D2D",
"%  c #591E34",
"&  c #681F28",
"*  c #5E212D",
"=  c #592536",
"-  c #5E253C",
";  c #6B252C",
":  c #7D2C25",
">  c #742A2A",
",  c #7F3822",
"<  c #652536",
"1  c #63233C",
"2  c #712A36",
"3  c #77323A",
"4  c #79413E",
"5  c #6E1E40",
"6  c #582644",
"7  c #482751",
"8  c #612944",
"9  c #642E4A",
"0  c #68314D",
"q  c #783848",
"w  c #6A3653",
"e  c #6F3C5C",
"r  c #763A57",
"t  c #783B51",
"y  c #723F5B",
"u  c #6F3F62",
"i  c #7B3978",
"p  c #7E4254",
"a  c #75415E",
"s  c #7A4259",
"d  c #734263",
"f  c #77436C",
"g  c #734D70",
"h  c #85311A",
"j  c #9A3A1A",
"k  c #A1321D",
"l  c #802E23",
"z  c #942321",
"x  c #833323",
"c  c #8C3524",
"v  c #86362D",
"b  c #893529",
"n  c #8B3929",
"m  c #953C25",
"M  c #923C2B",
"N  c #8B3C34",
"B  c #853838",
"V  c #91383E",
"C  c #A03E20",
"Z  c #B83B34",
"A  c #A95410",
"S  c #B85718",
"D  c #B2610F",
"F  c #BA6315",
"G  c #9C4026",
"H  c #97402D",
"J  c #9C442D",
"K  c #90502D",
"L  c #9A4333",
"P  c #95443E",
"I  c #994938",
"U  c #9D5C34",
"Y  c #A3452B",
"T  c #A84728",
"R  c #AD4B2B",
"E  c #B14E2D",
"W  c #B84A2B",
"Q  c #A75924",
"!  c #B4512F",
"~  c #B9562D",
"^  c #A14732",
"/  c #A44B32",
"(  c #AA4C33",
")  c #A54A3B",
"_  c #B14F30",
"`  c #AB5032",
"'  c #A05C38",
"]  c #B55231",
"[  c #B95635",
"{  c #B65935",
"}  c #BC5B35",
"|  c #B5563A",
" . c #B35B3A",
".. c #BA5B3A",
"X. c #B5602F",
"o. c #B3782E",
"O. c #BF623C",
"+. c #C65F16",
"@. c #C86E14",
"#. c #C77218",
"$. c #C35937",
"%. c #C25F3A",
"&. c #C6682B",
"*. c #CD7628",
"=. c #C46136",
"-. c #CD6E37",
";. c #C5633B",
":. c #C9663B",
">. c #CD6A3D",
",. c #D06D3E",
"<. c #C07F33",
"1. c #D47139",
"2. c #863145",
"3. c #823D57",
"4. c #9E3B50",
"5. c #A83B4B",
"6. c #8C4347",
"7. c #84434C",
"8. c #964841",
"9. c #9B564F",
"0. c #86435A",
"q. c #A24B46",
"w. c #A6534A",
"e. c #B95A4A",
"r. c #A85658",
"t. c #B5575D",
"y. c #8C6256",
"u. c #BD644A",
"i. c #A76051",
"p. c #B7685A",
"a. c #844263",
"s. c #854868",
"d. c #954567",
"f. c #82536C",
"g. c #8E616F",
"h. c #8E6778",
"j. c #956770",
"k. c #986A70",
"l. c #AB6963",
"z. c #B46872",
"x. c #A47078",
"c. c #CB5743",
"v. c #D25B49",
"b. c #D05952",
"n. c #C56443",
"m. c #CA6542",
"M. c #CD6A41",
"N. c #D46646",
"B. c #D16E42",
"V. c #C67B4C",
"C. c #D67342",
"Z. c #D87543",
"A. c #D6774A",
"S. c #D67A4E",
"D. c #D97A4D",
"F. c #D67D57",
"G. c #C67268",
"H. c #D98C0B",
"J. c #DA9315",
"K. c #C5B90B",
"L. c #E5A508",
"P. c #D28E33",
"I. c #E19328",
"U. c #D6AA3B",
"Y. c #A58673",
"T. c #CB815A",
"R. c #DD835B",
"E. c #E0865C",
"W. c #C28A6C",
"Q. c #C89775",
"!. c #D19071",
"~. c #E89777",
"^. c #614E86",
"/. c #774F8A",
"(. c #7E7199",
"). c #5A5EA0",
"_. c #767DAD",
"`. c #A95E8C",
"'. c #906E8A",
"]. c #8B7284",
"[. c #887A9C",
"{. c #957598",
"}. c #B76D85",
"|. c #B8798C",
" X c #7A83AF",
".X c #96858D",
"XX c #8B819F",
"oX c #988697",
"OX c #B78786",
"+X c #B5A697",
"@X c #B6BB97",
"#X c #968BB3",
"$X c #938FB4",
"%X c #BA9DB6",
"&X c #BBBAA8",
"*X c #B6A9B1",
"=X c #C28781",
"-X c #CAA981",
";X c #C3C29E",
":X c #CCC8A8",
">X c #D5D6B5",
",X c #D6D6BC",
"<X c #D9DABC",
"1X c #9E9EC6",
"2X c #A49DC6",
"3X c #A8A5CA",
"4X c #BDBDC9",
"5X c #A5A5D3",
"6X c #ABABD3",
"7X c #B8B8DA",
"8X c #B6B7E0",
"9X c #BBBCE2",
"0X c #C3C4CB",
"qX c #D4D4C5",
"wX c #CBCBD8",
"eX c #E5E5C9",
"rX c #E1E1DC",
"tX c #C5C5E5",
"yX c #C8C9E4",
"uX c #C6C6E8",
"iX c #F0F0E4",
"pX c #F2F2EA",
"aX c #F6F6F3",
"sX c #F7F7F8",
"dX c None",
/* pixels */
"dXdXdXdXdXdXdXdXdXdXdXdXdXdXdXdXdXdXdXdXdXdXdXdXdXdXdXdXdXdXdXdXdXdXdXdXdXdXdXdXdXdXdXdXdXdXdXdXdXdXdXdXdXdXdXdXdXdXdXdXdXdXdXdXdXdXdXdXdXdXdXdXdXdXdXdXdXdXdXdX",
"dXdXdXdXdXdXdXdXdXdXdXdXdXdXdXdXdXdXdXdXdXdXdXdXdXdXdXdXdXdXdXdXdXdXdXdXdXdXdXdXdXdXdXdXdXdXdXdXdXdXdXdXdXdXdXdXdXdXdXdXdXdXdXdXdXdXdXdXdXdXdXdXdXdXdXdXdXdXdXdX",
"dXdXdXdXdXdXdXdXdXdXdXdXdXdXdXdXdXdXdXdXdXdXdXdXdXdXdXdXdXdXdXdXdXdXdXdXdXdXdXdXdXdXdXdXdXdXdXdXdXdXdXdXdXdXdXdXdXdXdXdXdXdXdXdXdXdXdXdXdXdXdXdXdXdXdXdXdXdXdXdX",
"dXdXdXdXdXdXdXdXdXdXdXdXdXdXdXdXdXdXdXdXdXdXdXdXdXdXdXdXdXdXdXdXdXdXdXdXdXdXdXdXdXdXdXdXdXdXdXdXdXdXdXdXdXdXdXdXdXdXdXdXdXdXdXdXdXdXdXdXdXdXdXdXdXdXdXdXdXdXdXdX",
"dXdXdXdXdXdXdXdXdXdXdXdXdXdXdXdXdXdXdXdXdXdXdXdXdXdXdXdXdXdXdXdXdXdXdXdXdXdXdXdXdXdXdXdXdXdXdXdXdXdXdXdXdXdXdXdXdXdXdXdXdXdXdXdXdXdXdXdXdXdXdXdXdXdXdXdXdXdXdXdX",
"dXdXdXdXdXdXdXdXdXdXdXdXdXdXdXdXdXdXdXdXdXdXdXdXdXdXdXdXdXdXdXdXdXdXdXdXdXdXdXdXdXdXdXdXdXdXdXdXdXdXdXdXdXdXdXdXdXdXdXdXdXdXdXdXdXdXdXdXdXdXdXdXdXdXdXdXdXdXdXdX",
"dXdXdXdXdXdXdXdXdXdXdXdXdXdXdXdXdXdXdXdXdXdXdXdXdXdXdXdXdXdXdXdXdXdXdXdXdXdXdXdXdXdXdXdXdXdXdXdXdXdXdXdXdXdXdXdXdXdXdXdXdXdXdXdXdXdXdXdXdXdXdXdXdXdXdXdXdXdXdXdX",
"dXdXdXdXdXdXdXdXdXdXdXdXdXdXdXdXdXdXdXdXdXdXdXdXdXdXdXdXdXdXdXdXdXdXdXdXdXdXdXdXdXdXdXdXdXdXdXdXdXdXdXdXdXdXdXdXdXdXdXdXdXdXdXdXdXdXdXdXdXdXdXdXdXdXdXdXdXdXdXdX",
"dXdXdXdXdXdXdXdXdXdXdXdXdXdXdXdXdXdXdXdXdXdXdXdXdXdXdXdXdXdXdXdXdXdXdXdXdXdXdXdXdXdXdXdXdXdXdXdXdXdXdXdXdXdXdXdXdXdXdXdXdXdXdXdXdXdXdXdXdXdXdXdXdXdXdXdXdXdXdXdX",
"dXdXdXdXdXdXdXdXdXdXdXdXdXdXdXdXdXdXdXdXdXdXdXdXdXdXdXdXdXdXdXdXdXdXdXdXdXdXdXdXdXdXdXdXdXdXdXdXdXdXdXdXdXdXdXdXdXdXdXdXdXdXdXdXdXdXdXdXdXdXdXdXdXdXdXdXdXdXdXdX",
"dXdXdXdXdXdXdXdXdXdXdXdXdXdXdXdXdXdXdXdXdXdXdXdXdXdXdXdXdXdXdXdXdXdXdXdXdXdXdXdXdXdXdXdXdXdXdXdXdXdXdXdXdXdXdXdXdXdXdXdXdXdX&XpXiXdXdXdXdXdXdXdXdXdXdXdXdXdXdXdX",
"dXdXdXdXdXdXdXdXdXdXdXdXdXdXdXdXdXdXdXdXdXdXdXdXdXdXdXdXdXdXdXdXdXdXdXdXdXdXdXdXdXdXdXdXdXdXdXdXdXdXdXdXdXdXdXdXdXdXdXdXdX1XrXaXsXsXpX,XdXdXdXdXdXdXdXdXdXdXdXdX",
"dXdXdXdXdXdXdXdXdXdXdXdXdXdXdXdXdXdXdXdXdXdXdXdXdXdXdXdXdXdXdXdXdXdXdXdXdXdXdXdXdXdXdXdXdXdXdXdXdXdXdXdXdXdXdXdXdXdXdXdX$X5X0XeXiXaXaXiX:XdXdXdXdXdXdXdXdXdXdXdX",
"dXdXdXdXdXdXdXdXdXdXdXdXdXdXdXdXdXdXdXdXdXdXdXdXdXdXdXdXdXdXdXdXdXdXdXdXdXdXdXdXdXdXdXdXdXdXdXdXdXdXdXdXdXdXdXdXdXdXdXdX3XuX9X7XqX<XeXeXqX*XdXdXdXdXdXdXdXdXdXdX",
"dXdXdXdXdXdXdXdXdXdXdXdXdXdXdXdXdXdXdXdXdXdXdXdXdXdXdXdXdXdXdXdXdXdXdXdXdXdXdXdXdXdXdXdXdXdXdXdXdXdXdXdXdXdXdXdXdXdXdXdX6XuX6XuX*X&XwXwXwX7XdXdXdXdXdXdXdXdXdXdX",
"dXdXdXdXdXdXdXdXdXdXdXdXdXdXdXdXdXdXdXdXdXdXdXdXdXdXdXdXdXdXdXdXdXdXdXdXdXdXdXdXdXdXdXdXdXdXdXdXdXdXdXM.M.;.[ [ Q K.@XU.oXh.oX9XQ.w.[.9X3X7X5XdXdXdXdXdXdXdXdXdX",
"dXdXdXdXdXdXdXdXdXdXdXdXdXdXdXdXdXdXdXdXdXdXdXdXdXdXdXdXdXdXdXdXdXdXdXdXdXdXdXdXdXdXdXdXdXdXdXdXdXdXB.C.C.{ } %...U .XI.' v 8.#Xz.x = XX$X$XdXdXdXdXdXdXdXdXdXdX",
"dXdXdXdXdXdXdXdXdXdXdXdXdXdXdXdXdXdXdXdXdXdXdXdXdXdXdXdXdXdXdXdXdXdXdXdXdXdXdXdXdXdXdXdXdXdXdXdXdXB.C.Z.} { C.E.~.F.N +.*.L : p.].g.y L q dXdXdXdXdXdXdXdXdXdXdX",
"dXdXdXdXdXdXdXdXdXdXdXdXdXdXdXdXdXdXdXdXdXdXdXdXdXdXdXdXdXdXdXdXdXdXdXdXdXdXdXdXdXdXdXdXdXdXdXdX;.C.C.:.} } %.R.!.R.` k @.} b n.l.p.B.^ dXdXdXdXdXdXdXdXdXdXdXdX",
"dXdXdXdXdXdXdXdXdXdXdXdXdXdXdXdXdXdXdXdXdXdXdXdXdXdXdXdXdXdXdXdXdXdXdXdXdXdXdXdXdXdXdXdXdXdX@X:X!.:.~ p.P.-.,.C.A.Z.` z S h o [ m.| / O dXdXdXdXdXdXdXdXdXdXdXdX",
"dXdXdXdXdXdXdXdXdXdXdXdXdXdXdXdXdXdXdXdXdXdXdXdXdXdXdXdXdXdXdXdXdXdXdXdXdXdXdXdXdXdXdXdXdXdXW.Q.I :.C.n.W.*.,.C.Z.C.Q 4 > dXdX+ c o dXdXdXdXdXdXdXdXdXdXdXdXdXdX",
"dXdXdXdXdXdXdXdXdXdXdXdXdXdXdXdXdXdXdXdXdXdXdXdXdXdXdXdXdXdXdXdXdXdXdXdXdXdXdXdXdXdXdXdX%.,.,.>.;.C.B.,.z.P.R m [  .o.o.{ dXdXdXdXdXdXdXdXdXdXdXdXdXdXdXdXdXdXdX",
"dXdXdXdXdXdXdXdXdXdXdXdXdXdXdXdXdXdXdXdXdXdXdXdXdXdXdXdXdXdXdXdXdXdXdXdXdXdXdXdXdXdXdXdX..C.C.C.,.:.B.,.w.<.y.y.y.Y.;X-X{ dXdXdXdXdXdXdXdXdXdXdXdXdXdXdXdXdXdXdX",
"dXdXdXdXdXdXdXdXdXdXdXdXdXdXdXdXdXdXdXdXdXdXdXdXdXdXdXdXdXdXdXdXdXdXdXdXdXdXdXdXdXdXdX%.>.C.C.C.=.c I OX*X+X0X,X<X>X&X:XY.dXdXdXdXdXdXdXdXdXdXdXdXdXdXdXdXdXdXdX",
"dXdXdXdXdXdXdXdXdXdXdXdXdXdXdXdXdXdXdXdXdXdXdXdXdXdXdXdXdXdXdXdXdXdXdXdXdXdXdXdXdXdX-XT.>.C.C.Z.} } =X%XtX8XwX>X>X>X4X0XdXdXdXdXdXdXdXdXdXdXdXdXdXdXdXdXdXdXdXdX",
"dXdXdXdXdXdXdXdXdXdXdXdXdXdXdXdXdXdXdXdXdXdXdXdXdXdXdXdXdXdXdXdXdXdXdXdXdXdXdXdX[ O.!.Q.>.Z.Z.C...n.u.t.|.3XuXqX,XqX7X8XdXdXdXdXdXdXdXdXdXdXdXdXdXdXdXdXdXdXdXdX",
"dXdXdXdXdXdXdXdXdXdXdXdXdXdXdXdXdXdXdXdXdXdXdXdXdXdXdXdXdXdXdXdXdXdXdXdXdXdXdX%.>.C.C.M.:.=.=.>.q.r.w.n dXdXuXuXyXtX#X{.dXdXdXdXdXdXdXdXdXdXdXdXdXdXdXdXdXdXdXdX",
"dXdXdXdXdXdXdXdXdXdXdXdXdXdXdXdXdXdXdXdXdXdXdXdXdXdXdXdXdXdXdXdXdXdXdXdXdXdXB.C.C.C.C.:.e.}.|.z.w.) dXdXdXdXdX3X2X{.s.P dXdXdXdXdXdXdXdXdXdXdXdXdXdXdXdXdXdXdXdX",
"dXdXdXdXdXdXdXdXdXdXdXdXdXdXdXdXdXdXdXdXdXdXdXdXdXdXdXdXdXdXdXdXdXdXdXdXM.C.C.C.C.C.C.M.F.I.U.G.x.dXdXdXdXdXdX7.s.a.a.q.dXdXdXdXdXdXdXdXdXdXdXdXdXdXdXdXdXdXdXdX",
"dXdXdXdXdXdXdXdXdXdXdXdXdXdXdXdXdXdXdXdXdXdXdXdXdXdXdXdXdXdXdXdXdXdXdXdXC.C.C.C.C.C.C.B.&.c.m.X.x.dXdXdXdXdXdXv 3.a.a.q.dXdXdXdXdXdXdXdXdXdXdXdXdXdXdXdXdXdXdXdX",
"dXdXdXdXdXdXdXdXdXdXdXdXdXdXdXdXdXdXdXdXdXdXdXdXdXdXdXdXdXdXdXdXdXdXdXM.C.C.C.C.C.C.C.M.e.l.l.q.g $ dXdXdXdXdXdX# t a.P B dXdXdXdXdXdXdXdXdXdXdXdXdXdXdXdXdXdXdX",
"dXdXdXdXdXdXdXdXdXdXdXdXdXdXdXdXdXdXdXdXdXdXdXdXdXdXdXdXdXdXdXdXdXdXdX,.C.M.C.A.A.C.C.n.h.].h.& w d d d dXdXdXdX1 q 6.2.0.q.dXdXdXdXdXdXdXdXdXdXdXdXdXdXdXdXdXdX",
"dXdXdXdXdXdXdXdXdXdXdXdXdXdXdXdXdXdXdXdXdXdXdXdXdXdXdXdXdXdXdXdXdXdXdX:.=.B.C.S.A.C.C...P >.>...8.d d d d dXdXdX1 a.0.0.w.%.Y dXdXdXdXdXdXdXdXdXdXdXdXdXdXdXdXdX",
"dXdXdXdXdXdXdXdXdXdXdXdXdXdXdXdXdXdXdXdXdXdXdXdXdXdXdXdXdXdXdXdXdXdXdX;.>.C.S.R.C.C.B.` >.C.Z...} q d d d d d dX2 0.a.r.n.m.r.i dXdXdXdXdXdXdXdXdXdXdXdXdXdXdXdX",
"dXdXdXdXdXdXdXdXdXdXdXdXdXdXdXdXdXdXdXdXdXdXdXdXdXdXdXdXdXdXdXdXdXdXM.B.C.C.R.D.C.C.} ;.=.C.O.3 I ( t d a p s 7.G dX3.e.m.e.`.V.h dXdXdXdXdXdXdXdXdXdXdXdXdXdXdX",
"dXdXdXdXdXdXdXdXdXdXdXdXdXdXdXdXdXdXdXdXdXdXdXdXdXdXdXdXdXdXdXdXdXM.C.C.C.Z.R.A.C.C...=.>.] v e s B r d p Y R R R R dX^ ..) r.F Z t 7 dXdXdXdXdXdXdXdXdXdXdXdXdX",
"dXdXdXdXdXdXdXdXdXdXdXdXdXdXdXdXdXdXdXdXdXdXdXdXdXdXdXdXdXdXdXdXdXC.C.C.C.S.S.C.C.C.] m ;.>.L y d d d d d 7.E ] ] ! ! dXdXo , j V ).9.( | | ( c dXdXdXdXdXdXdXdX",
"dXdXdXdXdXdXdXdXdXdXdXdXdXdXdXdXdXdXdXdXdXdXdXdXdXdXdXdXdXdXdXdX>.C.C.C.C.A.A.C.C.C.dXdXN { P a d d d d d d 6.E ] ] ] R dXdXdX. $ 6 ..m...| m.M x dXdXdXdXdXdXdX",
"dXdXdXdXdXdXdXdXdXdXdXdXdXdXdXdXdXdXdXdXdXdXdXdXdXdXdXdXdXdXdXdXM.C.C.C.C.C.C.C.C.B.dXdXdXt y d d d d d d d a I ! ] ] ] E dXdXdXdX  M ....M L b ^ J dXdXdXdXdXdX",
"dXdXdXdXdXdXdXdXdXdXdXdXdXdXdXdXdXdXdXdXdXdXdXdXdXdXdXdXdXdXdXdXB.C.C.C.C.C.C.C.C.dXdXdXdXdXd d d d d d d d d P ! ] ] ] ] E dXdXdXdXdXm ..| : : : L dXdXdXdXdXdX",
"dXdXdXdXdXdXdXdXdXdXdXdXdXdXdXdXdXdXdXdXdXdXdXdXdXdXdXdXdXdXdXM.C.C.C.C.C.C.C.C.M.dXdXdXdXdXdXd d d d d d d d P ! ] ] ] ] ] ] dXdXdXdXdXdX] ^ : o l dXdXdXdXdXdX",
"dXdXdXdXdXdXdXdXdXdXdXdXdXdXdXdXdXdXdXdXdXdXdXdXdXdXdXdXdXdXdXB.C.C.C.C.C.C.C.C.dXdXdXdXdXdXdXdXd d d d d d d s ^ ] ] ] ] ] ] E dXdXdXdXdXdXT c dXdXdXdXdXdXdXdX",
"dXdXdXdXdXdXdXdXdXdXdXdXdXdXdXdXdXdXdXdXdXdXdXdXdXdXdXdXdXdXM.C.C.C.C.C.C.C.C.%.dXdXdXdXdXdXdXdXdXdXdXd d d d d p ( ] ] ] ] ] ] ] R dXdXdXdXdXdXdXdXdXdXdXdXdXdX",
"dXdXdXdXdXdXdXdXdXdXdXdXdXdXdXdXdXdXdXdXdXdXdXdXdXdXdXdXdXdX:.C.C.C.C.C.C.C.=.dXdXdXdXdXdXdXdXdXdXdXdXdXdXe e d d 7.R ] ] ] ] ] ] ! T dXdXdXdXdXdXdXdXdXdXdXdXdX",
"dXdXdXdXdXdXdXdXdXdXdXdXdXdXdXdXdXdXdXdXdXdXdXdXdXdXdXdXdXR >.C.C.C.C.C.C.:.dXdXdXdXdXdXdXdXdXdXdXdXdXdXdXdX- - e d 6.E ] ] ] ] ] ] R dXdXdXdXdXdXdXdXdXdXdXdXdX",
"dXdXdXdXdXdXdXdXdXdXdXdXdXdXdXdXdXdXdXdXdXdXdXdXdXdXdXdX;.=.,.C.C.C.C.C.,.dXdXdXdXdXdXdXdXdXdXdXdXdXdXdXdXdXdXdX@ 9 y P E ] ] ] ] ] ^ dXdXdXdXdXdXdXdXdXdXdXdXdX",
"dXdXdXdXdXdXdXdXdXdXdXdXdXdXdXdXdXdXdXdXdXdXdXdXdXdXdX:.;.=.>.C.C.C.C.C.dXdXdXdXdXdXdXdXdXdXdXdXdXdXdXdXdXdXdXdXdXdX6 a 6.R ! ] ] _ Y dXdXdXdXdXdXdXdXdXdXdXdXdX",
"dXdXdXdXdXdXdXdXdXdXdXdXdXdXdXdXdXdXdXdXdXdXdXdXdXB.C.C.M.M.B.C.C.C.>.dXdXdXdXdXdXdXdXdXdXdXdXdXdXdXdXdXdXdXdXdXdXdXdX0 d p L E Y + dXdXdXdXdXdXdXdXdXdXdXdXdXdX",
"dXdXdXdXdXdXdXdXdXdXdXdXdXdXdXdXdXdXdXdXdXdXdXdXv.;.C.C.M.B.C.C.C.:.dXdXdXdXdXdXdXdXdXdXdXdXdXdXdXdXdXdXdXdXdXdXdXdX; < q p e 2.5 dXdXdXdXdXdXdXdXdXdXdXdXdXdXdX",
"dXdXdXdXdXdXdXdXdXdXdXdXdXdXdXdXdXdXdXdXdXdXw.(.t.v.:.C.M.M.>.>.=.E dXdXdXdXdXdXdXdXdXdXdXdXdXdXdXdXdXdXdXdXdXdXdXdXt N h Y 2.5 q dXdXdXdXdXdXdXdXdXdXdXdXdXdXdX",
"dXdXdXdXdXdXdXdXdXdXdXdXdXdXdXdXdXdXdXdXdXdX>.k. XG.c.>.B.:.! m dXdXdXdXdXdXdXdXdXdXdXdXdXdXdXdXdXdXdXdXdXdXdXdXdXd 4.6.Y ! ] ( 2 dXdXdXdXdXdXdXdXdXdXdXdXdXdXdX",
"dXdXdXdXdXdXdXdXdXdXdXdXdXdXdXdXdXdXdXdXdXM.C.>.].[.b.N.C.C.M.dXdXdXdXdXdXdXdXdXdXdXdXdXdXdXdXdXdXdXdXdXdXdXdXdXdXt f.5.Z W W q.& dXdXdXdXdXdXdXdXdXdXdXdXdXdXdX",
"dXdXdXdXdXdXdXdXdXdXdXdXdXdXdXdXdXdXdXdXdXC.C.C.:.(.'.c.>.C.dXdXdXdXdXdXdXdXdXdXdXdXdXdXdXdXdXdXdXdXdXdXdXdXdXdXdX% g )./.d.d.f = dXdXdXdXdXdXdXdXdXdXdXdXdXdXdX",
"dXdXdXdXdXdXdXdXdXdXdXdXdXdXdXdXdXdXdXdXM.C.C.C.C.u._.z.$.dXdXdXdXdXdXdXdXdXdXdXdXdXdXdXdXdXdXdXdXdXdXdXdXdXdXdXdX3 d d ^.^.^.7   dXdXdXdXdXdXdXdXdXdXdXdXdXdXdX",
"dXdXdXdXdXdXdXdXdXdXdXdXdXdXdXdXdXdXdXdXC.C.C.C.C.1.i.j.dXdXdXdXdXdXdXdXdXdXdXdXdXdXdXdXdXdXdXdXdXdXdXdXdXdXdXdXdXdX3.d d d 8 < dXdXdXdXdXdXdXdXdXdXdXdXdXdXdXdX",
"dXdXdXdXdXdXdXdXdXdXdXdXdXdXdXdXdXdXdXB.C.C.C.C.C.C.} dXdXdXdXdXdXdXdXdXdXdXdXdXdXdXdXdXdXdXdXdXdXdXdXdXdXdXdXdXdXdXv a y 9 9 * dXdXdXdXdXdXdXdXdXdXdXdXdXdXdXdX",
"dXdXdXdXdXdXdXdXdXdXdXdXdXdXdXdXdXdXM.C.C.C.C.C.C.M.dXdXdXdXdXdXdXdXdXdXdXdXdXdXdXdXdXdXdXdXdXdXdXdXdXdXdXdXdXdXdXdXO 8 % 8 y $ dXdXdXdXdXdXdXdXdXdXdXdXdXdXdXdX",
"dXdXdXdXdXdXdXdXdXdXdXdXdXdXdXdXdXdXB.C.C.C.C.C.dXdXdXdXdXdXdXdXdXdXdXdXdXdXdXdXdXdXdXdXdXdXdXdXdXdXdXdXdXdXdXdXdXdX> w d d * dXdXdXdXdXdXdXdXdXdXdXdXdXdXdXdXdX",
"dXdXdXdXdXdXdXdXdXdXdXdXdXdXdXdXdXB.C.C.C.C.C.dXdXdXdXdXdXdXdXdXdXdXdXdXdXdXdXdXdXdXdXdXdXdXdXdXdXdXdXdXdXdXdXdXdXdXb 0 d d - dXdXdXdXdXdXdXdXdXdXdXdXdXdXdXdXdX",
"dXdXdXdXdXdXdXdXdXdXdXdXdXdXdXdXM.C.C.C.C.B.;.dXdXdXdXdXdXdXdXdXdXdXdXdXdXdXdXdXdXdXdXdXdXdXdXdXdXdXdXdXdXdXdXdXdXdXH w d y @ dXdXdXdXdXdXdXdXdXdXdXdXdXdXdXdXdX",
"dXdXdXdXdXdXdXdXdXdXdXdXdXdXdXdXB.C.C.C.C.=.dXdXdXdXdXdXdXdXdXdXdXdXdXdXdXdXdXdXdXdXdXdXdXdXdXdXdXdXdXdXdXdXdXdXdXdX> d d e @ dXdXdXdXdXdXdXdXdXdXdXdXdXdXdXdXdX",
"dXdXdXdXdXdXdXdXdXdXdXdXdXdXdX=.C.C.C.C.;.dXdXdXdXdXdXdXdXdXdXdXdXdXdXdXdXdXdXdXdXdXdXdXdXdXdXdXdXdXdXdXdXdXdXdXdXC x U ' U X dXdXdXdXdXdXdXdXdXdXdXdXdXdXdXdXdX",
"dXdXdXdXdXdXdXdXdXdXdXdXdXdXdX#.&.>.C.>.dXdXdXdXdXdXdXdXdXdXdXdXdXdXdXdXdXdXdXdXdXdXdXdXdXdXdXdXdXdXdXdXdXdXdXdXdXT F D A D + c dXdXdXdXdXdXdXdXdXdXdXdXdXdXdXdX",
"dXdXdXdXdXdXdXdXdXdXdXdXdXdXS H.J.#.=.dXdXdXdXdXdXdXdXdXdXdXdXdXdXdXdXdXdXdXdXdXdXdXdXdXdXdXdXdXdXdXdXdXdXdXdXdXdXR 7.K Q K ^ E R dXdXdXdXdXdXdXdXdXdXdXdXdXdXdX",
"dXdXdXdXdXdXdXdXdXdXdXdXdX} 1.J.L.H.#.dXdXdXdXdXdXdXdXdXdXdXdXdXdXdXdXdXdXdXdXdXdXdXdXdXdXdXdXdXdXdXdXdXdXdXdXdXE ] N 8 u 1 Y ] ] E T dXdXdXdXdXdXdXdXdXdXdXdXdX",
"dXdXdXdXdXdXdXdXdXdXdXdXdXM.C.:.*.J.dXdXdXdXdXdXdXdXdXdXdXdXdXdXdXdXdXdXdXdXdXdXdXdXdXdXdXdXdXdXdXdXdXdXdXdXdXdX] [ m 9 d 1 Y ] ] ] ] E R dXdXdXdXdXdXdXdXdXdXdX",
"dXdXdXdXdXdXdXdXdXdXdXdX} M.=.:.B.{ dXdXdXdXdXdXdXdXdXdXdXdXdXdXdXdXdXdXdXdXdXdXdXdXdXdXdXdXdXdXdXdXdXdXdXdXdXc ] [ R ; # ; R ] ] ] ] ] ] ! R Y dXdXdXdXdXdXdXdX",
"dXdXdXdXdXdXdXdXdXdXdX! B.%.>.C.>.dXdXdXdXdXdXdXdXdXdXdXdXdXdXdXdXdXdXdXdXdXdXdXdXdXdXdXdXdXdXdXdXdXdXdXdXdXdXdXc c c x o . + Y Y Y Y Y m c c c dXdXdXdXdXdXdXdX",
"dXdXdXdXdXdXdXdXdXdXdXE ,.=.C.C.C.=.dXdXdXdXdXdXdXdXdXdXdXdXdXdXdXdXdXdXdXdXdXdXdXdXdXdXdXdXdXdXdXdXdXdXdXdXdXdXdXdXdXdXdXdXdXdXdXdXdXdXdXdXdXdXdXdXdXdXdXdXdXdX",
"dXdXdXdXdXdXdXdXdXdX{ } :.C.C.C.C.,.} dXdXdXdXdXdXdXdXdXdXdXdXdXdXdXdXdXdXdXdXdXdXdXdXdXdXdXdXdXdXdXdXdXdXdXdXdXdXdXdXdXdXdXdXdXdXdXdXdXdXdXdXdXdXdXdXdXdXdXdXdX",
"dXdXdXdXdXdXdXdXdXdX` >.>.C.C.C.C.C.>.dXdXdXdXdXdXdXdXdXdXdXdXdXdXdXdXdXdXdXdXdXdXdXdXdXdXdXdXdXdXdXdXdXdXdXdXdXdXdXdXdXdXdXdXdXdXdXdXdXdXdXdXdXdXdXdXdXdXdXdXdX",
"dXdXdXdXdXdXdXdXdXdXJ ..%.C.Z.Z.Z.Z.Z.:.dXdXdXdXdXdXdXdXdXdXdXdXdXdXdXdXdXdXdXdXdXdXdXdXdXdXdXdXdXdXdXdXdXdXdXdXdXdXdXdXdXdXdXdXdXdXdXdXdXdXdXdXdXdXdXdXdXdXdXdX",
"dXdXdXdXdXdXdXdXdXdXdXdXJ H n n n n M H dXdXdXdXdXdXdXdXdXdXdXdXdXdXdXdXdXdXdXdXdXdXdXdXdXdXdXdXdXdXdXdXdXdXdXdXdXdXdXdXdXdXdXdXdXdXdXdXdXdXdXdXdXdXdXdXdXdXdXdX",
"dXdXdXdXdXdXdXdXdXdXdXdXdXdXdXdXdXdXdXdXdXdXdXdXdXdXdXdXdXdXdXdXdXdXdXdXdXdXdXdXdXdXdXdXdXdXdXdXdXdXdXdXdXdXdXdXdXdXdXdXdXdXdXdXdXdXdXdXdXdXdXdXdXdXdXdXdXdXdXdX",
"dXdXdXdXdXdXdXdXdXdXdXdXdXdXdXdXdXdXdXdXdXdXdXdXdXdXdXdXdXdXdXdXdXdXdXdXdXdXdXdXdXdXdXdXdXdXdXdXdXdXdXdXdXdXdXdXdXdXdXdXdXdXdXdXdXdXdXdXdXdXdXdXdXdXdXdXdXdXdXdX",
"dXdXdXdXdXdXdXdXdXdXdXdXdXdXdXdXdXdXdXdXdXdXdXdXdXdXdXdXdXdXdXdXdXdXdXdXdXdXdXdXdXdXdXdXdXdXdXdXdXdXdXdXdXdXdXdXdXdXdXdXdXdXdXdXdXdXdXdXdXdXdXdXdXdXdXdXdXdXdXdX",
"dXdXdXdXdXdXdXdXdXdXdXdXdXdXdXdXdXdXdXdXdXdXdXdXdXdXdXdXdXdXdXdXdXdXdXdXdXdXdXdXdXdXdXdXdXdXdXdXdXdXdXdXdXdXdXdXdXdXdXdXdXdXdXdXdXdXdXdXdXdXdXdXdXdXdXdXdXdXdXdX",
"dXdXdXdXdXdXdXdXdXdXdXdXdXdXdXdXdXdXdXdXdXdXdXdXdXdXdXdXdXdXdXdXdXdXdXdXdXdXdXdXdXdXdXdXdXdXdXdXdXdXdXdXdXdXdXdXdXdXdXdXdXdXdXdXdXdXdXdXdXdXdXdXdXdXdXdXdXdXdXdX",
"dXdXdXdXdXdXdXdXdXdXdXdXdXdXdXdXdXdXdXdXdXdXdXdXdXdXdXdXdXdXdXdXdXdXdXdXdXdXdXdXdXdXdXdXdXdXdXdXdXdXdXdXdXdXdXdXdXdXdXdXdXdXdXdXdXdXdXdXdXdXdXdXdXdXdXdXdXdXdXdX",
"dXdXdXdXdXdXdXdXdXdXdXdXdXdXdXdXdXdXdXdXdXdXdXdXdXdXdXdXdXdXdXdXdXdXdXdXdXdXdXdXdXdXdXdXdXdXdXdXdXdXdXdXdXdXdXdXdXdXdXdXdXdXdXdXdXdXdXdXdXdXdXdXdXdXdXdXdXdXdXdX"
};
