/* XPM */
static char *result[] = {
/* columns rows colors chars-per-pixel */
"80 80 186 2 ",
"   c #82795A",
".  c #85787D",
"X  c #9E986F",
"o  c #8C8373",
"O  c #948F72",
"+  c #9E9A76",
"@  c #A4A278",
"#  c #A9A77D",
"$  c #837294",
"%  c #8B7B9D",
"&  c #8D7EA2",
"*  c #968B8E",
"=  c #9F9784",
"-  c #958C99",
";  c #9E959B",
":  c #A09889",
">  c #A7A380",
",  c #AAA484",
"<  c #A7AF86",
"1  c #ACAB83",
"2  c #AAA48A",
"3  c #ADAC89",
"4  c #B2AC8D",
"5  c #B1B086",
"6  c #B4B58B",
"7  c #AEA993",
"8  c #ADA59D",
"9  c #B1AC96",
"0  c #B5B090",
"q  c #B4BC94",
"w  c #B9B59D",
"e  c #BDBC9D",
"r  c #8F80A3",
"t  c #9284A5",
"y  c #978AA5",
"u  c #9485AB",
"i  c #9789AB",
"p  c #9A8CAC",
"a  c #9C92A4",
"s  c #9D90AE",
"d  c #9788B0",
"f  c #9B8EB2",
"g  c #9E91B5",
"h  c #9F94B9",
"j  c #A195AD",
"k  c #A49CAB",
"l  c #A99FAC",
"z  c #A296B4",
"x  c #A59AB5",
"c  c #A99FB6",
"v  c #A296B9",
"b  c #A59BBB",
"n  c #A99EBD",
"m  c #AAA1A3",
"M  c #ADA6A9",
"N  c #AFA9AF",
"B  c #B1ABA9",
"V  c #B7BAA6",
"C  c #BCBBA9",
"Z  c #ABA3B5",
"A  c #AFAAB1",
"S  c #ACA2BE",
"D  c #B1AAB3",
"F  c #B4ADBB",
"G  c #B7B3B8",
"H  c #BBB3BA",
"J  c #BFBABF",
"K  c #B8C097",
"L  c #BEC39D",
"P  c #BDC2A3",
"I  c #C1C7A5",
"U  c #C2CAA3",
"Y  c #C8C9A5",
"T  c #C4C7A8",
"R  c #C6CCAD",
"E  c #CBCDAD",
"W  c #CCD3AD",
"Q  c #C5C7B7",
"!  c #CCC7B7",
"~  c #CBCDB3",
"^  c #C2C1BB",
"/  c #CACABD",
"(  c #D1CEBE",
")  c #CDD3B3",
"_  c #CED2BB",
"`  c #D0D7B2",
"'  c #D3DBB4",
"]  c #D3D5BC",
"[  c #D4DBBA",
"{  c #DADEBE",
"}  c #D9E0BB",
"|  c #AB9FC0",
" . c #ADA3C2",
".. c #B1A6C4",
"X. c #B4ABC6",
"o. c #B2A6C8",
"O. c #B6ACC9",
"+. c #B8AECA",
"@. c #BAB3C4",
"#. c #BFBDC1",
"$. c #B7B0C9",
"%. c #BBB3CD",
"&. c #BFB5D0",
"*. c #C0B8C4",
"=. c #C0B8CD",
"-. c #C0B7D1",
";. c #C5BCD5",
":. c #C8BFD7",
">. c #C6BED8",
",. c #C8BFD8",
"<. c #CDCBC3",
"1. c #C9C4CE",
"2. c #CECBCE",
"3. c #D2D3C2",
"4. c #D6DBC2",
"5. c #DADFC4",
"6. c #D4D3CD",
"7. c #D7D8C9",
"8. c #DADCCB",
"9. c #C7C0D3",
"0. c #CBC4D5",
"q. c #CEC9D2",
"w. c #CBC3DC",
"e. c #CFC8DC",
"r. c #D1CDD3",
"t. c #D1CADC",
"y. c #D5D3D2",
"u. c #D8D5D7",
"i. c #DDDDD3",
"p. c #D5D0DC",
"a. c #D9D5DE",
"s. c #DDDBDB",
"d. c #E0DFDD",
"f. c #DCE2C3",
"g. c #DEE2CA",
"h. c #DEE0D2",
"j. c #E1E8C6",
"k. c #E1E5CD",
"l. c #E3E9CA",
"z. c #E8EECF",
"x. c #EBF1CF",
"c. c #E2E4D4",
"v. c #E6EAD2",
"b. c #E9EED4",
"n. c #E3E4DA",
"m. c #E6E8DB",
"M. c #EAEDDB",
"N. c #ECF1D5",
"B. c #EDF2DB",
"V. c #F1F5DE",
"C. c #CFC7E0",
"Z. c #D0C7E0",
"A. c #D5CDE6",
"S. c #D6CEE8",
"D. c #D7D0E4",
"F. c #D9D3E3",
"G. c #DDDAE2",
"H. c #D9D1E9",
"J. c #E1DDE5",
"K. c #E0DAEC",
"L. c #E5E4E2",
"P. c #EAEBE3",
"I. c #E5E2E8",
"U. c #E8E6E8",
"Y. c #EBEAEC",
"T. c #EEF1E2",
"R. c #EFF1E9",
"E. c #F1F5E3",
"W. c #F5F8E6",
"Q. c #F1F2E9",
"!. c #F3F5EB",
"~. c #F4F6ED",
"^. c #F8FBEE",
"/. c #E9E4F1",
"(. c #EDEBF2",
"). c #F6F6F2",
"_. c #F7F8F0",
"`. c #F9FBF2",
"'. c #FAFCF3",
"]. c #FBFCF4",
"[. c #FCFDF6",
"{. c #F7F5F8",
"}. c #FDFEF9",
"|. c #FDFDFB",
" X c white",
".X c None",
/* pixels */
".X.X.X.X.X.X.X.X.X.X.X.X.X.X.X.X.X.X.X.X.X.X.X.X.X.X.X.X.X.X.X.X.X.X.X.X.X.X.X.X.X.X.X.X.X.X.X.X.X.X.X.X.X.X.X.X.X.X.X.X.X.X.X.X.X.X.X.X.X.X.X.X.X.X.X.X.X.X.X.X",
".X.X.X.X.X.X.X.X.X.X.X.X.X.X.X.X.X.X.X.X.X.X.X.X.X.X.X.X.X.X.X.X.X.X.X.X.X.X.X.X.X.X.X.X.X.X.X.X.X.X.X.X.X.X.X.X.X.X.X.X.X.X.X.X.X.X.X.X.X.X.X.X.X.X.X.X.X.X.X.X",
".X.X.X.X.X.X.X.X.X.X.X.X.X.X.X.X.X.X.X.X.X.X.X.X.X.X.X.X.X.X.X.X.X.X.X.X.X.X.X.X.X.X.Xf G M. XW.M.c.Q.' .X.X.X.X.X.X.X.X.X.X.X.X.X.X.X.X.X.X.X.X.X.X.X.X.X.X.X.X",
".X.X.X.X.X.X.X.X.X.X.X.X.X.X.X.X.X.X.X.X.X.X.X.X.X.X.X.X.X.X.X.X.X.X.X.X.X.X.X.X.X.Xf &.A.|. X X X X X!.v.U .X.X.X.X.X.X.X.X.X.X.X.X.X.X.X.X.X.X.X.X.X.X.X.X.X.X",
".X.X.X.X.X.X.X.X.X.X.X.X.X.X.X.X.X.X.X.X.X.X.X.X.X.X.X.X.X.X.X.X.X~ [ x.x.x.x.f.` I c A.s.`. X X X X X X}.P.I .X.X.X.X.X.X.X.X.X.X.X.X.X.X.X.X.X.X.X.X.X.X.X.X.X",
".X.X.X.X.X.X.X.X.X.X.X.X.X.X.X.X.X.X.X.X.X.X.X.X.X.X.X.X.X.Xv.b. X X}. X X X X X}.|.0.A.D.m.[. X X X X X X Xc..X.X.X.X.X.X.X.X.X.X.X.X.X.X.X.X.X.X.X.X.X.X.X.X.X",
".X.X.X.X.X.X.X.X.X.X.X.X.X.X.X.X.X.X.X.X.X.X.X.X.X.X.Xf.c.}. X X X X X X X X X X X XA.A.A.D.M.}. X X X X X X`.[ .X.X.X.X.X.X.X.X.X.X.X.X.X.X.X.X.X.X.X.X.X.X.X.X",
".X.X.X.X.X.X.X.X.X.X.X.X.X.X.X.X.X.X.X.X.X.X< q W W ' x.[. X X X X X X X X X X}.V.B.t.A.A.A.F.M.W. X X X X X X4..X.X.X.X.X.X.X.X.X.X.X.X.X.X.X.X.X.X.X.X.X.X.X.X",
".X.X.X.X.X.X.X.X.X.X.X.X.X.X.X.X.X.X.X.XP ` v.Q.~.~.[.[.}. X X X X X X X}.'.b.J.F.1.$.A.A.A.S.F.s.b.b.E.}.}.}.g..X.X.X.X.X.X.X.X.X.X.X.X.X.X.X.X.X.X.X.X.X.X.X.X",
".X.X.X.X.X.X.X.X.X.X.X.X.X.X.X.X.X.X.X.XT.}. X X X X X X X X}. X X}.`.R.v.F.H.Z.;.$.v Z.A.A.A.S.A.D.H.s.v.v.v.r..X.X.X.X.X.X.X.X.X.X.X.X.X.X.X.X.X.X.X.X.X.X.X.X",
".X.X.X.X.X.X.X.X.X.X.X.X.X.X.X.X.X.X.XW. X X X X X X X X X`.N.W.~.L.i.A.A.A.w.;.%.;.z ;.A.A.A.A.A.Z.H *.A.A.A.;..X.X.X.X.X.X.X.X.X.X.X.X.X.X.X.X.X.X.X.X.X.X.X.X",
".X.X.X.X.X.X.X.X.X.X.X.X.X.X.X.X.X.XB. X X X X X X X X X X[.` 3.a.A.A.A.Z.;.%.%.;.%.v n A.A.A.A.A.Z.; o @.S.A.%..X.X.X.X.X.X.X.X.X.X.X.X.X.X.X.X.X.X.X.X.X.X.X.X",
".X.X.X.X.X.X.X.X.X.X.X.X.X.X.X.X< L ~. X X X X X X X X^.l.E 1 H S.A.A.;.%.-.;.;.;.O.b g +.w.A.A.A.S.w.*.0.S.w.^ .X.X.X.X.X.X.X.X.X.X.X.X.X.X.X.X.X.X.X.X.X.X.X.X",
".X.X.X.X.X.X.X.X.X.X.X.X.X.X.XU ` ` [. X X X X X X XV.E.'.).M.e @.;.%.%.;.:.;.;.%.b v u d O.;.>.C.A.H.H.S.Z.X.s.' .X.X.X.X.X.X.X.X.X.X.X.X.X.X.X.X.X.X.X.X.X.X.X",
".X.X.X.X.X.X.X.X.X.X.X.X.X.X) v.T.M. X X X X X X X X X X X X[.l.8 ..;.:.;.O.X.X.O.g v u u b  .u X.;.Z.H.A.O.D. X5..X.X.X.X.X.X.X.X.X.X.X.X.X.X.X.X.X.X.X.X.X.X.X",
".X.X.X.X.X.X.X.X.X.X.X.X.XR Q. X!.B. X X X X X X X X X X XW.M.i.%. .&. . .v X.;.n f g u u r n  .;. .n S n t. X Xm..X.X.X.X.X.X.X.X.X.X.X.X.X.X.X.X.X.X.X.X.X.X.X",
".X.X.X.X.X.X.X.X.X.X.X.X.Xm. X X}.[. X X X X X X X X}.B.B.s.F.S.w. .n  .+.;.;.;. .i % % % u i b ;.%.s r.G.|. X Xv..X.X.X.X.X.X.X.X.X.X.X.X.X.X.X.X.X.X.X.X.X.X.X",
".X.X.X.X.X.X.X.X.X.X.X.X) }. X X X X X}.|.|.|.B.b.L.H.G.F.A.S.A.w.-.-.;.;.;.;.;.;.%.$.$.$.&.+.z i y <.}. X X X`.` .X.X.X.X.X.X.X.X.X.X.X.X.X.X.X.X.X.X.X.X.X.X.X",
".X.X.X.X.X.X.X.X.X.X.XK B. X X X}.}.}.B.n.H.H.D.D.A.A.S.S.S.A.w.;.;.;.;.;.;.;.;.;.;.;.;.;.;.;.;.-.-.0.g.E.`.].{ @ .X.X.X.X.X.X.X.X.X.X.X.X.X.X.X.X.X.X.X.X.X.X.X",
".X.X.X.X.X.X.X.X.X.X.X` `. X X X^.b.}. XW.s.A.A.S.S.S.Z.w.w.w.;.;.;.;.;.;.;.;.;.;.;.;.;.;.;.%.%.;.;.;.;.y.8./ 2 .X.X.X.X.X.X.X.X.X.X.X.X.X.X.X.X.X.X.X.X.X.X.X.X",
".X.X.X.X.X.X.X.X.X.Xq v. X X XW.N.} g.W. Xv.A.S.Z.&. ...%.-.;.;.;.;.;.;.;.;.;.;.;.;.;.;.;.;.X. .%.;.;.;.&.v t .X.X.X.X.X.X.X.X.X.X.X.X.X.X.X.X.X.X.X.X.X.X.X.X.X",
".X.X.X.X.X.X.X.X.X.Xf.`. X X X[.`.~.l.[ l.a.S.S.Z.n g  .$.$.%.;.;.;.;.$.$.$.$.$.%.;.;.;.$.O. .g g n ..O.p p R U K .X.X.X.X.X.X.X.X.X.X.X.X.X.X.X.X.X.X.X.X.X.X.X",
".X.X.X.X.X.X.X.X.X}.V. X X X X X X X XT.U J w.Z.O...v S ..O.O.$.$.O.X.S S X.O.O.O.$.$.X.S j i n X.X.O.O.v .._._.l.W .X.X.X.X.X.X.X.X.X.X.X.X.X.X.X.X.X.X.X.X.X.X",
".X.X.X.X.X.X.X.XW.E.`. X X X X X X X X XE.T 7 x  .$.X.v g n n n n v g i t g n S n b x v a w B b  . .n n f @.M.}. XW.l..X.X.X.X.X.X.X.X.X.X.X.X.X.X.X.X.X.X.X.X.X",
".X.X.X.X.X.X.XB. X`.}. X X X X X X X X X X X{ : m O.O.X.n v v v g g g b b f u & u .X.X9 i._.#.b  .n v b  ...1.M. X X XM.~ .X.X.X.X! .X.X.X.X.X.X.X.X.X.X.X.X.X.X",
".X.X.X.X.X.Xk.[. X X X X X X X X X X X X X X}.c.3 M O.O.O.O.X. .b b v f u .X.X.X.X.X1 ] [.Q y b O.O.$.;.;.;.%.2.E. X X XQ.[ .X.X.X3., .X.X.X.X.X.X.X.X.X.X.X.X.X",
".X.X.X.X.X.Xs.b.b.!.}.}. X X X X X X X X X X X XT.) 7 F Z b b b b f & .X.X.X.X1 q 8.!.'.3..X& v O.%.;.;.;.;.;.;.r.v.).}. X~.j..X.XI.= .X.X.X.X.X.X.X.X.X.X.X.X.X",
".X.X.X.X.X.XZ.D.H.H.c.B.`. X X X X X X X X X X X X}.b._ w A Z k - . .X.X6 P f.~.|. X`.] * .X.Xu ..%.;.;.;.;.;.;.;.;.0.g.P.`.^.{ { /.| .X.X.X.X.X.X.X.X.X.X.X.X.X",
".X.X.X.X.X.Xz %.w.w.w.p.c.Y.W.W. X X X X X X X X X X X X Xb.g._ ~ C _ 5.B.}. X X X XB.L   .X.X.Xg %.;.;.;.;.;.;.;.;.;.;.;.6.8.3 6.F.&.D [ .X.X.X.X.X.X.X.X.X.X.X",
".X.X.X.X.X.X.Xr p x ;.Z.S.D.s.s.U.V.V.W. X X X X X X X X X X X X X X X X X X X X X X Xk.3 X .X.X% v ;.;.;.;.;.;.;.;.;.;.;.;.O.l ;.;.+.F !.T .X.X.X.X.X.X.X.X.X.X",
".X.X.X.X.X.X.X.X.X% n ,.A.S.S.S.A.a.a.G.K.M.N.N.V.}.}.}.}.}.}.|.B.~. X X X X X X X X X}.!.E .X.X.X% S ;.;.;.;.;.;.;.;.;.;.,.n ..,.%. .F ~.E.' .X.X.X.X.X.X.X.X.X",
".X.X.X.X.X.X.X.X.X.X.Xt ..w.A.S.A.A.A.A.A.D.D.D.a.v.v.v.v.v.v.G.A.Y. X X X X X X X X X^.R.i.;.p .X.X% f S %.;.;.,.:.;.;.;.,.n ..;.;.;.+.;.(.`.4..X.X.X.X.X.X.X.X",
".X.X.X.X.X.X.X.X.X.X.X.X.Xv +.C.H.S.A.A.A.A.A.A.A.A.A.D.H.H.H.H.C.2.E. X X X X X X X!. XF.%.w.w.n .X.X.X& n S n ..X.X.O.%.;.O.n ;.;.&.n v F i.[.] .X.X.X.X.X.X.X",
".X.X.X.X.X.X.X.X.X.X.X.X.X.X.Xx o.>.A.S.A.A.A.S.S.S.C.;.O.o. .n v n i.W. X X X X X XP.t.w.Z.O.&.w.%..X.X.X.X.X.X.X.X.X.X.Xx  .v  .O.O.v v g @.( Q.) .X.X.X.X.X.X",
".X.X.X.X.X.X.X.X.X.X.X.X.X.X.Xg b i z n X.O.S s s p y z +.X.v n ..z %.n.B.}. X X`.W.|.;.b -.w.O.O.w.+..X.X.X.X.X.X.X.X.X.X.X.Xg O.$.O.p z v n D ! Q.6 .X.X.X.X.X",
".X.X.X.X.X.X.X.X.X.X.X.X.X.X.X+.Z.0.7.g.g.i.e.0.;. .S %.;.;.n O.w.-.z w.p.v.E. XE.[ 8.t.C.O...w.%.v ;.;..X.X.X.X.X.X.X.X.X.X.Xu &.;.O.p v v t n ; 8.I .X.X.X.X.X",
".X.X.X.X.X.X.X.X.X.X.X.X.X.Xb w.d.B.[. X X X~.B.J.9.O.;.;.O.v S ;.;.%.j v %.-.i.v.y. .n &.C.%.n &.-.v -.&..X.X.X.X.X.X.X.X.X.X% n ;.$.g n v g n x M _ .X.X.X.X.X",
".X.X.X.X.X.X.X.X.X.X.X.X.X.Xo.s.!. X X X X X X X[.c.S %.$...g  .;.;.0.<.F =.G Z O.-.Z.;. . .;.%.n O.w...X..X.X.X.X.X.X.X.X.X.X.Xp v v t f g s  .x x v f .X.X.X.X",
".X.X.X.X.X.X.X.X.X.X.X.X.Xt ;.v.}. X X X X X X X XE.Z X.O.b v %.;.;.C.F.M.[.W.u.^ V j b X.O.v X.,.z  .,.%.f .X.X.X.X.X.X.X.X.X.X.X.X.X.X.X& p i v z n +.y .X.X.X",
".X.X.X.X.X.X.X.X.X.X.X.X.Xf w.v.}. X X X X X X X XE.x f f f S ;.;.w.A.A.F.J.!. X[.!.I.s./ x  .j n O.p t S n .X.X.X.X.X.X.X.X.X.X.X.X.X.X.X.X% z x x p  .+.% .X.X",
".X.X.X.X.X.X.X.X.X.X.X.X.Xv A.v.}. X X X X X X X XE.l h b S O.O.;.C.S.A.S.A.H.(.|.}. X X}.{.|.{.{.E..X.X.X.X.X.X.X.X.X.X.X.X.X.X.X.X.X.X.X.X.X% f p n v p % .X.X",
".X.X.X.X.X.X.X.X.X.X.X.X.Xb A.s.~. X X X X X X X X X9 i g  .O.O.;.w.A.A.A.Z.A.S.G.P._. X X X X X X Xb..X.X.X.X.X.X.X.X.X.X.X.X.X.X.X.X.X.X.X.X.X.Xi t n & .X.X.X",
".X.X.X.X.X.X.X.X.X.X.X.X.Xf A.D.B. X X X X X X X X X0 .X.Xg ..O.O.;.w.A.A.C.Z.A.A.A.s.V.`. X X X X X XV..X.X.X.X.X.X.X.X.X.X.X.X.X.X.X.X.X.X.X.X.X.X.X.X.X.X.X.X",
".X.X.X.X.X.X.X.X.X.X.X.X.Xy w.Z.s.W. X X X X X X X X0 .X.X.Xu b X.O.;.w.Z.Z.;.Z.A.A.A.a.m.}. X X X X X}.l..X.X.X.X.X.X.X.X.X.X.X.X.X.X.X.X.X.X.X.X.X.X.X.X.X.X.X",
".X.X.X.X.X.X.X.X.X.X.X.X.X.X .w.A.n.`. X X X X X X'.> .X.X.X.X% f S X.;.,.w.%.$.>.A.S.S.D.G.v.~.}.[.[.|.m..X.X.X.X.X.X.X.X.X.X.X.X.X.X.X.X.X.X.X.X.X.X.X.X.X.X.X",
".X.X.X.X.X.X.X.X.X.X.X.X.X.Xg w.S.A.n.`. X X X X XB.@ .X.X.X.X.X.X.Xu b S O.&.$. .;.Z.A.S.A.A.H.c.k.g.y....X.X.X.X.X.X.X.X.X.X.X.X.X.X.X.X.X.X.X.X.X.X.X.X.X.X.X",
".X.X.X.X.X.X.X.X.X.X.X.X.X.X.X-.A.A.D.m.W. X X X}.[ .X.X.X.X.X.X.X.X.X.X$ u p x n b ;.w.w.A.A.A.A.w.;.;.v .X.X.X.X.X.X.X.X.X.X.X.X.X.X.X.X.X.X.X.X.X.X.X.X.X.X.X",
".X.X.X.X.X.X.X.X.X.X.X.X.X.X.Xb A.A.S.t.6.M.W. Xl.q .X.X.X.X.X.X.X.X.X.X.X.X.X.Xu g b %.;.w.Z.A.Z.;.;.%.v .X.X.X.X.X.X.X.X.X.X.X.X.X.X.X.X.X.X.X.X.X.X.X.X.X.X.X",
".X.X.X.X.X.X.X.X.X.X.X.X.X.Xg g ,.A.A.C.;.0.e.;.F .X.X.X.X.X.X.X.X.X.X.X.X.X.X.X.Xd u g %.;.,.w.,.;.;.X..X.X.X.X.X.X.X.X.X.X.X.X.X.X.X.X.X.X.X.X.X.X.X.X.X.X.X.X",
".X.X.X.X.X.X.X.X.X.X.X.Xf X.w.O.>.S.A.,.;.;.;.b .X.X.X.X.X.X.X.X.X.X.X.X.X.X.X.X.X.X% g  .O.-.;.;.;.,.S .X.X.X.X.X.X.X.X.X.X.X.X.X.X.X.X.X.X.X.X.X.X.X.X.X.X.X.X",
".X.X.X.X.X.X.X.X.X.X.Xb +.A.A.;.w.A.Z.;.;.;...r .X.X.X.X.X.X.X.X.X.X.X.X.X.X.X.X.X.Xn w.Z.-...%.;.;.;.O.i .X.X.X.X.X.X.X.X.X.X.X.X.X.X.X.X.X.X.X.X.X.X.X.X.X.X.X",
".X.X.X.X.X.X.X.X.X.Xf &.A.A.A.,.A.A.w.;.;.%.g .X.X.X.X.X.X.X.X.X.X.X.X.X.X.X.X.X.Xn w.A.A.A.w.&.-.;.;.%.v .X.X.X.X.X.X.X.X.X.X.X.X.X.X.X.X.X.X.X.X.X.X.X.X.X.X.X",
".X.X.X.X.X.X.X.X.X.X .Z.A.A.A.A.A.Z.;.;.;. .g .X.X.X.X.X.X.X.X.X.X.X.X.X.X.X.X.X.X&.S.A.A.A.S.w.;.;.;.;....X.X.X.X.X.X.X.X.X.X.X.X.X.X.X.X.X.X.X.X.X.X.X.X.X.X.X",
".X.X.X.X.X.X.X.X.X.X&.A.A.A.A.S.Z.;.;.;.%...v .X.X.X.X.X.X.X.X.X.X.X.X.X.X.X.X.Xv w.S.A.A.A.A.w.;.;.;.;.n .X.X.X.X.X.X.X.X.X.X.X.X.X.X.X.X.X.X.X.X.X.X.X.X.X.X.X",
".X.X.X.X.X.X.X.X.X..w.S.A.A.A.A.w.;.;.;.;. ..X.X.X.X.X.X.X.X.X.X.X.X.X.X.X.X.X.XO.A.A.A.A.A.A.w.;.;.;.;.p .X.X.X.X.X.X.X.X.X.X.X.X.X.X.X.X.X.X.X.X.X.X.X.X.X.X.X",
".X.X.X.X.X.X.X.X.X;.Z.S.A.A.A.A.>.;.;.;.&.v .X.X.X.X.X.X.X.X.X.X.X.X.X.X.X.X.X.X .A.A.A.A.S.w.;.;.;.;.%.p .X.X.X.X.X.X.X.X.X.X.X.X.X.X.X.X.X.X.X.X.X.X.X.X.X.X.X",
".X.X.X.X.X.X.X.X.X;.Z.A.A.A.A.w.;.;.;.;.X..X.X.X.X.X.X.X.X.X.X.X.X.X.X.X.X.X.X.Xv w.A.A.A.A.w.;.;.;.;. ..X.X.X.X.X.X.X.X.X.X.X.X.X.X.X.X.X.X.X.X.X.X.X.X.X.X.X.X",
".X.X.X.X.X.X.X.X.X$.C.S.A.A.A.w.;.;.;.%.v .X.X.X.X.X.X.X.X.X.X.X.X.X.X.X.X.X.X.X.X..w.A.A.A.,.;.;.;.-.b .X.X.X.X.X.X.X.X.X.X.X.X.X.X.X.X.X.X.X.X.X.X.X.X.X.X.X.X",
".X.X.X.X.X.X.X.X.XO.w.S.S.A.w.;.;.;.%.b .X.X.X.X.X.X.X.X.X.X.X.X.X.X.X.X.X.X.X.X.Xg ;.;.w.Z.;.;.;.;. ..X.X.X.X.X.X.X.X.X.X.X.X.X.X.X.X.X.X.X.X.X.X.X.X.X.X.X.X.X",
".X.X.X.X.X.X.X.X.X%.Z.S.S.w.;.;.;.O.v .X.X.X.X.X.X.X.X.X.X.X.X.X.X.X.X.X.X.X.X.X.X& X.;.;.;.;.;.;.%.f .X.X.X.X.X.X.X.X.X.X.X.X.X.X.X.X.X.X.X.X.X.X.X.X.X.X.X.X.X",
".X.X.X.X.X.X.X.X.X%.A.S.Z.;.;.%. .v .X.X.X.X.X.X.X.X.X.X.X.X.X.X.X.X.X.X.X.X.X.X.X.Xv ;.;.;.;.;.;.n .X.X.X.X.X.X.X.X.X.X.X.X.X.X.X.X.X.X.X.X.X.X.X.X.X.X.X.X.X.X",
".X.X.X.X.X.X.X.X.X;.A.Z.,.;.X.p .X.X.X.X.X.X.X.X.X.X.X.X.X.X.X.X.X.X.X.X.X.X.X.X.X.X& X.;.;.;.;.+.d .X.X.X.X.X.X.X.X.X.X.X.X.X.X.X.X.X.X.X.X.X.X.X.X.X.X.X.X.X.X",
".X.X.X.X.X.X.X.XX.w.A.,.;.S .X.X.X.X.X.X.X.X.X.X.X.X.X.X.X.X.X.X.X.X.X.X.X.X.X.X.X.X.Xs ;.;.;.,....X.X.X.X.X.X.X.X.X.X.X.X.X.X.X.X.X.X.X.X.X.X.X.X.X.X.X.X.X.X.X",
".X.X.X.X.X.X.XX.;.Z.Z.;.O.u .X.X.X.X.X.X.X.X.X.X.X.X.X.X.X.X.X.X.X.X.X.X.X.X.X.X.X.X.Xt %.;.;.:.X..X.X.X.X.X.X.X.X.X.X.X.X.X.X.X.X.X.X.X.X.X.X.X.X.X.X.X.X.X.X.X",
".X.X.X.X.X.Xn -.;.A.w.;. .r .X.X.X.X.X.X.X.X.X.X.X.X.X.X.X.X.X.X.X.X.X.X.X.X.X.X.X.X.Xt %.;.;.;. ..X.X.X.X.X.X.X.X.X.X.X.X.X.X.X.X.X.X.X.X.X.X.X.X.X.X.X.X.X.X.X",
".X.X.X.X.Xg %.=.w.Z.0.&.O.b .X.X.X.X.X.X.X.X.X.X.X.X.X.X.X.X.X.X.X.X.X.X.X.X.X.X.X.XP g &.;.-.=.6.(.f..X.X.X.X.X.X.X.X.X.X.X.X.X.X.X.X.X.X.X.X.X.X.X.X.X.X.X.X.X",
".X.X.X.X.X .=.7.B.{.m.%.%.O..X.X.X.X.X.X.X.X.X.X.X.X.X.X.X.X.X.X.X.X.X.X.X.X.X.X.Xv.8.X.;.&.O.9.b. X~.N..X.X.X.X.X.X.X.X.X.X.X.X.X.X.X.X.X.X.X.X.X.X.X.X.X.X.X.X",
".X.X.X.X.X%.6.`. X X~.C @.X..X.X.X.X.X.X.X.X.X.X.X.X.X.X.X.X.X.X.X.X.X.X.X.X.X.XV.M.@.O.;.%.O.;.q.T. X X X.X.X.X.X.X.X.X.X.X.X.X.X.X.X.X.X.X.X.X.X.X.X.X.X.X.X.X",
".X.X.X.X.XB R. X X X Xf.N u .X.X.X.X.X.X.X.X.X.X.X.X.X.X.X.X.X.X.X.X.X.X.X.X.XB.B.q.v $.;.X.+.;.;.r.E.`. X X.X.X.X.X.X.X.X.X.X.X.X.X.X.X.X.X.X.X.X.X.X.X.X.X.X.X",
".X.X.X.X.XE  X X X X X'./ s .X.X.X.X.X.X.X.X.X.X.X.X.X.X.X.X.X.X.X.X.X.X.X.X.Xb.r.;.S x $.v %.;.;.;.2.i.`. X[.z..X.X.X.X.X.X.X.X.X.X.X.X.X.X.X.X.X.X.X.X.X.X.X.X",
".X.X.X.XL E. X X X X X XM.x .X.X.X.X.X.X.X.X.X.X.X.X.X.X.X.X.X.X.X.X.X.X.X.X.X6.;.;.;.z t t  .$.;.;.;.9.h.B. X`.f.U .X.X.X.X.X.X.X.X.X.X.X.X.X.X.X.X.X.X.X.X.X.X",
".X.X.X.X} }. X X X X X X'.V .X.X.X.X.X.X.X.X.X.X.X.X.X.X.X.X.X.X.X.X.X.X.X.X.X%.;.;.;.;.-.-.X.S  .%.;.;.;.q.P.'.`.E.{ W .X.X.X.X.X.X.X.X.X.X.X.X.X.X.X.X.X.X.X.X",
".X.X.X` `. X X X X X X X}.} .X.X.X.X.X.X.X.X.X.X.X.X.X.X.X.X.X.X.X.X.X.X.X.X.Xp S X.X...S S S n v g  .%.;.;.;.6.c.!.W.W.v.[ .X.X.X.X.X.X.X.X.X.X.X.X.X.X.X.X.X.X",
".X.X.X^. X X X X X X X X XB.U .X.X.X.X.X.X.X.X.X.X.X.X.X.X.X.X.X.X.X.X.X.X.X.X.X.X.X.X.X.X.X.X.X.X.Xt p v  .$.;.;.q.6.s././.g.W .X.X.X.X.X.X.X.X.X.X.X.X.X.X.X.X",
".X.XE. X X X X X X X X X X Xk..X.X.X.X.X.X.X.X.X.X.X.X.X.X.X.X.X.X.X.X.X.X.X.X.X.X.X.X.X.X.X.X.X.X.X.X.X.X.Xr y y y i u z b n Z - .X.X.X.X.X.X.X.X.X.X.X.X.X.X.X",
".X` [. X X X X X X X X X X XE.# .X.X.X.X.X.X.X.X.X.X.X.X.X.X.X.X.X.X.X.X.X.X.X.X.X.X.X.X.X.X.X.X.X.X.X.X.X.X.X.X.X.X.X.X.X.X.X.X.X.X.X.X.X.X.X.X.X.X.X.X.X.X.X.X",
".XW W. X X X X X X X X X}.T.W X .X.X.X.X.X.X.X.X.X.X.X.X.X.X.X.X.X.X.X.X.X.X.X.X.X.X.X.X.X.X.X.X.X.X.X.X.X.X.X.X.X.X.X.X.X.X.X.X.X.X.X.X.X.X.X.X.X.X.X.X.X.X.X.X",
".X> ' `. X X X X X X XE.[ 6 @ .X.X.X.X.X.X.X.X.X.X.X.X.X.X.X.X.X.X.X.X.X.X.X.X.X.X.X.X.X.X.X.X.X.X.X.X.X.X.X.X.X.X.X.X.X.X.X.X.X.X.X.X.X.X.X.X.X.X.X.X.X.X.X.X.X",
".X.X.XY N.}. X X XW.f.5 @ .X.X.X.X.X.X.X.X.X.X.X.X.X.X.X.X.X.X.X.X.X.X.X.X.X.X.X.X.X.X.X.X.X.X.X.X.X.X.X.X.X.X.X.X.X.X.X.X.X.X.X.X.X.X.X.X.X.X.X.X.X.X.X.X.X.X.X",
".X.X.X.X.XR e 4 > + O .X.X.X.X.X.X.X.X.X.X.X.X.X.X.X.X.X.X.X.X.X.X.X.X.X.X.X.X.X.X.X.X.X.X.X.X.X.X.X.X.X.X.X.X.X.X.X.X.X.X.X.X.X.X.X.X.X.X.X.X.X.X.X.X.X.X.X.X.X"
};
