/* XPM */
static char *result[] = {
/* columns rows colors chars-per-pixel */
"80 80 186 2 ",
"   c #948D78",
".  c #959073",
"X  c #9E9E7D",
"o  c #9FA27E",
"O  c #A7A57B",
"+  c #AAA67E",
"@  c #86778C",
"#  c #887895",
"$  c #887798",
"%  c #8A7A9C",
"&  c #8E7EA2",
"*  c #948A8C",
"=  c #9E9883",
"-  c #8F809E",
";  c #94889E",
":  c #9A9294",
">  c #9E949C",
",  c #A49F8F",
"<  c #A29A96",
"1  c #A89F9D",
"2  c #A9A787",
"3  c #A9A986",
"4  c #ACAA84",
"5  c #A6A58C",
"6  c #B1AE85",
"7  c #B4B38B",
"8  c #B2B98E",
"9  c #A8A093",
"0  c #ACAC93",
"q  c #ACA49F",
"w  c #B3AF9D",
"e  c #B2B192",
"r  c #B3BA95",
"t  c #BABA95",
"y  c #B5B49B",
"u  c #BCB99E",
"i  c #8F81A3",
"p  c #9284A4",
"a  c #9688A7",
"s  c #9C8FA5",
"d  c #9485AA",
"f  c #9789AB",
"g  c #9A8CAD",
"h  c #9D92A7",
"j  c #9E91AE",
"k  c #9B8DB1",
"l  c #9E91B3",
"z  c #9F93B8",
"x  c #A39AA4",
"c  c #A89FA7",
"v  c #A196AA",
"b  c #A295B5",
"n  c #A59AB5",
"m  c #A295B9",
"M  c #A69BBB",
"N  c #A99DBD",
"B  c #A9A2A7",
"V  c #ACA8A7",
"C  c #ABA4AB",
"Z  c #AFA9A9",
"A  c #B2ADAB",
"S  c #B5B4A3",
"D  c #B9B4A2",
"F  c #B6BAA3",
"G  c #BEBAA1",
"H  c #B6B7AB",
"J  c #AEA8B1",
"K  c #ACA1BD",
"L  c #B2ABB3",
"P  c #B3AABC",
"I  c #B5B0B7",
"U  c #B9B5B6",
"Y  c #BBBAB3",
"T  c #B9B3BA",
"R  c #C1BCA5",
"E  c #C0BDBF",
"W  c #B8C196",
"Q  c #BDC59E",
"!  c #BFC4A1",
"~  c #C2C397",
"^  c #C2C39F",
"/  c #C1C99F",
"(  c #C2C7A6",
")  c #C4CAA4",
"_  c #CBCBA7",
"`  c #C6C4AC",
"'  c #C7C8AA",
"]  c #CCD4AB",
"[  c #C3C4B3",
"{  c #CACCB4",
"}  c #C4C4B9",
"|  c #CAC6B9",
" . c #CED4B4",
".. c #CED0B8",
"X. c #D1D7B5",
"o. c #D3DAB4",
"O. c #D1D5BC",
"+. c #D4D9BD",
"@. c #D8DEBE",
"#. c #DBE2BE",
"$. c #AC9FC1",
"%. c #AEA4C2",
"&. c #B1A6C4",
"*. c #B3ABC5",
"=. c #B3A7C9",
"-. c #B6ACC9",
";. c #B8AFCA",
":. c #BEB7C6",
">. c #BEB9C5",
",. c #BCB3CD",
"<. c #BEB5D0",
"1. c #C3BEC8",
"2. c #C0B7D1",
"3. c #C5BCD5",
"4. c #C8BFD7",
"5. c #C7BED8",
"6. c #C8BFD9",
"7. c #CBCAC4",
"8. c #C8C5C8",
"9. c #D0CDCE",
"0. c #CFD0C3",
"q. c #D5D8C5",
"w. c #D3D2CB",
"e. c #DADBCC",
"r. c #C7C0D7",
"t. c #CAC3D4",
"y. c #CECAD4",
"u. c #CCC3DC",
"i. c #D1CDD3",
"p. c #D2CBDE",
"a. c #D5D2D3",
"s. c #D8D6D5",
"d. c #DBDBD4",
"f. c #DAD6DE",
"g. c #DDDBDA",
"h. c #DBE1C4",
"j. c #DEE3CB",
"k. c #DFE0D3",
"l. c #E3EAC3",
"z. c #E1E5CD",
"x. c #E4E9CC",
"c. c #E8EECD",
"v. c #E2E3D5",
"b. c #E5E9D2",
"n. c #E9EED5",
"m. c #E4E4DA",
"M. c #E6E9DA",
"N. c #EAEDDD",
"B. c #ECF2D5",
"V. c #EDF2DB",
"C. c #F0F5DD",
"Z. c #CFC6E0",
"A. c #D0C7E1",
"S. c #D5CDE6",
"D. c #D6CEE8",
"F. c #D7D0E4",
"G. c #D9D3E2",
"H. c #DDD9E2",
"J. c #D7D0E8",
"K. c #D8D0E9",
"L. c #E1DEE2",
"P. c #E2DDEB",
"I. c #E4E3E3",
"U. c #E8E7E6",
"Y. c #EDEEE4",
"T. c #E5E2ED",
"R. c #E9E7EB",
"E. c #EEEDED",
"W. c #EEF0E2",
"Q. c #EFF0E9",
"!. c #F2F5E4",
"~. c #F5F9E6",
"^. c #F3F5EB",
"/. c #F6F9ED",
"(. c #F8FBED",
"). c #E8E3F2",
"_. c #EDEAF3",
"`. c #F4F3F4",
"'. c #F7F9F2",
"]. c #F9FBF1",
"[. c #FAFCF1",
"{. c #FAFCF4",
"}. c #F6F4F9",
"|. c #FDFEFA",
" X c #FFFFFE",
".X c None",
/* pixels */
".X.X.X.X.X.X.X.X.X.X.X.X.X.X.X.X.X.X.X.X.X.X.X.X.X.X.X.X.X.X.X.X.X.X.X.X.X.X.X.X.X.X.X.X.X.X.X.X.X.X.X.X.X.X.X.X.X.X.X.X.X.X.X.X.X.X.X.X.X.X.X.X.X.X.X.X.X.X.X.X",
".X.X.X.X.X.X.X.X.X.X.X.X.X.X.X.X.X.X.X.X.X.X.X.X.X.X.X.X.X.X.X.X.X.X.X.X.X.X.X.X.X.X.X.X.X.X.X.X.X.X.X.X.X.X.X.X.X.X.X.X.X.X.X.X.X.X.X.X.X.X.X.X.X.X.X.X.X.X.X.X",
".X.X.X.X.X.X.X.X.X.X.X.X.X.X.X.X.X.X.X.X.X.X.X.X.X.X.X.X.X.X.X.X.X.X.X.X.X.X.X.X.X.X.X.X.X0 b. Xl.] .X.X.X.X.X.X.X.X.X.X.X.X.X.X.X.X.X.X.X.X.X.X.X.X.X.X.X.X.X.X",
".X.X.X.X.X.X.X.X.X.X.X.X.X.X.X.X.X.X.X.X.X.X.X.X.X.X.X.X.X.X.X.X.X.X.X.X.X.X.X.X.X.X.X.XM 9.'. X/.!.Y.~.] .X.X.X.X.X.X.X.X.X.X.X.X.X.X.X.X.X.X.X.X.X.X.X.X.X.X.X",
".X.X.X.X.X.X.X.X.X.X.X.X.X.X.X.X.X.X.X.X.X.X.X.X.X.X.X.X.X.X.X.X.X.X.X.X.X.X.X.X.X.X.XM u.P. X X X X X X'.x.! .X.X.X.X.X.X.X.X.X.X.X.X.X.X.X.X.X.X.X.X.X.X.X.X.X",
".X.X.X.X.X.X.X.X.X.X.X.X.X.X.X.X.X.X.X.X.X.X.X.X.X.X.X.X.X.X.X.X.X.X.X.X.X.X.X.X.X.X.X=.F.m.|. X X X X X X XM..X.X.X.X.X.X.X.X.X.X.X.X.X.X.X.X.X.X.X.X.X.X.X.X.X",
".X.X.X.X.X.X.X.X.X.X.X.X.X.X.X.X.X.X.X.X.X.X.X.X.X.X.X.X.X.X.X.X.X.X.X.X.X.X.X.X.X.Xk.r.D.F.N.|. X X X X X X Xh..X.X.X.X.X.X.X.X.X.X.X.X.X.X.X.X.X.X.X.X.X.X.X.X",
".X.X.X.X.X.X.X.X.X.X.X.X.X.X.X.X.X.X.X.X.X.X.X.X.X.X.X.Xo.l.!.|.M.N.W.!.~.~.{. X X X^.u.S.D.G.N.|. X X X X X X/..X.X.X.X.X.X.X.X.X.X.X.X.X.X.X.X.X.X.X.X.X.X.X.X",
".X.X.X.X.X.X.X.X.X.X.X.X.X.X.X.X.X.X.X.X.X.X.X.X.XW l./.^.].|. X X X X X X X X X X X}.u.S.S.D.G.n.^.|.|. X X X{.X..X.X.X.X.X.X.X.X.X.X.X.X.X.X.X.X.X.X.X.X.X.X.X",
".X.X.X.X.X.X.X.X.X.X.X.X.X.X.X.X.X.X.X.X.X.X.XO r ( h.B.]. X X X X X X X X X X X[.[.v.3.D.S.S.S.S.g.b.b.!.[.[./.O..X.X.X.X.X.X.X.X.X.X.X.X.X.X.X.X.X.X.X.X.X.X.X",
".X.X.X.X.X.X.X.X.X.X.X.X.X.X.X.X.X.X.X.X.X.X^ h.!. X X X X X X X X X X X[.~.^._.v.v.2.N S.S.S.S.S.S.D.K.g.v.v.d.t..X.X.X.X.X.X.X.X.X.X.X.X.X.X.X.X.X.X.X.X.X.X.X",
".X.X.X.X.X.X.X.X.X.X.X.X.X.X.X.X.X.X.X.X.XM.[. X X X X X X X].].!.C.R.).L.d.f.S.S.5.*.b u.D.S.S.S.D.t.1 :.D.D.S.<..X.X.X.X.X.X.X.X.X.X.X.X.X.X.X.X.X.X.X.X.X.X.X",
".X.X.X.X.X.X.X.X.X.X.X.X.X.X.X.X.X.X.X.X X X X X X X X X X X|.b.s.f.S.S.D.D.S.u.,.,.3.l &.S.S.S.S.D.u.*   3.D.A.%..X.X.X.X.X.X.X.X.X.X.X.X.X.X.X.X.X.X.X.X.X.X.X",
".X.X.X.X.X.X.X.X.X.X.X.X.X.X.X.X.X.X.Xb. X X X X X X X X X X Xn.[ D.D.S.A.u.3.,.3.3.<.M l ,.u.S.J.D.S.p.t.A.S.,..X.X.X.X.X.X.X.X.X.X.X.X.X.X.X.X.X.X.X.X.X.X.X.X",
".X.X.X.X.X.X.X.X.X.X.X.X.X.X.X.X.X.X+ !. X X X X X X X X[.~.^.M.F u.u.5.,.,.2.4.3.&.&.m M l ,.;.<.u.S.D.D.S.3.K .X.X.X.X.X.X.X.X.X.X.X.X.X.X.X.X.X.X.X.X.X.X.X.X",
".X.X.X.X.X.X.X.X.X.X.X.X.X.X.X.X.X+.' |. X X X X X X X X/.!.V.b.( I ,.,.3.4.4.,.N &.M m z f N M f ,.,.A.K.6.P M..X.X.X.X.X.X.X.X.X.X.X.X.X.X.X.X.X.X.X.X.X.X.X.X",
".X.X.X.X.X.X.X.X.X.X.X.X.X.X.X! M.].V.|. X X X X X X X X X X X XV.U %.,.3.,.$.M &.%.l k f d p N *.3.M b b K k. X^..X.X.X.X.X.X.X.X.X.X.X.X.X.X.X.X.X.X.X.X.X.X.X",
".X.X.X.X.X.X.X.X.X.X.X.X.X.X.XN. X X|. X X|. X X X X X X X X X|./.9.g l m N %.,.4.n p d d d % p %.,.&.C m._.|. X/..X.X.X.X.X.X.X.X.X.X.X.X.X.X.X.X.X.X.X.X.X.X.X",
".X.X.X.X.X.X.X.X.X.X.X.X.X.XN. X X X X X XV.C.[.[.[.[.[.[.].Y.b.v.S.4.3.3.3.3.4.4.*.p i p K ,.,.N s B n. X X X X/..X.X.X.X.X.X.X.X.X.X.X.X.X.X.X.X.X.X.X.X.X.X.X",
".X.X.X.X.X.X.X.X.X.X.X.X.XX. X X X X X X X|.B.z.v.v.v.v.v.g.S.S.S.S.u.4.4.4.4.4.4.2.,.,.3.4.3.3.4.i.e.M.~. X X Xb..X.X.X.X.X.X.X.X.X.X.X.X.X.X.X.X.X.X.X.X.X.X.X",
".X.X.X.X.X.X.X.X.X.X.X.X7 W. X X X X X X X X{.m.A.D.D.D.S.S.S.S.S.A.4.4.4.4.4.4.4.4.4.4.4.4.3.-.,.4.3.t.w.L.C.x.Q .X.X.X.X.X.X.X.X.X.X.X.X.X.X.X.X.X.X.X.X.X.X.X",
".X.X.X.X.X.X.X.X.X.X.XO o.|. X XC.B.z.h.#.n.^.g.u.u.S.D.S.S.S.S.A.5.4.4.4.4.4.4.3.2.4.4.4.4.4.-.%.2.4.4.4.4.1.x .X.X.X.X.X.X.X.X.X.X.X.X.X.X.X.X.X.X.X.X.X.X.X.X",
".X.X.X.X.X.X.X.X.X.X6 o.!. X X X|.|.{.!.X./ [ u.D.u.2.5.6.u.u.4.4.4.4.4.4.4.3.3.,.4.4.4.4.3.3.&.k K ,.2.<.-.b .X.X.X.X.X.X.X.X.X.X.X.X.X.X.X.X.X.X.X.X.X.X.X.X.X",
".X.X.X.X.X.X.X.X.X.XC.~.~. X X X X X X X XV. .} t.A.m & l K ;.4.4.4.4.4.4.4.,.-.3.4.4.3.3.-.b g f m N %.l T ^.!.@.) .X.X.X.X.X.X.X.X.X.X.X.X.X.X.X.X.X.X.X.X.X.X",
".X.X.X.X.X.X.X.X.XC.{.!.{. X X X X X X X X X{.n.{ Y : m &.-.,.3.4.4.4.3.,.,.&.-.<.4.<.,.%.l l N n 1 P %.M b. X X|.V.X..X.X.X.X.X.X.X.X.X.X.X.X.X.X.X.X.X.X.X.X.X",
".X.X.X.X.X.X.X.Xz.|.{.C. X X X X X X X X X X X X(.z.t < b K -.,.,.,.,.-.%.M %.-.-.,.&.b f l &.q [ e.*.%.,.a.B.]. X X].V..X.X.X.X.X.X.X{ u .X.X.X.X.X.X.X.X.X.X.X",
".X.X.X.X.X.X.X( !. X X|. X X X X X X X X X X X X X X/.X.5 h n N %.-.&.M k p z M M m & .X- J G N.{.q.:.3.4.4.t.d.V.|. X XC.#..X.X.X.X.XT.9 .X.X.X.X.X.X.X.X.X.X.X",
".X.X.X.X.X.X.X7.b.Y.}.[.[. X X X X X X X X X X X X X X X{.q.y A J C c x c x ; @ @ .X.Xt y j.|.{.q.E 4.4.4.4.4.4.y.z.E.[.|. X(.#.8 r U.u., .X.X.X.X.X.X.X.X.X.X.X",
".X.X.X.X.X.X.X,.D.S.F.k.v.E.~.~. X X X X X X X X X X X X X X XN.{ ` G G R D 2 2 D ` z.~. X{.^.{ q 4.4.4.4.4.4.4.4.4.t.e.I.^.~.c.8 w.S.&.8.l..X.X.X.X.X.X.X.X.X.X",
".X.X.X.X.X.X.Xj u.S.S.D.D.S.g.g.V.C.|. X X X X X X X X X X X X X X X X X X X~.~. X X X X X|.z.= *.4.4.4.4.4.4.4.4.4.4.4.4.9.w.T Z t.6.N i.(.n.o..X.X.X.X.X.X.X.X",
".X.X.X.X.X.X.X.Xp l M &.3.u.D.S.f.f.M.B.B.B.B.V.|.|.|.|.|.|.|.|.|.|.|. X!.|. X X X X X X X X'.+.S ,.4.4.4.4.4.4.4.4.4.4.4.4.3.k ,.4.4.&.7.C.|.^.x..X.X.X.X.X.X.X",
".X.X.X.X.X.X.X.X.X.X.X& l &.Z.S.D.D.F.F.F.F.F.F.H.b.b.b.b.b.b.b.b.b.b.b.h.^. X X X X X X X X X|.h.A ;.<.3.4.4.4.4.4.4.4.4.4.4.j ,.4.4.4.:.>.z.N.Y.V. ..X.X.X.X.X",
".X.X.X.X.X.X.X.X.X.X.X.X.Xf M &.u.S.K.D.D.S.S.S.S.S.S.S.S.S.S.S.K.K.K.K.S.m.{. X X X X X X X X^.(.| a d b K K K ,.,.,.-.&.-.,.N %.,.,.,.-.m 4.V w 0.^....X.X.X.X",
".X.X.X.X.X.X.X.X.X.X.X.X.X.Xf l K N <.4.u.A.S.S.S.S.S.S.S.S.u.<.,.=.&.N &.A.M.|. X X X X X X XY.7.y.3.g $ .X.X.X.X.X.X.X.Xd p l m m %.%.&.N 4.m N L | ^.u .X.X.X",
".X.X.X.X.X.X.X.X.X.X.X.X.X.XN &.&.&.&.p p b N &.<.<.<.<.,.&.M M f % % .Xf u.G.N.|. X X X X].x.n.u.<.5.u.&..X.X.X.X.X.X.X.X.X.X.XM ,.&.&.-.%.4.%.l K > e.{ .X.X.X",
".X.X.X.X.X.X.X.X.X.X.X.X.X.X$.&.,.,.,.M M k b -.3.3.3.3.3.2.,.,.,.,.,.-.g ;.S.G.b.^.|. X|./.w.K 3.A.%.<.u.,..X.X.X.X.X.X.X.X.X.Xb 4.4.<.&.-.4.K b n n B +..X.X.X",
".X.X.X.X.X.X.X.X.X.X.X.X.X.XM -.A.S.S.S.S.5.,.M &.4.4.4.4.4.4.,.3.4.4.4.3.n *.<.u.K.M.(.x.7.A.3.%.,.u.;.&.u.,..X.X.X.X.X.X.X.X.Xi &.3.3.M N 3.g a &.n n n l .X.X",
".X.X.X.X.X.X.X.X.X.X.X.X.X.Xl ,.S.S.S.S.S.S.S.4.M *.4.4.4.4.3.%.3.4.4.4.4.d.s.T L N 2.d.d.*.%.u.A.-.&.u.-.K u.,..X.X.X.X.X.X.X.X.Xl &.-.l % l p g g M n M *.g .X",
".X.X.X.X.X.X.X.X.X.X.X.X.X.X.X5.S.S.S.S.S.S.S.S.3.M -.4.4.4.,.%.3.4.4.4.a.~. X[.M.8.Y b %.3.<.%.-.u.<.m <.-.m ;..X.X.X.X.X.X.X.X.X.X.X.X.X.X.X.X% j M b b K ,.p ",
".X.X.X.X.X.X.X.X.X.X.X.X.X.X-.A.D.S.G.b.b.b.b.b.K.4.N 3.4.4.&.%.4.4.4.4.U. X X X X|.^.g.| v *.3.&.M <.3.M <.-.g n .X.X.X.X.X.X.X.X.X.X.X.X.X.X.X.X% k l n b l p ",
".X.X.X.X.X.X.X.X.X.X.X.X.X.X4.D.F.m.V.|.|.|.|.|.].m.,.;.3.2.M %.4.4.3.9.~. X X X X X X X|.b.Y n *.&.g %.3.j %.&.- .X.X.X.X.X.X.X.X.X.X.X.X.X.X.X.X.X.Xp p %.p .X",
".X.X.X.X.X.X.X.X.X.X.X.X.Xg Z.D.G.N.|. X X X X X X/.L.U P N N -.2.4.3.9.~. X X X X X X X X X X!.w.n %.$ n K # n .X.X.X.X.X.X.X.X.X.X.X.X.X.X.X.X.X.X.X.X.Xg .X.X",
".X.X.X.X.X.X.X.X.X.X.X.X.XM S.S.D.f.!. X X X X X X X X+.: M ,.,.2.4.4.p.N.|. X X X X X X X X X X X X.X.X.X.X.X.X.X.X.X.X.X.X.X.X.X.X.X.X.X.X.X.X.X.X.X.X.X.X.X.X",
".X.X.X.X.X.X.X.X.X.X.X.X.Xm S.S.Z.D.g.~. X X X X X X XN.C &.,.4.4.4.6.S.G.W. X X X X X X X X X X X X X.X.X.X.X.X.X.X.X.X.X.X.X.X.X.X.X.X.X.X.X.X.X.X.X.X.X.X.X.X",
".X.X.X.X.X.X.X.X.X.X.X.X.Xf u.S.u.S.F.V. X X X X X X X/.I b -.3.4.4.A.S.S.f.n.^.|.|.|. X X X X X X X X X.X.X.X.X.X.X.X.X.X.X.X.X.X.X.X.X.X.X.X.X.X.X.X.X.X.X.X.X",
".X.X.X.X.X.X.X.X.X.X.X.X.X.X=.Z.3.u.D.f.!. X X X X X X XR # M -.3.4.u.S.Z.u.S.K.v.b.M.`.'.[. X X X X X X(..X.X.X.X.X.X.X.X.X.X.X.X.X.X.X.X.X.X.X.X.X.X.X.X.X.X.X",
".X.X.X.X.X.X.X.X.X.X.X.X.X.Xd %.3.-.S.D.g.~. X X X X X X{ .X& b &.,.3.u.u.,.,.u.D.D.S.S.g.m._._.E.~.|.Q.g..X.X.X.X.X.X.X.X.X.X.X.X.X.X.X.X.X.X.X.X.X.X.X.X.X.X.X",
".X.X.X.X.X.X.X.X.X.X.X.X.X.X.Xf &.&.u.D.S.g.~. X X X X X+..X.X.Xb M ,.3.4.3.,.-.,.u.S.S.D.D.S.S.F.g.f.y.3.m .X.X.X.X.X.X.X.X.X.X.X.X.X.X.X.X.X.X.X.X.X.X.X.X.X.X",
".X.X.X.X.X.X.X.X.X.X.X.X.X.X.X.Xd g 4.D.D.A.d.(. X X X XO..X.X.X.X.Xp m -.;.-.%.k m ,.4.A.S.S.D.S.Z.4.4.,.k .X.X.X.X.X.X.X.X.X.X.X.X.X.X.X.X.X.X.X.X.X.X.X.X.X.X",
".X.X.X.X.X.X.X.X.X.X.X.X.X.X.X.Xm k 6.D.S.A.4.e.M.`._.s..X.X.X.X.X.X.X.X.X.X& m m & % f &.<.u.S.Z.4.4.4.&..X.X.X.X.X.X.X.X.X.X.X.X.X.X.X.X.X.X.X.X.X.X.X.X.X.X.X",
".X.X.X.X.X.X.X.X.X.X.X.X.X.XN ,.A.,.u.D.S.u.4.4.4.3.K .X.X.X.X.X.X.X.X.X.X.X.X.X.X.X% g m %.,.3.4.4.4.3.b .X.X.X.X.X.X.X.X.X.X.X.X.X.X.X.X.X.X.X.X.X.X.X.X.X.X.X",
".X.X.X.X.X.X.X.X.X.X.X.XN ,.u.S.D.u.A.D.A.4.4.4.3.N .X.X.X.X.X.X.X.X.X.X.X.X.X.X.X.X-.u.u.u.,.,.4.4.4.,.p .X.X.X.X.X.X.X.X.X.X.X.X.X.X.X.X.X.X.X.X.X.X.X.X.X.X.X",
".X.X.X.X.X.X.X.X.X.X.X%.5.S.D.S.S.S.S.S.u.4.4.3.N f .X.X.X.X.X.X.X.X.X.X.X.X.X.X.X,.S.D.S.S.u.3.4.4.4.,.p .X.X.X.X.X.X.X.X.X.X.X.X.X.X.X.X.X.X.X.X.X.X.X.X.X.X.X",
".X.X.X.X.X.X.X.X.X.X%.u.S.S.S.S.S.S.S.S.u.4.4.-.k .X.X.X.X.X.X.X.X.X.X.X.X.X.X.X,.S.S.S.S.S.u.4.4.4.4.4.M .X.X.X.X.X.X.X.X.X.X.X.X.X.X.X.X.X.X.X.X.X.X.X.X.X.X.X",
".X.X.X.X.X.X.X.X.X.Xu.S.S.S.S.S.S.S.S.A.4.4.4.%..X.X.X.X.X.X.X.X.X.X.X.X.X.X.X%.A.S.S.S.S.S.u.4.4.4.4.4.%..X.X.X.X.X.X.X.X.X.X.X.X.X.X.X.X.X.X.X.X.X.X.X.X.X.X.X",
".X.X.X.X.X.X.X.X.X%.u.D.S.S.S.S.S.S.S.u.4.4.3.b .X.X.X.X.X.X.X.X.X.X.X.X.X.X.X,.S.S.S.S.S.S.u.4.4.4.4.3.l .X.X.X.X.X.X.X.X.X.X.X.X.X.X.X.X.X.X.X.X.X.X.X.X.X.X.X",
".X.X.X.X.X.X.X.X.X3.A.S.S.S.S.S.S.S.S.4.4.4.;..X.X.X.X.X.X.X.X.X.X.X.X.X.X.X.X%.u.S.S.S.S.A.4.4.4.4.4.-.d .X.X.X.X.X.X.X.X.X.X.X.X.X.X.X.X.X.X.X.X.X.X.X.X.X.X.X",
".X.X.X.X.X.X.X.X.X;.D.S.S.S.S.S.S.S.u.4.4.3.M .X.X.X.X.X.X.X.X.X.X.X.X.X.X.X.X%.3.Z.S.S.S.u.4.4.4.4.4.n .X.X.X.X.X.X.X.X.X.X.X.X.X.X.X.X.X.X.X.X.X.X.X.X.X.X.X.X",
".X.X.X.X.X.X.X.X.X3.D.S.S.S.S.S.S.S.6.4.3.%..X.X.X.X.X.X.X.X.X.X.X.X.X.X.X.X.Xb 2.4.A.S.S.5.4.4.4.4.,.d .X.X.X.X.X.X.X.X.X.X.X.X.X.X.X.X.X.X.X.X.X.X.X.X.X.X.X.X",
".X.X.X.X.X.X.X.X.Xu.D.S.S.S.S.D.S.u.4.<.M f .X.X.X.X.X.X.X.X.X.X.X.X.X.X.X.X.X.XK 3.4.A.u.4.4.4.4.3.N .X.X.X.X.X.X.X.X.X.X.X.X.X.X.X.X.X.X.X.X.X.X.X.X.X.X.X.X.X",
".X.X.X.X.X.X.X.Xb u.D.S.S.S.S.S.u.2.N g .X.X.X.X.X.X.X.X.X.X.X.X.X.X.X.X.X.X.X.Xf ,.4.6.6.4.4.4.3.%..X.X.X.X.X.X.X.X.X.X.X.X.X.X.X.X.X.X.X.X.X.X.X.X.X.X.X.X.X.X",
".X.X.X.X.X.X.X.Xg u.D.S.S.D.u.3.%.g .X.X.X.X.X.X.X.X.X.X.X.X.X.X.X.X.X.X.X.X.X.X.X&.3.4.4.4.4.4.-.f .X.X.X.X.X.X.X.X.X.X.X.X.X.X.X.X.X.X.X.X.X.X.X.X.X.X.X.X.X.X",
".X.X.X.X.X.X.X.Xg A.D.S.D.u.M p .X.X.X.X.X.X.X.X.X.X.X.X.X.X.X.X.X.X.X.X.X.X.X.X.Xg 2.4.4.4.4.3.b .X.X.X.X.X.X.X.X.X.X.X.X.X.X.X.X.X.X.X.X.X.X.X.X.X.X.X.X.X.X.X",
".X.X.X.X.X.X.X.X%.S.S.D.A.n .X.X.X.X.X.X.X.X.X.X.X.X.X.X.X.X.X.X.X.X.X.X.X.X.X.X.XM ,.4.4.4.4.,.d .X.X.X.X.X.X.X.X.X.X.X.X.X.X.X.X.X.X.X.X.X.X.X.X.X.X.X.X.X.X.X",
".X.X.X.X.X.X.X& 2.S.S.S.&..X.X.X.X.X.X.X.X.X.X.X.X.X.X.X.X.X.X.X.X.X.X.X.X.X.X.X.Xl &.4.4.4.4.M .X.X.X.X.X.X.X.X.X.X.X.X.X.X.X.X.X.X.X.X.X.X.X.X.X.X.X.X.X.X.X.X",
".X.X.X.X.X.Xl M Z.S.S.,.d .X.X.X.X.X.X.X.X.X.X.X.X.X.X.X.X.X.X.X.X.X.X.X.X.X.X.X.X% K 4.4.4.4.g .X.X.X.X.X.X.X.X.X.X.X.X.X.X.X.X.X.X.X.X.X.X.X.X.X.X.X.X.X.X.X.X",
".X.X.X.X.Xg *.<.S.S.A.l .X.X.X.X.X.X.X.X.X.X.X.X.X.X.X.X.X.X.X.X.X.X.X.X.X.X.X.X.X* K 4.4.4.4.j F .X.X.X.X.X.X.X.X.X.X.X.X.X.X.X.X.X.X.X.X.X.X.X.X.X.X.X.X.X.X.X",
".X.X.X.Xl ,.,.u.D.D.u.M .X.X.X.X.X.X.X.X.X.X.X.X.X.X.X.X.X.X.X.X.X.X.X.X.X.X.X.X~ A b 4.4.4.3.:.^.x..X.X.X.X.X.X.X.X.X.X.X.X.X.X.X.X.X.X.X.X.X.X.X.X.X.X.X.X.X.X",
".X.X.X.X*.,.>.d.g.a.*.%..X.X.X.X.X.X.X.X.X.X.X.X.X.X.X.X.X.X.X.X.X.X.X.X.X.X.XO.B.A M 4.4.4.,.e.|. X|.V.x..X.X.X.X.X.X.X.X.X.X.X.X.X.X.X.X.X.X.X.X.X.X.X.X.X.X.X",
".X.X.X.X&.K U.~.~.c.H l .X.X.X.X.X.X.X.X.X.X.X.X.X.X.X.X.X.X.X.X.X.X.X.X.X.Xj.|.[.A &.4.4.,.3.i.!. X X X].N...) o .X.X.X.X.X.X.X.X.X.X.X.X.X.X.X.X.X.X.X.X.X.X.X",
".X.X.X.Xp w. X X X|. .5 .X.X.X.X.X.X.X.X.X.X.X.X.X.X.X.X.X.X.X.X.X.X.X.X.Xh.].|.m.n K 4.3.N 4.4.a.n.V.|. X X X^.v.! . .X.X.X.X.X.X.X.X.X.X.X.X.X.X.X.X.X.X.X.X.X",
".X.X.X.X} |. X X X X'.) .X.X.X.X.X.X.X.X.X.X.X.X.X.X.X.X.X.X.X.X.X.X.X.X4 W.!.i.4.-.g %.M m 3.3.4.t.t.a.b.`.|. X X{.z.( 5 . .X.X.X.X.X.X.X.X.X.X.X.X.X.X.X.X.X.X",
".X.X.X_ ]. X X X X X X^. ..X.X.X.X.X.X.X.X.X.X.X.X.X.X.X.X.X.X.X.X.X.X.X} I.a.4.4.4.,.N m &.-.&.*.,.2.3.4.t.e.U./.|. X X|.z...D y .X.X.X.X.X.X.X.X.X.X.X.X.X.X.X",
".X.X^ /. X X X X X X X X/.o..X.X.X.X.X.X.X.X.X.X.X.X.X.X.X.X.X.X.X.X.X.Xd b %.,.,.,.,.&.M g f p p p g %.,.,.3.4.w.g.P.P.P.P.P.T.f..X.X.X.X.X.X.X.X.X.X.X.X.X.X.X",
".X3 M. X X X X X X X X X X!.h..X.X.X.X.X.X.X.X.X.X.X.X.X.X.X.X.X.X.X.X.X.X.X.X.X.X.X.X.X.X.X.X.X.X.X.Xd p k M %.%.%.%.N m l a a p .X.X.X.X.X.X.X.X.X.X.X.X.X.X.X",
".X_ ^. X X X X X X X X X X X|.!.r .X.X.X.X.X.X.X.X.X.X.X.X.X.X.X.X.X.X.X.X.X.X.X.X.X.X.X.X.X.X.X.X.X.X.X.X.X.X.X.X.X.X.X.X.X.X.X.X.X.X.X.X.X.X.X.X.X.X.X.X.X.X.X",
".Xe ~. X X X X X X X X X X].n.] r .X.X.X.X.X.X.X.X.X.X.X.X.X.X.X.X.X.X.X.X.X.X.X.X.X.X.X.X.X.X.X.X.X.X.X.X.X.X.X.X.X.X.X.X.X.X.X.X.X.X.X.X.X.X.X.X.X.X.X.X.X.X.X",
".XX ! M.|. X X X X X X|.V.o.) .X.X.X.X.X.X.X.X.X.X.X.X.X.X.X.X.X.X.X.X.X.X.X.X.X.X.X.X.X.X.X.X.X.X.X.X.X.X.X.X.X.X.X.X.X.X.X.X.X.X.X.X.X.X.X.X.X.X.X.X.X.X.X.X.X",
".X.X.X3 0 { b.]. X~.x.h./ .X.X.X.X.X.X.X.X.X.X.X.X.X.X.X.X.X.X.X.X.X.X.X.X.X.X.X.X.X.X.X.X.X.X.X.X.X.X.X.X.X.X.X.X.X.X.X.X.X.X.X.X.X.X.X.X.X.X.X.X.X.X.X.X.X.X.X",
".X.X.X.X.X.X. = e Q W 8 .X.X.X.X.X.X.X.X.X.X.X.X.X.X.X.X.X.X.X.X.X.X.X.X.X.X.X.X.X.X.X.X.X.X.X.X.X.X.X.X.X.X.X.X.X.X.X.X.X.X.X.X.X.X.X.X.X.X.X.X.X.X.X.X.X.X.X.X"
};
