/* XPM */
static char *result[] = {
/* columns rows colors chars-per-pixel */
"80 80 181 2 ",
"   c #8B8666",
".  c #8B8274",
"X  c #958F75",
"o  c #A4A275",
"O  c #A5A47D",
"+  c #867697",
"@  c #877798",
"#  c #8C7C9D",
"$  c #8E7EA2",
"%  c #907FA7",
"&  c #948B8C",
"*  c #9B9A8B",
"=  c #8C8195",
"-  c #9A939C",
";  c #A29C87",
":  c #A09697",
">  c #A49D95",
",  c #A39D9C",
"<  c #A6A483",
"1  c #AAA585",
"2  c #ABAB83",
"3  c #AAA58B",
"4  c #AFAA89",
"5  c #B0AF85",
"6  c #B3B58B",
"7  c #ACA695",
"8  c #AEAB9E",
"9  c #B0AF95",
"0  c #B4B394",
"q  c #B6BC94",
"w  c #BBB893",
"e  c #B2B29D",
"r  c #BCBD9D",
"t  c #8F80A0",
"y  c #9384A4",
"u  c #9788A7",
"i  c #9B8FA7",
"p  c #9485AB",
"a  c #9789A9",
"s  c #998CAC",
"d  c #9C93A5",
"f  c #9E91AF",
"g  c #9B8DB2",
"h  c #9E91B4",
"j  c #A39AAB",
"k  c #A195B4",
"l  c #A599B5",
"z  c #A295B9",
"x  c #A69BBC",
"c  c #A99DBC",
"v  c #ACA4A3",
"b  c #ADA9A7",
"n  c #A8A0AE",
"m  c #B1ACA9",
"M  c #BBB7A7",
"N  c #B5B4AC",
"B  c #ACA3B4",
"V  c #ABA1BE",
"C  c #B1A9B5",
"Z  c #B3ACBD",
"A  c #B8AFB9",
"S  c #BCBAB9",
"D  c #BFBCBC",
"F  c #C2BEA7",
"G  c #C1BCBE",
"H  c #B7C095",
"J  c #BDC39B",
"K  c #BEC4A2",
"L  c #C1C29A",
"P  c #C1C99E",
"I  c #C1C7A6",
"U  c #C4CBA3",
"Y  c #C8CEA5",
"T  c #C7C6AE",
"R  c #C6CBAC",
"E  c #C9CEAD",
"W  c #C8D1A7",
"Q  c #CCD4AC",
"!  c #C8CAB6",
"~  c #C6C7BA",
"^  c #C7C8BD",
"/  c #CDD2B3",
"(  c #CCD1B8",
")  c #D1D6B6",
"_  c #D2DAB3",
"`  c #D1D6BD",
"'  c #D5DBBB",
"]  c #DAE1BC",
"[  c #AB9FC0",
"{  c #ADA4C2",
"}  c #B1A7C4",
"|  c #B4AAC6",
" . c #B2A7C8",
".. c #B6ADC9",
"X. c #B8AFCA",
"o. c #BBB3C5",
"O. c #BDB9C2",
"+. c #BCB3CD",
"@. c #BEB5D1",
"#. c #C0BDC1",
"$. c #C3BCCC",
"%. c #C0B7D1",
"&. c #C5BCD5",
"*. c #C8BFD7",
"=. c #C7BED8",
"-. c #C8BFD9",
";. c #C5C3C3",
":. c #CFCEC6",
">. c #C8C4CB",
",. c #CCC9CC",
"<. c #D1CECF",
"1. c #D3D4C2",
"2. c #D6DAC4",
"3. c #D9DBC5",
"4. c #D4D3CE",
"5. c #DADCCC",
"6. c #C7C0D5",
"7. c #CBC4D4",
"8. c #CEC9D2",
"9. c #CBC3DC",
"0. c #CDC8DA",
"q. c #D2CED2",
"w. c #D2CBDE",
"e. c #D6D3D4",
"r. c #DCDCD4",
"t. c #D5D1DB",
"y. c #DAD7DD",
"u. c #DDDBDB",
"i. c #E0DFDE",
"p. c #DEE3C4",
"a. c #DEE2CC",
"s. c #E0E7C5",
"d. c #E4EBC7",
"f. c #E1E6CD",
"g. c #E4EACC",
"h. c #EAF1CE",
"j. c #E1E3D3",
"k. c #E6EAD3",
"l. c #E9EDD5",
"z. c #E3E3DC",
"x. c #E6E8DA",
"c. c #EAEDDD",
"v. c #ECF2D5",
"b. c #EEF2DB",
"n. c #F1F6DE",
"m. c #CFC6E0",
"M. c #D0C7E1",
"N. c #D5CDE6",
"B. c #D6CEE8",
"V. c #D7D1E3",
"C. c #D9D3E4",
"Z. c #DEDAE2",
"A. c #D9D1E9",
"S. c #DDD8E8",
"D. c #E2DDEB",
"F. c #E4E3E2",
"G. c #EBECE3",
"H. c #E5E0ED",
"J. c #E8E5EB",
"K. c #EDECEA",
"L. c #EEF1E3",
"P. c #F2F5E3",
"I. c #F4F8E5",
"U. c #F3F5EB",
"Y. c #F3F4ED",
"T. c #F6F9EB",
"R. c #F6F8EE",
"E. c #F8FBED",
"W. c #F8FBEE",
"Q. c #E6E1F1",
"!. c #E9E6F1",
"~. c #ECE9F3",
"^. c #F5F4F3",
"/. c #F7F8F1",
"(. c #FAFCF1",
"). c #FAFCF3",
"_. c #FBFCF5",
"`. c #F7F5FA",
"'. c #FDFDF9",
"]. c #FEFFFC",
"[. c None",
/* pixels */
"[.[.[.[.[.[.[.[.[.[.[.[.[.[.[.[.[.[.[.[.[.[.[.[.[.[.[.[.[.[.[.[.[.[.[.[.[.[.[.[.[.[.[.[.[.[.[.[.[.[.[.[.[.[.[.[.[.[.[.[.[.[.[.[.[.[.[.[.[.[.[.[.[.[.[.[.[.[.[.[.",
"[.[.[.[.[.[.[.[.[.[.[.[.[.[.[.[.[.[.[.[.[.[.[.[.[.[.[.[.[.[.[.[.[.[.[.[.[.[.[.[.[.[.[.[.[.[.[.[.[.[.[.[.[.[.[.[.[.[.[.[.[.[.[.[.[.[.[.[.[.[.[.[.[.[.[.[.[.[.[.[.",
"[.[.[.[.[.[.[.[.[.[.[.[.[.[.[.[.[.[.[.[.[.[.[.[.[.[.[.[.[.[.[.[.[.[.[.[.[.[.[.[.[.[.[.- U ).I._ U [.[.[.[.[.[.[.[.[.[.[.[.[.[.[.[.[.[.[.[.[.[.[.[.[.[.[.[.[.[.[.",
"[.[.[.[.[.[.[.[.[.[.[.[.[.[.[.[.[.[.[.[.[.[.[.[.[.[.[.[.[.[.[.[.[.[.[.[.[.[.[.[.[.[.g | z.].'.U.L.Y.g.[.[.[.[.[.[.[.[.[.[.[.[.[.[.[.[.[.[.[.[.[.[.[.[.[.[.[.[.[.",
"[.[.[.[.[.[.[.[.[.[.[.[.[.[.[.[.[.[.[.[.[.[.[.[.[.[.[.[.[.[.[.[.[.[.[.[.[.[.[.[.[.s X.N.^.].].].].].'.P.) [.[.[.[.[.[.[.[.[.[.[.[.[.[.[.[.[.[.[.[.[.[.[.[.[.[.[.",
"[.[.[.[.[.[.[.[.[.[.[.[.[.[.[.[.[.[.[.[.[.[.[.[.[.[.[.[.[.[.[.[.[.[.` g.v.v.v.v.s.S -.y.P.].].].].].].].'.` [.[.[.[.[.[.[.[.[.[.[.[.[.[.[.[.[.[.[.[.[.[.[.[.[.[.",
"[.[.[.[.[.[.[.[.[.[.[.[.[.[.[.[.[.[.[.[.[.[.[.[.[.[.[.[.[.[.[.c.T.].].].].].].].].S.m.B.u.T.].].].].].].].Y.Q [.[.[.[.[.[.[.[.[.[.[.[.[.[.[.[.[.[.[.[.[.[.[.[.[.",
"[.[.[.[.[.[.[.[.[.[.[.[.[.[.[.[.[.[.[.[.[.[.[.[.[.[.[.] k.L.].].].].].].].].].].R.q.N.B.B.u.T.].].].].].].].f.[.[.[.[.[.[.[.[.[.[.[.[.[.[.[.[.[.[.[.[.[.[.[.[.[.",
"[.[.[.[.[.[.[.[.[.[.[.[.[.[.[.[.[.[.[.[.[.[.[.[.[.U d.R.].].].].].].].].].].'.P.5.+.N.N.B.N.z.v._.'.'.].].].x.[.[.[.[.[.[.[.[.[.[.[.[.[.[.[.[.[.[.[.[.[.[.[.[.[.",
"[.[.[.[.[.[.[.[.[.[.[.[.[.[.[.[.[.[.[.[.[.[.5 q K ) v.].].].].].].].].].'.Y.i.M.6.} 9.N.N.B.N.V.k.k.l.(.(.(.x.[.[.[.[.[.[.[.[.[.[.[.[.[.[.[.[.[.[.[.[.[.[.[.[.[.",
"[.[.[.[.[.[.[.[.[.[.[.[.[.[.[.[.[.[.[.[.[.L k._.].].].].].].].].].].W.Y.F.N.9.%.+.l &.B.N.N.N.N.N.B.V.j.j.j.e.[.[.[.[.[.[.[.[.[.[.[.[.[.[.[.[.[.[.[.[.[.[.[.[.[.",
"[.[.[.[.[.[.[.[.[.[.[.[.[.[.[.[.[.[.[.[.Q P.].].].].].].].].].L./.K.u.y.N.&.+.&.&.c } N.N.N.N.B.N.A v 9.B.B.9.[.[.[.[.[.[.[.[.[.[.[.[.[.[.[.[.[.[.[.[.[.[.[.[.[.",
"[.[.[.[.[.[.[.[.[.[.[.[.[.[.[.[.[.[.[.q l.].].].].].].].].].].U.a.V.B.M.9.&.&.&.%.{ s 9.N.N.N.N.B.Z . v N.B.%.[.[.[.[.[.[.[.[.[.[.[.[.[.[.[.[.[.[.[.[.[.[.[.[.[.",
"[.[.[.[.[.[.[.[.[.[.[.[.[.[.[.[.[.[.[.Q W.].].].].].].].].].].].j.N.=.+.%.&.&.&.| { h c &.M.N.B.B.N.0.0.N.9.#.[.[.[.[.[.[.[.[.[.[.[.[.[.[.[.[.[.[.[.[.[.[.[.[.[.",
"[.[.[.[.[.[.[.[.[.[.[.[.[.[.[.[.[.H ' b.].].].].].].].'.T.T.G.x./ o.+.&.&.&.@.%.x z g p V +.X.&.N.B.B.B.N.| q.I.[.[.[.[.[.[.[.[.[.[.[.[.[.[.[.[.[.[.[.[.[.[.[.[.",
"[.[.[.[.[.[.[.[.[.[.[.[.[.[.[.[.Q f.(.n.].].].].].].]._.P.n.f.3.1.~ $.=.%.} { +.z z g p s { s c +.&.N.N.X.;.W.].b.[.[.[.[.[.[.[.[.[.[.[.[.[.[.[.[.[.[.[.[.[.[.[.",
"[.[.[.[.[.[.[.[.[.[.[.[.[.[.[.' L.'.]._.].].].].].].].].].].].].].l.M } z x +.| a h p p % s } @...z k k D T.].].R.[.[.[.[.[.[.[.[.[.[.[.[.[.[.[.[.[.[.[.[.[.[.[.",
"[.[.[.[.[.[.[.[.[.[.[.[.[.[.[.L.].].].].].].].].].].].].].].].'./.z.Z { X.%.&.+.h $ # # p h s X.+.k N 5.^.].].].'.[.[.[.[.[.[.[.[.[.[.[.[.[.[.[.[.[.[.[.[.[.[.[.",
"[.[.[.[.[.[.[.[.[.[.[.[.[.[.Q _.].].].].]./.(.(.(.(.(.(.(.`.K.j.V.N.@.&.&.&.&.&.&.%.%.%.%.%.{ s a V 7.c.(.].].].b.[.[.[.[.[.[.[.[.[.[.[.[.[.[.[.[.[.[.[.[.[.[.[.",
"[.[.[.[.[.[.[.[.[.[.[.[.[.[.l.].].].].].].n.g.j.j.j.j.j.j.V.B.B.B.9.&.&.&.&.&.&.&.&.&.&.&.&.%.&.&.&.&.8.5.P.T.I.~ [.[.[.[.[.[.[.[.[.[.[.[.[.[.[.[.[.[.[.[.[.[.[.",
"[.[.[.[.[.[.[.[.[.[.[.[.[.I /.].].].].].].].G.V.B.B.B.B.B.N.N.N.M.%.&.&.&.&.&.&.&.&.&.&.&.&.+.+.&.&.&.&.&.<.4.;.a [.[.[.[.[.[.[.[.[.[.[.[.[.[.[.[.[.[.[.[.[.[.[.",
"[.[.[.[.[.[.[.[.[.[.[.[.H s.].].].].n.I.].].I.q.9.N.N.B.B.B.N.9.@.&.&.&.&.&.&.&.&.&.&.&.&.&.+.x X.&.&.&.&.&.+.z [.[.[.[.[.[.[.[.[.[.[.[.[.[.[.[.[.[.[.[.[.[.[.[.",
"[.[.[.[.[.[.[.[.[.[.[.[.E /.].].].].'.T.h.d.r.N.m...+.9.9.9.+.} @.%.&.@.+.+.......+.&.&.+.X.} x z +.%.%.%.} s [.[.[.[.[.[.[.[.[.[.[.[.[.[.[.[.[.[.[.[.[.[.[.[.[.",
"[.[.[.[.[.[.[.[.[.[.[.P G.].].].].].].].I.a.,.;.9.x s h g x } | | | } V l V } | | | | | V x z { } { } } +.V $.c.( [.[.[.[.[.[.[.[.[.[.[.[.[.[.[.[.[.[.[.[.[.[.[.",
"[.[.[.[.[.[.[.[.[.[.' l.P.].].].].].].].].'.b.5.^ > B | z h c { { c s s p h k k x { { c x k } } | +.&.&.%.{ w.].).k.[.[.[.[.[.[.[.[.[.[.[.[.[.[.[.[.[.[.[.[.[.[.",
"[.[.[.[.[.[.[.[.[.[.T.'.'.].].].].].].].].].].].b.Y m | } V { { { z h z x x g % $ [.[.c { | } { { V { } x [ e._.]._.p.[.[.[.[.[.[.[.[.[.[.[.[.[.[.[.[.[.[.[.[.[.",
"[.[.[.[.[.[.[.[.[.) /.].].].].].].].].].].].].].]._.p.7 | ..| { x x x h p $ [.[.[.[.[.[.h { | } } v 7 +.+.} 4.T.].].U._ [.[.[.[.r F [.[.[.[.[.[.[.[.[.[.[.[.[.[.",
"[.[.[.[.[.[.[.[.[.} C.G.).].].].].].].].].].].].].].'.) 8 j [ x x h p [.[.[.[.[.[.[.[.[.p z } C ;.G.z.&.&.+.&.r.(.].'.] [.[.[.[.1.M [.[.[.[.[.[.[.[.[.[.[.[.[.[.",
"[.[.[.[.[.[.[.[.[.a &.A.u.T.].].].].].].].].].].].].]._.3.0 , B z @ [.[.[.[.[.[.[.[.[.[.[.# , 0 P.L.S &.&.&.&.&.j._.].Y.( [.[.[.Q.> [.[.[.[.[.[.[.[.[.[.[.[.[.[.",
"[.[.[.[.[.[.[.[.[.[.[. .9.Z.G.n.].].].].].].].].].].].].].P.U e : [.[.[.[.[.[.[.[.[.[.[.O 8 3.c.U.^ &.&.&.&.&.&.7.j.P.].f.o [.!.&.m q [.[.[.[.[.[.[.[.[.[.[.[.[.",
"[.[.[.[.[.[.[.[.[.[.[.[...B.V.y.l.v.).].].].].].].].].].].]./.G.E < [.[.[.[.[.[.[.2 K k.c.Y.]./.M $.&.&.&.&.&.&.&.7.q.l.s.O 4.M.} $.s.J [.[.[.[.[.[.[.[.[.[.[.[.",
"[.[.[.[.[.[.[.[.[.[.[.[.# X.N.N.V.V.j.k.P._._.].].].].].].].].].'.b.' J 0 1 9 E ] b.).].].].L.] X o.&.&.&.&.&.&.&.&.&.7.B Z &.&.{ 7.'.s.[.[.[.[.[.[.[.[.[.[.[.[.",
"[.[.[.[.[.[.[.[.[.[.[.[.[.y +.N.B.N.N.N.u.j.j.K.R.T.W.].].].].].].].].].].].].].].].].].].].].b.1 ; +.=.&.&.&.&.&.&.&.&.k +.&.&.X.0.].(.g.[.[.[.[.[.[.[.[.[.[.[.",
"[.[.[.[.[.[.[.[.[.[.[.[.[.[.y { =.M.B.N.N.N.N.N.r.r.u.K.P.P.P.I.].].].].].R.].].].].].].].].].].P./ > { +.&.&.&.&.&.&.&.l ..&.&.&.+.t.R.].P.` [.[.[.[.[.[.[.[.[.",
"[.[.[.[.[.[.[.[.[.[.[.[.[.[.[.[.a } =.N.N.N.N.B.B.B.B.V.y.y.y.y.F.b.b.b.b.F.].].].].].].].].].].T.P.G g y k c +.%.&.&.&.+.c &.&.+.| c 4.( /././ [.[.[.[.[.[.[.[.",
"[.[.[.[.[.[.[.[.[.[.[.[.[.[.[.[.z c a x } @.9.N.N.N.N.N.N.N.M.m.9.0.0.0.7.0.P.].].].].].].].'.].K.+.9.9.z [.[.[.u g g c X.| c { | | z %.B M ^.U.E [.[.[.[.[.[.[.",
"[.[.[.[.[.[.[.[.[.[.[.[.[.[.[.[.+.N.M.>.Z B O.,.8.9.9.&.&.&...x h h a a u k q.T.].].].].].].P.F.S.N.@.@.9.X.[.[.[.[.[.+ + g &.+.+.| { +.+.| m 1.L.K [.[.[.[.[.[.",
"[.[.[.[.[.[.[.[.[.[.[.[.[.[.[.[.9.N.u.n.P.P.P.P.c.r.V.9...&.&.&.} &.&.&.+.f | u.P._.].].].W.].w.x +.m.| ..9.%.[.[.[.[.[.[.p +.&.&.} { &.&.x } , z.! [.[.[.[.[.[.",
"[.[.[.[.[.[.[.[.[.[.[.[.[.[.[.x M.N.l.].].].].].'.T.x.u.{ | +.} x %.&.&.9.7.C &.y.x.P.].'.p.k.Z.=...} 9.@.z @.@.[.[.[.[.[.[.c %.&.c { &.&.l l l b ' [.[.[.[.[.[.",
"[.[.[.[.[.[.[.[.[.[.[.[.[.[.[...N.N.x.].].].].].].]./.h.A V V h { +.&.9.N.Z.' j { &.0.Z.v.a.o.c =.M.+.{ %.@.k %.&.[.[.[.[.[.$ z { s y } | a | l l B k [.[.[.[.[.",
"[.[.[.[.[.[.[.[.[.[.[.[.[.[.[.X.N.N.S.].].].].].].].].].( = p } &.%.%.9.N.N.u.` j c V Z %.9.m.=.c } =.@.z X.9.V X.[.[.[.[.[.[.[.[.[.[.# # f s V k z V y [.[.[.[.",
"[.[.[.[.[.[.[.[.[.[.[.[.[.[.[.| N.N.C./.].].].].].].].].! = k %.&.&.9.9.M.B.N.!.].].P.:.C n l } X. .z | 9.z { 9.%.h [.[.[.[.[.[.[.[.[.[.[.t f k z k } | y [.[.[.",
"[.[.[.[.[.[.[.[.[.[.[.[.[.[.[.V M.M.V.b.].].].].].].].].T [.$ { &.&.9.N.N.N.N.B.~.].].].(.x.>.$.D C z h k +.h s } } [.[.[.[.[.[.[.[.[.[.[.[.y k k l h c a [.[.[.",
"[.[.[.[.[.[.[.[.[.[.[.[.[.[.[.V 9.9.N.J.].].].].].].].(.w [.[.t } &.&.9.N.N.N.N.A.D.`.].].].].].(.F.D.J.y.[.[.[.[.[.[.[.[.[.[.[.[.[.[.[.[.[.[.[.a s { a # [.[.[.",
"[.[.[.[.[.[.[.[.[.[.[.[.[.[.[.g +.9.B.u.W.].].].].].].L.5 [.[.[.k +.&.&.9.M.N.N.9.M.A.Q.'.'.].].].].].].].].[.[.[.[.[.[.[.[.[.[.[.[.[.[.[.[.[.[.[.# h # [.[.[.[.",
"[.[.[.[.[.[.[.[.[.[.[.[.[.[.[.@ { M.B.y.Y.].].].].].].j.[.[.[.[.[.[.| +.%.&.9.M.+.+.9.N.u.x.^./.(.].].].].].(.[.[.[.[.[.[.[.[.[.[.[.[.[.[.[.[.[.[.[.[.[.[.[.[.[.",
"[.[.[.[.[.[.[.[.[.[.[.[.[.[.[.@ { B.B.B.G.T.].].].].b.U [.[.[.[.[.[.[.{ | c } +.&.+.X.9.9.N.N.r.z.~.P.I._.].K.O.[.[.[.[.[.[.[.[.[.[.[.[.[.[.[.[.[.[.[.[.[.[.[.[.",
"[.[.[.[.[.[.[.[.[.[.[.[.[.[.[.# ..B.B.M.8.q.F.n.].T.Q [.[.[.[.[.[.[.[.[.[.[.[.a h c { +.%.9.M.N.B.N.y.e.t.C.w...[.[.[.[.[.[.[.[.[.[.[.[.[.[.[.[.[.[.[.[.[.[.[.[.",
"[.[.[.[.[.[.[.[.[.[.[.[.[.[.{ | &.N.N.9.&.&.7.7.8.I [.[.[.[.[.[.[.[.[.[.[.[.[.[.[.[.g x } %.=.9.N.N.9.=.&.&.@.z [.[.[.[.[.[.[.[.[.[.[.[.[.[.[.[.[.[.[.[.[.[.[.[.",
"[.[.[.[.[.[.[.[.[.[.[.[.g } 9.&.M.N.M.&.&.&.&.} z [.[.[.[.[.[.[.[.[.[.[.[.[.[.[.[.[.[.[.z } %.&.=.=.&.&.&.&.| [.[.[.[.[.[.[.[.[.[.[.[.[.[.[.[.[.[.[.[.[.[.[.[.[.",
"[.[.[.[.[.[.[.[.[.[.[.g X.N.N.M.N.N.9.&.&.&.} g [.[.[.[.[.[.[.[.[.[.[.[.[.[.[.[.[.[.[.z @.@.+.&.&.&.&.&.&.+.z [.[.[.[.[.[.[.[.[.[.[.[.[.[.[.[.[.[.[.[.[.[.[.[.[.",
"[.[.[.[.[.[.[.[.[.[.x +.N.N.N.B.N.N.9.&.&.+.+.z [.[.[.[.[.[.[.[.[.[.[.[.[.[.[.[.[.[.| %.N.A.M.&.&.&.&.&.&.{ h [.[.[.[.[.[.[.[.[.[.[.[.[.[.[.[.[.[.[.[.[.[.[.[.[.",
"[.[.[.[.[.[.[.[.[.[...N.N.N.N.N.B.M.&.&.+.%.%.k [.[.[.[.[.[.[.[.[.[.[.[.[.[.[.[.[.[.@.N.N.N.B.M.&.&.&.&.%...x [.[.[.[.[.[.[.[.[.[.[.[.[.[.[.[.[.[.[.[.[.[.[.[.[.",
"[.[.[.[.[.[.[.[.[.[.+.N.N.N.N.N.N.9.&.&.&.&.+.[.[.[.[.[.[.[.[.[.[.[.[.[.[.[.[.[.[.} 9.B.N.N.N.N.&.&.&.&.&.@.x [.[.[.[.[.[.[.[.[.[.[.[.[.[.[.[.[.[.[.[.[.[.[.[.[.",
"[.[.[.[.[.[.[.[.[.x &.N.N.N.N.B.M.&.&.&.&.&.} [.[.[.[.[.[.[.[.[.[.[.[.[.[.[.[.[.[.} N.N.N.N.N.9.&.&.&.&.&.@.x [.[.[.[.[.[.[.[.[.[.[.[.[.[.[.[.[.[.[.[.[.[.[.[.[.",
"[.[.[.[.[.[.[.[.[.{ 9.B.N.N.N.N.9.&.&.&.&.%.x [.[.[.[.[.[.[.[.[.[.[.[.[.[.[.[.[.[.| A.N.N.N.9.&.&.&.&.&.&.+.h [.[.[.[.[.[.[.[.[.[.[.[.[.[.[.[.[.[.[.[.[.[.[.[.[.",
"[.[.[.[.[.[.[.[.[.} M.N.N.N.N.N.&.&.&.&.&.| g [.[.[.[.[.[.[.[.[.[.[.[.[.[.[.[.[.[.c N.N.N.M.&.&.&.&.&.&.&.X.[.[.[.[.[.[.[.[.[.[.[.[.[.[.[.[.[.[.[.[.[.[.[.[.[.[.",
"[.[.[.[.[.[.[.[.[.@.B.N.N.N.N.9.&.&.&.&.%.z [.[.[.[.[.[.[.[.[.[.[.[.[.[.[.[.[.[.[.} &.N.N.9.&.&.&.&.&.&.&.{ [.[.[.[.[.[.[.[.[.[.[.[.[.[.[.[.[.[.[.[.[.[.[.[.[.[.",
"[.[.[.[.[.[.[.[.[.&.B.N.B.N.9.&.&.&.%.X.V [.[.[.[.[.[.[.[.[.[.[.[.[.[.[.[.[.[.[.[.[...&.9.=.&.&.&.&.&.&.+.[.[.[.[.[.[.[.[.[.[.[.[.[.[.[.[.[.[.[.[.[.[.[.[.[.[.[.",
"[.[.[.[.[.[.[.[.[.9.B.N.B.N.*.%.+.{ x h [.[.[.[.[.[.[.[.[.[.[.[.[.[.[.[.[.[.[.[.[.[.} &.&.&.&.&.&.&.%...[.[.[.[.[.[.[.[.[.[.[.[.[.[.[.[.[.[.[.[.[.[.[.[.[.[.[.[.",
"[.[.[.[.[.[.[.[.l N.N.N.N.9. .z g [.[.[.[.[.[.[.[.[.[.[.[.[.[.[.[.[.[.[.[.[.[.[.[.[.z &.&.&.&.&.&.%.{ [.[.[.[.[.[.[.[.[.[.[.[.[.[.[.[.[.[.[.[.[.[.[.[.[.[.[.[.[.",
"[.[.[.[.[.[.[.[.c N.N.N.9.c y [.[.[.[.[.[.[.[.[.[.[.[.[.[.[.[.[.[.[.[.[.[.[.[.[.[.[.g +.&.&.&.&.%.c [.[.[.[.[.[.[.[.[.[.[.[.[.[.[.[.[.[.[.[.[.[.[.[.[.[.[.[.[.[.",
"[.[.[.[.[.[.[.y &.N.N.M.{ # [.[.[.[.[.[.[.[.[.[.[.[.[.[.[.[.[.[.[.[.[.[.[.[.[.[.[.[.# +.&.&.&.&.| p [.[.[.[.[.[.[.[.[.[.[.[.[.[.[.[.[.[.[.[.[.[.[.[.[.[.[.[.[.[.",
"[.[.[.[.[.[.[.{ =.M.B.9.k [.[.[.[.[.[.[.[.[.[.[.[.[.[.[.[.[.[.[.[.[.[.[.[.[.[.[.[.[.# +.&.&.&.&.h [.[.[.[.[.[.[.[.[.[.[.[.[.[.[.[.[.[.[.[.[.[.[.[.[.[.[.[.[.[.[.",
"[.[.[.[.[.[.[ } @.B.N.%.{ [.[.[.[.[.[.[.[.[.[.[.[.[.[.[.[.[.[.[.[.[.[.[.[.[.[.[.[.[.i &.&.&.&.+.y [.[.[.[.[.[.[.[.[.[.[.[.[.[.[.[.[.[.[.[.[.[.[.[.[.[.[.[.[.[.[.",
"[.[.[.[.[.{ +.{ m.N.M.+.[ [.[.[.[.[.[.[.[.[.[.[.[.[.[.[.[.[.[.[.[.[.[.[.[.[.[.[.[.K l &.&.&.%.{ d 2 [.[.[.[.[.[.[.[.[.[.[.[.[.[.[.[.[.[.[.[.[.[.[.[.[.[.[.[.[.[.",
"[.[.[.[.g +.} Z k.k.3.$.k [.[.[.[.[.[.[.[.[.[.[.[.[.[.[.[.[.[.[.[.[.[.[.[.[.[.[.f.a.l &.&.&.+.+.r.P.g.U [.[.[.[.[.[.[.[.[.[.[.[.[.[.[.[.[.[.[.[.[.[.[.[.[.[.[.[.",
"[.[.[.[.x +.~ g.'.]._.r.s [.[.[.[.[.[.[.[.[.[.[.[.[.[.[.[.[.[.[.[.[.[.[.[.[.[.p.).0.{ &.&.+.X.&.8.L.].R.' [.[.[.[.[.[.[.[.[.[.[.[.[.[.[.[.[.[.[.[.[.[.[.[.[.[.[.",
"[.[.[.[.s N d._.].].].F.& [.[.[.[.[.[.[.[.[.[.[.[.[.[.[.[.[.[.[.[.[.[.[.[.[.g./.D.c { &.%.c } &.&.q.P.(.].x.` [.[.[.[.[.[.[.[.[.[.[.[.[.[.[.[.[.[.[.[.[.[.[.[.[.",
"[.[.[.[.* ) _.].].].].c.o [.[.[.[.[.[.[.[.[.[.[.[.[.[.[.[.[.[.[.[.[.[.[.[.v.(.H.&.+.{ +.} s %.&.&.&.8.r.n.]./.g.W [.[.[.[.[.[.[.[.[.[.[.[.[.[.[.[.[.[.[.[.[.[.[.",
"[.[.[.[.] R.].].].].].T.6 [.[.[.[.[.[.[.[.[.[.[.[.[.[.[.[.[.[.[.[.[.[.[.[._.J.*.&.&.+.u s k &.&.&.&.&.7.8.c.]._.U.a.q [.[.[.[.[.[.[.[.[.[.[.[.[.[.[.[.[.[.[.[.[.",
"[.[.[.[.P.].].].].].].].' [.[.[.[.[.[.[.[.[.[.[.[.[.[.[.[.[.[.[.[.[.[.[.[.~.9.&.&.&.&.| +.%.&.&.&.&.&.&.&.8.f.T.'.]./.g.R 3 3 [.[.[.[.[.[.[.[.[.[.[.[.[.[.[.[.[.",
"[.[.[.T.].].].].].].].].P.2 [.[.[.[.[.[.[.[.[.[.[.[.[.[.[.[.[.[.[.[.[.[.[.| @.%.=.=.&.+.} l l l | +.%.&.&.&.&.4.j.Y.E.T._.].W.2.7 [.[.[.[.[.[.[.[.[.[.[.[.[.[.[.",
"[.[.[.R.].].].].].].].].]./ [.[.[.[.[.[.[.[.[.[.[.[.[.[.[.[.[.[.[.[.[.[.[.p a s k k k u $ [.[.[.[.h k { ..+.+.+.&.8.4.4.u.D.D.D.8.[.[.[.[.[.[.[.[.[.[.[.[.[.[.[.",
"[.[.P.].].].].].].].].].].P.U [.[.[.[.[.[.[.[.[.[.[.[.[.[.[.[.[.[.[.[.[.[.[.[.[.[.[.[.[.[.[.[.[.[.[.[.[.y y y y a a a a a u u a u [.[.[.[.[.[.[.[.[.[.[.[.[.[.[.",
"[.L _.].].].].].].].].].].].b.U [.[.[.[.[.[.[.[.[.[.[.[.[.[.[.[.[.[.[.[.[.[.[.[.[.[.[.[.[.[.[.[.[.[.[.[.[.[.[.[.[.[.[.[.[.[.[.[.[.[.[.[.[.[.[.[.[.[.[.[.[.[.[.[.",
"[.r E.].].].].].].].].].].].f.J [.[.[.[.[.[.[.[.[.[.[.[.[.[.[.[.[.[.[.[.[.[.[.[.[.[.[.[.[.[.[.[.[.[.[.[.[.[.[.[.[.[.[.[.[.[.[.[.[.[.[.[.[.[.[.[.[.[.[.[.[.[.[.[.",
"[.< Y x.'.].].].].].].].U.T < [.[.[.[.[.[.[.[.[.[.[.[.[.[.[.[.[.[.[.[.[.[.[.[.[.[.[.[.[.[.[.[.[.[.[.[.[.[.[.[.[.[.[.[.[.[.[.[.[.[.[.[.[.[.[.[.[.[.[.[.[.[.[.[.[.",
"[.[.[.2 / f.T.].].].x.T < [.[.[.[.[.[.[.[.[.[.[.[.[.[.[.[.[.[.[.[.[.[.[.[.[.[.[.[.[.[.[.[.[.[.[.[.[.[.[.[.[.[.[.[.[.[.[.[.[.[.[.[.[.[.[.[.[.[.[.[.[.[.[.[.[.[.[.",
"[.[.[.[.[.6 I K 4 ; X   [.[.[.[.[.[.[.[.[.[.[.[.[.[.[.[.[.[.[.[.[.[.[.[.[.[.[.[.[.[.[.[.[.[.[.[.[.[.[.[.[.[.[.[.[.[.[.[.[.[.[.[.[.[.[.[.[.[.[.[.[.[.[.[.[.[.[.[."
};
