/* XPM */
static char *result[] = {
/* columns rows colors chars-per-pixel */
"80 80 185 2 ",
"   c #968F65",
".  c #918B6C",
"X  c #989269",
"o  c #9D9A73",
"O  c #A49E7F",
"+  c #A5A278",
"@  c #A8A87E",
"#  c #847395",
"$  c #877699",
"%  c #88779B",
"&  c #8B7B9C",
"*  c #8E7DA2",
"=  c #988F86",
"-  c #92888E",
";  c #9E958F",
":  c #9B909D",
">  c #A39B88",
",  c #A09796",
"<  c #A29B9A",
"1  c #ABA684",
"2  c #ADAA85",
"3  c #ABA989",
"4  c #B3AF8F",
"5  c #ADB38D",
"6  c #B2B187",
"7  c #ABA797",
"8  c #A7A69C",
"9  c #B2AC96",
"0  c #B3B394",
"q  c #B4BB95",
"w  c #BBBC97",
"e  c #B3B19D",
"r  c #B9BC9D",
"t  c #8F80A1",
"y  c #9284A5",
"u  c #9688A7",
"i  c #9485AA",
"p  c #9689AB",
"a  c #998BAB",
"s  c #9E91AE",
"d  c #9789B0",
"f  c #9B8DB2",
"g  c #9E91B3",
"h  c #A39BA3",
"j  c #A296AC",
"k  c #A59CAC",
"l  c #A195B4",
"z  c #A599B6",
"x  c #A99FB4",
"c  c #A296B9",
"v  c #A59BBB",
"b  c #A99DBC",
"n  c #A9A6A7",
"m  c #ACA7A8",
"M  c #B4ABAF",
"N  c #B7B8A3",
"B  c #ABA3B1",
"V  c #ACA2BE",
"C  c #B4ACBC",
"Z  c #BFBDB2",
"A  c #B7B2BC",
"S  c #BAB5BD",
"D  c #C0BBAC",
"F  c #BBC29C",
"G  c #BEC4A2",
"H  c #BFC5A9",
"J  c #BFC0B5",
"K  c #C1C99E",
"L  c #C3C6A5",
"P  c #C4CCA3",
"I  c #C3C4AA",
"U  c #C7CCAB",
"Y  c #C8C9A8",
"T  c #C8D0A5",
"R  c #CBD2AB",
"E  c #D0D8AE",
"W  c #C5C4B5",
"Q  c #CACEB2",
"!  c #C4C3BC",
"~  c #C9CBBC",
"^  c #CCD2B2",
"/  c #CDD1BB",
"(  c #D0D6B3",
")  c #D4DBB5",
"_  c #D1D5BD",
"`  c #D5DBBB",
"'  c #D8DFBB",
"]  c #DCE4BE",
"[  c #DFE8BA",
"{  c #AA9EC0",
"}  c #ADA4C1",
"|  c #B1A6C4",
" . c #B4ABC6",
".. c #B2A6C8",
"X. c #B6ADC9",
"o. c #B9AFCB",
"O. c #BCB3CD",
"+. c #BFB9C9",
"@. c #BEB5D1",
"#. c #C1BBC6",
"$. c #C2BCCC",
"%. c #C0B7D2",
"&. c #C5BCD5",
"*. c #C8BFD6",
"=. c #C6BDD9",
"-. c #C8BFD8",
";. c #C5C2C2",
":. c #CCCBC5",
">. c #C5C1C8",
",. c #CDCACD",
"<. c #D1CDC6",
"1. c #D1CECF",
"2. c #D4D4C2",
"3. c #D6DBC1",
"4. c #D9DEC6",
"5. c #D3D2CB",
"6. c #D7D8CB",
"7. c #DADCCD",
"8. c #C6C0D1",
"9. c #CAC3D4",
"0. c #CEC9D2",
"q. c #CBC3DC",
"w. c #CFC8D8",
"e. c #D2CFD1",
"r. c #D2CCDA",
"t. c #D5D3D3",
"y. c #DCDCD5",
"u. c #D6D1DC",
"i. c #D9D6DC",
"p. c #DDDBDC",
"a. c #E0DFDC",
"s. c #DDE3C4",
"d. c #DEE1CD",
"f. c #DFE1D3",
"g. c #E0E7C4",
"h. c #E3EAC7",
"j. c #E1E6CD",
"k. c #E6ECCD",
"l. c #E8F0C7",
"z. c #ECF3CE",
"x. c #E2E4D4",
"c. c #E6EAD3",
"v. c #E9EED5",
"b. c #E3E3DB",
"n. c #E6E9D8",
"m. c #EAEDDC",
"M. c #ECF2D4",
"N. c #EDF1DC",
"B. c #F1F5DF",
"V. c #CEC6E0",
"C. c #D0C7E1",
"Z. c #D5CDE6",
"A. c #D6CEE8",
"S. c #D7D1E2",
"D. c #D9D3E3",
"F. c #DEDAE3",
"G. c #D7D0E8",
"H. c #D8D0E9",
"J. c #E1DDE7",
"K. c #E3DDED",
"L. c #E6E5E4",
"P. c #EBEDE3",
"I. c #E5E2E8",
"U. c #E9E7ED",
"Y. c #EBEBE9",
"T. c #EFF2E2",
"R. c #F1F5E3",
"E. c #F2F5E5",
"W. c #F5F8E5",
"Q. c #F3F4EB",
"!. c #F6FAE8",
"~. c #F6F9EB",
"^. c #F8FBED",
"/. c #E7E2F1",
"(. c #E9E5F1",
"). c #F5F5F3",
"_. c #F7F8F1",
"`. c #F9FAF1",
"'. c #FAFCF4",
"]. c #FBFDF5",
"[. c #FBFCF6",
"{. c #F5F4F8",
"}. c #FCFDF9",
"|. c white",
" X c None",
/* pixels */
" X X X X X X X X X X X X X X X X X X X X X X X X X X X X X X X X X X X X X X X X X X X X X X X X X X X X X X X X X X X X X X X X X X X X X X X X X X X X X X X X",
" X X X X X X X X X X X X X X X X X X X X X X X X X X X X X X X X X X X X X X X X X X X X X X X X X X X X X X X X X X X X X X X X X X X X X X X X X X X X X X X X",
" X X X X X X X X X X X X X X X X X X X X X X X X X X X X X X X X X X X X X X X X X X X X X X X X X X X X X X X X X X X X X X X X X X X X X X X X X X X X X X X X",
" X X X X X X X X X X X X X X X X X X X X X X X X X X X X X X X X X X X X X X X X X X X X X X X X X X X X X X X X X X X X X X X X X X X X X X X X X X X X X X X X",
" X X X X X X X X X X X X X X X X X X X X X X X X X X X X X X X X X X X X X X X X Xn ` |.R.] ^  X X X X X X X X X X X X X X X X X X X X X X X X X X X X X X X X X",
" X X X X X X X X X X X X X X X X X X X X X X X X X X X X X X X X X X X X X X X Xb q.{.|.|.}.}.}.c.(  X X X X X X X X X X X X X X X X X X X X X X X X X X X X X X",
" X X X X X X X X X X X X X X X X X X X X X X X X X X X X X X X X X X X X X X Xl q.i.'.|.|.|.|.|.|.^.4. X X X X X X X X X X X X X X X X X X X X X X X X X X X X X",
" X X X X X X X X X X X X X X X X X X X X X X X X X X X X X X XR M.P.m.E.!.!.E.$.Z.D.N.|.|.|.|.|.|.|.|.4. X X X X X X X X X X X X X X X X X X X X X X X X X X X X",
" X X X X X X X X X X X X X X X X X X X X X X X X X X X XR M._.Q.].|.|.|.|.|.|.S.C.A.i.R.|.|.|.|.|.|.|.Q. X X X X X X X X X X X X X X X X X X X X X X X X X X X X",
" X X X X X X X X X X X X X X X X X X X X X X X X XP ` R.[.}.|.|.|.|.|.|.|.|.'.S.C.A.A.p.E.}.|.|.|.|.|.|.3. X X X X X X X X X X X X X X X X X X X X X X X X X X X",
" X X X X X X X X X X X X X X X X X X X X X X X XR k.}.|.|.|.|.|.|.|.|.}.!.R.x.9.Z.A.A.A.p.n.W.W.^.|.|.|.j. X X X X X X X X X X X X X X X X X X X X X X X X X X X",
" X X X X X X X X X X X X X X X X X X Xs.d.n.T.` B.].|.|.|.|.|.|.].B.U.I.y.p.A.X.Z.A.A.A.A.S.y.y.b.B.B.B.7. X X X X X X X X X X X X X X X X X X X X X X X X X X X",
" X X X X X X X X X X X X X X X X X Xm.].|.|.|.N.}.|.|.|.|.|.!.M.J.i.A.Z.Z.q...a =.A.A.A.A.A.A.Z.Z.i.i.i.w. X X X X X X X X X X X X X X X X X X X X X X X X X X X",
" X X X X X X X X X X X X X X X X XW.|.|.|.|.|.}.|.|.|.}.}.v.b.S.A.A.V.%.O.X.O.v | A.A.A.A.A.Z., = *.A.A.%.G  X X X X X X X X X X X X X X X X X X X X X X X X X X",
" X X X X X X X X X X X X X X X Xn.|.|.|.|.|.|.|.|.|.~.M.j.u.A.A.Z.=.O.O.=.&.O.b p =.Z.A.A.A.A.O.; C A.C.$.j.3. X X X X X X X X X X X X X X X X X X X X X X X X X",
" X X X X X X X X X X X X X X X) }.|.|.|.|.|.|.|.|.`.s.E q r.C.=.O.O.&.=.%.X. .c d c O.q.A.A.A.A.A.A.A.@.t.|.|.P. X X X X X X X X X X X X X X X X X X X X X X X X",
" X X X X X X X X X X X X XP P x.|.|.|.|.|.|.|.|.B.h.m.P.x.! q.%.%.=.=.%. .X.v g c i }  .l X.C.A.A.A.=.C Y.|.|.}.h. X X X X X X X X X X X X X X X X X X X X X X X",
" X X X X X X X X X X X XE k.c.E.|.|.|.|.|.|.|.|.].`.|.|.}.2.| &.%.O.c c O.V u v d i u V l o.} o.q.=.C n.|.|.|.|.}. X X X X X X X X X X X X X X X X X X X X X X X",
" X X X X X X X X X X X Xk.}.!.`.|.|.|.|.|.|.|.|.|.|.'.`.P.S.V l b g V O.=.V y g y * * y } =.O.a j V f.|.|.|.|.|.]. X X X X X X X X X X X X X X X X X X X X X X X",
" X X X X X X X X X X Xx.|.|.|.|.}.W.}.|.|.|.|.^.W.Q.b.p.A.A.&.b O.O.&.=.=.O.b a a a a u u z b l y.}.|.|.|.|.|.}.'  X X X X X X X X X X X X X X X X X X X X X X X",
" X X X X X X X X X Xd.|.|.|.|.|.}.W.B.B.B.T./.p.y.D.A.A.A.A.=.=.=.=.=.=.=.=.=.%.O. .X. .z z b O.9.x.W.|.|.|.^.4. X X X X X X X X X X X X X X X X X X X X X X X X",
" X X X X X X X X XP `.|.|.].!.|.|.|.v.i.i.u.A.A.A.A.A.A.Z.%.=.=.=.=.=.=.=.=.=.=.=.%.%.%.%.O.=.=.=.9.e.v.M.n.$.:  X X X X X X X X X X X X X X X X X X X X X X X X",
" X X X X X X X XR R.|.|.|.`.B.|.|.|.v.Z.&.=.Z.A.A.A.Z.q.O.%.=.=.=.=.=.=.=.=.=.=.=.=.=.=.=.%.O.%.=.=.=.9.9.$.j  X X X X X X X X X X X X X X X X X X X X X X X X X",
" X X X X X X XP N.|.|.|.'.N.j.|.|.].b.A.A.q.%.o. .X.} b O.%.=.=.=.=.=.=.%.%.%.=.=.=.=.=.=.=.X.V b  .O.O. .f m (  X X X X X X X X X X X X X X X X X X X X X X X X",
" X X X X X XP v.|.|.|.|.^.B.k.k.m.n.S.A.A.A.@.v c i f  . .X.O.O.O.O.O.O. .}  .O.O.O.O.O.O.O.V i f v } } } f #.}.R.k. X X X X X X X X X X X X X X X X X X X X X X",
" X X X X XU c.`.|.|.|.|.|.|.}.T.R ;.A.A.A.&.} O. .v y a }  . . . . .V a y & u b  . . .} c f & i c  . . .c z 7.'.|.].s. X X X X X X X X X X X X X X X X X X X X X",
" X X X XM.T.R.|.|.|.|.|.|.|.|.|.E.U A &...v %.O. . .v a * t i f f f f c l > < d p d p &  X X# g c f f f g l $.x.}.|.'.g. X X Xw X  X X X X X X X X X X X X X X X",
" X X X[ !.}.!.|.|.|.|.|.|.|.|.|.|.R.w : u  .=.O. . .V v v v v v v v v n <.Q.>.* $  X X X X X Xf b }  . .X.X.} $.n.}.|.|.n. X X2.2  X X X X X X X X X X X X X X X",
" X X X6.N.^.|.|.|.|.|.|.|.|.|.|.|.|.N.6 o  .=.=. . .} b b b b b b j < Y ].7. X X X X X X X X Xy b  . .O.%.=.O.O.9.n.}.|.}.U   2.8  X X X X X X X X X X X X X X X",
" X X XC.u.p.Y.].|.|.|.|.|.|.|.|.|.|.|.E.( e M O. . . .b b b b < 8 W d.Q.x. X X X X X X X X X X Xl  .O.=.=.=.%.O.&.0.m.|.|.n.+ <.k 5  X X X X X X X X X X X X X X",
" X X Xo.q.A.S.F.R.}.|.|.|.|.|.|.|.|.|.|.}.T.x.I 7  . .V C k e ` m.'.|.^.w  X X X X X X X X X X Xy } %.=.=.=.=.&.=.=.0.T.|.].w 5.V N ) G  X X X X X X X X X X X X",
" X X Xy  .Z.A.A.i.c.).].}.|.|.|.|.|.|.|.|.|.|.`.j.^ N 0 H ` N.|.|.|.}.v.3  X X X X X X X X X X X Xg O.=.=.=.=.=.=.=.=.9.y.b.z &.O.M m.!.(  X X X X X X X X X X X",
" X X X Xy | q.A.A.A.H.x.Y.~.!.^.|.|.|.|.|.|.|.|.|.|.|.|.|.|.|.|.|.|.|.|.d.o  X X X X X X X X X X X Xl %.=.=.=.=.=.=.=.=.9.! l *.%.c ,.).W._  X X X X X X X X X X",
" X X X X X& v -.A.A.A.A.A.p.y.p.(.(.E.R.R.R.R.R.!.|.}.^.|.|.|.|.|.|.|.|.|.Q - v c  X X X X X X X X X Xz &.=.=.=.=.=.=.=.=.| l =.X.i c %.P.`._  X X X X X X X X X",
" X X X X X X& g q.A.A.A.A.A.A.A.A.A.i.p.i.i.i.i.F.K.J.N.|.|.|.|.|.|.|.Q.k.j.@.} o.X.V  X X X X X X X X& v %.=.=.=.=.O.&.&.} v } } u f b x m.f. X X X X X X X X X",
" X X X X X X X Xu X.q.A.A.A.A.A.A.A.A.A.A.A.A.A.A.A.A.F.|.|.|.|.|.|.}.'.d.C V.V.$./ s.s.`  X X X X X X X Xu } O.&.=.%. .O.l } V  .a l b b 9.Q._  X X X X X X X X",
" X X X X X X X X X Xl o.=.C.H.H.A.A.G.H.H.C.q.&.%.O.o.#.R.|.|.|.|.|.B.f.Z.q.{ @.q.z ! '.}.M.s. X X X X X X X Xv O.=.=.O.z t b O.X.p a } a j D Q.1  X X X X X X X",
" X X X X X X X X X X X& u z  .o.@.@.@.@.| b  ...} v z u S E.|.|.|.`.|.K.b &.=.v @.q.V 5.}.|.`.v.]  X X X X X X X X X X X X$ i O.%.z i } a g h _ R  X X X X X X X",
" X X X X X X X X X X X X X X X Xc X.:.5.r.r.a.x.H.H.Z.b a ;.~.|.|.R.` y.=.X.O.q. .| q.O.y.}.|.|.B.'  X X X X X X X X X X X X$ b %.} f } y V z k S  X X X X X X X",
" X X X X X X X X X X X X X X X XF P.].}.|.|.}.].Q.p.Z. . .j w.b.}.}.3.k @.q.X.O.q.| l &.8.).|.|.|.N.)  X X X X X X X X X X X X Xg y & g z a z v v s  X X X X X X",
" X X X X X X X X X X X X X X X Xs.|.|.|.|.|.|.|.|.E.i. . .V a V _ 2.r.Z.| v %.b v @.O.l  .n.|.|.|.|.M.)  X X X X X X X X X X X X X X X X& l b l b O.s  X X X X X",
" X X X X X X X X X X X X X X Xq N.|.|.|.|.|.|.|.|.|.n.%.} l l z a l z | &.} z o.%.v X.q. .! |.|.|.|.}.k.T  X X X X X X X X X X X X X X X Xy l z g v } &  X X X X",
" X X X X X X X X X X X X X X XG _.|.|.|.|.|.|.|.|.|.Q.9.v # % v  .O.V V X.V b v b @.b s X.X.|.|.|.|.|.}.n.G  X X X X X X X X X X X X X X X Xa a b v y  X X X X X",
" X X X X X X X X X X X X X X Xq ).|.|.|.|.|.|.|.|.|.'.:.l  X Xf V X.=.q.q.%.q.q.@.q.C.#.2.Y.|.|.|.|.|.|.|.n. X X X X X X X X X X X X X X X X X Xy g  X X X X X X",
" X X X X X X X X X X X X X X X5 ).|.|.|.|.|.|.|.|.|.`.J  X X X X Xv X.%.=.q.A.A.C.A.A.H.D.n.E.}.|.|.|.|.|.|.v. X X X X X X X X X X X X X X X X X X X X X X X X X",
" X X X X X X X X X X X X X X X9 Q.|.|.|.|.|.|.|.|.|.E.7  X X X X X Xc } O.%.=.q.q.q.Z.A.A.A.A.b.).}.|.|.|.|.~.]  X X X X X X X X X X X X X X X X X X X X X X X X",
" X X X X X X X X X X X X X X X=.L.|.|.|.|.|.|.|.|.Q.(  X X X X X X X Xf v v  .O.O.O.O.q.C.A.A.A.D.L.Q.|.|.!.W.k. X X X X X X X X X X X X X X X X X X X X X X X X",
" X X X X X X X X X X X X X X X=.F.~.|.|.|.|.|.|.~.U  X X X X X X X X X X X Xl l }  .|  .=.q.A.A.A.A.i.D.D.e.1.;. X X X X X X X X X X X X X X X X X X X X X X X X",
" X X X X X X X X X X X X X Xv q.q.w.x.T.}.}.W.k.U +  X X X X X X X X X X X X X X Xi v c V %.q.Z.A.A.q.&.&.=.=.O. X X X X X X X X X X X X X X X X X X X X X X X X",
" X X X X X X X X X X X X X XX.V.=.=.=.=.5.d.5.V a  X X X X X X X X X X X X X X X X X& a d b %.=.q.Z.q.=.=.=.=.O. X X X X X X X X X X X X X X X X X X X X X X X X",
" X X X X X X X X X X X X Xc =.q.=.=.=.O.} O.| d  X X X X X X X X X X X X X X X X X X X X& g  .&.=.=.=.=.=.=.%.b  X X X X X X X X X X X X X X X X X X X X X X X X",
" X X X X X X X X X X X XO. .Z.q.=.=.%.} O.%.v  X X X X X X X X X X X X X X X X X X X X Xg %.O.%.=.=.=.=.=.=.O.g  X X X X X X X X X X X X X X X X X X X X X X X X",
" X X X X X X X X X X X Xq.@.Z.=.=.=. .X.%.|  X X X X X X X X X X X X X X X X X X X X X X@.A.Z.%.&.=.=.=.=.%.}  X X X X X X X X X X X X X X X X X X X X X X X X X",
" X X X X X X X X X X X&.A.A.q.=.=.@.%.&. .&  X X X X X X X X X X X X X X X X X X X X Xb Z.A.A.Z.=.=.=.=.=.%.V  X X X X X X X X X X X X X X X X X X X X X X X X X",
" X X X X X X X X X X Xq.A.Z.=.=.=.=.=.O.| y  X X X X X X X X X X X X X X X X X X X X XO.A.A.A.Z.=.=.=.=.=.=.X. X X X X X X X X X X X X X X X X X X X X X X X X X",
" X X X X X X X X X X%.A.A.Z.=.=.=.=.=.%.O.f  X X X X X X X X X X X X X X X X X X X Xf %.Z.A.Z.*.=.=.=.=.=.=.X. X X X X X X X X X X X X X X X X X X X X X X X X X",
" X X X X X X X X X XZ.A.A.q.=.=.=.=.=.=.%.f  X X X X X X X X X X X X X X X X X X X Xf %.q.Z.q.=.=.=.=.=.=.=.}  X X X X X X X X X X X X X X X X X X X X X X X X X",
" X X X X X X X X X XA.A.A.-.=.=.=.=.=.=.O.p  X X X X X X X X X X X X X X X X X X X Xf O.=.-.=.=.=.=.=.=.=.O.v  X X X X X X X X X X X X X X X X X X X X X X X X X",
" X X X X X X X X X Xq.A.q.=.=.=.=.=.=.=.X.&  X X X X X X X X X X X X X X X X X X X X X} =.=.=.=.=.=.=.=.%.}  X X X X X X X X X X X X X X X X X X X X X X X X X X",
" X X X X X X X X X Xq.C.q.=.=.=.=.=.=.=.V  X X X X X X X X X X X X X X X X X X X X X Xc O.=.=.=.=.=.=.=. .d  X X X X X X X X X X X X X X X X X X X X X X X X X X",
" X X X X X X X X X XO.q.=.=.=.=.=.=.=. .f  X X X X X X X X X X X X X X X X X X X X X X Xv O.=.=.=.=.=.%.g  X X X X X X X X X X X X X X X X X X X X X X X X X X X",
" X X X X X X X X X X} &.=.=.=.=.=.O.} f  X X X X X X X X X X X X X X X X X X X X X X X Xa } =.=.=.=.=. .y  X X X X X X X X X X X X X X X X X X X X X X X X X X X",
" X X X X X X X X X Xg %.=.=.=.%.| l  X X X X X X X X X X X X X X X X X X X X X X X X X X$ l O.=.=.=.&.l  X X X X X X X X X X X X X X X X X X X X X X X X X X X X",
" X X X X X X X X X Xf %.=.=.&.} d  X X X X X X X X X X X X X X X X X X X X X X X X X X X Xi  .=.=.=.O.y  X X X X X X X X X X X X X X X X X X X X X X X X X X X X",
" X X X X X X X X X Xc &.=.=.| f  X X X X X X X X X X X X X X X X X X X X X X X X X X X X X& X.=.=.=.l  X X X X X X X X X X X X X X X X X X X X X X X X X X X X X",
" X X X X X X X X Xi } =.=.&.l  X X X X X X X X X X X X X X X X X X X X X X X X X X X X X Xl %.=.%.X.g  X X X X X X X X X X X X X X X X X X X X X X X X X X X X X",
" X X X X X X X X Xg O.=.=.O.v  X X X X X X X X X X X X X X X X X X X X X X X X X X X X X: X.=.=.O.&.~ L  X X X X X X X X X X X X X X X X X X X X X X X X X X X X",
" X X X X X X X X XC ,.9.%. .X.y  X X X X X X X X X X X X X X X X X X X X X X X X X X X^ C %.=.=.=.6.l.M.g.P  X X X X X X X X X X X X X X X X X X X X X X X X X X",
" X X X X X X X X` B.B.n.;.} O.c  X X X X X X X X X X X X X X X X X X X X X X X X X X/ r. .%.@.=.=.7.z.|.|.N.^ P  X X X X X X X X X X X X X X X X X X X X X X X X",
" X X X X X X X] ~.|.|.}.k.+.} }  X X X X X X X X X X X X X X X X X X X X X X X X Xw i.| | @.X.=.=.0.c.|.|.|.}.N.' P  X X X X X X X X X X X X X X X X X X X X X X",
" X X X X X XR W.|.|.|.|.].~ V %.b  X X X X X X X X X X X X X X X X X X X X X X X XZ q. .v X.X.=.=.=.0.R.|.|.|.|.W.s.' R  X X X X X X X X X X X X X X X X X X X X",
" X X X X XP R.|.|.|.|.|.|.j.&.&.b  X X X X X X X X X X X X X X X X X X X X X X X X| =.=.b i } =.=.=.=.e.E.|.|.|.|.}.}.E.s.( K  X X X X X X X X X X X X X X X X X",
" X X X XP j.|.|.|.|.|.|.|.k.0.O.i  X X X X X X X X X X X X X X X X X X X X X X X X} =.=.=. . .O.O.%.=.=.t.U.Q.}.|.|.|.|.|.].v.^  X X X X X X X X X X X X X X X X",
" X X X` m.|.|.|.|.|.|.|.|.W.5.f  X X X X X X X X X X X X X X X X X X X X X X X X Xg  .O.O.v p y u g | o.&.=.0.F.L.R.W.|.|.|.|.M.)  X X X X X X X X X X X X X X X",
" X Xh._.|.|.|.|.|.|.|.|.|.}.U  X X X X X X X X X X X X X X X X X X X X X X X X X X X X X X X X X X X Xt u a a g z B A %.%.O. .k h  X X X X X X X X X X X X X X X",
" X] ^.|.|.|.|.|.|.|.|.|.|.Q.F  X X X X X X X X X X X X X X X X X X X X X X X X X X X X X X X X X X X X X X X X X X X X X X X X X X X X X X X X X X X X X X X X X",
"R !.|.|.|.|.|.|.|.|.|.|.|.` @  X X X X X X X X X X X X X X X X X X X X X X X X X X X X X X X X X X X X X X X X X X X X X X X X X X X X X X X X X X X X X X X X X",
"w _.|.|.|.|.|.|.|.|.|._.2.0  X X X X X X X X X X X X X X X X X X X X X X X X X X X X X X X X X X X X X X X X X X X X X X X X X X X X X X X X X X X X X X X X X X",
"  L '.|.|.|.|.|.|.T.I  X X X X X X X X X X X X X X X X X X X X X X X X X X X X X X X X X X X X X X X X X X X X X X X X X X X X X X X X X X X X X X X X X X X X X",
" X. 3 r r 4 1 O 7  X X X X X X X X X X X X X X X X X X X X X X X X X X X X X X X X X X X X X X X X X X X X X X X X X X X X X X X X X X X X X X X X X X X X X X X"
};
