/* XPM */
static char *result[] = {
/* columns rows colors chars-per-pixel */
"80 80 186 2 ",
"   c #8C8178",
".  c #999471",
"X  c #A19D73",
"o  c #A6A378",
"O  c #857496",
"+  c #8A7B95",
"@  c #87769C",
"#  c #8B7C9D",
"$  c #8E7EA2",
"%  c #8E8182",
"&  c #9E968B",
"*  c #93859C",
"=  c #978D9A",
"-  c #9A929C",
";  c #A09980",
":  c #A69E9A",
">  c #ABA687",
",  c #ACAE83",
"<  c #B0AA89",
"1  c #A8B086",
"2  c #AEB48A",
"3  c #B2B38C",
"4  c #B8B68E",
"5  c #B0B88E",
"6  c #ADA793",
"7  c #A9A099",
"8  c #B8B792",
"9  c #B2BA94",
"0  c #BEBD9E",
"q  c #8F81A1",
"w  c #9385A6",
"e  c #9689A6",
"r  c #9485AC",
"t  c #9689AA",
"y  c #9A8CAC",
"u  c #9E92A4",
"i  c #9D90AE",
"p  c #9585B0",
"a  c #9788B0",
"s  c #9B8DB3",
"d  c #9E91B4",
"f  c #9F94B8",
"g  c #A097A4",
"h  c #A69EAE",
"j  c #A295B5",
"k  c #A599B5",
"l  c #A99DB5",
"z  c #A296B9",
"x  c #A59BBB",
"c  c #A99EBD",
"v  c #ABA3A2",
"b  c #B4AFAB",
"n  c #B5B2A1",
"m  c #BDBFA1",
"M  c #B5B1AB",
"N  c #BCBCA9",
"B  c #ACA4B3",
"V  c #ABA1BE",
"C  c #B5AEB2",
"Z  c #B3AABE",
"A  c #B8AFB9",
"S  c #B6B2B3",
"D  c #BAB3B4",
"F  c #BEBDB5",
"G  c #B7B1BA",
"H  c #BBB6BC",
"J  c #BFBABF",
"K  c #C1BFA2",
"L  c #BFC097",
"P  c #BDC59C",
"I  c #BFC89D",
"U  c #BEC5A4",
"Y  c #C0C49A",
"T  c #C3C6A1",
"R  c #C4CBA3",
"E  c #CACDA5",
"W  c #C5CBAA",
"Q  c #C9CDAE",
"!  c #C8D0A7",
"~  c #CBD3AC",
"^  c #C1C1B3",
"/  c #C6C8B0",
"(  c #CACDB2",
")  c #C9C7BF",
"_  c #C9CCB8",
"`  c #CDD2B1",
"'  c #CCD0BA",
"]  c #D0D6B3",
"[  c #D3DAB3",
"{  c #D1D6BB",
"}  c #D4DABB",
"|  c #D8DCBB",
" . c #DAE1BC",
".. c #AB9FC0",
"X. c #ADA3C2",
"o. c #B1A6C4",
"O. c #B3ABC5",
"+. c #B6ADC9",
"@. c #B9AFCC",
"#. c #BCB7C3",
"$. c #BDBAC1",
"%. c #B7B0C9",
"&. c #BBB2CC",
"*. c #BFB6D1",
"=. c #C1BACC",
"-. c #C1B7D2",
";. c #C5BCD5",
":. c #C8BFD7",
">. c #C8BFD9",
",. c #C6C2C4",
"<. c #CCCCC4",
"1. c #C7C2CC",
"2. c #CAC6CC",
"3. c #CCCBC8",
"4. c #D6DAC3",
"5. c #DADDC5",
"6. c #D5D5CD",
"7. c #DBDCCB",
"8. c #CAC3D5",
"9. c #CECAD2",
"0. c #CCC3DC",
"q. c #D1CDD2",
"w. c #D4CFDD",
"e. c #D5D2D3",
"r. c #DBDAD6",
"t. c #D5D1D8",
"y. c #DAD6DD",
"u. c #DCDADB",
"i. c #E0DED2",
"p. c #E0DFDA",
"a. c #DDE3C4",
"s. c #DDE1CC",
"d. c #DFE0D4",
"f. c #E0E7C6",
"g. c #E4EBC6",
"h. c #E1E6CC",
"j. c #E4EACC",
"k. c #E9F1C8",
"l. c #E2E4D3",
"z. c #E5EAD3",
"x. c #E9EDD4",
"c. c #E3E3DC",
"v. c #E7E9DA",
"b. c #EAEDDD",
"n. c #ECF2D5",
"m. c #EEF2DD",
"M. c #F1F6DD",
"N. c #F2F8DD",
"B. c #CFC7E0",
"V. c #D0C7E0",
"C. c #D5CDE6",
"Z. c #D6CEE8",
"A. c #D7D0E3",
"S. c #D9D3E4",
"D. c #DEDAE4",
"F. c #D8D1E9",
"G. c #E1DDE4",
"H. c #E1DCEB",
"J. c #E4E3E1",
"K. c #EBEDE2",
"L. c #E5E3E8",
"P. c #E9E7EA",
"I. c #EEEDEB",
"U. c #EEF1E2",
"Y. c #EFF1E8",
"T. c #F2F5E3",
"R. c #F5F8E5",
"E. c #F5F8E7",
"W. c #F4F6EB",
"Q. c #F3F5ED",
"!. c #F5F9E9",
"~. c #F6F9EB",
"^. c #F8FAEE",
"/. c #F8FBEF",
"(. c #EEECF0",
"). c #F6F6F3",
"_. c #F7F8F2",
"`. c #FAFDF2",
"'. c #FAFCF3",
"]. c #FBFCF4",
"[. c #FBFDF6",
"{. c #FAFBF8",
"}. c #FBFCF8",
"|. c #FDFDFC",
" X c #FFFFFE",
".X c None",
/* pixels */
".X.X.X.X.X.X.X.X.X.X.X.X.X.X.X.X.X.X.X.X.X.X.X.X.X.X.X.X.X.X.X.X.X.X.X.X.X.X.X.X.X.X.X.X.X.X.X.X.X.X.X.X.X.X.X.X.X.X.X.X.X.X.X.X.X.X.X.X.X.X.X.X.X.X.X.X.X.X.X.X",
".X.X.X.X.X.X.X.X.X.X.X.X.X.X.X.X.X.X.X.X.X.X.X.X.X.X.X.X.X.X.X.X.X.X.X.X.X.X.X.X.X.X.X.X.X.X.X.X.X.X.X.X.X.X.X.X.X.X.X.X.X.X.X.X.X.X.X.X.X.X.X.X.X.X.X.X.X.X.X.X",
".X.X.X.X.X.X.X.X.X.X.X.X.X.X.X.X.X.X.X.X.X.X.X.X.X.X.X.X.X.X.X.X.X.X.X.X.X.X.X.X.X.X.X- R ].E.[ R .X.X.X.X.X.X.X.X.X.X.X.X.X.X.X.X.X.X.X.X.X.X.X.X.X.X.X.X.X.X.X",
".X.X.X.X.X.X.X.X.X.X.X.X.X.X.X.X.X.X.X.X.X.X.X.X.X.X.X.X.X.X.X.X.X.X.X.X.X.X.X.X.X.Xs O.c. X}.W.U.Q.j..X.X.X.X.X.X.X.X.X.X.X.X.X.X.X.X.X.X.X.X.X.X.X.X.X.X.X.X.X",
".X.X.X.X.X.X.X.X.X.X.X.X.X.X.X.X.X.X.X.X.X.X.X.X.X.X.X.X.X.X.X.X.X.X.X.X.X.X.X.X.Xy @.C.). X X X X X}.T.] .X.X.X.X.X.X.X.X.X.X.X.X.X.X.X.X.X.X.X.X.X.X.X.X.X.X.X",
".X.X.X.X.X.X.X.X.X.X.X.X.X.X.X.X.X.X.X.X.X.X.X.X.X.X.X.X.X.X~ ( a.a.n.E. X X XR.n.H >.y.T. X X X X X X X{.{ .X.X.X.X.X.X.X.X.X.X.X.X.X.X.X.X.X.X.X.X.X.X.X.X.X.X",
".X.X.X.X.X.X.X.X.X.X.X.X.X.X.X.X.X.X.X.X.X.X.X.X.X.X.X.X4.z./. X X X X X X X X X XD.B.Z.u.E. X X X X X X XQ.~ .X.X.X.X.X.X.X.X.X.X.X.X.X.X.X.X.X.X.X.X.X.X.X.X.X",
".X.X.X.X.X.X.X.X.X.X.X.X.X.X.X.X.X.X.X.X.X.X.X.X.X] l.U.}. X X X X X X X X X X X[.y.C.Z.Z.u.!. X X X X X X Xh..X.X.X.X.X.X.X.X.X.X.X.X.X.X.X.X.X.X.X.X.X.X.X.X.X",
".X.X.X.X.X.X.X.X.X.X.X.X.X.X.X.X.X.X.X.X.X9 W | g.g.n.!. X X X X X X X X X}.W.x.D.0.V.Z.Z.Z.c.n.[.}.}. X X Xz..X.X.X.X.X.X.X.X.X.X.X.X.X.X.X.X.X.X.X.X.X.X.X.X.X",
".X.X.X.X.X.X.X.X.X.X.X.X.X.X.X.X.X.X.X.Xa._.{.}.}. X}. X X X X X X X[.].K.l.S.C.0.&.0.Z.Z.Z.Z.S.l.z.x.`.'.'.z..X.X.X.X.X.X.X.X.X.X.X.X.X.X.X.X.X.X.X.X.X.X.X.X.X",
".X.X.X.X.X.X.X.X.X.X.X.X.X.X.X.X.X.X.X!. X X X X X X X X X}.[. X}.!.z.u.Z.Z.Z.-.-.x -.Z.Z.Z.Z.Z.Z.Z.S.l.l.l.t..X.X.X.X.X.X.X.X.X.X.X.X.X.X.X.X.X.X.X.X.X.X.X.X.X",
".X.X.X.X.X.X.X.X.X.X.X.X.X.X.X.X.X.XT. X X X X X X X X X X^.j.T.L.u.A.Z.Z.0.-.&.;.o.O.Z.Z.Z.Z.Z.Z.A v 0.Z.Z.0..X.X.X.X.X.X.X.X.X.X.X.X.X.X.X.X.X.X.X.X.X.X.X.X.X",
".X.X.X.X.X.X.X.X.X.X.X.X.X.X.X.X.Xz. X X X X X X X X X X}.j._ y.Z.Z.Z.Z.;.&.-.;.-.O.y 0.Z.Z.Z.Z.Z.Z   v C.Z.-..X.X.X.X.X.X.X.X.X.X.X.X.X.X.X.X.X.X.X.X.X.X.X.X.X",
".X.X.X.X.X.X.X.X.X.X.X.X.X.X.X.XI !. X X X X X X X[.M.n.j.] ^ C.C.V.;.&.-.;.;.;.&.z f c ;.V.Z.Z.Z.C.0.0.Z.0.2.a..X.X.X.X.X.X.X.X.X.X.X.X.X.X.X.X.X.X.X.X.X.X.X.X",
".X.X.X.X.X.X.X.X.X.X.X.X.X.X} a.}  X X X X X X X[.m.[. X X Xc.3.-.&.&.;.-.&.O.&.c z z r V &.@.;.V.Z.Z.Z.C.O.q.}.x..X.X.X.X.X.X.X.X.X.X.X.X.X.X.X.X.X.X.X.X.X.X.X",
".X.X.X.X.X.X.X.X.X.X.X.X.Xs./.}.x. X X X X X X X X X X X X X'.a.O.;.;.&.X.x X.k f z r r y X.y c &.-.Z.Z.@.,./. XK..X.X.X.X.X.X.X.X.X.X.X.X.X.X.X.X.X.X.X.X.X.X.X",
".X.X.X.X.X.X.X.X.X.X.X.Xz. X X X[. X X X X X X X X X X XE.b.G.t.z ..z x V &.;.y t r r r $ y X.*.+.z j j J W. X XT..X.X.X.X.X.X.X.X.X.X.X.X.X.X.X.X.X.X.X.X.X.X.X",
".X.X.X.X.X.X.X.X.X.X.X} }. X X X X X}.}.|.|.|.|.).x.x.c.S.A.Z.C.X.x O.&.-.;.;.V $ # # # r j d @.&.k ) P.). X X Xb..X.X.X.X.X.X.X.X.X.X.X.X.X.X.X.X.X.X.X.X.X.X.X",
".X.X.X.X.X.X.X.X.X.XR m. X X X[. X XM.v.S.F.F.F.S.A.A.Z.Z.Z.Z.V.;.;.;.;.;.;.;.;.-.-.-.-.-.%.O.i e H E.}. X X X`. ..X.X.X.X.X.X.X.X.X.X.X.X.X.X.X.X.X.X.X.X.X.X.X",
".X.X.X.X.X.X.X.X.X.Xz. X X X XM.}. X X!.u.Z.Z.Z.Z.Z.Z.Z.Z.Z.V.0.;.;.;.;.;.;.;.;.;.;.;.;.;.;.-.;.;.;.6.l.!. X[.| .X.X.X.X.X.X.X.X.X.X.X.X.X.X.X.X.X.X.X.X.X.X.X.X",
".X.X.X.X.X.X.X.X.X .`. X X X Xx.[. X X!.u.0.V.Z.Z.Z.Z.:.*.0.;.;.;.;.;.;.;.;.;.;.;.;.;.;.;.;.&.-.;.;.;.8.6.v.} 5 .X.X.X.X.X.X.X.X.X.X.X.X.X.X.X.X.X.X.X.X.X.X.X.X",
".X.X.X.X.X.X.X.X! m. X`.n.n.n. .m.{.[.v.A.C.0.-.+.z x X.&.;.;.;.;.&.%.%.%.%.%.-.;.;.;.;.&.%.c x -.;.;.;.-.#.h .X.X.X.X.X.X.X.X.X.X.X.X.X.X.X.X.X.X.X.X.X.X.X.X.X",
".X.X.X.X.X.X.XW j. X X X}.}.}.].j.W ] q.Z.Z.Z.*.X.z f O.+.%.%.%.%.+.X.V V X.+.+.%.%.%.+.O.c w # j X.+.+.O.z -.m.Q .X.X.X.X.X.X.X.X.X.X.X.X.X.X.X.X.X.X.X.X.X.X.X",
".X.X.X.X.X.X} v.E. X X X X X X X Xb.0 6 8.V.*...O.+.x x c c c c c x s t t s j V c c k f s # s f c O.+.+.V j t. XQ.f..X.X.X.X.X.X.X.X.X.X.X.X.X.X.X.X.X.X.X.X.X.X",
".X.X.X.X.Xn.`.M.}. X X X X X X X X X X| 6 V X.&.+.+.+.V f s f f f f x x x z $ $ .X.X%   .X# s x f V x j s k d.}. X/.a..X.X.X.X.X.X.X.X.X.X.X.X.X.X.X.X.X.X.X.X.X",
".X.X.X.X.Xx. X'. X X X X X X X X X X X X| & &.;.+.+.O.X.c x x x x x x z w q .X.X.X.X7.7..X.Xt x o.O.V X.&.&.=.v.}. XU..X.X.X.X.X8 .X.X.X.X.X.X.X.X.X.X.X.X.X.X.X",
".X.X.X.Xw.y.x.).}. X X X X X X X X X X X}.a.T C Z Z X.x x x x x x x t @ .X.X.X.X4 T.Y.U .X.Xw c +.+.%.;.;.;.*.1.b. X Xl..X.X.X> 5..X.X.X.X.X.X.X.X.X.X.X.X.X.X.X",
".X.X.X.XF.F.C.A.b._. X X X X X X X X X X X X}.l.m D B g l X.X.X.x p @ .X.X.X3 m l.Q.( .X.X.X.Xk +.+.-.;.;.;.;.;.9.U. X`.~ .X.X9 K.K .X.X.X.X.X.X.X.X.X.X.X.X.X.X",
".X.X.X.Xo.-.:.V.Z.u.T.'. X X X X X X X X X X X X X X4.K N F b : & .X.X.X( ( b. XQ.W .X.X.X.X.Xs O.+.-.;.;.;.;.;.;.q.T.'.^.{ 9 { c.j .X.X.X.X.X.X.X.X.X.X.X.X.X.X",
".X.X.X.X.Xw o.V.Z.Z.y.G.K.T. X X X X X X X X X X X X X}.T.l.7.T , L ] m.}. X X X{ .X.X.X.X.X.X$ V +.-.;.;.;.;.;.;.;.9.r.M.}.Q i.y.j ^ .X.X.X.X.X.X.X.X.X.X.X.X.X",
".X.X.X.X.X.Xw V 0.Z.Z.Z.A.S.J.n.n.W. X}.}.}.}. X X X X X X X X}.Q.`.[. X X X X XU.R .X.X.X.X.X.Xw X.%.;.;.;.;.;.;.;.;.8.9.x.] ( V.X.u.s..X.X.X.X.X.X.X.X.X.X.X.X",
".X.X.X.X.X.X.X# V -.C.Z.Z.Z.Z.A.A.S.l.z.z.z.z.x.).'.[.'.[.[.'.[. X X X X X X X X XT.R .X.X.X.X.X.Xt V %.;.;.;.;.;.;.;.;.;.8.&.&.:.-.c ).z..X.X.X.X.X.X.X.X.X.X.X",
".X.X.X.X.X.X.X.X.X$ X.0.Z.Z.Z.Z.Z.Z.Z.Z.Z.Z.Z.Z.S.l.l.l.l.l.l.l.}. X X X X X X X}.[.h.v .X.X.X.X.X.Xw f @.-.;.;.;.;.;.;.;.;.X.+.:.%.V p.{.m.( .X.X.X.X.X.X.X.X.X",
".X.X.X.X.X.X.X.X.X.X.Xj O.0.Z.Z.Z.Z.Z.Z.Z.Z.Z.Z.Z.Z.Z.Z.Z.Z.C.;.{. X X X X X X X[.J.2.Z.O..X.X.X.X.X.X.Xy k -.;.;.;.;.;.;.:.X.+.;.+.O.X.8.W.Y.W .X.X.X.X.X.X.X.X",
".X.X.X.X.X.X.X.X.X.X.X.X.Xy X.-.V.Z.Z.Z.Z.Z.Z.Z.C.C.0.o.j y x +.U. X X X X X Xb.{.H.@.@.C.-.y .X.X.X.X.X.X.Xy X.&.;.;.;.;.-.c O.%.+.X.f x G T.K.U .X.X.X.X.X.X.X",
".X.X.X.X.X.X.X.X.X.X.X.X.X.X+ * u V &.:.0.;.%.O.z t k +.&.%.X.t 2.T.}. X X X X).=.+.0.*.O.0.:.i .X.X.X.X.X.X.X.X.X# w s s f x z X.+.V y z o.M i.b..X.X.X.X.X.X.X",
".X.X.X.X.X.X.X.X.X.X.X.X.X.X.XT j.{ B l l l S e.Z.@.O.;.;.-.x w V e.x./.}. XT.m.l.+.X.:.;.X.&.:....X.X.X.X.X.X.X.X.X.X.X.X.X.X+.-.+.z t V t O.7 K.( .X.X.X.X.X.X",
".X.X.X.X.X.X.X.X.X.X.X.X.X.XI x. X X X X X X XW.u.*.c &.&.O.f V i c 8.d.m.E.x.N ,.Z.;...;.0.x o.:.&..X.X.X.X.X.X.X.X.X.X.X.X.XV ;.&.x y V r k j M | .X.X.X.X.X.X",
".X.X.X.X.X.X.X.X.X.X.X.X.X.X! '. X X X X X X X XI.0.j O.+.x j +.%.X.d X.1.r.u.=.+.V 0.0.x o.;.X.j *..X.X.X.X.X.X.X.X.X.X.X.X.Xs &.&.x j V e O.k k S c .X.X.X.X.X",
".X.X.X.X.X.X.X.X.X.X.X.X.X= | /. X X X X X X X X`.e.s q t f O.+.;.:.;.;.&.d x &.-.-.x @.-.O.j -.-.c .X.X.X.X.X.X.X.X.X.X.X.X.X.Xe s $ $ s d d X.j x x # .X.X.X.X",
".X.X.X.X.X.X.X.X.X.X.X.X.Xy r.`. X X X X X X X X XD.e r x X.+.+.&.;.Z.Z.Z.B.V.<.h &.%.o.r @.*.k X.-.z .X.X.X.X.X.X.X.X.X.X.X.X.X.X.X.X.XO w y d c j @.o..X.X.X.X",
".X.X.X.X.X.X.X.X.X.X.X.X.Xz Z.I. X X X X X X X X Xz..X.Xf x O.+.%.;.B.Z.Z.Z.C.A.c.l.H 0.=.Z 0.S.Z =.$..X.X.X.X.X.X.X.X.X.X.X.X.X.X.X.X.X.X.Xe k j k d o.y .X.X.X",
".X.X.X.X.X.X.X.X.X.X.X.X.Xz Z.l.}. X X X X X X X Xz..X.X.X.XV O.+.%.;.V.Z.Z.0.C.Z.y.T. X X X X X X Xf..X.X.X.X.X.X.X.X.X.X.X.X.X.X.X.X.X.X.X.X$ y i X.t # .X.X.X",
".X.X.X.X.X.X.X.X.X.X.X.X.Xy 0.y.T. X X X X X X X X7..X.X.X.X.XX.O.+.%.;.0.Z.0.;.Z.Z.u.n./. X X X X X!.] .X.X.X.X.X.X.X.X.X.X.X.X.X.X.X.X.X.X.X.X.X# j q .X.X.X.X",
".X.X.X.X.X.X.X.X.X.X.X.X.Xe 0.Z.u.T. X X X X X X X4..X.X.X.X.X.Xf X.O.&.;.0.0.&.0.Z.Z.A.c.'.}. X X X XE..X.X.X.X.X.X.X.X.X.X.X.X.X.X.X.X.X.X.X.X.X.X.X.X.X.X.X.X",
".X.X.X.X.X.X.X.X.X.X.X.X.X.X-.Z.Z.u.!. X X X X X^.~ .X.X.X.X.X.X.X.Xz c O.*.;.;.+.0.Z.Z.A.l.m./. X X X'.( .X.X.X.X.X.X.X.X.X.X.X.X.X.X.X.X.X.X.X.X.X.X.X.X.X.X.X",
".X.X.X.X.X.X.X.X.X.X.X.X.X.X+.Z.Z.Z.p.R.[. X X Xz..X.X.X.X.X.X.X.X.X.X# r t c &.X.+.0.Z.Z.Z.y.l.I.E.T.7.W .X.X.X.X.X.X.X.X.X.X.X.X.X.X.X.X.X.X.X.X.X.X.X.X.X.X.X",
".X.X.X.X.X.X.X.X.X.X.X.X.X.Xj ;.Z.Z.Z.q.l.T. Xm.I .X.X.X.X.X.X.X.X.X.X.X.X.X# e x z *.B.Z.Z.Z.Z.A.t.9.;.#..X.X.X.X.X.X.X.X.X.X.X.X.X.X.X.X.X.X.X.X.X.X.X.X.X.X.X",
".X.X.X.X.X.X.X.X.X.X.X.X.X.Xw @.Z.Z.0.;.8.9.8.V e .X.X.X.X.X.X.X.X.X.X.X.X.X.X.X$ s z &.V.Z.Z.Z.V.:.;.;.O..X.X.X.X.X.X.X.X.X.X.X.X.X.X.X.X.X.X.X.X.X.X.X.X.X.X.X",
".X.X.X.X.X.X.X.X.X.X.X.X.Xk &.X.C.0.;.;.;.*.x f .X.X.X.X.X.X.X.X.X.X.X.X.X.X.X.X.X.Xw s +.;.V.V.:.;.;.;.x .X.X.X.X.X.X.X.X.X.X.X.X.X.X.X.X.X.X.X.X.X.X.X.X.X.X.X",
".X.X.X.X.X.X.X.X.X.X.X.X+.V.0.&.V.0.;.;.-.V s .X.X.X.X.X.X.X.X.X.X.X.X.X.X.X.X.X.X.X$ x o.+.*.;.;.;.;.&.f .X.X.X.X.X.X.X.X.X.X.X.X.X.X.X.X.X.X.X.X.X.X.X.X.X.X.X",
".X.X.X.X.X.X.X.X.X.X.XO.B.Z.0.0.V.;.;.;.+.V f .X.X.X.X.X.X.X.X.X.X.X.X.X.X.X.X.X.X.Xo.V.V.*.+.-.;.;.;.o..X.X.X.X.X.X.X.X.X.X.X.X.X.X.X.X.X.X.X.X.X.X.X.X.X.X.X.X",
".X.X.X.X.X.X.X.X.X.X.X:.Z.Z.Z.Z.0.;.;.;.&.%.x .X.X.X.X.X.X.X.X.X.X.X.X.X.X.X.X.X.X..0.Z.Z.Z.0.&.;.;.;.@..X.X.X.X.X.X.X.X.X.X.X.X.X.X.X.X.X.X.X.X.X.X.X.X.X.X.X.X",
".X.X.X.X.X.X.X.X.X.XO.C.Z.Z.Z.C.;.;.;.;.;.&..X.X.X.X.X.X.X.X.X.X.X.X.X.X.X.X.X.X.X*.Z.Z.Z.Z.B.;.;.;.;.-.z .X.X.X.X.X.X.X.X.X.X.X.X.X.X.X.X.X.X.X.X.X.X.X.X.X.X.X",
".X.X.X.X.X.X.X.X.X.X&.Z.Z.Z.Z.0.;.;.;.;.;.%..X.X.X.X.X.X.X.X.X.X.X.X.X.X.X.X.X.Xx 0.Z.Z.Z.Z.B.;.;.;.;.;.x .X.X.X.X.X.X.X.X.X.X.X.X.X.X.X.X.X.X.X.X.X.X.X.X.X.X.X",
".X.X.X.X.X.X.X.X.X.X0.Z.Z.Z.C.0.;.;.;.;.;.O..X.X.X.X.X.X.X.X.X.X.X.X.X.X.X.X.X.X+.Z.Z.Z.Z.Z.0.;.;.;.;.;.X..X.X.X.X.X.X.X.X.X.X.X.X.X.X.X.X.X.X.X.X.X.X.X.X.X.X.X",
".X.X.X.X.X.X.X.X.X.X0.Z.Z.Z.0.;.;.;.;.;.&.f .X.X.X.X.X.X.X.X.X.X.X.X.X.X.X.X.X.Xc V.Z.Z.Z.C.;.;.;.;.;.&..X.X.X.X.X.X.X.X.X.X.X.X.X.X.X.X.X.X.X.X.X.X.X.X.X.X.X.X",
".X.X.X.X.X.X.X.X.X.X:.Z.Z.C.:.;.;.;.;.;.O..X.X.X.X.X.X.X.X.X.X.X.X.X.X.X.X.X.X.Xf -.V.Z.Z.V.;.;.;.;.;.X..X.X.X.X.X.X.X.X.X.X.X.X.X.X.X.X.X.X.X.X.X.X.X.X.X.X.X.X",
".X.X.X.X.X.X.X.X.Xr &.Z.Z.V.;.;.;.;.;.&.j .X.X.X.X.X.X.X.X.X.X.X.X.X.X.X.X.X.X.X.XO.;.0.V.:.;.;.;.;.-.x .X.X.X.X.X.X.X.X.X.X.X.X.X.X.X.X.X.X.X.X.X.X.X.X.X.X.X.X",
".X.X.X.X.X.X.X.X.Xr O.Z.V.;.;.;.;.-.+.d .X.X.X.X.X.X.X.X.X.X.X.X.X.X.X.X.X.X.X.X.Xj &.;.;.;.;.;.;.;.&..X.X.X.X.X.X.X.X.X.X.X.X.X.X.X.X.X.X.X.X.X.X.X.X.X.X.X.X.X",
".X.X.X.X.X.X.X.X.Xr O.Z.0.;.;.;.&.k y .X.X.X.X.X.X.X.X.X.X.X.X.X.X.X.X.X.X.X.X.X.X.Xz &.;.;.;.;.;.;.O..X.X.X.X.X.X.X.X.X.X.X.X.X.X.X.X.X.X.X.X.X.X.X.X.X.X.X.X.X",
".X.X.X.X.X.X.X.X.Xr &.V.;.;.*.X.e .X.X.X.X.X.X.X.X.X.X.X.X.X.X.X.X.X.X.X.X.X.X.X.X.X.XO.;.;.;.;.;.&.j .X.X.X.X.X.X.X.X.X.X.X.X.X.X.X.X.X.X.X.X.X.X.X.X.X.X.X.X.X",
".X.X.X.X.X.X.X.X.Xa ;.0.;.-.x r .X.X.X.X.X.X.X.X.X.X.X.X.X.X.X.X.X.X.X.X.X.X.X.X.X.X.Xs %.;.;.;.;.+..X.X.X.X.X.X.X.X.X.X.X.X.X.X.X.X.X.X.X.X.X.X.X.X.X.X.X.X.X.X",
".X.X.X.X.X.X.X.Xf c 0.;.;.X.$ .X.X.X.X.X.X.X.X.X.X.X.X.X.X.X.X.X.X.X.X.X.X.X.X.X.X.X.X.Xc ;.;.;.;....X.X.X.X.X.X.X.X.X.X.X.X.X.X.X.X.X.X.X.X.X.X.X.X.X.X.X.X.X.X",
".X.X.X.X.X.X.Xf X.&.;.;.-.j O .X.X.X.X.X.X.X.X.X.X.X.X.X.X.X.X.X.X.X.X.X.X.X.X.X.X.X.X.Xj ;.;.;.;.o..X.X.X.X.X.X.X.X.X.X.X.X.X.X.X.X.X.X.X.X.X.X.X.X.X.X.X.X.X.X",
".X.X.X.X.X.X.Xo.V -.;.;.&.V O .X.X.X.X.X.X.X.X.X.X.X.X.X.X.X.X.X.X.X.X.X.X.X.X.X.X.X.X.Xj ;.;.;.;.&.f .X.X.X.X.X.X.X.X.X.X.X.X.X.X.X.X.X.X.X.X.X.X.X.X.X.X.X.X.X",
".X.X.X.X.X.Xz O.7.z.h.<.&.@.r .X.X.X.X.X.X.X.X.X.X.X.X.X.X.X.X.X.X.X.X.X.X.X.X.X.X.XR M k ;.;.;.1.K.6..X.X.X.X.X.X.X.X.X.X.X.X.X.X.X.X.X.X.X.X.X.X.X.X.X.X.X.X.X",
".X.X.X.X.X.Xy 7.}. X XU.H @.f .X.X.X.X.X.X.X.X.X.X.X.X.X.X.X.X.X.X.X.X.X.X.X.X.X.XI j.9.O.;.;.;.9.m. X/.T..X.X.X.X.X.X.X.X.X.X.X.X.X.X.X.X.X.X.X.X.X.X.X.X.X.X.X",
".X.X.X.X.X.Xn !. X X X!.$.j O .X.X.X.X.X.X.X.X.X.X.X.X.X.X.X.X.X.X.X.X.X.X.X.X.XP f.G.o.&.-.+.;.;.q.T. X X X.X.X.X.X.X.X.X.X.X.X.X.X.X.X.X.X.X.X.X.X.X.X.X.X.X.X",
".X.X.X.X.Xo a.}. X X X!.' l y .X.X.X.X.X.X.X.X.X.X.X.X.X.X.X.X.X.X.X.X.X.X.X.X.Xv.P.-.j -.-.O.-.;.;.e.W. X X[.`..X.X.X.X.X.X.X.X.X.X.X.X.X.X.X.X.X.X.X.X.X.X.X.X",
".X.X.X.X1 ` }. X X X X}.^./ ; .X.X.X.X.X.X.X.X.X.X.X.X.X.X.X.X.X.X.X.X.X.X.X.X .(.0.-.c X.+.X.*.;.;.;.e.n.[. X X!.] 2 .X.X.X.X.X.X.X.X.X.X.X.X.X.X.X.X.X.X.X.X.X",
".X.X.X.XW _. X X X X X X Xa.2 .X.X.X.X.X.X.X.X.X.X.X.X.X.X.X.X.X.X.X.X.X.X.X.X5.8.;.;.*.x e d &.;.;.;.;.8.s.m.[.[.].x.` .X.X.X.X.X.X.X.X.X.X.X.X.X.X.X.X.X.X.X.X",
".X.X.Xf.W. X X X X X X X X^.E .X.X.X.X.X.X.X.X.X.X.X.X.X.X.X.X.X.X.X.X.X.X.X.XV &.:.:.:.;.;.%.O.O.+.-.-.;.;.q.7.l.~.!.'.!.4.R .X.X.X.X.X.X.X.X.X.X.X.X.X.X.X.X.X",
".X.X.X/. X X X X X X X X X[.R .X.X.X.X.X.X.X.X.X.X.X.X.X.X.X.X.X.X.X.X.X.X.X.X.Xd j j j j j t w w w y z X.+.&.-.8.6.6.u.K.N.k.[ P .X.X.X.X.X.X.X.X.X.X.X.X.X.X.X",
".X.X!. X X X X X X X X X X X4..X.X.X.X.X.X.X.X.X.X.X.X.X.X.X.X.X.X.X.X.X.X.X.X.X.X.X.X.X.X.X.X.X.X.X.X.X.Xq w e y t t t u B B B - .X.X.X.X.X.X.X.X.X.X.X.X.X.X.X",
".Xl. X X X X X X X X X X X'.| .X.X.X.X.X.X.X.X.X.X.X.X.X.X.X.X.X.X.X.X.X.X.X.X.X.X.X.X.X.X.X.X.X.X.X.X.X.X.X.X.X.X.X.X.X.X.X.X.X.X.X.X.X.X.X.X.X.X.X.X.X.X.X.X.X",
".Xh. X X X X X X X X X X!.| 3 .X.X.X.X.X.X.X.X.X.X.X.X.X.X.X.X.X.X.X.X.X.X.X.X.X.X.X.X.X.X.X.X.X.X.X.X.X.X.X.X.X.X.X.X.X.X.X.X.X.X.X.X.X.X.X.X.X.X.X.X.X.X.X.X.X",
".X! m. X X X X X X X^.h.Y 2 .X.X.X.X.X.X.X.X.X.X.X.X.X.X.X.X.X.X.X.X.X.X.X.X.X.X.X.X.X.X.X.X.X.X.X.X.X.X.X.X.X.X.X.X.X.X.X.X.X.X.X.X.X.X.X.X.X.X.X.X.X.X.X.X.X.X",
".X.X.Xa.`. X X}.M.z.T , .X.X.X.X.X.X.X.X.X.X.X.X.X.X.X.X.X.X.X.X.X.X.X.X.X.X.X.X.X.X.X.X.X.X.X.X.X.X.X.X.X.X.X.X.X.X.X.X.X.X.X.X.X.X.X.X.X.X.X.X.X.X.X.X.X.X.X.X",
".X.X.Xo 3 W 0 < X . .X.X.X.X.X.X.X.X.X.X.X.X.X.X.X.X.X.X.X.X.X.X.X.X.X.X.X.X.X.X.X.X.X.X.X.X.X.X.X.X.X.X.X.X.X.X.X.X.X.X.X.X.X.X.X.X.X.X.X.X.X.X.X.X.X.X.X.X.X.X"
};
