/* XPM */
static char *result[] = {
/* columns rows colors chars-per-pixel */
"80 80 183 2 ",
"   c #989167",
".  c #9F9871",
"X  c #9B9A7A",
"o  c #A49F7D",
"O  c #A3A178",
"+  c #857496",
"@  c #887996",
"#  c #877799",
"$  c #887799",
"%  c #8B7B9D",
"&  c #8E7EA4",
"*  c #938A80",
"=  c #9D9883",
"-  c #9F968E",
";  c #95879C",
":  c #9D939B",
">  c #A19C84",
",  c #A39D8E",
"<  c #A09897",
"1  c #A39C9D",
"2  c #AAA989",
"3  c #B4AD8E",
"4  c #A9B287",
"5  c #ADB28B",
"6  c #B0B088",
"7  c #B1B58A",
"8  c #A9A690",
"9  c #ABAB93",
"0  c #ACA69C",
"q  c #ADAE9E",
"w  c #B6AF96",
"e  c #B3AF9C",
"r  c #B4B494",
"t  c #B6BB93",
"y  c #B3B29A",
"u  c #B8BF9D",
"i  c #8F80A2",
"p  c #9284A4",
"a  c #9789A7",
"s  c #9485AB",
"d  c #9689AB",
"f  c #9A8DAD",
"g  c #9E91AE",
"h  c #9788B0",
"j  c #9B8DB2",
"k  c #9E92B4",
"l  c #A295AE",
"z  c #A49BAE",
"x  c #A295B4",
"c  c #A498B4",
"v  c #A89CB6",
"b  c #A296B8",
"n  c #A59BBC",
"m  c #A99DBC",
"M  c #ACA7A0",
"N  c #AFAEA9",
"B  c #B2ACA8",
"V  c #B4B4A2",
"C  c #B6B5AD",
"Z  c #ACA4B3",
"A  c #AFA9B3",
"S  c #ACA2BD",
"D  c #B0A7B8",
"F  c #B3ACBB",
"G  c #B6B3B3",
"H  c #B9B7B7",
"J  c #B9B2BA",
"K  c #BFBBBE",
"L  c #C0BDBE",
"P  c #BCC49C",
"I  c #BDC1A3",
"U  c #BFC0AE",
"Y  c #C3C39D",
"T  c #C0C89F",
"R  c #C2C5A5",
"E  c #C4CCA5",
"W  c #C6C7A8",
"Q  c #C6CCAB",
"!  c #C9CEAD",
"~  c #CBD2AD",
"^  c #D0D8AF",
"/  c #C6C7B8",
"(  c #C6C4BE",
")  c #CDD3B3",
"_  c #D3D7B5",
"`  c #D3DAB3",
"'  c #D1D5BC",
"]  c #D6DBBB",
"[  c #D8DFBC",
"{  c #D8E0B6",
"}  c #D9E1BC",
"|  c #AB9FC0",
" . c #ADA4C2",
".. c #B1A6C5",
"X. c #B4ABC6",
"o. c #B3A6C8",
"O. c #B6ACC9",
"+. c #B9AFCB",
"@. c #B7B1C2",
"#. c #BDB5C5",
"$. c #BDB8C5",
"%. c #BBB3CD",
"&. c #BFB9C8",
"*. c #BFB5D1",
"=. c #C1BDC2",
"-. c #C0B7CF",
";. c #C2BBCC",
":. c #C0B7D2",
">. c #C5BCD5",
",. c #C8BFD9",
"<. c #C5C0C3",
"1. c #C8C6C7",
"2. c #CECFC3",
"3. c #C7C5C8",
"4. c #CFCCCA",
"5. c #D2CFC6",
"6. c #D8D6C6",
"7. c #D7DBC3",
"8. c #D4D3CD",
"9. c #DADCCB",
"0. c #C7C0D2",
"q. c #CAC3D3",
"w. c #CDC8D1",
"e. c #CCC3DC",
"r. c #D2CED2",
"t. c #D2CCDC",
"y. c #D6D4D3",
"u. c #DDDCD5",
"i. c #D6D0DD",
"p. c #DAD6DD",
"a. c #DDDBDA",
"s. c #DDE3C4",
"d. c #DCE1C9",
"f. c #DFE1D2",
"g. c #E0E7C6",
"h. c #E2E9C5",
"j. c #E1E6CB",
"k. c #E5EBCD",
"l. c #E8EECE",
"z. c #EAF1CE",
"x. c #E2E4D5",
"c. c #E6EAD1",
"v. c #E9EED4",
"b. c #E3E3DB",
"n. c #E8E6DD",
"m. c #E6E9DA",
"M. c #EAEDDC",
"N. c #EBF1D3",
"B. c #EEF2DA",
"V. c #F1F5DE",
"C. c #CFC7E0",
"Z. c #D5CDE6",
"A. c #D6CEE8",
"S. c #D7D0E4",
"D. c #D8D3E2",
"F. c #DFDAE6",
"G. c #D7D0E8",
"H. c #D8D1E9",
"J. c #E1DDE4",
"K. c #E3E1E4",
"L. c #E8E6E7",
"P. c #EBEDE2",
"I. c #E6E3EC",
"U. c #E8E6EA",
"Y. c #ECEBEB",
"T. c #EEF1E2",
"R. c #F2F5E3",
"E. c #F5F8E5",
"W. c #F4F7E8",
"Q. c #F4F6EB",
"!. c #F6FAE9",
"~. c #F6F9EB",
"^. c #F7FAEC",
"/. c #F8FBEE",
"(. c #F5F6F2",
"). c #F7F8F1",
"_. c #F9FBF1",
"`. c #FBFCF4",
"'. c #FBFCF6",
"]. c #FDFEFA",
"[. c #FDFDFC",
"{. c white",
"}. c None",
/* pixels */
"}.}.}.}.}.}.}.}.}.}.}.}.}.}.}.}.}.}.}.}.}.}.}.}.}.}.}.}.}.}.}.}.}.}.}.}.}.}.}.}.}.}.}.}.}.}.}.}.}.}.}.}.}.}.}.}.}.}.}.}.}.}.}.}.}.}.}.}.}.}.}.}.}.}.}.}.}.}.}.}.",
"}.}.}.}.}.}.}.}.}.}.}.}.}.}.}.}.}.}.}.}.}.}.}.}.}.}.}.}.}.}.}.}.}.}.}.}.}.}.}.}.}.}.}.}.}.}.}.}.}.}.}.}.}.}.}.}.}.}.}.}.}.}.}.}.}.}.}.}.}.}.}.}.}.}.}.}.}.}.}.}.",
"}.}.}.}.}.}.}.}.}.}.}.}.}.}.}.}.}.}.}.}.}.}.}.}.}.}.}.}.}.}.}.}.}.}.}.}.}.}.}.}.}.}.}.}.}.}.}.}.}.}.}.}.}.}.}.}.}.}.}.}.}.}.}.}.}.}.}.}.}.}.}.}.}.}.}.}.}.}.}.}.",
"}.}.}.}.}.}.}.}.}.}.}.}.}.}.}.}.}.}.}.}.}.}.}.}.}.}.}.}.}.}.}.}.}.}.}.}.}.}.}.}.}.}.}.}.}.}.}.}.}.}.}.}.}.}.}.}.}.}.}.}.}.}.}.}.}.}.}.}.}.}.}.}.}.}.}.}.}.}.}.}.",
"}.}.}.}.}.}.}.}.}.}.}.}.}.}.}.}.}.}.}.}.}.}.}.}.}.}.}.}.}.}.}.}.}.}.}.}.}.}.}.}.}.d q c.{.v.] ~ }.}.}.}.}.}.}.}.}.}.}.}.}.}.}.}.}.}.}.}.}.}.}.}.}.}.}.}.}.}.}.}.",
"}.}.}.}.}.}.}.}.}.}.}.}.}.}.}.}.}.}.}.}.}.}.}.}.}.}.}.}.}.}.}.}.}.}.}.}.}.}.}.}.}...Z.{.{.{.{.{.`.s.}.}.}.}.}.}.}.}.}.}.}.}.}.}.}.}.}.}.}.}.}.}.}.}.}.}.}.}.}.}.",
"}.}.}.}.}.}.}.}.}.}.}.}.}.}.}.}.}.}.}.}.}.}.}.}.}.}.}.}.}.}.}.}.}.}.}.}.}.}.}.] m Z.K.{.{.{.{.{.{.{.R.' }.}.}.}.}.}.}.}.}.}.}.}.}.}.}.}.}.}.}.}.}.}.}.}.}.}.}.}.",
"}.}.}.}.}.}.}.}.}.}.}.}.}.}.}.}.}.}.}.}.}.}.}.}.}.}.}.}.}.^ R.P.M.T.W._.{.{.`.T.%.Z.a.E.{.{.{.{.{.{.{.(.) }.}.}.}.}.}.}.}.}.}.}.}.}.}.}.}.}.}.}.}.}.}.}.}.}.}.}.",
"}.}.}.}.}.}.}.}.}.}.}.}.}.}.}.}.}.}.}.}.}.}.}.}.}.}.P } T.Q.].{.{.{.{.{.{.{.{.[.e.Z.Z.a.~.{.{.{.{.{.{.{.B.}.}.}.}.}.}.}.}.}.}.}.}.}.}.}.}.}.}.}.}.}.}.}.}.}.}.}.",
"}.}.}.}.}.}.}.}.}.}.}.}.}.}.}.}.}.}.}.}.}.}.}.}.}.) v.`.{.{.{.{.{.{.{.{.{.{._.Q.t.Z.Z.Z.b.~.].{.{.{.{.{.'.! }.}.}.}.}.}.}.}.}.}.}.}.}.}.}.}.}.}.}.}.}.}.}.}.}.}.",
"}.}.}.}.}.}.}.}.}.}.}.}.}.}.}.}.}.}.}.}.}.}.}.}.) /.{.{.{.{.{.{.{.{.{.!.!.Y.x.u.e.Z.Z.Z.Z.u.M.!.E.`.{.{.{.] }.}.}.}.}.}.}.}.}.}.}.}.}.}.}.}.}.}.}.}.}.}.}.}.}.}.",
"}.}.}.}.}.}.}.}.}.}.}.}.}.}.}.}.}.}.}.{ d.x._.N.l.{.{.{.{.{.{.{.`.V.U.a.a.S.A.e.O.Z.Z.Z.Z.A.D.u.a.m.V.V.B.8.}.}.}.}.}.}.}.}.}.}.}.}.}.}.}.}.}.}.}.}.}.}.}.}.}.}.",
"}.}.}.}.}.}.}.}.}.}.}.}.}.}.}.}.}.}.N.W.].{.{.V._.{.{.{.{.{.{.R.F.p.Z.A.Z.e.*.X.k Z.Z.Z.Z.Z.A.Z.Z.i.p.p.p.e.}.}.}.}.}.}.}.}.}.}.}.}.}.}.}.}.}.}.}.}.}.}.}.}.}.}.",
"}.}.}.}.}.}.}.}.}.}.}.}.}.}.}.}.}.T.{.{.{.{.{.].{.{.{.{.{./.b.S.Z.Z.Z.e.%.%.:.O.b *.A.Z.Z.Z.A.q.* 1 C.A.Z.%.}.}.}.}.}.}.}.}.}.}.}.}.}.}.}.}.}.}.}.}.}.}.}.}.}.}.",
"}.}.}.}.}.}.}.}.}.}.}.}.}.}.}.}.9.{.{.{.{.{.{.{.{.{.{.V.v.b.S.A.Z.>.%.%.:.:.X...k c e.Z.A.A.Z.Z.D - ;.A.e.3.R.}.}.}.}.}.}.}.}.}.}.}.}.}.}.}.}.}.}.}.}.}.}.}.}.}.",
"}.}.}.}.}.}.}.}.}.}.}.}.}.}.}.t '.{.{.{.{.{.{.{.{.{.R.` T ( >.>.:.%.>.>.%.O.%.n n k m >.C.Z.A.Z.A.A.A.Z.O.P.{.{.}.}.}.}.}.}.}.}.}.}.}.}.}.}.}.}.}.}.}.}.}.}.}.}.",
"}.}.}.}.}.}.}.}.}.}.}.}.}.}.O 9.{.{.{.{.{.{.{.{.`.B.z.M.m._ H :.>.>.%...O.%. .k b s d X. .c *.Z.Z.A.Z.%.$.'.{.].[ }.}.}.}.}.}.}.}.}.}.}.}.}.}.}.}.}.}.}.}.}.}.}.",
"}.}.}.}.}.}.}.}.}.}.}.}.}.` ` W.{.{.{.{.{.{.{.{.{.`.`.{.{.k.G o.o.n j m >.%.k b h s s f S x %.| >.e.*.J R.{.{.].l.}.}.}.}.}.}.}.}.}.}.}.}.}.}.}.}.}.}.}.}.}.}.}.",
"}.}.}.}.}.}.}.}.}.}.}.}.N.V.R.~.{.{.{.{.{.{.{.{.{.{.{.]./.m.*.d c O.%.>.>.X.k s & & & & k X.,...f c X.T.{.{.{.{._.}.}.}.}.}.}.}.}.}.}.}.}.}.}.}.}.}.}.}.}.}.}.}.",
"}.}.}.}.}.}.}.}.}.}.}.N._.{./.`.{.{.{.{.{.{.{.{.{._.E.T.f.S.>.O.>.>.>.>.>.>...x a a a k f f m v <.{.{.{.{.{.{.!.] }.}.}.}.}.}.}.}.}.}.}.}.}.}.}.}.}.}.}.}.}.}.}.",
"}.}.}.}.}.}.}.}.}.}.[ /.{.{.{.{.{.{.E.V.V.V.V.V.T.J.u.p.A.Z.>.>.>.>.>.>.>.>.>.>.:.:.:.:.X.c m S u.V.].{.{.{./.` }.}.}.}.}.}.}.}.}.}.}.}.}.}.}.}.}.}.}.}.}.}.}.}.",
"}.}.}.}.}.}.}.}.}.}.m.{.{.{.{.{.{.{.(.p.p.p.p.p.D.Z.A.A.Z.,.:.>.>.>.>.>.>.>.>.>.>.>.>.>.>.%.>.,.q.w.i.v.N.N.8.z }.}.}.}.}.}.}.}.}.}.}.}.}.}.}.}.}.}.}.}.}.}.}.}.",
"}.}.}.}.}.}.}.}.}.W `.{.{.{.E._.{.{.].x.A.Z.Z.A.A.G.G.Z.>.%.>.>.>.>.>.>.>.>.>.>.>.>.>.>.>.%...%.:.>.>.q.0.;.S }.}.}.}.}.}.}.}.}.}.}.}.}.}.}.}.}.}.}.}.}.}.}.}.}.",
"}.}.}.}.}.}.}.}.Y ~.{.{.{.{.E.R.{.{.!.a.Z.e.e.e.>.*.:.O. .X.%.:.:.:.:.:.%...X.%.:.:.:.:.:...b f b ..%.:.%.n G _ }.}.}.}.}.}.}.}.}.}.}.}.}.}.}.}.}.}.}.}.}.}.}.}.",
"}.}.}.}.}.}.}.P R.{.{.{.{.E.l.{ j.R.b.Z.Z.Z.>...S k s k X.O.X.X.X.X...b d p j  .X.X.X.S b d s s s n  .X.X. .K /.R.T.}.}.}.}.}.}.}.}.}.}.}.}.}.}.}.}.}.}.}.}.}.}.",
"}.}.}.}.}.}.t } {.{.{.{.{./.W.g.E t w.A.Z.Z.+. .X. .b j d p p p p p k k f f k j p p p i }.}.p b j  .X.X. .k L /.{.{.{.}.}.}.}.}.}.}.}.}.}.}.}.}.}.}.}.}.}.}.}.}.",
"}.}.}.}.}.s.v.!.{.{.{.{.{.{.{.].R._ 8 ;.,.O.m X.X. .n n b k k k k k b n n k a % }.}.}.}.}.}.& k b j n c j b X.x.'.{.{.].}.}.}.}.}.}.}.}.}.}.}.}.}.}.}.}.}.}.}.}.",
"}.}.}.}.s.Q.!.{.{.{.{.{.{.{.{.{.{.{.] > k *.>.%.X. .n n n n n n n n n j s : w }.}.}.}.}.}.}.}.f  .o.X.X.X.X. .;.n.{.{._.s.}.}.}.}.}.}.}.}.}.}.}.}.}.}.}.}.}.}.}.",
"}.}.}.}.N./.{.{.{.{.{.{.{.{.{.{.{.{.]._ , %.>.%.X.X.S n n n n n n n n ; e B.P.}.}.}.}.}.}.}.}.& m X.X.%.:.>...%.t.`.{.{.7.}.}.W . }.}.}.}.}.}.}.}.}.}.}.}.}.}.}.",
"}.}.}.}.a.b.V.V.{.{.{.{.{.{.{.{.{.{.{.]._ 0 -.>.%.X.X. . . . . . .S < 9 j.).Q }.}.}.}.}.}.}.}.$ n X.%.:.>.>.%.%.0.x.].{.W.Q }.6.r }.}.}.}.}.}.}.}.}.}.}.}.}.}.}.",
"}.}.}.}.,.e.p.p.v.!.{.{.{.{.{.{.{.{.{.{.'.] y J %.X.X.X.X.X.X.Z 8 V u.W.'.) }.}.}.}.}.}.}.}.}.}.k X.:.>.>.>.>.%.%.0.m.].{.~   5.1 }.}.}.}.}.}.}.}.}.}.}.}.}.}.}.",
"}.}.}.}.f O.Z.Z.S.a.v._.`.{.{.{.{.{.{.{.{.].(.v.R B @.F A F M ! v.'.{.{.c.o }.}.}.}.}.}.}.}.}.}.p  .:.>.>.>.>.>.%.>.q.n.[.W.6 5.F Q P }.}.}.}.}.}.}.}.}.}.}.}.}.",
"}.}.}.}.}.f %.Z.Z.Z.S.x.x.E.!.].{.{.{.{.{.{.{.{.{.W.j.' R ' c._.{.{.{._.j.= ; }.}.}.}.}.}.}.}.}.}.f %.>.>.>.>.>.>.>.>.>.L.(.V 4...C !.j.P }.}.}.}.}.}.}.}.}.}.}.",
"}.}.}.}.}.}.p %.Z.Z.Z.A.Z.a.u.M.R.R.].{.{.{.{.{.{.{.{.{.{.{.{.{.{.{.{.{.{.7.> Z .. .}.}.}.}.}.}.}.}.g %.>.>.>.>.>.>.>.>.r.8.c >.:.Z x.'.s.}.}.}.}.}.}.}.}.}.}.}.",
"}.}.}.}.}.}.}.p  .C.Z.Z.Z.A.A.p.p.a.M.B.B.B.B.N.R.{.{././.{.{.{.{.{.{.{.{._.U g :.%.+.}.}.}.}.}.}.}.}.x :.>.>.>.>.>.>.>.>.#.c e.%.k ;.I.`.x.}.}.}.}.}.}.}.}.}.}.",
"}.}.}.}.}.}.}.}.}.c :.Z.Z.A.Z.A.Z.Z.D.D.D.D.D.D.S.H.m.k.W.{.{.{.{.{.{.{.M.h.y.:.$.j.c.) P }.}.}.}.}.}.}.x %.:.>.>.>.%.:.>...b *...p h ..8._.9.}.}.}.}.}.}.}.}.}.",
"}.}.}.}.}.}.}.}.}.}.s S ,.Z.G.A.Z.Z.Z.Z.A.A.A.A.A.G.G.Z.L.{.{.{.{.{.{.W._.5.O.e.e.t.K.{.R.s.}.}.}.}.}.}.}.i  .o.O.%.%...*. .n m  .f k m b u.n.}.}.}.}.}.}.}.}.}.",
"}.}.}.}.}.}.}.}.}.}.}.% f m *.,.Z.G.G.G.G.Z.e.>.*.O.+...=.R.{.{.{.{.{.B.y.e.,.m :.,.m p.{.].B.g.}.}.}.}.}.}.}.}.s k  .S k f  ...X.a b S b #.n.x.}.}.}.}.}.}.}.}.",
"}.}.}.}.}.}.}.}.}.}.}.}.}.}.}.N l c |  . .m A 2.y.=...m g =.!.{.{.{.!.{.Z.n ,.>.m *.e...I.{.{.!.` }.}.}.}.}.}.}.}.}.}.}.}.$ b *.%.k s  .d p 0 P.5 }.}.}.}.}.}.}.",
"}.}.}.}.}.}.}.}.}.}.}.}.}.}.}.~ J.K.I.I.I.I.Y._.{.R.0... .f 4._.{.{.v.) r.,.O.*.C.S ..e.>.(.{.{.E.~ }.}.}.}.}.}.}.}.}.}.}.}.& O.:. .h  .s S z U ] }.}.}.}.}.}.}.",
"}.}.}.}.}.}.}.}.}.}.}.}.}.}.}.} {.{.{.{.{.{.{.{.{.{.t.X.S g g q.m.'./.( m %.e...+.e.| c *.t.{.{.{.R.E }.}.}.}.}.}.}.}.}.}.}.}.b O.c d S f x c x m s }.}.}.}.}.}.",
"}.}.}.}.}.}.}.}.}.}.}.}.}.}.}.n.{.{.{.{.{.{.{.{.{.{.c.S % % p k F / ( e.Z.m c :.m m %.%.b :.{.{.{.{.B.P }.}.}.}.}.}.}.}.}.}.}.}.s & + d g x m c S S }.}.}.}.}.}.",
"}.}.}.}.}.}.}.}.}.}.}.}.}.}.}.n.{.{.{.{.{.{.{.{.{.{.9.@.}.}.k S S x b f S :...b %.*.S o.e.O.F.{.{.{.{.c.P }.}.}.}.}.}.}.}.}.}.}.}.}.}.}.}.f c c x +.S }.}.}.}.}.",
"}.}.}.}.}.}.}.}.}.}.}.}.}.}.}.9.{.{.{.{.{.{.{.{.{.{.' S }.}.}.j S %.%...%...b  .m c :.m f X.e.{.{.{.{.{.k.P }.}.}.}.}.}.}.}.}.}.}.}.}.}.}.}.b g m k b $ }.}.}.}.",
"}.}.}.}.}.}.}.}.}.}.}.}.}.}.}.9.'.{.{.{.{.{.{.{.{.V.E }.}.}.}.}.j  .O.>.e.e.e.C.>.e.Z.Z.8.Y.(.{.{.{.{.{.].s.P }.}.}.}.}.}.}.}.}.}.}.}.}.}.}.}.d g m % }.}.}.}.}.",
"}.}.}.}.}.}.}.}.}.}.}.}.}.}.}.t.B.{.{.{.{.{.{.{._.` }.}.}.}.}.}.}.}.b  .+.:.:.>.%.e.Z.A.Z.D.x.R._.{.{.{.{.].) }.}.}.}.}.}.}.}.}.}.}.}.}.}.}.}.}.p d }.}.}.}.}.}.",
"}.}.}.}.}.}.}.}.}.}.}.}.}.}.+.Z.m._.{.{.{.{.{.{.d.t }.}.}.}.}.}.}.}.}.j n n  .%.X...e.Z.Z.Z.Z.a.m.E.].{.{.!.s.}.}.}.}.}.}.}.}.}.}.}.}.}.}.}.}.}.}.}.}.}.}.}.}.}.",
"}.}.}.}.}.}.}.}.}.}.}.}.}.}.o.A.e.x.R.{.{.`.B.s.6 }.}.}.}.}.}.}.}.}.}.}.}.}.}.a b  .m *.Z.Z.Z.A.S.a.M.B.K.r.1.}.}.}.}.}.}.}.}.}.}.}.}.}.}.}.}.}.}.}.}.}.}.}.}.}.",
"}.}.}.}.}.}.}.}.}.}.}.}.}.}.%.Z.>.q.w.p.c.x.$.z }.}.}.}.}.}.}.}.}.}.}.}.}.}.}.}.}.% s b :.e.Z.Z.A.C.q.w.>.>.O.}.}.}.}.}.}.}.}.}.}.}.}.}.}.}.}.}.}.}.}.}.}.}.}.}.",
"}.}.}.}.}.}.}.}.}.}.}.}.}.k >.e.>.>.>.:.S S  .}.}.}.}.}.}.}.}.}.}.}.}.}.}.}.}.}.}.}.+ % k %.>.C.Z.e.>.>.>.:.m }.}.}.}.}.}.}.}.}.}.}.}.}.}.}.}.}.}.}.}.}.}.}.}.}.",
"}.}.}.}.}.}.}.}.}.}.}.}.n ..Z.e.>.>.>.%. .O.b }.}.}.}.}.}.}.}.}.}.}.}.}.}.}.}.}.}.}.}.}.f  .%.>.>.>.>.>.>.%.b }.}.}.}.}.}.}.}.}.}.}.}.}.}.}.}.}.}.}.}.}.}.}.}.}.",
"}.}.}.}.}.}.}.}.}.}.}. .>.,.Z.,.>.>.%...%.c }.}.}.}.}.}.}.}.}.}.}.}.}.}.}.}.}.}.}.}.}.b :.e.%.:.>.>.>.>.>.S s }.}.}.}.}.}.}.}.}.}.}.}.}.}.}.}.}.}.}.}.}.}.}.}.}.",
"}.}.}.}.}.}.}.}.}.}.}.>.Z.Z.e.>.>.>.%.:. .}.}.}.}.}.}.}.}.}.}.}.}.}.}.}.}.}.}.}.}.}.}.O.Z.Z.e.>.>.>.>.>.%.m $ }.}.}.}.}.}.}.}.}.}.}.}.}.}.}.}.}.}.}.}.}.}.}.}.}.",
"}.}.}.}.}.}.}.}.}.}.%.Z.Z.Z.e.>.>.>.>.%.n }.}.}.}.}.}.}.}.}.}.}.}.}.}.}.}.}.}.}.}.}. .e.Z.Z.Z.e.>.>.>.>.>.o.$ }.}.}.}.}.}.}.}.}.}.}.}.}.}.}.}.}.}.}.}.}.}.}.}.}.",
"}.}.}.}.}.}.}.}.}.}.e.Z.A.Z.>.>.>.>.>.:. .$ }.}.}.}.}.}.}.}.}.}.}.}.}.}.}.}.}.}.}.}.%.Z.Z.Z.Z.e.>.>.>.>.>.%.j }.}.}.}.}.}.}.}.}.}.}.}.}.}.}.}.}.}.}.}.}.}.}.}.}.",
"}.}.}.}.}.}.}.}.}. .e.A.A.Z.>.>.>.>.>.>.o.% }.}.}.}.}.}.}.}.}.}.}.}.}.}.}.}.}.}.}.k *.Z.Z.A.e.>.>.>.>.>.>.*.n }.}.}.}.}.}.}.}.}.}.}.}.}.}.}.}.}.}.}.}.}.}.}.}.}.",
"}.}.}.}.}.}.}.}.}.X.C.A.Z.e.>.>.>.>.>.>.%.% }.}.}.}.}.}.}.}.}.}.}.}.}.}.}.}.}.}.}.n O.e.Z.Z.e.>.>.>.>.>.>.o.j }.}.}.}.}.}.}.}.}.}.}.}.}.}.}.}.}.}.}.}.}.}.}.}.}.",
"}.}.}.}.}.}.}.}.}.X.e.A.Z.,.>.>.>.>.>.>.%.% }.}.}.}.}.}.}.}.}.}.}.}.}.}.}.}.}.}.}.}.k >.e.,.>.>.>.>.>.>.>. .}.}.}.}.}.}.}.}.}.}.}.}.}.}.}.}.}.}.}.}.}.}.}.}.}.}.",
"}.}.}.}.}.}.}.}.}.m e.A.Z.,.>.>.>.>.>.>. .}.}.}.}.}.}.}.}.}.}.}.}.}.}.}.}.}.}.}.}.}.% o.>.>.>.>.>.>.>.>.O.j }.}.}.}.}.}.}.}.}.}.}.}.}.}.}.}.}.}.}.}.}.}.}.}.}.}.",
"}.}.}.}.}.}.}.}.}.n ,.A.e.>.>.>.>.>.>.O.k }.}.}.}.}.}.}.}.}.}.}.}.}.}.}.}.}.}.}.}.}.}.f %.>.>.>.>.>.>.%.c }.}.}.}.}.}.}.}.}.}.}.}.}.}.}.}.}.}.}.}.}.}.}.}.}.}.}.",
"}.}.}.}.}.}.}.}.}.}.>.Z.e.>.>.>.>.:...k }.}.}.}.}.}.}.}.}.}.}.}.}.}.}.}.}.}.}.}.}.}.}.% b >.>.>.>.>.>...h }.}.}.}.}.}.}.}.}.}.}.}.}.}.}.}.}.}.}.}.}.}.}.}.}.}.}.",
"}.}.}.}.}.}.}.}.}.}.*.e.>.>.>.>.O.c }.}.}.}.}.}.}.}.}.}.}.}.}.}.}.}.}.}.}.}.}.}.}.}.}.}.s O.>.>.>.>.>.k }.}.}.}.}.}.}.}.}.}.}.}.}.}.}.}.}.}.}.}.}.}.}.}.}.}.}.}.",
"}.}.}.}.}.}.}.}.}.}.%.>.>.>.>...j }.}.}.}.}.}.}.}.}.}.}.}.}.}.}.}.}.}.}.}.}.}.}.}.}.}.}.# n >.>.>.>.%.h }.}.}.}.}.}.}.}.}.}.}.}.}.}.}.}.}.}.}.}.}.}.}.}.}.}.}.}.",
"}.}.}.}.}.}.}.}.}.}.%.>.>.>.O.h }.}.}.}.}.}.}.}.}.}.}.}.}.}.}.}.}.}.}.}.}.}.}.}.}.}.}.}.}.x >.>.>.>. .p }.}.}.}.}.}.}.}.}.}.}.}.}.}.}.}.}.}.}.}.}.}.}.}.}.}.}.}.",
"}.}.}.}.}.}.}.}.}.k %.>.>.>.c }.}.}.}.}.}.}.}.}.}.}.}.}.}.}.}.}.}.}.}.}.}.}.}.}.}.}.}.}.}.n >.>.>.>.n + }.}.}.}.}.}.}.}.}.}.}.}.}.}.}.}.}.}.}.}.}.}.}.}.}.}.}.}.",
"}.}.}.}.}.}.}.}.}.b *.>.>.:.f }.}.}.}.}.}.}.}.}.}.}.}.}.}.}.}.}.}.}.}.}.}.}.}.}.}.}.}.}.}.@.>.>.>.:.c @ }.}.}.}.}.}.}.}.}.}.}.}.}.}.}.}.}.}.}.}.}.}.}.}.}.}.}.}.",
"}.}.}.}.}.}.}.}.j S *.>.>.O.d }.}.}.}.}.}.}.}.}.}.}.}.}.}.}.}.}.}.}.}.}.}.}.}.}.}.}.}.}.s.&.>.>.:.;.' P }.}.}.}.}.}.}.}.}.}.}.}.}.}.}.}.}.}.}.}.}.}.}.}.}.}.}.}.",
"}.}.}.}.}.}.}.}.Z >.t.q.>.%.x }.}.}.}.}.}.}.}.}.}.}.}.}.}.}.}.}.}.}.}.}.}.}.}.}.}.}.}.R.t.%.>.>.>.9.^.l.E }.}.}.}.}.}.}.}.}.}.}.}.}.}.}.}.}.}.}.}.}.}.}.}.}.}.}.",
"}.}.}.}.}.}.}.}.E.{.].x.&.O.m s }.}.}.}.}.}.}.}.}.}.}.}.}.}.}.}.}.}.}.}.}.}.}.}.}.}.R.t. .>.%.*.>.r.R.{.!.s.E }.}.}.}.}.}.}.}.}.}.}.}.}.}.}.}.}.}.}.}.}.}.}.}.}.",
"}.}.}.}.}.}.}.R.{.{.{.R.' %.m n }.}.}.}.}.}.}.}.}.}.}.}.}.}.}.}.}.}.}.}.}.}.}.}.}.v.J...m :...%.>.>.y.W.{.{.R.f.~ }.}.}.}.}.}.}.}.}.}.}.}.}.}.}.}.}.}.}.}.}.}.}.",
"}.}.}.}.}.}.v.{.{.{.{.{.j.%.c X.}.}.}.}.}.}.}.}.}.}.}.}.}.}.}.}.}.}.}.}.}.}.}.}.}.J.,.%. .%. .%.>.>.>.y.~.{.{.{.Q.M.` P }.}.}.}.}.}.}.}.}.}.}.}.}.}.}.}.}.}.}.}.",
"}.}.}.}.}.j.].{.{.{.{.{.R.;.O.%.}.}.}.}.}.}.}.}.}.}.}.}.}.}.}.}.}.}.}.}.}.}.}.}.}.:.>.>.%.f b %.>.>.>.>.u./.].{.{.{.).N.s.E 7 }.}.}.}.}.}.}.}.}.}.}.}.}.}.}.}.}.",
"}.}.}.}.s.'.{.{.{.{.{.{.].] $. .}.}.}.}.}.}.}.}.}.}.}.}.}.}.}.}.}.}.}.}.}.}.}.}.}.%.>.>.>.:.....O.:.:.>.,.9.b.Q._.{.{.{.{.`.j.R }.}.}.}.}.}.}.}.}.}.}.}.}.}.}.}.",
"}.}.}.s.).{.{.{.{.{.{.{.{.v.C f }.}.}.}.}.}.}.}.}.}.}.}.}.}.}.}.}.}.}.}.}.}.}.}.}.k  .O.O.| j p d f b  .%.*.>.r.u.R.E.{.{.{.{.!.d.}.}.}.}.}.}.}.}.}.}.}.}.}.}.}.",
"}.}.s.~.{.{.{.{.{.{.{.{.{.Q.9 }.}.}.}.}.}.}.}.}.}.}.}.}.}.}.}.}.}.}.}.}.}.}.}.}.}.}.}.}.}.}.}.}.}.}.}.& p p a d g Z Z +.:.:.%.O.X.}.}.}.}.}.}.}.}.}.}.}.}.}.}.}.",
"}.~ /.{.{.{.{.{.{.{.{.{.{.~.2 }.}.}.}.}.}.}.}.}.}.}.}.}.}.}.}.}.}.}.}.}.}.}.}.}.}.}.}.}.}.}.}.}.}.}.}.}.}.}.}.}.}.}.}.}.}.}.}.}.}.}.}.}.}.}.}.}.}.}.}.}.}.}.}.}.",
"Y !.{.{.{.{.{.{.{.{.{.{._.` X }.}.}.}.}.}.}.}.}.}.}.}.}.}.}.}.}.}.}.}.}.}.}.}.}.}.}.}.}.}.}.}.}.}.}.}.}.}.}.}.}.}.}.}.}.}.}.}.}.}.}.}.}.}.}.}.}.}.}.}.}.}.}.}.}.",
"~ (.{.{.{.{.{.{.{.{./.B.I 2 }.}.}.}.}.}.}.}.}.}.}.}.}.}.}.}.}.}.}.}.}.}.}.}.}.}.}.}.}.}.}.}.}.}.}.}.}.}.}.}.}.}.}.}.}.}.}.}.}.}.}.}.}.}.}.}.}.}.}.}.}.}.}.}.}.}.",
"4 ) '.{.{.{.{.{.`.d.r }.}.}.}.}.}.}.}.}.}.}.}.}.}.}.}.}.}.}.}.}.}.}.}.}.}.}.}.}.}.}.}.}.}.}.}.}.}.}.}.}.}.}.}.}.}.}.}.}.}.}.}.}.}.}.}.}.}.}.}.}.}.}.}.}.}.}.}.}.",
"}.4 u Q Q I r 3 }.}.}.}.}.}.}.}.}.}.}.}.}.}.}.}.}.}.}.}.}.}.}.}.}.}.}.}.}.}.}.}.}.}.}.}.}.}.}.}.}.}.}.}.}.}.}.}.}.}.}.}.}.}.}.}.}.}.}.}.}.}.}.}.}.}.}.}.}.}.}.}."
};
