/* XPM */
static char *result[] = {
/* columns rows colors chars-per-pixel */
"80 80 184 2 ",
"   c #938F63",
".  c #928968",
"X  c #9A956A",
"o  c #8A8177",
"O  c #948F72",
"+  c #9E9874",
"@  c #A1A077",
"#  c #A9A77D",
"$  c #8C7F8D",
"%  c #827193",
"&  c #877799",
"*  c #8B7C9D",
"=  c #8D7DA1",
"-  c #968A9E",
";  c #9E9691",
":  c #9A939C",
">  c #A49C8E",
",  c #A29B9D",
"<  c #A7A381",
"1  c #A8A485",
"2  c #AAAA83",
"3  c #ADAB8C",
"4  c #B1AA8A",
"5  c #ADB48A",
"6  c #B1B086",
"7  c #B4B78D",
"8  c #A5A29A",
"9  c #AEA79B",
"0  c #AAAB9E",
"q  c #B4B390",
"w  c #B4BA93",
"e  c #B4B99D",
"r  c #BCBC9D",
"t  c #8F80A1",
"y  c #9384A5",
"u  c #9689A7",
"i  c #9484AB",
"p  c #9789A9",
"a  c #9A8CAC",
"s  c #9E93A6",
"d  c #9D91AE",
"f  c #9788B0",
"g  c #9B8DB2",
"h  c #9E91B4",
"j  c #A19AA0",
"k  c #A195AB",
"l  c #A59CAC",
"z  c #A195B4",
"x  c #A499B5",
"c  c #A296B9",
"v  c #A59BBC",
"b  c #A99EBD",
"n  c #AFA7AB",
"m  c #B8B6A9",
"M  c #A6A0B4",
"N  c #ABA3B3",
"B  c #ACA2BE",
"V  c #B4ADB3",
"C  c #B1A7BC",
"Z  c #B3ACBC",
"A  c #BFBDB6",
"S  c #BAB6B9",
"D  c #C1BEB3",
"F  c #BCC29D",
"G  c #BCC3A0",
"H  c #C5C79E",
"J  c #C4C5A3",
"K  c #C3CAA4",
"L  c #C8C9A5",
"P  c #C7C6AA",
"I  c #C8C7AF",
"U  c #C5CCAC",
"Y  c #CDD4AC",
"T  c #C3C4B5",
"R  c #C6C9B1",
"E  c #CBCDB2",
"W  c #CACCBE",
"Q  c #D1CDBF",
"!  c #CED4B4",
"~  c #CED3B8",
"^  c #D2D7B3",
"/  c #D4DBB5",
"(  c #D0D6BA",
")  c #D5DABB",
"_  c #D8DFB9",
"`  c #DAE1BC",
"'  c #AB9EC0",
"]  c #ADA3C2",
"[  c #B1A6C4",
"{  c #B4ABC5",
"}  c #B6ACC9",
"|  c #B9AFCB",
" . c #B7B1C0",
".. c #BAB3C5",
"X. c #BEB8C5",
"o. c #B7B0C8",
"O. c #BCB3CC",
"+. c #BFB5D0",
"@. c #C2BCC4",
"#. c #C3BDCC",
"$. c #C0B7D1",
"%. c #C5BCD5",
"&. c #C8BFD7",
"*. c #C8BFD8",
"=. c #C5C3C1",
"-. c #C7C3CC",
";. c #CAC8C8",
":. c #CDCBCB",
">. c #D0CFC7",
",. c #D1CECF",
"<. c #CFD1C2",
"1. c #D5D2C2",
"2. c #D6DAC4",
"3. c #DADFC5",
"4. c #D6D5CD",
"5. c #D7D8CA",
"6. c #D9DACC",
"7. c #C7C2D2",
"8. c #CAC3D4",
"9. c #CDC8D3",
"0. c #CCC3DC",
"q. c #CFC8D9",
"w. c #D1CDD3",
"e. c #D2CCDB",
"r. c #D5D2D4",
"t. c #D8D7D2",
"y. c #DDDED4",
"u. c #D7D3DA",
"i. c #D9D6DE",
"p. c #DCDADB",
"a. c #E0DEDB",
"s. c #DDE2C4",
"d. c #DDE1CC",
"f. c #DFE1D3",
"g. c #E0E5C5",
"h. c #E3EAC6",
"j. c #E1E5CD",
"k. c #E5EBCB",
"l. c #E8EFCD",
"z. c #EAF1CE",
"x. c #E2E5D5",
"c. c #E5E9D2",
"v. c #E9EED3",
"b. c #E4E4DA",
"n. c #E7E9DB",
"m. c #EAEDDC",
"M. c #ECF2D5",
"N. c #EEF2DB",
"B. c #F0F8D4",
"V. c #F0F5DC",
"C. c #CFC6E0",
"Z. c #D0C7E0",
"A. c #D5CDE6",
"S. c #D7CEE8",
"D. c #D7D0E4",
"F. c #D8D2E3",
"G. c #DEDAE2",
"H. c #E2DDEA",
"J. c #E5E3E3",
"K. c #EBECE2",
"L. c #E6E3EC",
"P. c #E8E6E9",
"I. c #EBEAEA",
"U. c #EFF2E2",
"Y. c #F1F5E3",
"T. c #F5F8E5",
"R. c #F2F3EB",
"E. c #F3F5E8",
"W. c #F5F7EF",
"Q. c #F6F9EB",
"!. c #F8FBED",
"~. c #E7E2F2",
"^. c #EBE7F2",
"/. c #EDEAF4",
"(. c #F4F4F3",
"). c #F7F8F2",
"_. c #F9FBF1",
"`. c #FAFAF6",
"'. c #FAFCF4",
"]. c #F3F1F8",
"[. c #FBFBF9",
"{. c #FCFDF9",
"}. c white",
"|. c None",
/* pixels */
"|.|.|.|.|.|.|.|.|.|.|.|.|.|.|.|.|.|.|.|.|.|.|.|.|.|.|.|.|.|.|.|.|.|.|.|.|.|.|.|.|.|.|.|.|.|.|.|.|.|.|.|.|.|.|.|.|.|.|.|.|.|.|.|.|.|.|.|.|.|.|.|.|.|.|.|.|.|.|.|.",
"|.|.|.|.|.|.|.|.|.|.|.|.|.|.|.|.|.|.|.|.|.|.|.|.|.|.|.|.|.|.|.|.|.|.|.|.|.|.|.|.|.|.|.|.|.|.|.|.|.|.|.|.|.|.|.|.|.|.|.|.|.|.|.|.|.|.|.|.|.|.|.|.|.|.|.|.|.|.|.|.",
"|.|.|.|.|.|.|.|.|.|.|.|.|.|.|.|.|.|.|.|.|.|.|.|.|.|.|.|.|.|.|.|.|.|.|.|.|.|.|.|.|.|.x >.).{.U.c.b.V.|.|.|.|.|.|.|.|.|.|.|.|.|.|.|.|.|.|.|.|.|.|.|.|.|.|.|.|.|.|.",
"|.|.|.|.|.|.|.|.|.|.|.|.|.|.|.|.|.|.|.|.|.|.|.|.|.|.|.|.|.|.|.|.|.|.|.|.|.|.|.|.|.' 0.~.}.}.}.}.}.'.U._ |.|.|.|.|.|.|.|.|.|.|.|.|.|.|.|.|.|.|.|.|.|.|.|.|.|.|.|.",
"|.|.|.|.|.|.|.|.|.|.|.|.|.|.|.|.|.|.|.|.|.|.|.|.|.|.|.|.|.|.|.|.|.|.w w G K K F 0 | F.m.}.}.}.}.}.}.}.`.2.|.|.|.|.|.|.|.|.|.|.|.|.|.|.|.|.|.|.|.|.|.|.|.|.|.|.|.",
"|.|.|.|.|.|.|.|.|.|.|.|.|.|.|.|.|.|.|.|.|.|.|.|.|.|.|.|.|.|.|.U ~ k.N.[.{.{.{.{.P.0.S.p.Y.}.}.}.}.}.}.}.`.! |.|.|.|.|.|.|.|.|.|.|.|.|.|.|.|.|.|.|.|.|.|.|.|.|.|.",
"|.|.|.|.|.|.|.|.|.|.|.|.|.|.|.|.|.|.|.|.|.|.|.|.|.|.|.|.|.2.m.{.}.}.}.}.}.}.}.}./.0.S.S.p.E.}.}.}.}.}.}.}.N.|.|.|.|.|.|.|.|.|.|.|.|.|.|.|.|.|.|.|.|.|.|.|.|.|.|.",
"|.|.|.|.|.|.|.|.|.|.|.|.|.|.|.|.|.|.|.|.|.|.|.|.|.|.` x.E.}.}.}.}.}.}.}.}.}.}.T.b.0.S.S.S.p.N._.}.}.}.}.}.R.K |.|.|.|.|.|.|.|.|.|.|.|.|.|.|.|.|.|.|.|.|.|.|.|.|.",
"|.|.|.|.|.|.|.|.|.|.|.|.|.|.|.|.|.|.|.|.|.|.2 F ` h.M.}.}.}.}.}.}.}.}.{.[.N.b.F.8.*.S.S.S.S.i.x.M.v._.{.{.E.! |.|.|.|.|.|.|.|.|.|.|.|.|.|.|.|.|.|.|.|.|.|.|.|.|.",
"|.|.|.|.|.|.|.|.|.|.|.|.|.|.|.|.|.|.|.|.q ) N.`.{.{.}.}.}.}.}.}.}.{.(.c.G.D.Z.$.v { S.S.S.S.S.S.F.F.x.c.c.y.7.|.|.|.|.|.|.|.|.|.|.|.|.|.|.|.|.|.|.|.|.|.|.|.|.|.",
"|.|.|.|.|.|.|.|.|.|.|.|.|.|.|.|.|.|.|.! K.}.}.}.}.}.}.}.}.{._.}.W.J.F.S.Z.0.O.$.[ b Z.S.S.S.S.S.7.V 0.S.S.Z.$.|.|.|.|.|.|.|.|.|.|.|.|.|.|.|.|.|.|.|.|.|.|.|.|.|.",
"|.|.|.|.|.|.|.|.|.|.|.|.|.|.|.|.|.|.K E.}.}.}.}.}.}.}.}.}.{.Y.I.p.S.S.0.O.O.$.%.} h $.S.S.S.S.S.O.o ; 0.S.0.] |.|.|.|.|.|.|.|.|.|.|.|.|.|.|.|.|.|.|.|.|.|.|.|.|.",
"|.|.|.|.|.|.|.|.|.|.|.|.|.|.|.|.|.|.x.}.}.}.}.}.}.}.}.}.}.}.m.r.S.0.+.O.$.%.%.%.] z v *.Z.S.S.S.A.%.@.Z.S.%.) |.|.|.|.|.|.|.|.|.|.|.|.|.|.|.|.|.|.|.|.|.|.|.|.|.",
"|.|.|.|.|.|.|.|.|.|.|.|.|.|.|.|.|.K W.}.}.}.}.}.}.{.M.l.h.h.Y =.%.O.$.%.%.O.O.} h v i c $.%.0.A.S.S.S.S.%...`.j.|.|.|.|.|.|.|.|.|.|.|.|.|.|.|.|.|.|.|.|.|.|.|.|.",
"|.|.|.|.|.|.|.|.|.|.|.|.|.|.|.|.^ z._.}.}.}.}.}.}.Q.N.v.s.( E e ..%.%.+.{ b $.c c g i g [ h g O.*.S.S.*.Z n.}.`.~ |.|.|.|.|.|.|.|.|.|.|.|.|.|.|.|.|.|.|.|.|.|.|.",
"|.|.|.|.|.|.|.|.|.|.|.|.|.|.|.c.Q._.{.}.}.}.}.}.}.}.}.}.}.}.}.K.S b ] ] { +.O.a f i i y p ] { O.c ] b C x.}.}.}.n.|.|.|.|.|.|.|.|.|.|.|.|.|.|.|.|.|.|.|.|.|.|.|.",
"|.|.|.|.|.|.|.|.|.|.|.|.|.|.V.{.}.}.}.}.}.}.}.}.}.}.}.}.}.}.}.{.<.v ] O.%.%.O.z * * * = h d } %.B j T J.{.}.}.}.m.|.|.|.|.|.|.|.|.|.|.|.|.|.|.|.|.|.|.|.|.|.|.|.",
"|.|.|.|.|.|.|.|.|.|.|.|.|.M.{.}.}.}.}.}.{.{.{.{.{.{.{.{.{._.v.v.q.O.%.%.%.%.%.$.O.O.O.O.O.] z u z >.Q.}.}.}.}.}.x.|.|.|.|.|.|.|.|.|.|.|.|.|.|.|.|.|.|.|.|.|.|.|.",
"|.|.|.|.|.|.|.|.|.|.|.|.Y _.}.}.}.}.}._.z.c.c.c.c.c.c.c.c.x.D.A.%.%.%.%.%.%.%.%.%.%.%.%.%.%.$.$.$.&.6.m._._._.x.m |.|.|.|.|.|.|.|.|.|.|.|.|.|.|.|.|.|.|.|.|.|.|.",
"|.|.|.|.|.|.|.|.|.|.|.5 s.}.}.}.{.'.}.}.Q.p.S.S.S.S.S.S.S.S.S.0.$.%.%.%.%.%.%.%.%.%.%.%.%.$.O.%.%.%.%.9.6.6.5.N |.|.|.|.|.|.|.|.|.|.|.|.|.|.|.|.|.|.|.|.|.|.|.|.",
"|.|.|.|.|.|.|.|.|.|.|.! `.}.}.}.!.M.{.}.}.c.Z.A.S.S.S.S.S.S.0.$.%.%.%.%.%.%.%.%.%.%.%.%.%.$.{ $.%.%.%.%.%.%.] y |.|.|.|.|.|.|.|.|.|.|.|.|.|.|.|.|.|.|.|.|.|.|.|.",
"|.|.|.|.|.|.|.|.|.|.F N.}.}.}.}.{._.N.) s.p.S.%.0.Z.Z.A.0.O.} %.%.%.O.O.O.O.O.O.%.%.%.%.%.O.] b O.%.%.%.O.z , |.|.|.|.|.|.|.|.|.|.|.|.|.|.|.|.|.|.|.|.|.|.|.|.|.",
"|.|.|.|.|.|.|.|.|.5 ( {.}.}.}.}.}.}.{.Y.` R 8.&.] z h c ] { { o.O.O.{ ] B ] [ { O.O.O.} { ] v y g h b ] c x g.W.|.|.|.|.|.|.|.|.|.|.|.|.|.|.|.|.|.|.|.|.|.|.|.|.",
"|.|.|.|.|.|.|.|.|.! W.}.}.}.}.}.}.}.}.}.}.v.F 8 s { [ c v b b b b b c g i f g v b b b z v h z { { { { { {  .Y.}.}.|.|.|.|.|.|.|.|.|.|.|.|.|.|.|.|.|.|.|.|.|.|.|.",
"|.|.|.|.|.|.|.|.~ _.{.}.}.}.}.}.}.}.}.}.}.}.'./ 3 l { { v h h h h h h v v v g = y |.|.% z { { { B v v v B #.Y.}.}.Q.|.|.|.|.|.|.|.|.|.|.|.|.|.|.|.|.|.|.|.|.|.|.",
"|.|.|.|.|.|.|.2 j.}.}.}.}.}.}.}.}.}.}.}.}.}.}.'.c.3 l { ] v v v v v v v h t t |.|.|.|.|.h { n > B b B v v -.Y.}.}.'.s.|.|.|.|.1.|.|.|.|.|.|.|.|.|.|.|.|.|.|.|.|.",
"|.|.|.|.|.|.|.d r.v.).{.}.}.}.}.}.}.}.}.}.}.}.}.}.v.1 x v v v v v v c y & |.|.|.|.|.|.|.u Z f.b.O.O.$.%.O.%.t.!.}.}.R.F |.|.|.5.+ |.|.|.|.|.|.|.|.|.|.|.|.|.|.|.",
"|.|.|.|.|.|.|.& ] 0.F.x.Y.'.}.}.}.}.}.}.}.}.}.}.}.}.s.5 ; v ] B ] g y |.|.|.|.|.|.|.|.|.2 c.).T #.%.%.%.%.%.%.y._.}.{.s.5 |.(.e.. |.|.|.|.|.|.|.|.|.|.|.|.|.|.|.",
"|.|.|.|.|.|.|.|.t h %.S.p.x.T.{.}.}.}.}.}.}.}.}.}.}.{.N.J 8 l { { h |.|.|.|.|.|.|.|.w I d.).W Z %.%.%.%.%.%.%.%.f.'.}.j.K 6.H.{ < |.|.|.|.|.|.|.|.|.|.|.|.|.|.|.",
"|.|.|.|.|.|.|.|.|.|.z *.S.D.p.m.V.!.}.}.}.}.}.}.}.}.}.}._.3.r 0 , [ O.|.|.|.@ K s.5.n.}.}.E : B %.%.%.%.%.%.%.%.7.x.V.H r H.0.b x.|.|.|.|.|.|.|.|.|.|.|.|.|.|.|.",
"|.|.|.|.|.|.|.|.|.|.|.d 0.S.S.F.i.b.M.Y.{.{.}.}.}.}.}.}.}.}.W.g./ R e 2 q ^ _ N.{.}.}.}.c.w |.g | %.%.%.%.%.%.%.%.7.-.N X.&.%.z (.V.|.|.|.|.|.|.|.|.|.|.|.|.|.|.",
"|.|.|.|.|.|.|.|.|.|.|.|.z +.A.S.S.S.F.p.c.c.U.{.}.}.}.}.}.}.}.}.{.`.).(.(.`.{.}.}.}.}.}.{.s.w |.h O.%.%.%.%.%.%.%.%.O.h %.$.{ B (.T.s.|.|.|.|.|.|.|.|.|.|.|.|.|.",
"|.|.|.|.|.|.|.|.|.|.|.|.|.a } C.S.S.S.S.S.S.p.x.Q.Q.Q.Q.!.}.}.}.}.}.}.}.}.}.}.}.}.}.}.}.}.{.s.|.|.a [ O.%.%.%.%.%.%.O.z %.%.%.O.y.{.}.c.U |.|.|.|.|.|.|.|.|.|.|.",
"|.|.|.|.|.|.|.|.|.|.|.|.|.|.|.] 0.S.S.S.S.S.S.S.p.y.y.y.y.V.Y.Y.Y.Y.Y.].}.}.}.}.}.}.}.}.}.!.T.D B |.|.h v { O.O.$.%.%.' | %.O.{ B 6.d.}.m.|.|.|.|.|.|.|.|.|.|.|.",
"|.|.|.|.|.|.|.|.|.|.|.|.|.|.|.|.] ] %.0.A.A.S.S.A.A.A.A.A.u.u.u.u.u.e.u.!.}.}.}.}.}.}.}.}.R.#.0.0.v |.|.|.|.p y p ' { O.' ] { [ h  .j Q }.x.|.|.|.|.|.|.|.|.|.|.",
"|.|.|.|.|.|.|.|.|.|.|.|.|.|.|.|.c O.a a b [ ..#.#.O.[ c a p p p u p p { b._.}.}.}.}.}.E.K.^.0.[ 0.C.[ * |.|.|.|.|.|.|.|.[ +.{ b z { [ ..m K.f.|.|.|.|.|.|.|.|.|.",
"|.|.|.|.|.|.|.|.|.|.|.|.|.|.|.|.O.S.u.J.v.v.M.M.M.b.u.%.{ $.$.$.] $.{ h 8.n.!.{.}.}.}.{.i.B +.0.[ O.C.{ y |.|.|.|.|.|.|.] %.O.h B { [ z { 9 R.r |.|.|.|.|.|.|.|.",
"|.|.|.|.|.|.|.|.|.|.|.|.|.|.|.c 0.i.Y.}.}.}.}.}.}.!.N.i.[ | O.O.] O.%.[ z 8.x.U.!.}.`.h.v.8.] } 0.| B 0.+.|.|.|.|.|.|.|.a O.O.z { { [ z x k T / |.|.|.|.|.|.|.|.",
"|.|.|.|.|.|.|.|.|.|.|.|.|.|.|.{ A.P.{.}.}.}.}.}.}.}.}.Y.Z ] [ v [ { O.%.[ z %.u.b.V.N.R V 0.Z.} [ Z.| z O.%.|.|.|.|.|.|.|.d ] i a [ B a [ z l S |.|.|.|.|.|.|.|.",
"|.|.|.|.|.|.|.|.|.|.|.|.|.|.|.$.S./.}.}.}.}.}.}.}.}.}.}...= y v $.$.O.O.0.{ u c { 9.e.0.%.x O.0.| z +.$.x ' *.|.|.|.|.|.|.|.|.|.|.* y d z B x v x |.|.|.|.|.|.|.",
"|.|.|.|.|.|.|.|.|.|.|.|.|.|.|.*.S./.}.}.}.}.}.}.}.}.}.{.7.* [ %.%.0.0.*.C.S.C.e.A k x N B $.{ B O.%.x ] *.O.a |.|.|.|.|.|.|.|.|.|.|.|.u a z x x O.b |.|.|.|.|.|.",
"|.|.|.|.|.|.|.|.|.|.|.|.|.|.|.*.A.P.{.}.}.}.}.}.}.}.}.Q.|.|.u O.%.%.0.S.Z.S.S.S.F.m.'.m.@.O.X.{ a z O.{ h | { |.|.|.|.|.|.|.|.|.|.|.|.|.a x z z h { y |.|.|.|.|.",
"|.|.|.|.|.|.|.|.|.|.|.|.|.|.|.%.0.f._.}.}.}.}.}.}.}.{.v.|.|.|.a O.%.%.Z.S.S.S.S.S.i.P.W.}.}.a.e.G.#.q.L.;.- |.|.|.|.|.|.|.|.|.|.|.|.|.|.|.i p z ] y & |.|.|.|.|.",
"|.|.|.|.|.|.|.|.|.|.|.|.|.|.|.} %.y._.}.}.}.}.}.}.}._.Y |.|.|.|.a { $.%.Z.S.S.S.0.S.S.G.K.{.}.}.}.}.}.}.{.B.|.|.|.|.|.|.|.|.|.|.|.|.|.|.|.|.|.* z * |.|.|.|.|.|.",
"|.|.|.|.|.|.|.|.|.|.|.|.|.|.|.B $.D.m.}.}.}.}.}.}.{.k.F |.|.|.|.|.g v } $.0.S.Z.O.$.Z.S.D.G.U.[.{.}.}.}.}._.l.|.|.|.|.|.|.|.|.|.|.|.|.|.|.|.|.|.|.|.|.|.|.|.|.|.",
"|.|.|.|.|.|.|.|.|.|.|.|.|.|.|.z 0.S.x.!.{.}.}.}.{.M.^ |.|.|.|.|.|.|.|.i c { | $.%.O.O.0.Z.S.D.F.b.].).!.{.}.m.|.|.|.|.|.|.|.|.|.|.|.|.|.|.|.|.|.|.|.|.|.|.|.|.|.",
"|.|.|.|.|.|.|.|.|.|.|.|.|.|.|.B S.Z.8.4.G.P.T.{.W._ |.|.|.|.|.|.|.|.|.|.|.|.g ] b ] b { %.0.Z.S.S.S.p.y.G.L.F.b |.|.|.|.|.|.|.|.|.|.|.|.|.|.|.|.|.|.|.|.|.|.|.|.",
"|.|.|.|.|.|.|.|.|.|.|.|.|.|.h %.S.0.%.%.%.%.,.u.( |.|.|.|.|.|.|.|.|.|.|.|.|.|.|.|.|.g h [ %.0.0.S.S.0.*.%.%.$.v |.|.|.|.|.|.|.|.|.|.|.|.|.|.|.|.|.|.|.|.|.|.|.|.",
"|.|.|.|.|.|.|.|.|.|.|.|.f ] O.0.A.*.%.%.%.%.+.] M |.|.|.|.|.|.|.|.|.|.|.|.|.|.|.|.|.|.|.h } %.%.0.0.%.%.%.%.[ |.|.|.|.|.|.|.|.|.|.|.|.|.|.|.|.|.|.|.|.|.|.|.|.|.",
"|.|.|.|.|.|.|.|.|.|.|.|.| Z.Z.Z.Z.%.%.%.%.O.] ] |.|.|.|.|.|.|.|.|.|.|.|.|.|.|.|.|.|.|.|.v { %.%.%.%.%.%.%.$.z |.|.|.|.|.|.|.|.|.|.|.|.|.|.|.|.|.|.|.|.|.|.|.|.|.",
"|.|.|.|.|.|.|.|.|.|.|.O.A.S.S.S.0.%.%.%.$.[ v g |.|.|.|.|.|.|.|.|.|.|.|.|.|.|.|.|.|.|.] 0.Z.$.%.%.%.%.%.$.] h |.|.|.|.|.|.|.|.|.|.|.|.|.|.|.|.|.|.|.|.|.|.|.|.|.",
"|.|.|.|.|.|.|.|.|.|.| Z.S.S.S.S.%.%.%.$.O.O.v |.|.|.|.|.|.|.|.|.|.|.|.|.|.|.|.|.|.|.b 0.S.S.Z.%.%.%.%.%.O.[ h |.|.|.|.|.|.|.|.|.|.|.|.|.|.|.|.|.|.|.|.|.|.|.|.|.",
"|.|.|.|.|.|.|.|.|.{ 0.S.S.S.S.S.*.%.%.%.%.| f |.|.|.|.|.|.|.|.|.|.|.|.|.|.|.|.|.|.c +.S.S.S.S.0.%.%.%.%.%.$.{ |.|.|.|.|.|.|.|.|.|.|.|.|.|.|.|.|.|.|.|.|.|.|.|.|.",
"|.|.|.|.|.|.|.|.|.[ A.S.S.S.S.0.%.%.%.%.%.O.i |.|.|.|.|.|.|.|.|.|.|.|.|.|.|.|.|.|.%.Z.S.S.S.0.%.%.%.%.%.%.$.{ |.|.|.|.|.|.|.|.|.|.|.|.|.|.|.|.|.|.|.|.|.|.|.|.|.",
"|.|.|.|.|.|.|.|.|.] S.S.S.S.S.0.%.%.%.%.%.O.|.|.|.|.|.|.|.|.|.|.|.|.|.|.|.|.|.|.|.$.Z.S.S.A.%.%.%.%.%.%.%.O.c |.|.|.|.|.|.|.|.|.|.|.|.|.|.|.|.|.|.|.|.|.|.|.|.|.",
"|.|.|.|.|.|.|.|.|.] S.S.S.S.Z.*.%.%.%.%.%.{ |.|.|.|.|.|.|.|.|.|.|.|.|.|.|.|.|.|.|.{ 0.S.S.0.%.%.%.%.%.%.%.] |.|.|.|.|.|.|.|.|.|.|.|.|.|.|.|.|.|.|.|.|.|.|.|.|.|.",
"|.|.|.|.|.|.|.|.|.] S.S.S.A.0.%.%.%.%.%.O.|.|.|.|.|.|.|.|.|.|.|.|.|.|.|.|.|.|.|.|.] %.S.S.*.%.%.%.%.%.%.O.h |.|.|.|.|.|.|.|.|.|.|.|.|.|.|.|.|.|.|.|.|.|.|.|.|.|.",
"|.|.|.|.|.|.|.|.|.} A.S.S.0.%.%.%.%.%.+.|.|.|.|.|.|.|.|.|.|.|.|.|.|.|.|.|.|.|.|.|.|.{ S.0.%.%.%.%.%.%.%.{ |.|.|.|.|.|.|.|.|.|.|.|.|.|.|.|.|.|.|.|.|.|.|.|.|.|.|.",
"|.|.|.|.|.|.|.|.|.} A.S.Z.%.%.$.+.{ { |.|.|.|.|.|.|.|.|.|.|.|.|.|.|.|.|.|.|.|.|.|.|.v $.%.%.%.%.%.%.%.} |.|.|.|.|.|.|.|.|.|.|.|.|.|.|.|.|.|.|.|.|.|.|.|.|.|.|.|.",
"|.|.|.|.|.|.|.|.|.+.S.S.0.%.O.] v g |.|.|.|.|.|.|.|.|.|.|.|.|.|.|.|.|.|.|.|.|.|.|.|.g } %.%.%.%.%.$.| |.|.|.|.|.|.|.|.|.|.|.|.|.|.|.|.|.|.|.|.|.|.|.|.|.|.|.|.|.",
"|.|.|.|.|.|.|.|.z *.S.Z.*.} c |.|.|.|.|.|.|.|.|.|.|.|.|.|.|.|.|.|.|.|.|.|.|.|.|.|.|.|.] %.%.%.%.%.| |.|.|.|.|.|.|.|.|.|.|.|.|.|.|.|.|.|.|.|.|.|.|.|.|.|.|.|.|.|.",
"|.|.|.|.|.|.|.|.] 0.S.C.$.z |.|.|.|.|.|.|.|.|.|.|.|.|.|.|.|.|.|.|.|.|.|.|.|.|.|.|.|.|.a $.%.%.%.$.b |.|.|.|.|.|.|.|.|.|.|.|.|.|.|.|.|.|.|.|.|.|.|.|.|.|.|.|.|.|.",
"|.|.|.|.|.|.|.|.O.Z.S.*.+.y |.|.|.|.|.|.|.|.|.|.|.|.|.|.|.|.|.|.|.|.|.|.|.|.|.|.|.|.|.u $.%.%.%.O.c |.|.|.|.|.|.|.|.|.|.|.|.|.|.|.|.|.|.|.|.|.|.|.|.|.|.|.|.|.|.",
"|.|.|.|.|.|.|.v O.S.S.%.{ y |.|.|.|.|.|.|.|.|.|.|.|.|.|.|.|.|.|.|.|.|.|.|.|.|.|.|.|.|.a $.%.%.%.{ |.|.|.|.|.|.|.|.|.|.|.|.|.|.|.|.|.|.|.|.|.|.|.|.|.|.|.|.|.|.|.",
"|.|.|.|.|.|.b O.} S.A.$.O.v |.|.|.|.|.|.|.|.|.|.|.|.|.|.|.|.|.|.|.|.|.|.|.|.|.|.|.|.|.z %.%.%.%.B |.|.|.|.|.|.|.|.|.|.|.|.|.|.|.|.|.|.|.|.|.|.|.|.|.|.|.|.|.|.|.",
"|.|.|.|.|.|.[ ] X.x.j.=.O.} |.|.|.|.|.|.|.|.|.|.|.|.|.|.|.|.|.|.|.|.|.|.|.|.|.|.|.|.y.b %.%.%.O.Z ~ |.|.|.|.|.|.|.|.|.|.|.|.|.|.|.|.|.|.|.|.|.|.|.|.|.|.|.|.|.|.",
"|.|.|.|.|.|.] T c.{.{.E.9.{ |.|.|.|.|.|.|.|.|.|.|.|.|.|.|.|.|.|.|.|.|.|.|.|.|.|.|.Y.8.[ %.%.$.+.:.V.`.N.|.|.|.|.|.|.|.|.|.|.|.|.|.|.|.|.|.|.|.|.|.|.|.|.|.|.|.|.",
"|.|.|.|.|.|.m l.{.}.}.}.-.$ |.|.|.|.|.|.|.|.|.|.|.|.|.|.|.|.|.|.|.|.|.|.|.|.|.|.Y.H.] O.%.O.| %.9.k.'.}.T.|.|.|.|.|.|.|.|.|.|.|.|.|.|.|.|.|.|.|.|.|.|.|.|.|.|.|.",
"|.|.|.|.|.|._ {.}.}.}.}.)   |.|.|.|.|.|.|.|.|.|.|.|.|.|.|.|.|.|.|.|.|.|.|.|.|.N.L.0.v %.%.] [ %.%.w.Y.}.}.{.Q.|.|.|.|.|.|.|.|.|.|.|.|.|.|.|.|.|.|.|.|.|.|.|.|.|.",
"|.|.|.|.|.K N.}.}.}.}.}.c.X |.|.|.|.|.|.|.|.|.|.|.|.|.|.|.|.|.|.|.|.|.|.|.|.j.L.0.%.] O.%.b $.%.%.%.r.N._.}.}.Y.` |.|.|.|.|.|.|.|.|.|.|.|.|.|.|.|.|.|.|.|.|.|.|.",
"|.|.|.|.5 h.{.}.}.}.}.}.W.< |.|.|.|.|.|.|.|.|.|.|.|.|.|.|.|.|.|.|.|.|.|.|.|.y.C.%.%.+.x u [ %.%.%.%.%.9.f.N.}.}.).m._ |.|.|.|.|.|.|.|.|.|.|.|.|.|.|.|.|.|.|.|.|.",
"|.|.|.|./ '.}.}.}.}.}.}.[.F |.|.|.|.|.|.|.|.|.|.|.|.|.|.|.|.|.|.|.|.|.|.|.|.O.%.%.%.%.O.{ $.O.$.%.%.%.%.%.9.N.{.}.}.`.k.K 2 |.|.|.|.|.|.|.|.|.|.|.|.|.|.|.|.|.|.",
"|.|.|.M._.}.}.}.}.}.}.}.{.` |.|.|.|.|.|.|.|.|.|.|.|.|.|.|.|.|.|.|.|.|.|.|.|.] $.%.*.*.*.%.[ h a v } $.%.%.%.w.y.I.!.!.}.}.N.3.P |.|.|.|.|.|.|.|.|.|.|.|.|.|.|.|.",
"|.|.|.!.}.}.}.}.}.}.}.}.}.N.K |.|.|.|.|.|.|.|.|.|.|.|.|.|.|.|.|.|.|.|.|.|.|.i p d z z z d y |.|.|.|.h ] } O.O.O.7.4.t.H.H.H.H.H.:.|.|.|.|.|.|.|.|.|.|.|.|.|.|.|.",
"|.|.Y.}.}.}.}.}.}.}.}.}.}.}.j.|.|.|.|.|.|.|.|.|.|.|.|.|.|.|.|.|.|.|.|.|.|.|.|.|.|.|.|.|.|.|.|.|.|.|.|.|.|.y y y p p p u u u u u p |.|.|.|.|.|.|.|.|.|.|.|.|.|.|.",
"|.^ '.}.}.}.}.}.}.}.}.}.}.}.Y.# |.|.|.|.|.|.|.|.|.|.|.|.|.|.|.|.|.|.|.|.|.|.|.|.|.|.|.|.|.|.|.|.|.|.|.|.|.|.|.|.|.|.|.|.|.|.|.|.|.|.|.|.|.|.|.|.|.|.|.|.|.|.|.|.",
"|.Y Q.}.}.}.}.}.}.}.}.}.{.U.Y + |.|.|.|.|.|.|.|.|.|.|.|.|.|.|.|.|.|.|.|.|.|.|.|.|.|.|.|.|.|.|.|.|.|.|.|.|.|.|.|.|.|.|.|.|.|.|.|.|.|.|.|.|.|.|.|.|.|.|.|.|.|.|.|.",
"|.< _ _.}.}.}.}.}.}.}.Y.) 7 @ |.|.|.|.|.|.|.|.|.|.|.|.|.|.|.|.|.|.|.|.|.|.|.|.|.|.|.|.|.|.|.|.|.|.|.|.|.|.|.|.|.|.|.|.|.|.|.|.|.|.|.|.|.|.|.|.|.|.|.|.|.|.|.|.|.",
"|.|.|.L M.{.}.}.}.Q.s.6 @ |.|.|.|.|.|.|.|.|.|.|.|.|.|.|.|.|.|.|.|.|.|.|.|.|.|.|.|.|.|.|.|.|.|.|.|.|.|.|.|.|.|.|.|.|.|.|.|.|.|.|.|.|.|.|.|.|.|.|.|.|.|.|.|.|.|.|.",
"|.|.|.|.|.U r 4 < + O |.|.|.|.|.|.|.|.|.|.|.|.|.|.|.|.|.|.|.|.|.|.|.|.|.|.|.|.|.|.|.|.|.|.|.|.|.|.|.|.|.|.|.|.|.|.|.|.|.|.|.|.|.|.|.|.|.|.|.|.|.|.|.|.|.|.|.|.|."
};
