/* XPM */
static char *result[] = {
/* columns rows colors chars-per-pixel */
"80 80 176 2 ",
"   c #897D7B",
".  c #8B8666",
"X  c #8F896B",
"o  c #908E6F",
"O  c #9A956F",
"+  c #8D847A",
"@  c #9A957A",
"#  c #A29F77",
"$  c #A49F7D",
"%  c #857495",
"&  c #8A7B92",
"*  c #877698",
"=  c #8A7A9C",
"-  c #8D7DA1",
";  c #9D938C",
":  c #978B9D",
">  c #A19C83",
",  c #A0988E",
"<  c #A29B90",
"1  c #A49C9A",
"2  c #ACA985",
"3  c #A3A38E",
"4  c #ABA58B",
"5  c #B1AB8C",
"6  c #B2B78F",
"7  c #AEA694",
"8  c #ADA991",
"9  c #B1AC98",
"0  c #B2B295",
"q  c #B5BC94",
"w  c #BABC96",
"e  c #B0B298",
"r  c #B9B49C",
"t  c #BABC9C",
"y  c #8F80A1",
"u  c #9284A4",
"i  c #9789A7",
"p  c #998DA4",
"a  c #9485AB",
"s  c #9789AA",
"d  c #9A8CAC",
"f  c #9D90AD",
"g  c #9A8CB2",
"h  c #9E91B5",
"j  c #A49CA7",
"k  c #A195AC",
"l  c #A295B5",
"z  c #A599B5",
"x  c #A99FB7",
"c  c #A296B9",
"v  c #A59ABB",
"b  c #A99EBD",
"n  c #ABA4AC",
"m  c #AEA9AB",
"M  c #B3AEA3",
"N  c #B2ABAD",
"B  c #B4B2A6",
"V  c #B9B7A2",
"C  c #BBBEA2",
"Z  c #BDBEAB",
"A  c #A7A0B7",
"S  c #ADA5B5",
"D  c #ACA1BE",
"F  c #B0A7B5",
"G  c #B2ABB4",
"H  c #B2ABBB",
"J  c #BCBCB2",
"K  c #B9B4BA",
"L  c #C1BFBE",
"P  c #BCC29B",
"I  c #BEC4A3",
"U  c #C1C6A7",
"Y  c #C6CCA6",
"T  c #C5C6AD",
"R  c #C6CBAB",
"E  c #C9CEAC",
"W  c #CBD2AB",
"Q  c #CACCB5",
"!  c #C5C4BD",
"~  c #CDD4B3",
"^  c #CFD3B9",
"/  c #D0D7B4",
"(  c #D3DBB4",
")  c #D1D6BA",
"_  c #D5DCBA",
"`  c #D8DEB9",
"'  c #DAE1BC",
"]  c #AA9EC0",
"[  c #ADA3C2",
"{  c #B1A6C4",
"}  c #B4ABC5",
"|  c #B6ACC9",
" . c #B8AECB",
".. c #B7B0C1",
"X. c #BAB3C5",
"o. c #BCB3CD",
"O. c #BFB5D1",
"+. c #C1BBC6",
"@. c #C0B6CF",
"#. c #C4BDCB",
"$. c #C0B7D2",
"%. c #C5BCD5",
"&. c #C8BFD6",
"*. c #C8BFD8",
"=. c #C5C1C3",
"-. c #CCCBC4",
";. c #C5C2C8",
":. c #CCC7CF",
">. c #CECBC9",
",. c #D2CEC0",
"<. c #D0CDCF",
"1. c #D2D3C3",
"2. c #D7DCC5",
"3. c #D8DBC4",
"4. c #D2D1CA",
"5. c #DBDCCC",
"6. c #CAC3D4",
"7. c #CEC9D2",
"8. c #CBC3DC",
"9. c #CFC8DC",
"0. c #D1CDD2",
"q. c #D1CBDB",
"w. c #D5D2D2",
"e. c #D8D7D0",
"r. c #DAD6DC",
"t. c #DEDCDB",
"y. c #DDE3C4",
"u. c #DEE1CC",
"i. c #DFE0D2",
"p. c #E0E7C6",
"a. c #E2E8C7",
"s. c #E5EBCD",
"d. c #E9EFCF",
"f. c #EBF2CF",
"g. c #E2E4D3",
"h. c #E6EAD4",
"j. c #E9EED4",
"k. c #E4E4DA",
"l. c #E6E9DA",
"z. c #EAEDDB",
"x. c #ECF1D5",
"c. c #EEF2DC",
"v. c #F0F5DD",
"b. c #CFC6E0",
"n. c #D0C7E0",
"m. c #D5CDE6",
"M. c #D6CEE8",
"N. c #D7D0E4",
"B. c #D9D3E3",
"V. c #DED9E3",
"C. c #D7D0E8",
"Z. c #D8D0E9",
"A. c #DED8ED",
"S. c #E0DDE5",
"D. c #E2DDEA",
"F. c #E4E2E4",
"G. c #ECEDE2",
"H. c #E7E3EB",
"J. c #EEEEEB",
"K. c #EEF1E3",
"L. c #EFF1E8",
"P. c #F2F5E4",
"I. c #F5F8E6",
"U. c #F3F5EC",
"Y. c #F6F9EB",
"T. c #F8FAEF",
"R. c #EBE8F1",
"E. c #F5F6F2",
"W. c #F7F8F1",
"Q. c #F9FBF1",
"!. c #FAFCF4",
"~. c #F7F5FA",
"^. c #FBFBF8",
"/. c #FDFEF9",
"(. c white",
"). c None",
/* pixels */
").).).).).).).).).).).).).).).).).).).).).).).).).).).).).).).).).).).).).).).).).).).).).).).).).).).).).).).).).).).).).).).).).).).).).).).).).).).).).).).).",
").).).).).).).).).).).).).).).).).).).).).).).).).).).).).).).).).).).).).).).).).).).).h J K.(.c.a.2.).).).).).).).).).).).).).).).).).).).).).).).).).).).).).",
").).).).).).).).).).).).).).).).).).).).).).).).).).).).).).).).).).).).).).).).).).).c O.A.(.(.(.(.(.!.h.' ).).).).).).).).).).).).).).).).).).).).).).).).).).",
").).).).).).).).).).).).).).).).).).).).).).).).).).).).).).).).).).).).).).).).).).).[ m.k.(.(.(.(.(.(.(.Y.2.).).).).).).).).).).).).).).).).).).).).).).).).).",
").).).).).).).).).).).).).).).).).).).).).).).).).).).).).).).).).).).).).).).).).).).$.M.r.P.(.(.(.(.(.(.(.^.) ).).).).).).).).).).).).).).).).).).).).).).).).",
").).).).).).).).).).).).).).).).).).).).).).).).).).).).).).).).).~ y.I.(.(.(.(.(.Y.u.9.M.M.t.P.(.(.(.(.(.(.(.v.).).).).).).).).).).).).).).).).).).).).).).).).",
").).).).).).).).).).).).).).).).).).).).).).).).).).).)._ 2.z./.(.(.(.(.(.(.(.(.(.(.~.9.M.m.m.t.P.Q.(.(.(.(.(.^.E ).).).).).).).).).).).).).).).).).).).).).).).",
").).).).).).).).).).).).).).).).).).).).).).).q W ' ' s./.(.(.(.(.(.(.(.(.(.(.(.(.Y.h.6.M.m.m.m.r.l.v.c.Q.(.(.^._ ).).).).).).).).).).).).).).).).).).).).).).).",
").).).).).).).).).).).).).).).).).).).).).W z.L.Y.Q.!./.(.(.(.(.(.(.(.(.(.(./.^.l.B.6.{ m.m.m.m.M.N.r.B.k.x.j.h.:.).).).).).).).).).).).).).).).).).).).).).).).",
").).).).).).).).).).).).).).).).).).).).x.Q.(.(.(.(.(.(.(.(.Q.(.(.(.(.Q.Q.E.h.V.n.*.} z b.m.m.m.m.m.q.#.9.C.C.m.%.).).).).).).).).).).).).).).).).).).).).).).).",
").).).).).).).).).).).).).).).).).).).a.Q.(.(.(.(.(.(.(.(./.x.P./.Y.J.g.g.N.m.8.O.o.$.v o.M.m.m.m.M.%.+ ; 9.M.m.} ).).).).).).).).).).).).).).).).).).).).).).).",
").).).).).).).).).).).).).).).).).)._ P.(.(.(.(.(.(.(.(.(.(.c.' F.t.N.M.M.9.$.o.$.%.$.l c *.n.m.m.m.m.X.N 9.M.*.).).).).).).).).).).).).).).).).).).).).).).).).",
").).).).).).).).).).).).).).).).).).y.(.(.(.(.(.(.(.(.(.P.y.~ t q.M.m.n.$.o.$.%.%.%.| c g c $.8.n.m.M.Z.Z.M.b.D ).).).).).).).).).).).).).).).).).).).).).).).).",
").).).).).).).).).).).).).).).)./ ~ G.(.(.(.(.(.(.(.(.Q.f.x.W.a.Z %.o.o.$.%.%.$.[ } c v c g { v d o.8.m.Z.n.} -.).).).).).).).).).).).).).).).).).).).).).).).).",
").).).).).).).).).).).).).).~ h./.j.Y.(.(.(.(.(.(.(.(.(.(.(.(.x.! b $.%.%.%.o.[ [ | h c g a s [ [ o.v |  .{ -.Y.' ).).).).).).).).).).).).).).).).).).).).).).).",
").).).).).).).).).).).).)._ P.(.(.Q./.(.(.(.(.(.(.(.(.(.(./.I.k.m.[ } o.{ [ b { %.l s a a a - i } *.} p K 0.Q.(.I.).).).).).).).).).).).).).).).).).).).).).).).",
").).).).).).).).).).).).).y.(.(.(.(.(.Q.v./.(.(.(.(.(.Q.c.F.r.C.M.%.c c b } o.%.%.D - = = = s D b d k 5./.(.(.(.(.).).).).).).).).).).).).).).).).).).).).).).).",
").).).).).).).).).).).).P P.(.(.(.(.(./.Q.x.j.j.j.j.S.B.B.m.M.M.M.%.} o.$.%.%.%.%.%.o.o.o.o.o.%.$.=.3.Q.(.(.(./.x.).).).).).).).).).).).).).).).).).).).).).).).",
").).).).).).).).).).).)._ /.(.(.(.(.(.(.(.h.m.q.m.C.m.m.m.m.m.M.n.%.%.%.%.%.%.%.%.%.%.%.%.%.%.o.%.&.7.u.P.Q.Q.h.T ).).).).).).).).).).).).).).).).).).).).).).).",
").).).).).).).).).).).( z.(.(.(.(.(.Q.(.(.h.n.%.%.9.m.C.C.M.m.9.%.%.%.%.%.%.%.%.%.%.%.%.%.%.%.| $.%.%.%.w.5.5.H ).).).).).).).).).).).).).).).).).).).).).).).).",
").).).).).).).).).).x.x.P.(.(.I.v.j.' Y.Y.t.m.m.9.$.{ [ | $.%.%.%.%.%.%.%.%.%.%.$.$.%.%.%.%.%.[ [ o.%.%.%.O.l = ).).).).).).).).).).).).).).).).).).).).).).).).",
").).).).).).).).).).Y.Y.Y.(.(.!.Q.Y.P.' w #.m.M.C.8.s b [ } o.%.%.%.%.%.%.%.%.o.o.%.%.%.%.$.} h u d c [ [ D 1./ I ).).).).).).).).).).).).).).).).).).).).).).).",
").).).).).).).).).c./.v.(.(.(.(.(.(.(.^.U.C M %.b.{ g D } } } $.%.%.%.%.%.$.| } $.%.%.$.o.[ g c [ { { { v D T.!.U.p.).).).).).).).).).).).).).).).).).).).).).).",
").).).).).).).).h.(.!.v.(.(.(.(.(.(.(.(.(.W.) 0 m p v h [ } } } } o.o.| } } } }  .} D v g a [ j n [ [ D h } 5.P.Q.(.v.a.).).).).).).).).).).).).).).).).).).).).",
").).).).).).).~ ^.(./.T.(.(.(.(.(.(.(.(.(.(.(.Y.P 3 1 v v [ } } } } [ v D [ b c f s - ).).& M Q ! | | o.| } $.0.i.I./.!.Y.).).).).).).T r ).).).).).).).).).).).",
").).).).).).).z.(.(.(.(.(.(.(.(.(.(.(.(.(.(.(.(.Y.y.6 3 j { { } } } } v h i y ).).).).).; Z k.W.-.%.%.%.%.$.o.o.%.<.h.I.(.l.).).).).).F.7 ).).).).).).).).).).).",
").).).).).).).g.c./././.(.(.(.(.(.(.(.(.(.(.(.(.(.(.P.` U e @ n D A d & ).).).).).).# C g.!.^.1.#.%.%.%.%.%.%.$.%.%.6.w.j.Q.j.2 ).q J.m., ).).).).).).).).).).).",
").).).).).).).m.C.t.h.h.J.Q./.(.(.(.(.(.(.(.(.(.(.(.(.(./.^.P.y.Q T C 8 > @ > 4 R s.W.^.Q.Y.0 G *.%.%.%.%.%.%.%.%.%.%.%.6.5.z.P.8 w J.n.D ).).).).).).).).).).).",
").).).).).).). .n.M.M.M.m.t.F.P.I.I./.(.(.(.(.(.(.(.(.(.(.(.(.(.(.(.(.(.Y.j.Y.(.(.(.(.(.K.Q   v $.%.%.%.%.%.%.%.%.%.%.%.%.%.7.4.: B 9.O.d 5.c.).).).).).).).).).",
").).).).).).).y l | $.$.8.b.m.r.t.t.H.v.v.v.Y.(.(.(.(.(.(.(.(.(.(.(./.Y.(.(.(.(.(.(.(.(.(.u.w ).d } %.%.%.%.%.%.%.%.%.%.%.%.%.O.d %.%.o.h k.(.Q.Y.).).).).).).).",
").).).).).).).).).).h [ 8.n.m.M.M.M.m.r.r.r.V.l.x.x.x.x.x.x.x.x.x.x.s.h.(.(.(.(.(.(.(.(.(.(.c.P ).g [ o.%.%.%.%.%.%.%.%.%.%.%.$.v %.%.%.v +.j.Q h.!.~ ).).).).).",
").).).).).).).).).).).).v } 8.m.Z.C.M.M.m.M.m.m.N.N.N.N.N.N.N.N.N.N.N.r.P.(.(.(.(.(.(.(.(./.Q.G.< ).).h [ } D } o.o.O.O.O.$.%.%.o. .$. .v h X.k r l.L.R ).).).).",
").).).).).).).).).).).).).= v o. .$.8.m.Z.Z.M.M.M.M.M.M.Z.m.8.$.o. . .%.t.Y.(.(.(.(.(.(.(.^.5.4.9.x ).).).).% * a a v v v v b  .} v [ [ [ h } h [ N 1.G.t ).).).",
").).).).).).).).).).).).).).v l z { } { x o.$.%.%.%.%. .D x [ v l f s { m.k.T.(.(.(.(.(.K.v.t.O.%.b.| ).).).).).).).).).).).).).b | o.} [ h } h d { 1 k.T ).).).",
").).).).).).).).).).).).).).u [ n.n.9.%.o.*.8.$.[ o.$. .{ { o.$.$.$.| l n.m.k.v./.(.(.(.j.L X.m.O.} 8.%.).).).).).).).).).).).).).{ %.o.v v } h d z z m _ ).).).",
").).).).).).).).).).).).).).d $.m.M.N.B.B.B.B.n.} | %.%.%.*.O.$.%.%.%.{ x O.9.N.S.I.T.y.r.9.[ } 8.$.[ %.%.).).).).).).).).).).).).d O.o.h v } g i } z z S h ).).",
").).).).).).).).).).).).).). .m.C.r.z.x.x.x.x.t.#.{ $.%.%.%.| o.%.%.%.V.k.F S { O.w.h.>.b %.m.%.] %.*.v %.%.).).).).).).).).).).).).[ b g = l u f d b z v [ u ).",
").).).).).).).).).).).).).).8.m.k.P./.(.(.(.(.Y.h.X.$.%.%.o.b O.%.%.6.c.(./.c.=.N S { $.O.{ { 8.*.] { $.b } { ).).).).).).).).).).).).).).).% % : f l z h { } u ",
").).).).).).).).).).).).).| n.t.Y.(.(.(.(.(.(.(.(.4...o.o.v c o.%.%.q.d.Q.(.(.(.Y.t.! m b %.| b | %.{ { $.h l ).).).).).).).).).).).).).).).).).).u h l z h v u ",
").).).).).).).).).).).).).o.m.h./.(.(.(.(.(.(.(.(.h.K } { h } %.%.9.m.B.V.G././.(.(./.J.e.z D o.z l %.{ v O.f ).).).).).).).).).).).).).).).).).).).).i s [ a ).",
").).).).).).).).).).).).).$.m.k./.(.(.(.(.(.(.(.(.v.G h g v o.%.%.n.m.m.m.C.t.j.Q./.(.(.(.U.u.G } { z X.i i ).).).).).).).).).).).).).).).).).).).).).).= g ).).",
").).).).).).).).).).).).).8.m.N.E.(.(.(.(.(.(.(.(.Y.4 u c } } $.8.m.m.m.m.M.m.C.g.G.Y.Q.(.(.(.(.(.(.^.j.).).).).).).).).).).).).).).).).).).).).).).).).).).).).",
").).).).).).).).).).).).).8.m.N.c.(.(.(.(.(.(.(.(.(.V u s v } o.*.n.M.m.n.b.m.m.M.m.r.k.v.I.(.(.(.(.(.W.y.).).).).).).).).).).).).).).).).).).).).).).).).).).).",
").).).).).).).).).).).).). .b.n.t.Y.(.(.(.(.(.(.(.(.I ).).).b } o.*.m.m.n.o.%.n.m.m.M.C.r.t.x.c./.(.v.x.a.).).).).).).).).).).).).).).).).).).).).).).).).).).).",
").).).).).).).).).).).).).c  .*.m.k.T.(.(.(.(.(.(.(.C ).).).).g v [ o.%.%.$.{ | 8.m.m.M.M.m.B.B.h.h.0.6.X.).).).).).).).).).).).).).).).).).).).).).).).).).).).",
").).).).).).).).).).).).).).D o.m.m.k.Q.(.(.(.(.(./.5 ).).).).).).h v l b D { v v o.*.n.m.M.m.m.m.9.%.%.v ).).).).).).).).).).).).).).).).).).).).).).).).).).).",
").).).).).).).).).).).).).).h [ n.m.C.l./.(.(.(.(.(.r ).).).).).).).).% - a d f s c } $.8.n.m.m.m.9.%.$.v ).).).).).).).).).).).).).).).).).).).).).).).).).).).",
").).).).).).).).).).).).).).).h 8.m.m.N.l.P.(.(.(.Y.).).).).).).).).).).).).).).).g g v o.%.8.m.m.8.%.| ).).).).).).).).).).).).).).).).).).).).).).).).).).).).",
").).).).).).).).).).).).).).).u | m.m.M.9.0.j.E.E.~ ).).).).).).).).).).).).).).).).- g b o.%.*.*.%.%.D ).).).).).).).).).).).).).).).).).).).).).).).).).).).).",
").).).).).).).).).).).).).).[ O.} b.M.m.8.%.6.8.$.z ).).).).).).).).).).).).).).).).[ 8.8.o.{ o.%.%.%.l ).).).).).).).).).).).).).).).).).).).).).).).).).).).).",
").).).).).).).).).).).).o.8.m.m.$.9.M.n.%.%.%.$.D ).).).).).).).).).).).).).).).).] *.m.m.m.%.o.$.%.$.v ).).).).).).).).).).).).).).).).).).).).).).).).).).).).",
").).).).).).).).).).[ o.n.M.m.m.9.b.M.n.%.%.$.b ).).).).).).).).).).).).).).).).l $.m.m.m.m.M.n.$.%.%.o.).).).).).).).).).).).).).).).).).).).).).).).).).).).).",
").).).).).).).).).).O.m.m.m.m.m.m.m.m.8.%.%.D - ).).).).).).).).).).).).).).).).{ m.m.m.m.m.m.m.*.%.%.$.).).).).).).).).).).).).).).).).).).).).).).).).).).).).",
").).).).).).).).).$.n.M.m.m.m.m.m.m.n.%.%. .u ).).).).).).).).).).).).).).).).g %.m.m.m.m.m.m.8.%.%.%.O.).).).).).).).).).).).).).).).).).).).).).).).).).).).).",
").).).).).).).).).*.M.m.m.m.m.m.m.m.8.%.$.v - ).).).).).).).).).).).).).).).).[ *.M.m.m.m.m.m.8.%.%.%.| ).).).).).).).).).).).).).).).).).).).).).).).).).).).).",
").).).).).).).).).b.M.m.m.m.m.m.m.n.*.%.$.D ).).).).).).).).).).).).).).).).).c O.m.M.m.m.M.9.%.%.%.$.b ).).).).).).).).).).).).).).).).).).).).).).).).).).).).",
").).).).).).).).[ m.m.m.m.m.m.M.m.*.%.%.o.h ).).).).).).).).).).).).).).).).).).} 8.m.m.m.m.8.%.%.%.} u ).).).).).).).).).).).).).).).).).).).).).).).).).).).).",
").).).).).).).).] m.m.m.m.m.M.m.8.%.%.$.v ).).).).).).).).).).).).).).).).).).).l o.8.m.m.8.%.%.%.o.i ).).).).).).).).).).).).).).).).).).).).).).).).).).).).).",
").).).).).).).).v m.m.m.m.M.m.8.%.%.o.[ ).).).).).).).).).).).).).).).).).).).).).b $.8.n.*.%.%.$.l ).).).).).).).).).).).).).).).).).).).).).).).).).).).).).).",
").).).).).).).).f m.m.m.m.m.8.%.%.} c ).).).).).).).).).).).).).).).).).).).).).).h  .%.%.%.%.%.| a ).).).).).).).).).).).).).).).).).).).).).).).).).).).).).).",
").).).).).).).).f m.m.m.m.9.%.o.[ ).).).).).).).).).).).).).).).).).).).).).).).).).v %.%.%.%.%.v ).).).).).).).).).).).).).).).).).).).).).).).).).).).).).).).",
").).).).).).).).v m.m.m.9.| l ).).).).).).).).).).).).).).).).).).).).).).).).).).).- | %.%.%.$.u ).).).).).).).).).).).).).).).).).).).).).).).).).).).).).).).",
").).).).).).).y o.m.m.*.| u ).).).).).).).).).).).).).).).).).).).).).).).).).).).).= [ %.%.%.@.= ).).).).).).).).).).).).).).).).).).).).).).).).).).).).).).).",
").).).).).).).| m.m.n.o.h ).).).).).).).).).).).).).).).).).).).).).).).).).).).).).= } %.%.%.| - ).).).).).).).).).).).).).).).).).).).).).).).).).).).).).).).",
").).).).).).c %.8.m.*.v ).).).).).).).).).).).).).).).).).).).).).).).).).).).).).q f o.%.o.o.;.;.).).).).).).).).).).).).).).).).).).).).).).).).).).).).).).).",
").).).).).h o.o.8.9.$.g ).).).).).).).).).).).).).).).).).).).).).).).).).).).).) l.D %.o.{ $.g.T.P.y.).).).).).).).).).).).).).).).).).).).).).).).).).).).).).",
").).).).% b $.e.~.G.+.b l ).).).).).).).).).).).).).).).).).).).).).).).).).).E W.P.D %.o.v %.6.z.(.Q.' ).).).).).).).).).).).).).).).).).).).).).).).).).).).).",
").).).).% } S.(.(.(.Q H D ).).).).).).).).).).).).).).).).).).).).).).).).).a.T.U.0.} %.o.v %.%.7.K.(.Y._ ).).).).).).).).).).).).).).).).).).).).).).).).).).).",
").).).).- q.(.(.(.(.c.B a ).).).).).).).).).).).).).).).).).).).).).).).).).P.Y.w.%.v o.o.[ %.%.%.0.P.(.(.j.).).).).).).).).).).).).).).).).).).).).).).).).).).",
").).).).J E.(.(.(.(.(.5.).).).).).).).).).).).).).).).).).).).).).).).).).).v.e.%.%.x i s v o.$.%.%.0.F.Q.(.z.p.).).).).).).).).).).).).).).).).).).).).).).).).",
").).).)._ /.(.(.(.(.(.Y.).).).).).).).).).).).).).).).).).).).).).).).).).).7.6.%.%.$.} | o.} } %.%.%.%.i.c.(.!.l.Y ).).).).).).).).).).).).).).).).).).).).).).",
").).).).z.(.(.(.(.(.(.(.s.).).).).).).).).).).).).).).).).).).).).).).).).).{ o.O.O.O.o.o. .{ c { $.%.%.&.7.G.~.(.^.3.2 ).).).).).).).).).).).).).).).).).).).).",
").).)./ Q.(.(.(.(.(.(.(.I.).).).).).).).).).).).).).).).).).).).).).).).).).% a v v v a = % % % = h z | $.%.&.8.H.R.Y.U.^ t ).).).).).).).).).).).).).).).).).).",
").).).P.(.(.(.(.(.(.(.(.(.l.).).).).).).).).).).).).).).).).).).).).).).).).).).).).).).).).).).).).).a s b { o.%.%.w.S.D.S.4.J ).).).).).).).).).).).).).).).).",
").).l.(.(.(.(.(.(.(.(.(.(./.c.).).).).).).).).).).).).).).).).).).).).).).).).).).).).).).).).).).).).).).).- u s s s d c c b [ h ).).).).).).).).).).).).).).).",
").Y Y.(.(.(.(.(.(.(.(.(.(.(.(.a.).).).).).).).).).).).).).).).).).).).).).).).).).).).).).).).).).).).).).).).).).).).).).).).).).).).).).).).).).).).).).).).).",
").0 Y.(.(.(.(.(.(.(.(.(.(.(.U.E X ).).).).).).).).).).).).).).).).).).).).).).).).).).).).).).).).).).).).).).).).).).).).).).).).).).).).).).).).).).).).).).).",
").o P c./.(.(.(.(.(.(.(.(.,.r ).).).).).).).).).).).).).).).).).).).).).).).).).).).).).).).).).).).).).).).).).).).).).).).).).).).).).).).).).).).).).).).).).",
").).).> 9 ^ K.(.(.(.h.T 9 ).).).).).).).).).).).).).).).).).).).).).).).).).).).).).).).).).).).).).).).).).).).).).).).).).).).).).).).).).).).).).).).).).).).",
").).).).).X # t 0 $ O . ).).).).).).).).).).).).).).).).).).).).).).).).).).).).).).).).).).).).).).).).).).).).).).).).).).).).).).).).).).).).).).).).).).).)."
};
