/* XPM */
static char *result[] = {
/* columns rows colors chars-per-pixel */
"20 20 154 2 ",
"   c #9F92B2",
".  c #A194B5",
"X  c #A195B5",
"o  c #A59AB8",
"O  c #AA9FBD",
"+  c #AA9FBE",
"@  c #AEA6B7",
"#  c #ABA0BF",
"$  c #B7B0BD",
"%  c #AEA4C0",
"&  c #B0A6C3",
"*  c #B3A9C3",
"=  c #B2A8C4",
"-  c #B2A8C5",
";  c #B3A9C5",
":  c #B2A8C6",
">  c #B3A9C6",
",  c #B4ABC4",
"<  c #B7AFC4",
"1  c #B5ABC8",
"2  c #B6ACC8",
"3  c #B7ADC8",
"4  c #B7ADC9",
"5  c #B7ADCA",
"6  c #B7AECA",
"7  c #B8AEC9",
"8  c #B9AFCA",
"9  c #B8AECB",
"0  c #BAB3C0",
"q  c #BAB2C9",
"w  c #BCB3CA",
"e  c #BBB4C8",
"r  c #BCB5C8",
"t  c #BAB1CC",
"y  c #BBB2CD",
"u  c #BBB2CE",
"i  c #BCB2CD",
"p  c #BDB3CF",
"a  c #BDB4CD",
"s  c #BDB5CD",
"d  c #BEB5CD",
"f  c #BFB7CC",
"g  c #BDB4CE",
"h  c #BDB3D0",
"j  c #BFB6D0",
"k  c #BFB6D1",
"l  c #C0B9CA",
"z  c #C2BBCB",
"x  c #C2BACE",
"c  c #C3BCCC",
"v  c #C1B7D4",
"b  c #C0B8D1",
"n  c #C2BAD0",
"m  c #C2BBD1",
"M  c #C1B9D3",
"N  c #C2BAD3",
"B  c #C5BDD3",
"V  c #C6BED3",
"C  c #C3BAD4",
"Z  c #C3BBD4",
"A  c #C4BBD5",
"S  c #C4BCD5",
"D  c #C6BDD7",
"F  c #C8BFD9",
"G  c #C7C3C7",
"H  c #C8C4C8",
"J  c #CBC7CD",
"K  c #CBC8CA",
"L  c #D0CECB",
"P  c #D3D1CC",
"I  c #C8C3D1",
"U  c #C8C2D2",
"Y  c #C8C0D7",
"T  c #CBC5D4",
"R  c #CDC7D5",
"E  c #CEC9D7",
"W  c #CFC9D7",
"Q  c #C8C0D9",
"!  c #CDC6DB",
"~  c #CBC3DC",
"^  c #CCC3DD",
"/  c #CCC4DD",
"(  c #CDC6DD",
")  c #CFCAD8",
"_  c #D2CDD6",
"`  c #D2CED6",
"'  c #D3CFD7",
"]  c #D0CBD8",
"[  c #D4CEDE",
"{  c #DADBD0",
"}  c #D6D3D9",
"|  c #D4D0DB",
" . c #D6D1DC",
".. c #D9D7DA",
"X. c #DDDBDB",
"o. c #DEDDDA",
"O. c #E0DFDB",
"+. c #E1DFDE",
"@. c #E0DFDF",
"#. c #E6E6D9",
"$. c #E8EADD",
"%. c #ECEFDF",
"&. c #D8D3E1",
"*. c #D9D3E4",
"=. c #E0DDE3",
"-. c #E1DEE4",
";. c #E0DCE7",
":. c #E1DDE7",
">. c #E2DFE6",
",. c #E2DFE7",
"<. c #E3E1E3",
"1. c #E7E8E1",
"2. c #E8E8E4",
"3. c #E4E1E8",
"4. c #E7E5E9",
"5. c #EBEBE8",
"6. c #EAE9EA",
"7. c #EBE9EB",
"8. c #ECEBEB",
"9. c #EEEFEA",
"0. c #EFEFEB",
"q. c #EFEEED",
"w. c #EEECEE",
"e. c #F0EFEF",
"r. c #EFF1E6",
"t. c #F2F4E6",
"y. c #F0F1E9",
"u. c #F1F1EA",
"i. c #F0F1EB",
"p. c #F2F3EE",
"a. c #F3F4EE",
"s. c #F5F6ED",
"d. c #F4F6EE",
"f. c #F5F7EE",
"g. c #EAE7F1",
"h. c #F5F5F3",
"j. c #F6F6F6",
"k. c #F6F8F0",
"l. c #F8F9F3",
"z. c #F8F9F5",
"x. c #F9F9F5",
"c. c #F9FAF4",
"v. c #F9FBF4",
"b. c #FAFBF4",
"n. c #FAFAF7",
"m. c #FAFCF6",
"M. c #FCFDF6",
"N. c #FAFAF8",
"B. c #FCFDF9",
"V. c #FDFEFB",
"C. c #FEFEFD",
"Z. c #FFFFFD",
"A. c white",
"S. c None",
/* pixels */
"S.S.S.S.S.S.S.S.S.S.=.m.s.S.S.S.S.S.S.S.",
"S.S.S.S.S.S.S.k.c.@.*.w.p.S.S.S.S.S.S.S.",
"S.S.S.S.S.d.v.q.;.n v ! R S.S.S.S.S.S.S.",
"S.S.S.S.z.A.M.O.s # . 2  .z.S.S.S.S.S.S.",
"S.S.S.b.0.,.3.} m k p g ) <.S.S.S.S.S.S.",
"S.S.l.V.y.H * 9 5 = z < + r 1.S.S.S.S.S.",
"S.S.4.N.Z.a.L 0 $ J { S.& b ] K G S.S.S.",
"S.S.i [ :.g.6.+.0.A.9.S.S.y t ; e P S.S.",
"S.S.S.S.B | U a T 5.' u > S.S.O o @ S.S.",
"S.S.S.S.7.C.e.q 6 _ ` V x S.S.S.S.  X S.",
"S.S.S.S.h.A.f.S.: ( >.j.x.S.S.S.S.S.S.S.",
"S.S.S.d -.2.S.S.S.- 8 &.8.o.S.S.S.S.S.S.",
"S.S.S.Q N , S.S.S.S.S.A Y 3 S.S.S.S.S.S.",
"S.S.^ / Z S.S.S.S.S.D ~ S 1 S.S.S.S.S.S.",
"S.S.F Q j S.S.S.S.S.= C M S.S.S.S.S.S.S.",
"S.S.h j S.S.S.S.S.S.S.7 8 S.S.S.S.S.S.S.",
"S.S.E f S.S.S.S.S.S.S.w I S.S.S.S.S.S.S.",
"S.%.n...S.S.S.S.S.S.l 4 W i.t.S.S.S.S.S.",
"S.B.C.$.S.S.S.S.S.S.S.S.% c X.o.S.S.S.S.",
"r.u.#.S.S.S.S.S.S.S.S.S.S.S.S.S.S.S.S.S."
};
