/* XPM */
static char *result[] = {
/* columns rows colors chars-per-pixel */
"80 80 256 2 ",
"   c black",
".  c #010101",
"X  c #020202",
"o  c gray1",
"O  c #040404",
"+  c gray2",
"@  c #060606",
"#  c #070707",
"$  c gray3",
"%  c #090909",
"&  c gray4",
"*  c #0B0B0B",
"=  c #0C0C0C",
"-  c gray5",
";  c #0E0E0E",
":  c gray6",
">  c #101010",
",  c #111111",
"<  c gray7",
"1  c #131313",
"2  c gray8",
"3  c #151515",
"4  c #161616",
"5  c gray9",
"6  c #181818",
"7  c #191919",
"8  c gray10",
"9  c #1B1B1B",
"0  c gray11",
"q  c #1D1D1D",
"w  c #1E1E1E",
"e  c gray12",
"r  c #202020",
"t  c gray13",
"y  c #222222",
"u  c #232323",
"i  c gray14",
"p  c #252525",
"a  c gray15",
"s  c #272727",
"d  c #282828",
"f  c gray16",
"g  c #2A2A2A",
"h  c gray17",
"j  c #2C2C2C",
"k  c #2D2D2D",
"l  c gray18",
"z  c #2F2F2F",
"x  c gray19",
"c  c #313131",
"v  c #323232",
"b  c gray20",
"n  c #343434",
"m  c #353535",
"M  c gray21",
"N  c #373737",
"B  c gray22",
"V  c #393939",
"C  c #3A3A3A",
"Z  c gray23",
"A  c #3C3C3C",
"S  c gray24",
"D  c #3E3E3E",
"F  c #3F3F3F",
"G  c gray25",
"H  c #414141",
"J  c gray26",
"K  c #434343",
"L  c #444444",
"P  c gray27",
"I  c #464646",
"U  c gray28",
"Y  c #484848",
"T  c #494949",
"R  c gray29",
"E  c #4B4B4B",
"W  c #4C4C4C",
"Q  c gray30",
"!  c #4E4E4E",
"~  c gray31",
"^  c #505050",
"/  c #515151",
"(  c gray32",
")  c #535353",
"_  c gray33",
"`  c #555555",
"'  c #565656",
"]  c gray34",
"[  c #585858",
"{  c gray35",
"}  c #5A5A5A",
"|  c #5B5B5B",
" . c gray36",
".. c #5D5D5D",
"X. c gray37",
"o. c #5F5F5F",
"O. c #606060",
"+. c gray38",
"@. c #626262",
"#. c gray39",
"$. c #646464",
"%. c #656565",
"&. c gray40",
"*. c #676767",
"=. c #686868",
"-. c DimGray",
";. c #6A6A6A",
":. c gray42",
">. c #6C6C6C",
",. c #6D6D6D",
"<. c gray43",
"1. c #6F6F6F",
"2. c gray44",
"3. c #717171",
"4. c #727272",
"5. c gray45",
"6. c #747474",
"7. c gray46",
"8. c #767676",
"9. c #777777",
"0. c gray47",
"q. c #797979",
"w. c gray48",
"e. c #7B7B7B",
"r. c #7C7C7C",
"t. c gray49",
"y. c #7E7E7E",
"u. c gray50",
"i. c #808080",
"p. c #818181",
"a. c gray51",
"s. c #838383",
"d. c #848484",
"f. c gray52",
"g. c #868686",
"h. c gray53",
"j. c #888888",
"k. c #898989",
"l. c gray54",
"z. c #8B8B8B",
"x. c gray55",
"c. c #8D8D8D",
"v. c #8E8E8E",
"b. c gray56",
"n. c #909090",
"m. c gray57",
"M. c #929292",
"N. c #939393",
"B. c gray58",
"V. c #959595",
"C. c gray59",
"Z. c #979797",
"A. c #989898",
"S. c gray60",
"D. c #9A9A9A",
"F. c #9B9B9B",
"G. c gray61",
"H. c #9D9D9D",
"J. c gray62",
"K. c #9F9F9F",
"L. c #A0A0A0",
"P. c gray63",
"I. c #A2A2A2",
"U. c gray64",
"Y. c #A4A4A4",
"T. c #A5A5A5",
"R. c gray65",
"E. c #A7A7A7",
"W. c gray66",
"Q. c #A9A9A9",
"!. c #AAAAAA",
"~. c gray67",
"^. c #ACACAC",
"/. c gray68",
"(. c #AEAEAE",
"). c #AFAFAF",
"_. c gray69",
"`. c #B1B1B1",
"'. c #B2B2B2",
"]. c gray70",
"[. c #B4B4B4",
"{. c gray71",
"}. c #B6B6B6",
"|. c #B7B7B7",
" X c gray72",
".X c #B9B9B9",
"XX c gray73",
"oX c #BBBBBB",
"OX c #BCBCBC",
"+X c gray74",
"@X c gray",
"#X c gray75",
"$X c #C0C0C0",
"%X c #C1C1C1",
"&X c gray76",
"*X c #C3C3C3",
"=X c gray77",
"-X c #C5C5C5",
";X c #C6C6C6",
":X c gray78",
">X c #C8C8C8",
",X c gray79",
"<X c #CACACA",
"1X c #CBCBCB",
"2X c gray80",
"3X c #CDCDCD",
"4X c #CECECE",
"5X c gray81",
"6X c #D0D0D0",
"7X c gray82",
"8X c #D2D2D2",
"9X c LightGray",
"0X c gray83",
"qX c #D5D5D5",
"wX c gray84",
"eX c #D7D7D7",
"rX c #D8D8D8",
"tX c gray85",
"yX c #DADADA",
"uX c gray86",
"iX c gainsboro",
"pX c #DDDDDD",
"aX c gray87",
"sX c #DFDFDF",
"dX c gray88",
"fX c #E1E1E1",
"gX c #E2E2E2",
"hX c gray89",
"jX c #E4E4E4",
"kX c gray90",
"lX c #E6E6E6",
"zX c #E7E7E7",
"xX c gray91",
"cX c #E9E9E9",
"vX c #EAEAEA",
"bX c gray92",
"nX c #ECECEC",
"mX c gray93",
"MX c #EEEEEE",
"NX c #EFEFEF",
"BX c gray94",
"VX c #F1F1F1",
"CX c gray95",
"ZX c #F3F3F3",
"AX c #F4F4F4",
"SX c gray96",
"DX c #F6F6F6",
"FX c gray97",
"GX c #F8F8F8",
"HX c #F9F9F9",
"JX c gray98",
"KX c #FBFBFB",
"LX c gray99",
"PX c #FDFDFD",
"IX c #FEFEFE",
"UX c white",
/* pixels */
"f k n C Z N z g S S S S f z B D H V c g b S S b x c v b B n x j N D V z B k x C N b x j S S S S b v b c b C C z V B B S c h x V B Z N j k C F V b h h b B Z B z ",
"f k n B B n v v M B B M c c n B v k d i z b b z j x N C C b g u v B V M B v c n S n h i n n n n k x n N D S b p g z n B a a k b N N k t c M B M n u u n n V M j ",
"f k n M v c n M b v v b M n v x c v b n C M M C b n N B N v k f B n b b v n b z N b x z B B B N n v c b M B b h v M V V v M B B Z D V k M c z c D b b D c M v f ",
"h k v x z z B B c h h v V N z f f j c n v f f v F B x g j x M V S k f c h N N h d z C J z z z z D B z f p b Z C h h h h n V n d f b B n V j d k c V V c z b c a ",
"j k k h p f v N c p p c C N z g e h B S n i i n Z C z i q h M N M t t M J L B j i g b S c p i u B D V j w d M F j f a f x M c i y f v V B h a j n Z B h y p b f ",
"f h k x b N C S n d d b N n v x g n D G n g g n n B n j g b V B M d d M D Z v k f x N Z b j g h n N n x d k M Z h j c b M B N v h z v M n x k x Z S V v d g M g ",
"t d c B Z C B B N z z M b c n M M M b M n c c n z M V b N B N n b c c M M c j n n n n v b n c N x k x n M M M n k n C N M b n C V M v x x n N n Z M v v c x N f ",
"0 p v Z B c f u F b b D f k V S S x p u M N N M h x C Z S V x a M B B M h d h F V M z g k V Z F j a h B F Z n c v V V M k d j V J Z v h j V D B n f p h N n B d ",
"e d c V P x d c D v v F f x N D B v k j N C C N v k v V v n M x P S S H S V G L Y U Z k V n Z T c j c D B n x j C N B S N z x C b V n d c n V S C z h v N n B d ",
"d h z n N v z M N z z C D B z f d k M b M v v M V n k z x B Z C S k c F P H Z v c C D D C b M H D N c c h x M V C v z v B b v b f c N N C N c k F B n M x x N f ",
"c k h f j n B M v d d b U Z h e t v V n v d d v S C c d k N F J N p i n G J C d i x S I S c z M L G N j d k B D V g i z V V b h f h M G Z M h p v v z f f g M g ",
"v x j y y b S B v u u b D N c f u b B b x e e x S C v f g v D P v a u j N S V h p z V G S c f k D L D v j x M V b i i z C S n p c h x S b x h d M Z B j y a b g ",
"k z c n x v V N n M M n S S b c h S B Z n k k n G C F z n J P C v v v v z N B z B Z G L M n M M D I J N M S S M N n c b D n C c f z B D b b n n n n M M h v b g ",
"f k n V C N x z v M M c g g c M F C h M Z J J Z k g S Z D Z b f v v v x z v N n n b z h M b b M M v S Y F G V j z B S V n u x C z Z C g g x N S M d d n Z S M f ",
"f k n V C N x z v M M c g g c M C b t a v V V v h f C F D n g u v v v v k z N B v z g a M v v M f e x G F G V j z B G D n u x C b D B p g x N S M d d b Z S M f ",
"f k n n x x N V B M M V S S M c Z P N b V v v V M n G S b c k z v b b b c x b M j c n N M x x M B b B C M S S M C N B N D n C c n n b v b b n n M n M v h v v h ",
"d a n f f k n Z b j j b V M c k f N D V N k k N J Z x d d B Z c c v v v v c v b v c n N n z z n M M M M x b B Z C x h z N G J d j x M V k i i k V N v v z M M z ",
"d f n g j v B Z z d d z F B z f y n G G c d d c F V v j e c V N f f h j x c b x h z B S N j j n M M M M u g b C n g d k M V S y i k V G c d d c C N v c p j j p ",
"p f b x M M N M v h h v C N c k f N D C M j j M B N n b p x c z g f h j x c b v c v n N b h h n M M M M d h c M v z k M G C L V h x M C M k k M C N v x p j j p ",
"p p v V C N v z S M M S k c N C V D N g J V V J b n M N h n N c v n n M z c n M P B k y N k k M M M M M Z B b x M M Z L C k S J Z N x g V c c V C N v x z M M z ",
"p p V N N n u h C S S C g d v J H G h w V H S k f k n V V n k z n V B B h z n V C N j d N n n N j a j B C b f y V M C P v p z T S B z d g Z H C c p p x B C n f ",
"a d B b B B z B N n n N z k v B H H C n V C M k k x v n n v x x b n n v z x b M n v x x v n n n n v n V V N b x N v n S S n N L n b v c z M V M c j j c x n v g ",
"a f N k c M v S b f f b n M c h n B J J V c j k n v x k k x v v x k k x b v x k k x b b x k k k N V N v x b N C n j g x F G B N d z B D M z j x c M M c p k x h ",
"d f b p i z x V c t t c V Z c t q k H J V g p k V n k f f k n n z h h h Z M k a a j M Z k j g g v B b a y f b C b f i d v G N d w h Z U C g u h c S S c q f z j ",
"x f v h d c B M B d d B F B k a t b D C h h h h V n k g f k n M c j j j B N D w p h n V b x g i N S B h f v C C b g a g Z L b p a n V n Z N c j v n n v f j d q ",
"j d n z B Z B x B k k B n N Z D N S N k z z z x v v x z k x v b b v v v H C I b N V S D V n c z C S C M k M C M b j j b V S Z D C F N d N M b b b c c M j x h t ",
"d p M b M z u y B n n B y g M D I Z k d b b b c z x v n n v x c M V V V x y n v F S C N n N C S j g j c v C C k b x b D x d x G I I V p c b M N C j j C c n x p ",
"i p M N V j d j B C C B g c Z J I M h g N N N N f k n V V b k f D Z Z F V p S U C b h f x V H U x g z Z M C M g M N S Z V j b J J U F x j c B Z D f f D n B v f ",
"a d n d V B B n V v v V S F Z n B B B n D b v V n k z n x v n Z S n n D V H C g v D D v U M x B S N x h b n M M Z c k v V V V B V Z F H G b z n v Z Z v f x c f ",
"a f b d a c N b h i i h S F b t h n C n v a p k M n k z j c N Z n d d b V H C g u N L H Z h i j B H C a d z M V n p u h S M x h u k C L N g p h v Z Z v f x x f ",
"a f b d i b V n h i i h V J N q a M V x z i u j x M n k z n C S n d d b V H C g u N L H Z h i j S P D g a h c C M d y h S b x h u k C L N g p h v Z Z v f x x f ",
"a d n d h C F C V v v V n Y P h f M M j M j j M z x M n v M C F Z b b S V D V g v D Z v J V x V I G V n k x b Z N v k v B v N N B Z F H G b z n v Z Z v f x x f ",
"y p N V Z v g k M B B M f k D D D M h u B B B B h x M C b Z C B S M M F B M M D T F b a S G Y G Z j z D M n v k b b n N M x h N S G N a d n V M V f f B B B c d ",
"a p M M F N z a S V V S t d V F C n k d n n n b c c n M b N x t S Y Y S b z M G L S b k v F U G C c x V n M b k z b N B N z h N Z G C f z M C N k i f n N V M d ",
"h d b c M N N v S v v S H D S Z b v x z x x x c n n c x B G D n M J J B b n C V C V N M B Z C Z Z Z C M v b c x c v b b N j h N N D C c C n v v C N N Z n N b f ",
"z g b j k c n N M p p M D S B c z x c x z k j h C n z h e c S Z b a a n S G B z x M C S D x h b D Y P M g j v M z k k k M h k N x M Z D H x f j G S b h j b v f ",
"u h n w u c N v d w w d Z C c a w f P B f f f g N b k d 6 i P D M 0 0 M Z N z g k n Z G S h a c S Y S p f j b B h g g g b S v t e a B ! L z t g M C N j i p v g ",
"p h N d h n S D B a a B D G B z f k V b j j j k x x k j f M I G N p p N H F S B M N C S B x c M T L C b k x b b z j j k c M v g f x Z L S x f c n b c x h g b g ",
"d g V b V n n B S v v S x C F Z B n f z v v v c k k c v b G C N M c c N C S G H D V N M N N D Z L n b S n v x z c b b b x j x B N D G x b b n C M j j B b x M f ",
"g f C S P c i i c C C c w d Z I L V q g M M M N d k v N v G f p N Z Z n j k N D D Z M c Z D J D b i d C N b z g M N N B j p x H F U G y j M S H b a h V C b N a ",
"u d S V V x k M D N N D g B J J M n b b V c c B c c b n M n b n V S S N B V V M N V C M C N Z H n v N b v b v z N B B B h z b Z D T V N b z v B V x v n H Z V p ",
"i d V b v x v N B c c B C F Z v c b M N M k k M M b v x c b M B V n n C D G S b z M F G N d z G N S C c j v B N M M M b c c n N j C Z S C x k c N n M v B c n a ",
"p a b g g v B B c g g c L J N d h c B D c f f c Z N z g h c B D C f f C P L V j f c S L B p y n H G M h a x B Z x x x c b b c z u k F D Z x d g n V C x g d b d ",
"p a z i i b Z V h i i h J J B g a z C J k p p k G B k p a c C J C e e C Y G B f y j Z H M d t k P Z x a t k N Z z z z k V M z f a h G N Z z p a V S B j e i v d ",
"i a V b n Z v V M c x b b C C k v v b b n n M M N N N N M b M M M M M n N G S V M F Z n b n n v b x k b h v n x v v v c N N S H N D D N M c z c C B B B c n c d ",
"u d V b N B d f V C n z f x S J H C c g M M M M y f b C B c d y p x S P d z Z S J P V i n n n n x g h v M M x z v M M M b t a H G H C k M b n M v d k B b N b g ",
"i d V b N B d f M S C c z x N L I F M z M M M M y f b C B c d y p x S P z j M G J P V i n n n b x h z M M x h h M M M M b t a H G H C k M v b B b d d B n B n h ",
"i a V b n Z v V V M V M Z B b b D D D D M M M M N N N N M M M M M M M M V F F F C F F n v n n n b b M n c h h h M M M n n N S H N D D N B k z n B b v B M V b j ",
"i p k y i n S B v g g c D Z v j p x B D M f f c B n k f d j b B j j j j b C n i i j N F N k k N v n n v g k b N B k f j V I H k j v B S B h p x n N n M 9 f c h ",
"i p c d u b Z B k d a k V N j y y x S L v p u j G N h y t g M F a a a a v M b j f k M C k p p k N S M p p h M S x d p h Z F M i t h B D V k g z c n N n u k c g ",
"i d N x j c N n x g h c V D V x g B S S C j d c V n k d d j b B j j j j c k x N z x v n k p p k C V c f g k b N z g h b L J D M g h k B C x k b x c n N z M b d ",
"u f Z N C N c z N v b Z p z N V F G n h Y C N D f k n V B b j d B B B B x f z F b v c x N k k N Z h h Z N b z h M v N H b n V F C N M N N c x N b x c n N Z M d ",
"u g D C Z B z a b N M B 0 f M B C S z w D C B c t h M V B b j f N N N N h i g C n x g p c D D c c h x S S v j z x S H Z b d M S D V x f h C S k B k k N D D N f ",
"i f V b B N b k M N N S g v C B C J Z c G D N M z n M n b c z z v b b b n v M Z V N n b c N N c c x v N z M M z B S F S Z b D S B B M b b B V B M x x M C V M j ",
"p a b h v M N b c x c C n N M k k S G S V v c N D C n j j z c v x z z z N V N c b n N V v j j v b n b z p v V B V n v n S V G n z v N V Z v z b b N M x M v c j ",
"a p x i g b V C k w u b n v j e 0 x Z D p i g k P S x d d j b B h h h h z M x e p g x n b p p v b V n d p d M I b a y d N M C d e f M C M d a k h V Z z c z k g ",
"k j M f u x z Z c p i n C M z p a M S v x a f N G n V j f k n V n f f n V n z g i j N F M v j d b n n c h x C J C z g z D F S u i x B B V b h f M B Z b q h z f ",
"g g N j M Z x M N c k k h v N B k V N h v x B D V M Y I S B c j n x x n n v x c v v c z M b c c c c b N b n v h D V B C n f c v g b B b B V b h M M B M a c v f ",
"p f V c c n p d n M M b p k V F M S v a C S F F a d F G Y F b g M C C M z x b n C M k f n M V C v h c G D G n y C F H F b u x C x B B h v B V b n v b B n B M f ",
"y a C n v B k b b c N C k z n C V N h g L D V G N v P H P G V M M H H M g z n V b v c x b B D J c a x I J W J h x Z H Z Z c B B b B b f j v B V B v c n F F N f ",
"u a M k v z v Z n k k n M C N j z v N C N z z N b b b b c D J S I V n C n S S n v F L F P x h V S H D n n D J D S b x b N B M k g k v M N b c c V G V h c B V v ",
"j g v i h M V n k a a k c M v d z v N C z p p z F B z d y M L P V k f k G H B d q c G H Z a y x L J N d y c Z S M j f j N B M k w f N H N k h k N H Z j p j k a ",
"j g v i h M V n k a a k c M v d z v N C z p p z F B z d q c F G n f i f G H B d q c G H Z a y x G F b i w k B V M j f j N B M k w f N H M z f h v S S z u g h i ",
"u d M k v z v Z n k k n n V M h z v N C N z z N b b b b p v N c C k f z n S S n v F L F P x h V n B n h h M V n S b x b N B M k g k v M k v x j b B B x g c v h ",
"a f V c V k f k b C M j h z n B D n g a M F F M b d M Z B n z g n N N n v h v J L S c f C C C C z u c B B c h z x M N B v a h S S B v v N N N Z M u u B H H N d ",
"a g V c x h f h n D Z b j k x c V M x h M V V M n j B M C n k d n J J n b c b C N v h p N N N N v g M n V M c j k n V N x p f M P S n g x n C D B g g B C Z M f ",
"a g V c n V Z V b c N B S Z V B x v N B M v v M F C H N c c c c n B B n M B M z S Z V M b v v v B b C x x b B N v c n M D V N V B N M v c n B B N b b N z n b h ",
"p g V c h N S N v u i b V M x j a x V G M j j M v v M u t g B H n e e n n D M a x c v v x k k k Z C F j f k n C Z v k x V C M z t g B G c c c c N C C M a z c h ",
"p i z u w z B M z d i x V N k p d x Z D z d a k M v k g y x V V M t t M b C n u f k n V h j j j v B b a y h B F h i u f z V b y e i N L B f y f b D D n e f x f ",
"i a b g z M C V v z h k b n v j g c M M b z h z v c z k f v N v M d d M c n v h k x v v x z z z v n v k f x N V j f h x c Z B f a x M N b k h k v N N b d z x d ",
"u d V v S M v b N B v k g b M v x b z k N B v x k z c v v N v f M c c M x k x N n v x z c b b b c z c M x M B k c x M C Z d f D z S N d z n N n v k k v b N v a ",
"y f D V F z p d C Z V n p z N V N b j p v S V n g k v M V V x y M B B M x d z F B n z f N N N N x g x S B V b a M B S Z x u d B M G M e g V G V v a a b Z Z n p ",
"a g D B c B N z V M M B v v B B b b v k v B S V n n N N V V N k n n n n c x c n n b c c V x x B M N N n n B C N b V Z M M n N C Z Z B V x c n C G c j b M C N j ",
"d g C c k M B v v h x C B B x h g c B C b z k x n b c x h x v v c c c c b M b k x c b M M j j M B Z n g f c n M V B c g N V B n b M B C C x g z S n x c c n M k ",
"f f n f f n C N z i d N Z S c e d v Z D c p u k N b k f y h b B j j j j n S M u g z N Z c d d c B S n i e j n N Z c a f B F V g f z M Z D g t d B V n j g k v z ",
"g d x u p b Z C j i p c V S v e a N V N n i i n D B z f t j V H f f f f M J B 9 p j B G k i i k b V b u t g N D M g f z V L C i y f n S V p w f n S B f i f j k ",
"g a N M x N N x v c c b c x x x V B V V n n n M B N b c c v v b b n n M M b V p v v b b n n M M x k b B k C C n x v n C C f N V n B b v b n v N G N M N v B b a ",
"g a N M Z x d g z v M V g z N Z Z M z f n n n n f j x v M c f i M M M M b p N C D N k a M M M M v h v D C Z c w z C C n n y x C b N c y z b B C B d f N v B b a ",
"g a N M F b j k v M B B k v C G Z M z f n n n n f j x v V n k d M M M M b p N C D N k a M M M M n k x Z B B n d z M C b n h v n j N B f b M B B M g d N v B b a ",
"g a N M V G G V n n n n V V V V V V V V n n n M B N b c C V V B B N N M M b C p v v b b n n M M n x v V c b B Z V z z x V N G N x C Z b n n n n V M B G v B b a "
};
