/* XPM */
static char *result[] = {
/* columns rows colors chars-per-pixel */
"80 80 40 1 ",
"  c #72751B",
". c #807F72",
"X c #656C17",
"o c #787B21",
"O c #7C7B6E",
"+ c #89877F",
"@ c #88867E",
"# c #838279",
"$ c #87867D",
"% c #88877E",
"& c #88867D",
"* c #64604B",
"= c #848279",
"- c #7F8124",
"; c #686F16",
": c #8D8B83",
"> c #87857C",
", c #828175",
"< c #605C48",
"1 c #878679",
"2 c #8A8A7D",
"3 c #8C8A80",
"4 c #807F73",
"5 c #8C8A81",
"6 c #8D8B82",
"7 c #7F8226",
"8 c #828077",
"9 c #838178",
"0 c #8D8C82",
"q c #838278",
"w c #8D8C83",
"e c #89877E",
"r c #8E8C83",
"t c #939189",
"y c #6C6852",
"u c #5F5B46",
"i c #84827A",
"p c #7E7D71",
"a c #898780",
"s c white",
/* pixels */
"  ......XooX         OOOOOOOOO    ..........      ......+  ...                  ",
" @.......Xo         OOOOOOOOOO#  $............   %......+ ....@                 ",
" @...........      OOOOOOOOOOO#  $............&  %.....+*.....@                 ",
" @............&  =OOOOOOOOOOOO#  $............&  %oo.++* .....@                 ",
" @............&  =OOOOOOOOOOOO#  $............&  --++**  .....@                 ",
" @............=  oOOOOOOOOOOOO#  $............& oo;**   ......@                 ",
" &............= --OOOOOOOOOOOO#  $............& oo;    .......&                 ",
" &............=o-;OOOOOOOOOOOO#  $............& o;   .........&                 ",
" &............=oo=OOOOOOOOOOOO#  $............&    ...........&                 ",
" &............&;;=OOOOOOOOOOOO#  $............&  %............&                 ",
" &............&  =OOOOOOOOOOOO#  $............&  %............&                 ",
" $............&  =OOOOOOOOOOO+:  $...........::  %............$                 ",
" >............&  &OOOOOOOOOO+**  $........::o--  %,...........>                 ",
" *::::::::::::*  *:+++++++++*    *::::::::***-oo *::::::::::::*                 ",
"  ************    **<<<<<<<*      ********   ;oo  ************                  ",
"                                              ;o                                ",
"  ............    111111111111    ............       OOOOOOOOO                  ",
" &............$  21111111111113  $............&     ooOOOOOOOO4                 ",
" &............&  51111111111116  &............&    7oOOOOOOOOO8    o--          ",
" &............&  61111111111116  &............&   oo#OOOOOOOOO9     -oo         ",
" &............&  01111111111116  &............77o oo#OOOOOOOOOq     ;oo         ",
" &............&  w1111111111116  *eo7ee.......&7ooXoOOOOOOOOOO#      ;;         ",
" &............&  r1111111111116   **7o*e......&Xoo#OOOOOOOOOOO=                 ",
" &............&  r1111111111116     oo *e.....& X#OOOOOOOOOOOO=                 ",
" &............&  r111111111111w     XX  *e....&  #OOOOOOOOOOOO=                 ",
" &............&  r1111111111116          *&...&  9OOOOOOOOOOOO=                 ",
" *&...........&  r1111111111116  ....     &...$  9OOOOOOOOOOOO=               7 ",
"  *&..........$  r1111111111116  .....    &...$  9OOOOOOOOOOOO=              7  ",
"   *&.........>  r11111171111ty  :.....   ::..>  u+OOOOOOOOOOO+             oo  ",
"    *:::::::::*  yttttt7Xtttty   *:::::   **:::   u&+++++++++&              ooX ",
"     **********   yyyyooXyyyy     *****     ***    uuuu<<<<***              XXo7",
"                      oX                                                      oo",
"  OOO  iOOOOOO      ..........        %.......    ..........                  XX",
" =OOOO iOOOOOO=   ............&      %........@  $............                  ",
" =OOOOO<+OOOOO=  &............&     %.........@  $............&                 ",
" =OOOOO <++OOO=  &............&   %%..........@  $............&                 ",
" =OOOOO  <<++++  &............&  %............@  $............&                 ",
" =OOOOOO   <<<<  &............&  %............@  $............&                 ",
" =OOOOOOO        &............&  %............&  $............&                 ",
" =OOOOOOOOO      &............&  %............&  $............&                 ",
" =OOOOOOOOOOO    &............&  %............&  $.........:::*                 ",
" =OOOOOOOOOOOO=  &............&  %............&  $........:***                  ",
" =OOOOOOOOOOOO=  &............&  %............&  $.......:*                     ",
" =OOOOOOOOOOOO=  *:...........&  %............$  $......:*                      ",
" =OOOOOOOOOOOp=   *:::........&  %............>  $.....:*                       ",
"  +++++++++++++    ***:::::::::  *a+++++++++++*  *:::::*                        ",
"  <<<<<<<<<<<<*       *********   ************    *****                         ",
"                                                                                ",
"     &........    ............    111111111111    ............                  ",
"    &.........&  &............&  r111111111111r  &............&                 ",
"   &..........&  &............&  r111111111111r  &............&                 ",
" &............&  &............&  r111111111111r  &............&                 ",
" &............&  &............&  r111111111111r  &............&                 ",
" &............&  &............&  r111111111111r  &............&                 ",
" &............&  &:...........&  r111111111111r  &............&                 ",
" &............&  **:..........&  r111111111111r  &............&                 ",
" &............&    *::........&  r111111111111r  &............&                 ",
" &............&     **::::....&  r111111111111r  *:::.........&                 ",
" &...........**       ****:...&  r111111111111y   ***:........&                 ",
" &..........*             *&..&  &1111111to--y       *:.......&                 ",
" &.........*             o &..&  &111111tyy-oo        *:......&                 ",
" *::::::::*             -- *::*   tttttty  ;oo         *::::::*                 ",
"  ********             o-;  **    yyyyyy    ;;          ******                  ",
"                       oo                                                       ",
"  111111111            ;;                          OOOOO+                       ",
" r111111111r   7                                  =OOOO+<   OO#                 ",
" r111111111r   oo                          77     =OOO+<   OOO=                 ",
" r11111111177o Xo                           7oo   77++<    OOO=                 ",
" r11111111yy7ooXX 77o                       Xoo  o7<<<    =OOO=                 ",
" r1111111o7 Xoo Xoo7                         XX ooo      =OOOO=                 ",
" r111111y 7ooXo ooo                             ooX     =OOOOO=                 ",
" r11111y  Xoo XXooX                             XX   OOOOOOOOO=            7    ",
" r1111r    Xo  XXX                                  =OOOOOOOOO=     o77   7     ",
" r1111r     X oo                                    =OOOOOOOOO=      7oo 77     ",
" r111yy       7X                                    +OOOOOOOOO=      Xoo oo     ",
" r11y         X           --o                       <+OOOOOOOO=       Xo oX     ",
" yyy                     oo-                         <+OOOOOOO=        X X      ",
"                         oo;                          <+++++++<                 ",
"                         ;;                            <<<<<<<                  ",
"                                                                                "
};
