/* XPM */
static char *e2a40bf5ae4c4cc1dfa11918dd8d93a1j4dZG123cEkKdpBL[] = {
/* columns rows colors chars-per-pixel */
"80 80 185 2 ",
"   c None",
".  c #98916D",
"X  c #92897E",
"o  c #9D9776",
"O  c #A6A47C",
"+  c #857596",
"@  c #877698",
"#  c #877899",
"$  c #8A7A9C",
"%  c #8D7DA1",
"&  c #9F998D",
"*  c #8F809F",
"=  c #928495",
"-  c #9F9696",
";  c #9F9998",
":  c #A1998E",
">  c #A39B97",
",  c #A4A186",
"<  c #A8A486",
"1  c #A7AF86",
"2  c #ACA983",
"3  c #AEAD8A",
"4  c #B2AC8D",
"5  c #AEB187",
"6  c #B2B38D",
"7  c #A4A193",
"8  c #AEAE95",
"9  c #A8A69A",
"0  c #B4AD94",
"q  c #AFB194",
"w  c #B4BC94",
"e  c #B5B098",
"r  c #B7BC9F",
"t  c #BABC9C",
"y  c #8F80A3",
"u  c #9284A5",
"i  c #9586AC",
"p  c #9789AC",
"a  c #9A8CAC",
"s  c #9C91A4",
"d  c #9E91AF",
"f  c #9789B0",
"g  c #9B8DB2",
"h  c #9E92B4",
"j  c #9F94B8",
"k  c #A197A6",
"l  c #A59DAB",
"z  c #A295B4",
"x  c #A49AB4",
"c  c #A89FB4",
"v  c #A296B9",
"b  c #A69BBB",
"n  c #A99DBC",
"m  c #A8A2AA",
"M  c #B0B0A1",
"N  c #B9B8A5",
"B  c #BCBEA4",
"V  c #B6B2AC",
"C  c #ACA3B4",
"Z  c #ACA2BE",
"A  c #B3ACB4",
"S  c #B0A5BD",
"D  c #B4ACBC",
"F  c #B9B5B7",
"G  c #BBBAB7",
"H  c #B9B2BC",
"J  c #C1BFBD",
"K  c #BCC49D",
"L  c #BFC6A3",
"P  c #C1C49C",
"I  c #C1C99F",
"U  c #C2C4A4",
"Y  c #C3CBA4",
"T  c #C1C6AA",
"R  c #C6CCAD",
"E  c #C8CEAB",
"W  c #C9D1A6",
"Q  c #CCD4AC",
"!  c #D2DAAF",
"~  c #C4C5B5",
"^  c #C9CDB4",
"/  c #C4C3BC",
"(  c #CCCDBC",
")  c #CDD3B3",
"_  c #CED2BA",
"`  c #D1D5B3",
"'  c #D2D9B5",
"]  c #D1D6B8",
"[  c #D5DBBB",
"{  c #D8DFBE",
"}  c #DBE2BD",
"|  c #AA9EC1",
" . c #ADA3C2",
".. c #B1A6C4",
"X. c #B4ABC5",
"o. c #B8AEC7",
"O. c #B2A6C8",
"+. c #B6ADC9",
"@. c #B8AFCB",
"#. c #B7B0C6",
"$. c #B9B2C6",
"%. c #BCB3CD",
"&. c #BEB8CA",
"*. c #BEB5D0",
"=. c #C1BDC4",
"-. c #C3BCCC",
";. c #C0B7D1",
":. c #C5BDD6",
">. c #C7BED9",
",. c #C8BFD9",
"<. c #C5C1C6",
"1. c #C9C6C7",
"2. c #C6C1CC",
"3. c #D0CDCC",
"4. c #D6D4C2",
"5. c #D7DBC2",
"6. c #D9DEC2",
"7. c #D4D4CB",
"8. c #DADCCC",
"9. c #C9C2D4",
"0. c #CECAD2",
"q. c #CCC4DD",
"w. c #CFC8DC",
"e. c #D1CDD4",
"r. c #D1C9DD",
"t. c #D5D3D2",
"y. c #D9D7D6",
"u. c #DBDBD2",
"i. c #D6D1DB",
"p. c #D9D5DE",
"a. c #DCDADC",
"s. c #DCE2C2",
"d. c #DEE3CB",
"f. c #DFE1D3",
"g. c #E0E7C6",
"h. c #E3EAC5",
"j. c #E1E5CD",
"k. c #E4EACC",
"l. c #E8EECE",
"z. c #E9F0CE",
"x. c #E2E5D4",
"c. c #E5EAD2",
"v. c #E9EED4",
"b. c #E4E4DA",
"n. c #E6E8DA",
"m. c #EAEEDC",
"M. c #ECF1D5",
"N. c #EDF2DB",
"B. c #F0F5DC",
"V. c #CFC7E0",
"C. c #D0C7E1",
"Z. c #D5CDE5",
"A. c #D6CEE8",
"S. c #D7D0E5",
"D. c #D9D3E3",
"F. c #DDD9E3",
"G. c #D9D1E9",
"H. c #DFD8EB",
"J. c #E1DDE9",
"K. c #E5E3E4",
"L. c #EBECE3",
"P. c #E6E2EA",
"I. c #E9E6ED",
"U. c #ECEAEC",
"Y. c #EEF1E2",
"T. c #EFF0E9",
"R. c #F2F6E2",
"E. c #F2F5E4",
"W. c #F4F8E3",
"Q. c #F5F9E5",
"!. c #F3F5EB",
"~. c #F6F9EB",
"^. c #F7FAEC",
"/. c #F8FBED",
"(. c #F1EFF4",
"). c #F4F4F3",
"_. c #F8F7F7",
"`. c #F7F8F0",
"'. c #F9FBF2",
"]. c #FAFCF3",
"[. c #FBFCF4",
"{. c #FCFDF7",
"}. c #F6F5FA",
"|. c #FDFDFA",
" X c white",
/* pixels */
"                                                                                  m {  XR.s.]                                                                   ",
"                                                                                 .q.}. X X X X Xv.{                                                             ",
"                                                                              g q.a._. X X X X X X'.d.                                                          ",
"                                                                              ..C.D.m. X X X X X X X X8.                                                        ",
"                                                                      K Y Y K =.A.A.D.Y. X X X X X X X~.                                                        ",
"                                                            8.6.R. X X|.|.|.|.D.Z.A.A.p.R.]. X X X X X X5.                                                      ",
"                                                      s.j.E. X X X X X X X X].e.Z.A.A.A.a.n.W.W.^. X X Xj.                                                      ",
"                                            1 Y h.c.L.]. X X X X X X X X XR.n.X.C.A.A.A.A.S.a.a.b.N.N.B.8.                                                      ",
"                                        w ) c.!.'.|. X X X X X X X X|.!.v.p.w.h :.A.A.A.A.A.A.q.r.p.p.p.q.                                                      ",
"                                      g.!.|. X X X X X X[. X|.'.}.L.x.D.Z.q.@.v  .A.A.A.A.A.C.- X :.A.A.;.                                                      ",
"                                  K v. X X X X X X X X X~.L.L.f.S.A.A.q.;.%.$.v a :.C.A.A.A.A.*.> H A.C.-.                                                      ",
"                                w j. X X X X X X X X X X|._ A.A.A.C.:.%.%.:.+.g h h %.q.C.A.A.A.G.A.A.%.t.m.j.                                                  ",
"                              O s.|. X X X X X XB.N.N.v.s.B q.A.>.%.%.;.:.+. .h j i  ...g X.q.A.A.A.:.D T. X|.N.                                                ",
"                              ` |. X X X X X X X|.{.{.[.'.s.~ %.%.:.:.%.b @.z h f i u Z v @. .+.>.;.D n. X X X{.M.                                              ",
"                            ' ]. X X X X X X X X X X X X X{.} / :.:.+.b ..+.u v i i % u Z :.%.a l ..n. X X X X X!.                                              ",
"                          d.'. X X X X X X X X X X X X X X X].) Z n b ..:.%.u $ % % i z v x x z u.{. X X X X X X X                                              ",
"                        N. X X X X X X X X X X X X X X X X X^.) X.+.;.:.:.:.+.Z ....%.:.%...Z %.9.x.B. X X X X X[.                                              ",
"                      c. X X X X X~.J.H.H.c.v.v.v.v.v.v.v.c.[ r :.:.:.:.:.:.:.,.,.,.:.:.:.:.,.:.:.9.0.c.v.].|.|.Y.                                              ",
"                    _ {. X X X XQ.|.Y.D.Z.A.S.S.S.S.S.S.S.Z.:.-.:.:.:.:.:.:.:.:.:.:.:.:.:.%.:.:.:.:.:.9.9.8.j.j.^                                               ",
"                  ) `. X X~.Q.N.c.k.E.a.C.q.C.A.A.A.A.A.C.:.;.:.:.:.:.:.:.:.;.:.:.:.:.:.:.;.+.%.:.:.:.:.:.:.:.:.#.G                                             ",
"                  m. X X X~.Q.N.m.k.W J C.C.q.q.q.q.q.9.%.%.:.:.:.:.:.:.:.:.$.;.:.:.:.:.:.:.+. .X.@.:.:.:.:.%. .7.m.{                                           ",
"                [ |. X X X X X X X|.L.) e -.:.b z h | ..X.%.:.:.:.:.:.:.%.X. .;.:.:.:.:.-.;.$. .f f n  .b h H 5.'. X!.[                                         ",
"              Y !. X X X X X X X X X X|.v.t X h  .h v X.+.+.+.+.+.$.+...n h X.+.+.+.+.V 0 S Z h % $ % h Z j  .f.[. X X~.      4.o                               ",
"            R c. X X X X X X X X X X X X Xc.5 > X.+.b  .X.X. ... .n v g g g j  .X.C / m.L.d   v ..+. .n z n  .:.x./. X Xm.    u..                               ",
"            g.Q. X X X X X X X X X X X X X|.N.U 7 l +. .Z n n n v g h n n b h g ; 8 v.!.T     y Z +.+.+.+.%.+.%.9.7.N./. X} n.H.:                               ",
"            a.p.K.N.[. X X X X X X X X X X X X!.Q q & n b b n n n n n n n x 7 M 8.L.!.)         v +.+.$.;.:.:.;.:.:.0.u.M.P c.J.+.9                             ",
"            :.q.S.D.c.R.|. X X X X X X X X X X X|.M.W N , l x x x x l < T j.T.!. X{.B           u  .$.:.:.:.:.:.:.:.:.:.-., 7.V...=.d.                          ",
"            u +.Z.A.A.a.c.~./. X X X X X X X X X X X X|.N.5.B 0 0 r ^ l.~. X X X Xm.Y             v o.;.:.:.:.:.:.:.:.:.b X.:.:.Z -.'.]                         ",
"              a X.A.A.A.A.u.x.Y.Q.Q.~. X X X X X X X X X X X X X X X X X X X X X X XN.I           p  .%.:.:.:.:.:.:.:.:.d $.:.:. .=.I.[.d.                      ",
"                $ ..q.A.A.A.A.p.a.a.a.N.'. X X X X X X X X X X|.~. X X X X X X X X X XM.3           g ..;.:.:.:.:.:.:.:.v +.:.%.X. .X.a.].x.                    ",
"                  $ h %.V.A.A.A.A.A.A.p.F.H.H.H.K.M.M.M.M.M.M.v.a. X X X X X X X X XQ.E.3.o.          h X.;.:.:.:.:.:.:.+.b %.+.+.v b z 7.`.8.                  ",
"                      % n *.C.A.A.A.A.A.A.A.A.A.A.D.D.Z.w.9.9.:.2.E. X X X X X X|.|._.%.;.C.+.          $ g Z +.%.%.@.Z b v b X.+.a x v o.N !.5.                ",
"                          i v @.>.C.A.G.G.G.G.A.q.9.@.n n n v a ..a.!. X X X X X`.b.D.C.@.*.C.*.a             u i i $ + + h :.%.X.u Z Z x C N !.2               ",
"                                h d n ..O.O. .v a x n x +.:.:.$.a q.a.B.[. X X X/.K.....q.%.X.,.:.h                       i %.:.X.a Z Z z x k ( Q               ",
"                                    h *.1.( ( ^ / :.q.;.:.:.:.:.x b q.p.n.R. X[.} g.i.%. .:.>.b *.>...                      n ;.X.g  .z x Z x l D               ",
"                                   .0.Y.|.{.|.|./.v.i.%.:.:.:.:.%.n a b -.e.j.v.( c ;.C.:. .:.>.z Z :.%.                      p i $ a Z a b b b b z             ",
"                                  -.m. X X X X X X Xm.2.%.:.:.:.%. .%.;.n C H &.:.>.Z X.;.:.v  .:...b %.                              + a a b z n %.z           ",
"                                | J.|. X X X X X X X|.n.&.%.%.%. .X.+.;.C.x.l.<.F C +.%... .:.X.n %.9.b                                   d z z v v Z $         ",
"                                -.!. X X X X X X X X X^.H  .+. ...+.+.%.C.S.n.{.~.a.1.F  .b i ..%.z x +.                                    i p b n y           ",
"                              Z x.|. X X X X X X X X X~.A % u v +.%.;.%.:.Z.S.n.|. X{.U.I.(.P.P.).U.(                                           u a             ",
"                              D N. X X X X X X X X X XN.    f g ..%.:.:.,.q.A.D.c.E. X X X X X X X X'.s.                                                        ",
"                              X.N. X X X X X X X X X_.g.        j X.%.:.q.A.A.A.A.a.R.]. X X X X X X XY.                                                        ",
"                              #.N. X X X X X X X X XN.Y         $ v +.;.:.q.A.A.Z.C.a.n.]. X X X X X X[.k.                                                      ",
"                              %.N. X X X X X X X X|.s.            $ b +.;.:.V.A.C.,.Z.S.n.|. X X X X X XM.!                                                     ",
"                            b 9.N. X X X X X X X~.}                   h  .@.:.9.:.%.9.A.S.F.R.|. X X X X|.g.                                                    ",
"                            b w.b.`.]. X X X|.E.'                         v n +.:.%.+.9.A.A.a.c.~.|. X X X].}                                                   ",
"                          i O.Z.>.0.u.L.Q.Q.v.W                             $ h v  .v +.q.A.A.A.u.m.Q.Q.Q.K./                                                   ",
"                          h :.A.:.:.:.9.3.<.=.l                                   u g z @.q.A.A.A.D.t.3.3.:...                                                  ",
"                        z  .q.q.:.:.:.:.+.*.b                                         u z *.q.A.A.q.:.:.:.:.n                                                   ",
"                      ..9.:.A.9.:.:.:.@.%.X.                                          $ v +.:.q.9.:.:.:.:.%.v                                                   ",
"                    v q.A.C.Z.9.:.:.%.%.%.g                                           n 9.C.;.:.:.:.:.:.:. .i                                                   ",
"                    *.A.A.A.q.:.:.:.;.*.| f                                          .q.A.A.C.:.:.:.:.:.%. .i                                                   ",
"                    ,.A.A.A.,.:.:.:.:.:.%.g                                         :.A.A.A.C.>.:.:.:.;.%.%.v                                                   ",
"                  n q.A.A.C.:.:.:.:.:.:.:.h                                         ,.A.A.C.:.:.:.:.:.:.:.*.n                                                   ",
"                  %.V.A.A.9.:.:.:.:.:.:.:.                                        n q.A.Z.,.:.:.:.:.:.:.:.*.v                                                   ",
"                  :.C.A.A.,.:.:.:.:.:.:.;.                                        n >.Z.9.:.:.:.:.:.:.:.:.X.%                                                   ",
"                  :.C.A.A.,.:.:.:.:.:.:.+.                                        g X.9.:.:.:.:.:.:.:.:.:.Z                                                     ",
"                  $.V.A.q.:.:.:.:.:.:.*.v                                           b :.:.:.:.:.:.:.:.:.@.g                                                     ",
"                  X.q.A.q.:.:.:.:.:.;.b                                             j $.:.:.:.:.:.:.:.%.v                                                       ",
"                  n q.A.9.:.:.:.:.%.n                                               # b :.:.:.:.:.:.:.Z                                                         ",
"                  h ,.C.:.:.:.%. .v                                                   * n :.:.:.:.:.;.h                                                         ",
"                  i >.C.:.:.;.b                                                         i +.:.:.:.:.X.$                                                         ",
"                  b q.C.:.:.X.                                                          @ n :.:.:.:.z                                                           ",
"                  n V.q.:.;.a                                                           + n :.:.:.;.u                                                           ",
"                v +.q.:.;.%.u                                                           = @.:.:.:.%.i                                                           ",
"                n X.q.:.%.;.n                                                         2 A :.:.:.;.X.x                                                           ",
"                X.C.A.9.#.;.+.                                                      Y V X.:.:.:.:.;.8.s.E                                                       ",
"                ) ^.{.N.s.#.+.X.                                                  { K.X...:.%.;.:.:.c.|.{.B.                                                    ",
"              Y R. X X X~.1.X.%.                                                K 8.q...X.;...:.:.:.c. X X|.M.g.                                                ",
"              m. X X X X X6.$.+.                                                ^ 0.:... .%...:.:.:.t.!. X X X/.N.}                                             ",
"          Y N.|. X X X X Xx.:.b                                                 X.:.:.%.a v +.;.:.:.:.t.^. X X X X^.v.W                                         ",
"        I k. X X X X X X XM./                                                   ..:.:.:.$.%.+.+.;.:.:.:.u.v.]. X X X|.E.z.[ L                                   ",
"      { v.|. X X X X X X X].~                                                   n :.:.:.;.%.v a d X.:.:.:.9.8.Y.]. X X X X X^.'                                 ",
"      E. X X X X X X X X X{.Y                                                   g  .+.+.n u $     u z  .;.:.:.e.y.L.W.R.[. X XB.^                               ",
"    ~. X X X X X X X X X X{.Q                                                                         % u a a p p s C A &.;.;.D k                               ",
"  x. X X X X X X X X X X X].Q                                                                                                                                   ",
"  [. X X X X X X X X X'.Y.` 3                                                                                                                                   ",
"  k. X X X X X X X Xm.P , .                                                                                                                                     ",
"  Y v. X X X X|.v.^ 6                                                                                                                                           ",
"      8 R U 4 < o                                                                                                                                               "
};
