/* XPM */
static char *result[] = {
/* columns rows colors chars-per-pixel */
"80 80 229 2 ",
"   c #231323",
".  c #2B1927",
"X  c #2E242E",
"o  c #36212C",
"O  c #342B34",
"+  c #3E2F36",
"@  c #392F39",
"#  c #3C333C",
"$  c #3D3A3D",
"%  c #541B1A",
"&  c #57221E",
"*  c #471E24",
"=  c #482A25",
"-  c #592825",
";  c #543223",
":  c #583127",
">  c #5C322C",
",  c #592E31",
"<  c #583A36",
"1  c #612F2F",
"2  c #60322E",
"3  c #633231",
"4  c #653833",
"5  c #694238",
"6  c #6D4B3E",
"7  c #684E3F",
"8  c #3F3740",
"9  c #463745",
"0  c #423C41",
"q  c #563B42",
"w  c #444444",
"e  c #46424A",
"r  c #4D454D",
"t  c #4C4C4D",
"y  c #524547",
"u  c #4F4C52",
"i  c #524A52",
"p  c #5B4F5C",
"a  c #57555A",
"s  c #684744",
"d  c #794F40",
"f  c #6E5343",
"g  c #6B5749",
"h  c #735342",
"j  c #75544C",
"k  c #715C4E",
"l  c #654C57",
"z  c #6B525A",
"x  c #775C56",
"c  c #7C6358",
"v  c #5B5B62",
"b  c #5E5A66",
"n  c #635865",
"m  c #6A5E6E",
"M  c #6A5F70",
"N  c #696566",
"B  c #65636D",
"V  c #7D6A69",
"C  c #676373",
"Z  c #6B6474",
"A  c #6B6A75",
"S  c #6D6C7B",
"D  c #746D7C",
"F  c #6E7074",
"G  c #74737D",
"H  c #7A777C",
"J  c #940303",
"K  c #990605",
"L  c #8B1717",
"P  c #9A1617",
"I  c #A60505",
"U  c #B50000",
"Y  c #A71716",
"T  c #8D1E22",
"R  c #972728",
"E  c #9C2C30",
"W  c #983C38",
"Q  c #A82E2D",
"!  c #B1773A",
"~  c #9B3B41",
"^  c #974A4B",
"/  c #815F5E",
"(  c #AC5D53",
")  c #B35555",
"_  c #8E7349",
"`  c #83635E",
"'  c #876C5F",
"]  c #9A5A60",
"[  c #A05D69",
"{  c #856465",
"}  c #886767",
"|  c #866965",
" . c #896B64",
".. c #8D6C6B",
"X. c #966666",
"o. c #906E6D",
"O. c #877269",
"+. c #94716E",
"@. c #98776B",
"#. c #856E72",
"$. c #9A6D77",
"%. c #897677",
"&. c #937272",
"*. c #9B7573",
"=. c #997879",
"-. c #9D7A7A",
";. c #A66469",
":. c #B26A64",
">. c #A46E79",
",. c #A37877",
"<. c #A47B7B",
"1. c #AC7E7E",
"2. c #C57873",
"3. c #D68E2A",
"4. c #9F845B",
"5. c #978675",
"6. c #9F837C",
"7. c #9D8A7A",
"8. c #A3837C",
"9. c #AF807F",
"0. c #A28C7D",
"q. c #AB8D7E",
"w. c #716F80",
"e. c #737383",
"r. c #7C7B83",
"t. c #7D7D8A",
"y. c #857B85",
"u. c #977B85",
"i. c #A77984",
"p. c #878389",
"a. c #84848B",
"s. c #8A8A8E",
"d. c #968989",
"f. c #96908F",
"g. c #878794",
"h. c #8D8D93",
"j. c #949495",
"k. c #979599",
"l. c #A48383",
"z. c #AB8382",
"x. c #A48A83",
"c. c #AC8B83",
"v. c #A7868A",
"b. c #AC8A8A",
"n. c #B58484",
"m. c #B28D85",
"M. c #B48C8B",
"N. c #BA8989",
"B. c #AD9484",
"V. c #A9958A",
"C. c #B39484",
"Z. c #B4938B",
"A. c #BB9289",
"S. c #B59B8B",
"D. c #BB9B8C",
"F. c #A68E94",
"G. c #B88F90",
"H. c #A69696",
"J. c #B59494",
"K. c #BA9595",
"L. c #B69A96",
"P. c #BC9B94",
"I. c #BD9C99",
"U. c #B9A08F",
"Y. c #BAA499",
"T. c #9C9CA2",
"R. c #A49CA2",
"E. c #A4A4A5",
"W. c #A5A5AA",
"Q. c #A7A8AB",
"!. c #ACACAC",
"~. c #B6A5A2",
"^. c #BBB1AC",
"/. c #ADACB2",
"(. c #B1AEB2",
"). c #B2B3B4",
"_. c #B5B4B9",
"`. c #B8B6BD",
"'. c #BABABC",
"]. c #C29587",
"[. c #C59B97",
"{. c #C39B9B",
"}. c #C2A18F",
"|. c #C4A495",
" X c #C7A795",
".X c #CAAB96",
"XX c #C3A39B",
"oX c #C6A999",
"OX c #CCAC9C",
"+X c #D0AF9B",
"@X c #CCB097",
"#X c #CDB29B",
"$X c #D3B39D",
"%X c #D8B79F",
"&X c #D3BB9D",
"*X c #C5A4A4",
"=X c #C8A9A3",
"-X c #D1A6A2",
";X c #CAB5A8",
":X c #D5B4A4",
">X c #D5BBA4",
",X c #DBBBA3",
"<X c #D8BAA8",
"1X c #C4B8B2",
"2X c #DDC3A6",
"3X c #DCC0AA",
"4X c #E2C5A7",
"5X c #E4C4AB",
"6X c #E8C7AD",
"7X c #EBCBAE",
"8X c #EED1AF",
"9X c #EECEB1",
"0X c #F0CFB1",
"qX c #EFD2B0",
"wX c #F6D5B4",
"eX c #F8D7B6",
"rX c #F9D8B6",
"tX c #FCDBB8",
"yX c #BCBCC2",
"uX c #C6C3C3",
"iX c #CBCBCD",
"pX c #CDCED2",
"aX c gray83",
"sX c #D9D8D9",
"dX c #DFE0E0",
"fX c #E8E8E9",
"gX c #F5F5F4",
"hX c #F8F8F8",
"jX c None",
/* pixels */
"jXjXjXjXjXjXjXjXjXjXjXjXjXjXjXjXjXjXjXjXjXjXjXjXjXjXjXjXjXjXjXjXjXjXjXjXjXjXjXjXjXjXjXjXjXjXjXjXjXjXjXjXjXjXjXjXjXjXjXjXjXjXjXjXjXjXjXjXjXjXjXjXjXjXjXjXjXjXjXjX",
"jXjXjXjXjXjXjXjXjXjXjXjXjXjXjXjXjXjXjXjXjXjXjXjXjXjXjXjXjXjXjXjXjXjXjXjXjXjXjXjXjXjXjXjXjXjXjXjXjXjXjXjXjXjXjXjXjXjXjXjXjXjXjXjXjXjXjXjXjXjXjXjXjXjXjXjXjXjXjXjX",
"jXjXjXjXjXjXjXjXjXjXjXjXjXjXjXjXjXjXjXjXjXjXjXjXjXjXjXjXjXv.I.-XjXjXjXjXjXjXjXjXjXjXjXjXjXjXjXjXjXjXjXjXjXjXjXjXjXjXjXjXjXjXjXjXjXjXjXjXjXjXjXjXjXjXjXjXjXjXjXjX",
"jXjXjXjXjXjXjXjXjXjXjXjXjXjXjXjXjXjXjXjXjXjXjXjXjXjXjX*.z.J.K.K.K.{.{.{.-X{.jXjXjXjXjXjXjXjXjXjXjXjXjXjXjXjXjXjXjXjXjXjXjXjXjXjXjXjXjXjXjXjXjXjXjXjXjXjXjXjXjXjX",
"jXjXjXjXjXjXjXjXjXjXjXjXjXjXjXjXjXjXjXjXjXjXjXjXjXjXW i.J.J.K.K.K.K.K.K.K.{.[.{.jXjXjXjXjXjXjXjXjXjXjXjXjXjXjXjXjXjXjXjXjXjXjXjXjXjXjXjXjXjXjXjXjXjXjXjXjXjXjXjX",
"jXjXjXjXjXjXjXjXjXjXjXjXjXjXjXjXjXjXjX{.{.jXjXjXI I U Y P E ;.;.1.J.J.b.i.,.$.i.i.i.$.jXjXjXjXjXjXjXjXjXjXjXjXjXjXjXjXjXjXjXjXjXjXjXjXjXjXjXjXjXjXjXjXjXjXjXjXjX",
"jXjXjXjXjXjXjXjXjXjXjXjXjXjXjXjXjXjXjXjXjX{.-X{.2.:.Y Y P J J J P E E ^ ] [ >.i.i.>.X.jXjXjXjXjXjXjXjXjXjXjXjXjXjXjXjXjXjXjXjXjXjXjXjXjXjXjXjXjXjXjXjXjXjXjXjXjX",
"jXjXjXjXjXjXjXjXjXjXjXjXjXjXjXjXjXjXjXjXjXjXjXjXF.F.G.[.N.) ) ) E J J J J J R ~ X.X.jXjXjXjXjXjXjXjXjXjXjXjXjXjXjXjXjXjXjXjXjXjXjXjXjXjXjXjXjXjXjXjXjXjXjXjXjXjX",
"jXjXjXjXjXjXjXjXjXjXjXjXjXjXjXjXjXjXjXjXjXjXjXa S e.n r.y.p.F.K.N.>.;.~ E R R J P jXjXjXjXjXjXjXjXjXjXjXjXjXjXjXjXjXjXjXjXjXjXjXjXjXjXjXjXjXjXjXjXjXjXjXjXjXjXjX",
"jXjXjXjXjXjXjXjXjXjXjXjXjXjXjXjXjXjXjXjX:X,X.XN r.A A r.e.e.e.V ! 3.3.,.u.$.=.[ ^ jXjXjXjXjXjXjXjXjXjXjXjXjXjXjXjXjXjXjXjXjXjXjXjXjXjXjXjXjXjXjXjXjXjXjXjXjXjXjX",
"jXjXjXjXjXjXjXjXjXjXjXjXjXjXjXjXjXjX$X7XeX+XC.N p.N s.j.s.s.s.r.O._ 4.Y.!.t.j.y.jXjXi.jXi.jXjXjXjXjXjXjXjXjXjXjXjXjXjXjXjXjXjXjXjXjXjXjXjXjXjXjXjXjXjXjXjXjXjXjX",
"jXjXjXjXjXjXjXjXjXjXjXjXjXjXjXjXjX|.,XeXwX$Xx.h.r.r.h.j.j.j.j.E.s.p.'.aXiX'.e.jXjXjXjXjXjXjXjXjXjXjXjXjXjXjXjXjXjXjXjXjXjXjXjXjXjXjXjXjXjXjXjXjXjXjXjXjXjXjXjXjX",
"jXjXjXjXjXjXjXjXjXjXjXjXjXjX,X,X,X$X,X$XP.OXoX~.!.h.e.a.k.E.p.s.k.'.`.h.g.H jXjXjXjXjXjXjXjXjXjXjXjXjXjXjXjXjXjXjXjXjXjXjXjXjXjXjXjXjXjXjXjXjXjXjXjXjXjXjXjXjXjX",
"jXjXjXjXjXjXjXjXjXjX,X5X9X9XeXeXeXeXwX:XL.Z.}.,X>X^.E.f.@.p.%.F ).'.T.y.L. XjXjXjXjXjXjXjXjXjXjXjXjXjXjXjXjXjXjXjXjXjXjXjXjXjXjXjXjXjXjXjXjXjXjXjXjXjXjXjXjXjXjX",
"jXjXjXjXjXjXjXjXjX:X5X6X6X6X6XwXwXeXeX7X>X#X$XwXeX5X;X(.!.H.V z d #.f.XXOX|.jXjXjXjXjXjXjXjXjXjXjXjXjXjXjXjXjXjXjXjXjXjXjXjXjXjXjXjXjXjXjXjXjXjXjXjXjXjXjXjXjXjX",
"jXjXjXjXjXjXjXOX5XwXwXwXwXwXwX6X6X9XwX5X>XOXoX,X6XwXwX3X1Xj.{ K K T ,..XS.D.jXjXjXjXjXjXjXjXjXjXjXjXjXjXjXjXjXjXjXjXjXjXjXjXjXjXjXjXjXjXjXjXjXjXjXjXjXjXjXjXjXjX",
"jXjXjXjXjXjXjX,XeXeXeXeXeXeXeXeXeX9X6X6X5X:XXXXXI.oX>X5X4XY.~.,.L K I 2.:X:XOXB.jXjXjXjXjXjXjXjXjXjXjXjXjXjXjXjXjXjXjXjXjXjXjXjXjXjXjXjXjXjXjXjXjXjXjXjXjXjXjXjX",
"jXjXjXjXjXjX&X7XwXeXeXeXeX7XeXeXeXeX6X5XeXeXwX9X<X>XY.|.oX,X:X^.X.I U Y ].:X:X7.jXjXjXjXjXjXjXjXjXjXjXjXjXjXjXjXjXjXjXjXjXjXjXjXjXjXjXjXjXjXjXjXjXjXjXjXjXjXjXjX",
"jXjXjXjXjXjX X5X7XwXeXeXeX4XeXeXeXeXwX5X6XeXeXeXeXeX7X6XOXL.I.OXV.^ I U Q G.*X7.jXjXjXjXjXjXjXjXjXjXjXjXjXjXjXjXjXjXjXjXjXjXjXjXjXjXjXjXjXjXjXjXjXjXjXjXjXjXjXjX",
"jXjXjXjXjXjXD.4XeXeXeXeX7X4XeXeXeXeXeX6X5XwXeXeXeXeXeXeXwX2XXXK.I.D.( Y I W K.7.B.jXjXjXjXjXjXjXjXjXjXjXjXjXjXjXjXjXjXjXjXjXjXjXjXjXjXjXjXjXjXjXjXjXjXjXjXjXjXjX",
"jXjXjXjXjXjX X7XeXeXeXwX4XwXeXeXeXeXeXwX5X6XeXeXeXeXeXeXeXeXwX6X:XI.Y.q.W J @.oX&X5.jXjXjXjXjXjXjXjXjXjXjXjXjXjXjXjXjXjXjXjXjXjXjXjXjXjXjXjXjXjXjXjXjXjXjXjXjXjX",
"jXjXjXjXjXjX.X8XeXeXwX<X2XeXeXeX0X6XeXrX,X,XwXeXeXeXeXeXeXeXeXeXwX5XOXY.Y.;.C.2X>X7.S.jXjXjXjXjXjXjXjXjXjXjXjXjXjXjXjXjXjXjXjXjXjXjXjXjXjXjXjXjXjXjXjXjXjXjXjXjX",
"jXjXjXjXjXjX.X8XeX7X:X=X2XeXeXeX6X,XeXrX$X.X9XeXeXeXeXeXeX7XrXeXeXeXeX5XXXXXS.B.#X0.OX0.jXjXjXjXjXjXjXjXjXjXjXjXjXjXjXjXjXjXjXjXjXjXjXjXjXjXjXjXjXjXjXjXjXjXjXjX",
"jXjXjXjXjXjX X5X5X;X*X*X9XeXeXwX,X$XeXrX XP.5XwXeXeXeXwX.XD.%XeXeXeXeXeXwXZ.-.V XX0.OXC.jXjXjXjXjXjXjXjXjXjXjXjXjXjXjXjXjXjXjXjXjXjXjXjXjXjXjXjXjXjXjXjXjXjXjXjX",
"jXjXjXjXjXjXA.{.=X*XK.,XeXeXqX2X.X,XeX7Xq.l.=X:X6XwXeXwX@XD.,XeXeXeXeXeXeXOX-.V L.0.OXC.jXjXjXjXjXjXjXjXjXjXjXjXjXjXjXjXjXjXjXjXjXjXjXjXjXjXjXjXjXjXjXjXjXjXjXjX",
"jXjXjXjXjXjXjXJ.=XK.OXwXeX7X&X.XOX5XtX.Xo.l.K.*X=X:X,X5X5X7XwXwXwXwXwXwXwXwX<X#.b.0.:XU.jXjXjXjXjXjXjXjXjXjXjXjXjXjXjXjXjXjXjXjXjXjXjXjXjXjXjXjXjXjXjXjXjXjXjXjX",
"jXjXjXjXjXjXjXb.{.|.7XwX4XD.c.Z.P.:X5XC.{ ..=.b.I.I.*XXXXXXXP.S.1X;XV.V.V.Y.#XV <.7.|.D.7.jXjXjXjXjXjXjXjXjXjXjXjXjXjXjXjXjXjXjXjXjXjXjXjXjXjXjXjXjXjXjXjXjXjXjX",
"jXjXjXjXjXjXjX..Z.5X#Xm.z.z.1.1.D. XU.B.&.&.=.-.*.b.<.8.<.o.b.H.!.^.J.L.b.y.O.` c q.q.c.Z.Z.jXjXjXjXjXjXjXjXjXjXjXjXjXjXjXjXjXjXjXjXjXjXjXjXjXjXjXjXjXjXjXjXjXjX",
"jXjXjXjXjXjXjXx Z.|.8.n.n.z.m.:XwXeXwX0X,XZ.l.J.x v...J.b.&.OX=X).~.J.K.z y.d.z.k c.|.:X:X:XOXD.jXjXjXjXjXjXjXjXjXjXjXjXjXjXjXjXjXjXjXjXjXjXjXjXjXjXjXjXjXjXjXjX",
"jXjXjXjXjXjXjX/ b.<X#Xm.c.|.6XeXeXeXeXeXeX0XOXl.x d...J.b.*.:XF.T.k.y.y.H G -.9.k |.:X:X:X:X:X:XoXB.jXjXjXjXjXjXjXjXjXjXjXjXjXjXjXjXjXjXjXjXjXjXjXjXjXjXjXjXjXjX",
"jXjXjXjXjXjXjX/ b.>XwXwX9XeXeXeXeXeXeXeXeXeXeX6XD.8.o.<.l.&.OXl.%.d.d.d.d.d.O. .k C.+X:X:X:X:X:X:X:XU.0.jXjXjXjXjXjXjXjXjXjXjXjXjXjXjXjXjXjXjXjXjXjXjXjXjXjXjXjX",
"jXjXjXjXjXjXjXjXjXb.:XwXrXeXeXeXeXeXeXeXeXeXeX5X,X6X$X}.C.8.c.&.-..X&X&X&X&X&X . .c [.:X:X:X:X:X:XoXU.oX7.B.S.jXjXjXjXjXjXjXjXjXjXjXjXjXjXjXjXjXjXjXjXjXjXjXjXjX",
"jXjXjXjXjXjXjXjXjXq.8.D.,X9XeXeXeXeXeXeXeXeX4X$X4X%X5XeXeX6X,X<XS.x.|.#X$X$X$XD...{ ` |.:X:X>XoXS.S.|.U.|.:X:XOX|.=Xf.jXjXjXjXjXjXjXjXjXjXjXjXjXjXjXjXjXjXjXjXjX",
"jXjXjXjXjXjXjXjXjX|.|.c.8.c.D.>X6XeXrXeX6X,X$X$X,XwXeXeX6X<XuXaXuXk.s.x.Z.Z.Z.Z.,...c ..A.OXC.@.S.|.B.OX:X:X:X=X1X'.W.h.jXjXjXjXjXjXjXjXjXjXjXjXjXjXjXjXjXjXjXjX",
"jXjXjXjXjXjXjXjXjX|.OXD.J.b.b.8.z.D.+X7X.X%X.X$XeXeXwX$XY./.pXgXgXfXaX`.H.F.J.K.M.}  .x n.n.'  .' B.:X:X:X:XY.W.).pXaXaX`.k.jXjXjXjXjXjXjXjXjXjXjXjXjXjXjXjXjXjX",
"jXjXjXjXjXjXjXjXjXZ.Z.J.K.K.K.K.J.b.l.8.8.Z.c.D.5XwXwXj.g.fXgXhXhXhXhXhXfX_.~.K.M.&...| k x g c k *.[.OX:XoXj.g.aXaXaXaXsXiX/.jXjXjXjXjXjXjXjXjXjXjXjXjXjXjXjXjX",
"jXjXjXjXjXjXjXjXjX&.b.K.K.K.K.K.K.K.K.J.K.b.l.l.l.c.|.r.e.aXdXfXgXhXhXhXhXhXpXaXR.d.} | 7 jXjXjXjXc *.N.|.S.s.t.uXaXaXaXaXsXsXiXuXT.jXjXjXjXjXjXjXjXjXjXjXjXjXjX",
"jXjXjXjXjXjXjXjXjX<.M.K.K.K.K.K.K.K.K.K.K.K.K.K.J.J.l.} =.d./.sXfXsXaXgXiXsXpX_.aX`.%.| g jXjXjXjXjXjX`  . .jXA ).iXaXsXiX/.W.Q.).'.'.E.jXjXjXjXjXjXjXjXjXjXjXjX",
"jXjXjXjXjXjXjXjX&.z.J.K.K.K.J.J.K.J.K.K.K.J.K.K.K.K.J...D.J.v.H.iXiXk./.aXyXyXpXW./.(.#.` jXjXjXjXjXjXjXjXjXjXjXt.T.'.aXW.S v a N N j._.k.jXjXjXjXjXjXjXjXjXjXjX",
"jXjXjXjXjXjXjXjX&.b.K.K.K.K.J.J.J.K.K.K.J.K.K.J.K.K.M.o.|.K.J.+.N _./.e.s.'._.a./.G Q.D { jXjXjXjXjXjXjXjXjXjXjXjXjXj.).Q.a.jXjXjXjXA a.W.h.jXjXjXjXjXjXjXjXjXjX",
"jXjXjXjXjXjXjXjX&.b.K.K.K.K.J.J.J.J.K.K.K.J.K.K.K.K.J.+.=XJ.J.,.&.k.!.h.i.d.!.G Q.t.R.#.{ jXjXjXjXjXjXjXjXjXjXjXjXjXjXj.W.t.jXjXjXjXjXA s.s.jXjXjXjXjXjXjXjXjXjX",
"jXjXjXjXjXjXjXjX&.b.K.K.K.K.J.J.K.K.K.K.K.J.K.K.K.K.J.+.OXZ.J.<.l.f.T.g.i.H T.S s.u.#.o.{ jXjXjXjXjXjXjXjXjXjXjXjXjXjXjXG N jXjXjXjXjXjXjXjXjXjXjXjXjXjXjXjXjXjX",
"jXjXjXjXjXjXjXjX&.b.K.K.K.K.K.J.K.J.J.K.J.J.J.J.K.K.b...#X|.K.8.=.M.l.u.z.z.u.%.i.1.} ..{ jXjXjXjXjXjXjXjXjXjXjXjXjXjXjXjXjXjXjXjXjXjXjXjXjXjXjXjXjXjXjXjXjXjXjX",
"jXjXjXjXjXjXjXjX&.b.K.J.K.K.J.J.K.J.J.K.J.J.J.J.K.K.J.&.c.Z.c.*.&.M.M.n.n.n.n.M.n.1.} ..{ jXjXjXjXjXjXjXjXjXjXjXjXjXjXjXjXjXjXjXjXjXjXjXjXjXjXjXjXjXjXjXjXjXjXjX",
"jXjXjXjXjXjXjXjX&.b.K.J.J.J.K.K.J.J.J.J.K.K.J.K.J.J.J.M.,.........l.M.n.n.n.n.J.n.1. .o.{ jXjXjXjXjXjXjXjXjXjXjXjXjXjXjXjXjXjXjXjXjXjXjXjXjXjXjXjXjXjXjXjXjXjXjX",
"jXjXjXjXjXjXjXjX&.b.K.K.J.K.K.K.K.J.J.J.K.K.K.K.K.K.J.J.M.l.l.l.l.b.M.n.n.n.n.J.n.1.} *.*.{ jXjXjXjXjXjXjXjXjXjXjXjXjXjXjXjXjXjXjXjXjXjXjXjXjXjXjXjXjXjXjXjXjXjX",
"jXjXjXjXjXjXjXjX&.b.K.J.J.J.K.K.K.K.J.J.K.K.K.K.K.K.K.K.K.K.K.K.K.K.M.n.n.n.n.J.n.1.} -.1.&.jXjXjXjXjXjXjXjXjXjXjXjXjXjXjXjXjXjXjXjXjXjXjXjXjXjXjXjXjXjXjXjXjXjX",
"jXjXjXjXjXjXjXjX&.b.K.J.J.J.K.K.K.K.J.J.J.K.K.K.K.K.K.K.K.K.J.J.K.K.M.n.n.n.n.J.n.1.} -.n.*.jXjXjXjXjXjXjXjXjXjXjXjXjXjXjXjXjXjXjXjXjXjXjXjXjXjXjXjXjXjXjXjXjXjX",
"jXjXjXjXjXjXjXjX&.b.J.M.J.K.K.K.K.K.K.K.K.K.K.K.K.K.K.K.K.K.K.J.K.K.M.n.n.n.n.J.n.1.} -.n.<...jXjXjXjXjXjXjXjXjXjXjXjXjXjXjXjXjXjXjXjXjXjXjXjXjXjXjXjXjXjXjXjXjX",
"jXjXjXjXjXjXjXjX&.z.M.J.K.K.K.K.K.K.K.K.J.J.K.J.K.K.K.K.K.K.K.J.K.K.M.n.n.n.n.J.n.1.} -.n.<.&.jXjXjXjXjXjXjXjXjXjXjXjXjXjXjXjXjXjXjXjXjXjXjXjXjXjXjXjXjXjXjXjXjX",
"jXjXjXjXjXjXjXjX&.z.J.K.J.K.K.K.K.K.J.J.J.J.J.J.J.J.K.K.K.K.K.K.K.K.M.n.n.n.n.J.n.1.{ -.n.<.&.jXjXjXjXjXjXjXjXjXjXjXjXjXjXjXjXjXjXjXjXjXjXjXjXjXjXjXjXjXjXjXjXjX",
"jXjXjXjXjXjXjXjX&.b.K.K.J.K.K.K.K.K.J.J.J.J.J.J.J.J.J.K.K.K.K.K.K.K.K.M.n.n.n.J.n.1.} &.<.n.,.jXjXjXjXjXjXjXjXjXjXjXjXjXjXjXjXjXjXjXjXjXjXjXjXjXjXjXjXjXjXjXjXjX",
"jXjXjXjXjXjXjXjX8.Z.K.K.J.J.J.J.J.J.J.J.K.J.J.J.J.J.K.K.K.K.J.J.K.K.K.M.n.n.J.J.n.1.} &.-.n.<.jXjXjXjXjXjXjXjXjXjXjXjXjXjXjXjXjXjXjXjXjXjXjXjXjXjXjXjXjXjXjXjXjX",
"jXjXjXjXjXjXjX5.0.J.K.K.J.J.J.J.J.J.J.J.K.J.J.J.J.J.K.K.K.K.J.J.K.K.K.J.M.n.J.M.n.1.} &.,.n.<.jXjXjXjXjXjXjXjXjXjXjXjXjXjXjXjXjXjXjXjXjXjXjXjXjXjXjXjXjXjXjXjXjX",
"jXjXjXjXjXjXjX7.S.P.J.K.K.K.J.K.K.K.K.K.K.K.J.J.J.K.K.K.K.J.J.J.J.J.J.J.M.n.J.n.n.1.} &.-.n.<.jXjXjXjXjXjXjXjXjXjXjXjXjXjXjXjXjXjXjXjXjXjXjXjXjXjXjXjXjXjXjXjXjX",
"jXjXjXjXjXjXjXC.D.L.J.K.K.K.K.K.K.K.K.K.K.K.J.J.J.J.K.K.J.J.J.J.K.J.J.J.M.n.J.n.n.1.} &.&.1.<.jXjXjXjXjXjXjXjXjXjXjXjXjXjXjXjXjXjXjXjXjXjXjXjXjXjXjXjXjXjXjXjXjX",
"jXjXjXjXjXjXjXq.}.L.K.K.K.K.K.K.J.J.J.J.J.K.K.J.K.K.K.K.J.J.K.K.K.K.J.J.M.n.J.n.n.1.{ &.&.,.<.jXjXjXjXjXjXjXjXjXjXjXjXjXjXjXjXjXjXjXjXjXjXjXjXjXjXjXjXjXjXjXjXjX",
"jXjXjXjXjXjXjXB.|.K.K.K.K.K.K.K.J.J.J.J.K.K.K.K.K.K.K.K.J.K.K.K.K.K.J.K.J.n.M.n.n.z.....&.,.<.jXjXjXjXjXjXjXjXjXjXjXjXjXjXjXjXjXjXjXjXjXjXjXjXjXjXjXjXjXjXjXjXjX",
"jXjXjXjXjXjXjXB.L.J.J.K.J.J.K.J.J.J.K.K.K.K.K.K.K.K.J.J.J.J.K.K.K.K.K.K.K.n.n.n.n.n.<.} &.,.n.,.jXjXjXjXjXjXjXjXjXjXjXjXjXjXjXjXjXjXjXjXjXjXjXjXjXjXjXjXjXjXjXjX",
"jXjXjXjXjXjX0.J.K.K.K.K.J.J.J.J.J.K.K.K.K.K.K.K.K.K.J.J.J.J.K.K.K.K.K.K.K.n.n.n.n.n.1.} &.,.n.,.jXjXjXjXjXjXjXjXjXjXjXjXjXjXjXjXjXjXjXjXjXjXjXjXjXjXjXjXjXjXjXjX",
"jXjXjXjXjXjXx.K.J.J.J.J.J.J.J.K.K.K.K.K.K.K.K.K.K.J.J.J.J.K.K.K.K.K.K.K.K.n.n.n.n.n.1.} &.,.n.,.jXjXjXjXjXjXjXjXjXjXjXjXjXjXjXjXjXjXjXjXjXjXjXjXjXjXjXjXjXjXjXjX",
"jXjXjXjXjX8.M.K.J.J.J.J.J.J.K.K.K.K.K.K.K.K.K.K.K.J.J.J.J.J.K.K.K.K.K.K.K.M.n.n.n.n.n.*...,.n.,.jXjXjXjXjXjXjXjXjXjXjXjXjXjXjXjXjXjXjXjXjXjXjXjXjXjXjXjXjXjXjXjX",
"jXjXjXjXjX0.J.K.J.J.K.J.K.K.K.K.J.K.J.J.J.J.K.K.K.J.J.J.J.J.J.J.K.K.K.K.J.n.n.n.n.n.n.<.} ,.n.,.jXjXjXjXjXjXjXjXjXjXjXjXjXjXjXjXjXjXjXjXjXjXjXjXjXjXjXjXjXjXjXjX",
"jXjXjXjXjX-.K.K.K.K.K.K.K.K.K.K.J.J.J.J.J.J.K.K.K.J.J.J.J.J.J.J.K.K.K.J.n.n.n.n.n.n.n.<...,.*...jXjXjXjXjXjXjXjXjXjXjXjXjXjXjXjXjXjXjXjXjXjXjXjXjXjXjXjXjXjXjXjX",
"jXjXjXjXjXo.<.M.K.K.K.K.K.K.K.K.K.K.K.K.K.K.K.K.K.K.K.K.K.K.K.K.K.J.M.n.n.n.n.n.n.n.n.<.}  .x jXjXjXjXjXjXjXjXjXjXjXjXjXjXjXjXjXjXjXjXjXjXjXjXjXjXjXjXjXjXjXjXjX",
"jXjXjXjXjXjXjX*.l.Z.J.I.|.I.I.L.K.K.K.K.K.K.K.K.K.K.K.J.J.K.K.K.J.M.n.n.n.n.n.n.n.n.n.,.k jXjXjXjXjXjXjXjXjXjXjXjXjXjXjXjXjXjXjXjXjXjXjXjXjXjXjXjXjXjXjXjXjXjXjX",
"jXjXjXjXjXjXjXjXjX&.-.8.8.q.q.q.0.0.6.6.6.8.<.,.+.+. .=...x ` ` / x j j j j j s j j j s jXjXjXjXjXjXjXjXjXjXjXjXjXjXjXjXjXjXjXjXjXjXjXjXjXjXjXjXjXjXjXjXjXjXjXjX",
"jXjXjXjXjXjXjXjXjXjXjXq s 6 f f f f f f 6 - 5 h h 6 ; jXjX. ; ; : > 3 3 3 > % - 1 3 -   jXjXjXjXjXjXjXjXjXjXjXjXjXjXjXjXjXjXjXjXjXjXjXjXjXjXjXjXjXjXjXjXjXjXjXjX",
"jXjXjXjXjXjXjXjXjXjXjX9 C z 6 h h h h h 2 % 5 h h 4 jXjXjX. ; > 3 3 3 1 - % > 3 2 : = jXjXjXjXjXjXjXjXjXjXjXjXjXjXjXjXjXjXjXjXjXjXjXjXjXjXjXjXjXjXjXjXjXjXjXjXjX",
"jXjXjXjXjXjXjXjXjXjXjXv e.e.m s 6 h h h & - h h h 2 jXjXjX. 3 3 3 3 2 & - 2 > < : ; jXjXjXjXjXjXjXjXjXjXjXjXjXjXjXjXjXjXjXjXjXjXjXjXjXjXjXjXjXjXjXjXjXjXjXjXjXjX",
"jXjXjXjXjXjXjXjXjXjXr S e.e.e.S z s s 6 % - h h 6 ; jXjXjXo > 2 3 3 > > > < < < > ; jXjXjXjXjXjXjXjXjXjXjXjXjXjXjXjXjXjXjXjXjXjXjXjXjXjXjXjXjXjXjXjXjXjXjXjXjXjX",
"jXjXjXjXjXjXjXjXjXjXi S e.e.e.e.w.C m q * 4 6 h 4 jXjXjX. r y < > > < y i q , - = = jXjXjXjXjXjXjXjXjXjXjXjXjXjXjXjXjXjXjXjXjXjXjXjXjXjXjXjXjXjXjXjXjXjXjXjXjXjX",
"jXjXjXjXjXjXjXjXjXjXi S e.e.e.e.S C Z 9 9 n l s ; jXjXjX. r r r r 0 @ # # = + # # 0 u jXjXjXjXjXjXjXjXjXjXjXjXjXjXjXjXjXjXjXjXjXjXjXjXjXjXjXjXjXjXjXjXjXjXjXjXjX",
"jXjXjXjXjXjXjXjXjXjXi S e.e.e.S Z C Z 9 9 n n l o jXjXjX  @ @ @ @ # 0 $ $ $ w t a B H r.r.r.A a a jXjXjXjXjXjXjXjXjXjXjXjXjXjXjXjXjXjXjXjXjXjXjXjXjXjXjXjXjXjXjX",
"jXjXjXjXjXjXjXjXjXjXi A w.Z C m m M M n 9 9 p p . jXjXjX  @ @ @ @ @ 0 w 0 0 $ $ $ $ e a B G r.G B v a u t w jXjXjXjXjXjXjXjXjXjXjXjXjXjXjXjXjXjXjXjXjXjXjXjXjXjX",
"jXjXjXjXjXjXjXjXjXjXi n m Z Z Z S Z C M i 8 9 # . jXjXjXjXX X X X X .   jXjX        O O @ $ w t t t t a t t # jXjXjXjXjXjXjXjXjXjXjXjXjXjXjXjXjXjXjXjXjXjXjXjXjX",
"jXjXjXjXjXjXjXjXjXjXi C A S C n C B C C b a t e w w jXjXjXjXjXjXjXjXjXjXjXjXjXjXjXjXjXjXjXjXjXjXjXjXjXjXjXjXjXjXjXjXjXjXjXjXjXjXjXjXjXjXjXjXjXjXjXjXjXjXjXjXjXjX",
"jXjXjXjXjXjXjXjXjXjXjXt a u w w a S s.a.r.G S A C v t jXjXjXjXjXjXjXjXjXjXjXjXjXjXjXjXjXjXjXjXjXjXjXjXjXjXjXjXjXjXjXjXjXjXjXjXjXjXjXjXjXjXjXjXjXjXjXjXjXjXjXjXjX",
"jXjXjXjXjXjXjXjXjXjXjX$ v v t w w t B r.s.j.h.h.a.r.B v t w jXjXjXjXjXjXjXjXjXjXjXjXjXjXjXjXjXjXjXjXjXjXjXjXjXjXjXjXjXjXjXjXjXjXjXjXjXjXjXjXjXjXjXjXjXjXjXjXjXjX",
"jXjXjXjXjXjXjXjXjXjXjXjX@ # # @ X X O O # # # # # # # # # jXjXjXjXjXjXjXjXjXjXjXjXjXjXjXjXjXjXjXjXjXjXjXjXjXjXjXjXjXjXjXjXjXjXjXjXjXjXjXjXjXjXjXjXjXjXjXjXjXjXjX"
};
