/* XPM */
static char *result[] = {
/* columns rows colors chars-per-pixel */
"80 80 225 2 ",
"   c #1E0D20",
".  c #200F20",
"X  c #241323",
"o  c #291522",
"O  c #2D1821",
"+  c #2A1C2A",
"@  c #3A1E26",
"#  c #2D222D",
"$  c #3C2221",
"%  c #39242D",
"&  c #312631",
"*  c #332A33",
"=  c #3B2A33",
"-  c #372F39",
";  c #3B333C",
":  c #51301F",
">  c #412423",
",  c #45222A",
"<  c #4B2728",
"1  c #542B2B",
"2  c #5A2D2F",
"3  c #533223",
"4  c #5C312B",
"5  c #5E2E30",
"6  c #563838",
"7  c #712727",
"8  c #61312F",
"9  c #603B2F",
"0  c #633131",
"q  c #633E31",
"w  c #66453A",
"e  c #6B453E",
"r  c #714D3F",
"t  c #75563B",
"y  c #3F3744",
"u  c #423242",
"i  c #403C41",
"p  c #483B4A",
"a  c #5A3C43",
"s  c #444344",
"d  c #4C454D",
"f  c #49484B",
"g  c #524A49",
"h  c #4C4750",
"j  c #4F4E52",
"k  c #554B57",
"l  c #4F5053",
"z  c #525254",
"x  c #555559",
"c  c #5A5559",
"v  c #5B535D",
"b  c #5A595D",
"n  c #6A4744",
"m  c #794848",
"M  c #655344",
"N  c #685547",
"B  c #6A5649",
"V  c #6D594C",
"C  c #735242",
"Z  c #705A4E",
"A  c #644B56",
"S  c #665857",
"D  c #775757",
"F  c #735C52",
"G  c #7D5D54",
"H  c #696156",
"J  c #796055",
"K  c #7D635B",
"L  c #5F5966",
"P  c #5D5D64",
"I  c #645865",
"U  c #695E6E",
"Y  c #5F6068",
"T  c #646465",
"R  c #6A6267",
"E  c #63636A",
"W  c #6A6A6A",
"Q  c #79676A",
"!  c #656472",
"~  c #6B6373",
"^  c #6A6876",
"/  c #6B6C75",
"(  c #6D6C7B",
")  c #776C77",
"_  c #737375",
"`  c #74747C",
"'  c #7A747E",
"]  c #7B7A7C",
"[  c #940A0B",
"{  c #971516",
"}  c #A80505",
"|  c #A31614",
" . c #971C21",
".. c #99272A",
"X. c #922F31",
"o. c #A26D2B",
"O. c #A13F40",
"+. c #8F4647",
"@. c #825353",
"#. c #895A5B",
"$. c #9C5B58",
"%. c #A2474C",
"&. c #826253",
"*. c #81645F",
"=. c #A97044",
"-. c #A55E65",
";. c #856464",
":. c #8A6565",
">. c #856A64",
",. c #83686A",
"<. c #8C6B6B",
"1. c #966567",
"2. c #916E6E",
"3. c #8A7267",
"4. c #93726F",
"5. c #886C73",
"6. c #986F75",
"7. c #887879",
"8. c #947373",
"9. c #9A7473",
"0. c #997A76",
"q. c #9C7A7A",
"w. c #A76D6D",
"e. c #A57377",
"r. c #A27B76",
"t. c #A47C7B",
"y. c #A97E7D",
"u. c #AA8356",
"i. c #9C867B",
"p. c #A2837C",
"a. c #A78B7E",
"s. c #AB917F",
"d. c #6F6F80",
"f. c #737383",
"g. c #7C7B85",
"h. c #7D7C89",
"j. c #827D86",
"k. c #947D83",
"l. c #A67984",
"z. c #828283",
"x. c #8E8783",
"c. c #84838B",
"v. c #8C8B8D",
"b. c #968689",
"n. c #8C8C93",
"m. c #8A8A95",
"M. c #978D94",
"N. c gray58",
"B. c #94949B",
"V. c #99959B",
"C. c #A58282",
"Z. c #AB8383",
"A. c #A88787",
"S. c #AC8B8A",
"D. c #B58484",
"F. c #B78888",
"G. c #B48C8C",
"H. c #A99288",
"J. c #B49788",
"K. c #B4948C",
"L. c #B8978C",
"P. c #BA9B8B",
"I. c #A98E91",
"U. c #B28D91",
"Y. c #A79797",
"T. c #B59494",
"R. c #BA9594",
"E. c #BB9A95",
"W. c #BC9B9A",
"Q. c #BAA68E",
"!. c #A9A097",
"~. c #BBA496",
"^. c #9D9DA2",
"/. c #A39DA4",
"(. c #A5A4A7",
"). c #ABAAAD",
"_. c #B3ACAE",
"`. c #ADADB4",
"'. c #B4B3B6",
"]. c #B5B5B9",
"[. c #BBBBBD",
"{. c #C0968F",
"}. c #C19C93",
"|. c #C29D9C",
" X c #C1A18D",
".X c #C3A394",
"XX c #C7A798",
"oX c #CCAB9B",
"OX c #CCB399",
"+X c #CCB39A",
"@X c #D2B39C",
"#X c #D5BA9E",
"$X c #C5A4A4",
"%X c #C8A7A4",
"&X c #C5A8A0",
"*X c #CBABA4",
"=X c #D0AFA2",
"-X c #CFB1A3",
";X c #D7B6A3",
":X c #D3B4A4",
">X c #DABBA5",
",X c #DCBCA9",
"<X c #E0BFA9",
"1X c #DDC3A5",
"2X c #DEC3AC",
"3X c #D2C4B7",
"4X c #E3C7A9",
"5X c #E4C4AB",
"6X c #E5C9AA",
"7X c #EBCDAE",
"8X c #E8C7B0",
"9X c #EECDB0",
"0X c #F0CFB2",
"qX c #EFD0B0",
"wX c #F5D5B4",
"eX c #F8D7B5",
"rX c #F9D8B6",
"tX c #BFC0C3",
"yX c #C8C8C9",
"uX c gray84",
"iX c #DADADA",
"pX c #F0D9C1",
"aX c gray90",
"sX c gray91",
"dX c None",
/* pixels */
"dXdXdXdXdXdXdXdXdXdXdXdXdXdXdXdXdXdXdXdXdXdXdXdXdXdXdXdXdXdXdXdXdXdXdXdXdXdXdXdXdXdXdXdXdXdXdXdXdXdXdXdXdXdXdXdXdXdXdXdXdXdXdXdXdXdXdXdXdXdXdXdXdXdXdXdXdXdXdXdX",
"dXdXdXdXdXdXdXdXdXdXdXdXdXdXdXdXdXdXdXdXdXdXdXdXdXdXdXdXdXdXdXdXdXdXdX9.G.U.T.U.U.T.Z.A.dXdXdXdXdXdXdXdXdXdXdXdXdXdXdXdXdXdXdXdXdXdXdXdXdXdXdXdXdXdXdXdXdXdXdXdX",
"dXdXdXdXdXdXdXdXdXdXdXdXdXdXdXdXdXdXdXdXdXdXdXdXdXdXdXdXdXdXdXdXdXdX$.e.G.T.T.T.T.T.T.T.T.U.l.1.dXdXdXdXdXdXdXdXdXdXdXdXdXdXdXdXdXdXdXdXdXdXdXdXdXdXdXdXdXdXdXdX",
"dXdXdXdXdXdXdXdXdXdXdXdXdXdXdXdXdXdXdXdXdXdXdXdXdXdXdXdXZ.Z.S.T.6.X.{ { ..O.e.l.F.T.T.T.U.A.l.l.6.1.1.dXdXdXdXdXdXdXdXdXdXdXdXdXdXdXdXdXdXdXdXdXdXdXdXdXdXdXdXdX",
"dXdXdXdXdXdXdXdXdXdXdXdXdXdXdXdXdXdXdXdXdXdXdXdXdXdXdXdX@.@.@.:.5.9.e.e.%...{ { { %.-.l.l.l.l.e.1.1.dXdXdXdXdXdXdXdXdXdXdXdXdXdXdXdXdXdXdXdXdXdXdXdXdXdXdXdXdXdX",
"dXdXdXdXdXdXdXdXdXdXdXdXdXdXdXdXdXdXdXdXdXdXdXdXdXdXdXdXdXdXdXg l g c I 5.k.w.-... .{ { ..%.$.1.@.dXdXdXdXdXdXdXdXdXdXdXdXdXdXdXdXdXdXdXdXdXdXdXdXdXdXdXdXdXdXdX",
"dXdXdXdXdXdXdXdXdXdXdXdXdXdXdXdXdXdXdXdXdXdXdXdXdXdXdXdXdXdXdXl x z b x x z S Q &.=.e.%.X.{ ..7 dXdXdXdXdXdXdXdXdXdXdXdXdXdXdXdXdXdXdXdXdXdXdXdXdXdXdXdXdXdXdXdX",
"dXdXdXdXdXdXdXdXdXdXdXdXdXdXdXdXdXdXdXdXdXdXdXdXdXdXdX XOXP.R L z E f.f.( E E b t o.u.o.Q 5.<.+.+.dXdXdXdXdXdXdXdXdXdXdXdXdXdXdXdXdXdXdXdXdXdXdXdXdXdXdXdXdXdXdX",
"dXdXdXdXdXdXdXdXdXdXdXdXdXdXdXdXdXdXdXdXdXdXdXdXdXdX@X7X4XQ.f j x f.f.f.f.f.f.P ^ H H.x.` V.] D m @.@.dXdXdXdXdXdXdXdXdXdXdXdXdXdXdXdXdXdXdXdXdXdXdXdXdXdXdXdXdX",
"dXdXdXdXdXdXdXdXdXdXdXdXdXdXdXdXdXdXdXdXdXdXdXdXdXJ.7X1X1X+X7.x z E f.f.f.f.g.] ] ^.'.(.B.n.( dXdXdXdXdXdXdXdXdXdXdXdXdXdXdXdXdXdXdXdXdXdXdXdXdXdXdXdXdXdXdXdXdX",
"dXdXdXdXdXdXdXdXdXdXdXdXdXdXdXdXdXdXdXdXdXdX>X4X4X@XXXH.H.Q.+Xb.' b x ! E g.' ] n.c.] T S ,.,.dXdXdXdXdXdXdXdXdXdXdXdXdXdXdXdXdXdXdXdXdXdXdXdXdXdXdXdXdXdXdXdXdX",
"dXdXdXdXdXdXdXdXdXdXdXdXdXdXdXdXdXdX@X5X6XqXwXwXwXwXoX:XT.H.@X@XH.N.` V S I j W W ] 7.<.t.9.2.dXdXdXdXdXdXdXdXdXdXdXdXdXdXdXdXdXdXdXdXdXdXdXdXdXdXdXdXdXdXdXdXdX",
"dXdXdXdXdXdXdXdXdXdXdXdXdXdXdXdX5X5X5X8X5X7X9XwXeXeXwX7X@X,X#X4X+X!.).!.n.3.g 2 z Q Z.t.8.<.dXdXdXdXdXdXdXdXdXdXdXdXdXdXdXdXdXdXdXdXdXdXdXdXdXdXdXdXdXdXdXdXdXdX",
"dXdXdXdXdXdXdXdXdXdXdXdXdXdX5X0XwXwXwXwXwXwX9X8X9XwX9X,XoXoX,X7XwX4X~._.).c.7 } ..' D.F.D.y.8.;.dXdXdXdXdXdXdXdXdXdXdXdXdXdXdXdXdXdXdXdXdXdXdXdXdXdXdXdXdXdXdXdX",
"dXdXdXdXdXdXdXdXdXdXdXdXdX>XwXwXwXwXwXwXwXeXwXwX<X1X1X@XXXE.R.E.XX@X>X+Xi.x.:.} } X.7.D.F.F.9.dXdXdXdXdXdXdXdXdXdXdXdXdXdXdXdXdXdXdXdXdXdXdXdXdXdXdXdXdXdXdXdXdX",
"dXdXdXdXdXdXdXdXdXdXdXdXdX>XwXwXwXwXeX5X5XeXwXwXwX,XwX7X6X1X:XXXW.T.E.XX+XQ.Y.| } } @.9.F.D.2.dXdXdXdXdXdXdXdXdXdXdXdXdXdXdXdXdXdXdXdXdXdXdXdXdXdXdXdXdXdXdXdXdX",
"dXdXdXdXdXdXdXdXdXdXdXdXdXoXqXwXwXeXwX,X,XrXwXwXwX0X;XwXwXwXwX4X1X;XoXXXE.W..Xr...[ [ :.F.r.8.8.dXdXdXdXdXdXdXdXdXdXdXdXdXdXdXdXdXdXdXdXdXdXdXdXdXdXdXdXdXdXdXdX",
"dXdXdXdXdXdXdXdXdXdXdXdXdXF.4XwXwXeX7X*X<XrXwXwXwXwXP.,XwXwXeXwXwX7X4X1X:XW.T.W.J.$. .G F.9.9.t.dXdXdXdXdXdXdXdXdXdXdXdXdXdXdXdXdXdXdXdXdXdXdXdXdXdXdXdXdXdXdXdX",
"dXdXdXdXdXdXdXdXdXdXdXdXdXF.:XwXeXwX,X$X5XeXwXeXwXwXL.%X5XwXeXwXwXwXwX6X1X1XoXE.T.E.i.3.y.9.2.t.8.dXdXdXdXdXdXdXdXdXdXdXdXdXdXdXdXdXdXdXdXdXdXdXdXdXdXdXdXdXdXdX",
"dXdXdXdXdXdXdXdXdXdXdXdXdXF.*XwXwX5X|.XX9XeXwX9XwXwX9.$X%X;X9XwXwXwXeXwXqX4X1X;XXXT.T.U.i.2.<.t.2.dXdXdXdXdXdXdXdXdXdXdXdXdXdXdXdXdXdXdXdXdXdXdXdXdXdXdXdXdXdXdX",
"dXdXdXdXdXdXdXdXdXdXdXdXdXF.*XwX5X*XR.;XrXwXeX>X9XwX4.$X%X%X*X,X4X9XwXwXqXwX6X1X1X-XW.T.T.q.*.<.<.dXdXdXdXdXdXdXdXdXdXdXdXdXdXdXdXdXdXdXdXdXdXdXdXdXdXdXdXdXdXdX",
"dXdXdXdXdXdXdXdXdXdXdXdXdXt.%X,X%XR.XXwXeXeXwX@X7XwXH.W.%X%X%X%X%X*X,X#XP.+XqX7X1X1X>XoXE.Z.J K <.dXdXdXdXdXdXdXdXdXdXdXdXdXdXdXdXdXdXdXdXdXdXdXdXdXdXdXdXdXdXdX",
"dXdXdXdXdXdXdXdXdXdXdXdXdX0.$X%X|.}.6XeXeX9X>XoX7XwX,XE.$X%X%X%X%X%X%XG.Z.S.*X:X:X:X:X:X*XA.V K <.dXdXdXdXdXdXdXdXdXdXdXdXdXdXdXdXdXdXdXdXdXdXdXdXdXdXdXdXdXdXdX",
"dXdXdXdXdXdXdXdXdXdXdXdXdX0.$X|.{.1X7XeXwX,XoX:XwXrXwXS.T.$X%X%X%X%X%X%XW.%X%X%X%X$X%X%X%X$X3.K J M dXdXdXdXdXdXdXdXdXdXdXdXdXdXdXdXdXdXdXdXdXdXdXdXdXdXdXdXdXdX",
"dXdXdXdXdXdXdXdXdXdXdXdXdX0.|.G.&X1X@XoXXXE.E.E.@X#X@X9.q.S.R.W.$X$X%X$X$XW.T.T.I.M.M././.V.Q M ;.J dXdXdXdXdXdXdXdXdXdXdXdXdXdXdXdXdXdXdXdXdXdXdXdXdXdXdXdXdXdX",
"dXdXdXdXdXdXdXdXdXdXdXdXdX<.|.|.%X.XD.y.t.9.0.L..XoXXXP.0.<.9.C.G.C.C.q.q.<.p.8.h.[.g.H.A.b.7.Z J <.K N dXdXdXdXdXdXdXdXdXdXdXdXdXdXdXdXdXdXdXdXdXdXdXdXdXdXdXdX",
"dXdXdXdXdXdXdXdXdXdXdXdXdX:.T.%X|.D.D.y.Z.@X7XwXwXrXeXwX;XJ.0.9.l.0.T.T.T.<.L.0.h.].j.E.S.x.7.V F Z V J K G ;.dXdXdXdXdXdXdXdXdXdXdXdXdXdXdXdXdXdXdXdXdXdXdXdXdX",
"dXdXdXdXdXdXdXdXdXdXdXdXdX:.t.$X$XR.G.K.,XwXeXwXeXwXwXeXeX9XoXH.0.0.T.T.C.q.L.0.h.(.f.b.b.' ) F J r.y.8.<.8.2.<.<.dXdXdXdXdXdXdXdXdXdXdXdXdXdXdXdXdXdXdXdXdXdXdX",
"dXdXdXdXdXdXdXdXdXdXdXdXdXdX:.Z.$X%X%X%X*X:X,X7XwXwXeXwX7X+X+X;Xp.0.S.Z.9.L.T.8.j.N.z.x.v.7.>.B >.q.t.8.2.8.8.8.<.;.<.;.dXdXdXdXdXdXdXdXdXdXdXdXdXdXdXdXdXdXdXdX",
"dXdXdXdXdXdXdXdXdXdXdXdXdXdXdXdXt.T.W.%X%X%X%X*X-X,X4X4XQ.@XwX>XOX#XXXa.K.K.t.A.P.~..X~.P.p.<.F *.t.D.9.8.9.8.<.<.<.<.<.<.<.:.dXdXdXdXdXdXdXdXdXdXdXdXdXdXdXdXdX",
"dXdXdXdXdXdXdXdXdXdXdXdXdXdXdXdXdXr.p.C.T.W.$X%X%X%X$XJ.OXXXOX>XwXrXwXwX5XOXs.E.oXoXoXoXoXZ.<.>.J 9.t.9.8.K *.<.<.<.<.8.8.8.8.<.R dXdXdXdXdXdXdXdXdXdXdXdXdXdXdX",
"dXdXdXdXdXdXdXdXdXdXdXdXdXdXdXdXdX.XoXJ.p.q.C.S.W.$XS.q.p.L.&X5X8X7XwXwXwXpX3XP.H.L.L.L.K.q.<.<.*.K 8.<.K F >.F <.8.8.8.8.4.8.j._ b dXdXdXdXdXdXdXdXdXdXdXdXdXdX",
"dXdXdXdXdXdXdXdXdXdXdXdXdXdXdXdXL.XX.XL.T.T.S.C.q.A.<.R.9.W.%X%X%X*X>X2X3X`.).(.M.I.I.T.G.C.<.<.9.F K K N *.F K 2.8.8.8.2.7.' / ] z.z.g.T dXdXdXdXdXdXdXdXdXdXdX",
"dXdXdXdXdXdXdXdXdXdXdXdXdXdXdXdXJ.P.T.T.T.T.T.T.G.C.t.0.2.W.%X%X$XU.W.'.`.yXiXaXaXyX'._.M.U.S.8.2.F M dXdXV N *.;.;.<.;.7./ _ v.N.N.N.N.v._ dXdXdXdXdXdXdXdXdXdX",
"dXdXdXdXdXdXdXdXdXdXdXdXdXdXdXdXq.T.T.T.T.T.T.T.T.T.T.G.Z.q.C.T.C.b.n.`.uXaXsXsXsXsXsXaXyX_.Y.5.<.K B dXdXdXdXV F G ;.Q ( P z.N.N.N.N.N.N.N.v.g.W dXdXdXdXdXdXdX",
"dXdXdXdXdXdXdXdXdXdXdXdXdXdXdXdXq.T.T.T.T.T.T.T.T.T.T.T.T.T.S.t.<.8.k.V.yXuXaXsXsXsXsXsXsXsXyX(.x.5.B dXdXdXdXdXdXdXV S b P ` v.N.N.N.N.` h.n.N.v.g./ b b dXdXdX",
"dXdXdXdXdXdXdXdXdXdXdXdXdXdXdX9.Z.T.T.T.T.T.T.T.T.T.T.T.T.T.T.A.<.q.R.I.M.).tXiXsXsXsXsXaXuX[.yXyX[.Y.n.dXdXdXdXdXdXdXdXdXdXdXT z.n.N.c.x P T W W _ c.c.E E P dX",
"dXdXdXdXdXdXdXdXdXdXdXdXdXdXdX0.T.T.T.T.T.T.T.T.T.T.T.T.T.T.T.A.<.q.T.T.T.7.k./.yXiXuXiXyX[.[.[.^.B./.(.n.m.! dXdXdXdXdXdXdXdXdXdXE g.` z dXdXdXdXdXb z.T z ( x ",
"dXdXdXdXdXdXdXdXdXdXdXdXdXdXdX0.T.T.T.T.T.T.T.T.T.T.T.T.T.T.T.A.<.q.T.T.T.<.S.S.b.(.yX'.).[.V.n.).B.) ( W ` dXdXdXdXdXdXdXdXdXdXdXz ( ( z dXdXdXdXP Y E b x ( x ",
"dXdXdXdXdXdXdXdXdXdXdXdXdXdXdX0.T.T.T.T.T.T.T.T.T.T.T.T.T.T.T.A.<.q.T.T.T.<.S.T.T.A.M.'.`.^.).N.` c.n.n.R dXdXdXdXdXdXdXdXdXdXdXdXz P b dXdXdXdXdXx P dXz T P dX",
"dXdXdXdXdXdXdXdXdXdXdXdXdXdXdX0.T.T.T.T.T.T.T.T.T.T.T.T.R.T.T.A.<.q.T.T.T.<.Z.T.T.T.G.b.V.B.c.v.N.( Q Q N dXdXdXdXdXdXdXdXdXdXdXdXdXdXdXdXdXdXdXdXdXdXdXdXdXdXdX",
"dXdXdXdXdXdXdXdXdXdXdXdXdXdXdX0.T.T.T.T.T.T.T.T.T.T.T.R..XT.T.A.<.0.T.G.G.q.8.Z.T.T.T.T.A.k.l.8.) 5.8.8.B dXdXdXdXdXdXdXdXdXdXdXdXdXdXdXdXdXdXdXdXdXdXdXdXdXdXdX",
"dXdXdXdXdXdXdXdXdXdXdXdXdXdXdX0.T.T.T.T.T.T.T.T.T.T.T.E.*XT.T.S.9.8.2.2.2.8.8.q.G.T.T.T.T.G.F.8.<.9.8.8.B dXdXdXdXdXdXdXdXdXdXdXdXdXdXdXdXdXdXdXdXdXdXdXdXdXdXdX",
"dXdXdXdXdXdXdXdXdXdXdXdXdXdXdX0.T.T.T.T.T.T.T.T.T.T.T.W.=XT.T.T.Z.9.8.8.8.8.y.G.T.T.T.T.T.G.F.8.<.8.8.8.B dXdXdXdXdXdXdXdXdXdXdXdXdXdXdXdXdXdXdXdXdXdXdXdXdXdXdX",
"dXdXdXdXdXdXdXdXdXdXdXdXdXdXdX0.T.T.T.T.T.T.T.T.T.T.T.XX=XT.T.T.T.S.A.A.A.A.A.G.T.T.T.T.T.G.F.8.<.8.8.8.B dXdXdXdXdXdXdXdXdXdXdXdXdXdXdXdXdXdXdXdXdXdXdXdXdXdXdX",
"dXdXdXdXdXdXdXdXdXdXdXdXdXdXdX0.T.T.T.T.T.T.T.T.T.T.T.oX*XT.T.T.T.T.T.T.T.T.T.T.T.T.T.T.T.G.F.8.<.8.8.8.B dXdXdXdXdXdXdXdXdXdXdXdXdXdXdXdXdXdXdXdXdXdXdXdXdXdXdX",
"dXdXdXdXdXdXdXdXdXdXdXdXdXdXdX0.T.T.T.T.T.T.T.T.T.T.R.:X}.T.T.T.T.T.T.T.T.T.T.T.T.T.T.T.T.G.F.8.<.9.8.8.B dXdXdXdXdXdXdXdXdXdXdXdXdXdXdXdXdXdXdXdXdXdXdXdXdXdXdX",
"dXdXdXdXdXdXdXdXdXdXdXdXdXdXdX0.T.T.T.T.T.T.T.T.T.T.T.oXT.T.T.T.T.T.T.T.T.T.T.T.T.T.T.T.T.G.F.8.<.9.8.8.B dXdXdXdXdXdXdXdXdXdXdXdXdXdXdXdXdXdXdXdXdXdXdXdXdXdXdX",
"dXdXdXdXdXdXdXdXdXdXdXdXdXdXdX0.T.T.T.T.T.T.T.T.T.T.T..XT.T.T.T.T.T.T.T.T.T.T.T.T.T.T.T.T.G.D.4.<.8.8.8.B dXdXdXdXdXdXdXdXdXdXdXdXdXdXdXdXdXdXdXdXdXdXdXdXdXdXdX",
"dXdXdXdXdXdXdXdXdXdXdXdXdXdX<.Z.T.T.T.T.T.T.T.T.T.T.T.T.T.T.T.T.T.T.T.T.T.T.T.T.T.T.T.T.T.G.t.<.<.8.8.K N dXdXdXdXdXdXdXdXdXdXdXdXdXdXdXdXdXdXdXdXdXdXdXdXdXdXdX",
"dXdXdXdXdXdXdXdXdXdXdXdXdXdX2.T.T.T.T.T.T.T.T.T.T.T.T.T.T.T.T.T.T.T.T.T.T.T.T.T.T.T.T.T.G.F.t.<.<.9.8.B dXdXdXdXdXdXdXdXdXdXdXdXdXdXdXdXdXdXdXdXdXdXdXdXdXdXdXdX",
"dXdXdXdXdXdXdXdXdXdXdXdXdX:.Z.T.T.T.T.T.T.T.T.T.T.T.T.T.T.T.T.T.T.T.T.T.T.T.T.T.T.T.T.T.G.D.8.<.8.8.8.V dXdXdXdXdXdXdXdXdXdXdXdXdXdXdXdXdXdXdXdXdXdXdXdXdXdXdXdX",
"dXdXdXdXdXdXdXdXdXdXdXdXdX8.T.T.T.T.T.T.T.T.T.T.T.T.T.T.T.T.T.T.T.T.T.T.T.T.T.T.T.T.T.T.G.y.<.<.9.8.8.V dXdXdXdXdXdXdXdXdXdXdXdXdXdXdXdXdXdXdXdXdXdXdXdXdXdXdXdX",
"dXdXdXdXdXdXdXdXdXdXdXdX;.S.T.T.T.T.T.T.T.T.T.T.T.T.T.T.T.T.T.T.T.T.T.T.T.T.T.T.T.T.T.T.G.t.<.2.8.8.8.V dXdXdXdXdXdXdXdXdXdXdXdXdXdXdXdXdXdXdXdXdXdXdXdXdXdXdXdX",
"dXdXdXdXdXdXdXdXdXdXdXdX9.T.T.T.T.T.T.T.T.T.T.T.T.T.T.T.T.T.T.T.T.T.T.T.T.T.T.T.T.T.T.T.G.r.<.9.8.8.8.V dXdXdXdXdXdXdXdXdXdXdXdXdXdXdXdXdXdXdXdXdXdXdXdXdXdXdXdX",
"dXdXdXdXdXdXdXdXdXdXdX<.G.T.T.T.T.T.T.T.T.T.T.T.T.T.T.T.T.T.T.T.T.T.T.T.T.T.T.T.T.T.T.T.Z.2.<.9.8.8.<.V dXdXdXdXdXdXdXdXdXdXdXdXdXdXdXdXdXdXdXdXdXdXdXdXdXdXdXdX",
"dXdXdXdXdXdXdXdXdXdXdX9.T.T.T.T.T.T.T.T.T.T.T.T.T.T.F.F.T.T.T.T.T.T.T.T.T.T.T.T.T.T.T.G.y.<.<.9.8.8.V dXdXdXdXdXdXdXdXdXdXdXdXdXdXdXdXdXdXdXdXdXdXdXdXdXdXdXdXdX",
"dXdXdXdXdXdXdXdXdXdX;.Z.T.T.T.T.T.T.T.T.T.T.T.T.T.G.F.T.T.T.T.T.T.T.T.T.T.T.T.T.T.T.T.F.y.<.<.8.8.9.V dXdXdXdXdXdXdXdXdXdXdXdXdXdXdXdXdXdXdXdXdXdXdXdXdXdXdXdXdX",
"dXdXdXdXdXdXdXdXdXdX8.S.T.T.T.T.T.T.T.T.T.T.T.F.F.F.T.T.T.T.T.T.T.T.T.T.T.T.T.T.T.T.T.y.8.<.<.8.8.<.V dXdXdXdXdXdXdXdXdXdXdXdXdXdXdXdXdXdXdXdXdXdXdXdXdXdXdXdXdX",
"dXdXdXdXdXdXdXdXdXdX8.S.T.T.T.T.T.T.T.G.F.F.F.D.F.T.T.T.T.T.T.T.T.T.T.T.T.T.T.T.T.T.F.y.<.<.8.8.9.F dXdXdXdXdXdXdXdXdXdXdXdXdXdXdXdXdXdXdXdXdXdXdXdXdXdXdXdXdXdX",
"dXdXdXdXdXdXdXdXdXdXt.T.T.T.T.T.T.T.T.T.G.G.G.G.T.T.T.T.T.T.T.T.T.T.T.T.T.T.T.T.T.T.F.y.<.<.8.9.8.F dXdXdXdXdXdXdXdXdXdXdXdXdXdXdXdXdXdXdXdXdXdXdXdXdXdXdXdXdXdX",
"dXdXdXdXdXdXdXdXdX<.Z.T.T.T.T.T.T.T.T.T.T.T.T.T.T.T.T.T.T.T.T.T.T.T.T.T.T.T.T.T.T.F.F.y.<.<.8.t.*.dXdXdXdXdXdXdXdXdXdXdXdXdXdXdXdXdXdXdXdXdXdXdXdXdXdXdXdXdXdXdX",
"dXdXdXdXdXdXdXdXdX8.S.T.T.T.T.T.T.T.T.T.T.T.T.T.T.T.T.T.T.T.T.T.T.T.T.T.T.T.T.T.F.F.F.Z.<.<.8.t.K dXdXdXdXdXdXdXdXdXdXdXdXdXdXdXdXdXdXdXdXdXdXdXdXdXdXdXdXdXdXdX",
"dXdXdXdXdXdXdXdXdX2.S.T.T.T.T.T.T.T.T.T.T.T.T.T.T.T.T.T.T.T.T.T.T.T.T.T.T.T.T.F.F.F.F.D.t.<.<.8.F dXdXdXdXdXdXdXdXdXdXdXdXdXdXdXdXdXdXdXdXdXdXdXdXdXdXdXdXdXdXdX",
"dXdXdXdXdXdXdXdXdX;.Z.T.T.T.T.T.T.T.T.T.T.T.T.T.T.T.T.T.T.T.T.T.T.T.T.T.T.G.F.D.F.F.D.F.D.8.;.V dXdXdXdXdXdXdXdXdXdXdXdXdXdXdXdXdXdXdXdXdXdXdXdXdXdXdXdXdXdXdXdX",
"dXdXdXdXdXdXdXdXdXdX>.Z.T.T.T.T.T.T.T.T.T.T.T.T.T.T.T.T.T.T.T.T.T.T.T.T.F.F.F.F.F.F.F.F.F.D.9.F dXdXdXdXdXdXdXdXdXdXdXdXdXdXdXdXdXdXdXdXdXdXdXdXdXdXdXdXdXdXdXdX",
"dXdXdXdXdXdXdXdXdXdXdXV ,.;.4.4.r.r.r.t.Z.Z.A.S.S.S.S.S.S.S.S.A.Z.Z.t.2.:.:.:.:.D #.#.#.D B K V dXdXdXdXdXdXdXdXdXdXdXdXdXdXdXdXdXdXdXdXdXdXdXdXdXdXdXdXdXdXdXdX",
"dXdXdXdXdXdXdXdXdXdXdXu I A e r C C C n e C G G G G n dX6 e e w w w 6 3 4 0 2 , < 0 8 2 , dXdXdXdXdXdXdXdXdXdXdXdXdXdXdXdXdXdXdXdXdXdXdXdXdXdXdXdXdXdXdXdXdXdXdX",
"dXdXdXdXdXdXdXdXdXdXdXk ~ ~ I n e C C w q C C C C r 3 dXo 3 3 3 3 3 3 8 5 < , 2 0 2 @ X dXdXdXdXdXdXdXdXdXdXdXdXdXdXdXdXdXdXdXdXdXdXdXdXdXdXdXdXdXdXdXdXdXdXdXdX",
"dXdXdXdXdXdXdXdXdXdXu L ~ ~ ~ U A n e 9 w C C C C C 3 dXo 3 3 3 3 4 0 8 < 1 0 0 < $ > . dXdXdXdXdXdXdXdXdXdXdXdXdXdXdXdXdXdXdXdXdXdXdXdXdXdXdXdXdXdXdXdXdXdXdXdX",
"dXdXdXdXdXdXdXdXdXdXu U ~ U ~ ~ ~ U I a 2 w e C C q 3 dXo 3 3 4 0 0 4 4 0 0 1 > > < O dXdXdXdXdXdXdXdXdXdXdXdXdXdXdXdXdXdXdXdXdXdXdXdXdXdXdXdXdXdXdXdXdXdXdXdXdX",
"dXdXdXdXdXdXdXdXdXdXp ( f.^ U U ~ ~ ~ p u I A n r 3 dXdXo 3 4 0 4 4 8 0 5 , > : 3 3 $ dXdXdXdXdXdXdXdXdXdXdXdXdXdXdXdXdXdXdXdXdXdXdXdXdXdXdXdXdXdXdXdXdXdXdXdXdX",
"dXdXdXdXdXdXdXdXdXu L ( ( ~ ~ U I U U p ; v v v 6 3 dXo , 0 8 4 4 0 0 0 @ @ $ $ $ $ > >   dXdXdXdXdXdXdXdXdXdXdXdXdXdXdXdXdXdXdXdXdXdXdXdXdXdXdXdXdXdXdXdXdXdXdX",
"dXdXdXdXdXdXdXdXdXu I ~ ~ ~ ~ ~ ~ I I u & p p k & dXdXo 8 8 8 8 0 0 0 1 , , # - f f p = & dXdXdXdXdXdXdXdXdXdXdXdXdXdXdXdXdXdXdXdXdXdXdXdXdXdXdXdXdXdXdXdXdXdXdX",
"dXdXdXdXdXdXdXdXdXu k L b z x x x b b k h s ; - dXdXX ; = = = = % % % - ; i f P ' g.f.( E E x dXdXdXdXdXdXdXdXdXdXdXdXdXdXdXdXdXdXdXdXdXdXdXdXdXdXdXdXdXdXdXdXdX",
"dXdXdXdXdXdXdXdXdX+ * i s z ! ( ( f.d.( ^ E z j dXdXX * - - - * * * ; s s s i y s j b W g.z.' ' _ E P z s s dXdXdXdXdXdXdXdXdXdXdXdXdXdXdXdXdXdXdXdXdXdXdXdXdXdX",
"dXdXdXdXdXdXdXdXdX. i s s z P ( c.m.f.f.d.( ( ! P z dXX & & & & & & # + + + X X X * * * ; s z z z j j f j s X dXdXdXdXdXdXdXdXdXdXdXdXdXdXdXdXdXdXdXdXdXdXdXdXdX",
"dXdXdXdXdXdXdXdXdX. s f s s s z ! c.^.^.h.c.c.h.g.( P h dXdXdXdXdXdXdXdXdXdXdXdXdXdXdXdXdXdXdXdXdXdXdXdXdXdXdXdXdXdXdXdXdXdXdXdXdXdXdXdXdXdXdXdXdXdXdXdXdXdXdXdX",
"dXdXdXdXdXdXdXdXdXdX& * + + * * ; y d k d h k k d d i ; + dXdXdXdXdXdXdXdXdXdXdXdXdXdXdXdXdXdXdXdXdXdXdXdXdXdXdXdXdXdXdXdXdXdXdXdXdXdXdXdXdXdXdXdXdXdXdXdXdXdXdX",
"dXdXdXdXdXdXdXdXdXdXdXdXdXdXdXdXdXdXdXdXdXdXdXdXdXdXdXdXdXdXdXdXdXdXdXdXdXdXdXdXdXdXdXdXdXdXdXdXdXdXdXdXdXdXdXdXdXdXdXdXdXdXdXdXdXdXdXdXdXdXdXdXdXdXdXdXdXdXdXdX"
};
