/* XPM */
static char *result[] = {
/* columns rows colors chars-per-pixel */
"80 80 227 2 ",
"   c #2B1623",
".  c #291828",
"X  c #351A25",
"o  c #2D232D",
"O  c #39222C",
"+  c #2F2430",
"@  c #332B33",
"#  c #3A2D37",
"$  c #3A313A",
"%  c #4C1B14",
"&  c #541C1B",
"*  c #51281D",
"=  c #45242B",
"-  c #4B262B",
";  c #562625",
":  c #5C2C2D",
">  c #533122",
",  c #583427",
"<  c #5C322A",
"1  c #452B36",
"2  c #5F2F30",
"3  c #5E3736",
"4  c #612E2E",
"5  c #61382F",
"6  c #633131",
"7  c #633C38",
"8  c #654335",
"9  c #6E4A3E",
"0  c #714D3F",
"q  c #443945",
"w  c #444344",
"e  c #4C434C",
"r  c #4C4C4C",
"t  c #5E4945",
"y  c #4F4F52",
"u  c #554455",
"i  c #534B53",
"p  c #5A4B5B",
"a  c #525253",
"s  c #55545A",
"d  c #5A5859",
"f  c #6A4A47",
"g  c #6C484E",
"h  c #6C5349",
"j  c #6C5749",
"k  c #735242",
"l  c #73554A",
"z  c #705B4D",
"x  c #6D5754",
"c  c #745D52",
"v  c #785E52",
"b  c #7A6255",
"n  c #7E6359",
"m  c #5B5461",
"M  c #5C5C64",
"N  c #5F5F6A",
"B  c #615263",
"V  c #665D6B",
"C  c #695968",
"Z  c #65646C",
"A  c #7A6564",
"S  c #7B7165",
"D  c #676774",
"F  c #6C6474",
"G  c #6D6B7A",
"H  c #746C76",
"J  c #706C7C",
"K  c #727274",
"L  c #777379",
"P  c #940202",
"I  c #980708",
"U  c #931213",
"Y  c #981818",
"T  c #A40101",
"R  c #AA0202",
"E  c #B20A09",
"W  c #991F24",
"Q  c #952C2E",
"!  c #99393A",
"~  c #AB3231",
"^  c #A53839",
"/  c #9B5A3E",
"(  c #96464B",
")  c #875958",
"_  c #955257",
"`  c #A85151",
"'  c #9F7346",
"]  c #83665B",
"[  c #925D67",
"{  c #A25C6A",
"}  c #836362",
"|  c #8C6B65",
" . c #856A68",
".. c #8D6B6B",
"X. c #966567",
"o. c #926E6C",
"O. c #8D756C",
"+. c #95726D",
"@. c #966C72",
"#. c #8B7478",
"$. c #947372",
"%. c #9B7575",
"&. c #9B7B76",
"*. c #967B79",
"=. c #9D7B7B",
"-. c #B86F6F",
";. c #A16B79",
":. c #A47A75",
">. c #A37578",
",. c #A37B7B",
"<. c #AC7E7E",
"1. c #B78331",
"2. c #D18B20",
"3. c #AD864B",
"4. c #8E806E",
"5. c #94846D",
"6. c #958574",
"7. c #9C8578",
"8. c #A6877D",
"9. c #A4907F",
"0. c #737384",
"q. c #7B7B87",
"w. c #7C7B84",
"e. c #857C83",
"r. c #9A7E84",
"t. c #A57484",
"y. c #A67E80",
"u. c #838283",
"i. c #83838B",
"p. c #89828A",
"a. c #8B8B8E",
"s. c #99888A",
"d. c #878792",
"f. c #8B8B91",
"g. c #938F95",
"h. c gray58",
"j. c #99979A",
"k. c #A38282",
"l. c #AC8483",
"z. c #AB8A83",
"x. c #AB848A",
"c. c #A38C8C",
"v. c #AC8B8B",
"b. c #B58484",
"n. c #B68985",
"m. c #B48C8C",
"M. c #AD9383",
"N. c #B49586",
"B. c #B89A85",
"V. c #B4928B",
"C. c #BC938C",
"Z. c #B59C8C",
"A. c #BB9C8C",
"S. c #AA8E92",
"D. c #B18C90",
"F. c #A49A97",
"G. c #B59494",
"H. c #B49795",
"J. c #BB9593",
"K. c #BB9A95",
"L. c #BD9C99",
"P. c #BBA18D",
"I. c #BBA397",
"U. c #BBA49B",
"Y. c #9798A0",
"T. c #9D9DA4",
"R. c #A3A3A4",
"E. c #A8A4A8",
"W. c #ACACAE",
"Q. c #B5A9A7",
"!. c #B6B0AD",
"~. c #ABABB1",
"^. c #AEB0B1",
"/. c #B3B3B4",
"(. c #B5B4B8",
"). c #BABABC",
"_. c #C29D94",
"`. c #C39C9A",
"'. c #C2A08F",
"]. c #C4A393",
"[. c #C9A996",
"{. c #C3A39A",
"}. c #C7A799",
"|. c #CCAB9B",
" X c #D0AE9D",
".X c #CEB39B",
"XX c #D3B49D",
"oX c #D8BA9F",
"OX c #C4A3A2",
"+X c #C5ABA6",
"@X c #CBABA3",
"#X c #D0AFA0",
"$X c #CCB4A8",
"%X c #D5B4A4",
"&X c #D8B7A3",
"*X c #D6BAA3",
"=X c #DCBDA4",
"-X c #D4BCAB",
";X c #DDBCA9",
":X c #CAB9B0",
">X c #E0BFA8",
",X c #DEC2A7",
"<X c #C9C1BF",
"1X c #D9C6B7",
"2X c #E1C2A6",
"3X c #E4C4AB",
"4X c #E8C7AE",
"5X c #E6CAAB",
"6X c #EBCBAE",
"7X c #EDD0AE",
"8X c #EDCDB0",
"9X c #F0CFB1",
"0X c #EBD0B7",
"qX c #F6D5B4",
"wX c #F8D7B5",
"eX c #BFBFC1",
"rX c #C4C4C5",
"tX c #C6C6CA",
"yX c #CBCBCB",
"uX c #D5D5D5",
"iX c gray86",
"pX c #E6DACF",
"aX c #E4E4E4",
"sX c #ECECEC",
"dX c #F4F4F4",
"fX c #F9F9F9",
"gX c None",
/* pixels */
"gXgXgXgXgXgXgXgXgXgXgXgXgXgXgXgXgXgXgXgXgXgXgXgXgXgXgXgXgXgXgXgXgXgXgXgXgXgXgXgXgXgXgXgXgXgXgXgXgXgXgXgXgXgXgXgXgXgXgXgXgXgXgXgXgXgXgXgXgXgXgXgXgXgXgXgXgXgXgXgX",
"gXgXgXgXgXgXgXgXgXgXgXgXgXgXgXgXgXgXgXgXgXgXgXgXgXgXgXgXgXgXgXgXl.D.x.gXgXgXgXgXgXgXgXgXgXgXgXgXgXgXgXgXgXgXgXgXgXgXgXgXgXgXgXgXgXgXgXgXgXgXgXgXgXgXgXgXgXgXgXgX",
"gXgXgXgXgXgXgXgXgXgXgXgXgXgXgXgXgXgXgXgXgXgXgXgXgXgXgXgXgXgX>.v.H.H.H.H.D.G.x.gXgXgXgXgXgXgXgXgXgXgXgXgXgXgXgXgXgXgXgXgXgXgXgXgXgXgXgXgXgXgXgXgXgXgXgXgXgXgXgXgX",
"gXgXgXgXgXgXgXgXgXgXgXgXgXgXgXgXgXgXgXgXgXgXgXgXgXgXgXgXE ^ y.m.H.H.H.H.H.G.m.m.x.@.gXgXgXgXgXgXgXgXgXgXgXgXgXgXgXgXgXgXgXgXgXgXgXgXgXgXgXgXgXgXgXgXgXgXgXgXgXgX",
"gXgXgXgXgXgXgXgXgXgXgXgXgXgXgXgXgXgXgXgXgXgXgX`.`.gXgX^ R T I W ` ` >.D.x.>.%.%.t.t.t.;.X.gXgXgXgXgXgXgXgXgXgXgXgXgXgXgXgXgXgXgXgXgXgXgXgXgXgXgXgXgXgXgXgXgXgXgX",
"gXgXgXgXgXgXgXgXgXgXgXgXgXgXgXgXgXgXgXgXgXgXgXgXgXgXS.D.<.-.~ ~ Y P I Y ( _ ;.t.t.t.>.X.gXgXgXgXgXgXgXgXgXgXgXgXgXgXgXgXgXgXgXgXgXgXgXgXgXgXgXgXgXgXgXgXgXgXgXgX",
"gXgXgXgXgXgXgXgXgXgXgXgXgXgXgXgXgXgXgXgXgXgXgXgXgXa 0.J L s.s.H.b.-.^ Y I P W Q { ;.@.X.gXgXgXgXgXgXgXgXgXgXgXgXgXgXgXgXgXgXgXgXgXgXgXgXgXgXgXgXgXgXgXgXgXgXgXgX",
"gXgXgXgXgXgXgXgXgXgXgXgXgXgXgXgXgXgXgXgXgXgXgX*XM.L a.G Z i.0.0.e.s.8.8.` ! Q I U U f gXgXgXgXgXgXgXgXgXgXgXgXgXgXgXgXgXgXgXgXgXgXgXgXgXgXgXgXgXgXgXgXgXgXgXgXgX",
"gXgXgXgXgXgXgXgXgXgXgXgXgXgXgXgXgXgXgXgXgX2X8X=X4.p.a.M a.h.g.a.q.4.1.2.2.' #.[ _ [ gXgXgXgXgXgXgXgXgXgXgXgXgXgXgXgXgXgXgXgXgXgXgXgXgXgXgXgXgXgXgXgXgXgXgXgXgXgX",
"gXgXgXgXgXgXgXgXgXgXgXgXgXgXgXgXgXgXgXgX>XqXwX[.3.z d u.h.h.h.h.h.u.S ] 5.w.f.G gXgXgX;.t.gXgXgXgXgXgXgXgXgXgXgXgXgXgXgXgXgXgXgXgXgXgXgXgXgXgXgXgXgXgXgXgXgXgXgX",
"gXgXgXgXgXgXgXgXgXgXgXgXgXgXgXgXgXgXgX|.5X6X3X4XQ.*.h L g.h.j.R.R.u.a.eXtX~.(.M gXgXgXgXgXgXgXgXgXgXgXgXgXgXgXgXgXgXgXgXgXgXgXgXgXgXgXgXgXgXgXgXgXgXgXgXgXgXgXgX",
"gXgXgXgXgXgXgXgXgXgXgXgXgXgXgXgX2X2XXX.XoXXXL.@X,X:XF. .A a.R.u.u.h.E.E.j.F.F.gXgXgXgXgXgXgXgXgXgXgXgXgXgXgXgXgXgXgXgXgXgXgXgXgXgXgXgXgXgXgXgXgXgXgXgXgXgXgXgXgX",
"gXgXgXgXgXgXgXgXgXgXgXgX=X5X6XqXqXwXqX4X4XqX;X}.=X6X-X!.F.d.i.w.i.(.R.0.c. X'.B.gXgXgXgXgXgXgXgXgXgXgXgXgXgXgXgXgXgXgXgXgXgXgXgXgXgXgXgXgXgXgXgXgXgXgXgXgXgXgXgX",
"gXgXgXgXgXgXgXgXgXgXXX;X3X3X4XqXqXqXqXwXqX3XXX2X6XqXqX8X-X(.(.E.#.) / A U.|.A.gXgXgXgXgXgXgXgXgXgXgXgXgXgXgXgXgXgXgXgXgXgXgXgXgXgXgXgXgXgXgXgXgXgXgXgXgXgXgXgXgX",
"gXgXgXgXgXgXgXgXgX;X6XqXqXqXqX6X4X4XqXwXqXqX6X;X*X*X;XqXqX8X:Xf.) I T ( F.$X%X|.}.B.gXgXgXgXgXgXgXgXgXgXgXgXgXgXgXgXgXgXgXgXgXgXgXgXgXgXgXgXgXgXgXgXgXgXgXgXgXgX",
"gXgXgXgXgXgXgXgX*X8XwXqXqXqXwXwXqX9X4X8XqXwX8X;X.XK.K.|.%X3X3X$XQ.$.Y P ! _.%X%X|.gXgXgXgXgXgXgXgXgXgXgXgXgXgXgXgXgXgXgXgXgXgXgXgXgXgXgXgXgXgXgXgXgXgXgXgXgXgXgX",
"gXgXgXgXgXgXgXgX3XqX5XqXqXqX8XqXqXqXqX3X4XwXwXwXqX8X2X&X{.K.{.&X[.F.! R T ` `.@X}.gXgXgXgXgXgXgXgXgXgXgXgXgXgXgXgXgXgXgXgXgXgXgXgXgXgXgXgXgXgXgXgXgXgXgXgXgXgXgX",
"gXgXgXgXgXgXgX%X4X;X,XqXqXqX;XqXqXqXwXqX3X8XwXqXwXwXwXqX6X*X}.H.K.[.:.Q T P n.OX].P.gXgXgXgXgXgXgXgXgXgXgXgXgXgXgXgXgXgXgXgXgXgXgXgXgXgXgXgXgXgXgXgXgXgXgXgXgXgX",
"gXgXgXgXgXgXgX%X&XoX8XqXqX5X;XqXqXqXqXqX8X3XqXwXqXqXqXqXwXqXqX;X{.G.I.M._ U ^ `.B.oXZ.gXgXgXgXgXgXgXgXgXgXgXgXgXgXgXgXgXgXgXgXgXgXgXgXgXgXgXgXgXgXgXgXgXgXgXgXgX",
"gXgXgXgXgXgXgX}.|.4XqXqXqX*X=XqXqXqXwX6X7X2X4XwXqXqXqXqXqXqXqXqX8X%XK.G.H.%.! J.9.=X.X6.gXgXgXgXgXgXgXgXgXgXgXgXgXgXgXgXgXgXgXgXgXgXgXgXgXgXgXgXgXgXgXgXgXgXgXgX",
"gXgXgXgXgXgXgX].=XqXwXqX;XC.2XqXqXqXwX3X4X=X=XqXwXqXqXqXqXqXwXqXwXqX3X}.H.H.v.*.O.%X.X6.gXgXgXgXgXgXgXgXgXgXgXgXgXgXgXgXgXgXgXgXgXgXgXgXgXgXgXgXgXgXgXgXgXgXgXgX",
"gXgXgXgXgXgXgXB.=XqX5X%XJ.XXqXqXqXwXqX;X4XXX.XqXwXqXqXqXqXqX3XwXqXwXwXqX=XL.H.v.z N.}.6.gXgXgXgXgXgXgXgXgXgXgXgXgXgXgXgXgXgXgXgXgXgXgXgXgXgXgXgXgXgXgXgXgXgXgXgX",
"gXgXgXgXgXgXgX8.|.*X@XJ.|.qXqXqXwXqX5X*X4XA.J.;XqXwXwXwX6XA.N.XXwXqXqXqXqX4X|.*.] b K.9.[.gXgXgXgXgXgXgXgXgXgXgXgXgXgXgXgXgXgXgXgXgXgXgXgXgXgXgXgXgXgXgXgXgXgXgX",
"gXgXgXgXgXgXgX} V.@X`._.9XqXqXqXqX5X*X=XqXM.k.OX%X3X6XqXqX=X[.6XwXqXqXqXqXqXqXV.O.c v.M.%XgXgXgXgXgXgXgXgXgXgXgXgXgXgXgXgXgXgXgXgXgXgXgXgXgXgXgXgXgXgXgXgXgXgXgX",
"gXgXgXgXgXgXgX) v.OX_.4XwXwXwXqX7X,XXX2XwXz.=.H.OX@X@X&X2X8XqXqXqXqXqXqXqXqXqX2Xm.c v.M.%XgXgXgXgXgXgXgXgXgXgXgXgXgXgXgXgXgXgXgXgXgXgXgXgXgXgXgXgXgXgXgXgXgXgXgX",
"gXgXgXgXgXgXgX} v.J.2XqXqX3X=X=X.X].].=X=X&.| k.G.OXOXOXL.L.{.{.{.}.$X+XU.U.U.I.$.z ,.&.].C.gXgXgXgXgXgXgXgXgXgXgXgXgXgXgXgXgXgXgXgXgXgXgXgXgXgXgXgXgXgXgXgXgXgX",
"gXgXgXgXgXgXgX} >. XqX3X_.l.8.l.N.J.].}.8.| $.=.k.$.L.k.z.z.8.&.%.s.).E.s.c.c.p.%.| n z._.].A.B.gXgXgXgXgXgXgXgXgXgXgXgXgXgXgXgXgXgXgXgXgXgXgXgXgXgXgXgXgXgXgXgX",
"gXgXgXgXgXgXgX} k.OX8Xz.b.n. X>X9XqXqXqX6X;X].L.v.z v...K.K.z.,.|.U.^.Q.K.K. .p.k.,.b  X%X%X%X%X|.}.gXgXgXgXgXgXgXgXgXgXgXgXgXgXgXgXgXgXgXgXgXgXgXgXgXgXgXgXgXgX",
"gXgXgXgXgXgXgXgX=.L.3XXX|.3XqXwXqXqXqXqXwXwXwXqX;XB.z.| k.x.=.z. XU.^.F.s.s.C w.#.%.c C.}.*X%X%X%X%XA.B.gXgXgXgXgXgXgXgXgXgXgXgXgXgXgXgXgXgXgXgXgXgXgXgXgXgXgXgX",
"gXgXgXgXgXgXgXgXgX$.v.@X;XqXqXqXqXqXqXqXqXqXqXwXwXwXqX].8.O...V.K.*.s.a.e.e.u.u.A v b <.n._.|.%X}.Z.Z.}.M.}.A.gXgXgXgXgXgXgXgXgXgXgXgXgXgXgXgXgXgXgXgXgXgXgXgXgX",
"gXgXgXgXgXgXgXgXgXgXgX=.H.@X%X3X7XqXqXqXwXqXwXwXqXqX3X3X4XXXXX;X[.M.6.8.Z.Z.Z.Z.A.| :.n b.b.n.8.N.|.I.9.|.*X%X@X|.K.gXgXgXgXgXgXgXgXgXgXgXgXgXgXgXgXgXgXgXgXgXgX",
"gXgXgXgXgXgXgXgXgXgXgXgX&.z.k.z.J.%X*X3X8XqXqXqX&XXXoX=XoX6XwXqX0XpX1XI.s.A.].].B...,.| ] n.b.n b +.C._.%X%X:X<X!.F.p.gXgXgXgXgXgXgXgXgXgXgXgXgXgXgXgXgXgXgXgXgX",
"gXgXgXgXgXgXgXgXgXgXgXgX}.%X|.z.8.=.k.G.{.%X*X,XB.;XB.,XqXqX3X1XiXuXuXyXtX!.j.H.c.k.o.:.v :...| %.n :.b.C.rX~.Y./.rXrXW.gXgXgXgXgXgXgXgXgXgXgXgXgXgXgXgXgXgXgXgX",
"gXgXgXgXgXgXgXgXgXgXgX6.|.|.A.G.H.G.v.k.,.,.v.L.o.G.+.#X2X2X$X).rXiXsXfXfXdXdXiXrXQ.e.x. .j z v z o.b.b.b.E.i.tXuXuXuXyXtX).R.gXgXgXgXgXgXgXgXgXgXgXgXgXgXgXgXgX",
"gXgXgXgXgXgXgXgXgXgXgX6.B.V.G.G.G.G.H.H.G.m.k.,.=.=.| x.OXOX+XE.R.iXsXdXdXdXdXfXfXdXsXtXE.s.gXgXgXj n ..=.a.q.rXiXuXuXuXiXaXuXuXgXgXgXgXgXgXgXgXgXgXgXgXgXgXgXgX",
"gXgXgXgXgXgXgXgXgXgXgXb.V.G.H.H.G.G.H.H.H.H.G.H.H.G.v.| =.k.v.e.e.).aXsXsXdXdXdXdXsXiXaXuXtXuXgXgXgXgXgXz w.0.d.).uXiX).R.W.W.).rXtX/.gXgXgXgXgXgXgXgXgXgXgXgXgX",
"gXgXgXgXgXgXgXgXgXgXgXb.G.H.H.H.G.G.G.G.H.H.G.G.H.H.G...N.G.x.%.$.s.g.W.tXuXuXsXrX(.eX/.uXtX(.yXgXgXgXgXgXgXgXgXgXT.rXtXa.s gXgXi.h.rX).j.gXgXgXgXgXgXgXgXgXgXgX",
"gXgXgXgXgXgXgXgXgXgXgXb.G.H.H.H.G.G.G.G.H.H.G.G.H.H.D...].H.H.k.%.H.n.=.r.c.p.E./.~.Y.~.~.(.yX/.(.uXgXgXgXgXgXgXgXgXi.T.i.gXgXgXgXM K j./.gXgXgXgXgXgXgXgXgXgXgX",
"gXgXgXgXgXgXgXgXgXgX$.v.G.G.G.G.H.H.G.G.H.H.H.H.G.G.D.o.|.H.H.k.%.H.m.b.b.b.l.y.#.h./.T.W.~.T.eXg.W.gXgXgXgXgXgXgXgXgXgXa.0.gXgXgXD M gXf.f.gXgXgXgXgXgXgXgXgXgX",
"gXgXgXgXgXgXgXgXgXgX=.m.G.G.G.G.H.H.H.G.H.H.H.G.G.G.D.o.@XG.H.k.%.H.m.b.b.b.b.b.b.=.w.E.s.s.H gXgXgXgXgXgXgXgXgXgXgXgXgXgXgXgXgXgXgXgXgXgXgXgXgXgXgXgXgXgXgXgXgX",
"gXgXgXgXgXgXgXgXgX$.l.G.H.H.G.G.H.H.G.G.G.G.H.H.G.G.D.+.|._.H.k.&.G.m.b.b.b.b.b.b.y. .x.b.%.} gXgXgXgXgXgXgXgXgXgXgXgXgXgXgXgXgXgXgXgXgXgXgXgXgXgXgXgXgXgXgXgXgX",
"gXgXgXgXgXgXgXgXgX$.v.H.H.H.G.G.H.H.G.G.G.G.H.H.G.G.G.$.M.%XL.K.=.=.G.n.b.b.b.b.b.<.o.b.b.>.} gXgXgXgXgXgXgXgXgXgXgXgXgXgXgXgXgXgXgXgXgXgXgXgXgXgXgXgXgXgXgXgXgX",
"gXgXgXgXgXgXgXgXgX$.v.H.H.H.H.G.H.G.G.G.G.G.H.H.G.G.G.$...V.V.z.%.=.H.m.b.b.b.b.b.<...b.b.>.} gXgXgXgXgXgXgXgXgXgXgXgXgXgXgXgXgXgXgXgXgXgXgXgXgXgXgXgXgXgXgXgXgX",
"gXgXgXgXgXgXgXgXgX$.v.H.H.H.G.G.G.G.G.G.G.H.H.H.H.H.G.=.o.....&.v.m.H.m.b.n.m.m.b.<...b.b.,...gXgXgXgXgXgXgXgXgXgXgXgXgXgXgXgXgXgXgXgXgXgXgXgXgXgXgXgXgXgXgXgXgX",
"gXgXgXgXgXgXgXgXgX$.v.H.H.H.H.H.G.G.G.G.G.G.G.G.G.H.H.G.v.v.v.v.H.H.H.G.m.G.H.G.m.<...b.b.,.$.gXgXgXgXgXgXgXgXgXgXgXgXgXgXgXgXgXgXgXgXgXgXgXgXgXgXgXgXgXgXgXgXgX",
"gXgXgXgXgXgXgXgXgX$.v.H.H.H.H.H.G.G.G.H.G.G.G.G.G.G.H.H.H.H.H.H.G.G.H.H.G.G.G.G.G.<...b.b.,.$.gXgXgXgXgXgXgXgXgXgXgXgXgXgXgXgXgXgXgXgXgXgXgXgXgXgXgXgXgXgXgXgXgX",
"gXgXgXgXgXgXgXgXgX%.m.H.H.G.G.G.G.G.H.H.H.H.G.G.G.G.G.H.G.G.G.G.G.H.H.H.G.G.G.G.G.<...b.b.l.%.gXgXgXgXgXgXgXgXgXgXgXgXgXgXgXgXgXgXgXgXgXgXgXgXgXgXgXgXgXgXgXgXgX",
"gXgXgXgXgXgXgXgX$.l.G.H.G.G.G.G.G.G.H.H.H.H.G.G.G.G.G.G.G.G.G.H.G.G.H.H.G.G.G.G.G.<...b.b.b.%.gXgXgXgXgXgXgXgXgXgXgXgXgXgXgXgXgXgXgXgXgXgXgXgXgXgXgXgXgXgXgXgXgX",
"gXgXgXgXgXgXgXgX$.v.H.G.G.G.G.G.G.G.G.G.H.H.G.G.G.G.G.G.H.H.H.H.G.G.G.G.G.G.G.G.G.<...b.b.b.%.gXgXgXgXgXgXgXgXgXgXgXgXgXgXgXgXgXgXgXgXgXgXgXgXgXgXgXgXgXgXgXgXgX",
"gXgXgXgXgXgXgXgX$.v.H.H.G.G.G.G.G.G.G.G.H.H.G.G.G.G.G.G.H.H.H.H.G.G.G.G.H.G.G.G.b.<...b.b.b.,.gXgXgXgXgXgXgXgXgXgXgXgXgXgXgXgXgXgXgXgXgXgXgXgXgXgXgXgXgXgXgXgXgX",
"gXgXgXgXgXgXgXgX$.v.H.H.H.G.G.G.G.G.G.G.H.H.H.G.H.H.H.H.G.G.G.G.G.G.G.G.H.H.G.G.b.<...b.b.b.<.$.gXgXgXgXgXgXgXgXgXgXgXgXgXgXgXgXgXgXgXgXgXgXgXgXgXgXgXgXgXgXgXgX",
"gXgXgXgXgXgXgXgX8.V.H.H.H.G.G.G.G.G.G.H.H.H.G.G.H.H.H.H.G.G.G.G.G.G.H.H.H.H.G.G.b.<...b.b.b.b.%.gXgXgXgXgXgXgXgXgXgXgXgXgXgXgXgXgXgXgXgXgXgXgXgXgXgXgXgXgXgXgXgX",
"gXgXgXgXgXgXgX$.V.K.G.G.H.H.H.H.H.H.H.H.G.G.H.H.H.G.G.G.H.H.G.G.G.H.H.H.H.H.G.m.b.<...b.b.b.b.%.gXgXgXgXgXgXgXgXgXgXgXgXgXgXgXgXgXgXgXgXgXgXgXgXgXgXgXgXgXgXgXgX",
"gXgXgXgXgXgXgXV.}.K.G.G.H.H.H.H.H.H.H.H.G.H.H.H.G.G.G.G.H.H.G.G.H.H.H.H.H.H.G.b.b.<...b.b.b.b.>.gXgXgXgXgXgXgXgXgXgXgXgXgXgXgXgXgXgXgXgXgXgXgXgXgXgXgXgXgXgXgXgX",
"gXgXgXgXgXgXgX}.|.J.G.G.G.G.G.G.G.G.G.G.G.G.H.H.G.G.G.G.H.H.H.G.G.G.H.H.H.H.m.b.b.<...b.b.b.b.>.gXgXgXgXgXgXgXgXgXgXgXgXgXgXgXgXgXgXgXgXgXgXgXgXgXgXgXgXgXgXgXgX",
"gXgXgXgXgXgXA.|.|.J.G.G.G.G.G.G.G.G.G.G.G.G.H.H.G.G.G.G.H.H.G.G.G.G.G.G.H.G.b.b.b.<...b.b.b.b.,.$.gXgXgXgXgXgXgXgXgXgXgXgXgXgXgXgXgXgXgXgXgXgXgXgXgXgXgXgXgXgXgX",
"gXgXgXgXgXgXI.&X|.J.H.H.H.H.H.H.H.H.H.H.H.G.G.G.G.G.H.H.G.G.G.G.G.G.H.H.G.b.b.b.b.<.o.b.b.b.b.b.$.gXgXgXgXgXgXgXgXgXgXgXgXgXgXgXgXgXgXgXgXgXgXgXgXgXgXgXgXgXgXgX",
"gXgXgXgXgXZ.%X%X|.J.H.H.H.H.G.G.H.H.H.H.G.G.G.G.G.H.H.H.G.G.G.G.G.G.H.H.m.b.b.b.b.<...<.b.b.b.b.=.gXgXgXgXgXgXgXgXgXgXgXgXgXgXgXgXgXgXgXgXgXgXgXgXgXgXgXgXgXgXgX",
"gXgXgXgXgX].%X%X|.J.H.H.G.G.G.G.G.G.G.G.G.G.G.G.G.G.H.H.G.G.G.G.G.G.G.H.m.b.b.b.b.<. .%.l.b.b.b.>.gXgXgXgXgXgXgXgXgXgXgXgXgXgXgXgXgXgXgXgXgXgXgXgXgXgXgXgXgXgXgX",
"gXgXgXgXM.|.%X%X|.K.H.H.G.G.G.G.G.G.G.G.G.G.G.G.G.G.H.H.G.G.G.H.G.G.H.m.b.b.b.b.b.l...| >.b.b.b.>.gXgXgXgXgXgXgXgXgXgXgXgXgXgXgXgXgXgXgXgXgXgXgXgXgXgXgXgXgXgXgX",
"gXgXgXgX9.|.%X%X%X`.G.G.G.G.G.H.G.G.G.G.G.G.G.G.G.G.G.G.H.H.H.H.H.H.m.b.b.b.b.b.b.b.%. .%.<.b.b.>.gXgXgXgXgXgXgXgXgXgXgXgXgXgXgXgXgXgXgXgXgXgXgXgXgXgXgXgXgXgXgX",
"gXgXgXgX7.{.%X%X%X|.J.G.G.G.H.H.G.H.G.G.G.G.G.G.G.G.G.G.G.G.H.H.H.G.b.b.b.b.b.b.b.b.<.| ..%.l.b.>.gXgXgXgXgXgXgXgXgXgXgXgXgXgXgXgXgXgXgXgXgXgXgXgXgXgXgXgXgXgXgX",
"gXgXgXgX*.H.{.#X%X%XK.G.G.H.H.H.H.H.H.H.G.G.G.G.H.H.H.H.H.H.H.G.m.b.b.b.b.b.b.b.b.b.b.$.| $.$.,.$.gXgXgXgXgXgXgXgXgXgXgXgXgXgXgXgXgXgXgXgXgXgXgXgXgXgXgXgXgXgXgX",
"gXgXgXgX$.D.H.H.L.}._.H.H.H.H.H.H.H.H.H.G.G.G.H.H.H.H.H.H.H.m.b.b.b.b.b.b.b.b.b.b.b.b.<.| $.$... .gXgXgXgXgXgXgXgXgXgXgXgXgXgXgXgXgXgXgXgXgXgXgXgXgXgXgXgXgXgXgX",
"gXgXgXgXgX$.k.x.v.m.V.G.G.G.G.G.G.G.H.H.H.H.H.H.G.G.H.H.G.m.b.b.b.b.b.b.b.b.b.b.b.b.b.b.%.| $.] gXgXgXgXgXgXgXgXgXgXgXgXgXgXgXgXgXgXgXgXgXgXgXgXgXgXgXgXgXgXgXgX",
"gXgXgXgXgXgXgXgX} ....A ] ] | | +.+.%.k.k.k.v.m.G.G.m.n.b.b.b.b.b.b.b.<.,.,.<.<.b.b.b.b.b.>.| c gXgXgXgXgXgXgXgXgXgXgXgXgXgXgXgXgXgXgXgXgXgXgXgXgXgXgXgXgXgXgXgX",
"gXgXgXgXgXgXgXgXgXgXgXi f 9 k k k k k l 9 f v v b c l v f l l l l l l h h h t t l l l l h n z f gXgXgXgXgXgXgXgXgXgXgXgXgXgXgXgXgXgXgXgXgXgXgXgXgXgXgXgXgXgXgXgX",
"gXgXgXgXgXgXgXgXgXgXgXi G C f 0 k k k k 3 8 k k k 6 > gX  > > > > , < 6 : = - - 6 6 ; X gXgXgXgXgXgXgXgXgXgXgXgXgXgXgXgXgXgXgXgXgXgXgXgXgXgXgXgXgXgXgXgXgXgXgXgX",
"gXgXgXgXgXgXgXgXgXgXgXi G 0.J x 9 k k k 5 8 k k k < gXgX  > < < 6 6 4 - = : 6 6 : & % gXgXgXgXgXgXgXgXgXgXgXgXgXgXgXgXgXgXgXgXgXgXgXgXgXgXgXgXgXgXgXgXgXgXgXgXgX",
"gXgXgXgXgXgXgXgXgXgXi D 0.0.0.0.F f 9 k 8 8 k k k , gXgX  < 6 6 6 : & ; 6 6 6 ; % * > gXgXgXgXgXgXgXgXgXgXgXgXgXgXgXgXgXgXgXgXgXgXgXgXgXgXgXgXgXgXgXgXgXgXgXgXgX",
"gXgXgXgXgXgXgXgXgXgXi G 0.0.0.0.0.J x 7 3 9 k k 7 > gXgX  6 6 6 ; & 4 6 6 6 < * > > > X gXgXgXgXgXgXgXgXgXgXgXgXgXgXgXgXgXgXgXgXgXgXgXgXgXgXgXgXgXgXgXgXgXgXgXgX",
"gXgXgXgXgXgXgXgXgXgXi G 0.0.0.0.0.J F q 1 f 9 9 , gXgXgXX 6 6 6 6 6 6 6 6 : : = O 1 1 3 1 gXgXgXgXgXgXgXgXgXgXgXgXgXgXgXgXgXgXgXgXgXgXgXgXgXgXgXgXgXgXgXgXgXgXgX",
"gXgXgXgXgXgXgXgXgXgXi G 0.0.0.0.G D F m q u B g = gXgX  = 6 6 2 2 2 : - = @ @ w y D G J L w.L Z D gXgXgXgXgXgXgXgXgXgXgXgXgXgXgXgXgXgXgXgXgXgXgXgXgXgXgXgXgXgXgX",
"gXgXgXgXgXgXgXgXgXgXi G 0.0.J F V V V F q $ B B . gXgX. @         O # q w w w w y y s M Z K L K K Z N M s r w gXgXgXgXgXgXgXgXgXgXgXgXgXgXgXgXgXgXgXgXgXgXgXgXgX",
"gXgXgXgXgXgXgXgXgXgXi G J F V V F G G J B u u u . gXgX. @ @ @ @ @ + + gXgX@ o o o w w w w w w r r r r r M r r gXgXgXgXgXgXgXgXgXgXgXgXgXgXgXgXgXgXgXgXgXgXgXgXgX",
"gXgXgXgXgXgXgXgXgXgXp B B p m M V V V V m u u p . gXgXgXgXgXgXgXgXgXgXgXgXgXgXgXgXgXgXgXgXgXgXgXgXgXgXgXgXgXgXgXgXgXgXgXgXgXgXgXgXgXgXgXgXgXgXgXgXgXgXgXgXgXgXgX",
"gXgXgXgXgXgXgXgXgXgXe e q q r a M J q.G D M M s r gXgXgXgXgXgXgXgXgXgXgXgXgXgXgXgXgXgXgXgXgXgXgXgXgXgXgXgXgXgXgXgXgXgXgXgXgXgXgXgXgXgXgXgXgXgXgXgXgXgXgXgXgXgXgX",
"gXgXgXgXgXgXgXgXgXgXa s a w w w y Z i.h.i.0.G G D G M gXgXgXgXgXgXgXgXgXgXgXgXgXgXgXgXgXgXgXgXgXgXgXgXgXgXgXgXgXgXgXgXgXgXgXgXgXgXgXgXgXgXgXgXgXgXgXgXgXgXgXgXgX",
"gXgXgXgXgXgXgXgXgXgXw M M a r w w r a Z w.a.f.f.f.w.D D M r r gXgXgXgXgXgXgXgXgXgXgXgXgXgXgXgXgXgXgXgXgXgXgXgXgXgXgXgXgXgXgXgXgXgXgXgXgXgXgXgXgXgXgXgXgXgXgXgXgX",
"gXgXgXgXgXgXgXgXgXgXgX@ $ $ $ @ @ @ @ @ @ @ @ @ @ $ $ $ $ @ gXgXgXgXgXgXgXgXgXgXgXgXgXgXgXgXgXgXgXgXgXgXgXgXgXgXgXgXgXgXgXgXgXgXgXgXgXgXgXgXgXgXgXgXgXgXgXgXgXgX"
};
