/* XPM */
static char *result[] = {
/* columns rows colors chars-per-pixel */
"80 80 228 2 ",
"   c #341319",
".  c #1E0D20",
"X  c #200F20",
"o  c #231322",
"O  c #2A1824",
"+  c #2B1D2B",
"@  c #361C22",
"#  c #2F262F",
"$  c #3B2428",
"%  c #312631",
"&  c #3D2A31",
"*  c #392C37",
"=  c #3A343A",
"-  c #3E3C3E",
";  c #452724",
":  c #4D2D21",
">  c #462329",
",  c #4C262B",
"<  c #572D2B",
"1  c #562B2D",
"2  c #533122",
"3  c #5D322B",
"4  c #59372A",
"5  c #462F3A",
"6  c #5F2F30",
"7  c #453B39",
"8  c #5A3A39",
"9  c #61362F",
"0  c #633131",
"q  c #663A35",
"w  c #59463F",
"e  c #684538",
"r  c #6C443B",
"t  c #704D3F",
"y  c #402F40",
"u  c #453845",
"i  c #6B3E41",
"p  c #703F42",
"a  c #454445",
"s  c #4B444D",
"d  c #4B4B4C",
"f  c #53494C",
"g  c #484150",
"h  c #4D4C51",
"j  c #554A57",
"k  c #515153",
"l  c #56555B",
"z  c #5C545A",
"x  c #59595D",
"c  c #694A46",
"v  c #744944",
"b  c #675546",
"n  c #6B5547",
"m  c #6B5649",
"M  c #6D584C",
"N  c #735242",
"B  c #75554C",
"V  c #72594D",
"C  c #79584E",
"Z  c #684E57",
"A  c #6A5956",
"S  c #745D53",
"D  c #785C5A",
"F  c #776056",
"G  c #7B625A",
"H  c #5D5865",
"J  c #5C5C64",
"K  c #655C68",
"L  c #795D63",
"P  c #6A5F70",
"I  c #5F6168",
"U  c #686367",
"Y  c #63636C",
"T  c #6D6B6D",
"R  c #77686B",
"E  c #676673",
"W  c #6B6374",
"Q  c #6B6B74",
"!  c #6D6C7B",
"~  c #796B78",
"^  c #747272",
"/  c #72737C",
"(  c #7B737E",
")  c #79797C",
"_  c #970708",
"`  c #921314",
"'  c #961516",
"]  c #AB0202",
"[  c #A21613",
"{  c #971F24",
"}  c #942728",
"|  c #8E2F33",
" . c #9A363B",
".. c #A43130",
"X. c #A2661C",
"o. c #91403F",
"O. c #AD712A",
"+. c #A23F40",
"@. c #8B4D4F",
"#. c #9B4749",
"$. c #855B5A",
"%. c #99545A",
"&. c #A2464A",
"*. c #A3585C",
"=. c #83665D",
"-. c #916452",
";. c #AE6358",
":. c #905D65",
">. c #846563",
",. c #856964",
"<. c #896A66",
"1. c #896668",
"2. c #8C6C6B",
"3. c #946464",
"4. c #9B6866",
"5. c #926D6D",
"6. c #8B736A",
"7. c #95736D",
"8. c #846E71",
"9. c #976B74",
"0. c #887679",
"q. c #947373",
"w. c #9B7474",
"e. c #967977",
"r. c #9C7B7B",
"t. c #A06E7A",
"y. c #A37578",
"u. c #A37B7B",
"i. c #A97C7C",
"p. c #8C827A",
"a. c #998378",
"s. c #A5877C",
"d. c #A7917F",
"f. c #6F6F80",
"g. c #737383",
"h. c #7C7780",
"j. c #7B7B83",
"k. c #7D7D89",
"l. c #837C85",
"z. c #897981",
"x. c #A47884",
"c. c #828183",
"v. c #83838A",
"b. c #8A858D",
"n. c #8A898D",
"m. c #978687",
"M. c #9D9186",
"N. c #848491",
"B. c #8C8C93",
"V. c #908E94",
"C. c #939494",
"Z. c #93949B",
"A. c #9B9A9D",
"S. c #A48383",
"D. c #AC8382",
"F. c #AC8D84",
"G. c #A8878A",
"H. c #AD8B8B",
"J. c #B58484",
"K. c #B68987",
"L. c #B58C8C",
"P. c #AA958B",
"I. c #B69689",
"U. c #B5938C",
"Y. c #BB9A8C",
"T. c #A78E91",
"R. c #B38D92",
"E. c #A89896",
"W. c #B59494",
"Q. c #B99594",
"!. c #B39A96",
"~. c #BC9B94",
"^. c #BD9C9A",
"/. c #BFA18E",
"(. c #AFA498",
"). c #BDA593",
"_. c #9D9DA3",
"`. c #B29EA2",
"'. c #A6A6A9",
"]. c #B5A9AA",
"[. c #AEAEB2",
"{. c #B9B9BB",
"}. c #C19993",
"|. c #C29E9D",
" X c #C4A394",
".X c #C7AB96",
"XX c #C4A39B",
"oX c #C9A699",
"OX c #CCAC9C",
"+X c #D2AC9D",
"@X c #CAB198",
"#X c #CCB29A",
"$X c #D1B29C",
"%X c #D5B99F",
"&X c #C5A4A5",
"*X c #C8A7A6",
"=X c #CBABA5",
"-X c #C2ABAB",
";X c #D3B4A2",
":X c #D7B9A4",
">X c #DBBCA4",
",X c #D5B5A8",
"<X c #DBBAA8",
"1X c #C7B8B0",
"2X c #E2BEA9",
"3X c #DDC2A5",
"4X c #DEC8B8",
"5X c #E1C4A6",
"6X c #E3C4AA",
"7X c #E8C7AE",
"8X c #E5C9AA",
"9X c #EACBAD",
"0X c #EED0AF",
"qX c #EDCDB0",
"wX c #E0CBBE",
"eX c #F0CFB0",
"rX c #EFD1B0",
"tX c #F6D5B4",
"yX c #F8D7B6",
"uX c #F9D8B6",
"iX c #BDBDC1",
"pX c #C4C4C5",
"aX c #CCCCCD",
"sX c #CDCED0",
"dX c gray84",
"fX c #E4E4E4",
"gX c gray91",
"hX c None",
/* pixels */
"hXhXhXhXhXhXhXhXhXhXhXhXhXhXhXhXhXhXhXhXhXhXhXhXhXhXhXhXhXhXhXhXhXhXhXhXhXhXhXhXhXhXhXhXhXhXhXhXhXhXhXhXhXhXhXhXhXhXhXhXhXhXhXhXhXhXhXhXhXhXhXhXhXhXhXhXhXhXhXhX",
"hXhXhXhXhXhXhXhXhXhXhXhXhXhXhXhXhXhXhXhXhXhXhXhXhXhXhXhXhXhXhXhXhXhXhXhXw.H.W.R.W.W.G.hXhXhXhXhXhXhXhXhXhXhXhXhXhXhXhXhXhXhXhXhXhXhXhXhXhXhXhXhXhXhXhXhXhXhXhXhX",
"hXhXhXhXhXhXhXhXhXhXhXhXhXhXhXhXhXhXhXhXhXhXhXhXhXhXhXhXhXhXhXhXhXhXhX*.D.W.W.W.W.W.W.W.W.R.G.hXhXhXhXhXhXhXhXhXhXhXhXhXhXhXhXhXhXhXhXhXhXhXhXhXhXhXhXhXhXhXhXhX",
"hXhXhXhXhXhXhXhXhXhXhXhXhXhXhXhXhXhXhXhXhXhXhXhXhXhXhXhX9.9.G.W.R. ._ ` } +.&.y.K.W.W.W.R.G.x.x.t.3.3.hXhXhXhXhXhXhXhXhXhXhXhXhXhXhXhXhXhXhXhXhXhXhXhXhXhXhXhXhX",
"hXhXhXhXhXhXhXhXhXhXhXhXhXhXhXhXhXhXhXhXhXhXhXhXhXhXhXhXv p v $.1.L :.3. .} _ ` ' &.*.*.x.x.x.t.4.3.3.hXhXhXhXhXhXhXhXhXhXhXhXhXhXhXhXhXhXhXhXhXhXhXhXhXhXhXhXhX",
"hXhXhXhXhXhXhXhXhXhXhXhXhXhXhXhXhXhXhXhXhXhXhXhXhXhXhXhXhXhXhX6 8 k z z L 2.$.%.#.{ ` _ '  .%.%.3.3.hXhXhXhXhXhXhXhXhXhXhXhXhXhXhXhXhXhXhXhXhXhXhXhXhXhXhXhXhXhX",
"hXhXhXhXhXhXhXhXhXhXhXhXhXhXhXhXhXhXhXhXhXhXhXhXhXhXhXhXhXhXhXhXl ! l l J x l A L 4.4.#.#.| ` ' }  .hXhXhXhXhXhXhXhXhXhXhXhXhXhXhXhXhXhXhXhXhXhXhXhXhXhXhXhXhXhX",
"hXhXhXhXhXhXhXhXhXhXhXhXhXhXhXhXhXhXhXhXhXhXhXhXhXhXhXhX/.#Xs.h J l Y g.g.g.! Y K -.X.O.-.~ 1.o.} hXhXhXhXhXhXhXhXhXhXhXhXhXhXhXhXhXhXhXhXhXhXhXhXhXhXhXhXhXhXhX",
"hXhXhXhXhXhXhXhXhXhXhXhXhXhXhXhXhXhXhXhXhXhXhXhXhXhXhX$X5X>Xa.d k J g.g.g.g.g.g.I Y A p.^ / ~ i q v @.hXhXhXhXhXhXhXhXhXhXhXhXhXhXhXhXhXhXhXhXhXhXhXhXhXhXhXhXhX",
"hXhXhXhXhXhXhXhXhXhXhXhXhXhXhXhXhXhXhXhXhXhXhXhXhXhXOX9X7X5Xa.Y h J g.g.g.g.k.k.Q ) '.'.B._.j.f hXhXhXhXhXhXhXhXhXhXhXhXhXhXhXhXhXhXhXhXhXhXhXhXhXhXhXhXhXhXhXhX",
"hXhXhXhXhXhXhXhXhXhXhXhXhXhXhXhXhXhXhXhXhXhX<X6X8X7XoX8Xd..X%XE.n.T x Y ! Y c.) C.Z.B.v.Q ! hXhXhXhXhXhXhXhXhXhXhXhXhXhXhXhXhXhXhXhXhXhXhXhXhXhXhXhXhXhXhXhXhXhX",
"hXhXhXhXhXhXhXhXhXhXhXhXhXhXhXhXhXhXhX>X6XtXtXyXyXyX%X).F.P.Y.@X).E.v.A z U x j.Z.A.b.U D hXhXhXhXhXhXhXhXhXhXhXhXhXhXhXhXhXhXhXhXhXhXhXhXhXhXhXhXhXhXhXhXhXhXhX",
"hXhXhXhXhXhXhXhXhXhXhXhXhXhXhXhXhX5X<X6X6X7X7XtXyXyXyX8XOXOX$X5XtX%X(.E.A.6.A i i T r.u.u.5.hX>.hXhXhXhXhXhXhXhXhXhXhXhXhXhXhXhXhXhXhXhXhXhXhXhXhXhXhXhXhXhXhXhX",
"hXhXhXhXhXhXhXhXhXhXhXhXhXhXhX$X9XyXyXyXyXtXqX7XqXyXyXyX5XOX~.~.#X8X8X@X1X_...] _ ( q.<.=.>.2.hXhXhXhXhXhXhXhXhXhXhXhXhXhXhXhXhXhXhXhXhXhXhXhXhXhXhXhXhXhXhXhXhX",
"hXhXhXhXhXhXhXhXhXhXhXhXhXhX$X9XyXyXyXyX0XtXyXyXqX7XtXyXtX7X:XXXW.W.oX3X).].} _ _ | j.0.J.K.w.>.hXhXhXhXhXhXhXhXhXhXhXhXhXhXhXhXhXhXhXhXhXhXhXhXhXhXhXhXhXhXhXhX",
"hXhXhXhXhXhXhXhXhXhXhXhXhXhX<XyXyXyXyXyX6X7XyXyXyXtX7X7XyXyXtX6X;XXX~.~.;X:XP.#.] ] @.~ i.K.w.2.5.hXhXhXhXhXhXhXhXhXhXhXhXhXhXhXhXhXhXhXhXhXhXhXhXhXhXhXhXhXhXhX",
"hXhXhXhXhXhXhXhXhXhXhXhXhXhX,XyXyXyXyXtX;X2XuXyXyXyXtX<XrXyXyXyX0X8X:XXXW.^.;X/...] ] } q.K.w.w.u.5.hXhXhXhXhXhXhXhXhXhXhXhXhXhXhXhXhXhXhXhXhXhXhXhXhXhXhXhXhXhX",
"hXhXhXhXhXhXhXhXhXhXhXhXhXe.=XyXyXyXyX6XQ.:XuXyXyXyXyX7X:X7XyXyXyXtX9X3X;X^.W.).Y.;.[ ` q.i.5.u.K.5.hXhXhXhXhXhXhXhXhXhXhXhXhXhXhXhXhXhXhXhXhXhXhXhXhXhXhXhXhXhX",
"hXhXhXhXhXhXhXhXhXhXhXhXhXe.=XyXyXyXtX,XR.:XuXyXyXyXyXtXoX,XyXyXyXyXyXtX8X>XOX~.W.~.s.@.q.y.w.K.i.2.hXhXhXhXhXhXhXhXhXhXhXhXhXhXhXhXhXhXhXhXhXhXhXhXhXhXhXhXhXhX",
"hXhXhXhXhXhXhXhXhXhXhXhXhXe.=XyXyXtX<X|.}.2XuXyX6XtXyXeX X*X<XqXyXyXyXyXyX9X3X:XXXW.W.P.s.5.5.J.q.2.hXhXhXhXhXhXhXhXhXhXhXhXhXhXhXhXhXhXhXhXhXhXhXhXhXhXhXhXhXhX",
"hXhXhXhXhXhXhXhXhXhXhXhXhXe.^.rX9X:X=XQ.+XyXyXtX$XtXyX9XI.&X&X=X6XqXtXuXyXyXtX8X3X;X^.W.W.r.=.w.5.2.hXhXhXhXhXhXhXhXhXhXhXhXhXhXhXhXhXhXhXhXhXhXhXhXhXhXhXhXhXhX",
"hXhXhXhXhXhXhXhXhXhXhXhXhXe.W.=X=X&X|.}.6XyXtX5XY.9XyX3Xe.&X&X&X*X=X,X>XI.#XrXyXrX8X>XOXW.a.F G G <.hXhXhXhXhXhXhXhXhXhXhXhXhXhXhXhXhXhXhXhXhXhXhXhXhXhXhXhXhXhX",
"hXhXhXhXhXhXhXhXhXhXhXhXhXhXr.&X&X|.}.<XyX9X5XoX XeXyX$X2.Q.&X&X&X&X&XF.a.a.OX6X7X8X3X3X X7.F G S ,.hXhXhXhXhXhXhXhXhXhXhXhXhXhXhXhXhXhXhXhXhXhXhXhXhXhXhXhXhXhX",
"hXhXhXhXhXhXhXhXhXhXhXhXhXhXr.&X&X|.+XtX8X<XOX X:XyXtXF.q.W.^.&X&X&X&X&XW.&X&X&X=X=X=X=X=X^.6.G S ,.e.hXhXhXhXhXhXhXhXhXhXhXhXhXhXhXhXhXhXhXhXhXhXhXhXhXhXhXhXhX",
"hXhXhXhXhXhXhXhXhXhXhXhXhXhXe.&X&X&X,X;X XY.Y. X>X7X2X2.e.r.H.^.&X&X&X&X&X&X&X&X&X^.!.`.-X-Xm.G F 2.q.hXhXhXhXhXhXhXhXhXhXhXhXhXhXhXhXhXhXhXhXhXhXhXhXhXhXhXhXhX",
"hXhXhXhXhXhXhXhXhXhXhXhXhXhX2.&X&X&XW.D.i.i.u.u.F.U.F.6.2.1.e.r.u.Q.Q.S.S.r.S.H.S.b._.v.V.n.b.R M S G m m hXhXhXhXhXhXhXhXhXhXhXhXhXhXhXhXhXhXhXhXhXhXhXhXhXhXhX",
"hXhXhXhXhXhXhXhXhXhXhXhXhXhX2.&X|.H.i.J.J.s.U./.<X8X8X6X$XY.F.m.e.r.e.u.W.2.I.U.,.N.iXl.~.U.M.m.S S >.2.<.G hXhXhXhXhXhXhXhXhXhXhXhXhXhXhXhXhXhXhXhXhXhXhXhXhXhX",
"hXhXhXhXhXhXhXhXhXhXhXhXhXhX2.|.U.oXU.K.L.oX9XyXyXyXyXyXuXyX7X@Xs.r.2.S.Q.5.Y.L.M k.'.l.W.m.0.z.S G 5.5.2.w.5.=.G hXhXhXhXhXhXhXhXhXhXhXhXhXhXhXhXhXhXhXhXhXhXhX",
"hXhXhXhXhXhXhXhXhXhXhXhXhXhX2.H.^.|.oXXX*X:X7XtXyXyXyXyXyXyXuXrX#XP.a.a.G.2.Y.J.m k._.g.l.v.( 8.M ,.r.i.i.K.K.J.i.q.1.hXhXhXhXhXhXhXhXhXhXhXhXhXhXhXhXhXhXhXhXhX",
"hXhXhXhXhXhXhXhXhXhXhXhXhXhXhXhXx.W.|.&X&X&X&X=X,XqXtXyXyXqX$X@X3X%X)..XY.e.U.q.6.p.M.M.P.P.e.,.M ,.D.K.K.J.J.K.J.u.w.w.2.2.hXhXhXhXhXhXhXhXhXhXhXhXhXhXhXhXhXhX",
"hXhXhXhXhXhXhXhXhXhXhXhXhXhXhXhXhXq.S.L.^.&X&X&X&X=X,X<X3X)..X3X@X3X0XyXyXqX>XI.a.F. XOX#X;XF.2.S >.u.J.K.K.K.J.w.y.i.w.i.i.q.2.hXhXhXhXhXhXhXhXhXhXhXhXhXhXhXhX",
"hXhXhXhXhXhXhXhXhXhXhXhXhXhXhXhXhXa.K.D.s.u.S.H.^.&X&X^.e.I.I.Y.;XtXyXuXtX>X4XwX-X8.U.Y.Y.Y.s.2.2.S 2.e.i.J.7.w.i.w.y.J.K.K.i.w.1.hXhXhXhXhXhXhXhXhXhXhXhXhXhXhX",
"hXhXhXhXhXhXhXhXhXhXhXhXhXhXhXhXhXd. XY.I.U.H.S.r.u.H.W.e.H.S.&X=X=X<X%X#X1X{.{.{.A.b.T.W.S.<.=.>.<.S 2.e.q.M 5.=.i.K.K.J.G.T.C.( ^ ^ hXhXhXhXhXhXhXhXhXhXhXhXhX",
"hXhXhXhXhXhXhXhXhXhXhXhXhXhXhXhXhXs.Y.U.W.W.W.W.W.L.S.u.r.u.S.Q.&X*XH.E.'.{.sXfXfXfXaX[.T.R.s.i.5.2.,.D G ,.M ,.M w.u.w.e.b.) / B.A.A.n.) x hXhXhXhXhXhXhXhXhXhX",
"hXhXhXhXhXhXhXhXhXhXhXhXhXhXhXhXhXa.U.W.W.W.W.W.W.W.W.W.L.G.r.u.S.W.e.m.g.iXdXfXfXfXgXfXsX_.G.J.5.2.q.m hXhXb b m >.1.1.~ I Y n.C.C.C.C.C.n.T hXhXhXhXhXhXhXhXhX",
"hXhXhXhXhXhXhXhXhXhXhXhXhXhXhXhXhXa.W.W.W.W.W.W.W.W.W.W.W.W.W.W.r.5.<.0.Q _.sXdXfXgXgXfXgXfX{.!.e.2.q.M hXhXhXhXhXV D >.R x E B.C.C.C.C.n.C.C.p.U J hXhXhXhXhXhX",
"hXhXhXhXhXhXhXhXhXhXhXhXhXhXhXhXr.H.W.W.W.W.W.W.W.W.W.W.W.W.W.W.S.q.2.e.x.z.'.dXdXdXfXfXpXaXdXpXpXA.0.m hXhXhXhXhXhXhXD U l x / n.C.C.n.J Q / j.c.c.U l hXhXhXhX",
"hXhXhXhXhXhXhXhXhXhXhXhXhXhXhXhXr.W.W.W.W.W.W.W.W.W.W.W.W.W.W.W.S.q.2.S.Q.J.( '.aXaX'.aXsX{.pXaX[.{.'.T hXhXhXhXhXhXhXhXhXhXhXhXY j.B.n.k hXhXhXhXU ^ U Y x hXhX",
"hXhXhXhXhXhXhXhXhXhXhXhXhXhXhXhXr.W.W.W.W.W.W.W.W.W.W.W.W.W.W.W.S.q.2.S.W.W.2.z.V.aX{.k.n.'.{._.[.B.'.g.hXhXhXhXhXhXhXhXhXhXhXhXhXx g.g.Y hXhXhXhXd E J E x hXhX",
"hXhXhXhXhXhXhXhXhXhXhXhXhXhXhXhXr.W.W.W.W.W.W.W.W.W.W.W.W.W.W.W.S.q.2.S.W.W.2.L.G.b.Z.A.z.0.C.B.Z.k.B.! 8.hXhXhXhXhXhXhXhXhXhXhXhXhXg.f.Q k hXhXhXJ E J J l hXhX",
"hXhXhXhXhXhXhXhXhXhXhXhXhXhXhXhXr.W.W.W.W.W.W.W.W.W.W.W.W.W.W.W.S.2.w.L.W.W.2.H.W.H.j.Z.( e.c.b.l.~ R 8.5.b hXhXhXhXhXhXhXhXhXhXhXhXhXx J hXhXhXhXx x l hXhXhXhX",
"hXhXhXhXhXhXhXhXhXhXhXhXhXhXhXhXr.W.W.W.W.W.W.W.W.W.W.W.W.W.W.W.S.1.u.Q.W.W.2.H.W.W.T.m.m.W.G.T.K.5.2.q.q.b hXhXhXhXhXhXhXhXhXhXhXhXhXhXhXhXhXhXhXhXhXhXhXhXhXhX",
"hXhXhXhXhXhXhXhXhXhXhXhXhXhXhXhXhXS.W.W.W.W.W.W.W.W.W.~.W.W.W.W.S.2.w.u.S.S.2.L.W.W.W.W.W.W.W.W.L.5.2.q.q.b hXhXhXhXhXhXhXhXhXhXhXhXhXhXhXhXhXhXhXhXhXhXhXhXhXhX",
"hXhXhXhXhXhXhXhXhXhXhXhXhXhXhXhXhXr.W.W.W.W.W.W.W.W.W. XW.W.W.W.S.q.q.5.2.i.G.W.W.W.W.W.W.W.W.W.L.5.2.q.q.b hXhXhXhXhXhXhXhXhXhXhXhXhXhXhXhXhXhXhXhXhXhXhXhXhXhX",
"hXhXhXhXhXhXhXhXhXhXhXhXhXhXhXhXhXr.W.W.W.W.W.W.W.W.}. X~.W.W.W.W.G.G.G.G.L.W.W.W.W.W.W.W.W.W.W.L.5.5.q.q.b hXhXhXhXhXhXhXhXhXhXhXhXhXhXhXhXhXhXhXhXhXhXhXhXhXhX",
"hXhXhXhXhXhXhXhXhXhXhXhXhXhXhXhXe.G.W.W.W.W.W.W.W.W.~. X~.W.W.W.W.W.W.W.W.W.W.W.W.W.W.W.W.W.W.W.L.5.5.q.q.b hXhXhXhXhXhXhXhXhXhXhXhXhXhXhXhXhXhXhXhXhXhXhXhXhXhX",
"hXhXhXhXhXhXhXhXhXhXhXhXhXhXhXhXr.W.W.W.W.W.W.W.W.W.W. XW.W.W.W.W.W.W.W.W.W.W.W.W.W.W.W.W.W.W.W.L.5.2.q.q.b hXhXhXhXhXhXhXhXhXhXhXhXhXhXhXhXhXhXhXhXhXhXhXhXhXhX",
"hXhXhXhXhXhXhXhXhXhXhXhXhXhXhXhXr.W.W.W.W.W.W.W.W.W.W.Q.W.W.W.W.W.W.W.W.W.W.W.W.W.W.W.W.W.W.W.W.L.5.2.q.q.b hXhXhXhXhXhXhXhXhXhXhXhXhXhXhXhXhXhXhXhXhXhXhXhXhXhX",
"hXhXhXhXhXhXhXhXhXhXhXhXhXhXhXhXu.W.W.W.W.W.W.W.W.W.W.W.W.W.W.W.W.W.W.W.W.W.W.W.W.W.W.W.W.W.W.W.K.5.2.q.2.b hXhXhXhXhXhXhXhXhXhXhXhXhXhXhXhXhXhXhXhXhXhXhXhXhXhX",
"hXhXhXhXhXhXhXhXhXhXhXhXhXhXhXe.W.W.W.W.W.W.W.W.W.W.W.W.W.W.W.W.W.W.W.W.W.W.W.W.W.W.W.W.W.W.W.W.u.2.5.q.M hXhXhXhXhXhXhXhXhXhXhXhXhXhXhXhXhXhXhXhXhXhXhXhXhXhXhX",
"hXhXhXhXhXhXhXhXhXhXhXhXhXhXhXS.W.W.W.W.W.W.W.W.W.W.W.W.W.W.W.W.W.W.W.W.W.W.W.W.W.W.W.W.W.W.W.L.w.2.q.q.m hXhXhXhXhXhXhXhXhXhXhXhXhXhXhXhXhXhXhXhXhXhXhXhXhXhXhX",
"hXhXhXhXhXhXhXhXhXhXhXhXhXhXe.W.W.W.W.W.W.W.W.W.W.W.W.W.W.W.W.W.W.W.W.W.W.W.W.W.W.W.W.W.W.W.L.J.<.2.q.S hXhXhXhXhXhXhXhXhXhXhXhXhXhXhXhXhXhXhXhXhXhXhXhXhXhXhXhX",
"hXhXhXhXhXhXhXhXhXhXhXhXhXe.G.W.W.W.W.W.W.W.W.W.W.W.W.W.W.W.W.W.W.W.W.W.W.W.W.W.W.W.W.W.W.W.L.w.>.2.2.m hXhXhXhXhXhXhXhXhXhXhXhXhXhXhXhXhXhXhXhXhXhXhXhXhXhXhXhX",
"hXhXhXhXhXhXhXhXhXhXhXhXhXe.W.W.W.W.W.W.W.W.W.W.W.W.W.W.W.W.W.W.W.W.W.W.W.W.W.W.W.W.W.W.W.L.D.<.2.e.S hXhXhXhXhXhXhXhXhXhXhXhXhXhXhXhXhXhXhXhXhXhXhXhXhXhXhXhXhX",
"hXhXhXhXhXhXhXhXhXhXhXhXe.H.W.W.W.W.W.W.W.W.W.W.W.W.W.W.W.W.W.W.W.W.W.W.W.W.W.W.W.W.W.W.W.L.w.,.q.e.M hXhXhXhXhXhXhXhXhXhXhXhXhXhXhXhXhXhXhXhXhXhXhXhXhXhXhXhXhX",
"hXhXhXhXhXhXhXhXhXhXhXhXr.W.W.W.W.W.W.W.W.W.W.W.W.W.W.W.W.W.W.W.W.W.W.W.W.W.W.W.W.W.W.W.W.G.2.2.e.G hXhXhXhXhXhXhXhXhXhXhXhXhXhXhXhXhXhXhXhXhXhXhXhXhXhXhXhXhXhX",
"hXhXhXhXhXhXhXhXhXhXhXq.L.W.W.W.W.W.W.W.W.W.W.W.W.W.W.W.W.W.W.W.W.W.W.W.W.W.W.W.W.W.W.W.L.i.>.2.e.S hXhXhXhXhXhXhXhXhXhXhXhXhXhXhXhXhXhXhXhXhXhXhXhXhXhXhXhXhXhX",
"hXhXhXhXhXhXhXhXhXhXhXS.W.W.W.W.W.W.W.W.W.W.W.W.W.W.W.W.W.W.W.W.W.W.W.W.W.W.W.W.W.W.W.W.K.q.2.e.q.S hXhXhXhXhXhXhXhXhXhXhXhXhXhXhXhXhXhXhXhXhXhXhXhXhXhXhXhXhXhX",
"hXhXhXhXhXhXhXhXhXhXq.H.W.W.W.W.W.W.W.W.W.W.W.W.W.W.W.W.W.W.W.W.W.W.W.W.W.W.W.W.W.W.W.R.i.>.1.e.G hXhXhXhXhXhXhXhXhXhXhXhXhXhXhXhXhXhXhXhXhXhXhXhXhXhXhXhXhXhXhX",
"hXhXhXhXhXhXhXhXhXhXS.W.W.W.W.W.W.W.W.W.W.W.W.W.W.W.W.W.W.W.W.W.W.W.W.W.W.W.W.W.W.W.W.L.i.S G e.S hXhXhXhXhXhXhXhXhXhXhXhXhXhXhXhXhXhXhXhXhXhXhXhXhXhXhXhXhXhXhX",
"hXhXhXhXhXhXhXhXhXq.H.W.L.L.L.W.W.W.W.W.W.W.W.W.W.W.W.W.W.W.W.W.W.W.W.W.W.W.W.W.W.W.L.J.w.S G e.S hXhXhXhXhXhXhXhXhXhXhXhXhXhXhXhXhXhXhXhXhXhXhXhXhXhXhXhXhXhXhX",
"hXhXhXhXhXhXhXhXhXq.H.L.K.L.W.W.W.W.W.W.W.W.W.W.W.W.W.W.W.W.W.W.W.W.W.W.W.W.W.W.W.L.K.i.2.S G e.S hXhXhXhXhXhXhXhXhXhXhXhXhXhXhXhXhXhXhXhXhXhXhXhXhXhXhXhXhXhXhX",
"hXhXhXhXhXhXhXhXhXq.H.K.L.W.W.W.W.W.W.W.W.W.W.W.W.W.W.W.W.W.W.W.W.W.W.W.W.W.W.W.L.K.K.i.1.S G e.S hXhXhXhXhXhXhXhXhXhXhXhXhXhXhXhXhXhXhXhXhXhXhXhXhXhXhXhXhXhXhX",
"hXhXhXhXhXhXhXhXhXq.i.K.W.W.W.W.W.W.W.W.W.W.W.W.W.W.W.W.W.W.W.W.W.W.W.W.W.W.W.L.K.J.K.y.S S S >.M hXhXhXhXhXhXhXhXhXhXhXhXhXhXhXhXhXhXhXhXhXhXhXhXhXhXhXhXhXhXhX",
"hXhXhXhXhXhXhXhXhXq.D.K.L.W.W.W.W.W.W.W.W.W.W.W.W.W.W.W.W.W.W.W.W.W.W.W.L.L.K.J.K.J.K.w.w f b hXhXhXhXhXhXhXhXhXhXhXhXhXhXhXhXhXhXhXhXhXhXhXhXhXhXhXhXhXhXhXhXhX",
"hXhXhXhXhXhXhXhXhX2.u.J.K.L.L.L.L.L.L.L.L.L.L.L.K.K.K.K.K.K.K.K.K.K.K.J.J.J.J.J.J.J.K.w.7 o hXhXhXhXhXhXhXhXhXhXhXhXhXhXhXhXhXhXhXhXhXhXhXhXhXhXhXhXhXhXhXhXhXhX",
"hXhXhXhXhXhXhXhXhXhXV <.w.i.i.i.i.i.i.i.i.y.w.w.7.5.<.w.q.D $.$.$.$.C B B B B B c B B n & . hXhXhXhXhXhXhXhXhXhXhXhXhXhXhXhXhXhXhXhXhXhXhXhXhXhXhXhXhXhXhXhXhXhX",
"hXhXhXhXhXhXhXhXhXhX$ e C C C C C C C v r N N N N t 2 hXhX@ 2 2 2 2 2 2 3 0 1 > , 6 , @ o hXhXhXhXhXhXhXhXhXhXhXhXhXhXhXhXhXhXhXhXhXhXhXhXhXhXhXhXhXhXhXhXhXhXhX",
"hXhXhXhXhXhXhXhXhXhXX 8 r t N N N N t 4 e N N N N 3 2 hXO : 2 2 2 2 3 0 6 , > 3 3 > @   hXhXhXhXhXhXhXhXhXhXhXhXhXhXhXhXhXhXhXhXhXhXhXhXhXhXhXhXhXhXhXhXhXhXhXhX",
"hXhXhXhXhXhXhXhXhXhXo z A r r N N N e 4 N N N N q 2 hXo : 2 2 2 3 0 0 1 > 1 0 , $ ; ; hXhXhXhXhXhXhXhXhXhXhXhXhXhXhXhXhXhXhXhXhXhXhXhXhXhXhXhXhXhXhXhXhXhXhXhXhX",
"hXhXhXhXhXhXhXhXhXy j K W K c r t N e 9 N N N N 4 hXhX@ 2 2 < 0 0 1 > , 6 1 > ; : O hXhXhXhXhXhXhXhXhXhXhXhXhXhXhXhXhXhXhXhXhXhXhXhXhXhXhXhXhXhXhXhXhXhXhXhXhXhX",
"hXhXhXhXhXhXhXhXhXy E ! P W W K Z 8 , e N N N e 2 hXo : 2 3 0 0 0 1 1 0 , $ ; : : O hXhXhXhXhXhXhXhXhXhXhXhXhXhXhXhXhXhXhXhXhXhXhXhXhXhXhXhXhXhXhXhXhXhXhXhXhXhX",
"hXhXhXhXhXhXhXhXhXu Q g.g.W W W W j * Z c r N 4 hXhXo 2 0 0 0 0 0 0 0 0 < > @ @ $ @ o hXhXhXhXhXhXhXhXhXhXhXhXhXhXhXhXhXhXhXhXhXhXhXhXhXhXhXhXhXhXhXhXhXhXhXhXhX",
"hXhXhXhXhXhXhXhXy H g.g.g.! W W P j * j z j c 4 hXhXo 3 0 0 0 0 0 1 , , 5 y y u h h s hXhXhXhXhXhXhXhXhXhXhXhXhXhXhXhXhXhXhXhXhXhXhXhXhXhXhXhXhXhXhXhXhXhXhXhXhX",
"hXhXhXhXhXhXhXhXy H ! W W W ! W P K y % s s s 4 hXhXo & & & & & $ * = = h l J E j.v.g./ Q E l hXhXhXhXhXhXhXhXhXhXhXhXhXhXhXhXhXhXhXhXhXhXhXhXhXhXhXhXhXhXhXhXhX",
"hXhXhXhXhXhXhXhXy j W W K J K K l H l g g s u 7 hXhXo % * * * * = a a a u - - a a k U T l.) j.) E J J k a = hXhXhXhXhXhXhXhXhXhXhXhXhXhXhXhXhXhXhXhXhXhXhXhXhXhX",
"hXhXhXhXhXhXhXhXhXO s j a k Y j.k.! ! E Y J l h a hXo o # % # % + O + + O O O o O % % * = a k k h h d k d % o hXhXhXhXhXhXhXhXhXhXhXhXhXhXhXhXhXhXhXhXhXhXhXhXhX",
"hXhXhXhXhXhXhXhXhXX u d a a d l h._._.k.k.N.k.g.Q J a hXhXhXhXhXhXhXhXhXhXhXhXhXhXhXhXhXhXhXhXhXhXhXhXhXhXhXhXhXhXhXhXhXhXhXhXhXhXhXhXhXhXhXhXhXhXhXhXhXhXhXhXhX",
"hXhXhXhXhXhXhXhXhXX + * * * * * = s j s s z j j j u = + hXhXhXhXhXhXhXhXhXhXhXhXhXhXhXhXhXhXhXhXhXhXhXhXhXhXhXhXhXhXhXhXhXhXhXhXhXhXhXhXhXhXhXhXhXhXhXhXhXhXhXhX",
"hXhXhXhXhXhXhXhXhXhXhXhXhXhXhXhXhXhXhXhXhXhXhXhXhXhXhXhXhXhXhXhXhXhXhXhXhXhXhXhXhXhXhXhXhXhXhXhXhXhXhXhXhXhXhXhXhXhXhXhXhXhXhXhXhXhXhXhXhXhXhXhXhXhXhXhXhXhXhXhX"
};
