/* XPM */
static char *result[] = {
/* columns rows colors chars-per-pixel */
"80 80 228 2 ",
"   c #231222",
".  c #291826",
"X  c #2E242E",
"o  c #3B242D",
"O  c #342B35",
"+  c #342C34",
"@  c #3C2A33",
"#  c #3C363C",
"$  c #4B1619",
"%  c #6D1215",
"&  c #46242A",
"*  c #582B2E",
"=  c #56352B",
"-  c #5C322B",
";  c #493138",
":  c #553131",
">  c #573739",
",  c #61302F",
"<  c #603F2F",
"1  c #612F30",
"2  c #633131",
"3  c #633D35",
"4  c #7D3435",
"5  c #68473A",
"6  c #714D3F",
"7  c #453845",
"8  c #573D42",
"9  c #513F50",
"0  c #444344",
"q  c #4B424A",
"w  c #4C4C4C",
"e  c #5A4149",
"r  c #4F4F50",
"t  c #544655",
"y  c #514A51",
"u  c #525255",
"i  c #54555A",
"p  c #59575D",
"a  c #6E4343",
"s  c #6C4845",
"d  c #6A5445",
"f  c #6E594C",
"g  c #745242",
"h  c #725C4F",
"j  c #614A58",
"k  c #69575B",
"l  c #745C51",
"z  c #795F54",
"x  c #7F6C4A",
"c  c #7C625A",
"v  c #7B6558",
"b  c #5D4F60",
"n  c #5D5563",
"m  c #5C5C64",
"M  c #665C69",
"N  c #6B5E6B",
"B  c #626166",
"V  c #6B686D",
"C  c #7A6867",
"Z  c #656573",
"A  c #6B6272",
"S  c #6C6B75",
"D  c #6D6778",
"F  c #6C6B7A",
"G  c #706D7D",
"H  c #7A6E79",
"J  c #757479",
"K  c #950607",
"L  c #960D10",
"P  c #981417",
"I  c #A70000",
"U  c #AD0202",
"Y  c #A61E1B",
"T  c #B2191A",
"R  c #942528",
"E  c #962E33",
"W  c #A9292A",
"Q  c #AE3639",
"!  c #AA7A38",
"~  c #A73C41",
"^  c #9D414B",
"/  c #AB4A4B",
"(  c #84675E",
")  c #A76045",
"_  c #935B65",
"`  c #A15B67",
"'  c #876666",
"]  c #886767",
"[  c #856866",
"{  c #8A6A63",
"}  c #8C6B6A",
"|  c #956A66",
" . c #926E6D",
".. c #8E706D",
"X. c #93716D",
"o. c #99736D",
"O. c #9C6C76",
"+. c #877476",
"@. c #947373",
"#. c #9B7574",
"$. c #967D73",
"%. c #9C7A76",
"&. c #9D7A7A",
"*. c #A96968",
"=. c #B26766",
"-. c #A16976",
";. c #A17776",
":. c #A37C7C",
">. c #AA7D7D",
",. c #C37A49",
"<. c #C36869",
"1. c #BB862F",
"2. c #B78859",
"3. c #9A8877",
"4. c #9F837D",
"5. c #A2827C",
"6. c #A8867C",
"7. c #A28D7C",
"8. c #A6907A",
"9. c #6F6F80",
"0. c #716F80",
"q. c #737384",
"w. c #7B7B83",
"e. c #7C7D88",
"r. c #847B85",
"t. c #917A84",
"y. c #A57485",
"u. c #A57C81",
"i. c #B47C83",
"p. c #7F8081",
"a. c #898585",
"s. c #84848C",
"d. c #89898A",
"f. c #998889",
"g. c #9A918B",
"h. c #898793",
"j. c #8B8B93",
"k. c #988D93",
"l. c gray58",
"z. c #989398",
"x. c #9C9A9B",
"c. c #A48283",
"v. c #AC8383",
"b. c #AB8A82",
"n. c #AA868A",
"m. c #AC8B8B",
"M. c #B58484",
"N. c #B88686",
"B. c #B78C87",
"V. c #B48C8C",
"C. c #A99182",
"Z. c #B39384",
"A. c #B69887",
"S. c #B5948B",
"D. c #BC948C",
"F. c #B49B8A",
"G. c #BA9B8C",
"H. c #AE8D93",
"J. c #A79897",
"K. c #B59494",
"L. c #BA9694",
"P. c #B59C93",
"I. c #BC9B94",
"U. c #BE9D99",
"Y. c #BAA58F",
"T. c #BDA291",
"R. c #B5A398",
"E. c #9999A1",
"W. c #A5A5AB",
"Q. c #A9A5A8",
"!. c #B6ABA9",
"~. c #BCB1AB",
"^. c #ACACB2",
"/. c #B4B4B5",
"(. c #B5B5BA",
"). c #BDB9BA",
"_. c #C19B8F",
"`. c #C79C96",
"'. c #C19E9D",
"]. c #C1A28E",
"[. c #C3A394",
"{. c #C8AA96",
"}. c #C3A29B",
"|. c #CBAB9B",
" X c #D1AF9E",
".X c #CAB195",
"XX c #CDB19B",
"oX c #D3B39D",
"OX c #D4B79D",
"+X c #C5A4A4",
"@X c #C8A7A3",
"#X c #CAABA4",
"$X c #C9B3A7",
"%X c #D5B5A5",
"&X c #D8B6A5",
"*X c #D7B9A2",
"=X c #DBBBA4",
"-X c #D6B9A8",
";X c #DCBDAA",
":X c #C2BDBD",
">X c #DEC0A5",
",X c #DFC1A9",
"<X c #D7C4BA",
"1X c #E2C2A6",
"2X c #E3C4AA",
"3X c #E6C6AA",
"4X c #E6CAAA",
"5X c #EBCBAE",
"6X c #EED0AF",
"7X c #ECCBB1",
"8X c #F0CFB1",
"9X c #EFD1B0",
"0X c #F6D5B4",
"qX c #F8D7B5",
"wX c #F9D8B6",
"eX c #B9B9C1",
"rX c #C3C3C4",
"tX c #C7C4C8",
"yX c #CACACB",
"uX c #D6C8C3",
"iX c #CECED1",
"pX c #D4D4D5",
"aX c #D8D8D7",
"sX c #DADADB",
"dX c #E9E9E9",
"fX c #F6F6F6",
"gX c #F8F8F8",
"hX c None",
/* pixels */
"hXhXhXhXhXhXhXhXhXhXhXhXhXhXhXhXhXhXhXhXhXhXhXhXhXhXhXhXhXhXhXhXhXhXhXhXhXhXhXhXhXhXhXhXhXhXhXhXhXhXhXhXhXhXhXhXhXhXhXhXhXhXhXhXhXhXhXhXhXhXhXhXhXhXhXhXhXhXhXhX",
"hXhXhXhXhXhXhXhXhXhXhXhXhXhXhXhXhXhXhXhXhXhXhXhXhXhXhXhXhXhXhXhXhXhXhXhXhXhXhXhXhXhXhXhXhXhXhXhXhXhXhXhXhXhXhXhXhXhXhXhXhXhXhXhXhXhXhXhXhXhXhXhXhXhXhXhXhXhXhXhX",
"hXhXhXhXhXhXhXhXhXhXhXhXhXhXhXhXhXhXhXhXhXhXhXhXhXhXhXhXhXhXhXhXu.K.H.H.n.hXhXhXhXhXhXhXhXhXhXhXhXhXhXhXhXhXhXhXhXhXhXhXhXhXhXhXhXhXhXhXhXhXhXhXhXhXhXhXhXhXhXhX",
"hXhXhXhXhXhXhXhXhXhXhXhXhXhXhXhXhXhXhXhXhXhXhXhXhXhXhXhXhXhX%.v.K.L.L.L.K.K.L.m.K.hXhXhXhXhXhXhXhXhXhXhXhXhXhXhXhXhXhXhXhXhXhXhXhXhXhXhXhXhXhXhXhXhXhXhXhXhXhXhX",
"hXhXhXhXhXhXhXhXhXhXhXhXhXhXhXhXhXhXhXhXhXhXhXhXhXhXhXhXhXT =.V.K.K.L.L.L.L.L.K.n.u.u.y.hXhXhXhXhXhXhXhXhXhXhXhXhXhXhXhXhXhXhXhXhXhXhXhXhXhXhXhXhXhXhXhXhXhXhXhX",
"hXhXhXhXhXhXhXhXhXhXhXhXhXhXhXhXhXhXhXhXhXhXhXhXL.@X'.i.W T U T T ~ *.*.M.m.u.;.O.-.;.y.y.O.hXhXhXhXhXhXhXhXhXhXhXhXhXhXhXhXhXhXhXhXhXhXhXhXhXhXhXhXhXhXhXhXhXhX",
"hXhXhXhXhXhXhXhXhXhXhXhXhXhXhXhXhXhXhXhXhXhXhXhXhXhXC f.K.i.<.<.Q P K K P R R ` -.y.y.y.O.hXhXhXhXhXhXhXhXhXhXhXhXhXhXhXhXhXhXhXhXhXhXhXhXhXhXhXhXhXhXhXhXhXhXhX",
"hXhXhXhXhXhXhXhXhXhXhXhXhXhXhXhXhXhXhXhXhXhXhXhX>XF.p q.G B k.k.H.V.=./ ~ P K L L E ^ _ 4 hXhXhXhXhXhXhXhXhXhXhXhXhXhXhXhXhXhXhXhXhXhXhXhXhXhXhXhXhXhXhXhXhXhXhX",
"hXhXhXhXhXhXhXhXhXhXhXhXhXhXhXhXhXhXhXhXhXhX2X5XOXV w.d.V S e.e.q.e.r.%.2.,.) ` E E R % hXhXhXhXhXhXhXhXhXhXhXhXhXhXhXhXhXhXhXhXhXhXhXhXhXhXhXhXhXhXhXhXhXhXhXhX",
"hXhXhXhXhXhXhXhXhXhXhXhXhXhXhXhXhXhXhXhXhX3X0XoX3.x d.S V l.l.l.j.j.j.+.1.1.! f.h.r.-._ y.y.hXhXhXhXhXhXhXhXhXhXhXhXhXhXhXhXhXhXhXhXhXhXhXhXhXhXhXhXhXhXhXhXhXhX",
"hXhXhXhXhXhXhXhXhXhXhXhXhXhXhXhXhXhXhXhX1X0XwX|.7.2.a.u a.l.l.l.l.x.x.p.J x.rX/.^.i hXhXhXhXhXhXhXhXhXhXhXhXhXhXhXhXhXhXhXhXhXhXhXhXhXhXhXhXhXhXhXhXhXhXhXhXhXhX",
"hXhXhXhXhXhXhXhXhXhXhXhXhXhXhXhXhXhXhX>X5X1XOXoXoXC.x.j.V J j.x.x.x.x.d./.pXrXW.S hXhXhXhXhXhXhXhXhXhXhXhXhXhXhXhXhXhXhXhXhXhXhXhXhXhXhXhXhXhXhXhXhXhXhXhXhXhXhX",
"hXhXhXhXhXhXhXhXhXhXhXhXhXhXhX=X3X7X0X3X=XoXI.[.OX3X%X~.W.w.S s.l.J a.^.^.h.z.}.G.hXhXhXhXhXhXhXhXhXhXhXhXhXhXhXhXhXhXhXhXhXhXhXhXhXhXhXhXhXhXhXhXhXhXhXhXhXhXhX",
"hXhXhXhXhXhXhXhXhXhXhX{.;X>X2X5X3X5X0XqX7X1X=X2X0XwXqX4X$X!.^.z.s.w.q.j.E.J.|.[.[.hXhXhXhXhXhXhXhXhXhXhXhXhXhXhXhXhXhXhXhXhXhXhXhXhXhXhXhXhXhXhXhXhXhXhXhXhXhXhX",
"hXhXhXhXhXhXhXhXhXhX5X0X0X0X0X0X0X0X3X7X7X1X|.[.}.|.;X8X0X*X$X:XW._ R R  .T.|.T.[.7.hXhXhXhXhXhXhXhXhXhXhXhXhXhXhXhXhXhXhXhXhXhXhXhXhXhXhXhXhXhXhXhXhXhXhXhXhXhX",
"hXhXhXhXhXhXhXhXoX5X9X0X0X0X0X0X9XqX0X7X2X5X0X5X&X|.I.I.*X2X4XT.z.v.W I K *.|.&X%X|.3.hXhXhXhXhXhXhXhXhXhXhXhXhXhXhXhXhXhXhXhXhXhXhXhXhXhXhXhXhXhXhXhXhXhXhXhXhX",
"hXhXhXhXhXhXhXhX3X0X3X0X0X0X0X0X4X0X0XqX3X3X0XqXqX0X5X>X|.[.[.=X=X$X~.Q U L D.|.|.[.3.hXhXhXhXhXhXhXhXhXhXhXhXhXhXhXhXhXhXhXhXhXhXhXhXhXhXhXhXhXhXhXhXhXhXhXhXhX",
"hXhXhXhXhXhXhX%X5X2X5X0X0X0X0X2X4X0X0X0X0X2X7XqX0XqXqXqX0X5XXXI.XX>X-X/ U U W '.+XP.7.C.hXhXhXhXhXhXhXhXhXhXhXhXhXhXhXhXhXhXhXhXhXhXhXhXhXhXhXhXhXhXhXhXhXhXhXhX",
"hXhXhXhXhXhXhX|.=X,X0X0X0X0X4X=X9X0X0X0XwX=X3XqX0X0X0X0X0XqX0X3X|.'.[.[.=.Y K / U.3.|.{.3.hXhXhXhXhXhXhXhXhXhXhXhXhXhXhXhXhXhXhXhXhXhXhXhXhXhXhXhXhXhXhXhXhXhXhX",
"hXhXhXhXhXhXhXG.oX0X0X0X5X;X&X,X0X0X0X0XwXoX1XqX0X0X0X0X0X0X0XqX0X2X'.L.[.D.E L L.7.&XOXC.hXhXhXhXhXhXhXhXhXhXhXhXhXhXhXhXhXhXhXhXhXhXhXhXhXhXhXhXhXhXhXhXhXhXhX",
"hXhXhXhXhXhXhXZ.=XwX0X,X#X'.=X0X0X6X4XqX7X[.OX0XqX0X0X0X0X0XqXqX0XwX0X;X}.U.m.| 4.3.&XoXC.hXhXhXhXhXhXhXhXhXhXhXhXhXhXhXhXhXhXhXhXhXhXhXhXhXhXhXhXhXhXhXhXhXhXhX",
"hXhXhXhXhXhXhX6.XX2X%X+X'._.5X0XqX6X4XwX[.b.|.5X0XqX0X0X0X0X5X1X0XqX0XqX8X&XU.K...v I.F.[.Z.hXhXhXhXhXhXhXhXhXhXhXhXhXhXhXhXhXhXhXhXhXhXhXhXhXhXhXhXhXhXhXhXhXhX",
"hXhXhXhXhXhXhX@.K.@X+X+XD.4X0X0X0X2X4X7X6.&.+X#X,X4X0X0XqX3X8.7..XwX0X0X0X0X3Xb.{ l m.7.&XT.hXhXhXhXhXhXhXhXhXhXhXhXhXhXhXhXhXhXhXhXhXhXhXhXhXhXhXhXhXhXhXhXhXhX",
"hXhXhXhXhXhXhX@.K.@X+XD.;X0X0X5X;X>X0XOX@.c.L.+X+X#X%X=X5X4X.X].5XwXqXqX0XqXqX3X$.h >.%.=X|.G.hXhXhXhXhXhXhXhXhXhXhXhXhXhXhXhXhXhXhXhXhXhXhXhXhXhXhXhXhXhXhXhXhX",
"hXhXhXhXhXhXhX>.L.'.L.*X0X0X2X&X=X6X0XZ.] #.c.L.'.+X+X+X#X#X%X;X3X7X7X7X7X7X7X;XU.l >.%.=X X[.hXhXhXhXhXhXhXhXhXhXhXhXhXhXhXhXhXhXhXhXhXhXhXhXhXhXhXhXhXhXhXhXhX",
"hXhXhXhXhXhXhX:.L.'.;X3X=X*XoXXXXX%X[.X.]  .@.&.n.K.U.+X'.K.K.K.L.K.K.J.tX!.Q.Q.J.+. .( S.%.#.hXhXhXhXhXhXhXhXhXhXhXhXhXhXhXhXhXhXhXhXhXhXhXhXhXhXhXhXhXhXhXhXhX",
"hXhXhXhXhXhXhXc.@X,X XM.6.M.b.G.[.|.{.A.6.:.&.&.:.&.X.L.:.S.S.S.5.&.b.g.tXJ.g.J.J.k. .f X.@.6.C.hXhXhXhXhXhXhXhXhXhXhXhXhXhXhXhXhXhXhXhXhXhXhXhXhXhXhXhXhXhXhXhX",
"hXhXhXhXhXhXhXc.+X7X`.M.M.Z.>X0X0XwX0X0X5X=X[.I.m.m.f n.} I.U.K.5.T.[.g.rX+XI.L.C x.@.v D.|.%X|.[.[.hXhXhXhXhXhXhXhXhXhXhXhXhXhXhXhXhXhXhXhXhXhXhXhXhXhXhXhXhXhX",
"hXhXhXhXhXhXhX&.'.,X2X2X3X5XqXqX0X0X0XqXqXqXqX5X*Xm.v c. .K.K.&.5.|.F.a.rXJ.f.f.N r.C z N.D.|.&X&X&X%X{.[.hXhXhXhXhXhXhXhXhXhXhXhXhXhXhXhXhXhXhXhXhXhXhXhXhXhXhX",
"hXhXhXhXhXhXhX@.n.'.$X2X0X0XqXqX0X0X0X0X0X0X0XqX0X%XoX{.G.I.G.Z.T.A.5.+.Q.x.k.k.l.a.C } X.>.B._. X&X&X&X|.7.7.hXhXhXhXhXhXhXhXhXhXhXhXhXhXhXhXhXhXhXhXhXhXhXhXhX",
"hXhXhXhXhXhXhXhXhX&.K.}.%X-X5X5X0X0X0XqXqX0X0X0XOX5X1X=X5X0X0X0X5X<X<XJ.f.C.Y..X.X{.A. .X.( N.M.D.[.|.T.F.|.F.F.[.[.T.hXhXhXhXhXhXhXhXhXhXhXhXhXhXhXhXhXhXhXhXhX",
"hXhXhXhXhXhXhXhXhXhX} @.c.V.}.#X-X;X2X7X6X0X|.[.{.=X=X0X0X0X0X7XuX).rXyX).x.R.*X=X=X{.%.o.( :.M.M.M.5.6.b.7.[.%X&X&X#X!.P.hXhXhXhXhXhXhXhXhXhXhXhXhXhXhXhXhXhXhX",
"hXhXhXhXhXhXhXhXhXhXhXhX6.S.:.5.m.m.L.}.@X-Xb.%X%XA.5X0X0X8X;X:X^.sXfXgXgXdXaX:XJ.C.G.b. .| { N.M.M.l ( :.b.[.|.%X@X!.W.Q.x.hXhXhXhXhXhXhXhXhXhXhXhXhXhXhXhXhXhX",
"hXhXhXhXhXhXhXhXhXhXhX3.[.%XG.b.5.c.:.:.&.c.@.&.K.@.I.|.2XoXJ.^.).gXfXgXfXgXgXfXdXtX!.t.@.X.( :.M.N.l ;.c M.M.B.I.^.^.rXaXyX/.h.hXhXhXhXhXhXhXhXhXhXhXhXhXhXhXhX",
"hXhXhXhXhXhXhXhXhXhXhXZ.|.G.A.L.L.L.L.K.m.m.m.m.:.&.&.:.n.c.f.z.W.sXdXfXfXfXgXfXfXdXyX/.J.c.{ d {  .f ( f %.M.N.c.E.pXaXaXaXsXyX^.e.hXhXhXhXhXhXhXhXhXhXhXhXhXhX",
"hXhXhXhXhXhXhXhXhXhXhXZ._.A.L.L.L.K.L.L.L.L.L.L.L.L.L.K.c.} n.r.H k.).iXdXfXsXsXaXrXsX(.tXtXr.hXhXhXhXhXhXl } o...h.pXaXaXaXaXaXsXiXE.hXhXhXhXhXhXhXhXhXhXhXhXhX",
"hXhXhXhXhXhXhXhXhXhXhX3.S.L.L.L.L.L.L.L.L.L.L.L.L.L.L.L.m.X.G.L.&.%.n.k.^.sXrXW.aXyXeXpX(.^.yXW.hXhXhXhXhXhXhXhXhXhXW.yXpXsX/.x.(.sXaX/.l.hXhXhXhXhXhXhXhXhXhXhX",
"hXhXhXhXhXhXhXhXhXhXhX@.H.L.L.L.L.L.L.L.K.L.L.L.L.L.L.L.n.o.[.L.&.&.L.V.u.x.tXG f.yX(.q.E.j.J W.hXhXhXhXhXhXhXhXhXhXhXh.^.rXh.Z hXz.^.pX/.hXhXhXhXhXhXhXhXhXhXhX",
"hXhXhXhXhXhXhXhXhXhXhX@.H.L.K.K.K.K.L.L.K.K.K.K.K.K.K.L.n.@.|.L.&.&.L.V.M.r.W.G u.a.E.A r.a.k d.hXhXhXhXhXhXhXhXhXhXhXhXl.l.e.hXhXZ D j.yXl.hXhXhXhXhXhXhXhXhXhX",
"hXhXhXhXhXhXhXhXhXhXhX@.H.K.K.K.K.K.L.L.K.K.K.K.K.L.L.L.n.#.|.A.c.#.m.L.B.t.f.+.v.&.+.[ @.@.c hXhXhXhXhXhXhXhXhXhXhXhXhXhXs.e.hXq.F Z s.).hXhXhXhXhXhXhXhXhXhXhX",
"hXhXhXhXhXhXhXhXhXhXhX#.K.L.K.K.K.K.L.L.L.L.L.L.L.L.L.L.n.@.oXI.K.#.&.L.B.M.>.M.M.M. .' %.v. .hXhXhXhXhXhXhXhXhXhXhXhXhXhXhXhXhXhXhXhXhXhXhXhXhXhXhXhXhXhXhXhXhX",
"hXhXhXhXhXhXhXhXhXhXhXM.K.L.L.L.K.K.L.L.L.L.K.K.L.L.L.L.n.@.|.}.L.n.#.m.B.M.M.M.M.v.} } :.N.#.hXhXhXhXhXhXhXhXhXhXhXhXhXhXhXhXhXhXhXhXhXhXhXhXhXhXhXhXhXhXhXhXhX",
"hXhXhXhXhXhXhXhXhXhX@.m.L.L.L.L.K.K.K.L.K.K.K.K.K.L.K.L.m.@.Z.%X[.L.c.#.M.M.M.M.M.>.' %.M.M.#.hXhXhXhXhXhXhXhXhXhXhXhXhXhXhXhXhXhXhXhXhXhXhXhXhXhXhXhXhXhXhXhXhX",
"hXhXhXhXhXhXhXhXhXhXv.K.L.L.L.L.K.K.L.L.K.K.K.K.K.K.K.K.K.u.@.%.#.@.@.} ;.M.M.M.M.>.' %.M.M.#.hXhXhXhXhXhXhXhXhXhXhXhXhXhXhXhXhXhXhXhXhXhXhXhXhXhXhXhXhXhXhXhXhX",
"hXhXhXhXhXhXhXhXhXhXm.K.L.L.L.L.K.K.K.K.K.K.L.L.L.L.K.K.K.K.n.:.#.&.%.&.#.v.M.M.M.>.] &.M.M.#.hXhXhXhXhXhXhXhXhXhXhXhXhXhXhXhXhXhXhXhXhXhXhXhXhXhXhXhXhXhXhXhXhX",
"hXhXhXhXhXhXhXhXhX@.m.L.L.L.L.L.K.K.K.K.K.K.L.L.K.L.K.K.K.K.L.K.K.K.K.K.M.M.M.M.M.>.] &.M.M.#.hXhXhXhXhXhXhXhXhXhXhXhXhXhXhXhXhXhXhXhXhXhXhXhXhXhXhXhXhXhXhXhXhX",
"hXhXhXhXhXhXhXhXhX>.H.K.K.K.L.L.K.K.K.K.L.L.L.L.L.K.L.L.K.K.K.K.L.L.L.L.B.M.M.M.M.>.] &.M.M.#.hXhXhXhXhXhXhXhXhXhXhXhXhXhXhXhXhXhXhXhXhXhXhXhXhXhXhXhXhXhXhXhXhX",
"hXhXhXhXhXhXhXhX&.m.K.K.K.K.L.L.L.K.K.L.L.L.L.L.L.L.L.L.L.K.K.L.L.K.L.L.B.M.M.M.M.>.] &.M.M.#.hXhXhXhXhXhXhXhXhXhXhXhXhXhXhXhXhXhXhXhXhXhXhXhXhXhXhXhXhXhXhXhXhX",
"hXhXhXhXhXhXhXhXL.L.L.L.L.L.L.K.L.L.L.L.K.K.L.L.L.L.L.L.L.L.L.L.L.L.L.V.M.M.M.M.M.>.] &.M.M.#.hXhXhXhXhXhXhXhXhXhXhXhXhXhXhXhXhXhXhXhXhXhXhXhXhXhXhXhXhXhXhXhXhX",
"hXhXhXhXhXhXhX7.T.I.K.L.L.L.K.K.L.L.L.L.K.K.K.K.L.L.L.L.L.L.L.L.L.L.L.B.M.M.M.M.M.>.] &.M.M.#.hXhXhXhXhXhXhXhXhXhXhXhXhXhXhXhXhXhXhXhXhXhXhXhXhXhXhXhXhXhXhXhXhX",
"hXhXhXhXhXhXhXG.|.}.L.L.K.K.K.K.L.L.K.K.K.K.K.K.K.K.L.L.L.L.K.K.L.L.L.B.M.M.M.M.M.>.' &.M.M.#.hXhXhXhXhXhXhXhXhXhXhXhXhXhXhXhXhXhXhXhXhXhXhXhXhXhXhXhXhXhXhXhXhX",
"hXhXhXhXhXhXhXT.&X|.I.L.K.K.K.K.L.L.L.K.K.K.K.K.K.K.K.L.L.L.K.K.K.K.L.B.M.M.M.M.M.>.} @.:.N.#.hXhXhXhXhXhXhXhXhXhXhXhXhXhXhXhXhXhXhXhXhXhXhXhXhXhXhXhXhXhXhXhXhX",
"hXhXhXhXhXhXhX[.&X|.L.K.K.L.L.L.K.K.K.K.L.L.K.K.K.K.L.L.L.L.K.K.K.K.K.B.M.M.M.M.M.M.@.] &.M.#.hXhXhXhXhXhXhXhXhXhXhXhXhXhXhXhXhXhXhXhXhXhXhXhXhXhXhXhXhXhXhXhXhX",
"hXhXhXhXhXhXG.%X&X|.L.K.K.L.L.L.K.K.K.K.L.L.K.K.K.K.L.L.L.L.K.K.K.L.B.M.M.M.M.M.M.M.>.] @.:.#.hXhXhXhXhXhXhXhXhXhXhXhXhXhXhXhXhXhXhXhXhXhXhXhXhXhXhXhXhXhXhXhXhX",
"hXhXhXhXhXhX[.&X&X'.K.K.L.L.L.L.K.K.L.L.L.L.K.K.K.K.K.L.L.K.K.K.L.L.B.M.M.M.M.M.M.M.>.] @.#.( hXhXhXhXhXhXhXhXhXhXhXhXhXhXhXhXhXhXhXhXhXhXhXhXhXhXhXhXhXhXhXhXhX",
"hXhXhXhXhXG.|.&X&XU.K.K.K.L.L.L.K.L.L.L.L.L.K.K.K.K.L.L.L.K.K.K.L.L.B.M.M.M.M.M.M.M.>.] @.@.v hXhXhXhXhXhXhXhXhXhXhXhXhXhXhXhXhXhXhXhXhXhXhXhXhXhXhXhXhXhXhXhXhX",
"hXhXhXhXhXG.&X&X&XU.K.L.L.L.L.L.K.K.K.L.L.L.K.K.K.K.L.L.K.K.K.K.L.V.M.M.M.M.M.M.M.M.>.] @.@.v hXhXhXhXhXhXhXhXhXhXhXhXhXhXhXhXhXhXhXhXhXhXhXhXhXhXhXhXhXhXhXhXhX",
"hXhXhXhXF. X&X&X&XU.K.L.L.L.L.K.K.K.L.L.L.L.K.K.K.L.L.L.L.K.K.L.L.V.M.M.M.M.M.M.M.M.>.] @.@.v hXhXhXhXhXhXhXhXhXhXhXhXhXhXhXhXhXhXhXhXhXhXhXhXhXhXhXhXhXhXhXhXhX",
"hXhXhXC.|.&X&X&X&XU.K.L.K.K.K.K.K.K.K.K.L.L.L.K.K.K.K.L.L.L.L.L.V.M.M.M.M.M.M.M.M.M.>.] @.@.v hXhXhXhXhXhXhXhXhXhXhXhXhXhXhXhXhXhXhXhXhXhXhXhXhXhXhXhXhXhXhXhXhX",
"hXhXhX[.&X&X&X&X&X}.L.L.K.K.K.K.K.K.K.K.L.L.L.K.K.K.K.K.L.L.L.K.B.M.M.M.M.M.M.M.M.M.>.] @.@.c d hXhXhXhXhXhXhXhXhXhXhXhXhXhXhXhXhXhXhXhXhXhXhXhXhXhXhXhXhXhXhXhX",
"hXhXG.&X&X&X&X&X&X|.L.K.K.K.L.L.L.L.L.K.K.K.K.K.L.K.K.K.L.L.L.V.M.M.M.M.M.M.M.M.M.M.>.] @.@.@.l hXhXhXhXhXhXhXhXhXhXhXhXhXhXhXhXhXhXhXhXhXhXhXhXhXhXhXhXhXhXhXhX",
"hX3.|.&X&X&X&X&X&X|.L.K.K.K.L.L.L.L.L.L.K.K.K.K.K.K.L.K.L.L.K.B.M.M.M.M.M.M.M.M.M.M.>.] @.@.@.v hXhXhXhXhXhXhXhXhXhXhXhXhXhXhXhXhXhXhXhXhXhXhXhXhXhXhXhXhXhXhXhX",
"@.A.&X&X&X&X&X&X&X}.L.K.L.L.L.L.L.L.L.K.K.K.L.L.L.L.L.L.L.K.V.M.M.M.M.M.M.M.M.M.M.M.>.] @.@.@.} f hXhXhXhXhXhXhXhXhXhXhXhXhXhXhXhXhXhXhXhXhXhXhXhXhXhXhXhXhXhXhX",
"#.L.[.|.%X&X&X&X|.I.K.L.L.L.L.L.L.L.L.K.K.K.L.L.L.L.L.L.L.V.M.M.M.M.M.M.M.M.M.M.M.M.>.} @.@.@.@.[ f hXhXhXhXhXhXhXhXhXhXhXhXhXhXhXhXhXhXhXhXhXhXhXhXhXhXhXhXhXhX",
"@.:.V.K.I.}.}.}.I.L.L.L.L.L.L.K.K.K.K.L.L.L.L.L.L.L.L.K.B.M.M.M.M.M.M.M.M.M.M.M.M.M.M.%.{ ..} ..[ d d hXhXhXhXhXhXhXhXhXhXhXhXhXhXhXhXhXhXhXhXhXhXhXhXhXhXhXhXhX",
"hXhXhX@.:.N.v.c.n.c.V.V.K.L.L.L.L.L.L.L.L.L.L.L.L.V.V.M.M.M.M.M.M.M.M.M.M.M.M.M.M.M.M.M. .l f f hXhXhXhXhXhXhXhXhXhXhXhXhXhXhXhXhXhXhXhXhXhXhXhXhXhXhXhXhXhXhXhX",
"hXhXhXhXhXhXhXhXhXk H +.+.} o.;.;.:.4.4.4.5.&.:.:.:.:.>.>.>.>.>.>.>.>.>.>.>.>.>.;.#.#.;.#.{ l hXhXhXhXhXhXhXhXhXhXhXhXhXhXhXhXhXhXhXhXhXhXhXhXhXhXhXhXhXhXhXhXhX",
"hXhXhXhXhXhXhXhXhXy D q.q.N s 6 g g 5 5 g g g 5 hXhXhX; a a a a a a a a a a a 5 3 3 > ; ; hXhXhXhXhXhXhXhXhXhXhXhXhXhXhXhXhXhXhXhXhXhXhXhXhXhXhXhXhXhXhXhXhXhXhX",
"hXhXhXhXhXhXhXhXhXy D q.q.q.G k 5 g 5 < g g g = hXhXhX& 1 2 2 2 2 2 2 2 , - - , , - &   hXhXhXhXhXhXhXhXhXhXhXhXhXhXhXhXhXhXhXhXhXhXhXhXhXhXhXhXhXhXhXhXhXhXhXhX",
"hXhXhXhXhXhXhXhXhXy D q.q.q.q.q.A s < < g g 5 = hXhX  1 2 2 2 2 2 2 2 - : ; 2 - - * . hXhXhXhXhXhXhXhXhXhXhXhXhXhXhXhXhXhXhXhXhXhXhXhXhXhXhXhXhXhXhXhXhXhXhXhXhX",
"hXhXhXhXhXhXhXhXhXy D q.q.q.q.q.q.N e > a g - hXhX  * > 2 2 2 , - - = > > 2 - - 2 *   hXhXhXhXhXhXhXhXhXhXhXhXhXhXhXhXhXhXhXhXhXhXhXhXhXhXhXhXhXhXhXhXhXhXhXhXhX",
"hXhXhXhXhXhXhXhXhXy D q.q.q.q.q.F A b 9 j s $ hXhX  1 > 8 8 e e > q 9 > 2 * * & o o + hXhXhXhXhXhXhXhXhXhXhXhXhXhXhXhXhXhXhXhXhXhXhXhXhXhXhXhXhXhXhXhXhXhXhXhXhX",
"hXhXhXhXhXhXhXhXhXy D q.q.q.q.D A A M t t M $ hXhX  & * : ; 8 8 > ; : & & @ + # 0 0 w w r hXhXhXhXhXhXhXhXhXhXhXhXhXhXhXhXhXhXhXhXhXhXhXhXhXhXhXhXhXhXhXhXhXhXhX",
"hXhXhXhXhXhXhXhXhXy D G D A N A A A A b t t $ hXhXhX  o @ @ @ @ @ @ @ # 0 q 0 0 0 w i m D F S B p hXhXhXhXhXhXhXhXhXhXhXhXhXhXhXhXhXhXhXhXhXhXhXhXhXhXhXhXhXhXhX",
"hXhXhXhXhXhXhXhXhXi N A D D F 0.0.G G D b t e 7 hXhX  . + + + + + + X X 7 0 0 w w 0 0 w i m S J J V V m w w hXhXhXhXhXhXhXhXhXhXhXhXhXhXhXhXhXhXhXhXhXhXhXhXhXhX",
"hXhXhXhXhXhXhXhXhXn p q 7 p m M M M Z A u q y 7 hXhXhX  X X X X X X . hXhXhX  X X + 0 0 0 0 0 w w w w w m w w hXhXhXhXhXhXhXhXhXhXhXhXhXhXhXhXhXhXhXhXhXhXhXhXhX",
"hXhXhXhXhXhXhXhXhXhX+ # # w m F s.s.q.9.D B u y hXhXhXhXhXhXhXhXhXhXhXhXhXhXhXhXhXhXhXhXhXhXhXhXhXhXhXhXhXhXhXhXhXhXhXhXhXhXhXhXhXhXhXhXhXhXhXhXhXhXhXhXhXhXhXhX",
"hXhXhXhXhXhXhXhXhXhXu i w 0 0 u Z s.z.s.q.F F D Z B u hXhXhXhXhXhXhXhXhXhXhXhXhXhXhXhXhXhXhXhXhXhXhXhXhXhXhXhXhXhXhXhXhXhXhXhXhXhXhXhXhXhXhXhXhXhXhXhXhXhXhXhXhX",
"hXhXhXhXhXhXhXhXhXhXw m m w 0 0 w i B J w.s.j.j.s.w.D m i w 0 hXhXhXhXhXhXhXhXhXhXhXhXhXhXhXhXhXhXhXhXhXhXhXhXhXhXhXhXhXhXhXhXhXhXhXhXhXhXhXhXhXhXhXhXhXhXhXhXhX",
"hXhXhXhXhXhXhXhXhXhXhXO O # O + + + + + O + + # # # # O + + hXhXhXhXhXhXhXhXhXhXhXhXhXhXhXhXhXhXhXhXhXhXhXhXhXhXhXhXhXhXhXhXhXhXhXhXhXhXhXhXhXhXhXhXhXhXhXhXhXhX"
};
