/* XPM */
static char *result[] = {
/* columns rows colors chars-per-pixel */
"80 80 225 2 ",
"   c #2C101A",
".  c #1F0F20",
"X  c #281725",
"o  c #2F232F",
"O  c #3A2729",
"+  c #322A32",
"@  c #372A37",
"#  c #3A323B",
"$  c #3E373B",
"%  c #4D1A17",
"&  c #551C1C",
"*  c #4F2A1C",
"=  c #54281F",
"-  c #482826",
";  c #45262C",
":  c #5A2A28",
">  c #553223",
",  c #5C342C",
"<  c #563637",
"1  c #602D2D",
"2  c #61322F",
"3  c #633131",
"4  c #653D36",
"5  c #5F4F3E",
"6  c #684539",
"7  c #6C493E",
"8  c #714D3F",
"9  c #463A46",
"0  c gray27",
"q  c #4C444C",
"w  c #4D4C4D",
"e  c #4F4E51",
"r  c #534B53",
"t  c #5B4E5B",
"y  c #525254",
"u  c #55555A",
"i  c #5B595C",
"p  c #6B4742",
"a  c #714645",
"s  c #6A5648",
"d  c #735242",
"f  c #755A4E",
"g  c #654B53",
"h  c #6C535A",
"j  c #745C54",
"k  c #726353",
"l  c #7A6258",
"z  c #5E5460",
"x  c #5D5C64",
"c  c #675C6B",
"v  c #7F5F61",
"b  c #695F70",
"n  c #64646C",
"m  c #6B6A6E",
"M  c #766065",
"N  c #6B6474",
"B  c #6A6775",
"V  c #6A6974",
"C  c #6E6B7B",
"Z  c #736D7A",
"A  c #74747C",
"S  c #7A777D",
"D  c #940101",
"F  c #96090A",
"G  c #960F12",
"H  c #981C1C",
"J  c #A50201",
"K  c #AF0000",
"L  c #A40E0E",
"P  c #B30203",
"I  c #B00C0E",
"U  c #AC1617",
"Y  c #96241F",
"T  c #98252A",
"R  c #912C31",
"E  c #A83030",
"W  c #C27F23",
"Q  c #9E3A41",
"!  c #8F5052",
"~  c #9C5458",
"^  c #A24D52",
"/  c #A55858",
"(  c #83655A",
")  c #886664",
"_  c #8A6B64",
"`  c #8B6A6A",
"'  c #906E66",
"]  c #926D6D",
"[  c #8B7467",
"{  c #93756E",
"}  c #866B70",
"|  c #9C6D76",
" . c #877777",
".. c #947372",
"X. c #9B7373",
"o. c #9C7C75",
"O. c #95797D",
"+. c #9D7C7B",
"@. c #A66466",
"#. c #AC726C",
"$. c #A36B75",
"%. c #A47676",
"&. c #A47C7C",
"*. c #AA7D7D",
"=. c #CA7878",
"-. c #BD8532",
";. c #D78E20",
":. c #95806D",
">. c #9B8579",
",. c #A68679",
"<. c #A3817D",
"1. c #A9907F",
"2. c #DAAD7A",
"3. c #737383",
"4. c #7B7A83",
"5. c #7C7B89",
"6. c #847B84",
"7. c #857B86",
"8. c #8A7B83",
"9. c #9D7F82",
"0. c #A57384",
"q. c #A37F81",
"w. c #838284",
"e. c #83838B",
"r. c #8C868D",
"t. c #8A8A8E",
"y. c #968C85",
"u. c #99878A",
"i. c #868691",
"p. c #8E8E94",
"a. c #9A8F91",
"s. c #8F9094",
"d. c #939394",
"f. c #95959A",
"g. c #9C9A9B",
"h. c #A48383",
"j. c #AB8484",
"k. c #A98B85",
"l. c #A78A8A",
"z. c #AC8C8B",
"x. c #B58484",
"c. c #B88A87",
"v. c #B48B8C",
"b. c #AA9288",
"n. c #B49485",
"m. c #B4948D",
"M. c #B99789",
"N. c #B49C8C",
"B. c #BB9C8C",
"V. c #A28E94",
"C. c #B68A91",
"Z. c #A69897",
"A. c #B59494",
"S. c #B99494",
"D. c #BB9A94",
"F. c #BA9998",
"G. c #BDA18F",
"H. c #ACA29D",
"J. c #B5A297",
"K. c #BCA192",
"L. c #9C9CA1",
"P. c #A29DA4",
"I. c #A1A1A2",
"U. c #A6A6AB",
"Y. c #A7A8AD",
"T. c #ABABAD",
"R. c #B7A8A6",
"E. c #B7B1AC",
"W. c #ADADB1",
"Q. c #B4B4B5",
"!. c #B6B6B9",
"~. c #BCBCBE",
"^. c #C49688",
"/. c #C29795",
"(. c #C19E93",
"). c #C4989B",
"_. c #C19D9C",
"`. c #C2A68E",
"'. c #C5A494",
"]. c #CAAC96",
"[. c #C5A59B",
"{. c #C7A899",
"}. c #CCAC9C",
"|. c #D0AE9C",
" X c #CBB29B",
".X c #D3B49D",
"XX c #D6B89E",
"oX c #C5A4A3",
"OX c #CDA0A0",
"+X c #CCACA2",
"@X c #CFB3A4",
"#X c #C5B3A9",
"$X c #D4B4A4",
"%X c #D8B7A3",
"&X c #D6B9A3",
"*X c #DABBA3",
"=X c #D5B7A8",
"-X c #DBBDA9",
";X c #DDC1A3",
":X c #D2C2B4",
">X c #E2C2A7",
",X c #E1C8A7",
"<X c #E4C4AA",
"1X c #E8C7AD",
"2X c #E6C9AB",
"3X c #EACBAE",
"4X c #EDD0AF",
"5X c #EDCCB1",
"6X c #F0CFB1",
"7X c #F6D5B4",
"8X c #F8D7B6",
"9X c #FDDCB9",
"0X c #BFC0C1",
"qX c gray77",
"wX c #CBC6C7",
"eX c #CCCBCC",
"rX c #D3C9C4",
"tX c gray84",
"yX c gray85",
"uX c #E2E2E3",
"iX c #E8E8E7",
"pX c #ECEDED",
"aX c #F6F6F6",
"sX c #F8F8F8",
"dX c None",
/* pixels */
"dXdXdXdXdXdXdXdXdXdXdXdXdXdXdXdXdXdXdXdXdXdXdXdXdXdXdXdXdXdXdXdXdXdXdXdXdXdXdXdXdXdXdXdXdXdXdXdXdXdXdXdXdXdXdXdXdXdXdXdXdXdXdXdXdXdXdXdXdXdXdXdXdXdXdXdXdXdXdXdX",
"dXdXdXdXdXdXdXdXdXdXdXdXdXdXdXdXdXdXdXdXdXdXdXdXdXdXdXdXdXdXdXj.C.C.dXdXdXdXdXdXdXdXdXdXdXdXdXdXdXdXdXdXdXdXdXdXdXdXdXdXdXdXdXdXdXdXdXdXdXdXdXdXdXdXdXdXdXdXdXdX",
"dXdXdXdXdXdXdXdXdXdXdXdXdXdXdXdXdXdXdXdXdXdXdXdXdXdXdXdXdX%.z.A.A.F._./.).C.dXdXdXdXdXdXdXdXdXdXdXdXdXdXdXdXdXdXdXdXdXdXdXdXdXdXdXdXdXdXdXdXdXdXdXdXdXdXdXdXdXdX",
"dXdXdXdXdXdXdXdXdXdXdXdXdXdXdXdXdXdXdXdXdXdXdXdXdXdXdXU @.x.v.A.A.A.A.A.F.F./.C.).dXdXdXdXdXdXdXdXdXdXdXdXdXdXdXdXdXdXdXdXdXdXdXdXdXdXdXdXdXdXdXdXdXdXdXdXdXdXdX",
"dXdXdXdXdXdXdXdXdXdXdXdXdXdXdXdXdXdXdXdXdXdXdXdXdXdXP P I L T ^ / #.C.v.j.&.X.%.%.0.0.| dXdXdXdXdXdXdXdXdXdXdXdXdXdXdXdXdXdXdXdXdXdXdXdXdXdXdXdXdXdXdXdXdXdXdXdX",
"dXdXdXdXdXdXdXdXdXdXdXdXdXdXdXdXdXdXdXdXdXdXdXOXOX=.=.#.E E H D D F H H ^ ~ $.0.0.0.0.| dXdXdXdXdXdXdXdXdXdXdXdXdXdXdXdXdXdXdXdXdXdXdXdXdXdXdXdXdXdXdXdXdXdXdXdX",
"dXdXdXdXdXdXdXdXdXdXdXdXdXdXdXdXdXdXdXdXdXdXdXdXdXw 7.8. .A.c.@./ ~ T G D D H T ~ $.$.dXdXdXdXdXdXdXdXdXdXdXdXdXdXdXdXdXdXdXdXdXdXdXdXdXdXdXdXdXdXdXdXdXdXdXdXdX",
"dXdXdXdXdXdXdXdXdXdXdXdXdXdXdXdXdXdXdXdXdXdXdX$XA n C u 3.5.4.5.u.8.| #.^ Q G F G G dXdXdXdXdXdXdXdXdXdXdXdXdXdXdXdXdXdXdXdXdXdXdXdXdXdXdXdXdXdXdXdXdXdXdXdXdXdX",
"dXdXdXdXdXdXdXdXdXdXdXdXdXdXdXdXdXdXdXdXdX2X7X{.6.t.n A p.p.t.5.5.:.-.;.W X.| ! @.R dXdXdXdXdXdXdXdXdXdXdXdXdXdXdXdXdXdXdXdXdXdXdXdXdXdXdXdXdXdXdXdXdXdXdXdXdXdX",
"dXdXdXdXdXdXdXdXdXdXdXdXdXdXdXdXdXdXdXdX2X8X8X2.y.s.i d.d.d.d.d.d.4. .f [ w.f.u dXdXdX0.0.dXdXdXdXdXdXdXdXdXdXdXdXdXdXdXdXdXdXdXdXdXdXdXdXdXdXdXdXdXdXdXdXdXdXdX",
"dXdXdXdXdXdXdXdXdXdXdXdXdXdXdXdXdXdXdX2X7X5X8X2.( M A d.d.d.d.I.T.I.w.d.~.~.!.3.dXdXdXdXdXdXdXdXdXdXdXdXdXdXdXdXdXdXdXdXdXdXdXdXdXdXdXdXdXdXdXdXdXdXdXdXdXdXdXdX",
"dXdXdXdXdXdXdXdXdXdXdXdXdXdXdX;X*X*X*X1X$XF.%X1Xb.l l 4.w.d.f.d.g.w.f.U.f.w.e.dXdXdXdXdXdXdXdXdXdXdXdXdXdXdXdXdXdXdXdXdXdXdXdXdXdXdXdXdXdXdXdXdXdXdXdXdXdXdXdXdX",
"dXdXdXdXdXdXdXdXdXdXdXdX<X3X7X7X8X8X7X3X$XF.D.*X<XR.H.r.[ A  .A A T.!.p.y.>.dXdXdXdXdXdXdXdXdXdXdXdXdXdXdXdXdXdXdXdXdXdXdXdXdXdXdXdXdXdXdXdXdXdXdXdXdXdXdXdXdXdX",
"dXdXdXdXdXdXdXdXdXdX$X<X5X5X6X7X8X8X8X7X3X&X}.<X8X3X@XE.Q.T.H.6.) ] b.J.'.{.{.dXdXdXdXdXdXdXdXdXdXdXdXdXdXdXdXdXdXdXdXdXdXdXdXdXdXdXdXdXdXdXdXdXdXdXdXdXdXdXdXdX",
"dXdXdXdXdXdXdXdXdX1X3X3X3X3X3X3X3X7X8X7X2X&X.X>X7X8X7X<X#XQ. .R P K ~ R.{.B.dXdXdXdXdXdXdXdXdXdXdXdXdXdXdXdXdXdXdXdXdXdXdXdXdXdXdXdXdXdXdXdXdXdXdXdXdXdXdXdXdXdX",
"dXdXdXdXdXdXdXdX<X7X8X8X8X8X8X8X7X1X5X8X7X<X}.D.{.*X1X8X6X@XH.#.D J T <.@X$X}.{.n.dXdXdXdXdXdXdXdXdXdXdXdXdXdXdXdXdXdXdXdXdXdXdXdXdXdXdXdXdXdXdXdXdXdXdXdXdXdXdX",
"dXdXdXdXdXdXdX&X3X8X8X8X8X8X8X8X8X8X1X<X7X8X7X5X<X}.[.$X<X5X<XJ.@.U K L ~ {.$X$Xn.dXdXdXdXdXdXdXdXdXdXdXdXdXdXdXdXdXdXdXdXdXdXdXdXdXdXdXdXdXdXdXdXdXdXdXdXdXdXdX",
"dXdXdXdXdXdXdX>X8X8X8X8X8X7X8X8X8X8X7X<X3X8X8X8X8X8X5X<X$X{.$X*X X/ J P J ^.=X[.B.dXdXdXdXdXdXdXdXdXdXdXdXdXdXdXdXdXdXdXdXdXdXdXdXdXdXdXdXdXdXdXdXdXdXdXdXdXdXdX",
"dXdXdXdXdXdXdX<X8X8X8X8X8X,X8X8X8X8X8X6X2X7X8X8X8X8X8X8X7X2X*X}.{.'.#.Y D E /.M..X>.dXdXdXdXdXdXdXdXdXdXdXdXdXdXdXdXdXdXdXdXdXdXdXdXdXdXdXdXdXdXdXdXdXdXdXdXdXdX",
"dXdXdXdXdXdXdX1X8X8X8X8X3X,X8X8X8X8X8X8X1X3X8X8X8X8X8X8X8X8X8X4X*X{.[.m.^ F c.M.;X].dXdXdXdXdXdXdXdXdXdXdXdXdXdXdXdXdXdXdXdXdXdXdXdXdXdXdXdXdXdXdXdXdXdXdXdXdXdX",
"dXdXdXdXdXdXdX1X8X8X8X7X$X;X8X8X8X7X8X8X<X3X8X8X8X8X8X8X8X8X8X8X8X8X<X+XA.X.m.M.;XXX>.B.dXdXdXdXdXdXdXdXdXdXdXdXdXdXdXdXdXdXdXdXdXdXdXdXdXdXdXdXdXdXdXdXdXdXdXdX",
"dXdXdXdXdXdXdX1X8X8X7X=X$X,X8X8X7X2X8X8XXXXX7X8X8X8X8X8X8X8X8X8X8X8X8X7X*XK.z.k.}. Xo.{.dXdXdXdXdXdXdXdXdXdXdXdXdXdXdXdXdXdXdXdXdXdXdXdXdXdXdXdXdXdXdXdXdXdXdXdX",
"dXdXdXdXdXdXdX>X8X3X&X/.*X7X8X8X3X-X8X8X|.].4X8X8X8X8X8X7X.X`.3X8X8X8X8X8X3X[.>.[ {.X.{.,.dXdXdXdXdXdXdXdXdXdXdXdXdXdXdXdXdXdXdXdXdXdXdXdXdXdXdXdXdXdXdXdXdXdXdX",
"dXdXdXdXdXdXdX{.-X+X_.(.3X8X8X7X*XXX8X8XB.z.=X2X7X8X8X8X1X,.>.`.8X8X8X8X8X8X'.<.j A.X.}.n.dXdXdXdXdXdXdXdXdXdXdXdXdXdXdXdXdXdXdXdXdXdXdXdXdXdXdXdXdXdXdXdXdXdXdX",
"dXdXdXdXdXdXdXz.oX_./.1X8X8X7X,XXX.X4X9XM.q._.+X-X5X7X8X8X3X;X8X8X8X8X8X8X8X8Xm.j z.X.}.n.dXdXdXdXdXdXdXdXdXdXdXdXdXdXdXdXdXdXdXdXdXdXdXdXdXdXdXdXdXdXdXdXdXdXdX",
"dXdXdXdXdXdXdXz.oXS.>X8X6X<X*X X(.{.}.$X,...z.F.oXoX@X=X<X2X7X7X7X7X7X7X7X7X<XoXj j...'.n.dXdXdXdXdXdXdXdXdXdXdXdXdXdXdXdXdXdXdXdXdXdXdXdXdXdXdXdXdXdXdXdXdXdXdX",
"dXdXdXdXdXdXdXz.S.%X2X].n.<.j.m.D.G.M.<.` ` ] +.j._.S.h.k.k.m.'.N.:XE.b.Z.l.Z.h.f ( l ] ] dXdXdXdXdXdXdXdXdXdXdXdXdXdXdXdXdXdXdXdXdXdXdXdXdXdXdXdXdXdXdXdXdXdXdX",
"dXdXdXdXdXdXdXh.(.1Xm.*.j.S.%X7X8X8X8X3XG.+.h.z.l z.] z.z.z.h.<.Z.W.R.A.F.z.7...%.s o.m.{.B.K.dXdXdXdXdXdXdXdXdXdXdXdXdXdXdXdXdXdXdXdXdXdXdXdXdXdXdXdXdXdXdXdXdX",
"dXdXdXdXdXdXdX%.}.3X<X|.|.3X8X8X8X8X8X8X8X;Xn.h.j k.` A.A.z.+.{.#XQ.R.A.A.h e.8.*.k |.$X$X$X$X}.N.dXdXdXdXdXdXdXdXdXdXdXdXdXdXdXdXdXdXdXdXdXdXdXdXdXdXdXdXdXdXdX",
"dXdXdXdXdXdXdXdXv.[.<X7X8X8X8X8X8X8X8X8X8X8X7XXXN...v g z.+.(.}.V.L.f.8.7.A A ` ] k $X$X$X$X$X%X@XN.1.dXdXdXdXdXdXdXdXdXdXdXdXdXdXdXdXdXdXdXdXdXdXdXdXdXdXdXdXdX",
"dXdXdXdXdXdXdXdXdX+.A.$X3X7X8X8X8X8X8X8X8X8X8X7XXXB.n.g +.o..XD.h.>.y.y.y.y.y.{ [ s :.{.$X$X$X{.G.{.K.N.'.n.n.dXdXdXdXdXdXdXdXdXdXdXdXdXdXdXdXdXdXdXdXdXdXdXdXdX",
"dXdXdXdXdXdXdXdXdXdX<.h.m.+X-X7X8X8X8X8X8X8X1XXX<X>X*X<X<X>X|.z.u.K. X*X2X1X2X;XB.) ) ( (.B.b.N.K.B.{.$X$X$X}.N.a.dXdXdXdXdXdXdXdXdXdXdXdXdXdXdXdXdXdXdXdXdXdXdX",
"dXdXdXdXdXdXdXdXdXn.{.(.n.&.z.{.5X7X7X8X8X<X%X]..X*X7X8X8X<X:XwXQ.Z.m.'.XX%X$X.XB.] _ l %._ [ M.b.{.%X$X$X{.J.I.L.T.5.dXdXdXdXdXdXdXdXdXdXdXdXdXdXdXdXdXdXdXdXdX",
"dXdXdXdXdXdXdXdXdXn.}.'.m.v.h.*.F.}.=X1X>X'.].'.3X8X7X8X5XrXqX~.eXeXR.A.m.m.m.m.m.k.` _ s ) _ _ c.'.|.+XN.g.L.!.tXtX~.U.dXdXdXdXdXdXdXdXdXdXdXdXdXdXdXdXdXdXdXdX",
"dXdXdXdXdXdXdXdXdXn.B.m.A.A.A.v.+.&.v.[.h.z.+.K.1X3X*X*X#XT.~.iXsXsXaXiXeXR.V.v.C.z.] X.5 ( j _ x.x.c.7.t.3.~.tXtXtXyXtXqXQ.dXdXdXdXdXdXdXdXdXdXdXdXdXdXdXdXdXdX",
"dXdXdXdXdXdXdXdXdX,.n.A.A.A.A.A.A.A.h.+.+.X.` h.oX+XoXk.qXI.yXpXaXaXaXsXsXpXuXwXP.O.` %.f dXdXs ' *.x.Z e.3.eXtXtXtXtXtXtXtXeXqXQ.dXdXdXdXdXdXdXdXdXdXdXdXdXdXdX",
"dXdXdXdXdXdXdXdXdX..z.A.A.A.A.A.A.A.A.A.A.A.z.h.&.&.A.` u.s.~.tXuXpXaXaXaXsXsXpXuXwXT.V.{ s dXdXdXl ( dXdXdXdXY.tXyXqXI.g.U.W.W.qXqX~.I.dXdXdXdXdXdXdXdXdXdXdXdX",
"dXdXdXdXdXdXdXdXdX..z.A.A.A.A.A.A.A.A.A.A.A.A.A.A.v.` h.D.z.u.a.Q.tXiXpXaXuXuXyXyXqX~.eXW.p.3.dXdXdXdXdXdXdXdXi.Q.tXQ.3.dXdXdXdXdXp.W.qX~.dXdXdXdXdXdXdXdXdXdXdX",
"dXdXdXdXdXdXdXdX..*.A.A.A.A.A.A.A.A.A.A.A.A.A.A.A.A.` A.'.A.k.` O.P.~.eXeXeXqXW.qXqXf.7.u.Z.T.e.dXdXdXdXdXdXdXdXe.U.T.f.dXdXdXdXdXdXC p.T.I.dXdXdXdXdXdXdXdXdXdX",
"dXdXdXdXdXdXdXdX..z.A.A.A.A.A.A.A.A.A.A.A.A.A.A.A.A...<.{.A.A.&.&.v.u.P.0XU.Y.~.p.5.g.I.7.S dXdXdXdXdXdXdXdXdXdXdXdXp.d.e.dXdXdXdXdXdXdX4.g.dXdXdXdXdXdXdXdXdXdX",
"dXdXdXdXdXdXdXdX..z.A.A.A.A.A.A.A.A.A.A.A.A.A.A.A.A.x.] +XA.A.h.X.A.v.q.u.W.Y.f.L.s.A 7.A.9.M dXdXdXdXdXdXdXdXdXdXdXdXdX5.dXdXdXdXdXdXdXdXdXdXdXdXdXdXdXdXdXdXdX",
"dXdXdXdXdXdXdXdX..z.A.A.A.A.A.A.A.A.A.A.A.A.A.A.A.A.j...@XD.A.+.+.A.v.x.x.9.l.r.O.z.u.} x.&.` dXdXdXdXdXdXdXdXdXdXdXdXdXdXdXdXdXdXdXdXdXdXdXdXdXdXdXdXdXdXdXdXdX",
"dXdXdXdXdXdXdXdX..z.A.A.A.A.A.A.A.A.A.A.A.A.A.A.A.A.` z.}.+Xz.` h.A.v.x.x.x.x.q.x.x.&.] x.*...dXdXdXdXdXdXdXdXdXdXdXdXdXdXdXdXdXdXdXdXdXdXdXdXdXdXdXdXdXdXdXdXdX",
"dXdXdXdXdXdXdXdX&.v.A.A.A.A.A.A.A.A.A.A.A.A.A.A.A.A...X.X.o...` +.A.v.x.x.x.x.x.x.x.*.] x.x.X.dXdXdXdXdXdXdXdXdXdXdXdXdXdXdXdXdXdXdXdXdXdXdXdXdXdXdXdXdXdXdXdXdX",
"dXdXdXdXdXdXdX..k.A.A.A.A.A.A.A.A.A.A.A.A.A.A.A.A.A.A.v.*.O.+.+.+.k.v.x.x.x.x.x.x.x.*.] x.x.X.dXdXdXdXdXdXdXdXdXdXdXdXdXdXdXdXdXdXdXdXdXdXdXdXdXdXdXdXdXdXdXdXdX",
"dXdXdXdXdXdXdX..l.A.A.A.A.A.A.A.A.A.A.A.A.A.A.A.A.A.A.A.A.A.A.A.A.A.v.x.x.x.x.x.x.x.*.] x.x.X.dXdXdXdXdXdXdXdXdXdXdXdXdXdXdXdXdXdXdXdXdXdXdXdXdXdXdXdXdXdXdXdXdX",
"dXdXdXdXdXdXdX..k.A.A.A.A.A.A.A.A.A.A.A.A.A.A.A.A.A.A.A.A.A.A.A.A.A.v.x.x.x.x.v.x.x.*.] x.x.&.dXdXdXdXdXdXdXdXdXdXdXdXdXdXdXdXdXdXdXdXdXdXdXdXdXdXdXdXdXdXdXdXdX",
"dXdXdXdXdXdXdX..k.A.A.A.A.A.A.A.A.A.A.A.A.A.A.A.A.A.A.A.A.A.A.A.A.A.A.v.x.x.v.A.x.x.*.] x.x.&.dXdXdXdXdXdXdXdXdXdXdXdXdXdXdXdXdXdXdXdXdXdXdXdXdXdXdXdXdXdXdXdXdX",
"dXdXdXdXdXdXdX..k.A.A.A.A.A.A.A.A.A.A.A.A.A.A.A.A.A.A.A.A.A.A.A.A.A.A.v.x.x.A.A.x.x.*.] x.x.x.X.dXdXdXdXdXdXdXdXdXdXdXdXdXdXdXdXdXdXdXdXdXdXdXdXdXdXdXdXdXdXdXdX",
"dXdXdXdXdXdXdX..k.A.A.A.A.A.A.A.A.A.A.A.A.A.A.A.A.A.A.A.A.A.A.A.A.A.A.v.x.A.A.A.x.x.*.] x.x.x.X.dXdXdXdXdXdXdXdXdXdXdXdXdXdXdXdXdXdXdXdXdXdXdXdXdXdXdXdXdXdXdXdX",
"dXdXdXdXdXdXdX:.k.A.A.A.A.A.A.A.A.A.A.A.A.A.A.A.A.A.A.A.A.A.A.A.A.A.A.A.A.A.A.A.x.x.*.] x.x.x.X.dXdXdXdXdXdXdXdXdXdXdXdXdXdXdXdXdXdXdXdXdXdXdXdXdXdXdXdXdXdXdXdX",
"dXdXdXdXdXdXdX1.m.A.A.A.A.A.A.A.A.A.A.A.A.A.A.A.A.A.A.A.A.A.A.A.A.A.A.A.A.A.A.A.x.x.*.] x.x.x.X.dXdXdXdXdXdXdXdXdXdXdXdXdXdXdXdXdXdXdXdXdXdXdXdXdXdXdXdXdXdXdXdX",
"dXdXdXdXdXdXdXn.D.A.A.A.A.A.A.A.A.A.A.A.A.A.A.A.A.A.A.A.A.A.A.A.A.A.A.A.A.A.A.A.x.x.*.] x.x.x.X.dXdXdXdXdXdXdXdXdXdXdXdXdXdXdXdXdXdXdXdXdXdXdXdXdXdXdXdXdXdXdXdX",
"dXdXdXdXdXdXdXn.D.A.A.A.A.A.A.A.A.A.A.A.A.A.A.A.A.A.A.A.A.A.A.A.A.A.A.A.A.v.A.A.x.x.*.] x.x.x.X.dXdXdXdXdXdXdXdXdXdXdXdXdXdXdXdXdXdXdXdXdXdXdXdXdXdXdXdXdXdXdXdX",
"dXdXdXdXdXdXdXB.D.A.A.A.A.A.A.A.A.A.A.A.A.A.A.A.A.A.A.A.A.A.A.A.A.A.A.A.A.x.A.A.x.x.*.] x.x.x.X.dXdXdXdXdXdXdXdXdXdXdXdXdXdXdXdXdXdXdXdXdXdXdXdXdXdXdXdXdXdXdXdX",
"dXdXdXdXdXdXn.`.D.A.A.A.A.A.A.A.A.A.A.A.A.A.A.A.A.A.A.A.A.A.A.A.A.A.A.A.A.x.A.A.x.x.*.] x.x.x.X.dXdXdXdXdXdXdXdXdXdXdXdXdXdXdXdXdXdXdXdXdXdXdXdXdXdXdXdXdXdXdXdX",
"dXdXdXdXdXdXM.{.F.A.A.A.A.A.A.A.A.A.A.A.A.A.A.A.A.A.A.A.A.A.A.A.A.A.A.A.v.x.A.v.x.x.*.] x.x.x.X.dXdXdXdXdXdXdXdXdXdXdXdXdXdXdXdXdXdXdXdXdXdXdXdXdXdXdXdXdXdXdXdX",
"dXdXdXdXdXb.'.{.F.A.A.A.A.A.A.A.A.A.A.A.A.A.A.A.A.A.A.A.A.A.A.A.A.A.A.A.v.x.A.x.x.x.*.] x.x.x.&.dXdXdXdXdXdXdXdXdXdXdXdXdXdXdXdXdXdXdXdXdXdXdXdXdXdXdXdXdXdXdXdX",
"dXdXdXdXdXM.{.{.F.A.A.A.A.A.A.A.A.A.A.A.A.A.A.A.A.A.A.A.A.A.A.A.A.A.A.A.v.x.x.x.x.x.*.] x.x.x.&.dXdXdXdXdXdXdXdXdXdXdXdXdXdXdXdXdXdXdXdXdXdXdXdXdXdXdXdXdXdXdXdX",
"dXdXdXdXdXB.{.{.'.F.A.A.A.A.A.A.A.A.A.A.A.A.A.A.A.A.A.A.A.A.A.A.A.A.A.v.x.x.x.x.x.x.j.X.&.x.x.&.dXdXdXdXdXdXdXdXdXdXdXdXdXdXdXdXdXdXdXdXdXdXdXdXdXdXdXdXdXdXdXdX",
"dXdXdXdX<.(.{.{.{.F.A.A.A.A.A.A.A.A.A.A.A.A.A.A.A.A.A.A.A.A.A.A.A.A.A.v.x.x.x.x.x.x.x.&.] x.x.&.` dXdXdXdXdXdXdXdXdXdXdXdXdXdXdXdXdXdXdXdXdXdXdXdXdXdXdXdXdXdXdX",
"dXdXdXdX+.A.F.'.{.F.A.A.A.A.A.A.A.A.A.A.A.A.A.A.A.A.A.A.A.A.A.A.A.A.A.x.x.x.x.x.x.x.x.&.] x.x.&.` dXdXdXdXdXdXdXdXdXdXdXdXdXdXdXdXdXdXdXdXdXdXdXdXdXdXdXdXdXdXdX",
"dXdXdXdX+.A.A.A.D.D.A.A.A.A.A.A.A.A.A.A.A.A.A.A.A.A.A.A.A.A.A.A.A.A.v.x.x.x.x.x.x.x.x.&.] x.x.&.` dXdXdXdXdXdXdXdXdXdXdXdXdXdXdXdXdXdXdXdXdXdXdXdXdXdXdXdXdXdXdX",
"dXdXdXdX+.A.A.A.A.F.'.F.A.A.A.A.A.A.A.A.A.A.A.A.A.A.A.A.A.A.A.A.A.v.x.x.x.x.x.x.x.x.x.*...*.x.X.) dXdXdXdXdXdXdXdXdXdXdXdXdXdXdXdXdXdXdXdXdXdXdXdXdXdXdXdXdXdXdX",
"dXdXdXdX+.A.A.A.A.A._.}.[.F.A.A.A.A.A.A.A.A.A.A.A.A.A.A.A.A.A.A.v.x.x.x.x.x.x.x.x.x.x.x.X.] *.l dXdXdXdXdXdXdXdXdXdXdXdXdXdXdXdXdXdXdXdXdXdXdXdXdXdXdXdXdXdXdXdX",
"dXdXdXdXdX+.h.h.z.A.A.(.{.{.'.F.A.A.A.A.A.A.A.A.A.A.A.A.A.A.v.v.x.x.x.x.x.x.x.x.x.x.x.x.*.( s dXdXdXdXdXdXdXdXdXdXdXdXdXdXdXdXdXdXdXdXdXdXdXdXdXdXdXdXdXdXdXdXdX",
"dXdXdXdXdXdXdX` ` ....j _ { :.,.<.<.%.&.>.>.h.k.l.l.z.z.j.j.j.j.j.j.j.*.*.*.*.%.X.) ) ( j f dXdXdXdXdXdXdXdXdXdXdXdXdXdXdXdXdXdXdXdXdXdXdXdXdXdXdXdXdXdXdXdXdXdX",
"dXdXdXdXdXdXdXdXdXdXdXX p 8 d d d d d d d 6 d f f f p dX< 7 7 7 7 p a a a 4 1 , 4 3 3 - . dXdXdXdXdXdXdXdXdXdXdXdXdXdXdXdXdXdXdXdXdXdXdXdXdXdXdXdXdXdXdXdXdXdXdX",
"dXdXdXdXdXdXdXdXdXdXdXr B h p 7 8 d d d 7 , 6 d d d > dXX * * > , 1 3 1 & & : 2 3 : %   dXdXdXdXdXdXdXdXdXdXdXdXdXdXdXdXdXdXdXdXdXdXdXdXdXdXdXdXdXdXdXdXdXdXdXdX",
"dXdXdXdXdXdXdXdXdXdXdXc 3.3.C N g p 8 d 4 6 d d d 7 > dXX > , 3 3 3 : & : 3 3 3 = % * dXdXdXdXdXdXdXdXdXdXdXdXdXdXdXdXdXdXdXdXdXdXdXdXdXdXdXdXdXdXdXdXdXdXdXdXdX",
"dXdXdXdXdXdXdXdXdXdXr C 3.3.3.3.3.C h p , 6 d d d 2 > dXX 2 3 3 3 , : 1 3 3 3 > * > > - dXdXdXdXdXdXdXdXdXdXdXdXdXdXdXdXdXdXdXdXdXdXdXdXdXdXdXdXdXdXdXdXdXdXdXdX",
"dXdXdXdXdXdXdXdXdXdXr C 3.3.3.3.3.3.C N 9 < 7 7 d > dXdXX : 2 3 3 3 3 3 : : ; O O O O O 9 dXdXdXdXdXdXdXdXdXdXdXdXdXdXdXdXdXdXdXdXdXdXdXdXdXdXdXdXdXdXdXdXdXdXdX",
"dXdXdXdXdXdXdXdXdXdXr C 3.3.3.3.3.3.B N 9 9 c g 7 > dXdXX # ; ; ; ; ; ; O + 0 w u x m m n V dXdXdXdXdXdXdXdXdXdXdXdXdXdXdXdXdXdXdXdXdXdXdXdXdXdXdXdXdXdXdXdXdXdX",
"dXdXdXdXdXdXdXdXdXdXr C 3.3.3.C N b b b t + 9 t g - dXdXX 9 # # # # # 9 0 0 0 0 e u V A 4.e.w.A 3.n x dXdXdXdXdXdXdXdXdXdXdXdXdXdXdXdXdXdXdXdXdXdXdXdXdXdXdXdXdX",
"dXdXdXdXdXdXdXdXdXdXq C C B b b b N C C C 9 9 t t X dXdXX + + + + + + + + + o # # # $ $ 0 y i i i u y u e 0 dXdXdXdXdXdXdXdXdXdXdXdXdXdXdXdXdXdXdXdXdXdXdXdXdXdX",
"dXdXdXdXdXdXdXdXdXdXq B N N B B N B N c x z 9 # # X dXdXdXdXdXdXdXdXdXdXdXdXdXdXdXdXdXdXdXdXdXdXdXdXdXdXdXdXdXdXdXdXdXdXdXdXdXdXdXdXdXdXdXdXdXdXdXdXdXdXdXdXdXdX",
"dXdXdXdXdXdXdXdXdXdXq q e r r r e x V n x u y w 0 dXdXdXdXdXdXdXdXdXdXdXdXdXdXdXdXdXdXdXdXdXdXdXdXdXdXdXdXdXdXdXdXdXdXdXdXdXdXdXdXdXdXdXdXdXdXdXdXdXdXdXdXdXdXdX",
"dXdXdXdXdXdXdXdXdXdXw u e 0 0 0 e x A t.e.3.C C V C n dXdXdXdXdXdXdXdXdXdXdXdXdXdXdXdXdXdXdXdXdXdXdXdXdXdXdXdXdXdXdXdXdXdXdXdXdXdXdXdXdXdXdXdXdXdXdXdXdXdXdXdXdX",
"dXdXdXdXdXdXdXdXdXdX0 x x u w 0 0 w y x S t.p.p.p.4.4.V n u w dXdXdXdXdXdXdXdXdXdXdXdXdXdXdXdXdXdXdXdXdXdXdXdXdXdXdXdXdXdXdXdXdXdXdXdXdXdXdXdXdXdXdXdXdXdXdXdXdX",
"dXdXdXdXdXdXdXdXdXdXdX+ # # # @ + + + + + # $ $ $ # # # # @ dXdXdXdXdXdXdXdXdXdXdXdXdXdXdXdXdXdXdXdXdXdXdXdXdXdXdXdXdXdXdXdXdXdXdXdXdXdXdXdXdXdXdXdXdXdXdXdXdXdX"
};
