/* XPM */
static char *result[] = {
/* columns rows colors chars-per-pixel */
"80 80 232 2 ",
"   c #1F0E1F",
".  c #2F131B",
"X  c #241322",
"o  c #281322",
"O  c #291926",
"+  c #2E242E",
"@  c #3C2429",
"#  c #312631",
"$  c #342C34",
"%  c #3D2931",
"&  c #3B2937",
"*  c #372F38",
"=  c #3C343C",
"-  c #3D3A3D",
";  c #410001",
":  c #781010",
">  c #472726",
",  c #512E23",
"<  c #562B2C",
"1  c #533122",
"2  c #563529",
"3  c #50302F",
"4  c #5D312B",
"5  c #5B3C2D",
"6  c #45353D",
"7  c #553735",
"8  c #573738",
"9  c #61312F",
"0  c #602F30",
"q  c #633131",
"w  c #643C31",
"e  c #634233",
"r  c #69463B",
"t  c #714E3F",
"y  c #463747",
"u  c #413B41",
"i  c #613E43",
"p  c #444244",
"a  c #4A4347",
"s  c #49464A",
"d  c #4B4B4C",
"f  c #5E444F",
"g  c #4C4353",
"h  c #4F4F52",
"j  c #544E5A",
"k  c #535355",
"l  c #55545C",
"z  c #5B535D",
"x  c #5A5A5D",
"c  c #694747",
"v  c #644D43",
"b  c #724F40",
"n  c #655446",
"m  c #6B5445",
"M  c #6A5649",
"N  c #6D584C",
"B  c #745242",
"V  c #725A4E",
"C  c #654D57",
"Z  c #675756",
"A  c #735D52",
"S  c #7A5B54",
"D  c #7A684D",
"F  c #6D605E",
"G  c #7B6156",
"H  c #76645C",
"J  c #7D635B",
"K  c #5C5C64",
"L  c #5C5B68",
"P  c #675B6B",
"I  c #656465",
"U  c #696468",
"Y  c #6D6C6C",
"T  c #766A68",
"R  c #796B6C",
"E  c #787069",
"W  c #6B6374",
"Q  c #686674",
"!  c #6A6A73",
"~  c #6E6C7B",
"^  c #726E7B",
"/  c #6F7070",
"(  c #737374",
")  c #74737C",
"_  c #7B7579",
"`  c #7B7A7D",
"'  c #88080A",
"]  c #930304",
"[  c #9E0707",
"{  c #950B0B",
"}  c #980F11",
"|  c #8A1919",
" . c #991819",
".. c #A10100",
"X. c #AB0000",
"o. c #B50000",
"O. c #97211D",
"+. c #992527",
"@. c #912A32",
"#. c #9C383C",
"$. c #A72B2A",
"%. c #8F443F",
"&. c #A2403F",
"*. c #AB6F26",
"=. c #8E4A4E",
"-. c #975858",
";. c #A64F54",
":. c #82655C",
">. c #88665F",
",. c #A26557",
"<. c #965D67",
"1. c #A35F69",
"2. c #836663",
"3. c #846963",
"4. c #886A67",
"5. c #8D6C6C",
"6. c #8E6D6F",
"7. c #95696B",
"8. c #906E6D",
"9. c #92716C",
"0. c #9B746F",
"q. c #867879",
"w. c #947373",
"e. c #9B7574",
"r. c #9E7A75",
"t. c #957B79",
"y. c #9C7A7A",
"u. c #A3686B",
"i. c #AA6F78",
"p. c #A27578",
"a. c #A37C7B",
"s. c #AA7E7D",
"d. c #CF8B30",
"f. c #88827D",
"g. c #9C877B",
"h. c #A4857C",
"j. c #AA817F",
"k. c #A4927D",
"l. c #737384",
"z. c #7B7A84",
"x. c #7C7C88",
"c. c #867E85",
"v. c #837F89",
"b. c #9F7F82",
"n. c #A57384",
"m. c #AB7E88",
"M. c #848484",
"N. c #84828B",
"B. c #8C898B",
"V. c #988989",
"C. c #9A928A",
"Z. c #878793",
"A. c #8B8B92",
"S. c #958D93",
"D. c #929293",
"F. c #959397",
"G. c #9A9A9C",
"H. c #A48483",
"J. c #AB8484",
"K. c #AC8D84",
"L. c #AB868B",
"P. c #A68888",
"I. c #AC8B8B",
"U. c #B58484",
"Y. c #B58B88",
"T. c #B48C8C",
"R. c #AC9487",
"E. c #B59788",
"W. c #B4958C",
"Q. c #BC9C8C",
"!. c #A38C91",
"~. c #B18C90",
"^. c #A69A96",
"/. c #B59494",
"(. c #BB9594",
"). c #BC9B95",
"_. c #BA9698",
"`. c #BC9B9A",
"'. c #BCA28F",
"]. c #A8A099",
"[. c #BAA998",
"{. c #9A9AA0",
"}. c #A29CA1",
"|. c #A2A2A4",
" X c #A6A5A7",
".X c #ABABAC",
"XX c #B1AEAA",
"oX c #ABAAB0",
"OX c #B4B4B5",
"+X c #B9B8BB",
"@X c #C2978E",
"#X c #C39992",
"$X c #C29D9D",
"%X c #C0A48F",
"&X c #C3A395",
"*X c #C7A896",
"=X c #C4A39B",
"-X c #CCAC9C",
";X c #D2AD9C",
":X c #CBB199",
">X c #D3B59E",
",X c #C6A5A4",
"<X c #C8A7A4",
"1X c #CBACA5",
"2X c #D4B4A4",
"3X c #D6B7A4",
"4X c #DBBCA4",
"5X c #DCBBAA",
"6X c #CBB8B1",
"7X c #E1BDA7",
"8X c #DEC1A6",
"9X c #DCC0A9",
"0X c #D3C9BF",
"qX c #E2C2A6",
"wX c #E4C4AA",
"eX c #E7C9AB",
"rX c #EBCCAD",
"tX c #E4C8B4",
"yX c #EECDB1",
"uX c #F0CFB1",
"iX c #F6D5B4",
"pX c #F8D7B6",
"aX c #F9D8B6",
"sX c #BBBCC1",
"dX c #C3C3C4",
"fX c #C9C9CD",
"gX c #D5CFC6",
"hX c #D4D4D5",
"jX c #DADADB",
"kX c #E4E4E4",
"lX c gray91",
"zX c None",
/* pixels */
"zXzXzXzXzXzXzXzXzXzXzXzXzXzXzXzXzXzXzXzXzXzXzXzXzXzXzXzXzXzXzXzXzXzXzXzXzXzXzXzXzXzXzXzXzXzXzXzXzXzXzXzXzXzXzXzXzXzXzXzXzXzXzXzXzXzXzXzXzXzXzXzXzXzXzXzXzXzXzXzX",
"zXzXzXzXzXzXzXzXzXzXzXzXzXzXzXzXzXzXzXzXzXzXzXzXzXzXzXzXzXzXzXzXzXzXzXzXzXm.m.zXzXzXzXzXzXzXzXzXzXzXzXzXzXzXzXzXzXzXzXzXzXzXzXzXzXzXzXzXzXzXzXzXzXzXzXzXzXzXzXzX",
"zXzXzXzXzXzXzXzXzXzXzXzXzXzXzXzXzXzXzXzXzXzXzXzXzXzXzXzXzXzXzXzXzXzXzXm.L././././.T./.~.m.zXzXzXzXzXzXzXzXzXzXzXzXzXzXzXzXzXzXzXzXzXzXzXzXzXzXzXzXzXzXzXzXzXzXzX",
"zXzXzXzXzXzXzXzXzXzXzXzXzXzXzXzXzXzXzXzXzXzXzXzXzXzXzXzXzXzXzXzXzXzXi.T./././././././././.L.n.n.7.zXzXzXzXzXzXzXzXzXzXzXzXzXzXzXzXzXzXzXzXzXzXzXzXzXzXzXzXzXzXzX",
"zXzXzXzXzXzXzXzXzXzXzXzXzXzXzXzXzXzXzXzXzXzXzXzXzXzXzXzXzXzXzXzX: ' { #.;.;.m././././.L.L.n.n.n.n.7.zXzXzXzXzXzXzXzXzXzXzXzXzXzXzXzXzXzXzXzXzXzXzXzXzXzXzXzXzXzX",
"zXzXzXzXzXzXzXzXzXzXzXzXzXzXzXzXzXzXzXzXzXzXzXzXzXzXzXzXzXzX$X@Xi.;.$.+.] ]  . .+.-.1.p.n.n.n.n.p.7.zXzXzXzXzXzXzXzXzXzXzXzXzXzXzXzXzXzXzXzXzXzXzXzXzXzXzXzXzXzX",
"zXzXzXzXzXzXzXzXzXzXzXzXzXzXzXzXzXzXzXzXzXzXzXzXzXzXzXzXzXzXzXzXR R t.P.u.;.+. .} ] ] +.#.<.u.i.7.zXzXzXzXzXzXzXzXzXzXzXzXzXzXzXzXzXzXzXzXzXzXzXzXzXzXzXzXzXzXzX",
"zXzXzXzXzXzXzXzXzXzXzXzXzXzXzXzXzXzXzXzXzXzXzXzXzXzXzXzXzXzXR.x K d d x R q.4.H.p.#.&.@.{ { ] | =.zXzXzXzXzXzXzXzXzXzXzXzXzXzXzXzXzXzXzXzXzXzXzXzXzXzXzXzXzXzXzX",
"zXzXzXzXzXzXzXzXzXzXzXzXzXzXzXzXzXzXzXzXzXzXzXzXzXzXzXzX4XeXE.K Q k Q ~ Q K x I Z *.d.,.,.;.+.@.=.zXzXzXzXzXzXzXzXzXzXzXzXzXzXzXzXzXzXzXzXzXzXzXzXzXzXzXzXzXzXzX",
"zXzXzXzXzXzXzXzXzXzXzXzXzXzXzXzXzXzXzXzXzXzXzXzXzXzX%XrXaXqXE j x K l.l.l.l.l.~ x H D k.g.B.S.6.=.<.7.zXzXzXzXzXzXzXzXzXzXzXzXzXzXzXzXzXzXzXzXzXzXzXzXzXzXzXzXzX",
"zXzXzXzXzXzXzXzXzXzXzXzXzXzXzXzXzXzXzXzXzXzXzXzXzXg.qXeXrX4XR K u K l.l.l.l.z.N.` ! G.OXG.G.A.zXzXzXzXzXzXzXzXzXzXzXzXzXzXzXzXzXzXzXzXzXzXzXzXzXzXzXzXzXzXzXzXzX",
"zXzXzXzXzXzXzXzXzXzXzXzXzXzXzXzXzXzXzXzX2XzXqXwXrXk.4XW.W.:X*XF.` H T ~ z.! M.( _ F.F.N.~ ~ zXzXzXzXzXzXzXzXzXzXzXzXzXzXzXzXzXzXzXzXzXzXzXzXzXzXzXzXzXzXzXzXzXzX",
"zXzXzXzXzXzXzXzXzXzXzXzXzXzXzXzXzX2X>XwXwXyXiXpXiX-XrX8X=XR.R.'.^.].K._ E E d Y B.M.( R 4.zXzXzXzXzXzXzXzXzXzXzXzXzXzXzXzXzXzXzXzXzXzXzXzXzXzXzXzXzXzXzXzXzXzXzX",
"zXzXzXzXzXzXzXzXzXzXzXzXzXzXzXzX4XyXyXyXyXrXeXyXiXiXiXiX3X3X3XeXrX:X]. X].q.C | : k ( s.w.2.zXzXzXzXzXzXzXzXzXzXzXzXzXzXzXzXzXzXzXzXzXzXzXzXzXzXzXzXzXzXzXzXzXzX",
"zXzXzXzXzXzXzXzXzXzXzXzXzXzXzX3XiXpXiXiXiXiXiXyXeXiXiXrX3X2X=X3XiXiXqX[.A.N.| X.] C A.s.e.8.5.zXzXzXzXzXzXzXzXzXzXzXzXzXzXzXzXzXzXzXzXzXzXzXzXzXzXzXzXzXzXzXzXzX",
"zXzXzXzXzXzXzXzXzXzXzXzXzXzX-XrXiXiXiXiXiXiXiXpXiXrXrXiXyXwX1X=X=X;XrXiX*X^.-.{ ..} =.s.U.U.U.w.zXzXzXzXzXzXzXzXzXzXzXzXzXzXzXzXzXzXzXzXzXzXzXzXzXzXzXzXzXzXzXzX",
"zXzXzXzXzXzXzXzXzXzXzXzXzXzX-XiXiXiXiXiXpXwXrXpXiXiXwXyXiXpXiXuXwX*X`.-XwX8XXXy.[ o.X.@.a.U.U.w.zXzXzXzXzXzXzXzXzXzXzXzXzXzXzXzXzXzXzXzXzXzXzXzXzXzXzXzXzXzXzXzX",
"zXzXzXzXzXzXzXzXzXzXzXzXzXzX3XiXiXiXiXpXiX*X7XaXiXiXiX7XiXiXiXiXpXiX5X=X`.-X*XR.O.X.X.| w.U.U.w.5.zXzXzXzXzXzXzXzXzXzXzXzXzXzXzXzXzXzXzXzXzXzXzXzXzXzXzXzXzXzXzX",
"zXzXzXzXzXzXzXzXzXzXzXzXzXzX5XiXiXiXpXiX9X(.7XaXiXiXiXiX5XiXpXiXiXiXpXiX3X)./.&XE.%.{ | w.U.j.5.e.:.zXzXzXzXzXzXzXzXzXzXzXzXzXzXzXzXzXzXzXzXzXzXzXzXzXzXzXzXzXzX",
"zXzXzXzXzXzXzXzXzXzXzXzXzXzX3XiXiXpXiXwX=X#XwXpXiXiXiXiXwXwXuXiXiXiXiXpXiXrX-X/.).W.u.%.w.U.w.5.s.G zXzXzXzXzXzXzXzXzXzXzXzXzXzXzXzXzXzXzXzXzXzXzXzXzXzXzXzXzXzX",
"zXzXzXzXzXzXzXzXzXzXzXzXzXg.3XiXiXrX3X,X(.4XiXiXiXeXiXpXrX).2XrXpXiXiXiXiXpXiX8X=X/./.I.h.e.w.r.s.G zXzXzXzXzXzXzXzXzXzXzXzXzXzXzXzXzXzXzXzXzXzXzXzXzXzXzXzXzXzX",
"zXzXzXzXzXzXzXzXzXzXzXzXzXg.2XwX5X1X,X(.;XiXpXiXiX4XiXpXrXE.,X2XeXiXpXiXiXiXiXiXrX2X)././.H.r.e.s.G zXzXzXzXzXzXzXzXzXzXzXzXzXzXzXzXzXzXzXzXzXzXzXzXzXzXzXzXzXzX",
"zXzXzXzXzXzXzXzXzXzXzXzXzXe.`.,X,X,X(.*XiXpXiXiX3X3XiXiXrXY.$X,X<X5XeXiXeX%X4XiXpXiXwX_.T.a.G J a.A zXzXzXzXzXzXzXzXzXzXzXzXzXzXzXzXzXzXzXzXzXzXzXzXzXzXzXzXzXzX",
"zXzXzXzXzXzXzXzXzXzXzXzXzXe.I.,X,X$X#XrXpXiXpX8X-X3XiXpXqXw.`.,X,X,X<X2XW.K.E.eXrXrXrX3XW.t.J J e.A v zXzXzXzXzXzXzXzXzXzXzXzXzXzXzXzXzXzXzXzXzXzXzXzXzXzXzXzXzX",
"zXzXzXzXzXzXzXzXzXzXzXzXzXzXy.,X$X#XeXaXpXiXwX-X2X3XiXpXqX5.W.`.,X,X,X,X,X`.<X1X1X1X1X1X<X`./.5.3.A J G zXzXzXzXzXzXzXzXzXzXzXzXzXzXzXzXzXzXzXzXzXzXzXzXzXzXzXzX",
"zXzXzXzXzXzXzXzXzXzXzXzXzXzXw.,X,X3XaXrXqX:X&X*X-X2XrXiX4X4.w.H.I./.,X,X`.`.`./.I.~./././.`._.3.V 2.w.w.3.n zXzXzXzXzXzXzXzXzXzXzXzXzXzXzXzXzXzXzXzXzXzXzXzXzXzX",
"zXzXzXzXzXzXzXzXzXzXzXzXzXzX5./.<X3X>XY.j.s.s.s.j.Y.E.E.h.2.y.a.H.e./.L.y.H.5.y.A x.}.M.N.S.N.F V J J G G M zXzXzXzXzXzXzXzXzXzXzXzXzXzXzXzXzXzXzXzXzXzXzXzXzXzX",
"zXzXzXzXzXzXzXzXzXzXzXzXzXzXzXH.,X$XL.U.U.J.s.Y.;X4XwXwX4X:XK.I./.y.I.y.P./.5.I.2.N.sXv./.R.C.T A J A J >.p.>.:.zXzXzXzXzXzXzXzXzXzXzXzXzXzXzXzXzXzXzXzXzXzXzXzX",
"zXzXzXzXzXzXzXzXzXzXzXzXzXzXzXw.`.,X$XT.L.).3XrXiXpXpXpXpXpXeX'.P.w.P.y.P.H.P.T.4.N.oXv._.H.c.T N S 3.w.w.e.e.w.2.G zXzXzXzXzXzXzXzXzXzXzXzXzXzXzXzXzXzXzXzXzXzX",
"zXzXzXzXzXzXzXzXzXzXzXzXzXzXzXzXP.,X,X,X,X2X5X5XwXyXiXiXpXpXpXiX>Xh.a.5.y.e.I./.2.x.|.l.c.c._ F :.8.8.p.p.U.U.U.U.s.>.zXzXzXzXzXzXzXzXzXzXzXzXzXzXzXzXzXzXzXzXzX",
"zXzXzXzXzXzXzXzXzXzXzXzXzXzXzXzX5.P.`.,X,X,X,X,X,X<X2X5XeXrXuXeX4XqX4X&XQ.Q.*XV.A q.C.V.C.C.q.e.:.J s.U.U.U.U.U.U.a.9.3.G zXzXzXzXzXzXzXzXzXzXzXzXzXzXzXzXzXzXzX",
"zXzXzXzXzXzXzXzXzXzXzXzXzXzXzXzXzXzXa./.,X,X,X,X,X,X,X,X,X<X&X*XwX4XqXiXaXiXrX4XE.g.K.*X-X-XE.p.4.:.w.e.s.U.U.j.9.9.p.9.0.s.9.>.:.zXzXzXzXzXzXzXzXzXzXzXzXzXzXzX",
"zXzXzXzXzXzXzXzXzXzXzXzXzXzXzXzXzXzXE.K.h.a.I./.,X,X,X$Xy.P.`.=X-XwXiXiXtX0XgXgXgX Xq.Q.*X*XQ.r.p.:.2.w.w.r.p.A :.0.8.s.U.U.U.p.w.f.G.) zXzXzXzXzXzXzXzXzXzXzXzX",
"zXzXzXzXzXzXzXzXzXzXzXzXzXzXzXzXzXzX-X3X&XW.P.a.H.H.`./.w./.e.,X,X1X-X6X6X|.+XhXhXdX.XV.R.W.P.9.4.8.A 3.5.w.G 2.J G U.U.U.j.9.q.M.D.OX XA.l.zXzXzXzXzXzXzXzXzXzX",
"zXzXzXzXzXzXzXzXzXzXzXzXzXzXzXzXzXh.-X*X)./././.T.I.a.e.5.P.I.,X,X<XP.^.Z.+XkXlXlXlXkXfX}.!././.T.8.5.V M G n J G 3.e.r.s.:./ ` |.OXOXOXOXG.z.zXzXzXzXzXzXzXzXzX",
"zXzXzXzXzXzXzXzXzXzXzXzXzXzXzXzXzXe.&X/././././././././.I.J.a.a.I.`.T.V.l.dXjXkXlXlXlXlXjX+X^././.r.5.5.M zXzXzXN 5.w.e.J U l F.OXOXOXOXOXOX|.N.zXzXzXzXzXzXzXzX",
"zXzXzXzXzXzXzXzXzXzXzXzXzXzXzXzXzXa.)././././././././././././.T.e.5.e.b.R G.hXhXhXlXkXjXjX+XdX+X}.!.5.8.M zXzXzXzXzXA 2.A a zX) .XOXOXOXOXOXOXOX{.zXzXzXzXzXzXzX",
"zXzXzXzXzXzXzXzXzXzXzXzXzXzXzXzX8.T././././././././././././././.P.w.5.P.T.t.V.dXdXsXjXdXsXfXoXOXdX.Xq.6.M zXzXzXzXzXzXzXzXzXzXzX( |.OX.XA.G.G. X.X XA.zXzXzXzXzX",
"zXzXzXzXzXzXzXzXzXzXzXzXzXzXzXzXe.T././././././././././././././.P.w.H./././.s.Y dXfXz..XOX{..XM.( G..X) n zXzXzXzXzXzXzXzXzXzXzXzXx ( B.d x x I Y D..Xx.zXzXzXzX",
"zXzXzXzXzXzXzXzXzXzXzXzXzXzXzXzXe.T././././././././././././././.P.5.H./././.s.T Y  XZ q.M.B.k B.( ) .X) n zXzXzXzXzXzXzXzXzXzXzXzXzXd M.p zXzXzXzXk B.( p zXzXzX",
"zXzXzXzXzXzXzXzXzXzXzXzXzXzXzXzXe.T././././././././././././././.P.5.H./././.5.I.Y D.I V._ M.k B./ Q N.q.M zXzXzXzXzXzXzXzXzXzXzXzXzXd ` I zXzXzXzX( M.Y d zXzXzX",
"zXzXzXzXzXzXzXzXzXzXzXzXzXzXzXzXy.T./././././././././././././.I.y.w.P./././.5.I.I.q.t./.P.q.V.V.q.P.5.8.M zXzXzXzXzXzXzXzXzXzXzXzXzXzXzXzXzXzXzXx I Y Y k zXzXzX",
"zXzXzXzXzXzXzXzXzXzXzXzXzXzXzXzXr././././././././././././././.I.5.e.T./././.5.T././././././././././.5.5.M zXzXzXzXzXzXzXzXzXzXzXzXzXzXzXzXzXzXzXzXzXd zXzXzXzXzX",
"zXzXzXzXzXzXzXzXzXzXzXzXzXzXzXzXr././././././././././././././.I.5.5.w.w.w.y.I./././././././././././.5.5.M zXzXzXzXzXzXzXzXzXzXzXzXzXzXzXzXzXzXzXzXzXzXzXzXzXzXzX",
"zXzXzXzXzXzXzXzXzXzXzXzXzXzXzXzXr././././././././././././././.I.e.y.y.y.t.I./././././././././././.T.8.5.M zXzXzXzXzXzXzXzXzXzXzXzXzXzXzXzXzXzXzXzXzXzXzXzXzXzXzX",
"zXzXzXzXzXzXzXzXzXzXzXzXzXzXzXzXr././././././././././././././././././././././././././././././././.J.5.8.M zXzXzXzXzXzXzXzXzXzXzXzXzXzXzXzXzXzXzXzXzXzXzXzXzXzXzX",
"zXzXzXzXzXzXzXzXzXzXzXzXzXzXzXzXr././././././././././././././././././././././././././././././././.y.5.w.M zXzXzXzXzXzXzXzXzXzXzXzXzXzXzXzXzXzXzXzXzXzXzXzXzXzXzX",
"zXzXzXzXzXzXzXzXzXzXzXzXzXzXzXzXy././././././././././././././././././././././././././././././././.w.8.w.M zXzXzXzXzXzXzXzXzXzXzXzXzXzXzXzXzXzXzXzXzXzXzXzXzXzXzX",
"zXzXzXzXzXzXzXzXzXzXzXzXzXzXzXzXr././././././././././././././././././././././././././././././././.w.5.w.M zXzXzXzXzXzXzXzXzXzXzXzXzXzXzXzXzXzXzXzXzXzXzXzXzXzXzX",
"zXzXzXzXzXzXzXzXzXzXzXzXzXzXzXe.J./././././././././././././././././././././././././././././././.T.8.5.9.M zXzXzXzXzXzXzXzXzXzXzXzXzXzXzXzXzXzXzXzXzXzXzXzXzXzXzX",
"zXzXzXzXzXzXzXzXzXzXzXzXzXzXzXe.T./././././././././././././././././././././././././././././././.H.4.5.A zXzXzXzXzXzXzXzXzXzXzXzXzXzXzXzXzXzXzXzXzXzXzXzXzXzXzXzX",
"zXzXzXzXzXzXzXzXzXzXzXzXzXzXe.L././././././././././././././././././././././././././././././././.e.5.w.M zXzXzXzXzXzXzXzXzXzXzXzXzXzXzXzXzXzXzXzXzXzXzXzXzXzXzXzX",
"zXzXzXzXzXzXzXzXzXzXzXzXzXzXr./././././././././././././././././././././././././././././././././.w.5.w.N zXzXzXzXzXzXzXzXzXzXzXzXzXzXzXzXzXzXzXzXzXzXzXzXzXzXzXzX",
"zXzXzXzXzXzXzXzXzXzXzXzXzXe.T././././././././././././././././././././././././././././././././.J.8.5.5.M zXzXzXzXzXzXzXzXzXzXzXzXzXzXzXzXzXzXzXzXzXzXzXzXzXzXzXzX",
"zXzXzXzXzXzXzXzXzXzXzXzXzXa././././././././././././././././././././././././././././././././.T.w.5.w.J M zXzXzXzXzXzXzXzXzXzXzXzXzXzXzXzXzXzXzXzXzXzXzXzXzXzXzXzX",
"zXzXzXzXzXzXzXzXzXzXzXzXe.T./././././././././././././././././././././././././././././././.T.s.5.5.e.N zXzXzXzXzXzXzXzXzXzXzXzXzXzXzXzXzXzXzXzXzXzXzXzXzXzXzXzXzX",
"zXzXzXzXzXzXzXzXzXzXzXzXe./././././././././././././././././././././././././././././././.T.U.w.5.e.5.N zXzXzXzXzXzXzXzXzXzXzXzXzXzXzXzXzXzXzXzXzXzXzXzXzXzXzXzXzX",
"zXzXzXzXzXzXzXzXzXzXzXw.L./././././././././././././././././././././././././././././././.U.p.5.8.e.J M zXzXzXzXzXzXzXzXzXzXzXzXzXzXzXzXzXzXzXzXzXzXzXzXzXzXzXzXzX",
"zXzXzXzXzXzXzXzXzXzXzXr./././././././././././././././././././././././././././././././.T.U.w.5.e.e.A zXzXzXzXzXzXzXzXzXzXzXzXzXzXzXzXzXzXzXzXzXzXzXzXzXzXzXzXzXzX",
"zXzXzXzXzXzXzXzXzXzXw.J././././././././././././././././././././././././././././././.T.U.p.5.w.w.5.N zXzXzXzXzXzXzXzXzXzXzXzXzXzXzXzXzXzXzXzXzXzXzXzXzXzXzXzXzXzX",
"zXzXzXzXzXzXzXzXzXzXw.J././././././././././././././././././././././././././././././.U.U.w.5.e.e.J M zXzXzXzXzXzXzXzXzXzXzXzXzXzXzXzXzXzXzXzXzXzXzXzXzXzXzXzXzXzX",
"zXzXzXzXzXzXzXzXzXzXw.J./././././././././././././././././././././././././././././.U.U.p.5.w.w.e.A zXzXzXzXzXzXzXzXzXzXzXzXzXzXzXzXzXzXzXzXzXzXzXzXzXzXzXzXzXzXzX",
"zXzXzXzXzXzXzXzXzXw.s.T././././././././././././././././././././././././././././.Y.U.U.p.5.w.w.e.A zXzXzXzXzXzXzXzXzXzXzXzXzXzXzXzXzXzXzXzXzXzXzXzXzXzXzXzXzXzXzX",
"zXzXzXzXzXzXzXzXzXw.J././././././././././././././././././././././././././././.T.U.U.U.e.G e.e.5.N zXzXzXzXzXzXzXzXzXzXzXzXzXzXzXzXzXzXzXzXzXzXzXzXzXzXzXzXzXzXzX",
"zXzXzXzXzXzXzXzXzXw.J.T./././././././././././././././././././././././././.T.U.U.U.U.U.e.A e.5.C zXzXzXzXzXzXzXzXzXzXzXzXzXzXzXzXzXzXzXzXzXzXzXzXzXzXzXzXzXzXzXzX",
"zXzXzXzXzXzXzXzXzXw.J.U.U.T.T./._./././././././././././././././././././.T.U.U.U.U.U.U.e.N 2.C zXzXzXzXzXzXzXzXzXzXzXzXzXzXzXzXzXzXzXzXzXzXzXzXzXzXzXzXzXzXzXzXzX",
"zXzXzXzXzXzXzXzXzXzXS >.w.w.w.w.e.e.p.r.r.r.r.g.P.P.P.I.P.P.I.P.g.a.r.r.e.w.w.w.w.w.w.8.Z a zXzXzXzXzXzXzXzXzXzXzXzXzXzXzXzXzXzXzXzXzXzXzXzXzXzXzXzXzXzXzXzXzXzX",
"zXzXzXzXzXzXzXzXzXzX; w v v v v v v m m e r m m V r zXc e e e e 5 5 5 5 7 8 8 8 7 8 8 3 $ zXzXzXzXzXzXzXzXzXzXzXzXzXzXzXzXzXzXzXzXzXzXzXzXzXzXzXzXzXzXzXzXzXzXzX",
"zXzXzXzXzXzXzXzXzXzX; i c t B B B B B r 5 t B B b 2 zXX , 1 1 1 1 1 1 4 9 9 4 4 9 q < X zXzXzXzXzXzXzXzXzXzXzXzXzXzXzXzXzXzXzXzXzXzXzXzXzXzXzXzXzXzXzXzXzXzXzXzX",
"zXzXzXzXzXzXzXzXzXzX; C P c r B B B b 5 e B B B w 1 zXo 1 1 1 1 1 4 q q 4 4 4 q 0 > O zXzXzXzXzXzXzXzXzXzXzXzXzXzXzXzXzXzXzXzXzXzXzXzXzXzXzXzXzXzXzXzXzXzXzXzXzX",
"zXzXzXzXzXzXzXzXzX; 8 P W W P c t B r 5 t B B B 2 zXX > 1 1 1 4 9 q 9 4 4 q q < @ O zXzXzXzXzXzXzXzXzXzXzXzXzXzXzXzXzXzXzXzXzXzXzXzXzXzXzXzXzXzXzXzXzXzXzXzXzXzX",
"zXzXzXzXzXzXzXzXzX; C ~ P W W P C b e e B B B b 2 zXX 1 1 1 4 q q 4 4 9 q 9 > > 1 , o zXzXzXzXzXzXzXzXzXzXzXzXzXzXzXzXzXzXzXzXzXzXzXzXzXzXzXzXzXzXzXzXzXzXzXzXzX",
"zXzXzXzXzXzXzXzXzX; C l.l.W ~ W W P 8 3 r r B w 1 zXX , 4 q q q 9 4 q q 0 < , , @ @ . . zXzXzXzXzXzXzXzXzXzXzXzXzXzXzXzXzXzXzXzXzXzXzXzXzXzXzXzXzXzXzXzXzXzXzXzX",
"zXzXzXzXzXzXzXzX; 8 ~ l.l.l.l.l.W W g & C c c 2 zXzXX 4 q q q q q q < > % 6 y y s s u 6 zXzXzXzXzXzXzXzXzXzXzXzXzXzXzXzXzXzXzXzXzXzXzXzXzXzXzXzXzXzXzXzXzXzXzXzX",
"zXzXzXzXzXzXzXzX; f l.^ ~ W W W W P y & z z z 7 zXzXX % % % % % @ @ * - s k L ) z.z.) ! K k h p zXzXzXzXzXzXzXzXzXzXzXzXzXzXzXzXzXzXzXzXzXzXzXzXzXzXzXzXzXzXzXzX",
"zXzXzXzXzXzXzXzX; f W W W ^ Q P j y & # y y = 3 zXzXX $ * * * $ = p p p u - p s l U z.v.) ) ( U l l d d p p zXzXzXzXzXzXzXzXzXzXzXzXzXzXzXzXzXzXzXzXzXzXzXzXzXzX",
"zXzXzXzXzXzXzXzXzX6 P W g y u y z L L K l l d p zXzXX # # # # # + O O O O X X X O $ * = = u k k d d d k d p zXzXzXzXzXzXzXzXzXzXzXzXzXzXzXzXzXzXzXzXzXzXzXzXzXzX",
"zXzXzXzXzXzXzXzXzX  u d - - d x ~ N.Z.x.~ ^ Q Q K K zXzXzXzXzXzXzXzXzXzXzXzXzXzXzXzXzXzXzXzXzXzXzXzXzXzXzXzXzXzXzXzXzXzXzXzXzXzXzXzXzXzXzXzXzXzXzXzXzXzXzXzXzXzX",
"zXzXzXzXzXzXzXzXzX  - s p - - - u l z.A.v.v.v.v.^ Q j j - X zXzXzXzXzXzXzXzXzXzXzXzXzXzXzXzXzXzXzXzXzXzXzXzXzXzXzXzXzXzXzXzXzXzXzXzXzXzXzXzXzXzXzXzXzXzXzXzXzXzX",
"zXzXzXzXzXzXzXzXzXzXzXX $ $ $ = - - - u u g j g g u - $ $ X zXzXzXzXzXzXzXzXzXzXzXzXzXzXzXzXzXzXzXzXzXzXzXzXzXzXzXzXzXzXzXzXzXzXzXzXzXzXzXzXzXzXzXzXzXzXzXzXzXzX"
};
