/* XPM */
static char *result[] = {
/* columns rows colors chars-per-pixel */
"80 80 219 2 ",
"   c #241323",
".  c #2A1B2A",
"X  c #2E242E",
"o  c #302730",
"O  c #342C35",
"+  c #392F39",
"@  c #3A323A",
"#  c #3E3A3E",
"$  c #570C09",
"%  c #563427",
"&  c #5A332C",
"*  c #47373D",
"=  c #573835",
"-  c #533D3A",
";  c #742D2D",
":  c #61312E",
">  c #633231",
",  c #693D37",
"<  c #56443D",
"1  c #6A433B",
"2  c #6C463D",
"3  c #76473C",
"4  c #433844",
"5  c #593C47",
"6  c #444344",
"7  c #4A4348",
"8  c #4B4B4C",
"9  c #534648",
"0  c #54454B",
"q  c #4E4E51",
"w  c #514951",
"e  c #574857",
"r  c #525253",
"t  c #53535A",
"y  c #5B555D",
"u  c #6B4944",
"i  c #6B574A",
"p  c #735241",
"a  c #71564B",
"s  c #654953",
"d  c #6B5B59",
"f  c #725050",
"g  c #735D52",
"h  c #7C5E55",
"j  c #7C6159",
"k  c #5C5B64",
"l  c #5C5967",
"z  c #655766",
"x  c #695F70",
"c  c #676569",
"v  c #796467",
"b  c #676574",
"n  c #6B6474",
"m  c #6C6C74",
"M  c #6D6A79",
"N  c #726C71",
"B  c #706D7E",
"V  c #77767B",
"C  c #75757D",
"Z  c #830505",
"A  c #940202",
"S  c #980708",
"D  c #941415",
"F  c #A50000",
"G  c #B50000",
"H  c #A7181A",
"J  c #91211D",
"K  c #981C21",
"L  c #842624",
"P  c #9A282C",
"I  c #973539",
"U  c #A03135",
"Y  c #903C42",
"T  c #934E51",
"R  c #9C4852",
"E  c #805D56",
"W  c #825E59",
"Q  c #A3484A",
"!  c #AA5356",
"~  c #84675A",
"^  c #84635C",
"/  c #926B54",
"(  c #856564",
")  c #896666",
"_  c #866A67",
"`  c #8B6A6A",
"'  c #976867",
"]  c #916E6D",
"[  c #8A736C",
"{  c #97726B",
"}  c #93716C",
"|  c #9D6A74",
" . c #8C7475",
".. c #837879",
"X. c #947373",
"o. c #9B7474",
"O. c #9B7A76",
"+. c #957878",
"@. c #9C7C7B",
"#. c #A06E7A",
"$. c #A17676",
"%. c #AE7776",
"&. c #A47679",
"*. c #A37B7B",
"=. c #AB7E7E",
"-. c #CB8639",
";. c #9F8152",
":. c #BC9557",
">. c #938372",
",. c #9C877B",
"<. c #A6857D",
"1. c #A48A7C",
"2. c #A79076",
"3. c #716F80",
"4. c #737384",
"5. c #7B7B85",
"6. c #7D7C89",
"7. c #867B89",
"8. c #9A7881",
"9. c #A47484",
"0. c #7F8089",
"q. c #84838B",
"w. c #8A8788",
"e. c #89858A",
"r. c #978687",
"t. c #9E978D",
"y. c #8C8C93",
"u. c #8E8E98",
"i. c #968D91",
"p. c #949495",
"a. c #9D9493",
"s. c #99979C",
"d. c #A48483",
"f. c #AB8382",
"g. c #A48B82",
"h. c #AB8C84",
"j. c #A8888B",
"k. c #AD8C8C",
"l. c #B58484",
"z. c #B78986",
"x. c #B38D8D",
"c. c #AB9286",
"v. c #B29586",
"b. c #B4948B",
"n. c #B9958A",
"m. c #B49B8A",
"M. c #BC9B8C",
"N. c #A38D92",
"B. c #A98E90",
"V. c #B08F90",
"C. c #A79794",
"Z. c #B59494",
"A. c #BA9695",
"S. c #BA9D95",
"D. c #BC9B9A",
"F. c #BCA38D",
"G. c #ABA29C",
"H. c #BCA292",
"J. c #B6A59C",
"K. c #9C9CA3",
"L. c #A29CA2",
"P. c #9FA2A2",
"I. c #A2A2A4",
"U. c #A9A8A9",
"Y. c #BBA8A3",
"T. c #ACADB2",
"R. c #B0AFB1",
"E. c #B3B3B5",
"W. c #B8B8BB",
"Q. c #C19B8F",
"!. c #C29E98",
"~. c #C39C9C",
"^. c #C1A28F",
"/. c #C4A494",
"(. c #CAAB96",
"). c #C4A39C",
"_. c #C7A898",
"`. c #CCAC9C",
"'. c #D1AD9C",
"]. c #C7B09D",
"[. c #CEB29C",
"{. c #D2B49C",
"}. c #D7BA9F",
"|. c #C5A4A4",
" X c #C8A7A6",
".X c #CBABA4",
"XX c #CFB4A9",
"oX c #D3B4A4",
"OX c #D5B8A6",
"+X c #DBBCA4",
"@X c #DBBCAA",
"#X c #E0BFA6",
"$X c #DCC1A4",
"%X c #E1C3A6",
"&X c #E4C4AB",
"*X c #E8C7AD",
"=X c #E7C9AB",
"-X c #EACBAE",
";X c #EECEB1",
":X c #F0CFB1",
">X c #EFD1B0",
",X c #F5D5B4",
"<X c #F8D7B6",
"1X c #F0D6BC",
"2X c #BDBDC1",
"3X c #C3C3C5",
"4X c #C8C8C7",
"5X c #C7C7C8",
"6X c #CBCBCB",
"7X c #CFD0D2",
"8X c #D5D5D5",
"9X c #D7D7DA",
"0X c #DBDADC",
"qX c #E6DDD4",
"wX c gray90",
"eX c #EFEFF1",
"rX c gray96",
"tX c #F9F9F9",
"yX c None",
/* pixels */
"yXyXyXyXyXyXyXyXyXyXyXyXyXyXyXyXyXyXyXyXyXyXyXyXyXyXyXyXyXyXyXyXyXyXyXyXyXyXyXyXyXyXyXyXyXyXyXyXyXyXyXyXyXyXyXyXyXyXyXyXyXyXyXyXyXyXyXyXyXyXyXyXyXyXyXyXyXyXyXyX",
"yXyXyXyXyXyXyXyXyXyXyXyXyXyXyXyXyXyXyXyXyXyXyXyXyXyXyXyXyXyXyXyXyXyXyXyXyXyXyXyXyXyXyXyXyXyXyXyXyXyXyXyXyXyXyXyXyXyXyXyXyXyXyXyXyXyXyXyXyXyXyXyXyXyXyXyXyXyXyXyX",
"yXyXyXyXyXyXyXyXyXyXyXyXyXyXyXyXyXyXyXyXyXyXyXyXyXyXyXyXyXyXyXyXyXyXyXyXyXyXyXyXyXyXyXyXyXyXyXyXyXyXyXyXyXyXyXyXyXyXyXyXyXyXyXyXyXyXyXyXyXyXyXyXyXyXyXyXyXyXyXyX",
"yXyXyXyXyXyXyXyXyXyXyXyXyXyXyXyXyXyXyXyXyXyXyXyXyXyXyXyXyXyXyXyXyXk.Z.yXyXyXyXyXyXyXyXyXyXyXyXyXyXyXyXyXyXyXyXyXyXyXyXyXyXyXyXyXyXyXyXyXyXyXyXyXyXyXyXyXyXyXyXyX",
"yXyXyXyXyXyXyXyXyXyXyXyXyXyXyXyXyXyXyXyXyXyXyXyXyXyXyXyXyXyXyXo.f.Z.Z.~.~.~.yXyXyXyXyXyXyXyXyXyXyXyXyXyXyXyXyXyXyXyXyXyXyXyXyXyXyXyXyXyXyXyXyXyXyXyXyXyXyXyXyXyX",
"yXyXyXyXyXyXyXyXyXyXyXyXyXyXyXyXyXyXyXyXyXyXyXyXyXyXyXyXyXyXT k.Z.Z.Z.Z.Z.A.D.D.~.|.~.*.yXyXyXyXyXyXyXyXyXyXyXyXyXyXyXyXyXyXyXyXyXyXyXyXyXyXyXyXyXyXyXyXyXyXyXyX",
"yXyXyXyXyXyXyXyXyXyXyXyXyXyXyXyXyXyXyXyXyXyXyXyXyXyXyXyXyXA S P Q %.=.x.Z.Z.Z.x.k.&.&.#.#.#.yXyXyXyXyXyXyXyXyXyXyXyXyXyXyXyXyXyXyXyXyXyXyXyXyXyXyXyXyXyXyXyXyXyX",
"yXyXyXyXyXyXyXyXyXyXyXyXyXyXyXyXyXyXyXyXyXyXyXyXyXyX~.~.l.! U S A A A P Y Q Q ' | 9.9.9.9.' yXyXyXyXyXyXyXyXyXyXyXyXyXyXyXyXyXyXyXyXyXyXyXyXyXyXyXyXyXyXyXyXyXyX",
"yXyXyXyXyXyXyXyXyXyXyXyXyXyXyXyXyXyXyXyXyXyXyXyXyXyXyXyX+.N.j.%.! U P S A A A S D R R R T yXyXyXyXyXyXyXyXyXyXyXyXyXyXyXyXyXyXyXyXyXyXyXyXyXyXyXyXyXyXyXyXyXyXyX",
"yXyXyXyXyXyXyXyXyXyXyXyXyXyXyXyXyXyXyXyXyXyXyXyXyXyXyXyXC q.M e.e.7.8.' R P K D D A A Z $ yXyXyXyXyXyXyXyXyXyXyXyXyXyXyXyXyXyXyXyXyXyXyXyXyXyXyXyXyXyXyXyXyXyXyX",
"yXyXyXyXyXyXyXyXyXyXyXyXyXyXyXyXyXyXyXyXyXyXyX'.%X&X[.c y.5.5.p.y.e.6.7.{ -.-.$.| R R I yXyXyXyXyXyXyXyXyXyXyXyXyXyXyXyXyXyXyXyXyXyXyXyXyXyXyXyXyXyXyXyXyXyXyXyX",
"yXyXyXyXyXyXyXyXyXyXyXyXyXyXyXyXyXyXyXyXyXyX+X:X,X,X2.;.w.M p.p.p.p.p.0.w./ :.2.C 7.v yXyX#.| yXyXyXyXyXyXyXyXyXyXyXyXyXyXyXyXyXyXyXyXyXyXyXyXyXyXyXyXyXyXyXyXyX",
"yXyXyXyXyXyXyXyXyXyXyXyXyXyXyXyXyXyXyXyXyX+X%X%X%X,Xm.,.c m p.p.p.p.s.I.p.q.5X7XI.U.t yXyXyXyXyXyXyXyXyXyXyXyXyXyXyXyXyXyXyXyXyXyXyXyXyXyXyXyXyXyXyXyXyXyXyXyXyX",
"yXyXyXyXyXyXyXyXyXyXyXyXyXyXyXyX+X=X&X*X*X%XoX).).OX=XC.K.C N w.p.w.y.p.p.E.W.I...y.yXyXyXyXyXyXyXyXyXyXyXyXyXyXyXyXyXyXyXyXyXyXyXyXyXyXyXyXyXyXyXyXyXyXyXyXyXyX",
"yXyXyXyXyXyXyXyXyXyXyXyXyXoX%X-X,X,X,X,X<X,X,X&X.X/.:X[.G.T.y.C q.V V R.T.w.c r._./.yXyXyXyXyXyXyXyXyXyXyXyXyXyXyXyXyXyXyXyXyXyXyXyXyXyXyXyXyXyXyXyXyXyXyXyXyXyX",
"yXyXyXyXyXyXyXyXyXyXyXyX+X&X*X*X*X*X*X*X:X<X%X+X&X,X,X,X+XY.E.W.P.f ; Y T v ,.oXH.`.yXyXyXyXyXyXyXyXyXyXyXyXyXyXyXyXyXyXyXyXyXyXyXyXyXyXyXyXyXyXyXyXyXyXyXyXyXyX",
"yXyXyXyXyXyXyXyXyXyX`.*X,X<X<X<X,X<X<X,X&X;X-X&X+X&X*X,X,X&XXXU.w.( Z Z A ` [ `./.1.yXyXyXyXyXyXyXyXyXyXyXyXyXyXyXyXyXyXyXyXyXyXyXyXyXyXyXyXyXyXyXyXyXyXyXyXyXyX",
"yXyXyXyXyXyXyXyXyXyX&X,X<X,X,X,X,X,X,X<X,X&X=X*X@X.X|.OX&X,X,X{.J.R.i.L F H ^ .XoX`.H.>.yXyXyXyXyXyXyXyXyXyXyXyXyXyXyXyXyXyXyXyXyXyXyXyXyXyXyXyXyXyXyXyXyXyXyXyX",
"yXyXyXyXyXyXyXyXyX`.;X,X*X*X>X,X,X-X&X<X<X;X&X,X;X*XOX.X.XoX+X-X=X_.U.O.H G S $..XXX_.,.M.yXyXyXyXyXyXyXyXyXyXyXyXyXyXyXyXyXyXyXyXyXyXyXyXyXyXyXyXyXyXyXyXyXyXyX",
"yXyXyXyXyXyXyXyXl._.;X=X+X,X<X,X=X+X%X<X,X<X%X&X,X<X,X:X&X@X`._.`.[.H.t.L F G D f.|.D.1.(.v.yXyXyXyXyXyXyXyXyXyXyXyXyXyXyXyXyXyXyXyXyXyXyXyXyXyXyXyXyXyXyXyXyXyX",
"yXyXyXyXyXyXyXyXl./.+X`.$X,X;X@X.XXX=X<X,X,X,X@X-X,X,X,X<X,X,X&X`.n.!.c.3 A A A L Z.Z.m.%XF.>.yXyXyXyXyXyXyXyXyXyXyXyXyXyXyXyXyXyXyXyXyXyXyXyXyXyXyXyXyXyXyXyXyX",
"yXyXyXyXyXyXyXyXl.Q./.).$X%X.X|.|.OX,X,X,X,X<X&X{.,X<X,X,X,X<X<X,X%X).Z.k.' J A S / ,..X%Xm.v yXyXyXyXyXyXyXyXyXyXyXyXyXyXyXyXyXyXyXyXyXyXyXyXyXyXyXyXyXyXyXyXyX",
"yXyXyXyXyXyXyXyXyXc.b.|.XX X|.|..X-X<X<X=X-X<X>Xm.+X,X<X,X,X,X,X<X<X;XoXD.Z.g.T L J g..XoXj.d yXyXyXyXyXyXyXyXyXyXyXyXyXyXyXyXyXyXyXyXyXyXyXyXyXyXyXyXyXyXyXyXyX",
"yXyXyXyXyXyXyXyXyX>.k.|.|.|.|.).&X,X,X<X#X&X<X<XO.D.OX*X,X<X<X,X<X,X,X,X&X`.Z.V.,.~ 1. X.Xj.v yXyXyXyXyXyXyXyXyXyXyXyXyXyXyXyXyXyXyXyXyXyXyXyXyXyXyXyXyXyXyXyXyX",
"yXyXyXyXyXyXyXyXyX>.k.|.|.~./.%X<X,X<X>X{.%X<X,XO.Z.|..X@X;X,X<X+Xv.m.&X<X,X+X!.Z.,._ b.|.r.( yXyXyXyXyXyXyXyXyXyXyXyXyXyXyXyXyXyXyXyXyXyXyXyXyXyXyXyXyXyXyXyXyX",
"yXyXyXyXyXyXyXyXyXyX@.D.A.'.-X,X,X,X>X+X{.-X<XOXX.k.A.|.|..XoX&X_.,.g.+X,X,X,X&XOXF.X.i d.r.] o.yXyXyXyXyXyXyXyXyXyXyXyXyXyXyXyXyXyXyXyXyXyXyXyXyXyXyXyXyXyXyXyX",
"yXyXyXyXyXyXyXyXyXyXX.Z.oX,X<X<X,X-X$X{.=X<X<X<.] k.Z.A.D.|.|.|. X).).oXoXOXOXXX@XOXH._ ]  .X.$.yXyXyXyXyXyXyXyXyXyXyXyXyXyXyXyXyXyXyXyXyXyXyXyXyXyXyXyXyXyXyXyX",
"yXyXyXyXyXyXyXyXyXyXX.).&X&X&X'._./.M.m.(.'.&XO.` X.d.@.Z.x.k.Z.Z.Z.Z.j.a.6XI.s.s.s.i._ h v *.l.X.yXyXyXyXyXyXyXyXyXyXyXyXyXyXyXyXyXyXyXyXyXyXyXyXyXyXyXyXyXyXyX",
"yXyXyXyXyXyXyXyXyXyXX.A.|.|.z.=.=.*.*.h.h.h.m.1.@.d.d.g k.*.n.S.S.g.v.M.a.5XS.Z.Z.B.r.} $.` } =.X.yXyXyXyXyXyXyXyXyXyXyXyXyXyXyXyXyXyXyXyXyXyXyXyXyXyXyXyXyXyXyX",
"yXyXyXyXyXyXyXyXyXyXX.x.|.|.A.f.z._.+X,X,X,X>X&Xm.,.g.g k.@.Z.Z.A.g./.{.C.5XY.A.Z. .y._ z.] g ` } X.z.c.yXyXyXyXyXyXyXyXyXyXyXyXyXyXyXyXyXyXyXyXyXyXyXyXyXyXyXyX",
"yXyXyXyXyXyXyXyXyXyXyXl.|.|.|..XoX&X>X,X,X<X,X<X,X+XF.[ k.*.*.*.@.g.{.M.w.3Xa.r.r...V i } j j @.v./.`.oXH.yXyXyXyXyXyXyXyXyXyXyXyXyXyXyXyXyXyXyXyXyXyXyXyXyXyXyX",
"yXyXyXyXyXyXyXyXyXyXyXl.A.|.|.|.|..X.XoX&X-X,X,X,X<X,X}.,.h.d.k. .c.OXO.g.Y.C.a.a.a.,.( =.( ~ M././._.`.oX_.1.yXyXyXyXyXyXyXyXyXyXyXyXyXyXyXyXyXyXyXyXyXyXyXyXyX",
"yXyXyXyXyXyXyXyXyXyXyXl.k.|.|.|.|.|.|.|. X`.oX$X-X,X=X}.+X(.F./.m.F.(.} m.+X+X+X$X$X(.] z.] ) z.Q./././.(.F.c.H.,.c.yXyXyXyXyXyXyXyXyXyXyXyXyXyXyXyXyXyXyXyXyXyX",
"yXyXyXyXyXyXyXyXyXyXyXyX[ @.d.Z.~.|.|.|.|.|.|.|..X(.(.=X}.&X,X,X,X*XOX].H.).oX+X%X&X{.] z.O.o.l.l.n./.g.1.m.M.m.M._././.m.yXyXyXyXyXyXyXyXyXyXyXyXyXyXyXyXyXyXyX",
"yXyXyXyXyXyXyXyXyXyXyXyX1.M.M.h.h.j.Z.~.|.|.|.|.Z.j.k.v.XX-X;X,X1XqX0X3XE.q.k.S.S.S.b.` f.$.o.l.l.l.*.<.+.1.v./././.`.`./.g.yXyXyXyXyXyXyXyXyXyXyXyXyXyXyXyXyXyX",
"yXyXyXyXyXyXyXyXyXyXyXyXM.oXoX`.M.k.j.d.d.j.Z.Z.@.j.d.D.|..X.XXX6XT.E.6X9X0XR.N.Z.Z.k.X.O.$.` *.l.l.h $._ *.n./././.^.m.G.U.K.yXyXyXyXyXyXyXyXyXyXyXyXyXyXyXyXyX",
"yXyXyXyXyXyXyXyXyXyXyXyX/.`./.n.Z.Z.Z.Z.Z.k.j.f.*.Z.] A.|.|.~.V.K.5XrXtXtXtXtX8XL.B.Z.d.] $.( ( ] o.g o.a <.l.z.M.m.C.L.K.2X8X3XU.s.yXyXyXyXyXyXyXyXyXyXyXyXyXyX",
"yXyXyXyXyXyXyXyXyXyXyXyXM.b.b.Z.Z.Z.Z.Z.Z.Z.Z.Z.x.d.*.f.k.x.A.+.K.wXtXtXtXtXtXtXeX2XN.d.] &.( yXyXyXyXyXh O.l.l.O.w.5.s.5X8X8X9X8X8XE.y.yXyXyXyXyXyXyXyXyXyXyXyX",
"yXyXyXyXyXyXyXyXyXyXyX>.b.Z.Z.Z.Z.Z.Z.Z.Z.Z.Z.Z.Z.Z.Z.Z.x.f.` X.a.W.wXrXtXrXtXtXwXrX0Xs.` =.o.yXyXyXyXyXyX) o.o._ ..M s.E.4X8X8X8X4X8X5XI.yXyXyXyXyXyXyXyXyXyXyX",
"yXyXyXyXyXyXyXyXyXyXyX+.Z.Z.Z.Z.Z.Z.Z.Z.Z.Z.Z.Z.Z.Z.Z.Z.Z.k.` 1.].v w.6XrX8X4XwXwX2X8X0XW.e.` yXyXyXyXyXyXyXyXyXyXyXyXyXq.T.4X6XW.y.s.U.5XT.yXyXyXyXyXyXyXyXyXyX",
"yXyXyXyXyXyXyXyXyXyXyXX.x.Z.Z.Z.Z.Z.Z.Z.Z.Z.Z.Z.Z.Z.Z.Z.Z.k.` 1.oX8.v ..E.wXq.s.8X0X6.K.2XU.q.V yXyXyXyXyXyXyXyXyXyXyXyXyX5.u.s.c yXyXb u.W.4.yXyXyXyXyXyXyXyXyX",
"yXyXyXyXyXyXyXyXyXyXyXX.Z.Z.Z.Z.Z.Z.Z.Z.Z.Z.Z.Z.Z.Z.Z.Z.Z.k.` 1.[.Z.@.+.c R.i.B.s.E.N j.N.I.s.s.yXyXyXyXyXyXyXyXyXyXyXyXyXyXl w.c yXyXyX6.I.4.yXyXyXyXyXyXyXyXyX",
"yXyXyXyXyXyXyXyXyXyXyX+.Z.Z.Z.Z.Z.Z.Z.Z.Z.Z.Z.Z.Z.Z.Z.Z.Z.f.O.^.[.Z.+.v w.y.Z.Z.7.p. .b.k.e. .X.yXyXyXyXyXyXyXyXyXyXyXyXyXyX8 N m yXyXt M y.0.p.yXyXyXyXyXyXyXyX",
"yXyXyXyXyXyXyXyXyXyXyX+.Z.Z.Z.Z.Z.Z.Z.Z.Z.Z.Z.Z.Z.Z.Z.Z.x.o.O.^./.Z.+.d.V.B.Z.Z.B.B.Z.Z.l.X.` ` yXyXyXyXyXyXyXyXyXyXyXyXyXyXyXyXyXyXyXyXyXM 5.q.yXyXyXyXyXyXyXyX",
"yXyXyXyXyXyXyXyXyXyXyXX.Z.Z.Z.Z.Z.Z.Z.Z.Z.Z.Z.Z.Z.Z.Z.Z.k.` o./.A.A.+.d.Z.Z.Z.Z.Z.Z.Z.Z.l.$.` ` yXyXyXyXyXyXyXyXyXyXyXyXyXyXyXyXyXyXyXyXyXyXyXyXyXyXyXyXyXyXyXyX",
"yXyXyXyXyXyXyXyXyXyXyX+.Z.Z.Z.Z.Z.Z.Z.Z.Z.Z.Z.Z.Z.Z.Z.Z.x.] ` <.@.@.` d.Z.Z.Z.Z.Z.Z.Z.Z.l.$.` ` yXyXyXyXyXyXyXyXyXyXyXyXyXyXyXyXyXyXyXyXyXyXyXyXyXyXyXyXyXyXyXyX",
"yXyXyXyXyXyXyXyXyXyXyX+.Z.Z.Z.Z.Z.Z.Z.Z.Z.Z.Z.Z.Z.Z.Z.Z.k.X.X.X.X.X.9.Z.Z.Z.Z.Z.Z.Z.Z.Z.l.$.` ` yXyXyXyXyXyXyXyXyXyXyXyXyXyXyXyXyXyXyXyXyXyXyXyXyXyXyXyXyXyXyXyX",
"yXyXyXyXyXyXyXyXyXyXyX+.Z.Z.Z.Z.Z.Z.Z.Z.Z.Z.Z.Z.Z.Z.Z.Z.Z.k.k.k.k.x.Z.Z.Z.Z.Z.Z.Z.Z.Z.x.l.$.` ` yXyXyXyXyXyXyXyXyXyXyXyXyXyXyXyXyXyXyXyXyXyXyXyXyXyXyXyXyXyXyXyX",
"yXyXyXyXyXyXyXyXyXyXyX+.Z.Z.Z.Z.Z.Z.Z.Z.Z.Z.Z.Z.Z.Z.Z.Z.Z.Z.Z.Z.Z.Z.Z.Z.Z.Z.Z.Z.Z.Z.Z.Z.l.$.` ` yXyXyXyXyXyXyXyXyXyXyXyXyXyXyXyXyXyXyXyXyXyXyXyXyXyXyXyXyXyXyXyX",
"yXyXyXyXyXyXyXyXyXyXyX+.Z.Z.Z.Z.Z.Z.Z.Z.Z.Z.Z.Z.Z.Z.Z.Z.Z.Z.Z.Z.Z.Z.Z.Z.Z.Z.Z.Z.Z.Z.Z.Z.l.$.` ` yXyXyXyXyXyXyXyXyXyXyXyXyXyXyXyXyXyXyXyXyXyXyXyXyXyXyXyXyXyXyXyX",
"yXyXyXyXyXyXyXyXyXyXyX+.x.Z.Z.Z.Z.Z.Z.Z.Z.Z.Z.Z.Z.Z.Z.Z.Z.Z.Z.Z.Z.Z.Z.Z.Z.Z.Z.Z.Z.Z.Z.Z.l.o.` X.` yXyXyXyXyXyXyXyXyXyXyXyXyXyXyXyXyXyXyXyXyXyXyXyXyXyXyXyXyXyXyX",
"yXyXyXyXyXyXyXyXyXyXX.=.Z.Z.Z.Z.Z.Z.Z.Z.Z.Z.Z.Z.Z.Z.Z.Z.Z.Z.Z.Z.Z.Z.Z.Z.Z.Z.Z.Z.Z.Z.Z.x.=.` ` +.` yXyXyXyXyXyXyXyXyXyXyXyXyXyXyXyXyXyXyXyXyXyXyXyXyXyXyXyXyXyXyX",
"yXyXyXyXyXyXyXyXyXyXX.k.Z.Z.Z.Z.Z.Z.Z.Z.Z.Z.Z.Z.Z.Z.Z.Z.Z.Z.Z.Z.Z.Z.Z.Z.Z.Z.Z.Z.Z.Z.Z.l.&.` X.X.` yXyXyXyXyXyXyXyXyXyXyXyXyXyXyXyXyXyXyXyXyXyXyXyXyXyXyXyXyXyXyX",
"yXyXyXyXyXyXyXyXyXyXX.k.Z.Z.Z.Z.Z.Z.Z.Z.Z.Z.Z.Z.Z.Z.Z.Z.Z.Z.Z.Z.Z.Z.Z.Z.Z.Z.Z.Z.Z.Z.Z.l.&.` X.X.` yXyXyXyXyXyXyXyXyXyXyXyXyXyXyXyXyXyXyXyXyXyXyXyXyXyXyXyXyXyXyX",
"yXyXyXyXyXyXyXyXyXyX@.x.Z.Z.Z.Z.Z.Z.Z.Z.Z.Z.Z.Z.Z.Z.Z.Z.Z.Z.Z.Z.Z.Z.Z.Z.Z.Z.Z.Z.Z.Z.Z.l.&.` X.X.` yXyXyXyXyXyXyXyXyXyXyXyXyXyXyXyXyXyXyXyXyXyXyXyXyXyXyXyXyXyXyX",
"yXyXyXyXyXyXyXyXyXX.f.Z.Z.Z.Z.Z.Z.Z.Z.Z.Z.Z.Z.Z.Z.Z.Z.Z.Z.Z.Z.Z.Z.Z.Z.Z.Z.Z.Z.Z.Z.Z.x.f.X.` X.X.` yXyXyXyXyXyXyXyXyXyXyXyXyXyXyXyXyXyXyXyXyXyXyXyXyXyXyXyXyXyXyX",
"yXyXyXyXyXyXyXyXyXX.f.Z.Z.Z.Z.Z.Z.Z.Z.Z.Z.Z.Z.Z.Z.Z.Z.Z.Z.Z.Z.Z.Z.Z.Z.Z.Z.Z.Z.Z.Z.Z.l.=.` ] X.X.` yXyXyXyXyXyXyXyXyXyXyXyXyXyXyXyXyXyXyXyXyXyXyXyXyXyXyXyXyXyXyX",
"yXyXyXyXyXyXyXyXyXX.k.Z.Z.Z.Z.Z.Z.Z.Z.Z.Z.Z.Z.Z.Z.Z.Z.Z.Z.Z.Z.Z.Z.Z.Z.Z.Z.Z.Z.Z.Z.Z.l.&.` X.X.X.X.` yXyXyXyXyXyXyXyXyXyXyXyXyXyXyXyXyXyXyXyXyXyXyXyXyXyXyXyXyXyX",
"yXyXyXyXyXyXyXyXyXX.k.Z.Z.Z.Z.Z.Z.Z.Z.Z.Z.Z.Z.Z.Z.Z.Z.Z.Z.Z.Z.Z.Z.Z.Z.Z.Z.Z.Z.Z.Z.Z.l.X.` X.X.X.X.` yXyXyXyXyXyXyXyXyXyXyXyXyXyXyXyXyXyXyXyXyXyXyXyXyXyXyXyXyXyX",
"yXyXyXyXyXyXyXyXyX*.x.Z.Z.Z.Z.Z.Z.Z.Z.Z.Z.Z.Z.Z.Z.Z.Z.Z.Z.Z.Z.Z.Z.Z.Z.Z.Z.Z.Z.Z.Z.z.=.` X.X.X.X.X.` yXyXyXyXyXyXyXyXyXyXyXyXyXyXyXyXyXyXyXyXyXyXyXyXyXyXyXyXyXyX",
"yXyXyXyXyXyXyXyXX.f.Z.Z.Z.Z.Z.Z.Z.Z.Z.Z.Z.Z.Z.Z.Z.Z.Z.Z.Z.Z.Z.Z.Z.Z.Z.Z.Z.Z.Z.Z.Z.l.O.) X.X.X.X.X.) yXyXyXyXyXyXyXyXyXyXyXyXyXyXyXyXyXyXyXyXyXyXyXyXyXyXyXyXyXyX",
"yXyXyXyXyXyXyXyXX.j.Z.Z.Z.Z.Z.Z.Z.Z.Z.Z.Z.Z.Z.Z.Z.Z.Z.Z.Z.Z.Z.Z.Z.Z.Z.Z.Z.Z.Z.z.Z.f.` ` X.X.X.+.` yXyXyXyXyXyXyXyXyXyXyXyXyXyXyXyXyXyXyXyXyXyXyXyXyXyXyXyXyXyXyX",
"yXyXyXyXyXyXyXyXX.j.Z.Z.Z.Z.Z.Z.Z.Z.Z.Z.Z.Z.Z.Z.Z.Z.Z.Z.Z.Z.Z.Z.Z.Z.Z.Z.Z.Z.z.l.l.=.) X.X.X.X.X.` yXyXyXyXyXyXyXyXyXyXyXyXyXyXyXyXyXyXyXyXyXyXyXyXyXyXyXyXyXyXyX",
"yXyXyXyXyXyXyXyXX.j.Z.Z.Z.Z.Z.Z.Z.Z.Z.Z.Z.Z.Z.Z.Z.Z.Z.Z.Z.Z.Z.Z.Z.Z.Z.Z.Z.l.l.l.l.=.) X.X.X.X.` yXyXyXyXyXyXyXyXyXyXyXyXyXyXyXyXyXyXyXyXyXyXyXyXyXyXyXyXyXyXyXyX",
"yXyXyXyXyXyXyXyX( j.Z.Z.Z.Z.Z.Z.Z.Z.Z.Z.Z.Z.Z.Z.Z.Z.Z.Z.Z.Z.Z.Z.Z.Z.Z.x.l.l.l.l.l.=.) X.X.] ` yXyXyXyXyXyXyXyXyXyXyXyXyXyXyXyXyXyXyXyXyXyXyXyXyXyXyXyXyXyXyXyXyX",
"yXyXyXyXyXyXyXyXi } Z.Z.Z.Z.Z.Z.Z.Z.Z.Z.Z.Z.Z.Z.Z.Z.Z.Z.Z.Z.Z.Z.Z.Z.Z.l.l.l.l.l.l.=.j X.` yXyXyXyXyXyXyXyXyXyXyXyXyXyXyXyXyXyXyXyXyXyXyXyXyXyXyXyXyXyXyXyXyXyXyX",
"yXyXyXyXyXyXyXyXyXi _ ,.x.Z.Z.Z.Z.Z.Z.Z.Z.Z.Z.Z.Z.Z.Z.Z.Z.Z.Z.Z.Z.x.l.l.l.l.l.l.l.=.i ` yXyXyXyXyXyXyXyXyXyXyXyXyXyXyXyXyXyXyXyXyXyXyXyXyXyXyXyXyXyXyXyXyXyXyXyX",
"yXyXyXyXyXyXyXyXyXyX9 c _ X.O.f.k.k.k.Z.Z.Z.Z.V.k.k.k.k.f.*.o.X.] ' ^ h E E E E h h < yXyXyXyXyXyXyXyXyXyXyXyXyXyXyXyXyXyXyXyXyXyXyXyXyXyXyXyXyXyXyXyXyXyXyXyXyX",
"yXyXyXyXyXyXyXyXyXyXk B 4.M d u h h ^ ^ E W ^ ^ a ^ ( u 2 1 > > > > > > > > : & < 7   yXyXyXyXyXyXyXyXyXyXyXyXyXyXyXyXyXyXyXyXyXyXyXyXyXyXyXyXyXyXyXyXyXyXyXyXyX",
"yXyXyXyXyXyXyXyXyXw n 4.4.4.3.x u 2 p 1 1 p p p % yXyX% > > > > > > > > > & = 9 w -   yXyXyXyXyXyXyXyXyXyXyXyXyXyXyXyXyXyXyXyXyXyXyXyXyXyXyXyXyXyXyXyXyXyXyXyXyX",
"yXyXyXyXyXyXyXyXyXw M 4.4.4.4.4.n s 2 , 1 p p 2 $ yXyX% > > > > > > > : & 9 w 9 = & yXyXyXyXyXyXyXyXyXyXyXyXyXyXyXyXyXyXyXyXyXyXyXyXyXyXyXyXyXyXyXyXyXyXyXyXyXyX",
"yXyXyXyXyXyXyXyXyXw M 4.4.4.4.4.4.n z 5 = 2 p : yXyX  - & : : : : & & - 9 0 - & & % yXyXyXyXyXyXyXyXyXyXyXyXyXyXyXyXyXyXyXyXyXyXyXyXyXyXyXyXyXyXyXyXyXyXyXyXyXyX",
"yXyXyXyXyXyXyXyXyXw M 4.4.4.4.4.M n n e 5 s u % yXyX  w 0 - - - - 9 w 0 = > & = 7 @ 4 t yXyXyXyXyXyXyXyXyXyXyXyXyXyXyXyXyXyXyXyXyXyXyXyXyXyXyXyXyXyXyXyXyXyXyXyX",
"yXyXyXyXyXyXyXyXyXw M 4.4.4.B n n n n l w y e 4 yXyX  4 4 4 w w w w w 0 0 4 * 4 4 l M b k q yXyXyXyXyXyXyXyXyXyXyXyXyXyXyXyXyXyXyXyXyXyXyXyXyXyXyXyXyXyXyXyXyXyX",
"yXyXyXyXyXyXyXyXyXw M 4.M n x n M 3.3.M z y y e yXyXyX  4 # + + + + O O O @ @ r t c m C M l k k r 8 yXyXyXyXyXyXyXyXyXyXyXyXyXyXyXyXyXyXyXyXyXyXyXyXyXyXyXyXyXyX",
"yXyXyXyXyXyXyXyXyXw b B M B 3.B M M M n z e e y w yXyX  @ @ O O O O # 6 6 6 # # 6 8 8 y m C C C M k t t t k # yXyXyXyXyXyXyXyXyXyXyXyXyXyXyXyXyXyXyXyXyXyXyXyXyX",
"yXyXyXyXyXyXyXyXyXyXz M M n k C 7.B M M b c y q @ . yX  o o o o o o X . .   o O 6 6 8 8 8 r r r q 8 8 t q 8 O yXyXyXyXyXyXyXyXyXyXyXyXyXyXyXyXyXyXyXyXyXyXyXyXyX",
"yXyXyXyXyXyXyXyXyXyX. 8 q 7 6 y 6.u.6.5.5.0.q.4.m y y yXyXyXyXyXyXyXyXyXyXyXyXyXyXyXyXyXyXyXyXyXyXyXyXyXyXyXyXyXyXyXyXyXyXyXyXyXyXyXyXyXyXyXyXyXyXyXyXyXyXyXyXyX",
"yXyXyXyXyXyXyXyXyXyX  7 r 8 6 6 8 k m C C 5.q.5.C M b k 6   yXyXyXyXyXyXyXyXyXyXyXyXyXyXyXyXyXyXyXyXyXyXyXyXyXyXyXyXyXyXyXyXyXyXyXyXyXyXyXyXyXyXyXyXyXyXyXyXyXyX",
"yXyXyXyXyXyXyXyXyXyXyXO @ @ + O o o o o o O @ @ @ @ O O o     yXyXyXyXyXyXyXyXyXyXyXyXyXyXyXyXyXyXyXyXyXyXyXyXyXyXyXyXyXyXyXyXyXyXyXyXyXyXyXyXyXyXyXyXyXyXyXyXyX"
};
