/* XPM */
static char *result[] = {
/* columns rows colors chars-per-pixel */
"80 80 225 2 ",
"   c #1F0F21",
".  c #200F21",
"X  c #241322",
"o  c #261826",
"O  c #2B1A25",
"+  c #3A1E24",
"@  c #2E222D",
"#  c #3B2325",
"$  c #2F2730",
"%  c #332B34",
"&  c #3C2C36",
"*  c #3B3236",
"=  c #3B343B",
"-  c #3D3A3D",
";  c #4C1B17",
":  c #521F1A",
">  c #6F0E15",
",  c #571F27",
"<  c #482824",
"1  c #572929",
"2  c #533122",
"3  c #5C312B",
"4  c #5A362A",
"5  c #4F2F37",
"6  c #5C3839",
"7  c #792626",
"8  c #60312E",
"9  c #603F2F",
"0  c #633131",
"q  c #663B37",
"w  c #57403B",
"e  c #644234",
"r  c #6B453B",
"t  c #664C3F",
"y  c #6C4A3D",
"u  c #704B3F",
"i  c #3F3D40",
"p  c #433D44",
"a  c #493A49",
"s  c #5C3E41",
"d  c #743D45",
"f  c #444344",
"g  c #484749",
"h  c #4C4B4B",
"j  c #564D4E",
"k  c #5F504C",
"l  c #4C4152",
"z  c #4E4D52",
"x  c #524A52",
"c  c #594E5C",
"v  c #525254",
"b  c #5C5457",
"n  c #54545A",
"m  c #5A585C",
"M  c #694546",
"N  c #6D4D43",
"B  c #734242",
"V  c #774B46",
"C  c #6F5242",
"Z  c #67554C",
"A  c #6D594B",
"S  c #735242",
"D  c #705A4E",
"F  c #664B55",
"G  c #665858",
"H  c #735C52",
"J  c #785D5A",
"K  c #7A6457",
"L  c #7A6159",
"P  c #5C5B66",
"I  c #5D5C64",
"U  c #645963",
"Y  c #645B6A",
"T  c #695D6D",
"R  c #5F616B",
"E  c #646466",
"W  c #6D6263",
"Q  c #64626D",
"!  c #6B636E",
"~  c #6A6B6D",
"^  c #786766",
"/  c #646372",
"(  c #6B6474",
")  c #6C6B73",
"_  c #6D6778",
"`  c #6D6A7A",
"'  c #7A6D75",
"]  c #716D7D",
"[  c #747171",
"{  c #727274",
"}  c #7C7475",
"|  c #75747B",
" . c #7C7B7B",
".. c #8D0F0F",
"X. c #930202",
"o. c #95090A",
"O. c #961819",
"+. c #AC0202",
"@. c #8F2F30",
"#. c #97474A",
"$. c #934A4E",
"%. c #875657",
"&. c #995A58",
"*. c #84655E",
"=. c #915D67",
"-. c #846463",
";. c #886767",
":. c #856864",
">. c #8A6B63",
",. c #846B6A",
"<. c #8C6B6B",
"1. c #956464",
"2. c #966B6A",
"3. c #916E6C",
"4. c #84746C",
"5. c #8B716A",
"6. c #8D7A6E",
"7. c #93726D",
"8. c #98706F",
"9. c #886E72",
"0. c #996C73",
"q. c #887677",
"w. c #8A7C7C",
"e. c #957373",
"r. c #9B7575",
"t. c #937C74",
"y. c #9B7A74",
"u. c #96797B",
"i. c #9C7A7A",
"p. c #A66365",
"a. c #A16B79",
"s. c #A17778",
"d. c #A47B7B",
"f. c #AA7E7E",
"g. c #978276",
"h. c #A3827C",
"j. c #AB827E",
"k. c #A7897B",
"l. c #716F80",
"z. c #737383",
"x. c #7B7B85",
"c. c #7E7E8A",
"v. c #867B82",
"b. c #A57384",
"n. c #A37D86",
"m. c #888385",
"M. c #83838B",
"N. c gray55",
"B. c #988787",
"V. c #898994",
"C. c #998D94",
"Z. c #949393",
"A. c #969499",
"S. c #A58483",
"D. c #AD8382",
"F. c #A58A84",
"G. c #AC8B84",
"H. c #A88B88",
"J. c #AD8B8B",
"K. c #B58484",
"L. c #B88786",
"P. c #B38C85",
"I. c #B48C8C",
"U. c #BB8D8B",
"Y. c #AC9484",
"T. c #B39185",
"R. c #B5948B",
"E. c #B5968A",
"W. c #BB9B8C",
"Q. c #B59494",
"!. c #B99695",
"~. c #B59D92",
"^. c #BC9B95",
"/. c #BD9C9B",
"(. c #BAA48D",
"). c #BBA397",
"_. c #9C9CA0",
"`. c #A4A3A5",
"'. c #A6A4AA",
"]. c #ACACAC",
"[. c #ACACB2",
"{. c #B4B4B5",
"}. c #B9B8BC",
"|. c #C0948F",
" X c #C39C93",
".X c #C19E9E",
"XX c #C3A493",
"oX c #C8A897",
"OX c #C4A39B",
"+X c #CCAB9C",
"@X c #D0AE9D",
"#X c #CAB196",
"$X c #CDB399",
"%X c #D1B49D",
"&X c #D5BA9E",
"*X c #C6A4A4",
"=X c #CBABA4",
"-X c #CAB4AD",
";X c #D5B5A4",
":X c #D8B9A6",
">X c #DABDA4",
",X c #E0BFAD",
"<X c #DDC3A5",
"1X c #DFC3A9",
"2X c #CEC2BB",
"3X c #E1C5A7",
"4X c #E4C4AA",
"5X c #E4C8AA",
"6X c #ECCEAE",
"7X c #EDD0AF",
"8X c #E3C9B6",
"9X c #EDCCB1",
"0X c #EFD0B1",
"qX c #F6D5B4",
"wX c #F8D7B6",
"eX c #F9D8B6",
"rX c #BEBEC0",
"tX c #C0BFC0",
"yX c #C4C4C6",
"uX c #CCCCCD",
"iX c #D6CDC6",
"pX c #D8D8D8",
"aX c gray90",
"sX c gray91",
"dX c None",
/* pixels */
"dXdXdXdXdXdXdXdXdXdXdXdXdXdXdXdXdXdXdXdXdXdXdXdXdXdXdXdXdXdXdXdXdXdXdXdXdXdXdXdXdXdXdXdXdXdXdXdXdXdXdXdXdXdXdXdXdXdXdXdXdXdXdXdXdXdXdXdXdXdXdXdXdXdXdXdXdXdXdXdX",
"dXdXdXdXdXdXdXdXdXdXdXdXdXdXdXdXdXdXdXdXdXdXdXdXdXdXdXdXdXdXdXdXdXdXdX%.0.0.dXdXdXdXdXdXdXdXdXdXdXdXdXdXdXdXdXdXdXdXdXdXdXdXdXdXdXdXdXdXdXdXdXdXdXdXdXdXdXdXdXdX",
"dXdXdXdXdXdXdXdXdXdXdXdXdXdXdXdXdXdXdXdXdXdXdXdXdXdXdXdXdXdXdXdXdXdX=.a.b.b.b.b.a.b.a.0.dXdXdXdXdXdXdXdXdXdXdXdXdXdXdXdXdXdXdXdXdXdXdXdXdXdXdXdXdXdXdXdXdXdXdXdX",
"dXdXdXdXdXdXdXdXdXdXdXdXdXdXdXdXdXdXdXdXdXdXdXdXdXdXdXdXdXdXdXdXdX@.&.a.a.b.b.b.b.b.a.0.0.%.%.V dXdXdXdXdXdXdXdXdXdXdXdXdXdXdXdXdXdXdXdXdXdXdXdXdXdXdXdXdXdXdXdX",
"dXdXdXdXdXdXdXdXdXdXdXdXdXdXdXdXdXdXdXdXdXdXdXdXdXdXdXdXdXdXdXd > X.X.o.o.@.#.#.=.1.1.1.1.1.%.V B dXdXdXdXdXdXdXdXdXdXdXdXdXdXdXdXdXdXdXdXdXdXdXdXdXdXdXdXdXdXdX",
"dXdXdXdXdXdXdXdXdXdXdXdXdXdXdXdXdXdXdXdXdXdXdXdXdXdXdXdXdXdXn.r.p.&.@.O.O.X.X.X...O.@.$.%.V V B B dXdXdXdXdXdXdXdXdXdXdXdXdXdXdXdXdXdXdXdXdXdXdXdXdXdXdXdXdXdXdX",
"dXdXdXdXdXdXdXdXdXdXdXdXdXdXdXdXdXdXdXdXdXdXdXdXdXdXdXdX,.G h m W W q.i.r.&.#.@.....o.X...7 B B dXdXdXdXdXdXdXdXdXdXdXdXdXdXdXdXdXdXdXdXdXdXdXdXdXdXdXdXdXdXdXdX",
"dXdXdXdXdXdXdXdXdXdXdXdXdXdXdXdXdXdXdXdXdXdXdXdXdXdXW.XXg.W v n h z v b v Z J 9.2.1.$.@.O.7 0 dXdXdXdXdXdXdXdXdXdXdXdXdXdXdXdXdXdXdXdXdXdXdXdXdXdXdXdXdXdXdXdXdX",
"dXdXdXdXdXdXdXdXdXdXdXdXdXdXdXdXdXdXdXdXdXdXdXdXdXoX>X+X4.t.v v n / P m m m _ _.uX-X' ^ J %.B q dXdXdXdXdXdXdXdXdXdXdXdXdXdXdXdXdXdXdXdXdXdXdXdXdXdXdXdXdXdXdXdX",
"dXdXdXdXdXdXdXdXdXdXdXdXdXdXdXdXdXdXdXdXdXdXdXg.#X<X>X).E.^ v g n / / / / / j ) ~ A.x.] U U dXB B dXdXdXdXdXdXdXdXdXdXdXdXdXdXdXdXdXdXdXdXdXdXdXdXdXdXdXdXdXdXdX",
"dXdXdXdXdXdXdXdXdXdXdXdXdXdXdXdXdXdXdXdXdX+X:XY.$XE.g.i.F.F.~ P h z P / P _ / I | Z.N.m.) dXdXdXdXdXdXdXdXdXdXdXdXdXdXdXdXdXdXdXdXdXdXdXdXdXdXdXdXdXdXdXdXdXdXdX",
"dXdXdXdXdXdXdXdXdXdXdXdXdXdXdXdX1X,X5X4X>X1X<X<X%X&XW.u.h.+Xg.| | n h P b I P {  .~ b ^ 4.dXdXdXdXdXdXdXdXdXdXdXdXdXdXdXdXdXdXdXdXdXdXdXdXdXdXdXdXdXdXdXdXdXdXdX",
"dXdXdXdXdXdXdXdXdXdXdXdXdXdX>X>X4X5X5X>X%X&X&X<X&X>X(.XX$X>XoXq.M.M.~ v Z m R ~ ~ G 4.^ dXdXdXdXdXdXdXdXdXdXdXdXdXdXdXdXdXdXdXdXdXdXdXdXdXdXdXdXdXdXdXdXdXdXdXdX",
"dXdXdXdXdXdXdXdXdXdXdXdXW.;XqXwXqXqXwX6X1X<X&X%X$XoX%X&X<X<X1X;XY.m.N.m.^ M q 1 Q ,.g.6.4.^ dXdXdXdXdXdXdXdXdXdXdXdXdXdXdXdXdXdXdXdXdXdXdXdXdXdXdXdXdXdXdXdXdXdX",
"dXdXdXdXdXdXdXdXdXdXdXdXoXqXqX9X7XqXeX4X>X3X3X1X;X%XoXU.U.(.;X;X:XOXB.} ) O.+.+.G ' 4.g.t.4.dXdXdXdXdXdXdXdXdXdXdXdXdXdXdXdXdXdXdXdXdXdXdXdXdXdXdXdXdXdXdXdXdXdX",
"dXdXdXdXdXdXdXdXdXdXdXdX;X9X>X4XqXqX9X;X>XqXqXqXqX:X3X+X XU.P.T. XoX;XY.q., X.+.> _ -.e.e.,.W dXdXdXdXdXdXdXdXdXdXdXdXdXdXdXdXdXdXdXdXdXdXdXdXdXdXdXdXdXdXdXdXdX",
"dXdXdXdXdXdXdXdXdXdXdXdX;XXX>XqXwX0X+XXX6XwXwXwXqXXX1X<X1X;X+X XP.D.T.XX^.6.@.+.X.d -.e.<.5.5.dXdXdXdXdXdXdXdXdXdXdXdXdXdXdXdXdXdXdXdXdXdXdXdXdXdXdXdXdXdXdXdXdX",
"dXdXdXdXdXdXdXdXdXdXdXY.W.oX3XqX0X:X!.@XqXqXwXwXqXOXH.;X<X<X<X>X;X+X XK.K.T.G.%.....;.e.<.5.6.-.dXdXdXdXdXdXdXdXdXdXdXdXdXdXdXdXdXdXdXdXdXdXdXdXdXdXdXdXdXdXdXdX",
"dXdXdXdXdXdXdXdXdXdXdXg.E.<X3X4X=X/.oXqXwXqXwXqXqX*Xi.Q.OX>X<X<X<X1X:X+XU.K.K.R.d.$.-.<.<.7.g.5.dXdXdXdXdXdXdXdXdXdXdXdXdXdXdXdXdXdXdXdXdXdXdXdXdXdXdXdXdXdXdXdX",
"dXdXdXdXdXdXdXdXdXdXdXK.OX;X;X=X.X X6XqXqXwXqXqX6XS./.!.!.^.+X<X<X<X<X>X;X XL.K.L.P.t.^ <.e.t.<.dXdXdXdXdXdXdXdXdXdXdXdXdXdXdXdXdXdXdXdXdXdXdXdXdXdXdXdXdXdXdXdX",
"dXdXdXdXdXdXdXdXdXdXdXK.*X*X*X*X;X4XeX7X7XwXqXqX3Xi./.!.!.!.!.^.+X;X;X:X;X;X@X|.K.K.P.d.:.:.e.-.dXdXdXdXdXdXdXdXdXdXdXdXdXdXdXdXdXdXdXdXdXdXdXdXdXdXdXdXdXdXdXdX",
"dXdXdXdXdXdXdXdXdXdXdXK.*X*X*X;XqXwXqX3X6XwXqXqX>X7./.!.!.!.!.!.J.y.k.+X@X;X;X;X+XU.K.r.K J e.J dXdXdXdXdXdXdXdXdXdXdXdXdXdXdXdXdXdXdXdXdXdXdXdXdXdXdXdXdXdXdXdX",
"dXdXdXdXdXdXdXdXdXdXdXK.*X*X=X3XqXqX3X>X7XwXqXqX+X<.!.!.!.!.!.!.S.5.6.J.!.^.OXOXOX Xj.3.K A -.H dXdXdXdXdXdXdXdXdXdXdXdXdXdXdXdXdXdXdXdXdXdXdXdXdXdXdXdXdXdXdXdX",
"dXdXdXdXdXdXdXdXdXdXdXK.*X*X=X5X6X1X>XqXwXwXqXqXT.r.Q.I.Q.!.!.!.!.I.Q.!.!.I.I.I.I.I.K.K.7.J H K K dXdXdXdXdXdXdXdXdXdXdXdXdXdXdXdXdXdXdXdXdXdXdXdXdXdXdXdXdXdXdX",
"dXdXdXdXdXdXdXdXdXdXdXK.*X*X*X#X#XoX$X>X3X6XqXqXy.e.r.d.d.S.J.Q.G.d.d.f.d.*.' v.w.w.w.' 9.J J t.K dXdXdXdXdXdXdXdXdXdXdXdXdXdXdXdXdXdXdXdXdXdXdXdXdXdXdXdXdXdXdX",
"dXdXdXdXdXdXdXdXdXdXdXK..XS.G.j.j.j.j.F.F.E.^.W.5.u.u.d.d.i.r.d.e.s.d.<.7.d.| `.q.t.t.} ' H Z K H dXdXdXdXdXdXdXdXdXdXdXdXdXdXdXdXdXdXdXdXdXdXdXdXdXdXdXdXdXdXdX",
"dXdXdXdXdXdXdXdXdXdXdXd..XJ.d.K.K.P.;X4X3X3X3X4X&X#XE.B.J.!.S.e.i.i.!.e.W.!.Z.uX/.!.J.w.N.W G <.:.A A dXdXdXdXdXdXdXdXdXdXdXdXdXdXdXdXdXdXdXdXdXdXdXdXdXdXdXdXdX",
"dXdXdXdXdXdXdXdXdXdXdX<./.*XH.H.R.>X4X9XqXwXeXwXeXeXqX&XF.t.5.5.i.u.!.e.W.U.Z.tXB.B.B. .v.^ Z >.y.k.k.y.y.dXdXdXdXdXdXdXdXdXdXdXdXdXdXdXdXdXdXdXdXdXdXdXdXdXdXdX",
"dXdXdXdXdXdXdXdXdXdXdX-.J.*X*X*X*X*X*X=X;X4X9X9X9XqXqXqX$XY.#XW.G.y.e.-.P.U.v.Z.m.Z.Z.m.t.Z ^ L.f.s.y.d.T.k.7.7.dXdXdXdXdXdXdXdXdXdXdXdXdXdXdXdXdXdXdXdXdXdXdXdX",
"dXdXdXdXdXdXdXdXdXdXdXdXe.Q./.*X*X*X*X*X*X*X*X*X=X;X1X(.$XqX1X>XqX6X&XW.G.j.<.Y.W.XXXXXXG.-.:.3.d.D.K.K.P.P.T.h.<.h.d.e.<.<.3.dXdXdXdXdXdXdXdXdXdXdXdXdXdXdXdXdX",
"dXdXdXdXdXdXdXdXdXdXdXdXdXdXe.h.J./.*X*X*X*X*X*X*X*XH.H.~.(.E.4XqXqX4X8XiXB.9.E.+X+X@X+XG.3.8.*.d.L.K.K.K.K.e.,.D.j.r.d.P.P.k.w.B.` dXdXdXdXdXdXdXdXdXdXdXdXdXdX",
"dXdXdXdXdXdXdXdXdXdXdXdXdXdXdXk.W.S.S.H.!.*X*X*X*X.Xi.G.U./.OX=X=X;X2XyXuXyX[.'.).~.H.E.E.y.r.3.:.j.K.K.K.<.e.,.e.r.D.K.K.F.B.M.M.z.dXdXdXdXdXdXdXdXdXdXdXdXdXdX",
"dXdXdXdXdXdXdXdXdXdXdXdXdXdXdXW.;X+XE.k.h.i.d.H.Q.H.u.!.r.*X*XF.B.}.'.rXaXsXsXaXpXpX}.`.C.u.8.d.L 3.f.K.K.G r.b <.K.K.f.w. .m.`.].].`.V.dXdXdXdXdXdXdXdXdXdXdXdX",
"dXdXdXdXdXdXdXdXdXdXdXdXdXdXdXW.oX^.!.!.Q.Q.Q.S.S.S.S.u.e.!..Xg.[ V.[.aXsXsXaXaXsXsXsXaXuX'.q.e.e.H Z J <.j 3.j K.K.K.f.G | ].{.{.{.{.{.A.c.dXdXdXdXdXdXdXdXdXdX",
"dXdXdXdXdXdXdXdXdXdXdXdXdXdXdXG.!.Q.!.!.!.Q.!.!.!.!.!.Q.J.i.S.7.G / M.].uXaXaXaXsXsXaXaXpXuXyXC.q.D dXdXdXf h h <.d.K.f.4.{ N.].{.{.A.{.}.`.{ _ dXdXdXdXdXdXdXdX",
"dXdXdXdXdXdXdXdXdXdXdXdXdXdXr.R.Q.Q.!.!.Q.Q.!.!.Q.Q.!.!.!.!.Q.H.H.u.<.,.q.`.uXuX}.pXpXrXuXyX}.yX'.^ dXdXdXdXdXdXdXG ,.,.} E { Z.].`.n { Z.].A.Q x.) dXdXdXdXdXdX",
"dXdXdXdXdXdXdXdXdXdXdXdXdXdXr.Q.Q.Q.!.!.Q.Q.Q.!.Q.!.!.!.!.!.!.!.!.S.e.;.S.i.m.{.{.A.{.uX{.[.{.A.`._.x.dXdXdXdXdXdXdXdXdXdXdXdXE m.N.h dXdX~ `.{ { { dXdXdXdXdXdX",
"dXdXdXdXdXdXdXdXdXdXdXdXdXdXr.Q.Q.Q.!.!.Q.Q.Q.!.Q.!.Q.Q.!.!.Q.Q.!.J.r.;.S.!.J.W `.`.E v.'.N.| '.M.A.x.dXdXdXdXdXdXdXdXdXdXdXdXdXv N.h dXdXv m. .E Q dXdXdXdXdXdX",
"dXdXdXdXdXdXdXdXdXdXdXdXdXdXu.Q.!.!.!.!.!.Q.Q.Q.!.!.Q.!.!.!.!.!.!.Q.i.<.H.!.Q.d.E `.U e.| N.n Z.M.{ ) dXdXdXdXdXdXdXdXdXdXdXdXdXv ~ h dXdXv ~  .P Q dXdXdXdXdXdX",
"dXdXdXdXdXdXdXdXdXdXdXdXdXdXu.Q.!.!.Q.!.Q.Q.Q.Q.!.!.Q.!.!.!.Q.!.!.!.e.r.Q.!.!.I.W N.,.d.}  .G q.' Z dXdXdXdXdXdXdXdXdXdXdXdXdXdXdXdXdXdXdXdXm { v dXdXdXdXdXdXdX",
"dXdXdXdXdXdXdXdXdXdXdXdXdXdXu.Q.!.Q.Q.!.!.!.!.!.!.!.!.!.Q.!.!.Q.!.!.e.s.Q.!.!.Q.<.B.K.K.D.L L e.e.H dXdXdXdXdXdXdXdXdXdXdXdXdXdXdXdXdXdXdXdXdXdXdXdXdXdXdXdXdXdX",
"dXdXdXdXdXdXdXdXdXdXdXdXdXdXu.Q.Q.Q.Q.Q.!.!.!.!.!.Q.!.!.^.oX+X.X!.!.r.s.I.I.Q.Q.3.I.Q.K.L.3.L e.e.H dXdXdXdXdXdXdXdXdXdXdXdXdXdXdXdXdXdXdXdXdXdXdXdXdXdXdXdXdXdX",
"dXdXdXdXdXdXdXdXdXdXdXdXdXe.K.!.Q.Q.Q.Q.Q.Q.!.!.Q.Q.!.!.;X;X;X;XOX!.d.<.<.3.r.d.r.3.Q.K.K.3.L e.e.H dXdXdXdXdXdXdXdXdXdXdXdXdXdXdXdXdXdXdXdXdXdXdXdXdXdXdXdXdXdX",
"dXdXdXdXdXdXdXdXdXdXdXdXdXe.Q.!.Q.Q.Q.Q.Q.Q.!.!.Q.Q.!.oX;X;X;X;X+X^.S.i.i.e.<.<.e.H.Q.K.K.3.L e.e.H dXdXdXdXdXdXdXdXdXdXdXdXdXdXdXdXdXdXdXdXdXdXdXdXdXdXdXdXdXdX",
"dXdXdXdXdXdXdXdXdXdXdXdXdXe.Q.!.Q.Q.!.!.Q.Q.Q.Q.!.!.!.;X;X;X;X;X+X^.!.!.Q.J.H.H.H.!.Q.K.D.*.L e.e.H dXdXdXdXdXdXdXdXdXdXdXdXdXdXdXdXdXdXdXdXdXdXdXdXdXdXdXdXdXdX",
"dXdXdXdXdXdXdXdXdXdXdXdXdXd.Q.Q.Q.Q.Q.!.Q.Q.Q.Q.!.!.!.;X;X;X;X;X+X^.Q.!.!.!.!.!.!.Q.Q.K.d.-.;.e.e.H dXdXdXdXdXdXdXdXdXdXdXdXdXdXdXdXdXdXdXdXdXdXdXdXdXdXdXdXdXdX",
"dXdXdXdXdXdXdXdXdXdXdXdXe.I.Q.Q.Q.Q.!.!.!.!.Q.Q.!.!.!.;X;X;X;X;X+X^.!.!.!.Q.Q.Q.!.Q.Q.K.s.<.e.e.e.H dXdXdXdXdXdXdXdXdXdXdXdXdXdXdXdXdXdXdXdXdXdXdXdXdXdXdXdXdXdX",
"dXdXdXdXdXdXdXdXdXdXdXdXe.Q.Q.Q.Q.Q.!.!.!.!.!.!.!.!.!.;X;X;X;X;X+X^.!.!.!.!.Q.Q.Q.Q.Q.K.d.<.e.e.e.H dXdXdXdXdXdXdXdXdXdXdXdXdXdXdXdXdXdXdXdXdXdXdXdXdXdXdXdXdXdX",
"dXdXdXdXdXdXdXdXdXdXdXdXr.Q.!.!.!.!.!.Q.Q.Q.!.!.!.!.!.+X;X;X;X;XoXQ.!.!.Q.Q.Q.!.Q.Q.Q.K.d.<.e.e.e.H dXdXdXdXdXdXdXdXdXdXdXdXdXdXdXdXdXdXdXdXdXdXdXdXdXdXdXdXdXdX",
"dXdXdXdXdXdXdXdXdXdXdXe.D.Q.!.!.!.!.Q.Q.Q.Q.!.!.!.!.!.XX;X;X;X%X^.Q.!.!.Q.Q.Q.!.Q.Q.Q.K.d.<.e.e.e.H dXdXdXdXdXdXdXdXdXdXdXdXdXdXdXdXdXdXdXdXdXdXdXdXdXdXdXdXdXdX",
"dXdXdXdXdXdXdXdXdXdXdXe.I.!.!.!.!.!.!.!.Q.Q.Q.!.Q.Q.!.^.;X;X;XoXQ.!.Q.Q.Q.Q.!.!.Q.!.Q.K.d.<.e.e.f.L dXdXdXdXdXdXdXdXdXdXdXdXdXdXdXdXdXdXdXdXdXdXdXdXdXdXdXdXdXdX",
"dXdXdXdXdXdXdXdXdXdXdXi.Q.!.!.!.!.!.!.!.Q.Q.Q.Q.Q.Q.Q.!.;X;X;X^.Q.!.Q.Q.Q.Q.!.!.Q.!.Q.K.f.<.<.e.f.>.dXdXdXdXdXdXdXdXdXdXdXdXdXdXdXdXdXdXdXdXdXdXdXdXdXdXdXdXdXdX",
"dXdXdXdXdXdXdXdXdXdXe.J.Q.Q.Q.Q.Q.Q.Q.Q.!.!.!.!.Q.Q.Q.!.OX;XOXQ.!.!.Q.!.!.Q.!.!.Q.!.Q.K.f.<.<.e.f.K.H dXdXdXdXdXdXdXdXdXdXdXdXdXdXdXdXdXdXdXdXdXdXdXdXdXdXdXdXdX",
"dXdXdXdXdXdXdXdXdX<.S.Q.!.Q.Q.Q.Q.Q.Q.Q.!.!.Q.Q.!.!.!.Q.!.^.!.Q.I.!.!.!.!.Q.!.!.Q.!.Q.K.d.-.<.i.D.K.7.A dXdXdXdXdXdXdXdXdXdXdXdXdXdXdXdXdXdXdXdXdXdXdXdXdXdXdXdX",
"dXdXdXdXdXdXdXdX;.d.Q.!.!.!.Q.Q.Q.Q.Q.!.!.!.Q.Q.!.!.!.!.Q.Q.Q.I.I.!.!.!.Q.Q.Q.Q.Q.!.Q.K.d.-.<.d.K.K.K.*.dXdXdXdXdXdXdXdXdXdXdXdXdXdXdXdXdXdXdXdXdXdXdXdXdXdXdXdX",
"dXdXdXdXdXdXdXdXd.I.!.!.Q.Q.Q.Q.Q.Q.Q.!.!.!.Q.Q.!.!.!.!.Q.I.K.K.Q.!.!.!.Q.Q.Q.Q.Q.!.Q.K.d.-.<.d.K.K.K.K.A dXdXdXdXdXdXdXdXdXdXdXdXdXdXdXdXdXdXdXdXdXdXdXdXdXdXdX",
"dXdXdXdXdXdXdXr.I.!.!.Q.Q.Q.Q.Q.!.!.!.!.!.!.Q.Q.!.Q.Q.Q.I.K.K.I.!.!.Q.Q.!.!.!.!.Q.!.Q.K.d.-.<.d.K.K.K.K.A dXdXdXdXdXdXdXdXdXdXdXdXdXdXdXdXdXdXdXdXdXdXdXdXdXdXdX",
"dXdXdXdXdXdXdXd.Q.!.!.!.Q.Q.Q.Q.!.!.!.!.!.Q.I.I.I.K.K.K.K.L.Q.!.Q.Q.Q.Q.!.!.!.!.Q.Q.Q.K.s.-.<.i.K.K.K.K.A dXdXdXdXdXdXdXdXdXdXdXdXdXdXdXdXdXdXdXdXdXdXdXdXdXdXdX",
"dXdXdXdXdXdXe.H.!.!.!.!.!.!.Q.Q.Q.Q.Q.Q.!.Q.Q.Q.Q.Q.Q.Q.Q.Q.Q.Q.Q.Q.Q.Q.Q.Q.!.!.!.!.Q.D.3.-.<.e.d.K.K.K.A dXdXdXdXdXdXdXdXdXdXdXdXdXdXdXdXdXdXdXdXdXdXdXdXdXdXdX",
"dXdXdXdXdXdXd.I.!.!.!.!.!.Q.Q.Q.Q.Q.Q.Q.Q.Q.Q.Q.!.!.!.!.!.!.Q.Q.Q.Q.Q.Q.Q.!.!.!.Q.!.Q.D.<.-.<.e.e.r.f.d.A dXdXdXdXdXdXdXdXdXdXdXdXdXdXdXdXdXdXdXdXdXdXdXdXdXdXdX",
"dXdXdXdXdXdXd.I.!.Q.Q.Q.!.!.!.!.Q.Q.Q.Q.Q.Q.Q.Q.Q.!.!.!.!.!.Q.Q.Q.Q.Q.Q.Q.Q.Q.Q.!.Q.I.f.;.-.<.e.e.e.<.A dXdXdXdXdXdXdXdXdXdXdXdXdXdXdXdXdXdXdXdXdXdXdXdXdXdXdXdX",
"dXdXdXdXdXdXd.I.!.!.Q.Q.!.!.!.!.!.!.Q.Q.Q.Q.Q.Q.Q.Q.!.!.!.!.Q.Q.Q.Q.Q.!.Q.Q.Q.Q.!.Q.K.r.-.-.<.e.<.L A dXdXdXdXdXdXdXdXdXdXdXdXdXdXdXdXdXdXdXdXdXdXdXdXdXdXdXdXdX",
"dXdXdXdXdXdXr.D.I.Q.!.!.Q.Q.!.!.!.!.!.!.!.!.Q.Q.Q.Q.!.Q.!.!.Q.Q.Q.Q.!.!.!.!.Q.!.Q.K.D.<.-.-.<.-.H dXdXdXdXdXdXdXdXdXdXdXdXdXdXdXdXdXdXdXdXdXdXdXdXdXdXdXdXdXdXdX",
"dXdXdXdXdXdXdX*.*.7.d.D.Q.Q.Q.!.!.!.!.!.!.!.!.!.!.!.!.!.!.!.!.!.!.!.!.!.!.!.!.Q.I.K.f.-.-.-.J A dXdXdXdXdXdXdXdXdXdXdXdXdXdXdXdXdXdXdXdXdXdXdXdXdXdXdXdXdXdXdXdX",
"dXdXdXdXdXdXdXdXdXdXk J >.*.>.5.5.5.5.>.>.5.5.5.i.D.D.D.G.G.J.J.J.J.J.J.J.J.G.D.j.f.r.-.-.H dXdXdXdXdXdXdXdXdXdXdXdXdXdXdXdXdXdXdXdXdXdXdXdXdXdXdXdXdXdXdXdXdXdX",
"dXdXdXdXdXdXdXdXdXdXx 6 y e r N S S y e y S C C C t D A w t t N N N t t t N N N N A J *.H dXdXdXdXdXdXdXdXdXdXdXdXdXdXdXdXdXdXdXdXdXdXdXdXdXdXdXdXdXdXdXdXdXdXdX",
"dXdXdXdXdXdXdXdXdXdXx U M y y r S S e 9 S S S S S 2 dXdXX 2 2 2 2 2 2 2 3 8 0 0 e t N w O dXdXdXdXdXdXdXdXdXdXdXdXdXdXdXdXdXdXdXdXdXdXdXdXdXdXdXdXdXdXdXdXdXdXdX",
"dXdXdXdXdXdXdXdXdXdXU ( ( G M u S S e e S S S S e 2 dXdXX 2 2 2 2 2 3 8 0 0 0 0 0 8 2 O dXdXdXdXdXdXdXdXdXdXdXdXdXdXdXdXdXdXdXdXdXdXdXdXdXdXdXdXdXdXdXdXdXdXdXdX",
"dXdXdXdXdXdXdXdXdXx Y z.` _ T F y S r 4 y S S S 4 dXdXX # 2 2 2 2 3 0 0 0 0 0 8 3 2 <   dXdXdXdXdXdXdXdXdXdXdXdXdXdXdXdXdXdXdXdXdXdXdXdXdXdXdXdXdXdXdXdXdXdXdXdX",
"dXdXdXdXdXdXdXdXdXx Y ] z.z.` ( U M u 9 e S S y 2 dXdXX 2 3 3 8 0 3 3 3 3 8 < # 2 2 < . dXdXdXdXdXdXdXdXdXdXdXdXdXdXdXdXdXdXdXdXdXdXdXdXdXdXdXdXdXdXdXdXdXdXdXdX",
"dXdXdXdXdXdXdXdXdXx Q _ _ l.z.] ( ! F 6 r S S 4 dXdXdXO 3 8 3 1 : ; 1 3 1 < < 2 2 2 + dXdXdXdXdXdXdXdXdXdXdXdXdXdXdXdXdXdXdXdXdXdXdXdXdXdXdXdXdXdXdXdXdXdXdXdXdX",
"dXdXdXdXdXdXdXdXdXU ] z.] ` ` ] ( _ l & F M y 4 dXdXX ; ; ; : 1 1 0 0 0 + < < < 2 2 < . dXdXdXdXdXdXdXdXdXdXdXdXdXdXdXdXdXdXdXdXdXdXdXdXdXdXdXdXdXdXdXdXdXdXdXdX",
"dXdXdXdXdXdXdXdXx Y z.z.` ( T T T T a & c c F 4 dXdXX + 1 6 6 s 6 0 0 0 0 < + + # # # X dXdXdXdXdXdXdXdXdXdXdXdXdXdXdXdXdXdXdXdXdXdXdXdXdXdXdXdXdXdXdXdXdXdXdXdX",
"dXdXdXdXdXdXdXdXx Y z.` ( ( ] ] ] ` Y 5 i c c a dXdXX = & < 1 3 0 3 1 < < & & & p f p f f dXdXdXdXdXdXdXdXdXdXdXdXdXdXdXdXdXdXdXdXdXdXdXdXdXdXdXdXdXdXdXdXdXdXdX",
"dXdXdXdXdXdXdXdXx Y ] _ ` / I P P c c a & = a a dXdXX % p = % O # & * = = f h n R  .| | _ I n z dXdXdXdXdXdXdXdXdXdXdXdXdXdXdXdXdXdXdXdXdXdXdXdXdXdXdXdXdXdXdXdX",
"dXdXdXdXdXdXdXdXx p z x h I / ` _ / / Q P n p % dXdXX @ % % % $ % % % - - - - p f n U ) x.x.x.| { { P n h = = dXdXdXdXdXdXdXdXdXdXdXdXdXdXdXdXdXdXdXdXdXdXdXdXdX",
"dXdXdXdXdXdXdXdXdX. p h f g I x.V.c.z.z.z.` P n n g dXdXo o o o dXdXdXdXo o X X X X O h z v v v v v z n h = = dXdXdXdXdXdXdXdXdXdXdXdXdXdXdXdXdXdXdXdXdXdXdXdXdX",
"dXdXdXdXdXdXdXdXdXdX% h h f f z { m.M.A.M.c.V.M.x.) I v dXdXdXdXdXdXdXdXdXdXdXdXdXdXdXdXdXdXdXdXdXdXdXdXdXdXdXdXdXdXdXdXdXdXdXdXdXdXdXdXdXdXdXdXdXdXdXdXdXdXdXdX",
"dXdXdXdXdXdXdXdXdXdXdX@ @ @ O @ % % p m E ~ | ) ~ ~ I z - = dXdXdXdXdXdXdXdXdXdXdXdXdXdXdXdXdXdXdXdXdXdXdXdXdXdXdXdXdXdXdXdXdXdXdXdXdXdXdXdXdXdXdXdXdXdXdXdXdXdX",
"dXdXdXdXdXdXdXdXdXdXdXdXdXdXdXdXdXdXdXdXdXdXdXdXdXdXdXdXdXdXdXdXdXdXdXdXdXdXdXdXdXdXdXdXdXdXdXdXdXdXdXdXdXdXdXdXdXdXdXdXdXdXdXdXdXdXdXdXdXdXdXdXdXdXdXdXdXdXdXdX"
};
