/* XPM */
static char *result[] = {
/* columns rows colors chars-per-pixel */
"80 80 228 2 ",
"   c #1E0D1F",
".  c #200F21",
"X  c #231322",
"o  c #281825",
"O  c #331C22",
"+  c #3A2428",
"@  c #2F2730",
"#  c #362935",
"$  c #342B34",
"%  c #3B343A",
"&  c #3C383C",
"*  c #481913",
"=  c #541B1A",
"-  c #680B0B",
";  c #4F2C1D",
":  c #55241F",
">  c #442623",
",  c #482825",
"<  c #562727",
"1  c #5C2B29",
"2  c #533222",
"3  c #5C362A",
"4  c #5D322C",
"5  c #4C363B",
"6  c #682B2C",
"7  c #60332F",
"8  c #633131",
"9  c #663D39",
"0  c #773736",
"q  c #58473F",
"w  c #654335",
"e  c #6B443B",
"r  c #6F4A3D",
"t  c #714D3F",
"y  c #412F40",
"u  c #433343",
"i  c #413E42",
"p  c #4D3C4C",
"a  c #5A3A42",
"s  c #444344",
"d  c #46434B",
"f  c #49454B",
"g  c #4B4A4B",
"h  c #584C46",
"j  c #4A4454",
"k  c #4E4E52",
"l  c #4E4758",
"z  c #574C5A",
"x  c #4F5053",
"c  c #535353",
"v  c #5B5357",
"b  c #545459",
"n  c #5A595D",
"m  c #694A45",
"M  c #734242",
"N  c #7A4B48",
"B  c #6A5548",
"V  c #6E584D",
"C  c #735242",
"Z  c #79564C",
"A  c #715A4E",
"S  c #624D5B",
"D  c #68575A",
"F  c #735C52",
"G  c #795956",
"H  c #7B6155",
"J  c #766158",
"K  c #7C635B",
"L  c #5B5A63",
"P  c #5C5865",
"I  c #635A68",
"U  c #695D6D",
"Y  c #695F70",
"T  c #5F606A",
"R  c #676464",
"E  c #64626B",
"W  c #6C666D",
"Q  c #6B6B6D",
"!  c #796667",
"~  c #7C6564",
"^  c #646473",
"/  c #6B6373",
"(  c #6E6B77",
")  c #786E77",
"_  c #716E7D",
"`  c #6F7070",
"'  c #737475",
"]  c #79767B",
"[  c #860707",
"{  c #940909",
"}  c #8B1313",
"|  c #961615",
" . c #A20000",
".. c #AB0000",
"X. c #A41008",
"o. c #8A2426",
"O. c #952627",
"+. c #903234",
"@. c #97373B",
"#. c #8D693A",
"$. c #8E4B4E",
"%. c #875656",
"&. c #8C5A5B",
"*. c #98545A",
"=. c #946246",
"-. c #82645D",
";. c #86685F",
":. c #846464",
">. c #856963",
",. c #896866",
"<. c #8C6B6B",
"1. c #956667",
"2. c #916E6E",
"3. c #89716A",
"4. c #94716D",
"5. c #886C71",
"6. c #9D6C76",
"7. c #877675",
"8. c #957473",
"9. c #9C7575",
"0. c #9A7B76",
"q. c #9C7B7B",
"w. c #A16D7B",
"e. c #A3777A",
"r. c #A47B7B",
"t. c #A97E7E",
"y. c #8B807F",
"u. c #9E817B",
"i. c #9E8A7A",
"p. c #A3827D",
"a. c #AB897F",
"s. c #747382",
"d. c #7C7B83",
"f. c #7B7A87",
"g. c #847B83",
"h. c #957E80",
"j. c #A57384",
"k. c #AC7F80",
"l. c #828285",
"z. c #8A8584",
"x. c #8B8887",
"c. c #83838B",
"v. c #8C8A8D",
"b. c #938485",
"n. c #98878B",
"m. c #8D8D95",
"M. c #958B92",
"N. c #8F9294",
"B. c #939293",
"V. c #98949A",
"C. c #9A9B9D",
"Z. c #A58383",
"A. c #AB8484",
"S. c #A38B86",
"D. c #AB8B83",
"F. c #AC8A8A",
"G. c #B58484",
"H. c #B38C84",
"J. c #B48C8C",
"K. c #B98A88",
"L. c #A99386",
"P. c #B79789",
"I. c #B3938C",
"U. c #A58D90",
"Y. c #A6999A",
"T. c #B59494",
"R. c #B89795",
"E. c #B69B91",
"W. c #BB9B94",
"Q. c #BE9C9B",
"!. c #BCA38D",
"~. c #B7A197",
"^. c #9A9AA1",
"/. c #A09BA2",
"(. c #A3A3A5",
"). c #A6A4A9",
"_. c #ABABAC",
"`. c #ABABB1",
"'. c #B4B4B5",
"]. c #B6B6BA",
"[. c #BABABD",
"{. c #C49C93",
"}. c #C19C97",
"|. c #C4A394",
" X c #C9A797",
".X c #C4AC94",
"XX c #C5A49B",
"oX c #CAA59A",
"OX c #CCAC9C",
"+X c #D0AE9D",
"@X c #C8B396",
"#X c #CEB29B",
"$X c #D3B39D",
"%X c #D4BA9E",
"&X c #D8B99F",
"*X c #C09FA0",
"=X c #C5A4A4",
"-X c #C8A7A5",
";X c #CBAAA5",
":X c #CFB0A4",
">X c #D5B5A5",
",X c #D7BAA4",
"<X c #DABBA3",
"1X c #D7B6AA",
"2X c #DEBEA9",
"3X c #CEB9B0",
"4X c #DDC3A5",
"5X c #DFC2A8",
"6X c #CCC1BA",
"7X c #E2C5A6",
"8X c #E4C5AB",
"9X c #E8C7AE",
"0X c #E6CAAB",
"qX c #EBCCAE",
"wX c #EDCDB0",
"eX c #F0CFB1",
"rX c #EFD1B0",
"tX c #F5D4B4",
"yX c #F8D7B5",
"uX c #F9D8B6",
"iX c #BFBFC1",
"pX c #C8C8C9",
"aX c #CFD0D1",
"sX c #D7D7D7",
"dX c #DDDDDD",
"fX c #E4E4E4",
"gX c #E8E9E8",
"hX c None",
/* pixels */
"hXhXhXhXhXhXhXhXhXhXhXhXhXhXhXhXhXhXhXhXhXhXhXhXhXhXhXhXhXhXhXhXhXhXhXhXhXhXhXhXhXhXhXhXhXhXhXhXhXhXhXhXhXhXhXhXhXhXhXhXhXhXhXhXhXhXhXhXhXhXhXhXhXhXhXhXhXhXhXhX",
"hXhXhXhXhXhXhXhXhXhXhXhXhXhXhXhXhXhXhXhXhXhXhXhXhXhXhXhXhXhXhXhXhXhX%.1.w.j.w.j.j.6.hXhXhXhXhXhXhXhXhXhXhXhXhXhXhXhXhXhXhXhXhXhXhXhXhXhXhXhXhXhXhXhXhXhXhXhXhXhX",
"hXhXhXhXhXhXhXhXhXhXhXhXhXhXhXhXhXhXhXhXhXhXhXhXhXhXhXhXhXhXhXhXhX$.6.j.j.j.j.j.j.j.j.w.6.%.hXhXhXhXhXhXhXhXhXhXhXhXhXhXhXhXhXhXhXhXhXhXhXhXhXhXhXhXhXhXhXhXhXhX",
"hXhXhXhXhXhXhXhXhXhXhXhXhXhXhXhXhXhXhXhXhXhXhXhXhXhXhXhXhXhXhXhX[ | @.@.*.w.w.j.j.j.w.6.1.1.&.N M hXhXhXhXhXhXhXhXhXhXhXhXhXhXhXhXhXhXhXhXhXhXhXhXhXhXhXhXhXhXhX",
"hXhXhXhXhXhXhXhXhXhXhXhXhXhXhXhXhXhXhXhXhXhXhXhXhXhXhXhXhXj.j.*.+.O.| { { { o.@.$.&.1.1.1.&.N M M hXhXhXhXhXhXhXhXhXhXhXhXhXhXhXhXhXhXhXhXhXhXhXhXhXhXhXhXhXhXhX",
"hXhXhXhXhXhXhXhXhXhXhXhXhXhXhXhXhXhXhXhXhXhXhXhXhXhXhXhXhXhXhXD ! 5.&.*.*.O.| } { { | O.$.0 0 M hXhXhXhXhXhXhXhXhXhXhXhXhXhXhXhXhXhXhXhXhXhXhXhXhXhXhXhXhXhXhXhX",
"hXhXhXhXhXhXhXhXhXhXhXhXhXhXhXhXhXhXhXhXhXhXhXhXhXhXhXhX7.~ c g g g c D I :.:.G +.@.o.{ [ - - 6 hXhXhXhXhXhXhXhXhXhXhXhXhXhXhXhXhXhXhXhXhXhXhXhXhXhXhXhXhXhXhXhX",
"hXhXhXhXhXhXhXhXhXhXhXhXhXhXhXhXhXhXhXhXhXhXhXhXhXhXi.!.W.~ g g k L L b c c v #.z.Z.=.&.N 0 6 6 hXhXhXhXhXhXhXhXhXhXhXhXhXhXhXhXhXhXhXhXhXhXhXhXhXhXhXhXhXhXhXhX",
"hXhXhXhXhXhXhXhXhXhXhXhXhXhXhXhXhXhXhXhXhXhXhXhXhXhX!.,XP.D s g b ^ ^ ^ E L q #.x.v.W E / v hXhXM M hXhXhXhXhXhXhXhXhXhXhXhXhXhXhXhXhXhXhXhXhXhXhXhXhXhXhXhXhXhX",
"hXhXhXhXhXhXhXhXhXhXhXhXhXhXhXhXhXhXhXhXhXhXhXhXhXi.4X,XW.R n s k ^ ^ ^ ^ ^ I L n v.c.^ Q s hXhXhXhXhXhXhXhXhXhXhXhXhXhXhXhXhXhXhXhXhXhXhXhXhXhXhXhXhXhXhXhXhXhX",
"hXhXhXhXhXhXhXhXhXhXhXhXhXhXhXhXhXhXhXOX2X,X$X#X3.W.P.L.W.7.x.Q g c P ^ v E T Q s.] R v hXhXhXhXhXhXhXhXhXhXhXhXhXhXhXhXhXhXhXhXhXhXhXhXhXhXhXhXhXhXhXhXhXhXhXhX",
"hXhXhXhXhXhXhXhXhXhXhXhXhXhXhXhX$X&XqXqXtX0X4X4X7.L.P.t.7.S.n.z.l.R c n E k T ' Q c <.r.<.hXhXhXhXhXhXhXhXhXhXhXhXhXhXhXhXhXhXhXhXhXhXhXhXhXhXhXhXhXhXhXhXhXhXhX",
"hXhXhXhXhXhXhXhXhXhXhXhXhXhX.XOX$X<X2X2X2X&X4X4X%X@X#XP.OX#X,XE.b.x.' F v g h m n D G.8.~ R hXhXhXhXhXhXhXhXhXhXhXhXhXhXhXhXhXhXhXhXhXhXhXhXhXhXhXhXhXhXhXhXhXhX",
"hXhXhXhXhXhXhXhXhXhXhXhXP.<XtXyXyXyXyXyXtX7X$X&X4X.XOXP.@X%X4X4X#XL.z.B.c.R | X.o.) t.G.r.8.,.hXhXhXhXhXhXhXhXhXhXhXhXhXhXhXhXhXhXhXhXhXhXhXhXhXhXhXhXhXhXhXhXhX",
"hXhXhXhXhXhXhXhXhXhXhXhXP.tXyXtXyXyXyXyXtXyXyX9X$XXXW.R.I.E.|.OX<X4X.XU.l.v.}  .{ 5.A.t.J.G.8.hXhXhXhXhXhXhXhXhXhXhXhXhXhXhXhXhXhXhXhXhXhXhXhXhXhXhXhXhXhXhXhXhX",
"hXhXhXhXhXhXhXhXhXhXhXhXP.tXeX2XyXyXyX8X9XyXyXyX<X X4X4XOXXXT.J.H.P.!.|.L.y.- ....| 4.<.t.e.<.~ hXhXhXhXhXhXhXhXhXhXhXhXhXhXhXhXhXhXhXhXhXhXhXhXhXhXhXhXhXhXhXhX",
"hXhXhXhXhXhXhXhXhXhXhXhXP.qX{.2XyXtX0X1X9XyXyXyXtXD.>XqX0X0X,XoX{.K.a.a.P.L.,.O.....o.,.8.5.>.,.hXhXhXhXhXhXhXhXhXhXhXhXhXhXhXhXhXhXhXhXhXhXhXhXhXhXhXhXhXhXhXhX",
"hXhXhXhXhXhXhXhXhXhXhXhXP.{.+XqXqX5X;X1XtXyXyXyXyXp.}.:X7XtXqX<X,X+XoX{.A.a.J.D.$.| { %.<.:.K <.G hXhXhXhXhXhXhXhXhXhXhXhXhXhXhXhXhXhXhXhXhXhXhXhXhXhXhXhXhXhXhX",
"hXhXhXhXhXhXhXhXhXhXhXhXH.K.>X>X>X;X-X8XqXqXyXyXyX8.Q.-X;X1X0X4X4X4X,X>XoX XK.G.I.9.+.o.:.K J <.V hXhXhXhXhXhXhXhXhXhXhXhXhXhXhXhXhXhXhXhXhXhXhXhXhXhXhXhXhXhXhX",
"hXhXhXhXhXhXhXhXhXhXhX8.G.=X-X-X-X-X1XtXqXqXyXyXqX8.Q.-X-X-X=X:X4X4X4X4X,X>X>X{.G.K.t.&.0 F ,.<.V hXhXhXhXhXhXhXhXhXhXhXhXhXhXhXhXhXhXhXhXhXhXhXhXhXhXhXhXhXhXhX",
"hXhXhXhXhXhXhXhXhXhXhX8.G.=X-X-X-X>XqXuX8XqXyXyX4X4.T.-X-X-X*XT.W.OXW.@X<X>X>X>XOXP.G.A.2.K -.:.V hXhXhXhXhXhXhXhXhXhXhXhXhXhXhXhXhXhXhXhXhXhXhXhXhXhXhXhXhXhXhX",
"hXhXhXhXhXhXhXhXhXhXhX8.R.-X-X-X;XqXuXqX>XqXyXyX,X4.T.=X-X-X*XT.T.u.3.3.I.}.Q.Q.}.Q.J.G.9.B F :.V hXhXhXhXhXhXhXhXhXhXhXhXhXhXhXhXhXhXhXhXhXhXhXhXhXhXhXhXhXhXhX",
"hXhXhXhXhXhXhXhXhXhXhX:.Q.-X-X;X7XyXeX$X$XwXyXyX>X<.Z.T.=X-X=XT.T.F.0.q.J.T.T.T.T.T.I.G.e.A F :.A G hXhXhXhXhXhXhXhXhXhXhXhXhXhXhXhXhXhXhXhXhXhXhXhXhXhXhXhXhXhX",
"hXhXhXhXhXhXhXhXhXhXhX:.Q.-X-X>XrXyX$X|.9XuXyXyXOX<.8.A.T.=X=XT.T.T.T.T.T.T.J.J.J.J.K.G.t.-.F F :.,.hXhXhXhXhXhXhXhXhXhXhXhXhXhXhXhXhXhXhXhXhXhXhXhXhXhXhXhXhXhX",
"hXhXhXhXhXhXhXhXhXhXhX:.Q.-X;X,X2XOXI.W.OX8XwXwXp.<.<.2.0.F.W.XXT.Z.Z.A.Z.>.~ v.M.V.V.B.h.-.B J >.K hXhXhXhXhXhXhXhXhXhXhXhXhXhXhXhXhXhXhXhXhXhXhXhXhXhXhXhXhXhX",
"hXhXhXhXhXhXhXhXhXhXhX:.Q.-X XH.t.t.t.t.A.{.oX Xr.p.u.Z.Z.Z.p.F.9.p.Z.<.p.<.s.iXf.S.S.n.b.-.V :.-.F A H hXhXhXhXhXhXhXhXhXhXhXhXhXhXhXhXhXhXhXhXhXhXhXhXhXhXhXhX",
"hXhXhXhXhXhXhXhXhXhXhX:.T.=Xp.G.G.G.K.|.<XeXtXtXeX<XOXW.L.T.Z.8.q.q.T.8.I.4.s.].g.T.I.7.M.~ F >.-.r.H.a.p.0.8.hXhXhXhXhXhXhXhXhXhXhXhXhXhXhXhXhXhXhXhXhXhXhXhXhX",
"hXhXhXhXhXhXhXhXhXhXhXhX<.=XXX X{.{.&XqXyXyXyXyXyXyXyXqX4XS.p.q.q.0.0.D.I.<.s._.s.b.b.7.g.,.V <.t.a.t.G.G.H.H.a.8.hXhXhXhXhXhXhXhXhXhXhXhXhXhXhXhXhXhXhXhXhXhXhX",
"hXhXhXhXhXhXhXhXhXhXhXhX:.F.-X;X;X;X;X;X1X2XqXtXyXyXyXyX&X!.#X!.L.P.p.D.u.:.) B.z.z.B.y.3.H J 9.t.t.A.G.G.G.G.G.e.2.2.2.hXhXhXhXhXhXhXhXhXhXhXhXhXhXhXhXhXhXhXhX",
"hXhXhXhXhXhXhXhXhXhXhXhXhX,.T.Q.-X-X-X-X-X-X;X:X2X8XwX.X!.%X.X,XtXyXwX<X.X0.u.P..X.X.X.Xa.8.<.K t.G.G.G.G.G.G.9.e.G.e.9.e.e.e.r.:.hXhXhXhXhXhXhXhXhXhXhXhXhXhXhX",
"hXhXhXhXhXhXhXhXhXhXhXhXhXhXhX8.A.F.Q.=X=X-X-X-X-X=XF.D.I.W.>XwXyXrX<X3X3XY.5.I.OX+X+X$X|.9.r.;.,.G.G.G.G.<.4.t.9.9.e.G.G.G.e.q.v.m.c.f.hXhXhXhXhXhXhXhXhXhXhXhX",
"hXhXhXhXhXhXhXhXhXhXhXhXhXhXhXhXH.H.Z.p.p.F.R.=X-X=X<.T.0.-X-X;X;X X6XpX[.].^./.~.U.I.T.R.p.<.8.F K 4.e.t.V 9.H t.G.G.G.G.0.M._.].].'._.V.s.hXhXhXhXhXhXhXhXhXhX",
"hXhXhXhXhXhXhXhXhXhXhXhXhXhXhXhX X+X|.T.D.t.r.q.F.T.<.T.8.-X-X-XI.U.^.'.dXfXfXfXsXpX3X(.Y.S.5.8.F hXhXF H B :.A G.G.G.G.9.7.).].].].].].(.).c.^ hXhXhXhXhXhXhXhX",
"hXhXhXhXhXhXhXhXhXhXhXhXhXhXhXhX|.P.T.T.T.T.T.J.Z.r.r.9.2.T.Q.-XJ.b.f.'.fXfXfXgXgXgXgXfXdXaX]./.7.hXhXhXhXhXhXh 9.G.K.9.! L ] (.].]._.d.R _._.c.^ hXhXhXhXhXhXhX",
"hXhXhXhXhXhXhXhXhXhXhXhXhXhXhXhXI.T.T.T.T.T.T.T.T.T.T.J.A.9.r.Z.q.5.) v.[.aXsXfXfXfXdXdXfXfXpX].^.C._.hXhXhXhXhXv ~ 8.~ b x hXhXm.(.B.c c R l.B.s.L hXhXhXhXhXhX",
"hXhXhXhXhXhXhXhXhXhXhXhXhXhXhXhXI.T.T.T.T.T.T.T.T.T.T.T.T.T.J.Z.A.A.2.q.n.M.(.].[.pXpX_.B.).iX`.).(.V.(.hXhXhXhXhXhXhXg d hXhXhX^ s.v.c hXhX( v.l.L hXhXhXhXhXhX",
"hXhXhXhXhXhXhXhXhXhXhXhXhXhXhX2.J.T.T.T.T.T.T.T.T.T.T.T.T.T.T.T.T.T.8.Z.T.G.5.n.n.z._.pXV.I ] )._.c.C.' _.f.hXhXhXhXhXhXhXhXhXhXhX^ d.c hXhXhXs.c.L hXhXhXhXhXhX",
"hXhXhXhXhXhXhXhXhXhXhXhXhXhXhX<.J.T.T.T.T.T.T.T.T.T.T.T.T.T.T.T.T.T.8.Z.T.T.<.J.T.F.7.V.C.! 2.D C.` B.R c.hXhXhXhXhXhXhXhXhXhXhXhXhXhXhXhXhXhX] d.n hXhXhXhXhXhX",
"hXhXhXhXhXhXhXhXhXhXhXhXhXhXhX<.T.T.T.T.T.T.T.T.T.T.T.T.T.T.T.T.T.T.8.Z.T.T.t.r.T.T.Z.' N.! e.F g.R R n hXhXhXhXhXhXhXhXhXhXhXhXhXhXhXhXhXhXhXhXE c hXhXhXhXhXhX",
"hXhXhXhXhXhXhXhXhXhXhXhXhXhXhX<.T.T.T.T.T.T.T.T.T.T.T.T.W. X X|.R.T.8.r.T.T.T.<.J.T.T.b.) 8.9.<.8.F hXhXhXhXhXhXhXhXhXhXhXhXhXhXhXhXhXhXhXhXhXhXhXhXhXhXhXhXhXhX",
"hXhXhXhXhXhXhXhXhXhXhXhXhXhXhX<.T.T.T.T.T.T.T.T.T.T.T.R.>X>X>X>X XT.q.2.F.T.T.t.9.F.T.T.T.J.9.<.8.F hXhXhXhXhXhXhXhXhXhXhXhXhXhXhXhXhXhXhXhXhXhXhXhXhXhXhXhXhXhX",
"hXhXhXhXhXhXhXhXhXhXhXhXhXhXhX<.T.T.T.T.T.T.T.T.T.T.T.OX>X>X>X>X>XXXZ.,.r.J.J.J.Z.<.T.T.J.G.9.<.8.F hXhXhXhXhXhXhXhXhXhXhXhXhXhXhXhXhXhXhXhXhXhXhXhXhXhXhXhXhXhX",
"hXhXhXhXhXhXhXhXhXhXhXhXhXhXhX8.T.T.T.T.T.T.T.T.T.T.R.>X>X>X>X>X>XXXF.8.2.2.2.8.9.q.T.T.J.G.9.,.8.F hXhXhXhXhXhXhXhXhXhXhXhXhXhXhXhXhXhXhXhXhXhXhXhXhXhXhXhXhXhX",
"hXhXhXhXhXhXhXhXhXhXhXhXhXhXhX0.T.T.T.T.T.T.T.T.T.T.R.>X>X>X>X>X>XXXT.Z.8.8.8.8.G.T.T.T.J.G.9.,.8.F hXhXhXhXhXhXhXhXhXhXhXhXhXhXhXhXhXhXhXhXhXhXhXhXhXhXhXhXhXhX",
"hXhXhXhXhXhXhXhXhXhXhXhXhXhXhX0.T.T.T.T.T.T.T.T.T.T.R.>X>X>X>X>X>XXXT.T.F.F.F.F.J.T.T.T.J.G.9.<.8.F hXhXhXhXhXhXhXhXhXhXhXhXhXhXhXhXhXhXhXhXhXhXhXhXhXhXhXhXhXhX",
"hXhXhXhXhXhXhXhXhXhXhXhXhXhX<.Z.T.T.T.T.T.T.T.T.T.T.R.>X>X>X>X>X>XXXT.T.T.T.T.T.T.T.T.T.J.t.<.<.8.F hXhXhXhXhXhXhXhXhXhXhXhXhXhXhXhXhXhXhXhXhXhXhXhXhXhXhXhXhXhX",
"hXhXhXhXhXhXhXhXhXhXhXhXhXhX8.T.T.T.T.T.T.T.T.T.T.T.T. X>X>X>X>X$XW.T.T.T.T.T.T.T.T.T.T.J.t.,.<.8.F hXhXhXhXhXhXhXhXhXhXhXhXhXhXhXhXhXhXhXhXhXhXhXhXhXhXhXhXhXhX",
"hXhXhXhXhXhXhXhXhXhXhXhXhXhXr.T.T.T.T.T.T.T.T.T.T.T.T.|.>X>X>X>XOXR.T.T.T.T.T.T.T.T.T.T.T.e.,.8.<.A hXhXhXhXhXhXhXhXhXhXhXhXhXhXhXhXhXhXhXhXhXhXhXhXhXhXhXhXhXhX",
"hXhXhXhXhXhXhXhXhXhXhXhXhX8.J.T.T.T.T.T.T.T.T.T.T.T.T.R.>X>X>X>X}.T.T.T.T.T.T.T.T.T.T.T.T.e.,.8.F hXhXhXhXhXhXhXhXhXhXhXhXhXhXhXhXhXhXhXhXhXhXhXhXhXhXhXhXhXhXhX",
"hXhXhXhXhXhXhXhXhXhXhXhXhX9.T.T.T.T.T.T.T.T.T.T.T.T.T.R.OX>X>XOXT.T.T.T.T.T.T.T.T.T.T.T.T.e.,.8.F hXhXhXhXhXhXhXhXhXhXhXhXhXhXhXhXhXhXhXhXhXhXhXhXhXhXhXhXhXhXhX",
"hXhXhXhXhXhXhXhXhXhXhXhX<.A.T.T.T.T.T.T.T.T.T.T.T.T.T.T.|.>X>XoXJ.T.T.T.T.T.T.T.T.T.T.T.T.e.,.8.F hXhXhXhXhXhXhXhXhXhXhXhXhXhXhXhXhXhXhXhXhXhXhXhXhXhXhXhXhXhXhX",
"hXhXhXhXhXhXhXhXhXhXhXhX8.T.T.T.T.T.T.T.T.T.T.T.T.T.T.T.R.>X>X{.G.J.T.T.T.T.T.T.T.T.T.T.J.e.,.8.F hXhXhXhXhXhXhXhXhXhXhXhXhXhXhXhXhXhXhXhXhXhXhXhXhXhXhXhXhXhXhX",
"hXhXhXhXhXhXhXhXhXhXhX,.t.T.T.T.T.T.T.T.T.T.T.T.T.T.T.T.T.W.W.G.G.J.T.T.T.T.T.T.T.T.T.T.G.e.,.8.F hXhXhXhXhXhXhXhXhXhXhXhXhXhXhXhXhXhXhXhXhXhXhXhXhXhXhXhXhXhXhX",
"hXhXhXhXhXhXhXhXhXhXhX8.J.T.T.T.T.T.T.T.T.T.T.T.T.T.T.T.T.T.J.G.J.T.T.T.T.T.T.T.T.T.T.J.G.e.,.8.F hXhXhXhXhXhXhXhXhXhXhXhXhXhXhXhXhXhXhXhXhXhXhXhXhXhXhXhXhXhXhX",
"hXhXhXhXhXhXhXhXhXhX,.Z.T.T.T.T.T.T.T.T.T.T.T.T.T.T.T.T.T.J.G.G.J.T.T.T.T.T.T.T.T.T.T.J.G.e.,.8.>.A hXhXhXhXhXhXhXhXhXhXhXhXhXhXhXhXhXhXhXhXhXhXhXhXhXhXhXhXhXhX",
"hXhXhXhXhXhXhXhXhXhX9.J.T.T.T.T.T.T.T.T.T.T.T.T.T.T.T.T.J.G.G.J.T.T.T.T.T.T.T.T.T.T.T.T.G.e.,.8.k.H hXhXhXhXhXhXhXhXhXhXhXhXhXhXhXhXhXhXhXhXhXhXhXhXhXhXhXhXhXhX",
"hXhXhXhXhXhXhXhXhX2.A.T.T.T.T.T.T.T.T.T.T.T.J.J.J.J.J.G.G.G.J.T.T.T.T.T.T.T.T.T.T.T.T.J.G.e.,.8.t.H hXhXhXhXhXhXhXhXhXhXhXhXhXhXhXhXhXhXhXhXhXhXhXhXhXhXhXhXhXhX",
"hXhXhXhXhXhXhXhX<.Z.T.T.T.T.T.T.T.T.T.T.T.T.G.G.G.G.G.G.G.J.T.T.T.T.T.T.T.T.T.T.T.T.T.G.G.e.,.8.t.4.A hXhXhXhXhXhXhXhXhXhXhXhXhXhXhXhXhXhXhXhXhXhXhXhXhXhXhXhXhX",
"hXhXhXhXhXhXhXhXr.T.T.T.T.T.T.T.T.T.T.T.T.T.T.T.J.J.J.T.T.T.T.T.T.T.T.T.T.T.T.T.T.T.J.G.G.e.,.8.t.K.F hXhXhXhXhXhXhXhXhXhXhXhXhXhXhXhXhXhXhXhXhXhXhXhXhXhXhXhXhX",
"hXhXhXhXhXhXhX8.A.T.T.T.T.T.T.T.T.T.T.T.T.T.T.T.T.T.T.T.T.T.T.T.T.T.T.T.T.T.T.T.T.T.G.G.G.9.,.8.9.G.F hXhXhXhXhXhXhXhXhXhXhXhXhXhXhXhXhXhXhXhXhXhXhXhXhXhXhXhXhX",
"hXhXhXhXhXhXhX8.F.T.T.T.T.T.T.T.T.T.T.T.T.T.T.T.T.T.T.T.T.T.T.T.T.T.T.T.T.T.T.T.T.J.G.G.t.<.:.2.8.t.F hXhXhXhXhXhXhXhXhXhXhXhXhXhXhXhXhXhXhXhXhXhXhXhXhXhXhXhXhX",
"hXhXhXhXhXhXhX8.F.T.T.T.T.T.T.T.T.T.T.T.T.T.T.T.T.T.T.T.T.T.T.T.T.T.T.T.T.T.T.T.T.G.G.G.t.<.:.<.8.9.V hXhXhXhXhXhXhXhXhXhXhXhXhXhXhXhXhXhXhXhXhXhXhXhXhXhXhXhXhX",
"hXhXhXhXhXhXhX<.Z.T.T.T.T.T.T.T.T.T.T.T.T.T.T.T.T.T.T.T.T.T.T.T.T.T.T.T.T.T.T.T.J.G.G.G.e.:.:.:.2.<.V hXhXhXhXhXhXhXhXhXhXhXhXhXhXhXhXhXhXhXhXhXhXhXhXhXhXhXhXhX",
"hXhXhXhXhXhXhXhX>.u.F.J.T.T.T.T.T.T.T.T.T.T.T.T.T.T.T.T.T.T.T.T.T.T.T.T.T.T.T.J.G.G.G.G.e.:.:.:.,.F hXhXhXhXhXhXhXhXhXhXhXhXhXhXhXhXhXhXhXhXhXhXhXhXhXhXhXhXhXhX",
"hXhXhXhXhXhXhXhXhXhXhXD >.0.Z.F.T.T.T.T.T.T.T.T.T.T.T.T.T.T.T.T.T.T.T.T.T.J.G.G.G.G.G.G.9.:.:.:.A hXhXhXhXhXhXhXhXhXhXhXhXhXhXhXhXhXhXhXhXhXhXhXhXhXhXhXhXhXhXhX",
"hXhXhXhXhXhXhXhXhXhXhXy 9 r Z F -.<.0.0.Z.Z.F.T.T.T.T.T.T.T.T.T.T.J.F.Z.p.e.e.e.e.e.e.9.,.:.:.F hXhXhXhXhXhXhXhXhXhXhXhXhXhXhXhXhXhXhXhXhXhXhXhXhXhXhXhXhXhXhXhX",
"hXhXhXhXhXhXhXhXhXhXhXp D m e r C C C w e Z G H H H A J B A A A A m w 9 w 9 9 8 1 9 9 Z :.:.F hXhXhXhXhXhXhXhXhXhXhXhXhXhXhXhXhXhXhXhXhXhXhXhXhXhXhXhXhXhXhXhXhX",
"hXhXhXhXhXhXhXhXhXhXu z / U D m e C C r 3 w C C C r 2 hXo 2 2 2 2 ; 2 4 7 1 = < 8 < > 5 hXhXhXhXhXhXhXhXhXhXhXhXhXhXhXhXhXhXhXhXhXhXhXhXhXhXhXhXhXhXhXhXhXhXhXhX",
"hXhXhXhXhXhXhXhXhXhXu I / / / I m e r C w 7 t C C 3 hXhXo 2 2 2 2 2 7 8 4 : 1 8 < > >   hXhXhXhXhXhXhXhXhXhXhXhXhXhXhXhXhXhXhXhXhXhXhXhXhXhXhXhXhXhXhXhXhXhXhXhX",
"hXhXhXhXhXhXhXhXhXhXp I U / / / U D m e r 3 w C C 2 hXhXo 2 2 2 4 8 4 4 4 8 4 , + 2 > . hXhXhXhXhXhXhXhXhXhXhXhXhXhXhXhXhXhXhXhXhXhXhXhXhXhXhXhXhXhXhXhXhXhXhXhX",
"hXhXhXhXhXhXhXhXhXu z _ _ Y Y / / / U D a 7 e C C 2 hXhXO 2 4 7 8 = < 8 8 8 O > 2 2 > . hXhXhXhXhXhXhXhXhXhXhXhXhXhXhXhXhXhXhXhXhXhXhXhXhXhXhXhXhXhXhXhXhXhXhXhX",
"hXhXhXhXhXhXhXhXhXy I s.s._ / I / / / / y u S m r 3 hXX ; ; < = = 1 8 8 8 8 , + , 2 , X hXhXhXhXhXhXhXhXhXhXhXhXhXhXhXhXhXhXhXhXhXhXhXhXhXhXhXhXhXhXhXhXhXhXhXhX",
"hXhXhXhXhXhXhXhXhXp / ( Y Y / / / / / U % u v S a hXhXo * = : 1 8 8 8 8 8 1 , + $ + + O X hXhXhXhXhXhXhXhXhXhXhXhXhXhXhXhXhXhXhXhXhXhXhXhXhXhXhXhXhXhXhXhXhXhXhX",
"hXhXhXhXhXhXhXhXu z _ _ / / ( / / / ^ P # # z z u hXX % # , < 7 8 4 < , + @ & d g s s i s s hXhXhXhXhXhXhXhXhXhXhXhXhXhXhXhXhXhXhXhXhXhXhXhXhXhXhXhXhXhXhXhXhXhX",
"hXhXhXhXhXhXhXhXhXu l l g n ^ / ^ I I P z f u u hXhXX % s $ X O + + % & s s s b E ' ] ( ^ L b k hXhXhXhXhXhXhXhXhXhXhXhXhXhXhXhXhXhXhXhXhXhXhXhXhXhXhXhXhXhXhXhX",
"hXhXhXhXhXhXhXhXhX. i s s n f.s.s.s.s.s.^ L k % hXhXX @ $ $ $ @ @ $ $ $ & & & & i f b Q d._ ( ` Q L L b s s s hXhXhXhXhXhXhXhXhXhXhXhXhXhXhXhXhXhXhXhXhXhXhXhXhX",
"hXhXhXhXhXhXhXhXhXhX$ g s s E l.^.m.c.s.s.s._ E T n k % $ o o o X hXhX  X o o X X X o $ % % % f c c k g k g g hXhXhXhXhXhXhXhXhXhXhXhXhXhXhXhXhXhXhXhXhXhXhXhXhX",
"hXhXhXhXhXhXhXhXhXhXhXo % % % d P ] d.W W ] ( W W E z j % X hXhXhXhXhXhXhXhXhXhXhXhXhXhXhXhXhXhXhXhXhXhXhXhXhXhXhXhXhXhXhXhXhXhXhXhXhXhXhXhXhXhXhXhXhXhXhXhXhXhX",
"hXhXhXhXhXhXhXhXhXhXhXhXX X X $ $ % i i p j z l j j j j % X hXhXhXhXhXhXhXhXhXhXhXhXhXhXhXhXhXhXhXhXhXhXhXhXhXhXhXhXhXhXhXhXhXhXhXhXhXhXhXhXhXhXhXhXhXhXhXhXhXhX",
"hXhXhXhXhXhXhXhXhXhXhXhXhXhXhXhXhXhXhXhXhXhXhXhXhXhXhXhXhXhXhXhXhXhXhXhXhXhXhXhXhXhXhXhXhXhXhXhXhXhXhXhXhXhXhXhXhXhXhXhXhXhXhXhXhXhXhXhXhXhXhXhXhXhXhXhXhXhXhXhX"
};
