/* XPM */
static char *result[] = {
/* columns rows colors chars-per-pixel */
"80 80 215 2 ",
"   c #1F0E1F",
".  c #200F20",
"X  c #231323",
"o  c #2A1621",
"O  c #271927",
"+  c #291C29",
"@  c #341A24",
"#  c #3C2226",
"$  c #2F2730",
"%  c #342C34",
"&  c #382934",
"*  c #383237",
"=  c #3A343A",
"-  c #3E3A3E",
";  c #6A0A0A",
":  c #432524",
">  c #492A23",
",  c #452329",
"<  c #4C262B",
"1  c #522A2B",
"2  c #5A2D2E",
"3  c #533222",
"4  c #583127",
"5  c #5C322B",
"6  c #4D2F38",
"7  c #563739",
"8  c #60312E",
"9  c #633131",
"0  c #693937",
"q  c #713C3C",
"w  c #624032",
"e  c #6A473B",
"r  c #704C3E",
"t  c #3A2E41",
"y  c #433242",
"u  c #413B41",
"i  c #493A48",
"p  c #444444",
"a  c #47444C",
"s  c #4B4A4C",
"d  c #544C48",
"f  c #4C4654",
"g  c #4E4C52",
"h  c #574C5A",
"j  c #525253",
"k  c #55555A",
"l  c #5A5559",
"z  c #5B5B5D",
"x  c #674646",
"c  c #6B4543",
"v  c #734242",
"b  c #774B48",
"n  c #685348",
"m  c #6B564A",
"M  c #6E594D",
"N  c #735242",
"B  c #77564A",
"V  c #71594E",
"C  c #654B53",
"Z  c #6C5A53",
"A  c #6A5A5A",
"S  c #745C53",
"D  c #765A59",
"F  c #7B6155",
"G  c #76615B",
"H  c #7B625B",
"J  c #5B5765",
"K  c #5C5B63",
"L  c #645A67",
"P  c #695E6D",
"I  c #705E61",
"U  c #695F70",
"Y  c #63626D",
"T  c #686569",
"R  c #6B6A6C",
"E  c #7A6667",
"W  c #746B6D",
"Q  c #676574",
"!  c #6B6373",
"~  c #6B6A75",
"^  c #6D6C7B",
"/  c #766D75",
"(  c #737375",
")  c #74747B",
"_  c #7B7478",
"`  c #7A7A7C",
"'  c #8D0C0C",
"]  c #96090A",
"[  c #881C1B",
"{  c #961314",
"}  c #A40303",
"|  c #872728",
" . c #9B2428",
".. c #903436",
"X. c #99423C",
"o. c #993F40",
"O. c #A13E40",
"+. c #854748",
"@. c #A34F54",
"#. c #866B56",
"$. c #81635E",
"%. c #A06A41",
"&. c #8B5961",
"*. c #995C67",
"=. c #A15663",
"-. c #846563",
";. c #866964",
":. c #8B6A65",
">. c #876869",
",. c #8B6B6B",
"<. c #976466",
"1. c #906F6E",
"2. c #8E706F",
"3. c #93716E",
"4. c #99766E",
"5. c #8C6C74",
"6. c #996D73",
"7. c #887678",
"8. c #947373",
"9. c #9B7474",
"0. c #987B76",
"q. c #9C7A7A",
"w. c #A26B79",
"e. c #A47576",
"r. c #A37C7C",
"t. c #A97E7D",
"y. c #9A8478",
"u. c #A5887D",
"i. c #737484",
"p. c #7C7A82",
"a. c #7C7B88",
"s. c #847D84",
"d. c #997F81",
"f. c #A97C82",
"g. c #888487",
"h. c #84848C",
"j. c #988789",
"k. c #8B8B94",
"l. c #978A91",
"z. c #8F9093",
"x. c #949394",
"c. c #949299",
"v. c #9C9B9C",
"b. c #A58483",
"n. c #AB8483",
"m. c #A98B86",
"M. c #AD8B8B",
"N. c #B58485",
"B. c #B58985",
"V. c #B48D8D",
"C. c #A69487",
"Z. c #B4948C",
"A. c #B7988A",
"S. c #B28E91",
"D. c #AA9797",
"F. c #B59494",
"G. c #BA9794",
"H. c #BB9A94",
"J. c #BA9B94",
"K. c #BD9C9B",
"L. c #BAA28F",
"P. c #A7A09C",
"I. c #B9A596",
"U. c #9D9DA2",
"Y. c #9D9DA8",
"T. c #A39EA5",
"R. c #A7A6A8",
"E. c #A4A4AA",
"W. c #AFABB0",
"Q. c #B4B4B7",
"!. c #C09F8F",
"~. c #C19D9B",
"^. c #C3A393",
"/. c #C7AA96",
"(. c #C4A49A",
"). c #CCAB9B",
"_. c #D0AE9D",
"`. c #CAB197",
"'. c #CDB39B",
"]. c #D3B39E",
"[. c #D1B99D",
"{. c #C5A4A4",
"}. c #C8A7A6",
"|. c #CBACA4",
" X c #CFAFA8",
".X c #D0AFA3",
"XX c #CFB1A5",
"oX c #D4B4A4",
"OX c #D6B8A4",
"+X c #DBBCA4",
"@X c #DCBCA9",
"#X c #E0BFA8",
"$X c #DDC3A5",
"%X c #DEC1A9",
"&X c #D2C6B9",
"*X c #E2C3A6",
"=X c #E4C4AC",
"-X c #E4C8AA",
";X c #E6C9AB",
":X c #ECCDAE",
">X c #EDCCB0",
",X c #E3CEB9",
"<X c #F0CFB1",
"1X c #EFD1B0",
"2X c #F5D5B4",
"3X c #F8D7B6",
"4X c #F9D8B6",
"5X c #BEBEC1",
"6X c #C6C6C7",
"7X c #D5D5D6",
"8X c #DDDDDD",
"9X c #E7D6C6",
"0X c #E6E6E6",
"qX c gray91",
"wX c None",
/* pixels */
"wXwXwXwXwXwXwXwXwXwXwXwXwXwXwXwXwXwXwXwXwXwXwXwXwXwXwXwXwXwXwXwXwXwXwXwXe.V.M.F.wXwXwXwXwXwXwXwXwXwXwXwXwXwXwXwXwXwXwXwXwXwXwXwXwXwXwXwXwXwXwXwXwXwXwXwXwXwXwXwX",
"wXwXwXwXwXwXwXwXwXwXwXwXwXwXwXwXwXwXwXwXwXwXwXwXwXwXwXwXwXwXwXwXwXwX9.n.F.F.F.F.F.S.F.M.6.wXwXwXwXwXwXwXwXwXwXwXwXwXwXwXwXwXwXwXwXwXwXwXwXwXwXwXwXwXwXwXwXwXwXwX",
"wXwXwXwXwXwXwXwXwXwXwXwXwXwXwXwXwXwXwXwXwXwXwXwXwXwXwXwXwXwXwXwXwX..e.V.F.F.F.F.F.F.F.V.6.<.<.b wXwXwXwXwXwXwXwXwXwXwXwXwXwXwXwXwXwXwXwXwXwXwXwXwXwXwXwXwXwXwXwX",
"wXwXwXwXwXwXwXwXwXwXwXwXwXwXwXwXwXwXwXwXwXwXwXwXwXwXwX&.&.&.w.*.| ] {  .O.@.e.N.V.F.F.f.<.&.b v v v wXwXwXwXwXwXwXwXwXwXwXwXwXwXwXwXwXwXwXwXwXwXwXwXwXwXwXwXwXwX",
"wXwXwXwXwXwXwXwXwXwXwXwXwXwXwXwXwXwXwXwXwXwXwXwXwXwXwXwXwXv b D ,.<.w.@. .] ] { { o.@.<.+.v v v v wXwXwXwXwXwXwXwXwXwXwXwXwXwXwXwXwXwXwXwXwXwXwXwXwXwXwXwXwXwXwX",
"wXwXwXwXwXwXwXwXwXwXwXwXwXwXwXwXwXwXwXwXwXwXwXwXwXwXwXwXwXwXwX% z l D 5.5.*.=.=. .{ ] { ' [ 9 q wXwXwXwXwXwXwXwXwXwXwXwXwXwXwXwXwXwXwXwXwXwXwXwXwXwXwXwXwXwXwXwX",
"wXwXwXwXwXwXwXwXwXwXwXwXwXwXwXwXwXwXwXwXwXwXwXwXwXwXwXu./.y.i J K k z k k A I %.e.f.=.X.| ; ; wXwXwXwXwXwXwXwXwXwXwXwXwXwXwXwXwXwXwXwXwXwXwXwXwXwXwXwXwXwXwXwXwX",
"wXwXwXwXwXwXwXwXwXwXwXwXwXwXwXwXwXwXwXwXwXwXwXwXwXwXA.`.[.A t Y K i.i.i.^ Y K #.z.5XP.#.A x q v v v wXwXwXwXwXwXwXwXwXwXwXwXwXwXwXwXwXwXwXwXwXwXwXwXwXwXwXwXwXwX",
"wXwXwXwXwXwXwXwXwXwXwXwXwXwXwXwXwXwXwXwXwXwXwXwXwXwX/.1X'.W Y f Q i.i.i.i.i.Y ^ k c.k.i.~ Y x v v v v wXwXwXwXwXwXwXwXwXwXwXwXwXwXwXwXwXwXwXwXwXwXwXwXwXwXwXwXwX",
"wXwXwXwXwXwXwXwXwXwXwXwXwXwXwXwXwXwXwXwXwXwXwXwXwXy.L.L.`.J.z.h.Q Y ^ i.~ i.` R v.Q.E.p.` wXwXwXwXwXwXwXwXwXwXwXwXwXwXwXwXwXwXwXwXwXwXwXwXwXwXwXwXwXwXwXwXwXwXwX",
"wXwXwXwXwXwXwXwXwXwXwXwXwXwXwXwXwXwXwXwX=X*X+X;X:XA.'.J.Z.L.L.C.v.a.Y ) ` T ( p.g.( W E Z wXwXwXwXwXwXwXwXwXwXwXwXwXwXwXwXwXwXwXwXwXwXwXwXwXwXwXwXwXwXwXwXwXwXwX",
"wXwXwXwXwXwXwXwXwXwXwXwXwXwXwXwXwX>X=X:X2X3X4X3X3X:X3X+XZ.C.[.-XI.R.v.) ( d L W W E 8.9.H S wXwXwXwXwXwXwXwXwXwXwXwXwXwXwXwXwXwXwXwXwXwXwXwXwXwXwXwXwXwXwXwXwXwX",
"wXwXwXwXwXwXwXwXwXwXwXwXwXwXwX+X#X=X=X=X=X:X>X2X3X3X*X/.$X-X2X4X2X[.I.Q.R.+.{ { 7.8.q.n.8.1.H wXwXwXwXwXwXwXwXwXwXwXwXwXwXwXwXwXwXwXwXwXwXwXwXwXwXwXwXwXwXwXwXwX",
"wXwXwXwXwXwXwXwXwXwXwXwXwXOX>X3X3X3X3X3X3X2X>X;X>X2X*X+X(.(.).].-X2X-X/.x.g.| }  .G 3.t.8.8.H wXwXwXwXwXwXwXwXwXwXwXwXwXwXwXwXwXwXwXwXwXwXwXwXwXwXwXwXwXwXwXwXwX",
"wXwXwXwXwXwXwXwXwXwXwXwXwXOX3X3X3X3X3X3X:X>X3X3X#X$X-X].(.H.F.F.G.^.).+X/.C.g.] } | B t.8.;.S D wXwXwXwXwXwXwXwXwXwXwXwXwXwXwXwXwXwXwXwXwXwXwXwXwXwXwXwXwXwXwXwX",
"wXwXwXwXwXwXwXwXwXwXwXwXwXOX3X3X3X3X3X3X@X=X3X3X2X@X;X:X;X$XoX(.K.F.F.Z.J.^.A...} } [ ;.8.H S >.wXwXwXwXwXwXwXwXwXwXwXwXwXwXwXwXwXwXwXwXwXwXwXwXwXwXwXwXwXwXwXwX",
"wXwXwXwXwXwXwXwXwXwXwXwXwX).3X2X;X3X3X:XXX=X3X3X3X<X).%X3X2X1X;X$XOX).(.G.F.J.A.<.[ ] | >.S H ,.wXwXwXwXwXwXwXwXwXwXwXwXwXwXwXwXwXwXwXwXwXwXwXwXwXwXwXwXwXwXwXwX",
"wXwXwXwXwXwXwXwXwXwXwXwXwX).:X@XoX3X3X=X{.=X3X3X3X2X^.{.=X2X3X3X2X2X:X$XOXXXK.F.H.q.o.| ;.S H ,.;.wXwXwXwXwXwXwXwXwXwXwXwXwXwXwXwXwXwXwXwXwXwXwXwXwXwXwXwXwXwXwX",
"wXwXwXwXwXwXwXwXwXwXwXwXwXm. X}.%X3X;X|.|.:X3X3X3X3XoXb.{.OX:X2X3X3X3X2X;X$X+X'.(.G.M.8.-.S H 8.>.wXwXwXwXwXwXwXwXwXwXwXwXwXwXwXwXwXwXwXwXwXwXwXwXwXwXwXwXwXwXwX",
"wXwXwXwXwXwXwXwXwXwXwXwXwX0.{. X2X;XXXG._.2X3X=X2X3XOX,.K.{.|.%X:X2X3X3X3X:X-X-X$XoX(.V.8.H H 8.-.wXwXwXwXwXwXwXwXwXwXwXwXwXwXwXwXwXwXwXwXwXwXwXwXwXwXwXwXwXwXwX",
"wXwXwXwXwXwXwXwXwXwXwXwXwX0.{. X;X}.K.^.:X3X2X@X<X3X+X,.F.{.{.{.}.oX$X/.OX>X:X:X$X$X$X/.B.8.A E V wXwXwXwXwXwXwXwXwXwXwXwXwXwXwXwXwXwXwXwXwXwXwXwXwXwXwXwXwXwXwX",
"wXwXwXwXwXwXwXwXwXwXwXwXwX0.{.{.}.~.G.+X4X3X*XoX2X3X;X1.F.K.{.{.{.{.Z.b.b.(.XX X X XXX|.b.E Z S V wXwXwXwXwXwXwXwXwXwXwXwXwXwXwXwXwXwXwXwXwXwXwXwXwXwXwXwXwXwXwX",
"wXwXwXwXwXwXwXwXwXwXwXwXwXq.{.{.~.G.+X2X3X=X/._.2X3X:X1.F.F.K.{.{.{.{.F.K.{.{.{.{.{.{.~.F.q.Z S V wXwXwXwXwXwXwXwXwXwXwXwXwXwXwXwXwXwXwXwXwXwXwXwXwXwXwXwXwXwXwX",
"wXwXwXwXwXwXwXwXwXwXwXwX;.V.{.K.K.oX2X3X;X].^.oX2X4X<X,.q.M.F.H.K.{.{.{.{.K.K.H.y.l.D.D.m.j.G S V d wXwXwXwXwXwXwXwXwXwXwXwXwXwXwXwXwXwXwXwXwXwXwXwXwXwXwXwXwXwX",
"wXwXwXwXwXwXwXwXwXwXwXwX;.F.{.~.|.+X]./.^.m.J.).#X*X].$.;.:.r.F.F.M.M.M.n.q.q.,.) E.a.g._ _ W m D d wXwXwXwXwXwXwXwXwXwXwXwXwXwXwXwXwXwXwXwXwXwXwXwXwXwXwXwXwXwX",
"wXwXwXwXwXwXwXwXwXwXwXwX;.F.{.{.H.B.t.r.e.3.0.^.]._.^.y.4.4.9.r.b.q.b.b.,.Z.F.>.a.5Xs.H.Z.j.g.S H C Z H S wXwXwXwXwXwXwXwXwXwXwXwXwXwXwXwXwXwXwXwXwXwXwXwXwXwXwX",
"wXwXwXwXwXwXwXwXwXwXwXwX;.F.G.K.q.N.N.t.n.].=X2X3X3X3X2X+X).B.0.q.q.H.b.q.J.F.>.a.R.a.S.j.` _ Z m G :.1.3.$.-.wXwXwXwXwXwXwXwXwXwXwXwXwXwXwXwXwXwXwXwXwXwXwXwXwX",
"wXwXwXwXwXwXwXwXwXwXwXwX;.b.B.{.H.M.n.V.OX:X2X3X3X3X3X3X4X3X*XL.0.q.F.8.B.H.r.,.p.U.p.s.h.p.7.S F e.N.B.0.8.8.:.-.H wXwXwXwXwXwXwXwXwXwXwXwXwXwXwXwXwXwXwXwXwXwX",
"wXwXwXwXwXwXwXwXwXwXwXwXwXwX8.V.{.{.{.{.}.}. X@X%X:X2X3X2X+X'.:X$XA.A.u.Z.F.>.q.0.C.C.C.C.0.-.m 3.N.B.B.0.8.1.,.3.,.>.>.>.H wXwXwXwXwXwXwXwXwXwXwXwXwXwXwXwXwXwX",
"wXwXwXwXwXwXwXwXwXwXwXwXwXwXwXwXr.F.K.{.{.{.{.{.{.{.XX#X+XC.`.+X`.;X3X:X+X/.u.A.^.)._.].).u.>.S ;.n.N.B.0.,.>.,.>.1.8.8.8.2.7.~ wXwXwXwXwXwXwXwXwXwXwXwXwXwXwXwX",
"wXwXwXwXwXwXwXwXwXwXwXwXwXwXwXwXwXu.b.b.F.K.{.{.{.{.{.K.3.M.H.I.$X2X3X3X,X9X,XD.j.A./.).).m.>.;.H ,.8.r.$.H m $.,.8.8.5.7._ ) p.) ( z wXwXwXwXwXwXwXwXwXwXwXwXwX",
"wXwXwXwXwXwXwXwXwXwXwXwXwXwXwXwXwX/.!.B.u.q.b.M.K.{.{.K.1.M.q.}.}.oXXX&X6XW.Y.E.Y.T.x.m.Z.n.1.8.S F 2.8.m -.m ;.1.8.8.j.( Q h.x.x.x.g.R wXwXwXwXwXwXwXwXwXwXwXwX",
"wXwXwXwXwXwXwXwXwXwXwXwXwXwXwXwXu.!.A.F.F.F.M.b.q.r.M.n.8.F.8.}.{.}.l.Q.E.E.7X0XqX0X7X6XW.D.d.,.S wXS ;.n S m -.;.>.>./ Y ` x.x.x.x.x.x.` R wXwXwXwXwXwXwXwXwXwX",
"wXwXwXwXwXwXwXwXwXwXwXwXwXwXwXwXy.F.F.F.F.F.F.F.F.F.b.b.r.8.8.{.{.}.l.Y.v.6X0XqX0X0XqXqX0X8X6XR.7.A wXwXwXwXwXS H $.E K Y h.x.x.x.x.z.x.z.( p.` ) Y wXwXwXwXwXwX",
"wXwXwXwXwXwXwXwXwXwXwXwXwXwXwXwXy.F.F.F.F.F.F.F.F.F.F.F.F.n.q.r.b.G.l.k.h.R.7X0XqXqX0X0XqX0X8X8X7XE.h.wXwXwXwXwXn M A l K Y ) h.x.x.z ( p.` ( ( ~ i.^ K wXwXwXwX",
"wXwXwXwXwXwXwXwXwXwXwXwXwXwXwXwXq.F.F.F.F.F.F.F.F.F.F.F.F.F.F.F.q.,.>.W T W k.E.6X7X0XqX8X8X7X6X6XQ.E.k.wXwXwXwXwXwXwXwXwXwXz Y i.^ k wXs k Y Q ~ ~ Y ~ Y wXwXwX",
"wXwXwXwXwXwXwXwXwXwXwXwXwXwXwXwXq.F.F.F.F.F.F.F.F.F.F.F.F.F.F.F.n.>.r.F.n.,.0.q.s.g.v.Q.6X5XW.Q.U.E.E.k.( T wXwXwXwXwXwXwXwXwXj ~ Q wXwXwXwXwXwXJ ~ k K z wXwXwX",
"wXwXwXwXwXwXwXwXwXwXwXwXwXwXwXwXq.F.F.F.F.F.F.F.F.F.F.F.F.F.F.F.b.>.r.F.F.8.t.V.V.V.n.8.7.v.R.c.U.v.k.E.T R j wXwXwXwXwXwXwXwXwXk K p wXwXwXwXwXwXk j j k wXwXwX",
"wXwXwXwXwXwXwXwXwXwXwXwXwXwXwXwXq.F.F.F.F.F.F.F.F.F.F.G./.H.F.F.b.>.r.F.F.V.1.V.F.F.F.F.B.0.7.v._ h.R R k wXwXwXwXwXwXwXwXwXwXwXwXwXwXwXwXwXwXwXwXwXs wXwXwXwXwX",
"wXwXwXwXwXwXwXwXwXwXwXwXwXwXwXwXr.F.F.F.F.F.F.F.F.F.F.H.oX(.F.F.b.>.r.F.F.F.0.r.F.F.F.F.V.N.8.E >.5.M wXwXwXwXwXwXwXwXwXwXwXwXwXwXwXwXwXwXwXwXwXwXwXwXwXwXwXwXwX",
"wXwXwXwXwXwXwXwXwXwXwXwXwXwXwX,.B.F.F.F.F.F.F.F.F.F.F.^.oXoXJ.F.b.>.b.F.F.F.V.,.F.F.F.F.V.B.9.>.8.8.M wXwXwXwXwXwXwXwXwXwXwXwXwXwXwXwXwXwXwXwXwXwXwXwXwXwXwXwXwX",
"wXwXwXwXwXwXwXwXwXwXwXwXwXwXwX,.F.F.F.F.F.F.F.F.F.F.F.).oXoX(.F.b.>.q.V.V.V.M.>.F.F.F.F.V.B.9.,.8.8.M wXwXwXwXwXwXwXwXwXwXwXwXwXwXwXwXwXwXwXwXwXwXwXwXwXwXwXwXwX",
"wXwXwXwXwXwXwXwXwXwXwXwXwXwXwX,.F.F.F.F.F.F.F.F.F.F.G.oXoXoX|.F.b.8.1.1.1.1.0.q.F.F.F.F.V.B.9.,.8.8.M wXwXwXwXwXwXwXwXwXwXwXwXwXwXwXwXwXwXwXwXwXwXwXwXwXwXwXwXwX",
"wXwXwXwXwXwXwXwXwXwXwXwXwXwX1.n.n.F.F.F.F.F.F.F.F.F.G.oXoXoX|.F.M.0.8.8.8.8.N.F.F.F.F.F.V.B.9.,.8.8.M wXwXwXwXwXwXwXwXwXwXwXwXwXwXwXwXwXwXwXwXwXwXwXwXwXwXwXwXwX",
"wXwXwXwXwXwXwXwXwXwXwXwXwXwXq.F.V.B.V.F.F.F.F.F.F.F.F.oXoXoX).F.F.V.M.M.M.M.V.F.F.F.F.F.V.B.9.,.8.8.M wXwXwXwXwXwXwXwXwXwXwXwXwXwXwXwXwXwXwXwXwXwXwXwXwXwXwXwXwX",
"wXwXwXwXwXwXwXwXwXwXwXwXwXwX0.F.F.F.F.F.F.F.F.F.F.F.F.~.oXoXH.F.F.F.F.F.F.F.F.F.F.F.F.F.V.B.9.,.8.8.S wXwXwXwXwXwXwXwXwXwXwXwXwXwXwXwXwXwXwXwXwXwXwXwXwXwXwXwXwX",
"wXwXwXwXwXwXwXwXwXwXwXwXwXwXr.F.F.F.F.F.F.F.F.F.F.F.F.H.oX).F.F.F.F.F.F.F.F.F.F.F.F.F.F.V.B.9.,.8.8.2.m wXwXwXwXwXwXwXwXwXwXwXwXwXwXwXwXwXwXwXwXwXwXwXwXwXwXwXwX",
"wXwXwXwXwXwXwXwXwXwXwXwXwXwXB.F.F.F.F.F.F.F.F.F.F.F.F.H..XG.F.F.F.F.F.F.F.F.F.F.F.F.F.F.V.B.9.>.8.8.8.m wXwXwXwXwXwXwXwXwXwXwXwXwXwXwXwXwXwXwXwXwXwXwXwXwXwXwXwX",
"wXwXwXwXwXwXwXwXwXwXwXwXwXwXB.F.F.F.F.F.F.F.F.F.F.F.F.H.|.F.F.F.F.F.F.F.F.F.F.F.F.F.F.F.V.B.9.,.8.8.8.m wXwXwXwXwXwXwXwXwXwXwXwXwXwXwXwXwXwXwXwXwXwXwXwXwXwXwXwX",
"wXwXwXwXwXwXwXwXwXwXwXwXwX1.F.F.F.F.F.F.F.F.F.F.F.F.F.F.^.F.F.F.F.F.F.F.F.F.F.F.F.F.F.F.V.B.9.,.8.8.8.m wXwXwXwXwXwXwXwXwXwXwXwXwXwXwXwXwXwXwXwXwXwXwXwXwXwXwXwX",
"wXwXwXwXwXwXwXwXwXwXwXwXwXr.F.F.F.F.F.F.F.F.F.F.F.F.F.F.F.F.F.F.F.F.F.F.F.F.F.F.F.F.F.F.V.B.9.,.8.8.8.m wXwXwXwXwXwXwXwXwXwXwXwXwXwXwXwXwXwXwXwXwXwXwXwXwXwXwXwX",
"wXwXwXwXwXwXwXwXwXwXwXwX8.V.F.F.F.F.F.F.F.F.F.F.F.F.F.F.F.F.F.F.F.F.F.F.F.F.F.F.F.F.F.F.V.B.9.,.8.8.:.m wXwXwXwXwXwXwXwXwXwXwXwXwXwXwXwXwXwXwXwXwXwXwXwXwXwXwXwX",
"wXwXwXwXwXwXwXwXwXwXwX>.r.F.F.F.F.F.F.F.F.F.F.F.F.F.F.F.F.F.F.F.F.F.F.F.F.F.F.F.F.F.F.F.V.B.9.,.8.8.M wXwXwXwXwXwXwXwXwXwXwXwXwXwXwXwXwXwXwXwXwXwXwXwXwXwXwXwXwX",
"wXwXwXwXwXwXwXwXwXwXwX8.V.F.F.F.F.F.F.F.F.F.F.F.F.F.F.F.F.B.F.F.F.F.F.F.F.F.F.F.F.F.F.F.V.B.9.,.8.8.M wXwXwXwXwXwXwXwXwXwXwXwXwXwXwXwXwXwXwXwXwXwXwXwXwXwXwXwXwX",
"wXwXwXwXwXwXwXwXwXwXwXq.F.F.F.F.F.F.F.F.F.F.F.F.F.F.F.F.B.B.F.F.F.F.F.F.F.F.F.F.F.F.F.F.V.B.9.,.8.8.M wXwXwXwXwXwXwXwXwXwXwXwXwXwXwXwXwXwXwXwXwXwXwXwXwXwXwXwXwX",
"wXwXwXwXwXwXwXwXwXwX,.M.F.F.F.F.F.F.F.F.F.F.F.F.F.F.B.B.N.B.F.F.F.F.F.F.F.F.F.F.F.F.F.F.V.r.1.8.8.8.M wXwXwXwXwXwXwXwXwXwXwXwXwXwXwXwXwXwXwXwXwXwXwXwXwXwXwXwXwX",
"wXwXwXwXwXwXwXwXwXwX8.M.F.F.F.F.F.F.F.F.F.F.V.B.B.B.B.B.B.V.F.F.F.F.F.F.F.F.F.F.F.F.F.S.N.9.,.8.8.H m wXwXwXwXwXwXwXwXwXwXwXwXwXwXwXwXwXwXwXwXwXwXwXwXwXwXwXwXwX",
"wXwXwXwXwXwXwXwXwXwXq.V.F.F.F.F.F.F.F.F.F.V.B.B.N.B.B.B.V.F.F.F.F.F.F.F.F.F.F.F.F.F.F.S.r.,.8.8.q.S wXwXwXwXwXwXwXwXwXwXwXwXwXwXwXwXwXwXwXwXwXwXwXwXwXwXwXwXwXwX",
"wXwXwXwXwXwXwXwXwX1.n.F.F.F.F.F.F.F.F.F.F.F.F.B.B.B.F.F.F.F.F.F.F.F.F.F.F.F.F.F.F.F.F.B.r.>.8.8.f.F wXwXwXwXwXwXwXwXwXwXwXwXwXwXwXwXwXwXwXwXwXwXwXwXwXwXwXwXwXwX",
"wXwXwXwXwXwXwXwXwX0.M.F.F.F.F.F.F.F.F.F.F.F.F.F.F.F.F.F.F.F.F.F.F.F.F.F.F.F.F.F.F.F.V.N.r.>.8.8.t.F wXwXwXwXwXwXwXwXwXwXwXwXwXwXwXwXwXwXwXwXwXwXwXwXwXwXwXwXwXwX",
"wXwXwXwXwXwXwXwX,.t.F.F.F.F.F.F.F.F.F.F.F.F.F.F.F.F.F.F.F.F.F.F.F.F.F.F.F.F.F.F.F.F.B.B.r.>.8.8.t.F wXwXwXwXwXwXwXwXwXwXwXwXwXwXwXwXwXwXwXwXwXwXwXwXwXwXwXwXwXwX",
"wXwXwXwXwXwXwXwX8.M.F.F.F.F.F.F.F.F.F.F.F.F.F.F.F.F.F.F.F.F.F.F.F.F.F.F.F.F.F.F.F.B.N.B.r.>.8.8.0.S wXwXwXwXwXwXwXwXwXwXwXwXwXwXwXwXwXwXwXwXwXwXwXwXwXwXwXwXwXwX",
"wXwXwXwXwXwXwXwX8.M.F.F.F.F.F.F.F.F.F.F.F.F.F.F.F.F.F.F.F.F.F.F.F.F.F.F.F.F.F.V.B.B.B.B.r.>.8.8.,.V wXwXwXwXwXwXwXwXwXwXwXwXwXwXwXwXwXwXwXwXwXwXwXwXwXwXwXwXwXwX",
"wXwXwXwXwXwXwXwX8.M.F.F.F.F.F.F.F.F.F.F.F.F.F.F.F.F.F.F.F.F.F.F.F.F.F.F.F.F.B.B.B.B.B.B.t.>.,.8.S wXwXwXwXwXwXwXwXwXwXwXwXwXwXwXwXwXwXwXwXwXwXwXwXwXwXwXwXwXwXwX",
"wXwXwXwXwXwXwXwXwX:.u.M.M.M.M.F.F.F.F.F.F.F.F.F.F.F.F.F.F.F.F.F.F.F.F.V.B.B.B.B.B.B.B.B.t.3.>.,.S wXwXwXwXwXwXwXwXwXwXwXwXwXwXwXwXwXwXwXwXwXwXwXwXwXwXwXwXwXwXwX",
"wXwXwXwXwXwXwXwXwXwXwXn V V S >.:.4.q.n.M.V.F.F.F.F.F.F.F.F.F.F.F.V.n.r.r.r.t.r.r.r.t.B.t.8.1.S wXwXwXwXwXwXwXwXwXwXwXwXwXwXwXwXwXwXwXwXwXwXwXwXwXwXwXwXwXwXwXwX",
"wXwXwXwXwXwXwXwXwXwXwXy e N N N N N N B b B F ;.>.>.$.8.-.;.$.$.$.S n e 0 q 7 6 q c m B m D >.-.m wXwXwXwXwXwXwXwXwXwXwXwXwXwXwXwXwXwXwXwXwXwXwXwXwXwXwXwXwXwXwX",
"wXwXwXwXwXwXwXwXwXwXwXy C c r N N N N e w r N N N N 3 wXo 3 3 3 3 3 3 5 2 , , 2 9 8 3 : @ wXwXwXwXwXwXwXwXwXwXwXwXwXwXwXwXwXwXwXwXwXwXwXwXwXwXwXwXwXwXwXwXwXwXwX",
"wXwXwXwXwXwXwXwXwXwXwXy P P C e N N N w w N N N N N 3 wXo 3 3 3 3 4 5 < , 2 9 2 , # @ wXwXwXwXwXwXwXwXwXwXwXwXwXwXwXwXwXwXwXwXwXwXwXwXwXwXwXwXwXwXwXwXwXwXwXwXwX",
"wXwXwXwXwXwXwXwXwXwXy h P ! ! L x e r e 5 e N N N e 3 wXo 3 3 3 5 1 , 1 9 9 < # > : . wXwXwXwXwXwXwXwXwXwXwXwXwXwXwXwXwXwXwXwXwXwXwXwXwXwXwXwXwXwXwXwXwXwXwXwXwX",
"wXwXwXwXwXwXwXwXwXwXy L ^ U U Q ! A x c 5 0 N N N 3 wXwXo 3 4 8 1 , 2 9 2 , : 3 3 > X wXwXwXwXwXwXwXwXwXwXwXwXwXwXwXwXwXwXwXwXwXwXwXwXwXwXwXwXwXwXwXwXwXwXwXwXwX",
"wXwXwXwXwXwXwXwXwXwXy ! i.i.! P ! ! ! P 6 6 c r r 3 wXo : 5 4 5 5 9 9 < # : 3 3 3 3 : wXwXwXwXwXwXwXwXwXwXwXwXwXwXwXwXwXwXwXwXwXwXwXwXwXwXwXwXwXwXwXwXwXwXwXwXwX",
"wXwXwXwXwXwXwXwXwXwXf Q ! ! ! P P ! P P y i L C x 3 wXo 5 3 5 9 9 9 9 9 < , 1 # , , , @   wXwXwXwXwXwXwXwXwXwXwXwXwXwXwXwXwXwXwXwXwXwXwXwXwXwXwXwXwXwXwXwXwXwXwX",
"wXwXwXwXwXwXwXwXwXy J U ! ^ ! Y Y J J l y i h h 7 wXwXo < 8 9 9 9 9 9 1 < & & a a a a = $ % wXwXwXwXwXwXwXwXwXwXwXwXwXwXwXwXwXwXwXwXwXwXwXwXwXwXwXwXwXwXwXwXwXwX",
"wXwXwXwXwXwXwXwXwX& i f h h K P P Y Y L K j j s wXwXX * & @ @ @ # & & = - p p g k ) ) Q R k k g wXwXwXwXwXwXwXwXwXwXwXwXwXwXwXwXwXwXwXwXwXwXwXwXwXwXwXwXwXwXwXwX",
"wXwXwXwXwXwXwXwXwXX u p p k ^ k.a.i.i.i.^ Y K k j wXX % % $ $ $ $ % % % % = - - - u s T ( h.) ( R R k s p * wXwXwXwXwXwXwXwXwXwXwXwXwXwXwXwXwXwXwXwXwXwXwXwXwXwX",
"wXwXwXwXwXwXwXwXwX. % s p p g ~ c.c.k.i.i.i.i.^ Y K s % + + + + X wXwXwX  X X X X O = s s j j j j j s s g * X wXwXwXwXwXwXwXwXwXwXwXwXwXwXwXwXwXwXwXwXwXwXwXwXwX",
"wXwXwXwXwXwXwXwXwXwX. + = * * = f ^ s.R R ` ~ R J J f u * p wXwXwXwXwXwXwXwXwXwXwXwXwXwXwXwXwXwXwXwXwXwXwXwXwXwXwXwXwXwXwXwXwXwXwXwXwXwXwXwXwXwXwXwXwXwXwXwXwXwX",
"wXwXwXwXwXwXwXwXwXwXwXwXX X % % % * u u u u u a f u u - * p wXwXwXwXwXwXwXwXwXwXwXwXwXwXwXwXwXwXwXwXwXwXwXwXwXwXwXwXwXwXwXwXwXwXwXwXwXwXwXwXwXwXwXwXwXwXwXwXwXwX",
"wXwXwXwXwXwXwXwXwXwXwXwXwXwXwXwXwXwXwXwXwXwXwXwXwXwXwXwXwXwXwXwXwXwXwXwXwXwXwXwXwXwXwXwXwXwXwXwXwXwXwXwXwXwXwXwXwXwXwXwXwXwXwXwXwXwXwXwXwXwXwXwXwXwXwXwXwXwXwXwX"
};
