/* XPM */
static char *result[] = {
/* columns rows colors chars-per-pixel */
"80 80 225 2 ",
"   c #241424",
".  c #2A1B2A",
"X  c #301B22",
"o  c #2F252F",
"O  c #302630",
"+  c #342B35",
"@  c #3A2F35",
"#  c #392E3A",
"$  c #373037",
"%  c #3A323B",
"&  c #3D3A3D",
"*  c #4C110F",
"=  c #6E0C0E",
"-  c #523122",
";  c #55352B",
":  c #5B322C",
">  c #5D3231",
",  c #543A38",
"<  c #6D2D30",
"1  c #633131",
"2  c #6A4739",
"3  c #724E3F",
"4  c #433B43",
"5  c #463A47",
"6  c #5A3D40",
"7  c #7B3E42",
"8  c #454445",
"9  c #474549",
"0  c #4E444C",
"q  c #4A494A",
"w  c #524243",
"e  c #54464A",
"r  c #4E4B51",
"t  c #564554",
"y  c #524952",
"u  c #5B4C5B",
"i  c #525253",
"p  c #55545A",
"a  c #59575D",
"s  c #6B4644",
"d  c #675547",
"f  c #745343",
"g  c #735C4D",
"h  c #654B55",
"j  c #7D4E53",
"k  c #6E5656",
"l  c #6B5A54",
"z  c #6C5B5A",
"x  c #765D55",
"c  c #64615F",
"v  c #76605D",
"b  c #7D635A",
"n  c #5F5867",
"m  c #5C5C64",
"M  c #645B67",
"N  c #7A5F62",
"B  c #695F70",
"V  c #63626D",
"C  c #686668",
"Z  c #766567",
"A  c #656572",
"S  c #6B6473",
"D  c #6C6C74",
"F  c #6D6A7A",
"G  c #7B6974",
"H  c #706D7D",
"J  c #73727C",
"K  c #79797A",
"L  c #860E0F",
"P  c #940405",
"I  c #980A0B",
"U  c #99181A",
"Y  c #A90505",
"T  c #B30000",
"R  c #A71714",
"E  c #99292B",
"W  c #9F3130",
"Q  c #AE3937",
"!  c #A5712A",
"~  c #9C3E46",
"^  c #974447",
"/  c #915351",
"(  c #A84C4E",
")  c #81655B",
"_  c #836C5E",
"`  c #957550",
"'  c #AD675D",
"]  c #876764",
"[  c #856A63",
"{  c #8B6A6A",
"}  c #93676B",
"|  c #926E6C",
" . c #8A736A",
".. c #94726D",
"X. c #95776C",
"o. c #876E75",
"O. c #9B6C73",
"+. c #867677",
"@. c #947373",
"#. c #9B7574",
"$. c #9B7A76",
"%. c #9A7778",
"&. c #947A79",
"*. c #9B7A79",
"=. c #AC6E71",
"-. c #A36C78",
";. c #A07676",
":. c #A57B77",
">. c #A1747A",
",. c #A47B7A",
"<. c #AB7E7D",
"1. c #CF8E23",
"2. c #8F8377",
"3. c #9C8378",
"4. c #A78478",
"5. c #A4837D",
"6. c #A28C7D",
"7. c #CE9875",
"8. c #716F80",
"9. c #737384",
"0. c #7F7581",
"q. c #7B7B84",
"w. c #7D7C88",
"e. c #8C7E84",
"r. c #907F85",
"t. c #A67885",
"y. c #848385",
"u. c #84838D",
"i. c #8A8788",
"p. c #8A8A8C",
"a. c #98898A",
"s. c #99938F",
"d. c #8D8C92",
"f. c #9A8E92",
"g. c #959495",
"h. c #999495",
"j. c #9B9A9C",
"k. c #A48383",
"l. c #AC8585",
"z. c #A48B83",
"x. c #AB8B83",
"c. c #AC858B",
"v. c #A3898A",
"b. c #AC8B8B",
"n. c #B58484",
"m. c #B48C87",
"M. c #B38C8C",
"N. c #AC9184",
"B. c #B39485",
"V. c #B69689",
"C. c #B3948C",
"Z. c #B39C8D",
"A. c #BA9D8C",
"S. c #AE8F94",
"D. c #A99895",
"F. c #B59494",
"G. c #B99695",
"H. c #BA9C93",
"J. c #BC9798",
"K. c #BC9B9A",
"L. c #BDA18E",
"P. c #AAA49C",
"I. c #BBA596",
"U. c #9D9DA4",
"Y. c #9E9EA8",
"T. c #BF9FA0",
"R. c #9FA0A6",
"E. c #A3A3A5",
"W. c #AAA8A7",
"Q. c #A5A4AA",
"!. c #ABABAD",
"~. c #B4A6A6",
"^. c #AFB0B2",
"/. c #B2B2B3",
"(. c #BAB8B7",
"). c #B5B5BA",
"_. c #C09E8E",
"`. c #C09C96",
"'. c #C19E9C",
"]. c #C4A494",
"[. c #C9AA94",
"{. c #C3A39B",
"}. c #C8A898",
"|. c #CCAB9B",
" X c #D0AF9E",
".X c #D3B29D",
"XX c #D6B99F",
"oX c #C59EA0",
"OX c #C5A4A4",
"+X c #C8AAA5",
"@X c #CBABA4",
"#X c #D2ACA3",
"$X c #CAB1A2",
"%X c #D5B4A3",
"&X c #D7B7A5",
"*X c #DBBBA5",
"=X c #DDBCA9",
"-X c #C9BEBB",
";X c #E0BFA9",
":X c #E2C3A7",
">X c #E4C3AA",
",X c #E8C6AC",
"<X c #E6C8AA",
"1X c #EBCAAE",
"2X c #EFD0AF",
"3X c #E8C7B0",
"4X c #EDCDB1",
"5X c #F0CFB1",
"6X c #F5D5B4",
"7X c #F8D7B6",
"8X c #F9D8B6",
"9X c #BCBBC0",
"0X c gray77",
"qX c #C7C7CA",
"wX c gray80",
"eX c #D0D0CF",
"rX c #D5D5D5",
"tX c #D8D8DA",
"yX c #E1D3CB",
"uX c #DFE0E1",
"iX c #E4E4E4",
"pX c #ECECED",
"aX c gray96",
"sX c #F8F8F8",
"dX c None",
/* pixels */
"dXdXdXdXdXdXdXdXdXdXdXdXdXdXdXdXdXdXdXdXdXdXdXdXdXdXdXdXdXdXdXdXdXdXdXdXdXdXdXdXdXdXdXdXdXdXdXdXdXdXdXdXdXdXdXdXdXdXdXdXdXdXdXdXdXdXdXdXdXdXdXdXdXdXdXdXdXdXdXdX",
"dXdXdXdXdXdXdXdXdXdXdXdXdXdXdXdXdXdXdXdXdXdXdXdXdXdXdXdXdXdXdXdXdXdXdXdXdXdXdXdXdXdXdXdXdXdXdXdXdXdXdXdXdXdXdXdXdXdXdXdXdXdXdXdXdXdXdXdXdXdXdXdXdXdXdXdXdXdXdXdX",
"dXdXdXdXdXdXdXdXdXdXdXdXdXdXdXdXdXdXdXdXdXdXdXdXdXdXdXdXdXdXdXdXdXdXdXdXdXdXdXdXdXdXdXdXdXdXdXdXdXdXdXdXdXdXdXdXdXdXdXdXdXdXdXdXdXdXdXdXdXdXdXdXdXdXdXdXdXdXdXdX",
"dXdXdXdXdXdXdXdXdXdXdXdXdXdXdXdXdXdXdXdXdXdXdXdXdXdXdXdXdXdXdXdXdXdXc.c.S.F.t.dXdXdXdXdXdXdXdXdXdXdXdXdXdXdXdXdXdXdXdXdXdXdXdXdXdXdXdXdXdXdXdXdXdXdXdXdXdXdXdXdX",
"dXdXdXdXdXdXdXdXdXdXdXdXdXdXdXdXdXdXdXdXdXdXdXdXdXdXdXdXdXdXdXdX#.c.F.F.F.F.F.F.F.c.dXdXdXdXdXdXdXdXdXdXdXdXdXdXdXdXdXdXdXdXdXdXdXdXdXdXdXdXdXdXdXdXdXdXdXdXdXdX",
"dXdXdXdXdXdXdXdXdXdXdXdXdXdXdXdXdXdXdXdXdXdXdXdXdXdXdXdXdXdXdXE ' t.F.F.F.F.F.F.F.M.l.k.t.-.O.dXdXdXdXdXdXdXdXdXdXdXdXdXdXdXdXdXdXdXdXdXdXdXdXdXdXdXdXdXdXdXdXdX",
"dXdXdXdXdXdXdXdXdXdXdXdXdXdXdXdXdXdXdXdXdXdXdXdXdXdXdX#XoX=.E U I U W W / :.<.O.;.t.-.>.t.t.>.} dXdXdXdXdXdXdXdXdXdXdXdXdXdXdXdXdXdXdXdXdXdXdXdXdXdXdXdXdXdXdXdX",
"dXdXdXdXdXdXdXdXdXdXdXdXdXdXdXdXdXdXdXdXdXdXdXdXdXdXdXdXb.&.c.M.=.( ( U I I P P E ~ O.-.t.t.O.dXdXdXdXdXdXdXdXdXdXdXdXdXdXdXdXdXdXdXdXdXdXdXdXdXdXdXdXdXdXdXdXdX",
"dXdXdXdXdXdXdXdXdXdXdXdXdXdXdXdXdXdXdXdXdXdXdXdXdXdXdXdXdXV J C B e.S.t.n.<.( Q E P I U ^ ^ ^ dXdXdXdXdXdXdXdXdXdXdXdXdXdXdXdXdXdXdXdXdXdXdXdXdXdXdXdXdXdXdXdXdX",
"dXdXdXdXdXdXdXdXdXdXdXdXdXdXdXdXdXdXdXdXdXdXdXdXdXXX;XL.a d.w.A F 9.9.9.w.[ ` 7.7.' ( U U L < dXdXdXdXdXdXdXdXdXdXdXdXdXdXdXdXdXdXdXdXdXdXdXdXdXdXdXdXdXdXdXdXdX",
"dXdXdXdXdXdXdXdXdXdXdXdXdXdXdXdXdXdXdXdXdXdXdX*X1X6XL.3.d K D d.g.d.p.p.w.X.! 1.1.! G G Z } } O.dXdXdXdXdXdXdXdXdXdXdXdXdXdXdXdXdXdXdXdXdXdXdXdXdXdXdXdXdXdXdXdX",
"dXdXdXdXdXdXdXdXdXdXdXdXdXdXdXdXdXdXdXdXdXdX X1X8X6XZ.2.` d c g.g.g.g.h.K i.C D.P.d.j.C dXdXdXdXdXdXdXdXdXdXdXdXdXdXdXdXdXdXdXdXdXdXdXdXdXdXdXdXdXdXdXdXdXdXdXdX",
"dXdXdXdXdXdXdXdXdXdXdXdXdXdXdXdXdXdXdXdX*X[.*X*XXX*X=XZ.U. .g l y.g.y.j.j.i.).wX/.j.W.i dXdXdXdXdXdXdXdXdXdXdXdXdXdXdXdXdXdXdXdXdXdXdXdXdXdXdXdXdXdXdXdXdXdXdXdX",
"dXdXdXdXdXdXdXdXdXdXdXdXdXdXdX|.*X>X1X4X6X%X|.C.N.H.].,X|.W.h.+.C K i.M y.R.Y.w.Z 6.dXdXdXdXdXdXdXdXdXdXdXdXdXdXdXdXdXdXdXdXdXdXdXdXdXdXdXdXdXdXdXdXdXdXdXdXdXdX",
"dXdXdXdXdXdXdXdXdXdXdXdX=X>X1X1X1X1X,X1X6X7X=X}.*X1X6X7X6X.XP./.^.E.j.S +.a.+.K |.%X].dXdXdXdXdXdXdXdXdXdXdXdXdXdXdXdXdXdXdXdXdXdXdXdXdXdXdXdXdXdXdXdXdXdXdXdXdX",
"dXdXdXdXdXdXdXdXdXdXdX.X5X7X7X7X7X7X6X1X;X1X6X1X>X:X>X6X6X7X:XI.(./.p.< P Y = a.%X|.#XV.dXdXdXdXdXdXdXdXdXdXdXdXdXdXdXdXdXdXdXdXdXdXdXdXdXdXdXdXdXdXdXdXdXdXdXdX",
"dXdXdXdXdXdXdXdXdXdX].1X7X7X7X7X6X5X7X7X6X>X>X6X7X1X1XXX=X:X1X6X*XD.W.D.7 P L ) I.&X&X|.I.D.dXdXdXdXdXdXdXdXdXdXdXdXdXdXdXdXdXdXdXdXdXdXdXdXdXdXdXdXdXdXdXdXdXdX",
"dXdXdXdXdXdXdXdXdXdX|.6X7X1X1X7X7X,X,X7X7X7X>X>X7X7X7X7X6X>X:X*X1X:X}./.^.< Y I } A.@X@X{.H.Z.dXdXdXdXdXdXdXdXdXdXdXdXdXdXdXdXdXdXdXdXdXdXdXdXdXdXdXdXdXdXdXdXdX",
"dXdXdXdXdXdXdXdXdXn.|.4X=X&X6X7X6X*X*X7X7X7X7X%X:X7X7X7X7X7X7X6X<X.X%X.X~.i.L T Y ^ OXOXH.Z.N.dXdXdXdXdXdXdXdXdXdXdXdXdXdXdXdXdXdXdXdXdXdXdXdXdXdXdXdXdXdXdXdXdX",
"dXdXdXdXdXdXdXdXdXn.|.@X|.5X7X6X>X+X&X7X7X7X7X6X.X<X7X7X7X7X7X7X7X1X%X{.}.Z.: Y T Y ' ].L.%Xz.dXdXdXdXdXdXdXdXdXdXdXdXdXdXdXdXdXdXdXdXdXdXdXdXdXdXdXdXdXdXdXdXdX",
"dXdXdXdXdXdXdXdXdX<.{.K.}.&X&X%X+XT.#X8X7X7X>X4X*X|.6X7X7X7X7X7X7X7X6X<X|.K.l.7 L T R 4..X1Xx.dXdXdXdXdXdXdXdXdXdXdXdXdXdXdXdXdXdXdXdXdXdXdXdXdXdXdXdXdXdXdXdXdX",
"dXdXdXdXdXdXdXdXdX@.b.OXOXOXOXOXOX`.>X7X7X1X|.1X=XV.:X7X7X7X7X7X7X7X7X7X6X*X{.F.{ < P Q 7X>XB. .dXdXdXdXdXdXdXdXdXdXdXdXdXdXdXdXdXdXdXdXdXdXdXdXdXdXdXdXdXdXdXdX",
"dXdXdXdXdXdXdXdXdXdXk.'.OXOXOX'.`.%X7X7X4X*X}.1X*X..|.<X7X7X7X7X7X7X7X8X7X7X1X.XK.v.j ( >X#XC._ dXdXdXdXdXdXdXdXdXdXdXdXdXdXdXdXdXdXdXdXdXdXdXdXdXdXdXdXdXdXdXdX",
"dXdXdXdXdXdXdXdXdXdX@.K.OXOX`.}.>X7X7X6X=X].%X6X=X..K.|.*X2X7X7X7X7X1XXX:X6X7X6X*XF.F.3...b.C.X.d dXdXdXdXdXdXdXdXdXdXdXdXdXdXdXdXdXdXdXdXdXdXdXdXdXdXdXdXdXdXdX",
"dXdXdXdXdXdXdXdXdXdX@.K.OX{.&X6X7X7X6X=X].|.1X7X}.@.'.OXOX|.*X:X1X6XL.6.z.>X7X7X:X}.b.) ) @.a.$.b dXdXdXdXdXdXdXdXdXdXdXdXdXdXdXdXdXdXdXdXdXdXdXdXdXdXdXdXdXdXdX",
"dXdXdXdXdXdXdXdXdXdX@.K.+X=X7X7X7X7X>X.X=X6X7X6X$.@.G.OXOXOXOX{.+X$X{.C.H.*X=X=X&X@XOXb...%.G ] | dXdXdXdXdXdXdXdXdXdXdXdXdXdXdXdXdXdXdXdXdXdXdXdXdXdXdXdXdXdXdX",
"dXdXdXdXdXdXdXdXdXdX@.K.'.6X7X5X,X.X|.|..X=X4X%X..{ k.F.K.G.K.OXOXoXOXOXK.D.-X~.~.~.~.D.{ b Z ] n.{ g dXdXdXdXdXdXdXdXdXdXdXdXdXdXdXdXdXdXdXdXdXdXdXdXdXdXdXdXdX",
"dXdXdXdXdXdXdXdXdXdX@.n.,X6X.X5.*.@.*.5.x.].*X}.@.@.%.k.k.&. .J.k.C.C.l.B.h.wXf.f.f.f.i.[ l v ;.,.;.g dXdXdXdXdXdXdXdXdXdXdXdXdXdXdXdXdXdXdXdXdXdXdXdXdXdXdXdXdX",
"dXdXdXdXdXdXdXdXdXdXdX*.=Xm.n.#.%.l.C.XX1X7X7X6X:X|.M.b.F.5.[ b.%.M.l.].,XP.qXI.K.G.v.d.@...x | { { X.6.6.6.dXdXdXdXdXdXdXdXdXdXdXdXdXdXdXdXdXdXdXdXdXdXdXdXdXdX",
"dXdXdXdXdXdXdXdXdXdXdX@.K.l.G.b.{.>X,X7X7X7X7X7X7X7X1X.XC.3._ M.@.*.e A.%Xf.qXS.v.v.+.q.Z ] v | | $.V.A.].].V.3.dXdXdXdXdXdXdXdXdXdXdXdXdXdXdXdXdXdXdXdXdXdXdXdX",
"dXdXdXdXdXdXdXdXdXdXdX{ F.OXOXOX@X;X3X6X7X7X7X7X7X7X7X8X1X_.3.C.x.4., N.V.a.(.g.d.p.d.+.k l x { #.;.5.5.B.A.].L.B.N.dXdXdXdXdXdXdXdXdXdXdXdXdXdXdXdXdXdXdXdXdXdX",
"dXdXdXdXdXdXdXdXdXdXdXdX@.b.K.OXOXOX+X@X=X6X7X7X7X7X7X,X.X*X.X].Z.}.k V.5.[..X}.I.I.Z.z.@...] ) ,.<.n.n.n.V._.].].V.B.6.dXdXdXdXdXdXdXdXdXdXdXdXdXdXdXdXdXdXdXdX",
"dXdXdXdXdXdXdXdXdXdXdXdXdXdX%.b.K.OXOXOXOX@X%X,X4X7X.X X>X>X*XXX*X*XB.].3.XX6X6X5X4X>X|.M.#...| ,.n.n.n.n.n.n.:.N.A.V.V.A.A.6.dXdXdXdXdXdXdXdXdXdXdXdXdXdXdXdXdX",
"dXdXdXdXdXdXdXdXdXdXdXdXdXdXB.B.m.k.M.K.OXOXOXOXOXV.N.].[..X1X7X6X4X3XyX-X~.a.H.}.}.|.F...] #.] ..n.n.n.n.<.,...| $.x._._.].L.a.2.dXdXdXdXdXdXdXdXdXdXdXdXdXdXdX",
"dXdXdXdXdXdXdXdXdXdXdXdXdXdX_.&X%X}.V.5.<.k.F.OXOX%.k.*.H.6X8X1X3XyX9X!.E.Q.U.i.a.F.G.k.b ) | #.[ #.5.n.,.| | ..#...n.x.I.(.0X(.u.9.dXdXdXdXdXdXdXdXdXdXdXdXdXdX",
"dXdXdXdXdXdXdXdXdXdXdXdXdXV.].|.].`.G.F.M.l.,.*.<.] F...OX&X.XZ.wX^.Q.wXiXaXaXiX(.d.a.F.b.k.@.,.b d x ] l <.| ,.n.n.,.f.Y.E.0XrXqX0XY.dXdXdXdXdXdXdXdXdXdXdXdXdX",
"dXdXdXdXdXdXdXdXdXdXdXdXdXB.H.G.F.F.F.F.F.F.F.F.l.*.$.] C.OXv.+.Q.Y.pXsXsXaXaXsXaXuX).f.b.G.%.;.) dXdXdXdXl d ,.n.,.+.J J W.wXtXrXrXrX).d.dXdXdXdXdXdXdXdXdXdXdX",
"dXdXdXdXdXdXdXdXdXdXdXdXdXn.F.F.F.F.F.F.F.F.F.F.F.F.F.M.,.<.$. .d.d.tXaXaXaXaXsXaXpXpX^.Q.D.%.;.) dXdXdXdXdXdXg ....z 0 p W.0XrXrXrXwXrXrXY.dXdXdXdXdXdXdXdXdXdX",
"dXdXdXdXdXdXdXdXdXdXdXdXdXn.F.F.F.F.F.F.F.F.F.F.F.F.F.F.F.c... .v.&.s.0XrXpXqXiXpX0XqXrX9X).h.%.) dXdXdXdXdXdXdXdXd e dXdXK E.(.0X0Xd.u.9XrX/.dXdXdXdXdXdXdXdXdX",
"dXdXdXdXdXdXdXdXdXdXdXdXdXn.F.F.F.F.F.F.F.F.F.F.F.F.F.F.F.F.c.@.:.XX{.e.p.tXE.f./.rXW.Y.wX).U.d.Z dXdXdXdXdXdXdXdXdXdXdXdXdXC w.y.g.w.dXJ (.eXj.dXdXdXdXdXdXdXdX",
"dXdXdXdXdXdXdXdXdXdXdXdXdXn.F.F.F.F.F.F.F.F.F.F.F.F.F.F.F.F.c.{ 5.%X|.F.Z !.j.b.k.j.W.0.a.U.E.g.d.dXdXdXdXdXdXdXdXdXdXdXdXdXdXdXa i.V dXm 9.!.0XdXdXdXdXdXdXdXdX",
"dXdXdXdXdXdXdXdXdXdXdXdXdXn.F.F.F.F.F.F.F.F.F.F.F.F.F.F.F.F.c.{ 5.%XK.F.Z j.u.S.b.e.U.o.t.e.E.u.M dXdXdXdXdXdXdXdXdXdXdXdXdXdXdXp D dXdXm p J g.!.dXdXdXdXdXdXdX",
"dXdXdXdXdXdXdXdXdXdXdXdXdX%.F.F.F.F.F.F.F.F.F.F.F.F.F.F.F.F.b.{ x.}.F.F.{ r.b.F.F.b.a.l.n.n.&.o.Z dXdXdXdXdXdXdXdXdXdXdXdXdXdXdXdXdXdXdXdXdXdXdXdXdXdXdXdXdXdXdX",
"dXdXdXdXdXdXdXdXdXdXdXdXdX@.F.F.F.F.F.F.F.F.F.F.F.F.F.F.F.F.b.@.x.].F.F.@.b.F.F.F.F.F.F.n.n.,.@.{ dXdXdXdXdXdXdXdXdXdXdXdXdXdXdXdXdXdXdXdXdXdXdXdXdXdXdXdXdXdXdX",
"dXdXdXdXdXdXdXdXdXdXdXdXdX@.F.F.F.F.F.F.F.F.F.F.F.F.F.F.F.F.b.@.%.$.@.%.| c.F.F.F.F.F.F.n.n.<.@.{ dXdXdXdXdXdXdXdXdXdXdXdXdXdXdXdXdXdXdXdXdXdXdXdXdXdXdXdXdXdXdX",
"dXdXdXdXdXdXdXdXdXdXdXdXdX@.M.F.F.F.F.F.F.F.F.F.F.F.F.F.F.F.c.@.@.@.@.<.M.F.F.F.F.F.F.M.n.n.,.@.{ dXdXdXdXdXdXdXdXdXdXdXdXdXdXdXdXdXdXdXdXdXdXdXdXdXdXdXdXdXdXdX",
"dXdXdXdXdXdXdXdXdXdXdXdXdX,.n.F.F.F.F.F.F.F.F.F.F.F.F.F.F.F.F.F.F.F.F.F.F.F.F.F.F.F.F.F.n.n.#.{ { dXdXdXdXdXdXdXdXdXdXdXdXdXdXdXdXdXdXdXdXdXdXdXdXdXdXdXdXdXdXdX",
"dXdXdXdXdXdXdXdXdXdXdXdX@.M.m.F.F.F.F.F.F.F.F.F.F.F.F.F.F.F.F.F.F.F.F.F.F.F.F.F.F.F.F.M.n.n.#.{ { dXdXdXdXdXdXdXdXdXdXdXdXdXdXdXdXdXdXdXdXdXdXdXdXdXdXdXdXdXdXdX",
"dXdXdXdXdXdXdXdXdXdXdXdX@.F.F.m.F.F.F.F.F.F.F.F.F.F.F.F.F.F.F.F.F.F.F.F.F.F.F.F.F.F.F.M.n.n.#.{ { dXdXdXdXdXdXdXdXdXdXdXdXdXdXdXdXdXdXdXdXdXdXdXdXdXdXdXdXdXdXdX",
"dXdXdXdXdXdXdXdXdXdXdXdX@.F.F.F.m.F.F.F.F.F.F.F.F.F.F.F.F.F.F.F.F.F.F.F.F.F.F.F.F.F.F.F.n.n.#.{ { dXdXdXdXdXdXdXdXdXdXdXdXdXdXdXdXdXdXdXdXdXdXdXdXdXdXdXdXdXdXdX",
"dXdXdXdXdXdXdXdXdXdXdXdX@.F.F.F.F.F.F.F.F.F.F.F.F.F.F.F.F.F.F.F.F.F.F.F.F.F.F.F.F.F.F.F.n.n.#.{ { dXdXdXdXdXdXdXdXdXdXdXdXdXdXdXdXdXdXdXdXdXdXdXdXdXdXdXdXdXdXdX",
"dXdXdXdXdXdXdXdXdXdXdXdX*.F.F.F.F.F.F.F.F.F.F.F.F.F.F.F.F.F.F.F.F.F.F.F.F.F.F.F.F.F.F.F.n.n.#.{ { dXdXdXdXdXdXdXdXdXdXdXdXdXdXdXdXdXdXdXdXdXdXdXdXdXdXdXdXdXdXdX",
"dXdXdXdXdXdXdXdXdXdXdX@.n.F.F.F.F.F.F.F.F.F.F.F.F.F.F.F.F.F.F.F.F.F.F.F.F.F.F.F.F.F.F.F.n.n.#.{ { dXdXdXdXdXdXdXdXdXdXdXdXdXdXdXdXdXdXdXdXdXdXdXdXdXdXdXdXdXdXdX",
"dXdXdXdXdXdXdXdXdXdXdX@.M.F.F.F.F.F.F.F.F.F.F.F.F.F.F.F.F.F.F.F.F.F.F.F.F.F.F.F.F.F.F.F.n.<.{ { { dXdXdXdXdXdXdXdXdXdXdXdXdXdXdXdXdXdXdXdXdXdXdXdXdXdXdXdXdXdXdX",
"dXdXdXdXdXdXdXdXdXdXdX@.F.F.F.F.F.F.F.F.F.F.F.F.F.F.F.F.F.F.F.F.F.F.F.F.F.F.F.F.F.F.F.M.n.<.{ { { dXdXdXdXdXdXdXdXdXdXdXdXdXdXdXdXdXdXdXdXdXdXdXdXdXdXdXdXdXdXdX",
"dXdXdXdXdXdXdXdXdXdXdX@.F.F.F.F.F.F.F.F.F.F.F.F.F.F.F.F.F.F.F.F.F.F.F.F.F.F.F.F.F.F.F.n.n.;.{ @.{ dXdXdXdXdXdXdXdXdXdXdXdXdXdXdXdXdXdXdXdXdXdXdXdXdXdXdXdXdXdXdX",
"dXdXdXdXdXdXdXdXdXdXdX@.F.F.F.F.F.F.F.F.F.F.F.F.F.F.F.F.F.F.F.F.F.F.F.F.F.F.F.F.F.F.M.n.n.;.{ @.{ dXdXdXdXdXdXdXdXdXdXdXdXdXdXdXdXdXdXdXdXdXdXdXdXdXdXdXdXdXdXdX",
"dXdXdXdXdXdXdXdXdXdXdX,.F.F.F.F.F.F.F.F.F.F.F.F.F.F.F.F.F.F.F.F.F.F.F.F.F.F.F.F.F.F.n.n.n.#.{ @.{ dXdXdXdXdXdXdXdXdXdXdXdXdXdXdXdXdXdXdXdXdXdXdXdXdXdXdXdXdXdXdX",
"dXdXdXdXdXdXdXdXdXdX@.b.F.F.F.F.F.F.F.F.F.F.F.F.F.F.F.F.F.F.F.F.F.F.F.F.F.F.F.F.F.n.n.n.l.| { @.{ dXdXdXdXdXdXdXdXdXdXdXdXdXdXdXdXdXdXdXdXdXdXdXdXdXdXdXdXdXdXdX",
"dXdXdXdXdXdXdXdXdXdX@.b.F.F.F.F.F.F.F.F.F.F.F.F.F.F.F.F.F.F.F.F.F.F.F.F.F.F.F.F.m.n.n.n.,.{ @.@.{ dXdXdXdXdXdXdXdXdXdXdXdXdXdXdXdXdXdXdXdXdXdXdXdXdXdXdXdXdXdXdX",
"dXdXdXdXdXdXdXdXdXdX@.M.F.F.F.F.F.F.F.F.F.F.F.F.F.F.F.F.F.F.F.F.F.F.F.F.F.F.F.M.n.n.n.n.,.{ @.@.{ dXdXdXdXdXdXdXdXdXdXdXdXdXdXdXdXdXdXdXdXdXdXdXdXdXdXdXdXdXdXdX",
"dXdXdXdXdXdXdXdXdX@.l.F.F.F.F.F.F.F.F.F.F.F.F.F.F.F.F.F.F.F.F.F.F.F.F.F.F.F.F.n.n.m.n.n.,.{ @.@.{ dXdXdXdXdXdXdXdXdXdXdXdXdXdXdXdXdXdXdXdXdXdXdXdXdXdXdXdXdXdXdX",
"dXdXdXdXdXdXdXdXdX@.b.F.F.F.F.F.F.F.F.F.F.F.F.F.F.F.F.F.F.F.F.F.F.F.F.F.F.F.m.m.F.M.n.n.#.{ @.@.{ dXdXdXdXdXdXdXdXdXdXdXdXdXdXdXdXdXdXdXdXdXdXdXdXdXdXdXdXdXdXdX",
"dXdXdXdXdXdXdXdXdX@.b.F.F.F.F.F.F.F.F.F.F.F.F.F.F.F.F.F.F.F.F.F.F.F.F.F.m.n.M.F.F.n.n.<.{ { @.@.{ dXdXdXdXdXdXdXdXdXdXdXdXdXdXdXdXdXdXdXdXdXdXdXdXdXdXdXdXdXdXdX",
"dXdXdXdXdXdXdXdXdX@.b.F.F.F.F.F.F.F.F.F.F.F.F.F.F.F.F.F.F.F.F.F.F.F.M.n.m.F.F.M.n.n.n.,.{ @.@.@.{ dXdXdXdXdXdXdXdXdXdXdXdXdXdXdXdXdXdXdXdXdXdXdXdXdXdXdXdXdXdXdX",
"dXdXdXdXdXdXdXdXdX@.b.F.F.F.F.F.F.F.F.F.F.F.F.F.F.F.F.F.F.F.F.F.m.m.m.M.F.M.n.n.n.n.n.,.] { { { { dXdXdXdXdXdXdXdXdXdXdXdXdXdXdXdXdXdXdXdXdXdXdXdXdXdXdXdXdXdXdX",
"dXdXdXdXdXdXdXdXdXN #.c.F.F.F.F.F.F.F.F.F.F.F.F.F.F.F.F.F.F.F.F.F.F.F.F.m.n.n.n.n.n.n.;.d dXdXdXdXdXdXdXdXdXdXdXdXdXdXdXdXdXdXdXdXdXdXdXdXdXdXdXdXdXdXdXdXdXdXdX",
"dXdXdXdXdXdXdXdXdXy S G | @.%.$.$.$.$.%.@.$.@...{ @.{ b b b b b v z z k k k k k x b { ] d dXdXdXdXdXdXdXdXdXdXdXdXdXdXdXdXdXdXdXdXdXdXdXdXdXdXdXdXdXdXdXdXdXdXdX",
"dXdXdXdXdXdXdXdXdXy F 9.H S h s f f 3 2 3 f f 2 * dX- - - - - : 1 > > > > > : ; , 0 @ dXdXdXdXdXdXdXdXdXdXdXdXdXdXdXdXdXdXdXdXdXdXdXdXdXdXdXdXdXdXdXdXdXdXdXdXdX",
"dXdXdXdXdXdXdXdXdXy F 9.9.9.F M s 2 2 2 f f f - dXdX- - - : 1 1 1 1 1 1 1 : , e y , . dXdXdXdXdXdXdXdXdXdXdXdXdXdXdXdXdXdXdXdXdXdXdXdXdXdXdXdXdXdXdXdXdXdXdXdXdX",
"dXdXdXdXdXdXdXdXdXy F 9.9.9.9.H S u , s 3 f 2 * dXdXX ; : 1 1 1 1 : : > , w y w , - dXdXdXdXdXdXdXdXdXdXdXdXdXdXdXdXdXdXdXdXdXdXdXdXdXdXdXdXdXdXdXdXdXdXdXdXdXdX",
"dXdXdXdXdXdXdXdXdXy F 9.9.9.9.H S n 5 h s 3 : dXdXdX  0 , : : : , w w w e , , > : ; dXdXdXdXdXdXdXdXdXdXdXdXdXdXdXdXdXdXdXdXdXdXdXdXdXdXdXdXdXdXdXdXdXdXdXdXdXdX",
"dXdXdXdXdXdXdXdXdXy F 9.9.9.9.S S B n t u h , dXdXdX. 5 y y y y y y y w w 6 , 0 0 4   dXdXdXdXdXdXdXdXdXdXdXdXdXdXdXdXdXdXdXdXdXdXdXdXdXdXdXdXdXdXdXdXdXdXdXdXdX",
"dXdXdXdXdXdXdXdXdXM F 9.9.9.S S S S S M t t u # dXdX+ + # 0 y y y 0 5 4 4 # + $ 5 n S A m dXdXdXdXdXdXdXdXdXdXdXdXdXdXdXdXdXdXdXdXdXdXdXdXdXdXdXdXdXdXdXdXdXdXdX",
"dXdXdXdXdXdXdXdXy A 9.9.F B B F 8.8.F M u u u 5 dXdX  q % + # # # 4 4 & & % 8 8 i a J y.u.F A m dXdXdXdXdXdXdXdXdXdXdXdXdXdXdXdXdXdXdXdXdXdXdXdXdXdXdXdXdXdXdXdX",
"dXdXdXdXdXdXdXdXy S 9.H F F F S S V V M p t u u % dX  $ $ # # + % 8 q q q 8 8 & & 8 9 i D q.q.J J F V A i 8 dXdXdXdXdXdXdXdXdXdXdXdXdXdXdXdXdXdXdXdXdXdXdXdXdXdX",
"dXdXdXdXdXdXdXdXdXn F F V a p n w.d.8.F V m p r o dX  O O o o O .   . . .   O O + q q q q r i i i r r p q 8 O dXdXdXdXdXdXdXdXdXdXdXdXdXdXdXdXdXdXdXdXdXdXdXdXdX",
"dXdXdXdXdXdXdXdXdXdXp p q 8 8 p F u.d.q.q.w.u.q.S M m 4 $ dXdXdXdXdXdXdXdXdXdXdXdXdXdXdXdXdXdXdXdXdXdXdXdXdXdXdXdXdXdXdXdXdXdXdXdXdXdXdXdXdXdXdXdXdXdXdXdXdXdXdX",
"dXdXdXdXdXdXdXdXdXdXn m i i q & 4 9 a D D J q.J D A A m p 8 dXdXdXdXdXdXdXdXdXdXdXdXdXdXdXdXdXdXdXdXdXdXdXdXdXdXdXdXdXdXdXdXdXdXdXdXdXdXdXdXdXdXdXdXdXdXdXdXdXdX",
"dXdXdXdXdXdXdXdXdXdXdX% $ # O       . O O O + # # $ # + + o   dXdXdXdXdXdXdXdXdXdXdXdXdXdXdXdXdXdXdXdXdXdXdXdXdXdXdXdXdXdXdXdXdXdXdXdXdXdXdXdXdXdXdXdXdXdXdXdXdX"
};
