/* XPM */
static char *result[] = {
/* columns rows colors chars-per-pixel */
"80 80 228 2 ",
"   c #23111F",
".  c #200F20",
"X  c #241322",
"o  c #2C1925",
"O  c #2A1A29",
"+  c #341F28",
"@  c #2E232E",
"#  c #382329",
"$  c #302730",
"%  c #362C36",
"&  c #3B2F3B",
"*  c #373036",
"=  c #3B343C",
"-  c #3E3B3F",
";  c #4C2C1F",
":  c #4C2D20",
">  c #552D29",
",  c #573427",
"<  c #5C322C",
"1  c #5F2F30",
"2  c #44343C",
"3  c #583937",
"4  c #633131",
"5  c #6F3134",
"6  c #613C35",
"7  c #5E4335",
"8  c #6B463B",
"9  c #71503F",
"0  c #3F3440",
"q  c #423D42",
"w  c #493847",
"e  c #583F45",
"r  c #444344",
"t  c #474448",
"y  c #4A4A4B",
"u  c #53444B",
"i  c #544549",
"p  c #5D5248",
"a  c #4D4757",
"s  c #4E4D52",
"d  c #524B52",
"f  c #525254",
"g  c #55545B",
"h  c gray36",
"j  c #6A4747",
"k  c #734946",
"l  c #6C584A",
"z  c #735647",
"x  c #634C59",
"c  c #6A5658",
"v  c #775D56",
"b  c #7C5D54",
"n  c #796357",
"m  c #5B5B63",
"M  c #5C5C67",
"N  c #655A68",
"B  c #725E6A",
"V  c #676668",
"C  c #61616E",
"Z  c #786C6B",
"A  c #79706B",
"S  c #666672",
"D  c #6B6473",
"F  c #6C6B75",
"G  c #6E6778",
"H  c #6D6B7A",
"J  c #766D74",
"K  c #706D7E",
"L  c #7A7475",
"P  c #73737B",
"I  c #7A7A7C",
"U  c #950304",
"Y  c #960B0C",
"T  c #970F12",
"R  c #881719",
"E  c #991718",
"W  c #A60707",
"Q  c #B20102",
"!  c #A41616",
"~  c #962D1D",
"^  c #981D21",
"/  c #992224",
"(  c #942B2F",
")  c #993437",
"_  c #A43737",
"`  c #946733",
"'  c #B87C36",
"]  c #A03E48",
"[  c #865754",
"{  c #905156",
"}  c #AA4B4D",
"|  c #83655C",
" . c #806B5D",
".. c #937451",
"X. c #9C5D62",
"o. c #856464",
"O. c #886767",
"+. c #8C6B64",
"@. c #856A6A",
"#. c #8C6B6B",
"$. c #926E6C",
"%. c #986C6C",
"&. c #8A7468",
"*. c #93726D",
"=. c #9B746F",
"-. c #896E71",
";. c #906F70",
":. c #9D6C75",
">. c #897878",
",. c #957373",
"<. c #9A7575",
"1. c #947B74",
"2. c #9B7975",
"3. c #917A79",
"4. c #9C7B7A",
"5. c #A7696A",
"6. c #AE6E73",
"7. c #A17774",
"8. c #A47977",
"9. c #A47B7B",
"0. c #A97D7D",
"q. c #BB8026",
"w. c #CB891D",
"e. c #C68433",
"r. c #89837C",
"t. c #9A8779",
"y. c #A3837C",
"u. c #A4897C",
"i. c #716F80",
"p. c #747384",
"a. c #797786",
"s. c #7B7B85",
"d. c #7D7D89",
"f. c #817C87",
"g. c #8C7C84",
"h. c #967E82",
"j. c #A57384",
"k. c #A87984",
"l. c #82828B",
"z. c #888588",
"x. c #8B8B8D",
"c. c #978788",
"v. c #9A8F8F",
"b. c #858690",
"n. c #8C8C93",
"m. c #959595",
"M. c #94939A",
"N. c #98959C",
"B. c #9D9B9D",
"V. c #A48383",
"C. c #AC8383",
"Z. c #AB8B85",
"A. c #A7868B",
"S. c #AC8B8B",
"D. c #B58484",
"F. c #B78A87",
"G. c #B48C8C",
"H. c #AC9487",
"J. c #B29787",
"K. c #B3958A",
"L. c #BC968D",
"P. c #BB9C8D",
"I. c #A88D92",
"U. c #B18E90",
"Y. c #A79896",
"T. c #B59494",
"R. c #BA9594",
"E. c #B69A95",
"W. c #BC9B95",
"Q. c #BC9C9B",
"!. c #A9A39C",
"~. c #BBA398",
"^. c #9996A1",
"/. c #9D9CA2",
"(. c #A19DA1",
"). c #A4A4A5",
"_. c #A4A4AA",
"`. c #A6A8AA",
"'. c #ACACAD",
"]. c #B9ABA7",
"[. c #B5B1AF",
"{. c #ADADB2",
"}. c #B2B2B3",
"|. c #B9B8B9",
" X c #C1928D",
".X c #C29C98",
"XX c #C2A18E",
"oX c #C4A494",
"OX c #CAAA96",
"+X c #C6A59A",
"@X c #CCAB9B",
"#X c #D1AD9C",
"$X c #CCB19B",
"%X c #D3B39D",
"&X c #D9B79F",
"*X c #D5B89F",
"=X c #C5A4A4",
"-X c #C9A6A5",
";X c #CBAAA5",
":X c #CFB0A5",
">X c #D4B5A3",
",X c #D5BAA2",
"<X c #DBBCA3",
"1X c #DDBCA8",
"2X c #E0BFA6",
"3X c #DCC1A3",
"4X c #DEC0A9",
"5X c #E1C3A6",
"6X c #E3C4AA",
"7X c #E8C7AD",
"8X c #E6C9AA",
"9X c #EBCBAE",
"0X c #EECDB0",
"qX c #EFD0B0",
"wX c #F5D5B4",
"eX c #F8D7B6",
"rX c #F9D8B6",
"tX c #FBDAB8",
"yX c #BDBDC1",
"uX c #C3C1C5",
"iX c #CBCBCC",
"pX c #D1CCCB",
"aX c #D4D4D5",
"sX c #DCDCDB",
"dX c gray90",
"fX c #E7E8E8",
"gX c #E9E9E9",
"hX c None",
/* pixels */
"hXhXhXhXhXhXhXhXhXhXhXhXhXhXhXhXhXhXhXhXhXhXhXhXhXhXhXhXhXhXhXhXhXhXhXhXhXhXhXhXhXhXhXhXhXhXhXhXhXhXhXhXhXhXhXhXhXhXhXhXhXhXhXhXhXhXhXhXhXhXhXhXhXhXhXhXhXhXhXhX",
"hXhXhXhXhXhXhXhXhXhXhXhXhXhXhXhXhXhXhXhXhXhXhXhXhXhXhXhXhXhXhXhXhXhXhXhXhXhXhXhXhXhXhXhXhXhXhXhXhXhXhXhXhXhXhXhXhXhXhXhXhXhXhXhXhXhXhXhXhXhXhXhXhXhXhXhXhXhXhXhX",
"hXhXhXhXhXhXhXhXhXhXhXhXhXhXhXhXhXhXhXhXhXhXhXhXhXhXhXhXhXhXhXhXhXhXhXhXhXhXhXhXhXhXhXhXhXhXhXhXhXhXhXhXhXhXhXhXhXhXhXhXhXhXhXhXhXhXhXhXhXhXhXhXhXhXhXhXhXhXhXhX",
"hXhXhXhXhXhXhXhXhXhXhXhXhXhXhXhXhXhXhXhXhXhXhXhXhXhXhXhXhXhXhXhXhXhXhXA.T.T.S.T.T.hXhXhXhXhXhXhXhXhXhXhXhXhXhXhXhXhXhXhXhXhXhXhXhXhXhXhXhXhXhXhXhXhXhXhXhXhXhXhX",
"hXhXhXhXhXhXhXhXhXhXhXhXhXhXhXhXhXhXhXhXhXhXhXhXhXhXhXhXhXhXhXhXhXk.G.T.T.T.T.T.T.U.T.U.S.hXhXhXhXhXhXhXhXhXhXhXhXhXhXhXhXhXhXhXhXhXhXhXhXhXhXhXhXhXhXhXhXhXhXhX",
"hXhXhXhXhXhXhXhXhXhXhXhXhXhXhXhXhXhXhXhXhXhXhXhXhXhXhXhXhXhXhXhXR E } 5.5.D.T.T.T.T.T.U.S.k.j.:.hXhXhXhXhXhXhXhXhXhXhXhXhXhXhXhXhXhXhXhXhXhXhXhXhXhXhXhXhXhXhXhX",
"hXhXhXhXhXhXhXhXhXhXhXhXhXhXhXhXhXhXhXhXhXhXhXhXhXhXhXhXhX.X-X X6._ E U U ^ ) _ 5.6.k.k.k.j.j.j.%.hXhXhXhXhXhXhXhXhXhXhXhXhXhXhXhXhXhXhXhXhXhXhXhXhXhXhXhXhXhXhX",
"hXhXhXhXhXhXhXhXhXhXhXhXhXhXhXhXhXhXhXhXhXhXhXhXhXhXhXhXhXhXhXg.I.U.R.5.} } E Y T Y ( ) } :.j.:.hXhXhXhXhXhXhXhXhXhXhXhXhXhXhXhXhXhXhXhXhXhXhXhXhXhXhXhXhXhXhXhX",
"hXhXhXhXhXhXhXhXhXhXhXhXhXhXhXhXhXhXhXhXhXhXhXhXhXhXhXhXhXhXg C H K f.f.v.Y.C.D.0.( / U U T ( [ hXhXhXhXhXhXhXhXhXhXhXhXhXhXhXhXhXhXhXhXhXhXhXhXhXhXhXhXhXhXhXhX",
"hXhXhXhXhXhXhXhXhXhXhXhXhXhXhXhXhXhXhXhXhXhXhXhXhXhX*X1X%Xt.V d.P x.l.a.s.a.@.q.e.' 5.{ { ] R 5 hXhXhXhXhXhXhXhXhXhXhXhXhXhXhXhXhXhXhXhXhXhXhXhXhXhXhXhXhXhXhXhX",
"hXhXhXhXhXhXhXhXhXhXhXhXhXhXhXhXhXhXhXhXhXhXhXhXOX9XeX9XP.y.n l.s.m.m.m.m.x.&.q.w.w.` C D B B j.j.hXhXhXhXhXhXhXhXhXhXhXhXhXhXhXhXhXhXhXhXhXhXhXhXhXhXhXhXhXhXhX",
"hXhXhXhXhXhXhXhXhXhXhXhXhXhXhXhXhXhXhXhXhXhXhXhX<XqXeX9Xt.u...Z l.m.m.m.m.m.I f.Y.[.'./.x.- hXhXhXhXhXhXhXhXhXhXhXhXhXhXhXhXhXhXhXhXhXhXhXhXhXhXhXhXhXhXhXhXhXhX",
"hXhXhXhXhXhXhXhXhXhXhXhXhXhXhXhXhXhXhXhXhX<X6XP.OXK.OX9XH.N.(.I p.x.m.z.)./.M.yXaX|.).n.x.hXhXhXhXhXhXhXhXhXhXhXhXhXhXhXhXhXhXhXhXhXhXhXhXhXhXhXhXhXhXhXhXhXhXhX",
"hXhXhXhXhXhXhXhXhXhXhXhXhXhXhXhXhXhX@X2X9XwXeX%X<X+XH.OX6XY.'.}.M.a.J >.I _._._.^.V A c.hXhXhXhXhXhXhXhXhXhXhXhXhXhXhXhXhXhXhXhXhXhXhXhXhXhXhXhXhXhXhXhXhXhXhXhX",
"hXhXhXhXhXhXhXhXhXhXhXhXhXhXhX6X9X9X9X7X7X0XeXeX6X*X*XwXeX9X$X!.}.`.c.V l L r.r.I I.OXOXXXhXhXhXhXhXhXhXhXhXhXhXhXhXhXhXhXhXhXhXhXhXhXhXhXhXhXhXhXhXhXhXhXhXhXhX",
"hXhXhXhXhXhXhXhXhXhXhXhXhXhX7XwXeXeXeXeXwX0X9XwXwX8X<X<X7XwXeX5X~.[._.n.F k ~ ~ x.+XP.hXhXhXhXhXhXhXhXhXhXhXhXhXhXhXhXhXhXhXhXhXhXhXhXhXhXhXhXhXhXhXhXhXhXhXhXhX",
"hXhXhXhXhXhXhXhXhXhXhXhXhX1XeXwXeXeXeXeXeXeXwX9X9XeXeX9X<X&X5X6X9X,XH.B.`./ Q Q X.+X@X@X+XP.hXhXhXhXhXhXhXhXhXhXhXhXhXhXhXhXhXhXhXhXhXhXhXhXhXhXhXhXhXhXhXhXhXhX",
"hXhXhXhXhXhXhXhXhXhXhXhXOXwXwX4XeXeXeXwX7X0XeXeX0X6XeXeXeXwX9X<X*X6X<X~.B.c._ W W =.S.;X>XP.t.hXhXhXhXhXhXhXhXhXhXhXhXhXhXhXhXhXhXhXhXhXhXhXhXhXhXhXhXhXhXhXhXhX",
"hXhXhXhXhXhXhXhXhXhXhXhXOXwXwX1XeXeXeX9X,X9XeXeXeX1X6XeXeXeXeXeXwX6X%X>X$X~.Y.W Q ! 2.T.;X~.u.hXhXhXhXhXhXhXhXhXhXhXhXhXhXhXhXhXhXhXhXhXhXhXhXhXhXhXhXhXhXhXhXhX",
"hXhXhXhXhXhXhXhXhXhXhXhXOX0X<X7XeXeXqX%X#X9XeXeXeXwXXX9XeXeXeXeXeXeXwX<X*X%XK.) W W / V.;XK.J.J.hXhXhXhXhXhXhXhXhXhXhXhXhXhXhXhXhXhXhXhXhXhXhXhXhXhXhXhXhXhXhXhX",
"hXhXhXhXhXhXhXhXhXhXhXhXP.*X%XeXeX9X>XR.#XeXeXwXeXwXoX*XeXeXeXeXeXeXeXeXwX6X@XE.X.R E V.E.H.*XJ.&.hXhXhXhXhXhXhXhXhXhXhXhXhXhXhXhXhXhXhXhXhXhXhXhXhXhXhXhXhXhXhX",
"hXhXhXhXhXhXhXhXhXhXhXhXH.@X9XqX1X;XR..X7XeXwX5XwXeX>XJ.8XeXeXeXeXeXeXeXeXeXqX1X~.4.[ h.E.J.6Xt.@.hXhXhXhXhXhXhXhXhXhXhXhXhXhXhXhXhXhXhXhXhXhXhXhXhXhXhXhXhXhXhX",
"hXhXhXhXhXhXhXhXhXhXhXhXt.9X8X>X=X.XL.5XrXeX8X@X9XeX<X,.:X9XeXeXeXeXeXeXrXeXeXeX6XW.S.4.1.J.>X3.@.hXhXhXhXhXhXhXhXhXhXhXhXhXhXhXhXhXhXhXhXhXhXhXhXhXhXhXhXhXhXhX",
"hXhXhXhXhXhXhXhXhXhXhXhXt.,X;X=X=XR.&XeXeXwX8X@X9XeX<X*.=X;X4XwXeXeXeX9X>X9XeXeXeX<XT.T.*. .H.3.@.hXhXhXhXhXhXhXhXhXhXhXhXhXhXhXhXhXhXhXhXhXhXhXhXhXhXhXhXhXhXhX",
"hXhXhXhXhXhXhXhXhXhXhXhX#..X=X=XW.#XeXeXwX8X%X<XwXeX,X#.Q.=X=X>X8XwX9XP.K.K.9XeXeXwX;XS.&.n &.3.,.4.hXhXhXhXhXhXhXhXhXhXhXhXhXhXhXhXhXhXhXhXhXhXhXhXhXhXhXhXhXhX",
"hXhXhXhXhXhXhXhXhXhXhXhXo.C.=X.X.XwXeXeX9X*X%XqXeXeXoX#.T.Q.=X=X;X:X:X+XoX$X6X6X6X4X;X=XS. .&.3.<.8.hXhXhXhXhXhXhXhXhXhXhXhXhXhXhXhXhXhXhXhXhXhXhXhXhXhXhXhXhXhX",
"hXhXhXhXhXhXhXhXhXhXhXhXhX#.R.#X9XwXwXwX<X%X5X9XeXwX*.,.V.T.+X=X=X=X=X=X;X=XQ.].].].].Q.T.*.*.+.*.D.2.hXhXhXhXhXhXhXhXhXhXhXhXhXhXhXhXhXhXhXhXhXhXhXhXhXhXhXhXhX",
"hXhXhXhXhXhXhXhXhXhXhXhXhX#.+X3X@XL.L.F.9.9.y.y.L.3Xn ,.,.,.V.T.Q.T.T.T.W.K.x.uX/.B.B.N.L n $.v +.9.$.hXhXhXhXhXhXhXhXhXhXhXhXhXhXhXhXhXhXhXhXhXhXhXhXhXhXhXhXhX",
"hXhXhXhXhXhXhXhXhXhXhXhXhX#.Q.y.0.D.F.L.OX2X<X<X<X@X&.V.V.S.4.<.V.y.W.W.K.5X!.iXd.I.A.c.c.=.| v #.$.,.2.2.hXhXhXhXhXhXhXhXhXhXhXhXhXhXhXhXhXhXhXhXhXhXhXhXhXhXhX",
"hXhXhXhXhXhXhXhXhXhXhXhXhX#.G.S.T.T.@X9XwXeXrXeXrXeX9X@XL.V.4.,.4.4.Q.S.Z.7XY.aXf.T.A.A z.#.+.n 9.Z.L.oXoXXXK.9.hXhXhXhXhXhXhXhXhXhXhXhXhXhXhXhXhXhXhXhXhXhXhXhX",
"hXhXhXhXhXhXhXhXhXhXhXhXhXO.8.=X=X=X=X;X>X6XwXeXeXeXeXrXeX<Xy.,.9.#.1.#.XX9Xx.uXa.c.g.J L | n v 4.0.0.Z.oXoX+XW.y.hXhXhXhXhXhXhXhXhXhXhXhXhXhXhXhXhXhXhXhXhXhXhX",
"hXhXhXhXhXhXhXhXhXhXhXhXhXhX#.S.=X=X=X=X=X;X>X1X9X9XeXeXwX<XOXZ.Z.4.2.o.@X>X,.].].].].!.>.<.+.| #.2.8.k.F.F.XXL.y.*.2.hXhXhXhXhXhXhXhXhXhXhXhXhXhXhXhXhXhXhXhXhX",
"hXhXhXhXhXhXhXhXhXhXhXhXhXhXhXhX4.G.Q.=X=X=X=X=X;X;X1X<X&X6X5X*X*X<X<XK.Z.S.#.OX9XwXwX5XW.V.0.| +.D.D.D.D.D.9.$.0.0.y.J.P.H.hXhXhXhXhXhXhXhXhXhXhXhXhXhXhXhXhXhX",
"hXhXhXhXhXhXhXhXhXhXhXhXhXhXhXhXu.L.Z.y.S.Q.=X=X=X=X=X+XoX%X*X9XeXrXtX9X+Xv.L Z.@X>X>X$XoX2.$.| $.D.D.D.D.+.=.8.,.$.D.F.F.L.~.c.hXhXhXhXhXhXhXhXhXhXhXhXhXhXhXhX",
"hXhXhXhXhXhXhXhXhXhXhXhXhXhXhXy.+X#XOXL.Z.4.9.V.T.=X=XS.V.S.=X@X4X7X%XE.Y.{.|.Y.c.S.T.T.Z.&.o.#.v =.D.D.D.l +.+.$.8.D.C.U.[.{.M.I h hXhXhXhXhXhXhXhXhXhXhXhXhXhX",
"hXhXhXhXhXhXhXhXhXhXhXhXhXhXhX4.R.R.R.T.T.T.S.V.4.4.V.#.R.,.-X-XW.t.v./.uXdXgXfXiXv.A.T.T.K.,.#.v l *.=.0.l 8.l 0.D.0.Y.).x.`.}.).m.I hXhXhXhXhXhXhXhXhXhXhXhXhX",
"hXhXhXhXhXhXhXhXhXhXhXhXhXhXhXC.T.T.T.T.T.T.T.T.T.G.V.0.4.,.T.Q.1.r.b.}.gXfXdXfXgXdXuX[.T.T.G.,.O.l hXhXn l v v D.D.8.v.I B.sXaXiX|.}./.b.hXhXhXhXhXhXhXhXhXhXhX",
"hXhXhXhXhXhXhXhXhXhXhXhXhXhX<.G.T.T.T.T.T.T.T.T.T.T.T.T.T.S.9.<.n c N `.sXdXdXgXfXfXgXdXpX].v.,.#.v hXhXhXhXhXhX$.D.8.>.V B.aXaXaXiXiX|.}.).hXhXhXhXhXhXhXhXhXhX",
"hXhXhXhXhXhXhXhXhXhXhXhXhXhX4.T.T.T.T.T.T.T.T.T.T.T.T.T.T.T.T.V.#.y.1.J ).iXdXiXsXdXaXiXdXiX_.g.-.l hXhXhXhXhXhXhX| | p hXhX`.iXaXaX|.}.}.).M.l.hXhXhXhXhXhXhXhX",
"hXhXhXhXhXhXhXhXhXhXhXhXhXhX4.T.T.T.T.T.T.T.T.T.T.T.T.T.T.T.T.S.,.P.>XK.g.f.{.iXB.|.sX|.c.'.}./.(.Z hXhXhXhXhXhXhXhXhXhXhXhXhX).iXaXV f P )./.l.s.hXhXhXhXhXhXhX",
"hXhXhXhXhXhXhXhXhXhXhXhXhXhX4.T.T.T.T.T.T.T.T.T.T.T.T.T.T.T.T.S.;.oX7X@XW.#.h.^.iXH '.sX[.>.B.}.x.n.s.hXhXhXhXhXhXhXhXhXhXhXhXhX{.}.h hXt a.'.l.M hXhXhXhXhXhXhX",
"hXhXhXhXhXhXhXhXhXhXhXhXhXhX4.T.T.T.T.T.T.T.T.T.T.T.T.T.T.T.T.S.,.oX6X@XW.#.A.f.'.a.g.M._.g.-.M.I F z.hXhXhXhXhXhXhXhXhXhXhXhXhXa.n.I f y a.).n.M f hXhXhXhXhXhX",
"hXhXhXhXhXhXhXhXhXhXhXhXhXhX4.T.T.T.T.T.T.T.T.T.T.T.T.T.T.T.T.S.;.P.<XoXR.#.h.b.N.c.I.d.M.V.<.>.Z @.c hXhXhXhXhXhXhXhXhXhXhXhXhXhXs.m.hXhXhXd._.l.P V hXhXhXhXhX",
"hXhXhXhXhXhXhXhXhXhXhXhXhXhX<.T.T.T.T.T.T.T.T.T.T.T.T.T.T.T.T.S.;.K.%XW.T.#.S.I.I.T.T.I.I.G.D.0.#.#.o.hXhXhXhXhXhXhXhXhXhXhXhXhXhXhXhXhXhXhXhXs.hXhXhXhXhXhXhXhX",
"hXhXhXhXhXhXhXhXhXhXhXhXhXhX<.D.T.T.T.T.T.T.T.T.T.T.T.T.T.T.T.S.,.2.4.4.4.V.T.T.T.T.T.T.T.G.D.D.$.#.O.hXhXhXhXhXhXhXhXhXhXhXhXhXhXhXhXhXhXhXhXhXhXhXhXhXhXhXhXhX",
"hXhXhXhXhXhXhXhXhXhXhXhXhXhXhX4.G.T.T.T.T.T.T.T.T.T.T.T.T.T.T.S.,.,.,.0.G.T.T.T.T.T.T.T.T.G.D.8.#.#.O.hXhXhXhXhXhXhXhXhXhXhXhXhXhXhXhXhXhXhXhXhXhXhXhXhXhXhXhXhX",
"hXhXhXhXhXhXhXhXhXhXhXhXhXhXhX,.V.Z.T.T.T.T.T.T.T.T.T.T.T.T.T.T.U.T.U.T.T.T.T.T.T.T.T.T.T.G.D.,.#.,.O.hXhXhXhXhXhXhXhXhXhXhXhXhXhXhXhXhXhXhXhXhXhXhXhXhXhXhXhXhX",
"hXhXhXhXhXhXhXhXhXhXhXhXhXhXhX4.T.S.G.T.T.T.T.T.T.T.T.T.T.T.T.T.T.T.T.T.T.T.T.T.T.T.T.T.G.D.D.,.#.#.hXhXhXhXhXhXhXhXhXhXhXhXhXhXhXhXhXhXhXhXhXhXhXhXhXhXhXhXhXhX",
"hXhXhXhXhXhXhXhXhXhXhXhXhXhX<.C.T.T.T.T.T.T.T.T.T.T.T.T.T.T.T.T.T.T.T.T.T.T.T.T.T.T.T.T.G.D.D.;.#.#.hXhXhXhXhXhXhXhXhXhXhXhXhXhXhXhXhXhXhXhXhXhXhXhXhXhXhXhXhXhX",
"hXhXhXhXhXhXhXhXhXhXhXhXhXhX<.G.T.T.T.T.T.T.T.T.T.T.T.T.T.T.T.T.T.T.T.T.T.T.T.T.T.T.T.T.G.D.0.#.#.#.hXhXhXhXhXhXhXhXhXhXhXhXhXhXhXhXhXhXhXhXhXhXhXhXhXhXhXhXhXhX",
"hXhXhXhXhXhXhXhXhXhXhXhXhXhX9.T.T.T.T.T.T.T.T.T.T.T.T.T.T.T.T.T.T.T.T.T.T.T.T.T.T.T.T.T.D.D.2.#.$.O.hXhXhXhXhXhXhXhXhXhXhXhXhXhXhXhXhXhXhXhXhXhXhXhXhXhXhXhXhXhX",
"hXhXhXhXhXhXhXhXhXhXhXhXhX,.G.T.T.T.T.T.T.T.T.T.T.T.T.T.T.T.T.T.T.T.T.T.T.T.T.T.T.T.T.U.D.0.#.#.#.hXhXhXhXhXhXhXhXhXhXhXhXhXhXhXhXhXhXhXhXhXhXhXhXhXhXhXhXhXhXhX",
"hXhXhXhXhXhXhXhXhXhXhXhXhX,.T.T.T.T.T.T.T.T.T.T.T.T.T.T.T.T.T.T.T.T.T.T.T.T.T.T.T.T.T.G.D.8.#.;.#.hXhXhXhXhXhXhXhXhXhXhXhXhXhXhXhXhXhXhXhXhXhXhXhXhXhXhXhXhXhXhX",
"hXhXhXhXhXhXhXhXhXhXhXhXhX0.T.T.T.T.T.T.T.T.T.T.T.T.T.T.T.T.T.T.T.T.T.T.T.T.T.T.T.T.T.D.D.,.#.#.hXhXhXhXhXhXhXhXhXhXhXhXhXhXhXhXhXhXhXhXhXhXhXhXhXhXhXhXhXhXhXhX",
"hXhXhXhXhXhXhXhXhXhXhXhX,.G.T.T.T.T.T.T.T.T.T.T.T.T.T.T.T.T.T.T.T.T.T.T.T.T.T.T.T.T.G.D.0.#.#.#.hXhXhXhXhXhXhXhXhXhXhXhXhXhXhXhXhXhXhXhXhXhXhXhXhXhXhXhXhXhXhXhX",
"hXhXhXhXhXhXhXhXhXhXhXhX,.T.T.T.T.T.T.T.T.T.T.T.T.T.T.T.T.T.T.T.T.T.T.T.T.T.T.T.T.T.D.D.8.#.#.o.hXhXhXhXhXhXhXhXhXhXhXhXhXhXhXhXhXhXhXhXhXhXhXhXhXhXhXhXhXhXhXhX",
"hXhXhXhXhXhXhXhXhXhXhXhX<.T.T.T.T.T.T.T.T.T.T.T.T.T.T.T.T.T.T.T.T.T.T.T.T.T.T.T.T.G.D.D.9.#.#.hXhXhXhXhXhXhXhXhXhXhXhXhXhXhXhXhXhXhXhXhXhXhXhXhXhXhXhXhXhXhXhXhX",
"hXhXhXhXhXhXhXhXhXhXhX,.C.T.T.T.T.T.T.T.T.T.T.T.T.T.T.T.T.T.T.T.T.T.T.T.T.T.T.T.T.D.D.D.9.#.#.hXhXhXhXhXhXhXhXhXhXhXhXhXhXhXhXhXhXhXhXhXhXhXhXhXhXhXhXhXhXhXhXhX",
"hXhXhXhXhXhXhXhXhXhXhX,.G.T.T.T.T.T.T.T.T.T.T.T.T.T.T.T.T.T.T.T.T.T.T.T.T.T.T.T.D.D.D.D.9.#.#.hXhXhXhXhXhXhXhXhXhXhXhXhXhXhXhXhXhXhXhXhXhXhXhXhXhXhXhXhXhXhXhXhX",
"hXhXhXhXhXhXhXhXhXhXhX,.T.T.T.T.T.T.T.T.T.T.T.T.T.T.T.T.T.T.T.T.T.T.T.T.T.T.T.T.D.G.D.D.9.#.#.hXhXhXhXhXhXhXhXhXhXhXhXhXhXhXhXhXhXhXhXhXhXhXhXhXhXhXhXhXhXhXhXhX",
"hXhXhXhXhXhXhXhXhXhXhX<.T.T.T.T.T.T.T.T.T.T.T.T.T.T.T.T.T.T.T.T.T.T.T.T.T.T.T.D.G.T.D.D.9.#.#.hXhXhXhXhXhXhXhXhXhXhXhXhXhXhXhXhXhXhXhXhXhXhXhXhXhXhXhXhXhXhXhXhX",
"hXhXhXhXhXhXhXhXhXhX,.C.T.T.T.T.T.T.T.T.T.T.T.T.T.T.T.T.T.T.T.T.T.T.T.T.T.T.G.G.T.G.D.D.9.#.#.hXhXhXhXhXhXhXhXhXhXhXhXhXhXhXhXhXhXhXhXhXhXhXhXhXhXhXhXhXhXhXhXhX",
"hXhXhXhXhXhXhXhXhXhX,.S.T.T.T.T.T.T.T.T.T.T.T.T.T.T.T.T.T.T.T.T.T.T.T.T.G.D.G.T.T.D.D.D.9.#.#.hXhXhXhXhXhXhXhXhXhXhXhXhXhXhXhXhXhXhXhXhXhXhXhXhXhXhXhXhXhXhXhXhX",
"hXhXhXhXhXhXhXhXhXhX,.S.T.T.T.T.T.T.T.T.T.T.T.T.T.T.T.T.T.T.T.T.T.T.T.G.D.D.T.T.G.D.D.D.9.o.O.hXhXhXhXhXhXhXhXhXhXhXhXhXhXhXhXhXhXhXhXhXhXhXhXhXhXhXhXhXhXhXhXhX",
"hXhXhXhXhXhXhXhXhXhX,.S.T.T.T.T.T.T.T.T.T.T.T.T.T.T.T.T.T.T.T.T.T.T.G.D.G.T.T.G.D.D.D.D.9.o.o.hXhXhXhXhXhXhXhXhXhXhXhXhXhXhXhXhXhXhXhXhXhXhXhXhXhXhXhXhXhXhXhXhX",
"hXhXhXhXhXhXhXhXhXhX,.S.T.T.T.T.T.T.T.T.T.T.T.T.T.T.T.T.T.T.T.T.G.G.G.G.T.G.G.D.D.D.D.D.9.o.hXhXhXhXhXhXhXhXhXhXhXhXhXhXhXhXhXhXhXhXhXhXhXhXhXhXhXhXhXhXhXhXhXhX",
"hXhXhXhXhXhXhXhXhXhX,.G.T.T.T.T.T.T.T.T.T.T.T.T.T.T.T.T.T.T.T.T.T.T.T.T.Z.C.0.0.7.7.7.7.+.l hXhXhXhXhXhXhXhXhXhXhXhXhXhXhXhXhXhXhXhXhXhXhXhXhXhXhXhXhXhXhXhXhXhX",
"hXhXhXhXhXhXhXhXhXhXo.;.4.0.S.S.S.S.T.T.U.G.G.T.S.S.S.Z.y.8.,.,.$.O.b k k k k j 6 3 % hXhXhXhXhXhXhXhXhXhXhXhXhXhXhXhXhXhXhXhXhXhXhXhXhXhXhXhXhXhXhXhXhXhXhXhXhX",
"hXhXhXhXhXhXhXhXhXhXd N D c j b b | | | b [ | j v o.e 7 7 , , 4 4 4 4 4 1 1 1 < < > . hXhXhXhXhXhXhXhXhXhXhXhXhXhXhXhXhXhXhXhXhXhXhXhXhXhXhXhXhXhXhXhXhXhXhXhXhX",
"hXhXhXhXhXhXhXhXhXhXd D G D N j 8 z 9 6 8 9 z + hXhX  : : < 4 4 4 4 4 4 4 < 3 i 4 > X hXhXhXhXhXhXhXhXhXhXhXhXhXhXhXhXhXhXhXhXhXhXhXhXhXhXhXhXhXhXhXhXhXhXhXhXhX",
"hXhXhXhXhXhXhXhXhXhXd H i.G D D c j 6 < k z z # hXhXX > 4 4 4 4 4 4 4 4 < i i 3 < : X hXhXhXhXhXhXhXhXhXhXhXhXhXhXhXhXhXhXhXhXhXhXhXhXhXhXhXhXhXhXhXhXhXhXhXhXhX",
"hXhXhXhXhXhXhXhXhXhXd H p.p.H D S N i 3 8 8 z # hXhXX 1 4 4 4 4 4 4 < 3 u u 1 , , : X hXhXhXhXhXhXhXhXhXhXhXhXhXhXhXhXhXhXhXhXhXhXhXhXhXhXhXhXhXhXhXhXhXhXhXhXhX",
"hXhXhXhXhXhXhXhXhXhXN K p.p.p.H D D N 2 w x j 3 o hXX > < < < < 3 3 i d i 6 , : ; # X hXhXhXhXhXhXhXhXhXhXhXhXhXhXhXhXhXhXhXhXhXhXhXhXhXhXhXhXhXhXhXhXhXhXhXhXhX",
"hXhXhXhXhXhXhXhXhXd M p.p.p.p.p.K D B w & N x j o hXhXo 2 2 u u u d d d u 2 2 2 w s g f f hXhXhXhXhXhXhXhXhXhXhXhXhXhXhXhXhXhXhXhXhXhXhXhXhXhXhXhXhXhXhXhXhXhXhX",
"hXhXhXhXhXhXhXhXhXd S p.p.p.K G D D G a = u d g O hXX = - = & & & & % % % - q S H a.d.l.s.C m f hXhXhXhXhXhXhXhXhXhXhXhXhXhXhXhXhXhXhXhXhXhXhXhXhXhXhXhXhXhXhXhX",
"hXhXhXhXhXhXhXhXhXd G a.K H H S C m m m s = = u w O hX% = = % % % % - r r q - r r d m H s.s.P P S g f t r r hXhXhXhXhXhXhXhXhXhXhXhXhXhXhXhXhXhXhXhXhXhXhXhXhXhX",
"hXhXhXhXhXhXhXhXhXhXN F F M m g S l.S C M m s 0 w O hXX $ $ $ $ $ $ @ O O X X X % = = = = t f f s y f y y y r hXhXhXhXhXhXhXhXhXhXhXhXhXhXhXhXhXhXhXhXhXhXhXhXhX",
"hXhXhXhXhXhXhXhXhXhX= s s r y M S l.b.a.d.l.a.a.D g g hXhXhXhXhXhXhXhXhXhXhXhXhXhXhXhXhXhXhXhXhXhXhXhXhXhXhXhXhXhXhXhXhXhXhXhXhXhXhXhXhXhXhXhXhXhXhXhXhXhXhXhXhX",
"hXhXhXhXhXhXhXhXhXhXX a s y r t y f m F P P P F F S C m g q hXhXhXhXhXhXhXhXhXhXhXhXhXhXhXhXhXhXhXhXhXhXhXhXhXhXhXhXhXhXhXhXhXhXhXhXhXhXhXhXhXhXhXhXhXhXhXhXhXhX",
"hXhXhXhXhXhXhXhXhXhXhXX $ $ $ $ $ * r t y y g m m m m M g q . hXhXhXhXhXhXhXhXhXhXhXhXhXhXhXhXhXhXhXhXhXhXhXhXhXhXhXhXhXhXhXhXhXhXhXhXhXhXhXhXhXhXhXhXhXhXhXhXhX"
};
