/* XPM */
static char *result[] = {
/* columns rows colors chars-per-pixel */
"80 80 226 2 ",
"   c #1F0E1F",
".  c #200E1F",
"X  c #27131F",
"o  c #200F20",
"O  c #241322",
"+  c #2A1825",
"@  c #2A1B2A",
"#  c #301C27",
"$  c #2E232E",
"%  c #39252A",
"&  c #332A33",
"*  c #372A36",
"=  c #3B333B",
"-  c #3D3A3D",
";  c #50301F",
":  c #48272A",
">  c #572B2D",
",  c #553126",
"<  c #56322E",
"1  c #5B342C",
"2  c #442F38",
"3  c #453337",
"4  c #563A36",
"5  c #61352E",
"6  c #633131",
"7  c #643D38",
"8  c #7F363E",
"9  c #5F503E",
"0  c #664439",
"q  c #6E493E",
"w  c #714C3F",
"e  c #60503F",
"r  c #423842",
"t  c #443848",
"y  c #503841",
"u  c #444445",
"i  c #494749",
"p  c #4C4C4D",
"a  c #514244",
"s  c #52494F",
"d  c #4E4A52",
"f  c #564957",
"g  c #555559",
"h  c #6B4744",
"j  c #6B4C4E",
"k  c #6A5445",
"l  c #735242",
"z  c #715C4E",
"x  c #7A594E",
"c  c #745D52",
"v  c #7B5C53",
"b  c #60605F",
"n  c #766153",
"m  c #7D635B",
"M  c #5B5B63",
"N  c #5E5B6B",
"B  c #645767",
"V  c #6A5E6D",
"C  c #735D62",
"Z  c #646465",
"A  c #6B6465",
"S  c #64646A",
"D  c #776969",
"F  c #6B6474",
"G  c #6A6977",
"H  c #7C6F72",
"J  c #716D7D",
"K  c #75747B",
"L  c #940202",
"P  c #9C0000",
"I  c #980C0D",
"U  c #960F11",
"Y  c #941616",
"T  c #991A1C",
"R  c #A60000",
"E  c #AB0202",
"W  c #B40304",
"Q  c #AD1918",
"!  c #982D2A",
"~  c #9A383A",
"^  c #AC3637",
"/  c #9D3E47",
"(  c #A13F41",
")  c #964B50",
"_  c #AA4A48",
"`  c #96764E",
"'  c #82675C",
"]  c #B46359",
"[  c #846563",
"{  c #886966",
"}  c #8B6B6A",
"|  c #946768",
" . c #8B7569",
".. c #96756D",
"X. c #876D70",
"o. c #9D6D77",
"O. c #8A7774",
"+. c #947373",
"@. c #9C7573",
"#. c #937973",
"$. c #9C7A76",
"%. c #9D7B7B",
"&. c #AA6567",
"*. c #AE776C",
"=. c #A16A77",
"-. c #A27677",
";. c #A37A76",
":. c #A67B7B",
">. c #AA7D7D",
",. c #B47575",
"<. c #C75C5C",
"1. c #D3943E",
"2. c #AA854E",
"3. c #978675",
"4. c #9F827E",
"5. c #B8826D",
"6. c #A3837C",
"7. c #AB837D",
"8. c #A28D7E",
"9. c #AB8A7E",
"0. c #706F81",
"q. c #737384",
"w. c #7C7580",
"e. c #7C7B83",
"r. c #7C7D89",
"t. c #827C86",
"y. c #917B85",
"u. c #A47383",
"i. c #A77E86",
"p. c #7F8183",
"a. c #83848D",
"s. c #898489",
"d. c #98878C",
"f. c #8D8D94",
"g. c #928C92",
"h. c #998D94",
"j. c #939395",
"k. c #95949B",
"l. c #999699",
"z. c #A38282",
"x. c #AB8383",
"c. c #AC8A83",
"v. c #A88788",
"b. c #A48989",
"n. c #AD8C8C",
"m. c #B58585",
"M. c #B38C8C",
"N. c #B88B88",
"B. c #A99687",
"V. c #B49386",
"C. c #B4948C",
"Z. c #B8958B",
"A. c #B49C8A",
"S. c #BB9C8D",
"D. c #A88D90",
"F. c #AE9896",
"G. c #B59494",
"H. c #B89897",
"J. c #BE9B9A",
"K. c #BAA38D",
"L. c #A6A19D",
"P. c #BDA494",
"I. c #9C9CA3",
"U. c #A29BA3",
"Y. c #A6A4A6",
"T. c #A5A5AB",
"R. c #ABAAAC",
"E. c #B9AAA6",
"W. c #A7A9B1",
"Q. c #ACADB2",
"!. c #AFB2B4",
"~. c #B3B2B5",
"^. c #B9B4B6",
"/. c #BBBBBE",
"(. c #C78D8D",
"). c #C19A8E",
"_. c #C59893",
"`. c #C49C9C",
"'. c #C99F9F",
"]. c #C3A494",
"[. c #CBAA96",
"{. c #C5A599",
"}. c #C8A798",
"|. c #CCAC9B",
" X c #D1AD9B",
".X c #CFB09C",
"XX c #D4B49E",
"oX c #D7B89F",
"OX c #C6A5A4",
"+X c #CAA5A5",
"@X c #CCACA4",
"#X c #D4A4A4",
"$X c #C8B2A6",
"%X c #D4B4A3",
"&X c #D5B9A3",
"*X c #DBBCA3",
"=X c #DAB9A8",
"-X c #C4B8B3",
";X c #E1BFA6",
":X c #DDC2A5",
">X c #DFC0A8",
",X c #E2C2A6",
"<X c #E4C4AA",
"1X c #E8C7AC",
"2X c #E6C9AA",
"3X c #EBCBAE",
"4X c #EED0AF",
"5X c #EECDB1",
"6X c #F0CEB0",
"7X c #EED0B1",
"8X c #F6D5B4",
"9X c #F8D7B6",
"0X c #F9D8B6",
"qX c #BDBDC0",
"wX c #C1BEC2",
"eX c #C3C3C5",
"rX c #CBCBCC",
"tX c #CECED1",
"yX c #D5D5D5",
"uX c #D8D8D8",
"iX c #E1E1E2",
"pX c #EBEBEA",
"aX c #EFF0F0",
"sX c gray96",
"dX c #F9F9F8",
"fX c None",
/* pixels */
"fXfXfXfXfXfXfXfXfXfXfXfXfXfXfXfXfXfXfXfXfXfXfXfXfXfXfXfXfXfXfXfXfXfXfXfXfXfXfXfXfXfXfXfXfXfXfXfXfXfXfXfXfXfXfXfXfXfXfXfXfXfXfXfXfXfXfXfXfXfXfXfXfXfXfXfXfXfXfXfX",
"fXfXfXfXfXfXfXfXfXfXfXfXfXfXfXfXfXfXfXfXfXfXfXfXfXfXfXfXfXfXfXfXfXfXfXfXfXfXfXfXfXfXfXfXfXfXfXfXfXfXfXfXfXfXfXfXfXfXfXfXfXfXfXfXfXfXfXfXfXfXfXfXfXfXfXfXfXfXfXfX",
"fXfXfXfXfXfXfXfXfXfXfXfXfXfXfXfXfXfXfXfXfXfXfXfXfXfXfXfXfXfXfXfXfXfXfXfXfXfXfXfXfXfXfXfXfXfXfXfXfXfXfXfXfXfXfXfXfXfXfXfXfXfXfXfXfXfXfXfXfXfXfXfXfXfXfXfXfXfXfXfX",
"fXfXfXfXfXfXfXfXfXfXfXfXfXfXfXfXfXfXfXfXfXfXfXfXfXfXfXfXfX@.m.`.'.'.fXfXfXfXfXfXfXfXfXfXfXfXfXfXfXfXfXfXfXfXfXfXfXfXfXfXfXfXfXfXfXfXfXfXfXfXfXfXfXfXfXfXfXfXfXfX",
"fXfXfXfXfXfXfXfXfXfXfXfXfXfXfXfXfXfXfXfXfXfXfXfXfXfXfXfX>.M.H.H.`.'.`.#X'.+XfXfXfXfXfXfXfXfXfXfXfXfXfXfXfXfXfXfXfXfXfXfXfXfXfXfXfXfXfXfXfXfXfXfXfXfXfXfXfXfXfXfX",
"fXfXfXfXfXfXfXfXfXfXfXfXfXfXfXfXfXfXfXfXfXfXfXfXfXfXW &.M.H.H.H.H.H.H.H.J.J.'.`.'.H.fXfXfXfXfXfXfXfXfXfXfXfXfXfXfXfXfXfXfXfXfXfXfXfXfXfXfXfXfXfXfXfXfXfXfXfXfXfX",
"fXfXfXfXfXfXfXfXfXfXfXfXfXfXfXfXfXfXfXfX#X#X`.J.^ Q W W ^ ( -.>.m.H.G.x.-.-.i.i.i.i.:.| fXfXfXfXfXfXfXfXfXfXfXfXfXfXfXfXfXfXfXfXfXfXfXfXfXfXfXfXfXfXfXfXfXfXfXfX",
"fXfXfXfXfXfXfXfXfXfXfXfXfXfXfXfXfXfXfXfXfXfX#X#X_.(.<._ I I I L T _ ~ ) =.=.u.u.u.o.fXfXfXfXfXfXfXfXfXfXfXfXfXfXfXfXfXfXfXfXfXfXfXfXfXfXfXfXfXfXfXfXfXfXfXfXfXfX",
"fXfXfXfXfXfXfXfXfXfXfXfXfXfXfXfXfXfXfXfXfXfXfXfXA d.b.`.(.(.,.^ ~ T L I Y U / ) ) | fXfXfXfXfXfXfXfXfXfXfXfXfXfXfXfXfXfXfXfXfXfXfXfXfXfXfXfXfXfXfXfXfXfXfXfXfXfX",
"fXfXfXfXfXfXfXfXfXfXfXfXfXfXfXfXfXfXfXfXfX[.oXD G J M t.s.d.G.J.J.(.,.&.~ Y Y Y Y fXfXfXfXfXfXfXfXfXfXfXfXfXfXfXfXfXfXfXfXfXfXfXfXfXfXfXfXfXfXfXfXfXfXfXfXfXfXfX",
"fXfXfXfXfXfXfXfXfXfXfXfXfXfXfXfXfXfXfXfX*X6X*XA s.S e.a.a.a.e.r. .1.1.5.o.o.o.=.o.| fXfXfXfXfXfXfXfXfXfXfXfXfXfXfXfXfXfXfXfXfXfXfXfXfXfXfXfXfXfXfXfXfXfXfXfXfXfX",
"fXfXfXfXfXfXfXfXfXfXfXfXfXfXfXfXfXfXfX,X9X0XA.` O.g g.j.j.j.j.s.' ` 2.2.D l.D.y.u.u.u.o.fXfXfXfXfXfXfXfXfXfXfXfXfXfXfXfXfXfXfXfXfXfXfXfXfXfXfXfXfXfXfXfXfXfXfXfX",
"fXfXfXfXfXfXfXfXfXfXfXfXfXfXfXfXfXS.|.1X,X8XK.B...m s.j.j.j.Y.R.l.f.W./.R.eXj.fXfXfXfXfXfXfXfXfXfXfXfXfXfXfXfXfXfXfXfXfXfXfXfXfXfXfXfXfXfXfXfXfXfXfXfXfXfXfXfXfX",
"fXfXfXfXfXfXfXfXfXfXfXfXfX%X,X<X<XoXS.P.G.{.XXP.L.b.' D f.l.O.I.k.~.eXI.j.Y.fXfXfXfXfXfXfXfXfXfXfXfXfXfXfXfXfXfXfXfXfXfXfXfXfXfXfXfXfXfXfXfXfXfXfXfXfXfXfXfXfXfX",
"fXfXfXfXfXfXfXfXfXfX|.*X<X6X8X0X0X3X,X<X{.C.A.XXoXF.L.O.K #.e.r.W.W.f.d.P.S.fXfXfXfXfXfXfXfXfXfXfXfXfXfXfXfXfXfXfXfXfXfXfXfXfXfXfXfXfXfXfXfXfXfXfXfXfXfXfXfXfXfX",
"fXfXfXfXfXfXfXfXfX;X<X1X1X1X1X1X1X9X8X,X&XXX,X4X9X*X$X~./.Y.C 8 ) ) m.}.S.|.fXfXfXfXfXfXfXfXfXfXfXfXfXfXfXfXfXfXfXfXfXfXfXfXfXfXfXfXfXfXfXfXfXfXfXfXfXfXfXfXfXfX",
"fXfXfXfXfXfXfXfX,X9X9X9X9X9X9X8X5X1X6X8X,X|.].XX1X9X3X&XE.p.| P R P ] |.S.fXfXfXfXfXfXfXfXfXfXfXfXfXfXfXfXfXfXfXfXfXfXfXfXfXfXfXfXfXfXfXfXfXfXfXfXfXfXfXfXfXfXfX",
"fXfXfXfXfXfXfXXX3X9X9X9X9X9X9X9X9X8X<X<X9X8X<X*X|.}.1X9X,X$X^.| I E Q ,.%X%X|.V.fXfXfXfXfXfXfXfXfXfXfXfXfXfXfXfXfXfXfXfXfXfXfXfXfXfXfXfXfXfXfXfXfXfXfXfXfXfXfXfX",
"fXfXfXfXfXfXfXoX<X5X9X9X9X9X9X9X9X9X8X,X1X9X9X9X3X%X{.&X8X8X<X-X&.E W Q 5.%X%X].fXfXfXfXfXfXfXfXfXfXfXfXfXfXfXfXfXfXfXfXfXfXfXfXfXfXfXfXfXfXfXfXfXfXfXfXfXfXfXfX",
"fXfXfXfXfXfXfX|.1X9X9X9X1X9X9X9X9X9X9X5X>X5X9X9X9X9X5X%XoX%X<X1X$X_ P R ! 7.@X{.$.fXfXfXfXfXfXfXfXfXfXfXfXfXfXfXfXfXfXfXfXfXfXfXfXfXfXfXfXfXfXfXfXfXfXfXfXfXfXfX",
"fXfXfXfXfXfXfXXX5X9X9X9X=X8X9X9X9X9X9X9X<X<X9X9X9X9X9X9X7X&X{..X*X[._ I L ~ J.OX%.S.fXfXfXfXfXfXfXfXfXfXfXfXfXfXfXfXfXfXfXfXfXfXfXfXfXfXfXfXfXfXfXfXfXfXfXfXfXfX",
"fXfXfXfXfXfXfX;X9X9X9X3X%X8X9X9X9X8X9X9X8X&X1X9X9X9X9X9X9X9X3X%XJ.}.].*.! L N.M.6.|.3.fXfXfXfXfXfXfXfXfXfXfXfXfXfXfXfXfXfXfXfXfXfXfXfXfXfXfXfXfXfXfXfXfXfXfXfXfX",
"fXfXfXfXfXfXfX<X9X9X3X*X|.8X9X9X4X2X9X9X0XoX<X9X9X9X9X9X9X9X0X9X5X=XJ.G.c.) Z.%.].|.3.fXfXfXfXfXfXfXfXfXfXfXfXfXfXfXfXfXfXfXfXfXfXfXfXfXfXfXfXfXfXfXfXfXfXfXfXfX",
"fXfXfXfXfXfXfX1X8X<X%X`.*X9X9X8X:X,X9X9X9X|.&X9X9X9X9X9X9X3X*X9X9X9X3X%XH.G.b. .].|.3.fXfXfXfXfXfXfXfXfXfXfXfXfXfXfXfXfXfXfXfXfXfXfXfXfXfXfXfXfXfXfXfXfXfXfXfXfX",
"fXfXfXfXfXfXfX&X&X@X`.).6X9X9X4X*XoX8X9X5XS.].1X9X9X9X9X3XK.K.XX0X9X9X8X<X}.c.#.' ].3.S.fXfXfXfXfXfXfXfXfXfXfXfXfXfXfXfXfXfXfXfXfXfXfXfXfXfXfXfXfXfXfXfXfXfXfXfX",
"fXfXfXfXfXfXfXG.OXOXN.;X9X9X8X:X.X&X3X0X<X%.n.@X=X5X8X9X9X<X*X5X9X9X9X9X9X8X2XK.z n.8.|.fXfXfXfXfXfXfXfXfXfXfXfXfXfXfXfXfXfXfXfXfXfXfXfXfXfXfXfXfXfXfXfXfXfXfXfX",
"fXfXfXfXfXfXfXn.+X`._.6X9X8X,XXX%X:X3X5XS.z.J.OXOX@X&X<X3X5X9X8X3X8X7X1X1X3X7X2Xn c.8.%XS.fXfXfXfXfXfXfXfXfXfXfXfXfXfXfXfXfXfXfXfXfXfXfXfXfXfXfXfXfXfXfXfXfXfXfX",
"fXfXfXfXfXfXfXM.+XN.<X9X3X&X].Z.].].].+.{ n.n.H.OXJ.n.n.C.C.S.Z.B./.E.d.D.D.j.c.z +.O. X].8.fXfXfXfXfXfXfXfXfXfXfXfXfXfXfXfXfXfXfXfXfXfXfXfXfXfXfXfXfXfXfXfXfXfX",
"fXfXfXfXfXfXfXv.N.}.<X X).N.>.>.:.7.8. . .z.z.+.M.+.z.v.v.z.$.c.E.R.E.J.J.+.t.O...c >.m.c.c.6.fXfXfXfXfXfXfXfXfXfXfXfXfXfXfXfXfXfXfXfXfXfXfXfXfXfXfXfXfXfXfXfXfX",
"fXfXfXfXfXfXfX[ c.5X}.m.m.i.x.).oX,X3X4X2X|.].6.v.} G.H.H.n.z.|.E.!.L.b.D.C e.d.>.z x.Z.].%X|.A.fXfXfXfXfXfXfXfXfXfXfXfXfXfXfXfXfXfXfXfXfXfXfXfXfXfXfXfXfXfXfXfX",
"fXfXfXfXfXfXfXfX6.,XXXN.x.S.,X8X0X0X9X9X9X9X8X<X).+.z.%.z.$.6.@Xd.g.g.e.e.e.t. .;.n |.|.}.|.%X%X].B.fXfXfXfXfXfXfXfXfXfXfXfXfXfXfXfXfXfXfXfXfXfXfXfXfXfXfXfXfXfX",
"fXfXfXfXfXfXfXfXfXV.*X3X1X8X9X9X9X9X9X9X9X9X9X0X8XXX6.@.z.i.$.|.%.#.B.A.A.A.8.k m z S.V.}. X%X%X=X|.8.fXfXfXfXfXfXfXfXfXfXfXfXfXfXfXfXfXfXfXfXfXfXfXfXfXfXfXfXfX",
"fXfXfXfXfXfXfXfXfXfX$.}.3X9X9X9X9X9X9X9X9X9X9X1XoX,X<XoX{.].V.C.:.%.|.:X:X:X}.z } c ;.N.|.%X%X%X|.K.].P.B.S.|.S.8.fXfXfXfXfXfXfXfXfXfXfXfXfXfXfXfXfXfXfXfXfXfXfX",
"fXfXfXfXfXfXfXfXfXfXfX#.c.XX1X9X0X9X9X9X9X8X;XXX3X3X&X,X5X9X6XXX}.c.9.].|.|.}. .m { c 7.Z.}.%X%Xc.].K.A.|.%X%X%X|.].P.fXfXfXfXfXfXfXfXfXfXfXfXfXfXfXfXfXfXfXfXfX",
"fXfXfXfXfXfXfXfXfXfXfXS.Z.9.6.Z.}.<X8X9X0XoX[.oX&X&X3X9X9X1X$X-XE.F.s.b.Z.C.C.V.m m ' m m.N.).c.c.S.8.|.%X%X%X%X@X-X^.R.fXfXfXfXfXfXfXfXfXfXfXfXfXfXfXfXfXfXfXfX",
"fXfXfXfXfXfXfXfXfXfXfX|.%X|.S.9.x.z.C.}.<X[.oX|.,X9X9X8X%X-XwXT.T.W.k.d.n.H.H.G.$.z } v ..;.m.@.@.6.S.%X%X%X|.$XR.Q.rXrXeXY.fXfXfXfXfXfXfXfXfXfXfXfXfXfXfXfXfXfX",
"fXfXfXfXfXfXfXfXfXfXfX%X}.S.C.G.H.G.n.v.v.$.S.V.XX6X8XC.R.Y.T.tXsXsXpXyXU.d.G.H.n.m n { k z ' { @.} 7.S.].|.A.k.a.uXuXuXuXrX~.fXfXfXfXfXfXfXfXfXfXfXfXfXfXfXfXfX",
"fXfXfXfXfXfXfXfXfXfXfXZ.V.C.H.H.H.H.H.H.G.M.z.z.>.c.V.+.a.r.iXsXsXsXdXdXaXqXh.D.G.$.z +.m e fXfXfXc ' ;.>.N.%.J a.uXuXuXuXuXuXeXR.fXfXfXfXfXfXfXfXfXfXfXfXfXfXfX",
"fXfXfXfXfXfXfXfXfXfX+.c.G.G.G.G.G.G.H.H.H.H.H.H.G.M.x.%.D e.yXpXpXsXsXsXdXdXiXT.d.z.c +.[ k fXfXfXfXfXfXc } D S a.uXuXuXyXyXuXuXuXeXfXfXfXfXfXfXfXfXfXfXfXfXfXfX",
"fXfXfXfXfXfXfXfXfXfX%.M.G.G.G.G.G.G.H.H.H.H.H.H.H.H.H.M.} b.g./.iXpXpXsXsXuXuXyXT.g.X.c [ k fXfXfXfXfXfXfXfXfXfXfXk.qXrXQ.f.j.I.~.rX/.r.fXfXfXfXfXfXfXfXfXfXfXfX",
"fXfXfXfXfXfXfXfXfX+.>.G.G.G.G.G.G.G.H.H.H.H.G.G.H.H.H.n...].n.y.k.rXpXyXrXrX~./.eXQ.k.H [ e fXfXfXfXfXfXfXfXfXfXfXfXJ j.~.a.N fXfXr.Y.I.a.j.fXfXfXfXfXfXfXfXfXfX",
"fXfXfXfXfXfXfXfXfX+.>.G.H.G.G.H.G.G.H.H.H.H.G.G.H.H.H.n.#.%XH.z.X.d.~.pXI.k.rXW.I./.f.Y.[ k fXfXfXfXfXfXfXfXfXfXfXfXfXF k.a.fXfXfXM G R.r.j.fXfXfXfXfXfXfXfXfXfX",
"fXfXfXfXfXfXfXfXfX+.x.G.H.H.H.H.G.G.G.H.G.G.G.G.G.G.G.n.#.&XG.:.$.G.s./.a.%.w.Q.r.T.r.g.} m fXfXfXfXfXfXfXfXfXfXfXfXfXfXr.r.fXfXK S a.j.K j.fXfXfXfXfXfXfXfXfXfX",
"fXfXfXfXfXfXfXfXfX+.i.G.H.H.H.H.G.G.G.G.G.G.G.G.G.G.G.n...|.H.z.$.M.y.g.q.i.J I.s.g.z.$.} m e fXfXfXfXfXfXfXfXfXfXfXfXfXfXfXfXfXfXq.a.g S r.fXfXfXfXfXfXfXfXfXfX",
"fXfXfXfXfXfXfXfXfX+.x.G.G.G.G.G.H.H.G.G.G.G.H.H.G.G.G.n.} V.Z.C.$.$.H.b.d.x.i.b.G.G.m.:.} m 9 fXfXfXfXfXfXfXfXfXfXfXfXfXfXfXfXfXfXfXfXfXfXfXfXfXfXfXfXfXfXfXfXfX",
"fXfXfXfXfXfXfXfXfX+.x.G.G.G.G.G.H.G.G.G.G.G.H.H.G.G.G.G.%.@.} } } z.H.H.H.m.m.m.G.G.m.:.} { c fXfXfXfXfXfXfXfXfXfXfXfXfXfXfXfXfXfXfXfXfXfXfXfXfXfXfXfXfXfXfXfXfX",
"fXfXfXfXfXfXfXfXfX+.>.G.G.G.G.G.H.H.G.G.G.G.H.H.H.H.H.H.G.M.:.:.:.v.H.H.H.m.m.m.G.G.m.:.} } [ fXfXfXfXfXfXfXfXfXfXfXfXfXfXfXfXfXfXfXfXfXfXfXfXfXfXfXfXfXfXfXfXfX",
"fXfXfXfXfXfXfXfXfX+.x.G.G.G.G.H.H.H.G.G.G.G.G.G.H.H.H.H.H.H.H.H.H.H.H.H.G.G.m.m.G.G.m.:.} } { fXfXfXfXfXfXfXfXfXfXfXfXfXfXfXfXfXfXfXfXfXfXfXfXfXfXfXfXfXfXfXfXfX",
"fXfXfXfXfXfXfXfXfX+.n.H.H.H.H.G.G.G.G.G.G.G.G.G.G.G.G.G.H.H.H.G.G.G.G.H.G.G.m.m.G.G.m.:.} +.} fXfXfXfXfXfXfXfXfXfXfXfXfXfXfXfXfXfXfXfXfXfXfXfXfXfXfXfXfXfXfXfXfX",
"fXfXfXfXfXfXfXfXfX+.n.H.H.H.G.G.G.G.G.G.G.G.G.G.G.G.G.G.H.H.H.G.G.G.G.H.H.G.m.m.M.G.m.:.} +.} fXfXfXfXfXfXfXfXfXfXfXfXfXfXfXfXfXfXfXfXfXfXfXfXfXfXfXfXfXfXfXfXfX",
"fXfXfXfXfXfXfXfXfX+.n.H.G.G.G.G.G.G.H.H.G.H.H.H.H.H.G.G.G.H.G.G.G.G.H.G.H.H.m.m.m.G.m.:.} +.} fXfXfXfXfXfXfXfXfXfXfXfXfXfXfXfXfXfXfXfXfXfXfXfXfXfXfXfXfXfXfXfXfX",
"fXfXfXfXfXfXfXfXfX+.n.H.G.G.G.G.H.H.H.H.H.H.H.H.H.H.H.G.G.G.G.G.G.G.H.H.H.H.m.m.m.G.m.:.} +.} fXfXfXfXfXfXfXfXfXfXfXfXfXfXfXfXfXfXfXfXfXfXfXfXfXfXfXfXfXfXfXfXfX",
"fXfXfXfXfXfXfXfXfX+.n.G.G.G.H.H.G.G.G.H.H.H.G.G.H.H.G.G.G.H.G.G.G.G.G.G.H.H.m.m.m.G.m.:.} +.} fXfXfXfXfXfXfXfXfXfXfXfXfXfXfXfXfXfXfXfXfXfXfXfXfXfXfXfXfXfXfXfXfX",
"fXfXfXfXfXfXfXfXfX+.n.G.G.G.H.H.G.G.G.G.H.G.G.G.G.G.G.G.H.H.G.G.G.G.H.H.H.H.m.m.m.G.m.>.} } } { fXfXfXfXfXfXfXfXfXfXfXfXfXfXfXfXfXfXfXfXfXfXfXfXfXfXfXfXfXfXfXfX",
"fXfXfXfXfXfXfXfXfX+.n.G.G.G.H.H.G.G.G.G.H.H.G.G.G.G.G.G.H.H.G.G.G.G.H.H.H.H.m.m.m.G.m.>.} } +.} fXfXfXfXfXfXfXfXfXfXfXfXfXfXfXfXfXfXfXfXfXfXfXfXfXfXfXfXfXfXfXfX",
"fXfXfXfXfXfXfXfXfX$.n.H.G.G.H.H.G.G.G.G.H.H.G.G.G.G.G.G.H.H.G.G.G.G.H.H.H.H.m.m.m.m.m.>.} } +.} fXfXfXfXfXfXfXfXfXfXfXfXfXfXfXfXfXfXfXfXfXfXfXfXfXfXfXfXfXfXfXfX",
"fXfXfXfXfXfXfXfX} >.G.H.G.G.G.G.G.G.G.G.G.G.G.G.G.G.G.G.G.G.G.G.G.G.H.H.H.G.m.m.m.m.m.i.} } +.} fXfXfXfXfXfXfXfXfXfXfXfXfXfXfXfXfXfXfXfXfXfXfXfXfXfXfXfXfXfXfXfX",
"fXfXfXfXfXfXfXfX+.x.G.H.G.G.G.G.G.G.G.G.H.G.G.G.G.G.G.G.H.G.G.G.G.G.H.H.H.G.m.m.m.m.m.>.} } +.} fXfXfXfXfXfXfXfXfXfXfXfXfXfXfXfXfXfXfXfXfXfXfXfXfXfXfXfXfXfXfXfX",
"fXfXfXfXfXfXfXfX$.n.H.H.G.G.G.G.G.G.H.H.H.H.H.G.G.G.G.G.H.H.G.G.G.G.G.H.G.G.m.m.m.m.m.x.} } +.} fXfXfXfXfXfXfXfXfXfXfXfXfXfXfXfXfXfXfXfXfXfXfXfXfXfXfXfXfXfXfXfX",
"fXfXfXfXfXfXfX} z.G.H.H.G.G.G.G.G.G.H.H.H.H.H.G.G.G.H.H.H.H.G.G.G.G.G.G.G.G.m.m.m.m.m.>.} } +.} fXfXfXfXfXfXfXfXfXfXfXfXfXfXfXfXfXfXfXfXfXfXfXfXfXfXfXfXfXfXfXfX",
"fXfXfXfXfXfXfX+.v.H.H.G.H.H.H.H.G.G.G.H.H.H.G.G.G.H.H.H.H.H.G.G.G.G.G.G.G.N.m.m.m.m.m.:.[ } +.} fXfXfXfXfXfXfXfXfXfXfXfXfXfXfXfXfXfXfXfXfXfXfXfXfXfXfXfXfXfXfXfX",
"fXfXfXfXfXfXfX$.n.H.H.G.H.H.G.H.G.G.H.H.H.H.H.G.H.H.H.H.H.H.G.G.G.G.G.H.H.m.m.m.m.m.m.:.{ +.+.} fXfXfXfXfXfXfXfXfXfXfXfXfXfXfXfXfXfXfXfXfXfXfXfXfXfXfXfXfXfXfXfX",
"fXfXfXfXfXfXfX-.G.H.G.G.G.G.G.G.G.G.G.G.H.H.G.G.G.G.G.G.H.H.G.G.G.G.H.H.G.m.m.m.m.m.m.:.} +.+.} fXfXfXfXfXfXfXfXfXfXfXfXfXfXfXfXfXfXfXfXfXfXfXfXfXfXfXfXfXfXfXfX",
"fXfXfXfXfXfXfX%.H.H.G.G.G.G.G.G.G.G.G.G.G.G.G.G.G.G.G.G.H.H.G.G.G.G.H.H.N.m.m.m.m.m.m.:.} +.} { fXfXfXfXfXfXfXfXfXfXfXfXfXfXfXfXfXfXfXfXfXfXfXfXfXfXfXfXfXfXfXfX",
"fXfXfXfXfXfXfX%.G.H.H.H.H.H.G.G.G.H.H.H.H.H.H.H.H.H.G.G.G.H.H.H.G.G.G.M.m.m.m.m.m.m.m.:.} +.[ fXfXfXfXfXfXfXfXfXfXfXfXfXfXfXfXfXfXfXfXfXfXfXfXfXfXfXfXfXfXfXfXfX",
"fXfXfXfXfXfXfXfX$.x.G.H.H.H.H.H.H.H.H.H.H.H.H.H.H.H.H.G.H.H.H.H.H.G.N.m.m.m.m.m.m.m.m.>.[ m fXfXfXfXfXfXfXfXfXfXfXfXfXfXfXfXfXfXfXfXfXfXfXfXfXfXfXfXfXfXfXfXfXfX",
"fXfXfXfXfXfXfXfXfX} $.$.4.4.4.4.4.z.v.z.v.v.v.v.v.n.n.v.n.n.v.v.x.>.:.>.;.@.@.@.@.-.-.@.' e fXfXfXfXfXfXfXfXfXfXfXfXfXfXfXfXfXfXfXfXfXfXfXfXfXfXfXfXfXfXfXfXfXfX",
"fXfXfXfXfXfXfXfXfXfX% 0 l l l l l l x x h l x x v x y fX3 q 0 0 0 0 h h 7 4 2 7 7 4 < 3 fXfXfXfXfXfXfXfXfXfXfXfXfXfXfXfXfXfXfXfXfXfXfXfXfXfXfXfXfXfXfXfXfXfXfXfX",
"fXfXfXfXfXfXfXfXfXfXo f h w l l l l l q 1 0 l l l : fXfXX ; ; ; , 1 6 6 : : > 5 1 : X fXfXfXfXfXfXfXfXfXfXfXfXfXfXfXfXfXfXfXfXfXfXfXfXfXfXfXfXfXfXfXfXfXfXfXfXfX",
"fXfXfXfXfXfXfXfXfXfXO F J j q q l l l 0 1 q l l q + fXfX# , , 1 6 6 > : > 6 1 4 2 + fXfXfXfXfXfXfXfXfXfXfXfXfXfXfXfXfXfXfXfXfXfXfXfXfXfXfXfXfXfXfXfXfXfXfXfXfXfX",
"fXfXfXfXfXfXfXfXfX. f 0.q.q.F V h h w 5 0 l l l % fXfXO , 5 6 6 6 > : > 1 4 3 * > , fXfXfXfXfXfXfXfXfXfXfXfXfXfXfXfXfXfXfXfXfXfXfXfXfXfXfXfXfXfXfXfXfXfXfXfXfXfX",
"fXfXfXfXfXfXfXfXfX. B q.q.q.q.q.J V B 3 < q q w # fXfX+ 4 1 1 1 1 < 4 a a 4 : 6 > > : fXfXfXfXfXfXfXfXfXfXfXfXfXfXfXfXfXfXfXfXfXfXfXfXfXfXfXfXfXfXfXfXfXfXfXfXfX",
"fXfXfXfXfXfXfXfXfX. N q.q.q.q.q.0.F G t 2 B j h @ fXfX+ s s s s s s s a < : : : & & & * fXfXfXfXfXfXfXfXfXfXfXfXfXfXfXfXfXfXfXfXfXfXfXfXfXfXfXfXfXfXfXfXfXfXfXfX",
"fXfXfXfXfXfXfXfXfX. N q.q.q.q.J G F G t r B B B @ fXfXO : r r r r r 2 % % = u i g M Z Z M S fXfXfXfXfXfXfXfXfXfXfXfXfXfXfXfXfXfXfXfXfXfXfXfXfXfXfXfXfXfXfXfXfXfX",
"fXfXfXfXfXfXfXfXfX. N q.J F F V V V V d = f g f @ fXfXO = = = = = = r u u u u i d g G e.a.a.e.G S b g fXfXfXfXfXfXfXfXfXfXfXfXfXfXfXfXfXfXfXfXfXfXfXfXfXfXfXfXfX",
"fXfXfXfXfXfXfXfXfXo f V V F G G G F B V t * r @ fXfXfXO O & & & & & * = & & $ $ & & * = t g Z Z Z Z g d p u $ fXfXfXfXfXfXfXfXfXfXfXfXfXfXfXfXfXfXfXfXfXfXfXfXfX",
"fXfXfXfXfXfXfXfXfXfX* f M M M f V F q.0.F M g u u fXfXfXO @ @ @ @ @ fXfXfX  o O = - - = - i p p p p p M d p fXfXfXfXfXfXfXfXfXfXfXfXfXfXfXfXfXfXfXfXfXfXfXfXfXfX",
"fXfXfXfXfXfXfXfXfXfXO - g i r - g G a.a.e.J J J G M p fXfXfXfXfXfXfXfXfXfXfXfXfXfXfXfXfXfXfXfXfXfXfXfXfXfXfXfXfXfXfXfXfXfXfXfXfXfXfXfXfXfXfXfXfXfXfXfXfXfXfXfXfX",
"fXfXfXfXfXfXfXfXfXfXfX= M M p u u p g S K e.s.f.f.p.K M p - fXfXfXfXfXfXfXfXfXfXfXfXfXfXfXfXfXfXfXfXfXfXfXfXfXfXfXfXfXfXfXfXfXfXfXfXfXfXfXfXfXfXfXfXfXfXfXfXfXfX",
"fXfXfXfXfXfXfXfXfXfXfXfX* = = = * & & & & & = - - = = = = & o fXfXfXfXfXfXfXfXfXfXfXfXfXfXfXfXfXfXfXfXfXfXfXfXfXfXfXfXfXfXfXfXfXfXfXfXfXfXfXfXfXfXfXfXfXfXfXfXfX"
};
