/* XPM */
static char *result[] = {
/* columns rows colors chars-per-pixel */
"80 80 236 2 ",
"   c #240D1C",
".  c #241323",
"X  c #2B1722",
"o  c #291926",
"O  c #3C2428",
"+  c #372A37",
"@  c #362D35",
"#  c #3E2930",
"$  c #393237",
"%  c #3B333B",
"&  c #3D3A3D",
"*  c #4F1815",
"=  c #4B1D19",
"-  c #531B19",
";  c #6F0D0D",
":  c #4A2017",
">  c #52281D",
",  c #7F201F",
"<  c #4A1C20",
"1  c #4A272A",
"2  c #562824",
"3  c #542A2D",
"4  c #533122",
"5  c #5D312B",
"6  c #593629",
"7  c #492F37",
"8  c #5D3434",
"9  c #5C393D",
"0  c #6E312B",
"q  c #603A2F",
"w  c #633231",
"e  c #633B38",
"r  c #644333",
"t  c #674D3F",
"y  c #6C483E",
"u  c #714D3F",
"i  c #3E3640",
"p  c #413C42",
"a  c #473A4A",
"s  c #533D46",
"d  c #444345",
"f  c #474348",
"g  c #4A454A",
"h  c #4A4A4C",
"j  c #53434A",
"k  c #574949",
"l  c #4A4251",
"z  c #4E4C53",
"x  c #514B52",
"c  c #554A58",
"v  c #4F5055",
"b  c #515155",
"n  c #54545B",
"m  c #5B565C",
"M  c #694A45",
"N  c #724E40",
"B  c #665441",
"V  c #735243",
"C  c #775648",
"Z  c #725B4E",
"A  c #674A52",
"S  c #7C4856",
"D  c #685758",
"F  c #745C53",
"G  c #795D57",
"H  c #766156",
"J  c #786256",
"K  c #7D625B",
"L  c #5C5B63",
"P  c #5B5A65",
"I  c #655B68",
"U  c #636364",
"Y  c #676369",
"T  c #6C6C6C",
"R  c #796665",
"E  c #666572",
"W  c #6B6373",
"Q  c #6C6A74",
"!  c #6D6778",
"~  c #6D6B7B",
"^  c #746D77",
"/  c #726E7D",
"(  c #737374",
")  c #75737B",
"_  c #7B7678",
"`  c #8B0E0F",
"'  c #950606",
"]  c #991718",
"[  c #A50304",
"{  c #A92C1C",
"}  c #972222",
"|  c #933133",
" . c #A02326",
".. c #99483F",
"X. c #9C3A43",
"o. c #994F50",
"O. c #8A5354",
"+. c #A75155",
"@. c #83645C",
"#. c #87685E",
"$. c #94795B",
"%. c #A1665A",
"&. c #955E65",
"*. c #A85962",
"=. c #846363",
"-. c #896767",
";. c #8C6A64",
":. c #836B6B",
">. c #846869",
",. c #8B6B6A",
"<. c #966465",
"1. c #916E6D",
"2. c #88736C",
"3. c #98786F",
"4. c #806B72",
"5. c #9A6B75",
"6. c #887878",
"7. c #947373",
"8. c #9B7575",
"9. c #957B73",
"0. c #9A7A74",
"q. c #947A7D",
"w. c #9C7A7A",
"e. c #A56D79",
"r. c #A17576",
"t. c #AF7471",
"y. c #A17E76",
"u. c #A37C7C",
"i. c #AA7E7E",
"p. c #928172",
"a. c #9B8476",
"s. c #988478",
"d. c #A7877B",
"f. c #A3837C",
"g. c #A98D7E",
"h. c #716F80",
"j. c #737384",
"k. c #7C7B84",
"l. c #7D7C89",
"z. c #867C86",
"x. c #997E82",
"c. c #A97A85",
"v. c #7F808B",
"b. c #848284",
"n. c #898085",
"m. c #83828A",
"M. c #8A848B",
"N. c #8C8A8C",
"B. c #978586",
"V. c #868690",
"C. c #8B8B93",
"Z. c #959093",
"A. c #989497",
"S. c #9B9B9C",
"D. c #A58483",
"F. c #AC8483",
"G. c #AB8B84",
"H. c #A9878A",
"J. c #AD8C8B",
"K. c #B58484",
"L. c #B68787",
"P. c #B38C84",
"I. c #B48D8D",
"U. c #A69688",
"Y. c #AC938C",
"T. c #B69385",
"R. c #B4948C",
"E. c #B8998B",
"W. c #A88C93",
"Q. c #B38E90",
"!. c #A99B97",
"~. c #B59494",
"^. c #BA9695",
"/. c #BC9B94",
"(. c #B49A99",
"). c #BD9C9B",
"_. c #BBA38D",
"`. c #AEA193",
"'. c #BAA393",
"]. c #9E9EA4",
"[. c #A4A4A5",
"{. c #A5A5AA",
"}. c #ABABAD",
"|. c #BAA4A6",
" X c #B4AFB0",
".X c gray71",
"XX c #B9B7BA",
"oX c #C09F8D",
"OX c #C99695",
"+X c #C09F94",
"@X c #C19D9C",
"#X c #C7A793",
"$X c #C5A494",
"%X c #C7AA97",
"&X c #C5A59B",
"*X c #CCAC9D",
"=X c #CDB19A",
"-X c #D2B39D",
";X c #D5BB9E",
":X c #C5A4A4",
">X c #C8A7A6",
",X c #CAA9A5",
"<X c #D2AAA4",
"1X c #CCB1A4",
"2X c #D3B3A3",
"3X c #D6BAA2",
"4X c #DBBCA4",
"5X c #D7B6A8",
"6X c #DCBCA9",
"7X c #E0BFA9",
"8X c #BFC0BF",
"9X c #DCC1A5",
"0X c #DBC0A8",
"qX c #E0C5A6",
"wX c #E3C4AB",
"eX c #E8C7AE",
"rX c #E6CAAB",
"tX c #EBCCAE",
"yX c #EECDB1",
"uX c #F0CFB1",
"iX c #EFD1B0",
"pX c #F5D4B3",
"aX c #F8D7B5",
"sX c #F9D8B6",
"dX c #BDBDC1",
"fX c #C5BFC2",
"gX c #C7C5C6",
"hX c #CACACB",
"jX c #D0CBC8",
"kX c #CECED0",
"lX c #D0D1D1",
"zX c #DADADA",
"xX c #E1DADD",
"cX c #E6E6E6",
"vX c #E9E9E8",
"bX c None",
/* pixels */
"bXbXbXbXbXbXbXbXbXbXbXbXbXbXbXbXbXbXbXbXbXbXbXbXbXbXbXbXbXbXbXbXbXbXbXbXbXbXbXbXbXbXbXbXbXbXbXbXbXbXbXbXbXbXbXbXbXbXbXbXbXbXbXbXbXbXbXbXbXbXbXbXbXbXbXbXbXbXbXbX",
"bXbXbXbXbXbXbXbXbXbXbXbXbXbXbXbXbXbXbXbXbXbXbXbXbXbXbXbXbXbXbXbXbXbXbXbXbXbXbXbXbXbXbXbXbXbXbXbXbXbXbXbXbXbXbXbXbXbXbXbXbXbXbXbXbXbXbXbXbXbXbXbXbXbXbXbXbXbXbXbX",
"bXbXbXbXbXbXbXbXbXbXbXbXbXbXbXbXbXbXbXbXbXbXbXbXbXbXbXbXbXbXbXbXbXu.I.~.~.Q.~.~.c.bXbXbXbXbXbXbXbXbXbXbXbXbXbXbXbXbXbXbXbXbXbXbXbXbXbXbXbXbXbXbXbXbXbXbXbXbXbXbX",
"bXbXbXbXbXbXbXbXbXbXbXbXbXbXbXbXbXbXbXbXbXbXbXbXbXbXbXbXbXbXbX<.i.K.Q.~.~.~.~.~.~.~.~.c.5.bXbXbXbXbXbXbXbXbXbXbXbXbXbXbXbXbXbXbXbXbXbXbXbXbXbXbXbXbXbXbXbXbXbXbX",
"bXbXbXbXbXbXbXbXbXbXbXbXbXbXbXbXbXbXbXbXbXbXbXbXbXbXbXbXbXbX` ] ] ' | +.+.c.Q.~.~.Q.H.c.c.e.<.<.bXbXbXbXbXbXbXbXbXbXbXbXbXbXbXbXbXbXbXbXbXbXbXbXbXbXbXbXbXbXbXbX",
"bXbXbXbXbXbXbXbXbXbXbXbXbXbXbXbXbXbXbXbXbXbXbXbXbXbXbX<XbXOXt.t.+. .} ' ' ] ] } o.*.e.5.<.<.<.<.bXbXbXbXbXbXbXbXbXbXbXbXbXbXbXbXbXbXbXbXbXbXbXbXbXbXbXbXbXbXbXbX",
"bXbXbXbXbXbXbXbXbXbXbXbXbXbXbXbXbXbXbXbXbXbXbXbXbXbXbXbXbXbXR R :.I.c.t.*.+.] ` ' ' } } | O.O.bXbXbXbXbXbXbXbXbXbXbXbXbXbXbXbXbXbXbXbXbXbXbXbXbXbXbXbXbXbXbXbXbX",
"bXbXbXbXbXbXbXbXbXbXbXbXbXbXbXbXbXbXbXbXbXbXbXbXbXbXbXbXg.h n b h m g Y q.:.5.e.o.X.| ' ; ; ; bXbXbXbXbXbXbXbXbXbXbXbXbXbXbXbXbXbXbXbXbXbXbXbXbXbXbXbXbXbXbXbXbX",
"bXbXbXbXbXbXbXbXbXbXbXbXbXbXbXbXbXbXbXbXbXbXbXbXbXbX%X;XT.z E n P ~ E E ~ E z.fXxX|.q.S 5.&.&.bXbXbXbXbXbXbXbXbXbXbXbXbXbXbXbXbXbXbXbXbXbXbXbXbXbXbXbXbXbXbXbXbX",
"bXbXbXbXbXbXbXbXbXbXbXbXbXbXbXbXbXbXbXbXbXbXbXbXT.qXqX9Xp.B n L j.j.j.j.m.C.b.}.8X.XA.m ^ D bX<.<.<.bXbXbXbXbXbXbXbXbXbXbXbXbXbXbXbXbXbXbXbXbXbXbXbXbXbXbXbXbXbX",
"bXbXbXbXbXbXbXbXbXbXbXbXbXbXbXbXbXbXbXbXbXbX3XwXE.tX9X;Xa.$.B m j.j.j.j.m.m.Q ) U .X.XC.Q bXbXbXbXbXbXbXbXbXbXbXbXbXbXbXbXbXbXbXbXbXbXbXbXbXbXbXbXbXbXbXbXbXbXbX",
"bXbXbXbXbXbXbXbXbXbXbXbXbXbXbXbXbXbX4XwXpXpXpXpXoX%XE._._.S.B.F k E j.l._ b.( _ [.[.b.m.bXbXbXbXbXbXbXbXbXbXbXbXbXbXbXbXbXbXbXbXbXbXbXbXbXbXbXbXbXbXbXbXbXbXbXbX",
"bXbXbXbXbXbXbXbXbXbXbXbXbXbXbX-X9XrXtXiXpXpXaXaXwXwX>X/._.;X`.Z.R M F _ _ T N.b.T n H 2.bXbXbXbXbXbXbXbXbXbXbXbXbXbXbXbXbXbXbXbXbXbXbXbXbXbXbXbXbXbXbXbXbXbXbXbX",
"bXbXbXbXbXbXbXbXbXbXbXbXbXwXyXpXpXpXpXpXiXiXpXtXeX*X5X7XtXpX9X%X!.Z.s.J J H 6.6.Y 2.9.bXbXbXbXbXbXbXbXbXbXbXbXbXbXbXbXbXbXbXbXbXbXbXbXbXbXbXbXbXbXbXbXbXbXbXbXbX",
"bXbXbXbXbXbXbXbXbXbXbXbX9XpXaXpXeXaXaXpXpXpXwX5X2X)./.&X2XwXtXtX3X%X X[.k.0 { { n.a.G.9.bXbXbXbXbXbXbXbXbXbXbXbXbXbXbXbXbXbXbXbXbXbXbXbXbXbXbXbXbXbXbXbXbXbXbXbX",
"bXbXbXbXbXbXbXbXbXbXbX/.tXpXtXeXtXpXaXtXtXaXpXwXwXyXrX2X&X^.$X4XwX9X9X`.B., ' [ o.6.g.T.a.Y bXbXbXbXbXbXbXbXbXbXbXbXbXbXbXbXbXbXbXbXbXbXbXbXbXbXbXbXbXbXbXbXbXbX",
"bXbXbXbXbXbXbXbXbXbXbX#XrX;X=XpXaXpXrX2XwXaXpXpX-X5XpXaXyX4X&X/./.%X*X-X%Xd.| ' [ O.0.T.a.R bXbXbXbXbXbXbXbXbXbXbXbXbXbXbXbXbXbXbXbXbXbXbXbXbXbXbXbXbXbXbXbXbXbX",
"bXbXbXbXbXbXbXbXbXbXbX$XoX%XqXpXiX6X>X>XeXaXpXpX-X).6XuXaXaXpXtX0X*X^.^.^.&XE.%.] ' <.K.8.2.g.bXbXbXbXbXbXbXbXbXbXbXbXbXbXbXbXbXbXbXbXbXbXbXbXbXbXbXbXbXbXbXbXbX",
"bXbXbXbXbXbXbXbXbXbXbXR.+X9XqXwX1X:X>X6XpXpXpXpXqXf.:X1XeXpXaXaXaXpXtX2X).~./.$Xg...} r.:.0.g.s.bXbXbXbXbXbXbXbXbXbXbXbXbXbXbXbXbXbXbXbXbXbXbXbXbXbXbXbXbXbXbXbX",
"bXbXbXbXbXbXbXbXbXbXbXK.:X2X2X>X:X>XwXtXtXaXpXpX9X7.).:X>X5XyXpXaXpXaXpXtX=X^.~./.E.t.O.:.d.T.d.bXbXbXbXbXbXbXbXbXbXbXbXbXbXbXbXbXbXbXbXbXbXbXbXbXbXbXbXbXbXbXbX",
"bXbXbXbXbXbXbXbXbXbXbXK.:X:X:X@X&XeXpXrXtXaXaXaX-X1.@X:X:X:X,X7XyXiXpXaXaXpX3X&X~.~./.f.,.K.P.f.bXbXbXbXbXbXbXbXbXbXbXbXbXbXbXbXbXbXbXbXbXbXbXbXbXbXbXbXbXbXbXbX",
"bXbXbXbXbXbXbXbXbXbXbXK.:X@X^.<XuXpXtX9XiXaXaXaX/.,.).:X:X:X:X:X,X%X%X4XrXrXqX9X*X^.~.~.0.;.L.8.=.bXbXbXbXbXbXbXbXbXbXbXbXbXbXbXbXbXbXbXbXbXbXbXbXbXbXbXbXbXbXbX",
"bXbXbXbXbXbXbXbXbXbXbXK.^.@X2XpXpXqX3XrXpXpXaXaX0.7.~.:X:X:X:X:X:X~.D.f.&X3X9X9X9X3X&XH.K @.F.1.3.,.bXbXbXbXbXbXbXbXbXbXbXbXbXbXbXbXbXbXbXbXbXbXbXbXbXbXbXbXbXbX",
"bXbXbXbXbXbXbXbXbXbXbXL.@X:X2XrX;X;XqXpXtXtXsXaX0.7.~.@X:X:X:X:X:X:XI.I.:X>X>X>X>X>X:X~.,.;.8.7.P.y.,.bXbXbXbXbXbXbXbXbXbXbXbXbXbXbXbXbXbXbXbXbXbXbXbXbXbXbXbXbX",
"bXbXbXbXbXbXbXbXbXbX=.J.:X:X:X*X2X0XeXyX5X6XyXyX0.7.H.~.).&X:X:X:X:X:X:X:X:X(.(.|.|.(.(.D.1.1.8.K.T.1.bXbXbXbXbXbXbXbXbXbXbXbXbXbXbXbXbXbXbXbXbXbXbXbXbXbXbXbXbX",
"bXbXbXbXbXbXbXbXbXbXbXF.:X:X~.H.H.H.H.D.D.D.D.R.,.-.7.w.w.w.D.^.).J.J.J.J.w.k.{.N.N.N.z.6.F -.i.8.7.,.K bXbXbXbXbXbXbXbXbXbXbXbXbXbXbXbXbXbXbXbXbXbXbXbXbXbXbXbX",
"bXbXbXbXbXbXbXbXbXbXbX-.~.H.i.K.K.i.u.P.$X#X$X%X$XE.T.G.J.~.H.D.u.w././.R.1.M.hX~.~.R.B.B.;.K 7.,.,.,.K Z bXbXbXbXbXbXbXbXbXbXbXbXbXbXbXbXbXbXbXbXbXbXbXbXbXbXbX",
"bXbXbXbXbXbXbXbXbXbXbXbXK.).^.L.F.I.&X9XpXsXsXsXsXpXtX9X_.Y.D.w.u.w.~.~.7.H.S.hX(.~.H.6.n.R F 7.7.0.0.f.a.d.9.7.bXbXbXbXbXbXbXbXbXbXbXbXbXbXbXbXbXbXbXbXbXbXbXbX",
"bXbXbXbXbXbXbXbXbXbXbXbX7.~.:X@X).:X>X>X2X6XtXpXpXaXaXsXpX_.9.9.1.9.~.~.1.$XA.}.z.M.M.^ I K @.i.r.u.i.d.F.P.P.P.f.2.bXbXbXbXbXbXbXbXbXbXbXbXbXbXbXbXbXbXbXbXbXbX",
"bXbXbXbXbXbXbXbXbXbXbXbXbX8.~.:X:X:X:X:X:X:X>X1X6XwXpXwX=X9XyX_.g.$XE.a.0.T.W.s.Y.!.U.p.K @.K 8.F.K.K.K.K.K.K.K.f.9.p.9.2.:.bXbXbXbXbXbXbXbXbXbXbXbXbXbXbXbXbXbX",
"bXbXbXbXbXbXbXbXbXbXbXbXbXbX,.D.J.).:X:X:X:X:X:X:X:X*XU.%X9X%X3XpXaXtX3X'.g.B.,.-X-X2X*Xg.7.;.;.K.K.K.K.K.K.F.8.8.K.u.7.f.P.g.9.s.bXbXbXbXbXbXbXbXbXbXbXbXbXbXbX",
"bXbXbXbXbXbXbXbXbXbXbXbXbXbXbXbXT.D.D.H.^.:X:X:X:X:X7.H.R.Y.E.6XwXqX1XgXjXjXgXZ.Y.$X$X$XG.7.u.K 3.L.L.K.K.r.,.>.7.8.w.K.K.K.d.B.A.M.j.bXbXbXbXbXbXbXbXbXbXbXbXbX",
"bXbXbXbXbXbXbXbXbXbXbXbXbXbXbXbX$X2X$XP.D.w.H.~.~.).,.J.8.:X:X).Y. X}.XXlXzXzXzXhX.X(.J.R.w.8.#.J ,.7.i.F.D 8.D =.i.K.K.F.u.B.6.C.A.[.S.( bXbXbXbXbXbXbXbXbXbXbX",
"bXbXbXbXbXbXbXbXbXbXbXbXbXbXbXg.2X&X^.~.~.I.H.D.u.w.1.J.,.^.>Xq.( [.{.lXcXvXvXvXvXcXkX XW.w.8.;.k bXbXD F h 7.k 8.L.K.u.B.b.k.S..X.X.X.X}.N.bXbXbXbXbXbXbXbXbXbX",
"bXbXbXbXbXbXbXbXbXbXbXbXbXbXbXE.&X~.~.~.~.~.~.~.~.I.L.w.8.w.D.:.Y m.].lXzXcXcXcXvXvXvXcXkXA.7.8.F bXbXbXbXbXh d D 7.8.6.( L A..X.X.X.X.X.X.XS.( bXbXbXbXbXbXbXbX",
"bXbXbXbXbXbXbXbXbXbXbXbXbXbXbXT.~.~.~.~.~.~.~.~.~.~.~.~.~.~.J.H.x._ R N.XXzXcXcXvXcXzXzXhXhXXXB.F bXbXbXbXbXbXbXbXbXk T Y n Y N.}..X.X}.T S..XS.T bXbXbXbXbXbXbX",
"bXbXbXbXbXbXbXbXbXbXbXbXbXbXbXP.~.~.~.~.~.~.~.~.~.~.~.~.~.~.~.~.~.D.7.R _ !.hXhXgXzXhX}.gX.X.XdXA.bXbXbXbXbXbXbXbXbXbXbXbXbXbXbX( S.}.[.m b ( ].[.b.bXbXbXbXbXbX",
"bXbXbXbXbXbXbXbXbXbXbXbXbXbXbXL.~.~.~.~.~.~.~.~.~.~.~.~.~.~.~.~.~.D.7.,.u.q.M.gX}.A.gXlX[.].[.C. Xm.bXbXbXbXbXbXbXbXbXbXbXbXbXbXbXbX( N.N.b f L b.[._ bXbXbXbXbX",
"bXbXbXbXbXbXbXbXbXbXbXbXbXbXw.~.~.~.~.~.~.~.~.~.~.~.~.~.~.~.~.~.~.D.7.,.D.~.^ [.XX/ z.{.{.) [.V.l.) bXbXbXbXbXbXbXbXbXbXbXbXbXbXbXbXbXU ( T h h n T ( U bXbXbXbX",
"bXbXbXbXbXbXbXbXbXbXbXbXbXbXw.~.~.~.~.~.~.~.~.~.~.~.~.~.~.~.~.~.~.D.7.-.D.~.D.) {.^ u.k.S.! M.k.4.>.bXbXbXbXbXbXbXbXbXbXbXbXbXbXbXbXbXbXbXbXbXbXz n _ T bXbXbXbX",
"bXbXbXbXbXbXbXbXbXbXbXbXbXbXw.~.~.~.~.~.~.~.~.~.~.~.~.~.~.~.~.~.~.D.7.-.D.~.~.B.M.^ F.x.z.q.8.:.7.,.bXbXbXbXbXbXbXbXbXbXbXbXbXbXbXbXbXbXbXbXbXbXbXh U bXbXbXbXbX",
"bXbXbXbXbXbXbXbXbXbXbXbXbXbXw.~.~.~.~.~.~.~.~.~.~.~.~.~.~.~.~.~.~.D.7.-.H.~.~.R.D.,.~.I.L.K.8.,.7.,.bXbXbXbXbXbXbXbXbXbXbXbXbXbXbXbXbXbXbXbXbXbXbXbXbXbXbXbXbXbX",
"bXbXbXbXbXbXbXbXbXbXbXbXbXbXw.~.~.~.~.~.~.~.~.~.~.~.~.~.~.~.~.~.~.D.7.,.w.u.7.8.w.w.~.~.I.K.7.,.7.,.bXbXbXbXbXbXbXbXbXbXbXbXbXbXbXbXbXbXbXbXbXbXbXbXbXbXbXbXbXbX",
"bXbXbXbXbXbXbXbXbXbXbXbXbXbXw.~.~.~.~.~.~.~.~.~.~.~.~.~.^.$X+X^.~.D.7.7.7.1.u.I.~.~.~.~.I.u.,.,.7.,.bXbXbXbXbXbXbXbXbXbXbXbXbXbXbXbXbXbXbXbXbXbXbXbXbXbXbXbXbXbX",
"bXbXbXbXbXbXbXbXbXbXbXbXbXbXw.~.~.~.~.~.~.~.~.~.~.~.~.^.$X$X$X+X~.J.H.H.H.H.I.~.~.~.~.~.I.r.,.7.7.-.bXbXbXbXbXbXbXbXbXbXbXbXbXbXbXbXbXbXbXbXbXbXbXbXbXbXbXbXbXbX",
"bXbXbXbXbXbXbXbXbXbXbXbXbXbXw.~.~.~.~.~.~.~.~.~.~.~.~.$X$X$X$X+X~.~.~.~.~.~.~.~.~.~.~.~.K.r.,.7.7.,.-.bXbXbXbXbXbXbXbXbXbXbXbXbXbXbXbXbXbXbXbXbXbXbXbXbXbXbXbXbX",
"bXbXbXbXbXbXbXbXbXbXbXbXbXbXw.~.~.~.~.~.~.~.~.~.~.~./.$X$X$X$X$X^.~.~.~.~.~.~.~.~.~.~.~.K.7.,.7.7.7.-.bXbXbXbXbXbXbXbXbXbXbXbXbXbXbXbXbXbXbXbXbXbXbXbXbXbXbXbXbX",
"bXbXbXbXbXbXbXbXbXbXbXbXbX7.F.~.~.~.~.~.~.~.~.~.~.~.$X$X$X$X$X$X/.~.~.~.~.~.~.~.~.~.~.I.i.,.,.7.7.7.-.bXbXbXbXbXbXbXbXbXbXbXbXbXbXbXbXbXbXbXbXbXbXbXbXbXbXbXbXbX",
"bXbXbXbXbXbXbXbXbXbXbXbXbX7.~.~.~.~.~.~.~.~.~.~.~.~.$X$X$X$X$X$X/.~.~.~.~.~.~.~.~.~.~.K.u.,.7.7.7.7.-.bXbXbXbXbXbXbXbXbXbXbXbXbXbXbXbXbXbXbXbXbXbXbXbXbXbXbXbXbX",
"bXbXbXbXbXbXbXbXbXbXbXbXbXu.~.~.~.~.~.~.~.~.~.~.~.~.$X$X$X$X$X$X/.~.~.~.~.~.~.~.~.~.I.K.u.,.7.7.7.7.-.bXbXbXbXbXbXbXbXbXbXbXbXbXbXbXbXbXbXbXbXbXbXbXbXbXbXbXbXbX",
"bXbXbXbXbXbXbXbXbXbXbXbX7.~.~.~.~.~.~.~.~.~.~.~.~.~.^.$X$X$X$X$X~.~.~.~.~.~.~.~.~.~.K.K.8.,.7.7.7.7.7.bXbXbXbXbXbXbXbXbXbXbXbXbXbXbXbXbXbXbXbXbXbXbXbXbXbXbXbXbX",
"bXbXbXbXbXbXbXbXbXbXbX7.F.~.~.~.~.~.~.~.~.~.~.~.~.~.~.$X$X$X/.^.~.~.~.~.~.~.~.~.~.~.K.i.,.,.7.7.7.7.F.,.bXbXbXbXbXbXbXbXbXbXbXbXbXbXbXbXbXbXbXbXbXbXbXbXbXbXbXbX",
"bXbXbXbXbXbXbXbXbXbX8.u.~.~.~.~.~.~.~.~.~.~.~.~.~.~.~.~.$X+X~.~.~.~.~.~.~.~.~.~.~.~.K.i.,.7.7.7.7.7.F.,.bXbXbXbXbXbXbXbXbXbXbXbXbXbXbXbXbXbXbXbXbXbXbXbXbXbXbXbX",
"bXbXbXbXbXbXbXbXbXu.F.~.~.~.~.~.~.~.~.~.~.~.~.~.~.~.~.~./.~.~.~.~.~.~.~.~.~.~.~.~.K.K.8.,.7.7.7.7.i.K.r.-.bXbXbXbXbXbXbXbXbXbXbXbXbXbXbXbXbXbXbXbXbXbXbXbXbXbXbX",
"bXbXbXbXbXbXbXbX8.J.~.~.~.~.~.~.~.~.~.~.~.~.~.~.~.~.~.~.~.~.~.~.~.~.~.~.~.~.~.~.~.K.F.,.,.7.7.7.7.i.K.K.-.bXbXbXbXbXbXbXbXbXbXbXbXbXbXbXbXbXbXbXbXbXbXbXbXbXbXbX",
"bXbXbXbXbXbXbX7.H.~.~.~.~.~.~.~.~.~.~.~.~.~.~.~.~.~.~.~.I.L.~.~.~.~.~.~.~.~.~.~.L.K.u.-.,.7.7.7.u.K.K.K.-.bXbXbXbXbXbXbXbXbXbXbXbXbXbXbXbXbXbXbXbXbXbXbXbXbXbXbX",
"bXbXbXbXbXbXbXu.I.~.~.~.~.~.~.~.~.~.~.~.~.~.~.~.~.~.~.~.K.L.~.~.~.~.~.~.~.~.~.~.K.K.7.=.,.7.7.7.i.K.K.K.-.bXbXbXbXbXbXbXbXbXbXbXbXbXbXbXbXbXbXbXbXbXbXbXbXbXbXbX",
"bXbXbXbXbXbXbXD.~.~.~.~.~.~.~.~.~.~.~.~.~.~.~.~.~.~.I.K.K.I.~.~.~.~.~.~.~.~.~.I.K.c.,.=.,.7.7.7.i.K.K.u.-.bXbXbXbXbXbXbXbXbXbXbXbXbXbXbXbXbXbXbXbXbXbXbXbXbXbXbX",
"bXbXbXbXbXbXbXD.~.~.~.~.~.~.~.~.~.~.~.~.~.~.~.~.~.L.K.K.~.~.~.~.~.~.~.~.~.~.~.K.K.7.=.=.,.7.7.7.i.K.K.,.bXbXbXbXbXbXbXbXbXbXbXbXbXbXbXbXbXbXbXbXbXbXbXbXbXbXbXbX",
"bXbXbXbXbXbXbXD.~.~.~.~.~.~.~.~.~.~.~.~.~.~.~.~.~.~.I.~.~.~.~.~.~.~.~.~.~.~.~.K.K.7.=.=.,.7.7.7.8.i.u.-.bXbXbXbXbXbXbXbXbXbXbXbXbXbXbXbXbXbXbXbXbXbXbXbXbXbXbXbX",
"bXbXbXbXbXbXbXD.~.~.~.~.~.~.~.~.~.~.~.~.~.~.~.~.~.~.~.~.~.~.~.~.~.~.~.~.~.~.K.K.u.,.=.=.,.7.7.7.7.7.Z bXbXbXbXbXbXbXbXbXbXbXbXbXbXbXbXbXbXbXbXbXbXbXbXbXbXbXbXbX",
"bXbXbXbXbXbXbXu.I.~.~.~.~.~.~.~.~.~.~.~.~.~.~.~.~.~.~.~.~.~.~.~.~.~.~.~.~.~.K.K.7.=.=.=.,.7.7.7.-.F bXbXbXbXbXbXbXbXbXbXbXbXbXbXbXbXbXbXbXbXbXbXbXbXbXbXbXbXbXbX",
"bXbXbXbXbXbXbXbX8.u.H.I.~.~.~.~.~.~.~.~.~.~.~.~.~.~.~.~.~.~.~.~.~.~.~.~.~.L.K.K.1.=.=.G K -.K Z bXbXbXbXbXbXbXbXbXbXbXbXbXbXbXbXbXbXbXbXbXbXbXbXbXbXbXbXbXbXbXbX",
"bXbXbXbXbXbXbXbXbXbXD R ,.0.f.J.J.I.~.~.~.~.~.~.~.~.~.~.~.~.~.~.~.~.~.~.I.K.K.F.-.=.K B bXbXbXbXbXbXbXbXbXbXbXbXbXbXbXbXbXbXbXbXbXbXbXbXbXbXbXbXbXbXbXbXbXbXbXbX",
"bXbXbXbXbXbXbXbXbXbXx I e V C G G @.@.1.0.w.f.u.F.F.J.Y.J.J.J.J.J.J.J.J.F.d.i.1.=.@.M # bXbXbXbXbXbXbXbXbXbXbXbXbXbXbXbXbXbXbXbXbXbXbXbXbXbXbXbXbXbXbXbXbXbXbXbX",
"bXbXbXbXbXbXbXbXbXbXx E A y V V V V r r C C C C t Z F k t t t t t t t M M M G =.F y 3   bXbXbXbXbXbXbXbXbXbXbXbXbXbXbXbXbXbXbXbXbXbXbXbXbXbXbXbXbXbXbXbXbXbXbXbX",
"bXbXbXbXbXbXbXbXbXbXI / / M y V V V r q V V V V 6 bXbX. 4 4 4 4 > 4 5 w w e M M e w 3   bXbXbXbXbXbXbXbXbXbXbXbXbXbXbXbXbXbXbXbXbXbXbXbXbXbXbXbXbXbXbXbXbXbXbXbX",
"bXbXbXbXbXbXbXbXbXbXI / j.~ e u V V r q V V V V 6 bXbX. 4 4 4 4 6 w w w w w 6 5 w w 3 . bXbXbXbXbXbXbXbXbXbXbXbXbXbXbXbXbXbXbXbXbXbXbXbXbXbXbXbXbXbXbXbXbXbXbXbX",
"bXbXbXbXbXbXbXbXbXx I / ~ j.! A y V r q V V V y 6 bXbXX 4 4 5 w w w w w w = 2 w w w 3   bXbXbXbXbXbXbXbXbXbXbXbXbXbXbXbXbXbXbXbXbXbXbXbXbXbXbXbXbXbXbXbXbXbXbXbX",
"bXbXbXbXbXbXbXbXbXx ! j.~ ! / / I M q r V V V 6 bXbXbXX 5 w w w w w w 5 > * 8 w w 2 < . bXbXbXbXbXbXbXbXbXbXbXbXbXbXbXbXbXbXbXbXbXbXbXbXbXbXbXbXbXbXbXbXbXbXbXbX",
"bXbXbXbXbXbXbXbXbXx E j.j./ ! ! ! W k 8 N V N 6 bXbXbXX 5 5 5 5 5 2 > * 2 9 9 2 * :   bXbXbXbXbXbXbXbXbXbXbXbXbXbXbXbXbXbXbXbXbXbXbXbXbXbXbXbXbXbXbXbXbXbXbXbXbX",
"bXbXbXbXbXbXbXbXbXx E j.j.j.~ W W ! l # M y q 4 bXbXbXo = = = = = 2 3 9 k 8 - = > 4 X bXbXbXbXbXbXbXbXbXbXbXbXbXbXbXbXbXbXbXbXbXbXbXbXbXbXbXbXbXbXbXbXbXbXbXbXbX",
"bXbXbXbXbXbXbXbXbXc ~ j.j.j.~ W W W a % I A 6 bXbXbX. g j j j j j x k s 8 * 2 2 4 O O . bXbXbXbXbXbXbXbXbXbXbXbXbXbXbXbXbXbXbXbXbXbXbXbXbXbXbXbXbXbXbXbXbXbXbXbX",
"bXbXbXbXbXbXbXbXx I h.j./ W I W W W a + m m k 7 bXbX. 1 7 8 8 8 e e w w w 1 1 7 p z x x z v bXbXbXbXbXbXbXbXbXbXbXbXbXbXbXbXbXbXbXbXbXbXbXbXbXbXbXbXbXbXbXbXbXbX",
"bXbXbXbXbXbXbXbXx I j./ / W Y I L L a + % a c a bXbX. p % # # # 1 3 3 1 O $ % b n E ~ k.k.j.E P P L b bXbXbXbXbXbXbXbXbXbXbXbXbXbXbXbXbXbXbXbXbXbXbXbXbXbXbXbXbX",
"bXbXbXbXbXbXbXbXbXl c L L n E ( E ~ ~ E P g % % bXbX. % % % $ $ @ @ % p d i & & & d f x I Y ) _ ) ) E P n z f bXbXbXbXbXbXbXbXbXbXbXbXbXbXbXbXbXbXbXbXbXbXbXbXbX",
"bXbXbXbXbXbXbXbXbX+ p d d b ~ V.V./ ~ ~ E U P l z bXo @ @ @ @ @ o o o o . . . @ % % % % % % % p p p i a i % % bXbXbXbXbXbXbXbXbXbXbXbXbXbXbXbXbXbXbXbXbXbXbXbXbX",
"bXbXbXbXbXbXbXbXbXbXo g h f b U k.C.m.l.v.l.j.j.~ E U g & bXbXbXbXbXbXbXbXbXbXbXbXbXbXbXbXbXbXbXbXbXbXbXbXbXbXbXbXbXbXbXbXbXbXbXbXbXbXbXbXbXbXbXbXbXbXbXbXbXbXbX",
"bXbXbXbXbXbXbXbXbXbX  p g p & & p z m E Q _ z.) ^ ^ ^ E L b bXbXbXbXbXbXbXbXbXbXbXbXbXbXbXbXbXbXbXbXbXbXbXbXbXbXbXbXbXbXbXbXbXbXbXbXbXbXbXbXbXbXbXbXbXbXbXbXbXbX",
"bXbXbXbXbXbXbXbXbXbXbXbX. . . . @ @ % % p l c l l l l n h d bXbXbXbXbXbXbXbXbXbXbXbXbXbXbXbXbXbXbXbXbXbXbXbXbXbXbXbXbXbXbXbXbXbXbXbXbXbXbXbXbXbXbXbXbXbXbXbXbXbX"
};
