/* XPM */
static char *result[] = {
/* columns rows colors chars-per-pixel */
"80 80 232 2 ",
"   c #1F0E20",
".  c #200F21",
"X  c #241423",
"o  c #281725",
"O  c #2A1B2A",
"+  c #38232C",
"@  c #332B34",
"#  c #362B36",
"$  c #3A313A",
"%  c #3B383B",
"&  c #46262C",
"*  c #582C2D",
"=  c #593628",
"-  c #5D312C",
";  c #483137",
":  c #563834",
">  c #543A3B",
",  c #622F2F",
"<  c #603B2E",
"1  c #633030",
"2  c #57463D",
"3  c #60402F",
"4  c #67463A",
"5  c #72563F",
"6  c #413C42",
"7  c #4B3A43",
"8  c #533F48",
"9  c #444444",
"0  c #4A464A",
"q  c #4D4C4D",
"w  c #524242",
"e  c #58464A",
"r  c #4E4651",
"t  c #534B52",
"y  c #564957",
"u  c #4F5050",
"i  c #535254",
"p  c #54545A",
"a  c #59535D",
"s  c #5A5A5C",
"d  c #694C45",
"f  c #695648",
"g  c #745445",
"h  c #685658",
"j  c #7C5352",
"k  c #775F55",
"l  c #6E615D",
"z  c #7C645B",
"x  c #5C5B63",
"c  c #5C5A68",
"v  c #615765",
"b  c #655B6B",
"n  c #685D6E",
"m  c #64636B",
"M  c #676569",
"N  c #786566",
"B  c #666573",
"V  c #6B6474",
"C  c #6B6A75",
"Z  c #6E6C7A",
"A  c #776B76",
"S  c #716E7E",
"D  c #72727C",
"F  c #7A7678",
"G  c #970606",
"H  c #931516",
"J  c #9B1617",
"K  c #AA0202",
"L  c #B20303",
"P  c #A21A19",
"I  c #B21717",
"U  c #9B2123",
"Y  c #922B2D",
"T  c #9A3337",
"R  c #A52A28",
"E  c #A2373A",
"W  c #B1772B",
"Q  c #8E3942",
"!  c #954951",
"~  c #825F59",
"^  c #A74747",
"/  c #B25050",
"(  c #84655A",
")  c #81655D",
"_  c #8C7256",
"`  c #B06A5F",
"'  c #9B5B65",
"]  c #A25C68",
"[  c #836462",
"{  c #886767",
"}  c #866A64",
"|  c #8B6B64",
" . c #836A6D",
".. c #8B6A6A",
"X. c #976969",
"o. c #916E6D",
"O. c #8D746C",
"+. c #94756E",
"@. c #9B6A76",
"#. c #897777",
"$. c #957373",
"%. c #9B7474",
"&. c #937876",
"*. c #9B7B75",
"=. c #9D7B7A",
"-. c #AC6B6B",
";. c #B66366",
":. c #A07675",
">. c #A27779",
",. c #AC7479",
"<. c #A47B7A",
"1. c #AB7E7D",
"2. c #D48D2A",
"3. c #A78B5F",
"4. c #8F807B",
"5. c #988476",
"6. c #AB9066",
"7. c #A3827C",
"8. c #A8867C",
"9. c #A58D7D",
"0. c #B4877B",
"q. c #AB947D",
"w. c #6F6F82",
"e. c #737383",
"r. c #7D7C83",
"t. c #7B7A87",
"y. c #867B85",
"u. c #937F82",
"i. c #A57385",
"p. c #A67D86",
"a. c #B07C81",
"s. c #838385",
"d. c #82828B",
"f. c #8E848C",
"g. c #8C8C8D",
"h. c #96888C",
"j. c #9E948E",
"k. c #868694",
"l. c #8C8C93",
"z. c #988C91",
"x. c #959395",
"c. c #9B9292",
"v. c #95959A",
"b. c #9A999A",
"n. c #A58483",
"m. c #AC8383",
"M. c #A98686",
"N. c #AB8B85",
"B. c #A28C8D",
"V. c #AD8C8C",
"C. c #B58484",
"Z. c #B78A86",
"A. c #B38C8C",
"S. c #AA9485",
"D. c #B49484",
"F. c #B89087",
"G. c #B4938B",
"H. c #BB948B",
"J. c #B49B8A",
"K. c #BB9B8C",
"L. c #A58D91",
"P. c #B48D90",
"I. c #A79797",
"U. c #A39B94",
"Y. c #B59494",
"T. c #B89795",
"R. c #B89997",
"E. c #BC9B94",
"W. c #BC9B9A",
"Q. c #BEA28D",
"!. c #B5A397",
"~. c #BDA292",
"^. c #9898A3",
"/. c #9D9DA3",
"(. c #A3A3A5",
"). c #A5A6AC",
"_. c #AAA4AB",
"`. c #ADADAE",
"'. c #B2ACAF",
"]. c #ADAEB3",
"[. c #B6B6BA",
"{. c #C19B8E",
"}. c #C29D97",
"|. c #C1A08F",
" X c #C3A393",
".X c #C5AA94",
"XX c #C3A39B",
"oX c #CAA998",
"OX c #CCAC9B",
"+X c #CEB39B",
"@X c #D3B39D",
"#X c #D5B79D",
"$X c #C5A4A4",
"%X c #C9A6A4",
"&X c #C7ACA7",
"*X c #CBABA5",
"=X c #D1AFA5",
"-X c #CEB2A3",
";X c #CDB5AA",
":X c #D4B4A3",
">X c #D7BAA3",
",X c #DCBCA4",
"<X c #D4B8AA",
"1X c #DDBDA9",
"2X c #DEC2A5",
"3X c #DFC2A9",
"4X c #E2C3A7",
"5X c #E4C4AA",
"6X c #E8C7AD",
"7X c #E6C8AB",
"8X c #EBCCAD",
"9X c #EED0AF",
"0X c #EDCDB1",
"qX c #F0CFB1",
"wX c #F5D5B4",
"eX c #F8D7B6",
"rX c #F9D8B6",
"tX c #BDBEC2",
"yX c #BFC0C2",
"uX c #C2C2C4",
"iX c #CAC5C5",
"pX c #C5C5CA",
"aX c gray80",
"sX c #D5D0CE",
"dX c #D5D5D6",
"fX c #DAD8D9",
"gX c #E5D8CD",
"hX c gray91",
"jX c #EEEEF0",
"kX c gray96",
"lX c #F8F8F8",
"zX c None",
/* pixels */
"zXzXzXzXzXzXzXzXzXzXzXzXzXzXzXzXzXzXzXzXzXzXzXzXzXzXzXzXzXzXzXzXzXzXzXzXzXzXzXzXzXzXzXzXzXzXzXzXzXzXzXzXzXzXzXzXzXzXzXzXzXzXzXzXzXzXzXzXzXzXzXzXzXzXzXzXzXzXzXzX",
"zXzXzXzXzXzXzXzXzXzXzXzXzXzXzXzXzXzXzXzXzXzXzXzXzXzXzXzXzXzXzXzXzXzXzXzXzXzXzXzXzXzXzXzXzXzXzXzXzXzXzXzXzXzXzXzXzXzXzXzXzXzXzXzXzXzXzXzXzXzXzXzXzXzXzXzXzXzXzXzX",
"zXzXzXzXzXzXzXzXzXzXzXzXzXzXzXzXzXzXzXzXzXzXzXzXzXzXzXzXzXzXzXzXzXzXzXp.zXzXzXzXzXzXzXzXzXzXzXzXzXzXzXzXzXzXzXzXzXzXzXzXzXzXzXzXzXzXzXzXzXzXzXzXzXzXzXzXzXzXzXzX",
"zXzXzXzXzXzXzXzXzXzXzXzXzXzXzXzXzXzXzXzXzXzXzXzXzXzXzXzXzXzXzXzXzX:.V.Y.Y.Y.A.Y.Y.zXzXzXzXzXzXzXzXzXzXzXzXzXzXzXzXzXzXzXzXzXzXzXzXzXzXzXzXzXzXzXzXzXzXzXzXzXzXzX",
"zXzXzXzXzXzXzXzXzXzXzXzXzXzXzXzXzXzXzXzXzXzXzXzXzXzXzXzXzXzXzXX.1.Y.Y.Y.Y.Y.Y.Y.Y.Y.P.m.p.zXzXzXzXzXzXzXzXzXzXzXzXzXzXzXzXzXzXzXzXzXzXzXzXzXzXzXzXzXzXzXzXzXzXzX",
"zXzXzXzXzXzXzXzXzXzXzXzXzXzXzXzXzXzXzXzXzXzXzXzX%XT.zXzXzXzXL P J ^ -.-.A.Y.Y.P.M.<.:.<.i.i.i.@.zXzXzXzXzXzXzXzXzXzXzXzXzXzXzXzXzXzXzXzXzXzXzXzXzXzXzXzXzXzXzXzX",
"zXzXzXzXzXzXzXzXzXzXzXzXzXzXzXzXzXzXzXzXzXzXzXzXzXzXzXzXW.a.;.;.E P J G U T T ] ' ' i.i.i.i.@.X.zXzXzXzXzXzXzXzXzXzXzXzXzXzXzXzXzXzXzXzXzXzXzXzXzXzXzXzXzXzXzXzX",
"zXzXzXzXzXzXzXzXzXzXzXzXzXzXzXzXzXzXzXzXzXzXzXzXzXzXzXzXzXx t.u.h.M.P.;./ ^ J J H G T ! @.@.X.zXzXzXzXzXzXzXzXzXzXzXzXzXzXzXzXzXzXzXzXzXzXzXzXzXzXzXzXzXzXzXzXzX",
"zXzXzXzXzXzXzXzXzXzXzXzXzXzXzXzXzXzXzXzXzXzXzXzXzXzX@X.Xu e.D x e.e.y.t.h.B.:.,.] T U G J Y zXzXzXzXzXzXzXzXzXzXzXzXzXzXzXzXzXzXzXzXzXzXzXzXzXzXzXzXzXzXzXzXzXzX",
"zXzXzXzXzXzXzXzXzXzXzXzXzXzXzXzXzXzXzXzXzXzXzXzX#X6X6X.Xi g.D r.l.l.d.t.t._ W 2.W ( @.' ! ! j zXzXzXzXzXzXzXzXzXzXzXzXzXzXzXzXzXzXzXzXzXzXzXzXzXzXzXzXzXzXzXzXzX",
"zXzXzXzXzXzXzXzXzXzXzXzXzXzXzXzXzXzXzXzXzXzXzX:XqXeX@X~.i C M x.x.x.x.x.F g.5 3.6.+.d.g.t zXzXi.i.zXzXzXzXzXzXzXzXzXzXzXzXzXzXzXzXzXzXzXzXzXzXzXzXzXzXzXzXzXzXzX",
"zXzXzXzXzXzXzXzXzXzXzXzXzXzXzXzXzXzXzXzXzXzXK.4X#XoX.X.XN a x d.x.x.b.(.b.F g.tX[./.[.r.zXzXzXzXzXzXzXzXzXzXzXzXzXzXzXzXzXzXzXzXzXzXzXzXzXzXzXzXzXzXzXzXzXzXzXzX",
"zXzXzXzXzXzXzXzXzXzXzXzXzXzXzXzXzX6X5XwXwXwX4X~..XS.~.+X+XF F a C b.g.s.g.b.[.].s.#.b.zXzXzXzXzXzXzXzXzXzXzXzXzXzXzXzXzXzXzXzXzXzXzXzXzXzXzXzXzXzXzXzXzXzXzXzXzX",
"zXzXzXzXzXzXzXzXzXzXzXzXzXzXoX1X4X5X5X8XwXwX4X,X4X2XwXeXqX~.j.g.M x s.M (.].v.F S.J.5.zXzXzXzXzXzXzXzXzXzXzXzXzXzXzXzXzXzXzXzXzXzXzXzXzXzXzXzXzXzXzXzXzXzXzXzXzX",
"zXzXzXzXzXzXzXzXzXzXzXzX1X0XwXwXwXwXwX8X6X0XwX6X4X:X>X5XwXwX4X!.U.(.b.A Q E T  XK.9.5.zXzXzXzXzXzXzXzXzXzXzXzXzXzXzXzXzXzXzXzXzXzXzXzXzXzXzXzXzXzXzXzXzXzXzXzXzX",
"zXzXzXzXzXzXzXzXzXzXzX5X0X5XwXwXwXwXwXwXwX0X5XwXwX7XOXE.OX,X9XwX>X!.x. .H K G 0. XOX.XoXzXzXzXzXzXzXzXzXzXzXzXzXzXzXzXzXzXzXzXzXzXzXzXzXzXzXzXzXzXzXzXzXzXzXzXzX",
"zXzXzXzXzXzXzXzXzXzX2X6X@X4XwXwXwXeX9X8XeXeX6X4XwXeXwX6X,X X~.@X6X6X~.U.c.! K P ` @X:X:X~.5.zXzXzXzXzXzXzXzXzXzXzXzXzXzXzXzXzXzXzXzXzXzXzXzXzXzXzXzXzXzXzXzXzXzX",
"zXzXzXzXzXzXzXzXzXzX2XOX>XwXwXwXwX6X5XwXeXeXeX1X8XwXwXeXwX0X4X+XE.OX1X@X!.b.I L G ,.%XXX XJ.zXzXzXzXzXzXzXzXzXzXzXzXzXzXzXzXzXzXzXzXzXzXzXzXzXzXzXzXzXzXzXzXzXzX",
"zXzXzXzXzXzXzXzXzXzX:XoX2XwXwXwX>XoX0XeXwXwXeX0X2XwXeXwXwXeXeXwX2XXXH.}. XJ.R K K J F.W.J..X9.zXzXzXzXzXzXzXzXzXzXzXzXzXzXzXzXzXzXzXzXzXzXzXzXzXzXzXzXzXzXzXzXzX",
"zXzXzXzXzXzXzXzXzXzX X,X2X2X1X*X}.@XrXwXwXwXwXeX>XwXeXwXwXwXwXwXwX8X>XE.Y.K.0.^ G G R Y.S.2XK.zXzXzXzXzXzXzXzXzXzXzXzXzXzXzXzXzXzXzXzXzXzXzXzXzXzXzXzXzXzXzXzXzX",
"zXzXzXzXzXzXzXzXzX$.E.:X:X*X%X}.oXwXwXwXeX4X8XeXG.5XwXwXwXwXwXwXwXeXwX7XOXY.Y.T.-.U G E  X2XJ.zXzXzXzXzXzXzXzXzXzXzXzXzXzXzXzXzXzXzXzXzXzXzXzXzXzXzXzXzXzXzXzXzX",
"zXzXzXzXzXzXzXzXzXo.R.%X%X%X}.{.wXwXwXeX9X@X5XwX7.@XwXeXwXwXwXwXwXwXeXrXwX1XXXY.Y.Z.^ T J.@XS.5.zXzXzXzXzXzXzXzXzXzXzXzXzXzXzXzXzXzXzXzXzXzXzXzXzXzXzXzXzXzXzXzX",
"zXzXzXzXzXzXzXzXzX[ Y.%X%XXX{.8XwXwXwXeX4X@X8X4X$.Y.:X6XwXwXeXwXwXrX8XwXeXwX8X-XR.Y.Y.1.| 5.n.5.zXzXzXzXzXzXzXzXzXzXzXzXzXzXzXzXzXzXzXzXzXzXzXzXzXzXzXzXzXzXzXzX",
"zXzXzXzXzXzXzXzXzX[ Y.%X$XH.5XwXwXeXwX4X@X5XrXK...V.W.%X<X1X8XwXrX#Xq.q.7XrXeXwX4XXXA.+.z } O.9.K.zXzXzXzXzXzXzXzXzXzXzXzXzXzXzXzXzXzXzXzXzXzXzXzXzXzXzXzXzXzXzX",
"zXzXzXzXzXzXzXzXzX[ Y.%XY.,XwXeXwX8X,X>X8XwXrX7.o.P.Y.$X%X%X%X:X3X:XD.Q.7XwXwX9X4X=XW.N.z } O.7.:XD.zXzXzXzXzXzXzXzXzXzXzXzXzXzXzXzXzXzXzXzXzXzXzXzXzXzXzXzXzXzX",
"zXzXzXzXzXzXzXzXzX[ Y.$X,XwXwXqX,XoX#X6XwXwXrX7...=.V.Y.W.$X$X%X%X%X%X*X*X&X<X;X&X&X$XW.*.} { O.OXoX9.zXzXzXzXzXzXzXzXzXzXzXzXzXzXzXzXzXzXzXzXzXzXzXzXzXzXzXzXzX",
"zXzXzXzXzXzXzXzXzXzX*.Y.wX3XK.G.7.7.7.N.K.@X2X*.....$.$.=.O.5.}.A.V.V.M.n.c.aXb.x.x.x.h.{ k N o.%.>.+...zXzXzXzXzXzXzXzXzXzXzXzXzXzXzXzXzXzXzXzXzXzXzXzXzXzXzXzX",
"zXzXzXzXzXzXzXzXzXzX[ R.1X7.m.1.=.<.N.{.@X1X.X7.=.M.V.V.V.*.z M.%.Y.V.7..XU.aXR.R.T.B.j.C. .h $.=.K. XK.9.zXzXzXzXzXzXzXzXzXzXzXzXzXzXzXzXzXzXzXzXzXzXzXzXzXzXzX",
"zXzXzXzXzXzXzXzXzXzX[ M.$Xn.m.{.OX#XwXeXeXeXeX0X,XG.G.M.Y.7.z n.%.R.=.Q.>XU.aXW.Y.M.h l.&.{ h 8.K.OX:X:XOX~.9.zXzXzXzXzXzXzXzXzXzXzXzXzXzXzXzXzXzXzXzXzXzXzXzXzX",
"zXzXzXzXzXzXzXzXzXzXzX{ V.$XR.>X8XwXeXwXwXwXwXeXrXwX#XH.V.+.h M.+.O.{ Q.@Xf.uXz.f.y.y.F h h N C.Z.H..X:X:X:XOXJ.5.zXzXzXzXzXzXzXzXzXzXzXzXzXzXzXzXzXzXzXzXzXzXzX",
"zXzXzXzXzXzXzXzXzXzXzXzX..Y.%X%X-X1X6X9XwXwXeXrXwX,X4X5X6X,X8.7.n.*.$. XoXo.U.U.U.U.U.4.o.| ) m.C.C.Z.K.oX:X-XK.K.J.9.zXzXzXzXzXzXzXzXzXzXzXzXzXzXzXzXzXzXzXzXzX",
"zXzXzXzXzXzXzXzXzXzXzXzXzX$.M.W.$X%X%X*X<X5X0X>XoX#XwX4X>X6X8X6X5X#XK.N.n....X2X2X2X+Xn.o.C.} o.C.C.C.C.F.F.5.oX:X~.~.oXK.D.zXzXzXzXzXzXzXzXzXzXzXzXzXzXzXzXzXzX",
"zXzXzXzXzXzXzXzXzXzXzXzXzXzXzX=.M.V.W.$X%X%X%X7.N.Y.oX>XwXeXwX0XgXgXsXiXI.z.!.>X>X>X+XN.o.Z.| z <.C.C.m.:.%.%.7.H.K.:XOX-X<X-XS.zXzXzXzXzXzXzXzXzXzXzXzXzXzXzXzX",
"zXzXzXzXzXzXzXzXzXzXzXzXzXzXK.oXOXN.<.=.V.W.$Xn.R.=.Y.%X:X>X*XfXuX[.].).)./.t.V.E.R.Y.A.%.<.| 2 k ) +.z } %.| <.C.C.8.I.'.`._.z.zXzXzXzXzXzXzXzXzXzXzXzXzXzXzXzX",
"zXzXzXzXzXzXzXzXzXzXzXzXzXzXK.>XOXE.Y.A.n.=.<.$.P.*.Y.%X%XW.u.].aXjXkXkXkXhXuX_.c.P.Y.Y.n.%.| zXzXzXzXf | ) 1.C.1.*.c.(.`.uXaXaX].k.zXzXzXzXzXzXzXzXzXzXzXzXzXzX",
"zXzXzXzXzXzXzXzXzXzXzXzXzXzXG.}.Y.Y.Y.Y.Y.Y.V.m.=.%.n.Y.$XW. .l.hXjXkXlXlXlXlXkXdX_.L.Y.M.%.1.) zXzXzXzXzXf %.1.:.l d./.[.aXfXdXdXpX/.zXzXzXzXzXzXzXzXzXzXzXzXzX",
"zXzXzXzXzXzXzXzXzXzXzXzXzX$.Y.Y.Y.Y.Y.Y.Y.Y.Y.Y.Y.Y.M.1.=.=. .D `.hXjXkXkXlXlXkXlXjX].I.V.%.%.( zXzXzXzXzXzXzXk k h w.l.`.[.aXdXdXdXfXpX^.zXzXzXzXzXzXzXzXzXzXzX",
"zXzXzXzXzXzXzXzXzXzXzXzXzX*.Y.Y.Y.Y.Y.Y.Y.Y.Y.Y.Y.Y.Y.Y.Y.Y.M...N x.iXhXpXdXkXkXuXdXuX[.'.h.>.| zXzXzXzXzXzXzXzXzXzXzXzXt./.[.sX/.b.`.jXfXl.zXzXzXzXzXzXzXzXzXzX",
"zXzXzXzXzXzXzXzXzXzXzXzX$.C.Y.Y.Y.Y.Y.Y.Y.Y.Y.Y.Y.Y.Y.Y.Y.Y.M.$...*.B./.aXtX[.aXdX/.[.tX(.]._.*.{ zXzXzXzXzXzXzXzXzXzXzXzXzXl.`.(.s p g.dXuXd.zXzXzXzXzXzXzXzXzX",
"zXzXzXzXzXzXzXzXzXzXzXzX$.C.Y.Y.Y.Y.Y.Y.Y.Y.Y.Y.Y.Y.Y.Y.Y.Y.M.$...7.E.V.y.yX].f./.`.u.f.).^.^.B.{ zXzXzXzXzXzXzXzXzXzXzXzXzXzXD /.s.zX0 d.aX(.zXzXzXzXzXzXzXzXzX",
"zXzXzXzXzXzXzXzXzXzXzXzX$.C.Y.Y.Y.Y.Y.Y.Y.Y.Y.Y.Y.Y.Y.Y.Y.Y.M.$...N.E.Y.y.)./.Y.d./.y.p.l.v.y.=...zXzXzXzXzXzXzXzXzXzXzXzXzXzXzXt.l.C zXp (.pXl.zXzXzXzXzXzXzXzX",
"zXzXzXzXzXzXzXzXzXzXzXzX$.Y.Y.Y.Y.Y.Y.Y.Y.Y.Y.Y.Y.Y.Y.Y.Y.Y.V...%.oXXXY.B.h.h.Y.Y.z.P.C.m.&...$...zXzXzXzXzXzXzXzXzXzXzXzXzXzXzXzXzXzXzXzXM /.^.zXzXzXzXzXzXzXzX",
"zXzXzXzXzXzXzXzXzXzXzXzX$.Y.Y.Y.Y.Y.Y.Y.Y.Y.Y.Y.Y.Y.Y.Y.Y.Y.V...*.@XXXY.Y...V.Y.Y.Y.Y.C.C.:...$...zXzXzXzXzXzXzXzXzXzXzXzXzXzXzXzXzXzXzXzXzXzXzXzXzXzXzXzXzXzXzX",
"zXzXzXzXzXzXzXzXzXzXzXzX$.Y.Y.Y.Y.Y.Y.Y.Y.Y.Y.Y.Y.Y.Y.Y.Y.Y.M...$.D.G.M.M.$.V.Y.Y.Y.Y.C.C.:...$...zXzXzXzXzXzXzXzXzXzXzXzXzXzXzXzXzXzXzXzXzXzXzXzXzXzXzXzXzXzXzX",
"zXzXzXzXzXzXzXzXzXzXzXzX$.Y.Y.Y.Y.Y.Y.Y.Y.Y.Y.Y.Y.Y.Y.Y.Y.Y.V.$.$...%.n.M.Y.Y.Y.Y.Y.Y.C.C.:...$...zXzXzXzXzXzXzXzXzXzXzXzXzXzXzXzXzXzXzXzXzXzXzXzXzXzXzXzXzXzXzX",
"zXzXzXzXzXzXzXzXzXzXzXzX$.Y.Y.Y.Y.Y.Y.Y.Y.Y.Y.Y.Y.Y.Y.Y.Y.Y.Y.V.M.M.V.Y.Y.Y.Y.Y.Y.Y.Y.C.C.:...$...zXzXzXzXzXzXzXzXzXzXzXzXzXzXzXzXzXzXzXzXzXzXzXzXzXzXzXzXzXzXzX",
"zXzXzXzXzXzXzXzXzXzXzXzX7.Y.Y.Y.Y.Y.Y.Y.Y.Y.Y.Y.Y.Y.Y.Y.Y.Y.Y.Y.Y.Y.Y.Y.Y.Y.Y.Y.Y.Y.Y.C.C.:...$...zXzXzXzXzXzXzXzXzXzXzXzXzXzXzXzXzXzXzXzXzXzXzXzXzXzXzXzXzXzXzX",
"zXzXzXzXzXzXzXzXzXzXzXzXH.Y.Y.Y.Y.Y.Y.Y.Y.Y.Y.Y.Y.Y.Y.Y.Y.Y.Y.Y.Y.Y.Y.Y.Y.Y.Y.Y.Y.Y.A.C.C.:...$...zXzXzXzXzXzXzXzXzXzXzXzXzXzXzXzXzXzXzXzXzXzXzXzXzXzXzXzXzXzXzX",
"zXzXzXzXzXzXzXzXzXzXzX8. XY.Y.Y.Y.Y.Y.Y.Y.Y.Y.Y.Y.Y.Y.Y.Y.Y.Y.Y.Y.Y.Y.Y.Y.Y.Y.Y.Y.Y.C.C.m.o...$...zXzXzXzXzXzXzXzXzXzXzXzXzXzXzXzXzXzXzXzXzXzXzXzXzXzXzXzXzXzXzX",
"zXzXzXzXzXzXzXzXzXzXzXD. XY.Y.Y.Y.Y.Y.Y.Y.Y.Y.Y.Y.Y.Y.Y.Y.Y.Y.Y.Y.Y.Y.Y.Y.Y.Y.Y.Y.Y.C.C.<...o.$...zXzXzXzXzXzXzXzXzXzXzXzXzXzXzXzXzXzXzXzXzXzXzXzXzXzXzXzXzXzXzX",
"zXzXzXzXzXzXzXzXzXzXzXD. XY.Y.Y.Y.Y.Y.Y.Y.Y.Y.Y.Y.Y.Y.Y.Y.Y.Y.Y.Y.Y.Y.Y.Y.Y.Y.Y.Y.A.C.C.>...$.$...zXzXzXzXzXzXzXzXzXzXzXzXzXzXzXzXzXzXzXzXzXzXzXzXzXzXzXzXzXzXzX",
"zXzXzXzXzXzXzXzXzXzXzXK. XY.Y.Y.Y.Y.Y.Y.Y.Y.Y.Y.Y.Y.Y.Y.Y.Y.Y.Y.Y.Y.Y.Y.Y.Y.Y.Y.Y.C.C.C.<...$.$...zXzXzXzXzXzXzXzXzXzXzXzXzXzXzXzXzXzXzXzXzXzXzXzXzXzXzXzXzXzXzX",
"zXzXzXzXzXzXzXzXzXzXD. X.XY.Y.Y.Y.Y.Y.Y.Y.Y.Y.Y.Y.Y.Y.Y.Y.Y.Y.Y.Y.Y.Y.Y.Y.Y.Y.Y.Y.C.C.C.<...$.$.$...zXzXzXzXzXzXzXzXzXzXzXzXzXzXzXzXzXzXzXzXzXzXzXzXzXzXzXzXzXzX",
"zXzXzXzXzXzXzXzXzXzXD. X.XY.Y.Y.Y.Y.Y.Y.Y.Y.Y.Y.Y.Y.Y.Y.Y.Y.Y.Y.Y.Y.Y.Y.Y.Y.Y.Y.Y.C.C.C.<...$.$.$...zXzXzXzXzXzXzXzXzXzXzXzXzXzXzXzXzXzXzXzXzXzXzXzXzXzXzXzXzXzX",
"zXzXzXzXzXzXzXzXzXzXD. X}.Y.Y.Y.Y.Y.Y.Y.Y.Y.Y.Y.Y.Y.Y.Y.Y.Y.Y.Y.Y.Y.Y.Y.Y.Y.Y.Y.C.C.C.C.<...$.$.$...zXzXzXzXzXzXzXzXzXzXzXzXzXzXzXzXzXzXzXzXzXzXzXzXzXzXzXzXzXzX",
"zXzXzXzXzXzXzXzXzX5.K. XY.Y.Y.Y.Y.Y.Y.Y.Y.Y.Y.Y.Y.Y.Y.Y.Y.Y.Y.Y.Y.Y.Y.Y.Y.Y.Y.Y.C.C.C.C.%...$.$.$...zXzXzXzXzXzXzXzXzXzXzXzXzXzXzXzXzXzXzXzXzXzXzXzXzXzXzXzXzXzX",
"zXzXzXzXzXzXzXzXzXD. X.XY.Y.Y.Y.Y.Y.Y.Y.Y.Y.Y.Y.Y.Y.Y.Y.Y.Y.Y.Y.Y.Y.Y.Y.Y.Y.Y.Y.C.C.C.1.....$.$.$...zXzXzXzXzXzXzXzXzXzXzXzXzXzXzXzXzXzXzXzXzXzXzXzXzXzXzXzXzXzX",
"zXzXzXzXzXzXzXzXzXD. X}.Y.Y.Y.Y.Y.Y.Y.Y.Y.Y.Y.Y.Y.Y.Y.Y.Y.Y.Y.Y.Y.Y.Y.Y.Y.Y.Y.C.C.C.C.1...$.$.$.$...zXzXzXzXzXzXzXzXzXzXzXzXzXzXzXzXzXzXzXzXzXzXzXzXzXzXzXzXzXzX",
"zXzXzXzXzXzXzXzXzXD. XT.Y.Y.Y.Y.Y.Y.Y.Y.Y.Y.Y.Y.Y.Y.Y.Y.Y.Y.Y.Y.Y.Y.Y.Y.Y.Y.A.C.C.C.C.<...$.$.$.$...zXzXzXzXzXzXzXzXzXzXzXzXzXzXzXzXzXzXzXzXzXzXzXzXzXzXzXzXzXzX",
"zXzXzXzXzXzXzXzXq.K..XT.Y.Y.Y.Y.Y.Y.Y.Y.Y.Y.Y.Y.Y.Y.Y.Y.Y.Y.Y.Y.Y.Y.Y.Y.Y.Y.C.C.C.C.C.$...$.$.$.$...zXzXzXzXzXzXzXzXzXzXzXzXzXzXzXzXzXzXzXzXzXzXzXzXzXzXzXzXzXzX",
"zXzXzXzXzXzXzXzXD.|.E.Y.Y.Y.Y.Y.Y.Y.Y.Y.Y.Y.Y.Y.Y.Y.Y.Y.Y.Y.Y.Y.Y.Y.Y.Y.Y.Z.C.C.C.C.1.....$.$.$.$.{ zXzXzXzXzXzXzXzXzXzXzXzXzXzXzXzXzXzXzXzXzXzXzXzXzXzXzXzXzXzX",
"zXzXzXzXzXzXzXzXK. XR.Y.Y.Y.Y.Y.Y.Y.Y.Y.Y.Y.Y.Y.Y.Y.Y.Y.Y.Y.Y.Y.Y.Y.Y.Y.A.C.C.C.C.C.1.{ $.$.$.$...[ zXzXzXzXzXzXzXzXzXzXzXzXzXzXzXzXzXzXzXzXzXzXzXzXzXzXzXzXzXzX",
"zXzXzXzXzXzXzXD.{. XT.Y.Y.Y.Y.Y.Y.Y.Y.Y.Y.Y.Y.Y.Y.Y.Y.Y.Y.Y.Y.Y.Y.Y.Y.A.C.C.C.C.C.C.$.{ $.$.$.$...zXzXzXzXzXzXzXzXzXzXzXzXzXzXzXzXzXzXzXzXzXzXzXzXzXzXzXzXzXzXzX",
"zXzXzXzXzXzXzXD.K.R.Y.Y.Y.Y.Y.Y.Y.Y.Y.Y.Y.Y.Y.Y.Y.Y.Y.Y.Y.Y.Y.Y.Y.Y.A.C.C.C.C.C.C.m.....$.$.$.$...zXzXzXzXzXzXzXzXzXzXzXzXzXzXzXzXzXzXzXzXzXzXzXzXzXzXzXzXzXzXzX",
"zXzXzXzXzXzXzX0.G.Y.Y.Y.Y.Y.Y.Y.Y.Y.Y.Y.Y.Y.Y.Y.Y.Y.Y.Y.Y.Y.Y.Y.Y.A.C.C.C.C.Z.C.C.1.{ $.$.$.$.$.z zXzXzXzXzXzXzXzXzXzXzXzXzXzXzXzXzXzXzXzXzXzXzXzXzXzXzXzXzXzXzX",
"zXzXzXzXzXzXzXzX=.V.A.Y.Y.Y.Y.Y.Y.Y.Y.Y.Y.Y.Y.Y.Y.Y.Y.Y.Y.Y.Y.Y.Z.C.C.C.Z.Y.A.C.C.1.[ ) [ [ [ [ f zXzXzXzXzXzXzXzXzXzXzXzXzXzXzXzXzXzXzXzXzXzXzXzXzXzXzXzXzXzXzX",
"zXzXzXzXzXzXzXzXzXh A &.p.M.P.Y.Y.Y.Y.Y.Y.Y.Y.Y.Y.Y.Y.Y.Y.A.Z.C.C.C.C.A.Y.Y.C.C.C.1.e + zXzXzXzXzXzXzXzXzXzXzXzXzXzXzXzXzXzXzXzXzXzXzXzXzXzXzXzXzXzXzXzXzXzXzXzX",
"zXzXzXzXzXzXzXzXzXr C e.S N j ~ | *.=.1.8.M.M.V.V.V.V.A.C.C.C.C.C.A.A.Y.A.C.C.m.m.:.2   zXzXzXzXzXzXzXzXzXzXzXzXzXzXzXzXzXzXzXzXzXzXzXzXzXzXzXzXzXzXzXzXzXzXzXzX",
"zXzXzXzXzXzXzXzXzXt C e.e.e.V d 4 g 4 4 g g g d ~ { 8 j j j j j j j j j j j j d h d : . zXzXzXzXzXzXzXzXzXzXzXzXzXzXzXzXzXzXzXzXzXzXzXzXzXzXzXzXzXzXzXzXzXzXzXzX",
"zXzXzXzXzXzXzXzXzXt C e.e.e.e.S h d = 3 g g 4 = zXzXX * , 1 , , 1 , , - - : : w > - * X zXzXzXzXzXzXzXzXzXzXzXzXzXzXzXzXzXzXzXzXzXzXzXzXzXzXzXzXzXzXzXzXzXzXzXzX",
"zXzXzXzXzXzXzXzXzXa Z e.e.e.e.e.V m t > 4 5 < zXzXzXX 7 : - - - - - : 2 w w : : = - & X zXzXzXzXzXzXzXzXzXzXzXzXzXzXzXzXzXzXzXzXzXzXzXzXzXzXzXzXzXzXzXzXzXzXzXzX",
"zXzXzXzXzXzXzXzXt b e.e.e.e.e.Z V V r $ h 4 = zXzXzXX r r w w w w w 8 : - - - 1 1 * o zXzXzXzXzXzXzXzXzXzXzXzXzXzXzXzXzXzXzXzXzXzXzXzXzXzXzXzXzXzXzXzXzXzXzXzXzX",
"zXzXzXzXzXzXzXzXt b e.e.e.Z V V V V y 7 v a e + zXzXX 0 r t t t t w > > > > & & & & + O zXzXzXzXzXzXzXzXzXzXzXzXzXzXzXzXzXzXzXzXzXzXzXzXzXzXzXzXzXzXzXzXzXzXzXzX",
"zXzXzXzXzXzXzXzXzXa Z S V n n n n V n y r r r O zXzXX $ # ; 6 6 ; ; @ @ @ @ 6 9 i p c C C C c zXzXzXzXzXzXzXzXzXzXzXzXzXzXzXzXzXzXzXzXzXzXzXzXzXzXzXzXzXzXzXzXzX",
"zXzXzXzXzXzXzXzXzXt m V n V Z C S w.w.V b v y O zXzXX 9 6 $ $ $ $ 6 q q q q 0 0 9 0 p p C r.e.D Z D m zXzXzXzXzXzXzXzXzXzXzXzXzXzXzXzXzXzXzXzXzXzXzXzXzXzXzXzXzX",
"zXzXzXzXzXzXzXzXzXt v Z V n x x x a a a a a t @ zXzXX @ @ @ @ @ @ @ @ $ 6 0 0 0 9 9 9 9 9 0 s M M M s p i 0 O zXzXzXzXzXzXzXzXzXzXzXzXzXzXzXzXzXzXzXzXzXzXzXzXzX",
"zXzXzXzXzXzXzXzXzXzXt i q 0 i b s.d.D C B c x q 0 zXzXX o o O O O X zXzXzX% 9 9 9 0 q q q q q q q q q x i q zXzXzXzXzXzXzXzXzXzXzXzXzXzXzXzXzXzXzXzXzXzXzXzXzXzX",
"zXzXzXzXzXzXzXzXzXzXm x u 0 0 q c d.v.g.e.Z Z B B m p zXzXzXzXzXzXzXzXzXzXzXzXzXzXzXzXzXzXzXzXzXzXzXzXzXzXzXzXzXzXzXzXzXzXzXzXzXzXzXzXzXzXzXzXzXzXzXzXzXzXzXzXzX",
"zXzXzXzXzXzXzXzXzXzXc c x i q 0 6 q s A r.d.l.l.s.r.F D c p zXzXzXzXzXzXzXzXzXzXzXzXzXzXzXzXzXzXzXzXzXzXzXzXzXzXzXzXzXzXzXzXzXzXzXzXzXzXzXzXzXzXzXzXzXzXzXzXzXzX",
"zXzXzXzXzXzXzXzXzXzXzX@ $ $ $ @ X @ @ @ @ @ @ $ $ $ $ @ @ $ zXzXzXzXzXzXzXzXzXzXzXzXzXzXzXzXzXzXzXzXzXzXzXzXzXzXzXzXzXzXzXzXzXzXzXzXzXzXzXzXzXzXzXzXzXzXzXzXzXzX"
};
