/* XPM */
static char *result[] = {
/* columns rows colors chars-per-pixel */
"80 80 232 2 ",
"   c #1F0E1F",
".  c #251525",
"X  c #281521",
"o  c #261826",
"O  c #2A1B2A",
"+  c #2D232D",
"@  c #332833",
"#  c #342B34",
"$  c #3A2D3A",
"%  c #3B333B",
"&  c #3D393D",
"*  c #4C110F",
"=  c #6F0D0F",
"-  c #543327",
";  c #51332F",
":  c #5C322D",
">  c #5E3130",
",  c #553836",
"<  c #523D3C",
"1  c #67322F",
"2  c #633131",
"3  c #703133",
"4  c #694739",
"5  c #72513F",
"6  c #3B3340",
"7  c #423B42",
"8  c #463A47",
"9  c #5A3D40",
"0  c #7F3E42",
"q  c #3F4040",
"w  c #444344",
"e  c #484746",
"r  c #4E444C",
"t  c #4B4A4B",
"y  c #524243",
"u  c #534348",
"i  c #534A4D",
"p  c #5F5047",
"a  c #4A4551",
"s  c #4E4C53",
"d  c #534454",
"f  c #524952",
"g  c #5B4C5B",
"h  c #515253",
"j  c #55545B",
"k  c #5B555B",
"l  c #6A4643",
"z  c #6F524A",
"x  c #745343",
"c  c #725C4B",
"v  c #654B55",
"b  c #655756",
"n  c #6E5B5B",
"m  c #725C55",
"M  c #745B59",
"N  c #68605D",
"B  c #7E635C",
"V  c #5E5262",
"C  c #5C5C64",
"Z  c #5D5B69",
"A  c #645A65",
"S  c #635E6B",
"D  c #7A5F62",
"F  c #63636C",
"G  c #6A6868",
"H  c #7C6363",
"J  c #74666B",
"K  c #6B6373",
"L  c #686672",
"P  c #6C6B7A",
"I  c #756B77",
"U  c #747375",
"Y  c #75747C",
"T  c #7D797A",
"R  c #970708",
"E  c #841011",
"W  c #991719",
"Q  c #AA0606",
"!  c #B30000",
"~  c #A51514",
"^  c #99292B",
"/  c #943434",
"(  c #AF3A37",
")  c #A5712A",
"_  c #9C3E46",
"`  c #984448",
"'  c #925350",
"]  c #A9494D",
"[  c #937354",
"{  c #AD665D",
"}  c #8A5E65",
"|  c #846663",
" . c #876967",
".. c #8B6A6A",
"X. c #97636D",
"o. c #916E6D",
"O. c #8B7169",
"+. c #94716E",
"@. c #917B6A",
"#. c #866F70",
"$. c #9C6B73",
"%. c #8D7173",
"&. c #867879",
"*. c #947473",
"=. c #9B7575",
"-. c #967977",
";. c #9B7976",
":. c #9C7A7A",
">. c #A46D78",
",. c #A17676",
"<. c #AF7175",
"1. c #A57878",
"2. c #A47B7B",
"3. c #AA7E7E",
"4. c #CF8E23",
"5. c #8A8079",
"6. c #9A867B",
"7. c #A5827B",
"8. c #A8877D",
"9. c #A48D7D",
"0. c #CE9875",
"q. c #707081",
"w. c #737384",
"e. c #7E7A87",
"r. c #7D7C84",
"t. c #877D84",
"y. c #907F85",
"u. c #A57484",
"i. c #A87D86",
"p. c #838284",
"a. c #85848D",
"s. c #8B8789",
"d. c #8B8A8C",
"f. c #9C8688",
"g. c #928B8C",
"h. c #9B938F",
"j. c #8D8C92",
"k. c #8F8F98",
"l. c #9B8D91",
"z. c #959495",
"x. c #9B9393",
"c. c #98959A",
"v. c #9A999B",
"b. c #A58383",
"n. c #AB8484",
"m. c #A58B87",
"M. c #AB8B83",
"N. c #AC858B",
"B. c #AC8B8B",
"V. c #B58584",
"C. c #B48B87",
"Z. c #B38C8C",
"A. c #AD9181",
"S. c #AC938B",
"D. c #B39485",
"F. c #B59688",
"G. c #B3948C",
"H. c #B4998A",
"J. c #BA9B8B",
"K. c #AE8F94",
"L. c #A99897",
"P. c #B59494",
"I. c #B99695",
"U. c #BB9B93",
"Y. c #BD9C9B",
"T. c #B4A28D",
"R. c #BCA38E",
"E. c #AAA49C",
"W. c #BBA496",
"Q. c #9C9CA3",
"!. c #9E9EA8",
"~. c #BF9EA0",
"^. c #A4A3A5",
"/. c #A5A4AB",
"(. c #ABAAAB",
"). c #B4A6A6",
"_. c #B4B0AF",
"`. c #B3B2B3",
"'. c #B8B7B8",
"]. c #C09E8E",
"[. c #C29C95",
"{. c #C19D9C",
"}. c #C1A38F",
"|. c #C2A293",
" X c #C3AB96",
".X c #CAAB96",
"XX c #C2A399",
"oX c #C8A798",
"OX c #CCAC9C",
"+X c #CBB096",
"@X c #CEB19B",
"#X c #D4B49D",
"$X c #D5BA9E",
"%X c #D9B89F",
"&X c #C59EA0",
"*X c #C5A4A4",
"=X c #C6ABA3",
"-X c #CCADA3",
";X c #CEB0A9",
":X c #D5B6A2",
">X c #D6B9A2",
",X c #DBBDA3",
"<X c #DAB9A7",
"1X c #E0BFA9",
"2X c #DDC2A4",
"3X c #DFC2A8",
"4X c #CFC0BE",
"5X c #E2C4A7",
"6X c #E4C5AA",
"7X c #E5C8AB",
"8X c #E6C9AB",
"9X c #EBCCAD",
"0X c #EED0AF",
"qX c #EED1B2",
"wX c #F5D5B4",
"eX c #F8D7B5",
"rX c #F6D9B7",
"tX c #F9D8B6",
"yX c #B7B7C0",
"uX c #C0BEC0",
"iX c #C3C3C3",
"pX c #C8C7CC",
"aX c #CCCBCC",
"sX c #D5D5D5",
"dX c #D9DADB",
"fX c #E2D5CB",
"gX c #DFE0E1",
"hX c #E4E5E5",
"jX c #ECECEC",
"kX c gray96",
"lX c #F8F8F8",
"zX c None",
/* pixels */
"zXzXzXzXzXzXzXzXzXzXzXzXzXzXzXzXzXzXzXzXzXzXzXzXzXzXzXzXzXzXzXzXzXzXzXzXzXzXzXzXzXzXzXzXzXzXzXzXzXzXzXzXzXzXzXzXzXzXzXzXzXzXzXzXzXzXzXzXzXzXzXzXzXzXzXzXzXzXzXzX",
"zXzXzXzXzXzXzXzXzXzXzXzXzXzXzXzXzXzXzXzXzXzXzXzXzXzXzXzXzXzXzXzXzXzXzXzXzXzXzXzXzXzXzXzXzXzXzXzXzXzXzXzXzXzXzXzXzXzXzXzXzXzXzXzXzXzXzXzXzXzXzXzXzXzXzXzXzXzXzXzX",
"zXzXzXzXzXzXzXzXzXzXzXzXzXzXzXzXzXzXzXzXzXzXzXzXzXzXzXzXzXzXzXzXzXzXzXzXzXzXzXzXzXzXzXzXzXzXzXzXzXzXzXzXzXzXzXzXzXzXzXzXzXzXzXzXzXzXzXzXzXzXzXzXzXzXzXzXzXzXzXzX",
"zXzXzXzXzXzXzXzXzXzXzXzXzXzXzXzXzXzXzXzXzXzXzXzXzXzXzXzXzXzXzXzXzXzXN.N.K.P.i.zXzXzXzXzXzXzXzXzXzXzXzXzXzXzXzXzXzXzXzXzXzXzXzXzXzXzXzXzXzXzXzXzXzXzXzXzXzXzXzXzX",
"zXzXzXzXzXzXzXzXzXzXzXzXzXzXzXzXzXzXzXzXzXzXzXzXzXzXzXzXzXzXzXzX=.N.P.P.P.P.P.P.P.N.zXzXzXzXzXzXzXzXzXzXzXzXzXzXzXzXzXzXzXzXzXzXzXzXzXzXzXzXzXzXzXzXzXzXzXzXzXzX",
"zXzXzXzXzXzXzXzXzXzXzXzXzXzXzXzXzXzXzXzXzXzXzXzXzXzXzXzXzXzXzX^ { 3.P.P.P.P.P.P.P.Z.m.n.i.>.$.zXzXzXzXzXzXzXzXzXzXzXzXzXzXzXzXzXzXzXzXzXzXzXzXzXzXzXzXzXzXzXzXzX",
"zXzXzXzXzXzXzXzXzXzXzXzXzXzXzXzXzXzXzXzXzXzXzXzXzXzXzX-X&X>.^ W R W ^ ^ ' <.3.>.,.u.$.>.u.u.u.$.zXzXzXzXzXzXzXzXzXzXzXzXzXzXzXzXzXzXzXzXzXzXzXzXzXzXzXzXzXzXzXzX",
"zXzXzXzXzXzXzXzXzXzXzXzXzXzXzXzXzXzXzXzXzXzXzXzXzXzXzXzXB.-.N.Z.<.] ] W R W R R ^ _ X.>.u.u.$.zXzXzXzXzXzXzXzXzXzXzXzXzXzXzXzXzXzXzXzXzXzXzXzXzXzXzXzXzXzXzXzXzX",
"zXzXzXzXzXzXzXzXzXzXzXzXzXzXzXzXzXzXzXzXzXzXzXzXzXzXzXzXzXF Y J I t.K.i.V.3.] ( ^ R R W ` ` ` zXzXzXzXzXzXzXzXzXzXzXzXzXzXzXzXzXzXzXzXzXzXzXzXzXzXzXzXzXzXzXzXzX",
"zXzXzXzXzXzXzXzXzXzXzXzXzXzXzXzXzXzXzXzXzXzXzXzXzX>X7X Xb j.r.P Y w.w.q.e. .[ 0.0.{ ] W W E 1 zXzXzXzXzXzXzXzXzXzXzXzXzXzXzXzXzXzXzXzXzXzXzXzXzXzXzXzXzXzXzXzXzX",
"zXzXzXzXzXzXzXzXzXzXzXzXzXzXzXzXzXzXzXzXzXzXzX5X0XwXR.7.c T L j.z.j.d.d.r.@.) 4.4.) J I H X.X.$.zXzXzXzXzXzXzXzXzXzXzXzXzXzXzXzXzXzXzXzXzXzXzXzXzXzXzXzXzXzXzXzX",
"zXzXzXzXzXzXzXzXzXzXzXzXzXzXzXzXzXzXzXzXzXzX#X9XtXwXH.6.[ 5 N z.z.z.z.c.&.s.G L.E.g.c.G zXzXzXzXzXzXzXzXzXzXzXzXzXzXzXzXzXzXzXzXzXzXzXzXzXzXzXzXzXzXzXzXzXzXzXzX",
"zXzXzXzXzXzXzXzXzXzXzXzXzXzXzXzXzXzXzXzX,XoX,X,X$X,X5XT.Q. .5 m p.z.p.v.v.s.'.aX`.v.^.< zXzXzXzXzXzXzXzXzXzXzXzXzXzXzXzXzXzXzXzXzXzXzXzXzXzXzXzXzXzXzXzXzXzXzXzX",
"zXzXzXzXzXzXzXzXzXzXzXzXzXzXzX,X5X6X9XwXeX:XOXH.S.U. X9X=X(.x.&.G T s.U d.!.!.p.&.9.zXzXzXzXzXzXzXzXzXzXzXzXzXzXzXzXzXzXzXzXzXzXzXzXzXzXzXzXzXzXzXzXzXzXzXzXzXzX",
"zXzXzXzXzXzXzXzXzXzXzXzX<X9X9X9X0X0X9XqXeX8X%X#X,X9XwXeXwX:XE.`._.^.v.J &.l.t.d.J.,X.XzXzXzXzXzXzXzXzXzXzXzXzXzXzXzXzXzXzXzXzXzXzXzXzXzXzXzXzXzXzXzXzXzXzXzXzXzX",
"zXzXzXzXzXzXzXzXzXzXzX6XwXeXeXeXeXeXwX0X7X7X,XXXXX#X5XwXeXeX5XW.'.`.d.3 R Q = L.*.#X$XF.zXzXzXzXzXzXzXzXzXzXzXzXzXzXzXzXzXzXzXzXzXzXzXzXzXzXzXzXzXzXzXzXzXzXzXzX",
"zXzXzXzXzXzXzXzXzXzX:XwXeXeXeXeXwXwXeXeXwX6X1X3X-XXXU.|.OX5X9XwX>XL.^.L.0 R E z t.D.2X$XoXF.zXzXzXzXzXzXzXzXzXzXzXzXzXzXzXzXzXzXzXzXzXzXzXzXzXzXzXzXzXzXzXzXzXzX",
"zXzXzXzXzXzXzXzXzXzX>XwXeX9X9XeXeX9X9XeXeXeX9X9XeXwX6X:XXXU.U.OX6X5X X_.`.3 Q R } *.-X;XXX}.R.zXzXzXzXzXzXzXzXzXzXzXzXzXzXzXzXzXzXzXzXzXzXzXzXzXzXzXzXzXzXzXzXzX",
"zXzXzXzXzXzXzXzXzXV.#XwX,X,XwXeXwX5X2XeXeXeXeX:X9XeXtXeXwX8X:XoXU.XX>X@X).g.E ! Q ` *X*XU.J.S.zXzXzXzXzXzXzXzXzXzXzXzXzXzXzXzXzXzXzXzXzXzXzXzXzXzXzXzXzXzXzXzXzX",
"zXzXzXzXzXzXzXzXzXV.#X:X#XwXeXwX7X-X<XeXeXeXeXwX#X0XeXeXeXeXeXwX9X,XOXU.R.T.3 Q ! Q { W.R.>Xm.zXzXzXzXzXzXzXzXzXzXzXzXzXzXzXzXzXzXzXzXzXzXzXzXzXzXzXzXzXzXzXzXzX",
"zXzXzXzXzXzXzXzXzX3.oXY.OX,X2X<X=X~.-XtXeXeX6XqX2X#X9XeXeXeXeXeXeXtXeX7X XU.b.' W ! ~ 7.#X9XA.zXzXzXzXzXzXzXzXzXzXzXzXzXzXzXzXzXzXzXzXzXzXzXzXzXzXzXzXzXzXzXzXzX",
"zXzXzXzXzXzXzXzXzX*.B.*X*X*X*X*X*XXX6XeXeX0X@X9X7XF.OXwXeXeXeXeXeXeXeXtXwXOXU.P.*./ R ( rX6XH.@.zXzXzXzXzXzXzXzXzXzXzXzXzXzXzXzXzXzXzXzXzXzXzXzXzXzXzXzXzXzXzXzX",
"zXzXzXzXzXzXzXzXzXzXb.{.*X*X*X{.[.>XeXeXwX5XOX9X5X*.{.:X9XeXeXeXeXeXeXtXeX0X>XU.P.B.} ' 7X:XH.=.zXzXzXzXzXzXzXzXzXzXzXzXzXzXzXzXzXzXzXzXzXzXzXzXzXzXzXzXzXzXzXzX",
"zXzXzXzXzXzXzXzXzXzX*.Y.*X*X[.OX7XeXeXwX7X.X>XwX5X+.Y.*XOX,XqXeXeXtX9X#X5XwXwX6XU.P.P.-.O.K.H.:.| zXzXzXzXzXzXzXzXzXzXzXzXzXzXzXzXzXzXzXzXzXzXzXzXzXzXzXzXzXzXzX",
"zXzXzXzXzXzXzXzXzXzX*.Y.*XoX,XwXeXeXeX5X+X#X9XeXoX*.{.*X*X*X-X:X6XwXF.8.M.6XeXeX6XoXK. .M #.m.7.o.zXzXzXzXzXzXzXzXzXzXzXzXzXzXzXzXzXzXzXzXzXzXzXzXzXzXzXzXzXzXzX",
"zXzXzXzXzXzXzXzXzXzX*.Y.*X>X9XwXeXtX9X$X5XeXeXwX7.*.I.*X*X*X*X*X*X-XY.D.U.,X6X6X2X-X*XB.%.;.:.=.=.zXzXzXzXzXzXzXzXzXzXzXzXzXzXzXzXzXzXzXzXzXzXzXzXzXzXzXzXzXzXzX",
"zXzXzXzXzXzXzXzXzXzX*.Y.[.oX@X@X#X#X#X#X,X6X9X>X+.o.b.P.Y.Y.Y.*X*X&X*X*XY.L.4X).).).).L.*.+.=.,.n...c zXzXzXzXzXzXzXzXzXzXzXzXzXzXzXzXzXzXzXzXzXzXzXzXzXzXzXzXzX",
"zXzXzXzXzXzXzXzXzXzX*.V.{.F.n.7.n.3.7.8.D.oX,XOXo.o.*.b.b.:.:.I.b.G.J.M.D.x.aXx.h.h.x.s. .B | 2.1.,.c zXzXzXzXzXzXzXzXzXzXzXzXzXzXzXzXzXzXzXzXzXzXzXzXzXzXzXzXzX",
"zXzXzXzXzXzXzXzXzXzXzX:.Y.;.V.2.2.B.D..X7XeXeXwX,XOXm.m.P.m.-.B.;.Y.J.oX9XE.pXW.XXU.6.x.:.+.m o.....@.9.9.9.zXzXzXzXzXzXzXzXzXzXzXzXzXzXzXzXzXzXzXzXzXzXzXzXzXzX",
"zXzXzXzXzXzXzXzXzXzXzX*.Y.C.I.B.P.U.XXOX,X0XeXeXeXeX9X.XG.b.-.B.*.B.;.#X:Xx.pXK.B.f.J t...| m o.o.:.F.J.|.|.H.6.zXzXzXzXzXzXzXzXzXzXzXzXzXzXzXzXzXzXzXzXzXzXzXzX",
"zXzXzXzXzXzXzXzXzXzXzX..P.*X*X*X*X*X*X*X*X@X6XwXeXeXeXtX9XoXM.G.F.A.;.#XF.f.'.z.j.j.j.5.m b m ..=.,.7.8.D.J.oXR.D.A.zXzXzXzXzXzXzXzXzXzXzXzXzXzXzXzXzXzXzXzXzXzX",
"zXzXzXzXzXzXzXzXzXzXzXzX*.B.Y.*X*X*X*X*X*X*XoX>X6X9XeXwX5X6X6X|.R..X8.#X7..X#XW.W.W.T.m.*.+.o.| 2.3.V.V.V.F.].|.|.F.D.9.zXzXzXzXzXzXzXzXzXzXzXzXzXzXzXzXzXzXzXzX",
"zXzXzXzXzXzXzXzXzXzXzXzXzXzX-.B.Y.*X*X*X*X*X*X*X*XOX$X.X6X6X,X%X2X>X|.#X7.#XwXwXwXwX7X@XZ.=.=.+.2.V.V.V.V.V.V.7.A.J.J.H.J.F.A.zXzXzXzXzXzXzXzXzXzXzXzXzXzXzXzXzX",
"zXzXzXzXzXzXzXzXzXzXzXzXzXzXD.D.D.b.Z.Y.*X*X*X*X*Xb.B.H..X@X6XeXeXqXqXfX;X).g.W.@X@XOXU.%.H =.o.=.V.V.V.V.2.1.:.*.;.M.].|.|.W.f.5.zXzXzXzXzXzXzXzXzXzXzXzXzXzXzX",
"zXzXzXzXzXzXzXzXzXzXzXzXzXzX}.2X2X@XF.7.3.b.P.*X*X;.:.&.G.=XOX>X7XfXuX(.^./.Q.a.f.P.P.b.H M ..1.H | 2.V.1.n | ..*...V.M.W.'.iXiX(.e.zXzXzXzXzXzXzXzXzXzXzXzXzXzX",
"zXzXzXzXzXzXzXzXzXzXzXzXzXF.oX#XoXXXI.I.Z.m.2.:.3.H Z...*X*XP.S.aX`./.aXhXkXkXhX'.g.f.P.B.f.*.2.b zXb  .k =. ...V.V.1.l.Q.^.iXsXsXiXx.zXzXzXzXzXzXzXzXzXzXzXzXzX",
"zXzXzXzXzXzXzXzXzXzXzXzXzXD.U.U.P.P.P.P.P.P.P.P.m.*.-.H Z.*Xf.U /.^.jXlXlXkXlXlXkXgX'.l.B.I.:.,.n zXzXzXzXb t 1.V.2.#.r.r.(.aXsXsXsXsX`.j.zXzXzXzXzXzXzXzXzXzXzX",
"zXzXzXzXzXzXzXzXzXzXzXzXzXV.P.P.P.P.P.P.P.P.P.P.P.P.P.B.2.3.*.G j.j.dXkXkXkXkXkXkXjXjX`./.L.;.,.n zXzXzXzXzXzXi  .o.b K T ^.iXsXsXsXsX`.aX`.k.zXzXzXzXzXzXzXzXzX",
"zXzXzXzXzXzXzXzXzXzXzXzXzXV.P.P.P.P.P.P.P.P.P.P.P.P.P.P.P.B...U m.-.h.iXsXjXpXhXkXiXaXsXyX'.x.=.b zXzXzXzXzXzXzXzXi e zXzXU ^.'.iXiX`.I g.(.'.k.a.zXzXzXzXzXzXzX",
"zXzXzXzXzXzXzXzXzXzXzXzXzXV.P.P.P.P.P.P.P.P.P.P.P.P.P.P.P.P.B.*.2.#XXXy.d.dX^.c.pXhX`.!.aX'.Q.j.A zXzXzXzXzXzXzXzXzXzXzXzXzXG G p.z.e.zXzXG z.'.c.r.zXzXzXzXzXzX",
"zXzXzXzXzXzXzXzXzXzXzXzXzXV.P.P.P.P.P.P.P.P.P.P.P.P.P.P.P.P.B...7.,XOXP.J (.v.B.b.Q./.e.l.Q.^.z.v.zXzXzXzXzXzXzXzXzXzXzXzXzXzXzXk s.F zXzXzXG z.r.U r.zXzXzXzXzX",
"zXzXzXzXzXzXzXzXzXzXzXzXzXV.P.P.P.P.P.P.P.P.P.P.P.P.P.P.P.P.B...9.,XW.P.G c.a.K.B.t.Q.&.m.t.^.a.&.zXzXzXzXzXzXzXzXzXzXzXzXzXzXzXj G zXzXzXj C G U U U zXzXzXzXzX",
"zXzXzXzXzXzXzXzXzXzXzXzXzXV.P.P.P.P.P.P.P.P.P.P.P.P.P.P.P.P.B...D.@XP.P...y.B.P.P.B.f.B.P.B.&.&.| zXzXzXzXzXzXzXzXzXzXzXzXzXzXzXzXzXzXzXzXzXzXzXG F zXzXzXzXzXzX",
"zXzXzXzXzXzXzXzXzXzXzXzXzXV.P.P.P.P.P.P.P.P.P.P.P.P.P.P.P.P.B.*.M.XXP.P.*.B.P.P.P.P.P.P.P.P.b.*...zXzXzXzXzXzXzXzXzXzXzXzXzXzXzXzXzXzXzXzXzXzXzXzXzXzXzXzXzXzXzX",
"zXzXzXzXzXzXzXzXzXzXzXzXzXV.P.P.P.P.P.P.P.P.P.P.P.P.P.P.P.P.B.*.-.;.*.;.o.B.P.P.P.P.P.P.P.P.b.*...zXzXzXzXzXzXzXzXzXzXzXzXzXzXzXzXzXzXzXzXzXzXzXzXzXzXzXzXzXzXzX",
"zXzXzXzXzXzXzXzXzXzXzXzXzXV.Z.P.P.P.P.P.P.P.P.P.P.P.P.P.P.P.B.*.*.*.*.3.Z.P.P.P.P.P.P.P.P.P.b.*...zXzXzXzXzXzXzXzXzXzXzXzXzXzXzXzXzXzXzXzXzXzXzXzXzXzXzXzXzXzXzX",
"zXzXzXzXzXzXzXzXzXzXzXzXzXV.V.P.P.P.P.P.P.P.P.P.P.P.P.P.P.P.P.P.P.K.P.P.P.P.P.P.P.P.P.P.P.P.:.....zXzXzXzXzXzXzXzXzXzXzXzXzXzXzXzXzXzXzXzXzXzXzXzXzXzXzXzXzXzXzX",
"zXzXzXzXzXzXzXzXzXzXzXzX*.Z.C.P.P.P.P.P.P.P.P.P.P.P.P.P.P.P.P.P.P.P.P.P.P.P.P.P.P.P.P.P.P.P.:.....zXzXzXzXzXzXzXzXzXzXzXzXzXzXzXzXzXzXzXzXzXzXzXzXzXzXzXzXzXzXzX",
"zXzXzXzXzXzXzXzXzXzXzXzX*.P.P.C.P.P.P.P.P.P.P.P.P.P.P.P.P.P.P.P.P.P.P.P.P.P.P.P.P.P.P.P.P.P.:.....zXzXzXzXzXzXzXzXzXzXzXzXzXzXzXzXzXzXzXzXzXzXzXzXzXzXzXzXzXzXzX",
"zXzXzXzXzXzXzXzXzXzXzXzX*.P.P.P.C.P.P.P.P.P.P.P.P.P.P.P.P.P.P.P.P.P.P.P.P.P.P.P.P.P.P.P.P.P.:.....zXzXzXzXzXzXzXzXzXzXzXzXzXzXzXzXzXzXzXzXzXzXzXzXzXzXzXzXzXzXzX",
"zXzXzXzXzXzXzXzXzXzXzXzX*.P.P.P.P.P.P.P.P.P.P.P.P.P.P.P.P.P.P.P.P.P.P.P.P.P.P.P.P.P.P.P.P.Z.o.....zXzXzXzXzXzXzXzXzXzXzXzXzXzXzXzXzXzXzXzXzXzXzXzXzXzXzXzXzXzXzX",
"zXzXzXzXzXzXzXzXzXzXzXzX*.P.P.P.P.P.P.P.P.P.P.P.P.P.P.P.P.P.P.P.P.P.P.P.P.P.P.P.P.P.P.P.P.m.......zXzXzXzXzXzXzXzXzXzXzXzXzXzXzXzXzXzXzXzXzXzXzXzXzXzXzXzXzXzXzX",
"zXzXzXzXzXzXzXzXzXzXzX*.b.P.P.P.P.P.P.P.P.P.P.P.P.P.P.P.P.P.P.P.P.P.P.P.P.P.P.P.P.P.P.P.Z.3.......zXzXzXzXzXzXzXzXzXzXzXzXzXzXzXzXzXzXzXzXzXzXzXzXzXzXzXzXzXzXzX",
"zXzXzXzXzXzXzXzXzXzXzX*.Z.P.P.P.P.P.P.P.P.P.P.P.P.P.P.P.P.P.P.P.P.P.P.P.P.P.P.P.P.P.P.P.B.1.=.....zXzXzXzXzXzXzXzXzXzXzXzXzXzXzXzXzXzXzXzXzXzXzXzXzXzXzXzXzXzXzX",
"zXzXzXzXzXzXzXzXzXzXzX*.P.P.P.P.P.P.P.P.P.P.P.P.P.P.P.P.P.P.P.P.P.P.P.P.P.P.P.P.P.P.P.P.m.1.=.....zXzXzXzXzXzXzXzXzXzXzXzXzXzXzXzXzXzXzXzXzXzXzXzXzXzXzXzXzXzXzX",
"zXzXzXzXzXzXzXzXzXzXzX*.P.P.P.P.P.P.P.P.P.P.P.P.P.P.P.P.P.P.P.P.P.P.P.P.P.P.P.P.P.P.P.B.1.,.o.*...zXzXzXzXzXzXzXzXzXzXzXzXzXzXzXzXzXzXzXzXzXzXzXzXzXzXzXzXzXzXzX",
"zXzXzXzXzXzXzXzXzXzXzX*.P.P.P.P.P.P.P.P.P.P.P.P.P.P.P.P.P.P.P.P.P.P.P.P.P.P.P.P.P.P.P.n.1.,...*...zXzXzXzXzXzXzXzXzXzXzXzXzXzXzXzXzXzXzXzXzXzXzXzXzXzXzXzXzXzXzX",
"zXzXzXzXzXzXzXzXzXzXzX1.P.P.P.P.P.P.P.P.P.P.P.P.P.P.P.P.P.P.P.P.P.P.P.P.P.P.P.P.P.P.B.=.V.=...*...zXzXzXzXzXzXzXzXzXzXzXzXzXzXzXzXzXzXzXzXzXzXzXzXzXzXzXzXzXzXzX",
"zXzXzXzXzXzXzXzXzXzX*.B.P.P.P.P.P.P.P.P.P.P.P.P.P.P.P.P.P.P.P.P.P.P.P.P.P.P.P.P.P.P.3.2.n.o...*...zXzXzXzXzXzXzXzXzXzXzXzXzXzXzXzXzXzXzXzXzXzXzXzXzXzXzXzXzXzXzX",
"zXzXzXzXzXzXzXzXzXzX*.B.P.P.P.P.P.P.P.P.P.P.P.P.P.P.P.P.P.P.P.P.P.P.P.P.P.P.P.P.P.n.1.V.2...*.*...zXzXzXzXzXzXzXzXzXzXzXzXzXzXzXzXzXzXzXzXzXzXzXzXzXzXzXzXzXzXzX",
"zXzXzXzXzXzXzXzXzXzX*.Z.P.P.P.P.P.P.P.P.P.P.P.P.P.P.P.P.P.P.P.P.P.P.P.P.P.P.P.P.N.=.C.P.1...*.*...zXzXzXzXzXzXzXzXzXzXzXzXzXzXzXzXzXzXzXzXzXzXzXzXzXzXzXzXzXzXzX",
"zXzXzXzXzXzXzXzXzX*.m.P.P.P.P.P.P.P.P.P.P.P.P.P.P.P.P.P.P.P.P.P.P.P.P.P.P.P.P.n.3.C.P.P.2...*.*...zXzXzXzXzXzXzXzXzXzXzXzXzXzXzXzXzXzXzXzXzXzXzXzXzXzXzXzXzXzXzX",
"zXzXzXzXzXzXzXzXzX*.B.P.P.P.P.P.P.P.P.P.P.P.P.P.P.P.P.P.P.P.P.P.P.P.P.P.P.B.b.N.P.P.P.Z.=...*.*...zXzXzXzXzXzXzXzXzXzXzXzXzXzXzXzXzXzXzXzXzXzXzXzXzXzXzXzXzXzXzX",
"zXzXzXzXzXzXzXzXzX*.B.P.P.P.P.P.P.P.P.P.P.P.P.P.P.P.P.P.P.P.P.P.P.P.P.P.b.n.Z.P.P.P.P.3.....*.*...zXzXzXzXzXzXzXzXzXzXzXzXzXzXzXzXzXzXzXzXzXzXzXzXzXzXzXzXzXzXzX",
"zXzXzXzXzXzXzXzXzX*.B.P.P.P.P.P.P.P.P.P.P.P.P.P.P.P.P.P.P.P.P.P.P.P.B.b.C.P.P.P.P.P.C.2...*.*.*.B zXzXzXzXzXzXzXzXzXzXzXzXzXzXzXzXzXzXzXzXzXzXzXzXzXzXzXzXzXzXzX",
"zXzXzXzXzXzXzXzXzX*.B.P.P.P.P.P.P.P.P.P.P.P.P.P.P.P.P.P.P.P.P.G.b.b.B.P.P.P.P.P.P.Z.V.1.| | | | m zXzXzXzXzXzXzXzXzXzXzXzXzXzXzXzXzXzXzXzXzXzXzXzXzXzXzXzXzXzXzX",
"zXzXzXzXzXzXzXzXzXD =.B.G.P.P.P.P.P.P.P.P.P.P.P.P.P.P.P.P.P.P.P.P.P.P.P.P.P.P.P.C.V.V.=.p zXzXzXzXzXzXzXzXzXzXzXzXzXzXzXzXzXzXzXzXzXzXzXzXzXzXzXzXzXzXzXzXzXzXzX",
"zXzXzXzXzXzXzXzXzXf J I %.*.-.-.;.;.;.-.*.;.*.+...*.B | B n n n n n n n n n n m M B ..H q zXzXzXzXzXzXzXzXzXzXzXzXzXzXzXzXzXzXzXzXzXzXzXzXzXzXzXzXzXzXzXzXzXzXzX",
"zXzXzXzXzXzXzXzXzXf P w.w.P K v l x 5 4 5 x x 4 * zX- 2 2 > > > > > > > > > : : < r $ zXzXzXzXzXzXzXzXzXzXzXzXzXzXzXzXzXzXzXzXzXzXzXzXzXzXzXzXzXzXzXzXzXzXzXzXzX",
"zXzXzXzXzXzXzXzXzXf P w.w.w.w.q.A l 4 4 x x x - zXzX- : 2 2 2 2 2 2 2 2 2 : , u f < O zXzXzXzXzXzXzXzXzXzXzXzXzXzXzXzXzXzXzXzXzXzXzXzXzXzXzXzXzXzXzXzXzXzXzXzXzX",
"zXzXzXzXzXzXzXzXzXf P w.w.w.w.w.P V , l x x 4 * zXzXX ; : 2 2 2 2 : : > , y f u , - zXzXzXzXzXzXzXzXzXzXzXzXzXzXzXzXzXzXzXzXzXzXzXzXzXzXzXzXzXzXzXzXzXzXzXzXzXzX",
"zXzXzXzXzXzXzXzXzXf P w.w.w.w.P K V 8 v l 4 : zXzXzXo r < : : : , y y u i < , > : - zXzXzXzXzXzXzXzXzXzXzXzXzXzXzXzXzXzXzXzXzXzXzXzXzXzXzXzXzXzXzXzXzXzXzXzXzXzX",
"zXzXzXzXzXzXzXzXzXf P w.w.w.w.K K K V d g v , zXzXzXO 8 f i i i f f f u y 9 , u r 8 O zXzXzXzXzXzXzXzXzXzXzXzXzXzXzXzXzXzXzXzXzXzXzXzXzXzXzXzXzXzXzXzXzXzXzXzXzX",
"zXzXzXzXzXzXzXzXzXA P w.w.w.K K K K K S d d g $ zXzX# # $ r f f f r 8 7 7 $ # % 8 Z Z L j s zXzXzXzXzXzXzXzXzXzXzXzXzXzXzXzXzXzXzXzXzXzXzXzXzXzXzXzXzXzXzXzXzXzX",
"zXzXzXzXzXzXzXzXf L w.w.P K K K K K K A g g g 8 zXzXo t % # $ $ $ 7 7 & & % w w h j F U U F Z C j 6 # zXzXzXzXzXzXzXzXzXzXzXzXzXzXzXzXzXzXzXzXzXzXzXzXzXzXzXzXzX",
"zXzXzXzXzXzXzXzXf L w.P K P K K K S S S j g g g % zX. % & e e w w w t e e w w & & w e e F r.Y Y Y P F S s a . zXzXzXzXzXzXzXzXzXzXzXzXzXzXzXzXzXzXzXzXzXzXzXzXzX",
"zXzXzXzXzXzXzXzXzXk P P S k j Z e.j.w.P F C j f + zXo # $ % % # + o o o o o @ @ # e e e t s h h h s t j h t + zXzXzXzXzXzXzXzXzXzXzXzXzXzXzXzXzXzXzXzXzXzXzXzXzX",
"zXzXzXzXzXzXzXzXzXo a s w w w j P a.j.e.w.P P P S C C 7 # zXzXzXzXzXzXzXzXzXzXzXzXzXzXzXzXzXzXzXzXzXzXzXzXzXzXzXzXzXzXzXzXzXzXzXzXzXzXzXzXzXzXzXzXzXzXzXzXzXzXzX",
"zXzXzXzXzXzXzXzXzX  s j w w w & 7 a L r.Y r.j.p.r.r.L C j w zXzXzXzXzXzXzXzXzXzXzXzXzXzXzXzXzXzXzXzXzXzXzXzXzXzXzXzXzXzXzXzXzXzXzXzXzXzXzXzXzXzXzXzXzXzXzXzXzXzX",
"zXzXzXzXzXzXzXzXzXzX+ @ @ @ + o # % 7 t t t C F F C C j j 7   zXzXzXzXzXzXzXzXzXzXzXzXzXzXzXzXzXzXzXzXzXzXzXzXzXzXzXzXzXzXzXzXzXzXzXzXzXzXzXzXzXzXzXzXzXzXzXzXzX"
};
