/* XPM */
static char *result[] = {
/* columns rows colors chars-per-pixel */
"80 80 229 2 ",
"   c #200F20",
".  c #241323",
"X  c #271927",
"o  c #291825",
"O  c #361F22",
"+  c #2D222D",
"@  c #38262A",
"#  c #332B34",
"$  c #362A36",
"%  c #3B343B",
"&  c #3D3A3D",
"*  c #410000",
"=  c #7E0000",
"-  c #4C2C22",
";  c #482629",
":  c #552C28",
">  c #4D372D",
",  c #533122",
"<  c #57372C",
"1  c #5C322B",
"2  c #4C2D37",
"3  c #49373C",
"4  c #543A34",
"5  c #583936",
"6  c #61312E",
"7  c #603B2E",
"8  c #633131",
"9  c #643D38",
"0  c #57443E",
"q  c #674337",
"w  c #6E4D3A",
"e  c #6E4A3E",
"r  c #3F3340",
"t  c #4A3743",
"y  c #433B44",
"u  c #473D4C",
"i  c #683F41",
"p  c #444344",
"a  c #49444B",
"s  c #4B4A4B",
"d  c #57494A",
"f  c #4D4852",
"g  c #574D58",
"h  c #4F5056",
"j  c #515152",
"k  c #56555D",
"l  c #5A5858",
"z  c #6B4543",
"x  c #634C43",
"c  c #6C5649",
"v  c #745242",
"b  c #705B4E",
"n  c #634C57",
"m  c #645A5A",
"M  c #755D54",
"N  c #795F56",
"B  c #6B635E",
"V  c #7B635A",
"C  c #796459",
"Z  c #5C5C63",
"A  c #5C5866",
"S  c #665C66",
"D  c #6A5E6D",
"F  c #715F6B",
"G  c #666266",
"H  c #62626B",
"J  c #796869",
"K  c #7D726F",
"L  c #656573",
"P  c #6B6474",
"I  c #696A76",
"U  c #6D6A7A",
"Y  c #716F75",
"T  c #706C7B",
"R  c #767375",
"E  c #74737C",
"W  c #940202",
"Q  c #960909",
"!  c #960E11",
"~  c #971718",
"^  c #AB0301",
"/  c #AF0908",
"(  c #992627",
")  c #9A3238",
"_  c #AE2823",
"`  c #9A5B38",
"'  c #953B43",
"]  c #974D51",
"[  c #9C4E51",
"{  c #A44F51",
"}  c #84665D",
"|  c #866B5E",
" . c #956759",
".. c #AC655B",
"X. c #9C5C65",
"o. c #866665",
"O. c #886767",
"+. c #866A65",
"@. c #8C6B64",
"#. c #8C6B6B",
"$. c #956B69",
"%. c #926E6E",
"&. c #8C7268",
"*. c #94726D",
"=. c #94766E",
"-. c #856E72",
";. c #956C70",
":. c #87777B",
">. c #947373",
",. c #9B7473",
"<. c #947A73",
"1. c #9B7A75",
"2. c #95757A",
"3. c #967E7E",
"4. c #9C7A7A",
"5. c #A86769",
"6. c #A26977",
"7. c #A37778",
"8. c #A47B7B",
"9. c #AA7D7D",
"0. c #CC8414",
"q. c #C78224",
"w. c #A2814E",
"e. c #99806F",
"r. c #9D837C",
"t. c #9B8B7C",
"y. c #A58C69",
"u. c #A4837B",
"i. c #A8887D",
"p. c #737384",
"a. c #7C7B83",
"s. c #7C7885",
"d. c #8A7D84",
"f. c #907E85",
"g. c #A57384",
"h. c #A87C88",
"j. c #7F8089",
"k. c #84848B",
"l. c #888288",
"z. c #8A8A8E",
"x. c #988687",
"c. c #9D9389",
"v. c #8A8993",
"b. c #8C8B93",
"n. c #948E94",
"m. c #8F9097",
"M. c #929295",
"N. c #94949B",
"B. c #999599",
"V. c #9B9A9C",
"C. c #A48383",
"Z. c #AC8482",
"A. c #AC8B82",
"S. c #AB868A",
"D. c #A18A89",
"F. c #AC8B8C",
"G. c #B58484",
"H. c #B88A87",
"J. c #B48C8C",
"K. c #AD9384",
"L. c #AD968B",
"P. c #B29387",
"I. c #B4938C",
"U. c #BC938A",
"Y. c #B69988",
"T. c #BB9A8D",
"R. c #AF8F90",
"E. c #B28E91",
"W. c #A49994",
"Q. c #B59494",
"!. c #BC9694",
"~. c #BB9B95",
"^. c #BE9698",
"/. c #BC9B9A",
"(. c #B4A390",
"). c #BAA596",
"_. c #9C9CA2",
"`. c #A5A4A5",
"'. c #A7A6A7",
"]. c #ABABAD",
"[. c #B4A8A9",
"{. c #B2AEAE",
"}. c #B4B4B5",
"|. c #B5B5B8",
" X c #BBBBBB",
".X c #C0998F",
"XX c #C09893",
"oX c #C19D9D",
"OX c #C3A393",
"+X c #CAA595",
"@X c #C7A997",
"#X c #C9AA97",
"$X c #C3A29A",
"%X c #CCAC9C",
"&X c #D1AD9C",
"*X c #CEB39A",
"=X c #D4B49D",
"-X c #D6BA9E",
";X c #C5A4A4",
":X c #C7A8A4",
">X c #CBABA3",
",X c #D1AFA4",
"<X c #CEB3A8",
"1X c #D4B3A4",
"2X c #D8B8A2",
"3X c #DBBBA4",
"4X c #DDBDA9",
"5X c #E0BFA7",
"6X c #DAC2A5",
"7X c #DEC0A9",
"8X c #D4C5B6",
"9X c #E2C2A7",
"0X c #E3C3AA",
"qX c #E7C7AB",
"wX c #EBCBAE",
"eX c #EECDB0",
"rX c #F0CFB0",
"tX c #EFD0B0",
"yX c #F5D5B4",
"uX c #F8D7B5",
"iX c #F9D8B6",
"pX c #C8C4C5",
"aX c #CACACB",
"sX c #CFD0D1",
"dX c #D2D2D2",
"fX c #DCDCDD",
"gX c gray90",
"hX c gray91",
"jX c None",
/* pixels */
"jXjXjXjXjXjXjXjXjXjXjXjXjXjXjXjXjXjXjXjXjXjXjXjXjXjXjXjXjXjXjXjXjXjXjXjXjXjXjXjXjXjXjXjXjXjXjXjXjXjXjXjXjXjXjXjXjXjXjXjXjXjXjXjXjXjXjXjXjXjXjXjXjXjXjXjXjXjXjXjX",
"jXjXjXjXjXjXjXjXjXjXjXjXjXjXjXjXjXjXjXjXjXjXjXjXjXjXjXjXjXjXjXjXjXjXjXjXjXjXjXjXjXjXjXjXjXjXjXjXjXjXjXjXjXjXjXjXjXjXjXjXjXjXjXjXjXjXjXjXjXjXjXjXjXjXjXjXjXjXjXjX",
"jXjXjXjXjXjXjXjXjXjXjXjXjXjXjXjXjXjXjXjXjXjXjXjXjXjXjXjXjXjXjXjXjXjXjXjXh.E.Q.h.jXjXjXjXjXjXjXjXjXjXjXjXjXjXjXjXjXjXjXjXjXjXjXjXjXjXjXjXjXjXjXjXjXjXjXjXjXjXjXjX",
"jXjXjXjXjXjXjXjXjXjXjXjXjXjXjXjXjXjXjXjXjXjXjXjXjXjXjXjXjXjXjXjXjXjXjXS.E.Q.Q.Q.Q.Q.J.Q.J.jXjXjXjXjXjXjXjXjXjXjXjXjXjXjXjXjXjXjXjXjXjXjXjXjXjXjXjXjXjXjXjXjXjXjX",
"jXjXjXjXjXjXjXjXjXjXjXjXjXjXjXjXjXjXjXjXjXjXjXjXjXjXjXjXjXjXjXjXjXjX{ 9.E.Q.Q.Q.Q.Q.Q.Q.Q.E.h.g.g.jXjXjXjXjXjXjXjXjXjXjXjXjXjXjXjXjXjXjXjXjXjXjXjXjXjXjXjXjXjXjX",
"jXjXjXjXjXjXjXjXjXjXjXjXjXjXjXjXjXjXjXjXjXjXjXjXjXjXjXjXjX;XoXjXjX= W ! ~ ( { 5.5.S.E.S.h.h.g.g.7.$.jXjXjXjXjXjXjXjXjXjXjXjXjXjXjXjXjXjXjXjXjXjXjXjXjXjXjXjXjXjX",
"jXjXjXjXjXjXjXjXjXjXjXjXjXjXjXjXjXjXjXjXjXjXjXjXjXjXjXjXjXjXjX;X9.5...( ~ ! W W W ( ( ) X.5.6.g.;.jXjXjXjXjXjXjXjXjXjXjXjXjXjXjXjXjXjXjXjXjXjXjXjXjXjXjXjXjXjXjX",
"jXjXjXjXjXjXjXjXjXjXjXjXjXjXjXjXjXjXjXjXjXjXjXjXjXjXjXjXjXjXjXjXl S K -.,.g.[ { ' ! Q Q W W ~ ) ] jXjXjXjXjXjXjXjXjXjXjXjXjXjXjXjXjXjXjXjXjXjXjXjXjXjXjXjXjXjXjX",
"jXjXjXjXjXjXjXjXjXjXjXjXjXjXjXjXjXjXjXjXjXjXjXjXjXjXjXjXjX+X).K A h j Z S m m -.<...5.X.( ) ~ W jXjXjXjXjXjXjXjXjXjXjXjXjXjXjXjXjXjXjXjXjXjXjXjXjXjXjXjXjXjXjXjX",
"jXjXjXjXjXjXjXjXjXjXjXjXjXjXjXjXjXjXjXjXjXjXjXjXjXjX0XwXwX@Xr.Z L k U p.p.I I m ` 0.q.`  .2.;.X.' jXjXjXjXjXjXjXjXjXjXjXjXjXjXjXjXjXjXjXjXjXjXjXjXjXjXjXjXjXjXjX",
"jXjXjXjXjXjXjXjXjXjXjXjXjXjXjXjXjXjXjXjXjXjXjXjXjX3XyXiXqXt.e.m Z Z p.p.p.p.p.G R w y.(.V.B.l.G jXg.g.jXjXjXjXjXjXjXjXjXjXjXjXjXjXjXjXjXjXjXjXjXjXjXjXjXjXjXjXjX",
"jXjXjXjXjXjXjXjXjXjXjXjXjXjXjXjXjXjXjXjXjXjXjXjX*XwX*X*X9Xc.L.w.d Z p.p.p.a.k.z.R z.aXsX}._.m.jXjXjXjXjXjXjXjXjXjXjXjXjXjXjXjXjXjXjXjXjXjXjXjXjXjXjXjXjXjXjXjXjX",
"jXjXjXjXjXjXjXjXjXjXjXjXjXjXjXjXjXjXjXjX2X9XwXwX-X1X~.I.OX#X).W.t.| S H k.J R R z.'.`.M.p.jXjXjXjXjXjXjXjXjXjXjXjXjXjXjXjXjXjXjXjXjXjXjXjXjXjXjXjXjXjXjXjXjXjXjX",
"jXjXjXjXjXjXjXjXjXjXjXjXjXjXjXjXjX0X4X4X0XeXyXuXyXwXwX>X~.+X-X*X(.W.l.C B m j M.z.:.J u.T.jXjXjXjXjXjXjXjXjXjXjXjXjXjXjXjXjXjXjXjXjXjXjXjXjXjXjXjXjXjXjXjXjXjXjX",
"jXjXjXjXjXjXjXjXjXjXjXjXjXjXjX5XeXyXyXyXyXeXqXeXyXyX9X4XqXrXyXiXqX).'.].'.J w ` w R H.K.r.jXjXjXjXjXjXjXjXjXjXjXjXjXjXjXjXjXjXjXjXjXjXjXjXjXjXjXjXjXjXjXjXjXjXjX",
"jXjXjXjXjXjXjXjXjXjXjXjXjXjX7XyXuXyXyXyXyXyXyXwXwXyXwX2X$X$X>X4XeXyX2X[.B.v.( / / d.U.K.i.jXjXjXjXjXjXjXjXjXjXjXjXjXjXjXjXjXjXjXjXjXjXjXjXjXjXjXjXjXjXjXjXjXjXjX",
"jXjXjXjXjXjXjXjXjXjXjXjXjX=XyXyXyXyXyXyXuXqXeXuXyX4XwXwX3X%X/.Q.~.1XwXqX@XW.F.! ^ ( ,.H.T.T.Y.jXjXjXjXjXjXjXjXjXjXjXjXjXjXjXjXjXjXjXjXjXjXjXjXjXjXjXjXjXjXjXjXjX",
"jXjXjXjXjXjXjXjXjXjXjXjXjX3XyX7XyXyXyXyXyX0XwXuXyXeX4XyXuXyXwX7X>X/.~.$X5X3X)._ ^ ^ ) 8.G.U.K.+.jXjXjXjXjXjXjXjXjXjXjXjXjXjXjXjXjXjXjXjXjXjXjXjXjXjXjXjXjXjXjXjX",
"jXjXjXjXjXjXjXjXjXjXjXjXjX3XwX4XyXyXuXyX7XqXyXyXyXyXwXqXyXyXuXuXyXeX0X$X~.$X%XU.{ ^ Q ] 9.H.<.<.,.jXjXjXjXjXjXjXjXjXjXjXjXjXjXjXjXjXjXjXjXjXjXjXjXjXjXjXjXjXjXjX",
"jXjXjXjXjXjXjXjXjXjXjXjXjX1X+XwXyXyXyX2X>XwXuXyXyXyXyX3XwXyXyXyXyXyXiXyXqX%XQ.~.~.) W Q [ Z.>.P.1.O.jXjXjXjXjXjXjXjXjXjXjXjXjXjXjXjXjXjXjXjXjXjXjXjXjXjXjXjXjXjX",
"jXjXjXjXjXjXjXjXjXjXjXjXjX,XU.yXyXwX2X!.+XyXuXyXyXyXyXeX2XqXyXyXyXyXyXyXyXyX4XoXQ.!.5.~ ( ,.i.@X1.#.jXjXjXjXjXjXjXjXjXjXjXjXjXjXjXjXjXjXjXjXjXjXjXjXjXjXjXjXjXjX",
"jXjXjXjXjXjXjXjXjXjXjXjXjX+XU.tX7X>X;X!.2XiXyXyX0XyXuXrX~.1XwXuXyXyXyXyXyXuXyXwX1X~.Q.u. .,..XK.*.%.jXjXjXjXjXjXjXjXjXjXjXjXjXjXjXjXjXjXjXjXjXjXjXjXjXjXjXjXjXjX",
"jXjXjXjXjXjXjXjXjXjXjXjXjX.XU.,X;X;X^.+XyXyXyXuX2XyXyXwXY.;X1XeXyXuXyXyXiXwXyXuXyXqX%X~.Q.<.u.&.%.4.jXjXjXjXjXjXjXjXjXjXjXjXjXjXjXjXjXjXjXjXjXjXjXjXjXjXjXjXjXjX",
"jXjXjXjXjXjXjXjXjXjXjXjXjX4.;X;X;X;XXX3XiXyXyXtX%XrXyXqX>.oX;X>X4XwXyXiX=XY.+XyXuXuXyX0XT.M @.| *.8.jXjXjXjXjXjXjXjXjXjXjXjXjXjXjXjXjXjXjXjXjXjXjXjXjXjXjXjXjXjX",
"jXjXjXjXjXjXjXjXjXjXjXjXjX1.;X;X;X!.&XyXyXuXyX=X-XyXyX1X#.~.;X;X;X>X1X4X~.A.I.wXyXyXyXwX~.V @.} *.G.,.jXjXjXjXjXjXjXjXjXjXjXjXjXjXjXjXjXjXjXjXjXjXjXjXjXjXjXjXjX",
"jXjXjXjXjXjXjXjXjXjXjXjXjX1.;X;XoX+XyXuXyXwX2X-X6XyXyXT.*.Q./.;X;X;X;X;X;X>X,X:X:X<X<X>X/.4.@.} *.G.Z.,.jXjXjXjXjXjXjXjXjXjXjXjXjXjXjXjXjXjXjXjXjXjXjXjXjXjXjXjX",
"jXjXjXjXjXjXjXjXjXjXjXjXjX>.Q.oX.XwXwXqX3X*X-X3X6XyXwX#.>.C.J.Q.~.;X;X;XoX!.S.s.`.n.n.b.d.2.M V 8.G.G.,.jXjXjXjXjXjXjXjXjXjXjXjXjXjXjXjXjXjXjXjXjXjXjXjXjXjXjXjX",
"jXjXjXjXjXjXjXjXjXjXjXjXjXjX4./.^.!.H.u.u.Z.Z.Z.Z.T.Y.>.1.1.4.4.4.J.J.8.8.#.C.z.pXF.I.L.x.f.} M #.#.%.O.jXjXjXjXjXjXjXjXjXjXjXjXjXjXjXjXjXjXjXjXjXjXjXjXjXjXjXjX",
"jXjXjXjXjXjXjXjXjXjXjXjXjXjX>.F.oXG.Z.U.&X2X9X0X0X=XK.A.I.S.Q.Q.4.4.,.C.S.>.F.V.aXQ.Q.F.:.z.J V >.=.=.i.A.Y.i.jXjXjXjXjXjXjXjXjXjXjXjXjXjXjXjXjXjXjXjXjXjXjXjXjX",
"jXjXjXjXjXjXjXjXjXjXjXjXjXjXjX>./.Z./.1X4X0XtXyXuXiXyXwX2XOXY.C.1.4.1.C.%.Z.Q.M.}.d.l.l.s.:.} N 1.4.4.Z.A.A.Y.i.#.jXjXjXjXjXjXjXjXjXjXjXjXjXjXjXjXjXjXjXjXjXjXjX",
"jXjXjXjXjXjXjXjXjXjXjXjXjXjXjX#.oX;X;X;X;X;X>X1X0XwXyXyXiXyX9XOXi.>.>.C.C C.F x.c.x.W.c.t.&.c V >.,.8.G.G.G.G.H.i.=.jXjXjXjXjXjXjXjXjXjXjXjXjXjXjXjXjXjXjXjXjXjX",
"jXjXjXjXjXjXjXjXjXjXjXjXjXjXjX#.S.;X;X;X;X;X;X;X;X>X2X4XwX3X3XqX=X=X2X).<.C.t P.OX@X=X-X*Xi.N M ,.G.G.G.G.G.G.G.7.8.u.1.,.*.jXjXjXjXjXjXjXjXjXjXjXjXjXjXjXjXjXjX",
"jXjXjXjXjXjXjXjXjXjXjXjXjXjXjXjX=.4.Q./.;X;X;X;X;X;X;X;XOX%X5X=XwXiXiXyXqX6X).W.F.OX%X2X3XK.%.@.} 9.G.G.G.G.G.,.%.7.,.Z.H.i.7.@.jXjXjXjXjXjXjXjXjXjXjXjXjXjXjXjX",
"jXjXjXjXjXjXjXjXjXjXjXjXjXjXjXjXt.~.P.u.8.F.~.;X;X;X;XC.Z.!.$X,X7XwXyXqX8X X X}.n.J.Q.^.K.&.} ,.V #.Z.G.G.G.} $.8.,.,.G.G.9.x.d.:.jXjXjXjXjXjXjXjXjXjXjXjXjXjXjX",
"jXjXjXjXjXjXjXjXjXjXjXjXjXjXjXjXY.&XT.I.J.C.4.8.Z.~./.#.Q.,.;X;X;X>X<X{. XfXfXfXfXpX;XQ.R.C.+.,.*.V #.7.9.9.b 7.@.,.G.9.x.n.N.].}.`.jXjXjXjXjXjXjXjXjXjXjXjXjXjX",
"jXjXjXjXjXjXjXjXjXjXjXjXjXjXjXjX.X!.Q.Q.Q.Q.Q.F.Z.4.4.O.C.>.;X;X;X:Xb.|.gXhXhXhXhXhXgXpXW.C.4.,.G.N c b o.+.b ,.V 9.8.x.N.N.}.}.}.}.].`.jXjXjXjXjXjXjXjXjXjXjXjX",
"jXjXjXjXjXjXjXjXjXjXjXjXjXjXjXjXJ.Q.Q.Q.Q.Q.Q.Q.Q.Q.J.Z.C.9.4.C.Q.[.s.}.hXhXhXhXhXhXhXhXfX{.:.,.G.} jXjXjXjXjXb b 9.,.3.k._.|.}.}.}.}.}.}._.k.jXjXjXjXjXjXjXjXjX",
"jXjXjXjXjXjXjXjXjXjXjXjXjXjXjXjXJ.Q.Q.Q.Q.Q.Q.Q.Q.Q.Q.Q.Q.Q.Q.F.8.>.G l.|.fXgXaXfXfXaX XdX X].B.h.#.jXjXjXjXjXjXc o.o.C R v.'.}.}.}.`.`.V.`.].m.jXjXjXjXjXjXjXjX",
"jXjXjXjXjXjXjXjXjXjXjXjXjXjXjXjXJ.Q.Q.Q.Q.Q.Q.Q.Q.Q.Q.Q.Q.Q.Q.Q.!.1.u.I.x.V.pXaX X`.aX_._. XV.].V.-.o.jXjXjXjXjXjXjXc jXjXjXjXk.b.N.].a.I E M.}.N.H jXjXjXjXjXjX",
"jXjXjXjXjXjXjXjXjXjXjXjXjXjXjXG.Q.Q.Q.Q.Q.Q.Q.Q.Q.Q.Q.Q.Q.Q.Q.Q.Q.1.A.@X!.S.d.B.aXs.b.}.I '._.L _.x.o.jXjXjXjXjXjXjXjXjXjXjXjXjXjXL M.L jXjXjX`.'.E jXjXjXjXjXjX",
"jXjXjXjXjXjXjXjXjXjXjXjXjXjXjXG.Q.Q.Q.Q.Q.Q.Q.Q.Q.Q.Q.Q.Q.Q.Q.Q.Q.1.P.%X!.Q.O.T ].p.p._.L b.m.A N.D.%.o.jXjXjXjXjXjXjXjXjXjXjXjXjXa.k.L jXjXjXB.B.E jXjXjXjXjXjX",
"jXjXjXjXjXjXjXjXjXjXjXjXjXjXjXG.Q.Q.Q.Q.Q.Q.Q.Q.Q.Q.Q.Q.Q.Q.Q.Q.Q.1.P.%X!.Q.#.z.V.s.j.k.T k.x.-.:.2.>.o.jXjXjXjXjXjXjXjXjXjXjXjXjXjXjXjXjXjXE k.E H jXjXjXjXjXjX",
"jXjXjXjXjXjXjXjXjXjXjXjXjXjXjXG.Q.Q.Q.Q.Q.Q.Q.Q.Q.Q.Q.Q.Q.Q.Q.Q.Q.,.A.+X~.Q.#.l.x.S.f.2.F.F.Q.J.%.#.>.o.jXjXjXjXjXjXjXjXjXjXjXjXjXjXjXjXjXjXjXH H jXjXjXjXjXjXjX",
"jXjXjXjXjXjXjXjXjXjXjXjXjXjXjXG.Q.Q.Q.Q.Q.Q.Q.Q.Q.Q.Q.Q.Q.Q.Q.Q.C.8.~.^.Q.S.>.Q.Q.Q.Q.Q.Q.Q.Q.J.%.#.>.o.jXjXjXjXjXjXjXjXjXjXjXjXjXjXjXjXjXjXjXjXjXjXjXjXjXjXjXjX",
"jXjXjXjXjXjXjXjXjXjXjXjXjXjXjXG.Q.Q.Q.Q.Q.Q.Q.Q.Q.Q.Q.Q.Q.Q.Q.Q.C.*.1.>.>.>.F.Q.Q.Q.Q.Q.Q.Q.Q.J.%.#.>.o.jXjXjXjXjXjXjXjXjXjXjXjXjXjXjXjXjXjXjXjXjXjXjXjXjXjXjXjX",
"jXjXjXjXjXjXjXjXjXjXjXjXjXjXjX9.Q.Q.Q.Q.Q.Q.Q.Q.Q.Q.Q.Q.Q.Q.Q.Q.J.8.>.>.>.8.Q.Q.Q.Q.Q.Q.Q.Q.Q.8.O.#.>.o.jXjXjXjXjXjXjXjXjXjXjXjXjXjXjXjXjXjXjXjXjXjXjXjXjXjXjXjX",
"jXjXjXjXjXjXjXjXjXjXjXjXjXjXjX8.J.Q.Q.Q.Q.Q.Q.Q.Q.Q.Q.Q.Q.Q.Q.Q.Q.Q.I.I.E.Q.Q.Q.Q.Q.Q.Q.Q.Q.J.,.#.>.>.O.jXjXjXjXjXjXjXjXjXjXjXjXjXjXjXjXjXjXjXjXjXjXjXjXjXjXjXjX",
"jXjXjXjXjXjXjXjXjXjXjXjXjXjXjXG.J.Q.Q.Q.Q.Q.Q.Q.Q.Q.Q.Q.Q.Q.Q.Q.Q.Q.Q.Q.Q.Q.Q.Q.Q.Q.Q.Q.Q.Q.J.,.#.>.>.O.jXjXjXjXjXjXjXjXjXjXjXjXjXjXjXjXjXjXjXjXjXjXjXjXjXjXjXjX",
"jXjXjXjXjXjXjXjXjXjXjXjXjXjXjXG.Q.Q.Q.Q.Q.Q.Q.Q.Q.Q.Q.Q.Q.Q.Q.Q.Q.Q.Q.Q.Q.Q.Q.Q.Q.Q.Q.Q.Q.Q.J.,.#.>.#.jXjXjXjXjXjXjXjXjXjXjXjXjXjXjXjXjXjXjXjXjXjXjXjXjXjXjXjXjX",
"jXjXjXjXjXjXjXjXjXjXjXjXjXjX4.J.Q.Q.Q.Q.Q.Q.Q.Q.Q.Q.Q.Q.Q.Q.Q.Q.Q.Q.Q.Q.Q.Q.Q.Q.Q.Q.Q.Q.Q.J.G.,.#.>.O.jXjXjXjXjXjXjXjXjXjXjXjXjXjXjXjXjXjXjXjXjXjXjXjXjXjXjXjXjX",
"jXjXjXjXjXjXjXjXjXjXjXjXjXjX1.Q.Q.Q.Q.Q.Q.Q.Q.Q.Q.Q.Q.Q.Q.Q.Q.Q.Q.Q.Q.Q.Q.Q.Q.Q.Q.Q.Q.Q.Q.J.G.,.#.>.O.jXjXjXjXjXjXjXjXjXjXjXjXjXjXjXjXjXjXjXjXjXjXjXjXjXjXjXjXjX",
"jXjXjXjXjXjXjXjXjXjXjXjXjXjX4.Q.Q.Q.Q.Q.Q.Q.Q.Q.Q.Q.Q.Q.Q.Q.Q.Q.Q.Q.Q.Q.Q.Q.Q.Q.Q.Q.Q.Q.Q.G.G.,.#.>.O.jXjXjXjXjXjXjXjXjXjXjXjXjXjXjXjXjXjXjXjXjXjXjXjXjXjXjXjXjX",
"jXjXjXjXjXjXjXjXjXjXjXjXjX>.G.Q.Q.Q.Q.Q.Q.Q.Q.Q.Q.Q.Q.Q.Q.Q.Q.Q.Q.Q.Q.Q.Q.Q.Q.Q.Q.Q.Q.Q.J.G.G.,.#.>.O.jXjXjXjXjXjXjXjXjXjXjXjXjXjXjXjXjXjXjXjXjXjXjXjXjXjXjXjXjX",
"jXjXjXjXjXjXjXjXjXjXjXjXjX>.Q.Q.Q.Q.Q.Q.Q.Q.Q.Q.Q.Q.Q.Q.Q.Q.Q.Q.Q.Q.Q.Q.Q.Q.Q.Q.Q.Q.Q.Q.G.G.Z.%.#.>.O.jXjXjXjXjXjXjXjXjXjXjXjXjXjXjXjXjXjXjXjXjXjXjXjXjXjXjXjXjX",
"jXjXjXjXjXjXjXjXjXjXjXjXjX8.Q.Q.Q.Q.Q.Q.Q.Q.Q.Q.Q.Q.Q.Q.Q.Q.Q.Q.Q.Q.Q.Q.Q.Q.Q.Q.Q.Q.Q.J.G.G.8.O.%.O.jXjXjXjXjXjXjXjXjXjXjXjXjXjXjXjXjXjXjXjXjXjXjXjXjXjXjXjXjXjX",
"jXjXjXjXjXjXjXjXjXjXjXjX>.G.Q.Q.Q.Q.Q.Q.Q.Q.Q.Q.Q.Q.Q.Q.Q.Q.Q.Q.Q.Q.Q.Q.Q.Q.Q.Q.Q.Q.Q.G.G.G.,.#.>.O.jXjXjXjXjXjXjXjXjXjXjXjXjXjXjXjXjXjXjXjXjXjXjXjXjXjXjXjXjXjX",
"jXjXjXjXjXjXjXjXjXjXjXjX>.Q.Q.Q.Q.Q.Q.Q.Q.Q.Q.Q.Q.Q.Q.Q.Q.Q.Q.Q.Q.Q.Q.Q.Q.Q.Q.Q.Q.Q.Q.G.G.Z.%.#.>.O.jXjXjXjXjXjXjXjXjXjXjXjXjXjXjXjXjXjXjXjXjXjXjXjXjXjXjXjXjXjX",
"jXjXjXjXjXjXjXjXjXjXjXjX8.Q.Q.Q.Q.Q.Q.Q.Q.Q.Q.Q.Q.Q.Q.Q.Q.Q.Q.Q.Q.Q.Q.Q.Q.Q.Q.Q.Q.Q.Q.G.G.8.O.%.>.O.jXjXjXjXjXjXjXjXjXjXjXjXjXjXjXjXjXjXjXjXjXjXjXjXjXjXjXjXjXjX",
"jXjXjXjXjXjXjXjXjXjXjX>.G.Q.Q.Q.Q.Q.Q.Q.Q.Q.Q.Q.Q.Q.Q.Q.Q.Q.Q.Q.Q.Q.Q.Q.Q.Q.Q.Q.Q.Q.J.G.G.,.O.>.#.jXjXjXjXjXjXjXjXjXjXjXjXjXjXjXjXjXjXjXjXjXjXjXjXjXjXjXjXjXjXjX",
"jXjXjXjXjXjXjXjXjXjXjX,.Q.Q.Q.Q.Q.Q.Q.Q.Q.Q.Q.Q.Q.Q.Q.Q.Q.Q.Q.Q.Q.Q.Q.Q.Q.Q.Q.Q.Q.Q.G.G.9.O.#.>.O.jXjXjXjXjXjXjXjXjXjXjXjXjXjXjXjXjXjXjXjXjXjXjXjXjXjXjXjXjXjXjX",
"jXjXjXjXjXjXjXjXjXjX>.Z.Q.Q.Q.Q.Q.Q.Q.Q.Q.Q.Q.Q.Q.Q.Q.Q.Q.Q.Q.Q.Q.Q.Q.Q.Q.Q.Q.Q.Q.J.G.G.8.O.>.>.O.jXjXjXjXjXjXjXjXjXjXjXjXjXjXjXjXjXjXjXjXjXjXjXjXjXjXjXjXjXjXjX",
"jXjXjXjXjXjXjXjXjXjX>.F.Q.Q.Q.Q.Q.Q.Q.Q.Q.Q.Q.Q.Q.Q.Q.Q.Q.Q.Q.Q.Q.Q.Q.Q.Q.Q.Q.Q.Q.G.G.G.8.O.>.#.jXjXjXjXjXjXjXjXjXjXjXjXjXjXjXjXjXjXjXjXjXjXjXjXjXjXjXjXjXjXjXjX",
"jXjXjXjXjXjXjXjXjX>.9.Q.Q.Q.Q.Q.Q.Q.Q.Q.Q.Q.Q.Q.Q.Q.Q.Q.Q.Q.Q.Q.Q.Q.Q.Q.Q.Q.Q.Q.J.G.G.G.8.O.>.O.jXjXjXjXjXjXjXjXjXjXjXjXjXjXjXjXjXjXjXjXjXjXjXjXjXjXjXjXjXjXjXjX",
"jXjXjXjXjXjXjXjXjX>.Z.Q.Q.Q.Q.Q.Q.Q.Q.Q.Q.Q.Q.Q.Q.Q.Q.Q.Q.Q.Q.Q.Q.Q.Q.Q.Q.Q.Q.J.G.G.G.G.8.O.>.>.M jXjXjXjXjXjXjXjXjXjXjXjXjXjXjXjXjXjXjXjXjXjXjXjXjXjXjXjXjXjXjX",
"jXjXjXjXjXjXjXjXjX>.Z.Q.Q.Q.Q.Q.Q.Q.Q.Q.Q.Q.Q.Q.Q.Q.Q.Q.Q.Q.Q.Q.Q.Q.Q.Q.Q.Q.J.G.G.G.G.G.8.O.>.+.b jXjXjXjXjXjXjXjXjXjXjXjXjXjXjXjXjXjXjXjXjXjXjXjXjXjXjXjXjXjXjX",
"jXjXjXjXjXjXjXjXjX>.Z.Q.Q.Q.Q.Q.Q.Q.Q.Q.!.!.Q.Q.!.Q.Q.Q.Q.Q.Q.Q.Q.Q.Q.Q.Q.J.G.G.G.G.G.G.,.M M jXjXjXjXjXjXjXjXjXjXjXjXjXjXjXjXjXjXjXjXjXjXjXjXjXjXjXjXjXjXjXjXjX",
"jXjXjXjXjXjXjXjXjX>.8.Z.Z.u.r.r.r.3.3.3.3.3.3.3.3.3.3.3.3.3.3.3.3.2.>.>.,.7.7.9.9.9.8.,.} e jXjXjXjXjXjXjXjXjXjXjXjXjXjXjXjXjXjXjXjXjXjXjXjXjXjXjXjXjXjXjXjXjXjX",
"jXjXjXjXjXjXjXjXjXjX: S J z e v c x x x 5 4 0 x x 4 jX+ > > > > > > > > 5 9 9 z q i 2 jXjXjXjXjXjXjXjXjXjXjXjXjXjXjXjXjXjXjXjXjXjXjXjXjXjXjXjXjXjXjXjXjXjXjXjXjX",
"jXjXjXjXjXjXjXjXjXjX* n P D n e v v v q 7 e v v q , jXo , , , , , , 1 8 8 8 6 1 1 -   jXjXjXjXjXjXjXjXjXjXjXjXjXjXjXjXjXjXjXjXjXjXjXjXjXjXjXjXjXjXjXjXjXjXjXjXjX",
"jXjXjXjXjXjXjXjXjXjX* n D P P S z e v q q v v e 1 jX. - , , , , 1 8 8 8 8 1 1 6 : o jXjXjXjXjXjXjXjXjXjXjXjXjXjXjXjXjXjXjXjXjXjXjXjXjXjXjXjXjXjXjXjXjXjXjXjXjXjX",
"jXjXjXjXjXjXjXjXjXjX* D T D D P P n z 7 q v v < jXjX. - , , 1 6 8 8 8 6 < 1 1 : O . jXjXjXjXjXjXjXjXjXjXjXjXjXjXjXjXjXjXjXjXjXjXjXjXjXjXjXjXjXjXjXjXjXjXjXjXjXjX",
"jXjXjXjXjXjXjXjXjXjX2 U p.p.U U P P D 3 2 e v < jXjX. - , 1 8 8 8 6 1 4 4 : ; ; - o jXjXjXjXjXjXjXjXjXjXjXjXjXjXjXjXjXjXjXjXjXjXjXjXjXjXjXjXjXjXjXjXjXjXjXjXjXjX",
"jXjXjXjXjXjXjXjXjX* n p.p.p.p.p.p.U P u t n z 1 jXjX. 1 8 8 8 6 1 5 4 < ; ; - - @ O . jXjXjXjXjXjXjXjXjXjXjXjXjXjXjXjXjXjXjXjXjXjXjXjXjXjXjXjXjXjXjXjXjXjXjXjXjX",
"jXjXjXjXjXjXjXjXjX* n p.p.p.p.p.U U P y % A g < jXjX. 1 1 1 1 4 5 f 0 2 ; ; @ $ j f p s a jXjXjXjXjXjXjXjXjXjXjXjXjXjXjXjXjXjXjXjXjXjXjXjXjXjXjXjXjXjXjXjXjXjXjX",
"jXjXjXjXjXjXjXjXjX* n p.U P P P T T U f r g A d jXjX. @ @ 3 3 u r $ $ % & f k H s.k.a.a.H j s a a jXjXjXjXjXjXjXjXjXjXjXjXjXjXjXjXjXjXjXjXjXjXjXjXjXjXjXjXjXjXjX",
"jXjXjXjXjXjXjXjXjX* n p.P L D A u u u u $ $ y y X jX. $ + X X X + # % p y p a f k D L a.a.Y Y G k j s s p p jXjXjXjXjXjXjXjXjXjXjXjXjXjXjXjXjXjXjXjXjXjXjXjXjXjX",
"jXjXjXjXjXjXjXjXjXjX2 g g % % a a S H A A A k s p p o + + # # # $ & + X X X X . X $ $ $ % % p j s s s j s p # jXjXjXjXjXjXjXjXjXjXjXjXjXjXjXjXjXjXjXjXjXjXjXjXjX",
"jXjXjXjXjXjXjXjXjXjXjXo s s p a j G a.k.v.s.U U L L Z f jXjXjXjXjXjXjXjXjXjXjXjXjXjXjXjXjXjXjXjXjXjXjXjXjXjXjXjXjXjXjXjXjXjXjXjXjXjXjXjXjXjXjXjXjXjXjXjXjXjXjXjX",
"jXjXjXjXjXjXjXjXjXjXjX. y a y & & y a S b.M.z.v.z.a.E Y h % jXjXjXjXjXjXjXjXjXjXjXjXjXjXjXjXjXjXjXjXjXjXjXjXjXjXjXjXjXjXjXjXjXjXjXjXjXjXjXjXjXjXjXjXjXjXjXjXjXjX",
"jXjXjXjXjXjXjXjXjXjXjXjX. . . X # # $ # & s j j k Z Z k r $   jXjXjXjXjXjXjXjXjXjXjXjXjXjXjXjXjXjXjXjXjXjXjXjXjXjXjXjXjXjXjXjXjXjXjXjXjXjXjXjXjXjXjXjXjXjXjXjXjX"
};
