/* XPM */
static char *result[] = {
/* columns rows colors chars-per-pixel */
"80 80 229 2 ",
"   c #241424",
".  c #291A28",
"X  c #36282F",
"o  c #302730",
"O  c #332A34",
"+  c #3A2E38",
"@  c #3A323A",
"#  c #3E3C3E",
"$  c #440806",
"%  c #4B110C",
"&  c #4C1915",
"*  c #4E2218",
"=  c #54271C",
"-  c #45242A",
";  c #4C262C",
":  c #582B2C",
">  c #472A32",
",  c #4B2F35",
"<  c #583639",
"1  c #633232",
"2  c #643D36",
"3  c #674636",
"4  c #684E3E",
"5  c #413643",
"6  c #463B47",
"7  c #5A3E42",
"8  c #454445",
"9  c #4B4449",
"0  c #4B4B4C",
"q  c #54454B",
"w  c #4F4E51",
"e  c #524951",
"r  c #544859",
"t  c gray32",
"y  c #56565B",
"u  c #5A565D",
"i  c #684A46",
"p  c #6A5246",
"a  c #745343",
"s  c #70594D",
"d  c #6B4D51",
"f  c #68565A",
"g  c #725C51",
"h  c #7C5E54",
"j  c #7B5F5A",
"k  c #67625F",
"l  c #7B635A",
"z  c #5C5A63",
"x  c #5C5865",
"c  c #635B68",
"v  c #5F606C",
"b  c #636366",
"n  c #64626D",
"m  c #766566",
"M  c #7D736E",
"N  c #666372",
"B  c #696574",
"V  c #6B6B74",
"C  c #6D6B79",
"Z  c #736C78",
"A  c #74747D",
"S  c #7A7778",
"D  c #940303",
"F  c #970A0B",
"G  c #960E10",
"H  c #98191C",
"J  c #A50303",
"K  c #AE0000",
"L  c #B40202",
"P  c #B30B0C",
"I  c #981D22",
"U  c #9A302F",
"Y  c #B03331",
"T  c #9F453B",
"R  c #953D46",
"E  c #B43F41",
"W  c #9A4A50",
"Q  c #9A5456",
"!  c #A54948",
"~  c #AE4949",
"^  c #82675B",
"/  c #977952",
"(  c #A05B60",
")  c #836262",
"_  c #886667",
"`  c #8A6B64",
"'  c #8B6A6A",
"]  c #986567",
"[  c #926E6D",
"{  c #8C756A",
"}  c #93736D",
"|  c #8A7576",
" . c #947373",
".. c #9A7472",
"X. c #957975",
"o. c #9B7B76",
"O. c #9D7C7B",
"+. c #A47775",
"@. c #A97172",
"#. c #A37C7C",
"$. c #AA7D7D",
"%. c #C4655F",
"&. c #B38756",
"*. c #8E807D",
"=. c #9A8478",
"-. c #AF8E72",
";. c #A3827C",
":. c #A38C7C",
">. c #A8887B",
",. c #C48E46",
"<. c #716F80",
"1. c #737484",
"2. c #7C7683",
"3. c #7B7B85",
"4. c #7D7D8A",
"5. c #8A7C86",
"6. c #907F80",
"7. c #A47283",
"8. c #A77F85",
"9. c #898686",
"0. c #83838B",
"q. c #8B8B8D",
"w. c #978688",
"e. c #9D908F",
"r. c #8C8B92",
"t. c #888994",
"y. c #8F9194",
"u. c #939394",
"i. c #9B9396",
"p. c #95949C",
"a. c #9A9A9B",
"s. c #A58484",
"d. c #AC8181",
"f. c #A68986",
"g. c #AC8C83",
"h. c #A3898C",
"j. c #AB8A8A",
"k. c #B58585",
"l. c #B78A8A",
"z. c #B38C8D",
"x. c #AC9484",
"c. c #AA958A",
"v. c #B59586",
"b. c #B6958C",
"n. c #BA938C",
"m. c #B59B8A",
"M. c #BC9C8D",
"N. c #A58D94",
"B. c #B98C92",
"V. c #AB9897",
"C. c #B59494",
"Z. c #B99695",
"A. c #B59997",
"S. c #BD9B94",
"D. c #BD9B9B",
"F. c #BFA18F",
"G. c #A8A49E",
"H. c #BCA798",
"J. c #9696A2",
"K. c #9B9CA3",
"L. c #A19CA3",
"P. c #9FA1A9",
"I. c #A4A3A6",
"U. c #A9A7A6",
"Y. c #A4A4AB",
"T. c #ABABAE",
"R. c #B9A4A2",
"E. c #B7B2AE",
"W. c #ABACB2",
"Q. c #B4B4B5",
"!. c #B3B4B9",
"~. c #BCBCBE",
"^. c #C98E8E",
"/. c #C2938D",
"(. c #C09F8F",
"). c #C29D93",
"_. c #C69B9A",
"`. c #C39C9D",
"'. c #C0A28F",
"]. c #C4A494",
"[. c #C9A595",
"{. c #C4AA94",
"}. c #C7A699",
"|. c #CCAB9C",
" X c #D0AE9D",
".X c #CAB197",
"XX c #CEB29A",
"oX c #D3B49D",
"OX c #D8B79E",
"+X c #D4BA9E",
"@X c #C6A4A4",
"#X c #CCA3A2",
"$X c #C1AEA2",
"%X c #CCABA3",
"&X c #D2A6A3",
"*X c #C9B1A5",
"=X c #D4B4A3",
"-X c #D3B5A5",
";X c #D5BAA5",
":X c #DBBDA4",
">X c #DDBDA9",
",X c #C0B5B7",
"<X c #E0BFA8",
"1X c #DDC1A4",
"2X c #DFC1A8",
"3X c #D9C9B6",
"4X c #E1C2A5",
"5X c #E0C8A7",
"6X c #E3C4AA",
"7X c #E8C7AD",
"8X c #E6C9AA",
"9X c #EACBAD",
"0X c #EED0AF",
"qX c #EDCCB0",
"wX c #F0CFB1",
"eX c #EFD1B1",
"rX c #F6D5B4",
"tX c #F8D7B5",
"yX c #F9D8B6",
"uX c #BCBDC1",
"iX c #C3C3C5",
"pX c #C7C7C9",
"aX c #CCCCCD",
"sX c #D5D5D5",
"dX c gray86",
"fX c #E0D6CC",
"gX c gray90",
"hX c gray91",
"jX c None",
/* pixels */
"jXjXjXjXjXjXjXjXjXjXjXjXjXjXjXjXjXjXjXjXjXjXjXjXjXjXjXjXjXjXjXjXjXjXjXjXjXjXjXjXjXjXjXjXjXjXjXjXjXjXjXjXjXjXjXjXjXjXjXjXjXjXjXjXjXjXjXjXjXjXjXjXjXjXjXjXjXjXjXjX",
"jXjXjXjXjXjXjXjXjXjXjXjXjXjXjXjXjXjXjXjXjXjXjXjXjXjXjXjXjXjXjXjXjXjXjXjXjXjXjXjXjXjXjXjXjXjXjXjXjXjXjXjXjXjXjXjXjXjXjXjXjXjXjXjXjXjXjXjXjXjXjXjXjXjXjXjXjXjXjXjX",
"jXjXjXjXjXjXjXjXjXjXjXjXjXjXjXjXjXjXjXjXjXjXjXjXjXjXjXjXjXjXjXjXjXjXjXjXjXjXjXjXjXjXjXjXjXjXjXjXjXjXjXjXjXjXjXjXjXjXjXjXjXjXjXjXjXjXjXjXjXjXjXjXjXjXjXjXjXjXjXjX",
"jXjXjXjXjXjXjXjXjXjXjXjXjXjXjXjXjXjXjXjXjXjXjXjXjXjXjXjXjXjXjX$.&X&XB.jXjXjXjXjXjXjXjXjXjXjXjXjXjXjXjXjXjXjXjXjXjXjXjXjXjXjXjXjXjXjXjXjXjXjXjXjXjXjXjXjXjXjXjXjX",
"jXjXjXjXjXjXjXjXjXjXjXjXjXjXjXjXjXjXjXjXjXjXjXjXjXjXjXjXjX[ d.C.Z.`._.#X_.B.jXjXjXjXjXjXjXjXjXjXjXjXjXjXjXjXjXjXjXjXjXjXjXjXjXjXjXjXjXjXjXjXjXjXjXjXjXjXjXjXjXjX",
"jXjXjXjXjXjXjXjXjXjXjXjXjXjXjXjXjXjXjXjXjXjXjXjXjXjXjXjX! j.C.C.C.C.C.Z.D.D._._._.D.B.jXjXjXjXjXjXjXjXjXjXjXjXjXjXjXjXjXjXjXjXjXjXjXjXjXjXjXjXjXjXjXjXjXjXjXjXjX",
"jXjXjXjXjXjXjXjXjXjXjXjXjXjXjXjXjXjXjXjXjXjX#X&X`.Z.Y L P E @.$.k.C.C.C.z.8.#.#.8.l.k.j.$.jXjXjXjXjXjXjXjXjXjXjXjXjXjXjXjXjXjXjXjXjXjXjXjXjXjXjXjXjXjXjXjXjXjXjX",
"jXjXjXjXjXjXjXjXjXjXjXjXjXjXjXjXjXjXjXjXjXjXjX#X_.#X^.%.~ P J D H ! ! ( ] ] 7.7.7.7.7.+.] jXjXjXjXjXjXjXjXjXjXjXjXjXjXjXjXjXjXjXjXjXjXjXjXjXjXjXjXjXjXjXjXjXjXjX",
"jXjXjXjXjXjXjXjXjXjXjXjXjXjXjXjXjXjXjXjXjXjXjXjXjXjXw.A._.^.@.Y H D D D F G R W @.7.+.] jXjXjXjXjXjXjXjXjXjXjXjXjXjXjXjXjXjXjXjXjXjXjXjXjXjXjXjXjXjXjXjXjXjXjXjX",
"jXjXjXjXjXjXjXjXjXjXjXjXjXjXjXjXjXjXjXjXjXjXjX=X>Xc.A 1.2.| C.C.k.@.@.U H I D D G H I jXjXjXjXjXjXjXjXjXjXjXjXjXjXjXjXjXjXjXjXjXjXjXjXjXjXjXjXjXjXjXjXjXjXjXjXjX",
"jXjXjXjXjXjXjXjXjXjXjXjXjXjXjXjXjXjXjXjXjX:X9X9X>XS r.0.N V 0.2.5.=.,.&.@.@.Q W W R H jXjXjXjXjXjXjXjXjXjXjXjXjXjXjXjXjXjXjXjXjXjXjXjXjXjXjXjXjXjXjXjXjXjXjXjXjX",
"jXjXjXjXjXjXjXjXjXjXjXjXjXjXjXjXjXjXjXoX9XtXyX[.M.M q.V S u.u.u.u.S / &./ -.G.5.N.| ] 7.7.jXjXjXjXjXjXjXjXjXjXjXjXjXjXjXjXjXjXjXjXjXjXjXjXjXjXjXjXjXjXjXjXjXjXjX",
"jXjXjXjXjXjXjXjXjXjXjXjXjXjXjXjXjXjX(.:X9X:XrXOX:.&.{ u u.u.u.u.a.a.q.y.W.aXsXW.y.jXjXjXjXjXjXjXjXjXjXjXjXjXjXjXjXjXjXjXjXjXjXjXjXjXjXjXjXjXjXjXjXjXjXjXjXjXjXjX",
"jXjXjXjXjXjXjXjXjXjXjXjXjXjXjXXX8X8X7X4X XZ.S.8X{.V.=.^ m 9.a.q.0.a.p.!.uXp.I.y.jXjXjXjXjXjXjXjXjXjXjXjXjXjXjXjXjXjXjXjXjXjXjXjXjXjXjXjXjXjXjXjXjXjXjXjXjXjXjXjX",
"jXjXjXjXjXjXjXjXjXjXjX[.XX:X9XwXrXrXtXtXtX6X].[.8X{.E.U.=.| { u.t.t.W.P.4.6.jXjXjXjXjXjXjXjXjXjXjXjXjXjXjXjXjXjXjXjXjXjXjXjXjXjXjXjXjXjXjXjXjXjXjXjXjXjXjXjXjXjX",
"jXjXjXjXjXjXjXjXjXjX.X:X9X9X7X7X8X6XqX9X9X4X4X9XtXrX:X$XQ.Q.U.0.d R W O.V.m.].v.jXjXjXjXjXjXjXjXjXjXjXjXjXjXjXjXjXjXjXjXjXjXjXjXjXjXjXjXjXjXjXjXjXjXjXjXjXjXjXjX",
"jXjXjXjXjXjXjXjXjX2XeXtXtXtXtXtXrXtXqX6X:X|.|.oX9XeXtX9X;XE.K._ D L K %.*X].F.jXjXjXjXjXjXjXjXjXjXjXjXjXjXjXjXjXjXjXjXjXjXjXjXjXjXjXjXjXjXjXjXjXjXjXjXjXjXjXjXjX",
"jXjXjXjXjXjXjXjX=XqXrX9XtXtXtXrX6XtXtX6X:X:X}.S.S.].oX8X9XXXe.V.Q F J ~ [.;X=X|.(.jXjXjXjXjXjXjXjXjXjXjXjXjXjXjXjXjXjXjXjXjXjXjXjXjXjXjXjXjXjXjXjXjXjXjXjXjXjXjX",
"jXjXjXjXjXjXjX|.7XeX5XrXtXtXtX8X>XtXtX7X6XrXtXqX>X|.S.Z.S.oX:XH.G.Q J L Y /.%X-X%Xv.jXjXjXjXjXjXjXjXjXjXjXjXjXjXjXjXjXjXjXjXjXjXjXjXjXjXjXjXjXjXjXjXjXjXjXjXjXjX",
"jXjXjXjXjXjXjX|.6X6X8XtXtXtX8X}.6XtXtXtX6X9XtXtXtXrXqX<X%X].S.|.XXc.U K L Y S.@X).].M.:.jXjXjXjXjXjXjXjXjXjXjXjXjXjXjXjXjXjXjXjXjXjXjXjXjXjXjXjXjXjXjXjXjXjXjXjX",
"jXjXjXjXjXjXjX].|.;XwXtXtXqX@X/.rXtXtXtX9X2XrXtXtXtXtXtXtXqX7X=X|.|.-.T J K ! D.;.;X'.>.jXjXjXjXjXjXjXjXjXjXjXjXjXjXjXjXjXjXjXjXjXjXjXjXjXjXjXjXjXjXjXjXjXjXjXjX",
"jXjXjXjXjXjXjX].}.:XrXtX6X%X`.).tXtXtXtXtX6X9XtXtXtXtXtXtXtXtXtXrX>X%X{.@.I D Z.=.:XM.=.jXjXjXjXjXjXjXjXjXjXjXjXjXjXjXjXjXjXjXjXjXjXjXjXjXjXjXjXjXjXjXjXjXjXjXjX",
"jXjXjXjXjXjXjXC.D.qXtX7X%X@Xl.4XtXtXrXeXtXqX;X9XtXtXtXtXtXtXtXtXtXtXqX;X].g.Q Z.O.1X].{ jXjXjXjXjXjXjXjXjXjXjXjXjXjXjXjXjXjXjXjXjXjXjXjXjXjXjXjXjXjXjXjXjXjXjXjX",
"jXjXjXjXjXjXjXb.S.<X;X%X@XS.[.rXtXtX9X8XtXtXoX:XrXtXtXtXtXtXtXtXtXtXtXtX7X}.C.f.=.:X].) jXjXjXjXjXjXjXjXjXjXjXjXjXjXjXjXjXjXjXjXjXjXjXjXjXjXjXjXjXjXjXjXjXjXjXjX",
"jXjXjXjXjXjXjX;.M.%X@X@X`./.wXtXtXrX:X6XtXyX[.|.9XtXtXtXtXrX:XoX8XtXtXtXtX|.g.{ :.@XZ.' :.jXjXjXjXjXjXjXjXjXjXjXjXjXjXjXjXjXjXjXjXjXjXjXjXjXjXjXjXjXjXjXjXjXjXjX",
"jXjXjXjXjXjXjX) j.@X@X@Xn.7XtXtXtX8XXX8XyXqX;.b.;X8XrXtXtXrXoX.X8XtXtXtXtX:X].;.g j.#.>.M.jXjXjXjXjXjXjXjXjXjXjXjXjXjXjXjXjXjXjXjXjXjXjXjXjXjXjXjXjXjXjXjXjXjXjX",
"jXjXjXjXjXjXjX) f.@X@Xn.<XtXtXtX9XoX+X9XyX:X..j.@X%X;X6X9X9XrXrXyXtXrXtXtXtX0X:Xl j.o.M.M.:.jXjXjXjXjXjXjXjXjXjXjXjXjXjXjXjXjXjXjXjXjXjXjXjXjXjXjXjXjXjXjXjXjXjX",
"jXjXjXjXjXjXjX) s.D.n.=XtXtXtXrX+X+X1X8XrXm.' O.C.D.`.@X%X=X;XXXF.{.3X$XV.A.A.H.=.d.o.v.M.v.jXjXjXjXjXjXjXjXjXjXjXjXjXjXjXjXjXjXjXjXjXjXjXjXjXjXjXjXjXjXjXjXjXjX",
"jXjXjXjXjXjXjXjX' j.`.2X8X2X|.[.).[.v.o.O.' '  .o.#.C.d.#.O.o.;.M.c.Q.R.c.V.c.5.{ ^ ;.#.#.o.=.jXjXjXjXjXjXjXjXjXjXjXjXjXjXjXjXjXjXjXjXjXjXjXjXjXjXjXjXjXjXjXjXjX",
"jXjXjXjXjXjXjXjX) #.`.:XXXl.;.;.l.[. XoX].M.s.f.C.g j.' C.C.s.;.|.A.Q.R.Z.C.f q.| s ;.g.).S.S.x.jXjXjXjXjXjXjXjXjXjXjXjXjXjXjXjXjXjXjXjXjXjXjXjXjXjXjXjXjXjXjXjX",
"jXjXjXjXjXjXjXjXjX) C.%X:X[.[.:XrXtXtXyXtXtX4Xv.#.g j.' j.z.s.g.[.h.Y.i.5.5.Z 1.o.s g.[.|.[.|.|.M.:.jXjXjXjXjXjXjXjXjXjXjXjXjXjXjXjXjXjXjXjXjXjXjXjXjXjXjXjXjXjX",
"jXjXjXjXjXjXjXjXjX) z.@X>XeXyXtXtXtXtXtXtXtXtXrXXX} ;._ o. .o.|.)...*.w.9.9.9.9.g g ;.(.M.].[.=X;X|.[.m.jXjXjXjXjXjXjXjXjXjXjXjXjXjXjXjXjXjXjXjXjXjXjXjXjXjXjXjX",
"jXjXjXjXjXjXjXjXjXjX .j.`.%X6XrXtXtXtXtXtXtXtX8X.X:X].g.g.;.;.M.o.+.F.+X2X+X+X].=.) l >.M.].[.[. X=X|.M.].x.x.x.jXjXjXjXjXjXjXjXjXjXjXjXjXjXjXjXjXjXjXjXjXjXjXjX",
"jXjXjXjXjXjXjXjXjXjXjX;.;.C.@X-X>X9XrXtXtXyX:X{.2X.X+XrXrXrX6XoX].f.x.oX:X:X:X:X).' +.h k.v.(.[.m.x.x.F.m.F.=X=X[.m.c.jXjXjXjXjXjXjXjXjXjXjXjXjXjXjXjXjXjXjXjXjX",
"jXjXjXjXjXjXjXjXjXjXjX[.[.;.s.j.D.%X;X>X9X=X].{.{.1XtXtXtXtXtXeXfXpXi.f.b.b.b.b.b.o...` ..k.k.g.;.v.m.v.F.[.|.|.H.E.T.t.jXjXjXjXjXjXjXjXjXjXjXjXjXjXjXjXjXjXjXjX",
"jXjXjXjXjXjXjXjXjXjXjX[.=X|.v.d.o.#.j.Z.%Xf.j.S.g.>XqXrXtXrX3XpXuX!.Y.p.e.z.C.C.C.j.[ ..h k.k.....#.;.M.(.].m.R.Q.K.Y.pXiXT.jXjXjXjXjXjXjXjXjXjXjXjXjXjXjXjXjXjX",
"jXjXjXjXjXjXjXjXjXjX=.F.[.M.C.C.C.z.s.#.O...s.C. .D.%X*X>X;Xa.Y.sXhXhXdXaX,XV.N.C.j.[ ..p l ` _ } } ..k.k.:.i.T.K.Y.iXdXsXsXsXuXK.jXjXjXjXjXjXjXjXjXjXjXjXjXjXjX",
"jXjXjXjXjXjXjXjXjXjXX.v.b.C.C.C.C.C.C.C.C.z.d.s.#.O.C.D.@XR.0.J.gXhXhXhXhXhXdXuXi.s.[ ..4 jXjXjXjXs l  .d. .r.4.I.I.!.sXsXsXdXdXsX~.a.jXjXjXjXjXjXjXjXjXjXjXjXjX",
"jXjXjXjXjXjXjXjXjXjX .j.C.C.C.C.C.C.C.C.C.C.C.C.C.j.#.#.s.h.3.0.aXdXgXhXhXhXhXhXsXL.| ..p jXjXjXjXjXjXjX^  .0.A b b S T.sXsX!.Y.uXsX~.u.jXjXjXjXjXjXjXjXjXjXjXjX",
"jXjXjXjXjXjXjXjXjXjX' j.C.C.C.C.C.C.C.C.C.C.C.C.C.C.C.z.' ' c.*.y.iXdXdXdXgXaXdX!.pXiXw.l jXjXjXjXjXjXjXjXg jXjXjXjXjXjX9.a.1.A 0.Q.aXt.K.1.jXjXjXjXjXjXjXjXjXjX",
"jXjXjXjXjXjXjXjXjXjX) j.C.C.C.C.C.C.C.C.C.C.C.C.C.C.C.C. . .|.C.f.| I.aXK.!.aXW.iXiXiXpXi.k jXjXjXjXjXjXjXjXjXjXjXjXjXjX0 V 1.q.u.N ~.4.p.1.jXjXjXjXjXjXjXjXjXjX",
"jXjXjXjXjXjXjXjXjXjX) j.C.C.C.C.C.C.C.C.C.C.C.C.C.C.C.z. ...%XC.C.o.f I.4.5.a.Q.1.L.W.u.u.t.jXjXjXjXjXjXjXjXjXjXjXjXjXjXjXy A 4.S 9.Y.3.r.1.jXjXjXjXjXjXjXjXjXjX",
"jXjXjXjXjXjXjXjXjXjX) j.C.C.C.C.C.C.C.C.C.C.C.C.C.C.C.$.[ ..%XC.C.O.f y.4.h.Z Y.Z h.9.K.q.c m jXjXjXjXjXjXjXjXjXjXjXjXjXjXjX4.N 0.K.t.0.0.jXjXjXjXjXjXjXjXjXjXjX",
"jXjXjXjXjXjXjXjXjXjX) j.C.C.C.C.C.C.C.C.C.C.C.C.C.C.C. .' v.%XC.C.o.m 5.e.C.M 0.C C.h.C S m ' jXjXjXjXjXjXjXjXjXjXjXjXjXjXjXjXjXjXjX4.4.jXjXjXjXjXjXjXjXjXjXjXjX",
"jXjXjXjXjXjXjXjXjXjX) j.C.C.C.C.C.C.C.C.C.C.C.C.C.C.C. .' v.[.b.C.o.O.C.C.C.C.w.w.C.z. .m  .' jXjXjXjXjXjXjXjXjXjXjXjXjXjXjXjXjXjXjXjXjXjXjXjXjXjXjXjXjXjXjXjXjX",
"jXjXjXjXjXjXjXjXjXjX_ j.C.C.C.C.C.C.C.C.C.C.C.C.C.C.C. .'  .;.+.O.O.j.C.C.C.C.C.C.C.C.$.'  .' jXjXjXjXjXjXjXjXjXjXjXjXjXjXjXjXjXjXjXjXjXjXjXjXjXjXjXjXjXjXjXjXjX",
"jXjXjXjXjXjXjXjXjXjXj.C.C.C.C.C.C.C.C.C.C.C.C.C.C.C.C.j.s.#.O.O.f.C.C.C.C.C.C.C.C.C.C.#.'  .' jXjXjXjXjXjXjXjXjXjXjXjXjXjXjXjXjXjXjXjXjXjXjXjXjXjXjXjXjXjXjXjXjX",
"jXjXjXjXjXjXjXjXjX) j.C.C.C.C.C.C.C.C.C.C.C.C.C.C.C.C.C.C.C.C.C.C.C.C.C.C.C.C.C.C.C.C.#._  . .' jXjXjXjXjXjXjXjXjXjXjXjXjXjXjXjXjXjXjXjXjXjXjXjXjXjXjXjXjXjXjXjX",
"jXjXjXjXjXjXjXjXjX) j.C.C.C.C.C.C.C.C.C.C.C.C.C.C.C.C.C.C.C.C.C.C.C.C.C.C.C.C.C.C.C.C.#.'  . .' jXjXjXjXjXjXjXjXjXjXjXjXjXjXjXjXjXjXjXjXjXjXjXjXjXjXjXjXjXjXjXjX",
"jXjXjXjXjXjXjXjXjX) j.C.C.C.C.C.C.C.C.C.C.C.C.C.C.C.C.C.C.C.C.C.C.C.C.C.C.C.C.C.C.C.C.#.'  . .' jXjXjXjXjXjXjXjXjXjXjXjXjXjXjXjXjXjXjXjXjXjXjXjXjXjXjXjXjXjXjXjX",
"jXjXjXjXjXjXjXjXjX) j.C.C.C.C.C.C.C.C.C.C.C.C.C.C.C.C.C.C.C.C.C.C.C.C.C.C.C.C.C.C.C.C.#.'  . .' jXjXjXjXjXjXjXjXjXjXjXjXjXjXjXjXjXjXjXjXjXjXjXjXjXjXjXjXjXjXjXjX",
"jXjXjXjXjXjXjXjXjX) j.C.C.C.C.C.C.C.C.C.C.C.C.C.C.C.C.C.C.C.C.C.C.C.C.C.C.C.C.C.C.C.z.#.'  . .' jXjXjXjXjXjXjXjXjXjXjXjXjXjXjXjXjXjXjXjXjXjXjXjXjXjXjXjXjXjXjXjX",
"jXjXjXjXjXjXjXjXjX) j.C.C.C.C.C.C.C.C.C.C.C.C.C.C.C.C.C.C.C.C.C.C.C.C.C.C.C.C.C.C.C.k.#.'  . .' jXjXjXjXjXjXjXjXjXjXjXjXjXjXjXjXjXjXjXjXjXjXjXjXjXjXjXjXjXjXjXjX",
"jXjXjXjXjXjXjXjXjX) j.C.C.C.C.C.C.C.C.C.C.C.C.C.C.C.C.C.C.C.C.C.C.C.C.C.C.C.C.C.C.C.k.#.'  . .' jXjXjXjXjXjXjXjXjXjXjXjXjXjXjXjXjXjXjXjXjXjXjXjXjXjXjXjXjXjXjXjX",
"jXjXjXjXjXjXjXjXjX) j.C.C.C.C.C.C.C.C.C.C.C.C.C.C.C.C.C.C.C.C.C.C.C.C.C.C.C.C.C.C.C.k.#.'  . .' jXjXjXjXjXjXjXjXjXjXjXjXjXjXjXjXjXjXjXjXjXjXjXjXjXjXjXjXjXjXjXjX",
"jXjXjXjXjXjXjXjXjXO.C.C.C.C.C.C.C.C.C.C.C.C.C.C.C.C.C.C.C.C.C.C.C.C.C.C.C.C.l.l.C.C.k.$.'  . .' jXjXjXjXjXjXjXjXjXjXjXjXjXjXjXjXjXjXjXjXjXjXjXjXjXjXjXjXjXjXjXjX",
"jXjXjXjXjXjXjXjX) f.C.C.C.C.C.C.C.C.C.C.C.C.C.C.C.C.C.C.C.C.C.C.C.C.C.C.C.l.k.k.l.C.d.[ [  . .' jXjXjXjXjXjXjXjXjXjXjXjXjXjXjXjXjXjXjXjXjXjXjXjXjXjXjXjXjXjXjXjX",
"jXjXjXjXjXjXjXjX) f.C.C.C.C.C.C.C.C.C.C.C.C.C.C.C.C.C.C.C.C.C.C.C.C.C.C.C.k.k.k.k.C.$._  . . .' jXjXjXjXjXjXjXjXjXjXjXjXjXjXjXjXjXjXjXjXjXjXjXjXjXjXjXjXjXjXjXjX",
"jXjXjXjXjXjXjXjX) f.C.C.C.C.C.C.C.C.C.C.C.C.C.C.C.C.C.C.C.C.C.C.C.C.C.C.C.k.k.k.k.C.$._  . . .' jXjXjXjXjXjXjXjXjXjXjXjXjXjXjXjXjXjXjXjXjXjXjXjXjXjXjXjXjXjXjXjX",
"jXjXjXjXjXjXjXjX) f.C.C.C.C.C.C.C.C.C.C.C.C.C.C.C.C.C.C.C.C.C.C.C.C.C.C.C.k.k.k.k.C.$._  . . .' jXjXjXjXjXjXjXjXjXjXjXjXjXjXjXjXjXjXjXjXjXjXjXjXjXjXjXjXjXjXjXjX",
"jXjXjXjXjXjXjXjX) f.C.C.C.C.C.C.C.C.C.C.C.C.C.C.C.C.C.C.C.C.C.C.C.C.C.C.C.k.k.k.k.l.$._  . . .' jXjXjXjXjXjXjXjXjXjXjXjXjXjXjXjXjXjXjXjXjXjXjXjXjXjXjXjXjXjXjXjX",
"jXjXjXjXjXjXjXjX) f.C.C.C.C.C.C.C.C.C.C.C.C.C.C.C.C.C.C.C.C.C.C.C.C.C.C.C.k.k.k.k.k.$._  . . .' jXjXjXjXjXjXjXjXjXjXjXjXjXjXjXjXjXjXjXjXjXjXjXjXjXjXjXjXjXjXjXjX",
"jXjXjXjXjXjXjXjX) f.C.C.C.C.C.C.C.C.C.C.C.C.C.C.C.C.C.C.C.C.C.C.C.C.C.C.C.k.k.k.k.k.$._  . . .' jXjXjXjXjXjXjXjXjXjXjXjXjXjXjXjXjXjXjXjXjXjXjXjXjXjXjXjXjXjXjXjX",
"jXjXjXjXjXjXjXjX) f.C.C.C.C.C.C.C.C.C.C.C.C.C.C.C.C.C.C.C.C.C.C.C.C.C.C.l.k.k.k.k.k.$._  . . . .' jXjXjXjXjXjXjXjXjXjXjXjXjXjXjXjXjXjXjXjXjXjXjXjXjXjXjXjXjXjXjX",
"jXjXjXjXjXjXjXjX) f.C.C.C.C.C.C.C.C.C.C.C.C.C.C.C.C.C.C.C.C.C.C.C.C.C.z.k.k.k.k.k.k.$._  . . .' _ jXjXjXjXjXjXjXjXjXjXjXjXjXjXjXjXjXjXjXjXjXjXjXjXjXjXjXjXjXjXjX",
"jXjXjXjXjXjXjXjX) f.C.C.C.C.C.C.C.C.C.C.C.C.C.C.C.C.C.C.C.C.C.C.C.C.C.k.k.k.k.k.k.k.$._ ' ) j jXjXjXjXjXjXjXjXjXjXjXjXjXjXjXjXjXjXjXjXjXjXjXjXjXjXjXjXjXjXjXjXjX",
"jXjXjXjXjXjXjXjXjXo.f.j.j.C.C.C.C.C.C.C.C.C.C.C.C.C.C.C.C.C.C.C.C.z.k.d.$.$.+.+.+.+.} j jXjXjXjXjXjXjXjXjXjXjXjXjXjXjXjXjXjXjXjXjXjXjXjXjXjXjXjXjXjXjXjXjXjXjXjX",
"jXjXjXjXjXjXjXjXjX+ d h h ^ ^ ^ ^ ` }  .....o.o.[ O.8. . ... .[ _ h h g i i 2 X 2 < X jXjXjXjXjXjXjXjXjXjXjXjXjXjXjXjXjXjXjXjXjXjXjXjXjXjXjXjXjXjXjXjXjXjXjXjXjX",
"jXjXjXjXjXjXjXjXjX6 B m m a p i a a a 4 3 4 a a & jXjX. 1 1 1 1 1 1 1 1 1 : ; - 7 6   jXjXjXjXjXjXjXjXjXjXjXjXjXjXjXjXjXjXjXjXjXjXjXjXjXjXjXjXjXjXjXjXjXjXjXjXjX",
"jXjXjXjXjXjXjXjXjXe C 1.1.C Z c d p p 3 3 a a a % jX  : 1 1 1 1 1 1 1 1 ; - < q , . jXjXjXjXjXjXjXjXjXjXjXjXjXjXjXjXjXjXjXjXjXjXjXjXjXjXjXjXjXjXjXjXjXjXjXjXjXjX",
"jXjXjXjXjXjXjXjXjXe C 1.1.1.1.1.C B u , : 4 a = jXjX  < 1 1 1 1 1 1 : - > q 6 > ;   jXjXjXjXjXjXjXjXjXjXjXjXjXjXjXjXjXjXjXjXjXjXjXjXjXjXjXjXjXjXjXjXjXjXjXjXjXjX",
"jXjXjXjXjXjXjXjXjXe C 1.1.1.1.1.1.<.B r - * 2 % jXjX. q 7 1 1 1 1 1 , < q 7 ; < < . jXjXjXjXjXjXjXjXjXjXjXjXjXjXjXjXjXjXjXjXjXjXjXjXjXjXjXjXjXjXjXjXjXjXjXjXjXjX",
"jXjXjXjXjXjXjXjXjXe C 1.1.1.1.1.C B B r , = * $ jXjX. e e e e e e e e e q 7 < 9 , + # jXjXjXjXjXjXjXjXjXjXjXjXjXjXjXjXjXjXjXjXjXjXjXjXjXjXjXjXjXjXjXjXjXjXjXjXjX",
"jXjXjXjXjXjXjXjXjXe C 1.1.1.C B c c c e - * * $ jXjX. 5 5 6 e e e e e 6 5 5 5 5 x x C x u u jXjXjXjXjXjXjXjXjXjXjXjXjXjXjXjXjXjXjXjXjXjXjXjXjXjXjXjXjXjXjXjXjXjX",
"jXjXjXjXjXjXjXjXjXe C 1.C N x x V V B B , % * * $ jXjX. @ @ O O O O O @ @ @ w y v n A 3.C n x z y jXjXjXjXjXjXjXjXjXjXjXjXjXjXjXjXjXjXjXjXjXjXjXjXjXjXjXjXjXjXjX",
"jXjXjXjXjXjXjXjXjX6 N N N B C C n n n N < & * & $ jXjX  o o o o o o @ # # # # # 8 8 0 z V A A A V b z u z 8 jXjXjXjXjXjXjXjXjXjXjXjXjXjXjXjXjXjXjXjXjXjXjXjXjXjX",
"jXjXjXjXjXjXjXjXjXjX5 x n c x n 2.r.C B B x u e @ jXjXjX  o o o o o . . . . . . o O 8 8 0 t t t w w 0 y w 8 o jXjXjXjXjXjXjXjXjXjXjXjXjXjXjXjXjXjXjXjXjXjXjXjXjX",
"jXjXjXjXjXjXjXjXjXjX. 9 t 0 8 y C t.r.3.3.3.3.0.4.V jXjXjXjXjXjXjXjXjXjXjXjXjXjXjXjXjXjXjXjXjXjXjXjXjXjXjXjXjXjXjXjXjXjXjXjXjXjXjXjXjXjXjXjXjXjXjXjXjXjXjXjXjXjX",
"jXjXjXjXjXjXjXjXjXjX  9 t t 0 8 0 w b C A A A 4.0.A V b z 0 jXjXjXjXjXjXjXjXjXjXjXjXjXjXjXjXjXjXjXjXjXjXjXjXjXjXjXjXjXjXjXjXjXjXjXjXjXjXjXjXjXjXjXjXjXjXjXjXjXjX",
"jXjXjXjXjXjXjXjXjXjXjXO + + @ O o o o o O @ @ + + @ @ O O o   jXjXjXjXjXjXjXjXjXjXjXjXjXjXjXjXjXjXjXjXjXjXjXjXjXjXjXjXjXjXjXjXjXjXjXjXjXjXjXjXjXjXjXjXjXjXjXjXjX"
};
