/* XPM */
static char *result[] = {
/* columns rows colors chars-per-pixel */
"80 80 234 2 ",
"   c #290C19",
".  c #1E0D20",
"X  c #200F21",
"o  c #241323",
"O  c #281928",
"+  c #2C212C",
"@  c #362D36",
"#  c #392A33",
"$  c #3D3037",
"%  c #3A343A",
"&  c #3E3A3E",
"*  c #4D1C19",
"=  c #501715",
"-  c #521D1A",
";  c #52281E",
":  c #4B1C20",
">  c #4C2C22",
",  c #4B2629",
"<  c #572927",
"1  c #562D26",
"2  c #533122",
"3  c #5C332C",
"4  c #5B3829",
"5  c #4B2B32",
"6  c #483337",
"7  c #583736",
"8  c #612E2E",
"9  c #60302E",
"0  c #603F2F",
"q  c #602F30",
"w  c #633131",
"e  c #663E37",
"r  c #54443E",
"t  c #6A473A",
"y  c #74553F",
"u  c #3F3741",
"i  c #423C42",
"p  c #4A3A48",
"a  c #543E48",
"s  c #444345",
"d  c #474748",
"f  c #4A454A",
"g  c #4B4B4C",
"h  c #554748",
"j  c #5A504F",
"k  c #4F4152",
"l  c #4E4D52",
"z  c #514A52",
"x  c #564B59",
"c  c #535255",
"v  c #55545B",
"b  c #5B545C",
"n  c #59595E",
"m  c #684845",
"M  c #735243",
"N  c #765C45",
"B  c #76554C",
"V  c #71584C",
"C  c #6B4E52",
"Z  c #695757",
"A  c #745C56",
"S  c #7B6259",
"D  c #5D5A65",
"F  c #5D5C64",
"G  c #635867",
"H  c #765F63",
"J  c #646163",
"K  c #6B6267",
"L  c #64636D",
"P  c #6B6B6C",
"I  c #7B6364",
"U  c #796466",
"Y  c #656473",
"T  c #6B6273",
"R  c #6B6A74",
"E  c #6D6778",
"W  c #6D6B7B",
"Q  c #726B72",
"!  c #706E7D",
"~  c #737374",
"^  c #73737C",
"/  c #7B7379",
"(  c #7C7C7D",
")  c #950404",
"_  c #97090A",
"`  c #8E1315",
"'  c #981819",
"]  c #A80404",
"[  c #A90D0C",
"{  c #982528",
"}  c #9A2C31",
"|  c #8F3532",
" . c #895F3F",
".. c #8C6D34",
"X. c #A33E46",
"o. c #934F52",
"O. c #A8484B",
"+. c #84655D",
"@. c #997057",
"#. c #A25E6B",
"$. c #836665",
"%. c #8A6A66",
"&. c #8B6A6A",
"*. c #996369",
"=. c #936D6E",
"-. c #8B776E",
";. c #92726E",
":. c #9B746F",
">. c #836E72",
",. c #986B76",
"<. c #887777",
"1. c #957373",
"2. c #9B7474",
"3. c #9B7B74",
"4. c #957E78",
"5. c #9D7B7B",
"6. c #AA666A",
"7. c #B36264",
"8. c #A16975",
"9. c #A17677",
"0. c #A4727C",
"q. c #A37C7C",
"w. c #AA7E7D",
"e. c #D7912A",
"r. c #E69B2C",
"t. c #80807F",
"y. c #978279",
"u. c #9C827A",
"i. c #AD8E76",
"p. c #A4857D",
"a. c #AA867B",
"s. c #A58A7D",
"d. c #716F80",
"f. c #737384",
"g. c #7C7B83",
"h. c #7C7B87",
"j. c #897F85",
"k. c #957D83",
"l. c #A47383",
"z. c #A87D85",
"x. c #828184",
"c. c #8E8385",
"v. c #84848B",
"b. c #8C8B8C",
"n. c #978A89",
"m. c #8B8B92",
"M. c #978B91",
"N. c #989595",
"B. c #94939A",
"V. c #A58483",
"C. c #AB8484",
"Z. c #AD8B83",
"A. c #A3898B",
"S. c #AC8A8A",
"D. c #B58484",
"F. c #B28C85",
"G. c #B48D8C",
"H. c #B88B8A",
"J. c #A29186",
"K. c #AC9483",
"L. c #AD948B",
"P. c #B49386",
"I. c #B3938C",
"U. c #B8958A",
"Y. c #B49B8C",
"T. c #BB9B8C",
"R. c #A78C90",
"E. c #B18C91",
"W. c #A69A99",
"Q. c #B59494",
"!. c #BA9594",
"~. c #B79B96",
"^. c #BB9B94",
"/. c #BD9C9B",
"(. c #B9A18A",
"). c #AEA294",
"_. c #BAA695",
"`. c #9B9CA0",
"'. c #A79EA4",
"]. c #A3A3A4",
"[. c #A9A6A9",
"{. c #AAAAAC",
"}. c #B1ABAB",
"|. c #AFAEB2",
" X c #B4B4B4",
".X c #B8B7BA",
"XX c #BCBCBE",
"oX c #C19D8F",
"OX c #C09C93",
"+X c #C09E9E",
"@X c #C4A393",
"#X c #C9A695",
"$X c #C4AB95",
"%X c #C4A39C",
"&X c #CBAB9B",
"*X c #C8AC98",
"=X c #D0AF9C",
"-X c #CDB29A",
";X c #D3B39E",
":X c #D8B79F",
">X c #D5BA9E",
",X c #C09FA0",
"<X c #C5A4A4",
"1X c #C8A7A5",
"2X c #C7A8A1",
"3X c #CBABA3",
"4X c #CBB2A4",
"5X c #D3B3A3",
"6X c #D6B9A3",
"7X c #DABBA4",
"8X c #DDBDA9",
"9X c #E1BFA6",
"0X c #DCC2A4",
"qX c #DEC1A8",
"wX c #E2C4A7",
"eX c #E4C4AA",
"rX c #E3C8A9",
"tX c #E5CAAA",
"yX c #EBCCAD",
"uX c #EED0AF",
"iX c #EDCDB0",
"pX c #F0CFB1",
"aX c #EFD0B0",
"sX c #F5D4B4",
"dX c #F8D7B6",
"fX c #F9D8B6",
"gX c #BCBCC2",
"hX c #C8C8CA",
"jX c #CFCFD0",
"kX c #D4D5D5",
"lX c gainsboro",
"zX c #E4E4E4",
"xX c gray91",
"cX c None",
/* pixels */
"cXcXcXcXcXcXcXcXcXcXcXcXcXcXcXcXcXcXcXcXcXcXcXcXcXcXcXcXcXcXcXcXcXcXcXcXcXcXcXcXcXcXcXcXcXcXcXcXcXcXcXcXcXcXcXcXcXcXcXcXcXcXcXcXcXcXcXcXcXcXcXcXcXcXcXcXcXcXcXcX",
"cXcXcXcXcXcXcXcXcXcXcXcXcXcXcXcXcXcXcXcXcXcXcXcXcXcXcXcXcXcXcXcXcXcXcXcXcXcXcXcXcXcXcXcXcXcXcXcXcXcXcXcXcXcXcXcXcXcXcXcXcXcXcXcXcXcXcXcXcXcXcXcXcXcXcXcXcXcXcXcX",
"cXcXcXcXcXcXcXcXcXcXcXcXcXcXcXcXcXcXcXcXcXcXcXcXcXcXcXcXcXcXcXcXcXcXcXcXcXcXcXcXcXcXcXcXcXcXcXcXcXcXcXcXcXcXcXcXcXcXcXcXcXcXcXcXcXcXcXcXcXcXcXcXcXcXcXcXcXcXcXcX",
"cXcXcXcXcXcXcXcXcXcXcXcXcXcXcXcXcXcXcXcXcXcXcXcXcXcXcXcXcXcXcXcXcXz.E.Q.Q.G.Q.Q.Q.cXcXcXcXcXcXcXcXcXcXcXcXcXcXcXcXcXcXcXcXcXcXcXcXcXcXcXcXcXcXcXcXcXcXcXcXcXcXcX",
"cXcXcXcXcXcXcXcXcXcXcXcXcXcXcXcXcXcXcXcXcXcXcXcXcXcXcXcXcXcXcX*.q.G.Q.Q.Q.Q.Q.Q.Q.E.z.0.,.cXcXcXcXcXcXcXcXcXcXcXcXcXcXcXcXcXcXcXcXcXcXcXcXcXcXcXcXcXcXcXcXcXcXcX",
"cXcXcXcXcXcXcXcXcXcXcXcXcXcXcXcXcXcXcXcXcXcXcXcXcXcXcXcXcXcXcX` ' ' O.6.6.C.E.E.E.z.z.l.l.l.l.,.cXcXcXcXcXcXcXcXcXcXcXcXcXcXcXcXcXcXcXcXcXcXcXcXcXcXcXcXcXcXcXcX",
"cXcXcXcXcXcXcXcXcXcXcXcXcXcXcXcXcXcXcXcXcXcXcXcXcXcXcXcXcX!.0.7.7.} ' ) ) ' { } o.#.8.l.l.l.0.*.cXcXcXcXcXcXcXcXcXcXcXcXcXcXcXcXcXcXcXcXcXcXcXcXcXcXcXcXcXcXcXcX",
"cXcXcXcXcXcXcXcXcXcXcXcXcXcXcXcXcXcXcXcXcXcXcXcXcXcXcXcXcXZ $ J >.V.H.7.O.X._ ) _ ) _ } O.8.*.cXcXcXcXcXcXcXcXcXcXcXcXcXcXcXcXcXcXcXcXcXcXcXcXcXcXcXcXcXcXcXcXcX",
"cXcXcXcXcXcXcXcXcXcXcXcXcXcXcXcXcXcXcXcXcXcXcXcXcXcXcX*X(.g z d l F J J U &.*.6.#.} } } { ` ' cXcXcXcXcXcXcXcXcXcXcXcXcXcXcXcXcXcXcXcXcXcXcXcXcXcXcXcXcXcXcXcXcX",
"cXcXcXcXcXcXcXcXcXcXcXcXcXcXcXcXcXcXcXcXcXcXcXcXcX*X7X*Xu.l F c W W Y L n y e.r.e. .b ,.=.o.o.cXcXcXcXcXcXcXcXcXcXcXcXcXcXcXcXcXcXcXcXcXcXcXcXcXcXcXcXcXcXcXcXcX",
"cXcXcXcXcXcXcXcXcXcXcXcXcXcXcXcXcXcXcXcXcXcXcXcX;XaX0XP.u.h c F f.f.f.f.W F @...i.x.v.L F j cXcX,.0.cXcXcXcXcXcXcXcXcXcXcXcXcXcXcXcXcXcXcXcXcXcXcXcXcXcXcXcXcXcX",
"cXcXcXcXcXcXcXcXcXcXcXcXcXcXcXcXcXcXcXcXcXwX9XT.wXaX0X>X(.@.n n f.f.f.g.v.g.Y g.|. X[.x.s cXcXcXcXcXcXcXcXcXcXcXcXcXcXcXcXcXcXcXcXcXcXcXcXcXcXcXcXcXcXcXcXcXcXcX",
"cXcXcXcXcXcXcXcXcXcXcXcXcXcXcXcXcXeXwXyXsXsXfX;XwX_.Y.Y.$X$XN.^ F R h.~ ~ ~ t.N.b.D K ^ cXcXcXcXcXcXcXcXcXcXcXcXcXcXcXcXcXcXcXcXcXcXcXcXcXcXcXcXcXcXcXcXcXcXcXcX",
"cXcXcXcXcXcXcXcXcXcXcXcXcXcXcXtXeXtXyXuXsXsXdXdXsXiX3X/.K.$X$XW.b.L K Q P b.x.P b 3.Z.-.cXcXcXcXcXcXcXcXcXcXcXcXcXcXcXcXcXcXcXcXcXcXcXcXcXcXcXcXcXcXcXcXcXcXcXcX",
"cXcXcXcXcXcXcXcXcXcXcXcX8XyXaXsXsXsXsXsXuXyXiXsXiX;X6X:XyXsXyX>X_.N.y.Q V N N m b.@XP.Y.cXcXcXcXcXcXcXcXcXcXcXcXcXcXcXcXcXcXcXcXcXcXcXcXcXcXcXcXcXcXcXcXcXcXcXcX",
"cXcXcXcXcXcXcXcXcXcXcX6XsXsXiXsXsXsXsXsXdXsXiX8X3X^.^.^.6XwXsXsXrX-X).[.}.<.| | W.T.@X@XK.cXcXcXcXcXcXcXcXcXcXcXcXcXcXcXcXcXcXcXcXcXcXcXcXcXcXcXcXcXcXcXcXcXcXcX",
"cXcXcXcXcXcXcXcXcXcXD.6XyX=XpXsXsXdXyXyXdXsXsXeXeXqX&X/.Q.!.#X>X0X0X0X_.M.B _ ] { n.T.oXP.4.4.cXcXcXcXcXcXcXcXcXcXcXcXcXcXcXcXcXcXcXcXcXcXcXcXcXcXcXcXcXcXcXcXcX",
"cXcXcXcXcXcXcXcXcXcXD.>X@X%XsXdXsXaX5X7XfXsXsXsX8XwXsXiXeX3XOX!.!.*X7X0XL.n.&.[ ] | k.D.2.4.K.cXcXcXcXcXcXcXcXcXcXcXcXcXcXcXcXcXcXcXcXcXcXcXcXcXcXcXcXcXcXcXcXcX",
"cXcXcXcXcXcXcXcXcXcXD.-XT.1XsXsXeX3X/.8XfXsXsXsXrX#XwXsXdXsXsXeX5X@X!.OX;X_.J.' ] ) o.D.5.y.T.s.cXcXcXcXcXcXcXcXcXcXcXcXcXcXcXcXcXcXcXcXcXcXcXcXcXcXcXcXcXcXcXcX",
"cXcXcXcXcXcXcXcXcXcXD.q./.1X6X6X<X^.5XsXdXdXtXsXrXp.<XyXsXsXdXdXsXyX7X&X^.^.Y.a.| ) ' a.p.K.#XK.cXcXcXcXcXcXcXcXcXcXcXcXcXcXcXcXcXcXcXcXcXcXcXcXcXcXcXcXcXcXcXcX",
"cXcXcXcXcXcXcXcXcXcX2.Q.<X<X<X<X!.#XyXdXdXsXqXiXrX5.,X3XyXsXsXsXsXsXfXsXwX&XI.L.^.*.{ | s.#XoXs.cXcXcXcXcXcXcXcXcXcXcXcXcXcXcXcXcXcXcXcXcXcXcXcXcXcXcXcXcXcXcXcX",
"cXcXcXcXcXcXcXcXcXcX1./.<X<X<X!.&XsXsXsXdXyX7XiXwX;./.<X3XeXsXdXsXdXsXsXfXsX7X/.Q.Q.p.@.3.P.H.2.cXcXcXcXcXcXcXcXcXcXcXcXcXcXcXcXcXcXcXcXcXcXcXcXcXcXcXcXcXcXcXcX",
"cXcXcXcXcXcXcXcXcXcX1./.<X<X!.&XuXdXsXdXsX8X0XsX7X;.+X<X<X1X5XwXsXyX*X6XsXdXsXyX=X!.Q.S.;.$.w.2.$.cXcXcXcXcXcXcXcXcXcXcXcXcXcXcXcXcXcXcXcXcXcXcXcXcXcXcXcXcXcXcX",
"cXcXcXcXcXcXcXcXcXcX1./.<XOX#XyXdXdXsXsX0X8XiXsXT.;./.<X<X<X<X<X5X!.P.Z.5XyXyXyXtX&XOXS.%.%.9.2.2.=.cXcXcXcXcXcXcXcXcXcXcXcXcXcXcXcXcXcXcXcXcXcXcXcXcXcXcXcXcXcX",
"cXcXcXcXcXcXcXcXcXcX1./.<X!.;XiXsXaX8X;XwXsXdXdX3.1.Q.<X<X<X<X<X<X<X/./.1X3X3X2X2X2X<X/.^.V.q.2.9.Z.&.cXcXcXcXcXcXcXcXcXcXcXcXcXcXcXcXcXcXcXcXcXcXcXcXcXcXcXcXcX",
"cXcXcXcXcXcXcXcXcXcX1./.<X!.%X5X4X3X3XwXpXsXsXtX1.&.5.S.S.Q.Q.+X<X+X/././.Q.M.[.W.W.'.'.n.5.$.2.D.F.a.&.cXcXcXcXcXcXcXcXcXcXcXcXcXcXcXcXcXcXcXcXcXcXcXcXcXcXcXcX",
"cXcXcXcXcXcXcXcXcXcXcXS.!.<X&XI.!.!.!.U.U.T.T.Z.$.5.5.q.q.q.5.V.S.p.P.Z.S.;.v.{.n.n.n.c.<.$.Z I 9.2.3.$.cXcXcXcXcXcXcXcXcXcXcXcXcXcXcXcXcXcXcXcXcXcXcXcXcXcXcXcX",
"cXcXcXcXcXcXcXcXcXcXcX1./.<X5.D.D.w.C.U.T.@X#X@Xs.I.L.Q.Q.Q.V.1.5.5.^.!.u.P.N. X^.^.S.<.M.5.U Z &.&.;.-.-.-.cXcXcXcXcXcXcXcXcXcXcXcXcXcXcXcXcXcXcXcXcXcXcXcXcXcX",
"cXcXcXcXcXcXcXcXcXcXcX1.S.<Xq.w.V.S.^.7XyXsXfXdXdXtX0XT.^.I.V.1.q.5.!.5.P.T.N.|.A.A.k.Q / 1.I Z 1.2.q.p.s.F.p.-.cXcXcXcXcXcXcXcXcXcXcXcXcXcXcXcXcXcXcXcXcXcXcXcX",
"cXcXcXcXcXcXcXcXcXcXcXcX1.+X/.S.Q./.<X<X&X7XiXsXsXdXdXsXwX(.V.5.C.q.5.&.OXZ.j.[.N.m.x.j.Q A j A 2.9.q.D.D.D.F.F.u.-.cXcXcXcXcXcXcXcXcXcXcXcXcXcXcXcXcXcXcXcXcXcX",
"cXcXcXcXcXcXcXcXcXcXcXcXcXC./.<X<X<X<X<X<X<X3X7XwXsXsXyX-X>X-Xp.u.u.S.1.I.1.U.#X_._.Y.Y.p.2.%.+.w.D.D.D.D.D.D.a.5.s.u.-.cXcXcXcXcXcXcXcXcXcXcXcXcXcXcXcXcXcXcXcX",
"cXcXcXcXcXcXcXcXcXcXcXcXcXcX1.S.+X<X<X<X<X<X<X<X1X3X$X^.5X;X>XsXyXwX6X(.K.;.u.oX#X=X5X=XZ.=.D.+.:.D.D.D.D.D.C.1.3.C.3.q.s.4.-.cXcXcXcXcXcXcXcXcXcXcXcXcXcXcXcXcX",
"cXcXcXcXcXcXcXcXcXcXcXcXcXcXcXcX5.V.G./.<X<X<X<X/.Q.~.L.L.%X8XyXyXqX8X4X_.J.V.I.T.T.T.T.p.=.D.+.+.C.D.D.C.=.$.2.2.2.w.D.C.p.y.<.cXcXcXcXcXcXcXcXcXcXcXcXcXcXcXcX",
"cXcXcXcXcXcXcXcXcXcXcXcXcXcXcXT.*X#XZ.9.q.S./.<X1.C.C.G.<X<X<X~._..X{.].{.B.M.R.Q.Q.Q.Q.G.2.9.+.r Z I 2.A 2.&.Z w.D.D.q.4.N.B.v.J cXcXcXcXcXcXcXcXcXcXcXcXcXcXcX",
"cXcXcXcXcXcXcXcXcXcXcXcXcXcXcX#X5X@X!.Q.G.V.5.q.&.Q.Q.1.<X1XA./ ].B. XkXlXlXhX|.}.M.Q.Q.Q.9.2.2.A cXcXcXs I j 9.D.D.5.c.b.( N.[.{.b.cXcXcXcXcXcXcXcXcXcXcXcXcXcX",
"cXcXcXcXcXcXcXcXcXcXcXcXcXcXcX@XT.Q.Q.Q.Q.Q.Q.S.C.5.3.&.S.<XA.P h.B.kXzXxXxXxXxXlXhX'.R.Q.S.1.w.+.cXcXcXcXcXg 1.D.q.>.R ~ ]. X X X X].( cXcXcXcXcXcXcXcXcXcXcXcX",
"cXcXcXcXcXcXcXcXcXcXcXcXcXcXP.T.Q.Q.Q.Q.Q.Q.Q.Q.Q.Q.G.C.q.5.1.K Q <.XXlXzXxXxXxXxXxXzX.XM.S.2.2.S cXcXcXcXcXcXcXU 2.K F R ]. X X X X X X[.B.g.cXcXcXcXcXcXcXcXcX",
"cXcXcXcXcXcXcXcXcXcXcXcXcXcXP.Q.Q.Q.Q.Q.Q.Q.Q.Q.Q.Q.Q.Q.Q.Q.Q.V.1.$.~ {.kXlXzXxXlXlXlXgXhX'.>.&.A cXcXcXcXcXcXcXcXcXcXcXn ^ ]. X Xx.N. X X].v.^ cXcXcXcXcXcXcXcX",
"cXcXcXcXcXcXcXcXcXcXcXcXcX2.G.Q.Q.Q.Q.Q.Q.Q.Q.Q.Q.Q.Q.Q.Q.Q.Q.S.1.&.2.4.N.hXhX|.kXXX.XhXXXjX.X<.S S cXcXcXcXcXcXcXcXcXcXcXcX~ b.N.b.n ( b.].].v.^ cXcXcXcXcXcXcX",
"cXcXcXcXcXcXcXcXcXcXcXcXcX1.Q.Q.Q.Q.Q.Q.Q.Q.Q.Q.Q.Q.Q.Q.Q.Q.Q.S.1.&.q.Q.V./ XX! M..X{.m.XX|.`.].g.I cXcXcXcXcXcXcXcXcXcXcXcXcXJ ( b.P cXcXJ ~ m.x.R Y cXcXcXcXcX",
"cXcXcXcXcXcXcXcXcXcXcXcXcX1.Q.Q.Q.Q.Q.Q.Q.Q.Q.Q.Q.Q.Q.Q.Q.Q.Q.S.1.&.V.Q.Q.J ].! q.^ ].Q k.B.].x.R U cXcXcXcXcXcXcXcXcXcXcXcXcXcXcXP P c cXcXc F ^ ( ^ Y cXcXcXcX",
"cXcXcXcXcXcXcXcXcXcXcXcXcX1.Q.Q.Q.Q.Q.Q.Q.Q.Q.Q.Q.Q.Q.Q.Q.Q.Q.S.&.5.Q.Q.Q.Q j.k.z.P m./ G.<.v.~ U &.cXcXcXcXcXcXcXcXcXcXcXcXcXcXcXcXcXcXcXcXcXn n c P / J cXcXcX",
"cXcXcXcXcXcXcXcXcXcXcXcXcX1.Q.Q.Q.Q.Q.Q.Q.Q.Q.Q.Q.Q.Q.Q.Q.Q.Q.S.&.5.Q.Q.Q.S.&.G.G.q.>.k.!.z.U U 1.&.cXcXcXcXcXcXcXcXcXcXcXcXcXcXcXcXcXcXcXcXcXcXcXcXcXcXc cXcXcX",
"cXcXcXcXcXcXcXcXcXcXcXcXcX1.Q.Q.Q.Q.Q.Q.Q.Q.Q.Q.Q.Q.Q.Q.Q.Q.Q.S.&.1.V.q.q.5.1.Q.Q.Q.Q.Q.Q.G.2.&.1.&.cXcXcXcXcXcXcXcXcXcXcXcXcXcXcXcXcXcXcXcXcXcXcXcXcXcXcXcXcXcX",
"cXcXcXcXcXcXcXcXcXcXcXcXcX1.Q.Q.Q.Q.Q.Q.Q.Q.Q.Q.Q.Q.Q.Q.Q.Q.Q.S.=.&.&.&.2.G.Q.Q.Q.Q.Q.Q.Q.G.2.&.1.&.cXcXcXcXcXcXcXcXcXcXcXcXcXcXcXcXcXcXcXcXcXcXcXcXcXcXcXcXcXcX",
"cXcXcXcXcXcXcXcXcXcXcXcXcX1.Q.Q.Q.Q.Q.Q.Q.Q.Q.Q.Q.Q.Q.Q.Q.Q.Q.S.V.V.V.V.G.Q.Q.Q.Q.Q.Q.Q.Q.G.2.&.1.&.cXcXcXcXcXcXcXcXcXcXcXcXcXcXcXcXcXcXcXcXcXcXcXcXcXcXcXcXcXcX",
"cXcXcXcXcXcXcXcXcXcXcXcXcX2.Q.Q.Q.Q.Q.Q.Q.Q.Q.Q.Q.Q.Q.Q.Q.^.Q.Q.Q.Q.Q.Q.Q.Q.Q.Q.Q.Q.Q.Q.Q.G.2.&.1.%.cXcXcXcXcXcXcXcXcXcXcXcXcXcXcXcXcXcXcXcXcXcXcXcXcXcXcXcXcXcX",
"cXcXcXcXcXcXcXcXcXcXcXcX1.C.Q.Q.Q.Q.Q.Q.Q.Q.Q.Q.Q.Q.Q.Q.!.@XQ.Q.Q.Q.Q.Q.Q.Q.Q.Q.Q.Q.Q.Q.Q.D.2.&.1.%.cXcXcXcXcXcXcXcXcXcXcXcXcXcXcXcXcXcXcXcXcXcXcXcXcXcXcXcXcXcX",
"cXcXcXcXcXcXcXcXcXcXcXcX1.Q.Q.Q.Q.Q.Q.Q.Q.Q.Q.Q.Q.Q.Q.Q.!.#X^.Q.Q.Q.Q.Q.Q.Q.Q.Q.Q.Q.Q.Q.G.q.&.&.1.&.cXcXcXcXcXcXcXcXcXcXcXcXcXcXcXcXcXcXcXcXcXcXcXcXcXcXcXcXcXcX",
"cXcXcXcXcXcXcXcXcXcXcXcX1.Q.Q.Q.Q.Q.Q.Q.Q.Q.Q.Q.Q.Q.Q.Q.!.#X@XQ.Q.Q.Q.Q.Q.Q.Q.Q.Q.Q.Q.Q.G.9.&.1.1.%.cXcXcXcXcXcXcXcXcXcXcXcXcXcXcXcXcXcXcXcXcXcXcXcXcXcXcXcXcXcX",
"cXcXcXcXcXcXcXcXcXcXcXcX9.Q.Q.Q.Q.Q.Q.Q.Q.Q.Q.Q.Q.Q.Q.Q.!.#X@XQ.Q.Q.Q.Q.Q.Q.Q.Q.Q.Q.Q.G.D.9.&.1.1.&.cXcXcXcXcXcXcXcXcXcXcXcXcXcXcXcXcXcXcXcXcXcXcXcXcXcXcXcXcXcX",
"cXcXcXcXcXcXcXcXcXcXcX1.G.Q.Q.Q.Q.Q.Q.Q.Q.Q.Q.Q.Q.Q.Q.Q.!.#X@XQ.Q.Q.Q.Q.Q.Q.Q.Q.Q.Q.Q.Q.D.2.&.1.1.%.cXcXcXcXcXcXcXcXcXcXcXcXcXcXcXcXcXcXcXcXcXcXcXcXcXcXcXcXcXcX",
"cXcXcXcXcXcXcXcXcXcXcX2.Q.Q.Q.Q.Q.Q.Q.Q.Q.Q.Q.Q.Q.Q.Q.Q.Q.^.@XQ.Q.Q.Q.Q.Q.Q.Q.Q.Q.Q.Q.Q.w.&.&.1.1.%.cXcXcXcXcXcXcXcXcXcXcXcXcXcXcXcXcXcXcXcXcXcXcXcXcXcXcXcXcXcX",
"cXcXcXcXcXcXcXcXcXcX1.C.Q.Q.Q.Q.Q.Q.Q.Q.Q.Q.Q.Q.Q.Q.Q.Q.Q.Q.^.Q.Q.Q.Q.Q.Q.Q.Q.Q.Q.Q.Q.Q.q.&.1.1.1.&.cXcXcXcXcXcXcXcXcXcXcXcXcXcXcXcXcXcXcXcXcXcXcXcXcXcXcXcXcXcX",
"cXcXcXcXcXcXcXcXcXcX1.S.Q.Q.Q.Q.Q.Q.Q.Q.Q.Q.Q.Q.Q.Q.Q.Q.Q.Q.Q.Q.Q.Q.Q.Q.Q.Q.Q.Q.Q.Q.Q.D.q.&.1.1.q.=.cXcXcXcXcXcXcXcXcXcXcXcXcXcXcXcXcXcXcXcXcXcXcXcXcXcXcXcXcXcX",
"cXcXcXcXcXcXcXcXcX1.V.Q.Q.Q.Q.Q.Q.Q.Q.Q.Q.Q.Q.Q.Q.Q.Q.Q.Q.Q.Q.Q.Q.Q.Q.Q.Q.Q.Q.Q.Q.Q.Q.D.q.&.1.9.D.=.cXcXcXcXcXcXcXcXcXcXcXcXcXcXcXcXcXcXcXcXcXcXcXcXcXcXcXcXcXcX",
"cXcXcXcXcXcXcXcXcX1.S.Q.Q.Q.Q.Q.Q.Q.Q.Q.Q.Q.Q.Q.Q.Q.Q.Q.Q.Q.Q.Q.Q.Q.Q.Q.Q.Q.Q.Q.Q.Q.G.D.1.&.1.q.D.=.cXcXcXcXcXcXcXcXcXcXcXcXcXcXcXcXcXcXcXcXcXcXcXcXcXcXcXcXcXcX",
"cXcXcXcXcXcXcXcXcX9.G.Q.Q.Q.Q.Q.Q.Q.Q.Q.Q.Q.Q.Q.Q.Q.Q.Q.Q.G.Q.Q.Q.Q.Q.Q.Q.Q.Q.Q.Q.G.D.w.&.&.1.q.D.=.cXcXcXcXcXcXcXcXcXcXcXcXcXcXcXcXcXcXcXcXcXcXcXcXcXcXcXcXcXcX",
"cXcXcXcXcXcXcXcX1.S.Q.Q.Q.Q.Q.Q.Q.Q.Q.Q.Q.Q.Q.Q.Q.Q.Q.G.G.Q.Q.Q.Q.Q.Q.Q.Q.Q.Q.Q.Q.D.D.2.%.1.1.1.C.=.cXcXcXcXcXcXcXcXcXcXcXcXcXcXcXcXcXcXcXcXcXcXcXcXcXcXcXcXcXcX",
"cXcXcXcXcXcXcXcXq.G.Q.Q.Q.Q.Q.Q.Q.Q.Q.Q.Q.Q.Q.Q.Q.Q.G.D.Q.Q.Q.Q.Q.Q.Q.Q.Q.Q.Q.Q.G.D.C.&.&.1.1.1.=.&.cXcXcXcXcXcXcXcXcXcXcXcXcXcXcXcXcXcXcXcXcXcXcXcXcXcXcXcXcXcX",
"cXcXcXcXcXcXcX1.C.Q.Q.Q.Q.Q.Q.Q.Q.Q.Q.Q.Q.Q.Q.Q.Q.Q.G.G.Q.Q.Q.Q.Q.Q.Q.Q.Q.Q.Q.Q.D.D.w.%.1.1.1.1.&.cXcXcXcXcXcXcXcXcXcXcXcXcXcXcXcXcXcXcXcXcXcXcXcXcXcXcXcXcXcXcX",
"cXcXcXcXcXcXcX1.C.Q.Q.Q.Q.Q.Q.Q.Q.Q.Q.Q.Q.Q.Q.Q.Q.Q.Q.Q.Q.Q.Q.Q.Q.Q.Q.Q.Q.Q.Q.D.D.D.1.&.1.1.1.1.&.cXcXcXcXcXcXcXcXcXcXcXcXcXcXcXcXcXcXcXcXcXcXcXcXcXcXcXcXcXcXcX",
"cXcXcXcXcXcXcX1.S.Q.Q.Q.Q.Q.Q.Q.Q.Q.Q.Q.Q.Q.Q.Q.Q.Q.Q.Q.Q.Q.Q.Q.Q.Q.Q.Q.Q.Q.Q.D.D.w.&.1.1.1.1.1.$.cXcXcXcXcXcXcXcXcXcXcXcXcXcXcXcXcXcXcXcXcXcXcXcXcXcXcXcXcXcXcX",
"cXcXcXcXcXcXcXcXq.S.Q.Q.Q.Q.Q.Q.Q.Q.Q.Q.Q.Q.Q.Q.Q.Q.Q.Q.Q.Q.Q.Q.Q.Q.Q.Q.Q.Q.D.D.D.w.$.&.&.&.&.&.V cXcXcXcXcXcXcXcXcXcXcXcXcXcXcXcXcXcXcXcXcXcXcXcXcXcXcXcXcXcXcX",
"cXcXcXcXcXcXcXcXcXH <.5.5.C.Q.Q.Q.Q.Q.Q.Q.Q.Q.Q.Q.Q.Q.Q.Q.Q.Q.Q.Q.Q.Q.Q.Q.G.D.D.D.w.h 6 cXcXcXcXcXcXcXcXcXcXcXcXcXcXcXcXcXcXcXcXcXcXcXcXcXcXcXcXcXcXcXcXcXcXcXcX",
"cXcXcXcXcXcXcXcXcXz R f.Z B +.%.2.V.V.V.S.G.Q.Q.Q.Q.Q.Q.Q.Q.Q.Q.Q.Q.Q.I.D.D.D.D.D.w.r . cXcXcXcXcXcXcXcXcXcXcXcXcXcXcXcXcXcXcXcXcXcXcXcXcXcXcXcXcXcXcXcXcXcXcXcX",
"cXcXcXcXcXcXcXcXcXz R f.f.T m t M B M t M +.A V S S C V V V V V V V B B B B B B M t 7 X cXcXcXcXcXcXcXcXcXcXcXcXcXcXcXcXcXcXcXcXcXcXcXcXcXcXcXcXcXcXcXcXcXcXcXcX",
"cXcXcXcXcXcXcXcXcXz R f.f.f.E e y M t 0 M M M 4 cXcXo > 2 2 2 2 2 1 9 w w w 3 < * , > o cXcXcXcXcXcXcXcXcXcXcXcXcXcXcXcXcXcXcXcXcXcXcXcXcXcXcXcXcXcXcXcXcXcXcXcX",
"cXcXcXcXcXcXcXcXcXG W f.f.f.f.T C t t 0 M M M 4 cXcXo > 2 2 3 3 w w w w 8 1 - , 7 3 < o cXcXcXcXcXcXcXcXcXcXcXcXcXcXcXcXcXcXcXcXcXcXcXcXcXcXcXcXcXcXcXcXcXcXcXcX",
"cXcXcXcXcXcXcXcXcXG W f.f.f.f.f.! Z 7 0 M M M 4 cXcXo 1 9 9 w w w 3 < - - , 6 3 9 8 : o cXcXcXcXcXcXcXcXcXcXcXcXcXcXcXcXcXcXcXcXcXcXcXcXcXcXcXcXcXcXcXcXcXcXcXcX",
"cXcXcXcXcXcXcXcXcXG ! f.f.f.f.f.E G h 7 m M t 2 cXcXo q w w 3 < - = < < 7 7 < = = *   cXcXcXcXcXcXcXcXcXcXcXcXcXcXcXcXcXcXcXcXcXcXcXcXcXcXcXcXcXcXcXcXcXcXcXcXcX",
"cXcXcXcXcXcXcXcXz G f.f.f.f.f.W T E b a C m 4 cXcXcXo - - - * < 7 a h r 1 - * 2 2 > o cXcXcXcXcXcXcXcXcXcXcXcXcXcXcXcXcXcXcXcXcXcXcXcXcXcXcXcXcXcXcXcXcXcXcXcXcX",
"cXcXcXcXcXcXcXcXz G f.f.f.f.W T T T b a G G h p cXcXO f h h h h 7 7 3 3 ; < 1 1 1 , O cXcXcXcXcXcXcXcXcXcXcXcXcXcXcXcXcXcXcXcXcXcXcXcXcXcXcXcXcXcXcXcXcXcXcXcXcX",
"cXcXcXcXcXcXcXcXz G f.d.! T G T T T x p b b b p cXcXo 5 5 5 7 3 9 < , , , , # $ 6 p z c v l cXcXcXcXcXcXcXcXcXcXcXcXcXcXcXcXcXcXcXcXcXcXcXcXcXcXcXcXcXcXcXcXcXcX",
"cXcXcXcXcXcXcXcXz D W f.d.E T L G D x p f k k p cXcXO i i i # # # $ & & % % s g c v W g.f.R L F F n l cXcXcXcXcXcXcXcXcXcXcXcXcXcXcXcXcXcXcXcXcXcXcXcXcXcXcXcXcX",
"cXcXcXcXcXcXcXcXcXk k x x c b L ( R R Y L x i @ cXcXO % & % @ @ @ & f g f s u & & & s c J P g.^ Q Q Y D F c g cXcXcXcXcXcXcXcXcXcXcXcXcXcXcXcXcXcXcXcXcXcXcXcXcX",
"cXcXcXcXcXcXcXcXcXcXo & i s g L B.v.W W R L L F l d & @ @ @ + + + + O O O O O O O % % % % & i i i i u u D l d cXcXcXcXcXcXcXcXcXcXcXcXcXcXcXcXcXcXcXcXcXcXcXcXcX",
"cXcXcXcXcXcXcXcXcXcXo s d s s s F g.v.h.h.h.f.f.^ R J l u cXcXcXcXcXcXcXcXcXcXcXcXcXcXcXcXcXcXcXcXcXcXcXcXcXcXcXcXcXcXcXcXcXcXcXcXcXcXcXcXcXcXcXcXcXcXcXcXcXcXcX",
"cXcXcXcXcXcXcXcXcXcXo f f i & % % s F ^ g./ v.m.x.g.g.L v d cXcXcXcXcXcXcXcXcXcXcXcXcXcXcXcXcXcXcXcXcXcXcXcXcXcXcXcXcXcXcXcXcXcXcXcXcXcXcXcXcXcXcXcXcXcXcXcXcXcX",
"cXcXcXcXcXcXcXcXcXcXcXcXcXo o O @ @ i g g v F L L F F v g s cXcXcXcXcXcXcXcXcXcXcXcXcXcXcXcXcXcXcXcXcXcXcXcXcXcXcXcXcXcXcXcXcXcXcXcXcXcXcXcXcXcXcXcXcXcXcXcXcXcX"
};
