/* XPM */
static char *result[] = {
/* columns rows colors chars-per-pixel */
"80 80 233 2 ",
"   c #26131F",
".  c #241322",
"X  c #2C1624",
"o  c #2E1D2F",
"O  c #391D27",
"+  c #2F232F",
"@  c #3E232B",
"#  c #322A33",
"$  c #352834",
"%  c #3A323A",
"&  c #3B383B",
"*  c #4E1B18",
"=  c #551C1C",
"-  c #6B0101",
";  c #4E241C",
":  c #48262B",
">  c #592626",
",  c #563124",
"<  c #5D332B",
"1  c #5F2F30",
"2  c #573936",
"3  c #612E2E",
"4  c #61312F",
"5  c #602F30",
"6  c #633131",
"7  c #643D38",
"8  c #5E4F3E",
"9  c #624131",
"0  c #69443B",
"q  c #714C3F",
"w  c #503E4C",
"e  c gray27",
"r  c #474749",
"t  c #4C4C4D",
"y  c #4D4A52",
"u  c #524A52",
"i  c #534A58",
"p  c #5B4C5C",
"a  c #535355",
"s  c #55555A",
"d  c #5D515E",
"f  c #5B5A5D",
"g  c #6A4848",
"h  c #665243",
"j  c #6E594C",
"k  c #735242",
"l  c #775A4D",
"z  c #665257",
"x  c #755E52",
"c  c #7B5D5A",
"v  c #63605F",
"b  c #7B6155",
"n  c #7A6257",
"m  c #5C5863",
"M  c #645563",
"N  c #655D6B",
"B  c #695D6D",
"V  c #735F67",
"C  c #63626D",
"Z  c #6D6269",
"A  c #756563",
"S  c #6A6373",
"D  c #696775",
"F  c #6C6D75",
"G  c #6E6B7B",
"H  c #756D79",
"J  c #72717D",
"K  c #7A787A",
"L  c #930000",
"P  c #980809",
"I  c #8F1914",
"U  c #981819",
"Y  c #A60102",
"T  c #A61D0D",
"R  c #9A201D",
"E  c #992628",
"W  c #913534",
"Q  c #99343C",
"!  c #AA2A2A",
"~  c #C03A39",
"^  c #AC7933",
"/  c #9B3C44",
"(  c #924E4E",
")  c #875A5B",
"_  c #AB5353",
"`  c #A25E54",
"'  c #896C4A",
"]  c #82655D",
"[  c #A35864",
"{  c #836363",
"}  c #8A6666",
"|  c #8B6A64",
" . c #846A68",
".. c #8D6B6A",
"X. c #926E67",
"o. c #936D6B",
"O. c #8D746C",
"+. c #94726E",
"@. c #9B746C",
"#. c #876F72",
"$. c #9A6B75",
"%. c #84787B",
"&. c #8C7D7C",
"*. c #947372",
"=. c #9B7574",
"-. c #947A77",
";. c #9B7A75",
":. c #9C7B7B",
">. c #A5686A",
",. c #A16A77",
"<. c #A07676",
"1. c #A17479",
"2. c #A27D7C",
"3. c #AB7E7E",
"4. c #B27570",
"5. c #BE8422",
"6. c #C2892E",
"7. c #9A8375",
"8. c #A18863",
"9. c #A4827C",
"0. c #A9877E",
"q. c #A8907E",
"w. c #C28557",
"e. c #716F80",
"r. c #737383",
"t. c #7B7A87",
"y. c #7C7B84",
"u. c #827C87",
"i. c #997E85",
"p. c #A57485",
"a. c #A57C81",
"s. c #AC7F80",
"d. c #898587",
"f. c #83828B",
"g. c gray55",
"h. c #99898C",
"j. c #9D9088",
"k. c #868691",
"l. c #8B8B93",
"z. c #918E92",
"x. c #949394",
"c. c #9B9697",
"v. c #93939B",
"b. c #9B9B9C",
"n. c #A48382",
"m. c #AB8383",
"M. c #AC8A83",
"N. c #A8888A",
"B. c #AD8B8B",
"V. c #B58484",
"C. c #B68A87",
"Z. c #B48C8B",
"A. c #AA9287",
"S. c #B39385",
"D. c #B89B87",
"F. c #B3948C",
"G. c #BA958B",
"H. c #B59C8B",
"J. c #BC9C8C",
"K. c #B28C91",
"L. c #A89896",
"P. c #B59494",
"I. c #B89794",
"U. c #B79C97",
"Y. c #BB9A94",
"T. c #BC9A9A",
"R. c #B9A28D",
"E. c #BDA292",
"W. c #BAA49A",
"Q. c #9E9EA4",
"!. c #A5A4A7",
"~. c gray67",
"^. c #B5A9A5",
"/. c #B3B2AF",
"(. c #ABACB0",
"). c #B2B2B4",
"_. c #B6B5B9",
"`. c #BABBBD",
"'. c #C09A8E",
"]. c #C19F93",
"[. c #C7969B",
"{. c #C09D9B",
"}. c #C3A393",
"|. c #CAAC96",
" X c #C4A49A",
".X c #C8A79B",
"XX c #C6A998",
"oX c #CCAB9B",
"OX c #D0AF9E",
"+X c #CEB19A",
"@X c #D3B49D",
"#X c #D5B89E",
"$X c #C5A3A2",
"%X c #C6ACA7",
"&X c #CCACA4",
"*X c #CCB3A3",
"=X c #D5B4A4",
"-X c #D8B7A3",
";X c #DBBCA3",
":X c #D5B7A8",
">X c #DCBDAA",
",X c #C5BDB9",
"<X c #E0BFA7",
"1X c #DDC2A4",
"2X c #DEC1AA",
"3X c #D5C5B9",
"4X c #E2C2A6",
"5X c #E4C4AB",
"6X c #E4C8AA",
"7X c #E6C9AA",
"8X c #EACBAD",
"9X c #EFCFAF",
"0X c #E5CBB4",
"qX c #EDCDB0",
"wX c #F0CFB1",
"eX c #EFD1B0",
"rX c #F6D5B4",
"tX c #F8D7B6",
"yX c #F9D8B6",
"uX c #BDBDC2",
"iX c #BEC0C2",
"pX c #C3C3C4",
"aX c #C5C5C8",
"sX c #CBCBCC",
"dX c #CFCDCF",
"fX c gray83",
"gX c #DBDADA",
"hX c gray90",
"jX c #ECECEC",
"kX c #EFF0F0",
"lX c gray96",
"zX c #F8F8F8",
"xX c None",
/* pixels */
"xXxXxXxXxXxXxXxXxXxXxXxXxXxXxXxXxXxXxXxXxXxXxXxXxXxXxXxXxXxXxXxXxXxXxXxXxXxXxXxXxXxXxXxXxXxXxXxXxXxXxXxXxXxXxXxXxXxXxXxXxXxXxXxXxXxXxXxXxXxXxXxXxXxXxXxXxXxXxXxX",
"xXxXxXxXxXxXxXxXxXxXxXxXxXxXxXxXxXxXxXxXxXxXxXxXxXxXxXxXxXxXxXxXxXxXxXxXxXxXxXxXxXxXxXxXxXxXxXxXxXxXxXxXxXxXxXxXxXxXxXxXxXxXxXxXxXxXxXxXxXxXxXxXxXxXxXxXxXxXxXxX",
"xXxXxXxXxXxXxXxXxXxXxXxXxXxXxXxXxXxXxXxXxXxXxXxXxXxXxXxXxXxXxXxXm.P.K.P.N.xXxXxXxXxXxXxXxXxXxXxXxXxXxXxXxXxXxXxXxXxXxXxXxXxXxXxXxXxXxXxXxXxXxXxXxXxXxXxXxXxXxXxX",
"xXxXxXxXxXxXxXxXxXxXxXxXxXxXxXxXxXxXxXxXxXxXxXxXxXxXxXxXxXxX<.m.P.P.P.P.P.P.P.B.P.P.xXxXxXxXxXxXxXxXxXxXxXxXxXxXxXxXxXxXxXxXxXxXxXxXxXxXxXxXxXxXxXxXxXxXxXxXxXxX",
"xXxXxXxXxXxXxXxXxXxXxXxXxXxXxXxXxXxXxXxXxXxXxXxXxXxXxXxXxXQ >.Z.P.P.P.P.P.P.P.P.B.m.a.p.p.xXxXxXxXxXxXxXxXxXxXxXxXxXxXxXxXxXxXxXxXxXxXxXxXxXxXxXxXxXxXxXxXxXxXxX",
"xXxXxXxXxXxXxXxXxXxXxXxXxXxXxXxXxXxXxXxXxXxXxXxXxX[.xX~ ! Y Y U U / >.>.V.B.a.1.$.1.1.p.p.$.xXxXxXxXxXxXxXxXxXxXxXxXxXxXxXxXxXxXxXxXxXxXxXxXxXxXxXxXxXxXxXxXxXxX",
"xXxXxXxXxXxXxXxXxXxXxXxXxXxXxXxXxXxXxXxXxXxXxXxXxXxX#.N.Z.[ 4._ U U P L U E E [ >.p.p.p.,.xXxXxXxXxXxXxXxXxXxXxXxXxXxXxXxXxXxXxXxXxXxXxXxXxXxXxXxXxXxXxXxXxXxXxX",
"xXxXxXxXxXxXxXxXxXxXxXxXxXxXxXxXxXxXxXxXxXxXxXxX|.v C f.G f i.B.Z.Z.[ / Q U P P P Q Q / xXxXxXxXxXxXxXxXxXxXxXxXxXxXxXxXxXxXxXxXxXxXxXxXxXxXxXxXxXxXxXxXxXxXxXxX",
"xXxXxXxXxXxXxXxXxXxXxXxXxXxXxXxXxXxXxXxXxXxX-X;X|.v g.f.a y.f.t.t.u.@.w.w.` >.[ Q E I - xXxXxXxXxXxXxXxXxXxXxXxXxXxXxXxXxXxXxXxXxXxXxXxXxXxXxXxXxXxXxXxXxXxXxXxX",
"xXxXxXxXxXxXxXxXxXxXxXxXxXxXxXxXxXxXxXxXxX4XrXR.S.' g.s J x.x.x.l.y.' 6.5.^ &.u.H *.$.) $.xXxXxXxXxXxXxXxXxXxXxXxXxXxXxXxXxXxXxXxXxXxXxXxXxXxXxXxXxXxXxXxXxXxXxX",
"xXxXxXxXxXxXxXxXxXxXxXxXxXxXxXxXxXxXxXxX;XrXyXH.j.8.K a x.x.x.x.c.b.z.%.b.pX(.!.C xXxXxXxXxXxXxXxXxXxXxXxXxXxXxXxXxXxXxXxXxXxXxXxXxXxXxXxXxXxXxXxXxXxXxXxXxXxXxX",
"xXxXxXxXxXxXxXxXxXxXxXxXxXxXxXxXxX1X;X=X4X4X@X;XW.b.v.J y.d.x.d.x.b.g.).dX`.b.~.xXxXxXxXxXxXxXxXxXxXxXxXxXxXxXxXxXxXxXxXxXxXxXxXxXxXxXxXxXxXxXxXxXxXxXxXxXxXxXxX",
"xXxXxXxXxXxXxXxXxXxXxXxXxXxX;X8XqXrXtXrX4XoX X=X8X+X^.!.d.O.H &.b.K g.(.v.F %.}.xXxXxXxXxXxXxXxXxXxXxXxXxXxXxXxXxXxXxXxXxXxXxXxXxXxXxXxXxXxXxXxXxXxXxXxXxXxXxXxX",
"xXxXxXxXxXxXxXxXxXxXxX>X;X4X5X5X8XrXtXtX8X5X8XqXrXrX5XoX^.!.c.d.&.' b %.y.A.H.J.J.xXxXxXxXxXxXxXxXxXxXxXxXxXxXxXxXxXxXxXxXxXxXxXxXxXxXxXxXxXxXxXxXxXxXxXxXxXxXxX",
"xXxXxXxXxXxXxXxXxXxX5XrXrXrXrXrXrX8X8XrXrXeX=X.X.X=XqXwX;X^._.iXz.W T I { W.}.}.H.S.xXxXxXxXxXxXxXxXxXxXxXxXxXxXxXxXxXxXxXxXxXxXxXxXxXxXxXxXxXxXxXxXxXxXxXxXxXxX",
"xXxXxXxXxXxXxXxXxX7XrX7XrXrXrXrXrXrXqX5XwXrXrX8X=XoXT.oX;X;X*XL...E L L ( E.-X=XoX7.xXxXxXxXxXxXxXxXxXxXxXxXxXxXxXxXxXxXxXxXxXxXxXxXxXxXxXxXxXxXxXxXxXxXxXxXxXxX",
"xXxXxXxXxXxXxXxX1X8X4XqXrXrXrXrXrXrXyX5X4XrXtXtXtXrX8X;X}.{.=X@X*X^.W Y P >.Y.=X&X7.xXxXxXxXxXxXxXxXxXxXxXxXxXxXxXxXxXxXxXxXxXxXxXxXxXxXxXxXxXxXxXxXxXxXxXxXxXxX",
"xXxXxXxXxXxXxX|.5X4X5XrXrXrX8XrXrXrXtXrX4X8XtXrXtXtXtXrX8X=XI. X@X=XM.R Y E X.$X$X:.}.xXxXxXxXxXxXxXxXxXxXxXxXxXxXxXxXxXxXxXxXxXxXxXxXxXxXxXxXxXxXxXxXxXxXxXxXxX",
"xXxXxXxXxXxXxX1X#X;XrXrXrXrX:XrXrXrXtXyX5X8XtXrXrXtXrXrXtXrX5X.XI..X;X4.R L ( T.T.;.=XxXxXxXxXxXxXxXxXxXxXxXxXxXxXxXxXxXxXxXxXxXxXxXxXxXxXxXxXxXxXxXxXxXxXxXxXxX",
"xXxXxXxXxXxXxXH.@X8XrXtXrX8X&XrXrXrXrXrX5X8XtXrXrXtXtXrXrXrXrXrX;XE.Y.&XS./ U 3.T.*.1XxXxXxXxXxXxXxXxXxXxXxXxXxXxXxXxXxXxXxXxXxXxXxXxXxXxXxXxXxXxXxXxXxXxXxXxXxX",
"xXxXxXxXxXxXxXS.7XrXrXrX2X&X5XrXrXtX8X8X5X5XrXrXrXrXrXrXrXtXyXtXrX8XoXY.I.H.@.9.;.E.1XxXxXxXxXxXxXxXxXxXxXxXxXxXxXxXxXxXxXxXxXxXxXxXxXxXxXxXxXxXxXxXxXxXxXxXxXxX",
"xXxXxXxXxXxXxX}.rXwX5X=X&X>XrXrXrXrX4X<X;X+XrXtXrXrXrXrXtXrX4XyXtXtXrX1X XP.P.B. .D.E.+.xXxXxXxXxXxXxXxXxXxXxXxXxXxXxXxXxXxXxXxXxXxXxXxXxXxXxXxXxXxXxXxXxXxXxXxX",
"xXxXxXxXxXxXxXJ.;X&X$X{.;XrXrXtXtXeX#X;X}.F.>XwXrXrXtXtX8Xq.7.|.yXrXrXrXeX=XI.-.+.b N.*.}.xXxXxXxXxXxXxXxXxXxXxXxXxXxXxXxXxXxXxXxXxXxXxXxXxXxXxXxXxXxXxXxXxXxXxX",
"xXxXxXxXxXxXxXB.&X{.}.;XrXrXrXrX8X1X@X5XG.:.$X=X:X5X8XrXrX|.D.4XyXtXtXtXtXrX7XE.:.x N.*.}.}.xXxXxXxXxXxXxXxXxXxXxXxXxXxXxXxXxXxXxXxXxXxXxXxXxXxXxXxXxXxXxXxXxXxX",
"xXxXxXxXxXxXxXn.{.oX8XrXrXrXrX6X1X@X;XrXS.:.P.{.$X&X&X=X:X5XqXrXrXrXrXrXrXrXqX5XJ.x 3.;.=X.XxXxXxXxXxXxXxXxXxXxXxXxXxXxXxXxXxXxXxXxXxXxXxXxXxXxXxXxXxXxXxXxXxXxX",
"xXxXxXxXxXxXxXn.$X5XrXtXtXrX7X6X;X+X1XJ.+...-.N.P.P.T.$X{.T.T. X XW.3X,X^.^.^.L. .] 2.G.oX.X}.xXxXxXxXxXxXxXxXxXxXxXxXxXxXxXxXxXxXxXxXxXxXxXxXxXxXxXxXxXxXxXxXxX",
"xXxXxXxXxXxXxXN.:XrXrX4XXXJ.J.J.G.S.S.:.:.2.:.2.:.:.X.Z.2.B.B.B.2.&.`.^.h.j.j.x.+.b J.n.*.:.S.xXxXxXxXxXxXxXxXxXxXxXxXxXxXxXxXxXxXxXxXxXxXxXxXxXxXxXxXxXxXxXxXxX",
"xXxXxXxXxXxXxX:.=XrXoXm.s.m.C.J.}.@XoX}.F.B.B.P.P.P.j B...I.I.n.9.L.`.%XI.I.{ c.i.j *.*.M.oX=XoX}.J.xXxXxXxXxXxXxXxXxXxXxXxXxXxXxXxXxXxXxXxXxXxXxXxXxXxXxXxXxXxX",
"xXxXxXxXxXxXxX:.=XrXG.C.'.=X8XrXrXyXtXyX9X;XoXA.F.n.j B...P.N.*.Y.L._.^.h.h.V u.#.j 0.Y.oXoXOX=X=XoXoX}.xXxXxXxXxXxXxXxXxXxXxXxXxXxXxXxXxXxXxXxXxXxXxXxXxXxXxXxX",
"xXxXxXxXxXxXxX..}.qX8X8X8XrXtXrXrXrXrXrXtXyXrXrX4X|.7.-.:.N.=.B..XN.L.!.z.x.x.g.A x 3.3.2.G.}.oXOX=X=X=X}.A.q.xXxXxXxXxXxXxXxXxXxXxXxXxXxXxXxXxXxXxXxXxXxXxXxXxX",
"xXxXxXxXxXxXxXc N. X=X>X8X8XrXrXrXrXrXrXrXrXrXtXyXrX;X+XF.7.;.F.Y.9.7.H.E.XX|.}.0.<.x <.V.V.C.G.XXoX*XE.E..XH.J..XxXJ.xXxXxXxXxXxXxXxXxXxXxXxXxXxXxXxXxXxXxXxXxX",
"xXxXxXxXxXxXxXxXxX*.n.B.T.&X:X>X2X8X8XrXtXrXtXqX4X;X8X4X;X8X7X4X0X3XU.L.L..X.X.XS.o.@.] V.V.V.V.V.M.0.S.E.H.oX=X=X=X^.u.xXxXxXxXxXxXxXxXxXxXxXxXxXxXxXxXxXxXxXxX",
"xXxXxXxXxXxXxXxXxXxXxXO.9.n.B.P.T.$X&X=X2X2XqX].}.@X#X5XrXrX5X3XgXuXuXdXdXdX,X^.U.-.m.X.| V.V.V.V.| ] +.;.C.}.=X%X/.).`.uX).xXxXxXxXxXxXxXxXxXxXxXxXxXxXxXxXxXxX",
"xXxXxXxXxXxXxXxXxXxXxXq.oX.XM.9.2.:.n.B.T.T.N.B.N.G.;X7XrX4XW.aX`.hXzXzXzXzXzXlXjXgXdX^.L.^.B.V.V.b =.x X.V.m.h.~.x.fXgXfXfXsXpXQ.xXxXxXxXxXxXxXxXxXxXxXxXxXxXxX",
"xXxXxXxXxXxXxXxXxXxXxXD.@X}.G.P.P.Z.Z.n.:.2...2.*.P.$X&X=X.XA.(.!.fXhXkXzXzXzXlXhXfXfXgX_._.`.U.;.j ] j 3.V.s.r.Q.k.gXfXfXfXfXgXhXsXxXxXxXxXxXxXxXxXxXxXxXxXxXxX",
"xXxXxXxXxXxXxXxXxXxXxX0.J.J.P.P.P.P.P.P.P.P.B.N.-.:.B.P.$XT.&.J Z d.b.).pXfXfXaXpXsX~.(.gXaX!.`./.xXxXh +.=.s.%.d.r.).fXfXfXfXpXfXhXfX).xXxXxXxXxXxXxXxXxXxXxXxX",
"xXxXxXxXxXxXxXxXxXxXxX*.S.P.P.P.P.P.P.P.P.P.P.P.P.Z.2.} 9.:.*.#.:.N.-.i.a.Z.h.).sXb.aX_.v.dX(.l.).xXxXxXxXxX] b h xXxXQ.pXgXQ.xXxXl.).sXsX!.xXxXxXxXxXxXxXxXxXxX",
"xXxXxXxXxXxXxXxXxXxXxX*.F.P.P.P.P.P.P.P.P.P.P.P.P.P.P.o..XP.P.2.-.I.P.C.V.V.m.H ).s K _.F x.`.J l.xXxXxXxXxXxXxXxXxXxXxXv.`.f.xXxXxXD l.).sXxXxXxXxXxXxXxXxXxXxX",
"xXxXxXxXxXxXxXxXxXxXxX*.P.P.P.P.P.P.P.P.P.P.P.P.P.P.P.+.=X}.P.n.-.P.P.C.V.V.V.&.l...2.%.H A xXxXxXxXxXxXxXxXxXxXxXxXxXxXt.l.t.xXxXxXG f.r.Q.!.xXxXxXxXxXxXxXxXxX",
"xXxXxXxXxXxXxXxXxXxX*.3.P.P.P.P.P.P.P.P.P.P.P.P.P.P.K.+.=X}.P.n.=.Z.P.C.V.V.V.V.a.V.3.} *.n 8 xXxXxXxXxXxXxXxXxXxXxXxXxXxXt.r.xXxXxXxXxXxXxXxXxXxXxXxXxXxXxXxXxX",
"xXxXxXxXxXxXxXxXxXxX*.B.P.P.P.P.P.P.P.P.P.P.P.P.P.P.P....XoXI.N.=.Z.P.C.V.V.V.V.V.V.3.} :.| 8 xXxXxXxXxXxXxXxXxXxXxXxXxXxXxXxXxXxXxXxXxXxXxXxXxXxXxXxXxXxXxXxXxX",
"xXxXxXxXxXxXxXxXxXxX*.B.P.P.P.P.P.P.P.P.P.P.P.P.P.P.P.*.C.oX.XP.:.:.P.K.Z.V.V.V.V.V.3.} 2.X.8 xXxXxXxXxXxXxXxXxXxXxXxXxXxXxXxXxXxXxXxXxXxXxXxXxXxXxXxXxXxXxXxXxX",
"xXxXxXxXxXxXxXxXxXxX*.B.P.P.P.P.P.P.P.P.P.P.P.P.P.P.P.m.*.].oX.XF.*.n.P.P.C.V.V.V.V.*...s.X.8 xXxXxXxXxXxXxXxXxXxXxXxXxXxXxXxXxXxXxXxXxXxXxXxXxXxXxXxXxXxXxXxXxX",
"xXxXxXxXxXxXxXxXxX*.3.P.P.P.P.P.P.P.P.P.P.P.P.P.P.P.P.P.N.:.;.;.-.....n.P.C.V.V.V.3.} -.V.=.c xXxXxXxXxXxXxXxXxXxXxXxXxXxXxXxXxXxXxXxXxXxXxXxXxXxXxXxXxXxXxXxXxX",
"xXxXxXxXxXxXxXxXxX*.B.P.P.P.P.P.P.P.P.P.P.P.P.P.P.P.P.P.P.P.Z.2.-.:.;.-.B.C.V.V.V.3...m.V.<.{ xXxXxXxXxXxXxXxXxXxXxXxXxXxXxXxXxXxXxXxXxXxXxXxXxXxXxXxXxXxXxXxXxX",
"xXxXxXxXxXxXxXxXxX*.B.P.P.P.P.P.P.P.P.P.P.P.P.P.P.P.P.P.P.P.P.P.P.P.P.P.P.V.V.V.V.3...V.V.<.{ xXxXxXxXxXxXxXxXxXxXxXxXxXxXxXxXxXxXxXxXxXxXxXxXxXxXxXxXxXxXxXxXxX",
"xXxXxXxXxXxXxXxXxX*.B.P.P.P.P.P.P.P.P.P.P.P.P.P.P.P.P.P.P.P.P.P.P.P.P.P.P.V.V.V.V.3...V.V.<.{ xXxXxXxXxXxXxXxXxXxXxXxXxXxXxXxXxXxXxXxXxXxXxXxXxXxXxXxXxXxXxXxXxX",
"xXxXxXxXxXxXxXxXxX;.B.P.P.P.P.P.P.P.P.P.P.P.P.P.P.P.P.P.P.P.P.P.P.P.P.P.P.V.V.V.V.3...V.V.<.{ xXxXxXxXxXxXxXxXxXxXxXxXxXxXxXxXxXxXxXxXxXxXxXxXxXxXxXxXxXxXxXxXxX",
"xXxXxXxXxXxXxXxXxX].I.P.P.P.P.P.P.P.P.P.P.P.P.P.P.P.P.P.P.P.P.P.P.P.P.P.C.V.V.V.V.3...V.V.=.xXxXxXxXxXxXxXxXxXxXxXxXxXxXxXxXxXxXxXxXxXxXxXxXxXxXxXxXxXxXxXxXxXxX",
"xXxXxXxXxXxXxXxXxX}.I.P.P.P.P.P.P.P.P.P.P.P.P.P.P.P.P.P.P.P.P.P.P.P.P.P.C.V.V.V.V.3...V.3.*.xXxXxXxXxXxXxXxXxXxXxXxXxXxXxXxXxXxXxXxXxXxXxXxXxXxXxXxXxXxXxXxXxXxX",
"xXxXxXxXxXxXxXxXH.}.I.P.P.P.P.P.P.P.P.P.P.P.P.P.P.P.P.P.P.P.P.P.P.P.P.P.C.V.V.V.V.3...V.3.*.xXxXxXxXxXxXxXxXxXxXxXxXxXxXxXxXxXxXxXxXxXxXxXxXxXxXxXxXxXxXxXxXxXxX",
"xXxXxXxXxXxXxXxX.X.XI.P.P.P.P.P.P.P.P.P.P.P.P.P.P.P.P.P.P.P.P.P.P.P.P.Z.V.V.V.V.V.3...V.3.*.xXxXxXxXxXxXxXxXxXxXxXxXxXxXxXxXxXxXxXxXxXxXxXxXxXxXxXxXxXxXxXxXxXxX",
"xXxXxXxXxXxXxXJ.oXoXI.P.P.P.P.P.P.P.P.P.P.P.P.P.P.P.P.P.P.P.P.P.P.P.P.C.V.V.V.V.V.3.o.V.3.*.xXxXxXxXxXxXxXxXxXxXxXxXxXxXxXxXxXxXxXxXxXxXxXxXxXxXxXxXxXxXxXxXxXxX",
"xXxXxXxXxXxXxX}.=X.XI.P.P.P.P.P.P.P.P.P.P.P.P.P.P.P.P.P.P.P.P.P.P.P.P.C.V.V.V.V.V.3...V.m.-.xXxXxXxXxXxXxXxXxXxXxXxXxXxXxXxXxXxXxXxXxXxXxXxXxXxXxXxXxXxXxXxXxXxX",
"xXxXxXxXxXxX}.OX=X.XI.P.P.P.P.P.P.P.P.P.P.P.P.P.P.P.P.P.P.P.P.P.P.P.P.C.V.V.V.V.V.3.} 2.V.=.{ xXxXxXxXxXxXxXxXxXxXxXxXxXxXxXxXxXxXxXxXxXxXxXxXxXxXxXxXxXxXxXxXxX",
"xXxXxXxXxXxX}.=X=X.XI.P.P.P.P.P.P.P.P.P.P.P.P.P.P.P.P.P.P.P.P.P.P.P.C.V.V.V.V.V.V.V...o.V.=.{ xXxXxXxXxXxXxXxXxXxXxXxXxXxXxXxXxXxXxXxXxXxXxXxXxXxXxXxXxXxXxXxXxX",
"xXxXxXxXxX}.=X=X=X.XI.P.P.P.P.P.P.P.P.P.P.P.P.P.P.P.P.P.P.P.P.P.P.P.C.V.V.V.V.V.V.V.=.o.V.<.{ xXxXxXxXxXxXxXxXxXxXxXxXxXxXxXxXxXxXxXxXxXxXxXxXxXxXxXxXxXxXxXxXxX",
"xXxXxXxXxXXX-X=X=X.XI.P.P.P.P.P.P.P.P.P.P.P.P.P.P.P.P.P.P.P.P.P.P.Z.V.V.V.V.V.V.V.V.3.} 2.m.o.xXxXxXxXxXxXxXxXxXxXxXxXxXxXxXxXxXxXxXxXxXxXxXxXxXxXxXxXxXxXxXxXxX",
"xXxXxXxX}.=X=X=X=XoXI.P.P.P.P.P.P.P.P.P.P.P.P.P.P.P.P.P.P.P.P.P.P.Z.V.V.V.V.V.V.V.V.3.} =.V.3.o.xXxXxXxXxXxXxXxXxXxXxXxXxXxXxXxXxXxXxXxXxXxXxXxXxXxXxXxXxXxXxXxX",
"xXxXxX}.=X=X=X=X=XoXI.P.P.P.P.P.P.P.P.P.P.P.P.P.P.P.P.P.P.P.P.P.K.V.V.V.V.V.V.V.V.V.3.} *.-.3.=.xXxXxXxXxXxXxXxXxXxXxXxXxXxXxXxXxXxXxXxXxXxXxXxXxXxXxXxXxXxXxXxX",
"xXxXJ.@X=X=X=X=X=X.XI.P.P.P.P.P.P.P.P.P.P.P.P.P.P.P.P.P.P.P.P.P.Z.V.V.V.V.V.V.V.V.V.m...} *.*.*.} xXxXxXxXxXxXxXxXxXxXxXxXxXxXxXxXxXxXxXxXxXxXxXxXxXxXxXxXxXxXxX",
"xXxXG.=X=X=X=X=X=XOX].P.P.P.P.P.P.P.P.P.P.P.P.P.P.P.P.P.P.P.P.Z.V.V.V.V.V.V.V.V.V.V.V.=.} *.*.*.*.} xXxXxXxXxXxXxXxXxXxXxXxXxXxXxXxXxXxXxXxXxXxXxXxXxXxXxXxXxXxX",
"xXxXm.I..X&X&X=X=X&XY.P.P.P.P.P.P.P.P.P.P.P.P.P.P.P.P.P.P.P.P.C.V.V.V.V.V.V.V.V.V.V.V.3.} *.*.*.*.} xXxXxXxXxXxXxXxXxXxXxXxXxXxXxXxXxXxXxXxXxXxXxXxXxXxXxXxXxXxX",
"xXxXxXn.P.P.I.I.I.P.P.P.P.P.P.P.P.P.P.P.P.P.P.P.P.P.P.P.P.P.Z.V.V.V.V.V.V.V.V.V.V.V.V.V.=.} *.*.*.} xXxXxXxXxXxXxXxXxXxXxXxXxXxXxXxXxXxXxXxXxXxXxXxXxXxXxXxXxXxX",
"xXxXxXxX:.2.B.Z.B.B.P.P.P.P.P.P.P.P.P.P.P.P.P.P.P.P.P.P.P.C.V.V.V.V.V.V.V.V.V.V.V.V.V.V.s.X. . .] xXxXxXxXxXxXxXxXxXxXxXxXxXxXxXxXxXxXxXxXxXxXxXxXxXxXxXxXxXxXxX",
"xXxXxXxXxXxXxXxXxX . .| @.@.-.n.N.B.P.P.P.P.P.P.P.P.Z.Z.V.V.V.V.V.V.V.V.V.V.V.V.V.V.V.V.V.V.+.x xXxXxXxXxXxXxXxXxXxXxXxXxXxXxXxXxXxXxXxXxXxXxXxXxXxXxXxXxXxXxXxX",
"xXxXxXxXxXxXxXxXxXxXu Z g q k l l l b b | +.;.<.2.3.3.3.m.3.3.2.=.=.>.X.} } ) } ) ) ) c o.| b j h h xXxXxXxXxXxXxXxXxXxXxXxXxXxXxXxXxXxXxXxXxXxXxXxXxXxXxXxXxXxX",
"xXxXxXxXxXxXxXxXxXxXu G r.V g q k k k 9 9 k k 0 0 xXxXxX2 0 0 0 7 6 6 6 > = > 6 6 > O xXxXxXxXxXxXxXxXxXxXxXxXxXxXxXxXxXxXxXxXxXxXxXxXxXxXxXxXxXxXxXxXxXxXxXxXxX",
"xXxXxXxXxXxXxXxXxXxXu G r.r.G z q k k 9 9 k k 0 , xXxXxX  , < 4 6 6 3 > = > 6 3 * . xXxXxXxXxXxXxXxXxXxXxXxXxXxXxXxXxXxXxXxXxXxXxXxXxXxXxXxXxXxXxXxXxXxXxXxXxXxX",
"xXxXxXxXxXxXxXxXxXxXu G r.r.r.r.Z g q 9 9 k k k < xXxXxX: 4 6 6 6 4 > > 3 3 > * ; . xXxXxXxXxXxXxXxXxXxXxXxXxXxXxXxXxXxXxXxXxXxXxXxXxXxXxXxXxXxXxXxXxXxXxXxXxXxX",
"xXxXxXxXxXxXxXxXxXxXu G r.r.r.r.r.B z 2 2 k k 7 , xXxXX 6 6 6 4 < < 4 6 = * ; , , : O xXxXxXxXxXxXxXxXxXxXxXxXxXxXxXxXxXxXxXxXxXxXxXxXxXxXxXxXxXxXxXxXxXxXxXxXxX",
"xXxXxXxXxXxXxXxXxXxXd G r.r.r.e.S S M w w g q < xXxX. : 6 6 6 4 1 6 6 6 6 1 O @ @ @ O . xXxXxXxXxXxXxXxXxXxXxXxXxXxXxXxXxXxXxXxXxXxXxXxXxXxXxXxXxXxXxXxXxXxXxXxX",
"xXxXxXxXxXxXxXxXxXu N r.r.r.G S S S p w M M z : xXxX. : : 1 1 1 1 1 5 : : $ # e r r y a i y i xXxXxXxXxXxXxXxXxXxXxXxXxXxXxXxXxXxXxXxXxXxXxXxXxXxXxXxXxXxXxXxXxX",
"xXxXxXxXxXxXxXxXxXu D J G S B B B N M p u i p o xXxX. % # X X X X X X & e r r r r t a f C F K y.y.y.F xXxXxXxXxXxXxXxXxXxXxXxXxXxXxXxXxXxXxXxXxXxXxXxXxXxXxXxXxX",
"xXxXxXxXxXxXxXxXxXu N S S G G G G e.e.G B p p + xXxX. # # # # # # # # # # # + & & & e r r r t s f f f s s t r r xXxXxXxXxXxXxXxXxXxXxXxXxXxXxXxXxXxXxXxXxXxXxXxX",
"xXxXxXxXxXxXxXxXxXp N S N N S S C C N C N m p xXxXxXxXxXxXxXxXxXxXxXxXxXxXxXxXxXxXxXxXxXxXxXxXxXxXxXxXxXxXxXxXxXxXxXxXxXxXxXxXxXxXxXxXxXxXxXxXxXxXxXxXxXxXxXxXxX",
"xXxXxXxXxXxXxXxXxXxXt r r e t C J f.f.G D C s s xXxXxXxXxXxXxXxXxXxXxXxXxXxXxXxXxXxXxXxXxXxXxXxXxXxXxXxXxXxXxXxXxXxXxXxXxXxXxXxXxXxXxXxXxXxXxXxXxXxXxXxXxXxXxXxX",
"xXxXxXxXxXxXxXxXxXxXa s a r e r f J l.v.f.r.G G D D C xXxXxXxXxXxXxXxXxXxXxXxXxXxXxXxXxXxXxXxXxXxXxXxXxXxXxXxXxXxXxXxXxXxXxXxXxXxXxXxXxXxXxXxXxXxXxXxXxXxXxXxXxX",
"xXxXxXxXxXxXxXxXxXxXt m m a t r e t f C y.y.f.l.l.y.G D s t e xXxXxXxXxXxXxXxXxXxXxXxXxXxXxXxXxXxXxXxXxXxXxXxXxXxXxXxXxXxXxXxXxXxXxXxXxXxXxXxXxXxXxXxXxXxXxXxXxX",
"xXxXxXxXxXxXxXxXxXxXxX# % % % # # # # # # # # # % % % % # # xXxXxXxXxXxXxXxXxXxXxXxXxXxXxXxXxXxXxXxXxXxXxXxXxXxXxXxXxXxXxXxXxXxXxXxXxXxXxXxXxXxXxXxXxXxXxXxXxXxX"
};
