/* XPM */
static char *result[] = {
/* columns rows colors chars-per-pixel */
"80 80 220 2 ",
"   c #3C221E",
".  c #231523",
"X  c #291C2A",
"o  c #2D232D",
"O  c #3D2425",
"+  c #372B37",
"@  c #352C35",
"#  c #3B323B",
"$  c #3B373B",
"%  c #471E1B",
"&  c #422124",
"*  c #55352C",
"=  c #5C322E",
"-  c #553D3B",
";  c #5B3B38",
":  c #61302F",
">  c #623131",
",  c #6B493A",
"<  c #72503F",
"1  c #3F3941",
"2  c #423A43",
"3  c #473A44",
"4  c #553F4C",
"5  c #444445",
"6  c #464348",
"7  c #49434B",
"8  c #4C4C4C",
"9  c #524142",
"0  c #53464C",
"q  c #52494F",
"w  c #4E4656",
"e  c #4D4B52",
"r  c #534A53",
"t  c #574955",
"y  c #594B5A",
"u  c #515154",
"i  c #55545D",
"p  c #5A585F",
"a  c #6B4745",
"s  c #724746",
"d  c #725647",
"f  c #665151",
"g  c #665657",
"h  c #775C54",
"j  c #795B56",
"k  c #76625A",
"l  c #5C5562",
"z  c #5C5B64",
"x  c #5F5F6A",
"c  c #645D6C",
"v  c #685D69",
"b  c #676568",
"n  c #65626E",
"m  c #766466",
"M  c #7E776C",
"N  c #6A6474",
"B  c #696873",
"V  c #6E6B7A",
"C  c #766C73",
"Z  c #726E7C",
"A  c #747374",
"S  c #7B7676",
"D  c #72727A",
"F  c #7D7B7D",
"G  c #940405",
"H  c #9C0000",
"J  c #950A0B",
"K  c #881A19",
"L  c #9B1C1C",
"P  c #A80303",
"I  c #B00000",
"U  c #A4201D",
"Y  c #961E20",
"T  c #97282B",
"R  c #993636",
"E  c #966C3F",
"W  c #A73E41",
"Q  c #8B4243",
"!  c #934041",
"~  c #A44946",
"^  c #A75D5E",
"/  c #B15852",
"(  c #88644D",
")  c #886658",
"_  c #A06B5E",
"`  c #9D5860",
"'  c #856664",
"]  c #886966",
"[  c #8C6B6B",
"{  c #98676C",
"}  c #916E6E",
"|  c #8C706D",
" . c #9E6E76",
".. c #8E7273",
"X. c #8B787B",
"o. c #947272",
"O. c #9B7574",
"+. c #927B72",
"@. c #987B78",
"#. c #9D7B7B",
"$. c #A36D77",
"%. c #A17777",
"&. c #A57675",
"*. c #A47B7B",
"=. c #AA7E7D",
"-. c #BA7175",
";. c #8F807D",
":. c #9C8679",
">. c #AA8F6F",
",. c #A6827D",
"<. c #AC857D",
"1. c #A38B7D",
"2. c #AA897E",
"3. c #CC997B",
"4. c #6F7080",
"5. c #737382",
"6. c #7C7B84",
"7. c #817B81",
"8. c #A97E86",
"9. c #B07F89",
"0. c #828283",
"q. c #8C8584",
"w. c #85858A",
"e. c #8A8A8D",
"r. c #9A8183",
"t. c #96878B",
"y. c #868691",
"u. c #8D8D95",
"i. c #918D95",
"p. c #9D8991",
"a. c #939393",
"s. c #9C9496",
"d. c #94949A",
"f. c #9C9B9C",
"g. c #A48383",
"h. c #AB8584",
"j. c #AE8C85",
"k. c #AA858A",
"l. c #AD8C8C",
"z. c #B38383",
"x. c #B28B85",
"c. c #B28D8C",
"v. c #AD9283",
"b. c #A79589",
"n. c #B19486",
"m. c #B29987",
"M. c #B4948B",
"N. c #B99389",
"B. c #B59B8B",
"V. c #BB9B8D",
"C. c #A49999",
"Z. c #B49494",
"A. c #BA9695",
"S. c #BB9B94",
"D. c #BB9898",
"F. c #BC9C9A",
"G. c #BCA48E",
"H. c #ADA59E",
"J. c #BDA292",
"K. c #B8A79B",
"L. c #9B9CA2",
"P. c #A5A4A5",
"I. c #A5A5AB",
"U. c #ABA5AA",
"Y. c #ACABAC",
"T. c #B6A9A8",
"R. c #ABABB0",
"E. c #B1AFB2",
"W. c #B4B1B1",
"Q. c #B2B1B4",
"!. c #B8B4B7",
"~. c #C48A88",
"^. c #C09F93",
"/. c #C69699",
"(. c #C39D9D",
"). c #C0A18E",
"_. c #C4A394",
"`. c #C8A996",
"'. c #C4A49B",
"]. c #CCAB9B",
"[. c #D1AF9D",
"{. c #C8B194",
"}. c #CDB29B",
"|. c #D4B59D",
" X c #D7BA9F",
".X c #CC9EA0",
"XX c #C5A4A3",
"oX c #CEA1A1",
"OX c #C1AFA2",
"+X c #CCACA4",
"@X c #CBB4A2",
"#X c #D4B4A3",
"$X c #D6B8A5",
"%X c #DBBBA4",
"&X c #DDBDA9",
"*X c #C8B6B1",
"=X c #E0BFA5",
"-X c #DDC2A4",
";X c #E2C2A7",
":X c #E4C4AA",
">X c #E5C8A9",
",X c #ECCCAE",
"<X c #EFD0AF",
"1X c #EECDB0",
"2X c #F0CFB1",
"3X c #F5D4B3",
"4X c #F8D7B5",
"5X c #BDBDC0",
"6X c #C3C3C4",
"7X c #CAC9CA",
"8X c #DBCFC9",
"9X c #D7D7D6",
"0X c gainsboro",
"qX c #E6D8CD",
"wX c #DFE0E0",
"eX c #E5E6E6",
"rX c #EAEAEA",
"tX c gray96",
"yX c #F8F8F8",
"uX c None",
/* pixels */
"uXuXuXuXuXuXuXuXuXuXuXuXuXuXuXuXuXuXuXuXuXuXuXuXuXuXuXuXuXuXuXuXuXuXuXuXuXuXuXuXuXuXuXuXuXuXuXuXuXuXuXuXuXuXuXuXuXuXuXuXuXuXuXuXuXuXuXuXuXuXuXuXuXuXuXuXuXuXuXuX",
"uXuXuXuXuXuXuXuXuXuXuXuXuXuXuXuXuXuXuXuXuXuXuXuXuXuXuXuXuXuXuXuXuXuXuXuXuXuXuXuXuXuXuXuXuXuXuXuXuXuXuXuXuXuXuXuXuXuXuXuXuXuXuXuXuXuXuXuXuXuXuXuXuXuXuXuXuXuXuXuX",
"uXuXuXuXuXuXuXuXuXuXuXuXuXuXuXuXuXuXuXuXuXuXuXuXuXuXuXuXuXuXuXuXuXuXuXuXuXuXuXuXuXuXuXuXuXuXuXuXuXuXuXuXuXuXuXuXuXuXuXuXuXuXuXuXuXuXuXuXuXuXuXuXuXuXuXuXuXuXuXuX",
"uXuXuXuXuXuXuXuXuXuXuXuXuXuXuXuXuXuXuXuXuXuXuXuXuXuXuXuXuXuXuXuXuXuXuXuXuXuXuXuXuXuXuXuXuXuXuXuXuXuXuXuXuXuXuXuXuXuXuXuXuXuXuXuXuXuXuXuXuXuXuXuXuXuXuXuXuXuXuXuX",
"uXuXuXuXuXuXuXuXuXuXuXuXuXuXuXuXuXuXuXuXuXuXuXuXuXuXuXuXuXuXuXuXuXuXuXuXuXuXuXuXuXuXuXuXuXuXuXuXuXuXuXuXuXuXuXuXuXuXuXuXuXuXuXuXuXuXuXuXuXuXuXuXuXuXuXuXuXuXuXuX",
"uXuXuXuXuXuXuXuXuXuXuXuXuXuXuXuXuXuXuXuXuXuXuXuXuXuXuXuXuXuXuXuXuXuXuXuXuXuXuXuXuXuXuXuXuXuXuXuXuXuXuXuXuXuXuXuXuXuXuXuXuXuXuXuXuXuXuXuXuXuXuXuXuXuXuXuXuXuXuXuX",
"uXuXuXuXuXuXuXuXuXuXuXuXuXuXuXuXuXuXuXuXuXuXuXuXuXuXuXuXuXuXuXuXuXuXuXuXuXuXuXuXuXuXuXuXuXuXuXuXuXuXuXuXuXuXuXk.Z.uXuXuXuXuXuXuXuXuXuXuXuXuXuXuXuXuXuXuXuXuXuXuX",
"uXuXuXuXuXuXuXuXuXuXuXuXuXuXuXuXuXuXuXuXuXuXuXuXuXuXuXuXuXuXuXuXuXuXuXuXuXuXuXuXuXuXuXuXuXuXuXuXuXuXuXuXuXuX8.Z.Z.(.oXuXuXuXuXuXuXuXuXuXuXuXuXuXuXuXuXuXuXuXuXuX",
"uXuXuXuXuXuXuXuXuXuXuXuXuXuXuXuXuXuXuXuXuXuXuXuXuXuXuXuXuXuXuXuXuXuXuXuXuXuXuXuXuXuXuXuXuXuXuXuXuXuXuXuXuXG ^ Z.Z.Z.(.oXoXuXuXuXuXuXuXuXuXuXuXuXuXuXuXuXuXuXuXuX",
"uXuXuXuXuXuXuXuXuXuXuXuXuXuXuXuXuXuXuXuXuXuXuXuXuXuXuXuXuXuXuXuXuXuXuXuXuXuXuXuXuXuXuXuXuXuXuXuXuXuXD..X/ G J ^ Z.Z.Z.c.N././.uXuXuXuXuXuXuXuXuXuXuXuXuXuXuXuXuX",
"uXuXuXuXuXuXuXuXuXuXuXuXuXuXuXuXuXuXuXuXuXuXuXuXuXuXuXuXuXuXuXuXuXuXuXuXuXuXuXuXuXuXuXuXuXuXuXuXuXuXuXl./.-.L G R $.*. .$.8.9.$.uXuXuXuXuXuXuXuXuXuXuXuXuXuXuXuX",
"uXuXuXuXuXuXuXuXuXuXuXuXuXuXuXuXuXuXuXuXuXuXuXuXuXuXuXuXuXuXuXuXuXuXuXuXuXuXuXuXuXuXuXuXuXuXuXuXuXuX XA 7.l.~.W J G T ` $.$.{ uXuXuXuXuXuXuXuXuXuXuXuXuXuXuXuXuX",
"uXuXuXuXuXuXuXuXuXuXuXuXuXuXuXuXuXuXuXuXuXuXuXuXuXuXuXuXuXuXuXuXuXuXuXuXuXuXuXuXuXuXuXuXuXuXuXuX:X2XG.0.A 6.p.D.-.~ L J J T uXuXuXuXuXuXuXuXuXuXuXuXuXuXuXuXuXuX",
"uXuXuXuXuXuXuXuXuXuXuXuXuXuXuXuXuXuXuXuXuXuXuXuXuXuXuXuXuXuXuXuXuXuXuXuXuXuXuXuXuXuXuXuXuXuXuX>X4X=X>.M F a.6.Z r.3.~.&.R Y uXuXuXuXuXuXuXuXuXuXuXuXuXuXuXuXuXuX",
"uXuXuXuXuXuXuXuXuXuXuXuXuXuXuXuXuXuXuXuXuXuXuXuXuXuXuXuXuXuXuXuXuXuXuXuXuXuXuXuXuXuX].&X>X;X|.n.|.#X>.E F a.a.F S >.q.p.k.k.*.uXuXuXuXuXuXuXuXuXuXuXuXuXuXuXuXuX",
"uXuXuXuXuXuXuXuXuXuXuXuXuXuXuXuXuXuXuXuXuXuXuXuXuXuXuXuXuXuXuXuXuXuXuXuXuXuXuX[.;X>X:X,X3X3X].@.l. XH.+.) q.S 0.P.E.w.7.g uXuXuXuXuXuXuXuXuXuXuXuXuXuXuXuXuXuXuX",
"uXuXuXuXuXuXuXuXuXuXuXuXuXuXuXuXuXuXuXuXuXuXuXuXuXuXuXuXuXuXuXuXuXuXuXuXuXuX|.2X3X3X3X>X1X3X&X_.].,XK.U.+.( S f.P.w.A a.uXuXuXuXuXuXuXuXuXuXuXuXuXuXuXuXuXuXuXuX",
"uXuXuXuXuXuXuXuXuXuXuXuXuXuXuXuXuXuXuXuXuXuXuXuXuXuXuXuXuXuXuXuXuXuXuXuXuXuX;X3X<X<X<X3X>X3X&X#X3X3X@XY.Y.+.m w.w.b.B.`.uXuXuXuXuXuXuXuXuXuXuXuXuXuXuXuXuXuXuXuX",
"uXuXuXuXuXuXuXuXuXuXuXuXuXuXuXuXuXuXuXuXuXuXuXuXuXuXuXuXuXuXuXuXuXuXuXuXuX).;X>X>X,X<X3X2X>X&XD.$X3X>XT.Y.' T ! b.G.v.uXuXuXuXuXuXuXuXuXuXuXuXuXuXuXuXuXuXuXuXuX",
"uXuXuXuXuXuXuXuXuXuXuXuXuXuXuXuXuXuXuXuXuXuXuXuXuXuXuXuXuXuXuXuXuXuXuXuXuX X3X3X3X3X3X3X3X:X3X&XF.%X3X}.q.Q H R H.{.G.v.uXuXuXuXuXuXuXuXuXuXuXuXuXuXuXuXuXuXuXuX",
"uXuXuXuXuXuXuXuXuXuXuXuXuXuXuXuXuXuXuXuXuXuXuXuXuXuXuXuXuXuXuXuXuXuXuXuX|.3X3X3X3X:X1X3X3X:X3X3X:X'.#X:XOX!.K Q b.-X-Xm.1.uXuXuXuXuXuXuXuXuXuXuXuXuXuXuXuXuXuXuX",
"uXuXuXuXuXuXuXuXuXuXuXuXuXuXuXuXuXuXuXuXuXuXuXuXuXuXuXuXuXuXuXuXuXuXuXuX$X4X3X>X&X:X3X3X,X|.>X:X3X1X$X].-XK.K P _ -X XB.:.uXuXuXuXuXuXuXuXuXuXuXuXuXuXuXuXuXuXuX",
"uXuXuXuXuXuXuXuXuXuXuXuXuXuXuXuXuXuXuXuXuXuXuXuXuXuXuXuXuXuXuXuXuXuXuXA.%X:X$XXX$X3X3X2X].M.$X2X3X3X3X#XS.G.K I ~ $XS.n.+.uXuXuXuXuXuXuXuXuXuXuXuXuXuXuXuXuXuXuX",
"uXuXuXuXuXuXuXuXuXuXuXuXuXuXuXuXuXuXuXuXuXuXuXuXuXuXuXuXuXuXuXuXuXuXuX(.XXXX(.].,X3X1X|.V.Z.&X3X3X3X3X1XS.J.~ H U S.h.B.:.uXuXuXuXuXuXuXuXuXuXuXuXuXuXuXuXuXuXuX",
"uXuXuXuXuXuXuXuXuXuXuXuXuXuXuXuXuXuXuXuXuXuXuXuXuXuXuXuXuXuXuXuXuXuXh.(.XX(.].,X3X:X%X%XS.XX&X3X3X3X3X3X#XD.B.R L *.2.n.+.uXuXuXuXuXy.d.Q.uXuXuXuXuXuXuXuXuXuXuX",
"uXuXuXuXuXuXuXuXuXuXuXuXuXuXuXuXuXuXuXuXuXuXuXuXuXuXuXuXuXuXuXuXuXuXD.XX].&X3X3X,X-X:XS.F.XX$X3X3X,X}.<X1XJ.D.j.Q 2.v._.1.uXuXD d.!.Q.6X6X6XY.uXuXuXuXuXuXuXuXuX",
"uXuXuXuXuXuXuXuXuXuXuXuXuXuXuXuXuXuXuXuXuXuXuXuXuXuXuXuXuXuXuXuXuXg.D.c.].;X3X3X<X>XV.Z.XXXX+X;X:XM.+.%X4X:XF.g.| v.j._.n.uXuXuXF q.6.d.a.P.6XF uXuXuXuXuXuXuXuX",
"uXuXuXuXuXuXuXuXuXuXuXuXuXuXuXuXuXuXuXuXuXuXuXuXuXuXuXuXuXuXuXuXuXF.[.^.j.x.}. X%XV.#.D.XXXXXX+XXX'.`.3X3X3X#X..] ,.<.V.n.uXuXuX@.b.d.P.f.0.e.d.uXuXuXuXuXuXuXuX",
"uXuXuXuXuXuXuXuXuXuXuXuXuXuXuXuXuXuXuXuXuXuXuXuXuXuXuXuXuXuXuXuXg.'.'.S.(.&X,X,X,X}.v.D.XXXXXXXXXX+X#X%X@X@XXXg.@.=.z.N.v.:.1.1.B.B.a.6.d.e.f.I.u.uXuXuXuXuXuXuX",
"uXuXuXuXuXuXuXuXuXuXuXuXuXuXuXuXuXuXuXuXuXuXuXuXuXuXuXuXuXuXuXuXg.'.+X&X:X,X3X3X3X3X%X_.J.J.+X'.F.T.U.W.*XT.l.@.*.z.z.n.B.V.n.v.B.c.f.w.w.P.f.d.f.uXuXuXuXuXuXuX",
"uXuXuXuXuXuXuXuXuXuXuXuXuXuXuXuXuXuXuXuXuXuXuXuXuXuXuXuXuXuXuXuXuXZ.XXXX+X:X3X3X,X%X&X:X3X1XqXW.7XeXeX!.d.i...*.z.z.,.n.^._.m.2.,.z.g.s.e.0.b F u.uXuXuXuXuXuXuX",
"uXuXuXuXuXuXuXuXuXuXuXuXuXuXuXuXuXuXuXuXuXuXuXuXuXuXuXuXuXuXuXuXuXuXD.XXXX+X&X1X%X`.%X3X>X8X6XwXyXtXrX0X6X!.t.z.z.*.[ N.N.V.x.o.%.z.z.=.r.;.k uXB uXuXuXuXuXuXuX",
"uXuXuXuXuXuXuXuXuXuXuXuXuXuXuXuXuXuXuXuXuXuXuXuXuXuXuXuXuXuXuXuXuXuXuXl.(.XXXX+X'.).%X>X&X!.6XyXyXyXyXrX9X5XE.s.8.*.o.x.z.z.z.z.*.%.O.O.h uXuXuXuXuXuXuXuXuXuXuX",
"uXuXuXuXuXuXuXuXuXuXuXuXuXuXuXuXuXuXuXuXuXuXuXuXuXuXuXuXuXuXuXuXuXuXuXuXo.h.Z.F.Z.g.D.+XM.P.R.eXyXyXtX7X6X6Xi.7.h.=.O.<.z.z.z.z.*.] j uXuXuXuXuXuXuXuXuXuXuXuXuX",
"uXuXuXuXuXuXuXuXuXuXuXuXuXuXuXuXuXuXuXuXuXuXuXuXuXuXuXuXuXuXuXuXuXuXuXuX*.z.*.*.#.O.*.D.l.C.L.Q.0XtX0X6X6XR.L.X.z.z.<.z.z.z.z.%.' uXuXuXuXuXuXuXuXuXuXuXuXuXuXuX",
"uXuXuXuXuXuXuXuXuXuXuXuXuXuXuXuXuXuXuXuXuXuXuXuXuXuXuXuXuXuXuXuXuXuXuX} h.z.z.=.*.O.} O.#.r.s.w.d.U.6XE.U.E.u.#.[ *.=.=.%.O.' j uXuXuXuXuXuXuXuXuXuXuXuXuXuXuXuX",
"uXuXuXuXuXuXuXuXuXuXuXuXuXuXuXuXuXuXuXuXuXuXuXuXuXuXuXuXuXuXuXuXuXuXuXO.c.z.*.*.=.z.x.h.#.} [ ....@.C.Q.C.X.X.z.o.h d d d uXuXuXuXuXuXuXuXuXuXuXuXuXuXuXuXuXuXuX",
"uXuXuXuXuXuXuXuXuXuXuXuXuXuXuXuXuXuXuXuXuXuXuXuXuXuXuXuXuXuXuXuXuXuXuX#.Z.Z.l.Z.Z.Z.Z.D.A.j.@.o.o.g.`.8.t.o.} z.z.O.uXuXuXuXuXuXuXuXuXuXuXuXuXuXuXuXuXuXuXuXuXuX",
"uXuXuXuXuXuXuXuXuXuXuXuXuXuXuXuXuXuXuXuXuXuXuXuXuXuXuXuXuXuXuXuXuXuXuX#.Z.Z.Z.Z.Z.Z.S._._._.S.j.#.g.].,.S.c.o.*.z.O.uXuXuXuXuXuXuXuXuXuXuXuXuXuXuXuXuXuXuXuXuXuX",
"uXuXuXuXuXuXuXuXuXuXuXuXuXuXuXuXuXuXuXuXuXuXuXuXuXuXuXuXuXuXuXuXuXuXuX#.Z.Z.Z.Z.Z.Z.D.S._._.D.D.S.g.J.j.h.Z.*.O.z.=.uXuXuXuXuXuXuXuXuXuXuXuXuXuXuXuXuXuXuXuXuXuX",
"uXuXuXuXuXuXuXuXuXuXuXuXuXuXuXuXuXuXuXuXuXuXuXuXuXuXuXuXuXuXuXuXuXuXuXO.Z.Z.Z.Z.Z.Z.S.S._.S.Z.Z.Z.l.B.S.g.Z.h.#.*.z.} uXuXuXuXuXuXuXuXuXuXuXuXuXuXuXuXuXuXuXuXuX",
"uXuXuXuXuXuXuXuXuXuXuXuXuXuXuXuXuXuXuXuXuXuXuXuXuXuXuXuXuXuXuXuXuXuXuXo.l.Z.Z.Z.Z.Z.Z.Z._._._.Z.Z.Z.l._.M.h.l.h.*.z.%.uXuXuXuXuXuXuXuXuXuXuXuXuXuXuXuXuXuXuXuXuX",
"uXuXuXuXuXuXuXuXuXuXuXuXuXuXuXuXuXuXuXuXuXuXuXuXuXuXuXuXuXuXuXuXuXuXuXuXh.Z.Z.Z.Z.Z.Z.Z._._._._.Z.Z.l.j.'.h.h.c.#.z.*.uXuXuXuXuXuXuXuXuXuXuXuXuXuXuXuXuXuXuXuXuX",
"uXuXuXuXuXuXuXuXuXuXuXuXuXuXuXuXuXuXuXuXuXuXuXuXuXuXuXuXuXuXuXuXuXuXuXuXg.Z.Z.Z.Z.Z.Z.Z._._._._.S.Z.l.#.B.c.*.Z.*.h.z.} uXuXuXuXuXuXuXuXuXuXuXuXuXuXuXuXuXuXuXuX",
"uXuXuXuXuXuXuXuXuXuXuXuXuXuXuXuXuXuXuXuXuXuXuXuXuXuXuXuXuXuXuXuXuXuXuXuXO.Z.Z.Z.Z.Z.Z.Z._._._._._.D.Z.#.j.Z.g.Z.h.%.z.%.uXuXuXuXuXuXuXuXuXuXuXuXuXuXuXuXuXuXuXuX",
"uXuXuXuXuXuXuXuXuXuXuXuXuXuXuXuXuXuXuXuXuXuXuXuXuXuXuXuXuXuXuXuXuXuXuXuXuXl.Z.Z.Z.Z.Z.Z._._._._._.S.Z.#.j.D.g.l.j.%.z.*.uXuXuXuXuXuXuXuXuXuXuXuXuXuXuXuXuXuXuXuX",
"uXuXuXuXuXuXuXuXuXuXuXuXuXuXuXuXuXuXuXuXuXuXuXuXuXuXuXuXuXuXuXuXuXuXuXuXuXh.Z.Z.Z.Z.Z.Z._._._._._._.Z.#.@.#.g.Z.l.O.z.=.uXuXuXuXuXuXuXuXuXuXuXuXuXuXuXuXuXuXuXuX",
"uXuXuXuXuXuXuXuXuXuXuXuXuXuXuXuXuXuXuXuXuXuXuXuXuXuXuXuXuXuXuXuXuXuXuXuXuXO.Z.Z.Z.Z.Z.Z.S._._._._._.Z.l.g.g.j.Z.Z.O.*.z.} uXuXuXuXuXuXuXuXuXuXuXuXuXuXuXuXuXuXuX",
"uXuXuXuXuXuXuXuXuXuXuXuXuXuXuXuXuXuXuXuXuXuXuXuXuXuXuXuXuXuXuXuXuXuXuXuXuXuXh.Z.Z.Z.Z.Z.S._.].#X]._.D.Z.Z.Z.Z.Z.Z.O.o.*.} uXuXuXuXuXuXuXuXuXuXuXuXuXuXuXuXuXuXuX",
"uXuXuXuXuXuXuXuXuXuXuXuXuXuXuXuXuXuXuXuXuXuXuXuXuXuXuXuXuXuXuXuXuXuXuXuXuXuX@.Z.Z.Z.Z.Z.S._.].$X#X_.^.Z.Z.Z.Z.Z.Z.@.o.#.O.uXuXuXuXuXuXuXuXuXuXuXuXuXuXuXuXuXuXuX",
"uXuXuXuXuXuXuXuXuXuXuXuXuXuXuXuXuXuXuXuXuXuXuXuXuXuXuXuXuXuXuXuXuXuXuXuXuXuX} c.Z.Z.Z.Z.D._.].$X$X].^.Z.Z.Z.Z.Z.Z.@.o.O.O.uXuXuXuXuXuXuXuXuXuXuXuXuXuXuXuXuXuXuX",
"uXuXuXuXuXuXuXuXuXuXuXuXuXuXuXuXuXuXuXuXuXuXuXuXuXuXuXuXuXuXuXuXuXuXuXuXuXuX} c.Z.Z.Z.Z.Z._._.#X$X]._.Z.Z.Z.Z.Z.Z.@.o.O.o.uXuXuXuXuXuXuXuXuXuXuXuXuXuXuXuXuXuXuX",
"uXuXuXuXuXuXuXuXuXuXuXuXuXuXuXuXuXuXuXuXuXuXuXuXuXuXuXuXuXuXuXuXuXuXuXuXuXuXg.Z.Z.Z.Z.Z.Z.D._.].$X#XS.Z.Z.Z.Z.Z.Z.@.o.o.} uXuXuXuXuXuXuXuXuXuXuXuXuXuXuXuXuXuXuX",
"uXuXuXuXuXuXuXuXuXuXuXuXuXuXuXuXuXuXuXuXuXuXuXuXuXuXuXuXuXuXuXuXuXuXuXuXuXuXh.Z.Z.Z.Z.Z.Z.Z.Z.S.].'.Z.Z.Z.Z.Z.Z.Z.@.o.o.} uXuXuXuXuXuXuXuXuXuXuXuXuXuXuXuXuXuXuX",
"uXuXuXuXuXuXuXuXuXuXuXuXuXuXuXuXuXuXuXuXuXuXuXuXuXuXuXuXuXuXuXuXuXuXuXuXuXuXo.c.Z.Z.Z.Z.Z.Z.Z.Z.Z.Z.Z.Z.Z.Z.Z.Z.Z.@.o.o.} uXuXuXuXuXuXuXuXuXuXuXuXuXuXuXuXuXuXuX",
"uXuXuXuXuXuXuXuXuXuXuXuXuXuXuXuXuXuXuXuXuXuXuXuXuXuXuXuXuXuXuXuXuXuXuXuXuXuX} x.Z.Z.Z.Z.Z.Z.Z.Z.Z.Z.Z.Z.Z.Z.Z.Z.Z.#.o.o.o.[ uXuXuXuXuXuXuXuXuXuXuXuXuXuXuXuXuXuX",
"uXuXuXuXuXuXuXuXuXuXuXuXuXuXuXuXuXuXuXuXuXuXuXuXuXuXuXuXuXuXuXuXuXuXuXuXuXuX} c.Z.Z.Z.Z.Z.Z.Z.Z.Z.Z.Z.Z.Z.Z.Z.Z.Z.g.o.o.o.[ uXuXuXuXuXuXuXuXuXuXuXuXuXuXuXuXuXuX",
"uXuXuXuXuXuXuXuXuXuXuXuXuXuXuXuXuXuXuXuXuXuXuXuXuXuXuXuXuXuXuXuXuXuXuXuXuXuXo.Z.Z.Z.Z.Z.Z.Z.Z.Z.Z.Z.Z.Z.Z.Z.Z.Z.Z.g.[ o.o.[ uXuXuXuXuXuXuXuXuXuXuXuXuXuXuXuXuXuX",
"uXuXuXuXuXuXuXuXuXuXuXuXuXuXuXuXuXuXuXuXuXuXuXuXuXuXuXuXuXuXuXuXuXuXuXuXuXuX*.Z.Z.Z.Z.Z.Z.Z.Z.Z.Z.Z.Z.Z.Z.Z.Z.Z.Z.j.} o.o.[ uXuXuXuXuXuXuXuXuXuXuXuXuXuXuXuXuXuX",
"uXuXuXuXuXuXuXuXuXuXuXuXuXuXuXuXuXuXuXuXuXuXuXuXuXuXuXuXuXuXuXuXuXuXuXuXuXuXh.Z.Z.Z.Z.Z.Z.Z.Z.Z.Z.Z.Z.Z.Z.Z.Z.Z.Z.l.} o.o.[ uXuXuXuXuXuXuXuXuXuXuXuXuXuXuXuXuXuX",
"uXuXuXuXuXuXuXuXuXuXuXuXuXuXuXuXuXuXuXuXuXuXuXuXuXuXuXuXuXuXuXuXuXuXuXuXuXo.Z.Z.Z.Z.Z.Z.Z.Z.Z.Z.Z.Z.Z.Z.Z.Z.Z.Z.Z.l.} o.o.o.' uXuXuXuXuXuXuXuXuXuXuXuXuXuXuXuXuX",
"uXuXuXuXuXuXuXuXuXuXuXuXuXuXuXuXuXuXuXuXuXuXuXuXuXuXuXuXuXuXuXuXuXuXuXuXuX*.Z.Z.Z.Z.Z.Z.Z.Z.Z.Z.Z.Z.Z.Z.Z.Z.Z.Z.Z.l.} o.o.o.[ uXuXuXuXuXuXuXuXuXuXuXuXuXuXuXuXuX",
"uXuXuXuXuXuXuXuXuXuXuXuXuXuXuXuXuXuXuXuXuXuXuXuXuXuXuXuXuXuXuXuXuXuXuXuXuXh.Z.Z.Z.Z.Z.Z.Z.Z.Z.Z.Z.Z.Z.Z.Z.Z.Z.Z.Z.Z.O.o.o.o.[ uXuXuXuXuXuXuXuXuXuXuXuXuXuXuXuXuX",
"uXuXuXuXuXuXuXuXuXuXuXuXuXuXuXuXuXuXuXuXuXuXuXuXuXuXuXuXuXuXuXuXuXuXuXuXuXl.Z.Z.Z.Z.Z.Z.Z.Z.Z.Z.Z.Z.Z.Z.Z.Z.Z.Z.Z.Z.O.o.o.o.[ uXuXuXuXuXuXuXuXuXuXuXuXuXuXuXuXuX",
"uXuXuXuXuXuXuXuXuXuXuXuXuXuXuXuXuXuXuXuXuXuXuXuXuXuXuXuXuXuXuXuXuXuXuXuXuXl.Z.Z.Z.Z.Z.Z.Z.Z.Z.Z.Z.Z.Z.Z.Z.Z.Z.Z.Z.Z.O.[ o.[ uXuXuXuXuXuXuXuXuXuXuXuXuXuXuXuXuXuX",
"uXuXuXuXuXuXuXuXuXuXuXuXuXuXuXuXuXuXuXuXuXuXuXuXuXuXuXuXuXuXuXuXuXuXuXuXuX*.Z.Z.Z.Z.Z.Z.Z.Z.Z.Z.Z.Z.Z.Z.Z.Z.Z.l.l.c.+.k ] uXuXuXuXuXuXuXuXuXuXuXuXuXuXuXuXuXuXuX",
"uXuXuXuXuXuXuXuXuXuXuXuXuXuXuXuXuXuXuXuXuXuXuXuXuXuXuXuXuXuXuXuXuXuXuXuXuXuX| @.,.j.l.Z.Z.Z.Z.Z.l.j.h.O.[ ] j s f t j uXuXuXuXuXuXuXuXuXuXuXuXuXuXuXuXuXuXuXuXuX",
"uXuXuXuXuXuXuXuXuXuXuXuXuXuXuXuXuXuXuXuXuXuXuXuXuXuXuXuXuXuXuXuXuXuXuXuXuXuXuXn C m j ) o.O.o.j a s a > > > > * 0 + uXuXuXuXuXuXuXuXuXuXuXuXuXuXuXuXuXuXuXuXuXuX",
"uXuXuXuXuXuXuXuXuXuXuXuXuXuXuXuXuXuXuXuXuXuXuXuXuXuXuXuXuXuXuXuXuXuXuXuXuXuXuXn 5.4.n a , < d * & : > > > > > - r 2 uXuXuXuXuXuXuXuXuXuXuXuXuXuXuXuXuXuXuXuXuXuX",
"uXuXuXuXuXuXuXuXuXuXuXuXuXuXuXuXuXuXuXuXuXuXuXuXuXuXuXuXuXuXuXuXuXuXuXuXuXuXuXN 5.5.5.v ; < d % O = > > > : = 0 r 9 uXuXuXuXuXuXuXuXuXuXuXuXuXuXuXuXuXuXuXuXuXuX",
"uXuXuXuXuXuXuXuXuXuXuXuXuXuXuXuXuXuXuXuXuXuXuXuXuXuXuXuXuXuXuXuXuXuXuXuXuXuXp 5.5.5.5.c 4 a , % # - = = * - 0 0 - * uXuXuXuXuXuXuXuXuXuXuXuXuXuXuXuXuXuXuXuXuXuX",
"uXuXuXuXuXuXuXuXuXuXuXuXuXuXuXuXuXuXuXuXuXuXuXuXuXuXuXuXuXuXuXuXuXuXuXuXuXuXl 5.5.5.V c t y ;   # r 9 9 q r 0 ; - 3 uXuXuXuXuXuXuXuXuXuXuXuXuXuXuXuXuXuXuXuXuXuX",
"uXuXuXuXuXuXuXuXuXuXuXuXuXuXuXuXuXuXuXuXuXuXuXuXuXuXuXuXuXuXuXuXuXuXuXuXuXuXy 5.5.V N N y t 3 uXo 7 r r r r 0 3 3 w 7 e uXuXuXuXuXuXuXuXuXuXuXuXuXuXuXuXuXuXuXuX",
"uXuXuXuXuXuXuXuXuXuXuXuXuXuXuXuXuXuXuXuXuXuXuXuXuXuXuXuXuXuXuXuXuXuXuXuXuXuXc 5.Z N N V l t w uXX $ # 2 2 2 @ @ 6 x 5.n i 2 uXuXuXuXuXuXuXuXuXuXuXuXuXuXuXuXuXuX",
"uXuXuXuXuXuXuXuXuXuXuXuXuXuXuXuXuXuXuXuXuXuXuXuXuXuXuXuXuXuXuXuXuXuXuXuXuXuXN 5.N V V B l t y 7 X 2 2 2 2 7 8 6 6 8 p D D V z i 2 uXuXuXuXuXuXuXuXuXuXuXuXuXuXuX",
"uXuXuXuXuXuXuXuXuXuXuXuXuXuXuXuXuXuXuXuXuXuXuXuXuXuXuXuXuXuXuXuXuXuXuXuXuXuXn Z N c N Z B z r # . o @ $ @ + @ @ @ @ 5 u b b z z i # uXuXuXuXuXuXuXuXuXuXuXuXuXuX",
"uXuXuXuXuXuXuXuXuXuXuXuXuXuXuXuXuXuXuXuXuXuXuXuXuXuXuXuXuXuXuXuXuXuXuXuXuXuX7 z 8 e Z d.6.n z w 7 X . X . uXuXX # 2 8 8 8 8 8 u u uXuXuXuXuXuXuXuXuXuXuXuXuXuXuX",
"uXuXuXuXuXuXuXuXuXuXuXuXuXuXuXuXuXuXuXuXuXuXuXuXuXuXuXuXuXuXuXuXuXuXuXuXuXuXX e u 6 u V e.y.u.w.D p 5 uXuXuXuXuXuXuXuXuXuXuXuXuXuXuXuXuXuXuXuXuXuXuXuXuXuXuXuXuX",
"uXuXuXuXuXuXuXuXuXuXuXuXuXuXuXuXuXuXuXuXuXuXuXuXuXuXuXuXuXuXuXuXuXuXuXuXuXuXuX1 7 # o 1 u b A A b i 1 uXuXuXuXuXuXuXuXuXuXuXuXuXuXuXuXuXuXuXuXuXuXuXuXuXuXuXuXuX",
"uXuXuXuXuXuXuXuXuXuXuXuXuXuXuXuXuXuXuXuXuXuXuXuXuXuXuXuXuXuXuXuXuXuXuXuXuXuXuXuXuXuXuXuXuXuXuXuXuXuXuXuXuXuXuXuXuXuXuXuXuXuXuXuXuXuXuXuXuXuXuXuXuXuXuXuXuXuXuXuX"
};
