/* XPM */
static char *result[] = {
/* columns rows colors chars-per-pixel */
"80 80 222 2 ",
"   c #3D0A0E",
".  c #332838",
"X  c #470808",
"o  c #490D0C",
"O  c #4D1413",
"+  c #4C1D1F",
"@  c #501515",
"#  c #521C1A",
"$  c #781212",
"%  c #43291D",
"&  c #54221D",
"*  c #52281F",
"=  c #422E25",
"-  c #562421",
";  c #592624",
":  c #572A23",
">  c #592A26",
",  c #5E2C2B",
"<  c #44332B",
"1  c #583327",
"2  c #5D322B",
"3  c #463934",
"4  c #5F3334",
"5  c #513638",
"6  c #5E393C",
"7  c #612F2F",
"8  c #60322E",
"9  c #63382E",
"0  c #623232",
"q  c #643C34",
"w  c #643B38",
"e  c #623A3C",
"r  c #51403C",
"t  c #694436",
"y  c #6C443A",
"u  c #6E4B3C",
"i  c #433F46",
"p  c #5D3F45",
"a  c #503D4A",
"s  c #623E42",
"d  c #444344",
"f  c #4C4549",
"g  c #4B494B",
"h  c #5A444A",
"j  c #4F4F54",
"k  c #534C52",
"l  c #5D4953",
"z  c #5B4B57",
"x  c #525153",
"c  c #56555B",
"v  c #5B535D",
"b  c #5A5A5E",
"n  c #6E4A45",
"m  c #63444B",
"M  c #724F40",
"N  c #685547",
"B  c #6A544A",
"V  c #6F584E",
"C  c #735241",
"Z  c #74544D",
"A  c #72584C",
"S  c #634B55",
"D  c #624E5A",
"F  c #6B5757",
"G  c #61515C",
"H  c #745B53",
"J  c #7B5A53",
"K  c #7C5E5B",
"L  c #766454",
"P  c #7F605E",
"I  c #5B5564",
"U  c #5B5B64",
"Y  c #5F5F6D",
"T  c #645563",
"R  c #665965",
"E  c #6D5E64",
"W  c #655C6C",
"Q  c #695E6C",
"!  c #745D63",
"~  c #685F70",
"^  c #64636A",
"/  c #69676B",
"(  c #776468",
")  c #626273",
"_  c #6A6273",
"`  c #6D6C76",
"'  c #6E6A7A",
"]  c #736D78",
"[  c #76747A",
"{  c #910405",
"}  c #A70405",
"|  c #AB0303",
" . c #AF1416",
".. c #AC1C1D",
"X. c #B01716",
"o. c #913335",
"O. c #A72424",
"+. c #AC3533",
"@. c #944C49",
"#. c #805A5D",
"$. c #9C5353",
"%. c #A54E50",
"&. c #B04D51",
"*. c #83675B",
"=. c #AB6259",
"-. c #836362",
";. c #876C65",
":. c #896C64",
">. c #936666",
",. c #926E6B",
"<. c #8D726D",
"1. c #94726D",
"2. c #927C69",
"3. c #887677",
"4. c #947271",
"5. c #9B7474",
"6. c #967876",
"7. c #9A7A74",
"8. c #9D7D7C",
"9. c #A46C6B",
"0. c #BB7067",
"q. c #A17776",
"w. c #A37C7B",
"e. c #AA7D7D",
"r. c #BC7678",
"t. c #AD8754",
"y. c #9D8778",
"u. c #A6877D",
"i. c #AA847D",
"p. c #A58C7D",
"a. c #B38273",
"s. c #A8907F",
"d. c #716F80",
"f. c #737282",
"g. c #7C7B84",
"h. c #7E7986",
"j. c #907B85",
"k. c #AA7E83",
"l. c #83848C",
"z. c #8A8689",
"x. c #978789",
"c. c #988F8C",
"v. c #868792",
"b. c #8D8E95",
"n. c #939295",
"m. c #9E9393",
"M. c #94949B",
"N. c #9C969B",
"B. c #9C9A9E",
"V. c #A58382",
"C. c #AB8484",
"Z. c #A68987",
"A. c #AC8C82",
"S. c #AD8C8C",
"D. c #B48383",
"F. c #B78A89",
"G. c #B38D8C",
"H. c #AD9484",
"J. c #AD938B",
"K. c #B29486",
"L. c #B69788",
"P. c #B5958D",
"I. c #B69A8B",
"U. c #BA9C8D",
"Y. c #AD8B92",
"T. c #B28D91",
"R. c #A89596",
"E. c #B49494",
"W. c #BB9393",
"Q. c #BA9695",
"!. c #BA9B93",
"~. c #BD9B9B",
"^. c #B2A08A",
"/. c #BAA08D",
"(. c #ABA09A",
"). c #BDA192",
"_. c #B8A598",
"`. c #9D9DA1",
"'. c #A09DA3",
"]. c #AAA4A6",
"[. c #A4A4AA",
"{. c #ABABAD",
"}. c #B6ABA5",
"|. c #BAB2AF",
" X c #ACACB3",
".X c #B4B3B4",
"XX c #B6B6BC",
"oX c #BCBBBE",
"OX c #C29888",
"+X c #C09F91",
"@X c #C59899",
"#X c #C3A394",
"$X c #C8AA96",
"%X c #C4A69B",
"&X c #C6AB99",
"*X c #CCAC9C",
"=X c #D0AF9F",
"-X c #CCB199",
";X c #D2B29E",
":X c #D8BA9F",
">X c #C5A4A3",
",X c #CBA4A1",
"<X c #CDACA4",
"1X c #D2ABA2",
"2X c #CEB7A5",
"3X c #D5B4A4",
"4X c #D5B8A4",
"5X c #DABBA4",
"6X c #E0BFA3",
"7X c #DFC2A8",
"8X c #DCCCBC",
"9X c #E3C4A7",
"0X c #E5C6AA",
"qX c #EACAAD",
"wX c #EBCEB3",
"eX c #EED1B1",
"rX c #F5D4B3",
"tX c #BEBEC1",
"yX c #CACACB",
"uX c #CACBD0",
"iX c gray86",
"pX c None",
/* pixels */
"pXpXpXpXpXpXpXpXpXpXpXpXpXpXpXpXpXpXpXpXpXpXpXpXpXpXpXpXpXpXpXpXpXpXpXpXpXpXpXpXpXpXpXpXpXpXpXpXpXpXpXpXpXpXpXpXpXpXpXpXpXpXpXpXpXpXpXpXpXpXpXpXpXpXpXpXpXpXpXpX",
"pXpXpXpXpXpXpXpXpXpXpXpXpXpXpXpXpXpXpXpXpXpXpXpXpXpXpXpXpXpXpXpXpXpXpXpXpXpXpXpXpXpXpXpXpXpXpXpXpXpXpXpXpXpXpXpXpXpXpXpXpXpXpXpXpXpXpXpXpXpXpXpXpXpXpXpXpXpXpXpX",
"pXpXpXpXpXpXpXpXpXpXpXpXpXpXpXpXpXpXpXpXpXpXpXpXpXpXpXpXpXpXpXpXpXpXpXpXpXpXpXpXpXpXpXpXpXpXpXpXpXpXpXpXpXpXpXpXpXpXpXpXpXpXpXpXpXpXpXpXpXpXpXpXpXpXpXpXpXpXpXpX",
"pXpXpXpXpXpXpXpXpXpXpXpXpXpXpXpXpXpXpXpXpXpXpXpXpXpXpXpXpXpXpXpXpXpXpXpXpXpXpXpXpXpXpXpXpXpXpXpXpXpXpXpXpXpXpXpXpXpXpXpXpXpXpXpXpXpXpXpXpXpXpXpXpXpXpXpXpXpXpXpX",
"pXpXpXpXpXpXpXpXpXpXpXpXpXpXpXpXpXpXpXpXpXpXpXpXpXpXpXpXpXpXpXpXpXpXpXpXpXpXpXpXpXpXpXpXpXpXpXpXpXpXpXpXpXpXpXpXpXpXpXpXpXpXpXpXpXpXpXpXpXpXpXpXpXpXpXpXpXpXpXpX",
"pXpXpXpXpXpXpXpXpXpXpXpXpXpXpXpXpXpXpXpXpXpXpXpXpXpXpXpXpXpXpXpXpXpXpXpXpXpXpXpXD.W.@X@X@X,XW.D.pXpXpXpXpXpXpXpXpXpXpXpXpXpXpXpXpXpXpXpXpXpXpXpXpXpXpXpXpXpXpXpX",
"pXpXpXpXpXpXpXpXpXpXpXpXpXpXpXpXpXpXpXpXpXpXpXpXpXpXpXpXpXpXpXpXpXpXpXpXpXpXpXq.@X1X,X@XS.W.T.T.C.>.pXpXpXpXpXpXpXpXpXpXpXpXpXpXpXpXpXpXpXpXpXpXpXpXpXpXpXpXpXpX",
"pXpXpXpXpXpXpXpXpXpXpXpXpXpXpXpXpXpXpXpXpXpXpXpXpXpXpXpXpXpXpXpXpXpXpXpXpXpXpX+.r.@X,XE.T.E.E.E.E.4.pXpXpXpXpXpXpXpXpXpXpXpXpXpXpXpXpXpXpXpXpXpXpXpXpXpXpXpXpXpX",
"pXpXpXpXpXpXpXpXpXpXpXpXpXpXpXpXpXpXpXpXpXpXpXpXpXpXpXpXpXpXpXpXpXpXpXpXpXpX$.} } O.&.%.9.C.G.G.G.>.pXpXpXpXpXpXpXpXpXpXpXpXpXpXpXpXpXpXpXpXpXpXpXpXpXpXpXpXpXpX",
"pXpXpXpXpXpXpXpXpXpXpXpXpXpXpXpXpXpXpXpXpXpXpXpXpXpXpXpXpXpXpXpXpXpXpXpXG.@XF.&.+...| | |  .X.X...$ pXpXpXpXpXpXpXpXpXpXpXpXpXpXpXpXpXpXpXpXpXpXpXpXpXpXpXpXpXpX",
"pXpXpXpXpXpXpXpXpXpXpXpXpXpXpXpXpXpXpXpXpXpXpXpXpXpXpXpXpXpXpXpXpXpXpXpXpXpXk.Y.E.F.r.0.+.......O.$.pXpXpXpXpXpXpXpXpXpXpXpXpXpXpXpXpXpXpXpXpXpXpXpXpXpXpXpXpXpX",
"pXpXpXpXpXpXpXpXpXpXpXpXpXpXpXpXpXpXpXpXpXpXpXpXpXpXpXpXpXpXpXpXpXpXpXpXpXpX` f.h.j.x.C.OXOXW.@X@X@XF.D.pXpXpXpXpXpXpXpXpXpXpXpXpXpXpXpXpXpXpXpXpXpXpXpXpXpXpXpX",
"pXpXpXpXpXpXpXpXpXpXpXpXpXpXpXpXpXpXpXpXpXpXpXpXpXpXpXpXpXpXpXpXpXpXpXpXpXpXz.l.n.M.v.2.t.t.[ ( >.9.9.pXpXpXpXpXpXpXpXpXpXpXpXpXpXpXpXpXpXpXpXpXpXpXpXpXpXpXpXpX",
"pXpXpXpXpXpXpXpXpXpXpXpXpXpXpXpXpXpXpXpXpXpXpXpXpXpXpXpXpXpXpXpXpXpXpXpXs.5Xc.g.n..XuXyXtX{.`.[ pXpXpXpXpXpXpXpXpXpXpXpXpXpXpXpXpXpXpXpXpXpXpXpXpXpXpXpXpXpXpXpX",
"pXpXpXpXpXpXpXpXpXpXpXpXpXpXpXpXpXpXpXpXpXpXpXpXpXpXpXpXpXpXpXpXpX/.-X#X;XrX2Xz.l.B..X.X{.b.`.z.pXpXpXpXpXpXpXpXpXpXpXpXpXpXpXpXpXpXpXpXpXpXpXpXpXpXpXpXpXpXpXpX",
"pXpXpXpXpXpXpXpXpXpXpXpXpXpXpXpXpXpXpXpXpXpXpXpXpXpXpXpXpXpX9XqX5XqXrX5X5X;X5X_.[.b.v.`.l.] Z.^.pXpXpXpXpXpXpXpXpXpXpXpXpXpXpXpXpXpXpXpXpXpXpXpXpXpXpXpXpXpXpXpX",
"pXpXpXpXpXpXpXpXpXpXpXpXpXpXpXpXpXpXpXpXpXpXpXpXpXpXpXpXpX5X2XwX8X2X0X0X).V.P.).}.tXB.J @.c.=X-XK.pXpXpXpXpXpXpXpXpXpXpXpXpXpXpXpXpXpXpXpXpXpXpXpXpXpXpXpXpXpXpX",
"pXpXpXpXpXpXpXpXpXpXpXpXpXpXpXpXpXpXpXpXpXpXpXpXpXpXpXpX%X<XoXyXyXoX'.}.4XJ.U.4X&X}.j.{ | C._./.%X%XL.pXpXpXpXpXpXpXpXpXpXpXpXpXpXpXpXpXpXpXpXpXpXpXpXpXpXpXpXpX",
"pXpXpXpXpXpXpXpXpXpXpXpXpXpXpXpXpXpXpXpXpXpXpXpXpXpXpXpXR..XtXXXXX XN.}.*X$X0XrXrX4XJ.o.{ o.R.&X-X$X*XK.pXpXpXpXpXpXpXpXpXpXpXpXpXpXpXpXpXpXpXpXpXpXpXpXpXpXpXpX",
"pXpXpXpXpXpXpXpXpXpXpXpXpXpXpXpXpXpXpXpXpXpXpXpXpXpXpXpXR.yXXX`.M.N.7XqX3XI.I.).9XrXqX#X+.} %._.5X:XI.+XK.pXpXpXpXpXpXpXpXpXpXpXpXpXpXpXpXpXpX{.{.{.[.M.pXpXpXpX",
"pXpXpXpXpXpXpXpXpXpXpXpXpXpXpXpXpXpXpXpXpXpXpXpXpXpXpXZ.yXiX`.[. X{.3X0XrX0X*XE.P.*XqXeX:X0. .9.&X:XK.*X*XK.pXpXpXpXpXpXpXpXpXpXpXpXpXpXpXM.{.[.l.l.B.n.pXpXpXpX",
"pXpXpXpXpXpXpXpXpXpXpXpXpXpXpXpXpXpXpXpXpXpXpXpXpXpX[ '.iXoX[.{.}.}.%X;XrXrXrXqX3X!.I.*XqXeX0.O.i.-XI.).3X*XL.pXpXpXpXpXpXpXpXpXpXpXpXb.[.tX.X`.g.l.[.l.pXpXpXpX",
"pXpXpXpXpXpXpXpXpXpXpXpXpXpXpXpXpXpXpXpXpXpXpXpXpXpXm.[.oX.XM.B.]._.~.#XrXqXrXrXrXeX5X).!.*X9X=.$.).U.K.*X3X3XU.pXpXpXpXpXpXpXpXpXU._.R.yXoXg.b.l.[ l.l.pXpXpXpX",
"pXpXpXpXpXpXpXpXpXpXpXpXpXpXpXpXpXpXpXpXpXpXpXpXpXy._.n.M.{..X X[.R.E.U.qX3X0XrXrXrXrXeX5X!.).+Xa./.).P.U.*X3X3X).p.y.H.U.U.).U.U.).$X*X|.{.l.g.g.l.M.M.pXpXpXpX",
"pXpXpXpXpXpXpXpXpXpXpXpXpXpXpXpXpXpXpXpXpXpXpXpXH.H.!.T.R.m.R.(.}.!.V.:XqX<X<X0XrXrXrXrXrXqX*X!./.U.$XE.P.#X=X3X*X).*X*X3X3X3X3X*XU.*X*Xx.b.B.b.l.` g.pXpXpXpXpX",
"pXpXpXpXpXpXpXpXpXpXpXpXpXpXpXpXpXpXpXpXpXpXpX:X9XI.E.S.S.V.V.#X#Xw.W.<X9X4X>X<X4XqX9X6XrXeX3X>XA.).+XG.E.P.#X3X!.u.1X3X3X3X3X;X*X#XK.E.V.x.`.l.` l.z.pXpXpXpXpX",
"pXpXpXpXpXpXpXpXpXpXpXpXpXpXpXpXpXpXpXpXpXpX-XqX4X>X>X~.E.A.A.J.Z.C.W.>X<X<X<X>X>X<X*X-X5X3X>X@X8.A.A.C.E.E.P.U.C.q.$X*X%X!.Q.!.E.C.6.8.<.pXpXpXpXpXpXpXpXpXpXpX",
"pXpXpXpXpXpXpXpXpXpXpXpXpXpXpXpXpXpXpXpXpXpX*X3X>X>X>X>X>X<X#XZ.,.~.W.@X>X>X>X>X>X>X>X>X>X>X>X>XC.7.7.5.S.E.E.D.e.w.Q.P.E.E.S.C.8.:.pXpXpXpXpXpXpXpXpXpXpXpXpXpX",
"pXpXpXpXpXpXpXpXpXpXpXpXpXpXpXpXpXpXpXpXpXpXA.@X>X>X>X>X>X3XK.;.pXw.W.W.>X>X>X>X>X>X>X>X~.~.E.S.1.5.pXpX4.w.G.C.V.E.E.E.C.7.1.pXpXpXpXpXpXpXpXpXpXpXpXpXpXpXpXpX",
"pXpXpXpXpXpXpXpXpXpXpXpXpXpXpXpXpXpXpXpXpXpXpXS.~.>X>X>X>XP.:.pXpXpXV.C.8.8.8.8.8.C.E.C.6.m.c.x.3.;.pXpXpXpX4.8.V.7.8.4.pXpXpXpXpXpXpXpXpXpXpXpXpXpXpXpXpXpXpXpX",
"pXpXpXpXpXpXpXpXpXpXpXpXpXpXpXpXpXpXpXpXpXpXpXpX6.S.S.C.6.pXpXpXpXpX5.6.S.E.E.E.E.8.S.,.8.N.Z.E.N.V.pXpXpXpXpXpXpXpXpXpXpXpXpXpXpXpXpXpXpXpXpXpXpXpXpXpXpXpXpXpX",
"pXpXpXpXpXpXpXpXpXpXpXpXpXpXpXpXpXpXpXpXpXpXpXpXpXpXpXpXpXpXpXpXpXpXw.8.6.C.S.S.S.8.S.4.x.].R.E.z.8.pXpXpXpXpXpXpXpXpXpXpXpXpXpXpXpXpXpXpXpXpXpXpXpXpXpXpXpXpXpX",
"pXpXpXpXpXpXpXpXpXpXpXpXpXpXpXpXpXpXpXpXpXpXpXpXpXpXpXpXpXpXpXpXpXpXC.E.C.8.8.8.8.S.E.7.8.b.B.N.z.<.pXpXpXpXpXpXpXpXpXpXpXpXpXpXpXpXpXpXpXpXpXpXpXpXpXpXpXpXpXpX",
"pXpXpXpXpXpXpXpXpXpXpXpXpXpXpXpXpXpXpXpXpXpXpXpXpXpXpXpXpXpXpXpXpXV.E.E.E.E.E.E.E.E.P.u.u.!.%X%XZ.w.5.pXpXpXpXpXpXpXpXpXpXpXpXpXpXpXpXpXpXpXpXpXpXpXpXpXpXpXpXpX",
"pXpXpXpXpXpXpXpXpXpXpXpXpXpXpXpXpXpXpXpXpXpXpXpXpXpXpXpXpXpXpXpX5.G.E.E.E.E.E.E.E.E.E.u.p.+X$X#XA.5.D.5.pXpXpXpXpXpXpXpXpXpXpXpXpXpXpXpXpXpXpXpXpXpXpXpXpXpXpXpX",
"pXpXpXpXpXpXpXpXpXpXpXpXpXpXpXpXpXpXpXpXpXpXpXpXpXpXpXpXpXpXpXpXV.E.E.E.E.E.E.E.E.E.E.u.H.G.E.P.w.4.D.e.pXpXpXpXpXpXpXpXpXpXpXpXpXpXpXpXpXpXpXpXpXpXpXpXpXpXpXpX",
"pXpXpXpXpXpXpXpXpXpXpXpXpXpXpXpXpXpXpXpXpXpXpXpXpXpXpXpXpXpXpXpXC.E.E.E.E.E.E.E.E.E.E.u.I.G.E.E.S.5.D.D.4.pXpXpXpXpXpXpXpXpXpXpXpXpXpXpXpXpXpXpXpXpXpXpXpXpXpXpX",
"pXpXpXpXpXpXpXpXpXpXpXpXpXpXpXpXpXpXpXpXpXpXpXpXpXpXpXpXpXpXpXpXS.E.E.E.E.E.E.E.E.E.T.u.I.G.E.E.S.5.D.D.w.pXpXpXpXpXpXpXpXpXpXpXpXpXpXpXpXpXpXpXpXpXpXpXpXpXpXpX",
"pXpXpXpXpXpXpXpXpXpXpXpXpXpXpXpXpXpXpXpXpXpXpXpXpXpXpXpXpXpXpXpXS.E.E.E.E.E.E.E.E.E.P.A.+XG.E.E.S.5.D.D.e.pXpXpXpXpXpXpXpXpXpXpXpXpXpXpXpXpXpXpXpXpXpXpXpXpXpXpX",
"pXpXpXpXpXpXpXpXpXpXpXpXpXpXpXpXpXpXpXpXpXpXpXpXpXpXpXpXpXpXpXpXS.E.E.E.E.E.E.E.E.E.J.H.#XG.E.E.S.5.D.D.D.5.pXpXpXpXpXpXpXpXpXpXpX4.pXpXpXpXpXpXpXpXpXpXpXpXpXpX",
"pXpXpXpXpXpXpXpXpXpXpXpXpXpXpXV pXpXpXpXpXpXpXpXpXpXpXpXpXpXpXpXS.E.E.E.E.E.E.E.E.E.S.U.U.A.E.E.V.,.D.D.D.e.pXpXpXpXpXpXpXpXpXpX5.e.pXpXpXpXpXpXpXpXpXpXpXpXpXpX",
"pXpXpXpXpXpXpXpXpXpXpXpXpXpXpXH pXpXpXpXpXpXpXpXpXpXpXpXpXpXpXpXS.E.E.E.E.E.E.E.E.E.A.%XP.G.E.E.1.A e.D.D.u.p.p.I.I.K.H.pXpX4.w.D.w.pXpXpXpXpXpXpXpXpXpXpXpXpXpX",
"pXpXpXpXpXpXpXpXpXpXpXpXpXpXpXJ V pXpXpXpXpXpXpXpXpXpXpXpXH.#XA.S.E.E.E.E.E.E.E.E.G.A.#XA.E.E.S.Z w 1.D.D.H.#XK.I.#X#XU.K.u.C.D.D.4.pXpXpXpXpXpXpXpXpXpXpXpXpXpX",
"pXpXpXpXpXpXpXpXpXpXpXpXpXpXpXK H pXpXpXpXpXpXpXpXpXpXK.%X3X*XC.E.E.E.E.E.E.E.E.G.w.A.A.G.E.E.1.q 0 Z i.D.U.%X#XH.F.F.u.D.D.D.D.D.,.pXpXpXpXpXpXpXpXpXpXpXpXpXpX",
"pXpXpXpXpXpXpXpXpXpXpXpXpXpXpXK K pXpXpXpXpXpXpXpXH.%X3X3X3X+XC.E.E.!.!.E.E.E.P.w.S.u.i.E.E.G.Z 1 0 w 1.D.L.#X%XI.i.D.D.D.D.D.D.D.*.pXpXpXpXpXpXpXpXpXpXpXpXpXpX",
"pXpXpXpXpXpXpXpXpXpXpXpXpXpXpXH -.H pXpXpXpXpXpXU.*X3X3X*X#XC.S.!.#X*X*X+XI.+Xu.8.V.e.G.E.E.5.w 2 2 0 n 5.p.#X#X#XA.D.D.D.D.D.D.C.*.pXpXpXpXpXpXpXpXpXpXpXpXpXpX",
"pXpXpXpXpXpXpXpXpXpXpXpXpXpXpXV -.K V p.H.#X%X*X3X3X*X#XW.G.C.Q.%X*X3X3X;X$X#XA.w.e.G.E.E.S.Z 0 0 2 2 0 n 5.L.#X%X+XA.D.D.D.D.D.e.pXpXpXpXpXpXpXpXpXpXpXpXpXpXpX",
"pXpXpXpXpXpXpXpXpXpXpXpXpXpXpXpXK -.K 7.*X3X3X3X3X*X!.E.E.C.P.%X*X3X3X3X3X*XU.P.G.G.E.E.S.J > 0 0 0 2 8 0 n >.L.%X%XK.C.D.D.D.D.q.pXpXpXpXpXpXpXpXpXpXpXpXpXpXpX",
"pXpXpXpXpXpXpXpXpXpXpXpXpXpXpXpXH -.-.P A.3X3X3X=XQ.E.E.C.C.#X*X3X3X3X3X3X%XP.E.E.E.E.S.:.K 0 : 0 0 0 0 0 0 w J p.#X+XA.D.D.D.D.4.pXpXpXpXpXpXpXpXpXpXpXpXpXpXpX",
"pXpXpXpXpXpXpXpXpXpXpXpXpXpXpXpXpXH -.-.:.I.3X3X*XE.E.G.P.+X*X3X3X3X3X3X=XU.E.E.E.E.S.:.P -.#.0 : 0 0 0 0 0 0 0 y 1.I.I.i.D.D.C.-.pXpXpXpXpXpXpXpXpXpXpXpXpXpXpX",
"pXpXpXpXpXpXpXpXpXpXpXpXpXpXpXpXpXpXV K -.,.U.3X3X#XG.W.%X*X3X3X3X3X3X3X#XP.!.!.%X!.<.P -.-.-.#.0 : 0 0 0 0 0 0 h S ( ( w.D.D.w.pXpXpXpXpXpXpXpXpXpXpXpXpXpXpXpX",
"pXpXpXpXpXpXpXpXpXpXpXpXpXpXpXpXpXpXpXpXV H ;.H.3X=X*X*X3X3X3X3X3X3X3X3X*X%X3X3X#X<.K P P P P P V * # , 0 0 6 z Q _ _ W ! k.w.-.pXpXpXpXpXpXpXpXpXpXpXpXpXpXpXpX",
"pXpXpXpXpXpXpXpXpXpXpXpXpXpXpXpXpXpXpXpXpXpXN L y.$X3X3X3X3X3X3X3X3X3X3X3X3X3XK.F f N N N N N pXpXpXpXo # 4 l ~ _ _ ~ S p #.*.pXpXpXpXpXpXpXpXpXpXpXpXpXpXpXpXpX",
"pXpXpXpXpXpXpXpXpXpXpXpXpXpXpXpXpXpXpXpXpXpXpXpXpXp.U.*X;X3X3X3X3X3X3X3X*XI.:.t pXpXpXpXpXpXpXpXpXpXpXpX@ - G _ _ _ T 0 > # pXpXpXpXpXpXpXpXpXpXpXpXpXpXpXpXpXpX",
"pXpXpXpXpXpXpXpXpXpXpXpXpXpXpXpXpXpXpXpXpXpXpXpXpXpXpXpXA.J.).*X=X*XU.y.*.A q : pXpXpXpXpXpXpXpXpXpXpX# ; # D _ ~ T p 0 & pXpXpXpXpXpXpXpXpXpXpXpXpXpXpXpXpXpXpX",
"pXpXpXpXpXpXpXpXpXpXpXpXpXpXpXpXpXpXpXpXpXpXpXpXpXpXpXpXT _ ( *.3.3.*.C C u 2 pXpXpXpXpXpXpXpXpXpXpXO 8 - - l l p e 0 7 O pXpXpXpXpXpXpXpXpXpXpXpXpXpXpXpXpXpXpX",
"pXpXpXpXpXpXpXpXpXpXpXpXpXpXpXpXpXpXpXpXpXpXpXpXpXpXW ' _ W ' E _ F C C u 2 pXpXpXpXpXpXpXpXpXpXpXpX; 2 - - 2 4 e 0 0 ; pXpXpXpXpXpXpXpXpXpXpXpXpXpXpXpXpXpXpXpX",
"pXpXpXpXpXpXpXpXpXpXpXpXpXpXpXpXpXpXpXpXpXpXpXpXpXQ F E E F F E F C C u 9 pXpXpXpXpXpXpXpXpXpXpXpXpX> 0 0 s m s l 0 0 # pXpXpXpXpXpXpXpXpXpXpXpXpXpXpXpXpXpXpXpX",
"pXpXpXpXpXpXpXpXpXpXpXpXpXpXpXpXpXpXpXpXpXpXpXpX' _ y t t y C C C y w 2 pXpXpXpXpXpXpXpXpXpXpXpXpXpX: e S Q S h D 0 7 o pXpXpXpXpXpXpXpXpXpXpXpXpXpXpXpXpXpXpXpX",
"pXpXpXpXpXpXpXpXpXpXpXpXpXpXpXpXpXpXpXpXpXpXpX_ d.E C C C C C C C C q pXpXpXpXpXpXpXpXpXpXpXpXpXpXpXO s m s 6 T T 0 7 o pXpXpXpXpXpXpXpXpXpXpXpXpXpXpXpXpXpXpXpX",
"pXpXpXpXpXpXpXpXpXpXpXpXpXpXpXpXpXpXpXpXpXpXpX' ' V C C C C C C C u & pXpXpXpXpXpXpXpXpXpXpXpXpXpXpXO 8 7 e T W l 6 , o pXpXpXpXpXpXpXpXpXpXpXpXpXpXpXpXpXpXpXpX",
"pXpXpXpXpXpXpXpXpXpXpXpXpXpXpXpXpXpXpXpXpXpX_ f._ C C C C C C C C 9 pXpXpXpXpXpXpXpXpXpXpXpXpXpXpXpX- 0 e T _ v h s & pXpXpXpXpXpXpXpXpXpXpXpXpXpXpXpXpXpXpXpXpX",
"pXpXpXpXpXpXpXpXpXpXpXpXpXpXpXpXpXpXpXpXpXpX' f.E C C C C C C C t # pXpXpXpXpXpXpXpXpXpXpXpXpXpXpXI S h T _ G 6 l m # pXpXpXpXpXpXpXpXpXpXpXpXpXpXpXpXpXpXpXpXpX",
"pXpXpXpXpXpXpXpXpXpXpXpXpXpXpXpXpXpXpXpXpXQ f.' A C C C C C C y # pXpXpXpXpXpXpXpXpXpXpXpXpXpXpXk R W W W G 6 e G 6 # pXpXpXpXpXpXpXpXpXpXpXpXpXpXpXpXpXpXpXpXpX",
"pXpXpXpXpXpXpXpXpXpXpXpXpXpXpXpXpXpXpXpXpX_ f._ C C C C C C y # pXpXpXpXpXpXpXpXpXpXpXpXpXpXpXpX1 e m m p 0 4 z S , o pXpXpXpXpXpXpXpXpXpXpXpXpXpXpXpXpXpXpXpXpX",
"pXpXpXpXpXpXpXpXpXpXpXpXpXpXpXpXpXpXpXpX_ f.f.E C C C C C y # pXpXpXpXpXpXpXpXpXpXpXpXpXpXpXpXpX1 8 0 0 0 4 G W s , X pXpXpXpXpXpXpXpXpXpXpXpXpXpXpXpXpXpXpXpXpX",
"pXpXpXpXpXpXpXpXpXpXpXpXpXpXpXpXpXpXpX_ f.f.Q B C C C M q # pXpXpXpXpXpXpXpXpXpXpXpXpXpXpXpXpXpXO , 0 0 4 v _ D 0 , pXpXpXpXpXpXpXpXpXpXpXpXpXpXpXpXpXpXpXpXpXpX",
"pXpXpXpXpXpXpXpXpXpXpXpXpXpXpXpXpXpX_ f.f._ F C C C M 2 pXpXpXpXpXpXpXpXpXpXpXpXpXpXpXpXpXpXpXpXX , 0 4 v _ D 0 0 - pXpXpXpXpXpXpXpXpXpXpXpXpXpXpXpXpXpXpXpXpXpX",
"pXpXpXpXpXpXpXpXpXpXpXpXpXpXpXpXpX_ ' f._ R C C C C 9 pXpXpXpXpXpXpXpXpXpXpXpXpXpXpXpXpXpXpXpXpXX , 0 D _ G 0 0 0 # pXpXpXpXpXpXpXpXpXpXpXpXpXpXpXpXpXpXpXpXpXpX",
"pXpXpXpXpXpXpXpXpXpXpXpXpXpXpXpXpX_ ' _ _ R C C C y & pXpXpXpXpXpXpXpXpXpXpXpXpXpXpXpXpXpXpXpXpX+ p T W D e 0 0 0 # pXpXpXpXpXpXpXpXpXpXpXpXpXpXpXpXpXpXpXpXpXpX",
"pXpXpXpXpXpXpXpXpXpXpXpXpXpXpX^ R v _ _ _ R C C C 2 pXpXpXpXpXpXpXpXpXpXpXpXpXpXpXpXpXpXpXpXpXpXv W W l 0 0 0 0 0 # pXpXpXpXpXpXpXpXpXpXpXpXpXpXpXpXpXpXpXpXpXpX",
"pXpXpXpXpXpXpXpXpXpXpXpXpXpXF g.` g W _ _ R C C u - pXpXpXpXpXpXpXpXpXpXpXpXpXpXpXpXpXpXpXpXpXpXh S 6 0 0 0 0 0 0 - pXpXpXpXpXpXpXpXpXpXpXpXpXpXpXpXpXpXpXpXpXpX",
"pXpXpXpXpXpXpXpXpXpXpXpXpXpX` ] b k v _ _ R C C t pXpXpXpXpXpXpXpXpXpXpXpXpXpXpXpXpXpXpXpXpXpXo 7 0 0 0 0 0 0 0 - #   pXpXpXpXpXpXpXpXpXpXpXpXpXpXpXpXpXpXpXpXpX",
"pXpXpXpXpXpXpXpXpXpXpXpXpXpX^ U b ) I I _ T y C q pXpXpXpXpXpXpXpXpXpXpXpXpXpXpXpXpXpXpXpXpXpXpXr h 5 l G T G z h k f . pXpXpXpXpXpXpXpXpXpXpXpXpXpXpXpXpXpXpXpX",
"pXpXpXpXpXpXpXpXpXpXpXpXpXpXpXc [ g.) I k a q u 2 pXpXpXpXpXpXpXpXpXpXpXpXpXpXpXpXpXpXpXpXpXpX3 c U U U c k g d j U ' ` c I b i pXpXpXpXpXpXpXpXpXpXpXpXpXpXpXpX",
"pXpXpXpXpXpXpXpXpXpXpXpXpXpXg g.b.' ) Y g pXpXpXpXpXpXpXpXpXpXpXpXpXpXpXpXpXpXpXpXpXpXpXpXpXpX% d g g g g g f d d d g / g.g.` ^ v 5 pXpXpXpXpXpXpXpXpXpXpXpXpXpX",
"pXpXpXpXpXpXpXpXpXpXpXpXpXpXg.{.g.) ) Y g pXpXpXpXpXpXpXpXpXpXpXpXpXpXpXpXpXpXpXpXpXpXpXpXpXpXpXd g 3 < = % % 3 d d d g x x x x x < pXpXpXpXpXpXpXpXpXpXpXpXpXpX",
"pXpXpXpXpXpXpXpXpXpXpXpXpXk M..Xb.v.h.f.` c pXpXpXpXpXpXpXpXpXpXpXpXpXpXpXpXpXpXpXpXpXpXpXpXpXpXpXpXpXpXpXpXpXpXpXpXpXpXpXpXpXpXpXpXpXpXpXpXpXpXpXpXpXpXpXpXpXpX",
"pXpXpXpXpXpXpXpXpXpXpXpXpXj U ` [ [ / b b j d pXpXpXpXpXpXpXpXpXpXpXpXpXpXpXpXpXpXpXpXpXpXpXpXpXpXpXpXpXpXpXpXpXpXpXpXpXpXpXpXpXpXpXpXpXpXpXpXpXpXpXpXpXpXpXpXpX",
"pXpXpXpXpXpXpXpXpXpXpXpXpX3 3 c ^ c j d 3 < < pXpXpXpXpXpXpXpXpXpXpXpXpXpXpXpXpXpXpXpXpXpXpXpXpXpXpXpXpXpXpXpXpXpXpXpXpXpXpXpXpXpXpXpXpXpXpXpXpXpXpXpXpXpXpXpXpX"
};
