/* XPM */
static char *result[] = {
/* columns rows colors chars-per-pixel */
"80 80 220 2 ",
"   c #241624",
".  c #261926",
"X  c #2D1F2D",
"o  c #341F25",
"O  c #2F242F",
"+  c #36242B",
"@  c #332635",
"#  c #342B34",
"$  c #362C38",
"%  c #39313A",
"&  c #3E3B3E",
"*  c #4D2E22",
"=  c #502B2B",
"-  c #543123",
";  c #5D332D",
":  c #45363D",
">  c #5C3532",
",  c #583936",
"<  c #563E3C",
"1  c #623131",
"2  c #623C33",
"3  c #623F38",
"4  c #55403F",
"5  c #674535",
"6  c #64413B",
"7  c #6C4A3A",
"8  c #704E3E",
"9  c #71503F",
"0  c #3E3741",
"q  c #433A44",
"w  c #4B3B45",
"e  c #583F43",
"r  c #454445",
"t  c #4A454B",
"y  c #4A4A4C",
"u  c #554344",
"i  c #54454C",
"p  c #52484E",
"a  c #4C4953",
"s  c #524452",
"d  c #544A54",
"f  c #5C4D5C",
"g  c #515054",
"h  c #5A565C",
"j  c #654542",
"k  c #6B4543",
"l  c #704D4F",
"z  c #735241",
"x  c #735C4C",
"c  c #634A54",
"v  c #6C5759",
"b  c #76595A",
"n  c #7D635B",
"m  c #5C5663",
"M  c #5D5A63",
"N  c #5B5A69",
"B  c #635363",
"V  c #635C6A",
"C  c #715F62",
"Z  c #695F70",
"A  c #676566",
"S  c #63626B",
"D  c #756667",
"F  c #646473",
"G  c #6B6474",
"H  c #6B6B73",
"J  c #6E6B7B",
"K  c #726C76",
"L  c #706D7D",
"P  c #747475",
"I  c #74737B",
"U  c #79757A",
"Y  c #79797E",
"T  c #930001",
"R  c #97191B",
"E  c #9B1C1C",
"W  c #AA0808",
"Q  c #96262A",
"!  c #983539",
"~  c #A73A39",
"^  c #B27634",
"/  c #9A4A54",
"(  c #8E555B",
")  c #815E5D",
"_  c #995456",
"`  c #A8595B",
"'  c #8D674F",
"]  c #8E6951",
"[  c #83635E",
"{  c #A6625A",
"}  c #885B63",
"|  c #846363",
" . c #8B6666",
".. c #866966",
"X. c #896A64",
"o. c #8B6B6B",
"O. c #916E6E",
"+. c #9B686A",
"@. c #8E766D",
"#. c #94716E",
"$. c #907F6F",
"%. c #866E73",
"&. c #8E7273",
"*. c #86787B",
"=. c #8C7A7A",
"-. c #947373",
";. c #9B7675",
":. c #947B75",
">. c #9C7D76",
",. c #987678",
"<. c #947B7C",
"1. c #9D7C7B",
"2. c #AC6464",
"3. c #A77566",
"4. c #B3706A",
"5. c #A37776",
"6. c #A47C7C",
"7. c #A97E7D",
"8. c #B57877",
"9. c #B88B43",
"0. c #99837D",
"q. c #A08076",
"w. c #A4847B",
"e. c #AC817E",
"r. c #AB8A7B",
"t. c #737282",
"y. c #7D7C84",
"u. c #7D7D89",
"i. c #897B82",
"p. c #907D80",
"a. c #A57584",
"s. c #828289",
"d. c #898488",
"f. c #988688",
"g. c #928B8C",
"h. c #8E8D93",
"j. c #928E91",
"k. c #949295",
"l. c #999395",
"z. c #94949B",
"x. c #9B9B9E",
"c. c #A48382",
"v. c #AB8383",
"b. c #A88A84",
"n. c #AC8B84",
"m. c #AD8B8B",
"M. c #B48383",
"N. c #B48D84",
"B. c #B38C8C",
"V. c #AC9283",
"C. c #A9948C",
"Z. c #B39485",
"A. c #B4958A",
"S. c #B7968A",
"D. c #B4998C",
"F. c #BC9C8C",
"G. c #B28F91",
"H. c #A19594",
"J. c #AB9B90",
"K. c #B49494",
"L. c #B49B93",
"P. c #BB9B92",
"I. c #B69898",
"U. c #BE9D9D",
"Y. c #B3A196",
"T. c #B6A497",
"R. c #BDA092",
"E. c #9C9CA2",
"W. c #A29EA1",
"Q. c #A3A3A4",
"!. c #ACA5A5",
"~. c #A6A6AA",
"^. c #A8A6A8",
"/. c #ACABAE",
"(. c #BBA8A7",
"). c #AEADB2",
"_. c #B2B2B4",
"`. c #B6B5B9",
"'. c #BBBBBD",
"]. c #C29B97",
"[. c #C3A393",
"{. c #C5AA94",
"}. c #C8AB95",
"|. c #C5A79A",
" X c #CBAB9C",
".X c #D0AF9C",
"XX c #C6B09F",
"oX c #CEB49D",
"OX c #D3B49C",
"+X c #D6BC9F",
"@X c #C5A3A3",
"#X c #C5AAA7",
"$X c #CBABA4",
"%X c #C9B6AA",
"&X c #D4B3A3",
"*X c #D6B5A4",
"=X c #D7B8A4",
"-X c #DCBBA4",
";X c #DCBCA9",
":X c #E0BFA6",
">X c #DCC1A6",
",X c #CDC2BA",
"<X c #E1C1A6",
"1X c #E4C4AA",
"2X c #E7C8AA",
"3X c #EBCBAE",
"4X c #EFCEB0",
"5X c #F0CFB1",
"6X c #F5D4B3",
"7X c #F8D7B5",
"8X c #C2C3C3",
"9X c #C7C7CA",
"0X c #CAC9CC",
"qX c #D0C7C2",
"wX c #D3D3D4",
"eX c #D8D8DA",
"rX c #E7E7E7",
"tX c #F6F6F6",
"yX c #F8F8F8",
"uX c None",
/* pixels */
"uXuXuXuXuXuXuXuXuXuXuXuXuXuXuXuXuXuXuXuXuXuXuXuXuXuXuXuXuXuXuXuXuXuXuXuXuXuXuXuXuXuXuXuXuXuXuXuXuXuXuXuXuXuXuXuXuXuXuXuXuXuXuXuXuXuXuXuXuXuXuXuXuXuXuXuXuXuXuXuX",
"uXuXuXuXuXuXuXuXuXuXuXuXuXuXuXuXuXuXuXuXuXuXuXuXuXuXuXuXuXuXuXuXuXuXuXuXuXuXuXuXuXuXuXuXuXuXuXuXuXuXuXuXuXuXuXuXuXuXuXuXuXuXuXuXuXuXuXuXuXuXuXuXuXuXuXuXuXuXuXuX",
"uXuXuXuXuXuXuXuXuXuXuXuXuXuXuXuXuXuXuXuXuXuXuXuXuXuXuXuXuXuXuXuXuXuXuXuXuXuXuXuXuXuXuXuXuXuXuXuXuXuXuXuXuXuXuXuXuXuXuXuXuXuXuXuXuXuXuXuXuXuXuXuXuXuXuXuXuXuXuXuX",
"uXuXuXuXuXuXuXuXuXuXuXuXuXuXuXuXuXuXuXuXuXuXuXuXuXuXuXuXuXuXuXuXuXuXuXuXuXuXuXuXuXuXuXuXuXuXuXuXuXuXuXuXuXuXuXuXuXuXuXuXuXuXuXuXuXuXuXuXuXuXuXuXuXuXuXuXuXuXuXuX",
"uXuXuXuXuXuXuXuXuXuXuXuXuXuXuXuXuXuXuXuXuXuXuXuXuXuXuXuXuXuXuXuXuXuXuXuXuXuXuXuXuXuXuXuXuXuXuXuXuXuXuXuXuXuXuXuXuXuXuXuXuXuXuXuXuXuXuXuXuXuXuXuXuXuXuXuXuXuXuXuX",
"uXuXuXuXuXuXuXuXuXuXuXuXuXuXuXuXuXuXuXuXuXuXuXuXuXuXuXuXuXuXuXuXuXuXuXuXuXuXuXuXuXuXuXuXuXuXuXuXuXuXuXuXuXuXuXuXuXuXuXuXuXuXuXuXuXuXuXuXuXuXuXuXuXuXuXuXuXuXuXuX",
"uXuXuXuXuXuXuXuXuXuXuXuXuXuXuXuXuXuXuXuXuXuXuXuXuXuXuXuXuXuXuXuXuXuXuXuXuXuXuXuXuXuXuXuXuXuXuXuXuXuXuXuXuXuXuXuXuXuXuXuXuXuXuXuXuXuXuXuXuXuXuXuXuXuXuXuXuXuXuXuX",
"uXuXuXuXuXuXuXuXuXuXuXuXuXuXuXuXuXuXuXuXuXuXuXuXuXuXuXuXuXuXuXuXuXuXuXuXuXuXuXuXuXuXuXuXuXuXuXuXuXuXuXuXuXuXuXG.G.K.K.m.K.uXuXuXuXuXuXuXuXuXuXuXuXuXuXuXuXuXuXuX",
"uXuXuXuXuXuXuXuXuXuXuXuXuXuXuXuXuXuXuXuXuXuXuXuXuXuXuXuXuXuXuXuXuXuXuXuXuXuXuXuXuXuXuXuXuXuXuXuXuXuXuXuXuXa.G.I.K.B.7.m.B.m.uXuXuXuXuXuXuXuXuXuXuXuXuXuXuXuXuXuX",
"uXuXuXuXuXuXuXuXuXuXuXuXuXuXuXuXuXuXuXuXuXuXuXuXuXuXuXuXuXuXuXuXuXuXuXuXuXuXuXuXuXuXuXuXuXuXuXuXuXuXuXuXa.a.5.2.` ! R E E R uXuXuXuXuXuXuXuXuXuXuXuXuXuXuXuXuXuX",
"uXuXuXuXuXuXuXuXuXuXuXuXuXuXuXuXuXuXuXuXuXuXuXuXuXuXuXuXuXuXuXuXuXuXuXuXuXuXuXuXuXuXuXuXuXuXuXuXuXuXuXuX_ Q R R Q ` ` ` ` ` 4.].B.uXuXuXuXuXuXuXuXuXuXuXuXuXuXuX",
"uXuXuXuXuXuXuXuXuXuXuXuXuXuXuXuXuXuXuXuXuXuXuXuXuXuXuXuXuXuXuXuXuXuXuXuXuXuXuXuXuXuXuXuXuXuXuXuXuXuXuXuXR ! / } } } ' ^ ^ D b +.uXuXuXuXuXuXuXuXuXuXuXuXuXuXuXuX",
"uXuXuXuXuXuXuXuXuXuXuXuXuXuXuXuXuXuXuXuXuXuXuXuXuXuXuXuXuXuXuXuXuXuXuXuXuXuXuXuXuXuXuXuXuXuXuXuXuXuXuX+.( b v K I y.$.9.r.z.h.uXuXuXuXuXuXuXuXuXuXuXuXuXuXuXuXuX",
"uXuXuXuXuXuXuXuXuXuXuXuXuXuXuXuXuXuXuXuXuXuXuXuXuXuXuXuXuXuXuXuXuXuXuXuXuXuXuXuXuXuXuXuXuXuXuXuXuXuX7.B.C K H g.h.k.x.k.'.'.E.uXuXuXuXuXuXuXuXuXuXuXuXuXuXuXuXuX",
"uXuXuXuXuXuXuXuXuXuXuXuXuXuXuXuXuXuXuXuXuXuXuXuXuXuXuXuXuXuXuXuXuXuXuXuXuXuXuXuXuXuXuXuXuXuXuXuXuXuX|.L.D H Y g.k.Q.x._.8Xk.uXuXuXuXuXuXuXuXuXuXuXuXuXuXuXuXuXuX",
"uXuXuXuXuXuXuXuXuXuXuXuXuXuXuXuXuXuXuXuXuXuXuXuXuXuXuXuXuXuXuXuXuXuXuXuXuXuXuXuXuXuXuXuXuXuXuXuXuXuX=XoXg.U v Y h.Q.E.0XwXh.uXuXuXuXuXuXuXuXuXuXuXuXuXuXuXuXuXuX",
"uXuXuXuXuXuXuXuXuXuXuXuXuXuXuXuXuXuXuXuXuXuXuXuXuXuXuXuXuXuXuXuXuXuXuXuXuXuXuXuXuXuXuXuXuXuXuX2X<X-X6X3XT./.=.x A U U k.Q.s.uXuXuXuXuXuXuXuXuXuXuXuXuXuXuXuXuXuX",
"uXuXuXuXuXuXuXuXuXuXuXuXuXuXuXuXuXuXuXuXuXuXuXuXuXuXuXuXuXuXuXuXuXuXuXuXuXuXuXuXuXuXuXuX=X2X5X6X3X1X-X>XT.^._.H.n ] ] *.b.uXuXuXuXuXuXuXuXuXuXuXuXuXuXuXuXuXuXuX",
"uXuXuXuXuXuXuXuXuXuXuXuXuXuXuXuXuXuXuXuXuXuXuXuXuXuXuXuXuXuXuXuXuXuXuXuXuXuXuXuXuXuXuX*X1X3X6X6X1X-XR.P.}.H./.8X`.o...!.|.}.uXuXuXuXuXuXuXuXuXuXuXuXuXuXuXuXuXuX",
"uXuXuXuXuXuXuXuXuXuXuXuXuXuXuXuXuXuXuXuXuXuXuXuXuXuXuXuXuXuXuXuXuXuXuXuXuXuXuXuXuXuX<X6X6X5X1X3X6X<X=X3X6X Xl._.E.! R =.D.D.0.uXuXuXuXuXuXuXuXuXuXuXuXuXuXuXuXuX",
"uXuXuXuXuXuXuXuXuXuXuXuXuXuXuXuXuXuXuXuXuXuXuXuXuXuXuXuXuXuXuXuXuXuXuXuXuXuXuXuXuX*X4X6X6X6X6X1X1X:X*X&X1X6XXXk.l.Q T +.{.[.Z.uXuXuXuXuXuXuXuXuXuXuXuXuXuXuXuXuX",
"uXuXuXuXuXuXuXuXuXuXuXuXuXuXuXuXuXuXuXuXuXuXuXuXuXuXuXuXuXuXuXuXuXuXuXuXuXuXuXuXuX=X<X6X6X1X4X6X-X2X;X&X@X&X1XT.8X2.T 4.>X[. Xw.uXuXuXuXuXuXuXuXuXuXuXuXuXuXuXuX",
"uXuXuXuXuXuXuXuXuXuXuXuXuXuXuXuXuXuXuXuXuXuXuXuXuXuXuXuXuXuXuXuXuXuXuXuXuXuXuXuXuX X3X6X1X=X6X6X3X1X6X6X2X&X$X*X%X_ W ~  XP.{.,.uXuXuXuXuXuXuXuXuXuXuXuXuXuXuXuX",
"uXuXuXuXuXuXuXuXuXuXuXuXuXuXuXuXuXuXuXuXuXuXuXuXuXuXuXuXuXuXuXuXuXuXuXuXuXuXuXuXuX|.1X;X$X3X6X6X6X:X4X6X6X6X1XP.XX3.W W 8. X{.-.uXuXuXuXuXuXuXuXuXuXuXuXuXuXuXuX",
"uXuXuXuXuXuXuXuXuXuXuXuXuXuXuXuXuXuXuXuXuXuXuXuXuXuXuXuXuXuXuXuXuXuXuXuXuXuXuXuXuXU.@X].;X6X5X6X3XOX1X6X6X6X6X=XK.P.{ W 4.oX[.-.uXuXuXuXuXuXuXuXuXuXuXuXuXuXuXuX",
"uXuXuXuXuXuXuXuXuXuXuXuXuXuXuXuXuXuXuXuXuXuXuXuXuXuXuXuXuXuXuXuXuXuXuXuXuXuXuXuXm.@X].-X6X3X4X7X1XR.3X6X6X6X6X6X&XK.K._ 3.+XN.;.uXuXuXuXuXuXuXuXuXuXuXuXuXuXuXuX",
"uXuXuXuXuXuXuXuXuXuXuXuXuXuXuXuXuXuXuXuXuXuXuXuXuXuXuXuXuXuXuXuXuXuXuXuXuXuXuXuXm.@X-X6X5X-X5X7X[.L.1X6X6X1X3X6X6X XK.-.A.}.w.;.uXuXuXuXuXuXuXuXuXuXuXuXuXuXuXuX",
"uXuXuXuXuXuXuXuXuXuXuXuXuXuXuXuXuXuXuXuXuXuXuXuXuXuXuXuXuXuXuXuXuXuXuXuXuXuXuXuXB.-X7X6X=X1X6X-Xb.].#X*X-Xb.R.6X6X2XA.o.b.V.e.X.uXuXuXuXuXuXuXuXuXuXuXuXuXuXuXuX",
"uXuXuXuXuXuXuXuXuXuXuXuXuXuXuXuXuXuXuXuXuXuXuXuXuXuXuXuXuXuXuXuXuXuXuXuXuXuXuXuX]..X X]. X1X3Xb.K.@X@X@X@XC.P.$X$X$XK.-.1.:.6.n uXuXuXuXuXuXuXuXuXuXuXuXuXuXuXuX",
"uXuXuXuXuXuXuXuXuXuXuXuXuXuXuXuXuXuXuXuXuXuXuXuXuXuXuXuXuXuXuXuXuXuXuXuXuXuXuX1.B.e.,.,.n.}.F.o.B.U.].@X@X@X@X(.#X(.(.f...D -.>.w.uXuXuXuXuXuXuXuXuXuXuXuXuXuXuX",
"uXuXuXuXuXuXuXuXuXuXuXuXuXuXuXuXuXuXuXuXuXuXuXuXuXuXuXuXuXuXuXuXuXuXuXuXuXuXuX1.m.v.w.K.;X6X1XR.:.1.c.:.K.b.n.!.^.g.j.D C o.n.[.F.A.uXuXuXuXuXuXuXuXuXuXuXuXuXuX",
"uXuXuXuXuXuXuXuXuXuXuXuXuXuXuXuXuXuXuXuXuXuXuXuXuXuXuXuXuXuXuXuXuXuXuXuXuXuXuX1.K.K.K.$X3X6X6X6X-XP.m.@.c.b.OX(.(.P.C.0.&.w.n.V.S.[.V.V.uXuXuXuXuXuXuXuXuXuXuXuX",
"uXuXuXuXuXuXuXuXuXuXuXuXuXuXuXuXuXuXuXuXuXuXuXuXuXuXuXuXuXuXuXuXuXuXuXuXuXuXuX-.I.@X@X@X$X;X6X6X7X<XA.:.>.c.}.!.(.m.*.*.-.;.6.M.N.Z.D.A.S.F.V.uXuXuXuXuXuXuXuXuX",
"uXuXuXuXuXuXuXuXuXuXuXuXuXuXuXuXuXuXuXuXuXuXuXuXuXuXuXuXuXuXuXuXuXuXuXuXuXuXuXuXB.@X@X@X@X@X;X4X2X-XOX}.Z.>.F.0.W.d.s.D &.7.M.M.;.;.w.Z.[.}.[.V.uXuXuXuXuXuXuXuX",
"uXuXuXuXuXuXuXuXuXuXuXuXuXuXuXuXuXuXuXuXuXuXuXuXuXuXuXuXuXuXuXuXuXuXuXuXuXuXuXuXuX6.K.@X@X@X@X|.}.+X1X6X3XOXY.C.J.J.J.:.O.;.e.M.[ ..6.M.N.Z.L.%X^.uXuXuXuXuXuXuX",
"uXuXuXuXuXuXuXuXuXuXuXuXuXuXuXuXuXuXuXuXuXuXuXuXuXuXuXuXuXuXuXuXuXuXuXuXuXuXuXuXuXF.F.m.K.U.@X6.0.D.;X4X>X,X`.h.g.oX=XZ.;.[ [ X.n n e.M.M.c.W.`.wX/.uXuXuXuXuXuX",
"uXuXuXuXuXuXuXuXuXuXuXuXuXuXuXuXuXuXuXuXuXuXuXuXuXuXuXuXuXuXuXuXuXuXuXuXuXuXuXuXuX&X&XP.b.c.b.,.<.I.@X$XqX/._.eX'.H.D.-.;.O.uXuXuXx 5.M.7.g.h.9XwXwX_.uXuXuXuXuX",
"uXuXuXuXuXuXuXuXuXuXuXuXuXuXuXuXuXuXuXuXuXuXuXuXuXuXuXuXuXuXuXuXuXuXuXuXuXuXuXuXuX[.P.K.K.K.m.1.-.U.@XL./.9XtXyXyX0Xd...5.-.uXuXuXuXuX[ X.U Q.wXwXwXwX9X,XuXuXuX",
"uXuXuXuXuXuXuXuXuXuXuXuXuXuXuXuXuXuXuXuXuXuXuXuXuXuXuXuXuXuXuXuXuXuXuXuXuXuXuXuXuXK.K.K.K.K.K.K.b.b.@X:.h.eXyXyXyXyXwXg.7.e.O.uXuXuXuXuXuXA _.wX`.d.g.).wX~./.uX",
"uXuXuXuXuXuXuXuXuXuXuXuXuXuXuXuXuXuXuXuXuXuXuXuXuXuXuXuXuXuXuXuXuXuXuXuXuXuXuXuXuXK.K.K.K.K.K.K.K.b.6.:.d.^.rXrXrXrXwX`.H.7.5.uXuXuXuXuXuXuXh.x.s.uXuXuXz.~.E.uX",
"uXuXuXuXuXuXuXuXuXuXuXuXuXuXuXuXuXuXuXuXuXuXuXuXuXuXuXuXuXuXuXuXuXuXuXuXuXuXuXuXuXK.K.K.K.K.K.K.K.K.m.B.n.=.Q.wX8XwX`.0X).i.6.o.uXuXuXuXuXuXuXU I uXuXuXuXs.u.J ",
"uXuXuXuXuXuXuXuXuXuXuXuXuXuXuXuXuXuXuXuXuXuXuXuXuXuXuXuXuXuXuXuXuXuXuXuXuXuXuXuXuXK.K.K.K.K.K.K.K.K.K.P.A.c.C.^.`.~.x.x.Q.k.p.o.uXuXuXuXuXuXuXH A uXuXuXuXuXJ uX",
"uXuXuXuXuXuXuXuXuXuXuXuXuXuXuXuXuXuXuXuXuXuXuXuXuXuXuXuXuXuXuXuXuXuXuXuXuXuXuXuXuXm.K.K.K.K.K.K.K.K.K.P.Z.c. XT.k.z.h.u.z.k.f.o.uXuXuXuXuXuXuXuXuXuXuXuXuXuXuXuX",
"uXuXuXuXuXuXuXuXuXuXuXuXuXuXuXuXuXuXuXuXuXuXuXuXuXuXuXuXuXuXuXuXuXuXuXuXuXuXuXuXuXm.K.K.K.K.K.K.K.K.K.P.Z.6.P. X<.d.<.i.*.*.-.-...uXuXuXuXuXuXuXuXuXuXuXuXuXuXuX",
"uXuXuXuXuXuXuXuXuXuXuXuXuXuXuXuXuXuXuXuXuXuXuXuXuXuXuXuXuXuXuXuXuXuXuXuXuXuXuXuXuXc.K.K.K.K.K.K.K.K.K.K.F.w.m. XA.c.b.o.-.-.-.-.o.uXuXuXuXuXuXuXuXuXuXuXuXuXuXuX",
"uXuXuXuXuXuXuXuXuXuXuXuXuXuXuXuXuXuXuXuXuXuXuXuXuXuXuXuXuXuXuXuXuXuXuXuXuXuXuXuXuXuXm.K.K.K.K.K.K.K.K.K.P.Z.c.P.|.b.B.O.-.-.-.-.O.uXuXuXuXuXuXuXuXuXuXuXuXuXuXuX",
"uXuXuXuXuXuXuXuXuXuXuXuXuXuXuXuXuXuXuXuXuXuXuXuXuXuXuXuXuXuXuXuXuXuXuXuXuXuXuXuXuXuXv.K.K.K.K.K.K.K.K.K.P.F.q.c.A.n.m.-.-.-.-.-.-...uXuXuXuXuXuXuXuXuXuXuXuXuXuX",
"uXuXuXuXuXuXuXuXuXuXuXuXuXuXuXuXuXuXuXuXuXuXuXuXuXuXuXuXuXuXuXuXuXuXuXuXuXuXuXuXuXuX1.B.K.K.K.K.K.K.K.K.K.[.V.>.q.w.A.-.-.-.-.-.-...uXuXuXuXuXuXuXuXuXuXuXuXuXuX",
"uXuXuXuXuXuXuXuXuXuXuXuXuXuXuXuXuXuXuXuXuXuXuXuXuXuXuXuXuXuXuXuXuXuXuXuXuXuXuXuXuXuXa.m.K.K.K.K.K.K.K.K.K.P.[.F.F.F.P.-.-.-.-.-.-...uXuXuXuXuXuXuXuXuXuXuXuXuXuX",
"uXuXuXuXuXuXuXuXuXuXuXuXuXuXuXuXuXuXuXuXuXuXuXuXuXuXuXuXuXuXuXuXuXuXuXuXuXuXuXuXuXuXm.B.B.K.K.K.K.K.K.K.K.K.[.}.}.}.P.-.-.-.-.-.-...uXuXuXuXuXuXuXuXuXuXuXuXuXuX",
"uXuXuXuXuXuXuXuXuXuXuXuXuXuXuXuXuXuXuXuXuXuXuXuXuXuXuXuXuXuXuXuXuXuXuXuXuXuXuXuXuXuXn.K.B.K.K.K.K.K.K.K.K.K.P.[.}.}.S.O.-.-.-.-.-...uXuXuXuXuXuXuXuXuXuXuXuXuXuX",
"uXuXuXuXuXuXuXuXuXuXuXuXuXuXuXuXuXuXuXuXuXuXuXuXuXuXuXuXuXuXuXuXuXuXuXuXuXuXuXuXuX6.B.B.K.K.K.K.K.K.K.K.K.B.B.S.F.S.>.O.-.-.-.-.-...uXuXuXuXuXuXuXuXuXuXuXuXuXuX",
"uXuXuXuXuXuXuXuXuXuXuXuXuXuXuXuXuXuXuXuXuXuXuXuXuXuXuXuXuXuXuXuXuXuXuXuXuXuXuXuXuXm.K.K.K.K.K.K.K.K.K.B.B.M.M.M.M.e.O.-.-.-.-.-.o.| uXuXuXuXuXuXuXuXuXuXuXuXuXuX",
"uXuXuXuXuXuXuXuXuXuXuXuXuXuXuXuXuXuXuXuXuXuXuXuXuXuXuXuXuXuXuXuXuXuXuXuXuXuXuXuXc.K.K.K.K.K.K.K.K.B.B.B.K.B.M.M.M.6...-.-.-.-.-.....uXuXuXuXuXuXuXuXuXuXuXuXuXuX",
"uXuXuXuXuXuXuXuXuXuXuXuXuXuXuXuXuXuXuXuXuXuXuXuXuXuXuXuXuXuXuXuXuXuXuXuXuXuXuX1.B.K.K.K.K.K.K.K.K.K.K.K.K.B.M.M.M.O.n -.-.-.-.o.o...uXuXuXuXuXuXuXuXuXuXuXuXuXuX",
"uXuXuXuXuXuXuXuXuXuXuXuXuXuXuXuXuXuXuXuXuXuXuXuXuXuXuXuXuXuXuXuXuXuXuXuXuXuXuXb.K.K.K.K.K.K.K.K.K.K.K.K.K.B.M.M.v.v v -.-.-.-.-.-...uXuXuXuXuXuXuXuXuXuXuXuXuXuX",
"uXuXuXuXuXuXuXuXuXuXuXuXuXuXuXuXuXuXuXuXuXuXuXuXuXuXuXuXuXuXuXuXuXuXuXuXuXuX1.B.K.K.K.K.K.K.K.K.K.K.K.K.K.M.M.M.6.v l -.-.-.-.-.O.uXuXuXuXuXuXuXuXuXuXuXuXuXuXuX",
"uXuXuXuXuXuXuXuXuXuXuXuXuXuXuXuXuXuXuXuXuXuXuXuXuXuXuXuXuXuXuXuXuXuXuXuXuXuXm.K.K.K.K.K.K.K.K.K.K.K.K.K.K.7.M.M.-.i k -.-.-.-.-.O.uXuXuXuXuXuXuXuXuXuXuXuXuXuXuX",
"uXuXuXuXuXuXuXuXuXuXuXuXuXuXuXuXuXuXuXuXuXuXuXuXuXuXuXuXuXuXuXuXuXuXuXuXuXuXK.K.K.K.K.K.K.K.K.K.K.K.K.K.m.7.M.v.| > 6 O.-.-.-.-...uXuXuXuXuXuXuXuXuXuXuXuXuXuXuX",
"uXuXuXuXuXuXuXuXuXuXuXuXuXuXuXuXuXuXuXuXuXuXuXuXuXuXuXuXuXuXuXuXuXuXuXuXuXuXK.K.K.K.K.K.K.K.K.K.K.K.K.K.c.M.M.a.) , 4 | -.-.-.-...uXuXuXuXuXuXuXuXuXuXuXuXuXuXuX",
"uXuXuXuXuXuXuXuXuXuXuXuXuXuXuXuXuXuXuXuXuXuXuXuXuXuXuXuXuXuXuXuXuXuXuXuXuXuXK.K.K.K.K.K.K.K.K.K.K.K.K.m.7.M.M.a.| < ; ) -.-.-.o.| uXuXuXuXuXuXuXuXuXuXuXuXuXuXuX",
"uXuXuXuXuXuXuXuXuXuXuXuXuXuXuXuXuXuXuXuXuXuXuXuXuXuXuXuXuXuXuXuXuXuXuXuXuXuXK.K.K.K.K.K.K.K.K.K.K.K.K.v.M.M.M.7.| > ; ) -.-.-...| uXuXuXuXuXuXuXuXuXuXuXuXuXuXuX",
"uXuXuXuXuXuXuXuXuXuXuXuXuXuXuXuXuXuXuXuXuXuXuXuXuXuXuXuXuXuXuXuXuXuXuXuXuXuXK.K.K.K.K.K.K.K.K.K.K.K.v.M.M.B.M.v.| ; 1 ) -.-...| uXuXuXuXuXuXuXuXuXuXuXuXuXuXuXuX",
"uXuXuXuXuXuXuXuXuXuXuXuXuXuXuXuXuXuXuXuXuXuXuXuXuXuXuXuXuXuXuXuXuXuXuXuXuXuXB.K.K.K.K.K.K.K.K.K.K.v.M.M.B.M.M.v.[ ; 1 ) -.o.| | uXuXuXuXuXuXuXuXuXuXuXuXuXuXuXuX",
"uXuXuXuXuXuXuXuXuXuXuXuXuXuXuXuXuXuXuXuXuXuXuXuXuXuXuXuXuXuXuXuXuXuXuXuXuXuXuXn.K.K.K.K.K.K.K.B.v.M.B.K.B.M.M.M. .1 2 [ o.| | uXuXuXuXuXuXuXuXuXuXuXuXuXuXuXuXuX",
"uXuXuXuXuXuXuXuXuXuXuXuXuXuXuXuXuXuXuXuXuXuXuXuXuXuXuXuXuXuXuXuXuXuXuXuXuXuXuX&.m.K.K.K.K.K.B.v.M.B.K.B.M.M.M.M. .1 3 n | | uXuXuXuXuXuXuXuXuXuXuXuXuXuXuXuXuXuX",
"uXuXuXuXuXuXuXuXuXuXuXuXuXuXuXuXuXuXuXuXuXuXuXuXuXuXuXuXuXuXuXuXuXuXuXuXuXuXuXh %.&.,.-.-.-.#.O.#.n v v b | #.#.X.k k v i uXuXuXuXuXuXuXuXuXuXuXuXuXuXuXuXuXuXuX",
"uXuXuXuXuXuXuXuXuXuXuXuXuXuXuXuXuXuXuXuXuXuXuXuXuXuXuXuXuXuXuXuXuXuXuXuXuXuXuXm L t.G k z z 7 7 7 - - > 1 2 6 6 6 2 j s @ uXuXuXuXuXuXuXuXuXuXuXuXuXuXuXuXuXuXuX",
"uXuXuXuXuXuXuXuXuXuXuXuXuXuXuXuXuXuXuXuXuXuXuXuXuXuXuXuXuXuXuXuXuXuXuXuXuXuXuXG t.t.t.v 7 z 5 z 5 uX; 1 1 1 1 1 ; , p w uXuXuXuXuXuXuXuXuXuXuXuXuXuXuXuXuXuXuXuX",
"uXuXuXuXuXuXuXuXuXuXuXuXuXuXuXuXuXuXuXuXuXuXuXuXuXuXuXuXuXuXuXuXuXuXuXuXuXuXuXG t.t.t.G k 5 7 8 ; - ; 1 1 1 ; > u p : o uXuXuXuXuXuXuXuXuXuXuXuXuXuXuXuXuXuXuXuX",
"uXuXuXuXuXuXuXuXuXuXuXuXuXuXuXuXuXuXuXuXuXuXuXuXuXuXuXuXuXuXuXuXuXuXuXuXuXuXuXJ t.t.t.J c 2 9 7 * + ; 1 ; > u p p < = uXuXuXuXuXuXuXuXuXuXuXuXuXuXuXuXuXuXuXuXuX",
"uXuXuXuXuXuXuXuXuXuXuXuXuXuXuXuXuXuXuXuXuXuXuXuXuXuXuXuXuXuXuXuXuXuXuXuXuXuXuXL t.t.t.G f 3 z 2 o & < > 4 p p < > = uXuXuXuXuXuXuXuXuXuXuXuXuXuXuXuXuXuXuXuXuXuX",
"uXuXuXuXuXuXuXuXuXuXuXuXuXuXuXuXuXuXuXuXuXuXuXuXuXuXuXuXuXuXuXuXuXuXuXuXuXuXm t.t.t.J V s c j , . w p p i e > , < w @ uXuXuXuXuXuXuXuXuXuXuXuXuXuXuXuXuXuXuXuXuX",
"uXuXuXuXuXuXuXuXuXuXuXuXuXuXuXuXuXuXuXuXuXuXuXuXuXuXuXuXuXuXuXuXuXuXuXuXuXuXG t.t.G Z V s B d uX  @ t p i i w q q w m a uXuXuXuXuXuXuXuXuXuXuXuXuXuXuXuXuXuXuXuX",
"uXuXuXuXuXuXuXuXuXuXuXuXuXuXuXuXuXuXuXuXuXuXuXuXuXuXuXuXuXuXuXuXuXuXuXuXuXuXV J G G J G s f f uX. # X O # % 0 & y S Y H S M S F uXuXuXuXuXuXuXuXuXuXuXuXuXuXuXuX",
"uXuXuXuXuXuXuXuXuXuXuXuXuXuXuXuXuXuXuXuXuXuXuXuXuXuXuXuXuXuXuXuXuXuXuXuXuXuXq M M V S V f f f p . O O O # $ q t r & t h A H H H S M uXuXuXuXuXuXuXuXuXuXuXuXuXuX",
"uXuXuXuXuXuXuXuXuXuXuXuXuXuXuXuXuXuXuXuXuXuXuXuXuXuXuXuXuXuXuXuXuXuXuXuXuXuXO y r y H K V m g t uX  . . uXuXuXO % % & r y y y g g y uXuXuXuXuXuXuXuXuXuXuXuXuXuX",
"uXuXuXuXuXuXuXuXuXuXuXuXuXuXuXuXuXuXuXuXuXuXuXuXuXuXuXuXuXuXuXuXuXuXuXuXuXuX@ N g r g I s.u.s.y.S 0 uXuXuXuXuXuXuXuXuXuXuXuXuXuXuXuXuXuXuXuXuXuXuXuXuXuXuXuXuXuX",
"uXuXuXuXuXuXuXuXuXuXuXuXuXuXuXuXuXuXuXuXuXuXuXuXuXuXuXuXuXuXuXuXuXuXuXuXuXuX@ h h g y y h A P H S g $ uXuXuXuXuXuXuXuXuXuXuXuXuXuXuXuXuXuXuXuXuXuXuXuXuXuXuXuXuX",
"uXuXuXuXuXuXuXuXuXuXuXuXuXuXuXuXuXuXuXuXuXuXuXuXuXuXuXuXuXuXuXuXuXuXuXuXuXuXuXuXuXuXuXuXuXuXuXuXuXuXuXuXuXuXuXuXuXuXuXuXuXuXuXuXuXuXuXuXuXuXuXuXuXuXuXuXuXuXuXuX"
};
