/* XPM */
static char *result[] = {
/* columns rows colors chars-per-pixel */
"80 80 220 2 ",
"   c #20101F",
".  c #231423",
"X  c #271A27",
"o  c #2A1D2A",
"O  c #2D222D",
"+  c #3D292D",
"@  c #352937",
"#  c #342C34",
"$  c #3A333A",
"%  c #563326",
"&  c #5C322D",
"*  c #412E32",
"=  c #573837",
"-  c #60302E",
";  c #613030",
":  c #3D3641",
">  c #433C44",
",  c #493A43",
"<  c #4B3D4C",
"1  c #563E44",
"2  c gray27",
"3  c #47444A",
"4  c #4A434B",
"5  c #4C4B4C",
"6  c #524345",
"7  c #5B4042",
"8  c #51454A",
"9  c #4D4754",
"0  c #554A56",
"q  c #515155",
"w  c #59545A",
"e  c #614540",
"r  c #654942",
"t  c #6C4841",
"y  c #694C4F",
"u  c #725142",
"i  c #75524F",
"p  c #655557",
"a  c #7A5252",
"s  c #7A5951",
"d  c #7A615A",
"f  c #5D5562",
"g  c #5C5B66",
"h  c #5C5C64",
"j  c #635C65",
"k  c #685A67",
"l  c #645C6B",
"z  c #7A5D61",
"x  c #646469",
"c  c #6A6A6D",
"v  c #7A6666",
"b  c #6A6573",
"n  c #696676",
"m  c #6C6B73",
"M  c #6E6B7A",
"N  c #776B77",
"B  c #737374",
"V  c #74727D",
"C  c #7D767D",
"Z  c #950E0F",
"A  c #9B0D0D",
"S  c #971213",
"D  c #921617",
"F  c #A00404",
"G  c #AB0202",
"H  c #B00707",
"J  c #962728",
"K  c #9B3639",
"L  c #A5393B",
"P  c #AA7C3C",
"I  c #993C41",
"U  c #934A50",
"Y  c #A95051",
"T  c #A85B5A",
"R  c #83635A",
"E  c #90735E",
"W  c #A86154",
"Q  c #8B5E69",
"!  c #866665",
"~  c #896666",
"^  c #846963",
"/  c #8C6B65",
"(  c #856C6D",
")  c #8D6C6C",
"_  c #9C666D",
"`  c #916E6E",
"'  c #8D736C",
"]  c #94716C",
"[  c #99736E",
"{  c #836E75",
"}  c #9D6D75",
"|  c #84747C",
" . c #89767A",
".. c #947373",
"X. c #9C7675",
"o. c #947B74",
"O. c #9C7C76",
"+. c #96777A",
"@. c #9C7C7C",
"#. c #A36B75",
"$. c #A07775",
"%. c #A37C7C",
"&. c #AB7D7D",
"*. c #BA7A78",
"=. c #BE8226",
"-. c #978269",
";. c #9A8479",
":. c #BF906B",
">. c #AC8071",
",. c #A3817C",
"<. c #A48E7E",
"1. c #B48575",
"2. c #C3916D",
"3. c #747383",
"4. c #7B7A84",
"5. c #7C7988",
"6. c #857B85",
"7. c #8A7E84",
"8. c #987E83",
"9. c #A37983",
"0. c #878486",
"q. c #84838B",
"w. c #8A898D",
"e. c #9A8385",
"r. c #968589",
"t. c #9C8B8C",
"y. c #868691",
"u. c #8D8C94",
"i. c #928993",
"p. c #959190",
"a. c gray58",
"s. c #989296",
"d. c #99969D",
"f. c #9C9A9C",
"g. c #A48383",
"h. c #AB8584",
"j. c #A78A87",
"k. c #AA8D83",
"l. c #AD868B",
"z. c #A28B8B",
"x. c #AD8B8C",
"c. c #B38383",
"v. c #B58A84",
"b. c #B38C8C",
"n. c #BA8989",
"m. c #AC9484",
"M. c #AD948A",
"N. c #B29586",
"B. c #B29887",
"V. c #B3928B",
"C. c #B59B8A",
"Z. c #BD9D8D",
"A. c #AA8D90",
"S. c #B98D91",
"D. c #A79A98",
"F. c #B49494",
"G. c #B89995",
"H. c #BB9C96",
"J. c #BD9B9A",
"K. c #B9A08F",
"L. c #BCA291",
"P. c #B5A59A",
"I. c #9E9BA2",
"U. c #A29EA2",
"Y. c #A4A4A4",
"T. c #ACA4A5",
"R. c #A7A5AB",
"E. c #ACAAAE",
"W. c #B2A9A7",
"Q. c #BBB2AF",
"!. c #ABAAB0",
"~. c #B4B2B5",
"^. c #B9B5B7",
"/. c #B9B6BA",
"(. c #BBBABD",
"). c #C19C93",
"_. c #C19E9D",
"`. c #C3A493",
"'. c #C6A995",
"]. c #C3A39B",
"[. c #C4A99A",
"{. c #C9A89A",
"}. c #CCAC9C",
"|. c #CEB29A",
" X c #D3B49D",
".X c #D7B99D",
"XX c #CA9FA0",
"oX c #C5A4A4",
"OX c #CAAAA3",
"+X c #C4ADAC",
"@X c #CCB7A7",
"#X c #D3B4A3",
"$X c #D6B8A5",
"%X c #DBBBA4",
"&X c #D9B9A7",
"*X c #CAB0B0",
"=X c #DCC1A4",
"-X c #D7C8BC",
";X c #E2C2A6",
":X c #E4C4AA",
">X c #E8C7AD",
",X c #E7C8AC",
"<X c #EBCBAE",
"1X c #EECEB0",
"2X c #F0CFB1",
"3X c #EFD0B0",
"4X c #F4D4B3",
"5X c #FAD8B6",
"6X c #BDBBC1",
"7X c #C5C5C5",
"8X c #C9C7CC",
"9X c #CBCBCC",
"0X c #D0CBC8",
"qX c #D5D5D5",
"wX c #D8D7D9",
"eX c #DFE0E0",
"rX c #EEEEEE",
"tX c #F4F4F4",
"yX c #F8F8F8",
"uX c None",
/* pixels */
"uXuXuXuXuXuXuXuXuXuXuXuXuXuXuXuXuXuXuXuXuXuXuXuXuXuXuXuXuXuXuXuXuXuXuXuXuXuXuXuXuXuXuXuXuXuXuXuXuXuXuXuXuXuXuXuXuXuXuXuXuXuXuXuXuXuXuXuXuXuXuXuXuXuXuXuXuXuXuXuX",
"uXuXuXuXuXuXuXuXuXuXuXuXuXuXuXuXuXuXuXuXuXuXuXuXuXuXuXuXuXuXuXuXuXuXuXuXuXuXuXuXuXuXuXuXuXuXuXuXuXuXuXuXuXuXuXuXuXuXuXuXuXuXuXuXuXuXuXuXuXuXuXuXuXuXuXuXuXuXuXuX",
"uXuXuXuXuXuXuXuXuXuXuXuXuXuXuXuXuXuXuXuXuXuXuXuXuXuXuXuXuXuXuXuXuXuXuXuXuXuXuXuXuXuXuXuXuXuXuXuXuXuXuXuXuXuXuXuXuXuXuXuXuXuXuXuXuXuXuXuXuXuXuXuXuXuXuXuXuXuXuXuX",
"uXuXuXuXuXuXuXuXuXuXuXuXuXuXuXuXuXuXuXuXuXuXuXuXuXuXuXuXuXuXuXuXuXuXuXuXuXuXuXuXuXuXuXuXuXuXuXuXuXuXuXuXuXl.b.uXuXuXuXuXuXuXuXuXuXuXuXuXuXuXuXuXuXuXuXuXuXuXuXuX",
"uXuXuXuXuXuXuXuXuXuXuXuXuXuXuXuXuXuXuXuXuXuXuXuXuXuXuXuXuXuXuXuXuXuXuXuXuXuXuXuXuXuXuXuXuXuXuXuXuXuXuXuX%.F.F.F.F.b.uXuXuXuXuXuXuXuXuXuXuXuXuXuXuXuXuXuXuXuXuXuX",
"uXuXuXuXuXuXuXuXuXuXuXuXuXuXuXuXuXuXuXuXuXuXuXuXuXuXuXuXuXuXuXuXuXuXuXuXuXuXuXuXuXuXuXuXuXuXuXuXuXuXuXuXU &.F.F.F.F.l.l.9.uXuXuXuXuXuXuXuXuXuXuXuXuXuXuXuXuXuXuX",
"uXuXuXuXuXuXuXuXuXuXuXuXuXuXuXuXuXuXuXuXuXuXuXuXuXuXuXuXuXuXuXuXuXuXuXuXuXuXuXuXuXuXuXuXuXuXuXuXuXXX#.J S S J T &.g.} 9.9.} uXuXuXuXuXuXuXuXuXuXuXuXuXuXuXuXuXuX",
"uXuXuXuXuXuXuXuXuXuXuXuXuXuXuXuXuXuXuXuXuXuXuXuXuXuXuXuXuXuXuXuXuXuXuXuXuXuXuXuXuXuXuXuXuXuXuXuXuXuXS.S.n.T L S Z J U #.#._ uXuXuXuXuXuXuXuXuXuXuXuXuXuXuXuXuXuX",
"uXuXuXuXuXuXuXuXuXuXuXuXuXuXuXuXuXuXuXuXuXuXuXuXuXuXuXuXuXuXuXuXuXuXuXuXuXuXuXuXuXuXuXuXuXuXuXuXuXuXuXV 6.z.S.n.T K Z Z J uXuXuXuXuXuXuXuXuXuXuXuXuXuXuXuXuXuXuX",
"uXuXuXuXuXuXuXuXuXuXuXuXuXuXuXuXuXuXuXuXuXuXuXuXuXuXuXuXuXuXuXuXuXuXuXuXuXuXuXuXuXuXuXuXuXuXuXuX X}.7.6.3.3.4. .2.:._ Y D uXuXuXuXuXuXuXuXuXuXuXuXuXuXuXuXuXuXuX",
"uXuXuXuXuXuXuXuXuXuXuXuXuXuXuXuXuXuXuXuXuXuXuXuXuXuXuXuXuXuXuXuXuXuXuXuXuXuXuXuXuXuXuXuXuXuXuX#X3X X;.4.u.u.w.C P =.E N Q _ uXuXuXuXuXuXuXuXuXuXuXuXuXuXuXuXuXuX",
"uXuXuXuXuXuXuXuXuXuXuXuXuXuXuXuXuXuXuXuXuXuXuXuXuXuXuXuXuXuXuXuXuXuXuXuXuXuXuXuXuXuXuXuXuXuX{.:X5X.X-.m a.a.a.a.w.f.d.6.uXuXuXuXuXuXuXuXuXuXuXuXuXuXuXuXuXuXuXuX",
"uXuXuXuXuXuXuXuXuXuXuXuXuXuXuXuXuXuXuXuXuXuXuXuXuXuXuXuXuXuXuXuXuXuXuXuXuXuXuXuXuXuXuXuX;X4X:X#X|. XT.4.w.a.Y.d./.8Xf.q.uXuXuXuXuXuXuXuXuXuXuXuXuXuXuXuXuXuXuXuX",
"uXuXuXuXuXuXuXuXuXuXuXuXuXuXuXuXuXuXuXuXuXuXuXuXuXuXuXuXuXuXuXuXuXuXuXuXuXuXuXuXuXuX&X,X4X4X<X}.G.V.$XR.q.q.d.R.!.u.r.uXuXuXuXuXuXuXuXuXuXuXuXuXuXuXuXuXuXuXuXuX",
"uXuXuXuXuXuXuXuXuXuXuXuXuXuXuXuXuXuXuXuXuXuXuXuXuXuXuXuXuXuXuXuXuXuXuXuXuXuXuXuXuX,X<X,X>X4X4X4X X$X<X@XE.u.v ..i.D.`.N.uXuXuXuXuXuXuXuXuXuXuXuXuXuXuXuXuXuXuXuX",
"uXuXuXuXuXuXuXuXuXuXuXuXuXuXuXuXuXuXuXuXuXuXuXuXuXuXuXuXuXuXuXuXuXuXuXuXuXuXuXuX,X4X4X4X4X,X4X,X X,X4X4X@XY.U G Q P.B.<.uXuXuXuXuXuXuXuXuXuXuXuXuXuXuXuXuXuXuXuX",
"uXuXuXuXuXuXuXuXuXuXuXuXuXuXuXuXuXuXuXuXuXuXuXuXuXuXuXuXuXuXuXuXuXuXuXuXuXuXuXuX<X4X4X4X4X4X,X;X}.H.}.<X<XD.@.A K p.[.}.m.uXuXuXuXuXuXuXuXuXuXuXuXuXuXuXuXuXuXuX",
"uXuXuXuXuXuXuXuXuXuXuXuXuXuXuXuXuXuXuXuXuXuXuXuXuXuXuXuXuXuXuXuXuXuXuXuXuXuXuX%X4X,X1X4X;X4X2X:X<X#XH.].%X,XP.K G I H.[.L.L.uXuXuXuXuXuXuXuXuXuXuXuXuXuXuXuXuXuX",
"uXuXuXuXuXuXuXuXuXuXuXuXuXuXuXuXuXuXuXuXuXuXuXuXuXuXuXuXuXuXuXuXuXuXuXuXuXuXuX}.:X:X4X;X#X4X4X>X>X4X<X#XH. X:X>.G H *.L.m.[.<.uXuXuXuXuXuXuXuXuXuXuXuXuXuXuXuXuX",
"uXuXuXuXuXuXuXuXuXuXuXuXuXuXuXuXuXuXuXuXuXuXuXuXuXuXuXuXuXuXuXuXuXuXuXuXuXuXuX`. X<X>X_.&X4X<X:X$X4X4X4X:X`.H.`.W F L G.L.C.<.uXuXuXuXuXuXuXuXuXuXuXuXuXuXuXuXuX",
"uXuXuXuXuXuXuXuXuXuXuXuXuXuXuXuXuXuXuXuXuXuXuXuXuXuXuXuXuXuXuXuXuXuXuXuXuXuXuXx.].OXoXG.;X4X>X=X X4X4X4X4X<X].V.C.T Z 1.:XN.;.uXuXuXuXuXuXuXuXuXuXuXuXuXuXuXuXuX",
"uXuXuXuXuXuXuXuXuXuXuXuXuXuXuXuXuXuXuXuXuXuXuXuXuXuXuXuXuXuXuXuXuXuXuXuXuXuXuX@.J.oX_.{.4X4X:X XV.$X>X4X4X4X,X].F.L.W 1.1X,.! uXuXuXuXuXuXuXuXuXuXuXuXuXuXuXuXuX",
"uXuXuXuXuXuXuXuXuXuXuXuXuXuXuXuXuXuXuXuXuXuXuXuXuXuXuXuXuXuXuXuXuXuXuXuXuXuXuX@.J._.].,X4X>X;X XV.OXoX#X:X1X4X>X_.F.M.K.#X@.~ uXuXuXuXuXuXuXuXuXuXuXuXuXuXuXuXuX",
"uXuXuXuXuXuXuXuXuXuXuXuXuXuXuXuXuXuXuXuXuXuXuXuXuXuXuXuXuXuXuXuXuXuXuXuXuXuXuX@.J.{.,X4X4X X,X).'.=X#XOXoXV.`.&X#XJ.z.o.G.g.` uXuXuXuXuXuXuXuXuXuXuXuXuXuXuXuXuX",
"uXuXuXuXuXuXuXuXuXuXuXuXuXuXuXuXuXuXuXuXuXuXuXuXuXuXuXuXuXuXuXuXuXuXuXuXuXuXuX9.OX1X4X5X%X}.4XV.oX#X#X#X].;.j.oXoXoXx.~ ;.X.X.uXuXuXuXuXuXuXuXuXuXuXuXuXuXuXuXuX",
"uXuXuXuXuXuXuXuXuXuXuXuXuXuXuXuXuXuXuXuXuXuXuXuXuXuXuXuXuXuXuXuXuXuXuXuXuXuXuXg.OX<X4X4X%X:X4Xk.F.oXoXoXoXJ.].oXoXoXoXx.;.[ %.uXuXuXuXuXuXuXuXuXuXuXuXuXuXuXuXuX",
"uXuXuXuXuXuXuXuXuXuXuXuXuXuXuXuXuXuXuXuXuXuXuXuXuXuXuXuXuXuXuXuXuXuXuXuXuXuXuX%.J.].`.`.'.%X;XO...x.F.F._.J.F.W.Q.U.D. .v %.%.^ uXuXuXuXuXuXuXuXuXuXuXuXuXuXuXuX",
"uXuXuXuXuXuXuXuXuXuXuXuXuXuXuXuXuXuXuXuXuXuXuXuXuXuXuXuXuXuXuXuXuXuXuXuXuXuXuXn.F.%.%...` ,. Xk.( e.g.' h.V.k.W.T.z.t.C N ) ) o.uXuXuXuXuXuXuXuXuXuXuXuXuXuXuXuX",
"uXuXuXuXuXuXuXuXuXuXuXuXuXuXuXuXuXuXuXuXuXuXuXuXuXuXuXuXuXuXuXuXuXuXuXuXuXuXuXn.F.v.&.+.F.%X4X4X%XM.x.' ,.j.}.Q.+XF.r.7.| ~ O.N.Z.N.uXuXuXuXuXuXuXuXuXuXuXuXuXuX",
"uXuXuXuXuXuXuXuXuXuXuXuXuXuXuXuXuXuXuXuXuXuXuXuXuXuXuXuXuXuXuXuXuXuXuXuXuXuXuXuXG.oXx.F.oX&X,X4X5X,XZ.o.@.o.'.T.T.e.| 6. .X.h.C.Z.`.Z.m.<.uXuXuXuXuXuXuXuXuXuXuX",
"uXuXuXuXuXuXuXuXuXuXuXuXuXuXuXuXuXuXuXuXuXuXuXuXuXuXuXuXuXuXuXuXuXuXuXuXuXuXuXuXg._.oXoXoXoXOX&X,X;X;X|.'.k.N.t.d.y.w.V ( $.&.v.n.N.N.B.N.B.B.uXuXuXuXuXuXuXuXuX",
"uXuXuXuXuXuXuXuXuXuXuXuXuXuXuXuXuXuXuXuXuXuXuXuXuXuXuXuXuXuXuXuXuXuXuXuXuXuXuXuXuXg._.oXoXoXoXoXJ.}..X<X4X-Xt.| t.[.H.8.[ ] c.c.c.X.@.k.Z.`.`.m.uXuXuXuXuXuXuXuX",
"uXuXuXuXuXuXuXuXuXuXuXuXuXuXuXuXuXuXuXuXuXuXuXuXuXuXuXuXuXuXuXuXuXuXuXuXuXuXuXuXuXuXV.J.oXoXoXJ.x.V.].%X0XE./.9X^.@X&XV.X./ &.c.&./ ] %.v.v.P.~.E.uXuXuXuXuXuXuX",
"uXuXuXuXuXuXuXuXuXuXuXuXuXuXuXuXuXuXuXuXuXuXuXuXuXuXuXuXuXuXuXuXuXuXuXuXuXuXuXuXuXuX`.k.x.F.oXJ.F.x.J.+X!.6XtXyXtX9XD./ / R d ..] ` / &.c.g.d.8XwX~.uXuXuXuXuXuX",
"uXuXuXuXuXuXuXuXuXuXuXuXuXuXuXuXuXuXuXuXuXuXuXuXuXuXuXuXuXuXuXuXuXuXuXuXuXuXuXuXuXuX{.{.k.%.g.g.g.x.J.*XR.wXtXtXtXtXwXp./ $.uXuXw d ^ c.' 6.Y.qXwXwX(.uXuXuXuXuX",
"uXuXuXuXuXuXuXuXuXuXuXuXuXuXuXuXuXuXuXuXuXuXuXuXuXuXuXuXuXuXuXuXuXuXuXuXuXuXuXuXuXc.).H.F.F.F.x.%.X.g.oXI.~.eXtXtXtXrX8X/.9.~ uXuXuXuX] v V Y.qXwX7X8X(.uXuXuXuX",
"uXuXuXuXuXuXuXuXuXuXuXuXuXuXuXuXuXuXuXuXuXuXuXuXuXuXuXuXuXuXuXuXuXuXuXuXuXuXuXuXuXn.F.F.F.F.F.F.F.F.%.o.z. .D.9XrXtXwX9X6XT.{ uXuXuXuXuXp j 0./.wX~.d.7X/.uXuXuX",
"uXuXuXuXuXuXuXuXuXuXuXuXuXuXuXuXuXuXuXuXuXuXuXuXuXuXuXuXuXuXuXuXuXuXuXuXuXuXuXuXuXn.F.F.F.F.F.F.F.F.x.] V.%.g.r.9X9X7XU.~.U.I.uXuXuXuXuXuXuXuX0.E.7Xd.V E.E.uXuX",
"uXuXuXuXuXuXuXuXuXuXuXuXuXuXuXuXuXuXuXuXuXuXuXuXuXuXuXuXuXuXuXuXuXuXuXuXuXuXuXuXuXn.F.F.F.F.F.F.F.F.x.X.H.@.x.g.U.~.T.R.i.i.u.uXuXuXuXuXuXuXuXuXuXu.a.m B d.u.uX",
"uXuXuXuXuXuXuXuXuXuXuXuXuXuXuXuXuXuXuXuXuXuXuXuXuXuXuXuXuXuXuXuXuXuXuXuXuXuXuXuXuXn.F.F.F.F.F.F.F.F.x.O.{.%.h.F.7.f.r.s.8.7.( uXuXuXuXuXuXuXuXuXuXuXc j B C f.q.",
"uXuXuXuXuXuXuXuXuXuXuXuXuXuXuXuXuXuXuXuXuXuXuXuXuXuXuXuXuXuXuXuXuXuXuXuXuXuXuXuXuXn.F.F.F.F.F.F.F.F.x.,.}.x.@.F.8.r.e.r.+.( ) uXuXuXuXuXuXuXuXuXuXuXuXuXB c uXuX",
"uXuXuXuXuXuXuXuXuXuXuXuXuXuXuXuXuXuXuXuXuXuXuXuXuXuXuXuXuXuXuXuXuXuXuXuXuXuXuXuXuXh.F.F.F.F.F.F.F.F.x.O.].A.@.F.F.x.F.A.g.^ ) uXuXuXuXuXuXuXuXuXuXuXuXuXuXuXuXuX",
"uXuXuXuXuXuXuXuXuXuXuXuXuXuXuXuXuXuXuXuXuXuXuXuXuXuXuXuXuXuXuXuXuXuXuXuXuXuXuXuXuXg.F.F.F.F.F.F.F.F.x.X.H.F.@.F.F.F.F.F.j./ ) uXuXuXuXuXuXuXuXuXuXuXuXuXuXuXuXuX",
"uXuXuXuXuXuXuXuXuXuXuXuXuXuXuXuXuXuXuXuXuXuXuXuXuXuXuXuXuXuXuXuXuXuXuXuXuXuXuXuXuXg.F.F.F.F.F.F.F.F.x...V.x.@.F.F.F.F.F.x.) ) uXuXuXuXuXuXuXuXuXuXuXuXuXuXuXuXuX",
"uXuXuXuXuXuXuXuXuXuXuXuXuXuXuXuXuXuXuXuXuXuXuXuXuXuXuXuXuXuXuXuXuXuXuXuXuXuXuXuXuXh.F.F.F.F.F.F.F.F.x.......h.F.F.F.F.F.h.) ) uXuXuXuXuXuXuXuXuXuXuXuXuXuXuXuXuX",
"uXuXuXuXuXuXuXuXuXuXuXuXuXuXuXuXuXuXuXuXuXuXuXuXuXuXuXuXuXuXuXuXuXuXuXuXuXuXuXuX%.v.b.F.F.F.F.F.F.F.F.x.x.x.F.F.F.F.F.F.@.) ) uXuXuXuXuXuXuXuXuXuXuXuXuXuXuXuXuX",
"uXuXuXuXuXuXuXuXuXuXuXuXuXuXuXuXuXuXuXuXuXuXuXuXuXuXuXuXuXuXuXuXuXuXuXuXuXuXuXuXg.F.F.F.F.F.F.F.F.F.F.F.F.F.F.F.F.F.F.F.....) uXuXuXuXuXuXuXuXuXuXuXuXuXuXuXuXuX",
"uXuXuXuXuXuXuXuXuXuXuXuXuXuXuXuXuXuXuXuXuXuXuXuXuXuXuXuXuXuXuXuXuXuXuXuXuXuXuXX.x.F.F.F.F.F.F.F.F.F.F.F.F.F.F.F.F.F.F.F.....) uXuXuXuXuXuXuXuXuXuXuXuXuXuXuXuXuX",
"uXuXuXuXuXuXuXuXuXuXuXuXuXuXuXuXuXuXuXuXuXuXuXuXuXuXuXuXuXuXuXuXuXuXuXuXuXuXuX%.F.F.F.F.F.F.F.F.F.F.F.F.F.F.F.F.F.F.F.x.` ..) uXuXuXuXuXuXuXuXuXuXuXuXuXuXuXuXuX",
"uXuXuXuXuXuXuXuXuXuXuXuXuXuXuXuXuXuXuXuXuXuXuXuXuXuXuXuXuXuXuXuXuXuXuXuXuXuXuXg.F.F.F.F.F.F.F.F.F.F.F.F.F.F.F.F.F.F.F.g.) ..) uXuXuXuXuXuXuXuXuXuXuXuXuXuXuXuXuX",
"uXuXuXuXuXuXuXuXuXuXuXuXuXuXuXuXuXuXuXuXuXuXuXuXuXuXuXuXuXuXuXuXuXuXuXuXuXuXX.x.F.F.F.F.F.F.F.F.F.F.F.F.F.F.F.F.F.F.F.g.) ..) uXuXuXuXuXuXuXuXuXuXuXuXuXuXuXuXuX",
"uXuXuXuXuXuXuXuXuXuXuXuXuXuXuXuXuXuXuXuXuXuXuXuXuXuXuXuXuXuXuXuXuXuXuXuXuXuX@.F.F.F.F.F.F.F.F.F.F.F.F.F.F.F.F.F.F.F.F.%.) ..) uXuXuXuXuXuXuXuXuXuXuXuXuXuXuXuXuX",
"uXuXuXuXuXuXuXuXuXuXuXuXuXuXuXuXuXuXuXuXuXuXuXuXuXuXuXuXuXuXuXuXuXuXuXuXuXuXg.F.F.F.F.F.F.F.F.F.F.F.F.F.F.F.F.F.F.F.F.......) uXuXuXuXuXuXuXuXuXuXuXuXuXuXuXuXuX",
"uXuXuXuXuXuXuXuXuXuXuXuXuXuXuXuXuXuXuXuXuXuXuXuXuXuXuXuXuXuXuXuXuXuXuXuXuXuXn.F.F.F.F.F.F.F.F.F.F.F.F.F.F.F.F.F.F.F.F.......) uXuXuXuXuXuXuXuXuXuXuXuXuXuXuXuXuX",
"uXuXuXuXuXuXuXuXuXuXuXuXuXuXuXuXuXuXuXuXuXuXuXuXuXuXuXuXuXuXuXuXuXuXuXuXuXuXx.F.F.F.F.F.F.F.F.F.F.b.F.F.F.F.F.b.F.F.b.` ....) uXuXuXuXuXuXuXuXuXuXuXuXuXuXuXuXuX",
"uXuXuXuXuXuXuXuXuXuXuXuXuXuXuXuXuXuXuXuXuXuXuXuXuXuXuXuXuXuXuXuXuXuXuXuXuXuXx.F.F.F.F.F.F.F.F.F.b.b.F.F.F.F.F.n.F.F.x.) ....` uXuXuXuXuXuXuXuXuXuXuXuXuXuXuXuXuX",
"uXuXuXuXuXuXuXuXuXuXuXuXuXuXuXuXuXuXuXuXuXuXuXuXuXuXuXuXuXuXuXuXuXuXuXuXuXuXb.F.F.F.F.F.F.F.F.F.b.F.F.F.F.F.b.n.F.F.%.) ......~ uXuXuXuXuXuXuXuXuXuXuXuXuXuXuXuX",
"uXuXuXuXuXuXuXuXuXuXuXuXuXuXuXuXuXuXuXuXuXuXuXuXuXuXuXuXuXuXuXuXuXuXuXuXuXg.F.F.F.F.F.F.F.F.F.b.b.F.F.F.F.F.v.F.F.F.X.` ......~ uXuXuXuXuXuXuXuXuXuXuXuXuXuXuXuX",
"uXuXuXuXuXuXuXuXuXuXuXuXuXuXuXuXuXuXuXuXuXuXuXuXuXuXuXuXuXuXuXuXuXuXuXuXuXx.F.F.F.F.F.F.F.F.F.b.F.F.F.F.F.x.g.F.F.b.` ........~ uXuXuXuXuXuXuXuXuXuXuXuXuXuXuXuX",
"uXuXuXuXuXuXuXuXuXuXuXuXuXuXuXuXuXuXuXuXuXuXuXuXuXuXuXuXuXuXuXuXuXuXuXuXuXx.F.F.F.F.F.F.F.F.b.F.F.F.F.F.F.g.x.F.F.h.` ........) uXuXuXuXuXuXuXuXuXuXuXuXuXuXuXuX",
"uXuXuXuXuXuXuXuXuXuXuXuXuXuXuXuXuXuXuXuXuXuXuXuXuXuXuXuXuXuXuXuXuXuXuXuXuXx.F.F.F.F.F.F.F.F.F.F.F.F.F.F.x.g.F.F.F.%.) ........) uXuXuXuXuXuXuXuXuXuXuXuXuXuXuXuX",
"uXuXuXuXuXuXuXuXuXuXuXuXuXuXuXuXuXuXuXuXuXuXuXuXuXuXuXuXuXuXuXuXuXuXuXuXuXx.F.F.F.F.F.F.F.F.F.F.F.F.F.F.g.x.F.F.F.X.` ........) uXuXuXuXuXuXuXuXuXuXuXuXuXuXuXuX",
"uXuXuXuXuXuXuXuXuXuXuXuXuXuXuXuXuXuXuXuXuXuXuXuXuXuXuXuXuXuXuXuXuXuXuXuXuXx.F.F.F.F.F.F.F.F.F.F.F.F.F.x.g.F.F.F.F.X...........) uXuXuXuXuXuXuXuXuXuXuXuXuXuXuXuX",
"uXuXuXuXuXuXuXuXuXuXuXuXuXuXuXuXuXuXuXuXuXuXuXuXuXuXuXuXuXuXuXuXuXuXuXuXuXh.F.F.F.F.F.F.F.F.F.F.F.F.F.x.x.F.F.F.v.` ..........~ uXuXuXuXuXuXuXuXuXuXuXuXuXuXuXuX",
"uXuXuXuXuXuXuXuXuXuXuXuXuXuXuXuXuXuXuXuXuXuXuXuXuXuXuXuXuXuXuXuXuXuXuXuXuX@.b.F.F.F.F.F.F.F.F.F.F.F.x.x.F.F.F.F.h.) ........) uXuXuXuXuXuXuXuXuXuXuXuXuXuXuXuXuX",
"uXuXuXuXuXuXuXuXuXuXuXuXuXuXuXuXuXuXuXuXuXuXuXuXuXuXuXuXuXuXuXuXuXuXuXuXuXuX%.b.F.F.F.F.F.F.F.F.F.F.F.F.F.F.F.F.&.) ) ) ) ~ uXuXuXuXuXuXuXuXuXuXuXuXuXuXuXuXuXuX",
"uXuXuXuXuXuXuXuXuXuXuXuXuXuXuXuXuXuXuXuXuXuXuXuXuXuXuXuXuXuXuXuXuXuXuXuXuXuXp { @.x.x.F.F.F.F.F.F.F.F.F.F.F.F.n.&.a = uXuXuXuXuXuXuXuXuXuXuXuXuXuXuXuXuXuXuXuXuX",
"uXuXuXuXuXuXuXuXuXuXuXuXuXuXuXuXuXuXuXuXuXuXuXuXuXuXuXuXuXuXuXuXuXuXuXuXuXuXw M N s R / ..@.@.h.b.x.x.F.F.b.v.c.&.u + uXuXuXuXuXuXuXuXuXuXuXuXuXuXuXuXuXuXuXuXuX",
"uXuXuXuXuXuXuXuXuXuXuXuXuXuXuXuXuXuXuXuXuXuXuXuXuXuXuXuXuXuXuXuXuXuXuXuXuXuXj 3.3.k t u u r u s z ) a a a a a a i p $ uXuXuXuXuXuXuXuXuXuXuXuXuXuXuXuXuXuXuXuXuX",
"uXuXuXuXuXuXuXuXuXuXuXuXuXuXuXuXuXuXuXuXuXuXuXuXuXuXuXuXuXuXuXuXuXuXuXuXuXuXb 3.3.3.k t e r u r uXuX; ; ; ; - & 6 8 * uXuXuXuXuXuXuXuXuXuXuXuXuXuXuXuXuXuXuXuXuX",
"uXuXuXuXuXuXuXuXuXuXuXuXuXuXuXuXuXuXuXuXuXuXuXuXuXuXuXuXuXuXuXuXuXuXuXuXuXuXb 3.3.3.3.k 7 u u 1 uXuX= & & & = 8 8 & % uXuXuXuXuXuXuXuXuXuXuXuXuXuXuXuXuXuXuXuXuX",
"uXuXuXuXuXuXuXuXuXuXuXuXuXuXuXuXuXuXuXuXuXuXuXuXuXuXuXuXuXuXuXuXuXuXuXuXuXuXb 3.3.3.3.l 1 t r uXuXuX> 6 = 8 8 1 = = * uXuXuXuXuXuXuXuXuXuXuXuXuXuXuXuXuXuXuXuXuX",
"uXuXuXuXuXuXuXuXuXuXuXuXuXuXuXuXuXuXuXuXuXuXuXuXuXuXuXuXuXuXuXuXuXuXuXuXuXuXM 3.3.3.M j 0 y 7 uXuXo 4 0 0 9 8 , * < 9 uXuXuXuXuXuXuXuXuXuXuXuXuXuXuXuXuXuXuXuXuX",
"uXuXuXuXuXuXuXuXuXuXuXuXuXuXuXuXuXuXuXuXuXuXuXuXuXuXuXuXuXuXuXuXuXuXuXuXuXuXM 3.3.M n l w w < uXO $ $ > > $ # # > f M M h uXuXuXuXuXuXuXuXuXuXuXuXuXuXuXuXuXuXuX",
"uXuXuXuXuXuXuXuXuXuXuXuXuXuXuXuXuXuXuXuXuXuXuXuXuXuXuXuXuXuXuXuXuXuXuXuXuXuXM 3.M n M M b f 0 uXX > $ $ $ 5 5 2 2 3 q c V M n n x uXuXuXuXuXuXuXuXuXuXuXuXuXuXuX",
"uXuXuXuXuXuXuXuXuXuXuXuXuXuXuXuXuXuXuXuXuXuXuXuXuXuXuXuXuXuXuXuXuXuXuXuXuXuXl b w b V b l f < uXuXo X # O # $ # # $ 2 5 x x h f w f uXuXuXuXuXuXuXuXuXuXuXuXuXuX",
"uXuXuXuXuXuXuXuXuXuXuXuXuXuXuXuXuXuXuXuXuXuXuXuXuXuXuXuXuXuXuXuXuXuXuXuXuXuX@ 3 3 x 5.y.M n g h 5 o   X . uXuXuX$ 2 5 5 5 5 5 q q uXuXuXuXuXuXuXuXuXuXuXuXuXuXuX",
"uXuXuXuXuXuXuXuXuXuXuXuXuXuXuXuXuXuXuXuXuXuXuXuXuXuXuXuXuXuXuXuXuXuXuXuXuXuX@ w 5 3 l V q.u.y.5.V 9 : uXuXuXuXuXuXuXuXuXuXuXuXuXuXuXuXuXuXuXuXuXuXuXuXuXuXuXuXuX",
"uXuXuXuXuXuXuXuXuXuXuXuXuXuXuXuXuXuXuXuXuXuXuXuXuXuXuXuXuXuXuXuXuXuXuXuXuXuX: : $ # # $ 4 B B c c 0 3 uXuXuXuXuXuXuXuXuXuXuXuXuXuXuXuXuXuXuXuXuXuXuXuXuXuXuXuXuX",
"uXuXuXuXuXuXuXuXuXuXuXuXuXuXuXuXuXuXuXuXuXuXuXuXuXuXuXuXuXuXuXuXuXuXuXuXuXuXuXuXuXuXuXuXuXuXuXuXuXuXuXuXuXuXuXuXuXuXuXuXuXuXuXuXuXuXuXuXuXuXuXuXuXuXuXuXuXuXuXuX"
};
