/* XPM */
static char *result[] = {
/* columns rows colors chars-per-pixel */
"80 80 220 2 ",
"   c #342C34",
".  c #38303A",
"X  c #480D0C",
"o  c #49110D",
"O  c #4C1B14",
"+  c #4D1917",
"@  c #521C1A",
"#  c #7E0303",
"$  c #49271B",
"%  c #54241E",
"&  c #4B2928",
"*  c #562722",
"=  c #572726",
"-  c #542B22",
";  c #5D2D2A",
":  c #43342C",
">  c #563124",
",  c #593027",
"<  c #53352C",
"1  c #5D322C",
"2  c #5E3C2D",
"3  c #542D30",
"4  c #453833",
"5  c #5D3532",
"6  c #5A3A36",
"7  c #5D3B3A",
"8  c #612F2E",
"9  c #61302E",
"0  c #603E2E",
"q  c #623232",
"w  c #643939",
"e  c #793B3C",
"r  c #5C4138",
"t  c #664336",
"y  c #6C463B",
"u  c #6E4A3D",
"i  c #7D4C30",
"p  c #714D3F",
"a  c #72503F",
"s  c #513C46",
"d  c #623E44",
"f  c #434343",
"g  c #4C4845",
"h  c #4A434F",
"j  c #4A4A4B",
"k  c #5D4343",
"l  c #5D434B",
"z  c #574A49",
"x  c #4D4E52",
"c  c #584A52",
"v  c #515153",
"b  c #56565E",
"n  c #5B555C",
"m  c #664547",
"M  c #6D4B43",
"N  c #62434B",
"B  c #6B4C4C",
"V  c #734C48",
"C  c #6A564C",
"Z  c #6D544C",
"A  c #735241",
"S  c #75574D",
"D  c #634B55",
"F  c #684B50",
"G  c #784C54",
"H  c #655356",
"J  c #6B5453",
"K  c #63525E",
"L  c #6A555C",
"P  c #6C5A5C",
"I  c #765752",
"U  c #745C54",
"Y  c #735B5C",
"T  c #7B5D5B",
"R  c #74625A",
"E  c #7E605D",
"W  c #5E5562",
"Q  c #5D5D68",
"!  c #645562",
"~  c #695662",
"^  c #645866",
"/  c #6B5B64",
"(  c #665C6B",
")  c #695E6E",
"_  c #715B60",
"`  c #685F70",
"'  c #5F606E",
"]  c #63626C",
"[  c #6B6468",
"{  c #796362",
"}  c #6A6373",
"|  c #6B6C74",
" . c #6D6A7A",
".. c #706D7D",
"X. c #77777A",
"o. c #73737C",
"O. c #830301",
"+. c #8D0000",
"@. c #881817",
"#. c #991513",
"$. c #8C211D",
"%. c #872F2E",
"&. c #8E5A38",
"*. c #A2693D",
"=. c #825A53",
"-. c #815D5E",
";. c #8E6149",
":. c #836759",
">. c #81615F",
",. c #A66F4E",
"<. c #8D5C61",
"1. c #836262",
"2. c #876866",
"3. c #8B6B64",
"4. c #8D6C6B",
"5. c #97696B",
"6. c #936F6E",
"7. c #8A726C",
"8. c #9D6B75",
"9. c #88787D",
"0. c #937472",
"q. c #9A7575",
"w. c #977A75",
"e. c #98797A",
"r. c #9D7C7B",
"t. c #A77674",
"y. c #A4787D",
"u. c #A27D7D",
"i. c #9C8575",
"p. c #9D837C",
"a. c #A6877A",
"s. c #B3887A",
"d. c #AA927F",
"f. c #C38A77",
"g. c #737383",
"h. c #7C7C83",
"j. c #7B7C88",
"k. c #867C85",
"l. c #A47383",
"z. c #A47B84",
"x. c #7F808A",
"c. c #84848C",
"v. c #888788",
"b. c #928889",
"n. c #8D8C92",
"m. c #978C91",
"M. c #939295",
"N. c #95959B",
"B. c #9A979A",
"V. c #A58383",
"C. c #AA8585",
"Z. c #A68A85",
"A. c #AB8B84",
"S. c #AD8B8B",
"D. c #B58785",
"F. c #B18D86",
"G. c #B28E8D",
"H. c #AB9186",
"J. c #AD928B",
"K. c #B6978A",
"L. c #B4938C",
"P. c #B69B8C",
"I. c #BB9B8E",
"U. c #AB8E93",
"Y. c #A59795",
"T. c #B49493",
"R. c #B89692",
"E. c #BC9C93",
"W. c #BC9B9A",
"Q. c #BAA28D",
"!. c #BEA291",
"~. c #BAA497",
"^. c #9A9BA3",
"/. c #A3A3A5",
"(. c #A8A7A9",
"). c #B5A8A6",
"_. c #AEAEB2",
"`. c #AFB0B6",
"'. c #B3B3B4",
"]. c #B8B7B8",
"[. c #BCBCBD",
"{. c #C19D92",
"}. c #C09C9C",
"|. c #C2A18F",
" X c #C3A395",
".X c #C6AB94",
"XX c #C9AB96",
"oX c #C4A49A",
"OX c #C7A79A",
"+X c #C8A698",
"@X c #CCAC9C",
"#X c #D0AF9F",
"$X c #CEB39A",
"%X c #D3B49D",
"&X c #D8B99F",
"*X c #C5A4A4",
"=X c #CAABA4",
"-X c #C5AAA8",
";X c #CAB1A3",
":X c #D4B4A4",
">X c #D6B9A3",
",X c #DBBCA5",
"<X c #DEBEA9",
"1X c #C5B2B3",
"2X c #E0BFA7",
"3X c #DDC3A4",
"4X c #DFC1A9",
"5X c #E4C4A9",
"6X c #E4C4AA",
"7X c #E6C9AB",
"8X c #EBCBAD",
"9X c #EECDB0",
"0X c #EFD0B0",
"qX c #F5D4B3",
"wX c #C4C4C5",
"eX c #C9C9CA",
"rX c #CECED0",
"tX c gray83",
"yX c gray86",
"uX c None",
/* pixels */
"uXuXuXuXuXuXuXuXuXuXuXuXuXuXuXuXuXuXuXuXuXuXuXuXuXuXuXuXuXuXuXuXuXuXuXuXuXuXuXuXuXuXuXuXuXuXuXuXuXuXuXuXuXuXuXuXuXuXuXuXuXuXuXuXuXuXuXuXuXuXuXuXuXuXuXuXuXuXuXuX",
"uXuXuXuXuXuXuXuXuXuXuXuXuXuXuXuXuXuXuXuXuXuXuXuXuXuXuXuXuXuXuXuXuXuXuXuXuXuXuXuXuXuXuXuXuXuXuXuXuXuXuXuXuXuXuXuXuXuXuXuXuXuXuXuXuXuXuXuXuXuXuXuXuXuXuXuXuXuXuXuX",
"uXuXuXuXuXuXuXuXuXuXuXuXuXuXuXuXuXuXuXuXuXuXuXuXuXuXuXuXuXuXuXuXuXuXuXuXuXuXuXuXuXuXuXuXuXuXuXuXuXuXuXuXuXuXuXuXuXuXuXuXuXuXuXuXuXuXuXuXuXuXuXuXuXuXuXuXuXuXuXuX",
"uXuXuXuXuXuXuXuXuXuXuXuXuXuXuXuXuXuXuXuXuXuXuXuXuXuXuXuXuXuXuXuXuXuXuXuXuXuXuXuXuXuXuXuXuXuXuXuXuXuXuXuXuXuXuXuXuXuXuXuXuXuXuXuXuXuXuXuXuXuXuXuXuXuXuXuXuXuXuXuX",
"uXuXuXuXuXuXuXuXuXuXuXuXuXuXuXuXuXuXuXuXuXuXuXuXuXuXuXuXuXuXuXuXuXuXuXuXuXuXuXuXuXuXuXuXuXuXuXuXuXuXuXuXuXuXuXuXuXuXuXuXuXuXuXuXuXuXuXuXuXuXuXuXuXuXuXuXuXuXuXuX",
"uXuXuXuXuXuXuXuXuXuXuXuXuXuXuXuXuXuXuXuXuXuXuXuXuXuXuXuXuXuXuXuXuXuXuXuXuXuXuXuXuXuXuXuXuXuXuXuXuXuXuXuXuXuXuXuXuXuXuXuXuXuXuXuXuXuXuXuXuXuXuXuXuXuXuXuXuXuXuXuX",
"uXuXuXuXuXuXuXuXuXuXuXuXuXuXuXuXuXuXuXuXuXuXuXuXuXuXuXuXuXuXuXuXuXuXuXuXuXuXuXuXuXuXuXuXuXuXuXuXuXuXuXuXuXuXuXuXuXuXuXuXuXuXuXuXuXuXuXuXuXuXuXuXuXuXuXuXuXuXuXuX",
"uXuXuXuXuXuXuXuXuXuXuXuXuXuXuXuXuXuXuXuXuXuXuXuXuXuXuX8.5.8.5.uXuXuXuXuXuXuXuXuXuXuXuXuXuXuXuXuXuXuXuXuXuXuXuXuXuXuXuXuXuXuXuXuXuXuXuXuXuXuXuXuXuXuXuXuXuXuXuXuX",
"uXuX(.].(.eX[.uXuXuXuXuXuXuXuXuXuXuXuXuXuXuXuXuXuXuX8.l.l.l.z.U.uXuXuXuXuXuXuXuXuXuXuXuXuXuXuXuXuXuXuXuXuXuXuXuXuXuXuXuXuXuXuXuXuXuXuXuXuXuXuXuXuXuXuXuXuXuXuXuX",
"^.yXyXtX'.[.yXuXuXuXuXuXuXuXuXuXuXuXuXuXuXuXuXuXuX8.l.l.8.e.Y.N.c.uXuXuXuXuXuXuXuXuXuXuXuXuXuXuXuXuXuXuXuXuXuXuXuXuXuXuXuXuXuXuXuXuXuXuXuXuXuXuXuXuXuXuXuXuXuXuX",
"^.yXwXeXwXN._.m.L.uXuXuXuXuXuXuXuXuXuXuXuXuXuXuX8.l.y.,.7.^.'./.^.M.h.uXuXuXuXuXuXuXuXuXuXuXuXuXuXuXuXuXuXuXuXuXuXuXuXuXuXuXuXuXuXuXuXuXuXuXuXuXuXuXuXuXuXuXuXuX",
"o.eXtX[.[./.M.k.D.D.uXuXuXuXuXuXuXuXuXuXuXuXuX<.l.l.4.a.N._.(.(.(.(.n.o.uXuXuXuXuXuXuXuXuXuXuXuXuXuXuXuXuXuXuXuXuXuXuXuXuXuXuXuXuXuXuXuXuXuXuXuXuXuXuXuXuXuXuXuX",
"uX_.tXtXeX[.(.k.z.D.+XuXuXuXuXuXuXuXuXuXuXuXuX5.l.4.} c.n.M./.(.M.|  . .uXuXuXuXuXuXuXuXuXuXuXuXuXuXuXuXuXuXuXuXuXuXuXuXuXuXuXuXuXuXuXuXuXuXuXuXuXuXuXuXuXuXuXuX",
"uXc.tXyXwX'._.x.b.A..XuXuXuXuXuXuXuXuXuXuXuXuX5.8.-.k.g.g.g.j.n.o.} R C uXuXuXuXuXuXuXuXuXuXuXuXuXuXuXuXuXuXuXuXuXuXuXX.B.v.uXuXuXuXuXuXuXuXuXuXuXuXuXuXuXuXuXuX",
"uXuX^.rXeX`.N.n.Y.$X.XuXuXuXuXuXuXuXuXuXuXuXuX5.8.a.E.J.Y.k. .] P &.*.,.;.L. XK.7.uXuXuXuXuXuXuXuXuXuXuXuXuXuXuXuXM.wX]./.(.j.uXuXuXuXuXuXuXuXuXuXuXuXuXuXuXuXuX",
"uXuXuXb.-X1X).P.XX%X,X5X%X XuXuXuXuXuXuXuXuXP.>X2X5X%XL.T.W.9.P i &.,.*.&.F.E.!.!.uXuXuXuXuXuXuXuXuXuXuXuXuXuXuXuX].tX/.'.n.M.| uXuXuXuXuXuXuXuXuXuXuXuXuXuXuXuX",
"uXuXuXuXE p.R.{.@X&X&XqXqX7XXXuX@X$X%X%X,X,X5X7XqX8X9X8XOXT.L.:.v._.].e O.@.a..X.XXXuXuXuXuXuXuXuXuXuXuXuXuXi.!.OX).'.c.v.n.B.v.uXuXuXuXuXuXuXuXuXuXuXuXuXuXuXuX",
"uXuXuXuXuX2.S.R. X%X,X8XqXqX&X+X8X8X5X8XqX6X6X8X8XqX7XqX0X:XoX!.;X].].G O.O.3.Q.>X.XH.!.uXuXuXuXuXuXuXuXw.P. XP. X@XY._.].v.M.B.| uXuXuXuXuXuXuXuXuXuXuXuXuXuXuX",
"uXuXuXuXuXuXS.*X*X:X>X:X,X<X XE.8XqX7X:X>X6X>X:X5XqX7X,X,X%X5XqXqX,X).n.=.# %.Y.$X3XQ.3X$X.XK.p.L.R.!.OX#X:X@X!.!.!.oX[.[./.M.n.[ uXuXuXuXuXuXuXuXuXuXuXuXuXuXuX",
"uXuXuXuXuXuXuXS.*X*X=X=X=XW.S.~.8XqXqX7X;X=X>X>X=X@X:X@XoXR.{.:X7XqX4X~.).%.+.%.p.%XP.$X3X3X3X$X.XOX:X:X:X:X:X!.A.Z.Z.B.n.h.uXuXuXuXuXuXuXuXuXuXuXuXuXuXuXuXuXuX",
"uXuXuXuXuXuXuXuXV.S.W.*XT.S.T.:X7X8X7X5X:X=X*X=X*XW.E.5X9X<X@XE.I.+X,X7X,Xs.@.+.%.|.Q..X%X3X3X3X3XXX{.#X@XOX XH.r.0.0.[ uXuXuXuXuXuXuXuXuXuXuXuXuXuXuXuXuXuXuXuX",
"uXuXuXuXuXuXuXuXuXuXr.u.u.S.T.E.oX=X*X*X*X*X*X*X*XW.E.6XqXqXqX6X@XE.L.E.%X6Xf.#.+.,.!..XR.@X>X3X3XXXD.+XE.T.T.r.1.uXuXuXuXuXuXuXuXuXuXuXuXuXuXuXuXuXuXuXuXuXuXuX",
"uXuXuXuXuXuXuXuXuXuXuXuXuXuXuXuXe.e.z.C.G.T.R.W.W.!.,X8X8XqXqXqXqX8X>X XR.!.,Xf.#.$.I.:XL.T.E.@X:XS.u.I.T.Z.0.uXuXuXuXuXuXuXuXuXuXuXuXuXuXuXuXuXuXuXuXuXuXuXuXuX",
"uXuXuXuXuXuXuXuXuXuXuXuXuXuXuXuXuXuXuXuXuXuXuX6.F.%XqXqX8X7XqXqXqXqXqX8X6X@XR. Xf.@.t.%XV.S.S.S.T.V.u.V.0.uXuXuXuXuXuXuXuXuXuXuXuXuXuXuXuXuXuXuXuXuXuXuXuXuXuXuX",
"uXuXuXuXuXuXuXuXuXuXuXuXuXuXuXuXuXuXuXuXuXuXuXuXC. X8XqX8X>X7XqXqXqXqXqXqXqX6XOX!.s.s.oXr.2.4.4.0.6.7.uXuXuXuXuXuXuXuXuXuXuXuXuXuXuXuXuXuXuXuXuXuXuXuXuXuXuXuXuX",
"uXuXuXuXuXuXuXuXuXuXuXuXuXuXuXuXuXuXuXuXuXuXuXuXr.T.:XqXqX:X=X6XqXqXqX6X&XqXqXqX,X!. XT.q.uXuXuXuXuXuXuXuXuXuXuXuXuXuXuXuXuXuXuXuXuXuXuXuXuXuXuXuXuXuXuXuXuXuXuX",
"uXuXuXuXuXuXuXuXuXuXuXuXuXuXuXuXuXuXuXuXuXuXuXuX6.G.oXqXqX8X:X=X:X5X7X,X%X8XqXqX8XJ.H.S.4.uXuXuXuXuXuXuXuXuXuXuXuXuXuXuXuXuXuXuXuXuXuXuXuXuXuXuXuXuXuXuXuXuXuXuX",
"uXuXuXuXuXuXuXuXuXuXuXuXuXuXuXuXuXuXuXuXuXuXuXuXuXV.L.>XqXqX8X:X*X*X=X:X:X>X>X>X;XW.e.V.uXuXuXuXuXuXuXuXuXuXuXuXuXuXuXuXuXuXuXuXuXuXuXuXuXuXuXuXuXuXuXuXuXuXuXuX",
"uXuXuXuXuXuXuXuXuXuXuXuXuXuXuXuXuXuXuXuXuXuXuXuXuXq.C.G.:X:X:X=X*X*X*X*X*X=XoX}.}.W.u.4.uXuXuXuXuXuXuXuXuXuXuXuXuXuXuXuXuXuXuXuXuXuXuXuXuXuXuXuXuXuXuXuXuXuXuXuX",
"uXuXuXuXuXuXuXuXuXuXuXuXuXuXuXuXuXuXuXuXuXuXuXuXuXuXr.S.R.*X*X*X*X*X*X}.T.T.Y.).-X).b.U uXuXuXuXuXuXuXuXuXuXuXuXuXuXuXuXuXuXuXuXuXuXuXuXuXuXuXuXuXuXuXuXuXuXuXuX",
"uXuXuXuXuXuXuXuXuXuXuXuXuXuXuXuXuXuXuXuXuXuXuXuXuXuXuXu.S.C.V.V.V.V.T.C.u.0.Y.m.T.e.M.{ uXuXuXuXuXuXuXuXuXuXuXuXuXuXuXuXuXuXuXuXuXuXuXuXuXuXuXuXuXuXuXuXuXuXuXuX",
"uXuXuXuXuXuXuXuXuXuXuXuXuXuXuXuXuXuXuXuXuXuXuXuXuXuXuXuXw.q.G.T.T.C.V.r.S.r.L.G.S.9.n.R uXuXuXuXuXuXuXuXuXuXuXuXuXuXuXuXuXuXuXuXuXuXuXuXuXuXuXuXuXuXuXuXuXuXuXuX",
"uXuXuXuXuXuXuXuXuXuXuXuXuXuXuXuXuXuXuXuXuXuXuXuXuXuXuXuX0.V.G.C.V.r.C.C.r.q.a.E.Z.m.m.3.uXuXuXuXuXuXuXuXuXuXuXuXuXuXuXuXuXuXuXuXuXuXuXuXuXuXuXuXuXuXuXuXuXuXuXuX",
"uXuXuXuXuXuXuXuXuXuXuXuXuXuXuXuXuXuXuXuXuXuXuXuXuXuXuXuXr.e.u.C.Z.A.I. XE.I.a.A. XOXZ.A.u.uXuXuXuXuXuXuXuXuXuXuXuXuXuXuXuXuXuXuXuXuXuXuXuXuXuXuXuXuXuXuXuXuXuXuX",
"uXuXuXuXuXuXuXuXuXuXuXuXuXuXuXuXuXuXuXuXuXuXuXuXuXuXuXq.T.T.T.T.T.T.E. X XP. XA.V.R. XI.G.u.uXuXuXuXuXuXuXuXuXuXuXuXuXuXuXuXuXuXuXuXuXuXuXuXuXuXuXuXuXuXuXuXuXuX",
"uXuXuXuXuXuXuXuXuXuXuXuXuXuXuXuXuXuXuXuXuXuXuXuXuXuXuXC.T.T.T.T.T.T.T.T.S.r.I.+XF.u.L.E. XG.uXuXuXuXuXuXuXuXuXuXuXuXuXuXuXuXuXuXuXuXuXuXuXuXuXuXuXuXuXuXuXuXuXuX",
"uXuXuXuXuXuXuXuXuXuXuXuXuXuXuXuXuXuXuXuXuXuXuXuXuXuXq.S.T.T.T.T.T.T.T.T.T.T.T.T.T.S.u.L.I. Xq.uXuXuXuXuXuXuXuXuXuXuXuXuXuXuXuXuXuXuXuXuXuXuXuXuXuXuXuXuXuXuXuXuX",
"uXuXuXuXuXuXuXuXuXuXuXuXuXuXuXuXuXuXuXuXuXuXuXuXuXuXC.T.T.T.T.T.T.T.T.T.T.T.T.T.T.T.S.u.L.I.K.uXuXuXuXuXuXuXuXuXuXuXuXuXuXuXuXuXuXuXuXuXuXuXuXuXuXuXuXuXuXuXuXuX",
"uXuXuXuXuXuXuXuXuXuXuXuXuXuXuXuXuXuXuXuXuXuXuXuXuXK.K.T.T.T.T.T.T.T.T.T.T.T.T.T.T.T.T.V.y.L.+XuXuXuXuXuXuXuXuXuXuXuXuXuXuXuXuXuXuXuXuXuXuXuXuXuXuXuXuXuXuXuXuXuX",
"uXuXuXuXuXuXuXuXuXuXuXuXuXuXuXuXuXuXuXuXu.0.uX0.A.XX#X XT.T.T.T.T.T.T.T.T.E.E.T.T.T.T.w.q.V.E..Xp.Z.!.OX@X@XXX X XK.uXuXuXuXuXuXuXuXuXuXuXuXuXuXuXuXuXuXuXuXuXuX",
"uXuXuXuXuXuXuXuXuXuXuXuXuXuXuXuXI.!.@X+X{.L.C.C.L.E.:X:X@XOX X X X X X X XE.T.T.E.oXL.T w.r.G.$XXX:X:X:X:X:X:X:X:X@XI.uXuXuXuXuXuXuXuXuXuXuXuXuXuXuXuXuXuXuXuXuX",
"uXuXuXuXuXuXuXuXuXuXuXuXuXuXu.E.:X:X:X:X:X#X XR.G.T.E. X@X#X:X%X@XXXoXE.T.T.T.E.OX{.3.1 M 1.C.OX.X@X:X:X:X:X:X:X:X@XE.C.uXuXuXuXuXuXuXuXuXuXuXuXuXuXuXuXuXuXuXuX",
"uXuXuXuXuXuXuXuXuXuXuXuX6.C.I.:X:X:X:X:X:X:X:X@XoXE.T.L.T.E.E.E.T.L.T.T.T.E.oX@XE.4.w , , w 0.W.d.w.a.K.E.I.I.I.K.K.T.T.C.uXuXuXuXuXuXuXuXuXuXuXuXuXuXuXuXuXuXuX",
"uXuXuXuXuXuXuXuXuXuXuXr.S.T.E.:X:X:X:X:X:X:X:X>X:X:X@X X{.E.E.T.T.E.E.oX@X@X+XL.3.1 * * 1 , >.w.y q 8 w >.1.1.1.>.6.S.T.T.u.uXuXuXuXuXuXuXuXuXuXuXuXuXuXuXuXuXuX",
"uXuXuXuXuXuXuXuXuXuXr.S.T.T.R.@X:X:X:X@X!.L.H.H.J.I. X@X:X:X:XOXOX@X#X@X XG.3.w % O O ; q q w w ; q q ; w -.1.1.1.E 1.r.T.S.uXuXuXuXuXuXuXuXuXuXuXuXuXuXuXuXuXuX",
"uXuXuXuXuXuXuXuXuXuXS.T.T.T.T.I.OX Xa.7.2.1.{ { T Z S :.i.d.I.{.{.I.L.u.3.V = O $ % % , q q q q q q q q ; w -.1.1.1.1.E p.S.4.uXuXuXuXuXuXuXuXuXuXuXuXuXuXuXuXuX",
"uXuXuXuXuXuXuXuXuXV.T.T.T.T.T.L.r.2.1.1.1.1.1.1.S t A p u u S =.=.=.S A u I T M % , 1 , , q q q q q d D D l L 1.1.1.1.1.2.S.e.uXuXuXuXuXuXuXuXuXuXuXuXuXuXuXuXuX",
"uXuXuXuXuXuXuXuX0.S.T.T.T.T.G.3.E 1.1.1.1.1.1.-.y p B P / L L J M A A p I 1.1.1.V * ; q , , q q q w ^ } } } ^ L 1.1.1.1.1.r.6.uXuXuXuXuXuXuXuXuXuXuXuXuXuXuXuXuX",
"uXuXuXuXuXuXuXuXr.T.T.T.T.T.6.T 1.1.1.1.1.1.1.S t B  .g.g.g...` F p u V 1.1.1.1.1.V = 8 q , 1 q q d ` } } } } ! Y 1.1.1.>.3.uXuXuXuXuXuXuXuXuXuXuXuXuXuXuXuXuXuX",
"uXuXuXuXuXuXuXuXC.T.T.T.T.S.>.1.1.1.1.1.1.1.1.M m  .g.g.g.g.} .. .B t T 1.1.1.1.1.1.V * ; q 1 q q q ! } } } } } ^ T 1.1.1.U uXuXuXuXuXuXuXuXuXuXuXuXuXuXuXuXuXuX",
"uXuXuXuXuXuXuXuXS.T.T.T.T.w.T Y Y Y T E 1.1.-.t } g.g.g.g. . .g.g.) M 1.1.1.1.1.1.1.1.V * 1 q q q q N ` } } } } ` K 1.1.E C uXuXuXuXuXuXuXuXuXuXuXuXuXuXuXuXuXuX",
"uXuXuXuXuXuXuXuXC.T.T.T.T.{ z uXuXuXuXz J T Y K g.g.g.g.g.} g.g.g./ T 1.1.1.1.1.1.1.>.U 6 O * q q q q K } } } } } ) _ 1.T uXuXuXuXuXuXuXuXuXuXuXuXuXuXuXuXuXuXuX",
"uXuXuXuXuXuXuXuXu.T.T.T.S.1.uXuXuXuXuXuXuXuXv  .g.g.g.g.}  .g.g.} / 1.1.1.1.1.1.T J C uXuXuXuX@ ; q q w K ) } } } ) K B U uXuXuXuXuXuXuXuXuXuXuXuXuXuXuXuXuXuXuX",
"uXuXuXuXuXuXuXuXy.T.T.T.S.U uXuXuXuXuXuXuXuX( g.) ~ ~ / } g.g. ./ 1.1.1.T Y J z uXuXuXuXuXuXuXuXuX+ * ; 5 l ! } ) N q 1 C uXuXuXuXuXuXuXuXuXuXuXuXuXuXuXuXuXuXuX",
"uXuXuXuXuXuXuXuXuXS.T.T.Z.C uXuXuXuXuXuXuXW } / y u u y / ../ z C Z C c uXuXuXuXuXuXuXuXuXuXuXuXuX@ l D d 5 l ` ! q 8 < uXuXuXuXuXuXuXuXuXuXuXuXuXuXuXuXuXuXuXuX",
"uXuXuXuXuXuXuXuXuXV.T.T.V.uXuXuXuXuXuXuX^ ) ~ M A A A a B J 2 uXuXuXuXuXuXuXuXuXuXuXuXuXuXuXuXuXX = 7 ! ) c N ` ! q 1 uXuXuXuXuXuXuXuXuXuXuXuXuXuXuXuXuXuXuXuXuX",
"uXuXuXuXuXuXuXuXuXuXG.T.e.uXuXuXuXuXuXW } J M A A A A A u 2 uXuXuXuXuXuXuXuXuXuXuXuXuXuXuXuXuXuX& d l n ^ ( ) ) N q = uXuXuXuXuXuXuXuXuXuXuXuXuXuXuXuXuXuXuXuXuX",
"uXuXuXuXuXuXuXuXuXuXC.T.0.uXuXuX) } P Z M A A A A A A u 2 uXuXuXuXuXuXuXuXuXuXuXuXuXuXuXuXuXuXo ; q 5 l W ) } D 1 q % uXuXuXuXuXuXuXuXuXuXuXuXuXuXuXuXuXuXuXuXuX",
"uXuXuXuXuXuXuXuXuXuXuXG.7.uXuXuX .Y A u u A A A A A u 2 uXuXuXuXuXuXuXuXuXuXuXuXuXuXuXuXuXuXuXo 7 D K ) } ) D 5 9 ; O uXuXuXuXuXuXuXuXuXuXuXuXuXuXuXuXuXuXuXuXuX",
"uXuXuXuXuXuXuXuXuXuXuXr.2.uXuX( Y A u B A A A A A p 2 uXuXuXuXuXuXuXuXuXuXuXuXuXuXuXuXuXuXuXuXuXc } } } ( l 7 N q ; X uXuXuXuXuXuXuXuXuXuXuXuXuXuXuXuXuXuXuXuXuX",
"uXuXuXuXuXuXuXuXuXuXuXuXZ uXuXJ u m F M y A A A A t uXuXuXuXuXuXuXuXuXuXuXuXuXuXuXuXuXuXuXuXuXuXk ^ ( D 7 7 ! N q , uXuXuXuXuXuXuXuXuXuXuXuXuXuXuXuXuXuXuXuXuXuX",
"uXuXuXuXuXuXuXuXuXuXuXuXuXuX2 m L / Z y A A A A u uXuXuXuXuXuXuXuXuXuXuXuXuXuXuXuXuXuXuXuXuXuXuX, q w q 6 ! ^ w q @ uXuXuXuXuXuXuXuXuXuXuXuXuXuXuXuXuXuXuXuXuXuX",
"uXuXuXuXuXuXuXuXuXuXuXuXuXuX! } / B y A A A A A t uXuXuXuXuXuXuXuXuXuXuXuXuXuXuXuXuXuXuXuXuXuXuX> 9 9 6 ! } N q q + uXuXuXuXuXuXuXuXuXuXuXuXuXuXuXuXuXuXuXuXuXuX",
"uXuXuXuXuXuXuXuXuXuXuXuXuX] [ Z F J A A A A A u uXuXuXuXuXuXuXuXuXuXuXuXuXuXuXuXuXuXuXuXuXuXuXuX- q 7 ! } D q q ; o uXuXuXuXuXuXuXuXuXuXuXuXuXuXuXuXuXuXuXuXuXuX",
"uXuXuXuXuXuXuXuXuXuXuXuX! J M L P A A p y A u uXuXuXuXuXuXuXuXuXuXuXuXuXuXuXuXuXuXuXuXuXuXuXuXuXl ^ ( ) D q 1 1 ; uXuXuXuXuXuXuXuXuXuXuXuXuXuXuXuXuXuXuXuXuXuXuX",
"uXuXuXuXuXuXuXuXuXuXuXuXH L } [ A A p y A u uXuXuXuXuXuXuXuXuXuXuXuXuXuXuXuXuXuXuXuXuXuXuXuXuXuX7 D D d q 9 5 q * uXuXuXuXuXuXuXuXuXuXuXuXuXuXuXuXuXuXuXuXuXuXuX",
"uXuXuXuXuXuXuXuXuXuXuX} ..g.[ A A A y y t uXuXuXuXuXuXuXuXuXuXuXuXuXuXuXuXuXuXuXuXuXuXuXuXuXuX> 1 q q q 1 d N q + uXuXuXuXuXuXuXuXuXuXuXuXuXuXuXuXuXuXuXuXuXuXuX",
"uXuXuXuXuXuXuXuXuX} ..g.../ A A A y 2 2 uXuXuXuXuXuXuXuXuXuXuXuXuXuXuXuXuXuXuXuXuXuXuXuXuXuXuX< 1 9 q 5 k K w ; uXuXuXuXuXuXuXuXuXuXuXuXuXuXuXuXuXuXuXuXuXuXuXuX",
"uXuXuXuXuXuXuX} ..g...[ C y p A a 0 uXuXuXuXuXuXuXuXuXuXuXuXuXuXuXuXuXuXuXuXuXuXuXuXuXuXuXuXW K k k D ! ^ d q = uXuXuXuXuXuXuXuXuXuXuXuXuXuXuXuXuXuXuXuXuXuXuXuX",
"uXuXuXuXuX} ..g...[ S A y p A p 0 uXuXuXuXuXuXuXuXuXuXuXuXuXuXuXuXuXuXuXuXuXuXuXuXuXuXuXuXW ` } } } ` K d q q = uXuXuXuXuXuXuXuXuXuXuXuXuXuXuXuXuXuXuXuXuXuXuXuX",
"uXuXuXuX) ....[ S A a y p A A t uXuXuXuXuXuXuXuXuXuXuXuXuXuXuXuXuXuXuXuXuXuXuXuXuXuXuXuXuXW ) ` ) K d q q q q 9 + uXuXuXuXuXuXuXuXuXuXuXuXuXuXuXuXuXuXuXuXuXuXuX",
"uXuXuXuXuX! m u A A y p A A u , uXuXuXuXuXuXuXuXuXuXuXuXuXuXuXuXuXuXuXuXuXuXuXuXuXuXuXuXuXuXuXn l q q q q q q q * uXuXuXuXuXuXuXuXuXuXuXuXuXuXuXuXuXuXuXuXuXuXuX",
"uXuXuXuXuXuXuX5 r t p A A A t uXuXuXuXuXuXuXuXuXuXuXuXuXuXuXuXuXuXuXuXuXuXuXuXuXuXuXuXuXuXuXuXuX& 3 ; 8 9 q 9 ; ; & uXuXuXuXuXuXuXuXuXuXuXuXuXuXuXuXuXuXuXuXuXuX",
"uXuXuXuXuXuXuXuXg r y p A y uXuXuXuXuXuXuXuXuXuXuXuXuXuXuXuXuXuXuXuXuXuXuXuXuXuXuXuXuXuXuXuXuXuXx W l 3 6 < & & n } | b uXuXuXuXuXuXuXuXuXuXuXuXuXuXuXuXuXuXuXuX",
"uXuXuXuXuXuXuXh v j g r u 2 uXuXuXuXuXuXuXuXuXuXuXuXuXuXuXuXuXuXuXuXuXuXuXuXuXuXuXuXuXuXuXuXuXuXv ' ' Q Q j f f x Q X.g.] Q b x uXuXuXuXuXuXuXuXuXuXuXuXuXuXuXuX",
"uXuXuXuXuXuXh ] v.] j g < uXuXuXuXuXuXuXuXuXuXuXuXuXuXuXuXuXuXuXuXuXuXuXuXuXuXuXuXuXuXuXuXuXuXuX: j j j j j g f f f j [ j.h.| ] n < uXuXuXuXuXuXuXuXuXuXuXuXuXuX",
"uXuXuXuXuXj ] N.c.Q v j 4 uXuXuXuXuXuXuXuXuXuXuXuXuXuXuXuXuXuXuXuXuXuXuXuXuXuXuXuXuXuXuXuXuXuXuX4 j f 4 : $ $ 4 f f g j v v v v v : uXuXuXuXuXuXuXuXuXuXuXuXuXuX",
"uXuXuXuXuXb n.'.B.c.X.| Q x uXuXuXuXuXuXuXuXuXuXuXuXuXuXuXuXuXuXuXuXuXuXuXuXuXuXuXuXuXuXuXuXuXuXuXuXuXuXuXuXuXuXuXuXuXuXuXuXuXuXuXuXuXuXuXuXuXuXuXuXuXuXuXuXuXuX",
"uXuXuXuXuXb ] X.X.| ] n b j uXuXuXuXuXuXuXuXuXuXuXuXuXuXuXuXuXuXuXuXuXuXuXuXuXuXuXuXuXuXuXuXuXuXuXuXuXuXuXuXuXuXuXuXuXuXuXuXuXuXuXuXuXuXuXuXuXuXuXuXuXuXuXuXuXuX",
"uXuXuXuXuX    h h s .       uXuXuXuXuXuXuXuXuXuXuXuXuXuXuXuXuXuXuXuXuXuXuXuXuXuXuXuXuXuXuXuXuXuXuXuXuXuXuXuXuXuXuXuXuXuXuXuXuXuXuXuXuXuXuXuXuXuXuXuXuXuXuXuXuXuX"
};
