/* XPM */
static char *result[] = {
/* columns rows colors chars-per-pixel */
"80 80 211 2 ",
"   c #3F251F",
".  c #3B343C",
"X  c #4C1A1B",
"o  c #521818",
"O  c #42291C",
"+  c #55231E",
"@  c #7C1F22",
"#  c #562521",
"$  c #592726",
"%  c #5D2D2C",
"&  c #4C362E",
"*  c #573025",
"=  c #5C332D",
"-  c #463A36",
";  c #5B3231",
":  c #583533",
">  c #5C3835",
",  c #5A3D3C",
"<  c #61302F",
"1  c #623232",
"2  c #62393B",
"3  c #693C3C",
"4  c #5B403F",
"5  c #6D4B3B",
"6  c #694A3C",
"7  c #473B46",
"8  c #5E3E43",
"9  c #633D41",
"0  c #434343",
"q  c #4A4649",
"w  c #4B4B4B",
"e  c #5D4148",
"r  c #50504F",
"t  c #4D4C51",
"y  c #524D53",
"u  c #544A57",
"i  c #5D4C56",
"p  c #5C4E5D",
"a  c #515154",
"s  c #575256",
"d  c #5A525D",
"f  c #6B4741",
"g  c #6B4843",
"h  c #64464C",
"j  c #714545",
"k  c #744D4D",
"l  c #695648",
"z  c #715649",
"x  c #624B54",
"c  c #6D4C50",
"v  c #634F5A",
"b  c #724E50",
"n  c #6B5357",
"m  c #62515D",
"M  c #775455",
"N  c #755B54",
"B  c #7B5D55",
"V  c #7D5E5B",
"C  c #7E6054",
"Z  c #7D615B",
"A  c #5D5462",
"S  c #5D5D65",
"D  c #5F5E6B",
"F  c #635562",
"G  c #625866",
"H  c #655C6C",
"J  c #6A5F6D",
"K  c #685F70",
"L  c #63626D",
"P  c #6A616D",
"I  c #796567",
"U  c #656473",
"Y  c #6A6273",
"T  c #6C6C75",
"R  c #6E6A7A",
"E  c #776E7C",
"W  c #74757B",
"Q  c #7B7B7F",
"!  c #960607",
"~  c #941716",
"^  c #A40405",
"/  c #AD1F23",
"(  c #9C2629",
")  c #913C3C",
"_  c #994D51",
"`  c #825E5C",
"'  c #885E5E",
"]  c #B1494F",
"[  c #A84C52",
"{  c #A4575D",
"}  c #81645E",
"|  c #83695F",
" . c #9A6F52",
".. c #A85C61",
"X. c #836262",
"o. c #8A6967",
"O. c #8C6C66",
"+. c #856B6A",
"@. c #926464",
"#. c #8E7267",
"$. c #8D756C",
"%. c #92726E",
"&. c #9D6C73",
"*. c #8A7C76",
"=. c #957372",
"-. c #9B7574",
";. c #917A73",
":. c #9A7B74",
">. c #9C7A7A",
",. c #AB6F70",
"<. c #A2717D",
"1. c #A37D7C",
"2. c #A97C7D",
"3. c #BB7A7A",
"4. c #9D8376",
"5. c #9D837C",
"6. c #A2827D",
"7. c #A8887E",
"8. c #716F80",
"9. c #737383",
"0. c #777885",
"q. c #7A7A85",
"w. c #997D83",
"e. c #A47483",
"r. c #A97E84",
"t. c #888186",
"y. c #84848C",
"u. c #958485",
"i. c #9A8988",
"p. c #8E8E93",
"a. c #958D92",
"s. c #939395",
"d. c #9B9394",
"f. c #96969B",
"g. c #9D999D",
"h. c #A58382",
"j. c #AA8484",
"k. c #A58A85",
"l. c #AC8A83",
"z. c #AD868D",
"x. c #A48B89",
"c. c #AD8B8B",
"v. c #B48585",
"b. c #B48C85",
"n. c #B5858C",
"m. c #B8878A",
"M. c #B38D8D",
"N. c #AE9388",
"B. c #B5958C",
"V. c #B8948A",
"C. c #B59B8C",
"Z. c #BC9B8F",
"A. c #A98C90",
"S. c #A89493",
"D. c #B49494",
"F. c #BB9494",
"G. c #BB9B92",
"H. c #BD9D9C",
"J. c #B9A18E",
"K. c #BDA193",
"L. c #B7A19E",
"P. c #9D9DA1",
"I. c #A5A4AA",
"U. c #ABAAAA",
"Y. c #AAAAB2",
"T. c #B1AEB2",
"R. c #B2B2B4",
"E. c #B7B6B7",
"W. c #BCBBBE",
"Q. c #C08F8F",
"!. c #C1988D",
"~. c #C69998",
"^. c #C39B9C",
"/. c #C3A494",
"(. c #C4A994",
"). c #CAAD97",
"_. c #C3A39C",
"`. c #CBAB9A",
"'. c #D0AF9E",
"]. c #CEB19C",
"[. c #D2B29E",
"{. c #D7B89E",
"}. c #CE9FA2",
"|. c #C5A4A3",
" X c #C9A6A4",
".X c #CAAAA4",
"XX c #D0A7A2",
"oX c #CFB1A3",
"OX c #D4B4A4",
"+X c #D7BAA3",
"@X c #DBBBA4",
"#X c #DCBCA9",
"$X c #E0BFA7",
"%X c #DEC1A8",
"&X c #E3C4A7",
"*X c #E4C4AA",
"=X c #E8C7AC",
"-X c #E6C9AB",
";X c #EBCCAD",
":X c #EFD0AF",
">X c #F3D3B2",
",X c #F6D5B4",
"<X c #F8D7B5",
"1X c #BEBEC1",
"2X c #C2C2C3",
"3X c #C6C6CA",
"4X c #CCCDCD",
"5X c #D3D3D4",
"6X c #D9D9DA",
"7X c #E1E1E1",
"8X c None",
/* pixels */
"8X8X8X8X8X8X8X8X8X8X8X8X8X8X8X8X8X8X8X8X8X8X8X8X8X8X8X8X8X8X8X8X8X8X8X8X8X8X8X8X8X8X8X8X8X8X8X8X8X8X8X8X8X8X8X8X8X8X8X8X8X8X8X8X8X8X8X8X8X8X8X8X8X8X8X8X8X8X8X8X",
"8X8X8X8X8X8X8X8X8X8X8X8X8X8X8X8X8X8X8X8X8X8X8X8X8X8X8X8X8X8X8X8X8X8X8X8X8X8X8X8X8X8X8X8X8X8X8X8X8X8X8X8X8X8X8X8X8X8X8X8X8X8X8X8X8X8X8X8X8X8X8X8X8X8X8X8X8X8X8X8X",
"8X8X8X8X8X8X8X8X8X8X8X8X8X8X8X8X8X8X8X8X8X8X8X8X8X8X8X8X8X8X8X8X8X8X8X8X8X8X8X8X8X8X8X8X8X8X8X8X8X8X8X8X8X8X8X8X8X8X8X8X8X8X8X8X8X8X8X8X8X8X8X8X8X8X8X8X8X8X8X8X",
"8X8X8X8X8X8X8X8X8X8X8X8X8X8X8X8X8X8X8X8X8X8X8X8X8X8X8X8X8X8X8X8X8X8X8X8X8X8X8X8X8X8X8X8X8X8X8X8X8X8X8X8X8X8X8X8X8X8X8X8X8X8X8X8X8X8X8X8X8X8X8X8X8X8X8X8X8X8X8X8X",
"8X8X8X8X8X8X8X8X8X8X8X8X8X8X8X8X8X8X8X8X8X8X8X8X8X8X8X8X8X8X8X8X8X8X8X8X8X8X8X8X8X8X8X8X8X8X8X8X8X8X8X8X8X8X8X8X8X8X8X8X8X8X8X8X8X8X8X8X8X8X8X8X8X8X8X8X8X8X8X8X",
"8X8X8X8X8X8X8X8X8X8X8X8X8X8X8X8X8X8X8X8X8X8X8X8X8X8X8X8X8X8X8X8X8X8X8X8X8X8X8X8X8X8X8X8X8X8X8X8X8X8X8X8X8X8X8X8X8X8X8X8X8X8X8X8X8X8X8X8X8X8X8X8X8X8X8X8X8X8X8X8X",
"8X8X8X8X8X8X8X8X8X8X8X8X8X8X8X8X8X8X8X8X8X8X8X8X8X8X8X8X8X8X8X8X8X8X8X8X8X8X8X8X8X8X8X8X8X8X8X8X8X8X8X8X8X8X8X8X8X8X8X8X8X8X8X8X8X8X8X8X8X8X8X8X8X8X8X8X8X8X8X8X",
"8X8X8X8X8X8X8X8X8X8X8X8X8X8X8X8X8X8X8X8X8X8X8X8X8X8X8X8X8X8X8X8X8X8X8X8X8X8X8X8X8X8X8X8X8X8X8X8X8X8X8X8X8X8X8X8X8X8X8X8X8X8X8X8X8X8X8X8X8X8X8X8X8X8X8X8X8X8X8X8X",
"8X8X8X8X8X8X8X8X8X8X8X8X8X8X8X8X8X8X8X8X8X8X8X8X8X8X8X8X8X8X8X8X8X8X8X8X8X8X8X8X8X8X8X8X8X8X8X8X8X8X8X8X8X8X8X8X8X8X8X8X8X8X8X8X8X8X8X8X8X8X8X8X8X8X8X8X8X8X8X8X",
"8X8X8X8X8X8X8X8X8X8X8X8X8X8X8X8X8X8X8X8X8X8X8X8X8X8X8X8X8X8X8X8X8X8X8X8X8X8X8X8X8X8X8X8X8X8X8X8X8X8X8X8X8X8X8X8X8X8X8X8X8X8X8X8X8X8X8X8X8X8X8X8X8X8X8X8X8X8X8X8X",
"8X8X8X8X8X8X8X8X8X8X8X8X8X8X8X8X8X8X8X8X8X8X8X8X8X8X8X8X8X8X8X8X8X8X8X8X8X8X8X8X8X8X8X8X8X8X8X8X8X8X8X8X8X8X8X8X8X8X8X8X8X8X8X8X8X8X8X8X8X8X8X8X8X8X8X8X8X8X8X8X",
"8X8X8X8X8X8X8X8X8X8X8X8X8X8X8X8X8X8X8X8X8X8X8X8X8X8X8X8X8X8X8X8X8X8X8X8X8X8X8X8X8X8X8X8X8X8X8X8X8X8X8X8X8X8X8X8X8X8X8X8X8X8X8X8X8X8X8X8X8X8X8X8X8X8X8X8X8X8X8X8X",
"8X8X8X8X8X8X8X8X8X8X8X8X8X8X8X8X8X8X8X8X8X8X8X8X8X8X8X8X8X8X8X8X8X8X8X8X8X8X8X8X8X8X8X8X8X8X8X8X8X8X8X8X8X8X8X8X8X8X8X8X8X8X8X8X8X8X8X8X8X8X8X8X8X8X8X8X8X8X8X8X",
"8X8X8X8X8X8X8X8X8X8X8X8X8X8X8X8X8X8X8X8X8X8X8X8X8X8X8X8X8X8X8X8X8X8X8X8X8X8X8X8X8X8X8X8X8X8X8X8X8X8X8X8X8X8X8X8X8X8X8X8X8X8X8X8X8X8X8X8X8X8X8X8X8X8X8X8X8X8X8X8X",
"8X8X8X8X8X8X8X8X8X8X8X8X8X8X8X8X8X8X8X8X8X8X8X8X8X8X8X8X8X8X8X8X8X8X8X8X8X8X8X8X8X8X8X8X8X8X8X8X8X8X8X8X8X8X8X8X8X8X8X8X8X8X8X8X8X8X8X8X8X8X8X8X8X8X8X8X8X8X8X8X",
"8X8X8X8X8X8X8X8X8X8X8X8X8X8X8X8X8X8X8X8X8X8X8X8X8X8X8X8X8X8X8X8X8X8X8X8X8X8X8X8X8X8X8X8X8X8X8X8X8X8X8X8X8X8X8X8X8X8X8X8X8X8X8X8X8X8X8X8X8X8X8X8X8X8X8X8X8X8X8X8X",
"8X8X8X8X8X8X8X8X8X8X8X8X8X8X8X8X8X8X8X8X8X8X8X8X8X8X8X8X8X8X8X8X8X8X8X8X8X8X8X8X8X8X8X8X8X8X8X8X8X8X8X8X8X8X8X8X8X8X8X8X8X8X8X8X8X8X8X8X8X8X8X8X8X8X8X8X8X8X8X8X",
"8X8X8X8X8X8X8X8X8X8X8X8X8X8X8X8X8X8X8X8X8X8X8X8X8X8X8X8X8X8X8X8X8X8X8X8X8X8X8X8X8X8X8X8X8X8X8X8X8X8X8X8X8X8X8X8X8X8X8X8X8X8X8X8X8X8X8X8X8X8X8X8X8X8X8X8X8X8X8X8X",
"8X8X8X8X8X8X8X8X8X8X8X8X8X8X8X8X8X8X8X8X8X8X8X8X8X8X8X8X8X8X8X8X8X8X8X8X8X8X8X8X8X8X8X8X8X8X8X8X8X8X8X8X8X8X8X8Xm.v.8X8X8X8Xj.<.8X8X8X8X8X8X8X8X8X8X8X8X8X8X8X8X",
"8X8X8X8X8X8X8X8X8X8X8X8X8X8X8X8X8X8X8X8X8X8X8X8X8X8X8X8X8X8X8X8X8X8X8X8X8X8X8X8X8X8X8X8X8X8X8X8X8X8X8X8X8X8X8X8XQ.XX{ ( 1.M.M.~.n.8X8X8X8X8X8X8X8X8X8X8X8X8X8X8X",
"8X8X8X8X8X8X8X8X8X8X8X8X8X8X8X8X8X8X8X8X8X8X8X8X8X8X8X8X8X8X8X8X8X8X8X8X8X8X8X8X8X8X8X8X8X8X8X8X8X8X8X8XC.(.C.8XF. X] / M.D.D.F.~.n.8X8X8X8X8X8X8X8X8X8X8X8X8X8X",
"8X8X8X8X8X8X8X8X8X8X8X8X8X8X8X8X8X8X8X8X8X8X8X8X8X8X8X8X8X8X8X8X8X8X8X8X8X8X8X8X8X8X8X8X8X8X8X8X8X8X).(.;X&XC.u.w.}.] ^ ,.D.D.r.~.~.8X8X8X8X8X8X8X8X8X8X8X8X8X8X",
"8X8X8X8X8X8X8X8X8X8X8X8X8X8X8X8X8X8X8X8X8X8X8X8X8X8X8X8X8X8X8X8X8X8X8X8X8X8X8X8X8X8X8X[.#X-X&X&X;X&X/.*X<X].u.P.a.~...! [ D.z.e.1.~.F.8X8X8X8X8X8X8X8X8X8X8X8X8X",
"8X8X8X8X8X8X8X8X8X8X8X8X8X8X8X8X8X8X8X8X8X8X8X8X8X8X8X8X8X8X8X8X8X8X8X8X8X8X8X8X8X`.&X-X>X>X>X=X-XOXC.;X<X].g.E.q.w.~.( ! ..e.e.<.1.F.8X8X8X8X8X8X8X8X8X8X8X8X8X",
"8X8X8X8X8X8X8X8X8X8X8X8X8X8X8X8X8X8X8X8X8X8X8X8X8X8X8X8X8X8X8X8X8X8X8X8X8X8X8XOX).*X;X@XOXOX%X>X&XoXk./.;X[.s.P.0.E M.3.~ ! { e.e.<.&.8X8X8X8X8X8X8X8X8X8X8X8X8X",
"8X8X8X8X8X8X8X8X8X8X8X8X8X8X8X8X8X8X8X8X8X8X8X8X8X8X8X8X8X8X8X8X8X8X8X8X8X8X*X#X*X;X#X#XOX X X@X;XOXD.M.(.(.t.I.p.0.+.Q.3.~ ! { <.&.8X8X8X8X8X8X8X8X8X8X8X8X8X8X",
"8X8X8X8X8X8X8X8X8X8X8X8X8X8X8X8X8X8X8X8X8X8X8X8X8X8X8X8X8X8X8X8X8X8X8X8X8X&X,X-X;X-X;X,X>X=XOX XOX@X[.G.B.J.f.s.s.y.I  .M.2.) @ 8X8X8X8X8X8X8X8X8X8X8X8X8X8X8X8X",
"8X8X8X8X8X8X8X8X8X8X8X8X8X8X8X8X8X8X8X8X8X8X8X8X8X8X8X8X8X8X8X8X8X8X8X8X[.>X,X-X>X:X>X,X,X,X;XOX_.).*X*XZ.N.T.y.y.w.0.L I h.D.-.8X8X8X8X8X8X8X8X8X8X8X8X8X8X8X8X",
"8X8X8X8X8X8X8X8X8X8X8X8X8X8X8X8X8X8X8X8X8X8X8X8X8X8X8X8X8X8X8X8X8X8X8X8X`.-X,X*X;X;X;X,X,X,X,X-X_.K.{.,X&X6.@.k Q W T T a I j.c.@.8X8X8X8X8X8X8X8X8X8X8X8X8X8X8X",
"8X8X8X8X8X8X8X8X8X8X8X8X8X8X8X8X8X8X8X8X8X8X8X8X8X8X8X8X8X8X8X8X8X8X8X5.{.@X&X*X*X=X%X,X,X,X,X>XOXK.K.-X+X_ ! ~ *.*.*.u.;.8X8X@.8X8X8X8X8X8X8X8X8X8X8X8X8X8X8X8X",
"8X8X8X8X8X8X8X8X8X8X8X8X8X8X8X8X8X8X8X8X8X8X8X8X8X8X8X8X8X8X8X8X8X8X8Xj.@X,X&X(.[.*X%X,X,X,X,X,X{./.h..XK.x._ ) G.L.S.Z.l.8X8X8X8X8X8X8X8X8X8X8X8X8X8X8X8X8X8X8X",
"8X8X8X8X8X8X8X8X8X8X8X8X8X8X8X8X8X8X8X8X8X8X8X8X8X8X8X8X8X8X8X8X8X8X8Xh. X*X@X[.`.#XOX>X,X>X,X,X$XG.h.^.u.Y.5Xg.g.4X2Xa.x.8X8X8X8X8X8X8X8X8X8X8X8X8X8X8X8X8X8X8X",
"8X8X8X8X8X8X8X8X8X8X8X8X8X8X8X8X8X8X8X8X8X8X8X8X8X8X8X8X8X8X8X8X8X8X8Xh. X|./. X_.]. X;X,X-X,X,X*XH.>.x.W.3X3X5XR.1X5XR.x.8X8X8X8X8X8X8X8X8X8X8X8X8X8X8X8X8X8X8X",
"8X8X8X8X8X8X8X8X8X8X8X8X8X8X8X8X8X8X8X8X8X8X8X8X8X8X8X8X8X8X8X8X8X8X8Xh.|.F.^. XG.G..X;X>X#X>X,X&XH.w.Y.E.7X2X5X4XP.3X4Xd.5.8X8X8X8X8X8X8X8X8X8X8X8X8X8X8X8X8X8X",
"8X8X8X8X8X8X8X8X8X8X8X8X8X8X8X8X8X8X8X8X8X8X8X8X8X8X8X8X8X8X8X8X8X8X8Xh.F.H. X XM.j. X;X,XOX-X<X@XS.Y.R.4X5X6X2XE.p.t.U.d.N.8X8X8X8X8X8X8X8X8X8X8X8X8X8X8X8X8X8X",
"8X8X8X8X8X8X8X8X8X8X8X8X8X8X8X8X8X8X8X8X8X8X8X8X8X8X8X8X8X8X8X8X8X8X8X=.:.1.F.|.F.1. X&X,X@X#X,X`.A.E.W.4X5X2XE.U.s.;.;.5.l.| 8X8X8X8X8X8X8X8X8X8X8X8X8X8X8X8X8X",
"8X8X8X8X8X8X8X8X8X8X8X8X8X8X8X8X8X8X8X8X8X8X8X8X8X8X8X8X8X8X8X8X8X8X8X1.-.1.>.j.h.>.|.@X,X=XOX-X[.#XL.T.W.W.E.R.f.a.6.:.$.V.6.8X8X8X8X8X8X8X8X8X8X8X8X8X8X8X8X8X",
"8X8X8X8X8X8X8X8X8X8X8X8X8X8X8X8X8X8X8X8X8X8X8X8X8X8X8X8X8X8X8X8X8X8X1.1.j.D.D.D.c.>.H.@X,X;XOX[.b.@X*XH.S.d.I.p.t.h.j.:.$.B.!.7.8X8X8X8X8X8X8X8X8X8X8X8X8X8X8X8X",
"8X8X8X8X8X8X8X8X8X8X8X8X8X8X8X8X8X8X8X8X8X8X8X8X8X8X8X8X8X8X8X8X8X1.D.c.>.h.c.D.c.=.D.@X,X:XoXG.j.'.@X X|.k.i.x.h.c.j.%.l.D.B.N.8X8X8X8X8X8X8X8X8X8X8X8X8X8X8X8X",
"8X8X8X8X8X8X8X8X8X8X8X8X8X8X8X8X8X8X8X8X8X8X8X8X8X8X8X8X8X8X8X8X1.D.D.D.M.h.1.1.1.1.j.OX*X&XoXF.c._.|.H.h.| 8X=.-.%.c.D.D.D.D.5.8X8X8X8X8X8X8X8X8X8X8X8X8X8X8X8X",
"8X8X8X8X8X8X8X8X8X8X8X8X8X8X8X8X8X8X8X8X8X8X8X8X8X8X8X8X8X8X8X8Xc.D.D.D.D.D.D.c.D.M.1.H.|.|.|.F.c.F.j.O.8X8X8X+.7.B.D.D.D.D.c.o.8X8X8X8X8X8X8X8X8X8X8X8X8X8X8X8X",
"8X8X8X8X8X8X8X8X8X8X8X8X8X8X8X8X8X8X8X8X8X8X8X8X8X8X8X8X8X8X8X1.D.D.D.D.D.D.D.D.D.h.>.1.M.D.v.2.h.=.8X8X8X8X8X8X$.7.l.D.M.h.O.8X8X8X8X8X8X8X8X8X8X8X8X8X8X8X8X8X",
"8X8X8X8X8X8X8X8X8X8X8X8X8X8X8X8X8X8X8X8X8X8X8X8X8X8X8X8X8X8X8Xh.D.D.D.D.D.n.M.D.D.h.j.D.D.M.=.O.c.6.8X8X8X8X8X8X8X8X| | | 8X8X8X8X8X8X8X8X8X8X8X8X8X8X8X8X8X8X8X",
"8X8X8X8X8X8X8X8X8X8X8X8X8X8X8X8X8X8X8X8X8X8X8X8X8X8X8X8X8X8XX.c.D.D.D.D.D.D.M.n.M.D.D.D.D.M.=.=.M.1.8X8X8X8X8X8X8X8X8X8X8X8X8X8X8X8X8X8X8X8X8X8X8X8X8X8X8X8X8X8X",
"8X8X8X8X8X8X8X8X8X8X8X8X8X8X8X8X8X8X8X8X8X8X8X8X8X8X8X8X8X8XO.c.D.D.D.D.D.D.B.B.V.b.M.D.D.M.-.=.2.1.-.8X8X8X8X8X8X8X8X8X8X8X8X8X8X8X8X8X8X8X8X8X8X8X8X8X8X8X8X8X",
"8X8X8X8X8X8X8X8X8X8X8X8X8X8X8X8X8X8X8X8X8X8X8X8X8X8X8X8X8X8XO.c.D.D.D.D.D.B./.[.OX/.b.v.M.M.b.>.1.v.M.1.8X8X8X8X8X8X8X8X8X8X8X8X8X8X8X8X8X8X8X8X8X8X8X8X8X8X8X8X",
"8X8X8X8X8X8X8X8X8X8X8X8X8X8X8X8X8X8X8X8X8X8X8X8X8X8X8X8X8X8X8Xc.D.D.D.D.D.G.OXOXOXOX`.b.v.7.C.1.2.v.D.D.c.-.8X8X8X8X8X8X8X8X8X8X8X8X8X8X8X8X8X8X8X8X8X8X8X8X8X8X",
"8X8X8X8X8X8X8X8X8X8X8X8X8X8X8X8X8X8X8X8X8X8X8X8X8X8X8X8X8X8X8Xj.D.D.D.D.D._.OXOXOXOXOXK.j.7./.:.' j.M.D.D.M.h.>.8X8X8X8X8X8X8X8X8X8X8X8X8X8X8X8X8X8X8X8X8X8X8X8X",
"8X8X8X8X8X8X8X8X8X8X8X8X8X8X8X8X8X8X8X8X8X8X8X8X8X8X8X8X8X8X8X-.D.D.D.D.D.!.OXOXOXOXOXOX/.7./.4.2 ' 2.M.D.D.D.D.h.>.8X8X8X8X8X8X8X8X8X8X8X8X8X8X8X8X8X8X8X8X8X8X",
"8X8X8X8X8X8X8X8X8X8X8X8X8X8X8X8X8X8X8X8X8X8X8X8X8X8X8X8X8X8X8X8Xh.D.D.D.D.B.`.OXOXOXOXOXOXZ./.4.1 1 j X.h.D.D.D.D.D.h.=.8X8X8X8X8X8X8X8X8X8X8X8X8X8X8X8X8X8X8X8X",
"8X8X8X8X8X8X8X8X8X8X8X8X8X8X8X8X8X8X8X8X8X8X8X8X8X8X8X8X8X8X8X8X=.M.D.D.D.D.Z.OXOXOXOXOXOX[.K.:.1 1 1 1 j X.h.c.D.D.D.c.=.8X8X8X8X8X8X8X8X8X8X8X8X8X8X8X8X8X8X8X",
"8X8X8X8X8X8X8X8X8X8X8X8X8X8X8X8X8X8X8X8X8X8X8X8X8X8X8X8X8X8X8X8X8X-.M.D.D.D.B.`.OXOXOXOXOXOX`.:.1 1 1 1 1 1 j M =.c.D.D.c.=.8X8X8X8X8X8X8X8X8X8X8X8X8X8X8X8X8X8X",
"8X8X8X8X8X8X8X8X8X8X8X8X8X8X8X8X8X8X8X8X8X8X8X8X8X8X8X8X8X8X8X8X8X8X-.M.D.D.D.Z.'.OXOXOXOXOXOXB.j 1 1 1 1 1 1 1 3 M 1.D.D.c.=.8X8X8X8X8X8X8X8X8X8X8X8X8X8X8X8X8X",
"8X8X8X8X8X8X8X8X8X8X8X8X8X8X8X8X8X8X8X8X8X8X8X8X8X8X8X8X8X8X8X8X8X8X8X-.M.D.D.D.Z.'.OXOXOXOXOXOX#.1 1 1 1 1 1 1 1 1 j 1.D.D.c.=.8X8X8X8X8X8X8X8X8X8X8X8X8X8X8X8X",
"8X8X8X8X8X8X8X8X8X8X8X8X8X8X8X8X8X8X8X8X8X8X8X8X8X8X8X8X8X8X8X8X8X8X8X8X-.M.D.D.D.Z.'.OXOXOXOXOXZ.j 1 1 1 1 1 1 1 1 1 j 1.D.D.c.=.8X8X8X8X8X8X8X8X8X8X8X8X8X8X8X",
"8X8X8X8X8X8X8X8X8X8X8X8X8X8X8X8X8X8X8X8X8X8X8X8X8X8X8X8X8X8X8X8X8X8X8X8X8X>.D.D.D.D.Z.'.OXOXOX`./.B # < 1 1 1 1 1 1 1 1 k 1.D.D.j.8X8X8X8X8X8X8X8X8X8X8X8X8X8X8X",
"8X8X8X8X8X8X8X8X8X8X8X8X8X8X8X8X8X8X8X8X8X8X8X8X8X8X8X8X8X8X8X8X8X8X8X8X8Xh.c.D.D.D.D./.OX'.G.B.B.#.= # $ % 1 1 1 8 m F i b 1.D.D.>.8X8X8X8X8X8X8X8X8X8X8X8X8X8X",
"8X8X8X8X8X8X8X8X8X8X8X8X8X8X8X8X8X8X8X8X8X8X8X8X8X8X8X8X8X8X8X8X8X8X8X8X%.D.c.c.D.D.D./.OX!.B.D.D.=.V M k % = + $ F Y Y K i b j.D.h.8X8X8X8X8X8X8X8X8X8X8X8X8X8X",
"8X8X8X8X8X8X8X8X8X8X8X8X8X8X8X8X8X8X8X8X8X8X8X8X8X8X8X8X8X8X8X8X8X8X8X8Xl.D.D.j.M.D.B.`.!.v.D.D.D.o.V X.X.X.k X $ x H H H H i X.D.k.8X8X8X8X8X8X8X8X8X8X8X8X8X8X",
"8X8X8X8X8X8X8X8X8X8X8X8X8X8X8X8X8X8X8X8X8X8X8X8X8X8X8X8X8X8X8X8X8X8X8X1.D.D.B.F.M.B././.n.n.D.D.j.Z X.X.X.X.c u G F v p G Y G g 6.n.8X8X8X8X8X8X8X8X8X8X8X8X8X8X",
"8X8X8X8X8X8X8X8X8X8X8X8X8X8X8X8X8X8X8X8X8X8X8X8X8X8X8X8X8X8X8X8X8X8X1.D.D.D.B.Z.Z.G.G.D.M.D.D.M.O.} X.X.X.` 9 e h 8 p J Y F m ; ` n.8X8X8X8X8X8X8X8X8X8X8X8X8X8X",
"8X8X8X8X8X8X8X8X8X8X8X8X8X8X8X8X8X8X8X8X8X8X8X8X8X8X8X8X8X8X8X8X8X6.D.D.D.D.D.D.B.D.D.D.M.D.D.1.Z Z X.X.X.3 # = , i J H x x u > V -.8X8X8X8X8X8X8X8X8X8X8X8X8X8X",
"8X8X8X8X8X8X8X8X8X8X8X8X8X8X8X8X8X8X8X8X8X8X8X8X8X8X8X8X8X8X8X-.c.D.D.D.D.D.D.D.D.D.D.D.D.D.j.h.X.X.X.X.V $ ; x H H v 8 > F m X.V Z 8X8X8X8X8X8X8X8X8X8X8X8X8X8X",
"8X8X8X8X8X8X8X8X8X8X8X8X8X8X8X8X8X8X8X8X8X8X8X8X8X8X8X8X8X8X6.D.D.D.D.D.D.D.D.D.D.D.D.D.D.M.M.k.B X.X.X.3 : F H m 8 1 > F A M X.X.z 8X8X8X8X8X8X8X8X8X8X8X8X8X8X",
"8X8X8X8X8X8X8X8X8X8X8X8X8X8X8X8X8X8X8X8X8X8X8X8X8X8X8X8X8X>.D.D.D.D.D.D.D.D.D.D.D.D.D.D.D.D.D.k.B X.X.X.; i m 8 1 < > F H v X.X.X.N 8X8X8X8X8X8X8X8X8X8X8X8X8X8X",
"8X8X8X8X8X8X8X8X8X8X8X8X8X8X8X8X8X8X8X8X8X8X8X8X8X8X8X8X8Xh.D.D.D.D.D.D.D.D.D.D.D.D.D.D.D.D.D.k.B X.X.X.1 ; 1 1 < > F Y p M X.X.X.V 8X8X8X8X8X8X8X8X8X8X8X8X8X8X",
"8X8X8X8X8X8X8X8X8X8X8X8X8X8X8X8X8X8X8X8X8X8X8X8X8X8X8X8X8X%.D.D.D.D.D.D.D.D.D.D.D.D.D.D.D.D.D.>.l N Z b % 1 1 < > m Y d n X.X.X.X.V 8X8X8X8X8X8X8X8X8X8X8X8X8X8X",
"8X8X8X8X8X8X8X8X8X8X8X8X8X8X8X8X8X8X8X8X8X8X8X8X8X8X8X8X8X8Xh.D.D.D.D.D.D.D.D.D.D.D.D.D.D.D.D.=.8X8X8X* % < = , F Y p x Z X.X.X.X.X.z 8X8X8X8X8X8X8X8X8X8X8X8X8X",
"8X8X8X8X8X8X8X8X8X8X8X8X8X8X8X8X8X8X8X8X8X8X8X8X8X8X8X8X8X7 +.M.D.D.D.D.D.D.D.D.D.D.D.D.D.D.D.=.8X8X8X+ = 4 i H Y x : g l N N N Z X.N 8X8X8X8X8X8X8X8X8X8X8X8X8X",
"8X8X8X8X8X8X8X8X8X8X8X8X8X8X8X8X8X8X8X8X8X8X8X8X8X8X8X8X8XG n B >.M.D.D.D.D.D.D.D.D.D.D.D.D.D.+.8X8X8X# 2 x h F v = 8X8X8X8X8X8Xl N N 8X8X8X8X8X8X8X8X8X8X8X8X8X",
"8X8X8X8X8X8X8X8X8X8X8X8X8X8X8X8X8X8X8X8X8X8X8X8X8X8X8X8X8XY J f z C Z O.=.1.h.h.k.c.c.c.D.D.M.| 8X8X$ 1 2 x G F 1 * 8X8X8X8X8X8X8X8Xl 8X8X8X8X8X8X8X8X8X8X8X8X8X",
"8X8X8X8X8X8X8X8X8X8X8X8X8X8X8X8X8X8X8X8X8X8X8X8X8X8X8X8XA 9.9.J g 5 6 z 5 6 8X8X8X8X8X8X:.>.>.8X8X$ 1 e G Y Y Y x = 8X8X8X8X8X8X8X8X8X8X8X8X8X8X8X8X8X8X8X8X8X8X",
"8X8X8X8X8X8X8X8X8X8X8X8X8X8X8X8X8X8X8X8X8X8X8X8X8X8X8XA 8.9.9.9.P h 5 5 8X8X8X8X8X8X8X8X8X8X8X8Xo < 2 G Y Y Y Y Y F u 8X8X8X8X8X8X8X8X8X8X8X8X8X8X8X8X8X8X8X8X8X",
"8X8X8X8X8X8X8X8X8X8X8X8X8X8X8X8X8X8X8X8X8X8X8X8X8X8Xu R 9.9.9.9.9.Y n : 8X8X8X8X8X8X8X8X8X8X8X8XX 8 e d G G J Y Y Y G 7 8X8X8X8X8X8X8X8X8X8X8X8X8X8X8X8X8X8X8X8X",
"8X8X8X8X8X8X8X8X8X8X8X8X8X8X8X8X8X8X8X8X8X8X8X8X8X8Xp 9.9.9.9.9.9.R R 8X8X8X8X8X8X8X8X8X8X8X8X8Xq S S s y w y d A d d P U D t - 8X8X8X8X8X8X8X8X8X8X8X8X8X8X8X8X",
"8X8X8X8X8X8X8X8X8X8X8X8X8X8X8X8X8X8X8X8X8X8X8X8X8X8X7 d Y R Y L H p H A 8X8X8X8X8X8X8X8X8X8X8X8X0 w w w w w q 0 0 0 0 S W W T L s & 8X8X8X8X8X8X8X8X8X8X8X8X8X8X",
"8X8X8X8X8X8X8X8X8X8X8X8X8X8X8X8X8X8X8X8X8X8X8X8X8X8X. a d P Y U H A y q 8X8X8X8X8X8X8X8X8X8X8X8X0 w 0 0 0 - O - 0 0 w w a a a a a - 8X8X8X8X8X8X8X8X8X8X8X8X8X8X",
"8X8X8X8X8X8X8X8X8X8X8X8X8X8X8X8X8X8X8X8X8X8X8X8X8X8X  y a T y.9.U U S s t w 8X8X8X8X8X8X8X8X8X8X8X8X8X8X8X8X8X8X8X8X8X8X8X8X8X8X8X8X8X8X8X8X8X8X8X8X8X8X8X8X8X8X",
"8X8X8X8X8X8X8X8X8X8X8X8X8X8X8X8X8X8X8X8X8X8X8X8X8X8X8X& - a T Q p.f.y.Q W S w 8X8X8X8X8X8X8X8X8X8X8X8X8X8X8X8X8X8X8X8X8X8X8X8X8X8X8X8X8X8X8X8X8X8X8X8X8X8X8X8X8X",
"8X8X8X8X8X8X8X8X8X8X8X8X8X8X8X8X8X8X8X8X8X8X8X8X8X8X8X8XO - w w a a r w w w 0 8X8X8X8X8X8X8X8X8X8X8X8X8X8X8X8X8X8X8X8X8X8X8X8X8X8X8X8X8X8X8X8X8X8X8X8X8X8X8X8X8X"
};
