/* XPM */
static char *result[] = {
/* columns rows colors chars-per-pixel */
"80 80 216 2 ",
"   c #4A1A17",
".  c #531C1B",
"X  c #472318",
"o  c #53231D",
"O  c #572A25",
"+  c #592C26",
"@  c #5C2D2A",
"#  c #463026",
"$  c #5D312C",
"%  c #583929",
"&  c #552E34",
"*  c #463A33",
"=  c #5D3535",
"-  c #583A3B",
";  c #5D393C",
":  c #60312F",
">  c #623131",
",  c #623938",
"<  c #693E3C",
"1  c #49413E",
"2  c #5C463D",
"3  c #68463A",
"4  c #714E3E",
"5  c #4A3E4A",
"6  c #5A3C42",
"7  c #623C42",
"8  c #434344",
"9  c #4C444C",
"0  c #4C4B4D",
"q  c #594646",
"w  c #5D444B",
"e  c #4F504F",
"r  c #4E4E51",
"t  c #574D56",
"y  c #525255",
"u  c #54545B",
"i  c #5B535D",
"p  c #58585E",
"a  c #6B4E44",
"s  c #61434B",
"d  c #69484B",
"f  c #724848",
"g  c #66524B",
"h  c #725241",
"j  c #71564C",
"k  c #634751",
"l  c #634A54",
"z  c #624E5A",
"x  c #6E5956",
"c  c #61535E",
"v  c #735B55",
"b  c #785956",
"n  c #7C5D5B",
"m  c #776058",
"M  c #7C615C",
"N  c #5D5561",
"B  c #5C5C64",
"V  c #5F5F6B",
"C  c #635563",
"Z  c #635866",
"A  c #6A5962",
"S  c #655B6B",
"D  c #685D6E",
"F  c #675F70",
"G  c #63616A",
"H  c #7C6667",
"J  c #666471",
"K  c #6A6273",
"L  c #6B6A76",
"P  c #6D6C7B",
"I  c #716D74",
"U  c #706E7E",
"Y  c #76747B",
"T  c #8C0606",
"R  c #9C0000",
"E  c #930909",
"W  c #851717",
"Q  c #941C1E",
"!  c #A31111",
"~  c #872B2D",
"^  c #982A2C",
"/  c #AD3731",
"(  c #BA7B21",
")  c #9C3E42",
"_  c #974A50",
"`  c #8A5257",
"'  c #805E5E",
"]  c #A05356",
"[  c #82645F",
"{  c #936656",
"}  c #967554",
"|  c #8D5B62",
" . c #A25C61",
".. c #836262",
"X. c #886866",
"o. c #8D6B66",
"O. c #8D6D69",
"+. c #976668",
"@. c #936E6C",
"#. c #8D756D",
"$. c #95726D",
"%. c #98736F",
"&. c #9C6B71",
"*. c #8D7474",
"=. c #89767B",
"-. c #967473",
";. c #9C7574",
":. c #937D77",
">. c #9B7B76",
",. c #9D7C7B",
"<. c #AC726D",
"1. c #A47479",
"2. c #A47C7C",
"3. c #AA7E7E",
"4. c #9B8276",
"5. c #9B847A",
"6. c #A4877D",
"7. c #B38A77",
"8. c #C58473",
"9. c #737282",
"0. c #7B7B86",
"q. c #7E7E89",
"w. c #867B82",
"e. c #9B7C82",
"r. c #A47883",
"t. c #AA7C82",
"y. c #82838C",
"u. c #8A878C",
"i. c #998484",
"p. c #8C8C92",
"a. c #8B8B95",
"s. c #988B92",
"d. c #939396",
"f. c #9B9396",
"g. c #95959B",
"h. c #99999E",
"j. c #A58382",
"k. c #AB8485",
"l. c #AB8D84",
"z. c #A58988",
"x. c #AD8B8B",
"c. c #B48384",
"v. c #B18F85",
"b. c #B18D8D",
"n. c #AC9183",
"m. c #AE918C",
"M. c #B29486",
"N. c #B4958C",
"B. c #B89389",
"V. c #B69C8B",
"C. c #BC9C8D",
"Z. c #AA8D91",
"A. c #BE8E91",
"S. c #A49999",
"D. c #B49494",
"F. c #B99694",
"G. c #B69A90",
"H. c #BC9B94",
"J. c #BB9A9A",
"K. c #B6A08B",
"L. c #A9A19E",
"P. c #BEA391",
"I. c #B7A59B",
"U. c #9C9CA1",
"Y. c #AA9FA2",
"T. c #A4A4A5",
"R. c #ACA6A6",
"E. c #A5A5AB",
"W. c #AEABAC",
"Q. c #B7AFAD",
"!. c #AAAAB1",
"~. c #B3B2B4",
"^. c #B6B6B9",
"/. c #C09D8F",
"(. c #C39F94",
"). c #C19E9D",
"_. c #C3A393",
"`. c #C8A596",
"'. c #C9AA96",
"]. c #C5A499",
"[. c #C6A99A",
"{. c #CDAC9C",
"}. c #C7B095",
"|. c #CEB19C",
" X c #D1B39D",
".X c #D5B99E",
"XX c #C09FA0",
"oX c #C5A4A4",
"OX c #CBABA4",
"+X c #CBB0A5",
"@X c #D4B3A3",
"#X c #D5BAA3",
"$X c #DBBCA4",
"%X c #D5BCA9",
"&X c #DCC1A4",
"*X c #DFC1A8",
"=X c #E1C3A7",
"-X c #E3C3AA",
";X c #E6C8AB",
":X c #ECCCAE",
">X c #EFD0AF",
",X c #F0CFB0",
"<X c #EFD0B0",
"1X c #F5D4B3",
"2X c #F8D7B5",
"3X c #BDBDC2",
"4X c #C3C2C3",
"5X c #C6C6C8",
"6X c #C9C9CA",
"7X c #CFD0D3",
"8X c LightGray",
"9X c #DCDDDD",
"0X c #DEDFE0",
"qX c #E5E6E6",
"wX c gray96",
"eX c None",
/* pixels */
"eXeXeXeXeXeXeXeXeXeXeXeXeXeXeXeXeXeXeXeXeXeXeXeXeXeXeXeXeXeXeXeXeXeXeXeXeXeXeXeXeXeXeXeXeXeXeXeXeXeXeXeXeXeXeXeXeXeXeXeXeXeXeXeXeXeXeXeXeXeXeXeXeXeXeXeXeXeXeXeX",
"eXeXeXeXeXeXeXeXeXeXeXeXeXeXeXeXeXeXeXeXeXeXeXeXeXeXeXeXeXeXeXeXeXeXeXeXeXeXeXeXeXeXeXeXeXeXeXeXeXeXeXeXeXeXeXeXeXeXeXeXeXeXeXeXeXeXeXeXeXeXeXeXeXeXeXeXeXeXeXeX",
"eXeXeXeXeXeXeXeXeXeXeXeXeXeXeXeXeXeXeXeXeXeXeXeXeXeXeXeXeXeXeXeXeXeXeXeXeXeXeXeXeXeXeXeXeXeXeXeXeXeXeXeXeXeXeXeXeXeXeXeXeXeXeXeXeXeXeXeXeXeXeXeXeXeXeXeXeXeXeXeX",
"eXeXeXeXeXeXeXeXeXeXeXeXeXeXeXeXeXeXeXeXeXeXeXeXeXeXeXeXeXeXeXeXeXeXeXeXeXeXeXeXeXeXeXeXeXeXeXeXeXeXeXeXeXeXeXeXeXeXeXeXeXeXeXeXeXeXeXeXeXeXeXeXeXeXeXeXeXeXeXeX",
"eXeXeXeXeXeXeXeXeXeXeXeXeXeXeXeXeXeXeXeXeXeXeXeXeXeXeXeXeXeXeXeXeXeXeXeXeXeXeXeXeXeXeXeXeXeXeXeXeXeXeXeXeXeXeXeXeXeXeXeXeXeXeXeXeXeXeXeXeXeXeXeXeXeXeXeXeXeXeXeX",
"eXeXeXeXeXeXeXeXeXeXeXeXeXeXeXeXeXeXeXeXeXeXeXeXeXeXeXeXeXeXeXeXeXeXeXeXeXeXeXeXeXeXeXeXeXeXeXeXeXeXeXeXeXeXeXeXeXeXeXeXeXeXeXeXeXeXeXeXeXeXeXeXeXeXeXeXeXeXeXeX",
"eXeXeXeXeXeXeXeXeXeXeXeXeXeXeXeXeXeXeXeXeXeXeXeXeXeXeXeXeXeXeXeXeXeXeXeXeXeXeXeXeXeXeXeXeXeXeXeXeXeXeXeXeXeXeXeXeXeXeXeXeXeXeXeXeXeXeXeXeXeXeXeXeXeXeXeXeXeXeXeX",
"eXeXeXeXeXeXeXeXeXeXeXeXeXeXeXeXeXeXeXeXeXeXeXeXeXeXeXeXeXeXeXeXeXeXeXeXeXeXeXeXeXeXeXeXeXeXeXeXeXeXeXeXeXeXeXeXeX1.eXeXeXeXeXeXeXeXeXeXeXeXeXeXeXeXeXeXeXeXeXeX",
"eXeXeXeXeXeXeXeXeXeXeXeXeXeXeXeXeXeXeXeXeXeXeXeXeXeXeXeXeXeXeXeXeXeXeXeXeXeXeXeXeXeXeXeXeXeXeXeXeXeXeXeXeXeXeXeXk.k.A.c.eXeXeXeXeXeXeXeXeXeXeXeXeXeXeXeXeXeXeXeX",
"eXeXeXeXeXeXeXeXeXeXeXeXeXeXeXeXeXeXeXeXeXeXeXeXeXeXeXeXeXeXeXeXeXeXeXeXeXeXeXeXeXeXeXeXeXeXeXeXeXeX2.eXeXeXeX1.D.b.k.A./.3.eXeXeXeXeXeXeXeXeXeXeXeXeXeXeXeXeXeX",
"eXeXeXeXeXeXeXeXeXeXeXeXeXeXeXeXeXeXeXeXeXeXeXeXeXeXeXeXeXeXeXeXeXeXeXeXeXeXeXeXeXeXeXeXeXeXeXeXeXeXeXt.c._ T ^ t.D.D.k.t.t.2.eXeXeXeXeXeXeXeXeXeXeXeXeXeXeXeXeX",
"eXeXeXeXeXeXeXeXeXeXeXeXeXeXeXeXeXeXeXeXeXeXeXeXeXeXeXeXeXeXeXeXeXeXeXeXeXeXeXeXeXeXeXeXeXeXeXeXeXeXeXeX3.c.) T Q ] t.r.r.1.1.+.eXeXeXeXeXeXeXeXeXeXeXeXeXeXeXeX",
"eXeXeXeXeXeXeXeXeXeXeXeXeXeXeXeXeXeXeXeXeXeXeXeXeXeXeXeXeXeXeXeXeXeXeXeXeXeXeXeXeXeXeXeXeXeXeXeXeXeXeXeXY =.k.<.^ T Q _ 1.r.r.| eXeXeXeXeXeXeXeXeXeXeXeXeXeXeXeX",
"eXeXeXeXeXeXeXeXeXeXeXeXeXeXeXeXeXeXeXeXeXeXeXeXeXeXeXeXeXeXeXeXeXeXeXeXeXeXeXeXeXeXeXeXeXeXeXeX_.#X#Xf.h.9.Y =.k.<.^ E Q _ ` eXeXeXeXeXeXeXeXeXeXeXeXeXeXeXeXeX",
"eXeXeXeXeXeXeXeXeXeXeXeXeXeXeXeXeXeXeXeXeXeXeXeXeXeXeXeXeXeXeXeXeXeXeXeXeXeXeXeXeXeXeXeXeXeXeX#X:X{.R.a.T.p.0.P } <.t. .^ W eXeXeXeXeXeXeXeXeXeXeXeXeXeXeXeXeXeX",
"eXeXeXeXeXeXeXeXeXeXeXeXeXeXeXeXeXeXeXeXeXeXeXeXeXeXeXeXeXeXeXeXeXeXeXeXeXeXeXeX#X$X@X=X;X:X-X,X1XV.~.U.T.T.p.y.} ( { e.k.t.eXeXeXeXeXeXeXeXeXeXeXeXeXeXeXeXeXeX",
"eXeXeXeXeXeXeXeXeXeXeXeXeXeXeXeXeXeXeXeXeXeXeXeXeXeXeXeXeXeXeXeXeXeXeXeXeXeXeX$X1X,X-X:X1X;X X$X>X|.Q.~.g.T.d.p.0.Y I L X.k.k.eXeXeXeXeXeXeXeXeXeXeXeXeXeXeXeXeX",
"eXeXeXeXeXeXeXeXeXeXeXeXeXeXeXeXeXeXeXeXeXeXeXeXeXeXeXeXeXeXeXeXeXeXeXeXeXeX$X1X1X1X1X;X1X1X+Xj.H.#XI.~.d.p.d.u.u.0.h.q.eXeXeX&.eXeXeXeXeXeXeXeXeXeXeXeXeXeXeXeX",
"eXeXeXeXeXeXeXeXeXeXeXeXeXeXeXeXeXeXeXeXeXeXeXeXeXeXeXeXeXeXeXeXeXeXeXeXeX'.:X1X1X1X1X:X:X:X XC.|.;X%X~.W.w.=.y.P Z.%Xi.eXeXeXeXeXeXeXeXeXeXeXeXeXeXeXeXeXeXeXeX",
"eXeXeXeXeXeXeXeXeXeXeXeXeXeXeXeXeXeXeXeXeXeXeXeXeXeXeXeXeXeXeXeXeXeXeXeXeX].$X;X;X;X1X=X=X-X[.@X1X2X=XL.d.~ ! ` y.z.K.P.5.eXeXeXeXeXeXeXeXeXeXeXeXeXeXeXeXeXeXeX",
"eXeXeXeXeXeXeXeXeXeXeXeXeXeXeXeXeXeXeXeXeXeXeXeXeXeXeXeXeXeXeXeXeXeXeXeXb.oXoXOX@X*X;X[._.1X$XH.#X1X,XI.W.;.T ~ u.*.N.M.V.eXeXeXeXeXeXeXeXeXeXeXeXeXeXeXeXeXeXeX",
"eXeXeXeXeXeXeXeXeXeXeXeXeXeXeXeXeXeXeXeXeXeXeXeXeXeXeXeXeXeXeXeXeXeXeXP.@X+X@X=X1X:XOXJ.P.1X1X#XF.#X1X;XQ.W.W W i.K.V.4.V.eXeXeXeXeXeXeXeXeXeXeXeXeXeXeXeXeXeXeX",
"eXeXeXeXeXeXeXeXeXeXeXeXeXeXeXeXeXeXeXeXeXeXeXeXeXeXeXeXeXeXeXeXeXeX}.:X<X>X1X1X=XOXoXF.{.1X1X>X|.F. X1X&XI.Q R @.#X.XN.n.eXeXeXeXeXeXeXeXeXeXeXeXeXeXeXeXeXeXeX",
"eXeXeXeXeXeXeXeXeXeXeXeXeXeXeXeXeXeXeXeXeXeXeXeXeXeXeXeXeXeXeXeXeX}.1X1X1X1X1X*XOXoXJ.F.$X1X1X1X:X|.F.{.:X{.! R { &X.XN.:.eXeXeXeXeXeXeXeXeXeXeXeXeXeXeXeXeXeXeX",
"eXeXeXeXeXeXeXeXeXeXeXeXeXeXeXeXeXeXeXeXeXeXeXeXeXeXeXeXeXeXeXeXV.;X1X1X1X1X*XOXoXoXb.J.$X1X1X1X1X:X@XD.P.$X/ ! 7.#Xl.l.*.eXeXeXeXeXeXeXeXeXeXeXeXeXeXeXeXeXeXeX",
"eXeXeXeXeXeXeXeXeXeXeXeXeXeXeXeXeXeXeXeXeXeXeXeXeXeXeXeXeXeXeXeX X1X1X1X1X=XOXoXoXJ.z.oXOX=X1X1X1X1X:XoXD. X8.<. XM.>.M.6.eXeXeXeXeXeXeXeXeXeXeXeXeXeXeXeXeXeXeX",
"eXeXeXeXeXeXeXeXeXeXeXeXeXeXeXeXeXeXeXeXeXeXeXeXeXeXeXeXeXeXeXb.-X=X`.B.v.F.oXoXJ.z.J.oXoX[.$X1X=X|.=XOXXX(.'.V.G.l.6./.n.eXeXeXeXeXeXeXeXeXeXeXeXeXeXeXeXeXeXeX",
"eXeXeXeXeXeXeXeXeXeXeXeXeXeXeXeXeXeXeXeXeXeXeXeXeXeXeXeXeXeXeXF.{./.(.'.`.H.G.D.,.2.).oXoXoXoX@X{.G.oXoXoXN.M.m.H.M.l._.V.eXeXeXeXeXeXeXeXeXeXeXeXeXeXeXeXeXeXeX",
"eXeXeXeXeXeXeXeXeXeXeXeXeXeXeXeXeXeXeXeXeXeXeXeXeXeXeXeXeXeXk.oX).@X:X1X1X1X$Xn.>.>.j.D.oXoXoXoXoXoXoXoX).j.>.N.[.l.N._.P.:.eXeXeXeXeXeXeXeXeXeXeXeXeXeXeXeXeXeX",
"eXeXeXeXeXeXeXeXeXeXeXeXeXeXeXeXeXeXeXeXeXeXeXeXeXeXeXeXeXeXx.oXoX@X$X=X1X1X1X#Xl.k.x.j.j.D.J.oXoXoXoXoXoXJ.j.N.l.b.D.C._.5.eXeXeXeXeXeXeXeXeXeXeXeXeXeXeXeXeXeX",
"eXeXeXeXeXeXeXeXeXeXeXeXeXeXeXeXeXeXeXeXeXeXeXeXeXeXeXeXeXeXz.oXoXoX@X#X<X1X1X1X#Xm.m.D.x.2.j.x.x.J.).oXoXx.k.2.b.D.b.6.n.4.:.n.V.6.5.5.M.i.U.4X4X5X~.g.eXeXeXeX",
"eXeXeXeXeXeXeXeXeXeXeXeXeXeXeXeXeXeXeXeXeXeXeXeXeXeXeXeXeXeXeXx.oXoXoX+X=X1X1X1X-X XK._.N.2.j.j.j.-.i.>.#.O.@.2.D.b.2.>.n.C._._.C.n.n.C.G.T.5X6X~.T.T.4Xd.eXeXeX",
"eXeXeXeXeXeXeXeXeXeXeXeXeXeXeXeXeXeXeXeXeXeXeXeXeXeXeXeXeXeXeXeXk.D.).oXoX@X=X-X.X#X:X:X%X+Xs.i.,.*.i.z.u.:.j 2.D.3.2.l.C._._._.V.n.n._.G.~.^.h.3XE.a.5Xg.eXeXeX",
"eXeXeXeXeXeXeXeXeXeXeXeXeXeXeXeXeXeXeXeXeXeXeXeXeXeXeXeXeXeXeXeXeXeX,.z.F.).).l._.=X:X%X4X9X0X^.W.g.Y.R.S.eXeX-.k.2.j.D.D.N.N.N.l.5.z.N.5.d.T.g.y.a.U.E.!.eXeXeX",
"eXeXeXeXeXeXeXeXeXeXeXeXeXeXeXeXeXeXeXeXeXeXeXeXeXeXeXeXeXeXeXeXeXeXeXeX@.,.j.,.k.OX[.T.7XwXwXwXqX9X9X8X4X!.eXeX-.j.x.D.D.D.D.D.D.,.>.k.b.i.p.p.h.y.g.E.a.eXeXeX",
"eXeXeXeXeXeXeXeXeXeXeXeXeXeXeXeXeXeXeXeXeXeXeXeXeXeXeXeXeXeXeXeXeXeXeXeX,.b.D.z.z.D.z.h.8XqXwXwXqX4XT.!.6X3X!.eXeXO.k.D.D.D.D.x.k.-.-.@.>.-.*.0.y.P p.p.P eXeXeX",
"eXeXeXeXeXeXeXeXeXeXeXeXeXeXeXeXeXeXeXeXeXeXeXeXeXeXeXeXeXeXeXeXeXeXeXeXx.D.D.D.D.z.,.=.U.^.9X9X4X6X3Xs.Z.^.!.eXeXeXM -.2.c.,.-.eXeXeXeXeXeXeXeXP y.y.y.eXeXeXeX",
"eXeXeXeXeXeXeXeXeXeXeXeXeXeXeXeXeXeXeXeXeXeXeXeXeXeXeXeXeXeXeXeXeXeXeX>.D.D.D.D.D.D.x.z.Z.s.s.W.6XS.S.~.r.e.w.eXeXeXeXeXeXeXeXeXeXeXeXeXeXeXeXeXeXeXeXeXeXeXeXeX",
"eXeXeXeXeXeXeXeXeXeXeXeXeXeXeXeXeXeXeXeXeXeXeXeXeXeXeXeXeXeXeXeXeXeXeX,.D.D.D.D.D.D.D.D.D.D.z.>.f.E.i.U.e.c.-.eXeXeXeXeXeXeXeXeXeXeXeXeXeXeXeXeXeXeXeXeXeXeXeXeX",
"eXeXeXeXeXeXeXeXeXeXeXeXeXeXeXeXeXeXeXeXeXeXeXeXeXeXeXeXeXeXeXeXeXeXeX,.D.D.D.D.D.D.D.D.D.D.,.j.-.s.Z.*.$.c.k.-.eXeXeXeXeXeXeXeXeXeXeXeXeXeXeXeXeXeXeXeXeXeXeXeX",
"eXeXeXeXeXeXeXeXeXeXeXeXeXeXeXeXeXeXeXeXeXeXeXeXeXeXeXeXeXeXeXeXeXeXeXj.D.D.D.D.D.D.D.D.D.b.,.k.1.D.b.b @.c.c.3.@.eXeXeXeXeXeXeXeXeXeXeXeXeXeXeXeXeXeXeXeXeXeXeX",
"eXeXeXeXeXeXeXeXeXeXeXeXeXeXeXeXeXeXeXeXeXeXeXeXeXeXeXeXeXeXeXeXeXeXeXk.D.D.D.D.D.D.D.D.D.j.j.2.k.D.6.< a 3.c.c.2.eXeXeXeXeXeXeXeXeXeXeXeXeXeXeXeXeXeXeXeXeXeXeX",
"eXeXeXeXeXeXeXeXeXeXeXeXeXeXeXeXeXeXeXeXeXeXeXeXeXeXeXeXeXeXeXeXeXeXO.b.D.D.D.D.D.D.D.D.D.2.x.;.b.D.o.> , o.c.c.3.X.eXeXeXeXeXeXeXeXeXeXeXeXeXeXeXeXeXeXeXeXeXeX",
"eXeXeXeXeXeXeXeXeXeXeXeXeXeXeXeXeXeXeXeXeXeXeXeXeXeXeXeXeXeXeXeXeXeX-.D.D.D.D.D.D.D.D.D.2.j.k.3.D.b.b > > j 3.c.c.$.eXeXeXeXeXeXeXeXeXeXeXeXeXeXeXeXeXeXeXeXeXeX",
"eXeXeXeXeXeXeXeXeXeXeXeXeXeXeXeXeXeXeXeXeXeXeXeXeXeXeXeXeXeXeXeXeXeXj.D.D.D.D.D.D.D.x.2.z.b.2.c.D.j.< > > , o.c.c.2.v eXeXeXeXeXeXeXeXeXeXeXeXeXeXeXeXeXeXeXeXeX",
"eXeXeXeXeXeXeXeXeXeXeXeXeXeXeXeXeXeXeXeXeXeXeXeXeXeXeXeXeXeXeXeXeX-.b.D.D.D.D.D.D.z.2.x.D.2.3.D.D.o.> > > > j 3.c.c.$.eXeXeXeXeXeXeXeXeXeXeXeXeXeXeXeXeXeXeXeXeX",
"eXeXeXeXeXeXeXeXeXeXeXeXeXeXeXeXeXeXeXeXeXeXeXeXeXeXeXeXeXeXeXeXeXj.D.D.D.D.D.D.b.2.2.x.2.3.b.D.b.b : > > > > o.c.c.O.eXeXeXeXeXeXeXeXeXeXeXeXeXeXeXeXeXeXeXeXeX",
"eXeXeXeXeXeXeXeXeXeXeXeXeXeXeXeXeXeXeXeXeXeXeXeXeXeXeXeXeXeXeXeX-.b.D.D.D.D.D.D.F.b.k.3.3.b.D.D.6.< > > > > > 3 ;.c.$.eXeXeXeXeXeXeXeXeXeXeXeXeXeXeXeXeXeXeXeXeX",
"eXeXeXeXeXeXeXeXeXeXeXeXeXeXeXeXeXeXeXeXeXeXeXeXeXeXeXeXeXeXeX@.k.D.D.D.D.D.F._.H.D.D.D.D.D.D.D.@.> > > > > > > b 3.2.eXeXeXeXeXeXeXeXeXeXeXeXeXeXeXeXeXeXeXeXeX",
"eXeXeXeXeXeXeXeXeXeXeXeXeXeXeXeXeXeXeXeXeXeXeXeXeXeXeXeXeXeX@.k.D.D.D.D.D.(.`.`.H.D.D.D.D.D.D.x.< @ > > > > > ; t H 2.[ eXeXeXeXeXeXeXeXeXeXeXeXeXeXeXeXeXeXeXeX",
"eXeXeXeXeXeXeXeXeXeXeXeXeXeXeXeXeXeXeXeXeXeXeXeXeXeXeXeXeX@.k.D.D.D.D.H._.{.@X_.F.D.D.D.D.D.D.>.a o > > > > ; c K C o.>.eXeXeXeXeXeXeXeXeXeXeXeXeXeXeXeXeXeXeXeX",
"eXeXeXeXeXeXeXeXeXeXeXeXeXeXeXeXeXeXeXeXeXeXeXeXeXeXeXeX;.k.D.D.D.D.H.{.@X@X{.H.D.D.D.D.D.D.x...' : O > > > 7 D K K H %.eXeXeXeXeXeXeXeXeXeXeXeXeXeXeXeXeXeXeXeX",
"eXeXeXeXeXeXeXeXeXeXeXeXeXeXeXeXeXeXeXeXeXeXeXeXeXeXeX2.x.D.D.D.D.F.{.@X@X{.H.D.D.D.D.D.D.D.-.n ..' : O > > 7 D K K A o.eXeXeXeXeXeXeXeXeXeXeXeXeXeXeXeXeXeXeXeX",
"eXeXeXeXeXeXeXeXeXeXeXeXeXeXeXeXeXeXeXeXeXeXeXeXeXeX6.N.D.D.D.D.D.`.#X@X{.H.D.D.D.D.D.D.D.x.........' O + : > z K K S ..eXeXeXeXeXeXeXeXeXeXeXeXeXeXeXeXeXeXeXeX",
"eXeXeXeXeXeXeXeXeXeXeXeXeXeXeXeXeXeXeXeXeXeXeXeXeX_.H.D.D.D.D.D._.{.{._.F.D.D.D.D.D.D.D.D.-.M ......d @ = $ + ; c K S v eXeXeXeXeXeXeXeXeXeXeXeXeXeXeXeXeXeXeXeX",
"eXeXeXeXeXeXeXeXeXeXeXeXeXeXeXeXeXeXeXeXeXeXeX_.{.@XH.D.D.D.H._._._.H.F.D.D.D.D.D.D.D.D.;.n ......' & c Z N - $ w S F c eXeXeXeXeXeXeXeXeXeXeXeXeXeXeXeXeXeXeXeX",
"eXeXeXeXeXeXeXeXeXeXeXeXeXeXeXeXeXeXeXeXeX_.{.@X@X@X].D.D.D.D.H.F.D.D.D.D.D.D.D.D.D.D.6.M ........b ; k z k s 6 Z K S g eXeXeXeXeXeXeXeXeXeXeXeXeXeXeXeXeXeXeXeX",
"eXeXeXeXeXeXeXeXeXeXeXeXeXeXeXeXeXeXeXeXV.@X@X@X@X@X{.F.D.D.D.D.D.D.D.D.D.D.D.D.D.D.M.O.........n = z Z C s l D K K D x v eXeXeXeXeXeXeXeXeXeXeXeXeXeXeXeXeXeXeX",
"eXeXeXeXeXeXeXeXeXeXeXeXeXeXeXeXeXeXeXeXeX'.@X@X@X@X@X{.F.D.D.D.D.D.D.D.D.D.D.N.N.V.-...........b . > 7 , s D S C K Z v $.1...eXeXm @.;.O.eXeXeXeXeXeXeXeXeXeXeX",
"eXeXeXeXeXeXeXeXeXeXeXeXeXeXeXeXeXeXeXeXeXC.@X@X@X@X@X#X{.].H.D.D.D.D.D.D.D.H._.M.$.............' @ @ , s D S q l K Z v [ c.3.;.$.3.3.@.eXeXeXeXeXeXeXeXeXeXeXeX",
"eXeXeXeXeXeXeXeXeXeXeXeXeXeXeXeXeXeXeXeXeXeX_.@X@X@X@X@X@X#X@X{._._._._._.[._.:.M n ............f + w Z K D q $ l K C n n -.c.c.2.%.X.eXeXeXeXeXeXeXeXeXeXeXeXeX",
"eXeXeXeXeXeXeXeXeXeXeXeXeXeXeXeXeXeXeXeXeXeXeXP.@X@X@X@X@X@X@X@X@X@X{.C.M.4.M 2 % q q x x x b n @ @ w z w 6 $ $ l K A ..[ v ..$.M eXeXeXeXeXeXeXeXeXeXeXeXeXeXeX",
"eXeXeXeXeXeXeXeXeXeXeXeXeXeXeXeXeXeXeXeXeXeXeXeXP.@XC.M.H.C.C.C.M.>.$.o.[ v 2 % eXeXeXeXeXeXeXeXO @ > > > $ $ > l F i eXeXeXeXeXeXeXeXeXeXeXeXeXeXeXeXeXeXeXeXeX",
"eXeXeXeXeXeXeXeXeXeXeXeXeXeXeXeXeXeXeXeXeXeXeXeXeXP.{.4.[ ..........' v g 3 % eXeXeXeXeXeXeXeXeX+ : > > > $ $ , C S t eXeXeXeXeXeXeXeXeXeXeXeXeXeXeXeXeXeXeXeXeX",
"eXeXeXeXeXeXeXeXeXeXeXeXeXeXeXeXeXeXeXeXeXeXeXeXeXeX6.H.#.n ......v g a 3 % eXeXeXeXeXeXeXeXeXeXX @ > > : $ > ; Z Z eXeXeXeXeXeXeXeXeXeXeXeXeXeXeXeXeXeXeXeXeXeX",
"eXeXeXeXeXeXeXeXeXeXeXeXeXeXeXeXeXeXeXeXeXeXeXeXeXeXx *.z.O.M b g a h h 3 eXeXeXeXeXeXeXeXeXeXeXeX. > > $ $ > w Z i eXeXeXeXeXeXeXeXeXeXeXeXeXeXeXeXeXeXeXeXeXeX",
"eXeXeXeXeXeXeXeXeXeXeXeXeXeXeXeXeXeXeXeXeXeXeXeXeXeXi L H m q a h h h 4 % eXeXeXeXeXeXeXeXeXeXeXeX. > $ $ > ; Z Z eXeXeXeXeXeXeXeXeXeXeXeXeXeXeXeXeXeXeXeXeXeXeX",
"eXeXeXeXeXeXeXeXeXeXeXeXeXeXeXeXeXeXeXeXeXeXeXeXeXeXK 9.9.K z a 3 4 4 3 eXeXeXeXeXeXeXeXeXeXeXeX  + $ $ > > k D 6 eXeXeXeXeXeXeXeXeXeXeXeXeXeXeXeXeXeXeXeXeXeXeX",
"eXeXeXeXeXeXeXeXeXeXeXeXeXeXeXeXeXeXeXeXeXeXeXeXeXK 9.9.9.9.P D A k k - eXeXeXeXeXeXeXeXeXeXeXeX. : $ > > ; Z C   eXeXeXeXeXeXeXeXeXeXeXeXeXeXeXeXeXeXeXeXeXeXeX",
"eXeXeXeXeXeXeXeXeXeXeXeXeXeXeXeXeXeXeXeXeXeXeXeXi 9.9.9.9.U K K K K N eXeXeXeXeXeXeXeXeXeXeXeXeX. > > > > s F q o eXeXeXeXeXeXeXeXeXeXeXeXeXeXeXeXeXeXeXeXeXeXeX",
"eXeXeXeXeXeXeXeXeXeXeXeXeXeXeXeXeXeXeXeXeXeXeXu t J 9.9.U K K K L K eXeXeXeXeXeXeXeXeXeXeXeXeXeXO > > > w S Z = O eXeXeXeXeXeXeXeXeXeXeXeXeXeXeXeXeXeXeXeXeXeXeX",
"eXeXeXeXeXeXeXeXeXeXeXeXeXeXeXeXeXeXeXeXeXeXJ L y N J P K L P U U Z eXeXeXeXeXeXeXeXeXeXeXeXeXeX@ = 6 z S Z t w -   eXeXeXeXeXeXeXeXeXeXeXeXeXeXeXeXeXeXeXeXeXeX",
"eXeXeXeXeXeXeXeXeXeXeXeXeXeXeXeXeXeXeXeXeX1 G L 0 8 u K 9.9.9.9.L eXeXeXeXeXeXeXeXeXeXeXeXeXeX& 7 s s l Z F K K S i 5 eXeXeXeXeXeXeXeXeXeXeXeXeXeXeXeXeXeXeXeXeX",
"eXeXeXeXeXeXeXeXeXeXeXeXeXeXeXeXeXeXeXeXeX* q p 8 8 r r N 9.9.U N eXeXeXeXeXeXeXeXeXeXeXeXeXeX9 t N Z Z D D D Z Z i 5 eXeXeXeXeXeXeXeXeXeXeXeXeXeXeXeXeXeXeXeXeX",
"eXeXeXeXeXeXeXeXeXeXeXeXeXeXeXeXeXeXeXeXeXeX# * 8 0 p u 9 t K K eXeXeXeXeXeXeXeXeXeXeXeXeXeXeXeXy u y y r 9 9 8 9 B I J N 0 eXeXeXeXeXeXeXeXeXeXeXeXeXeXeXeXeXeX",
"eXeXeXeXeXeXeXeXeXeXeXeXeXeXeXeXeXeXeXeXeXeXeXX * y J L y * eX9 eXeXeXeXeXeXeXeXeXeXeXeXeXeXeXeXr u r 0 e 0 8 8 8 9 Z Y Y Y J B u eXeXeXeXeXeXeXeXeXeXeXeXeXeXeX",
"eXeXeXeXeXeXeXeXeXeXeXeXeXeXeXeXeXeXeXeXeXeXeXeX* y 0.9.u 0 eXeXeXeXeXeXeXeXeXeXeXeXeXeXeXeXeXeX0 8 8 8 8 8 8 8 8 8 0 0 y y r y 0 eXeXeXeXeXeXeXeXeXeXeXeXeXeXeX",
"eXeXeXeXeXeXeXeXeXeXeXeXeXeXeXeXeXeXeXeXeXeXeXeX# N p.d.L V u r eXeXeXeXeXeXeXeXeXeXeXeXeXeXeXeXeXeXeXeXeXeXeXeXeXeXeXeXeXeXeXeXeXeXeXeXeXeXeXeXeXeXeXeXeXeXeXeX",
"eXeXeXeXeXeXeXeXeXeXeXeXeXeXeXeXeXeXeXeXeXeXeXeX# y L p.p.u.p.L y eXeXeXeXeXeXeXeXeXeXeXeXeXeXeXeXeXeXeXeXeXeXeXeXeXeXeXeXeXeXeXeXeXeXeXeXeXeXeXeXeXeXeXeXeXeXeX",
"eXeXeXeXeXeXeXeXeXeXeXeXeXeXeXeXeXeXeXeXeXeXeXeXeX1 0 0 B G G B y eXeXeXeXeXeXeXeXeXeXeXeXeXeXeXeXeXeXeXeXeXeXeXeXeXeXeXeXeXeXeXeXeXeXeXeXeXeXeXeXeXeXeXeXeXeXeX"
};
