/* XPM */
static char *result[] = {
/* columns rows colors chars-per-pixel */
"80 80 222 2 ",
"   c #281B28",
".  c #392B2E",
"X  c #332B34",
"o  c #460C09",
"O  c #4B0F0F",
"+  c #4C1311",
"@  c #4D1B15",
"#  c #501716",
"$  c #501A17",
"%  c #521D1A",
"&  c #422719",
"*  c #54221D",
"=  c #522A1E",
"-  c #4B2C2B",
";  c #562521",
":  c #582627",
">  c #562922",
",  c #5B2B26",
"<  c #5C2B29",
"1  c #46342D",
"2  c #5C3227",
"3  c #5D322B",
"4  c #5A382D",
"5  c #473B36",
"6  c #5A3734",
"7  c #5F393C",
"8  c #612F2F",
"9  c #61302F",
"0  c #603E2C",
"q  c #623131",
"w  c #633D32",
"e  c #653A37",
"r  c #62393D",
"t  c #50413A",
"y  c #7C4828",
"u  c #664237",
"i  c #694335",
"p  c #6C453B",
"a  c #6E4A3C",
"s  c #704D3E",
"d  c #72513F",
"f  c #463D44",
"g  c #5A3D41",
"h  c #4D3F50",
"j  c #623C41",
"k  c #434343",
"l  c #4A454A",
"z  c #49494B",
"x  c #5F4243",
"c  c #554549",
"v  c #5C444C",
"b  c #4D4D52",
"n  c #564D56",
"m  c #5D4C55",
"M  c #515153",
"N  c #55555A",
"B  c #5D535D",
"V  c #5B5C5D",
"C  c #684644",
"Z  c #62444C",
"A  c #724E42",
"S  c #6C5449",
"D  c #735241",
"F  c #71544A",
"G  c #79594D",
"H  c #634954",
"J  c #644D59",
"K  c #6C5454",
"L  c #63515E",
"P  c #6A595C",
"I  c #755C54",
"U  c #785B53",
"Y  c #7C5E5B",
"T  c #74675E",
"R  c #5B5A63",
"E  c #655664",
"W  c #635965",
"Q  c #6B5A61",
"!  c #665B6B",
"~  c #685B6B",
"^  c #685F70",
"/  c #696366",
"(  c #62626C",
")  c #776769",
"_  c #6A6273",
"`  c #686675",
"'  c #6C6C76",
"]  c #6E6B7B",
"[  c #736971",
"{  c #706E7E",
"}  c #77767B",
"|  c #8C1011",
" . c #961311",
".. c #AB0102",
"X. c #AB1C19",
"o. c #932E2D",
"O. c #8F3B38",
"+. c #B12A24",
"@. c #894E36",
"#. c #9A6337",
"$. c #A37735",
"%. c #8F585B",
"&. c #84655B",
"*. c #906C53",
"=. c #A06559",
"-. c #8E5C61",
";. c #836361",
":. c #856A63",
">. c #896967",
",. c #8D6E6C",
"<. c #94696B",
"1. c #8C746C",
"2. c #957669",
"3. c #876A71",
"4. c #986671",
"5. c #9B6C75",
"6. c #9D6D7A",
"7. c #887977",
"8. c #967171",
"9. c #9A7676",
"0. c #967977",
"q. c #9C7A7A",
"w. c #AF796B",
"e. c #A06F7C",
"r. c #A2727E",
"t. c #A67B7C",
"y. c #A27C7C",
"u. c #9B8579",
"i. c #A1896B",
"p. c #A3837C",
"a. c #A8867B",
"s. c #A5917F",
"d. c #D89E40",
"f. c #737383",
"g. c #7B7B84",
"h. c #7B7C86",
"j. c #897882",
"k. c #A47383",
"l. c #A77B84",
"z. c #858084",
"x. c #83838B",
"c. c #8D8B8D",
"v. c #97898A",
"b. c #8C8B93",
"n. c #8F8F99",
"m. c #928F91",
"M. c #999597",
"N. c #94949B",
"B. c #A48483",
"V. c #AB8585",
"C. c #A68B85",
"Z. c #AB8B84",
"A. c #AC8A8A",
"S. c #B28A87",
"D. c #B28C8C",
"F. c #AD9284",
"G. c #AC908B",
"H. c #B39586",
"J. c #B3948C",
"K. c #BA9789",
"L. c #B49B8A",
"P. c #B99B8D",
"I. c #A89C99",
"U. c #B49493",
"Y. c #BA9594",
"T. c #BC9C93",
"R. c #BD9B9A",
"E. c #BCA38E",
"W. c #ADA49E",
"Q. c #BEA292",
"!. c #B8A499",
"~. c #9B9BA2",
"^. c #9F9FA9",
"/. c #A1A1A5",
"(. c #A5A4AA",
"). c #AAAAAD",
"_. c #B2A9A8",
"`. c #AEAEB3",
"'. c #B2B2B4",
"]. c #BCB7B4",
"[. c #B6B6BB",
"{. c #BABABD",
"}. c #CC9D89",
"|. c #C09E93",
" X c #C09D9C",
".X c #C1A48F",
"XX c #CDAB8E",
"oX c #C3A394",
"OX c #C4A993",
"+X c #C9AB96",
"@X c #C4A499",
"#X c #C8A89A",
"$X c #CBAB9C",
"%X c #D0AF9E",
"&X c #CBB297",
"*X c #CEB29B",
"=X c #D2B49D",
"-X c #D6B99F",
";X c #C5A4A3",
":X c #C8A7A4",
">X c #CCABA3",
",X c #D4B3A3",
"<X c #D6B9A2",
"1X c #DABCA3",
"2X c #DBBCA8",
"3X c #E0BFA7",
"4X c #DEC3A4",
"5X c #E3C4AA",
"6X c #E4C6A8",
"7X c #EBCCAD",
"8X c #EED0AF",
"9X c #EFCFB0",
"0X c #EFD0B0",
"qX c #F5D4B3",
"wX c #F8D7B5",
"eX c #BEBEC1",
"rX c #C7C7C8",
"tX c #D5D2CE",
"yX c #CECED1",
"uX c #D6D7D8",
"iX c #E5E5E6",
"pX c None",
/* pixels */
"pXpXpXpXpXpXpXpXpXpXpXpXpXpXpXpXpXpXpXpXpXpXpXpXpXpXpXpXpXpXpXpXpXpXpXpXpXpXpXpXpXpXpXpXpXpXpXpXpXpXpXpXpXpXpXpXpXpXpXpXpXpXpXpXpXpXpXpXpXpXpXpXpXpXpXpXpXpXpXpX",
"pXpXpXpXpXpXpXpXpXpXpXpXpXpXpXpXpXpXpXpXpXpXpX{.rX~.`.[.pXpXpXpXpXpXpXpXpXpXpXpXpXpXpXpXpXpXpXpXpXpXpXpXpXpXpXpXpXpXpXpXpXpXpXpXpXpXpXpXpXpXpXpXpXpXpXpXpXpXpXpX",
"pXpXpXpXpXpXpXpXpXpXpXpXpXpXpXpXpXpXpXpXpXpX{.iXuXrX`.{.{.pXpXpXpXpXpXpXpXpXpXpXpXpXpXpXpXpXpXpXpXpXpXpXpXpXpXpXpXpXpXpXpXpXpXpXpXpXpXpXpXpXpXpXpXpXpXpXpXpXpXpX",
"pXpXpXpXpXpXpXpXpXpXpXpXpXpXpXpXpXpXpXpXpX[.iXuX{.yX[.(.(.pXpXpXpXpXpXpXpXpXpXpXpXpXpXpXpXpXpXpXpXpXpXpXpXpXpXpXpXpXpXpXpXpXpXpXpXpXpXpXpXpXpXpXpXpXpXpXpXpXpXpX",
"pXpXpXpXpXpXpXpXpXpXpXpXpXpXpXpXpXpXE.$Xm.iXyX~.[.~.n.^.n.pXpXpXpXpXpXpXpXpXpXpXpXpXpXpXpXpXpXpXpXpXpXpXpXpXpXpXpXpXpXpX).).pXpXpXpXpXpXpXpXpXpXpXpXpXpXpXpXpXpX",
"pXpXpXpXpXpXpXpXpXpXpXpXpXpXpXpXpXpX=X_.^.iXyX^.n.~.n.(.b.pXpXpXpXpXpXpXpXpXpXpXpXpXpXpXpXpXpXpXpXpXpXpXpXpXpXpXpXpXpX).rX'.[.N.pXpXpXpXpXpXpXpXpXpXpXpXpXpXpXpX",
"pXpXpXpXpXpXpXpXpXpXpXpXpXpXpXpXpX4X=XI.[.'.{.~.~.[.x.pXpXpXpXpXA.A.A.V.r.4.k.5.pXpXpXpXpXpXpXpXpXpXpXpXpXpXpXpXpXpXx.rX`.x.N.(.~.pXpXpXpXpXpXpXpXpXpXpXpXpXpXpX",
"pXpXpXpXpXpXpXpXpXpXpXpXpXpXpXpXpX=X$XB.I.`.(.~.h.pXpXpXpXpXl.D.l.t.r.r.k.k.k.k.e.pXpXpXpXpXpXpXpXpXpXpXpXpXpXpXpXpX/.eX(.rX{.b.n.g.pXpXpXpXpXpXpXpXpXpXpXpXpXpX",
"pXpXpXpXpXpXpXpXpXpXpXpXpXpXpXpXs.Q.R.;XY. XR.C.,.pXpXpXpX5.r.5.4.e.5.3.3.j.0.6.r.-.pXpXpXpXpXpXpXpXpXpXpXpXpXpXpXx.'.).'.`.b.N.{ pXpXpXpXpXpXpXpXpXpXpXpXpXpXpX",
"pXpXpXpXpXpXpXpXpXpXpXpXpXpXpXpX+XJ.Y.R.R.R.U.q.pXpXpXpX-.6.<.6.6.3.[ *.$.z./.I.3.pXpXpXpXpXpXpXpXpXpXpXpXpXpXpXpXM.).'.'.N.b.h.pXpXpXpXpXpXpXpXpXpXpXpXpXpXpXpX",
"pXpXpXpXpXpXpXpXpXpXpXpXpXpXpX2X<XR.R.V.A.S.F.pXpXpXpXpX%.<.6.5./ g.i.d.&X{./.N.g.pXpXpXpXpXpXpXpXpXpXpXpXpXpXpX*X*X!.I.m.N.b.pXpXpXpXpXpXpXpXpXpXpXpXpXpXpXpXpX",
"pXpXpXpXpXpXpXpXpXpXpXpXpXpX<X2X:X;X;XU.A.J.K.pXpXpXpXpX%.6.k.) ' N.].tXuXyX).f.b.pXpXpXpXpXpXpXpXpXpXpXpXpXpXs.*X4X4X-XH.v.pXpXpXpXpXpXpXpXpXpXpXpXpXpXpXpXpXpX",
"pXpXpXpXpXpXpXpXpXpXpXpXpXpX3X:X;X;X;X;X>X<XpXpXpXpXpXpX4.k.5.L ` c.M.).rXrX'.{.[.b.pXpXpXpXpXpXpXpXpXpXpXpXpXL.OX&X*X*XY.C.pXpXpXpXpXpXpXpXpXpXpXpXpXpXpXpXpXpX",
"pXpXpXpXpXpXpXpXpXpXpXpXpX=X,X;X;X;X;X;X,X=XpXpXpXpXpXpX4.k.<.W h.x.c.M.'.{.(.N.b.c.pXpXpXpXpXpXpXpXpXpXpXpXE.&X&X&XP.B.A.1.pXpXpXpXpXpXpXpXpXpXpXpXpXpXpXpXpXpX",
"pXpXpXpXpXpXpXpXpXpXpXpXpX<X:X;X;X;X;X@X=X+XpXpXpXpXpXpX<.V.y.u.j.x.h.c.x.7.[ [ [ pXpXpXpXpXpXpXpXpXpXpXpXL.<X4X4X<XH.9.:.pXpXpXpXpXpXpXpXpXpXpXpXpXpXpXpXpXpXpX",
"pXpXpXpXpXpXpXpXpXpXpXpXOX$X;X;X;XR.R.<X<X6X8X6X=X=X4XqX6X6X+X5X<XL.} / a y #.#.2.<X+XL.pXpXpXpXpXpXpXpXE.=X4X4X<X@XU.9.pXpXpXpXpXpXpXpXpXpXpXpXpXpXpXpXpXpXpXpX",
"pXpXpXpXpXpXpXpXpXpXpXpXu.R.;X XR.R.$X%XK.5XqXwX7X7X8X7X8X7X2X=XqX7X.X@.y @.#.#.*.#X<XE.L.OXL.pXpXpXpXH.*X4X4X<X@XU.A.pXpXpXpXpXpXpXpXpXpXpXpXpXpXpXpXpXpXpXpXpX",
"pXpXpXpXpXpXpXpXpXpXpXpXpXD.;XR.R.U.J.V.#X6X,X5X0X5X2X7X8X7X7X*X+XoX$XK.u._.W.O. .a.P.G.F.<X=X#X=X-X<X-X=X.X$X@XU.U.9.pXpXpXpXpXpXpXpXpXpXpXpXpXpXpXpXpXpXpXpXpX",
"pXpXpXpXpXpXpXpXpXpXpXpXpXq.S.S.D.V.B.Y.,X2X2X<X,X5X,X>X2X6X7X<XoX#X<X7X2X].b.| ..O.L.H.P.$X$X1X<X#X<X1X$XA.V.J.U.V.pXpXpXpXpXpXpXpXpXpXpXpXpXpXpXpXpXpXpXpXpXpX",
"pXpXpXpXpXpXpXpXpXpXpXpXpXpXpXy.B.U.R.;X;X;X>X,X>X;X,X>X;X#X<X,XT.4XqXwXqX<XM.,.|  .p.$X$XQ.P.*XR.#X$XT.U.S.t.A.A.8.pXpXpXpXpXpXpXpXpXpXpXpXpXpXpXpXpXpXpXpXpXpX",
"pXpXpXpXpXpXpXpXpXpXpXpXpXpXpXpXpXpXS.A.Y.R.;X;X;X;X;X;X;X X1X7X#XT.@X1X7XqX2X!.o...o.!.,X,XF.J.@XT.U.U.U.B.y.B.8.pXpXpXpXpXpXpXpXpXpXpXpXpXpXpXpXpXpXpXpXpXpXpX",
"pXpXpXpXpXpXpXpXpXpXpXpXpXpXpXpXpXpXpXpXpXpXV.S.U. X;X;XR.|.7XwXqX5X#XQ.T.=X7X7Xw.X...=.@X,Xu.B.Y.U.D.D.A.8.9.:.pXpXpXpXpXpXpXpXpXpXpXpXpXpXpXpXpXpXpXpXpXpXpXpX",
"pXpXpXpXpXpXpXpXpXpXpXpXpXpXpXpXpXpXpXpXpXpXpXpXpXy.A.A.D.%XwXwX7XwXqX7X,X@XT.,X5X}.+. .p.#Xs.B.A.l.9.8.8.pXpXpXpXpXpXpXpXpXpXpXpXpXpXpXpXpXpXpXpXpXpXpXpXpXpXpX",
"pXpXpXpXpXpXpXpXpXpXpXpXpXpXpXpXpXpXpXpXpXpXpXpXpXpX9.A.U.>X0XqX2X5XwXwXwX7X<X#X@X<XXX+.@.L.L.p.pXpXpXpXpXpXpXpXpXpXpXpXpXpXpXpXpXpXpXpXpXpXpXpXpXpXpXpXpXpXpXpX",
"pXpXpXpXpXpXpXpXpXpXpXpXpXpXpXpXpXpXpXpXpXpXpXpXpXpXB. XU.@X5XqX5X>X6XqXwXwXqXqX5X$X,X}.=.C.oXpXpXpXpXpXpXpXpXpXpXpXpXpXpXpXpXpXpXpXpXpXpXpXpXpXpXpXpXpXpXpXpXpX",
"pXpXpXpXpXpXpXpXpXpXpXpXpXpXpXpXpXpXpXpXpXpXpXpXpXpXpXU.R. X,X9X7X>X>X2X7XqXwXwXwXqX5X7XQ.C.oXpXpXpXpXpXpXpXpXpXpXpXpXpXpXpXpXpXpXpXpXpXpXpXpXpXpXpXpXpXpXpXpXpX",
"pXpXpXpXpXpXpXpXpXpXpXpXpXpXpXpXpXpXpXpXpXpXpXpXpXpXpXA. XY.;X,X7X5X>X;X>X5XqX6X*X0XwXqX*XQ.H.pXpXpXpXpXpXpXpXpXpXpXpXpXpXpXpXpXpXpXpXpXpXpXpXpXpXpXpXpXpXpXpXpX",
"pXpXpXpXpXpXpXpXpXpXpXpXpXpXpXpXpXpXpXpXpXpXpXpXpXpXpXq. XU. X;X,X5X,X;X;X;X,X#XOX7XqX8XOXZ.p.pXpXpXpXpXpXpXpXpXpXpXpXpXpXpXpXpXpXpXpXpXpXpXpXpXpXpXpXpXpXpXpXpX",
"pXpXpXpXpXpXpXpXpXpXpXpXpXpXpXpXpXpXpXpXpXpXpXpXpXpXpXpXU. XY.;X;X;X;X;X;X;X;X:X>X<X<X<X@XB.9.pXpXpXpXpXpXpXpXpXpXpXpXpXpXpXpXpXpXpXpXpXpXpXpXpXpXpXpXpXpXpXpXpX",
"pXpXpXpXpXpXpXpXpXpXpXpXpXpXpXpXpXpXpXpXpXpXpXpXpXpXpXpX9.Y.Y.R.;X;X;X;X;X;X;X;X;XR.R.U.A.V.:.pXpXpXpXpXpXpXpXpXpXpXpXpXpXpXpXpXpXpXpXpXpXpXpXpXpXpXpXpXpXpXpXpX",
"pXpXpXpXpXpXpXpXpXpXpXpXpXpXpXpXpXpXpXpXpXpXpXpXpXpXpXpXpXq.Y.U.V.A.A.A.U.S.q.q.v.M.3.) ,.1.pXpXpXpXpXpXpXpXpXpXpXpXpXpXpXpXpXpXpXpXpXpXpXpXpXpXpXpXpXpXpXpXpXpX",
"pXpXpXpXpXpXpXpXpXpXpXpXpXpXpXpXpXpXpXpXpXpXpXpXpXpXpXpXpXpX9.B.A.U.U.A.B.9.9.q.c.c.B.) ) U pXpXpXpXpXpXpXpXpXpXpXpXpXpXpXpXpXpXpXpXpXpXpXpXpXpXpXpXpXpXpXpXpXpX",
"pXpXpXpXpXpXpXpXF.p.2.F.#X,X,X,X,X$X#X#XpXpXpXpXpXpXpXpXpXpX,.q.A.U.U.A.q.y.D.C.c.m.A.7.) U pXpXpXpXpXpXpXpXpXpXpXpXpXpXpXpXpXpXpXpXpXpXpXpXpXpXpXpXpXpXpXpXpXpX",
"pXpXpXpXpXpXpX8.>.;.Y :.1.p.@X,X,X,X,X,X$X#XoXpXpXpXpXpXpXpX8.V.q.q.q.9.q.J.V.q.7.c.7.} T I pXpXpXpXpXH.#X#X%X,X,X,X,X,X%X$XoXpXpXpXpXpXpXpXpXpXpXpXpXpXpXpXpXpX",
"pXpXpXpXpXpX,.;.;.&.Y Y Y Y :.p.@X<X,X,X,X,X,X$X|.a.pXpXpX8.V.U.U.U.U.V.H.V.P.$XL.C.C.F.L.y.pXpXu.H.oX#X,X,X,X,X<X,X,X,X$XP.F.K.pXpXpXpXpXpXpXpXpXpXpXpXpXpXpXpX",
"pXpXpXpXpX:.;.;.Y S pXpXpXpXpXI >.Z.@X,X,X,X,X@XU.D.V.q.8.V.U.U.U.U.U.C.oXp.Z.T.#X$X$XoXp.J.p.C.H.P.P.U.T.@X,X,X,X,X,XoX2.:.,.8.pXpXpXpXpXpXpXpXpXpXpXpXpXpXpXpX",
"pXpXpXpXU ;.Y pXpXpXpXpXpXpXpXpXpXpXp.#X,X,X$XU.U.U.U.U.J.U.U.U.U.U.U.H.$Xp.9.V.U.U.T.OX.X+X=XT.U.U.U.U.U.U.@X,X,X,XT.7.pXpXS I S pXpXpXpXpXpXpXpXpXpXpXpXpXpXpX",
"pXpXpXpXI I pXpXpXpXpXpXpXpXpXpXpXpXpXpX#X,X$XY.U.D.U.U.oXU.U.U.U.U.U.U.=XoXA.U.U.P.T.Z.p.B.@X#XJ.U.U.U.U.U.Y.$X,X@X0.pXpXpXpXpXpXpXpXpXpXpXpXpXpXpXpXpXpXpXpXpX",
"pXpXpXpXS pXpXpXpXpXpXpXpXpXpXpXpXpXpXpXpX#X,X@XU.U.D.Y.$XT.U.U.U.U.U.U.#X<X@XU.P.J.y.V.B.D.U.A.u.A.U.U.U.U.U.@X#Xu.pXpXpXpXpXpXpXpXpXpXpXpXpXpXpXpXpXpXpXpXpXpX",
"pXpXpXpXpXpXpXpXpXpXpXpXpXpXpXpXpXpXpXpXpXpX#X,X@XU.A.Z.%X%X#X|.P.P.P.P.L.E.=XH.A.y.A.J.y.U.U.U.H.P.U.U.U.U.U.T.L.pXpXpXpXpXpXpXpXpXpXpXpXpXpXpXpXpXpXpXpXpXpXpX",
"pXpXpXpXpXpXpXpXpXpXpXpXpXpXpXpXpXpXpXpXpXpXpX#X,X#XP.S.P.$X,X,X,X,X,X#X#XT.OXP.p.S.T.Z.:.A.U.T.$X$XT.U.U.U.U.F.0.pXpXpXpXpXpXpXpXpXpXpXpXpXpXpXpXpXpXpXpXpXpXpX",
"pXpXpXpXpXpXpXpXpXpXpXpXpXpXpXpXpXpXpXpXpXpXpXpX#X,X%X#XT.P.T.@X$X%X$X#X#X#X#X@X@X#XL.G q G A.@X<X,X,X#XP.U.A.1.pXpXpXpXpXpXpXpXpXpXpXpXpXpXpXpXpXpXpXpXpXpXpXpX",
"pXpXpXpXpXpXpXpXpXpXpXpXpXpXpXpXpXpXpXpXpXpXpXpXpXoX#X$X$X#X@X|.T.|.|.@X@X@X@X#XP.2.p q < * U p.$X,X,X,X#XS.8.pXpXpXpXpXpXpXpXpXpXpXpXpXpXpXpXpXpXpXpXpXpXpXpXpX",
"pXpXpXpXpXpXpXpXpXpXpXpXpXpXpXpXpXpXpXpXpXpXpXpXpXpXpXpX2.a.P.oX#X>X,X,X$XP.s.2.G 4 8 q ; , q C ,.@X,X$XP.:.pXpXpXpXpXpXpXpXpXpXpXpXpXpXpXpXpXpXpXpXpXpXpXpXpXpX",
"pXpXpXpXpXpXpXpXpXpXpXpXpXpXpXpXpXpXpXpXpXpXpXpXpXpXpXpXpX2 D G &.2.2.2.&.G D D s , q < @ < q q q A <.&.C j E pXpXpXpXpXpXpXpXpXpXpXpXpXpXpXpXpXpXpXpXpXpXpXpXpX",
"pXpXpXpXpXpXpXpXpXpXpXpXpXpXpXpXpXpXpXpXpXpXpXpXpXpXpXpXpX3 D D d d d p a D D D a # ; * = 2 q q q q 8 8 r E _ ! pXpXpXpXpXpXpXpXpXpXpXpXpXpXpXpXpXpXpXpXpXpXpXpX",
"pXpXpXpXpXpXpXpXpXpXpXpXpXpXpXpXpXpXpXpXpXpXpXpXpXpXpXpXpXa D D F F A p D D D D w % : 9 3 2 3 q q q q Z E _ _ _ ! pXpXpXpXpXpXpXpXpXpXpXpXpXpXpXpXpXpXpXpXpXpXpX",
"pXpXpXpXpXpXpXpXpXpXpXpXpXpXpXpXpXpXpXpXpXpXpXpXpXpXpXpXe K Q ) ] ] E K D D D a 2 + < q q q 3 3 q q j ^ _ _ _ _ _ ! pXpXpXpXpXpXpXpXpXpXpXpXpXpXpXpXpXpXpXpXpXpX",
"pXpXpXpXpXpXpXpXpXpXpXpXpXpXpXpXpXpXpXpXpXpXpXpXpXpXpXpXE { f.f.f.f.] ] Q D D i pXpX+ < q q q 3 q q r E _ _ _ _ _ _ W pXpXpXpXpXpXpXpXpXpXpXpXpXpXpXpXpXpXpXpXpX",
"pXpXpXpXpXpXpXpXpXpXpXpXpXpXpXpXpXpXpXpXpXpXpXpXpXpXpXW { f.f.f.f.{ { f.] F d w pXpXpX+ < q q q q q q Z _ _ _ _ _ _ _ R pXpXpXpXpXpXpXpXpXpXpXpXpXpXpXpXpXpXpXpX",
"pXpXpXpXpXpXpXpXpXpXpXpXpXpXpXpXpXpXpXpXpXpXpXpXpXpXpX_ f.f.f.f.f.` f.f.` F a pXpXpXpXpX+ > , q q q q q H ^ _ _ _ _ _ ! pXpXpXpXpXpXpXpXpXpXpXpXpXpXpXpXpXpXpXpX",
"pXpXpXpXpXpXpXpXpXpXpXpXpXpXpXpXpXpXpXpXpXpXpXpXpXpXW f.f.f.f.f.] { f.f.P d 3 pXpXpXpXpXpXpXo # , q q q q Z E _ _ _ _ _ W pXpXpXpXpXpXpXpXpXpXpXpXpXpXpXpXpXpXpX",
"pXpXpXpXpXpXpXpXpXpXpXpXpXpXpXpXpXpXpXpXpXpXpXpXpXpX_ f.f.f.f.f.] f.f.` F i pXpXpXpXpXpXpXpXpXpXo $ < q q q r H ^ _ _ _ ! B pXpXpXpXpXpXpXpXpXpXpXpXpXpXpXpXpXpX",
"pXpXpXpXpXpXpXpXpXpXpXpXpXpXpXpXpXpXpXpXpXpXpXpXpXR ] f.f.f.f.] ] f.f.P p * pXpXpXpXpXpXpXpXpXpXpXpXo $ < q q q Z E _ E j 6 pXpXpXpXpXpXpXpXpXpXpXpXpXpXpXpXpXpX",
"pXpXpXpXpXpXpXpXpXpXpXpXpXpXpXpXpXpXpXpXpXpXpXpXpX! f.f.f.f.f.] f.f.[ A 2 pXpXpXpXpXpXpXpXpXpXpXpXpXpXO ; * 9 q 8 Z ^ H q < pXpXpXpXpXpXpXpXpXpXpXpXpXpXpXpXpXpX",
"pXpXpXpXpXpXpXpXpXpXpXpXpXpXpXpXpXpXpXpXpXpXpXpXW ] f.` _ ] _ ] f.[ S 0 pXpXpXpXpXpXpXpXpXpXpXpXpXpXpX* < + > 9 7 L ! r q ; pXpXpXpXpXpXpXpXpXpXpXpXpXpXpXpXpXpX",
"pXpXpXpXpXpXpXpXpXpXpXpXpXpXpXpXpXpXpXpXpXpXpXW ] ] _ K F K P ] [ u > pXpXpXpXpXpXpXpXpXpXpXpXpXpXpXpX4 3 < 3 7 L _ H q < pXpXpXpXpXpXpXpXpXpXpXpXpXpXpXpXpXpXpX",
"pXpXpXpXpXpXpXpXpXpXpXpXpXpXpXpXpXpXpXpXpXpXpX_ ] ^ K D D D A P u # pXpXpXpXpXpXpXpXpXpXpXpXpXpXpXpXpXW L m m ! _ W r q , pXpXpXpXpXpXpXpXpXpXpXpXpXpXpXpXpXpXpX",
"pXpXpXpXpXpXpXpXpXpXpXpXpXpXpXpXpXpXpXpXpXpX_ _ Q F D D D s p w # pXpXpXpXpXpXpXpXpXpXpXpXpXpXpXpXpXn ! _ _ _ ~ L v q 9 @ pXpXpXpXpXpXpXpXpXpXpXpXpXpXpXpXpXpXpX",
"pXpXpXpXpXpXpXpXpXpXpXpXpXpXpXpXpXpXpXpXpX_ ] Q D D D D s p w # pXpXpXpXpXpXpXpXpXpXpXpXpXpXpXpXpXpX6 m B B J Z v 6 3 , o pXpXpXpXpXpXpXpXpXpXpXpXpXpXpXpXpXpXpX",
"pXpXpXpXpXpXpXpXpXpXpXpXpXpXpXpXpXpXpXpX_ ] Q D D D D D D s , pXpXpXpXpXpXpXpXpXpXpXpXpXpXpXpXpXpXpXpXg Z Z J L 7 3 3 * pXpXpXpXpXpXpXpXpXpXpXpXpXpXpXpXpXpXpXpX",
"pXpXpXpXpXpXpXpXpXpXpXpXpXpXpXpXpXpXpXpX` P D a p D D D D i pXpXpXpXpXpXpXpXpXpXpXpXpXpXpXpXpXpXpXpXh ! _ _ E r q 6 < + pXpXpXpXpXpXpXpXpXpXpXpXpXpXpXpXpXpXpXpX",
"pXpXpXpXpXpXpXpXpXpXpXpXpXpXpXpXpXpXpX_ I a p p A D D D D , pXpXpXpXpXpXpXpXpXpXpXpXpXpXpXpXpXpXpXpX- ! _ E r q Z g < o pXpXpXpXpXpXpXpXpXpXpXpXpXpXpXpXpXpXpXpX",
"pXpXpXpXpXpXpXpXpXpXpXpXpXpXpXpXpXpXE K p p A D D D D D i pXpXpXpXpXpXpXpXpXpXpXpXpXpXpXpXpXpXpXpXpX: j Z j x E m q $ pXpXpXpXpXpXpXpXpXpXpXpXpXpXpXpXpXpXpXpXpX",
"pXpXpXpXpXpXpXpXpXpXpXpXpXpXpXpXpXpXe p s D D D D D D s , pXpXpXpXpXpXpXpXpXpXpXpXpXpXpXpXpXpXpXpXpX: q x L ^ E 7 < o pXpXpXpXpXpXpXpXpXpXpXpXpXpXpXpXpXpXpXpXpX",
"pXpXpXpXpXpXpXpXpXpXpXpXpXpXpXpXpXw a D D D D D D D D 9 pXpXpXpXpXpXpXpXpXpXpXpXpXpXpXpXpXpXpXpXpXpX< m ! ^ ! v q $ pXpXpXpXpXpXpXpXpXpXpXpXpXpXpXpXpXpXpXpXpXpX",
"pXpXpXpXpXpXpXpXpXpXpXpXpXpXpXpXw a D D D D D D D s 2 pXpXpXpXpXpXpXpXpXpXpXpXpXpXpXpXpXpXpXpXpXpX@ 6 H ! W v q < o pXpXpXpXpXpXpXpXpXpXpXpXpXpXpXpXpXpXpXpXpXpX",
"pXpXpXpXpXpXpXpXpXpXpXpXpXpX4 i D D D p s D D s w , pXpXpXpXpXpXpXpXpXpXpXpXpXpXpXpXpXpXpXpXpXpXpX# q Z W v q q < pXpXpXpXpXpXpXpXpXpXpXpXpXpXpXpXpXpXpXpXpXpXpX",
"pXpXpXpXpXpXpXpXpXpXpXpXpXi a D D D p s D D i , pXpXpXpXpXpXpXpXpXpXpXpXpXpXpXpXpXpXpXpXpXpXpXpXpX$ Z W v q q q < pXpXpXpXpXpXpXpXpXpXpXpXpXpXpXpXpXpXpXpXpXpXpX",
"pXpXpXpXpXpXpXpXpXpXpXpXi D D D D p s D D i pXpXpXpXpXpXpXpXpXpXpXpXpXpXpXpXpXpXpXpXpXpXpXpXpXpXpXm W v q q q q < pXpXpXpXpXpXpXpXpXpXpXpXpXpXpXpXpXpXpXpXpXpXpX",
"pXpXpXpXpXpXpXpXpXpXi a D D D D p s D D i pXpXpXpXpXpXpXpXpXpXpXpXpXpXpXpXpXpXpXpXpXpXpXpXpXpXpXg m g q q q q q < o pXpXpXpXpXpXpXpXpXpXpXpXpXpXpXpXpXpXpXpXpXpX",
"pXpXpXpXpXpXpXpXw a D D D D D p s D D a pXpXpXpXpXpXpXpXpXpXpXpXpXpXpXpXpXpXpXpXpXpXpXpXpXpXpX@ ; q q q q q q q q $ pXpXpXpXpXpXpXpXpXpXpXpXpXpXpXpXpXpXpXpXpXpX",
"pXpXpXpXpXpXpXpX4 w i a d a p s D D a 4 pXpXpXpXpXpXpXpXpXpXpXpXpXpXpXpXpXpXpXpXpXpXpXpXpXpXpXpX+ % ; < 8 9 9 < < % o pXpXpXpXpXpXpXpXpXpXpXpXpXpXpXpXpXpXpXpXpX",
"pXpXpXpXpXpXpXpXpXpXpX4 t x x p s D u pXpXpXpXpXpXpXpXpXpXpXpXpXpXpXpXpXpXpXpXpXpXpXpXpXpXpXpXpXf n c - 6 6 6 - v B n k pXpXpXpXpXpXpXpXpXpXpXpXpXpXpXpXpXpXpXpX",
"pXpXpXpXpXpXpXpXpXpXpXc N ` ( B C p pXpXpXpXpXpXpXpXpXpXpXpXpXpXpXpXpXpXpXpXpXpXpXpXpXpXpXpXpXpX5 N N N N M z z M R ' { B n b 1 pXpXpXpXpXpXpXpXpXpXpXpXpXpXpXpX",
"pXpXpXpXpXpXpXpXpXpX5 N x.x.] ( M pXpXpXpXpXpXpXpXpXpXpXpXpXpXpXpXpXpXpXpXpXpXpXpXpXpXpXpXpXpXpX1 z z 5 t 5 l k k k z / h.g.' ( N 5 pXpXpXpXpXpXpXpXpXpXpXpXpXpX",
"pXpXpXpXpXpXpXpXpXpXc j.b.` ` R z pXpXpXpXpXpXpXpXpXpXpXpXpXpXpXpXpXpXpXpXpXpXpXpXpXpXpXpXpXpXpXpXz k 1 & pX& 1 k z z z M M M M M 1 pXpXpXpXpXpXpXpXpXpXpXpXpXpX",
"pXpXpXpXpXpXpXpXpX. W ).~.b.x.} ' ( b pXpXpXpXpXpXpXpXpXpXpXpXpXpXpXpXpXpXpXpXpXpXpXpXpXpXpXpXpXpXpXpXpXpXpXpXpXpXpXpXpXpXpXpXpXpXpXpXpXpXpXpXpXpXpXpXpXpXpXpXpX",
"pXpXpXpXpXpXpXpXpXX N R } } ' / V V z pXpXpXpXpXpXpXpXpXpXpXpXpXpXpXpXpXpXpXpXpXpXpXpXpXpXpXpXpXpXpXpXpXpXpXpXpXpXpXpXpXpXpXpXpXpXpXpXpXpXpXpXpXpXpXpXpXpXpXpXpX",
"pXpXpXpXpXpXpXpXpX  X X l l f X X X X pXpXpXpXpXpXpXpXpXpXpXpXpXpXpXpXpXpXpXpXpXpXpXpXpXpXpXpXpXpXpXpXpXpXpXpXpXpXpXpXpXpXpXpXpXpXpXpXpXpXpXpXpXpXpXpXpXpXpXpXpX"
};
