/* XPM */
static char *result[] = {
/* columns rows colors chars-per-pixel */
"80 80 216 2 ",
"   c #342C34",
".  c #39313B",
"X  c #460C09",
"o  c #4A110F",
"O  c #4D1412",
"+  c #4E1B16",
"@  c #511B17",
"#  c #511D19",
"$  c #462518",
"%  c #53221B",
"&  c #412E25",
"*  c #552321",
"=  c #562827",
"-  c #5A2A26",
";  c #5D2B2A",
":  c #46332D",
">  c #573225",
",  c #5D322B",
"<  c #5A382A",
"1  c #473C39",
"2  c #593634",
"3  c #5D3B3C",
"4  c #612F2E",
"5  c #61312E",
"6  c #613C2E",
"7  c #623232",
"8  c #643E32",
"9  c #663A3B",
"0  c #62393C",
"q  c #7C4828",
"w  c #664334",
"e  c #694437",
"r  c #684739",
"t  c #6B443B",
"y  c #6D4A3C",
"u  c #714F3F",
"i  c #433A4A",
"p  c #543A42",
"a  c #5C3D42",
"s  c #643E42",
"d  c #434343",
"f  c #4B444A",
"g  c #494A4B",
"h  c #5A4448",
"j  c #5C444B",
"k  c #4D4C51",
"l  c #5D4B54",
"z  c #564B59",
"x  c #5C4E5A",
"c  c #515153",
"v  c #54545A",
"b  c #5C575C",
"n  c #654847",
"m  c #6D4B42",
"M  c #61434A",
"N  c #724C43",
"B  c #6D5249",
"V  c #735241",
"C  c #75584B",
"Z  c #634954",
"A  c #624E5A",
"S  c #6D5552",
"D  c #65555D",
"F  c #7B5653",
"G  c #7B6456",
"H  c #5E5460",
"J  c #5A5B64",
"K  c #635563",
"L  c #645A65",
"P  c #6C5C64",
"I  c #655C6B",
"U  c #685F6F",
"Y  c #63626D",
"T  c #6A6269",
"R  c #776768",
"E  c #676475",
"W  c #6A6373",
"Q  c #6B6A75",
"!  c #6E6C7B",
"~  c #736A73",
"^  c #726B77",
"/  c #78767B",
"(  c #8C1011",
")  c #961311",
"_  c #AB0102",
"`  c #AB1C19",
"'  c #932E2D",
"]  c #8F3B38",
"[  c #B12A24",
"{  c #894E36",
"}  c #9A6337",
"|  c #A37735",
" . c #8F585B",
".. c #876859",
"X. c #906C53",
"o. c #A06559",
"O. c #8E5C61",
"+. c #896968",
"@. c #94686D",
"#. c #8C746C",
"$. c #977668",
"%. c #876A71",
"&. c #986671",
"*. c #9B6C75",
"=. c #9D6D7A",
"-. c #837B7A",
";. c #967272",
":. c #9A7676",
">. c #977679",
",. c #9C7A7A",
"<. c #AF796B",
"1. c #A06F7C",
"2. c #A2727E",
"3. c #A67B7C",
"4. c #A37D7D",
"5. c #998379",
"6. c #A1896B",
"7. c #A3827B",
"8. c #AA827E",
"9. c #A38A79",
"0. c #A5917F",
"q. c #D89E40",
"w. c #716F80",
"e. c #737282",
"r. c #7B7B84",
"t. c #7B7C86",
"y. c #897882",
"u. c #A47383",
"i. c #A77B84",
"p. c #868285",
"a. c #83838B",
"s. c #8D8C8D",
"d. c #97898A",
"f. c #8C8B93",
"g. c #8F8F99",
"h. c #928F91",
"j. c #94949B",
"k. c #989598",
"l. c #A48382",
"z. c #AA8585",
"x. c #A48D82",
"c. c #AB8B84",
"v. c #A98789",
"b. c #AC8A8A",
"n. c #B48A87",
"m. c #B28D8C",
"M. c #AC9284",
"N. c #AC908B",
"B. c #B19586",
"V. c #B79A87",
"C. c #B4948C",
"Z. c #BA928B",
"A. c #B59B8A",
"S. c #BA9C8D",
"D. c #A79A98",
"F. c #B49493",
"G. c #BA9594",
"H. c #BC9B94",
"J. c #BD9B9A",
"K. c #BBA38D",
"L. c #ADA49E",
"P. c #BDA291",
"I. c #BAA399",
"U. c #9B9BA2",
"Y. c #9F9FA9",
"T. c #A1A1A5",
"R. c #A5A4AA",
"E. c #AAAAAD",
"W. c #B2A9A8",
"Q. c #AEAEB3",
"!. c #B2B2B4",
"~. c #BCB7B4",
"^. c #B6B6BB",
"/. c #BABABD",
"(. c #C89C8B",
"). c #C09D92",
"_. c #C19D9D",
"`. c #C2A38F",
"'. c #CDAB8E",
"]. c #C3A394",
"[. c #C4A994",
"{. c #C7A897",
"}. c #C9AB95",
"|. c #C4A499",
" X c #C9A79B",
".X c #CCAB9C",
"XX c #D0AF9E",
"oX c #CBB297",
"OX c #CEB29B",
"+X c #D2B49D",
"@X c #D6B99F",
"#X c #C5A4A4",
"$X c #C8A7A4",
"%X c #CCACA3",
"&X c #D0AEA0",
"*X c #D4B3A3",
"=X c #D6B9A2",
"-X c #DABCA4",
";X c #DCBDA8",
":X c #E0BFA7",
">X c #DEC3A4",
",X c #E3C4AA",
"<X c #E4C7A8",
"1X c #EBCCAD",
"2X c #EED0AF",
"3X c #EFCEB0",
"4X c #EFD0B0",
"5X c #F4D4B3",
"6X c #F8D7B5",
"7X c #BEBEC1",
"8X c #C7C7C8",
"9X c #D5D2CE",
"0X c #CECED1",
"qX c #D6D7D8",
"wX c #E5E5E6",
"eX c None",
/* pixels */
"eXeXeXeXeXeXeXeXeXeXeXeXeXeXeXeXeXeXeXeXeXeXeXeXeXeXeXeXeXeXeXeXeXeXeXeXeXeXeXeXeXeXeXeXeXeXeXeXeXeXeXeXeXeXeXeXeXeXeXeXeXeXeXeXeXeXeXeXeXeXeXeXeXeXeXeXeXeXeXeX",
"eXeXeXeXeXeXeXeXeXeXeXeXeXeXeXeXeXeXeXeXeXeXeX/.8XU.Q.^.eXeXeXeXeXeXeXeXeXeXeXeXeXeXeXeXeXeXeXeXeXeXeXeXeXeXeXeXeXeXeXeXeXeXeXeXeXeXeXeXeXeXeXeXeXeXeXeXeXeXeXeX",
"eXeXeXeXeXeXeXeXeXeXeXeXeXeXeXeXeXeXeXeXeXeX/.wXqX8XQ././.eXeXeXeXeXeXeXeXeXeXeXeXeXeXeXeXeXeXeXeXeXeXeXeXeXeXeXeXeXeXeXeXeXeXeXeXeXeXeXeXeXeXeXeXeXeXeXeXeXeXeX",
"eXeXeXeXeXeXeXeXeXeXeXeXeXeXeXeXeXeXeXeXeX^.wXqX/.0X^.R.R.eXeXeXeXeXeXeXeXeXeXeXeXeXeXeXeXeXeXeXeXeXeXeXeXeXeXeXeXeXeXeXeXeXeXeXeXeXeXeXeXeXeXeXeXeXeXeXeXeXeXeX",
"eXeXeXeXeXeXeXeXeXeXeXeXeXeXeXeXeXeXK..Xh.wX0XU.^.U.g.Y.g.eXeXeXeXeXeXeXeXeXeXeXeXeXeXeXeXeXeXeXeXeXeXeXeXeXeXeXeXeXeXeXE.E.eXeXeXeXeXeXeXeXeXeXeXeXeXeXeXeXeXeX",
"eXeXeXeXeXeXeXeXeXeXeXeXeXeXeXeXeXeX+XW.Y.wX0XY.g.U.g.R.f.eXeXeXeXeXeXeXeXeXeXeXeXeXeXeXeXeXeXeXeXeXeXeXeXeXeXeXeXeXeXE.8X!.^.j.eXeXeXeXeXeXeXeXeXeXeXeXeXeXeXeX",
"eXeXeXeXeXeXeXeXeXeXeXeXeXeXeXeXeX>X+XD.^.!./.U.U.^.a.eXeXeXeXeXb.b.b.v.2.&.u.*.eXeXeXeXeXeXeXeXeXeXeXeXeXeXeXeXeXeXa.8XQ.a.j.R.U.eXeXeXeXeXeXeXeXeXeXeXeXeXeXeX",
"eXeXeXeXeXeXeXeXeXeXeXeXeXeXeXeXeX+X.Xl.D.Q.R.U.t.eXeXeXeXeXi.m.i.3.2.2.u.u.u.u.1.eXeXeXeXeXeXeXeXeXeXeXeXeXeXeXeXeXT.7XR.8X/.f.g.r.eXeXeXeXeXeXeXeXeXeXeXeXeXeX",
"eXeXeXeXeXeXeXeXeXeXeXeXeXeXeXeX0.P.J.#XG._.J.v.%.eXeXeXeX*.2.*.&.1.*.%.%.y.>.=.2.O.eXeXeXeXeXeXeXeXeXeXeXeXeXeXeXa.!.E.!.Q.f.g./ eXeXeXeXeXeXeXeXeXeXeXeXeXeXeX",
"eXeXeXeXeXeXeXeXeXeXeXeXeXeXeXeX}.C.G.J.J._.F.,.eXeXeXeXO.=.@.=.=.%.~ X.| p.T.D.%.eXeXeXeXeXeXeXeXeXeXeXeXeXeXeXeXk.E.^.!.j.f.t.eXeXeXeXeXeXeXeXeXeXeXeXeXeXeXeX",
"eXeXeXeXeXeXeXeXeXeXeXeXeXeXeX;X=XJ.G.v.b.n.M.eXeXeXeXeX .@.=.*.T r.6.q.oX/.T.j.r.eXeXeXeXeXeXeXeXeXeXeXeXeXeXeXOXOXI.D.h.k.f.eXeXeXeXeXeXeXeXeXeXeXeXeXeXeXeXeX",
"eXeXeXeXeXeXeXeXeXeXeXeXeXeX=X;X$X#X#XF.v.C.V.eXeXeXeXeX .=.u.R Q k.~.9XqX0XE.r.f.eXeXeXeXeXeXeXeXeXeXeXeXeXeX0.OX>X>X@XB.d.eXeXeXeXeXeXeXeXeXeXeXeXeXeXeXeXeXeX",
"eXeXeXeXeXeXeXeXeXeXeXeXeXeX:X$X#X#X#X#X%X=XeXeXeXeXeXeX&.u.*.D Q s.k.E.8X8X!./.^.f.eXeXeXeXeXeXeXeXeXeXeXeXeXA.[.oXOXOXG.v.eXeXeXeXeXeXeXeXeXeXeXeXeXeXeXeXeXeX",
"eXeXeXeXeXeXeXeXeXeXeXeXeX+X*X#X#X#X#X#X*X+XeXeXeXeXeXeX&.u.@.L t.a.s.k.!./.R.j.f.s.eXeXeXeXeXeXeXeXeXeXeXeXK.oXoXoXS.l.v.#.eXeXeXeXeXeXeXeXeXeXeXeXeXeXeXeXeXeX",
"eXeXeXeXeXeXeXeXeXeXeXeXeX=X$X#X#X#X#X|.+X}.eXeXeXeXeXeX@.z.2.5.y.a.t.s.a.-.~ ~ ~ eXeXeXeXeXeXeXeXeXeXeXeXB.=X>X>X=XB.:.+.eXeXeXeXeXeXeXeXeXeXeXeXeXeXeXeXeXeXeX",
"eXeXeXeXeXeXeXeXeXeXeXeX]..X#X#X#XJ.J.=X=X<X2X<X+X+X>X5X<X<X}.,X=XA./ T y q } } $.=X}.A.eXeXeXeXeXeXeXeXK.+X>X>X=X|.F.:.eXeXeXeXeXeXeXeXeXeXeXeXeXeXeXeXeXeXeXeX",
"eXeXeXeXeXeXeXeXeXeXeXeX5.J.#X_.J.J..XXXZ.,X5X6X1X1X2X1X2X1X;X+X5X1X`.{ q { } } X.{.=XK.A.[.A.eXeXeXeXB.OX>X>X-X|.F.v.eXeXeXeXeXeXeXeXeXeXeXeXeXeXeXeXeXeXeXeXeX",
"eXeXeXeXeXeXeXeXeXeXeXeXeXm.#XJ.J.F.Z.z.{.<X*X,X4X,X;X1X2X1X<XOX}.]..XV.5.W.L.] ) 8.S.N.M.=X+X{.+X@X=X@X+X`..X|.F.F.:.eXeXeXeXeXeXeXeXeXeXeXeXeXeXeXeXeXeXeXeXeX",
"eXeXeXeXeXeXeXeXeXeXeXeXeX,.n.n.m.z.l.G.*X;X;X=X*X,X*X%X;X<X1X=X].{.=X1X-X~.f.( _ ] A.B.S..X.X-X=X X=X-X.Xb.8.C.F.z.eXeXeXeXeXeXeXeXeXeXeXeXeXeXeXeXeXeXeXeXeXeX",
"eXeXeXeXeXeXeXeXeXeXeXeXeXeXeX4.l.F.J.#X#X#X%X*X%X#X*X%X#X X=X*XH.>X5X6X6X=Xk.+.( ) 7..X.XP.K.OXJ. X.XH.F.n.3.b.b.;.eXeXeXeXeXeXeXeXeXeXeXeXeXeXeXeXeXeXeXeXeXeX",
"eXeXeXeXeXeXeXeXeXeXeXeXeXeXeXeXeXeXn.b.G.J.#X#X#X#X#X#X#X_.-X1X XH.{.-X1X5X-XI.' _ ' I.*X*XM.C.|.H.F.F.F.l.4.l.;.eXeXeXeXeXeXeXeXeXeXeXeXeXeXeXeXeXeXeXeXeXeXeX",
"eXeXeXeXeXeXeXeXeXeXeXeXeXeXeXeXeXeXeXeXeXeXz.n.F._.#X#XJ.).1X6X5X,X XP.H.+X1X<X<.` _ o.|.*X5.l.G.F.m.n.b.;.:.+.eXeXeXeXeXeXeXeXeXeXeXeXeXeXeXeXeXeXeXeXeXeXeXeX",
"eXeXeXeXeXeXeXeXeXeXeXeXeXeXeXeXeXeXeXeXeXeXeXeXeX4.b.b.m.XX6X6X1X6X5X1X*X|.H.*X,X(.[ ) 7.[.c.l.b.3.:.;.;.eXeXeXeXeXeXeXeXeXeXeXeXeXeXeXeXeXeXeXeXeXeXeXeXeXeXeX",
"eXeXeXeXeXeXeXeXeXeXeXeXeXeXeXeXeXeXeXeXeXeXeXeXeXeX:.v.F.%X4X5X;X,X5X6X6X1X=X X].=X'.[ { A.V.7.eXeXeXeXeXeXeXeXeXeXeXeXeXeXeXeXeXeXeXeXeXeXeXeXeXeXeXeXeXeXeXeX",
"eXeXeXeXeXeXeXeXeXeXeXeXeXeXeXeXeXeXeXeXeXeXeXeXeXeXl._.F.|.,X5X-X%X;X5X6X6X5X5X,X.X*X(.o.x.].eXeXeXeXeXeXeXeXeXeXeXeXeXeXeXeXeXeXeXeXeXeXeXeXeXeXeXeXeXeXeXeXeX",
"eXeXeXeXeXeXeXeXeXeXeXeXeXeXeXeXeXeXeXeXeXeXeXeXeXeXeXF.J.J.&X3X1X%X#X=X1X5X6X6X6X5X,X<XP.x.].eXeXeXeXeXeXeXeXeXeXeXeXeXeXeXeXeXeXeXeXeXeXeXeXeXeXeXeXeXeXeXeXeX",
"eXeXeXeXeXeXeXeXeXeXeXeXeXeXeXeXeXeXeXeXeXeXeXeXeXeXeXv._.G.#X*X1X,X%X#X%X,X5X<XOX4X6X5X[.P.B.eXeXeXeXeXeXeXeXeXeXeXeXeXeXeXeXeXeXeXeXeXeXeXeXeXeXeXeXeXeXeXeXeX",
"eXeXeXeXeXeXeXeXeXeXeXeXeXeXeXeXeXeXeXeXeXeXeXeXeXeXeX,._.F._.#X%X;X*X#X#X#X*X{.[.1X5X1XP.c.7.eXeXeXeXeXeXeXeXeXeXeXeXeXeXeXeXeXeXeXeXeXeXeXeXeXeXeXeXeXeXeXeXeX",
"eXeXeXeXeXeXeXeXeXeXeXeXeXeXeXeXeXeXeXeXeXeXeXeXeXeXeXeXF._.G.#X#X#X#X#X#X#X#X#X%X=X=X=X|.l.:.eXeXeXeXeXeXeXeXeXeXeXeXeXeXeXeXeXeXeXeXeXeXeXeXeXeXeXeXeXeXeXeXeX",
"eXeXeXeXeXeXeXeXeXeXeXeXeXeXeXeXeXeXeXeXeXeXeXeXeXeXeXeX:.G.G.J.#X#X#X#X#X#X#X#X#XJ.J.F.v.z.+.eXeXeXeXeXeXeXeXeXeXeXeXeXeXeXeXeXeXeXeXeXeXeXeXeXeXeXeXeXeXeXeXeX",
"eXeXeXeXeXeXeXeXeXeXeXeXeXeXeXeXeXeXeXeXeXeXeXeXeXeXeXeXeX,.G.F.z.v.v.v.F.n.4.,.d.k.%.R %.#.eXeXeXeXeXeXeXeXeXeXeXeXeXeXeXeXeXeXeXeXeXeXeXeXeXeXeXeXeXeXeXeXeXeX",
"eXeXeXeXeXeXeX]..X{..X.X*X*X*X*X*X.X.X{.].S.S.eXeXeXeXeXeXeX:.l.v.F.F.b.,.,.z.;.s.d.l.R R F eXeXeXeXeXV.{.{.].eXeXeXeXeXeXeXeXeXeXeXeXeXeXeXeXeXeXeXeXeXeXeXeXeX",
"eXeXeXeXeXC.8.8.8.c.K.{..X*X*X*X*X*X*X*X*X*X*X.X].Z.z.4.eXeX#.,.v.F.F.b.,.,.4.4.s.h.v.-.R G eXeXK.{.*X*X*X*X*X.X{.].P.eXeXeXeXeXeXeXeXeXeXeXeXeXeXeXeXeXeXeXeXeX",
"eXeXeXZ.8.eXeXeXeXeXeXeXM.S.{.*X*X*X*X*X*X*X*X*X*X{.H.C.b.:.4.b.,.,.,.,.b.8.4.,.-.s.-./ G +.c.S.{.{..XXX*X*X*X*X*X.XH.].{.A.eXeXeXeXeXeXeXeXeXeXeXeXeXeXeXeXeXeX",
"eXeXeXeXeXeXeXeXeXeXeXeXeXeXeXS..X*X].]..X*X+X{.].H.G.z.l.4.F.F.F.F.F.F.S.S.N.4.M.x.x.M.V.,.4.C.F.C.F.G.H.{..X*X*X*X{.C.{.eXeXeXeXeXeXeXeXeXeXeXeXeXeXeXeXeXeXeX",
"eXeXeXeXeXeXeXeXeXeXeXeXeXeXeXeXB.].F.F.]..XG.F.F.F.F.m.4.v.F.F.F.F.F.F.F.Z.S.5.]..X.X).z.z.8.z.F.F.F.F.F.F.G. X*X*X*XH.c.eXeXeXeXeXeXeXeXeXeXeXeXeXeXeXeXeXeXeX",
"eXeXeXeXeXeXeXeXeXeXeXeXeXeXeXeXeXz.F.F.].].F.F.F.F.F.F.l.F.F.F.F.F.F.F.F.Z.{.5.b.F.F.l.,.m.m.z.F.F.F.F.F.F.F.F. X*X*XH.;.eXeXeXeXeXeXeXeXeXeXeXeXeXeXeXeXeXeXeX",
"eXeXeXeXeXeXeXeXeXeXeXeXeXeXeXeXeX;.m.F.].G.F.F.F.F.F.C.z.F.F.F.F.F.F.F.F.Z.+Xx.b.F.F.F.m.F.G.H.F.F.F.F.F.F.F.F.H.*X*XH.eXeXeXeXeXeXeXeXeXeXeXeXeXeXeXeXeXeXeXeX",
"eXeXeXeXeXeXeXeXeXeXeXeXeXeXeXeXeXeX,.C.{.H.F.F.F.F.F.).Z.F.F.F.F.F.F.F.F.n.+XK.F.F.F.F.F.G.|.G.b.F.F.F.F.F.F.F.F.{.*X).eXeXeXeXeXeXeXeXeXeXeXeXeXeXeXeXeXeXeXeX",
"eXeXeXeXeXeXeXeXeXeXeXeXeXeXeXeXeXeXeX8..X{.F.F.F.F.F.{.S.F.F.F.F.F.F.F.F.n.`.OXF.F.F.F.F.|.F.l.m.F.F.F.F.F.F.F.F.{.*X{.eXeXeXeXeXeXeXeXeXeXeXeXeXeXeXeXeXeXeXeX",
"eXeXeXeXeXeXeXeXeXeXeXeXeXeXeXeXeXeXeXeXP.XXG.F.F.F.F.{.{.C.F.F.F.F.m.m.Z.Z.S.[.OXP.F.F.G.G.z.z.F.S.].C.F.F.F.F.F.{.*XS.eXeXeXeXeXeXeXeXeXeXeXeXeXeXeXeXeXeXeXeX",
"eXeXeXeXeXeXeXeXeXeXeXeXeXeXeXeXeXeXeXeXeXP. XG.F.F.F.G..X{.).G.G.G.).].{.].G.n.B.}.|.H.m.l.z.F.F.{.*X{.C.F.F.F.F..X*XB.eXeXeXeXeXeXeXeXeXeXeXeXeXeXeXeXeXeXeXeX",
"eXeXeXeXeXeXeXeXeXeXeXeXeXeXeXeXeXeXeXeXeXeXP.{.].G.F.F.G.].{..X.X.X{.H.G.F.F.b.4.4.,.;.F N l.F.F.H.*X*X{.C.F.F.S.{.S.eXeXeXeXeXeXeXeXeXeXeXeXeXeXeXeXeXeXeXeXeX",
"eXeXeXeXeXeXeXeXeXeXeXeXeXeXeXeXeXeXeXeXeXeXeXB.{.{.{.].H.H.C.C.C.C.C.b.b.z.v.C. X.X7.9 7 # N v.F.F.H.XX*X{.].{.{.V.eXeXeXeXeXeXeXeXeXeXeXeXeXeXeXeXeXeXeXeXeXeX",
"eXeXeXeXeXeXeXeXeXeXeXeXeXeXeXeXeXeXeXeXeXeXeXeXeXB.P..X*X*X.X X X{.].C.C.).&X.XV...9 4 % % 7 F 7.m.F.G.{..X.X{.V.eXeXeXeXeXeXeXeXeXeXeXeXeXeXeXeXeXeXeXeXeXeXeX",
"eXeXeXeXeXeXeXeXeXeXeXeXeXeXeXeXeXeXeXeXeXeXeXeXeXeXeXeX9.c.].{..X+X.X.X{.P.B.$.C < + + $ > 7 7 9 F +.l.l.v.4.+.D eXeXeXeXeXeXeXeXeXeXeXeXeXeXeXeXeXeXeXeXeXeXeX",
"eXeXeXeXeXeXeXeXeXeXeXeXeXeXeXeXeXeXeXeXeXeXeXeXeXeXeXeXeXm G ........C G F C V y % , , , > , 7 7 7 7 m 9 m s Z K eXeXeXeXeXeXeXeXeXeXeXeXeXeXeXeXeXeXeXeXeXeXeX",
"eXeXeXeXeXeXeXeXeXeXeXeXeXeXeXeXeXeXeXeXeXeXeXeXeXeXeXeX8 V V V V V w r V V V V 6 X = 7 7 , , 5 7 7 7 0 h M K W W K eXeXeXeXeXeXeXeXeXeXeXeXeXeXeXeXeXeXeXeXeXeX",
"eXeXeXeXeXeXeXeXeXeXeXeXeXeXeXeXeXeXeXeXeXeXeXeXeXeXeXeXy V S T Q P n B V V V t % eXo ; 7 7 7 7 7 7 0 A W W W W W W K eXeXeXeXeXeXeXeXeXeXeXeXeXeXeXeXeXeXeXeXeX",
"eXeXeXeXeXeXeXeXeXeXeXeXeXeXeXeXeXeXeXeXeXeXeXeXeXeXeX8 S T ! e.e.E I Q D V V , eXeXeXO ; 7 7 7 7 7 7 0 K W W W W W W K eXeXeXeXeXeXeXeXeXeXeXeXeXeXeXeXeXeXeXeX",
"eXeXeXeXeXeXeXeXeXeXeXeXeXeXeXeXeXeXeXeXeXeXeXeXeXeXeXn W e.e.e.e.I ! e.U B e o eXeXeXeXO - ; 7 7 7 7 4 0 K W W W W W I x eXeXeXeXeXeXeXeXeXeXeXeXeXeXeXeXeXeXeX",
"eXeXeXeXeXeXeXeXeXeXeXeXeXeXeXeXeXeXeXeXeXeXeXeXeXeXl W e.e.e.e.! W e.e.P V 6 eXeXeXeXeXeXeXX @ - 7 7 7 7 0 Z U W W W W I eXeXeXeXeXeXeXeXeXeXeXeXeXeXeXeXeXeXeX",
"eXeXeXeXeXeXeXeXeXeXeXeXeXeXeXeXeXeXeXeXeXeXeXeXeXeXU e.e.e.e.e.W ! e.Q S 8 eXeXeXeXeXeXeXeXeXeXX # ; 7 7 7 7 M K U W W I x eXeXeXeXeXeXeXeXeXeXeXeXeXeXeXeXeXeX",
"eXeXeXeXeXeXeXeXeXeXeXeXeXeXeXeXeXeXeXeXeXeXeXeXeXH ! e.e.e.e.! E e.e.L t @ eXeXeXeXeXeXeXeXeXeXeXeXX # ; 7 7 7 7 Z W I s 2 eXeXeXeXeXeXeXeXeXeXeXeXeXeXeXeXeXeX",
"eXeXeXeXeXeXeXeXeXeXeXeXeXeXeXeXeXeXeXeXeXeXeXeXeXL e.e.e.e.w.! e.e.~ m % eXeXeXeXeXeXeXeXeXeXeXeXeXeXeXo # ; 7 5 M W Z 7 * eXeXeXeXeXeXeXeXeXeXeXeXeXeXeXeXeXeX",
"eXeXeXeXeXeXeXeXeXeXeXeXeXeXeXeXeXeXeXeXeXeXeXeXL W e.W L L U e.e.~ m % eXeXeXeXeXeXeXeXeXeXeXeXeXeXeX* M a j a 0 A A 7 5 O eXeXeXeXeXeXeXeXeXeXeXeXeXeXeXeXeXeX",
"eXeXeXeXeXeXeXeXeXeXeXeXeXeXeXeXeXeXeXeXeXeXeXb ~ ! W S V V S Q ~ B < eXeXeXeXeXeXeXeXeXeXeXeXeXeXeXeX- M D I K x l 7 7 - eXeXeXeXeXeXeXeXeXeXeXeXeXeXeXeXeXeXeX",
"eXeXeXeXeXeXeXeXeXeXeXeXeXeXeXeXeXeXeXeXeXeXeXZ R W S V V V V D B 6 eXeXeXeXeXeXeXeXeXeXeXeXeXeXeXeXeXh L I K x I K 7 7 % eXeXeXeXeXeXeXeXeXeXeXeXeXeXeXeXeXeXeX",
"eXeXeXeXeXeXeXeXeXeXeXeXeXeXeXeXeXeXeXeXeXeXI D V C V V V V V y 6 eXeXeXeXeXeXeXeXeXeXeXeXeXeXeXeXeX> 3 A A l K W x 7 7 O eXeXeXeXeXeXeXeXeXeXeXeXeXeXeXeXeXeXeX",
"eXeXeXeXeXeXeXeXeXeXeXeXeXeXeXeXeXeXeXeXeXY ! S V V V V V V V 8 eXeXeXeXeXeXeXeXeXeXeXeXeXeXeXeXeXeX> 2 7 7 l I K a 7 ; o eXeXeXeXeXeXeXeXeXeXeXeXeXeXeXeXeXeXeX",
"eXeXeXeXeXeXeXeXeXeXeXeXeXeXeXeXeXeXeXeXL E L V V V V V V V y eXeXeXeXeXeXeXeXeXeXeXeXeXeXeXeXeXeXeXz l a A I A j M , * eXeXeXeXeXeXeXeXeXeXeXeXeXeXeXeXeXeXeXeX",
"eXeXeXeXeXeXeXeXeXeXeXeXeXeXeXeXeXeXeXeXL U K m u V V V V V 8 eXeXeXeXeXeXeXeXeXeXeXeXeXeXeXeXeXeXp K W I I x 3 A M , * eXeXeXeXeXeXeXeXeXeXeXeXeXeXeXeXeXeXeXeX",
"eXeXeXeXeXeXeXeXeXeXeXeXeXeXeXeXeXeXeX! w.~ B m V V V V V y eXeXeXeXeXeXeXeXeXeXeXeXeXeXeXeXeXeXeX+ 3 Z A M 3 j I M 4 O eXeXeXeXeXeXeXeXeXeXeXeXeXeXeXeXeXeXeXeX",
"eXeXeXeXeXeXeXeXeXeXeXeXeXeXeXeXeXeXQ ^ P m y V V V V V V 8 eXeXeXeXeXeXeXeXeXeXeXeXeXeXeXeXeXeXeX+ , 7 7 7 j I L a ; eXeXeXeXeXeXeXeXeXeXeXeXeXeXeXeXeXeXeXeXeX",
"eXeXeXeXeXeXeXeXeXeXeXeXeXeXeXeXeXK P C y y V V V V V V w eXeXeXeXeXeXeXeXeXeXeXeXeXeXeXeXeXeXeXeXeX; 7 7 j I W l 7 * eXeXeXeXeXeXeXeXeXeXeXeXeXeXeXeXeXeXeXeXeX",
"eXeXeXeXeXeXeXeXeXeXeXeXeXeXeXeXeXr V y y V V V V V V w eXeXeXeXeXeXeXeXeXeXeXeXeXeXeXeXeXeXeXeXeXeX- 7 j K I L a ; o eXeXeXeXeXeXeXeXeXeXeXeXeXeXeXeXeXeXeXeXeX",
"eXeXeXeXeXeXeXeXeXeXeXeXeXeXeXeX< e t y V V V V V u w eXeXeXeXeXeXeXeXeXeXeXeXeXeXeXeXeXeXeXeXeXeXeX; j A Z L l 7 - eXeXeXeXeXeXeXeXeXeXeXeXeXeXeXeXeXeXeXeXeXeX",
"eXeXeXeXeXeXeXeXeXeXeXeXeXeXeX> 8 t V V V y V V t 6 eXeXeXeXeXeXeXeXeXeXeXeXeXeXeXeXeXeXeXeXeXeXeXeX2 M 0 l l 7 7 # eXeXeXeXeXeXeXeXeXeXeXeXeXeXeXeXeXeXeXeXeXeX",
"eXeXeXeXeXeXeXeXeXeXeXeXeXeX> w V V V V y y V w eXeXeXeXeXeXeXeXeXeXeXeXeXeXeXeXeXeXeXeXeXeXeXeXeX% 5 7 l l 7 7 ; + eXeXeXeXeXeXeXeXeXeXeXeXeXeXeXeXeXeXeXeXeXeX",
"eXeXeXeXeXeXeXeXeXeXeXeXeX> w V V V V y y u 6 eXeXeXeXeXeXeXeXeXeXeXeXeXeXeXeXeXeXeXeXeXeXeXeXeXeX, 0 l l 7 7 7 ; eXeXeXeXeXeXeXeXeXeXeXeXeXeXeXeXeXeXeXeXeXeXeX",
"eXeXeXeXeXeXeXeXeXeXeXeX< w V V V V r r u ; eXeXeXeXeXeXeXeXeXeXeXeXeXeXeXeXeXeXeXeXeXeXeXeXeXeXeX= j l 7 7 7 7 ; o eXeXeXeXeXeXeXeXeXeXeXeXeXeXeXeXeXeXeXeXeXeX",
"eXeXeXeXeXeXeXeXeX> 5 8 y V V u e w r V , eXeXeXeXeXeXeXeXeXeXeXeXeXeXeXeXeXeXeXeXeXeXeXeXeXeXeXeX# ; 7 7 7 7 7 7 # eXeXeXeXeXeXeXeXeXeXeXeXeXeXeXeXeXeXeXeXeXeX",
"eXeXeXeXeXeXeXeX, e u V u u e 6 w y V w eXeXeXeXeXeXeXeXeXeXeXeXeXeXeXeXeXeXeXeXeXeXeXeXeXeXeXeXo * - ; 5 5 4 ; , * X eXeXeXeXeXeXeXeXeXeXeXeXeXeXeXeXeXeXeXeXeX",
"eXeXeXeXeXeXeXeXeX6 e w n n n r V V w eXeXeXeXeXeXeXeXeXeXeXeXeXeXeXeXeXeXeXeXeXeXeXeXeXeXeXeXeX1 x h = 3 2 2 = j H z k eXeXeXeXeXeXeXeXeXeXeXeXeXeXeXeXeXeXeXeX",
"eXeXeXeXeXeXeXeXeXeXeX2 b Q Y D 3 5 # eXeXeXeXeXeXeXeXeXeXeXeXeXeXeXeXeXeXeXeXeXeXeXeXeXeXeXeXeX1 v v v v c k k c J ! / Y J v g eXeXeXeXeXeXeXeXeXeXeXeXeXeXeXeX",
"eXeXeXeXeXeXeXeXeXeX1 v a.a.! Y : eXeXeXeXeXeXeXeXeXeXeXeXeXeXeXeXeXeXeXeXeXeXeXeXeXeXeXeXeXeXeX: g g 1 1 1 f d d d g T t.r.Q Y b 1 eXeXeXeXeXeXeXeXeXeXeXeXeXeX",
"eXeXeXeXeXeXeXeXeXeXh y.f.E E J 1 eXeXeXeXeXeXeXeXeXeXeXeXeXeXeXeXeXeXeXeXeXeXeXeXeXeXeXeXeXeXeXeXg d & $ eX$ : d g g g c c c c c : eXeXeXeXeXeXeXeXeXeXeXeXeXeX",
"eXeXeXeXeXeXeXeXeXeXL E.U.g.a./ ! Y k eXeXeXeXeXeXeXeXeXeXeXeXeXeXeXeXeXeXeXeXeXeXeXeXeXeXeXeXeXeXeXeXeXeXeXeXeXeXeXeXeXeXeXeXeXeXeXeXeXeXeXeXeXeXeXeXeXeXeXeXeX",
"eXeXeXeXeXeXeXeXeXeXv J / / ^ T b b g eXeXeXeXeXeXeXeXeXeXeXeXeXeXeXeXeXeXeXeXeXeXeXeXeXeXeXeXeXeXeXeXeXeXeXeXeXeXeXeXeXeXeXeXeXeXeXeXeXeXeXeXeXeXeXeXeXeXeXeXeX",
"eXeXeXeXeXeXeXeXeXeX    f f i .       eXeXeXeXeXeXeXeXeXeXeXeXeXeXeXeXeXeXeXeXeXeXeXeXeXeXeXeXeXeXeXeXeXeXeXeXeXeXeXeXeXeXeXeXeXeXeXeXeXeXeXeXeXeXeXeXeXeXeXeXeX"
};
