/* XPM */
static char *result[] = {
/* columns rows colors chars-per-pixel */
"80 80 218 2 ",
"   c #490D0C",
".  c #49120E",
"X  c #4C1211",
"o  c #521C1A",
"O  c #42271A",
"+  c #53221D",
"@  c #4A2827",
"#  c #582825",
"$  c #5C2C2A",
"%  c #45352D",
"&  c #563228",
"*  c #5E322D",
"=  c #5E3B2C",
"-  c #463B37",
";  c #5A3734",
":  c #5B3C3C",
">  c #61302F",
",  c #613A2F",
"<  c #623131",
"1  c #633A37",
"2  c #4D403E",
"3  c #5B413D",
"4  c #654433",
"5  c #65443A",
"6  c #6C453B",
"7  c #6D4A3C",
"8  c #794A30",
"9  c #714E3F",
"0  c #433F46",
"q  c #5E3D42",
"w  c #533D48",
"e  c #623B40",
"r  c #444343",
"t  c #4B4545",
"y  c #4B4B4C",
"u  c #5B4243",
"i  c #544549",
"p  c #5C454A",
"a  c #4C4C51",
"s  c #5C4B53",
"d  c #584D57",
"f  c #515153",
"g  c #56545B",
"h  c #5D535D",
"j  c #5C5C5E",
"k  c #6C4743",
"l  c #62444C",
"z  c #634C4D",
"x  c #724D42",
"c  c #6C544C",
"v  c #6C584B",
"b  c #735241",
"n  c #75564A",
"m  c #604651",
"M  c #644B56",
"N  c #644E59",
"B  c #63515C",
"V  c #6A575A",
"C  c #69565D",
"Z  c #715650",
"A  c #7E5454",
"S  c #745B52",
"D  c #7C5C54",
"F  c #7B5E5A",
"G  c #74675E",
"H  c #555661",
"J  c #5E5462",
"K  c #5B5A64",
"L  c #635562",
"P  c #645964",
"I  c #6A5A62",
"U  c #665C6B",
"Y  c #695E6D",
"T  c #685F70",
"R  c #64646B",
"E  c #6A626A",
"W  c #79686A",
"Q  c #6A6373",
"!  c #6A6875",
"~  c #6E6B7A",
"^  c #756B73",
"/  c #77767B",
"(  c #8C1011",
")  c #961311",
"_  c #AB0102",
"`  c #AB1C19",
"'  c #932E2D",
"]  c #8F3B38",
"[  c #B12A24",
"{  c #894E36",
"}  c #9A6337",
"|  c #A37735",
" . c #8F585B",
".. c #82685B",
"X. c #906C53",
"o. c #A06559",
"O. c #8E5C61",
"+. c #836362",
"@. c #896A68",
"#. c #95666C",
"$. c #8C7369",
"%. c #93716B",
"&. c #9A7668",
"*. c #876A71",
"=. c #986671",
"-. c #9B6C75",
";. c #9D6D7A",
":. c #827B7A",
">. c #957271",
",. c #9A7675",
"<. c #947877",
"1. c #9C7B73",
"2. c #9C7A7A",
"3. c #AF796B",
"4. c #A06F7C",
"5. c #A2727E",
"6. c #A57B7B",
"7. c #A37C7D",
"8. c #9B847A",
"9. c #A1896B",
"0. c #A4837C",
"q. c #A9877D",
"w. c #A5917F",
"e. c #D89E40",
"r. c #737282",
"t. c #7C7B85",
"y. c #7B7C86",
"u. c #897882",
"i. c #A47383",
"p. c #A77B84",
"a. c #868082",
"s. c #84848B",
"d. c #8C8B8D",
"f. c #97898A",
"g. c #8C8B93",
"h. c #8F8F99",
"j. c #928F91",
"k. c #94949B",
"l. c #989598",
"z. c #A58483",
"x. c #AB8585",
"c. c #A58C82",
"v. c #AB8C84",
"b. c #A98789",
"n. c #AC8A8A",
"m. c #B28787",
"M. c #B58B86",
"N. c #B38D8C",
"B. c #A99086",
"V. c #AC9284",
"C. c #B19586",
"Z. c #B89A87",
"A. c #B4958D",
"S. c #BA928C",
"D. c #B49B8A",
"F. c #BA9B8E",
"G. c #A79A98",
"H. c #B49493",
"J. c #BA9594",
"K. c #BC9C93",
"L. c #BD9B9A",
"P. c #BBA38D",
"I. c #ADA49E",
"U. c #BEA292",
"Y. c #B8A499",
"T. c #9B9BA2",
"R. c #9F9FA9",
"E. c #A1A1A5",
"W. c #A5A4AA",
"Q. c #AAAAAD",
"!. c #B2A9A8",
"~. c #AEAEB3",
"^. c #B2B2B4",
"/. c #BCB7B4",
"(. c #B6B6BB",
"). c #BABABD",
"_. c #CC9D89",
"`. c #C19C92",
"'. c #C09D9D",
"]. c #C1A48F",
"[. c #CDAB8E",
"{. c #C3A394",
"}. c #C8A797",
"|. c #C4AA94",
" X c #C9AB95",
".X c #C3A399",
"XX c #C8A89A",
"oX c #CBAB9C",
"OX c #D0AF9E",
"+X c #CBB297",
"@X c #CEB29B",
"#X c #D2B49E",
"$X c #D6B99F",
"%X c #C5A4A3",
"&X c #C8A7A4",
"*X c #CCABA3",
"=X c #D4B4A4",
"-X c #D6B9A2",
";X c #DABCA3",
":X c #DBBCA8",
">X c #E0BFA7",
",X c #DEC3A4",
"<X c #E2C4A6",
"1X c #E3C4AA",
"2X c #E6C9AB",
"3X c #EBCCAD",
"4X c #EED0AF",
"5X c #EFCFB0",
"6X c #EFD0B0",
"7X c #F5D4B3",
"8X c #F8D7B5",
"9X c #BEBEC1",
"0X c #C7C7C8",
"qX c #D5D2CE",
"wX c #CECED1",
"eX c #D6D7D8",
"rX c #E5E5E6",
"tX c None",
/* pixels */
"tXtXtXtXtXtXtXtXtXtXtXtXtXtXtXtXtXtXtXtXtXtXtXtXtXtXtXtXtXtXtXtXtXtXtXtXtXtXtXtXtXtXtXtXtXtXtXtXtXtXtXtXtXtXtXtXtXtXtXtXtXtXtXtXtXtXtXtXtXtXtXtXtXtXtXtXtXtXtXtX",
"tXtXtXtXtXtXtXtXtXtXtXtXtXtXtXtXtXtXtXtXtXtXtX).0XT.~.(.tXtXtXtXtXtXtXtXtXtXtXtXtXtXtXtXtXtXtXtXtXtXtXtXtXtXtXtXtXtXtXtXtXtXtXtXtXtXtXtXtXtXtXtXtXtXtXtXtXtXtXtX",
"tXtXtXtXtXtXtXtXtXtXtXtXtXtXtXtXtXtXtXtXtXtX).rXeX0X~.).).tXtXtXtXtXtXtXtXtXtXtXtXtXtXtXtXtXtXtXtXtXtXtXtXtXtXtXtXtXtXtXtXtXtXtXtXtXtXtXtXtXtXtXtXtXtXtXtXtXtXtX",
"tXtXtXtXtXtXtXtXtXtXtXtXtXtXtXtXtXtXtXtXtX(.rXeX).wX(.W.W.tXtXtXtXtXtXtXtXtXtXtXtXtXtXtXtXtXtXtXtXtXtXtXtXtXtXtXtXtXtXtXtXtXtXtXtXtXtXtXtXtXtXtXtXtXtXtXtXtXtXtX",
"tXtXtXtXtXtXtXtXtXtXtXtXtXtXtXtXtXtXP.oXj.rXwXT.(.T.h.R.h.tXtXtXtXtXtXtXtXtXtXtXtXtXtXtXtXtXtXtXtXtXtXtXtXtXtXtXtXtXtXtXQ.Q.tXtXtXtXtXtXtXtXtXtXtXtXtXtXtXtXtXtX",
"tXtXtXtXtXtXtXtXtXtXtXtXtXtXtXtXtXtX#X!.R.rXwXR.h.T.h.W.g.tXtXtXtXtXtXtXtXtXtXtXtXtXtXtXtXtXtXtXtXtXtXtXtXtXtXtXtXtXtXQ.0X^.(.k.tXtXtXtXtXtXtXtXtXtXtXtXtXtXtXtX",
"tXtXtXtXtXtXtXtXtXtXtXtXtXtXtXtXtX,X#XG.(.^.).T.T.(.s.tXtXtXtXtXn.n.n.b.5.=.i.-.tXtXtXtXtXtXtXtXtXtXtXtXtXtXtXtXtXtXs.0X~.s.k.W.T.tXtXtXtXtXtXtXtXtXtXtXtXtXtXtX",
"tXtXtXtXtXtXtXtXtXtXtXtXtXtXtXtXtX#XoXz.G.~.W.T.y.tXtXtXtXtXp.N.p.7.5.5.i.i.i.i.4.tXtXtXtXtXtXtXtXtXtXtXtXtXtXtXtXtXE.9XW.0X).g.h.t.tXtXtXtXtXtXtXtXtXtXtXtXtXtX",
"tXtXtXtXtXtXtXtXtXtXtXtXtXtXtXtXw.U.L.%XJ.'.L.b.*.tXtXtXtX-.5.-.=.4.-.*.*.u.<.;.5.O.tXtXtXtXtXtXtXtXtXtXtXtXtXtXtXs.^.Q.^.~.g.k./ tXtXtXtXtXtXtXtXtXtXtXtXtXtXtX",
"tXtXtXtXtXtXtXtXtXtXtXtXtXtXtXtX XA.J.L.L.L.H.2.tXtXtXtXO.;.#.;.;.*.^ X.| a.E.G.*.tXtXtXtXtXtXtXtXtXtXtXtXtXtXtXtXl.Q.(.^.k.g.y.tXtXtXtXtXtXtXtXtXtXtXtXtXtXtXtX",
"tXtXtXtXtXtXtXtXtXtXtXtXtXtXtX:X-XL.L.b.n.m.V.tXtXtXtXtX .#.;.-.E r.9.e.+X).E.k.t.tXtXtXtXtXtXtXtXtXtXtXtXtXtXtX@X@XY.G.j.l.g.tXtXtXtXtXtXtXtXtXtXtXtXtXtXtXtXtX",
"tXtXtXtXtXtXtXtXtXtXtXtXtXtX-X:X&X%X%XH.b.A.Z.tXtXtXtXtX .;.i.W ~ l./.qXeXwXQ.r.g.tXtXtXtXtXtXtXtXtXtXtXtXtXtXw.@X,X,X$XC.a.tXtXtXtXtXtXtXtXtXtXtXtXtXtXtXtXtXtX",
"tXtXtXtXtXtXtXtXtXtXtXtXtXtX>X&X%X%X%X%X*X-XtXtXtXtXtXtX=.i.-.B ! d.l.Q.0X0X^.).(.g.tXtXtXtXtXtXtXtXtXtXtXtXtXD.|.+X@X@XJ.b.tXtXtXtXtXtXtXtXtXtXtXtXtXtXtXtXtXtX",
"tXtXtXtXtXtXtXtXtXtXtXtXtX#X=X%X%X%X%X%X=X#XtXtXtXtXtXtX#.i.#.P y.s.d.l.^.).W.k.g.d.tXtXtXtXtXtXtXtXtXtXtXtXP.+X+X+XF.z.b.$.tXtXtXtXtXtXtXtXtXtXtXtXtXtXtXtXtXtX",
"tXtXtXtXtXtXtXtXtXtXtXtXtX-X&X%X%X%X%X.X#X XtXtXtXtXtXtX&.x.6.8.u.s.y.d.s.:.^ ^ ^ tXtXtXtXtXtXtXtXtXtXtXtXC.-X,X,X-XC.,.@.tXtXtXtXtXtXtXtXtXtXtXtXtXtXtXtXtXtXtX",
"tXtXtXtXtXtXtXtXtXtXtXtX{.oX%X%X%XL.L.-X-X<X4X2X#X#X,X7X2X2X X<X-XD./ E 7 8 } } &.-X XD.tXtXtXtXtXtXtXtXP.#X,X,X-X.XH.,.tXtXtXtXtXtXtXtXtXtXtXtXtXtXtXtXtXtXtXtX",
"tXtXtXtXtXtXtXtXtXtXtXtX8.L.%X'.L.L.oXOXS.1X7X8X3X3X4X3X4X3X:X#X7X3X].{ 8 { } } X.XX-XP.D.|.D.tXtXtXtXC.@X,X,X-X.XH.n.tXtXtXtXtXtXtXtXtXtXtXtXtXtXtXtXtXtXtXtXtX",
"tXtXtXtXtXtXtXtXtXtXtXtXtXN.%XL.L.H.S.x.}.2X=X1X6X1X:X3X4X3X2X@X X{.oXZ.8.!.I.] ) q.K.B.V.$X#X}.#X$X-X$X#X].oX.XH.H.,.tXtXtXtXtXtXtXtXtXtXtXtXtXtXtXtXtXtXtXtXtX",
"tXtXtXtXtXtXtXtXtXtXtXtXtX2.m.m.N.x.z.J.=X:X:X-X=X1X=X*X:X1X3X-X{.}.-X3X:X/.g.( _ ] D.C.F.oXoX;X-XXX-X;XoXn.q.A.H.x.tXtXtXtXtXtXtXtXtXtXtXtXtXtXtXtXtXtXtXtXtXtX",
"tXtXtXtXtXtXtXtXtXtXtXtXtXtXtX7.z.H.L.%X%X%X*X=X*X%X=X*X%XXX-X=XK.,X7X8X7X-Xl.@.( ) 0.oXoXU.F.@XL.XXoXK.H.m.6.n.n.>.tXtXtXtXtXtXtXtXtXtXtXtXtXtXtXtXtXtXtXtXtXtX",
"tXtXtXtXtXtXtXtXtXtXtXtXtXtXtXtXtXtXm.n.J.L.%X%X%X%X%X%X%X'.;X3XXXK..X;X3X7X:XY.' _ ' Y.=X=XB.A..XK.H.H.H.z.7.z.>.tXtXtXtXtXtXtXtXtXtXtXtXtXtXtXtXtXtXtXtXtXtXtX",
"tXtXtXtXtXtXtXtXtXtXtXtXtXtXtXtXtXtXtXtXtXtXx.m.H.'.%X%XL.`.3X8X7X1XXXU.K.#X3X2X3.` _ o..X=X8.z.J.H.N.M.n.,.,.+.tXtXtXtXtXtXtXtXtXtXtXtXtXtXtXtXtXtXtXtXtXtXtXtX",
"tXtXtXtXtXtXtXtXtXtXtXtXtXtXtXtXtXtXtXtXtXtXtXtXtX7.n.N.N.OX7X7X3X8X7X3X=X.XK.=X1X_.[ ) 0.}.v.z.n.p.,.>.>.tXtXtXtXtXtXtXtXtXtXtXtXtXtXtXtXtXtXtXtXtXtXtXtXtXtXtX",
"tXtXtXtXtXtXtXtXtXtXtXtXtXtXtXtXtXtXtXtXtXtXtXtXtXtX,.b.H.*X3X7X:X1X8X8X8X3X-XXX.X-X[.[ { D.D.0.tXtXtXtXtXtXtXtXtXtXtXtXtXtXtXtXtXtXtXtXtXtXtXtXtXtXtXtXtXtXtXtX",
"tXtXtXtXtXtXtXtXtXtXtXtXtXtXtXtXtXtXtXtXtXtXtXtXtXtXz.'.J.%X1X7X1X*X2X7X8X8X7X7X1XoX=X_.o.c.{.tXtXtXtXtXtXtXtXtXtXtXtXtXtXtXtXtXtXtXtXtXtXtXtXtXtXtXtXtXtXtXtXtX",
"tXtXtXtXtXtXtXtXtXtXtXtXtXtXtXtXtXtXtXtXtXtXtXtXtXtXtXH.L.'.=X5X3X*X*X:X3X7X8X8X8X7X1X2XU.c.{.tXtXtXtXtXtXtXtXtXtXtXtXtXtXtXtXtXtXtXtXtXtXtXtXtXtXtXtXtXtXtXtXtX",
"tXtXtXtXtXtXtXtXtXtXtXtXtXtXtXtXtXtXtXtXtXtXtXtXtXtXtXb.'.J.%X=X3X1X*X%X*X1X7X<X@X5X8X7X@XU.C.tXtXtXtXtXtXtXtXtXtXtXtXtXtXtXtXtXtXtXtXtXtXtXtXtXtXtXtXtXtXtXtXtX",
"tXtXtXtXtXtXtXtXtXtXtXtXtXtXtXtXtXtXtXtXtXtXtXtXtXtXtX2.%XH.'.%X=X1X=X%X%X%X=X}.|.3X7X4X|.v.0.tXtXtXtXtXtXtXtXtXtXtXtXtXtXtXtXtXtXtXtXtXtXtXtXtXtXtXtXtXtXtXtXtX",
"tXtXtXtXtXtXtXtXtXtXtXtXtXtXtXtXtXtXtXtXtXtXtXtXtXtXtXtXH.'.J.%X%X%X%X%X%X%X%X&XOX-X-X-X.Xz.,.tXtXtXtXtXtXtXtXtXtXtXtXtXtXtXtXtXtXtXtXtXtXtXtXtXtXtXtXtXtXtXtXtX",
"tXtXtXtXtXtXtXtXtXtXtXtXtXtXtXtXtXtXtXtXtXtXtXtXtXtXtXtX,.J.J.L.%X%X%X%X%X%X%X%X%XL.L.H.b.x.+.tXtXtXtXtXtXtXtXtXtXtXtXtXtXtXtXtXtXtXtXtXtXtXtXtXtXtXtXtXtXtXtXtX",
"tXtXtXtXtXtXtXtXtXtXtXtXtXtXtXtXtXtXtXtXtXtXtXtXtXtXtXtXtX2.J.N.x.b.b.b.N.n.0.2.f.l.*.W *.%.tXtXtXtXtXtXtXtXtXtXtXtXtXtXtXtXtXtXtXtXtXtXtXtXtXtXtXtXtXtXtXtXtXtX",
"tXtXtXtXtXtXtXtXtXtXtXtX$.tXtXtXtXtXtXtXtXtXtXtXtXtXtXtXtXtX,.2.b.H.H.n.2.2.x.>.d.f.z.W W D tXtXtXtXtXtXtXtXtXtXtXtXtXtXtXtXtXtXtXtXtXtXtXtXtXtXtXtXtXtXtXtXtXtX",
"tXtXtXtXtXtXtXtXtXtXtXZ 1.tXtXtXtXtXtXtXtXtXtXtXtXtXtXtXtXtX@.2.b.H.H.n.2.2.7.z.d.j.b.:.W S tXtXtXtXtXtXtXtXtXtXtXtXtXtXtXtXtXtXtXtXtXtXtXtXtXtXtXtXtXtXtXtXtXtX",
"tXtXtXtXtXtXtXtXtXtXtXF 1.tXtXtXtXtXtXtXtXtXtXtXtXtXtXtXtXtX>.x.2.2.2.2.n.q.7.z.:.d.:./ G v tXtXtXtXtXtXtXtXtXtXtXtXtXtXtXtXtX7.tXtXtXtXtXtXtXtXtXtXtXtXtXtXtXtX",
"tXtXtXtXtXtXtXtXtXtXZ +.1.tXtXtXtXtXtXtXtXtXtXtXtXtXtXtXtXtXz.H.H.H.H.H.F.A.0.2.B.c.c.B.C.%.+.tXtXtXtXtXtXtXtXtXtXtXtXtXtXtXn.b.tXtXtXtXtXtXtXtXtXtXtXtXtXtXtXtX",
"tXtXtXtXtXtXtXtXtXtXF +.$.q.tXtXtXtXtXtXtXtXtXtXtXtXtXtXv.7.H.H.H.H.H.H.H.A.q.8.}.oX}..XA.z.z.2.7.tXtXtXtXtXtXtXtXtXtXtXz.n.H.z.tXtXtXtXtXtXtXtXtXtXtXtXtXtXtXtX",
"tXtXtXtXtXtXtXtXtXtXF +.@.q.tXtXtXtXtXtXtXtXtXtXtXtXD.F.m.n.H.H.H.H.H.H.H.M.F.v.H.H.H.H.H.n.N.x.x.m.z.z.tXtXtXtX>.,.z.n.H.H.H.z.tXtXtXtXtXtXtXtXtXtXtXtXtXtXtXtX",
"tXtXtXtXtXtXtXtXtXtXF +.+.q.D.tXtXtXtXtXtXtXtXtXC.}..XH.x.H.H.H.H.H.H.H.H.S.{.B.H.H.H.H.H.N.N.N.z.H.H.H.n.b.v.K..X}.K.H.H.H.H.x.tXtXtXtXtXtXtXtXtXtXtXtXtXtXtXtX",
"tXtXtXtXtXtXtXtXtXtXv +.+.1.}.oX{.{.F.B.c.D.F.}.oX}.H.N.N.H.H.H.H.H.H.H.H.S. XA.H.H.H.H.H.b.n.H.x.H.H.H.H.H.H.K.oX=X=X{.A.H.N.2.tXtXtXtXtXtXtXtXtXtXtXtXtXtXtXtX",
"tXtXtXtXtXtXtXtXtXtXtXF +.+.F.=X=X=X=X=X=X=X=X=XXXH.H.N.H.H.H.H.H.H.H.H.H.S.}.A.H.H.H.H.H.b.n.H.n.H.H.H.H.H.H.H.J.oX=X=X{.H.n.tXtXtXtXtXtXtXtXtXtXtXtXtXtXtXtXtX",
"tXtXtXtXtXtXtXtXtXtXtXv F +.,.OX=X=X=X=X=X=X=X}.H.H.H.N.H.H.H.H.H.H.H.H.H.M.oXK.H.H.H.H.H.z.n.H.N.J.H.H.H.H.H.H.H..X=X=X=XK.p.tXtXtXtXtXtXtXtXtXtXtXtXtXtXtXtXtX",
"tXtXtXtXtXtXtXtXtXtXtXtXv F +.A.=X=X=X=X=X=X=XK.H.H.H.N.H.H.H.H.H.H.H.H.H.M.}.}.H.H.H.H.N.7.H.H.K.oX}.K.H.H.H.H.H.F.=X=X=X`.6.tXtXtXtXtXtXtXtXtXtXtXtXtXtXtXtXtX",
"tXtXtXtXtXtXtXtXtXtXtXtXtXv F ,.K.oX-X=X=X=X}.H.H.H.N.H.H.H.H.H.A.F.{.K.H.N.S.oXK.H.H.H.2.A n.H.K.=X=XoXK.H.H.H.H.H.}.=X=X.X%.tXtXtXtXtXtXtXtXtXtXtXtXtXtXtXtXtX",
"tXtXtXtXtXtXtXtXtXtXtXtXtXtXv ..N.F.oX=X=X=X}.H.H.H.N.H.H.H.H.F.}.=X=XOXF.H.m.{.oXK.H.N.D 1 ,.H.K.=X=X=X=X}.A.H.H.H.{.=X=X{.tXtXtXtXtXtXtXtXtXtXtXtXtXtXtXtXtXtX",
"tXtXtXtXtXtXtXtXtXtXtXtXtXtXtXv %.A.}.=X=X=X}.H.H.H.H.H.H.H.F.oX=X=X=X=X{.H.N.M.}.=X{.v.k < A x.A.}.=X=X=X=X}.A.H.H.{.=X=XF.tXtXtXtXtXtXtXtXtXtXtXtXtXtXtXtXtXtX",
"tXtXtXtXtXtXtXtXtXtXtXtXtXtXtXtXS ,.F.-X=X=X}.A.H.H.H.H.H.F.oX=X=X=X=X=X{.H.H.M.M.}.=X}.&.1 <  .x..X-X=X=X=X=X}.A.H.}.=X}.tXtXtXtXtXtXtXtXtXtXtXtXtXtXtXtXtXtXtX",
"tXtXtXtXtXtXtXtXtXtXtXtXtXtXtXtXtXS 0.oX=X=X=XF.H.H.H.H.F.oX=X=X=X=X=X=XK.H.H.H.N.6.1.1.6 < < < A n.OX=X=X=X=X=X}.{.=X=XD.tXtXtXtXtXtXtXtXtXtXtXtXtXtXtXtXtXtXtX",
"tXtXtXtXtXtXtXtXtXtXtXtXtXtXtXtXtXtXtXC.=X=X=X}.F.H.H.F.oX=X=X=X=X=X=XoXJ.H.H.H.b.x $ < < < < < < D v.=X=X=X=X=X=X=X=XD.tXtXtXtXtXtXtXtXtXtXtXtXtXtXtXtXtXtXtXtX",
"tXtXtXtXtXtXtXtXtXtXtXtXtXtXtXtXtXtXtXtXv.{.oX=X=X}.{.oX=X=X=X=X=X=X-X}.H.H.H.z.tXtXX $ < < < < < < k %.D.*X=X=X=X}.8.tXtXtXtXtXtXtXtXtXtXtXtXtXtXtXtXtXtXtXtXtX",
"tXtXtXtXtXtXtXtXtXtXtXtXtXtXtXtXtXtXtXtXtXtXq.F.}.=X=X=X=X=X=X=X=X=X#XK.H.b.2.tXtXtXtXX # < < < < < < < k %.6.c.8.W P h tXtXtXtXtXtXtXtXtXtXtXtXtXtXtXtXtXtXtXtX",
"tXtXtXtXtXtXtXtXtXtXtXtXtXtXtXtXtXtXtXtXtXtXtXtX<.8.v.K.}.}.}.}.}.{.V.,.%.n tXtXtXtXtXtXtX+ $ < < < < < < < : h Y Q Q Y h tXtXtXtXtXtXtXtXtXtXtXtXtXtXtXtXtXtXtX",
"tXtXtXtXtXtXtXtXtXtXtXtXtXtXtXtXtXtXtXtXtXtXtXtXtX= n S ........D D n b b = tXtXtXtXtXtXtXtXtX+ $ < < < < < s T Q Q Q Q U tXtXtXtXtXtXtXtXtXtXtXtXtXtXtXtXtXtXtX",
"tXtXtXtXtXtXtXtXtXtXtXtXtXtXtXtXtXtXtXtXtXtXtXtXtX, c Y ! Q Y k 6 b b b 6 tXtXtXtXtXtXtXtXtXtXtXtX+ $ < < < p U Q Q Q Q Q J tXtXtXtXtXtXtXtXtXtXtXtXtXtXtXtXtXtX",
"tXtXtXtXtXtXtXtXtXtXtXtXtXtXtXtXtXtXtXtXtXtXtXtXtX: Y r.r.r.r.N x b b x 1 tXtXtXtXtXtXtXtXtXtXtXtXtXtX+ $ < < p U Q Q U M m tXtXtXtXtXtXtXtXtXtXtXtXtXtXtXtXtXtX",
"tXtXtXtXtXtXtXtXtXtXtXtXtXtXtXtXtXtXtXtXtXtXtXtXi P r.r.r.r.r.! V b b 4 tXtXtXtXtXtXtXtXtXtXtXtXtXtXtXtX. # < 1 N Q Q s < $   tXtXtXtXtXtXtXtXtXtXtXtXtXtXtXtXtX",
"tXtXtXtXtXtXtXtXtXtXtXtXtXtXtXtXtXtXtXtXtXtXtXh Y ! r.! E ! ~ ! c b 4 tXtXtXtXtXtXtXtXtXtXtXtXtXtXtXtX@ : q M M s Q U q < + tXtXtXtXtXtXtXtXtXtXtXtXtXtXtXtXtXtX",
"tXtXtXtXtXtXtXtXtXtXtXtXtXtXtXtXtXtXtXtXtXtXtXz Q ~ I c b c I I 7 4 tXtXtXtXtXtXtXtXtXtXtXtXtXtXtXtXtXd P U L l B Q B < $ . tXtXtXtXtXtXtXtXtXtXtXtXtXtXtXtXtXtX",
"tXtXtXtXtXtXtXtXtXtXtXtXtXtXtXtXtXtXtXtXtXtXU C V I b b b 9 6 5 = tXtXtXtXtXtXtXtXtXtXtXtXtXtXtXtXtXtXs l l L U T Y q < + tXtXtXtXtXtXtXtXtXtXtXtXtXtXtXtXtXtXtX",
"tXtXtXtXtXtXtXtXtXtXtXtXtXtXtXtXtXtXtXtXtXK E Z b b b b b 6 7 & tXtXtXtXtXtXtXtXtXtXtXtXtXtXtXtXtXtXh P Y Y Y N Y B < < X tXtXtXtXtXtXtXtXtXtXtXtXtXtXtXtXtXtXtX",
"tXtXtXtXtXtXtXtXtXtXtXtXtXtXtXtXtXtXtXtXtXP Z b b b b b 6 9 6 tXtXtXtXtXtXtXtXtXtXtXtXtXtXtXtXtXtXtXi L Y C l N Y q < < X tXtXtXtXtXtXtXtXtXtXtXtXtXtXtXtXtXtXtX",
"tXtXtXtXtXtXtXtXtXtXtXtXtXtXtXtXtXtXtXtX4 7 7 b b b b b b b , tXtXtXtXtXtXtXtXtXtXtXtXtXtXtXtXtXtXtXtX* < < l Y h ; < * X tXtXtXtXtXtXtXtXtXtXtXtXtXtXtXtXtXtXtX",
"tXtXtXtXtXtXtXtXtXtXtXtXtXtXtXtXtXtXtXL C k b 7 9 b b b b 6 tXtXtXtXtXtXtXtXtXtXtXtXtXtXtXtXtXtXtXtXw 1 e m Y Y s : > # tXtXtXtXtXtXtXtXtXtXtXtXtXtXtXtXtXtXtXtX",
"tXtXtXtXtXtXtXtXtXtXtXtXtXtXtXtXtXtXJ Q I Z 7 7 b b b b b = tXtXtXtXtXtXtXtXtXtXtXtXtXtXtXtXtXtXtXtXJ Y Y Q Q N s u * # tXtXtXtXtXtXtXtXtXtXtXtXtXtXtXtXtXtXtXtX",
"tXtXtXtXtXtXtXtXtXtXtXtXtXtXtXtXtXtXz V I B 6 b b b b b 7 & tXtXtXtXtXtXtXtXtXtXtXtXtXtXtXtXtXtXtXtXJ Q Q U N q L ; $ X tXtXtXtXtXtXtXtXtXtXtXtXtXtXtXtXtXtXtXtX",
"tXtXtXtXtXtXtXtXtXtXtXtXtXtXtXtXtXL E ~ ~ z 9 b b b b b 4 tXtXtXtXtXtXtXtXtXtXtXtXtXtXtXtXtXtXtXtXtX; l l q * B h * # tXtXtXtXtXtXtXtXtXtXtXtXtXtXtXtXtXtXtXtXtX",
"tXtXtXtXtXtXtXtXtXtXtXtXtXtXtXtXU ~ r.~ N 7 b b b b b 4 tXtXtXtXtXtXtXtXtXtXtXtXtXtXtXtXtXtXtXtXtXtX+ < < * u U 3 * + tXtXtXtXtXtXtXtXtXtXtXtXtXtXtXtXtXtXtXtXtX",
"tXtXtXtXtXtXtXtXtXtXtXtXtXtXtXU ~ r.~ N 7 b b b b 9 4 tXtXtXtXtXtXtXtXtXtXtXtXtXtXtXtXtXtXtXtXtXtXtXX < * u Y B * $ X tXtXtXtXtXtXtXtXtXtXtXtXtXtXtXtXtXtXtXtXtX",
"tXtXtXtXtXtXtXtXtXtXtXtXtXtXtX~ r.~ C x b b b b 6 , tXtXtXtXtXtXtXtXtXtXtXtXtXtXtXtXtXtXtXtXtXtXtXtX+ * u Y T 3 > # tXtXtXtXtXtXtXtXtXtXtXtXtXtXtXtXtXtXtXtXtXtX",
"tXtXtXtXtXtXtXtXtXtXtXtXtXtXQ r.~ C b b b b b 4 tXtXtXtXtXtXtXtXtXtXtXtXtXtXtXtXtXtXtXtXtXtXtXtXtXtX: N P U B * < o tXtXtXtXtXtXtXtXtXtXtXtXtXtXtXtXtXtXtXtXtXtX",
"tXtXtXtXtXtXtXtXtXtXtXtXtXtX! ~ I b b x 6 b 4 tXtXtXtXtXtXtXtXtXtXtXtXtXtXtXtXtXtXtXtXtXtXtXtXtXtXu B M l L u * < o tXtXtXtXtXtXtXtXtXtXtXtXtXtXtXtXtXtXtXtXtXtX",
"tXtXtXtXtXtXtXtXtXtXtXtXtXY ! I b b x 6 9 4 tXtXtXtXtXtXtXtXtXtXtXtXtXtXtXtXtXtXtXtXtXtXtXtXtXtXtX# 1 l L p * < < # tXtXtXtXtXtXtXtXtXtXtXtXtXtXtXtXtXtXtXtXtXtX",
"tXtXtXtXtXtXtXtXtXtXtXtXY ! I b b x 6 9 5 tXtXtXtXtXtXtXtXtXtXtXtXtXtXtXtXtXtXtXtXtXtXtXtXtXtXtX# l L L p * < < < $ X tXtXtXtXtXtXtXtXtXtXtXtXtXtXtXtXtXtXtXtXtX",
"tXtXtXtXtXtXtXtXtXtXtXU E V b b b 6 9 7 & tXtXtXtXtXtXtXtXtXtXtXtXtXtXtXtXtXtXtXtXtXtXtXtXtXtXtXw L p ; * > < > > * o tXtXtXtXtXtXtXtXtXtXtXtXtXtXtXtXtXtXtXtXtX",
"tXtXtXtXtXtXtXtXtXtXtXz b b b b 9 6 b 1 tXtXtXtXtXtXtXtXtXtXtXtXtXtXtXtXtXtXtXtXtXtXtXtXtXtXtXtXt f @ @ & ; ; ; : u h i tXtXtXtXtXtXtXtXtXtXtXtXtXtXtXtXtXtXtXtX",
"tXtXtXtXtXtXtXtXtXtXtX3 5 5 7 7 6 9 7 tXtXtXtXtXtXtXtXtXtXtXtXtXtXtXtXtXtXtXtXtXtXtXtXtXtXtXtXtX- f y y y f y t f K ~ / K d g 0 tXtXtXtXtXtXtXtXtXtXtXtXtXtXtXtX",
"tXtXtXtXtXtXtXtXtXtXa K s.R s s p 4 = tXtXtXtXtXtXtXtXtXtXtXtXtXtXtXtXtXtXtXtXtXtXtXtXtXtXtXtXtX% y t - - - t r r r y R y.t.~ R g - tXtXtXtXtXtXtXtXtXtXtXtXtXtX",
"tXtXtXtXtXtXtXtXtXtXi u.g.R K H y tXtXtXtXtXtXtXtXtXtXtXtXtXtXtXtXtXtXtXtXtXtXtXtXtXtXtXtXtXtXtXtXt r @ O tXO % r t t y f f f f f % tXtXtXtXtXtXtXtXtXtXtXtXtXtX",
"tXtXtXtXtXtXtXtXtXtXP Q.T.g.y./ ~ R a tXtXtXtXtXtXtXtXtXtXtXtXtXtXtXtXtXtXtXtXtXtXtXtXtXtXtXtXtXtXtXtXtXtXtXtXtXtXtXtXtXtXtXtXtXtXtXtXtXtXtXtXtXtXtXtXtXtXtXtXtX",
"tXtXtXtXtXtXtXtXtXtXg R / / ^ R j g y tXtXtXtXtXtXtXtXtXtXtXtXtXtXtXtXtXtXtXtXtXtXtXtXtXtXtXtXtXtXtXtXtXtXtXtXtXtXtXtXtXtXtXtXtXtXtXtXtXtXtXtXtXtXtXtXtXtXtXtXtX",
"tXtXtXtXtXtXtXtXtXtX% 2 j j g y r % % tXtXtXtXtXtXtXtXtXtXtXtXtXtXtXtXtXtXtXtXtXtXtXtXtXtXtXtXtXtXtXtXtXtXtXtXtXtXtXtXtXtXtXtXtXtXtXtXtXtXtXtXtXtXtXtXtXtXtXtXtX"
};
