/* XPM */
static char *result[] = {
/* columns rows colors chars-per-pixel */
"80 80 215 2 ",
"   c #342C34",
".  c #39313B",
"X  c #440505",
"o  c #480B0A",
"O  c #4A120E",
"+  c #4E1413",
"@  c #4E1B16",
"#  c #511C17",
"$  c #521D1A",
"%  c #42271A",
"&  c #55221E",
"*  c #58281E",
"=  c #492926",
"-  c #562525",
";  c #552923",
":  c #5A2B24",
">  c #5D2D2B",
",  c #44342D",
"<  c #563226",
"1  c #5B3327",
"2  c #5D322B",
"3  c #5C3A2C",
"4  c #473A38",
"5  c #5D3434",
"6  c #573739",
"7  c #5D3B3B",
"8  c #602E2E",
"9  c #60312E",
"0  c #623D2E",
"q  c #623231",
"w  c #643D33",
"e  c #65393A",
"r  c #61393C",
"t  c #694637",
"y  c #6C4639",
"u  c #6D4A3B",
"i  c #784A30",
"p  c #704D3E",
"a  c #433D48",
"s  c #5A3E43",
"d  c #623D42",
"f  c #434343",
"g  c #4B444A",
"h  c #49494B",
"j  c #5B4448",
"k  c #4C4C51",
"l  c #584C55",
"z  c #515153",
"x  c #54555A",
"c  c #5D575A",
"v  c #5C525D",
"b  c #614147",
"n  c #684947",
"m  c #734845",
"M  c #6A5147",
"N  c #6C5149",
"B  c #735241",
"V  c #745549",
"C  c #624A55",
"Z  c #644D59",
"A  c #6E5652",
"S  c #64525D",
"D  c #615A5E",
"F  c #7A5752",
"G  c #73665E",
"H  c #5D5561",
"J  c #5C5A64",
"K  c #645663",
"L  c #685762",
"P  c #645A64",
"I  c #6B5C64",
"U  c #655C6A",
"Y  c #685D6C",
"T  c #685F70",
"R  c #69636B",
"E  c #786769",
"W  c #666474",
"Q  c #6A6273",
"!  c #6C6B76",
"~  c #6E6A79",
"^  c #776B71",
"/  c #706E7E",
"(  c #73737B",
")  c #7D7A7C",
"_  c #8C1011",
"`  c #961311",
"'  c #AB0102",
"]  c #AB1C19",
"[  c #932E2D",
"{  c #8F3B38",
"}  c #B12A24",
"|  c #894E36",
" . c #9A6337",
".. c #A37735",
"X. c #855A59",
"o. c #9E5F5E",
"O. c #896A58",
"+. c #A06559",
"@. c #8E5C61",
"#. c #876B69",
"$. c #95666C",
"%. c #8C7367",
"&. c #97776A",
"*. c #876A71",
"=. c #986671",
"-. c #9B6C75",
";. c #9D6D7A",
":. c #857878",
">. c #957172",
",. c #9A7675",
"<. c #987778",
"1. c #9C7B7B",
"2. c #AF796B",
"3. c #A06F7C",
"4. c #A2727E",
"5. c #A67B7C",
"6. c #A27D7D",
"7. c #998479",
"8. c #A1896B",
"9. c #A68579",
"0. c #A3827D",
"q. c #A5917F",
"w. c #D89E40",
"e. c #737382",
"r. c #7B7A84",
"t. c #7B7C86",
"y. c #897882",
"u. c #A47383",
"i. c #A77B84",
"p. c #868082",
"a. c #84848C",
"s. c #8C8B8C",
"d. c #97898A",
"f. c #8C8B93",
"g. c #8F8F99",
"h. c #928F91",
"j. c #94949B",
"k. c #989598",
"l. c #A48282",
"z. c #AA8584",
"x. c #A68B84",
"c. c #AC8B84",
"v. c #AC8A8A",
"b. c #B58B87",
"n. c #B28D8D",
"m. c #AC9284",
"M. c #AC908B",
"N. c #B29286",
"B. c #B3938D",
"V. c #BA9689",
"C. c #B49B8A",
"Z. c #BA9B8D",
"A. c #A79A98",
"S. c #B49493",
"D. c #BA9595",
"F. c #BC9C93",
"G. c #BD9B9A",
"H. c #BCA28E",
"J. c #ADA49E",
"K. c #BEA292",
"L. c #B9A399",
"P. c #9B9BA2",
"I. c #9F9FA9",
"U. c #A1A1A5",
"Y. c #A5A4AA",
"T. c #AAAAAD",
"R. c #B2A9A8",
"E. c #AEAEB3",
"W. c #B2B2B4",
"Q. c #BCB7B4",
"!. c #B6B6BB",
"~. c #BABABD",
"^. c #C89E8B",
"/. c #C19D92",
"(. c #C09D9D",
"). c #C1A28F",
"_. c #CDAB8E",
"`. c #C3A394",
"'. c #C4AA94",
"]. c #C9AB95",
"[. c #C4A499",
"{. c #C8A799",
"}. c #CBAB9B",
"|. c #D0AF9E",
" X c #CBB297",
".X c #CEB29B",
"XX c #D2B49E",
"oX c #D6B99F",
"OX c #C5A4A3",
"+X c #C8A7A4",
"@X c #CBABA4",
"#X c #D0AFA0",
"$X c #D4B3A3",
"%X c #D6B9A2",
"&X c #DABCA3",
"*X c #DBBCA8",
"=X c #E0BFA7",
"-X c #DEC3A4",
";X c #E2C4A6",
":X c #E3C4AA",
">X c #E6C9AB",
",X c #EBCCAD",
"<X c #EED0AF",
"1X c #EFCFB0",
"2X c #EFD0B0",
"3X c #F5D4B3",
"4X c #F8D7B5",
"5X c #BEBEC1",
"6X c #C5C5C5",
"7X c #C8C8CA",
"8X c #D5D2CE",
"9X c #CECED1",
"0X c #D6D7D8",
"qX c #E5E5E6",
"wX c None",
/* pixels */
"wXwXwXwXwXwXwXwXwXwXwXwXwXwXwXwXwXwXwXwXwXwXwXwXwXwXwXwXwXwXwXwXwXwXwXwXwXwXwXwXwXwXwXwXwXwXwXwXwXwXwXwXwXwXwXwXwXwXwXwXwXwXwXwXwXwXwXwXwXwXwXwXwXwXwXwXwXwXwXwX",
"wXwXwXwXwXwXwXwXwXwXwXwXwXwXwXwXwXwXwXwXwXwXwX~.6XP.E.!.wXwXwXwXwXwXwXwXwXwXwXwXwXwXwXwXwXwXwXwXwXwXwXwXwXwXwXwXwXwXwXwXwXwXwXwXwXwXwXwXwXwXwXwXwXwXwXwXwXwXwXwX",
"wXwXwXwXwXwXwXwXwXwXwXwXwXwXwXwXwXwXwXwXwXwX~.qX0X6XE.~.~.wXwXwXwXwXwXwXwXwXwXwXwXwXwXwXwXwXwXwXwXwXwXwXwXwXwXwXwXwXwXwXwXwXwXwXwXwXwXwXwXwXwXwXwXwXwXwXwXwXwXwX",
"wXwXwXwXwXwXwXwXwXwXwXwXwXwXwXwXwXwXwXwXwX!.qX0X~.9X!.Y.Y.wXwXwXwXwXwXwXwXwXwXwXwXwXwXwXwXwXwXwXwXwXwXwXwXwXwXwXwXwXwXwXwXwXwXwXwXwXwXwXwXwXwXwXwXwXwXwXwXwXwXwX",
"wXwXwXwXwXwXwXwXwXwXwXwXwXwXwXwXwXwXH.}.h.qX9XP.~.P.g.I.g.wXwXwXwXwXwXwXwXwXwXwXwXwXwXwXwXwXwXwXwXwXwXwXwXwXwXwXwXwXwXwXT.T.wXwXwXwXwXwXwXwXwXwXwXwXwXwXwXwXwXwX",
"wXwXwXwXwXwXwXwXwXwXwXwXwXwXwXwXwXwXXXR.I.qX9XI.g.P.g.Y.f.wXwXwXwXwXwXwXwXwXwXwXwXwXwXwXwXwXwXwXwXwXwXwXwXwXwXwXwXwXwXT.6XW.!.j.wXwXwXwXwXwXwXwXwXwXwXwXwXwXwXwX",
"wXwXwXwXwXwXwXwXwXwXwXwXwXwXwXwXwX-XXXA.!.W.~.P.P.!.a.wXwXwXwXwXv.v.v.z.4.=.u.-.wXwXwXwXwXwXwXwXwXwXwXwXwXwXwXwXwXwXa.6XE.a.j.Y.P.wXwXwXwXwXwXwXwXwXwXwXwXwXwXwX",
"wXwXwXwXwXwXwXwXwXwXwXwXwXwXwXwXwXXX}.l.A.E.Y.P.t.wXwXwXwXwXi.n.i.5.4.4.u.u.u.u.3.wXwXwXwXwXwXwXwXwXwXwXwXwXwXwXwXwXU.5XY.6X~.f.g.r.wXwXwXwXwXwXwXwXwXwXwXwXwXwX",
"wXwXwXwXwXwXwXwXwXwXwXwXwXwXwXwXq.K.G.OXD.(.G.x.*.wXwXwXwX-.4.-.=.3.-.*.*.y.<.;.4.@.wXwXwXwXwXwXwXwXwXwXwXwXwXwXwXa.W.T.W.E.f.g./ wXwXwXwXwXwXwXwXwXwXwXwXwXwXwX",
"wXwXwXwXwXwXwXwXwXwXwXwXwXwXwXwX{.B.D.G.G.G.S.1.wXwXwXwX@.;.$.;.;.*.^ O...p.U.A.*.wXwXwXwXwXwXwXwXwXwXwXwXwXwXwXwXk.T.!.W.j.f.t.wXwXwXwXwXwXwXwXwXwXwXwXwXwXwXwX",
"wXwXwXwXwXwXwXwXwXwXwXwXwXwXwX*X%XG.G.z.v.n.m.wXwXwXwXwXX.$.;.-.R r.8.w. X~.U.j.r.wXwXwXwXwXwXwXwXwXwXwXwXwXwXwX.X.XL.A.h.k.f.wXwXwXwXwXwXwXwXwXwXwXwXwXwXwXwXwX",
"wXwXwXwXwXwXwXwXwXwXwXwXwXwX%X*X+XOXOXS.v.B.V.wXwXwXwXwXX.;.u.E ! k.Q.8X0X9XT.r.f.wXwXwXwXwXwXwXwXwXwXwXwXwXwXq..X-X-XoXB.d.wXwXwXwXwXwXwXwXwXwXwXwXwXwXwXwXwXwX",
"wXwXwXwXwXwXwXwXwXwXwXwXwXwX=X+XOXOXOXOX@X%XwXwXwXwXwXwX=.u.-.D W s.k.T.6X7XW.~.!.f.wXwXwXwXwXwXwXwXwXwXwXwXwXC.'. X.X.XF.c.wXwXwXwXwXwXwXwXwXwXwXwXwXwXwXwXwXwX",
"wXwXwXwXwXwXwXwXwXwXwXwXwXXX$XOXOXOXOXOX$XXXwXwXwXwXwXwX$.u.$.P t.a.s.k.W.~.Y.j.f.s.wXwXwXwXwXwXwXwXwXwXwXwXH. X X XZ.l.v.%.wXwXwXwXwXwXwXwXwXwXwXwXwXwXwXwXwXwX",
"wXwXwXwXwXwXwXwXwXwXwXwXwX%X+XOXOXOXOX[.XX{.wXwXwXwXwXwX$.z.4.7.y.a.t.s.a.:.^ ^ ^ wXwXwXwXwXwXwXwXwXwXwXwXC.%X-X-X%XN.,.#.wXwXwXwXwXwXwXwXwXwXwXwXwXwXwXwXwXwXwX",
"wXwXwXwXwXwXwXwXwXwXwXwX`.}.OXOXOXG.G.%X%X;X<X>XXXXX-X3X>X>X{.;X%XC.) R u i  . .&.%X].C.wXwXwXwXwXwXwXwXH.XX-X-X%X[.S.,.wXwXwXwXwXwXwXwXwXwXwXwXwXwXwXwXwXwXwXwX",
"wXwXwXwXwXwXwXwXwXwXwXwX7.G.OX(.G.G.}.|.V.:X3X4X,X,X<X,X<X,X*XXX3X,X).| i |  . .O.{.oXH.C.'.H.wXwXwXwXN..X-X-X%X[.S.v.wXwXwXwXwXwXwXwXwXwXwXwXwXwXwXwXwXwXwXwXwX",
"wXwXwXwXwXwXwXwXwXwXwXwXwXn.OXG.G.S.V.z.{.>X$X:X2X:X*X,X<X,X>X.X].`.}.Z.7.R.J.{ ` 9.Z.M.m.%XXX[.XXoX%XoXXX).}.[.S.S.,.wXwXwXwXwXwXwXwXwXwXwXwXwXwXwXwXwXwXwXwXwX",
"wXwXwXwXwXwXwXwXwXwXwXwXwX1.b.b.n.z.l.D.$X*X*X%X$X:X$X@X*X:X,X%X`.{.%X,X*XQ.f._ ' { C.B.Z.}.}.&X%X{.%X&X}.c.9.B.S.z.wXwXwXwXwXwXwXwXwXwXwXwXwXwXwXwXwXwXwXwXwXwX",
"wXwXwXwXwXwXwXwXwXwXwXwXwXwXwX6.l.D.G.OXOXOX@X$X@XOX$X@XOX}.oX$XF.-X3X4X3X%Xk.#._ ` 0.}.}.K.H..XG.{.}.F.S.b.5.v.v.>.wXwXwXwXwXwXwXwXwXwXwXwXwXwXwXwXwXwXwXwXwXwX",
"wXwXwXwXwXwXwXwXwXwXwXwXwXwXwXwXwXwXb.v.D.G.OXOXOXOXOXOXOX(.&X,X{.F.[.&X,X3X*XL.[ ' [ L.$X$Xm.B.[.F.S.S.D.l.6.z.>.wXwXwXwXwXwXwXwXwXwXwXwXwXwXwXwXwXwXwXwXwXwXwX",
"wXwXwXwXwXwXwXwXwXwXwXwXwXwXwXwXwXwXwXwXwXwXz.b.D.(.OXOXG./.,X4X3X:X{.K.F.XX,X>X2.] ' o.[.$X7.l.F.D.n.b.v.>.,.#.wXwXwXwXwXwXwXwXwXwXwXwXwXwXwXwXwXwXwXwXwXwXwXwX",
"wXwXwXwXwXwXwXwXwXwXwXwXwXwXwXwXwXwXwXwXwXwXwXwXwX1.v.n.n.|.4X3X,X4X3X,X$X[.F.XX:X^.} ` 0.{.c.l.v.i.,.>.>.wXwXwXwXwXwXwXwXwXwXwXwXwXwXwXwXwXwXwXwXwXwXwXwXwXwXwX",
"wXwXwXwXwXwXwXwXwXwXwXwXwXwXwXwXwXwXwXwXwXwXwXwXwXwX,.v.D.@X,X3X*X:X4X4X4X,X%X{.`.%X_.} | C.C.0.wXwXwXwXwXwXwXwXwXwXwXwXwXwXwXwXwXwXwXwXwXwXwXwXwXwXwXwXwXwXwXwX",
"wXwXwXwXwXwXwXwXwXwXwXwXwXwXwXwXwXwXwXwXwXwXwXwXwXwXz.(.S.[.:X3X:X@X>X3X4X4X3X3X:X}.$X^.+.x.`.wXwXwXwXwXwXwXwXwXwXwXwXwXwXwXwXwXwXwXwXwXwXwXwXwXwXwXwXwXwXwXwXwX",
"wXwXwXwXwXwXwXwXwXwXwXwXwXwXwXwXwXwXwXwXwXwXwXwXwXwXwXS.G.(.$X1X,X@X@X*X,X3X4X4X4X3X:X>XK.x.`.wXwXwXwXwXwXwXwXwXwXwXwXwXwXwXwXwXwXwXwXwXwXwXwXwXwXwXwXwXwXwXwXwX",
"wXwXwXwXwXwXwXwXwXwXwXwXwXwXwXwXwXwXwXwXwXwXwXwXwXwXwXv.(.D.OX$X,X:X@XOX@X:X3X;X.X1X4X3X.XK.N.wXwXwXwXwXwXwXwXwXwXwXwXwXwXwXwXwXwXwXwXwXwXwXwXwXwXwXwXwXwXwXwXwX",
"wXwXwXwXwXwXwXwXwXwXwXwXwXwXwXwXwXwXwXwXwXwXwXwXwXwXwX1.(.S.(.OX$X:X$XOXOXOX$X{.'.,X3X<X'.c.0.wXwXwXwXwXwXwXwXwXwXwXwXwXwXwXwXwXwXwXwXwXwXwXwXwXwXwXwXwXwXwXwXwX",
"wXwXwXwXwXwXwXwXwXwXwXwXwXwXwXwXwXwXwXwXwXwXwXwXwXwXwXwXD.(.D.OXOXOXOXOXOXOXOX+X@X%X%X%X[.l.,.wXwXwXwXwXwXwXwXwXwXwXwXwXwXwXwXwXwXwXwXwXwXwXwXwXwXwXwXwXwXwXwXwX",
"wXwXwXwXwXwXC.K.[.}.}.`.Z.wXwXwXwXwXwXwXwXwXwXwXwXwXwXwX,.D.D.G.OXOXOXOXOXOXOXOXOXG.G.S.v.z.#.wXwXwXwXwXwXwXwXwXwXwXwXwXwXwXwXwXwXwXwXwXwXwXwXwXwXwXwXwXwXwXwXwX",
"wXwXwXwXwXwXwXwXwXH.XX$X$X}.{.`.wXwXwXwXwXwXwXwXwXwXwX`.`.c.D.D.z.v.v.v.D.n.l.1.d.k.*.E %.%.wXwXwXq.`.}.}.}.|.$X$X$X$XZ.wXwXwXwXwXwXwXwXwXwXwXwXwXwXwXwXwXwXwXwX",
"wXwXwXwXwXwXwXwXwXwXwX{.$X$X%X$X}.{.[.Z.V.V.V.Z.`.{.{.}.{.Z.6.l.v.S.S.v.l.6.v.>.s.d.l.E E O.q.V.K.}.$X}.[.`.{.}.%X$X{.wXwXwXwXwXwXwXwXwXwXwXwXwXwXwXwXwXwXwXwXwX",
"wXwXwXwXwXwXwXwXwXwXwXm.{.$X$X$X$X$X$X$X$X$XXX$X$X{.F.S.S.S.1.1.v.S.S.v.l.6.z.1.s.h.v.:.E %.{.$X$X}.F.S.S.S.S.Z.{.$XH.wXwXwXwXwXwXwXwXwXwXwXwXwXwXwXwXwXwXwXwXwX",
"wXwXwXwXwXwXwXwXwXwXwXwXm.}.$X$X$X{.{.#X$X$X$X$X[.S.S.S.S.v.,.z.1.1.1.1.n.c.,.l.:.s.:.) G O.N.{.F.S.S.S.S.S.S.S.F.{.7.wXwXwXwXwXwXwXwXwXwXwXwXwXwXwXwXwXwXwXwXwX",
"wXwXwXwXwXwXwXwXwXwXwXwXwXC.{.`.F.V.V.Z.}.$X$X[.S.S.S.S.v.>.z.S.S.S.S.S.V.{.c.l.B.x.x.m.C.1.,.z.S.S.S.S.S.S.S.S.F.Z.wXwXwXwXwXwXwXwXwXwXwXwXwXwXwXwXwXwXwXwXwXwX",
"wXwXwXwXwXwXwXwXwXwXwXwXwXwX0.D.S.S.S.S.F.$X}.D.S.S.S.S.0.0.S.S.S.S.S.S.S.D.b.6.`.}.}.[.B.0.0.6.S.S.S.S.S.S.S.S.S.0.wXwXwXwXwXwXwXwXwXwXwXwXwXwXwXwXwXwXwXwXwXwX",
"wXwXwXwXwXwXwXwXwXwXwXwXwXwX>.n.S.S.S.S.S.}.{.S.S.S.S.S.1.S.S.S.S.S.S.S.S.n.b.1.v.S.S.S.6.>.v.6.n.S.S.S.S.S.S.S.S.1.wXwXwXwXwXwXwXwXwXwXwXwXwXwXwXwXwXwXwXwXwXwX",
"wXwXwXwXwXwXwXwXwXwXwXwXwXwXwXz.S.S.S.S.S.{.`.S.S.S.S.S.l.S.S.S.S.S.S.S.S.n.V.c.v.S.S.S.6.>.v.v.z.S.S.S.S.S.S.S.S.1.wXwXwXwXwXwXwXwXwXwXwXwXwXwXwXwXwXwXwXwXwXwX",
"wXwXwXwXwXwXwXwXwXwXwXwXwXwXwX6.S.S.S.S.F.}.F.S.S.S.S.F.v.S.S.S.S.S.S.S.S.n./.[.S.S.S.S.S.,.S.n.l.D.S.S.S.S.S.S.S.v.wXwXwXwXwXwXwXwXwXwXwXwXwXwXwXwXwXwXwXwXwXwX",
"wXwXwXwXwXwXwXwXwXwXwXwXwXwXwX>.n.S.S.S.[.XXZ.S.S.S.S.F.B.S.S.S.S.S.S.S.S.n./.}.S.S.S.S.n.1.S.D.l.b.S.S.S.S.S.S.S.S.1.wXwXwXwXwXwXwXwXwXwXwXwXwXwXwXwXwXwXwXwXwX",
"wXwXwXwXwXwXwXwXwXwXwXwXwXwXwXwXz.S.S.F.$X$XF.S.S.S.S.[.F.S.S.S.S.S.S.S.S.n.V.%X`.S.S.S.z.l.S.S.v.z.n.S.S.S.S.S.S.D.b.wXwXwXwXwXwXwXwXwXwXwXwXwXwXwXwXwXwXwXwXwX",
"wXwXwXwXwXwXwXwXwXwXwXwXwXwXwXwX,.S.S.[.$X$X[.S.S.S.S.[.}.`.S.S.S.S.S.S.S.S.n.XXXXS.S.S.N.F.L.F.[./.V.B.S.S.S.S.S.S.z.wXwXwXwXwXwXwXwXwXwXwXwXwXwXwXwXwXwXwXwXwX",
"wXwXwXwXwXwXwXwXwXwXwXwXwXwXwXwXwXz.F.$X$X$X$XF.S.S.S.S./.}.}.[.F.Z.Z.Z.Z.F./.).XX.XF.{.{.[.N.`.$X$X|.[.Z.S.S.S.S.n.,.wXwXwXwXwXwXwXwXwXwXwXwXwXwXwXwXwXwXwXwXwX",
"wXwXwXwXwXwXwXwXwXwXwXwXwXwXwXwXwX,.[.$X$X$X$X{.Z.S.S.S.S.S.`.{.}.$X$X$X$X{.`.V.V.V.F.F.n.6.0.{.$X$X$X$X|.`.S.S.S.z.wXwXwXwXwXwXwXwXwXwXwXwXwXwXwXwXwXwXwXwXwXwX",
"wXwXwXwXwXwXwXwXwXwXwXwXwXwXwXwXwXwX).$X$X$X$X%X|.[.F.S.S.S.D.S.{.$X$X}.F.S.S.S.S.c.>.F m ,.B.[.$X$X$X$X$X$X[.S.D.6.wXwXwXwXwXwXwXwXwXwXwXwXwXwXwXwXwXwXwXwXwXwX",
"wXwXwXwXwXwXwXwXwXwXwXwXwXwXwXwXwXwXwX`.$X$X$X$X$X$X|.[.F.F.F.{.$X$X$X$X[.F.F.[.`.m.m @ ; e X.9.{.$X$X$X$X$X$X`.0.wXwXwXwXwXwXwXwXwXwXwXwXwXwXwXwXwXwXwXwXwXwXwX",
"wXwXwXwXwXwXwXwXwXwXwXwXwXwXwXwXwXwXwXwXC.{.}.$X$X$X$X$X$X|.$X$X$X$X$X$X$X[.N.9.F : & : < 1 9 e X.9.`.}.|.}.F.7.I wXwXwXwXwXwXwXwXwXwXwXwXwXwXwXwXwXwXwXwXwXwXwX",
"wXwXwXwXwXwXwXwXwXwXwXwXwXwXwXwXwXwXwXwXwXwXwXZ.K.{.}.$X$X$X$X$X$X}.Z.m.&.X.B p 9 X # 8 q 2 2 q q q A *.*.*.^ Y T H wXwXwXwXwXwXwXwXwXwXwXwXwXwXwXwXwXwXwXwXwXwX",
"wXwXwXwXwXwXwXwXwXwXwXwXwXwXwXwXwXwXwXwXwXwXwXwXwXwX7.&.&.9.8.&.&.%.V u B p B y & wXwX# 8 q q q q q l Y T T Q Q Q Q H wXwXwXwXwXwXwXwXwXwXwXwXwXwXwXwXwXwXwXwXwX",
"wXwXwXwXwXwXwXwXwXwXwXwXwXwXwXwXwXwXwXwXwXwXwXwXwXwXwX0 B N A I R S n B B B B : wXwXwXwX# 8 q q q q C Q Q Q Q Q Q Q T H wXwXwXwXwXwXwXwXwXwXwXwXwXwXwXwXwXwXwXwX",
"wXwXwXwXwXwXwXwXwXwXwXwXwXwXwXwXwXwXwXwXwXwXwXwXwXwXwXN R / / e.e.Q ~ I B B y wXwXwXwXwXwX$ ; > q q r U Q Q Q Q Q Q Q T H wXwXwXwXwXwXwXwXwXwXwXwXwXwXwXwXwXwXwX",
"wXwXwXwXwXwXwXwXwXwXwXwXwXwXwXwXwXwXwXwXwXwXwXwXwXwXl ~ e.e.e.e./ ~ e.~ V B > wXwXwXwXwXwXwXwXO & > q b Y Q Q Q Q Q Q Q Y wXwXwXwXwXwXwXwXwXwXwXwXwXwXwXwXwXwXwX",
"wXwXwXwXwXwXwXwXwXwXwXwXwXwXwXwXwXwXwXwXwXwXwXwXwXwXQ e.e.e.e.e.~ e.e.I B w wXwXwXwXwXwXwXwXwXwXwXO & > b Y Q Q Q Q Q Q Q v wXwXwXwXwXwXwXwXwXwXwXwXwXwXwXwXwXwX",
"wXwXwXwXwXwXwXwXwXwXwXwXwXwXwXwXwXwXwXwXwXwXwXwXwXv / e.e.e.e./ ~ e./ A y # wXwXwXwXwXwXwXwXwXwXwXwXwXO - b Y Q Q Q Q U Z j wXwXwXwXwXwXwXwXwXwXwXwXwXwXwXwXwXwX",
"wXwXwXwXwXwXwXwXwXwXwXwXwXwXwXwXwXwXwXwXwXwXwXwXwXH / e.e.e.e.Q e./ I u & wXwXwXwXwXwXwXwXwXwXwXwXwXwXwX+ - b Q T K Y j q > X wXwXwXwXwXwXwXwXwXwXwXwXwXwXwXwXwX",
"wXwXwXwXwXwXwXwXwXwXwXwXwXwXwXwXwXwXwXwXwXwXwXwXwXU e./ ! R Y ~ / I M 3 wXwXwXwXwXwXwXwXwXwXwXwXwXwXwX6 > - 6 U v C U r q $ wXwXwXwXwXwXwXwXwXwXwXwXwXwXwXwXwXwX",
"wXwXwXwXwXwXwXwXwXwXwXwXwXwXwXwXwXwXwXwXwXwXwXwXI ~ ~ A B B A Q Y n 1 wXwXwXwXwXwXwXwXwXwXwXwXwXwXwXwX5 q 9 5 j 7 C S q 9 $ wXwXwXwXwXwXwXwXwXwXwXwXwXwXwXwXwXwX",
"wXwXwXwXwXwXwXwXwXwXwXwXwXwXwXwXwXwXwXwXwXwXv P A I V B B B B S u * wXwXwXwXwXwXwXwXwXwXwXwXwXwXwXwXwXv j d C d 7 K s q > wXwXwXwXwXwXwXwXwXwXwXwXwXwXwXwXwXwXwX",
"wXwXwXwXwXwXwXwXwXwXwXwXwXwXwXwXwXwXwXwXwXwXP R N B B B B B B w wXwXwXwXwXwXwXwXwXwXwXwXwXwXwXwXwXwX4 K Y U C 7 K v 2 q & wXwXwXwXwXwXwXwXwXwXwXwXwXwXwXwXwXwXwX",
"wXwXwXwXwXwXwXwXwXwXwXwXwXwXwXwXwXwXwXwXwXq N N B B B B B B t @ wXwXwXwXwXwXwXwXwXwXwXwXwXwXwXwXwXwX+ 7 b d 7 K K 5 2 q + wXwXwXwXwXwXwXwXwXwXwXwXwXwXwXwXwXwXwX",
"wXwXwXwXwXwXwXwXwXwXwXwXwXwXwXwXwXwXwXwXwXC L B p B B B B B 0 wXwXwXwXwXwXwXwXwXwXwXwXwXwXwXwXwXwXwXwX> 9 7 K K r 1 9 q + wXwXwXwXwXwXwXwXwXwXwXwXwXwXwXwXwXwXwX",
"wXwXwXwXwXwXwXwXwXwXwXwXwXwXwXwXwXwXwXwXU ~ ~ n u B B B B u * wXwXwXwXwXwXwXwXwXwXwXwXwXwXwXwXwXwXwX@ > 7 K K d b < 9 > O wXwXwXwXwXwXwXwXwXwXwXwXwXwXwXwXwXwXwX",
"wXwXwXwXwXwXwXwXwXwXwXwXwXwXwXwXwXwXwXR e.e.K M B B B B B t wXwXwXwXwXwXwXwXwXwXwXwXwXwXwXwXwXwXwXwX> b C C r C j 2 q $ wXwXwXwXwXwXwXwXwXwXwXwXwXwXwXwXwXwXwXwX",
"wXwXwXwXwXwXwXwXwXwXwXwXwXwXwXwXwXwXQ e.e.P M B B B B B p : wXwXwXwXwXwXwXwXwXwXwXwXwXwXwXwXwXwXwXwX; q q d Z S 5 2 > o wXwXwXwXwXwXwXwXwXwXwXwXwXwXwXwXwXwXwXwX",
"wXwXwXwXwXwXwXwXwXwXwXwXwXwXwXwXwXU e.e.U M B B B B B p 1 wXwXwXwXwXwXwXwXwXwXwXwXwXwXwXwXwXwXwXwXwX& q d U K r 2 q $ wXwXwXwXwXwXwXwXwXwXwXwXwXwXwXwXwXwXwXwXwX",
"wXwXwXwXwXwXwXwXwXwXwXwXwXwXwXwXwX! e.U M B B B B B p 9 wXwXwXwXwXwXwXwXwXwXwXwXwXwXwXwXwXwXwXwXwXwX+ d K S r s 2 q $ wXwXwXwXwXwXwXwXwXwXwXwXwXwXwXwXwXwXwXwXwX",
"wXwXwXwXwXwXwXwXwXwXwXwXwXwXwXwXU / U M B B B B B t : wXwXwXwXwXwXwXwXwXwXwXwXwXwXwXwXwXwXwXwXwXwXwX+ r 7 7 Z l 2 8 O wXwXwXwXwXwXwXwXwXwXwXwXwXwXwXwXwXwXwXwXwX",
"wXwXwXwXwXwXwXwXwXwXwXwXwXwXwXwX~ U M B B B B p 2 wXwXwXwXwXwXwXwXwXwXwXwXwXwXwXwXwXwXwXwXwXwXwXwXwX+ 9 5 Z Y j q > o wXwXwXwXwXwXwXwXwXwXwXwXwXwXwXwXwXwXwXwXwX",
"wXwXwXwXwXwXwXwXwXwXwXwXwXwXwXQ U M B B B B u & wXwXwXwXwXwXwXwXwXwXwXwXwXwXwXwXwXwXwXwXwXwXwXwXwXwX- q Z Q S 5 q > o wXwXwXwXwXwXwXwXwXwXwXwXwXwXwXwXwXwXwXwXwX",
"wXwXwXwXwXwXwXwXwXwXwXwXwXwXU I M B B u p u & wXwXwXwXwXwXwXwXwXwXwXwXwXwXwXwXwXwXwXwXwXwXwXwXwXwX# 5 Z Q K r q q > o wXwXwXwXwXwXwXwXwXwXwXwXwXwXwXwXwXwXwXwXwX",
"wXwXwXwXwXwXwXwXwXwXwXwXwX> N B B B t u p : wXwXwXwXwXwXwXwXwXwXwXwXwXwXwXwXwXwXwXwXwXwXwXwXwXwXwX$ Z T K r q q q > o wXwXwXwXwXwXwXwXwXwXwXwXwXwXwXwXwXwXwXwXwX",
"wXwXwXwXwXwXwXwXwXwXwXwXw u B B B t t B 0 wXwXwXwXwXwXwXwXwXwXwXwXwXwXwXwXwXwXwXwXwXwXwXwXwXwXwXwXs S j r q q q q 8 $ wXwXwXwXwXwXwXwXwXwXwXwXwXwXwXwXwXwXwXwXwX",
"wXwXwXwXwXwXwXwXwXwX3 y B B B B t t B y $ wXwXwXwXwXwXwXwXwXwXwXwXwXwXwXwXwXwXwXwXwXwXwXwXwXwXwXwX= ; > 8 8 8 > 2 2 @ wXwXwXwXwXwXwXwXwXwXwXwXwXwXwXwXwXwXwXwXwX",
"wXwXwXwXwXwXwXwXwXwX1 9 w u B t w B B 9 wXwXwXwXwXwXwXwXwXwXwXwXwXwXwXwXwXwXwXwXwXwXwXwXwXwXwXwXz v v 6 - = - 6 H H v k wXwXwXwXwXwXwXwXwXwXwXwXwXwXwXwXwXwXwXwX",
"wXwXwXwXwXwXwXwXwXwXwXk l 6 3 3 y u t 3 wXwXwXwXwXwXwXwXwXwXwXwXwXwXwXwXwXwXwXwXwXwXwXwXwXwXwXwX4 x x x x z k k z J ~ e.R J x a wXwXwXwXwXwXwXwXwXwXwXwXwXwXwXwX",
"wXwXwXwXwXwXwXwXwXwXh J a.R U l j wXwXwXwXwXwXwXwXwXwXwXwXwXwXwXwXwXwXwXwXwXwXwXwXwXwXwXwXwXwXwX, h f 4 4 4 g f f f h R t.r.! R c 4 wXwXwXwXwXwXwXwXwXwXwXwXwXwX",
"wXwXwXwXwXwXwXwXwXwXj y.f.W W J h wXwXwXwXwXwXwXwXwXwXwXwXwXwXwXwXwXwXwXwXwXwXwXwXwXwXwXwXwXwXwXwXf f = % wX% , f f h h z z z z z , wXwXwXwXwXwXwXwXwXwXwXwXwXwX",
"wXwXwXwXwXwXwXwXwXwXP T.P.g.a.( ! R k wXwXwXwXwXwXwXwXwXwXwXwXwXwXwXwXwXwXwXwXwXwXwXwXwXwXwXwXwXwXwXwXwXwXwXwXwXwXwXwXwXwXwXwXwXwXwXwXwXwXwXwXwXwXwXwXwXwXwXwXwX",
"wXwXwXwXwXwXwXwXwXwXx J ( ) ! R c c h wXwXwXwXwXwXwXwXwXwXwXwXwXwXwXwXwXwXwXwXwXwXwXwXwXwXwXwXwXwXwXwXwXwXwXwXwXwXwXwXwXwXwXwXwXwXwXwXwXwXwXwXwXwXwXwXwXwXwXwXwX",
"wXwXwXwXwXwXwXwXwXwX    g g a .       wXwXwXwXwXwXwXwXwXwXwXwXwXwXwXwXwXwXwXwXwXwXwXwXwXwXwXwXwXwXwXwXwXwXwXwXwXwXwXwXwXwXwXwXwXwXwXwXwXwXwXwXwXwXwXwXwXwXwXwXwX"
};
