/* XPM */
static char *result[] = {
/* columns rows colors chars-per-pixel */
"80 80 223 2 ",
"   c #2E1A26",
".  c #372B2F",
"X  c #342B35",
"o  c #460A08",
"O  c #480C0A",
"+  c #49120D",
"@  c #4D1513",
"#  c #4D1A14",
"$  c #4F1E18",
"%  c #511717",
"&  c #521D1A",
"*  c #770C0C",
"=  c #46281C",
"-  c #53221C",
";  c #58261E",
":  c #492E2C",
">  c #562321",
",  c #592523",
"<  c #562924",
"1  c #592A25",
"2  c #53272C",
"3  c #5D2C2B",
"4  c #5D322C",
"5  c #5A3829",
"6  c #482D37",
"7  c #493836",
"8  c #5E3433",
"9  c #593938",
"0  c #5D393D",
"q  c #602F2F",
"w  c #61322E",
"e  c #623232",
"r  c #643D32",
"t  c #663C3B",
"y  c #5D433A",
"u  c #654333",
"i  c #6A4436",
"p  c #6C453B",
"a  c #6E4A3C",
"s  c #714E3F",
"d  c #71503F",
"f  c #3D3440",
"g  c #463D46",
"h  c #5C3E43",
"j  c #603E44",
"k  c #444343",
"l  c #4B4A4A",
"z  c #4C4849",
"x  c #554846",
"c  c #5D444A",
"v  c #4E4B53",
"b  c #524B53",
"n  c #5C4A52",
"m  c #574B58",
"M  c #515153",
"N  c #5C535D",
"B  c #59595D",
"V  c #694844",
"C  c #61444C",
"Z  c #714C43",
"A  c #69534A",
"S  c #735241",
"D  c #77574B",
"F  c #634B56",
"G  c #604C54",
"H  c #6C5553",
"J  c #69565C",
"K  c #735A54",
"L  c #775956",
"P  c #7C5E5B",
"I  c #6B615F",
"U  c #7B6556",
"Y  c #7E605D",
"T  c #5D5462",
"R  c #5A5A63",
"E  c #635664",
"W  c #645966",
"Q  c #6B5C65",
"!  c #625768",
"~  c #655B6B",
"^  c #695D6C",
"/  c #685F70",
"(  c #65636D",
")  c #6C656A",
"_  c #756B6A",
"`  c #646372",
"'  c #6A6273",
"]  c #6C6B77",
"[  c #6E6B7A",
"{  c #746D77",
"}  c #706E7E",
"|  c #76747A",
" . c #860000",
".. c #8E1211",
"X. c #88292A",
"o. c #843131",
"O. c #824823",
"+. c #995E30",
"@. c #976636",
"#. c #A16638",
"$. c #834646",
"%. c #8C5B5B",
"&. c #946D4E",
"*. c #866659",
"=. c #A76E42",
"-. c #836262",
";. c #896A66",
":. c #8C6C6A",
">. c #936364",
",. c #97696C",
"<. c #8A7369",
"1. c #94756A",
"2. c #8C6C77",
"3. c #9B6C74",
"4. c #9C6D79",
"5. c #897775",
"6. c #937372",
"7. c #9A7675",
"8. c #947A71",
"9. c #9B7B74",
"0. c #9C7B7B",
"q. c #A6796E",
"w. c #A16F7D",
"e. c #A2727E",
"r. c #A37E7E",
"t. c #AA7E7D",
"y. c #9A8378",
"u. c #A2837B",
"i. c #A48779",
"p. c #B78E72",
"a. c #6F6F80",
"s. c #716F80",
"d. c #737383",
"f. c #7C7C86",
"g. c #A47383",
"h. c #7F8189",
"j. c #83838B",
"k. c #8A878B",
"l. c #978787",
"z. c #888893",
"x. c #8D8D95",
"c. c #968F94",
"v. c #94949B",
"b. c #999698",
"n. c #A28282",
"m. c #AB8584",
"M. c #AC8B84",
"N. c #A78988",
"B. c #AD8B8B",
"V. c #B58B86",
"C. c #B18D8C",
"Z. c #AE9584",
"A. c #AC9589",
"S. c #B29685",
"D. c #B3948C",
"F. c #B9968D",
"G. c #B49B8B",
"H. c #BA9C8C",
"J. c #AF9190",
"K. c #A89B95",
"L. c #B49493",
"P. c #BA9494",
"I. c #B49995",
"U. c #BC9C94",
"Y. c #BE9A9A",
"T. c #BCA28D",
"R. c #BEA98F",
"E. c #BEA292",
"W. c #BCAA99",
"Q. c #9B9BA2",
"!. c #A49EA2",
"~. c #9FA0A3",
"^. c #A2A1A3",
"/. c #A4A4AB",
"(. c #AAAAAC",
"). c #B2ABA4",
"_. c #AEAEB2",
"`. c #B1B2B4",
"'. c #B7B5B5",
"]. c #BCBBBD",
"[. c #C19A8F",
"{. c #C09D94",
"}. c #C19E9D",
"|. c #C1A48E",
" X c #C2A493",
".X c #C5AA94",
"XX c #C9AB95",
"oX c #C4A39A",
"OX c #C9A69A",
"+X c #C7A99A",
"@X c #CCAC9B",
"#X c #D2AF9C",
"$X c #C6B096",
"%X c #CBB296",
"&X c #CEB19A",
"*X c #D3B59D",
"=X c #D5BA9E",
"-X c #D8B99E",
";X c #C19FA0",
":X c #C5A4A4",
">X c #C8A7A4",
",X c #CCACA3",
"<X c #CFB0A3",
"1X c #D4B4A3",
"2X c #D7BAA2",
"3X c #DABCA3",
"4X c #DBBCA8",
"5X c #DEC4A4",
"6X c #DEC0A8",
"7X c #E3C4A8",
"8X c #E3C4AA",
"9X c #EBCCAE",
"0X c #F0CFB0",
"qX c #F4D4B3",
"wX c #F8D7B6",
"eX c #BDBDC0",
"rX c #C3C3C4",
"tX c #C5C6C8",
"yX c gray80",
"uX c #CFCFD0",
"iX c #D8D8D9",
"pX c #E7E7E7",
"aX c None",
/* pixels */
"aXaXaXaXaXaXaXaXaXaXaXaXaXaXaXaXaXaXaX/.rX].rXaXaXaXaXaXaXaXaXaXaXaXaXaXaXaXaXaXaXaXaXaXaXaXaXaXaXaXaXaXaXaXaXaXaXaXaXaXaXaXaXaXaXaXaXaXaXaXaXaXaXaXaXaXaXaXaXaX",
"aXaXaXaXaXaXaXaXaXaXaXaXaXaXaXaXaXrXeXtXtXyXtX_.aXaXaXaXaXaXaXaXaXaXaXaXaXaXaXaXaXaXaXaXaXaXaXaXaXaXaXaXaXaXaXaXaXaXaXaXaXaXaXaXaXaXaXaXaXaXaXaXaXaXaXaXaXaXaXaX",
"aXaXaXaXaXaXaXaXaXaXaXaXaXaXaXaX`.pXiXtXtXrX_.x.j.aXaXaXaXaXaXaXaXaXaXaXaXaXaXaXaXaXaXaXaXaXaXaXaXaXaXaXaXaXaXaXaXaXaXaXaXaXaXaXaXaXaXaXaXaXaXaXaXaXaXaXaXaXaXaX",
"aXaXaXaXaXaXaXaXaXaXaXaXaXaXaXaXrXpX_.yX/./.v././.aXaXaXaXaXaXaXaXaXaXaXaXaXaXaXaXaXaXaXaXaXaXaXaXaXaXaXaXaXaXaXaXaXaXaXaXaXaXaXaXaXaXaXaXaXaXaXaXaXaXaXaXaXaXaX",
"aXaXaXaXaXaXaXaXaXaXaXaXaXaXaXW.rXuX(.Q.j.f.Q.eX_.aXaXaXaXaXaXaXaXaXaXaXaXaXaXaXaXaXaXaXaXaXaXaXaXaXaXaXaXaXaXaXaXaXaXaXaXaXaXaXaXaXaXaXaXaXaXaXaXaXaXaXaXaXaXaX",
"aXaXaXaXaXaXaXaXaXaXaXaXaXG.H.G.(.yXyX].Q.eXQ.aXaXaXaXaXaXaXaXaXaXaXaXaXaXaXaXaXaXaXaXaXaXaXaXaXaXaXaXaXaXaXaXaXaXaXaXaX_.v.aXaXaXaXaXaXaXaXaXaXaXaXaXaXaXaXaXaX",
"aXaXaXaXaXaXaXaXaXaXaXaXaX&XZ.b.].`.rX]._.'.x.aXaXaXaXaXaXaXaXaXaXaX>.g.4.%.aXaXaXaXaXaXaXaXaXaXaXaXaXaXaXaXaXaXaXaXaX`.rX].Q.Q.aXaXaXaXaXaXaXaXaXaXaXaXaXaXaXaX",
"aXaXaXaXaXaXaXaXaXaXaXaXaX-X2XN.K.].b.Q.l.| aXaXaXaXaXaXaXe.e.>.,.4.g.g.g.3.aXaXaXaXaXaXaXaXaXaXaXaXaXaXaXaXaXaXaXaXx.`.(.`.v.Q.v.aXaXaXaXaXaXaXaXaXaXaXaXaXaXaX",
"aXaXaXaXaXaXaXaXaXaXaXaXaX|.@XoXC.N.n.D.0.aXaXaXaXaXaXaXB.B.,.w.g.3.2.2.2.e.aXaXaXaXaXaXaXaXaXaXaXaXaXaXaXaXaXaXaXaX(._.yX].Q.j.v.d.aXaXaXaXaXaXaXaXaXaXaXaXaXaX",
"aXaXaXaXaXaXaXaXaXaXaXaXH.XXU.B.n.n.u.:.aXaXaXaXaXaXaXB.B.,.w.e.;.@.U h.!.!.aXaXaXaXaXaXaXaXaXaXaXaXaXaXaXaXaXaXaX(._.uXrXv.v.j.{ aXaXaXaXaXaXaXaXaXaXaXaXaXaXaX",
"aXaXaXaXaXaXaXaXaXaXaXaX*X4XoXn.B.P.{.i.aXaXaXaXaXaX3.B.3.4.e.2.&.p.).rX^.f.h.aXaXaXaXaXaXaXaXaXaXaXaXaXaXaXaXaXaXK.'.eX~.c.v.] aXaXaXaXaXaXaXaXaXaXaXaXaXaXaXaX",
"aXaXaXaXaXaXaXaXaXaXaXaX6X4X:X:X:X:X@XaXaXaXaXaXaXaXe.3.3.w.2.j.).tXiXyX]./.(.c.aXaXaXaXaXaXaXaXaXaXaXaXaXaXaXaXaX%XT.A.k.b.j.aXaXaXaXaXaXaXaXaXaXaXaXaXaXaXaXaX",
"aXaXaXaXaXaXaXaXaXaXaX.X7X,X:X:X:XOX&XaXaXaXaXaXaX,.3.%.>.%.^ f.z.x.`.rX(.Q.x.f.aXaXaXaXaXaXaXaXaXaXaXaXaXaXaXaXR.5X5X*XG.l.I aXaXaXaXaXaXaXaXaXaXaXaXaXaXaXaXaX",
"aXaXaXaXaXaXaXaXaXaXaX-X4X:X:X:X:X,XXXaXaXaXaXaXaX,.>.%.>.L R ` a.d.j.k._ <.<.) aXaXaXaXaXaXaXaXaXaXaXaXaXaXaXT.E.%XXXE.L.B.*.aXaXaXaXaXaXaXaXaXaXaXaXaXaXaXaXaX",
"aXaXaXaXaXaXaXaXaXaXaX7X,X:X:X:X:X<X.XaXaXaXaXaXaXaX>.,.,.;.{ [ [ [ ] V O.#.=.=.aXaXaXaXaXaXaXaXaXaXaXaXaXaXXX5X*X.XA.y.N.8.aXaXaXaXaXaXaXaXaXaXaXaXaXaXaXaXaXaX",
"aXaXaXaXaXaXaXaXaXaXXX8X>X:X:X:X:XOXH.3X9X8X2X1X|.-X7X4X@X2X2XG.k.] S O.O.+.#.p.XXT.aXaXaXaXaXaXaXaXaXaXS.%X5X5X3X XN.n.;.aXaXaXaXaXaXaXaXaXaXaXaXaXaXaXaXaXaXaX",
"aXaXaXaXaXaXaXaXaXaXXX4X:X:X:X:X:XC.H.4X8XqXqX7X2X9XqX9X7X-X9X-XXX;.S &.*.1.*.9.<X XE. XaXaXaXaXaXaXaX X@X2X5X3XoXL.L.0.aXaXaXaXaXaXaXaXaXaXaXaXaXaXaXaXaXaXaXaX",
"aXaXaXaXaXaXaXaXaXaXXX1X:X:X}.L.0.7.*X9X2X1X8XqX7X1X2X9X8XXXH.N.U.%XK.(.`.c.X.X.>.A.G.*X X&X.XT.aXy. X6XOXY.OXoXL.L.B.6.aXaXaXaXaXaXaXaXaXaXaXaXaXaXaXaXaXaXaXaX",
"aXaXaXaXaXaXaXaXaXaXaX{.}.Y.m.7.7.L.,X4X6X3X,X1X8X6X<X1X4X4XD.D.4XwX7XW.K.k.o. .$.K..X X&X5X5X5X&X.XT.|.1XOXL.L.L.B.7.aXaXaXaXaXaXaXaXaXaXaXaXaXaXaXaXaXaXaXaXaX",
"aXaXaXaXaXaXaXaXaXaXaXaXaXm.C.P.Y.:X:X:X:X,X,X:X:X1X4X,XOX9X1XT.1X9X0XqX2X).l.* X.K.W.5X&XR.=X5X5X5X2X[.[.@XL.L.L.7.aXaXaXaXaXaXaXaXaXaXaXaXaXaXaXaXaXaXaXaXaXaX",
"aXaXaXaXaXaXaXaXaXaXaXaXaXaXaXm.B.P.Y.:X:X:X:X:X:X:X>X,XF.7XqX2X+XG.U.-XqX9XH... .X.N.3X5XE.+X2X5X5X5XOXV.P.L.L.r.aXaXaXaXaXaXaXaXaXaXaXaXaXaXaXaXaXaXaXaXaXaXaX",
"aXaXaXaXaXaXaXaXaXaXaXaXaXaXaXaXaXaX7.n.m.B.L.P.}.:X:XP.{.1XqXwXqX8XOXD.G.-X9Xp... .%.$X5XG.:X:XOXXX@XV.V.L.L.r.aXaXaXaXaXaXaXaXaXaXaXaXaXaXaXaXaXaXaXaXaXaXaXaX",
"aXaXaXaXaXaXaXaXaXaXaXaXaXaXaXaXaXaXaXaXaXaXaXaX7.C.P.{.8X7X7XqXwXwXqX8XOXD.H.-Xp...* T.2XA.:X:X:X:XD.t.m.r.6.aXaXaXaXaXaXaXaXaXaXaXaXaXaXaXaXaXaXaXaXaXaXaXaXaX",
"aXaXaXaXaXaXaXaXaXaXaXaXaXaXaXaXaXaXaXaXaXaXaXaXaXP.P.OX9XqX7X6XqXwXwXwXqX8X+XD.G.q.X.G..XM.u.n.n.n.6.aXaXaXaXaXaXaXaXaXaXaXaXaXaXaXaXaXaXaXaXaXaXaXaXaXaXaXaXaX",
"aXaXaXaXaXaXaXaXaXaXaXaXaXaXaXaXaXaXaXaXaXaXaXaXaXP.Y.Y.3XqXqX1X4X9XwXwXwXwXqX8XU.N.y.G.T. XaXaXaXaXaXaXaXaXaXaXaXaXaXaXaXaXaXaXaXaXaXaXaXaXaXaXaXaXaXaXaXaXaXaX",
"aXaXaXaXaXaXaXaXaXaXaXaXaXaXaXaXaXaXaXaXaXaXaXaXaXB.}.P.,X6XqX6X:X1X9XwXwXqX0XwX9XE.l.y.G.XXaXaXaXaXaXaXaXaXaXaXaXaXaXaXaXaXaXaXaXaXaXaXaXaXaXaXaXaXaXaXaXaXaXaX",
"aXaXaXaXaXaXaXaXaXaXaXaXaXaXaXaXaXaXaXaXaXaXaXaXaX0.P.Y.;X>X8X9X1X:X,X4X9X-X-XqXwX9XB.<.u.M.aXaXaXaXaXaXaXaXaXaXaXaXaXaXaXaXaXaXaXaXaXaXaXaXaXaXaXaXaXaXaXaXaXaX",
"aXaXaXaXaXaXaXaXaXaXaXaXaXaXaXaXaXaXaXaXaXaXaXaXaXaXB.Y.Y.:X>X1X,X:X:X:X,XOX,X7X7X4XY.6.0.m.aXaXaXaXaXaXaXaXaXaXaXaXaXaXaXaXaXaXaXaXaXaXaXaXaXaXaXaXaXaXaXaXaXaX",
"aXaXaXaXaXaXaXaXaXaXaXaXaXaXaXaXaXaXaXaXaXaXaXaXaXaXm.Y.Y.:X:X:X:X:X:X:X:X:X:X>X:X:X;XB.7.aXaXaXaXaXaXaXaXaXaXaXaXaXaXaXaXaXaXaXaXaXaXaXaXaXaXaXaXaXaXaXaXaXaXaX",
"aXaXaXaXaXaXaXaXaXaXaXaXaXaXaXaXaXaXaXaXaXaXaXaXaXaXaXL.}.}.:X:X:X:X:X:XY.L.L.B.I.n.5.6.6.aXaXaXaXaXaXaXaXaXaXaXaXaXaXaXaXaXaXaXaXaXaXaXaXaXaXaXaXaXaXaXaXaXaXaX",
"aXaXaXaXaXaXaXaXaXaXaXaXaXaXaXaXaXaXaXaXaXaXaXaXaXaXaXaXP.P.L.m.r.n.n.n.n.n.r.5.b.l._ _ 1.aXaXaXaXaXaXaXaXaXaXaXaXaXaXaXaXaXaXaXaXaXaXaXaXaXaXaXaXaXaXaXaXaXaXaX",
"aXaXaXaXaXaXaXaXaXaXaXaXaXaXaXaXaXaXaXaXaXaXaXaXaXaXaXaX0.r.n.C.L.L.L.r.0.n.m.5.c.N.5.) r.aXaXaXaXaXaXaXaXaXaXaXaXaXaXaXaXaXaXaXaXaXaXaXaXaXaXaXaXaXaXaXaXaXaXaX",
"aXaXaXaXaXaXaXaXaXaXaX.XXX*X2X2X*X@XaXaXaXaXaXaXaXaXaXaX6.0.B.m.n.n.n.0.0.y.P.5.b.b.l._ -.aXaXaXaXaXaXaXaXaXaXaXaXaXaXaXaXaXaXaXaXaXaXaXaXaXaXaXaXaXaXaXaXaXaXaX",
"aXaXaXaXaXaXaXaXZ.XX-X5X5X5X5X5X5X6X3X1X&X.XaXaXaXaXaXaX7.0.0.n.N.N.N.M.S.S.U.7.5.5.5.y.<.aXaXaXaXaXaXaX X X@X1X1X1X@X@X XaXaXaXaXaXaXaXaXaXaXaXaXaXaXaXaXaXaXaX",
"aXaXaXaXaXaXaXZ.=X5X5X5X5X5X5X5X5X5X5X5X5X5X*X.XaXaXaXaXM.L.L.L.L.L.L.D..XS..XG. X@X@X@XH.y.aXaXaXaXH.@X1X1X1X1X1X@XF.Z.Z.G.aXaXaXaXaXaXaXaXaXaXaXaXaXaXaXaXaXaX",
"aXaXaXaXaXaXi.XX5X5X5X5X5X5X5X3X@X|.|.|.XX3X6X3XXXaXaXG.L.L.L.L.L.L.L.L.D.M.S.G.G.Z.Z.G.XX*X2X#XM.H.1X1X1X@XOXH.i.1.-.-.-.:.<.aXaXaXaXaXaXaXaXaXaXaXaXaXaXaXaXaX",
"aXaXaXaXaXaXB.&X5X5X5X5X5X2XH.i.1.;.;.;.:.u.S.&X3X2XXX XU.L.L.L.L.L.L.L.L.L.L.J.L.L.L.D.m.0.H.*X2X@X X X X XH.9.-.-.-.-.-.-.P A aXaXaXaXaXaXaXaXaXaXaXaXaXaXaXaX",
"aXaXaXaXaX0.L.oX2X5X5X5X|.9.;.-.-.-.-.-.-.-.;.:.i.H.*X&XXXU.L.L.L.L.L.L.L.L.L.L.L.L.L.L.m.r.P.D.G.3X%XG. XZ.:.-.-.-.-.-.-.-.-.Y aXaXaXaXaXaXaXaXaXaXaXaXaXaXaXaX",
"aXaXaXaXaXm.L.L.U.@X&XS.;.-.-.-.-.-.-.-.-.-.-.-.-.-.9.H.R.E.OX XP.L.L.L.L.L.P.P.Y.P.L.L.0.B.Y.oXU..X5X%X9.-.-.-.-.-.-.-.-.-.-.Y aXaXaXaXaXaXaXaXaXaXaXaXaXaXaXaX",
"aXaXaXaX;.B.L.L.L.L.n.-.-.-.-.-.-.-.-.-.-.-.-.-.-.-.-.-.<.8.H.@X X@X@X@X@X X XP.L.L.P.i.Z :.0.t.m.y.XX6Xu.-.-.-.-.-.-.-.-.-.*.A aXaXaXaXaXaXaXaXaXaXaXaXaXaXaXaX",
"aXaXaXaX;.B.L.L.L.L.;.P -.-.-.-.-.-.-.-.-.-.-.-.-.-.-.-.D r D i. X@X@X@XOXP.D.D.U. XZ.p % e e 1 t P G.R.:.-.-.-.-.-.-.-.-.-.L aXaXaXaXaXaXaXaXaXaXaXaXaXaXaXaXaX",
"aXaXaXaXaXm.L.L.L.n.aXx K -.-.-.-.-.-.-.-.-.-.-.-.-.-.-.D u u S *.1.i.S. X@X XH.i.*.t 1 % e e q , e ;.<.-.-.-.-.-.-.-.-.-.-.K aXaXaXaXaXaXaXaXaXaXaXaXaXaXaXaXaX",
"aXaXaXaXaX0.L.L.L.8.aXaXaXH -.-.-.-.-.-.-.-.-.-.-.-.-.-.D r a S S S S S *.*.*.a e e e > & e e e e 3 e P -.-.-.-.-.-.-.-.-.P aXaXaXaXaXaXaXaXaXaXaXaXaXaXaXaXaXaX",
"aXaXaXaXaX6.B.L.L.1.aXaXaXaXH -.-.-.-.-.-.-.-.-.-.-.-.*.Z a S S S S S p s S a 4 e e e % 3 e e e e e 3 3 V L -.-.-.-.-.-.-.K aXaXaXaXaXaXaXaXaXaXaXaXaXaXaXaXaXaX",
"aXaXaXaXaXaXn.L.L.;.aXaXaXaXaXH -.-.-.-.-.-.-.-.-.-.*.Z a S S S S S a a S S a 4 e e 1 & e e e e e e j 0 2 g A Y -.-.-.-.L aXaXaXaXaXaXaXaXaXaXaXaXaXaXaXaXaXaXaX",
"aXaXaXaXaXaXaXn.B.:.aXaXaXaXaXaXA K P -.-.-.-.-.-.-.Z a S S S S S d p S S S i % > > # - , 3 e e t F W ' ^ m aXK -.-.-.L aXaXaXaXaXaXaXaXaXaXaXaXaXaXaXaXaXaXaXaX",
"aXaXaXaXaXaXaXaX0.U aXaXaXaXaXaXaXaXx x H L L P P L p S H Q ) Q H V s S S S w @ O + # - > 1 4 c ! ' ' ' ' / T A P -.L aXaXaXaXaXaXaXaXaXaXaXaXaXaXaXaXaXaXaXaXaX",
"aXaXaXaXaXaXaXaXaXaXaXaXaXaXaXaXaXaXaXaXaXaXaXaXaXy a J [ d.d.d./ W A S S a t V > > & 1 4 4 c ! ' ' ' ' ' ' / N K H aXaXaXaXaXaXaXaXaXaXaXaXaXaXaXaXaXaXaXaXaXaX",
"aXaXaXaXaXaXaXaXaXaXaXaXaXaXaXaXaXaXaXaXaXaXaXaXaXy J [ d.d.d.[ ] } Q S a , 7 z = > 3 4 4 4 n E ~ ' ' ' ' ' ' / N aXaXaXaXaXaXaXaXaXaXaXaXaXaXaXaXaXaXaXaXaXaXaX",
"aXaXaXaXaXaXaXaXaXaXaXaXaXaXaXaXaXaXaXaXaXaXaXaXaXE [ d.d.d.s.] d.s.J a , aXaXaXaXaX- 3 e 4 n T ~ ~ ' ' ' ' ' ' ^ T aXaXaXaXaXaXaXaXaXaXaXaXaXaXaXaXaXaXaXaXaXaX",
"aXaXaXaXaXaXaXaXaXaXaXaXaXaXaXaXaXaXaXaXaXaXaXaXaX` d.d.d.d.] [ d.' V , aXaXaXaXaXaXaX@ 3 e G T ~ ^ ' ' ' ' ' ' ' ^ N aXaXaXaXaXaXaXaXaXaXaXaXaXaXaXaXaXaXaXaXaX",
"aXaXaXaXaXaXaXaXaXaXaXaXaXaXaXaXaXaXaXaXaXaXaXaXaX' d.d.d.} ] d.} J e aXaXaXaXaXaXaXaXaXaX> 8 C J E ~ ~ / ' ' ' ' ' ^ N aXaXaXaXaXaXaXaXaXaXaXaXaXaXaXaXaXaXaXaX",
"aXaXaXaXaXaXaXaXaXaXaXaXaXaXaXaXaXaXaXaXaXaXaXaXaX[ d.d.d.[ [ d.^ V - aXaXaXaXaXaXaXaXaXaXaX- 1 8 0 G ~ ' ' ' ' ' ' ' ~ aXaXaXaXaXaXaXaXaXaXaXaXaXaXaXaXaXaXaXaX",
"aXaXaXaXaXaXaXaXaXaXaXaXaXaXaXaXaXaXaXaXaXaXaXaXm ) } d.[ [ d.] H w aXaXaXaXaXaXaXaXaXaXaXaXaXaXO @ < 0 E ' ' ' ' ' ' F h aXaXaXaXaXaXaXaXaXaXaXaXaXaXaXaXaXaXaX",
"aXaXaXaXaXaXaXaXaXaXaXaXaXaXaXaXaXaXaXaXaXN ` ^ ^ H H Q ~ } s.J p & aXaXaXaXaXaXaXaXaXaXaXaXaXaXaXaXo @ 3 E ' ' ' ' F e , aXaXaXaXaXaXaXaXaXaXaXaXaXaXaXaXaXaXaX",
"aXaXaXaXaXaXaXaXaXaXaXaXaXaXaXaXaXaXaXaXm ~ [ } Q S Z p V Q ^ V & aXaXaXaXaXaXaXaXaXaXaXaXaXaXaXaXaX2 < & 2 E ' ~ ' C e & aXaXaXaXaXaXaXaXaXaXaXaXaXaXaXaXaXaXaX",
"aXaXaXaXaXaXaXaXaXaXaXaXaXaXaXaXaXaXaXaX~ [ [ ( A s p s S p V < aXaXaXaXaXaXaXaXaXaXaXaXaXaXaXaXaXaXm n 8 2 G ~ F ~ h 1 O aXaXaXaXaXaXaXaXaXaXaXaXaXaXaXaXaXaXaX",
"aXaXaXaXaXaXaXaXaXaXaXaXaXaXaXaXaXaXaXb ~ ' ^ A Z p s s p 3 aXaXaXaXaXaXaXaXaXaXaXaXaXaXaXaXaXaXaXaXN T N T ~ n J E e & aXaXaXaXaXaXaXaXaXaXaXaXaXaXaXaXaXaXaXaX",
"aXaXaXaXaXaXaXaXaXaXaXaXaXaXaXaXaXaX! ' ^ H S s p s s t p 5 aXaXaXaXaXaXaXaXaXaXaXaXaXaXaXaXaXaXaX6 E T ! E c j ^ C q O aXaXaXaXaXaXaXaXaXaXaXaXaXaXaXaXaXaXaXaX",
"aXaXaXaXaXaXaXaXaXaXaXaXaXaXaXaXaX( [ Q S S S p s S s s u aXaXaXaXaXaXaXaXaXaXaXaXaXaXaXaXaXaXaXaX  0 C C 9 8 E E 0 3 + aXaXaXaXaXaXaXaXaXaXaXaXaXaXaXaXaXaXaXaX",
"aXaXaXaXaXaXaXaXaXaXaXaXaXaXaXaXT ' H S S S p s S S S u aXaXaXaXaXaXaXaXaXaXaXaXaXaXaXaXaXaXaXaXaX  3 w 4 w C ^ c 4 1 aXaXaXaXaXaXaXaXaXaXaXaXaXaXaXaXaXaXaXaXaX",
"aXaXaXaXaXaXaXaXaXaXaXaXaXaXaXaXE H p s S p s S S S u aXaXaXaXaXaXaXaXaXaXaXaXaXaXaXaXaXaXaXaXaXaX< 4 4 e c ~ G 4 e & aXaXaXaXaXaXaXaXaXaXaXaXaXaXaXaXaXaXaXaXaX",
"aXaXaXaXaXaXaXaXaXaXaXaXaXaXaXm A p s S p s S S S s 4 aXaXaXaXaXaXaXaXaXaXaXaXaXaXaXaXaXaXaXaXaXo 1 4 e t E G 4 e e - aXaXaXaXaXaXaXaXaXaXaXaXaXaXaXaXaXaXaXaXaX",
"aXaXaXaXaXaXaXaXaXaXaXaXaXaXaX9 p s s p s S S S S u aXaXaXaXaXaXaXaXaXaXaXaXaXaXaXaXaXaXaXaXaXaXo 3 e e c n 8 e e q # aXaXaXaXaXaXaXaXaXaXaXaXaXaXaXaXaXaXaXaXaX",
"aXaXaXaXaXaXaXaXaXaXaXaXaXaXu a s p p s S S S S u aXaXaXaXaXaXaXaXaXaXaXaXaXaXaXaXaXaXaXaXaXaXaXaX1 e t c 8 e e e 1 o aXaXaXaXaXaXaXaXaXaXaXaXaXaXaXaXaXaXaXaXaX",
"aXaXaXaXaXaXaXaXaXaXaXaXaXu s a p a S S S S p 4 aXaXaXaXaXaXaXaXaXaXaXaXaXaXaXaXaXaXaXaXaXaXaXaXaX& e 0 8 e e e e & aXaXaXaXaXaXaXaXaXaXaXaXaXaXaXaXaXaXaXaXaXaX",
"aXaXaXaXaXaXaXaXaXaXaXaXu p p a S S S S S r & aXaXaXaXaXaXaXaXaXaXaXaXaXaXaXaXaXaXaXaXaXaXaXaXaXaX% 4 4 e e e e q & aXaXaXaXaXaXaXaXaXaXaXaXaXaXaXaXaXaXaXaXaXaX",
"aXaXaXaXaXaXaXaXaXaXaX4 p a S S S S S S r @ aXaXaXaXaXaXaXaXaXaXaXaXaXaXaXaXaXaXaXaXaXaXaXaXaXaXaXO 3 e e e e e < aXaXaXaXaXaXaXaXaXaXaXaXaXaXaXaXaXaXaXaXaXaXaX",
"aXaXaXaXaXaXaXaXaXaXr a S S S a S S S p & aXaXaXaXaXaXaXaXaXaXaXaXaXaXaXaXaXaXaXaXaXaXaXaXaXaXaXaX$ w e e e e e 7 aXaXaXaXaXaXaXaXaXaXaXaXaXaXaXaXaXaXaXaXaXaXaX",
"aXaXaXaXaXaXaXaXr a S S S S p a S S S 4 aXaXaXaXaXaXaXaXaXaXaXaXaXaXaXaXaXaXaXaXaXaXaXaXaXaXaXaX- 4 e e e e e n b aXaXaXaXaXaXaXaXaXaXaXaXaXaXaXaXaXaXaXaXaXaXaX",
"aXaXaXaXaXaXr a S S S S S a a S S S i # aXaXaXaXaXaXaXaXaXaXaXaXaXaXaXaXaXaXaXaXaXaXaXaXaXaX$ 1 4 e e e e e c ^ T aXaXaXaXaXaXaXaXaXaXaXaXaXaXaXaXaXaXaXaXaXaXaX",
"aXaXaXaXaX5 r a s S S s p a S S S a - aXaXaXaXaXaXaXaXaXaXaXaXaXaXaXaXaXaXaXaXaXaXaXaXaXaXo < w e e e e e F ^ ' E aXaXaXaXaXaXaXaXaXaXaXaXaXaXaXaXaXaXaXaXaXaXaX",
"aXaXaXaXaXaXaX5 r u r e p s d S a ; aXaXaXaXaXaXaXaXaXaXaXaXaXaXaXaXaXaXaXaXaXaXaXaXaXaXaXaXaX- - < w e F ' ' ' ^ b aXaXaXaXaXaXaXaXaXaXaXaXaXaXaXaXaXaXaXaXaXaX",
"aXaXaXaXaXaXaXaXaXaX. b h 9 y p ; aXaXaXaXaXaXaXaXaXaXaXaXaXaXaXaXaXaXaXaXaXaXaXaXaXaXaXaXaXaXaX7 x 7 n ! ^ ^ ! T T v X aXaXaXaXaXaXaXaXaXaXaXaXaXaXaXaXaXaXaXaX",
"aXaXaXaXaXaXaXaXaXaXb R ( R v aXaXaXaXaXaXaXaXaXaXaXaXaXaXaXaXaXaXaXaXaXaXaXaXaXaXaXaXaXaXaXaX7 B R R R N b l k v R ] ] m T B g aXaXaXaXaXaXaXaXaXaXaXaXaXaXaXaX",
"aXaXaXaXaXaXaXaXaXb { z.d.[ R aXaXaXaXaXaXaXaXaXaXaXaXaXaXaXaXaXaXaXaXaXaXaXaXaXaXaXaXaXaXaXaX= k l l l z z z k k k l ) f.f.] ( B 7 aXaXaXaXaXaXaXaXaXaXaXaXaXaX",
"aXaXaXaXaXaXaXaX7 ) v.] ` ` ` l aXaXaXaXaXaXaXaXaXaXaXaXaXaXaXaXaXaXaXaXaXaXaXaXaXaXaXaXaXaXaXaXk l 7 : : = = 7 k k z l M M M M M : aXaXaXaXaXaXaXaXaXaXaXaXaXaX",
"aXaXaXaXaXaXaXaXx b.(.x.j.f.d.` M aXaXaXaXaXaXaXaXaXaXaXaXaXaXaXaXaXaXaXaXaXaXaXaXaXaXaXaXaXaXaXaXaXaXaXaXaXaXaXaXaXaXaXaXaXaXaXaXaXaXaXaXaXaXaXaXaXaXaXaXaXaXaX",
"aXaXaXaXaXaXaX  v R ] | | ) B B v aXaXaXaXaXaXaXaXaXaXaXaXaXaXaXaXaXaXaXaXaXaXaXaXaXaXaXaXaXaXaXaXaXaXaXaXaXaXaXaXaXaXaXaXaXaXaXaXaXaXaXaXaXaXaXaXaXaXaXaXaXaXaX",
"aXaXaXaXaXaXaX  X X g v g f X X X aXaXaXaXaXaXaXaXaXaXaXaXaXaXaXaXaXaXaXaXaXaXaXaXaXaXaXaXaXaXaXaXaXaXaXaXaXaXaXaXaXaXaXaXaXaXaXaXaXaXaXaXaXaXaXaXaXaXaXaXaXaXaX"
};
