/* XPM */
static char *result[] = {
/* columns rows colors chars-per-pixel */
"80 80 213 2 ",
"   c #4D1712",
".  c #4B1B16",
"X  c #730102",
"o  c #44291B",
"O  c #54261F",
"+  c #572825",
"@  c #5B2C2A",
"#  c #4D302E",
"$  c #5E312E",
"%  c #5E382D",
"&  c #463832",
"*  c #5E3434",
"=  c #5D3837",
"-  c #5D393C",
";  c #60312F",
":  c #623231",
">  c #623638",
",  c #643A3A",
"<  c #683B3B",
"1  c #69463A",
"2  c #714E3E",
"3  c #5D3E42",
"4  c #5D3F48",
"5  c #633D44",
"6  c #434343",
"7  c #4A4847",
"8  c #4A4A4B",
"9  c #5C4146",
"0  c #5E4F47",
"q  c #5D434A",
"w  c #534B4A",
"e  c #5B4A4E",
"r  c #4C4C50",
"t  c #534D55",
"y  c #5C4E5B",
"u  c #525154",
"i  c #545359",
"p  c #5B545A",
"a  c #59535C",
"s  c #5A5A5F",
"d  c #694545",
"f  c #63444B",
"g  c #6D4E4D",
"h  c #704545",
"j  c #744C4B",
"k  c #68544C",
"l  c #755545",
"z  c #76534C",
"x  c #624B54",
"c  c #644D59",
"v  c #7B4B50",
"b  c #6A5453",
"n  c #61515E",
"m  c #785553",
"M  c #725A55",
"N  c #7A5A55",
"B  c #755B5B",
"V  c #7C5E5B",
"C  c #7E615C",
"Z  c #7E685E",
"A  c #5C5560",
"S  c #5C5B64",
"D  c #5F5F6C",
"F  c #635563",
"G  c #635866",
"H  c #685961",
"J  c #665B6B",
"K  c #685D6E",
"L  c #7F5F60",
"P  c #685F70",
"I  c #63636B",
"U  c #6A666D",
"Y  c #7F6162",
"T  c #78696A",
"R  c #676571",
"E  c #6A6273",
"W  c #6A6A74",
"Q  c #6B6B77",
"!  c #776C72",
"~  c #716D7C",
"^  c #717075",
"/  c #7E7075",
"(  c #76747D",
")  c #7B797D",
"_  c #880607",
"`  c #900F10",
"'  c #941313",
"]  c #99272B",
"[  c #853A37",
"{  c #9C3237",
"}  c #974749",
"|  c #865E59",
" . c #955254",
".. c #A05051",
"X. c #81645D",
"o. c #90645D",
"O. c #A05F61",
"+. c #836262",
"@. c #856B63",
"#. c #8A6A64",
"$. c #846B6B",
"%. c #8D6B69",
"&. c #9D6567",
"*. c #936D6C",
"=. c #897067",
"-. c #8C726B",
";. c #92726E",
":. c #99766D",
">. c #8B6E78",
",. c #9C6E73",
"<. c #8C7A79",
"1. c #967472",
"2. c #9C7474",
"3. c #957974",
"4. c #9B7A75",
"5. c #95777A",
"6. c #9C7B7A",
"7. c #A36868",
"8. c #A56D77",
"9. c #A47779",
"0. c #A37C7C",
"q. c #A97C7D",
"w. c #9C847B",
"e. c #A3817E",
"r. c #A5887D",
"t. c #AB8B79",
"y. c #AA8A7D",
"u. c #737383",
"i. c #7A7B84",
"p. c #7E7E88",
"a. c #827D82",
"s. c #997D82",
"d. c #A37282",
"f. c #A77B84",
"g. c #A97E85",
"h. c #A97D88",
"j. c #858283",
"k. c #84848B",
"l. c #938683",
"z. c #97868A",
"x. c #878790",
"c. c #8B8B93",
"v. c #968F93",
"b. c #969498",
"n. c #94949A",
"m. c #A48383",
"M. c #AB8585",
"N. c #A58A87",
"B. c #AD8D83",
"V. c #AD8788",
"C. c #AD8A8B",
"Z. c #B38484",
"A. c #B48B84",
"S. c #B88E87",
"D. c #B28D8C",
"F. c #AD9284",
"G. c #A79289",
"H. c #B29286",
"J. c #B99287",
"K. c #B4938C",
"L. c #BA958B",
"P. c #B59B8A",
"I. c #BB9B8C",
"U. c #B18E91",
"Y. c #A59394",
"T. c #AD9C9D",
"R. c #B49494",
"E. c #BB9695",
"W. c #B79895",
"Q. c #BB9B94",
"!. c #BC9B9A",
"~. c #BDA192",
"^. c #9D9DA3",
"/. c #A09FA6",
"(. c #A5A3A5",
"). c #A4A4AA",
"_. c #B2A3A2",
"`. c #ADADB2",
"'. c #B5B5B6",
"]. c #BBBBBD",
"[. c #C09A8F",
"{. c #C09E99",
"}. c #C3A394",
"|. c #C4AA93",
" X c #C4A499",
".X c #C6AA9A",
"XX c #C9A998",
"oX c #CCAB9C",
"OX c #D0AF9F",
"+X c #CEB19B",
"@X c #D1B39D",
"#X c #D4B99E",
"$X c #C5A4A3",
"%X c #CBABA4",
"&X c #CDB0A5",
"*X c #D5B4A4",
"=X c #D9BBA5",
"-X c #DBBDA4",
";X c #DCC0A4",
":X c #E1C3A6",
">X c #E4C5AA",
",X c #E6C8AA",
"<X c #ECCCAD",
"1X c #EFD0B0",
"2X c #F2D2B1",
"3X c #F4D4B3",
"4X c #F6D5B4",
"5X c #BDBDC1",
"6X c #C7C7C8",
"7X c #D5D5D5",
"8X c #E4E4E5",
"9X c gray96",
"0X c None",
/* pixels */
"0X0X0X0X0X0X0X0X0X0X0X0X0X0X0X0X0X0X0X0X0X0X0X0X0X0X0X0X0X0X0X0X0X0X0X0X0X0X0X0X0X0X0X0X0X0X0X0X0X0X0X0X0X0X0X0X0X0X0X0X0X0X0X0X0X0X0X0X0X0X0X0X0X0X0X0X0X0X0X0X",
"0X0X0X0X0X0X0X0X0X0X0X0X0X0X0X0X0X0X0X0X0X0X0X0X0X0X0X0X0X0X0X0X0X0X0X0X0X0X0X0X0X0X0X0X0X0X0X0X0X0X0X0X0X0X0X0X0X0X0X0X0X0X0X0X0X0X0X0X0X0X0X0X0X0X0X0X0X0X0X0X",
"0X0X0X0X0X0X0X0X0X0X0X0X0X0X0X0X0X0X0X0X0X0X0X0X0X0X0X0X0X0X0X0X0X0X0X0X0X0X0X0X0X0X0X0X0X0X0X0X0X0X0X0X0X0X0X0X0X0X0X0X0X0X0X0X0X0X0X0X0X0X0X0X0X0X0X0X0X0X0X0X",
"0X0X0X0X0X0X0X0X0X0X0X0X0X0X0X0X0X0X0X0X0X0X0X0X0X0X0X0X0X0X0X0X0X0X0X0X0X0X0X0X0X0X0X0X0X0X0X0X0X0X0X0X0X0X0X0X0X0X0X0X0X0X0X0X0X0X0X0X0X0X0X0X0X0X0X0X0X0X0X0X",
"0X0X0X0X0X0X0X0X0X0X0X0X0X0X0X0X0X0X0X0X0X0X0X0X0X0X0X0X0X0X0X0X0X0X0X0X0X0X0X0X0X0X0X0X0X0X0X0X0X0X0X0X0X0X0X0X0X0X0X0X0X0X0X0X0X0X0X0X0X0X0X0X0X0X0X0X0X0X0X0X",
"0X0X0X0X0X0X0X0X0X0X0X0X0X0X0X0X0X0X0X0X0X0X0X0X0X0X0X0X0X0X0X0X0X0X0X0X0X0X0X0X0X0X0X0X0X0X0X0X0X0X0X0X0X0X0X0X0X0X0X0X0X0X0X0X0X0X0X0X0X0X0X0X0X0X0X0X0X0X0X0X",
"0X0X0X0X0X0X0X0X0X0X0X0X0X0X0X0X0X0X0X0X0X0X0X0X0X0X0X0X0X0X0X0X0X0X0X0X0X0X0X0X0X0X0X0X0X0X0X0X0X0X0X0X0X0X0X0X0X0X0X0X0X0X0X0X0X0X0X0X0X0X0X0X0X0X0X0X0X0X0X0X",
"0X0X0X0X0X0X0X0X0X0X0X0X0X0X0X0X0X0X0X0X0X0X0X0X0X0X0X0X0X0X0X0X0X0X0X0X0X0X0X0X0X0X0X0X0X0X0X0X0X0X0X0X0X0X0X0X0X0X0X0X0X0X0X0X0X0X0X0X0X0X0X0X0X0X0X0X0X0X0X0X",
"0X0X0X0X0X0X0X0X0X0X0X0X0X0X0X0X0X0X0X0X0X0X0X0X0X0X0X0X0X0X0X0X0X0X0X0X0X0X0X0X0X0X0X0X0X0X0X0X0X0X0X0X0X0X0X0X0X0X0X0X0X0X0X0X0X0X0X0X0X0X0X0X0X0X0X0X0X0X0X0X",
"0X0X0X0X0X0X0X0X0X0X0X0X0X0X0X0X0X0X0X0X0X0X0X0X0X0X0X0X0X0X0X0X0X0X0X0X0X0X0X0X0X0X0X0X0X0X0X0X0X0X0X0X0X0X0X0X0X0X0X0X0X0X0X0X0X0X0X0X0X0X0X0X0X0X0X0X0X0X0X0X",
"0X0X0X0X0X0X0X0X0X0X0X0X0X0X0X0X0X0X0X0X0X0X0X0X0X0X0X0X0X0X0X0X0X0X0X0X0X0X0X0X0X0X0X0X0X0X0X0X0X0X0X0X0X0X0X0X0X0X0X0X0X0X0X0X0X0X0X0X0X0X0X0X0X0X0X0X0X0X0X0X",
"0X0X0X0X0X0X0X0X0X0X0X0X0X0X0X0X0X0X0X0X0X0X0X0X0X0X0X0X0X0X0X0X0X0X0X0X0X0X0X0X0X0X0X0X0X0X0X0X0X0X0X0X0X0X0X0X0X0X0X0X0X0X0X0X0X0X0X0X0X0X0X0X0X0X0X0X0X0X0X0X",
"0X0X0X0X0X0X0X0X0X0X0X0X0X0X0X0X0X0X0X0X0X0X0X0X0X0X0X0X0X0X0X0X0X0X0X0X0X0X0X0X0X0X0X0X0X0X0X0X0X0.f.0X0X0X0X0X0X0X0X0X0X0X0X0X0X0X0X0X0X0X0X0X0X0X0X0X0X0X0X0X",
"0X0X0X0X0X0X0X0X0X0X0X0X0X0X0X0X0X0X0X0X0X0X0X0X0X0X0X0X0X0X0X0X0X0X0X0X0X0X0X0X0X0X0X0X0X0X0X0X0X9.R.V.0X0X0Xf.f.2.0X0X0X0X0X0X0X0X0X0X0X0X0X0X0X0X0X0X0X0X0X0X",
"0X0X0X0X0X0X0X0X0X0X0X0X0X0X0X0X0X0X0X0X0X0X0X0X0X0X0X0X0X0X0X0X0X0X0X0X0X0X0X0X0X0X0X0X0X0X0X0X0X9.V.R.O...U.U.C.C.f.0X0X0X0X0X0X0X0X0X0X0X0X0X0X0X0X0X0X0X0X0X",
"0X0X0X0X0X0X0X0X0X0X0X0X0X0X0X0X0X0X0X0X0X0X0X0X0X0X0X0X0X0X0X0X0X0X0X0X0X0X0X0X0X0X0X0X0X0X0X|.-X[.0.U.{ { R.R.C.U.U.h.0X0X0X0X0X0X0X0X0X0X0X0X0X0X0X0X0X0X0X0X",
"0X0X0X0X0X0X0X0X0X0X0X0X0X0X0X0X0X0X0X0X0X0X0X0X0X0X0X0X0X0X0X0X0X0X0X0X0XP.@X>X+X|.0X0X0X0X|.>X&XT.s.U.} ` 8.R.R.C.D.U.0X0X0X0X0X0X0X0X0X0X0X0X0X0X0X0X0X0X0X0X",
"0X0X0X0X0X0X0X0X0X0X0X0X0X0X0X0X0X0X0X0X0X0X0X0X0X0X0X0X0X0X0X0X0X0X0XF.@X>X4X4X3X<X#XF.}.~.>X=XT.].z.m.q.' ] g.C.f.9.f.M.0X0X0X0X0X0X0X0X0X0X0X0X0X0X0X0X0X0X0X",
"0X0X0X0X0X0X0X0X0X0X0X0X0X0X0X0X0X0X0X0X0X0X0X0X0X0X0X0X0X0X0X0X0X0X0X+X1X4X4X4X4X2X2X#X~.|.1X%X_.].c.>.V.7.' ] 8.d.d.8.9.0X0X0X0X0X0X0X0X0X0X0X0X0X0X0X0X0X0X0X",
"0X0X0X0X0X0X0X0X0X0X0X0X0X0X0X0X0X0X0X0X0X0X0X0X0X0X0X0X0X0X0X0X0X0Xy.#X>X3X4X2X2X,X#X,XXXP.#X XY.6X).( 5.R.7.' ] &.d.d.,.0X0X0X0X0X0X0X0X0X0X0X0X0X0X0X0X0X0X0X",
"0X0X0X0X0X0X0X0X0X0X0X0X0X0X0X0X0X0X0X0X0X0X0X0X0X0X0X0X0X0X0X0X0X0Xr.*X3X4X2X<X2X,X~.@X-XP.}.F.v.'.c.u.~ 5.R.7.` `  .A.F.y.0X0X0X0X0X0X0X0X0X0X0X0X0X0X0X0X0X0X",
"0X0X0X0X0X0X0X0X0X0X0X0X0X0X0X0X0X0X0X0X0X0X0X0X0X0X0X0X0X0X0X0X0X0XP.<X<X<X,X@X:X3X*XQ.-X+XXXG.) i.W R I ~ 6.R.9.} &.I.I.}.I.I.I.F.r.0X0X0X0X0X0X0X0X0X0X0X0X0X",
"0X0X0X0X0X0X0X0X0X0X0X0X0X0X0X0X0X0X0X0X0X0X0X0X0X0X0X0X0X0X0X0X0X0X*X>XoX%X-X-XoX>X2X@XW..X<X.Xj.R W I Q i.l.e.C.R.V.0.I.}.}.H.I..X XP.w.0X0X0X0X0X0X0X0X0X0X0X",
"0X0X0X0X0X0X0X0X0X0X0X0X0X0X0X0X0X0X0X0X0X0X0X0X0X0X0X0X0X0X0X0X0XP.XX X$X$X$X*X*X%X>X2XoXQ.:X,Xo.5 K R T G..XB.B.m.C.q.Z.A.r.P.@X*X*X*XI.1.0X0X0X0X0X0X0X0X0X0X",
"0X0X0X0X0X0X0X0X0X0X0X0X0X0X0X0X0X0X0X0X0X0X0X0X0X0X0X0X0X0X0X0X0X*X|.M.E.!.$X$X$X$X%X>X2X|..X*X[ _ v j.N.w.H.F.I.q.9.Z.Z.q.P.*X*X*X*X*X[.0.0X0X0X0X0X0X0X0X0X0X",
"0X0X0X0X0X0X0X0X0X0X0X0X0X0X0X0X0X0X0X0X0X0X0X0X0X0X0X0X0X0X0X0X0X>X;XK.!.E.E.$X$X$X$X%X>X<X*XQ.[ X $.~.*XQ.B.Q.3.%.*.2.4.B..X.X*X*X*X.XH.0.0X0X0X0X0X0X0X0X0X0X",
"0X0X0X0X0X0X0X0X0X0X0X0X0X0X0X0X0X0X0X0X0X0X0X0X0X0X0X0X0X0X0X0X0X#X1X@XK.R.{.$X$X$X$X$X$X*X+X.Xt. .F.*X}.P.~.K.0X0X0X-.K.~.P.~..XoX}.J.Z.*.0X0X0X0X0X0X0X0X0X0X",
"0X0X0X0X0X0X0X0X0X0X0X0X0X0X0X0X0X0X0X0X0X0X0X0X0X0X0X0X0X0X0X0X0X}.>X<X@XL.V.R.!.$X$X$X$XR.V.W.-X-X|.G.W. XW.0X0X;.B.~.OX*X.X~.H.B.Z.q.2.0X0X0X0X0X0X0X0X0X0X0X",
"0X0X0X0X0X0X0X0X0X0X0X0X0X0X0X0X0X0X0X0X0X0X0X0X0X0X0X0X0X0X0X0XM.$X%X*X>X-XQ.m.M.M.R.{.R.M.C.R.%X:X+XY.T.!.0.0X0X! <.l.Y.I.oXF.4.2.2.0X0X0X0X0X0X0X0X0X0X0X0X0X",
"0X0X0X0X0X0X0X0X0X0X0X0X0X0X0X0X0X0X0X0X0X0X0X0X0X0X0X0X0X0X0X0X4.!.E.$X%X%X$X!.R.C.V.6.m.D.M.$X$XR._.8X6Xz.0X0X(.].6X].n.l.A.:.X.X.0X0X0X0X0X0X0X0X0X0X0X0X0X0X",
"0X0X0X0X0X0X0X0X0X0X0X0X0X0X0X0X0X0X0X0X0X0X0X0X0X0X0X0X0X0X0X0X0XV.M.R.!.!.!.!.R.R.R.R.C.m.M.$X!.<.'.9X9X8X`.^.6X7X7X7X6Xb.1.#.0X0X0X0X0X0X0X0X0X0X0X0X0X0X0X0X",
"0X0X0X0X0X0X0X0X0X0X0X0X0X0X0X0X0X0X0X0X0X0X0X0X0X0X0X0X0X0X0X0X0X4.0.0.R.R.R.R.R.R.C.V.N.3.@.C.V.(.c.^.`.5X8X].].7X7X6X'.k.0X0X0X0X0X0X0X0X0X0X0X0X0X0X0X0X0X0X",
"0X0X0X0X0X0X0X0X0X0X0X0X0X0X0X0X0X0X0X0X0X0X0X0X0X0X0X0X0X0X0X0X0XZ 0.2.0.0.m.V.m.M.3./ (.a.) T T (.`.p.n.^.7X).`.].5X^.k.0X0X0X0X0X0X0X0X0X0X0X0X0X0X0X0X0X0X0X",
"0X0X0X0X0X0X0X0X0X0X0X0X0X0X0X0X0X0X0X0X0X0X0X0X0X0X0X0X0X0X0X0X0XZ 4.D.R.V.w.1.m.R.6.z./.s.m.5.^ p.c.k.n.`.^.c.^.n.n.(.p.0X0X0X0X0X0X0X0X0X0X0X0X0X0X0X0X0X0X0X",
"0X0X0X0X0X0X0X0X0X0X0X0X0X0X0X0X0X0X0X0X0X0X0X0X0X0X0X0X0X0X0X0X0X;.6.1.m.V.6.3.4.m.1.m.c.z.N.s.U S i.n.k.c.x.i.c.k.u.k.0X0X0X0X0X0X0X0X0X0X0X0X0X0X0X0X0X0X0X0X",
"0X0X0X0X0X0X0X0X0X0X0X0X0X0X0X0X0X0X0X0X0X0X0X0X0X0X0X0X0X0X0X0X;.V.R.6.3.6.m.K.m.;.;.6.b.c.c.n.z.0X0X0X0X0X0X0X0X0X0X0X0X0X0X0X0X0X0X0X0X0X0X0X0X0X0X0X0X0X0X0X",
"0X0X0X0X0X0X0X0X0X0X0X0X0X0X0X0X0X0X0X0X0X0X0X0X0X0X0X0X0X0X0X0XM.R.R.R.R.R.R.R.V.Z.0.M.z.Y.Y.z.M.1.0X0X0X0X0X0X0X0X0X0X0X0X0X0X0X0X0X0X0X0X0X0X0X0X0X0X0X0X0X0X",
"0X0X0X0X0X0X0X0X0X0X0X0X0X0X0X0X0X0X0X0X0X0X0X0X0X0X0X0X0X0X0X2.R.R.R.R.R.R.R.R.6.0.m.M.0.q.0.0.m.0.0X0X0X0X0X0X0X0X0X0X0X0X0X0X0X0X0X0X0X0X0X0X0X0X0X0X0X0X0X0X",
"0X0X0X0X0X0X0X0X0X0X0X0X0X0X0X0X0X0X0X0X0X0X0X0X0X0X0X0X0X0X0Xm.R.R.R.R.R.R.R.R.V.D.D.e.M.2.0.M.V.M.0X0X0X0X0X0X0X0X0X0X0X0X0X0X0X0X0X0X0X0X0X0X0X0X0X0X0X0X0X0X",
"0X0X0X0X0X0X0X0X0X0X0X0X0X0X0X0X0X0X0X0X0X0X0X0X0X0X0X0X0X0X2.D.R.R.R.R.R.R.R.R.R.R.R.M.D.e.M.D.V.V.0X0X0X0X0X0X0X0X0X0X0X0X0X0X0X0X0X0X0X0X0X0X0X0X0X0X0X0X0X0X",
"0X0X0X0X0X0X0X0X0X0X0X0X0X0X0X0X0X0X0X0X0X0X0X0X0X0X0X0X0X0Xm.R.R.R.R.R.E.}. X!.R.R.R.R.r.y.M.M.m.V.%.0X0X0X0X0X0X0X0X0X0X0X0X0X0X0X0X0X0X0X0X0X0X0X0X0X0X0X0X0X",
"0X0X0X0X0X0X0X0X0X0X0X0X0X0X0X0X0X0X0X0X0X0X0X0X0X0X0X0X0X0Xm.R.R.R.R.R.R.R.{..XoXoX.XQ.A.L.J.q.D.R.e.@.0X0X0X0X0X0X0X0X0X0X0X0X0X0X0X0X0X0X0X0X0X0X0X0X0X0X0X0X",
"0X0X0X0X0X0X0X0X0X0X0X0X0X0X0X0X0X0X0X0X0X0X0X0X0X0X0X0X0X0Xm.R.R.R.R.R.R.R.R.Q.Q.Q.Q.Q.Q.K. XB.R.R.R.V.1.0X0X0X0X0X0X0X0X0X0X0X0X0X0X0X0X0X0X0X0X0X0X0X0X0X0X0X",
"0X0X0X0X0X0X0X0X0X0X0X0X0X0X0X0X0X0X0X0X0X0X0X0X0X0X0X0X0X0X0.R.R.R.R.K.}.oXoXoX}.Q. X.XW.A.oXF.D.R.R.D.D.4.0X0X0X0X0X0X0X0X0X0X0X0X0X0X0X0X0X0X0X0X0X0X0X0X0X0X",
"0X0X0X0X0X0X0X0X0X0X0X0X0X0X0X0X0X0X0X0X0X0X0X0X0X0X0X0X0X0X6.R.R.D.J..X*X*X*X*X*XOX XQ.R.F..XH.*.D.R.R.D.D.4.0X0X0X0X0X0X0X0X0X0X0X0X0X0X0X0X0X0X0X0X0X0X0X0X0X",
"0X0X0X0X0X0X0X0X0X0X0X0X0X0X0X0X0X0X0X0X0X0X0X0X0X0X0X0X0X0X3.D.R.L.oX*X*X*X*X*X.XW.R.R.L.B.}.y.< N 4.R.R.R.D.2.0X0X0X0X0X0X0X0X0X0X0X0X0X0X0X0X0X0X0X0X0X0X0X0X",
"0X0X0X0X0X0X0X0X0X0X0X0X0X0X0X0X0X0X0X0X0X0X0X0X0X0X0X0X0X0X%.M.R..X*X*X*X*X*X XR.R.R.Q.}.q.B.4.: : , N 6.R.R.D.m.0X0X0X0X0X0X0X0X0X0X0X0X0X0X0X0X0X0X0X0X0X0X0X",
"0X0X0X0X0X0X0X0X0X0X0X0X0X0X0X0X0X0X0X0X0X0X0X0X0X0X0X0X0X0X%.M.Q.*X*X*X*X*X*XoXQ.I. X.XA.6.R.1.: : : : , N 6.R.R.D.6.0X0X0X0X0X0X0X0X0X0X0X0X0X0X0X0X0X0X0X0X0X",
"0X0X0X0X0X0X0X0X0X0X0X0X0X0X0X0X0X0X0X0X0X0X0X0X0X0X0X0X0X0X1.V.Q.*X*X*X*X*X*X*X*X*XoXA.| 0.R.%.: : : : : : , N 6.R.R.6.0X0X0X0X0X0X0X0X0X0X0X0X0X0X0X0X0X0X0X0X",
"0X0X0X0X0X0X0X0X0X0X0X0X0X0X0X0X0X0X0X0X0X0X0X0X0X0X0X0X0X0X6.R.Q.*X*X*X*X*X*X*X*XoXK.X.; ,.m.j : : : : : : : : , Y R.R.M.0X0X0X0X0X0X0X0X0X0X0X0X0X0X0X0X0X0X0X",
"0X0X0X0X0X0X0X0X0X0X0X0X0X0X0X0X0X0X0X0X0X0X0X0X0X0X0X0X0X0Xm.R.Q.*X*X*X*X*X*X*XoXK.#.C m : > > : : : : : : : : * - T R.R.m.0X0X0X0X0X0X0X0X0X0X0X0X0X0X0X0X0X0X",
"0X0X0X0X0X0X0X0X0X0X0X0X0X0X0X0X0X0X0X0X0X0X0X0X0X0X0X0X0X0XM.R.Q.*X*X*X*X*X*X XK.#.V +.+.| h $ @ ; : : : : - f n G G $.K.R.4.0X0X0X0X0X0X0X0X0X0X0X0X0X0X0X0X0X",
"0X0X0X0X0X0X0X0X0X0X0X0X0X0X0X0X0X0X0X0X0X0X0X0X0X0X0X0X0X0XM.R.}.*X*X*X*X*X}.K.6.X.+.+.+.+.+.V h ; @ $ : - F E E E E G $.V.K.-.0X0X0X0X0X0X0X0X0X0X0X0X0X0X0X0X",
"0X0X0X0X0X0X0X0X0X0X0X0X0X0X0X0X0X0X0X0X0X0X0X0X0X0X0X0X0X0XM.R..X*X*X*X*X}.A.C.+.+.+.+.+.+.+.+.+.V m , @ # G E E E E E n g 3.C.=.0X0X0X0X0X0X0X0X0X0X0X0X0X0X0X",
"0X0X0X0X0X0X0X0X0X0X0X0X0X0X0X0X0X0X0X0X0X0X0X0X0X0X0X0X0X4.M.R.oX*X@XoX}.Z.D.4.V +.+.+.+.+.+.+.+.+.+.m @ + q J E E E E x + m -.C.=.0X0X0X0X0X0X0X0X0X0X0X0X0X0X",
"0X0X0X0X0X0X0X0X0X0X0X0X0X0X0X0X0X0X0X0X0X0X0X0X0X0X0X0X0Xy.M.}.XXL.S.A.Z.Z.V.X.+.+.+.+.+.+.+.+.+.+.+.m 9 c 3 q K E P G - > | V -.V.@.0X0X0X0X0X0X0X0X0X0X0X0X0X",
"0X0X0X0X0X0X0X0X0X0X0X0X0X0X0X0X0X0X0X0X0X0X0X0X0X0X0X0X0XI.K. XJ.Z.Z.Z.Z.R.m.N +.+.+.+.+.+.+.+.+.+.+.m * c G n K K J x @ j +.+.X.e.6.0X0X0X0X0X0X0X0X0X0X0X0X0X",
"0X0X0X0X0X0X0X0X0X0X0X0X0X0X0X0X0X0X0X0X0X0X0X0X0X0X0X0XoX}.}.}.R.Z.Z.Z.R.R.;.X.+.+.+.+.+.+.+.+.+.+.Y c , 5 c K K K K q : +.+.+.+.#.V.%.0X0X0X0X0X0X0X0X0X0X0X0X",
"0X0X0X0X0X0X0X0X0X0X0X0X0X0X0X0X0X0X0X0X0X0X0X0X0X0X0XoX XW..XR.R.A.Z.R.R.R.X.X.+.+.+.+.+.+.+.+.+.Y H K K K E K K E G = z +.+.+.+.C 6.6.0X0X0X0X0X0X0X0X0X0X0X0X",
"0X0X0X0X0X0X0X0X0X0X0X0X0X0X0X0X0X0X0X0X0X0X0X0X0X0X X XK.Q.}.R.R.R.R.R.R.m.N +.+.+.+.+.+.+.+.+.+.d 4 K E E n n E P G @ j +.+.+.+.+.#.0.0X0X0X0X0X0X0X0X0X0X0X0X",
"0X0X0X0X0X0X0X0X0X0X0X0X0X0X0X0X0X0X0X0X0X0X0X0X0Xy.}.K.R.Q.!.R.R.R.R.R.R.4.N +.+.+.+.+.+.+.+.+.+.< + f G f 3 J K J G + h +.+.+.+.+.C ;.0X0X0X0X0X0X0X0X0X0X0X0X",
"0X0X0X0X0X0X0X0X0X0X0X0X0X0X0X0X0X0X0X0X0X0X0X0X2.A.K.R.R.R.W.R.R.R.R.R.R.;.N +.+.+.+.+.+.+.+.+.+., O : > * n G F E x $ V +.+.+.+.+.C #.0X0X0X0X0X0X0X0X0X0X0X0X",
"0X0X0X0X0X0X0X0X0X0X0X0X0X0X0X0X0X0X0X0X0X0X0X0Xm.R.R.R.R.R.D.R.R.R.R.R.D.X.+.+.+.+.+.+.+.+.+.+.+.< O : * n G 5 c P 3 : +.+.+.+.+.+.+.+.0X0X0X0X0X0X0X0X0X0X0X0X",
"0X0X0X0X0X0X0X0X0X0X0X0X0X0X0X0X0X0X0X0X0X0X0X0XM.R.R.R.R.R.D.R.R.R.R.R.A.C +.+.+.+.+.+.+.+.+.+.+.< @ f n G 5 , G G @ z +.+.+.+.+.+.+.+.0X0X0X0X0X0X0X0X0X0X0X0X",
"0X0X0X0X0X0X0X0X0X0X0X0X0X0X0X0X0X0X0X0X0X0X0X1.C.R.R.R.R.R.R.D.R.R.R.R.D.Z +.+.+.+.+.+.+.+.+.+.+.x y K G 5 : c E F + j +.+.+.Y Y +.+.M 0X0X0X0X0X0X0X0X0X0X0X0X",
"0X0X0X0X0X0X0X0X0X0X0X0X0X0X0X0X0X0X0X0X0X0X0Xe.R.R.R.R.R.R.R.R.R.R.R.R.R.$.B +.+.+.+.+.+.+.+.+.L n G x , : f K K f @ g b k w w w k V b 0X0X0X0X0X0X0X0X0X0X0X0X",
"0X0X0X0X0X0X0X0X0X0X0X0X0X0X0X0X0X0X0X0X0X0X0XV.R.R.R.R.R.R.R.R.R.R.R.R.R.4.0 e k M B B V V V N B - * : : f K E F - # 0X0X0X0X0X0X0Xw 7 0X0X0X0X0X0X0X0X0X0X0X0X",
"0X0X0X0X0X0X0X0X0X0X0X0X0X0X0X0X0X0X0X0X0X0Xb -.D.R.R.R.R.R.R.R.R.R.R.R.R.V.X.0X0X0X0X0X0X0X0X0X0X. + : f K E G 9 + 0X0X0X0X0X0X0X0X0X0X0X0X0X0X0X0X0X0X0X0X0X0X",
"0X0X0X0X0X0X0X0X0X0X0X0X0X0X0X0X0X0X0X0X0X0Xy d X.e.D.R.R.R.R.R.R.R.R.R.R.R.-.0X0X0X0X0X0X0X0X0X0X  @ f K E G 9 @ . 0X0X0X0X0X0X0X0X0X0X0X0X0X0X0X0X0X0X0X0X0X0X",
"0X0X0X0X0X0X0X0X0X0X0X0X0X0X0X0X0X0X0X0X0XA Q g 2 l X.6.V.R.R.R.R.R.R.R.R.R.e.0X0X0X0X0X0X0X0X0X0XO f K E G 9 : + 0X0X0X0X0X0X0X0X0X0X0X0X0X0X0X0X0X0X0X0X0X0X0X",
"0X0X0X0X0X0X0X0X0X0X0X0X0X0X0X0X0X0X0X0X0XR u.~ g 2 l l N X.6.e.m.m.M.V.D.R.R.;.0X0X0X0X0X0X0X0X0X3 K E K q : $ @ . 0X0X0X0X0X0X0X0X0X0X0X0X0X0X0X0X0X0X0X0X0X0X",
"0X0X0X0X0X0X0X0X0X0X0X0X0X0X0X0X0X0X0X0XJ ~ u.u.~ g 2 l 1 0X0X0X0X0X0X0X%.=.3.4.X.0X0X0X0X0X0X0Xe G E E E F f 3 > $ 0X0X0X0X0X0X0X0X0X0X0X0X0X0X0X0X0X0X0X0X0X0X",
"0X0X0X0X0X0X0X0X0X0X0X0X0X0X0X0X0X0X0X0XE u.u.u.u.~ b 1 % 0X0X0X0X0X0X0X0X0X0X0Xk 0X0X0X0X0X0X0XK E E E E E E K G n y 0X0X0X0X0X0X0X0X0X0X0X0X0X0X0X0X0X0X0X0X0X",
"0X0X0X0X0X0X0X0X0X0X0X0X0X0X0X0X0X0X0X0Xt E ~ u.u.u.u.H e 0X0X0X0X0X0X0X0X0X0X0X0X0X0X0X0X0X0X0XA G G a i t t i G J G t 0X0X0X0X0X0X0X0X0X0X0X0X0X0X0X0X0X0X0X0X",
"0X0X0X0X0X0X0X0X0X0X0X0X0X0X0X0X0X0X0X0Xs S G G E ~ u.u.G 0X0X0X0X0X0X0X0X0X0X0X0X0X0X0X0X0X0X0Xi D D S i 8 7 7 r S D S S i r 8 0X0X0X0X0X0X0X0X0X0X0X0X0X0X0X0X",
"0X0X0X0X0X0X0X0X0X0X0X0X0X0X0X0X0X0X0Xu I I i 8 i t E Q a 0X0X0X0X0X0X0X0X0X0X0X0X0X0X0X0X0X0X0X6 8 8 8 8 w 7 6 6 6 7 s ( ( Q I p & 0X0X0X0X0X0X0X0X0X0X0X0X0X0X",
"0X0X0X0X0X0X0X0X0X0X0X0X0X0X0X0X0X0X0XU I W i 8 8 6 0X0X0X0X0X0X0X0X0X0X0X0X0X0X0X0X0X0X0X0X0X0X6 8 7 6 6 & o & 6 7 8 8 u u u u u # 0X0X0X0X0X0X0X0X0X0X0X0X0X0X",
"0X0X0X0X0X0X0X0X0X0X0X0X0X0X0X0X0X0XI I p.k.I S u r 7 0X0X0X0X0X0X0X0X0X0X0X0X0X0X0X0X0X0X0X0X0X0X0X0X0X0X0X0X0X0X0X0X0X0X0X0X0X0X0X0X0X0X0X0X0X0X0X0X0X0X0X0X0X",
"0X0X0X0X0X0X0X0X0X0X0X0X0X0X0X0X0X0Xi I j.^.n.k.) ^ s 0X0X0X0X0X0X0X0X0X0X0X0X0X0X0X0X0X0X0X0X0X0X0X0X0X0X0X0X0X0X0X0X0X0X0X0X0X0X0X0X0X0X0X0X0X0X0X0X0X0X0X0X0X",
"0X0X0X0X0X0X0X0X0X0X0X0X0X0X0X0X0X0X8 8 s ^ I S 8 8 8 6 0X0X0X0X0X0X0X0X0X0X0X0X0X0X0X0X0X0X0X0X0X0X0X0X0X0X0X0X0X0X0X0X0X0X0X0X0X0X0X0X0X0X0X0X0X0X0X0X0X0X0X0X"
};
