/* XPM */
static char *result[] = {
/* columns rows colors chars-per-pixel */
"80 80 213 2 ",
"   c #241624",
".  c #291C29",
"X  c #361924",
"o  c #352C35",
"O  c #382E3A",
"+  c #3B323B",
"@  c #472928",
"#  c #57362F",
"$  c #5B322D",
"%  c #4E3030",
"&  c #553A37",
"*  c #553C39",
"=  c #60312E",
"-  c #623030",
";  c #5E403F",
":  c #6A473F",
">  c #704C3E",
",  c #3C3241",
"<  c #423B43",
"1  c #493D47",
"2  c #453E4B",
"3  c #5D3F42",
"4  c #454345",
"5  c #4B4446",
"6  c #4A464C",
"7  c #4D4C4D",
"8  c #5A4141",
"9  c #52464A",
"0  c #574549",
"q  c #4F504F",
"w  c #4C4555",
"e  c #4E4C54",
"r  c #544553",
"t  c #524A53",
"y  c #574B59",
"u  c #545259",
"i  c #5C525D",
"p  c #674745",
"a  c #6A4C41",
"s  c #724848",
"d  c #735241",
"f  c #78574B",
"g  c #655653",
"h  c #6B5154",
"j  c #796157",
"k  c #534F60",
"l  c #5B5763",
"z  c #5D5C64",
"x  c #645C6A",
"c  c #64636D",
"v  c #6B6A6E",
"b  c #7B6563",
"n  c #6B6474",
"m  c #6A6574",
"M  c #6B6B73",
"N  c #6D6A79",
"B  c #786B73",
"V  c #706E7E",
"C  c #727072",
"Z  c #797576",
"A  c #75737E",
"S  c #7B747B",
"D  c #8C0E0F",
"F  c #950708",
"G  c #981719",
"H  c #A60000",
"J  c #A11A1B",
"K  c #981D21",
"L  c #982C27",
"P  c #89383C",
"I  c #9C383C",
"U  c #A32B28",
"Y  c #9A3E44",
"T  c #A63D41",
"R  c #9A4949",
"E  c #9A565C",
"W  c #B05A5D",
"Q  c #83665B",
"!  c #957852",
"~  c #AD6B56",
"^  c #856565",
"/  c #896767",
"(  c #846B64",
")  c #8D6964",
"_  c #8D6C6C",
"`  c #9D6069",
"'  c #926F6E",
"]  c #8E746D",
"[  c #94756B",
"{  c #9B6B74",
"}  c #8A7679",
"|  c #827A7B",
" . c #947373",
".. c #9A7474",
"X. c #977B76",
"o. c #9C7B7A",
"O. c #A76869",
"+. c #B16F65",
"@. c #BE7765",
"#. c #A27976",
"$. c #A2747B",
"%. c #A37D7D",
"&. c #AA7E7E",
"*. c #B4767A",
"=. c #D28C20",
"-. c #95826A",
";. c #89807C",
":. c #90857F",
">. c #9B827B",
",. c #A3837C",
"<. c #A78A7A",
"1. c #AA8B7E",
"2. c #716F80",
"3. c #737383",
"4. c #7B7884",
"5. c #7C7D84",
"6. c #837E83",
"7. c #8A7E86",
"8. c #987F81",
"9. c #A57685",
"0. c #8A8687",
"q. c #84848D",
"w. c #8B848C",
"e. c #988989",
"r. c #868691",
"t. c #8D8C94",
"y. c #948C92",
"u. c #9A8B91",
"i. c #949294",
"p. c #989599",
"a. c #9B9B9D",
"s. c #A48383",
"d. c #AB8484",
"f. c #A38B85",
"g. c #AC8C84",
"h. c #AB8789",
"j. c #AC8B8B",
"k. c #B38383",
"l. c #B58B84",
"z. c #B38C8C",
"x. c #AD9383",
"c. c #A9958B",
"v. c #B59486",
"b. c #B3948D",
"n. c #B9948A",
"m. c #B4988A",
"M. c #BB9A8C",
"N. c #B18D90",
"B. c #AF9491",
"V. c #A39899",
"C. c #B49494",
"Z. c #BA9595",
"A. c #B59E90",
"S. c #BC9C95",
"D. c #BB9C9A",
"F. c #B5A190",
"G. c #B8A396",
"H. c #9C9BA2",
"J. c #A29DA3",
"K. c #A8A3A5",
"L. c #A4A2A9",
"P. c #AAA9AD",
"I. c #B5AAA7",
"U. c #BAB1AB",
"Y. c #ACACB1",
"T. c #B8B7B8",
"R. c #C09D8D",
"E. c #C09F96",
"W. c #C19D9D",
"Q. c #C3A392",
"!. c #C5AB95",
"~. c #CAAA95",
"^. c #C4A39C",
"/. c #CBA69B",
"(. c #CCAC9A",
"). c #CEB09A",
"_. c #D4B39D",
"`. c #C5A4A4",
"'. c #C7AAA6",
"]. c #CCACA4",
"[. c #C9B4A5",
"{. c #D4B3A4",
"}. c #DBBCA4",
"|. c #D6B5A9",
" X c #DCBCA9",
".X c #C1B4B6",
"XX c #DEC1A6",
"oX c #DFC0AB",
"OX c #CEC5BF",
"+X c #E1C2A6",
"@X c #E5C4AB",
"#X c #E8C7AC",
"$X c #E7C8AB",
"%X c #EBCBAE",
"&X c #EFCEB0",
"*X c #F0CFB1",
"=X c #EFD0B0",
"-X c #F5D4B3",
";X c #F8D7B5",
":X c #F9D8B6",
">X c #BDBDC1",
",X c #BFC0C1",
"<X c #C3C3C4",
"1X c #C9C7C7",
"2X c gray80",
"3X c #DACBC0",
"4X c gray83",
"5X c #DFDFDE",
"6X c #E6E6E6",
"7X c #ECECEC",
"8X c #F5F5F4",
"9X c #F8F8F8",
"0X c None",
/* pixels */
"0X0X0X0X0X0X0X0X0X0X0X0X0X0X0X0X0X0X0X0X0X0X0X0X0X0X0X0X0X0X0X0X0X0X0X0X0X0X0X0X0X0X0X0X0X0X0X0X0X0X0X0X0X0X0X0X0X0X0X0X0X0X0X0X0X0X0X0X0X0X0X0X0X0X0X0X0X0X0X0X",
"0X0X0X0X0X0X0X0X0X0X0X0X0X0X0X0X0X0X0X0X0X0X0X0X0X0X0X0X0X0X0X0X0X0X0X0X0X0X0X0X0X0X0X0X0X0X0X0X0X0X0X0X0X0X0X0X0X0X0X0X0X0X0X0X0X0X0X0X0X0X0X0X0X0X0X0X0X0X0X0X",
"0X0X0X0X0X0X0X0X0X0X0X0X0X0X0X0X0X0X0X0X0X0X0X0X0X0X0X0X0X0X0X0X0X0X0X0X0X0X0X0X0X0X0X0X0X0X0X0X0X0X0X0X0X0X9.0X0X0X0X0X0X0X0X0X0X0X0X0X0X0X0X0X0X0X0X0X0X0X0X0X",
"0X0X0X0X0X0X0X0X0X0X0X0X0X0X0X0X0X0X0X0X0X0X0X0X0X0X0X0X0X0X0X0X0X0X0X0X0X0X0X0X0X0X0X0X0X0X0X0X0X0X0X0X0Xz.C.C.N.C.0X0X0X0X0X0X0X0X0X0X0X0X0X0X0X0X0X0X0X0X0X0X",
"0X0X0X0X0X0X0X0X0X0X0X0X0X0X0X0X0X0X0X0X0X0X0X0X0X0X0X0X0X0X0X0X0X0X0X0X0X0X0X0X0X0X0X0X0X0X0X0X0X0X0X0XO.C.C.C.C.C.C.h.0X0X0X0X0X0X0X0X0X0X0X0X0X0X0X0X0X0X0X0X",
"0X0X0X0X0X0X0X0X0X0X0X0X0X0X0X0X0X0X0X0X0X0X0X0X0X0X0X0X0X0X0X0X0X0X0X0X0X0X0X0X0X0X0X0X0X0X0X0X0X0X0XD F I O.d.C.j.$.$.9.0X0X0X0X0X0X0X0X0X0X0X0X0X0X0X0X0X0X0X",
"0X0X0X0X0X0X0X0X0X0X0X0X0X0X0X0X0X0X0X0X0X0X0X0X0X0X0X0X0X0X0X0X0X0X0X0X0X0X0X0X0X0X0X0X0X0X0X0X0X0XZ.*.W U D G I E ` 9.9.{ 0X0X0X0X0X0X0X0X0X0X0X0X0X0X0X0X0X0X",
"0X0X0X0X0X0X0X0X0X0X0X0X0X0X0X0X0X0X0X0X0X0X0X0X0X0X0X0X0X0X0X0X0X0X0X0X0X0X0X0X0X0X0X0X0X0X0X0X0X0XS A 7.s.*.T F F G Y { 0X0X0X0X0X0X0X0X0X0X0X0X0X0X0X0X0X0X0X",
"0X0X0X0X0X0X0X0X0X0X0X0X0X0X0X0X0X0X0X0X0X0X0X0X0X0X0X0X0X0X0X0X0X0X0X0X0X0X0X0X0X0X0X0X0X0X0X0X}.F.q.4.c A 7.,.+.I K F D 0X0X0X0X0X0X0X0X0X0X0X0X0X0X0X0X0X0X0X",
"0X0X0X0X0X0X0X0X0X0X0X0X0X0X0X0X0X0X0X0X0X0X0X0X0X0X0X0X0X0X0X0X0X0X0X0X0X0X0X0X0X0X0X0X0X0X0X+X%X<.0.5.q.q.5.! =.! / E P 0X0X0X0X0X0X0X0X0X0X0X0X0X0X0X0X0X0X0X",
"0X0X0X0X0X0X0X0X0X0X0X0X0X0X0X0X0X0X0X0X0X0X0X0X0X0X0X0X0X0X0X0X0X0X0X0X0X0X0X0X0X0X0X0X0X0X_.-X-X<.j v i.i.i.;.! -.Z g 0X$.0X0X0X0X0X0X0X0X0X0X0X0X0X0X0X0X0X0X",
"0X0X0X0X0X0X0X0X0X0X0X0X0X0X0X0X0X0X0X0X0X0X0X0X0X0X0X0X0X0X0X0X0X0X0X0X0X0X0X0X0X0X0X0X}.+X(.).!.F.6.B i.i.a.t.T.Y.V.0X0X0X0X0X0X0X0X0X0X0X0X0X0X0X0X0X0X0X0X0X",
"0X0X0X0X0X0X0X0X0X0X0X0X0X0X0X0X0X0X0X0X0X0X0X0X0X0X0X0X0X0X0X0X0X0X0X0X0X0X0X0X0X0XXX%X-X-X X(.b.Q.I.i.| y.t.H.L.6.c.0X0X0X0X0X0X0X0X0X0X0X0X0X0X0X0X0X0X0X0X0X",
"0X0X0X0X0X0X0X0X0X0X0X0X0X0X0X0X0X0X0X0X0X0X0X0X0X0X0X0X0X0X0X0X0X0X0X0X0X0X0X0X#X-X&X#X*X-X-X@X}.-XXXK.p.S | H.S j.!.R.0X0X0X0X0X0X0X0X0X0X0X0X0X0X0X0X0X0X0X0X",
"0X0X0X0X0X0X0X0X0X0X0X0X0X0X0X0X0X0X0X0X0X0X0X0X0X0X0X0X0X0X0X0X0X0X0X0X0X0X0X@X-X-X-X-X@X%X-X}.(.#X-X}.I.y.L I y.Q.~.0X0X0X0X0X0X0X0X0X0X0X0X0X0X0X0X0X0X0X0X0X",
"0X0X0X0X0X0X0X0X0X0X0X0X0X0X0X0X0X0X0X0X0X0X0X0X0X0X0X0X0X0X0X0X0X0X0X0X0X0X0X#X-X-X-X&X-X@X%X+X^.S._.%X}.e.G G w.n.{.M.0X0X0X0X0X0X0X0X0X0X0X0X0X0X0X0X0X0X0X0X",
"0X0X0X0X0X0X0X0X0X0X0X0X0X0X0X0X0X0X0X0X0X0X0X0X0X0X0X0X0X0X0X0X0X0X0X0X0X0X0X}.#X-X#X#X-X-X}.-X-X}.^.S.{.{.~ H P %.^.S.Q.0X0X0X0X0X0X0X0X0X0X0X0X0X0X0X0X0X0X0X",
"0X0X0X0X0X0X0X0X0X0X0X0X0X0X0X0X0X0X0X0X0X0X0X0X0X0X0X0X0X0X0X0X0X0X0X0X0X0Xz.{.-X-X X-X-X-X}.#X-X-X-X}.S.^.M.U H R D.n.v.0X0X0X0X0X0X0X0X0X0X0X0X0X0X0X0X0X0X0X",
"0X0X0X0X0X0X0X0X0X0X0X0X0X0X0X0X0X0X0X0X0X0X0X0X0X0X0X0X0X0X0X0X0X0X0X0X0X0Xz. X-X X].-X-X-XXX@X-X-X-X-X#XD.b.v.L J n.Q.g.0X0X0X0X0X0X0X0X0X0X0X0X0X0X0X0X0X0X0X",
"0X0X0X0X0X0X0X0X0X0X0X0X0X0X0X0X0X0X0X0X0X0X0X0X0X0X0X0X0X0X0X0X0X0X0X0X0X0Xz.].{.^.{.-X-X-X}.+X@X X#X-X;X#XD.D.v.L +.@Xv.0X0X0X0X0X0X0X0X0X0X0X0X0X0X0X0X0X0X0X",
"0X0X0X0X0X0X0X0X0X0X0X0X0X0X0X0X0X0X0X0X0X0X0X0X0X0X0X0X0X0X0X0X0X0X0X0X0X0Xz.`.W./.%X-X-X%XQ.+X-X].`.{.@X=X#XD.D.+.@.%Xn.0X0X0X0X0X0X0X0X0X0X0X0X0X0X0X0X0X0X0X",
"0X0X0X0X0X0X0X0X0X0X0X0X0X0X0X0X0X0X0X0X0X0X0X0X0X0X0X0X0X0X0X0X0X0X0X0X0X0Xz.W./.&X%X@X-X$Xs. X-X#X].`.`.].oX XD.C.v.{.g.0X0X0X0X0X0X0X0X0X0X0X0X0X0X0X0X0X0X0X",
"0X0X0X0X0X0X0X0X0X0X0X0X0X0X0X0X0X0X0X0X0X0X0X0X0X0X0X0X0X0X0X0X0X0X0X0X0X0Xj./.&X-X#X@X:X_.o.'.XX-X#X`.`.D.^.].].C.o.C.,.0X0X0X0X0X0X0X0X0X0X0X0X0X0X0X0X0X0X0X",
"0X0X0X0X0X0X0X0X0X0X0X0X0X0X0X0X0X0X0X0X0X0X0X0X0X0X0X0X0X0X0X0X0X0X0X0X0X0Xb.#X-X-X}.-X:X~.o.`.`. X#X#X{.>.g.`.`.D.b o.X.0X0X0X0X0X0X0X0X0X0X0X0X0X0X0X0X0X0X0X",
"0X0X0X0X0X0X0X0X0X0X0X0X0X0X0X0X0X0X0X0X0X0X0X0X0X0X0X0X0X0X0X0X0X0X0X0X0X0Xb.$X-X%X}.-X;X~...D.`.`.].{.|.m.!.}.].^.] X.[ 0X0X0X0X0X0X0X0X0X0X0X0X0X0X0X0X0X0X0X",
"0X0X0X0X0X0X0X0X0X0X0X0X0X0X0X0X0X0X0X0X0X0X0X0X0X0X0X0X0X0X0X0X0X0X0X0X0X0Xg./.@X@X+X-X-XM._ s.C.`.`.`.`.`.`.[.'.I.X.( ] ( 0X0X0X0X0X0X0X0X0X0X0X0X0X0X0X0X0X0X",
"0X0X0X0X0X0X0X0X0X0X0X0X0X0X0X0X0X0X0X0X0X0X0X0X0X0X0X0X0X0X0X0X0X0X0X0X0X0X%.^.R.g.g.M.}.g.o.s.s.s.>.C.j.g.f.T.y.y.;.b e.X.0X0X0X0X0X0X0X0X0X0X0X0X0X0X0X0X0X0X",
"0X0X0X0X0X0X0X0X0X0X0X0X0X0X0X0X0X0X0X0X0X0X0X0X0X0X0X0X0X0X0X0X0X0X0X0X0X0Xs.b.d.....C.^.~.g.j.B.j.] s.b.~.G.T.D.B.:.( ,.,.0X0X0X0X0X0X0X0X0X0X0X0X0X0X0X0X0X0X",
"0X0X0X0X0X0X0X0X0X0X0X0X0X0X0X0X0X0X0X0X0X0X0X0X0X0X0X0X0X0X0X0X0X0X0X0X0X0X0Xz.z.d.C.|.-X-X%X(.j.f.] o.X._.B.T.C.8.Z ( 1.x.x.x.0X0X0X0X0X0X0X0X0X0X0X0X0X0X0X0X",
"0X0X0X0X0X0X0X0X0X0X0X0X0X0X0X0X0X0X0X0X0X0X0X0X0X0X0X0X0X0X0X0X0X0X0X0X0X0X0XC.`.`.`.].#X-X;X-X#XF.<.X.( (.f.P.w.w.C ^ #.M.!.Q.M.1.0X0X0X0X0X0X0X0X0X0X0X0X0X0X",
"0X0X0X0X0X0X0X0X0X0X0X0X0X0X0X0X0X0X0X0X0X0X0X0X0X0X0X0X0X0X0X0X0X0X0X0X0X0X0Xj.`.`.`.`.'.|.#X-X%X}._._.~.c.e.e.c.F.>.' ..l.n.R.Q.x.x.x.m.A.e.q.0X0X0X0X0X0X0X0X",
"0X0X0X0X0X0X0X0X0X0X0X0X0X0X0X0X0X0X0X0X0X0X0X0X0X0X0X0X0X0X0X0X0X0X0X0X0X0X0X' h.D.`.`.`.`.].{.(.}.}.-X-XOXP.P.U.[.g...' k.k.l.g.f.v.Q.G.Y.>XT.H.0X0X0X0X0X0X0X",
"0X0X0X0X0X0X0X0X0X0X0X0X0X0X0X0X0X0X0X0X0X0X0X0X0X0X0X0X0X0X0X0X0X0X0X0X0X0X0X0X0Xo.z.W.`.`.`.C.g.E.]. X3X>X<X8X7X6X1XJ.| o.k.k.#.] ,.l.V.p.4X4X4XT.0X0X0X0X0X0X",
"0X0X0X0X0X0X0X0X0X0X0X0X0X0X0X0X0X0X0X0X0X0X0X0X0X0X0X0X0X0X0X0X0X0X0X0X0X0X0X0X0XM.M.d.j.Z.`.j.C.h.`.`..XY.6X8X8X9X9X7XT.y.d.k.) ( %.#.0.i.4X4X4X2XP.r.0X0X0X0X",
"0X0X0X0X0X0X0X0X0X0X0X0X0X0X0X0X0X0X0X0X0X0X0X0X0X0X0X0X0X0X0X0X0X0X0X0X0X0X0X0X0XQ.{.S.s.%.s.%.%.%.`.`..XY.5X6X8X7X7X6X<XL.p.%.Q Q k.[ Z t.2X2XL.<X<XL.q.0X0X0X",
"0X0X0X0X0X0X0X0X0X0X0X0X0X0X0X0X0X0X0X0X0X0X0X0X0X0X0X0X0X0X0X0X0X0X0X0X0X0X0X0X0XM.S.C.C.C.C.C.d.o.z.`..Xr.J.,X4XY.2X<X>XY.H.6.g 0X) j g 0XP.2XL.q.P.T.w.0X0X0X",
"0X0X0X0X0X0X0X0X0X0X0X0X0X0X0X0X0X0X0X0X0X0X0X0X0X0X0X0X0X0X0X0X0X0X0X0X0X0X0X0X0Xz.C.C.C.C.C.C.C.C.o.%.c.} s.u.u.} u.T.Y.P.a.q.0X0X0X0X0X0X0Xa.P.A C a.t.N 0X0X",
"0X0X0X0X0X0X0X0X0X0X0X0X0X0X0X0X0X0X0X0X0X0X0X0X0X0X0X0X0X0X0X0X0X0X0X0X0X0X0X0X0Xz.C.C.C.C.C.C.C.C.h.1.S.d.h.C.C.C.h.y.a.p.i.M 0X0X0X0X0X0X0X0XA v C S a.q.0X0X",
"0X0X0X0X0X0X0X0X0X0X0X0X0X0X0X0X0X0X0X0X0X0X0X0X0X0X0X0X0X0X0X0X0X0X0X0X0X0X0X0X0XC.C.C.C.C.C.C.C.C.h.M.|.s.h.C.C.C.C.w.6.| 4.0X0X0X0X0X0X0X0X0X0X0XC v 0.5.0X0X",
"0X0X0X0X0X0X0X0X0X0X0X0X0X0X0X0X0X0X0X0X0X0X0X0X0X0X0X0X0X0X0X0X0X0X0X0X0X0X0X0X0XC.C.C.C.C.C.C.C.C.h.M.].h.d.C.C.C.C.h.' _ 0X0X0X0X0X0X0X0X0X0X0X0X0X0X0X0X0X0X",
"0X0X0X0X0X0X0X0X0X0X0X0X0X0X0X0X0X0X0X0X0X0X0X0X0X0X0X0X0X0X0X0X0X0X0X0X0X0X0X0X0XC.C.C.C.C.C.C.C.C.h.n.].Z.o.C.C.C.C.z... .0X0X0X0X0X0X0X0X0X0X0X0X0X0X0X0X0X0X",
"0X0X0X0X0X0X0X0X0X0X0X0X0X0X0X0X0X0X0X0X0X0X0X0X0X0X0X0X0X0X0X0X0X0X0X0X0X0X0X0X0XC.C.C.C.C.C.C.C.C.h.<.'.`.%.z.C.C.C.z. .' 0X0X0X0X0X0X0X0X0X0X0X0X0X0X0X0X0X0X",
"0X0X0X0X0X0X0X0X0X0X0X0X0X0X0X0X0X0X0X0X0X0X0X0X0X0X0X0X0X0X0X0X0X0X0X0X0X0X0X0X0XC.C.C.C.C.C.C.C.C.h.,.(.`.j.s.C.C.C.s._ _ 0X0X0X0X0X0X0X0X0X0X0X0X0X0X0X0X0X0X",
"0X0X0X0X0X0X0X0X0X0X0X0X0X0X0X0X0X0X0X0X0X0X0X0X0X0X0X0X0X0X0X0X0X0X0X0X0X0X0X0Xd.C.C.C.C.C.C.C.C.C.h.o.,.,.%.o.C.C.C.s.' _ 0X0X0X0X0X0X0X0X0X0X0X0X0X0X0X0X0X0X",
"0X0X0X0X0X0X0X0X0X0X0X0X0X0X0X0X0X0X0X0X0X0X0X0X0X0X0X0X0X0X0X0X0X0X0X0X0X0X0X0Xs.C.C.C.C.C.C.C.C.C.h... . .d.C.C.C.C.s.' _ 0X0X0X0X0X0X0X0X0X0X0X0X0X0X0X0X0X0X",
"0X0X0X0X0X0X0X0X0X0X0X0X0X0X0X0X0X0X0X0X0X0X0X0X0X0X0X0X0X0X0X0X0X0X0X0X0X0X0X0Xz.C.C.C.C.C.C.C.C.C.C.j.j.j.C.C.C.C.C.s.' _ 0X0X0X0X0X0X0X0X0X0X0X0X0X0X0X0X0X0X",
"0X0X0X0X0X0X0X0X0X0X0X0X0X0X0X0X0X0X0X0X0X0X0X0X0X0X0X0X0X0X0X0X0X0X0X0X0X0X0X0Xz.C.C.C.C.C.C.C.C.C.C.C.C.C.C.C.C.C.C.s._ _ 0X0X0X0X0X0X0X0X0X0X0X0X0X0X0X0X0X0X",
"0X0X0X0X0X0X0X0X0X0X0X0X0X0X0X0X0X0X0X0X0X0X0X0X0X0X0X0X0X0X0X0X0X0X0X0X0X0X0Xk.C.C.C.C.C.C.C.C.C.C.C.C.C.C.C.C.C.C.C.s._ _ 0X0X0X0X0X0X0X0X0X0X0X0X0X0X0X0X0X0X",
"0X0X0X0X0X0X0X0X0X0X0X0X0X0X0X0X0X0X0X0X0X0X0X0X0X0X0X0X0X0X0X0X0X0X0X0X0X0X0Xs.C.C.C.C.C.C.C.C.C.C.C.C.C.C.z.C.C.C.C.s._  .0X0X0X0X0X0X0X0X0X0X0X0X0X0X0X0X0X0X",
"0X0X0X0X0X0X0X0X0X0X0X0X0X0X0X0X0X0X0X0X0X0X0X0X0X0X0X0X0X0X0X0X0X0X0X0X0X0X0Xh.C.C.C.C.C.C.C.C.C.C.C.C.C.C.z.C.C.C.C.h._  .^ 0X0X0X0X0X0X0X0X0X0X0X0X0X0X0X0X0X",
"0X0X0X0X0X0X0X0X0X0X0X0X0X0X0X0X0X0X0X0X0X0X0X0X0X0X0X0X0X0X0X0X0X0X0X0X0X0X0Xz.C.C.C.C.C.C.C.C.C.C.C.C.C.z.C.C.C.C.C.z.'  .^ 0X0X0X0X0X0X0X0X0X0X0X0X0X0X0X0X0X",
"0X0X0X0X0X0X0X0X0X0X0X0X0X0X0X0X0X0X0X0X0X0X0X0X0X0X0X0X0X0X0X0X0X0X0X0X0X0Xo.C.C.C.C.C.C.C.C.C.C.C.C.C.z.z.C.C.C.C.C.C. .' ^ 0X0X0X0X0X0X0X0X0X0X0X0X0X0X0X0X0X",
"0X0X0X0X0X0X0X0X0X0X0X0X0X0X0X0X0X0X0X0X0X0X0X0X0X0X0X0X0X0X0X0X0X0X0X0X0X0X%.C.C.C.C.C.C.C.C.C.C.C.C.z.k.C.C.C.C.C.C.C... ._ 0X0X0X0X0X0X0X0X0X0X0X0X0X0X0X0X0X",
"0X0X0X0X0X0X0X0X0X0X0X0X0X0X0X0X0X0X0X0X0X0X0X0X0X0X0X0X0X0X0X0X0X0X0X0X0X0Xh.C.C.C.C.C.C.C.C.C.C.C.C.k.z.C.C.C.C.C.z.C... ._ 0X0X0X0X0X0X0X0X0X0X0X0X0X0X0X0X0X",
"0X0X0X0X0X0X0X0X0X0X0X0X0X0X0X0X0X0X0X0X0X0X0X0X0X0X0X0X0X0X0X0X0X0X0X0X0Xo.z.C.C.C.C.C.C.C.C.C.C.C.k.d.C.C.C.C.C.C.z.C... ._ 0X0X0X0X0X0X0X0X0X0X0X0X0X0X0X0X0X",
"0X0X0X0X0X0X0X0X0X0X0X0X0X0X0X0X0X0X0X0X0X0X0X0X0X0X0X0X0X0X0X0X0X0X0X0X0X%.C.C.C.C.C.C.C.C.C.C.C.z.&.h.C.C.C.C.C.z.z.C... .' 0X0X0X0X0X0X0X0X0X0X0X0X0X0X0X0X0X",
"0X0X0X0X0X0X0X0X0X0X0X0X0X0X0X0X0X0X0X0X0X0X0X0X0X0X0X0X0X0X0X0X0X0X0X0X0Xd.C.C.C.C.C.C.C.C.C.C.z.d.d.C.C.C.C.C.z.k.z.C... . .^ 0X0X0X0X0X0X0X0X0X0X0X0X0X0X0X0X",
"0X0X0X0X0X0X0X0X0X0X0X0X0X0X0X0X0X0X0X0X0X0X0X0X0X0X0X0X0X0X0X0X0X0X0X0Xo.j.C.C.C.C.C.C.C.C.C.z.k.%.C.C.C.C.C.z.&.k.C.C... . .^ 0X0X0X0X0X0X0X0X0X0X0X0X0X0X0X0X",
"0X0X0X0X0X0X0X0X0X0X0X0X0X0X0X0X0X0X0X0X0X0X0X0X0X0X0X0X0X0X0X0X0X0X0X0X%.C.C.C.C.C.C.C.C.C.z.k.&.j.C.C.C.C.C.d.&.z.C.C... . ._ 0X0X0X0X0X0X0X0X0X0X0X0X0X0X0X0X",
"0X0X0X0X0X0X0X0X0X0X0X0X0X0X0X0X0X0X0X0X0X0X0X0X0X0X0X0X0X0X0X0X0X0X0X0Xs.C.C.C.C.C.C.C.C.z.k.k.s.C.C.C.C.C.z.%.k.C.C.C... . ._ 0X0X0X0X0X0X0X0X0X0X0X0X0X0X0X0X",
"0X0X0X0X0X0X0X0X0X0X0X0X0X0X0X0X0X0X0X0X0X0X0X0X0X0X0X0X0X0X0X0X0X0X0X0Xs.C.C.C.C.C.C.C.z.k.k.%.C.C.C.C.C.C.&.d.z.C.C.C... . ._ 0X0X0X0X0X0X0X0X0X0X0X0X0X0X0X0X",
"0X0X0X0X0X0X0X0X0X0X0X0X0X0X0X0X0X0X0X0X0X0X0X0X0X0X0X0X0X0X0X0X0X0X0X0Xs.C.C.C.C.C.C.z.k.k.&.h.C.C.C.C.C.d.&.k.C.C.C.C... . ._ 0X0X0X0X0X0X0X0X0X0X0X0X0X0X0X0X",
"0X0X0X0X0X0X0X0X0X0X0X0X0X0X0X0X0X0X0X0X0X0X0X0X0X0X0X0X0X0X0X0X0X0X0X0Xs.C.C.C.C.z.k.k.k.k.s.C.C.C.C.C.z.%.d.z.C.C.C.C... . .^ 0X0X0X0X0X0X0X0X0X0X0X0X0X0X0X0X",
"0X0X0X0X0X0X0X0X0X0X0X0X0X0X0X0X0X0X0X0X0X0X0X0X0X0X0X0X0X0X0X0X0X0X0X0X%.C.z.z.k.k.k.k.k.s.C.C.C.C.C.z.d.%.k.C.C.C.C.C... ._ 0X0X0X0X0X0X0X0X0X0X0X0X0X0X0X0X0X",
"0X0X0X0X0X0X0X0X0X0X0X0X0X0X0X0X0X0X0X0X0X0X0X0X0X0X0X0X0X0X0X0X0X0X0X0X0X%.k.k.k.k.k.k.k.h.C.C.C.C.z.k.%.k.z.C.C.C.C.C. .^ 0X0X0X0X0X0X0X0X0X0X0X0X0X0X0X0X0X0X",
"0X0X0X0X0X0X0X0X0X0X0X0X0X0X0X0X0X0X0X0X0X0X0X0X0X0X0X0X0X0X0X0X0X0X0X0X0X0X_ #.&.k.k.k.k.z.z.z.z.k.k.k.k.k.C.C.C.C.C.C...0X0X0X0X0X0X0X0X0X0X0X0X0X0X0X0X0X0X0X",
"0X0X0X0X0X0X0X0X0X0X0X0X0X0X0X0X0X0X0X0X0X0X0X0X0X0X0X0X0X0X0X0X0X0X0X0X0X0Xi B B ) ) ) ) ) / #.&.&.&.&.&.h.j.j.h.h.h.h. .0X0X0X0X0X0X0X0X0X0X0X0X0X0X0X0X0X0X0X",
"0X0X0X0X0X0X0X0X0X0X0X0X0X0X0X0X0X0X0X0X0X0X0X0X0X0X0X0X0X0X0X0X0X0X0X0X0X0Xl 3.V h > d d a p f h 0Xp p s s s s a h g p 0X0X0X0X0X0X0X0X0X0X0X0X0X0X0X0X0X0X0X0X",
"0X0X0X0X0X0X0X0X0X0X0X0X0X0X0X0X0X0X0X0X0X0X0X0X0X0X0X0X0X0X0X0X0X0X0X0X0X0Xl 3.3.V h > a 8 d a 0X0XX = - - - $ & 9 % 0X0X0X0X0X0X0X0X0X0X0X0X0X0X0X0X0X0X0X0X0X",
"0X0X0X0X0X0X0X0X0X0X0X0X0X0X0X0X0X0X0X0X0X0X0X0X0X0X0X0X0X0X0X0X0X0X0X0X0X0Xx 3.3.3.V h ; a d 8 0X0X@ - - = $ * 9 & @ 0X0X0X0X0X0X0X0X0X0X0X0X0X0X0X0X0X0X0X0X0X",
"0X0X0X0X0X0X0X0X0X0X0X0X0X0X0X0X0X0X0X0X0X0X0X0X0X0X0X0X0X0X0X0X0X0X0X0X0X0Xx 3.3.3.3.V r : a 0X0X. 1 8 # * 9 9 * $ % 0X0X0X0X0X0X0X0X0X0X0X0X0X0X0X0X0X0X0X0X0X",
"0X0X0X0X0X0X0X0X0X0X0X0X0X0X0X0X0X0X0X0X0X0X0X0X0X0X0X0X0X0X0X0X0X0X0X0X0X0Xn 3.3.3.3.V y y 3 0X0Xo t t t t t 0 8 5 + 0X0X0X0X0X0X0X0X0X0X0X0X0X0X0X0X0X0X0X0X0X",
"0X0X0X0X0X0X0X0X0X0X0X0X0X0X0X0X0X0X0X0X0X0X0X0X0X0X0X0X0X0X0X0X0X0X0X0X0X0XN 3.3.3.V n r i r 0X0X+ t t t t t 1 + , w < 0X0X0X0X0X0X0X0X0X0X0X0X0X0X0X0X0X0X0X0X",
"0X0X0X0X0X0X0X0X0X0X0X0X0X0X0X0X0X0X0X0X0X0X0X0X0X0X0X0X0X0X0X0X0X0X0X0X0X0XN 3.V n N n i i y 0X  + + < < + o o < l N M u 2 0X0X0X0X0X0X0X0X0X0X0X0X0X0X0X0X0X0X",
"0X0X0X0X0X0X0X0X0X0X0X0X0X0X0X0X0X0X0X0X0X0X0X0X0X0X0X0X0X0X0X0X0X0X0X0X0X0XN 3.n N V m x t r 0X  o + + + 7 7 4 4 6 u v 5.N z c z 0X0X0X0X0X0X0X0X0X0X0X0X0X0X0X",
"0X0X0X0X0X0X0X0X0X0X0X0X0X0X0X0X0X0X0X0X0X0X0X0X0X0X0X0X0X0X0X0X0X0X0X0X0X0Xc 2.N n A N N z 6 0X0X+ + + + + + o + < 4 < t u y w 2 4 0X0X0X0X0X0X0X0X0X0X0X0X0X0X",
"0X0X0X0X0X0X0X0X0X0X0X0X0X0X0X0X0X0X0X0X0X0X0X0X0X0X0X0X0X0X0X0X0X0X0X0X0X0Xt z 7 e A t.N c z x 0X0X. . . 0X0X0X  + q 5 4 e k k 6 0X0X0X0X0X0X0X0X0X0X0X0X0X0X0X",
"0X0X0X0X0X0X0X0X0X0X0X0X0X0X0X0X0X0X0X0X0X0X0X0X0X0X0X0X0X0X0X0X0X0X0X0X0X0Xo u 7 4 e M q.t.r.4.A e , 0X0X0X0X0X0X0X0X0X0X0X0X0X0X0X0X0X0X0X0X0X0X0X0X0X0X0X0X0X",
"0X0X0X0X0X0X0X0X0X0X0X0X0X0X0X0X0X0X0X0X0X0X0X0X0X0X0X0X0X0X0X0X0X0X0X0X0X0X0XO o o o O 2 i v v c 2 + 0X0X0X0X0X0X0X0X0X0X0X0X0X0X0X0X0X0X0X0X0X0X0X0X0X0X0X0X0X",
"0X0X0X0X0X0X0X0X0X0X0X0X0X0X0X0X0X0X0X0X0X0X0X0X0X0X0X0X0X0X0X0X0X0X0X0X0X0X0X0X0X0X0X0X0X0X0X0X0X0X0X0X0X0X0X0X0X0X0X0X0X0X0X0X0X0X0X0X0X0X0X0X0X0X0X0X0X0X0X0X"
};
