/* XPM */
static char *result[] = {
/* columns rows colors chars-per-pixel */
"80 80 94 2 ",
"   c #394E24",
".  c #295123",
"X  c #345426",
"o  c #375528",
"O  c #3B5629",
"+  c #4C4F28",
"@  c #44592C",
"#  c #4B5B2E",
"$  c #54542B",
"%  c #4F5C30",
"&  c #535E31",
"*  c #585F33",
"=  c #795632",
"-  c #5C6134",
";  c #616236",
":  c #6A6036",
">  c #666438",
",  c #6D663B",
"<  c #72663B",
"1  c #786A3F",
"2  c #BF2F2A",
"3  c #C32E2A",
"4  c #C5322C",
"5  c #C8372F",
"6  c #C8382F",
"7  c #CB3C32",
"8  c #9B4D33",
"9  c #835936",
"0  c #8D5836",
"q  c #9C5336",
"w  c #A35437",
"e  c #B3553B",
"r  c #BB543B",
"t  c #BC593D",
"y  c #CE4235",
"u  c #D04537",
"i  c #D14738",
"p  c #D34C3A",
"a  c #CC563E",
"s  c #D6523E",
"d  c #D8543F",
"f  c #8A6740",
"g  c #946B44",
"h  c #8C724A",
"j  c #A76745",
"k  c #B46A48",
"l  c #B97451",
"z  c #D65640",
"x  c #D95640",
"c  c #D55C43",
"v  c #DB5B43",
"b  c #CE6648",
"n  c #DD6147",
"m  c #DE6449",
"M  c #D6684B",
"N  c #DC6C4E",
"B  c #C5724F",
"V  c #D97B5A",
"C  c #E0664B",
"Z  c #E26B4D",
"A  c #E36F50",
"S  c #E57453",
"D  c #E77856",
"F  c #E87A57",
"G  c #E77C5A",
"H  c #E97C58",
"J  c #E9815E",
"K  c #DE8867",
"L  c #E58463",
"P  c #EA8463",
"I  c #EA8768",
"U  c #EB8A6B",
"Y  c #EA8E72",
"T  c #EB9175",
"R  c #EC967C",
"E  c #EE997D",
"W  c #F09B7F",
"Q  c #E99780",
"!  c #E99C86",
"~  c #E99D88",
"^  c #F19D82",
"/  c #EFA087",
"(  c #EDA38B",
")  c #F2A186",
"_  c #F2A48A",
"`  c #F3A88F",
"'  c #F4AC94",
"]  c #F4AF98",
"[  c #F5B29C",
"{  c #F5B6A1",
"}  c #FACCBC",
"|  c #FBD2C5",
" . c #FFF5F3",
".. c None",
/* pixels */
"................................................................................................................................................................",
"................................................................................................................................................................",
"................................................................................................................................................................",
"................................................................................................................................................................",
"................................................................................................................................................................",
"................................................................................................................................................................",
"................................................................................................................................................................",
"................................................................................................................................................................",
"................................................................................................................................................................",
"................................................................................................................................................................",
"................................................................................................................................................................",
"................................................................................................................................................................",
"................................................................................................................................................................",
"................................................................................................................................................................",
"................................................................................................................................................................",
"................................................................................................................................................................",
"................................................................................................................................................................",
"................................................................................................................................................................",
"................................................................................................................................................................",
"................................................................................................................................................................",
"................................................... . . . . . . . . . . ........................................................................................",
"................................................. . . . . . . . . . . . . . ....................................................................................",
"................................................... . . . . . . . . . . . . . . ................................................................................",
"..................................................... . .   = w e k k k j 9 $ . . ..# ....... . X X o ..........................................................",
"......................................................+ q M I Q Q ! ! ! ! Q Y b 0 . o . . . . . X o O # # @ ....................................................",
"....................................................x Z Y ! ! ! ~ ! ! ! ! ! ~ ! Y t 8 r a b M b B j f < , * & & ................................................",
"..................................................v A Q ! ! ! ! ! ! ! ! ! ! ! ! ! T u s G ! ! Q R R T L l 1 > * % ..............................................",
"................................................x S Q ! ! ! ~ ! ~ ! ! ! ! ! ! ~ ~ ! L u G ! Q R R E W ) ^ K g , - & ............................................",
"................................................C Q ! ! ~ ! ~ ! ! ! ! ! ~ ! ! ! ! ! Q c S Q R W ^ ^ ^ ' ] W U l h * @ ..........................................",
"..............................................v T ! ! ! ! ! ! ! ! ~ ! ! ! ~ ! ! ! ! ~ L v R R E ) ] { | | { [ Y g ; > ..........................................",
"............................................y S ! ! ! ! ! ! ~ ! ! ~ ! ~ ! ~ ! ! ! ~ ~ Q z Y R R W _ }  . .| ) E V : - ..........................................",
"............................................p Y ! ! ! ! ! ! ! ~ ! ! ! ! ! ! ! ! ! ~ ! ! N L R R W ) }  . .| _ W U Z ............................................",
"............................................v Q ! ~ ~ ! ! ! ~ ! ! ~ ! ! ! ! ! ! ! ! ! ! L N R R ^ ] { | | { { ) E A ............................................",
"..........................................5 C Q ! ~ ! ! ! ! ! ! ! ! ~ ~ ! ! ! ~ ! ! ~ ! Y n R W ) ^ ) ] { _ / _ ^ J v ..........................................",
"..........................................6 m Y ! ! ~ ! ~ ! ! ! ! ! ! ~ ~ ! ! ! ! ~ ~ ! Q x T E R E E ^ _ W ` { ! T v ..........................................",
"..........................................4 v J Q ! ! ! ! ! ! ! ! ! ~ ! ! ~ ! ! ! ! ! ~ Q z Y Q R R E _ ^ _ { { ! R v ..........................................",
"..........................................4 d A J Y ! ! ! ! ~ ! ! ! ! ! ~ ~ ! ! ! ~ ! ~ T s Y ! Q R R E E E ( ~ ! Q v ..........................................",
"..........................................3 p v D H H U Q ~ ~ ! ! ! ! ! ! ! ! ~ ! ! ! ~ Y p L ! ! ! ! ! Q Q ! ! ! T n ..........................................",
"..........................................3 7 x n F F H H P Y ! ! ! ! ! ! ~ ! ! ! ! ! ! D p S ! ! ! ! ! ! ! ! ~ ! I z ..........................................",
"..........................................3 4 d x C H H H H H H I T ! ! ~ ! ! ! ! ! Q J Z i A Q ! ! ! ~ ! ! ! ! Y D p ..........................................",
"..........................................3 3 y x x Z H F H H H H H H P I I I P J H F F v p C P ! ! ~ ~ ! Q T I F C y ..........................................",
"..........................................3 3 3 s x x Z H H H H H H H H H H H H H H H S x u C H G J J H H H H H Z s 4 ..........................................",
"............................................3 3 5 d x x m F F H H H H H H H H H H H H n d 7 Z H F H H H H H H A x y 3 ..........................................",
"............................................3 3 3 7 x x x v Z D H H H H H H H H H H Z x y 7 Z H F H H H H H S x s 4 3 ..........................................",
"............................................3 3 3 3 6 s x x x v m A S F H H H D A n x p 3 y Z G H H H H H A x x 6 3 4 ..........................................",
"..............................................3 3 3 4 4 u x x x x x x x v v x x x x s 4 3 u Z G F H H S m x x y 3 3 ............................................",
"................................................3 3 3 3 3 4 u s x x x x x x x x x s 4 3 3 i x C Z C n x x x y 3 3 3 ............................................",
"................................................3 3 3 3 3 3 3 3 6 y i p s s s p 7 4 3 3 3 u x x x x x x d y 3 3 3 ..............................................",
"..................................................3 3 3 3 3 3 3 3 3 3 3 3 3 3 3 3 3 3 3 3 7 x x x x x i 4 3 3 3 ................................................",
"....................................................3 3 3 3 3 3 3 3 3 3 3 3 3 3 3 3 3 3 3 3 7 y y 7 4 3 3 3 3 ..................................................",
"....................................................3 3 3 3 3 3 3 3 3 3 3 3 3 3 3 3 3 3 3 3 3 3 3 3 3 3 3 3 ....................................................",
"......................................................3 3 3 3 3 3 3 3 3 3 3 3 3 3 3 3 3 3 3 3 3 3 3 3 3 3 ......................................................",
"........................................................3 3 3 3 3 3 3 3 3 3 3 3 3 3 3 3 3 3 3 3 3 3 3 3 ........................................................",
"..........................................................3 3 3 3 3 3 3 3 3 3 3 3 3 3 3 3 3 3 3 3 3 ............................................................",
"..............................................................3 3 3 3 3 3 3 3 3 3 3 3 3 3 3 3 3 3 ..............................................................",
"................................................................3 3 3 3 3 3 3 3 3 3 3 3 3 3 3 ..................................................................",
"..................................................................3 3 3 3 3 3 3 3 3 3 2 3 ......................................................................",
"......................................................................3 3 3 3 3 3 3 3 ..........................................................................",
"..........................................................................3 3 ..................................................................................",
"................................................................................................................................................................",
"................................................................................................................................................................",
"................................................................................................................................................................",
"................................................................................................................................................................",
"................................................................................................................................................................",
"................................................................................................................................................................",
"................................................................................................................................................................",
"................................................................................................................................................................",
"................................................................................................................................................................",
"................................................................................................................................................................",
"................................................................................................................................................................",
"................................................................................................................................................................",
"................................................................................................................................................................",
"................................................................................................................................................................",
"................................................................................................................................................................",
"................................................................................................................................................................",
"................................................................................................................................................................",
"................................................................................................................................................................",
"................................................................................................................................................................",
"................................................................................................................................................................",
"................................................................................................................................................................"
};
