/* XPM */
static char *result[] = {
/* columns rows colors chars-per-pixel */
"80 80 104 2 ",
"   c #295123",
".  c #335426",
"X  c #3B5327",
"o  c #375528",
"O  c #3B5629",
"+  c #3F582B",
"@  c #554F29",
"#  c #44592C",
"$  c #4B5B2E",
"%  c #52542C",
"&  c #4F5D30",
"*  c #535E31",
"=  c #595E33",
"-  c #5C6134",
";  c #626236",
":  c #666438",
">  c #6C653A",
",  c #71653C",
"<  c #C32E2A",
"1  c #C5322C",
"2  c #C8372F",
"3  c #C8382F",
"4  c #C93730",
"5  c #CB3C32",
"6  c #835735",
"7  c #8C5334",
"8  c #945B39",
"9  c #AB5639",
"0  c #9F603F",
"q  c #C54233",
"w  c #CE4235",
"e  c #D04537",
"r  c #D14738",
"t  c #D34C3A",
"y  c #C2553C",
"u  c #CC563E",
"i  c #D7523E",
"p  c #D8543F",
"a  c #BA5D40",
"s  c #8B6641",
"d  c #946943",
"f  c #93754D",
"g  c #9C714B",
"h  c #AA6342",
"j  c #A8724C",
"k  c #B67754",
"l  c #D95640",
"z  c #DB5B43",
"x  c #CA6A4A",
"c  c #DD6147",
"v  c #D5664A",
"b  c #DE6449",
"n  c #DC6C4E",
"m  c #C37552",
"M  c #DF7454",
"N  c #E0664B",
"B  c #E26B4E",
"V  c #E46F50",
"C  c #E57453",
"Z  c #E77856",
"A  c #E87A57",
"S  c #E77A59",
"D  c #E97C58",
"F  c #DC815E",
"G  c #E6815E",
"H  c #E9815E",
"J  c #E38361",
"K  c #EA8463",
"L  c #EA8768",
"P  c #EB8A6B",
"I  c #E58F71",
"U  c #EA8E72",
"Y  c #EB9275",
"T  c #E6957C",
"R  c #EC967C",
"E  c #EE997D",
"W  c #F09B7F",
"Q  c #E99780",
"!  c #E99C86",
"~  c #E99D88",
"^  c #F19D82",
"/  c #EFA087",
"(  c #F2A186",
")  c #F3A58B",
"_  c #F3A88F",
"`  c #F0A790",
"'  c #F4AB93",
"]  c #F4AF98",
"[  c #F5B29C",
"{  c #F5B6A1",
"}  c #F5BAA5",
"|  c #F7BDAA",
" . c #F8BFAC",
".. c #F7C3B1",
"X. c #F8C5B3",
"o. c #F9C8B7",
"O. c #FCDDD3",
"+. c #FCE0D7",
"@. c #FDE4DB",
"#. c #FDE7E0",
"$. c #FEEEE9",
"%. c #FFF4F1",
"&. c #FFF8F6",
"*. c None",
/* pixels */
"*.*.*.*.*.*.*.*.*.*.*.*.*.*.*.*.*.*.*.*.*.*.*.*.*.*.*.*.*.*.*.*.*.*.*.*.*.*.*.*.*.*.*.*.*.*.*.*.*.*.*.*.*.*.*.*.*.*.*.*.*.*.*.*.*.*.*.*.*.*.*.*.*.*.*.*.*.*.*.*.",
"*.*.*.*.*.*.*.*.*.*.*.*.*.*.*.*.*.*.*.*.*.*.*.*.*.*.*.*.*.*.*.*.*.*.*.*.*.*.*.*.*.*.*.*.*.*.*.*.*.*.*.*.*.*.*.*.*.*.*.*.*.*.*.*.*.*.*.*.*.*.*.*.*.*.*.*.*.*.*.*.",
"*.*.*.*.*.*.*.*.*.*.*.*.*.*.*.*.*.*.*.*.*.*.*.*.*.*.*.*.*.*.*.*.*.*.*.*.*.*.*.*.*.*.*.*.*.*.*.*.*.*.*.*.*.*.*.*.*.*.*.*.*.*.*.*.*.*.*.*.*.*.*.*.*.*.*.*.*.*.*.*.",
"*.*.*.*.*.*.*.*.*.*.*.*.*.*.*.*.*.*.*.*.*.*.*.*.*.*.*.*.*.*.*.*.*.*.*.*.*.*.*.*.*.*.*.*.*.*.*.*.*.*.*.*.*.*.*.*.*.*.*.*.*.*.*.*.*.*.*.*.*.*.*.*.*.*.*.*.*.*.*.*.",
"*.*.*.*.*.*.*.*.*.*.*.*.*.*.*.*.*.*.*.*.*.*.*.*.*.*.*.*.*.*.*.*.*.*.*.*.*.*.*.*.*.*.*.*.*.*.*.*.*.*.*.*.*.*.*.*.*.*.*.*.*.*.*.*.*.*.*.*.*.*.*.*.*.*.*.*.*.*.*.*.",
"*.*.*.*.*.*.*.*.*.*.*.*.*.*.*.*.*.*.*.*.*.*.*.*.*.*.*.*.*.*.*.*.*.*.*.*.*.*.*.*.*.*.*.*.*.*.*.*.*.*.*.*.*.*.*.*.*.*.*.*.*.*.*.*.*.*.*.*.*.*.*.*.*.*.*.*.*.*.*.*.",
"*.*.*.*.*.*.*.*.*.*.*.*.*.*.*.*.*.*.*.*.*.*.*.*.*.*.*.*.*.*.*.*.*.*.*.*.*.*.*.*.*.*.*.*.*.*.*.*.*.*.*.*.*.*.*.*.*.*.*.*.*.*.*.*.*.*.*.*.*.*.*.*.*.*.*.*.*.*.*.*.",
"*.*.*.*.*.*.*.*.*.*.*.*.*.*.*.*.*.*.*.*.*.*.*.*.*.*.*.*.*.*.*.*.*.*.*.*.*.*.*.*.*.*.*.*.*.*.*.*.*.*.*.*.*.*.*.*.*.*.*.*.*.*.*.*.*.*.*.*.*.*.*.*.*.*.*.*.*.*.*.*.",
"*.*.*.*.*.*.*.*.*.*.*.*.*.*.*.*.*.*.*.*.*.*.*.*.*.*.*.*.*.*.*.*.*.*.*.*.*.*.*.*.*.*.*.*.*.*.*.*.*.*.*.*.*.*.*.*.*.*.*.*.*.*.*.*.*.*.*.*.*.*.*.*.*.*.*.*.*.*.*.*.",
"*.*.*.*.*.*.*.*.*.*.*.*.*.*.*.*.*.*.*.*.*.*.*.*.*.*.*.*.*.*.*.*.*.*.*.*.*.*.*.*.*.*.*.*.*.*.*.*.*.*.*.*.*.*.*.*.*.*.*.*.*.*.*.*.*.*.*.*.*.*.*.*.*.*.*.*.*.*.*.*.",
"*.*.*.*.*.*.*.*.*.*.*.*.*.*.*.*.*.*.*.*.*.*.*.*.*.*.*.*.*.*.*.*.*.*.*.*.*.*.*.*.*.*.*.*.*.*.*.*.*.*.*.*.*.*.*.*.*.*.*.*.*.*.*.*.*.*.*.*.*.*.*.*.*.*.*.*.*.*.*.*.",
"*.*.*.*.*.*.*.*.*.*.*.*.*.*.*.*.*.*.*.*.*.*.*.*.*.*.*.*.*.*.*.*.*.*.*.*.*.*.*.*.*.*.*.*.*.*.*.*.*.*.*.*.*.*.*.*.*.*.*.*.*.*.*.*.*.*.*.*.*.*.*.*.*.*.*.*.*.*.*.*.",
"*.*.*.*.*.*.*.*.*.*.*.*.*.*.*.*.*.*.*.*.*.*.*.*.*.*.*.*.*.*.*.*.*.*.*.*.*.*.*.*.*.*.*.*.*.*.*.*.*.*.*.*.*.*.*.*.*.*.*.*.*.*.*.*.*.*.*.*.*.*.*.*.*.*.*.*.*.*.*.*.",
"*.*.*.*.*.*.*.*.*.*.*.*.*.*.*.*.*.*.*.*.*.*.*.*.*.*.*.*.*.*.*.*.*.*.*.*.*.*.*.*.*.*.*.*.*.*.*.*.*.*.*.*.*.*.*.*.*.*.*.*.*.*.*.*.*.*.*.*.*.*.*.*.*.*.*.*.*.*.*.*.",
"*.*.*.*.*.*.*.*.*.*.*.*.*.*.*.*.*.*.*.*.*.*.*.*.*.*.*.*.*.*.*.*.*.*.*.*.*.*.*.*.*.*.*.*.*.*.*.*.*.*.*.*.*.*.*.*.*.*.*.*.*.*.*.*.*.*.*.*.*.*.*.*.*.*.*.*.*.*.*.*.",
"*.*.*.*.*.*.*.*.*.*.*.*.*.*.*.*.*.*.*.*.*.*.*.*.*.*.*.*.*.*.*.*.*.*.*.*.*.*.*.*.*.*.*.*.*.*.*.*.*.*.*.*.*.*.*.*.*.*.*.*.*.*.*.*.*.*.*.*.*.*.*.*.*.*.*.*.*.*.*.*.",
"*.*.*.*.*.*.*.*.*.*.*.*.*.*.*.*.*.*.*.*.*.*.*.*.*.*.*.*.*.*.*.*.*.*.*.*.*.*.*.*.*.*.*.*.*.*.*.*.*.*.*.*.*.*.*.*.*.*.*.*.*.*.*.*.*.*.*.*.*.*.*.*.*.*.*.*.*.*.*.*.",
"*.*.*.*.*.*.*.*.*.*.*.*.*.*.*.*.*.*.*.*.*.*.*.*.*.*.*.*.*.*.*.*.*.*.*.*.*.*.*.*.*.*.*.*.*.*.*.*.*.*.*.*.*.*.*.*.*.*.*.*.*.*.*.*.*.*.*.*.*.*.*.*.*.*.*.*.*.*.*.*.",
"*.*.*.*.*.*.*.*.*.*.*.*.*.*.*.*.*.*.*.*.*.*.*.*.*.*.*.*.                *.*.*.*.*.*.*.*.*.*.*.*.*.*.*.*.*.*.*.*.*.*.*.*.*.*.*.*.*.*.*.*.*.*.*.*.*.*.*.*.*.*.*.*.",
"*.*.*.*.*.*.*.*.*.*.*.*.*.*.*.*.*.*.*.*.*.*.*.*.*.*.*.*.                      *.*.*.*.*.*.*.*.*.*.*.*.*.*.*.*.*.*.*.*.*.*.*.*.*.*.*.*.*.*.*.*.*.*.*.*.*.*.*.*.*.",
"*.*.*.*.*.*.*.*.*.*.*.*.*.*.*.*.*.*.*.*.*.*.*.*.*.*.*.*.                        *.*.*.*.*.*.*.*.*.*.*.*.*.*.*.*.*.*.*.*.*.*.*.*.*.*.*.*.*.*.*.*.*.*.*.*.*.*.*.*.",
"*.*.*.*.*.*.*.*.*.*.*.*.*.*.*.*.*.*.*.*.*.*.*.*.*.*.*.*.*.                          *.*.*.*.*.*.*.*.*.*.*.*.*.*.*.*.*.*.*.*.*.*.*.*.*.*.*.*.*.*.*.*.*.*.*.*.*.*.",
"*.*.*.*.*.*.*.*.*.*.*.*.*.*.*.*.*.*.*.*.*.*.*.*.*.*.*.*.*.*.X 6 9 a x a h 7 @         *.*.*.*.*.*.*.*.*.*.*.*.*.*.*.*.*.*.*.*.*.*.*.*.*.*.*.*.*.*.*.*.*.*.*.*.*.",
"*.*.*.*.*.*.*.*.*.*.*.*.*.*.*.*.*.*.*.*.*.*.*.*.*.*.*.*.*.z M L Y ! ! ~ ! Q I F 0 %     *.*.*.*.*.*.*.*.*.*.*.*.*.*.*.*.*.*.*.*.*.*.*.*.*.*.*.*.*.*.*.*.*.*.*.*.",
"*.*.*.*.*.*.*.*.*.*.*.*.*.*.*.*.*.*.*.*.*.*.*.*.*.*.*.z N U ! ! ! ! ~ ~ ! ~ ~ ! ! J h X   & *.*.*.*.*.*.*.*.*.*.*.*.*.*.*.*.*.*.*.*.*.*.*.*.*.*.*.*.*.*.*.*.*.*.",
"*.*.*.*.*.*.*.*.*.*.*.*.*.*.*.*.*.*.*.*.*.*.*.*.*.*.z C Q ~ ! ~ ! ! ~ ! ! ! ! ~ ! ! Q x X               . *.*.*.*.*.*.*.*.*.*.*.*.*.*.*.*.*.*.*.*.*.*.*.*.*.*.*.",
"*.*.*.*.*.*.*.*.*.*.*.*.*.*.*.*.*.*.*.*.*.*.*.*.*.l S Q ~ ~ ! ! ! ! ! ! ! ! ! ! ! ! ~ Q u q u y 9 7 % o o O + *.*.*.*.*.*.*.*.*.*.*.*.*.*.*.*.*.*.*.*.*.*.*.*.*.",
"*.*.*.*.*.*.*.*.*.*.*.*.*.*.*.*.*.*.*.*.*.*.*.*.w M Q ~ ~ ! ! ! ! ! ! ! ! ! ~ ! ! ! ! ! J w B Y Q U J m 8 = * $ $ *.*.*.*.*.*.*.*.*.*.*.*.*.*.*.*.*.*.*.*.*.*.*.",
"*.*.*.*.*.*.*.*.*.*.*.*.*.*.*.*.*.*.*.*.*.*.*.*.l Y ! ~ ! ! ~ ~ ! ! ~ ! ! ! ! ! ! ! ! ! T r V ! ! Q R W Y v s : > = *.*.*.*.*.*.*.*.*.*.*.*.*.*.*.*.*.*.*.*.*.*.",
"*.*.*.*.*.*.*.*.*.*.*.*.*.*.*.*.*.*.*.*.*.*.*.w C ! ! ~ ! ! ! ~ ! ! ~ ! ! ! ! ! ! ! ! ! ! z V ! Q R E ( W E L k f - & *.*.*.*.*.*.*.*.*.*.*.*.*.*.*.*.*.*.*.*.*.",
"*.*.*.*.*.*.*.*.*.*.*.*.*.*.*.*.*.*.*.*.*.*.*.e L ! ! ! ! ! ! ! ! ! ! ! ! ! ~ ! ! ! ! ~ ~ M N Q R E E ( ' ^ ^ / j , = # *.*.*.*.*.*.*.*.*.*.*.*.*.*.*.*.*.*.*.*.",
"*.*.*.*.*.*.*.*.*.*.*.*.*.*.*.*.*.*.*.*.*.*.< l L ! ! ~ ! ! ! ! ~ ! ! ! ! ! ! ! ! ~ ! ~ ~ I c R R E W ( X.| ..) P d ; # *.*.*.*.*.*.*.*.*.*.*.*.*.*.*.*.*.*.*.*.",
"*.*.*.*.*.*.*.*.*.*.*.*.*.*.*.*.*.*.*.*.*.*.< z D ! ! ~ ~ ! ! ! ! ! ! ! ! ! ! ! ~ ! ! ! ! U z R W ( ) ] O.%.O._ W v : : # *.*.*.*.*.*.*.*.*.*.*.*.*.*.*.*.*.*.*.",
"*.*.*.*.*.*.*.*.*.*.*.*.*.*.*.*.*.*.*.*.*.*.< l C L ! ~ ! ! ! ! ! ! ! ! ! ! ! ~ ! ! ~ ! ! T z Y E W _ X.$.&.#...] E g : - *.*.*.*.*.*.*.*.*.*.*.*.*.*.*.*.*.*.*.",
"*.*.*.*.*.*.*.*.*.*.*.*.*.*.*.*.*.*.*.*.*.< < i b A H Q ! ~ ! ! ! ! ~ ! ! ! ! ! ~ ! ! ! ! Q z R R E ^ _ +.@.o.) ^ Y n *.*.*.*.*.*.*.*.*.*.*.*.*.*.*.*.*.*.*.*.*.",
"*.*.*.*.*.*.*.*.*.*.*.*.*.*.*.*.*.*.*.*.*.< < t l C D D P ! ~ ! ! ! ! ! ~ ! ! ! ! ! ~ ! ~ T l R E E W ] { [  .( W E C *.*.*.*.*.*.*.*.*.*.*.*.*.*.*.*.*.*.*.*.*.",
"*.*.*.*.*.*.*.*.*.*.*.*.*.*.*.*.*.*.*.*.*.< < e l b D D D H Y ! ! ! ! ! ! ! ! ! ! ! ! ~ ~ I p Q R R ^ ) W ^ _ ) ( E S *.*.*.*.*.*.*.*.*.*.*.*.*.*.*.*.*.*.*.*.*.",
"*.*.*.*.*.*.*.*.*.*.*.*.*.*.*.*.*.*.*.*.*.< < 4 l l C D D D D K Q ~ ! ! ! ~ ! ~ ! ! ! ! ~ C z Q Q R ` E E W _ } [ Q G l *.*.*.*.*.*.*.*.*.*.*.*.*.*.*.*.*.*.*.*.",
"*.*.*.*.*.*.*.*.*.*.*.*.*.*.*.*.*.*.*.*.*.< < < i l z A D D D D D P Q ~ ~ ! ! ! ! ! ! ~ T b z ! ! R R R E E ' | ` Q K e *.*.*.*.*.*.*.*.*.*.*.*.*.*.*.*.*.*.*.*.",
"*.*.*.*.*.*.*.*.*.*.*.*.*.*.*.*.*.*.*.*.*.1 < < w l l b D D D D D D D L Y Q ! ! ! ~ ! Q G i b ! ! ! ! Q R Q ! ~ ! ! G w *.*.*.*.*.*.*.*.*.*.*.*.*.*.*.*.*.*.*.*.",
"*.*.*.*.*.*.*.*.*.*.*.*.*.*.*.*.*.*.*.*.*.*.< < 1 i l l N A D D D D D D D D D H H L K D N t B ! ! ~ ! ! ! ! ! ! ! Q B 3 *.*.*.*.*.*.*.*.*.*.*.*.*.*.*.*.*.*.*.*.",
"*.*.*.*.*.*.*.*.*.*.*.*.*.*.*.*.*.*.*.*.*.*.< < < 4 l l l b A D D D D D D D D D D D D C l r V Y ! ! ! ! ! ! ! ! ! L z < *.*.*.*.*.*.*.*.*.*.*.*.*.*.*.*.*.*.*.*.",
"*.*.*.*.*.*.*.*.*.*.*.*.*.*.*.*.*.*.*.*.*.*.< < < < 5 l l l z C D D D D D D D D D D A z i r C H Y ! ! ! ~ ~ ! ! P Z r *.*.*.*.*.*.*.*.*.*.*.*.*.*.*.*.*.*.*.*.*.",
"*.*.*.*.*.*.*.*.*.*.*.*.*.*.*.*.*.*.*.*.*.*.*.< < < < 4 p l l l c V D D D D D D D A b l 5 i A D D D D H K K K H A c 3 *.*.*.*.*.*.*.*.*.*.*.*.*.*.*.*.*.*.*.*.*.",
"*.*.*.*.*.*.*.*.*.*.*.*.*.*.*.*.*.*.*.*.*.*.*.< < < < < 1 t l l l l z b B V V C B z l w 1 c D D D D D D D D D C z e < *.*.*.*.*.*.*.*.*.*.*.*.*.*.*.*.*.*.*.*.*.",
"*.*.*.*.*.*.*.*.*.*.*.*.*.*.*.*.*.*.*.*.*.*.*.< < < < < < < 5 i l l l l l l l l l l w < 5 N D D D D D D D D V l t < *.*.*.*.*.*.*.*.*.*.*.*.*.*.*.*.*.*.*.*.*.*.",
"*.*.*.*.*.*.*.*.*.*.*.*.*.*.*.*.*.*.*.*.*.*.*.*.< < < < < < < < 4 r i l l l l l i 3 < < r B D D D D D D A N l i 1 < *.*.*.*.*.*.*.*.*.*.*.*.*.*.*.*.*.*.*.*.*.*.",
"*.*.*.*.*.*.*.*.*.*.*.*.*.*.*.*.*.*.*.*.*.*.*.*.< < < < < < < < < < < 1 4 5 w 3 < < < < i c C A D Z C N l l i 2 < < *.*.*.*.*.*.*.*.*.*.*.*.*.*.*.*.*.*.*.*.*.*.",
"*.*.*.*.*.*.*.*.*.*.*.*.*.*.*.*.*.*.*.*.*.*.*.*.*.< < < < < < < < < < < < < < < < < < < p l l l l l l l l t 1 < < *.*.*.*.*.*.*.*.*.*.*.*.*.*.*.*.*.*.*.*.*.*.*.",
"*.*.*.*.*.*.*.*.*.*.*.*.*.*.*.*.*.*.*.*.*.*.*.*.*.*.< < < < < < < < < < < < < < < < < < p l l l l l l i 5 < < < *.*.*.*.*.*.*.*.*.*.*.*.*.*.*.*.*.*.*.*.*.*.*.*.",
"*.*.*.*.*.*.*.*.*.*.*.*.*.*.*.*.*.*.*.*.*.*.*.*.*.*.< < < < < < < < < < < < < < < < < < 3 r i i i r 5 < < < < *.*.*.*.*.*.*.*.*.*.*.*.*.*.*.*.*.*.*.*.*.*.*.*.*.",
"*.*.*.*.*.*.*.*.*.*.*.*.*.*.*.*.*.*.*.*.*.*.*.*.*.*.*.< < < < < < < < < < < < < < < < < < < < < < < < < < < *.*.*.*.*.*.*.*.*.*.*.*.*.*.*.*.*.*.*.*.*.*.*.*.*.*.",
"*.*.*.*.*.*.*.*.*.*.*.*.*.*.*.*.*.*.*.*.*.*.*.*.*.*.*.*.< < < < < < < < < < < < < < < < < < < < < < < < < *.*.*.*.*.*.*.*.*.*.*.*.*.*.*.*.*.*.*.*.*.*.*.*.*.*.*.",
"*.*.*.*.*.*.*.*.*.*.*.*.*.*.*.*.*.*.*.*.*.*.*.*.*.*.*.*.*.< < < < < < < < < < < < < < < < < < < < < < *.*.*.*.*.*.*.*.*.*.*.*.*.*.*.*.*.*.*.*.*.*.*.*.*.*.*.*.*.",
"*.*.*.*.*.*.*.*.*.*.*.*.*.*.*.*.*.*.*.*.*.*.*.*.*.*.*.*.*.*.< < < < < < < < < < < < < < < < < < < *.*.*.*.*.*.*.*.*.*.*.*.*.*.*.*.*.*.*.*.*.*.*.*.*.*.*.*.*.*.*.",
"*.*.*.*.*.*.*.*.*.*.*.*.*.*.*.*.*.*.*.*.*.*.*.*.*.*.*.*.*.*.*.< < < < < < < < < < < < < < < < *.*.*.*.*.*.*.*.*.*.*.*.*.*.*.*.*.*.*.*.*.*.*.*.*.*.*.*.*.*.*.*.*.",
"*.*.*.*.*.*.*.*.*.*.*.*.*.*.*.*.*.*.*.*.*.*.*.*.*.*.*.*.*.*.*.*.< < < < < < < < < < < < < *.*.*.*.*.*.*.*.*.*.*.*.*.*.*.*.*.*.*.*.*.*.*.*.*.*.*.*.*.*.*.*.*.*.*.",
"*.*.*.*.*.*.*.*.*.*.*.*.*.*.*.*.*.*.*.*.*.*.*.*.*.*.*.*.*.*.*.*.*.< < < < < < < < *.*.*.*.*.*.*.*.*.*.*.*.*.*.*.*.*.*.*.*.*.*.*.*.*.*.*.*.*.*.*.*.*.*.*.*.*.*.*.",
"*.*.*.*.*.*.*.*.*.*.*.*.*.*.*.*.*.*.*.*.*.*.*.*.*.*.*.*.*.*.*.*.*.*.*.*.*.*.*.*.*.*.*.*.*.*.*.*.*.*.*.*.*.*.*.*.*.*.*.*.*.*.*.*.*.*.*.*.*.*.*.*.*.*.*.*.*.*.*.*.",
"*.*.*.*.*.*.*.*.*.*.*.*.*.*.*.*.*.*.*.*.*.*.*.*.*.*.*.*.*.*.*.*.*.*.*.*.*.*.*.*.*.*.*.*.*.*.*.*.*.*.*.*.*.*.*.*.*.*.*.*.*.*.*.*.*.*.*.*.*.*.*.*.*.*.*.*.*.*.*.*.",
"*.*.*.*.*.*.*.*.*.*.*.*.*.*.*.*.*.*.*.*.*.*.*.*.*.*.*.*.*.*.*.*.*.*.*.*.*.*.*.*.*.*.*.*.*.*.*.*.*.*.*.*.*.*.*.*.*.*.*.*.*.*.*.*.*.*.*.*.*.*.*.*.*.*.*.*.*.*.*.*.",
"*.*.*.*.*.*.*.*.*.*.*.*.*.*.*.*.*.*.*.*.*.*.*.*.*.*.*.*.*.*.*.*.*.*.*.*.*.*.*.*.*.*.*.*.*.*.*.*.*.*.*.*.*.*.*.*.*.*.*.*.*.*.*.*.*.*.*.*.*.*.*.*.*.*.*.*.*.*.*.*.",
"*.*.*.*.*.*.*.*.*.*.*.*.*.*.*.*.*.*.*.*.*.*.*.*.*.*.*.*.*.*.*.*.*.*.*.*.*.*.*.*.*.*.*.*.*.*.*.*.*.*.*.*.*.*.*.*.*.*.*.*.*.*.*.*.*.*.*.*.*.*.*.*.*.*.*.*.*.*.*.*.",
"*.*.*.*.*.*.*.*.*.*.*.*.*.*.*.*.*.*.*.*.*.*.*.*.*.*.*.*.*.*.*.*.*.*.*.*.*.*.*.*.*.*.*.*.*.*.*.*.*.*.*.*.*.*.*.*.*.*.*.*.*.*.*.*.*.*.*.*.*.*.*.*.*.*.*.*.*.*.*.*.",
"*.*.*.*.*.*.*.*.*.*.*.*.*.*.*.*.*.*.*.*.*.*.*.*.*.*.*.*.*.*.*.*.*.*.*.*.*.*.*.*.*.*.*.*.*.*.*.*.*.*.*.*.*.*.*.*.*.*.*.*.*.*.*.*.*.*.*.*.*.*.*.*.*.*.*.*.*.*.*.*.",
"*.*.*.*.*.*.*.*.*.*.*.*.*.*.*.*.*.*.*.*.*.*.*.*.*.*.*.*.*.*.*.*.*.*.*.*.*.*.*.*.*.*.*.*.*.*.*.*.*.*.*.*.*.*.*.*.*.*.*.*.*.*.*.*.*.*.*.*.*.*.*.*.*.*.*.*.*.*.*.*.",
"*.*.*.*.*.*.*.*.*.*.*.*.*.*.*.*.*.*.*.*.*.*.*.*.*.*.*.*.*.*.*.*.*.*.*.*.*.*.*.*.*.*.*.*.*.*.*.*.*.*.*.*.*.*.*.*.*.*.*.*.*.*.*.*.*.*.*.*.*.*.*.*.*.*.*.*.*.*.*.*.",
"*.*.*.*.*.*.*.*.*.*.*.*.*.*.*.*.*.*.*.*.*.*.*.*.*.*.*.*.*.*.*.*.*.*.*.*.*.*.*.*.*.*.*.*.*.*.*.*.*.*.*.*.*.*.*.*.*.*.*.*.*.*.*.*.*.*.*.*.*.*.*.*.*.*.*.*.*.*.*.*.",
"*.*.*.*.*.*.*.*.*.*.*.*.*.*.*.*.*.*.*.*.*.*.*.*.*.*.*.*.*.*.*.*.*.*.*.*.*.*.*.*.*.*.*.*.*.*.*.*.*.*.*.*.*.*.*.*.*.*.*.*.*.*.*.*.*.*.*.*.*.*.*.*.*.*.*.*.*.*.*.*.",
"*.*.*.*.*.*.*.*.*.*.*.*.*.*.*.*.*.*.*.*.*.*.*.*.*.*.*.*.*.*.*.*.*.*.*.*.*.*.*.*.*.*.*.*.*.*.*.*.*.*.*.*.*.*.*.*.*.*.*.*.*.*.*.*.*.*.*.*.*.*.*.*.*.*.*.*.*.*.*.*.",
"*.*.*.*.*.*.*.*.*.*.*.*.*.*.*.*.*.*.*.*.*.*.*.*.*.*.*.*.*.*.*.*.*.*.*.*.*.*.*.*.*.*.*.*.*.*.*.*.*.*.*.*.*.*.*.*.*.*.*.*.*.*.*.*.*.*.*.*.*.*.*.*.*.*.*.*.*.*.*.*.",
"*.*.*.*.*.*.*.*.*.*.*.*.*.*.*.*.*.*.*.*.*.*.*.*.*.*.*.*.*.*.*.*.*.*.*.*.*.*.*.*.*.*.*.*.*.*.*.*.*.*.*.*.*.*.*.*.*.*.*.*.*.*.*.*.*.*.*.*.*.*.*.*.*.*.*.*.*.*.*.*.",
"*.*.*.*.*.*.*.*.*.*.*.*.*.*.*.*.*.*.*.*.*.*.*.*.*.*.*.*.*.*.*.*.*.*.*.*.*.*.*.*.*.*.*.*.*.*.*.*.*.*.*.*.*.*.*.*.*.*.*.*.*.*.*.*.*.*.*.*.*.*.*.*.*.*.*.*.*.*.*.*.",
"*.*.*.*.*.*.*.*.*.*.*.*.*.*.*.*.*.*.*.*.*.*.*.*.*.*.*.*.*.*.*.*.*.*.*.*.*.*.*.*.*.*.*.*.*.*.*.*.*.*.*.*.*.*.*.*.*.*.*.*.*.*.*.*.*.*.*.*.*.*.*.*.*.*.*.*.*.*.*.*.",
"*.*.*.*.*.*.*.*.*.*.*.*.*.*.*.*.*.*.*.*.*.*.*.*.*.*.*.*.*.*.*.*.*.*.*.*.*.*.*.*.*.*.*.*.*.*.*.*.*.*.*.*.*.*.*.*.*.*.*.*.*.*.*.*.*.*.*.*.*.*.*.*.*.*.*.*.*.*.*.*.",
"*.*.*.*.*.*.*.*.*.*.*.*.*.*.*.*.*.*.*.*.*.*.*.*.*.*.*.*.*.*.*.*.*.*.*.*.*.*.*.*.*.*.*.*.*.*.*.*.*.*.*.*.*.*.*.*.*.*.*.*.*.*.*.*.*.*.*.*.*.*.*.*.*.*.*.*.*.*.*.*.",
"*.*.*.*.*.*.*.*.*.*.*.*.*.*.*.*.*.*.*.*.*.*.*.*.*.*.*.*.*.*.*.*.*.*.*.*.*.*.*.*.*.*.*.*.*.*.*.*.*.*.*.*.*.*.*.*.*.*.*.*.*.*.*.*.*.*.*.*.*.*.*.*.*.*.*.*.*.*.*.*.",
"*.*.*.*.*.*.*.*.*.*.*.*.*.*.*.*.*.*.*.*.*.*.*.*.*.*.*.*.*.*.*.*.*.*.*.*.*.*.*.*.*.*.*.*.*.*.*.*.*.*.*.*.*.*.*.*.*.*.*.*.*.*.*.*.*.*.*.*.*.*.*.*.*.*.*.*.*.*.*.*.",
"*.*.*.*.*.*.*.*.*.*.*.*.*.*.*.*.*.*.*.*.*.*.*.*.*.*.*.*.*.*.*.*.*.*.*.*.*.*.*.*.*.*.*.*.*.*.*.*.*.*.*.*.*.*.*.*.*.*.*.*.*.*.*.*.*.*.*.*.*.*.*.*.*.*.*.*.*.*.*.*.",
"*.*.*.*.*.*.*.*.*.*.*.*.*.*.*.*.*.*.*.*.*.*.*.*.*.*.*.*.*.*.*.*.*.*.*.*.*.*.*.*.*.*.*.*.*.*.*.*.*.*.*.*.*.*.*.*.*.*.*.*.*.*.*.*.*.*.*.*.*.*.*.*.*.*.*.*.*.*.*.*."
};
