/* XPM */
static char *result[] = {
/* columns rows colors chars-per-pixel */
"80 80 93 2 ",
"   c #295123",
".  c #345426",
"X  c #3C5629",
"o  c #3E582A",
"O  c #425127",
"+  c #4B542A",
"@  c #44592C",
"#  c #4A5B2E",
"$  c #4F5C30",
"%  c #535E31",
"&  c #585F33",
"*  c #6C522E",
"=  c #5C6134",
"-  c #626236",
";  c #666438",
":  c #6C663B",
">  c #72653B",
",  c #7A653C",
"<  c #7A6B41",
"1  c #C32E2A",
"2  c #C5322C",
"3  c #C8372F",
"4  c #CB3C32",
"5  c #845332",
"6  c #8B5333",
"7  c #9A5235",
"8  c #A54F35",
"9  c #A4593A",
"0  c #89643D",
"q  c #A0603E",
"w  c #CE4235",
"e  c #D04637",
"r  c #D14738",
"t  c #D34C3A",
"y  c #C9583E",
"u  c #D6523E",
"i  c #D8553F",
"p  c #846D44",
"a  c #956A45",
"s  c #8B7149",
"d  c #B56343",
"f  c #B87754",
"g  c #D65640",
"h  c #D95640",
"j  c #DB5B43",
"k  c #C66748",
"l  c #DD6047",
"z  c #DE6449",
"x  c #DB6C4E",
"c  c #D27454",
"v  c #DA7453",
"b  c #E0664A",
"n  c #E26B4D",
"m  c #E36F50",
"M  c #E57453",
"N  c #E77856",
"B  c #E87A57",
"V  c #E67C59",
"C  c #E97C58",
"Z  c #E9815E",
"A  c #C78563",
"S  c #EA8463",
"D  c #EA8768",
"F  c #E68A6B",
"G  c #EB8A6B",
"H  c #EA8E72",
"J  c #EB9275",
"K  c #EC967C",
"L  c #EE997D",
"P  c #F09B7F",
"I  c #E99780",
"U  c #E99C86",
"Y  c #E99D88",
"T  c #F19D82",
"R  c #EEA28B",
"E  c #F2A186",
"W  c #F2A48B",
"Q  c #F3A88F",
"!  c #F3AB93",
"~  c #F4AF98",
"^  c #F5B29B",
"/  c #F5B6A1",
"(  c #F6BAA5",
")  c #F7C1AE",
"_  c #F7C3B1",
"`  c #F9CBBC",
"'  c #FBD6CA",
"]  c #FCDDD3",
"[  c #FCE0D6",
"{  c #FEEEE9",
"}  c #FEF1ED",
"|  c #FFF8F6",
" . c None",
/* pixels */
" . . . . . . . . . . . . . . . . . . . . . . . . . . . . . . . . . . . . . . . . . . . . . . . . . . . . . . . . . . . . . . . . . . . . . . . . . . . . . . . .",
" . . . . . . . . . . . . . . . . . . . . . . . . . . . . . . . . . . . . . . . . . . . . . . . . . . . . . . . . . . . . . . . . . . . . . . . . . . . . . . . .",
" . . . . . . . . . . . . . . . . . . . . . . . . . . . . . . . . . . . . . . . . . . . . . . . . . . . . . . . . . . . . . . . . . . . . . . . . . . . . . . . .",
" . . . . . . . . . . . . . . . . . . . . . . . . . . . . . . . . . . . . . . . . . . . . . . . . . . . . . . . . . . . . . . . . . . . . . . . . . . . . . . . .",
" . . . . . . . . . . . . . . . . . . . . . . . . . . . . . . . . . . . . . . . . . . . . . . . . . . . . . . . . . . . . . . . . . . . . . . . . . . . . . . . .",
" . . . . . . . . . . . . . . . . . . . . . . . . . . . . . . . . . . . . . . . . . . . . . . . . . . . . . . . . . . . . . . . . . . . . . . . . . . . . . . . .",
" . . . . . . . . . . . . . . . . . . . . . . . . . . . . . . . . . . . . . . . . . . . . . . . . . . . . . . . . . . . . . . . . . . . . . . . . . . . . . . . .",
" . . . . . . . . . . . . . . . . . . . . . . . . . . . . . . . . . . . . . . . . . . . . . . . . . . . . . . . . . . . . . . . . . . . . . . . . . . . . . . . .",
" . . . . . . . . . . . . . . . . . . . . . . . . . . . . . . . . . . . . . . . . . . . . . . . . . . . . . . . . . . . . . . . . . . . . . . . . . . . . . . . .",
" . . . . . . . . . . . . . . . . . . . . . . . . . . . . . . . . . . . . . . . . . . . . . . . . . . . . . . . . . . . . . . . . . . . . . . . . . . . . . . . .",
" . . . . . . . . . . . . . . . . . . . . . . . . . . . . . . . . . . . . . . . . . . . . . . . . . . . . . . . . . . . . . . . . . . . . . . . . . . . . . . . .",
" . . . . . . . . . . . . . . . . . . . . . . . . . . . . . . . . . . . . . . . . . . . . . . . . . . . . . . . . . . . . . . . . . . . . . . . . . . . . . . . .",
" . . . . . . . . . . . . . . . . . . . . . . . . . . . . . . . . . . . . . . . . . . . . . . . . . . . . . . . . . . . . . . . . . . . . . . . . . . . . . . . .",
" . . . . . . . . . . . . . . . . . . . . . . . . . . . . . . . . . . . . . . . . . . . . . . . . . . . . . . . . . . . . . . . . . . . . . . . . . . . . . . . .",
" . . . . . . . . . . . . . . . . . . . . . . . . . . . . . . . . . . . . . . . . . . . . . . . . . . . . . . . . . . . . . . . . . . . . . . . . . . . . . . . .",
" . . . . . . . . . . . . . . . . . . . . . . . . . . . . . . . . . . . . . . . . . . . . . . . . . . . . . . . . . . . . . . . . . . . . . . . . . . . . . . . .",
" . . . . . . . . . . . . . . . . . . . . . . . . . . . . . . . . . . . . . . . . . . . . . . . . . . . . . . . . . . . . . . . . . . . . . . . . . . . . . . . .",
" . . . . . . . . . . . . . . . . . . . . . . . . . . . . . .         . . . . . . . . . . . . . . . . . . . . . . . . . . . . . . . . . . . . . . . . . . . . . .",
" . . . . . . . . . . . . . . . . . . . . . . . . . . . . .                   . . . . . . . . . . . . . . . . . . . . . . . . . . . . . . . . . . . . . . . . . .",
" . . . . . . . . . . . . . . . . . . . . . . . . . . . . . .                     . . . . . . . . . . . . . . . . . . . . . . . . . . . . . . . . . . . . . . . .",
" . . . . . . . . . . . . . . . . . . . . . . . . . . . . . .                         . . . . . . . . . . . . . . . . . . . . . . . . . . . . . . . . . . . . . .",
" . . . . . . . . . . . . . . . . . . . . . . . . . . . . . . .    . + + .              . . . . . . . . . . . . . . . . . . . . . . . . . . . . . . . . . . . . .",
" . . . . . . . . . . . . . . . . . . . . . . . . . . . . . . .y k v V V v k 9 *          . . . . . . . . . . . . . . . . . . . . . . . . . . . . . . . . . . . .",
" . . . . . . . . . . . . . . . . . . . . . . . . . . . . .j M H U Y Y U Y Y U J c q O    . . . . . . . . . . . . . . . . . . . . . . . . . . . . . . . . . . . .",
" . . . . . . . . . . . . . . . . . . . . . . . . . . .j x H U Y Y U Y U U Y Y U U I v 6    .$  . . . . . . . . . . . . . . . . . . . . . . . . . . . . . . . . .",
" . . . . . . . . . . . . . . . . . . . . . . . . . .h M I Y Y U U Y Y U U Y U Y U Y U H 9   X        . . . . . . . . . . . . . . . . . . . . . . . . . . . . . .",
" . . . . . . . . . . . . . . . . . . . . . . . . .e M U Y Y U U U U Y U U Y U U U Y Y U F 8 7 6 * .     . .  . . . . . . . . . . . . . . . . . . . . . . . . . .",
" . . . . . . . . . . . . . . . . . . . . . . . . .z I Y U U Y Y Y U U Y Y Y U U Y Y U U U h t z M v d 5 o o @ @  . . . . . . . . . . . . . . . . . . . . . . . .",
" . . . . . . . . . . . . . . . . . . . . . . . .t F Y U Y Y Y Y U U Y U U U U U Y Y Y U U V r Z U U I H v a > % #  . . . . . . . . . . . . . . . . . . . . . . .",
" . . . . . . . . . . . . . . . . . . . . . . .3 l J Y Y U U U U U Y Y Y U Y U U U U Y Y U H r D U I K K K H A , - %  . . . . . . . . . . . . . . . . . . . . . .",
" . . . . . . . . . . . . . . . . . . . . . . .4 n I Y U Y U Y U U U Y U U Y Y U Y U U U Y I u D U K K L L P W v p ; %  . . . . . . . . . . . . . . . . . . . . .",
" . . . . . . . . . . . . . . . . . . . . . .1 w n H Y Y U Y Y Y U U Y U U Y Y Y U Y U Y Y U h D K L E P T E ~ P v < : =  . . . . . . . . . . . . . . . . . . . .",
" . . . . . . . . . . . . . . . . . . . . . .1 e z C I U U Y U Y U U U U U U Y U Y Y U Y U U j D K L T ^ ^ ) _ W E A s & @  . . . . . . . . . . . . . . . . . . .",
" . . . . . . . . . . . . . . . . . . . . . .1 w j B C I Y U Y U Y Y Y U Y Y Y U U Y U U Y U x D L L P W ' } { ` ! G 0 - %  . . . . . . . . . . . . . . . . . . .",
" . . . . . . . . . . . . . . . . . . . . . .1 w h b C B H U Y U U Y Y U Y U U U U U Y Y U Y x D K L P ! ] | } ( E K f = ;  . . . . . . . . . . . . . . . . . . .",
" . . . . . . . . . . . . . . . . . . . . .1 1 3 h j C B C S I U U Y U U U Y U U Y Y U U Y U l G K L Q / _ [ ` ) W L v = %  . . . . . . . . . . . . . . . . . . .",
" . . . . . . . . . . . . . . . . . . . . .1 1 2 h h m B C C C H U U U U Y U U Y Y U U Y Y I g H L T L P Q ) ! E Q E Z  . . . . . . . . . . . . . . . . . . . . .",
" . . . . . . . . . . . . . . . . . . . . .1 1 1 u h j B B C C C S I U U U U U Y U Y U Y Y F g J K R K L P ! T E W P D l  . . . . . . . . . . . . . . . . . . . .",
" . . . . . . . . . . . . . . . . . . . . . .1 1 4 h h b C B C C C C H U Y U U U U U Y Y U m g U U K K L L W W ^ ^ L D j  . . . . . . . . . . . . . . . . . . . .",
" . . . . . . . . . . . . . . . . . . . . . .1 1 2 i h h m C C C C C C C H I U U U U U U D j j U U U K K K P ! ( ! I D u  . . . . . . . . . . . . . . . . . . . .",
" . . . . . . . . . . . . . . . . . . . . . .1 1 1 4 h h h m C B C C C C C C C Z D D D C n t n U U U U I I L U Y U U Z w  . . . . . . . . . . . . . . . . . . . .",
" . . . . . . . . . . . . . . . . . . . . . .1 1 1 1 e h h h n C C B C C C C C C C C C N h t M I Y U Y U U U U U U I m 3  . . . . . . . . . . . . . . . . . . . .",
" . . . . . . . . . . . . . . . . . . . . . .1 1 1 1 1 e h h h l N C C C C C C C C C B j u t N H Y Y U U U U U Y Y D h  . . . . . . . . . . . . . . . . . . . . .",
" . . . . . . . . . . . . . . . . . . . . . . .1 1 1 1 1 w h h h h z M B C C C C C B l h 4 h C C D H I I U Y U I D M w  . . . . . . . . . . . . . . . . . . . . .",
" . . . . . . . . . . . . . . . . . . . . . . .1 1 1 1 1 1 3 u h h h h j z n m m n j h w 3 b C B C C C C C Z Z C N h 2  . . . . . . . . . . . . . . . . . . . . .",
" . . . . . . . . . . . . . . . . . . . . . . . .1 1 1 1 1 1 1 w i h h h h h h h h i 4 1 r M C B C C C C C C C m j 4 1  . . . . . . . . . . . . . . . . . . . . .",
" . . . . . . . . . . . . . . . . . . . . . . . .1 1 1 1 1 1 1 1 1 4 t i h h h h t 2 1 2 i B C B C C C C C B z h w 1  . . . . . . . . . . . . . . . . . . . . . .",
" . . . . . . . . . . . . . . . . . . . . . . . . .1 1 1 1 1 1 1 1 1 1 1 3 4 3 2 1 1 1 4 h N C B C C C B m j h w 1 1  . . . . . . . . . . . . . . . . . . . . . .",
" . . . . . . . . . . . . . . . . . . . . . . . . .1 1 1 1 1 1 1 1 1 1 1 1 1 1 1 1 1 1 w h h z n n b l h h h w 1 1  . . . . . . . . . . . . . . . . . . . . . . .",
" . . . . . . . . . . . . . . . . . . . . . . . . . .1 1 1 1 1 1 1 1 1 1 1 1 1 1 1 1 1 t h h h h h h h h u 3 1 1  . . . . . . . . . . . . . . . . . . . . . . . .",
" . . . . . . . . . . . . . . . . . . . . . . . . . .1 1 1 1 1 1 1 1 1 1 1 1 1 1 1 1 1 3 u h h h h h t 4 1 1 1 1  . . . . . . . . . . . . . . . . . . . . . . . .",
" . . . . . . . . . . . . . . . . . . . . . . . . . . .1 1 1 1 1 1 1 1 1 1 1 1 1 1 1 1 1 1 3 4 4 3 2 1 1 1 1 1  . . . . . . . . . . . . . . . . . . . . . . . . .",
" . . . . . . . . . . . . . . . . . . . . . . . . . . . .1 1 1 1 1 1 1 1 1 1 1 1 1 1 1 1 1 1 1 1 1 1 1 1 1  . . . . . . . . . . . . . . . . . . . . . . . . . . .",
" . . . . . . . . . . . . . . . . . . . . . . . . . . . . .1 1 1 1 1 1 1 1 1 1 1 1 1 1 1 1 1 1 1 1 1 1 1  . . . . . . . . . . . . . . . . . . . . . . . . . . . .",
" . . . . . . . . . . . . . . . . . . . . . . . . . . . . . .1 1 1 1 1 1 1 1 1 1 1 1 1 1 1 1 1 1 1 1  . . . . . . . . . . . . . . . . . . . . . . . . . . . . . .",
" . . . . . . . . . . . . . . . . . . . . . . . . . . . . . . .1 1 1 1 1 1 1 1 1 1 1 1 1 1 1 1  . . . . . . . . . . . . . . . . . . . . . . . . . . . . . . . . .",
" . . . . . . . . . . . . . . . . . . . . . . . . . . . . . . . .1 1 1 1 1 1 1 1 1 1 1 1  . . . . . . . . . . . . . . . . . . . . . . . . . . . . . . . . . . . .",
" . . . . . . . . . . . . . . . . . . . . . . . . . . . . . . . . .1 1 1 1 1 1 1  . . . . . . . . . . . . . . . . . . . . . . . . . . . . . . . . . . . . . . . .",
" . . . . . . . . . . . . . . . . . . . . . . . . . . . . . . . . . . . . . . . . . . . . . . . . . . . . . . . . . . . . . . . . . . . . . . . . . . . . . . . .",
" . . . . . . . . . . . . . . . . . . . . . . . . . . . . . . . . . . . . . . . . . . . . . . . . . . . . . . . . . . . . . . . . . . . . . . . . . . . . . . . .",
" . . . . . . . . . . . . . . . . . . . . . . . . . . . . . . . . . . . . . . . . . . . . . . . . . . . . . . . . . . . . . . . . . . . . . . . . . . . . . . . .",
" . . . . . . . . . . . . . . . . . . . . . . . . . . . . . . . . . . . . . . . . . . . . . . . . . . . . . . . . . . . . . . . . . . . . . . . . . . . . . . . .",
" . . . . . . . . . . . . . . . . . . . . . . . . . . . . . . . . . . . . . . . . . . . . . . . . . . . . . . . . . . . . . . . . . . . . . . . . . . . . . . . .",
" . . . . . . . . . . . . . . . . . . . . . . . . . . . . . . . . . . . . . . . . . . . . . . . . . . . . . . . . . . . . . . . . . . . . . . . . . . . . . . . .",
" . . . . . . . . . . . . . . . . . . . . . . . . . . . . . . . . . . . . . . . . . . . . . . . . . . . . . . . . . . . . . . . . . . . . . . . . . . . . . . . .",
" . . . . . . . . . . . . . . . . . . . . . . . . . . . . . . . . . . . . . . . . . . . . . . . . . . . . . . . . . . . . . . . . . . . . . . . . . . . . . . . .",
" . . . . . . . . . . . . . . . . . . . . . . . . . . . . . . . . . . . . . . . . . . . . . . . . . . . . . . . . . . . . . . . . . . . . . . . . . . . . . . . .",
" . . . . . . . . . . . . . . . . . . . . . . . . . . . . . . . . . . . . . . . . . . . . . . . . . . . . . . . . . . . . . . . . . . . . . . . . . . . . . . . .",
" . . . . . . . . . . . . . . . . . . . . . . . . . . . . . . . . . . . . . . . . . . . . . . . . . . . . . . . . . . . . . . . . . . . . . . . . . . . . . . . .",
" . . . . . . . . . . . . . . . . . . . . . . . . . . . . . . . . . . . . . . . . . . . . . . . . . . . . . . . . . . . . . . . . . . . . . . . . . . . . . . . .",
" . . . . . . . . . . . . . . . . . . . . . . . . . . . . . . . . . . . . . . . . . . . . . . . . . . . . . . . . . . . . . . . . . . . . . . . . . . . . . . . .",
" . . . . . . . . . . . . . . . . . . . . . . . . . . . . . . . . . . . . . . . . . . . . . . . . . . . . . . . . . . . . . . . . . . . . . . . . . . . . . . . .",
" . . . . . . . . . . . . . . . . . . . . . . . . . . . . . . . . . . . . . . . . . . . . . . . . . . . . . . . . . . . . . . . . . . . . . . . . . . . . . . . .",
" . . . . . . . . . . . . . . . . . . . . . . . . . . . . . . . . . . . . . . . . . . . . . . . . . . . . . . . . . . . . . . . . . . . . . . . . . . . . . . . .",
" . . . . . . . . . . . . . . . . . . . . . . . . . . . . . . . . . . . . . . . . . . . . . . . . . . . . . . . . . . . . . . . . . . . . . . . . . . . . . . . .",
" . . . . . . . . . . . . . . . . . . . . . . . . . . . . . . . . . . . . . . . . . . . . . . . . . . . . . . . . . . . . . . . . . . . . . . . . . . . . . . . .",
" . . . . . . . . . . . . . . . . . . . . . . . . . . . . . . . . . . . . . . . . . . . . . . . . . . . . . . . . . . . . . . . . . . . . . . . . . . . . . . . .",
" . . . . . . . . . . . . . . . . . . . . . . . . . . . . . . . . . . . . . . . . . . . . . . . . . . . . . . . . . . . . . . . . . . . . . . . . . . . . . . . .",
" . . . . . . . . . . . . . . . . . . . . . . . . . . . . . . . . . . . . . . . . . . . . . . . . . . . . . . . . . . . . . . . . . . . . . . . . . . . . . . . .",
" . . . . . . . . . . . . . . . . . . . . . . . . . . . . . . . . . . . . . . . . . . . . . . . . . . . . . . . . . . . . . . . . . . . . . . . . . . . . . . . ."
};
