/* XPM */
static char *result[] = {
/* columns rows colors chars-per-pixel */
"80 80 104 2 ",
"   c #2D4F23",
".  c #295123",
"X  c #335426",
"o  c #3A5327",
"O  c #375528",
"+  c #3B5629",
"@  c #3E582B",
"#  c #4B542A",
"$  c #44592C",
"%  c #4B5B2E",
"&  c #55552D",
"*  c #4F5D30",
"=  c #535E31",
"-  c #595F33",
";  c #6C4C2B",
":  c #734D2D",
">  c #7D4E30",
",  c #635A32",
"<  c #6A5932",
"1  c #626236",
"2  c #6A6036",
"3  c #6C653A",
"4  c #72653B",
"5  c #75693E",
"6  c #776A40",
"7  c #7A6B41",
"8  c #C32E2A",
"9  c #C5322C",
"0  c #C8362F",
"q  c #C8382F",
"w  c #C73D32",
"e  c #CB3C32",
"r  c #974E33",
"t  c #845333",
"y  c #825B36",
"u  c #8E5B38",
"i  c #965A39",
"p  c #82643C",
"a  c #94623F",
"s  c #CE4235",
"d  c #D04537",
"f  c #D14738",
"g  c #D34C3A",
"h  c #C3553C",
"j  c #CB553E",
"k  c #D6523E",
"l  c #D8553F",
"z  c #B05F40",
"x  c #8E6F48",
"c  c #9C714A",
"v  c #957750",
"b  c #B56847",
"n  c #D55740",
"m  c #D95640",
"M  c #DB5B43",
"N  c #CA6A4A",
"B  c #DD6047",
"V  c #D56549",
"C  c #DE6449",
"Z  c #C47553",
"A  c #D97856",
"S  c #E0664B",
"D  c #E26B4E",
"F  c #E36E50",
"G  c #E57453",
"H  c #E77856",
"J  c #E77A58",
"K  c #E97C58",
"L  c #E3815F",
"P  c #E9815E",
"I  c #DC8967",
"U  c #EA8463",
"Y  c #EA8768",
"T  c #EB8A6B",
"R  c #EE906F",
"E  c #EA8E72",
"W  c #EB9275",
"Q  c #EC967C",
"!  c #EE997D",
"~  c #F09B7F",
"^  c #E99780",
"/  c #E99C86",
"(  c #E99D88",
")  c #F19D82",
"_  c #EFA087",
"`  c #F2A186",
"'  c #F3A48A",
"]  c #F4A88F",
"[  c #F0A790",
"{  c #F4AF98",
"}  c #F5B29B",
"|  c #F5B6A1",
" . c #F6BAA5",
".. c #F6BDAA",
"X. c #F7C1AE",
"o. c #F9C8B7",
"O. c #FBD2C4",
"+. c #FCD9CE",
"@. c #FDE0D7",
"#. c #FEEBE4",
"$. c #FEEEE9",
"%. c #FFF6F3",
"&. c #FFF8F6",
"*. c None",
/* pixels */
"*.*.*.*.*.*.*.*.*.*.*.*.*.*.*.*.*.*.*.*.*.*.*.*.*.*.*.*.*.*.*.*.*.*.*.*.*.*.*.*.*.*.*.*.*.*.*.*.*.*.*.*.*.*.*.*.*.*.*.*.*.*.*.*.*.*.*.*.*.*.*.*.*.*.*.*.*.*.*.*.",
"*.*.*.*.*.*.*.*.*.*.*.*.*.*.*.*.*.*.*.*.*.*.*.*.*.*.*.*.*.*.*.*.*.*.*.*.*.*.*.*.*.*.*.*.*.*.*.*.*.*.*.*.*.*.*.*.*.*.*.*.*.*.*.*.*.*.*.*.*.*.*.*.*.*.*.*.*.*.*.*.",
"*.*.*.*.*.*.*.*.*.*.*.*.*.*.*.*.*.*.*.*.*.*.*.*.*.*.*.*.*.*.*.*.*.*.*.*.*.*.*.*.*.*.*.*.*.*.*.*.*.*.*.*.*.*.*.*.*.*.*.*.*.*.*.*.*.*.*.*.*.*.*.*.*.*.*.*.*.*.*.*.",
"*.*.*.*.*.*.*.*.*.*.*.*.*.*.*.*.*.*.*.*.*.*.*.*.*.*.*.*.*.*.*.*.*.*.*.*.*.*.*.*.*.*.*.*.*.*.*.*.*.*.*.*.*.*.*.*.*.*.*.*.*.*.*.*.*.*.*.*.*.*.*.*.*.*.*.*.*.*.*.*.",
"*.*.*.*.*.*.*.*.*.*.*.*.*.*.*.*.*.*.*.*.*.*.*.*.*.*.*.*.*.*.*.*.*.*.*.*.*.*.*.*.*.*.*.*.*.*.*.*.*.*.*.*.*.*.*.*.*.*.*.*.*.*.*.*.*.*.*.*.*.*.*.*.*.*.*.*.*.*.*.*.",
"*.*.*.*.*.*.*.*.*.*.*.*.*.*.*.*.*.*.*.*.*.*.*.*.*.*.*.*.*.*.*.*.*.*.*.*.*.*.*.*.*.*.*.*.*.*.*.*.*.*.*.*.*.*.*.*.*.*.*.*.*.*.*.*.*.*.*.*.*.*.*.*.*.*.*.*.*.*.*.*.",
"*.*.*.*.*.*.*.*.*.*.*.*.*.*.*.*.*.*.*.*.*.*.*.*.*.*.*.*.*.*.*.*.*.*.*.*.*.*.*.*.*.*.*.*.*.*.*.*.*.*.*.*.*.*.*.*.*.*.*.*.*.*.*.*.*.*.*.*.*.*.*.*.*.*.*.*.*.*.*.*.",
"*.*.*.*.*.*.*.*.*.*.*.*.*.*.*.*.*.*.*.*.*.*.*.*.*.*.*.*.*.*.*.*.*.*.*.*.*.*.*.*.*.*.*.*.*.*.*.*.*.*.*.*.*.*.*.*.*.*.*.*.*.*.*.*.*.*.*.*.*.*.*.*.*.*.*.*.*.*.*.*.",
"*.*.*.*.*.*.*.*.*.*.*.*.*.*.*.*.*.*.*.*.*.*.*.*.*.*.*.*.*.*.*.*.*.*.*.*.*.*.*.*.*.*.*.*.*.*.*.*.*.*.*.*.*.*.*.*.*.*.*.*.*.*.*.*.*.*.*.*.*.*.*.*.*.*.*.*.*.*.*.*.",
"*.*.*.*.*.*.*.*.*.*.*.*.*.*.*.*.*.*.*.*.*.*.*.*.*.*.*.*.*.*.*.*.*.*.*.*.*.*.*.*.*.*.*.*.*.*.*.*.*.*.*.*.*.*.*.*.*.*.*.*.*.*.*.*.*.*.*.*.*.*.*.*.*.*.*.*.*.*.*.*.",
"*.*.*.*.*.*.*.*.*.*.*.*.*.*.*.*.*.*.*.*.*.*.*.*.*.*.*.*.*.*.*.*.*.*.*.*.*.*.*.*.*.*.*.*.*.*.*.*.*.*.*.*.*.*.*.*.*.*.*.*.*.*.*.*.*.*.*.*.*.*.*.*.*.*.*.*.*.*.*.*.",
"*.*.*.*.*.*.*.*.*.*.*.*.*.*.*.*.*.*.*.*.*.*.*.*.*.*.*.*.*.*.*.*.*.*.*.*.*.*.*.*.*.*.*.*.*.*.*.*.*.*.*.*.*.*.*.*.*.*.*.*.*.*.*.*.*.*.*.*.*.*.*.*.*.*.*.*.*.*.*.*.",
"*.*.*.*.*.*.*.*.*.*.*.*.*.*.*.*.*.*.*.*.*.*.*.*.*.*.*.*.*.*.*.*.*.*.*.*.*.*.*.*.*.*.*.*.*.*.*.*.*.*.*.*.*.*.*.*.*.*.*.*.*.*.*.*.*.*.*.*.*.*.*.*.*.*.*.*.*.*.*.*.",
"*.*.*.*.*.*.*.*.*.*.*.*.*.*.*.*.*.*.*.*.*.*.*.*.*.*.*.*.*.*.*.*.*.*.*.*.*.*.*.*.*.*.*.*.*.*.*.*.*.*.*.*.*.*.*.*.*.*.*.*.*.*.*.*.*.*.*.*.*.*.*.*.*.*.*.*.*.*.*.*.",
"*.*.*.*.*.*.*.*.*.*.*.*.*.*.*.*.*.*.*.*.*.*.*.*.*.*.*.*.*.*.*.*.*.*.*.*.*.*.*.*.*.*.*.*.*.*.*.*.*.*.*.*.*.*.*.*.*.*.*.*.*.*.*.*.*.*.*.*.*.*.*.*.*.*.*.*.*.*.*.*.",
"*.*.*.*.*.*.*.*.*.*.*.*.*.*.*.*.*.*.*.*.*.*.*.*.*.*.*.*.*.*.*.*.*.*.*.*.*.*.*.*.*.*.*.*.*.*.*.*.*.*.*.*.*.*.*.*.*.*.*.*.*.*.*.*.*.*.*.*.*.*.*.*.*.*.*.*.*.*.*.*.",
"*.*.*.*.*.*.*.*.*.*.*.*.*.*.*.*.*.*.*.*.*.*.*.*.*.*.*.*.*.*.*.*.*.*.*.*.*.*.*.*.*.*.*.*.*.*.*.*.*.*.*.*.*.*.*.*.*.*.*.*.*.*.*.*.*.*.*.*.*.*.*.*.*.*.*.*.*.*.*.*.",
"*.*.*.*.*.*.*.*.*.*.*.*.*.*.*.*.*.*.*.*.*.*.*.*.*.*.*.*.*.*.*.*.*.*.*.*.*.*.*.*.*.*.*.*.*.*.*.*.*.*.*.*.*.*.*.*.*.*.*.*.*.*.*.*.*.*.*.*.*.*.*.*.*.*.*.*.*.*.*.*.",
"*.*.*.*.*.*.*.*.*.*.*.*.*.*.*.*.*.*.*.*.*.*.*.*.*.*.*.*.*.*.*.*.*.*.*.*.*.*.*.*.*.*.*.*.*.*.*.*.*.*.*.*.*.*.*.*.*.*.*.*.*.*.*.*.*.*.*.*.*.*.*.*.*.*.*.*.*.*.*.*.",
"*.*.*.*.*.*.*.*.*.*.*.*.*.*.*.*.*.*.*.*.*.*.*.*.*.*.*.*.*.*.*.*.*.*.*.*.*.*.*.*.*.*.*.*.*.*.*.*.*.*.*.*.*.*.*.*.*.*.*.*.*.*.*.*.*.*.*.*.*.*.*.*.*.*.*.*.*.*.*.*.",
"*.*.*.*.*.*.*.*.*.*.*.*.*.*.*.*.*.*.*.*.*.*.*.*.*.*.*.*.*.*.*.*.*.*.*.*.*.*.*.*.*.*.*.*.O @ * % *.*.*.*.*.*.*.*.*.*.*.*.*.*.*.*.*.*.*.*.*.*.*.*.*.*.*.*.*.*.*.*.",
"*.*.*.*.*.*.*.*.*.*.*.*.*.*.*.*.*.*.*.*.*.*.*.*.*.*.*.*.*.*.*.*.*.*.*.*.*.*.*.*.*.. X O $ * 3 1 - = * $ *.*.*.*.*.*.*.*.*.*.*.*.*.*.*.*.*.*.*.*.*.*.*.*.*.*.*.*.",
"*.*.*.*.*.*.*.*.*.*.*.*.*.*.*.*.*.*.*.*.*.*.*.*.*.*.*.*.*.*.*.*.*.*.*.*.*.*.*.. . . + , p a c v 5 4 1 * - *.*.*.*.*.*.*.*.*.*.*.*.*.*.*.*.*.*.*.*.*.*.*.*.*.*.*.",
"*.*.*.*.*.*.*.*.*.*.*.*.*.*.*.*.*.*.*.*.*.*.*.*.*.*.*.*.. . . *.*.*.*.% % *..   > b A Y E W W ~ I Z x 6 7 1 *.*.*.*.*.*.*.*.*.*.*.*.*.*.*.*.*.*.*.*.*.*.*.*.*.*.",
"*.*.*.*.*.*.*.*.*.*.*.*.*.*.*.*.*.*.*.*.*.*.*.*.. . . . . . . . . . . + @ o r V E ^ ! ! ! ~ ) | ) ! Q Z 2 - *.*.*.*.*.*.*.*.*.*.*.*.*.*.*.*.*.*.*.*.*.*.*.*.*.*.",
"*.*.*.*.*.*.*.*.*.*.*.*.*.*.*.*.*.*.*.*.*.*.. . . . . . . . . & y i u ; : j C W / Q ! ` ] ' } O. ...' R G *.*.*.*.*.*.*.*.*.*.*.*.*.*.*.*.*.*.*.*.*.*.*.*.*.*.*.",
"*.*.*.*.*.*.*.*.*.*.*.*.*.*.*.*.*.*.*.*.. . . . . . . . < z A E ^ ^ ^ E B e M T / ^ Q ! ) ..@.%.#.} ) ! W F *.*.*.*.*.*.*.*.*.*.*.*.*.*.*.*.*.*.*.*.*.*.*.*.*.*.",
"*.*.*.*.*.*.*.*.*.*.*.*.*.*.*.*.*.*.*.. . . . . .   t N E / / / / / / / / L f S ^ Q Q ! ) ] @.&.$.o.` ~ ! E S *.*.*.*.*.*.*.*.*.*.*.*.*.*.*.*.*.*.*.*.*.*.*.*.*.",
"*.*.*.*.*.*.*.*.*.*.*.*.*.*.*.*.*.*.. . . . . . # h E / / ( / / / / / / / / E g G ^ Q ! ) | X.+.o.| { { [ ! Y n *.*.*.*.*.*.*.*.*.*.*.*.*.*.*.*.*.*.*.*.*.*.*.*.",
"*.*.*.*.*.*.*.*.*.*.*.*.*.*.*.*.*.*.*.. . . . & V ^ / ( / / / / / / / / / ( ( E n U Q ! ' ` ` | { ) ) { ../ / D 9 *.*.*.*.*.*.*.*.*.*.*.*.*.*.*.*.*.*.*.*.*.*.*.",
"*.*.*.*.*.*.*.*.*.*.*.*.*.*.*.*.*.*.*.*.*.. & N ^ ( / / ( / ( / / / / ( / / / / Y l E ! ! ~ ~ ` ' ~ `  .{ / / Y d *.*.*.*.*.*.*.*.*.*.*.*.*.*.*.*.*.*.*.*.*.*.*.",
"*.*.*.*.*.*.*.*.*.*.*.*.*.*.*.*.*.*.*.*.*.*.B E / / ( / ( / / ( / / / / / / / ( / L D Q Q ! ! ! ` Q ! _ / / / Y m 8 *.*.*.*.*.*.*.*.*.*.*.*.*.*.*.*.*.*.*.*.*.*.",
"*.*.*.*.*.*.*.*.*.*.*.*.*.*.*.*.*.*.*.*.*.*.F / / / / / / / / ( / / / / / / ( / ( ^ B L ^ ! ! ! ~ ! Q ^ / / / Y C w *.*.*.*.*.*.*.*.*.*.*.*.*.*.*.*.*.*.*.*.*.*.",
"*.*.*.*.*.*.*.*.*.*.*.*.*.*.*.*.*.*.*.*.*.B E / / / / / / / / / / / / ( / / / / / ( Y l W ^ ^ ! ! ^ / / / / / K C 9 *.*.*.*.*.*.*.*.*.*.*.*.*.*.*.*.*.*.*.*.*.*.",
"*.*.*.*.*.*.*.*.*.*.*.*.*.*.*.*.*.*.*.*.*.S / / / / / / / / / / / / ( / / / / / / / ^ M G / / / / / / / / / Y K M 0 8 *.*.*.*.*.*.*.*.*.*.*.*.*.*.*.*.*.*.*.*.*.",
"*.*.*.*.*.*.*.*.*.*.*.*.*.*.*.*.*.*.*.*.m L / / ( / / / / / ( / / / / / ( ( / / ( / / F k E / / ( ( / / W P K F m 9 8 *.*.*.*.*.*.*.*.*.*.*.*.*.*.*.*.*.*.*.*.*.",
"*.*.*.*.*.*.*.*.*.*.*.*.*.*.*.*.*.*.*.*.M E / ( ( / / / / / / / / ( / ( / / / / / / / J g D ^ / / ( ^ Y K K K S l 8 8 *.*.*.*.*.*.*.*.*.*.*.*.*.*.*.*.*.*.*.*.*.",
"*.*.*.*.*.*.*.*.*.*.*.*.*.*.*.*.*.*.*.*.g E / / / / / / / ( / / / ( / / / / ( ( / / / J l k J E W Y K K K K K M k 8 8 *.*.*.*.*.*.*.*.*.*.*.*.*.*.*.*.*.*.*.*.*.",
"*.*.*.*.*.*.*.*.*.*.*.*.*.*.*.*.*.*.*.*.g E / / / / / / ( / / / / / / / ( / / / / / E K m f S K K K K K K K F m f 8 8 *.*.*.*.*.*.*.*.*.*.*.*.*.*.*.*.*.*.*.*.*.",
"*.*.*.*.*.*.*.*.*.*.*.*.*.*.*.*.*.*.*.*.g Y / / / / / ( ( / / / / / ( / ( ( / / / Y K J m d M K K K K K K H M m e 8 8 *.*.*.*.*.*.*.*.*.*.*.*.*.*.*.*.*.*.*.*.*.",
"*.*.*.*.*.*.*.*.*.*.*.*.*.*.*.*.*.*.*.*.s G ^ / ( / / / / / / / / / / / / / ^ E K K K J m d f G K K K K K B m k 8 8 8 *.*.*.*.*.*.*.*.*.*.*.*.*.*.*.*.*.*.*.*.*.",
"*.*.*.*.*.*.*.*.*.*.*.*.*.*.*.*.*.*.*.*.9 M U ^ ( / / / / ( / / / / ( / ^ T K K K K K H m s q S K K K J C m m e 8 8 *.*.*.*.*.*.*.*.*.*.*.*.*.*.*.*.*.*.*.*.*.*.",
"*.*.*.*.*.*.*.*.*.*.*.*.*.*.*.*.*.*.*.*.*.f S K Y T E E T T Y Y U U P K K K K K K K K D m q 8 m H K F M m m g 8 8 8 *.*.*.*.*.*.*.*.*.*.*.*.*.*.*.*.*.*.*.*.*.*.",
"*.*.*.*.*.*.*.*.*.*.*.*.*.*.*.*.*.*.*.*.*.9 l C H K K K K K K K K K K K K K K K K K H M l 9 8 g m m m m m k 9 8 8 8 *.*.*.*.*.*.*.*.*.*.*.*.*.*.*.*.*.*.*.*.*.*.",
"*.*.*.*.*.*.*.*.*.*.*.*.*.*.*.*.*.*.*.*.*.8 q l m D K K K K K K K K K K K K K K K F M m f 8 8 q m m m m k 9 8 8 8 *.*.*.*.*.*.*.*.*.*.*.*.*.*.*.*.*.*.*.*.*.*.*.",
"*.*.*.*.*.*.*.*.*.*.*.*.*.*.*.*.*.*.*.*.*.*.8 e m m M F J K K K K K K K K K K G B m m l 0 8 8 8 g m k s 9 8 8 8 8 *.*.*.*.*.*.*.*.*.*.*.*.*.*.*.*.*.*.*.*.*.*.*.",
"*.*.*.*.*.*.*.*.*.*.*.*.*.*.*.*.*.*.*.*.*.*.8 8 e l m m m C F G H H H G F S M m m m m s 8 8 8 8 8 9 8 8 8 8 8 8 *.*.*.*.*.*.*.*.*.*.*.*.*.*.*.*.*.*.*.*.*.*.*.*.",
"*.*.*.*.*.*.*.*.*.*.*.*.*.*.*.*.*.*.*.*.*.*.8 8 8 q k m m m m m m m m m m m m m m g q 8 8 8 8 8 8 8 8 8 8 8 8 *.*.*.*.*.*.*.*.*.*.*.*.*.*.*.*.*.*.*.*.*.*.*.*.*.",
"*.*.*.*.*.*.*.*.*.*.*.*.*.*.*.*.*.*.*.*.*.*.*.8 8 8 8 e k m m m m m m m m m l f q 8 8 8 8 8 8 8 8 8 8 8 8 8 8 *.*.*.*.*.*.*.*.*.*.*.*.*.*.*.*.*.*.*.*.*.*.*.*.*.",
"*.*.*.*.*.*.*.*.*.*.*.*.*.*.*.*.*.*.*.*.*.*.*.*.8 8 8 8 8 q s d f f f d s q 8 8 8 8 8 8 8 8 8 8 8 8 8 8 8 8 *.*.*.*.*.*.*.*.*.*.*.*.*.*.*.*.*.*.*.*.*.*.*.*.*.*.",
"*.*.*.*.*.*.*.*.*.*.*.*.*.*.*.*.*.*.*.*.*.*.*.*.*.8 8 8 8 8 8 8 8 8 8 8 8 8 8 8 8 8 8 8 8 8 8 8 8 8 8 8 8 *.*.*.*.*.*.*.*.*.*.*.*.*.*.*.*.*.*.*.*.*.*.*.*.*.*.*.",
"*.*.*.*.*.*.*.*.*.*.*.*.*.*.*.*.*.*.*.*.*.*.*.*.*.*.8 8 8 8 8 8 8 8 8 8 8 8 8 8 8 8 8 8 8 8 8 8 8 8 8 8 8 *.*.*.*.*.*.*.*.*.*.*.*.*.*.*.*.*.*.*.*.*.*.*.*.*.*.*.",
"*.*.*.*.*.*.*.*.*.*.*.*.*.*.*.*.*.*.*.*.*.*.*.*.*.*.*.*.8 8 8 8 8 8 8 8 8 8 8 8 8 8 8 8 8 8 8 8 8 8 8 8 *.*.*.*.*.*.*.*.*.*.*.*.*.*.*.*.*.*.*.*.*.*.*.*.*.*.*.*.",
"*.*.*.*.*.*.*.*.*.*.*.*.*.*.*.*.*.*.*.*.*.*.*.*.*.*.*.*.*.8 8 8 8 8 8 8 8 8 8 8 8 8 8 8 8 8 8 8 8 8 8 *.*.*.*.*.*.*.*.*.*.*.*.*.*.*.*.*.*.*.*.*.*.*.*.*.*.*.*.*.",
"*.*.*.*.*.*.*.*.*.*.*.*.*.*.*.*.*.*.*.*.*.*.*.*.*.*.*.*.*.*.*.8 8 8 8 8 8 8 8 8 8 8 8 8 8 8 8 8 8 8 *.*.*.*.*.*.*.*.*.*.*.*.*.*.*.*.*.*.*.*.*.*.*.*.*.*.*.*.*.*.",
"*.*.*.*.*.*.*.*.*.*.*.*.*.*.*.*.*.*.*.*.*.*.*.*.*.*.*.*.*.*.*.*.*.8 8 8 8 8 8 8 8 8 8 8 8 8 8 8 8 *.*.*.*.*.*.*.*.*.*.*.*.*.*.*.*.*.*.*.*.*.*.*.*.*.*.*.*.*.*.*.",
"*.*.*.*.*.*.*.*.*.*.*.*.*.*.*.*.*.*.*.*.*.*.*.*.*.*.*.*.*.*.*.*.*.*.*.8 8 8 8 8 8 8 8 8 8 8 8 8 *.*.*.*.*.*.*.*.*.*.*.*.*.*.*.*.*.*.*.*.*.*.*.*.*.*.*.*.*.*.*.*.",
"*.*.*.*.*.*.*.*.*.*.*.*.*.*.*.*.*.*.*.*.*.*.*.*.*.*.*.*.*.*.*.*.*.*.*.*.*.*.*.8 8 8 8 8 8 8 *.*.*.*.*.*.*.*.*.*.*.*.*.*.*.*.*.*.*.*.*.*.*.*.*.*.*.*.*.*.*.*.*.*.",
"*.*.*.*.*.*.*.*.*.*.*.*.*.*.*.*.*.*.*.*.*.*.*.*.*.*.*.*.*.*.*.*.*.*.*.*.*.*.*.*.*.*.*.*.*.*.*.*.*.*.*.*.*.*.*.*.*.*.*.*.*.*.*.*.*.*.*.*.*.*.*.*.*.*.*.*.*.*.*.*.",
"*.*.*.*.*.*.*.*.*.*.*.*.*.*.*.*.*.*.*.*.*.*.*.*.*.*.*.*.*.*.*.*.*.*.*.*.*.*.*.*.*.*.*.*.*.*.*.*.*.*.*.*.*.*.*.*.*.*.*.*.*.*.*.*.*.*.*.*.*.*.*.*.*.*.*.*.*.*.*.*.",
"*.*.*.*.*.*.*.*.*.*.*.*.*.*.*.*.*.*.*.*.*.*.*.*.*.*.*.*.*.*.*.*.*.*.*.*.*.*.*.*.*.*.*.*.*.*.*.*.*.*.*.*.*.*.*.*.*.*.*.*.*.*.*.*.*.*.*.*.*.*.*.*.*.*.*.*.*.*.*.*.",
"*.*.*.*.*.*.*.*.*.*.*.*.*.*.*.*.*.*.*.*.*.*.*.*.*.*.*.*.*.*.*.*.*.*.*.*.*.*.*.*.*.*.*.*.*.*.*.*.*.*.*.*.*.*.*.*.*.*.*.*.*.*.*.*.*.*.*.*.*.*.*.*.*.*.*.*.*.*.*.*.",
"*.*.*.*.*.*.*.*.*.*.*.*.*.*.*.*.*.*.*.*.*.*.*.*.*.*.*.*.*.*.*.*.*.*.*.*.*.*.*.*.*.*.*.*.*.*.*.*.*.*.*.*.*.*.*.*.*.*.*.*.*.*.*.*.*.*.*.*.*.*.*.*.*.*.*.*.*.*.*.*.",
"*.*.*.*.*.*.*.*.*.*.*.*.*.*.*.*.*.*.*.*.*.*.*.*.*.*.*.*.*.*.*.*.*.*.*.*.*.*.*.*.*.*.*.*.*.*.*.*.*.*.*.*.*.*.*.*.*.*.*.*.*.*.*.*.*.*.*.*.*.*.*.*.*.*.*.*.*.*.*.*.",
"*.*.*.*.*.*.*.*.*.*.*.*.*.*.*.*.*.*.*.*.*.*.*.*.*.*.*.*.*.*.*.*.*.*.*.*.*.*.*.*.*.*.*.*.*.*.*.*.*.*.*.*.*.*.*.*.*.*.*.*.*.*.*.*.*.*.*.*.*.*.*.*.*.*.*.*.*.*.*.*.",
"*.*.*.*.*.*.*.*.*.*.*.*.*.*.*.*.*.*.*.*.*.*.*.*.*.*.*.*.*.*.*.*.*.*.*.*.*.*.*.*.*.*.*.*.*.*.*.*.*.*.*.*.*.*.*.*.*.*.*.*.*.*.*.*.*.*.*.*.*.*.*.*.*.*.*.*.*.*.*.*.",
"*.*.*.*.*.*.*.*.*.*.*.*.*.*.*.*.*.*.*.*.*.*.*.*.*.*.*.*.*.*.*.*.*.*.*.*.*.*.*.*.*.*.*.*.*.*.*.*.*.*.*.*.*.*.*.*.*.*.*.*.*.*.*.*.*.*.*.*.*.*.*.*.*.*.*.*.*.*.*.*.",
"*.*.*.*.*.*.*.*.*.*.*.*.*.*.*.*.*.*.*.*.*.*.*.*.*.*.*.*.*.*.*.*.*.*.*.*.*.*.*.*.*.*.*.*.*.*.*.*.*.*.*.*.*.*.*.*.*.*.*.*.*.*.*.*.*.*.*.*.*.*.*.*.*.*.*.*.*.*.*.*.",
"*.*.*.*.*.*.*.*.*.*.*.*.*.*.*.*.*.*.*.*.*.*.*.*.*.*.*.*.*.*.*.*.*.*.*.*.*.*.*.*.*.*.*.*.*.*.*.*.*.*.*.*.*.*.*.*.*.*.*.*.*.*.*.*.*.*.*.*.*.*.*.*.*.*.*.*.*.*.*.*.",
"*.*.*.*.*.*.*.*.*.*.*.*.*.*.*.*.*.*.*.*.*.*.*.*.*.*.*.*.*.*.*.*.*.*.*.*.*.*.*.*.*.*.*.*.*.*.*.*.*.*.*.*.*.*.*.*.*.*.*.*.*.*.*.*.*.*.*.*.*.*.*.*.*.*.*.*.*.*.*.*.",
"*.*.*.*.*.*.*.*.*.*.*.*.*.*.*.*.*.*.*.*.*.*.*.*.*.*.*.*.*.*.*.*.*.*.*.*.*.*.*.*.*.*.*.*.*.*.*.*.*.*.*.*.*.*.*.*.*.*.*.*.*.*.*.*.*.*.*.*.*.*.*.*.*.*.*.*.*.*.*.*.",
"*.*.*.*.*.*.*.*.*.*.*.*.*.*.*.*.*.*.*.*.*.*.*.*.*.*.*.*.*.*.*.*.*.*.*.*.*.*.*.*.*.*.*.*.*.*.*.*.*.*.*.*.*.*.*.*.*.*.*.*.*.*.*.*.*.*.*.*.*.*.*.*.*.*.*.*.*.*.*.*.",
"*.*.*.*.*.*.*.*.*.*.*.*.*.*.*.*.*.*.*.*.*.*.*.*.*.*.*.*.*.*.*.*.*.*.*.*.*.*.*.*.*.*.*.*.*.*.*.*.*.*.*.*.*.*.*.*.*.*.*.*.*.*.*.*.*.*.*.*.*.*.*.*.*.*.*.*.*.*.*.*.",
"*.*.*.*.*.*.*.*.*.*.*.*.*.*.*.*.*.*.*.*.*.*.*.*.*.*.*.*.*.*.*.*.*.*.*.*.*.*.*.*.*.*.*.*.*.*.*.*.*.*.*.*.*.*.*.*.*.*.*.*.*.*.*.*.*.*.*.*.*.*.*.*.*.*.*.*.*.*.*.*.",
"*.*.*.*.*.*.*.*.*.*.*.*.*.*.*.*.*.*.*.*.*.*.*.*.*.*.*.*.*.*.*.*.*.*.*.*.*.*.*.*.*.*.*.*.*.*.*.*.*.*.*.*.*.*.*.*.*.*.*.*.*.*.*.*.*.*.*.*.*.*.*.*.*.*.*.*.*.*.*.*.",
"*.*.*.*.*.*.*.*.*.*.*.*.*.*.*.*.*.*.*.*.*.*.*.*.*.*.*.*.*.*.*.*.*.*.*.*.*.*.*.*.*.*.*.*.*.*.*.*.*.*.*.*.*.*.*.*.*.*.*.*.*.*.*.*.*.*.*.*.*.*.*.*.*.*.*.*.*.*.*.*.",
"*.*.*.*.*.*.*.*.*.*.*.*.*.*.*.*.*.*.*.*.*.*.*.*.*.*.*.*.*.*.*.*.*.*.*.*.*.*.*.*.*.*.*.*.*.*.*.*.*.*.*.*.*.*.*.*.*.*.*.*.*.*.*.*.*.*.*.*.*.*.*.*.*.*.*.*.*.*.*.*.",
"*.*.*.*.*.*.*.*.*.*.*.*.*.*.*.*.*.*.*.*.*.*.*.*.*.*.*.*.*.*.*.*.*.*.*.*.*.*.*.*.*.*.*.*.*.*.*.*.*.*.*.*.*.*.*.*.*.*.*.*.*.*.*.*.*.*.*.*.*.*.*.*.*.*.*.*.*.*.*.*.",
"*.*.*.*.*.*.*.*.*.*.*.*.*.*.*.*.*.*.*.*.*.*.*.*.*.*.*.*.*.*.*.*.*.*.*.*.*.*.*.*.*.*.*.*.*.*.*.*.*.*.*.*.*.*.*.*.*.*.*.*.*.*.*.*.*.*.*.*.*.*.*.*.*.*.*.*.*.*.*.*.",
"*.*.*.*.*.*.*.*.*.*.*.*.*.*.*.*.*.*.*.*.*.*.*.*.*.*.*.*.*.*.*.*.*.*.*.*.*.*.*.*.*.*.*.*.*.*.*.*.*.*.*.*.*.*.*.*.*.*.*.*.*.*.*.*.*.*.*.*.*.*.*.*.*.*.*.*.*.*.*.*."
};
