/* XPM */
static char *result[] = {
/* columns rows colors chars-per-pixel */
"80 80 199 2 ",
"   c #271A26",
".  c #2E242E",
"X  c #352C34",
"o  c #362C39",
"O  c #392F3A",
"+  c #3C343C",
"@  c #3D3A3C",
"#  c #47282C",
"$  c #55272A",
"%  c #5E3227",
"&  c #5C3431",
"*  c #553B37",
"=  c #593B3C",
"-  c #63352F",
";  c #623030",
":  c #5F403F",
">  c #6C4A3C",
",  c #704D3E",
"<  c #3D3741",
"1  c #413C42",
"2  c #493A42",
"3  c #453F4B",
"4  c #533943",
"5  c #434244",
"6  c #4E454E",
"7  c #4C4C4C",
"8  c #564547",
"9  c #53484E",
"0  c #4E4C53",
"q  c #534452",
"w  c #544954",
"e  c #5C4D5C",
"r  c #505154",
"t  c #56555B",
"y  c #664644",
"u  c #6E4E47",
"i  c #66474A",
"p  c #644C51",
"a  c #685358",
"s  c #78575A",
"d  c #77645D",
"f  c #5B5A64",
"g  c #615767",
"h  c #615B66",
"j  c #6D5C64",
"k  c #625D69",
"l  c #725F63",
"z  c #675F70",
"x  c #64646C",
"c  c #6B6869",
"v  c #776768",
"b  c #666673",
"n  c #6A6574",
"m  c #6C6B73",
"M  c #6E6B7B",
"N  c #776E76",
"B  c #706E7E",
"V  c #727275",
"C  c #767379",
"Z  c #7B777D",
"A  c #871316",
"S  c #991618",
"D  c #A90F0F",
"F  c #8B1E20",
"G  c #862224",
"H  c #9B2629",
"J  c #932C2A",
"K  c #8A3032",
"L  c #9D3235",
"P  c #A03234",
"I  c #9B3F42",
"U  c #835058",
"Y  c #975456",
"T  c #A64F52",
"R  c #85675D",
"E  c #AC6558",
"W  c #825E62",
"Q  c #9E5D67",
"!  c #836464",
"~  c #8A6866",
"^  c #8C6B6B",
"/  c #93626A",
"(  c #926C6E",
")  c #84706A",
"_  c #94786F",
"`  c #866C72",
"'  c #8B7375",
"]  c #867979",
"[  c #937272",
"{  c #9A7474",
"}  c #957A74",
"|  c #9B7976",
" . c #937B7A",
".. c #9D7D7C",
"X. c #A16A6A",
"o. c #AF7266",
"O. c #A36E77",
"+. c #A3757D",
"@. c #A27C7C",
"#. c #A97D7D",
"$. c #B58136",
"%. c #94827B",
"&. c #9B837B",
"*. c #A2817D",
"=. c #A9887A",
"-. c #737282",
";. c #7A7985",
":. c #7F7F8A",
">. c #887E82",
",. c #9A7E82",
"<. c #A37281",
"1. c #848286",
"2. c #8C8487",
"3. c #84838E",
"4. c #89838B",
"5. c #89898A",
"6. c #988485",
"7. c #8C8790",
"8. c #8C8D93",
"9. c #938B91",
"0. c #969396",
"q. c #95959B",
"w. c #999699",
"e. c #9E9A9D",
"r. c #A48383",
"t. c #AA8585",
"y. c #A58887",
"u. c #AA8B84",
"i. c #AB8489",
"p. c #A4898A",
"a. c #AD8B8B",
"s. c #B28584",
"d. c #BA8782",
"f. c #B28C8C",
"g. c #AB9285",
"h. c #AC9288",
"j. c #B39985",
"k. c #B39788",
"l. c #B3948A",
"z. c #BA9B8C",
"x. c #A98E91",
"c. c #A89492",
"v. c #A29E9B",
"b. c #AA9A9B",
"n. c #B49494",
"m. c #BA9696",
"M. c #B69B93",
"N. c #BB9B92",
"B. c #B19899",
"V. c #BB9B9B",
"C. c #BEA48F",
"Z. c #BCA193",
"A. c #BFA29B",
"S. c #B9A799",
"D. c #A49CA2",
"F. c #A2A1A4",
"G. c #A9A8AD",
"H. c #B5AAA8",
"J. c #B7B1AD",
"K. c #AFAEB1",
"L. c #B1B1B5",
"P. c #B6B6B9",
"I. c #BDB7B9",
"U. c #C19E96",
"Y. c #C3A594",
"T. c #C4A897",
"R. c #C3A49B",
"E. c #C5AB9C",
"W. c #CAAA9C",
"Q. c #D2B49D",
"!. c #D5BA9F",
"~. c #C4A3A3",
"^. c #C6A8A6",
"/. c #CCADA3",
"(. c #CFBAA5",
"). c #D3B4A2",
"_. c #D5B9A3",
"`. c #DAB8A6",
"'. c #DABCA5",
"]. c #C6BCBB",
"[. c #DDC1A5",
"{. c #DFC2A8",
"}. c #DDCBB6",
"|. c #E1C2A6",
" X c #E6C8AA",
".X c #EBCCAE",
"XX c #EED0AE",
"oX c #EECEB0",
"OX c #F4D3B3",
"+X c #BEBFC3",
"@X c #C6BEC0",
"#X c #C2C2C3",
"$X c #CBCCCC",
"%X c #CECFD0",
"&X c #D4D4D3",
"*X c #EAEAEA",
"=X c #EFF0F0",
"-X c #F5F5F4",
";X c None",
/* pixels */
";X;X;X;X;X;X;X;X;X;X;X;X;X;X;X;X;X;X;X;X;X;X;X;X;X;X;X;X;X;X;X;X;X;X;X;X;X;X;X;X;X;X;X;X;X;X;X;X;X;X;X;X;X;X;X;X;X;X;X;X;X;X;X;X;X;X;X;X;X;X;X;X;X;X;X;X;X;X;X;X",
";X;X;X;X;X;X;X;X;X;X;X;X;X;X;X;X;X;X;X;X;X;X;X;X;X;X;X;X;X;X;X;X;X;X;X;X;X;X;X;X;X;X;X;X;X;X;X;X;X;X;X;X;X;X;X;X;X;X;X;X;X;X;X;X;X;X;X;X;X;X;X;X;X;X;X;X;X;X;X;X",
";X;X;X;X;X;X;X;X;X;X;X;X;X;X;X;X;X;X;X;X;X;X;X;X;X;X;X;X;X;X;X;X;X;X;X;X;X;X;X;X;X;X;X;X;X;X;X;X;X;X;X;X;X;X;X;X;X;X;X;X;X;X;X;X;X;X;X;X;X;X;X;X;X;X;X;X;X;X;X;X",
";X;X;X;X;X;X;X;X;X;X;X;X;X;X;X;X;X;X;X;X;X;X;X;X;X;X;X;X;X;X;X;X;X;X;X;X;X;X;X;X;X;X;X;X;X;X;X;X;X;X;X;X;X;X;X;X;X;X;X;X;X;X;X;X;X;X;X;X;X;X;X;X;X;X;X;X;X;X;X;X",
";X;X;X;X;X;X;X;X;X;X;X;X;X;X;X;X;X;X;X;X;X;X;X;X;X;X;X;X;X;X;X;X;X;X;X;X;X;X;X;X;X;X;X;X;X;X;X;X;X;X;X;X;X;X;X;X;X;X;X;X;X;X;X;X;X;X;X;X;X;X;X;X;X;X;X;X;X;X;X;X",
";X;X;X;X;X;X;X;X;X;X;X;X;X;X;X;X;X;X;X;X;X;X;X;X;X;X;X;X;X;X;X;X;X;X;X;X;X;X;X;X;X;X;X;X;X;X;X;X;X;X;X;X;X;X;X;X;X;X;X;X;X;X;X;X;X;X;X;X;X;X;X;X;X;X;X;X;X;X;X;X",
";X;X;X;X;X;X;X;X;X;X;X;X;X;X;X;X;X;X;X;X;X;X;X;X;X;X;X;X;X;X;X;X;X;X;X;X;X;X;X;X;X;Xi.a.;X;X;X;X;X;X;X;X;X;X;X;X;X;X;X;X;X;X;X;X;X;X;X;X;X;X;X;X;X;X;X;X;X;X;X;X",
";X;X;X;X;X;X;X;X;X;X;X;X;X;X;X;X;X;X;X;X;X;X;X;X;X;X;X;X;X;X;X;X;X;X;X;X;X;X;X;X;X@.n.n.n.n.i.;X;X;X;X;X;X;X;X;X;X;X;X;X;X;X;X;X;X;X;X;X;X;X;X;X;X;X;X;X;X;X;X;X",
";X;X;X;X;X;X;X;X;X;X;X;X;X;X;X;X;X;X;X;X;X;X;X;X;X;X;X;X;X;X;X;X;X;X;X;X;X;X;X;X;XJ E s.n.i.+.O.;X;X;X;X;X;X;X;X;X;X;X;X;X;X;X;X;X;X;X;X;X;X;X;X;X;X;X;X;X;X;X;X",
";X;X;X;X;X;X;X;X;X;X;X;X;X;X;X;X;X;X;X;X;X;X;X;X;X;X;X;X;X;X;X;X;X;X;X;X;X;X;X;XO.P S S T Q <.<.;X;X;X;X;X;X;X;X;X;X;X;X;X;X;X;X;X;X;X;X;X;X;X;X;X;X;X;X;X;X;X;X",
";X;X;X;X;X;X;X;X;X;X;X;X;X;X;X;X;X;X;X;X;X;X;X;X;X;X;X;X;X;X;X;X;X;X;X;X;X;X;X;Xk ' X.T S S J Y ;X;X;X;X;X;X;X;X;X;X;X;X;X;X;X;X;X;X;X;X;X;X;X;X;X;X;X;X;X;X;X;X",
";X;X;X;X;X;X;X;X;X;X;X;X;X;X;X;X;X;X;X;X;X;X;X;X;X;X;X;X;X;X;X;X;X;X;X;X;X;X;Xg.V m ;.` X.E L G ;X;X;X;X;X;X;X;X;X;X;X;X;X;X;X;X;X;X;X;X;X;X;X;X;X;X;X;X;X;X;X;X",
";X;X;X;X;X;X;X;X;X;X;X;X;X;X;X;X;X;X;X;X;X;X;X;X;X;X;X;X;X;X;X;X;X;X;X;X;X;X.Xj.c 5.8.] $.$.` / ;X;X;X;X;X;X;X;X;X;X;X;X;X;X;X;X;X;X;X;X;X;X;X;X;X;X;X;X;X;X;X;X",
";X;X;X;X;X;X;X;X;X;X;X;X;X;X;X;X;X;X;X;X;X;X;X;X;X;X;X;X;X;X;X;X;X;X;X;X;X X.X=.u 1.0.1.2.v.C ;X;X;X;X;X;X;X;X;X;X;X;X;X;X;X;X;X;X;X;X;X;X;X;X;X;X;X;X;X;X;X;X;X",
";X;X;X;X;X;X;X;X;X;X;X;X;X;X;X;X;X;X;X;X;X;X;X;X;X;X;X;X;X;X;X;X;X;X;X;X`.`.Q.E.] v 1.0.P.e.;X;X;X;X;X;X;X;X;X;X;X;X;X;X;X;X;X;X;X;X;X;X;X;X;X;X;X;X;X;X;X;X;X;X",
";X;X;X;X;X;X;X;X;X;X;X;X;X;X;X;X;X;X;X;X;X;X;X;X;X;X;X;X;X;X;X;X;X;X|. X.XW.T.'.H.%.C 8.3.&.;X;X;X;X;X;X;X;X;X;X;X;X;X;X;X;X;X;X;X;X;X;X;X;X;X;X;X;X;X;X;X;X;X;X",
";X;X;X;X;X;X;X;X;X;X;X;X;X;X;X;X;X;X;X;X;X;X;X;X;X;X;X;X;X;X;X;X;XoXOXOX.X'.'.OX[.J.v.U ~ A.Q.;X;X;X;X;X;X;X;X;X;X;X;X;X;X;X;X;X;X;X;X;X;X;X;X;X;X;X;X;X;X;X;X;X",
";X;X;X;X;X;X;X;X;X;X;X;X;X;X;X;X;X;X;X;X;X;X;X;X;X;X;X;X;X;X;X;X XOXOXOXoXoX'.). X(.2.F K c.Q.;X;X;X;X;X;X;X;X;X;X;X;X;X;X;X;X;X;X;X;X;X;X;X;X;X;X;X;X;X;X;X;X;X",
";X;X;X;X;X;X;X;X;X;X;X;X;X;X;X;X;X;X;X;X;X;X;X;X;X;X;X;X;X;X;X;X XOXOXOXOX.X.X).R.`.S.[ A } !.Z.;X;X;X;X;X;X;X;X;X;X;X;X;X;X;X;X;X;X;X;X;X;X;X;X;X;X;X;X;X;X;X;X",
";X;X;X;X;X;X;X;X;X;X;X;X;X;X;X;X;X;X;X;X;X;X;X;X;X;X;X;X;X;X;X;X X XOXXX.X.X XOX|.W.Q.S.H I E.z.;X;X;X;X;X;X;X;X;X;X;X;X;X;X;X;X;X;X;X;X;X;X;X;X;X;X;X;X;X;X;X;X",
";X;X;X;X;X;X;X;X;X;X;X;X;X;X;X;X;X;X;X;X;X;X;X;X;X;X;X;X;X;X;X;X_.[.OX{..XOX|.OXOXoX).Z.J D d.C.;X;X;X;X;X;X;X;X;X;X;X;X;X;X;X;X;X;X;X;X;X;X;X;X;X;X;X;X;X;X;X;X",
";X;X;X;X;X;X;X;X;X;X;X;X;X;X;X;X;X;X;X;X;X;X;X;X;X;X;X;X;X;X;X;XU./.).).OXOX!. XOXOXOX'.X.D o.!.;X;X;X;X;X;X;X;X;X;X;X;X;X;X;X;X;X;X;X;X;X;X;X;X;X;X;X;X;X;X;X;X",
";X;X;X;X;X;X;X;X;X;X;X;X;X;X;X;X;X;X;X;X;X;X;X;X;X;X;X;X;X;X;X;Xm.~.R.`.OX.XY.Q.OXOXOXOXR.Y o.'.v ;X;X;X;X;X;X;X;X;X;X;X;X;X;X;X;X;X;X;X;X;X;X;X;X;X;X;X;X;X;X;X",
";X;X;X;X;X;X;X;X;X;X;X;X;X;X;X;X;X;X;X;X;X;X;X;X;X;X;X;X;X;X;X;Xf.~.R. XOX[.Y.R.OXOXOXOX'.a.&.Z.) ;X;X;X;X;X;X;X;X;X;X;X;X;X;X;X;X;X;X;X;X;X;X;X;X;X;X;X;X;X;X;X",
";X;X;X;X;X;X;X;X;X;X;X;X;X;X;X;X;X;X;X;X;X;X;X;X;X;X;X;X;X;X;X;Xa.~.W.OX X'.z.V.). X XQ..X/.6.r.' ;X;X;X;X;X;X;X;X;X;X;X;X;X;X;X;X;X;X;X;X;X;X;X;X;X;X;X;X;X;X;X",
";X;X;X;X;X;X;X;X;X;X;X;X;X;X;X;X;X;X;X;X;X;X;X;X;X;X;X;X;X;X;X;Xf.R. XOX[.[.u.V.~./.T.k.'.'.y.} [ ;X;X;X;X;X;X;X;X;X;X;X;X;X;X;X;X;X;X;X;X;X;X;X;X;X;X;X;X;X;X;X",
";X;X;X;X;X;X;X;X;X;X;X;X;X;X;X;X;X;X;X;X;X;X;X;X;X;X;X;X;X;X;X;Xl.|.OXoX.X X*.n.~.~.~.~.^./.m.v ^ ! ;X;X;X;X;X;X;X;X;X;X;X;X;X;X;X;X;X;X;X;X;X;X;X;X;X;X;X;X;X;X",
";X;X;X;X;X;X;X;X;X;X;X;X;X;X;X;X;X;X;X;X;X;X;X;X;X;X;X;X;X;X;X;Xn.'.U.l.T._.} ..a.m.m.h.H.w.>.9 { [ ;X;X;X;X;X;X;X;X;X;X;X;X;X;X;X;X;X;X;X;X;X;X;X;X;X;X;X;X;X;X",
";X;X;X;X;X;X;X;X;X;X;X;X;X;X;X;X;X;X;X;X;X;X;X;X;X;X;X;X;X;X;X;Xy.f.@.r.R. Xz.a.y. .k.R.J.M.6.a ~ ! d ;X;X;X;X;X;X;X;X;X;X;X;X;X;X;X;X;X;X;X;X;X;X;X;X;X;X;X;X;X",
";X;X;X;X;X;X;X;X;X;X;X;X;X;X;X;X;X;X;X;X;X;X;X;X;X;X;X;X;X;X;X;Xr.f.a.n.'.OXOXY.r.' ..Y.H.B.,.l s l.g.%.;X;X;X;X;X;X;X;X;X;X;X;X;X;X;X;X;X;X;X;X;X;X;X;X;X;X;X;X",
";X;X;X;X;X;X;X;X;X;X;X;X;X;X;X;X;X;X;X;X;X;X;X;X;X;X;X;X;X;X;X;X{ m.~.~.).OXOXOXh. . .k.b.0.1.a s ..g.z.;X;X;X;X;X;X;X;X;X;X;X;X;X;X;X;X;X;X;X;X;X;X;X;X;X;X;X;X",
";X;X;X;X;X;X;X;X;X;X;X;X;X;X;X;X;X;X;X;X;X;X;X;X;X;X;X;X;X;X;X;X;X<.~.~.~.). XOX_.M.n.N.E.S.S.@.W #.s.k.g.&.;X;X;X;X;X;X;X;X;X;X;X;X;X;X;X;X;X;X;X;X;X;X;X;X;X;X",
";X;X;X;X;X;X;X;X;X;X;X;X;X;X;X;X;X;X;X;X;X;X;X;X;X;X;X;X;X;X;X;X;X;Xu.~.~.~.W._. X|.'._.Q..X Xu.@.<.s.#.} u.g._ ;X;X;X;X;X;X;X;X;X;X;X;X;X;X;X;X;X;X;X;X;X;X;X;X",
";X;X;X;X;X;X;X;X;X;X;X;X;X;X;X;X;X;X;X;X;X;X;X;X;X;X;X;X;X;X;X;X;X;Xj.u.m.~.n.g.T. X}.].b.A.l.^ ( [ #.W ! *.l.6.;X;X;X;X;X;X;X;X;X;X;X;X;X;X;X;X;X;X;X;X;X;X;X;X",
";X;X;X;X;X;X;X;X;X;X;X;X;X;X;X;X;X;X;X;X;X;X;X;X;X;X;X;X;X;X;X;X;Xk.!.Y.r.a.a.*.V.^.K.L.G.x.r.~ W 4 s s ( { F.K.v ;X;X;X;X;X;X;X;X;X;X;X;X;X;X;X;X;X;X;X;X;X;X;X",
";X;X;X;X;X;X;X;X;X;X;X;X;X;X;X;X;X;X;X;X;X;X;X;X;X;X;X;X;X;X;X;X;Xz.Y.n.n.t.| ..~.H.I.=X-X@Xn.r.! ;X;Xi ( N G.&XL.;X;X;X;X;X;X;X;X;X;X;X;X;X;X;X;X;X;X;X;X;X;X;X",
";X;X;X;X;X;X;X;X;X;X;X;X;X;X;X;X;X;X;X;X;X;X;X;X;X;X;X;X;X;X;X;X;Xf.n.n.n.n.f...t.c.+X-X-X-XI.p.W ;X;X;Xp h F.&X&XP.:.;X;X;X;X;X;X;X;X;X;X;X;X;X;X;X;X;X;X;X;X;X",
";X;X;X;X;X;X;X;X;X;X;X;X;X;X;X;X;X;X;X;X;X;X;X;X;X;X;X;X;X;X;X;X;Xf.n.n.n.n.n.n.t.6.e.*X-X=X%XI.{ ;X;X;X;X< 5.#XP.#XL.3.;X;X;X;X;X;X;X;X;X;X;X;X;X;X;X;X;X;X;X;X",
";X;X;X;X;X;X;X;X;X;X;X;X;X;X;X;X;X;X;X;X;X;X;X;X;X;X;X;X;X;X;X;X;Xf.n.n.n.n.n.n.n.u.u.b.$X$X#XL.D.q ;X;X;X;X;Xw.8.1.F.F.:.;X;X;X;X;X;X;X;X;X;X;X;X;X;X;X;X;X;X;X",
";X;X;X;X;X;X;X;X;X;X;X;X;X;X;X;X;X;X;X;X;X;X;X;X;X;X;X;X;X;X;X;X;Xf.n.n.n.n.n.n.n.r.N...e.G.G.q.q.q.;X;X;X;X;Xm C ;X;X5.Z ;X;X;X;X;X;X;X;X;X;X;X;X;X;X;X;X;X;X;X",
";X;X;X;X;X;X;X;X;X;X;X;X;X;X;X;X;X;X;X;X;X;X;X;X;X;X;X;X;X;X;X;X;Xf.n.n.n.n.n.n.n.y.z.a.2.9.7.9.4.N ;X;X;X;X;X;Xc ;X;XV Z ;X;X;X;X;X;X;X;X;X;X;X;X;X;X;X;X;X;X;X",
";X;X;X;X;X;X;X;X;X;X;X;X;X;X;X;X;X;X;X;X;X;X;X;X;X;X;X;X;X;X;X;X;Xf.n.n.n.n.n.n.n.a.u.n.,.x.p.p.' ~ ;X;X;X;X;X;X;X;X;X;XV ;X;X;X;X;X;X;X;X;X;X;X;X;X;X;X;X;X;X;X",
";X;X;X;X;X;X;X;X;X;X;X;X;X;X;X;X;X;X;X;X;X;X;X;X;X;X;X;X;X;X;X;X;Xy.n.n.n.n.n.n.n.a.r.f.t.n.n.a.[ ~ ;X;X;X;X;X;X;X;X;X;X;X;X;X;X;X;X;X;X;X;X;X;X;X;X;X;X;X;X;X;X",
";X;X;X;X;X;X;X;X;X;X;X;X;X;X;X;X;X;X;X;X;X;X;X;X;X;X;X;X;X;X;X;X;Xr.n.n.n.n.n.n.n.n.| | a.n.n.a.[ ^ ;X;X;X;X;X;X;X;X;X;X;X;X;X;X;X;X;X;X;X;X;X;X;X;X;X;X;X;X;X;X",
";X;X;X;X;X;X;X;X;X;X;X;X;X;X;X;X;X;X;X;X;X;X;X;X;X;X;X;X;X;X;X;X;Xr.n.n.n.n.n.n.n.n.a.n.n.n.n.a.[ ^ ;X;X;X;X;X;X;X;X;X;X;X;X;X;X;X;X;X;X;X;X;X;X;X;X;X;X;X;X;X;X",
";X;X;X;X;X;X;X;X;X;X;X;X;X;X;X;X;X;X;X;X;X;X;X;X;X;X;X;X;X;X;X;X;X#.n.n.n.n.n.n.n.n.N.n.n.n.n.a.[ [ ;X;X;X;X;X;X;X;X;X;X;X;X;X;X;X;X;X;X;X;X;X;X;X;X;X;X;X;X;X;X",
";X;X;X;X;X;X;X;X;X;X;X;X;X;X;X;X;X;X;X;X;X;X;X;X;X;X;X;X;X;X;X;X;Xt.f.n.n.n.n.n.n.n.N.n.n.n.n.r.[ { ;X;X;X;X;X;X;X;X;X;X;X;X;X;X;X;X;X;X;X;X;X;X;X;X;X;X;X;X;X;X",
";X;X;X;X;X;X;X;X;X;X;X;X;X;X;X;X;X;X;X;X;X;X;X;X;X;X;X;X;X;X;X;X;Xt.n.n.n.n.n.n.n.n.N.n.n.n.n...{ { ;X;X;X;X;X;X;X;X;X;X;X;X;X;X;X;X;X;X;X;X;X;X;X;X;X;X;X;X;X;X",
";X;X;X;X;X;X;X;X;X;X;X;X;X;X;X;X;X;X;X;X;X;X;X;X;X;X;X;X;X;X;X;X;Xa.n.n.n.n.n.n.n.n.N.n.n.n.n...@.[ ;X;X;X;X;X;X;X;X;X;X;X;X;X;X;X;X;X;X;X;X;X;X;X;X;X;X;X;X;X;X",
";X;X;X;X;X;X;X;X;X;X;X;X;X;X;X;X;X;X;X;X;X;X;X;X;X;X;X;X;X;X;X;X;Xa.n.n.n.n.n.n.n.m.N.n.n.n.n.{ @.[ ;X;X;X;X;X;X;X;X;X;X;X;X;X;X;X;X;X;X;X;X;X;X;X;X;X;X;X;X;X;X",
";X;X;X;X;X;X;X;X;X;X;X;X;X;X;X;X;X;X;X;X;X;X;X;X;X;X;X;X;X;X;X;X| n.n.n.n.n.n.n.n.n.n.n.n.n.n.[ { [ ;X;X;X;X;X;X;X;X;X;X;X;X;X;X;X;X;X;X;X;X;X;X;X;X;X;X;X;X;X;X",
";X;X;X;X;X;X;X;X;X;X;X;X;X;X;X;X;X;X;X;X;X;X;X;X;X;X;X;X;X;X;X;X@.n.n.n.n.n.n.n.n.n.n.n.n.n.a.[ [ [ ;X;X;X;X;X;X;X;X;X;X;X;X;X;X;X;X;X;X;X;X;X;X;X;X;X;X;X;X;X;X",
";X;X;X;X;X;X;X;X;X;X;X;X;X;X;X;X;X;X;X;X;X;X;X;X;X;X;X;X;X;X;X;Xr.n.n.n.n.n.n.n.n.n.n.n.n.n.a.[ [ ~ ;X;X;X;X;X;X;X;X;X;X;X;X;X;X;X;X;X;X;X;X;X;X;X;X;X;X;X;X;X;X",
";X;X;X;X;X;X;X;X;X;X;X;X;X;X;X;X;X;X;X;X;X;X;X;X;X;X;X;X;X;X;X;Xt.n.n.n.n.n.n.n.n.n.n.n.n.n.r.{ [ ~ ;X;X;X;X;X;X;X;X;X;X;X;X;X;X;X;X;X;X;X;X;X;X;X;X;X;X;X;X;X;X",
";X;X;X;X;X;X;X;X;X;X;X;X;X;X;X;X;X;X;X;X;X;X;X;X;X;X;X;X;X;X;X;Xa.n.n.n.n.n.n.n.n.n.n.n.n.n.r.{ [ ~ ;X;X;X;X;X;X;X;X;X;X;X;X;X;X;X;X;X;X;X;X;X;X;X;X;X;X;X;X;X;X",
";X;X;X;X;X;X;X;X;X;X;X;X;X;X;X;X;X;X;X;X;X;X;X;X;X;X;X;X;X;X;X;Xn.n.n.n.n.n.n.n.n.n.n.n.n.f.t.{ [ ~ ;X;X;X;X;X;X;X;X;X;X;X;X;X;X;X;X;X;X;X;X;X;X;X;X;X;X;X;X;X;X",
";X;X;X;X;X;X;X;X;X;X;X;X;X;X;X;X;X;X;X;X;X;X;X;X;X;X;X;X;X;X;X..n.n.n.n.n.n.n.n.n.n.n.n.n.f.a.[ [ ~ ;X;X;X;X;X;X;X;X;X;X;X;X;X;X;X;X;X;X;X;X;X;X;X;X;X;X;X;X;X;X",
";X;X;X;X;X;X;X;X;X;X;X;X;X;X;X;X;X;X;X;X;X;X;X;X;X;X;X;X;X;X;Xr.n.n.n.n.n.n.n.n.n.n.n.n.f.f.f.[ [ [ ;X;X;X;X;X;X;X;X;X;X;X;X;X;X;X;X;X;X;X;X;X;X;X;X;X;X;X;X;X;X",
";X;X;X;X;X;X;X;X;X;X;X;X;X;X;X;X;X;X;X;X;X;X;X;X;X;X;X;X;X;X;Xr.n.n.n.n.n.n.n.n.n.n.n.n.f.n.a.( [ [ ;X;X;X;X;X;X;X;X;X;X;X;X;X;X;X;X;X;X;X;X;X;X;X;X;X;X;X;X;X;X",
";X;X;X;X;X;X;X;X;X;X;X;X;X;X;X;X;X;X;X;X;X;X;X;X;X;X;X;X;X;X;Xa.n.n.n.n.n.n.n.n.n.n.n.n.t.n.t.^ [ ^ ;X;X;X;X;X;X;X;X;X;X;X;X;X;X;X;X;X;X;X;X;X;X;X;X;X;X;X;X;X;X",
";X;X;X;X;X;X;X;X;X;X;X;X;X;X;X;X;X;X;X;X;X;X;X;X;X;X;X;X;X;X;Xa.n.n.n.n.n.n.n.n.n.n.n.t.f.n.*.( [ ^ ;X;X;X;X;X;X;X;X;X;X;X;X;X;X;X;X;X;X;X;X;X;X;X;X;X;X;X;X;X;X",
";X;X;X;X;X;X;X;X;X;X;X;X;X;X;X;X;X;X;X;X;X;X;X;X;X;X;X;X;X;X;Xa.n.n.n.n.n.n.n.n.n.n.f.f.n.n.| ^ [ ^ ;X;X;X;X;X;X;X;X;X;X;X;X;X;X;X;X;X;X;X;X;X;X;X;X;X;X;X;X;X;X",
";X;X;X;X;X;X;X;X;X;X;X;X;X;X;X;X;X;X;X;X;X;X;X;X;X;X;X;X;X;X;X@.f.n.n.n.n.n.n.n.n.f.f.n.n.n.} ^ [ ;X;X;X;X;X;X;X;X;X;X;X;X;X;X;X;X;X;X;X;X;X;X;X;X;X;X;X;X;X;X;X",
";X;X;X;X;X;X;X;X;X;X;X;X;X;X;X;X;X;X;X;X;X;X;X;X;X;X;X;X;X;X;X;X` @.a.n.n.n.n.n.n.n.n.n.n.n.~ ! ^ ;X;X;X;X;X;X;X;X;X;X;X;X;X;X;X;X;X;X;X;X;X;X;X;X;X;X;X;X;X;X;X",
";X;X;X;X;X;X;X;X;X;X;X;X;X;X;X;X;X;X;X;X;X;X;X;X;X;X;X;X;X;X;X;Xm j s ~ } ..r.a.a.a.p.p.y.*.R ;X;X;X;X;X;X;X;X;X;X;X;X;X;X;X;X;X;X;X;X;X;X;X;X;X;X;X;X;X;X;X;X;X",
";X;X;X;X;X;X;X;X;X;X;X;X;X;X;X;X;X;X;X;X;X;X;X;X;X;X;X;X;X;X;X;XM -.j > , > y i u y : = 8 p ;X;X;X;X;X;X;X;X;X;X;X;X;X;X;X;X;X;X;X;X;X;X;X;X;X;X;X;X;X;X;X;X;X;X",
";X;X;X;X;X;X;X;X;X;X;X;X;X;X;X;X;X;X;X;X;X;X;X;X;X;X;X;X;X;X;X;XM -.-.p , - ;X# ; ; ; & 8 2 ;X;X;X;X;X;X;X;X;X;X;X;X;X;X;X;X;X;X;X;X;X;X;X;X;X;X;X;X;X;X;X;X;X;X",
";X;X;X;X;X;X;X;X;X;X;X;X;X;X;X;X;X;X;X;X;X;X;X;X;X;X;X;X;X;X;X;XB -.-.e y % ;X# & & * 8 = & ;X;X;X;X;X;X;X;X;X;X;X;X;X;X;X;X;X;X;X;X;X;X;X;X;X;X;X;X;X;X;X;X;X;X",
";X;X;X;X;X;X;X;X;X;X;X;X;X;X;X;X;X;X;X;X;X;X;X;X;X;X;X;X;X;X;X;X-.-.M g e $ ;X1 9 9 9 8 = 4 ;X;X;X;X;X;X;X;X;X;X;X;X;X;X;X;X;X;X;X;X;X;X;X;X;X;X;X;X;X;X;X;X;X;X",
";X;X;X;X;X;X;X;X;X;X;X;X;X;X;X;X;X;X;X;X;X;X;X;X;X;X;X;X;X;X;Xk -.B n z e q ;XO 6 6 6 1 O 0 x t ;X;X;X;X;X;X;X;X;X;X;X;X;X;X;X;X;X;X;X;X;X;X;X;X;X;X;X;X;X;X;X;X",
";X;X;X;X;X;X;X;X;X;X;X;X;X;X;X;X;X;X;X;X;X;X;X;X;X;X;X;X;X;X;Xk B n B n w q ;XX + + + + 5 r x m f 3 ;X;X;X;X;X;X;X;X;X;X;X;X;X;X;X;X;X;X;X;X;X;X;X;X;X;X;X;X;X;X",
";X;X;X;X;X;X;X;X;X;X;X;X;X;X;X;X;X;X;X;X;X;X;X;X;X;X;X;X;X;X;Xh M n n n f q ;X. X 5 1 1 + @ 7 x m x t o ;X;X;X;X;X;X;X;X;X;X;X;X;X;X;X;X;X;X;X;X;X;X;X;X;X;X;X;X",
";X;X;X;X;X;X;X;X;X;X;X;X;X;X;X;X;X;X;X;X;X;X;X;X;X;X;X;X;X;X;X;Xf 0 m 3.b f ;X.     ;X;X. 1 7 7 7 0 0 ;X;X;X;X;X;X;X;X;X;X;X;X;X;X;X;X;X;X;X;X;X;X;X;X;X;X;X;X;X",
";X;X;X;X;X;X;X;X;X;X;X;X;X;X;X;X;X;X;X;X;X;X;X;X;X;X;X;X;X;X;X;X0 7 r m :.3.-.f 1 ;X;X;X;X;X;X;X;X;X;X;X;X;X;X;X;X;X;X;X;X;X;X;X;X;X;X;X;X;X;X;X;X;X;X;X;X;X;X;X",
";X;X;X;X;X;X;X;X;X;X;X;X;X;X;X;X;X;X;X;X;X;X;X;X;X;X;X;X;X;X;X;X3 5 X + t V m f < ;X;X;X;X;X;X;X;X;X;X;X;X;X;X;X;X;X;X;X;X;X;X;X;X;X;X;X;X;X;X;X;X;X;X;X;X;X;X;X",
";X;X;X;X;X;X;X;X;X;X;X;X;X;X;X;X;X;X;X;X;X;X;X;X;X;X;X;X;X;X;X;X;X;X;X;X;X;X;X;X;X;X;X;X;X;X;X;X;X;X;X;X;X;X;X;X;X;X;X;X;X;X;X;X;X;X;X;X;X;X;X;X;X;X;X;X;X;X;X;X",
";X;X;X;X;X;X;X;X;X;X;X;X;X;X;X;X;X;X;X;X;X;X;X;X;X;X;X;X;X;X;X;X;X;X;X;X;X;X;X;X;X;X;X;X;X;X;X;X;X;X;X;X;X;X;X;X;X;X;X;X;X;X;X;X;X;X;X;X;X;X;X;X;X;X;X;X;X;X;X;X",
";X;X;X;X;X;X;X;X;X;X;X;X;X;X;X;X;X;X;X;X;X;X;X;X;X;X;X;X;X;X;X;X;X;X;X;X;X;X;X;X;X;X;X;X;X;X;X;X;X;X;X;X;X;X;X;X;X;X;X;X;X;X;X;X;X;X;X;X;X;X;X;X;X;X;X;X;X;X;X;X",
";X;X;X;X;X;X;X;X;X;X;X;X;X;X;X;X;X;X;X;X;X;X;X;X;X;X;X;X;X;X;X;X;X;X;X;X;X;X;X;X;X;X;X;X;X;X;X;X;X;X;X;X;X;X;X;X;X;X;X;X;X;X;X;X;X;X;X;X;X;X;X;X;X;X;X;X;X;X;X;X",
";X;X;X;X;X;X;X;X;X;X;X;X;X;X;X;X;X;X;X;X;X;X;X;X;X;X;X;X;X;X;X;X;X;X;X;X;X;X;X;X;X;X;X;X;X;X;X;X;X;X;X;X;X;X;X;X;X;X;X;X;X;X;X;X;X;X;X;X;X;X;X;X;X;X;X;X;X;X;X;X"
};
