/* XPM */
static char *result[] = {
/* columns rows colors chars-per-pixel */
"80 80 201 2 ",
"   c #2B202C",
".  c #342B34",
"X  c #372D3D",
"o  c #3C353D",
"O  c #3E393E",
"+  c #4C201D",
"@  c #5C332E",
"#  c #463B3D",
"$  c #553E3D",
"%  c #5C3838",
"&  c #612F2F",
"*  c #633231",
"=  c #68403B",
"-  c #6D4B3B",
";  c #3C3342",
":  c #433B44",
">  c #453D4B",
",  c #4B3D49",
"<  c #444344",
"1  c #4B444C",
"2  c #49484A",
"3  c #52474C",
"4  c #584449",
"5  c #4B4351",
"6  c #524B52",
"7  c #5B4D5A",
"8  c #525256",
"9  c #56545D",
"0  c #5D555C",
"q  c #694947",
"w  c #744747",
"e  c #775249",
"r  c #73534D",
"t  c #694F53",
"y  c #775455",
"u  c #5F5562",
"i  c #5D5B65",
"p  c #5E5E69",
"a  c #635966",
"s  c #635B66",
"d  c #65626D",
"f  c #6B656E",
"g  c #7F6262",
"h  c #7C726D",
"j  c #646371",
"k  c #6B6373",
"l  c #6D6D75",
"z  c #6E6B7B",
"x  c #706E7E",
"c  c #73727C",
"v  c #7D7679",
"b  c #960B0C",
"n  c #8E1718",
"m  c #991B1C",
"M  c #A6201E",
"N  c #8F2A2E",
"B  c #9B2629",
"V  c #863A3E",
"C  c #9F3232",
"Z  c #A82822",
"A  c #A13031",
"S  c #966A31",
"D  c #A5783C",
"F  c #8C4040",
"G  c #98484A",
"H  c #9C4951",
"J  c #875E5D",
"K  c #9A5F5E",
"L  c #A45759",
"P  c #826158",
"I  c #8A6766",
"U  c #946666",
"Y  c #956D6D",
"T  c #986B6C",
"R  c #80716A",
"E  c #94726F",
"W  c #956F70",
"Q  c #8C767A",
"!  c #89787B",
"~  c #967372",
"^  c #9B7675",
"/  c #967A78",
"(  c #9C7C7C",
")  c #A86765",
"_  c #AD746E",
"`  c #AA7276",
"'  c #A77379",
"]  c #A27C7B",
"[  c #AB7E7E",
"{  c #89827D",
"}  c #9C807B",
"|  c #A4847C",
" . c #A68E7B",
".. c #B58073",
"X. c #737283",
"o. c #7C7C86",
"O. c #817E89",
"+. c #987E82",
"@. c #A57A81",
"#. c #A87A85",
"$. c #878589",
"%. c #83838C",
"&. c #89868A",
"*. c #978483",
"=. c #96848B",
"-. c #9E8788",
";. c #9A8B8C",
":. c #97908F",
">. c #8B8B91",
",. c #949394",
"<. c #9A9292",
"1. c #95959C",
"2. c #9D959B",
"3. c #98989E",
"4. c #A58484",
"5. c #AB8584",
"6. c #AA8C85",
"7. c #AB878B",
"8. c #A38A8C",
"9. c #AC8B8B",
"0. c #B48484",
"q. c #B18F87",
"w. c #B38D8D",
"e. c #AE9285",
"r. c #AB978C",
"t. c #B39487",
"y. c #B69689",
"u. c #B3948C",
"i. c #B59A8B",
"p. c #BA9C8D",
"a. c #AB8F91",
"s. c #AC9395",
"d. c #A69996",
"f. c #A39C9C",
"g. c #B49494",
"h. c #BA9595",
"j. c #B49B96",
"k. c #BC9B93",
"l. c #BD9C9B",
"z. c #BAA28C",
"x. c #BEA194",
"c. c #BBA796",
"v. c #BCA39B",
"b. c #9B9BA3",
"n. c #A29DA0",
"m. c #A2A2A4",
"M. c #A7A6A8",
"N. c #B6A9A8",
"B. c #B1ABAC",
"V. c #BDB0AD",
"C. c #ADACB2",
"Z. c #B3B3B6",
"A. c #B9B6B3",
"S. c #C09D93",
"D. c #C29B9B",
"F. c #C1A38F",
"G. c #C4A494",
"H. c #C5AC94",
"J. c #C9AC96",
"K. c #C4A59C",
"L. c #C8A79B",
"P. c #C5AA9A",
"I. c #CCAC9B",
"U. c #D0AD9F",
"Y. c #CEB49A",
"T. c #D2B49C",
"R. c #D3B99D",
"E. c #D8B89E",
"W. c #C5A4A2",
"Q. c #C8A7A5",
"!. c #CBAAA4",
"~. c #CDB5A5",
"^. c #C4B4AC",
"/. c #D3B5A3",
"(. c #D4B9A1",
"). c #DABCA3",
"_. c #D9B9A7",
"`. c #C8BEB6",
"'. c #DEC3A4",
"]. c #D4C4BA",
"[. c #E0C2A6",
"{. c #E3C4AA",
"}. c #E8C6AA",
"|. c #E6C9AA",
" X c #EBCBAD",
".X c #EFD0AF",
"XX c #E4CAB0",
"oX c #EECEB0",
"OX c #EFD0B0",
"+X c #F3D3B2",
"@X c #F6D5B4",
"#X c #F8D6B5",
"$X c #BCBDC1",
"%X c #C6C6C8",
"&X c #D2D2D3",
"*X c #DBDCDC",
"=X c #E3E3E4",
"-X c #EAEBEB",
";X c #F4F4F4",
":X c #F9F9F9",
">X c None",
/* pixels */
">X>X>X>X>X>X>X>X>X>X>X>X>X>X>X>X>X>X>X>X>X>X>X>X>X>X>X>X>X>X>X>X>X>X>X>X>X>X>X>X>X>X>X>X>X>X>X>X>X>X>X>X>X>X>X>X>X>X>X>X>X>X>X>X>X>X>X>X>X>X>X>X>X>X>X>X>X>X>X>X",
">X>X>X>X>X>X>X>X>X>X>X>X>X>X>X>X>X>X>X>X>X>X>X>X>X>X>X>X>X>X>X>X>X>X>X>X>X>X>X>X>X>X>X>X>X>X>X>X>X>X>X>X>X>X>X>X>X>X>X>X>X>X>X>X>X>X>X>X>X>X>X>X>X>X>X>X>X>X>X>X",
">X>X>X>X>X>X>X>X>X>X>X>X>X>X>X>X>X>X>X>X>X>X>X>X>X>X>X>X>X>X>X>X>X>X>X>X>X>X>X>X>X>X>X>X>X>X>X>X>X>X>X>X>X>X>X>X>X>X>X>X>X>X>X>X>X>X>X>X>X>X>X>X>X>X>X>X>X>X>X>X",
">X>X>X>X>X>X>X>X>X>X>X>X>X>X>X>X>X>X>X>X>X>X>X>X>X>X>X>X>X>X>X>X>X>X>X>X>X>X>X>X>X>X>X>X>X>X>X>X>X>X>X>X>X>X>X>X>X>X>X>X>X>X>X>X>X>X>X>X>X>X>X>X>X>X>X>X>X>X>X>X",
">X>X>X>X>X>X>X>X>X>X>X>X>X>X>X>X>X>X>X>X>X>X>X>X>X>X>X>X>X>X>X>X>X>X>X>X>X>X>X>X>X>X>X>X>X>X>X>X>X>X>X>X>X>X>X>X>X>X>X>X>X>X>X>X>X>X>X>X>X>X>X>X>X>X>X>X>X>X>X>X",
">X>X>X>X>X>X>X>X>X>X>X>X>X>X>X>X>X>X>X>X>X>X>X>X>X>X>X>X>X>X>X>X>X>X>X>X>X>X>X>X>X>X>X>X>X>X>X>X>X>X>X>X>X>X>X>X>X>X>X>X>X>X>X>X>X>X>X>X>X>X>X>X>X>X>X>X>X>X>X>X",
">X>X>X>X>X>X>X>X>X>X>X>X>X>X>X>X>X>X>X>X>X>X>X>X>X>X>X>X>X>X>X>X>X>X>X>X>X>X>X>X>X5.h.>X>X>X>X>X>X>X>X>X>X>X>X>X>X>X>X>X>X>X>X>X>X>X>X>X>X>X>X>X>X>X>X>X>X>X>X>X",
">X>X>X>X>X>X>X>X>X>X>X>X>X>X>X>X>X>X>X>X>X>X>X>X>X>X>X>X>X>X>X>X>X>X>X>X>X>X>X>X@.g.h.h.h.w.>X>X>X>X>X>X>X>X>X>X>X>X>X>X>X>X>X>X>X>X>X>X>X>X>X>X>X>X>X>X>X>X>X>X",
">X>X>X>X>X>X>X>X>X>X>X>X>X>X>X>X>X>X>X>X>X>X>X>X>X>X>X>X>X>X>X>X>X>X>X>X>X>X>X>XL ` w.7.@.#.#.>X>X>X>X>X>X>X>X>X>X>X>X>X>X>X>X>X>X>X>X>X>X>X>X>X>X>X>X>X>X>X>X>X",
">X>X>X>X>X>X>X>X>X>X>X>X>X>X>X>X>X>X>X>X>X>X>X>X>X>X>X>X>X>X>X>X>X>X>X>X>X>XD.L m b B B H ' ' >X>X>X>X>X>X>X>X>X>X>X>X>X>X>X>X>X>X>X>X>X>X>X>X>X>X>X>X>X>X>X>X>X",
">X>X>X>X>X>X>X>X>X>X>X>X>X>X>X>X>X>X>X>X>X>X>X>X>X>X>X>X>X>X>X>X>X>X>X>X>X>X>X+.4.) L A m m N >X>X>X>X>X>X>X>X>X>X>X>X>X>X>X>X>X>X>X>X>X>X>X>X>X>X>X>X>X>X>X>X>X",
">X>X>X>X>X>X>X>X>X>X>X>X>X>X>X>X>X>X>X>X>X>X>X>X>X>X>X>X>X>X>X>X>X>X>X>X>X>X>X! d c Q .._ G G >X>X>X>X>X>X>X>X>X>X>X>X>X>X>X>X>X>X>X>X>X>X>X>X>X>X>X>X>X>X>X>X>X",
">X>X>X>X>X>X>X>X>X>X>X>X>X>X>X>X>X>X>X>X>X>X>X>X>X>X>X>X>X>X>X>X>X>X>X>X>X>X'.d.%.>.c D S s ! 7.>X>X>X>X>X>X>X>X>X>X>X>X>X>X>X>X>X>X>X>X>X>X>X>X>X>X>X>X>X>X>X>X",
">X>X>X>X>X>X>X>X>X>X>X>X>X>X>X>X>X>X>X>X>X>X>X>X>X>X>X>X>X>X>X>X>X>X>X>X>X X_.{ %.,.>.{ 2.&.>X>X>X>X>X>X>X>X>X>X>X>X>X>X>X>X>X>X>X>X>X>X>X>X>X>X>X>X>X>X>X>X>X>X",
">X>X>X>X>X>X>X>X>X>X>X>X>X>X>X>X>X>X>X>X>X>X>X>X>X>X>X>X>X>X>X>X>X>X>X(.).OX{. .h $.,.n.Z.$.>X>X>X>X>X>X>X>X>X>X>X>X>X>X>X>X>X>X>X>X>X>X>X>X>X>X>X>X>X>X>X>X>X>X",
">X>X>X>X>X>X>X>X>X>X>X>X>X>X>X>X>X>X>X>X>X>X>X>X>X>X>X>X>X>X>X>X>XT.{.oX/.p.[.^.*.R v M.:.H.R.>X>X>X>X>X>X>X>X>X>X>X>X>X>X>X>X>X>X>X>X>X>X>X>X>X>X>X>X>X>X>X>X>X",
">X>X>X>X>X>X>X>X>X>X>X>X>X>X>X>X>X>X>X>X>X>X>X>X>X>X>X>X>X>X>X>X).oX+X X_.K._.XXA.B.$.y r.'.T.>X>X>X>X>X>X>X>X>X>X>X>X>X>X>X>X>X>X>X>X>X>X>X>X>X>X>X>X>X>X>X>X>X",
">X>X>X>X>X>X>X>X>X>X>X>X>X>X>X>X>X>X>X>X>X>X>X>X>X>X>X>X>X>X>Xz.|.@X@X+X}.{.+X@X~.Z.:.n T ~.J.z.>X>X>X>X>X>X>X>X>X>X>X>X>X>X>X>X>X>X>X>X>X>X>X>X>X>X>X>X>X>X>X>X",
">X>X>X>X>X>X>X>X>X>X>X>X>X>X>X>X>X>X>X>X>X>X>X>X>X>X>X>X>X>X>Xi.|.+X@X+X X{.{. X Xd.M.F V v.'.c.e.>X>X>X>X>X>X>X>X>X>X>X>X>X>X>X>X>X>X>X>X>X>X>X>X>X>X>X>X>X>X>X",
">X>X>X>X>X>X>X>X>X>X>X>X>X>X>X>X>X>X>X>X>X>X>X>X>X>X>X>X>X>X>X>X'..X+X X+XoX X).[.).N.^ C d.'.H.G.>X>X>X>X>X>X>X>X>X>X>X>X>X>X>X>X>X>X>X>X>X>X>X>X>X>X>X>X>X>X>X",
">X>X>X>X>X>X>X>X>X>X>X>X>X>X>X>X>X>X>X>X>X>X>X>X>X>X>X>X>X>X>X>X'.@X X X+X X@X+X).T.(.| b K (.J.G.>X>X>X>X>X>X>X>X>X>X>X>X>X>X>X>X>X>X>X>X>X>X>X>X>X>X>X>X>X>X>X",
">X>X>X>X>X>X>X>X>X>X>X>X>X>X>X>X>X>X>X>X>X>X>X>X>X>X>X>X>X>X>Xp.'.|.{.+XOX{.+X@X@X{.I.p.Z B P.I.G.>X>X>X>X>X>X>X>X>X>X>X>X>X>X>X>X>X>X>X>X>X>X>X>X>X>X>X>X>X>X>X",
">X>X>X>X>X>X>X>X>X>X>X>X>X>X>X>X>X>X>X>X>X>X>X>X>X>X>X>X>X>X>Xk.).'. X@X XU.oX@X@X@X Xv._ M ..H.S.p.>X>X>X>X>X>X>X>X>X>X>X>X>X>X>X>X>X>X>X>X>X>X>X>X>X>X>X>X>X>X",
">X>X>X>X>X>X>X>X>X>X>X>X>X>X>X>X>X>X>X>X>X>X>X>X>X>X>X>X>X>X>Xk./.'. X@X}.D._.@X@X@X@X{.h.) _ z.y.y.>X>X>X>X>X>X>X>X>X>X>X>X>X>X>X>X>X>X>X>X>X>X>X>X>X>X>X>X>X>X",
">X>X>X>X>X>X>X>X>X>X>X>X>X>X>X>X>X>X>X>X>X>X>X>X>X>X>X>X>X>X>Xh.~.{.@X@X).h./..X@XoX@X@X_.g.4.x.y.S.>X>X>X>X>X>X>X>X>X>X>X>X>X>X>X>X>X>X>X>X>X>X>X>X>X>X>X>X>X>X",
">X>X>X>X>X>X>X>X>X>X>X>X>X>X>X>X>X>X>X>X>X>X>X>X>X>X>X>X>X>X>Xl.Q.}.@X+XG.g.Q._.oXJ.Y.+XoXL./ i.q.I.p.>X>X>X>X>X>X>X>X>X>X>X>X>X>X>X>X>X>X>X>X>X>X>X>X>X>X>X>X>X",
">X>X>X>X>X>X>X>X>X>X>X>X>X>X>X>X>X>X>X>X>X>X>X>X>X>X>X>X>X>X5.W._.@X@X Xt.g.Q.Q._.I.l./.!.Q.g.4.9.I.G.>X>X>X>X>X>X>X>X>X>X>X>X>X>X>X>X>X>X>X>X>X>X>X>X>X>X>X>X>X",
">X>X>X>X>X>X>X>X>X>X>X>X>X>X>X>X>X>X>X>X>X>X>X>X>X>X>X>X>X>X9.Q.'.).[.(.| 5.h.l.W.K.l.l.V.N.j.4.5.G.L.>X>X>X>X>X>X>X>X>X>X>X>X>X>X>X>X>X>X>X>X>X>X>X>X>X>X>X>X>X",
">X>X>X>X>X>X>X>X>X>X>X>X>X>X>X>X>X>X>X>X>X>X>X>X>X>X>X>X>X>X4.W.K.k.h.h.] ( 4.7.*.Q } } B.<.;.E ] q.G.F.>X>X>X>X>X>X>X>X>X>X>X>X>X>X>X>X>X>X>X>X>X>X>X>X>X>X>X>X",
">X>X>X>X>X>X>X>X>X>X>X>X>X>X>X>X>X>X>X>X>X>X>X>X>X>X>X>X>X>X( l.L.I._.T.} 9.h.h.9.( u.P.V.g.*./ 5.I.(.E.>X>X>X>X>X>X>X>X>X>X>X>X>X>X>X>X>X>X>X>X>X>X>X>X>X>X>X>X",
">X>X>X>X>X>X>X>X>X>X>X>X>X>X>X>X>X>X>X>X>X>X>X>X>X>X>X>X>X>XW h.).+X+X+Xy.4.9.9.( ( / P.B.=.v / I.R.E.'.T.>X>X>X>X>X>X>X>X>X>X>X>X>X>X>X>X>X>X>X>X>X>X>X>X>X>X>X",
">X>X>X>X>X>X>X>X>X>X>X>X>X>X>X>X>X>X>X>X>X>X>X>X>X>X>X>X>X>X>Xw.(.+X@X@X).9.u.k.i.x.6.p.f.<.;.6.G.).'.'.).>X>X>X>X>X>X>X>X>X>X>X>X>X>X>X>X>X>X>X>X>X>X>X>X>X>X>X",
">X>X>X>X>X>X>X>X>X>X>X>X>X>X>X>X>X>X>X>X>X>X>X>X>X>X>X>X>X>X>X4.L.|.@X@XoXx.h.L./.'.T.J.'.[.T.G.G.'.'.'.'.G.>X>X>X>X>X>X>X>X>X>X>X>X>X>X>X>X>X>X>X>X>X>X>X>X>X>X",
">X>X>X>X>X>X>X>X>X>X>X>X>X>X>X>X>X>X>X>X>X>X>X>X>X>X>X>X>X>X>X^ l./.OX@X@X(.g.g.g.G.F.p.'.'.p.u.y.T.H.H.z.p.>X>X>X>X>X>X>X>X>X>X>X>X>X>X>X>X>X>X>X>X>X>X>X>X>X>X",
">X>X>X>X>X>X>X>X>X>X>X>X>X>X>X>X>X>X>X>X>X>X>X>X>X>X>X>X>X>X>X>X7.W.(. X#X[.u.g.g.g.p.e.h.u.g ( 5.e.z.R.Y.i.>X>X>X>X>X>X>X>X>X>X>X>X>X>X>X>X>X>X>X>X>X>X>X>X>X>X",
">X>X>X>X>X>X>X>X>X>X>X>X>X>X>X>X>X>X>X>X>X>X>X>X>X>X>X>X>X>X>X>X>Xw.W.(.T.E.G.u.k.k.G.y.k.k.4.4.4. .R.R.R.T.>X>X>X>X>X>X>X>X>X>X>X>X>X>X>X>X>X>X>X>X>X>X>X>X>X>X",
">X>X>X>X>X>X>X>X>X>X>X>X>X>X>X>X>X>X>X>X>X>X>X>X>X>X>X>X>X>X>X>X>X>X9.k.k.T.[.J.u.k.G.y.G.k.w.w.9.p.r.`.`.d.>X>X>X>X>X>X>X>X>X>X>X>X>X>X>X>X>X>X>X>X>X>X>X>X>X>X",
">X>X>X>X>X>X>X>X>X>X>X>X>X>X>X>X>X>X>X>X>X>X>X>X>X>X>X>X>X>X>X>X>X>X~ ^ K.|.+X'.u.G.k.u.k.g.9.w.9.} ,.&X*X1.>X>X>X>X>X>X>X>X>X>X>X>X>X>X>X>X>X>X>X>X>X>X>X>X>X>X",
">X>X>X>X>X>X>X>X>X>X>X>X>X>X>X>X>X>X>X>X>X>X>X>X>X>X>X>X>X>X>X>X>X>X4.9.D.K.].^.r.T.u.i.g.h.9.9.9.>XC.;X:X%X>X>X>X>X>X>X>X>X>X>X>X>X>X>X>X>X>X>X>X>X>X>X>X>X>X>X",
">X>X>X>X>X>X>X>X>X>X>X>X>X>X>X>X>X>X>X>X>X>X>X>X>X>X>X>X>X>X>X>X>X>X4.9.9.B.%X&Xn.g.6.G.k.h.9.9.9.>X&X:X:X=X3.>X>X>X>X>X>X>X>X>X>X>X>X>X>X>X>X>X>X>X>X>X>X>X>X>X",
">X>X>X>X>X>X>X>X>X>X>X>X>X>X>X>X>X>X>X>X>X>X>X>X>X>X>X>X>X>X>X>X>X>X9.9.Q m.-X:X%X-.t.G.k.g.9.g.9.8.%X&X;X=Xm.>X>X>X>X>X>X>X>X>X>X>X>X>X>X>X>X>X>X>X>X>X>X>X>X>X",
">X>X>X>X>X>X>X>X>X>X>X>X>X>X>X>X>X>X>X>X>X>X>X>X>X>X>X>X>X>X>X>X>X>X9.9.( f.;X:X-Xd.p.G.k.g.9.g.g.d.b.>X*X*XZ.>X>X>X>X>X>X>X>X>X>X>X>X>X>X>X>X>X>X>X>X>X>X>X>X>X",
">X>X>X>X>X>X>X>X>X>X>X>X>X>X>X>X>X>X>X>X>X>X>X>X>X>X>X>X>X>X>X>X>X>Xw.h.h.d.=X:X:X`.G.G.k.g.9.g.h.8.>X>X>X%XC.>X>X>X>X>X>X>X>X>X>X>X>X>X>X>X>X>X>X>X>X>X>X>X>X>X",
">X>X>X>X>X>X>X>X>X>X>X>X>X>X>X>X>X>X>X>X>X>X>X>X>X>X>X>X>X>X>X>X>X^ g.h.h.s.%X*X=X].G.G.k.g.9.g.h.9.>X>X>XZ.b.%.>X>X>X>X>X>X>X>X>X>X>X>X>X>X>X>X>X>X>X>X>X>X>X>X",
">X>X>X>X>X>X>X>X>X>X>X>X>X>X>X>X>X>X>X>X>X>X>X>X>X>X>X>X>X>X>X>X>X( g.h.s.n.b.Z.$X^.G.G.k.g.5.g.h.9.>X>X3.1.%.>X>X>X>X>X>X>X>X>X>X>X>X>X>X>X>X>X>X>X>X>X>X>X>X>X",
">X>X>X>X>X>X>X>X>X>X>X>X>X>X>X>X>X>X>X>X>X>X>X>X>X>X>X>X>X>X>X>X>X( g.h.8.O.2.2.3.v.G.G.k.9.9.h.h.g.>X>Xo.o.>X>X>X>X>X>X>X>X>X>X>X>X>X>X>X>X>X>X>X>X>X>X>X>X>X>X",
">X>X>X>X>X>X>X>X>X>X>X>X>X>X>X>X>X>X>X>X>X>X>X>X>X>X>X>X>X>X>X>X>X4.g.h.g.;.=.&.<.x.G.G.h.9.9.h.g.g.4.>X>X>X>X>X>X>X>X>X>X>X>X>X>X>X>X>X>X>X>X>X>X>X>X>X>X>X>X>X",
">X>X>X>X>X>X>X>X>X>X>X>X>X>X>X>X>X>X>X>X>X>X>X>X>X>X>X>X>X>X>X>X>X5.h.h.g.g.a.s.k.G.G.k.g.9.u.h.g.g.4.>X>X>X>X>X>X>X>X>X>X>X>X>X>X>X>X>X>X>X>X>X>X>X>X>X>X>X>X>X",
">X>X>X>X>X>X>X>X>X>X>X>X>X>X>X>X>X>X>X>X>X>X>X>X>X>X>X>X>X>X>X>X>X4.h.g.g.g.h.h.G.G.G.k.g.5.g.h.g.h.4.>X>X>X>X>X>X>X>X>X>X>X>X>X>X>X>X>X>X>X>X>X>X>X>X>X>X>X>X>X",
">X>X>X>X>X>X>X>X>X>X>X>X>X>X>X>X>X>X>X>X>X>X>X>X>X>X>X>X>X>X>X>X>X9.h.g.g.g.g.h.k.G.G.g.g.9.h.h.g.h.9.>X>X>X>X>X>X>X>X>X>X>X>X>X>X>X>X>X>X>X>X>X>X>X>X>X>X>X>X>X",
">X>X>X>X>X>X>X>X>X>X>X>X>X>X>X>X>X>X>X>X>X>X>X>X>X>X>X>X>X>X>X>X>Xw.g.g.h.g.g.g.k.G.k.g.w.5.h.h.g.h.9.>X>X>X>X>X>X>X>X>X>X>X>X>X>X>X>X>X>X>X>X>X>X>X>X>X>X>X>X>X",
">X>X>X>X>X>X>X>X>X>X>X>X>X>X>X>X>X>X>X>X>X>X>X>X>X>X>X>X>X>X>X>X>Xw.g.g.g.g.g.g.g.k.g.g.9.9.g.g.g.h.w.Y >X>X>X>X>X>X>X>X>X>X>X>X>X>X>X>X>X>X>X>X>X>X>X>X>X>X>X>X",
">X>X>X>X>X>X>X>X>X>X>X>X>X>X>X>X>X>X>X>X>X>X>X>X>X>X>X>X>X>X>X>X( g.g.g.h.h.g.g.h.h.h.h.4.9.g.g.g.g.w.Y >X>X>X>X>X>X>X>X>X>X>X>X>X>X>X>X>X>X>X>X>X>X>X>X>X>X>X>X",
">X>X>X>X>X>X>X>X>X>X>X>X>X>X>X>X>X>X>X>X>X>X>X>X>X>X>X>X>X>X>X>X( g.g.g.h.g.g.g.h.h.h.g.] 4.h.g.g.g.w.Y >X>X>X>X>X>X>X>X>X>X>X>X>X>X>X>X>X>X>X>X>X>X>X>X>X>X>X>X",
">X>X>X>X>X>X>X>X>X>X>X>X>X>X>X>X>X>X>X>X>X>X>X>X>X>X>X>X>X>X>X>X5.w.h.h.g.g.g.g.g.g.h.g.T U h.h.h.g.w.Y >X>X>X>X>X>X>X>X>X>X>X>X>X>X>X>X>X>X>X>X>X>X>X>X>X>X>X>X",
">X>X>X>X>X>X>X>X>X>X>X>X>X>X>X>X>X>X>X>X>X>X>X>X>X>X>X>X>X>X>X>Xw.w.h.h.g.g.g.g.g.g.g.w.U J h.h.g.g.0.Y >X>X>X>X>X>X>X>X>X>X>X>X>X>X>X>X>X>X>X>X>X>X>X>X>X>X>X>X",
">X>X>X>X>X>X>X>X>X>X>X>X>X>X>X>X>X>X>X>X>X>X>X>X>X>X>X>X>X>X>X4.g.w.g.h.h.h.h.g.g.g.g.w.U w g.h.h.g.5.>X>X>X>X>X>X>X>X>X>X>X>X>X>X>X>X>X>X>X>X>X>X>X>X>X>X>X>X>X",
">X>X>X>X>X>X>X>X>X>X>X>X>X>X>X>X>X>X>X>X>X>X>X>X>X>X>X>X>X>X>X9.g.w.g.h.h.h.g.g.g.g.w.g.U * 9.h.h.g.[ >X>X>X>X>X>X>X>X>X>X>X>X>X>X>X>X>X>X>X>X>X>X>X>X>X>X>X>X>X",
">X>X>X>X>X>X>X>X>X>X>X>X>X>X>X>X>X>X>X>X>X>X>X>X>X>X>X>X>X>X>Xg.g.w.w.g.g.g.g.g.g.g.w.h.U * 4.h.h.w.~ >X>X>X>X>X>X>X>X>X>X>X>X>X>X>X>X>X>X>X>X>X>X>X>X>X>X>X>X>X",
">X>X>X>X>X>X>X>X>X>X>X>X>X>X>X>X>X>X>X>X>X>X>X>X>X>X>X>X>X>X( g.g.g.g.g.g.g.g.g.g.g.w.h.~ * ^ h.g.0.E >X>X>X>X>X>X>X>X>X>X>X>X>X>X>X>X>X>X>X>X>X>X>X>X>X>X>X>X>X",
">X>X>X>X>X>X>X>X>X>X>X>X>X>X>X>X>X>X>X>X>X>X>X>X>X>X>X>X>X>X( g.g.g.w.g.g.g.g.h.h.g.g.h.T * I g.w.0.[ >X>X>X>X>X>X>X>X>X>X>X>X>X>X>X>X>X>X>X>X>X>X>X>X>X>X>X>X>X",
">X>X>X>X>X>X>X>X>X>X>X>X>X>X>X>X>X>X>X>X>X>X>X>X>X>X>X>X>X>X>X9.h.g.g.w.g.g.h.h.h.h.g.h.Y * w [ 0.0.0.>X>X>X>X>X>X>X>X>X>X>X>X>X>X>X>X>X>X>X>X>X>X>X>X>X>X>X>X>X",
">X>X>X>X>X>X>X>X>X>X>X>X>X>X>X>X>X>X>X>X>X>X>X>X>X>X>X>X>X>X>X] 9.h.h.w.w.g.h.g.g.g.h.h.I * * U 0.0.[ >X>X>X>X>X>X>X>X>X>X>X>X>X>X>X>X>X>X>X>X>X>X>X>X>X>X>X>X>X",
">X>X>X>X>X>X>X>X>X>X>X>X>X>X>X>X>X>X>X>X>X>X>X>X>X>X>X>X>X>X>X>Xt Y 4.9.g.h.h.h.h.h.g.g.J * @ r [ [ >X>X>X>X>X>X>X>X>X>X>X>X>X>X>X>X>X>X>X>X>X>X>X>X>X>X>X>X>X>X",
">X>X>X>X>X>X>X>X>X>X>X>X>X>X>X>X>X>X>X>X>X>X>X>X>X>X>X>X>X>X>X>XX a r P I ~ ] 5.9.w.g.w.e & % 6 I >X>X>X>X>X>X>X>X>X>X>X>X>X>X>X>X>X>X>X>X>X>X>X>X>X>X>X>X>X>X>X",
">X>X>X>X>X>X>X>X>X>X>X>X>X>X>X>X>X>X>X>X>X>X>X>X>X>X>X>X>X>X>X>X; z f r - - e r >Xg Y ^ = @ $ 6 1 >X>X>X>X>X>X>X>X>X>X>X>X>X>X>X>X>X>X>X>X>X>X>X>X>X>X>X>X>X>X>X",
">X>X>X>X>X>X>X>X>X>X>X>X>X>X>X>X>X>X>X>X>X>X>X>X>X>X>X>X>X>X>X>X5 z X.k q - - >X>X+ @ % @ $ 3 4 # >X>X>X>X>X>X>X>X>X>X>X>X>X>X>X>X>X>X>X>X>X>X>X>X>X>X>X>X>X>X>X",
">X>X>X>X>X>X>X>X>X>X>X>X>X>X>X>X>X>X>X>X>X>X>X>X>X>X>X>X>X>X>X>Xs X.X.z a t = >X>X, 3 3 3 3 $ % >X>X>X>X>X>X>X>X>X>X>X>X>X>X>X>X>X>X>X>X>X>X>X>X>X>X>X>X>X>X>X>X",
">X>X>X>X>X>X>X>X>X>X>X>X>X>X>X>X>X>X>X>X>X>X>X>X>X>X>X>X>X>X>X>Xk X.x j s j 7 >X>Xo 1 1 6 4 4 7 >X>X>X>X>X>X>X>X>X>X>X>X>X>X>X>X>X>X>X>X>X>X>X>X>X>X>X>X>X>X>X>X",
">X>X>X>X>X>X>X>X>X>X>X>X>X>X>X>X>X>X>X>X>X>X>X>X>X>X>X>X>X>X>X>Xz X.k k u a >X>X>X. 2 : : : , 5 > >X>X>X>X>X>X>X>X>X>X>X>X>X>X>X>X>X>X>X>X>X>X>X>X>X>X>X>X>X>X>X",
">X>X>X>X>X>X>X>X>X>X>X>X>X>X>X>X>X>X>X>X>X>X>X>X>X>X>X>X>X>X>X>Xs z z j s 7 >X>X>X; 1 : < # 1 j p 8 >X>X>X>X>X>X>X>X>X>X>X>X>X>X>X>X>X>X>X>X>X>X>X>X>X>X>X>X>X>X",
">X>X>X>X>X>X>X>X>X>X>X>X>X>X>X>X>X>X>X>X>X>X>X>X>X>X>X>X>X>X>X>Xd z d > > 1 >X>X>X>XX   . O < 9 l j 9 > >X>X>X>X>X>X>X>X>X>X>X>X>X>X>X>X>X>X>X>X>X>X>X>X>X>X>X>X",
">X>X>X>X>X>X>X>X>X>X>X>X>X>X>X>X>X>X>X>X>X>X>X>X>X>X>X>X>X>X>X>X1 i c l p 8 >X>X>X>X>X>X>X>Xo < 0 d l f : >X>X>X>X>X>X>X>X>X>X>X>X>X>X>X>X>X>X>X>X>X>X>X>X>X>X>X",
">X>X>X>X>X>X>X>X>X>X>X>X>X>X>X>X>X>X>X>X>X>X>X>X>X>X>X>X>X>X>X>Xo 2 p o.>.%.l 6 >X>X>X>X>X>X>XO < 2 8 p >X>X>X>X>X>X>X>X>X>X>X>X>X>X>X>X>X>X>X>X>X>X>X>X>X>X>X>X",
">X>X>X>X>X>X>X>X>X>X>X>X>X>X>X>X>X>X>X>X>X>X>X>X>X>X>X>X>X>X>X>X. . o 8 l c d 6 . >X>X>X>X>X>X>X>X>X>X>X>X>X>X>X>X>X>X>X>X>X>X>X>X>X>X>X>X>X>X>X>X>X>X>X>X>X>X>X",
">X>X>X>X>X>X>X>X>X>X>X>X>X>X>X>X>X>X>X>X>X>X>X>X>X>X>X>X>X>X>X>X>X>X>X>X>X>X>X>X>X>X>X>X>X>X>X>X>X>X>X>X>X>X>X>X>X>X>X>X>X>X>X>X>X>X>X>X>X>X>X>X>X>X>X>X>X>X>X>X",
">X>X>X>X>X>X>X>X>X>X>X>X>X>X>X>X>X>X>X>X>X>X>X>X>X>X>X>X>X>X>X>X>X>X>X>X>X>X>X>X>X>X>X>X>X>X>X>X>X>X>X>X>X>X>X>X>X>X>X>X>X>X>X>X>X>X>X>X>X>X>X>X>X>X>X>X>X>X>X>X",
">X>X>X>X>X>X>X>X>X>X>X>X>X>X>X>X>X>X>X>X>X>X>X>X>X>X>X>X>X>X>X>X>X>X>X>X>X>X>X>X>X>X>X>X>X>X>X>X>X>X>X>X>X>X>X>X>X>X>X>X>X>X>X>X>X>X>X>X>X>X>X>X>X>X>X>X>X>X>X>X",
">X>X>X>X>X>X>X>X>X>X>X>X>X>X>X>X>X>X>X>X>X>X>X>X>X>X>X>X>X>X>X>X>X>X>X>X>X>X>X>X>X>X>X>X>X>X>X>X>X>X>X>X>X>X>X>X>X>X>X>X>X>X>X>X>X>X>X>X>X>X>X>X>X>X>X>X>X>X>X>X",
">X>X>X>X>X>X>X>X>X>X>X>X>X>X>X>X>X>X>X>X>X>X>X>X>X>X>X>X>X>X>X>X>X>X>X>X>X>X>X>X>X>X>X>X>X>X>X>X>X>X>X>X>X>X>X>X>X>X>X>X>X>X>X>X>X>X>X>X>X>X>X>X>X>X>X>X>X>X>X>X"
};
