/* XPM */
static char *result[] = {
/* columns rows colors chars-per-pixel */
"80 80 217 2 ",
"   c #281B28",
".  c #3E1E22",
"X  c #2D232D",
"o  c #2F2332",
"O  c #332632",
"+  c #342B34",
"@  c #3A2E3A",
"#  c #3B333B",
"$  c #3E3B3E",
"%  c #4D1412",
"&  c #521818",
"*  c #562623",
"=  c #5B2626",
"-  c #5D2C2B",
";  c #5C322D",
":  c #5D3533",
">  c #583535",
",  c #583936",
"<  c #553D3D",
"1  c #5B3A3C",
"2  c #602F2F",
"3  c #60312F",
"4  c #623131",
"5  c #603638",
"6  c #623C38",
"7  c #6A3B3B",
"8  c #69413D",
"9  c #764538",
"0  c #423C43",
"q  c #473A48",
"w  c #473D49",
"e  c #563E41",
"r  c #5C3E42",
"t  c #444244",
"y  c #4C4346",
"u  c #48464A",
"i  c #4C4C4D",
"p  c #554143",
"a  c #54454B",
"s  c #5B4748",
"d  c #5B454C",
"f  c #56484F",
"g  c #4F4551",
"h  c #4F4B54",
"j  c #514551",
"k  c #544A52",
"l  c #5B4A55",
"z  c #564D5A",
"x  c #5B4E5A",
"c  c #535256",
"v  c #555459",
"b  c #5B535E",
"n  c #664845",
"m  c #774648",
"M  c #754E4E",
"N  c #6B5146",
"B  c #63534C",
"V  c #6A564E",
"C  c #76544B",
"Z  c #6B5554",
"A  c #6A5557",
"S  c #645459",
"D  c #765252",
"F  c #7C5254",
"G  c #725A55",
"H  c #70565B",
"J  c #755B59",
"K  c #7B5D5C",
"L  c #7A6458",
"P  c #7D625C",
"I  c #5D5362",
"U  c #5A5A63",
"Y  c #615261",
"T  c #6C5A61",
"R  c #625B6A",
"E  c #685D6C",
"W  c #715B60",
"Q  c #646269",
"!  c #776769",
"~  c #6A6171",
"^  c #6B6B72",
"/  c #786A74",
"(  c #79777B",
")  c #981914",
"_  c #A70C0A",
"`  c #983B3A",
"'  c #A53F37",
"]  c #855736",
"[  c #AA782D",
"{  c #853B42",
"}  c #914845",
"|  c #9A4A4E",
" . c #85545A",
".. c #815F5F",
"X. c #995457",
"o. c #B1574D",
"O. c #A65353",
"+. c #80605F",
"@. c #9C7850",
"#. c #A7754E",
"$. c #975863",
"%. c #836262",
"&. c #896767",
"*. c #896966",
"=. c #97676C",
"-. c #936E6E",
";. c #88706A",
":. c #93736C",
">. c #8E6E70",
",. c #9D6B74",
"<. c #837376",
"1. c #957473",
"2. c #9A7574",
"3. c #987A72",
"4. c #947A7C",
"5. c #9D7C7B",
"6. c #A76870",
"7. c #A66972",
"8. c #AD7471",
"9. c #A17877",
"0. c #A27C7C",
"q. c #9A836A",
"w. c #A38165",
"e. c #A3877E",
"r. c #7B7A86",
"t. c #987E82",
"y. c #A57F85",
"u. c #88858C",
"i. c #8B8B8D",
"p. c #998384",
"a. c #968C8C",
"s. c #8A8994",
"d. c #8A8A95",
"f. c #948D92",
"g. c #9A969B",
"h. c #9C9A9D",
"j. c #A48383",
"k. c #AA8585",
"l. c #AB8B84",
"z. c #A8848B",
"x. c #AD8B8B",
"c. c #B48882",
"v. c #B28D8D",
"b. c #AB9183",
"n. c #AE928C",
"m. c #AF9A88",
"M. c #B89784",
"N. c #B1938B",
"B. c #B59A8A",
"V. c #B99C8C",
"C. c #A59797",
"Z. c #B49493",
"A. c #B99694",
"S. c #BC9B95",
"D. c #B49B9C",
"F. c #BD9C9B",
"G. c #B5A08C",
"H. c #BCA18D",
"J. c #ACA29B",
"K. c #BDA598",
"L. c #9C9CA3",
"P. c #A29CA1",
"I. c #A7A6A9",
"U. c #B5AAA6",
"Y. c #ADADB2",
"T. c #B3B3B6",
"R. c #B5B5B9",
"E. c #BBBBBF",
"W. c #C19E8E",
"Q. c #C19E99",
"!. c #CDA48A",
"~. c #C3A494",
"^. c #C4A994",
"/. c #C9AB93",
"(. c #C4A49A",
"). c #C8A79C",
"_. c #C5AB9B",
"`. c #CCAC9D",
"'. c #CAB197",
"]. c #CDB19C",
"[. c #D2B29D",
"{. c #D3B99F",
"}. c #C5A4A3",
"|. c #C8A7A5",
" X c #CBAAA3",
".X c #D0AFA0",
"XX c #C7B4A7",
"oX c #D4B4A4",
"OX c #D6BBA2",
"+X c #DCBDA4",
"@X c #D3B2A8",
"#X c #DCBCA9",
"$X c #C4AFB0",
"%X c #C4B5B7",
"&X c #D6BDB2",
"*X c #DDC2A4",
"=X c #DFC1A9",
"-X c #E2C2A7",
";X c #E4C4AB",
":X c #E9C7AB",
">X c #E7C8AD",
",X c #EBCAAD",
"<X c #EFD0AF",
"1X c #EECEB1",
"2X c #F4D3B3",
"3X c #F6D5B4",
"4X c #F6D8B9",
"5X c #BDBDC1",
"6X c #C1C1C1",
"7X c #CCCBCC",
"8X c #D1CDC9",
"9X c #CFCFD0",
"0X c #D3D3D4",
"qX c #E7D9CB",
"wX c #E9E9E9",
"eX c gray96",
"rX c None",
/* pixels */
"rXrXrXrXrXrXrXrXrXrXrXrXrXrXrXrXrXrXrXrXrXrXrXrXrXrXrXrXrXrXrXrXrXrXrXrXrXrXrXrXrXrXrXrXrXrXrXrXrXrXrXrXrXrXrXrXrXrXrXrXrXrXrXrXrXrXrXrXrXrXrXrXrXrXrXrXrXrXrXrX",
"rXrXrXrXrXrXrXrXrXrXrXrXrXrXrXrXrXrXrXrXrXrXrXrXrXrXrXrXrXrXrXrXrXrXrXrXrXrXrXrXrXrXrXrXrXrXrXrXrXrXrXrXrXrXrXrXrXrXrXrXrXrXrXrXrXrXrXrXrXrXrXrXrXrXrXrXrXrXrXrX",
"rXrXrXrXrXrXrXrXrXrXrXrXrXrXrXrXrXrXrXrXrXrXrXrXrXrXrXrXrXrXrXrXrXrXrXrXrXrXrXrXrXrXrXrXrXrXrXrXrXrXrXrXrXrXrXrXrXrXrXrXrXrXrXrXrXrXrXrXrXrXrXrXrXrXrXrXrXrXrXrX",
"rXrXrXrXrXrXrXrXrXrXrXrXrXrXrXrXrXrXrXrXrXrXrXrXrXrXrXrXrXrXrXrXrXrXrXrXrXrXrXrXrXrXrXrXrXrXrXrXrXrXrXrXrXrXrXrXrXrXrXrXrXrXrXrXrXrXrXrXrXrXrXrXrXrXrXrXrXrXrXrX",
"rXrXrXrXrXrXrXrXrXrXrXrXrXrXrXrXrXrXrXrXrXrXrXrXrXrXrXrXrXrXrXrXrXrXrXrXrXrXrXrXrXrXrXrXrXrXrXrXrXrXrXrXrXrXrXrXrXrXrXrXrXrXrXrXrXrXrXrXrXrXrXrXrXrXrXrXrXrXrXrX",
"rXrXrXrXrXrXrXrXrXrXrXrXrXrXrXrXrXrXrXrXrXrXrXrXrXrXrXrXrXrXrXrXrXrXrXrXrXrXrXrXrXrXrXrXrXrXrXrXrXrXrXrXrXrXrXrXrXrXrXrXrXrXrXrXrXrXrXrXrXrXrXrXrXrXrXrXrXrXrXrX",
"rXrXrXrXrXrXrXrXrXrXrXrXrXrXrXrXrXrXrXrXrXrXrXrXrXrXrXrXrXrXrXrXrXrXrXrXrXrXrXrXrXrXrXrXrXrXrXrXrXrXrXrXrXrXrXrXrXrXrXrXrXrXrXrXrXrXrXrXrXrXrXrXrXrXrXrXrXrXrXrX",
"rXrXrXrXrXrXrXrXrXrXrXrXrXrXrXrXrXrXrXrXrXrXrXrXrXrXrXrXrXrXrXrXrXrXrXrXrXrXrXrXrXrXrXrXrXrXrXrXrXrXrXrXrXrXrXrXrXrXrXrXrXrXrXrXrXrXrXrXrXrXrXrXrXrXrXrXrXrXrXrX",
"rXrXrXrXrXrXrXrXrXrXrXrXrXrXrXrXrXrXrXrXrXrXrXrXrXrXrXrXrXrXrXrXrXrXrXrXrXrXrXrXrXrXrXrXrXrXrXrXrXrXrXrXrXrXrXz.z.y.rXrXrXrXrXrXrXrXrXrXrXrXrXrXrXrXrXrXrXrXrXrX",
"rXrXrXrXrXrXrXrXrXrXrXrXrXrXrXrXrXrXrXrXrXrXrXrXrXrXrXrXrXrXrXrXrXrXrXrXrXrXrXrXrXrXrXrXrXrXrXrXrXrXrXrXrX7.7.6.6.6.,.,.rXrXrXrXrXrXrXrXrXrXrXrXrXrXrXrXrXrXrXrX",
"rXrXrXrXrXrXrXrXrXrXrXrXrXrXrXrXrXrXrXrXrXrXrXrXrXrXrXrXrXrXrXrXrXrXrXrXrXrXrXrXrXrXrXrXrXrXrXrXrXrXrXrXrX| | O.O.| $.X.rXrXrXrXrXrXrXrXrXrXrXrXrXrXrXrXrXrXrXrX",
"rXrXrXrXrXrXrXrXrXrXrXrXrXrXrXrXrXrXrXrXrXrXrXrXrXrXrXrXrXrXrXrXrXrXrXrXrXrXrXrXrXrXrXrXrXrXrXrXrXrXrXrX=.F n S T B 9 m  .rXrXrXrXrXrXrXrXrXrXrXrXrXrXrXrXrXrXrX",
"rXrXrXrXrXrXrXrXrXrXrXrXrXrXrXrXrXrXrXrXrXrXrXrXrXrXrXrXrXrXrXrXrXrXrXrXrXrXrXrXrXrXrXrXrXrXrXrXrXrXrX .7 A r.u.r.^ [ N 5 m rXrXrXrXrXrXrXrXrXrXrXrXrXrXrXrXrXrX",
"rXrXrXrXrXrXrXrXrXrXrXrXrXrXrXrXrXrXrXrXrXrXrXrXrXrXrXrXrXrXrXrXrXrXrXrXrXrXrXrXrXrXrXrXrXrXrXrXrXrXB.3.n ( P.I.h.i.a.i.H 7 rXrXrXrXrXrXrXrXrXrXrXrXrXrXrXrXrXrX",
"rXrXrXrXrXrXrXrXrXrXrXrXrXrXrXrXrXrXrXrXrXrXrXrXrXrXrXrXrXrXrXrXrXrXrXrXrXrXrXrXrXrXrXrXrXrXrX`.+X~.~.'.G.q.( i.i.h.Y.I.f.rXrXrXrXrXrXrXrXrXrXrXrXrXrXrXrXrXrXrX",
"rXrXrXrXrXrXrXrXrXrXrXrXrXrXrXrXrXrXrXrXrXrXrXrXrXrXrXrXrXrXrXrXrXrXrXrXrXrXrXrXrXrXrXrXrX[.oXoX;X;X^.'.^.@.C L ! u.Y.u.rXrXrXrXrXrXrXrXrXrXrXrXrXrXrXrXrXrXrXrX",
"rXrXrXrXrXrXrXrXrXrXrXrXrXrXrXrXrXrXrXrXrXrXrXrXrXrXrXrXrXrXrXrXrXrXrXrXrXrX+X>X,X,X,X,X,X2X>X;X#X;X+XN.B.J.q.#.] V u.u.rXrXrXrXrXrXrXrXrXrXrXrXrXrXrXrXrXrXrXrX",
"rXrXrXrXrXrXrXrXrXrXrXrXrXrXrXrXrXrXrXrXrXrXrXrXrXrXrXrXrXrXrXrXrXrXrXrX+X,X2X2X3X3X3X3X3X3X3X:X#X>X>X`.B.XXY.J.w.] n rXrXrXrXrXrXrXrXrXrXrXrXrXrXrXrXrXrXrXrXrX",
"rXrXrXrXrXrXrXrXrXrXrXrXrXrXrXrXrXrXrXrXrXrXrXrXrXrXrXrXrXrXrXrXrXrXrX-X2X1X#X>X>X;X;X:X>X2X3X2X#X#X>X[.+X2XU.T.I.J.rXrXrXrXrXrXrXrXrXrXrXrXrXrXrXrXrXrXrXrXrXrX",
"rXrXrXrXrXrXrXrXrXrXrXrXrXrXrXrXrXrXrXrXrXrXrXrXrXrXrXrXrXrXrXrXrXrX,X2X;X X@X#X}.oX+XOXoX@X@X#X;X X XoXoX-X;Xh.{ 8._.rXrXrXrXrXrXrXrXrXrXrXrXrXrXrXrXrXrXrXrXrX",
"rXrXrXrXrXrXrXrXrXrXrXrXrXrXrXrXrXrXrXrXrXrXrXrXrXrXrXrXrXrXrXrX+X,X,X@X}.}. X|.F.A.). X X}.}.}.}.}.F. X,X[.:XK.` ' G.rXrXrXrXrXrXrXrXrXrXrXrXrXrXrXrXrXrXrXrXrX",
"rXrXrXrXrXrXrXrXrXrXrXrXrXrXrXrXrXrXrXrXrXrXrXrXrXrXrXrXrXrXrX[.-X#X X}. X X}.}.Z.0.y.j.j.x.v.A.v.v.k.A.#X:X[.=X} ) !.rXrXrXrXrXrXrXrXrXrXrXrXrXrXrXrXrXrXrXrXrX",
"rXrXrXrXrXrXrXrXrXrXrXrXrXrXrXrXrXrXrXrXrXrXrXrXrXrXrXrXrX[.:X`.S.}. X@X XF.x.5.rXrXrXrXrXrXb.x.v.A.Z. X;X2XoX`.o._ !.m.rXrXrXrXrXrXrXrXrXrXrXrXrXrXrXrXrXrXrXrX",
"rXrXrXrXrXrXrXrXrXrXrXrXrXrXrXrXrXrXrXrXrXrXrXrXrXrXrXrXrX`.#XS.v.(.@X}.x.2.rXrXrXrXrXrXrXrX^.N.}.}.A.}.>X3X>X(.8.) M.N.rXrXrXrXrXrXrXrXrXrXrXrXrXrXrXrXrXrXrXrX",
"rXrXrXrXrXrXrXrXrXrXrXrXrXrXrXrXrXrXrXrXrXrXrXrXrXrXrXrXI.C.S.oX~.v.v.j.rXrXrXrXrXrXrXrXrX^.^.A.}.}.F.Q.#X3X2X(.c.` W.^.rXrXrXrXrXrXrXrXrXrXrXrXrXrXrXrXrXrXrXrX",
"rXrXrXrXrXrXrXrXrXrXrXrXrXrXrXrXrXrXrXrXrXrXrXrXrXu.h.6X7X6XJ.n.S.0.rXrXrXrXrXrXrXrXrXrXrX'.V.S.}.}.}.}. X;X2X).l.X.N.K.rXrXrXrXrXrXrXrXrXrXrXrXrXrXrXrXrXrXrXrX",
"rXrXrXrXrXrXrXrXrXrXrXrXrXrXrXrXrXrXrXrXrXrXrXrXrXL.R.0X0X0X7Xs.rXrXrXrXrXrXrXrXrXrXrXrXrXb.N.Z.F.}.}.}.S.l.>XoXp.K b._.B.rXrXrXrXrXrXrXrXrXrXrXrXrXrXrXrXrXrXrX",
"rXrXrXrXrXrXrXrXrXrXrXrXrXrXrXrXrXrXrXrXrXrXrXrXrXg.L.T.9X0XE.rXrXrXrXrXrXrXrXrXrXrXrXrXe.n.k.j.0.Z.}.}.S.n.;XoX5.2.^.{.l.rXrXrXrXrXrXrXrXrXrXrXrXrXrXrXrXrXrXrX",
"rXrXrXrXrXrXrXrXrXrXrXrXrXrXrXrXrXrXrXrXrXrXrXrXrXr.d.L.Y.T.L.rXrXrXrXrXrXrXrXrXrXrXrX~.~.l.Z.x.2.>.j.S.}.}. X X1.:.OX].0.rXrXrXrXrXrXrXrXrXrXrXrXrXrXrXrXrXrXrX",
"rXrXrXrXrXrXrXrXrXrXrXrXrXrXrXrXrXrXrXrXrXrXrXrXrXr.s.s.L.f.d.rXrXrXrXrXrXrXrXrXrXrXS.S.A.x.j.x.5.3.5.0.D.$X|.Z.:.B.*X_.j.rXrXrXrXrXrXrXrXrXrXrXrXrXrXrXrXrXrXrX",
"rXrXrXrXrXrXrXrXrXrXrXrXrXrXrXrXrXrXrXrXrXrXrXrXrXrXrXr.rXrXrXrXrXrXrXrXrXrXrXrX5.j.x.k.k.x.x.j.j.5.e.4.U.g.C.;.5.`.*XOXN.rXrXrXrXrXrXrXrXrXrXrXrXrXrXrXrXrXrXrX",
"rXrXrXrXrXrXrXrXrXrXrXrXrXrXrXrXrXrXrXrXrXrXrXrXrXrXrXrXrXrXrXrXrXrXrXrXrXrXrXj.Z.Z.Z.Z.x.x.k.j.j.l.1.C.F.p./ P x.Q.].oXS.rXrXrXrXrXrXrXrXrXrXrXrXrXrXrXrXrXrXrX",
"rXrXrXrXrXrXrXrXrXrXrXrXrXrXrXrXrXrXrXrXrXrXrXrXrXrXrXrXrXrXrXrXrXrXrXrXrXrXx.Z.S.S.(.).).Q.S.Z.S.x.C.C.t.<.*.e.[.:X<X#XZ.rXrXrXrXrXrXrXrXrXrXrXrXrXrXrXrXrXrXrX",
"rXrXrXrXrXrXrXrXrXrXrXrXrXrXrXrXrXrXrXrXrXrXrXrXrXrXrXrXrXrXrXrXrXrXrXrXrXx.S.`.oXoXoXoX.XS.Z.F.Q.v.Z.U.a.L rX*X3X3X3X2XS.rXrXrXrXrXrXrXrXrXrXrXrXrXrXrXrXrXrXrX",
"rXrXrXrXrXrXrXrXrXrXrXrXrXrXrXrXrXrXrXrXrXrXrXrXrXrXrXrXrXrXrXrXrXrXrXrXx.).oXoXoXoXoXoX`.Z.A.).x.Z.Z.Z.x.*.rX2X3X3X3X:Xx.rXrXrXrXrXrXrXrXrXrXrXrXrXrXrXrXrXrXrX",
"rXrXrXrXrXrXrXrXrXrXrXrXrXrXrXrXrXrXrXrXrXrXrXrXrXrXrXrXrXrXrXrXrXrXrXB.`.oXoXoXoXoXoXoX(.Z.(.x.x.k.j.k.0.*.^.+X2X3X1X).rXrXrXrXrXrXrXrXrXrXrXrXrXrXrXrXrXrXrXrX",
"rXrXrXrXrXrXrXrXrXrXrXrXrXrXrXrXrXrXrXrXrXrXrXrXrXrXrXrXrXrXrXrXrXrXrX`.oXoXoXoXoXoXoXoXS.S.v.k.v.j.2.0.c./.-X+X[.=X Xj.rXrXrXrXrXrXrXrXrXrXrXrXrXrXrXrXrXrXrXrX",
"rXrXrXrXrXrXrXrXrXrXrXrXrXrXrXrXrXrXrXrXrXrXrXrXrXrXrXrXrXrXrXrXrXrX~.oXoXoXoXoXoXoXoX).(.Z.k.Z.x.2.0.k.$XqX4X,XS.N.x.rXrXrXrXrXrXrXrXrXrXrXrXrXrXrXrXrXrXrXrXrX",
"rXrXrXrXrXrXrXrXrXrXrXrXrXrXrXrXrXrXrXrXrXrXrXrXrXrXrXrXrXrXrXrXrXB.oXoXoXoXoXoXoXoX.X`.S.x.Z.k.%.z.%X7X0X5X8X&XF.0.rXrXrXrXrXrXrXrXrXrXrXrXrXrXrXrXrXrXrXrXrXrX",
"rXrXrXrXrXrXrXrXrXrXrXrXrXrXrXrXrXrXrXrXrXrXrXrXrXrXrXrXrXrXrXrXrX`.oXoXoXoXoXoXoX`.S.Z.v.v.0.F f.E.0XeXeXwXE.$XZ.rXrXrXrXrXrXrXrXrXrXrXrXrXrXrXrXrXrXrXrXrXrXrX",
"rXrXrXrXrXrXrXrXrXrXrXrXrXrXrXrXrXrXrXrXrXrXrXrXrXrXrXrXrXrXrXe.~.oXoXoXoXoXoXoX).S.Z.j.j.2.n n f.Y.P.0XwXeXR.a.1.rXrXrXrXrXrXrXrXrXrXrXrXrXrXrXrXrXrXrXrXrXrXrX",
"rXrXrXrXrXrXrXrXrXrXrXrXrXrXrXrXrXrXrXrXrXm.H.~.V.b.rXrXrXN.x.(.oXoXoXoXoXoX`.S.Z.Z.Z.x.%.s 1 f Q / I.L.E.E.s.rXrXrXrXrXrXrXrXrXrXrXrXrXrXrXrXrXrXrXrXrXrXrXrXrX",
"rXrXrXrXrXrXrXrXrXrXrXrXrXrXrXrXrXrXrXrXV.`.oXoXoX`.`.`.).S.F.oXoXoXoX X).Q.Z.Z.Z.Z.k.D : p < f z S p.i.Y.rXrXrXrXrXrXrXrXrXrXrXrXrXrXrXrXrXrXrXrXrXrXrXrXrXrXrX",
"rXrXrXrXrXrXrXrXrXrXrXrXrXrXrXrXX rXrXV.oXoXoXoXoXoX`.(.Z.Z.`.`.`.(.S.S.Z.Z.Z.Z.Z.2.m 4 : r x < l S 1.rXrXrXrXrXrXrXrXrXrXrXrXrXrXrXrXrXrXrXrXrXrXrXrXrXrXrXrXrX",
"rXrXrXrXrXrXrXrXrXrXrXrXrXrXX # # w T ).oXoXoXoX).S.Z.Z.Z.Z.A.Z.Z.Z.Z.Z.Z.Z.Z.x.1.M = 4 , , x x z T 2.rXrXrXrXrXrXrXrXrXrXrXrXrXrXrXrXrXrXrXrXrXrXrXrXrXrXrXrXrX",
"rXrXrXrXrXrXrXrXrXrXrXrXrXrXo $ t z <.`..X`.~.S.Z.Z.Z.Z.Z.Z.Z.Z.Z.Z.Z.Z.Z.v.5.&.%.M = 4 1 < f Y Y W 2.rXrXrXrXrXrXrXrXrXrXrXrXrXrXrXrXrXrXrXrXrXrXrXrXrXrXrXrXrX",
"rXrXrXrXrXrXrXrXrXrXrXrXO + t v k R <.S.S.Z.Z.Z.Z.Z.Z.Z.Z.Z.Z.Z.Z.Z.Z.x.5.! %.%.%.M = 4 4 d f Y Y ! rXrXrXrXrXrXrXrXrXrXrXrXrXrXrXrXrXrXrXrXrXrXrXrXrXrXrXrXrXrX",
"rXrXrXrXrXrXrXrXrXrXrX# u v Q U I ~ 4.Z.Z.Z.Z.Z.Z.Z.Z.Z.Z.Z.Z.Z.v.k.2.*.J K %.%.%.M = , : r x Y Y %.rXrXrXrXrXrXrXrXrXrXrXrXrXrXrXrXrXrXrXrXrXrXrXrXrXrXrXrXrXrX",
"rXrXrXrXrXrXrXrXrXrX# b U c u z ~ / x.Z.Z.Z.Z.Z.Z.Z.Z.v.x.k.0.1.%.&.%.K G %.%.%.%.M = 1 p : l Y Y &.rXrXrXrXrXrXrXrXrXrXrXrXrXrXrXrXrXrXrXrXrXrXrXrXrXrXrXrXrXrX",
"rXrXrXrXrXrXrXrXrX+ c v u $ g R E 4.Z.Z.x.x.k.5.2.-.-.-.*.%.J G K %.%.J K %.%.%.%.F = 4 f p p Y Y >.rXrXrXrXrXrXrXrXrXrXrXrXrXrXrXrXrXrXrXrXrXrXrXrXrXrXrXrXrXrX",
"rXrXrXrXrXrXrXrXrXw v X X   u g H 1.0.rXrXrXJ %.%.%.%.%.K G J %.%.%.%.G %.%.%.%.%...= = 5 l z b S :.rXrXrXrXrXrXrXrXrXrXrXrXrXrXrXrXrXrXrXrXrXrXrXrXrXrXrXrXrXrX",
"rXrXrXrXrXrXrXrXrX$ u rXrXrXrXrXrXrXrXrXrXrXrXA %.%.+.J G K %.%.%.%.K J %.%.%.%.%...= & * 1 x I H 9.rXrXrXrXrXrXrXrXrXrXrXrXrXrXrXrXrXrXrXrXrXrXrXrXrXrXrXrXrXrX",
"rXrXrXrXrXrXrXrXrXrXrXrXrXrXrXrXrXrXrXrXrXrXrXrXZ G Z J %.%.%.%.%.%.J P %.%.%.%.%.7 & * 1 d d a 6 -.rXrXrXrXrXrXrXrXrXrXrXrXrXrXrXrXrXrXrXrXrXrXrXrXrXrXrXrXrXrX",
"rXrXrXrXrXrXrXrXrXrXrXrXrXrXrXrXrXrXrXrXrXrXrXrXrXy f G P %.%.%.%.P G %.%.%.%.%.K = - : < < a < 6 rXrXrXrXrXrXrXrXrXrXrXrXrXrXrXrXrXrXrXrXrXrXrXrXrXrXrXrXrXrXrX",
"rXrXrXrXrXrXrXrXrXrXrXrXrXrXrXrXrXrXrXrXrXrXrXrXrXrXrXrXB J %.%.%.J K %.%.%.%.%.F = ; ; : a k > 8 rXrXrXrXrXrXrXrXrXrXrXrXrXrXrXrXrXrXrXrXrXrXrXrXrXrXrXrXrXrXrX",
"rXrXrXrXrXrXrXrXrXrXrXrXrXrXrXrXrXrXrXrXrXrXrXrXrXrXrXrXrXrXZ K %.G %.%.%.%.%.%.K = 4 1 a p e * N rXrXrXrXrXrXrXrXrXrXrXrXrXrXrXrXrXrXrXrXrXrXrXrXrXrXrXrXrXrXrX",
"rXrXrXrXrXrXrXrXrXrXrXrXrXrXrXrXrXrXrXrXrXrXrXrXrXrXrXrXrXrXrXB G J %.%.%.%.%.%.M - : a < p , 4 G rXrXrXrXrXrXrXrXrXrXrXrXrXrXrXrXrXrXrXrXrXrXrXrXrXrXrXrXrXrXrX",
"rXrXrXrXrXrXrXrXrXrXrXrXrXrXrXrXrXrXrXrXrXrXrXrXrXrXrXrXrXrXrXV Z K %.%.%.%.%...2 - ; : : a ; 7 P rXrXrXrXrXrXrXrXrXrXrXrXrXrXrXrXrXrXrXrXrXrXrXrXrXrXrXrXrXrXrX",
"rXrXrXrXrXrXrXrXrXrXrXrXrXrXrXrXrXrXrXrXrXrXrXrXrXrXrXrXrXrXrXrXrXB V G J J %.M = 4 4 4 r p = 8 P rXrXrXrXrXrXrXrXrXrXrXrXrXrXrXrXrXrXrXrXrXrXrXrXrXrXrXrXrXrXrX",
"rXrXrXrXrXrXrXrXrXrXrXrXrXrXrXrXrXrXrXrXrXrXrXrXrXrXrXrXrXrXrXrXrXrXrXrXrXrXB 6 = 4 4 : p : = D P rXrXrXrXrXrXrXrXrXrXrXrXrXrXrXrXrXrXrXrXrXrXrXrXrXrXrXrXrXrXrX",
"rXrXrXrXrXrXrXrXrXrXrXrXrXrXrXrXrXrXrXrXrXrXrXrXrXrXrXrXrXrXrXrXrXrXrXrXrXrXrXrX= 4 3 < , 3 > G P rXrXrXrXrXrXrXrXrXrXrXrXrXrXrXrXrXrXrXrXrXrXrXrXrXrXrXrXrXrXrX",
"rXrXrXrXrXrXrXrXrXrXrXrXrXrXrXrXrXrXrXrXrXrXrXrXrXrXrXrXrXrXrXrXrXrXrXrXrXrXrXrX- 4 > , 4 : y B G rXrXrXrXrXrXrXrXrXrXrXrXrXrXrXrXrXrXrXrXrXrXrXrXrXrXrXrXrXrXrX",
"rXrXrXrXrXrXrXrXrXrXrXrXrXrXrXrXrXrXrXrXrXrXrXrXrXrXrXrXrXrXrXrXrXrXrXrXrXrXrXrX; ; ; 4 3 p w rXrXrXrXrXrXrXrXrXrXrXrXrXrXrXrXrXrXrXrXrXrXrXrXrXrXrXrXrXrXrXrXrX",
"rXrXrXrXrXrXrXrXrXrXrXrXrXrXrXrXrXrXrXrXrXrXrXrXrXrXrXrXrXrXrXrXrXrXrXrXrXrXrX% 2 4 4 4 , k w rXrXrXrXrXrXrXrXrXrXrXrXrXrXrXrXrXrXrXrXrXrXrXrXrXrXrXrXrXrXrXrXrX",
"rXrXrXrXrXrXrXrXrXrXrXrXrXrXrXrXrXrXrXrXrXrXrXrXrXrXrXrXrXrXrXrXrXrXrXrXrXrXrX% - 4 4 : f k 0 rXrXrXrXrXrXrXrXrXrXrXrXrXrXrXrXrXrXrXrXrXrXrXrXrXrXrXrXrXrXrXrXrX",
"rXrXrXrXrXrXrXrXrXrXrXrXrXrXrXrXrXrXrXrXrXrXrXrXrXrXrXrXrXrXrXrXrXrXrXrXrXrXrX. : 4 : a x g rXrXrXrXrXrXrXrXrXrXrXrXrXrXrXrXrXrXrXrXrXrXrXrXrXrXrXrXrXrXrXrXrXrX",
"rXrXrXrXrXrXrXrXrXrXrXrXrXrXrXrXrXrXrXrXrXrXrXrXrXrXrXrXrXrXrXrXrXrXrXrXrXrXrXO : 3 < z k e rXrXrXrXrXrXrXrXrXrXrXrXrXrXrXrXrXrXrXrXrXrXrXrXrXrXrXrXrXrXrXrXrXrX",
"rXrXrXrXrXrXrXrXrXrXrXrXrXrXrXrXrXrXrXrXrXrXrXrXrXrXrXrXrXrXrXrXrXrXrXrXrXrXrXO : , k a 1 1 rXrXrXrXrXrXrXrXrXrXrXrXrXrXrXrXrXrXrXrXrXrXrXrXrXrXrXrXrXrXrXrXrXrX",
"rXrXrXrXrXrXrXrXrXrXrXrXrXrXrXrXrXrXrXrXrXrXrXrXrXrXrXrXrXrXrXrXrXrXrXrXrXrXrX@ a k k d l j @ rXrXrXrXrXrXrXrXrXrXrXrXrXrXrXrXrXrXrXrXrXrXrXrXrXrXrXrXrXrXrXrXrX",
"rXrXrXrXrXrXrXrXrXrXrXrXrXrXrXrXrXrXrXrXrXrXrXrXrXrXrXrXrXrXrXrXrXrXrXrXrXrXrX+ w j j q @ h R c rXrXrXrXrXrXrXrXrXrXrXrXrXrXrXrXrXrXrXrXrXrXrXrXrXrXrXrXrXrXrXrX",
"rXrXrXrXrXrXrXrXrXrXrXrXrXrXrXrXrXrXrXrXrXrXrXrXrXrXrXrXrXrXrXrXrXrXrXrXrXrXrX$ $ # 0 $ $ c ^ ^ U w rXrXrXrXrXrXrXrXrXrXrXrXrXrXrXrXrXrXrXrXrXrXrXrXrXrXrXrXrXrX",
"rXrXrXrXrXrXrXrXrXrXrXrXrXrXrXrXrXrXrXrXrXrXrXrXrXrXrXrXrXrXrXrXrXrXrXrXrXrXrXX + t 0 0 # $ c ^ ^ Q h o rXrXrXrXrXrXrXrXrXrXrXrXrXrXrXrXrXrXrXrXrXrXrXrXrXrXrXrX",
"rXrXrXrXrXrXrXrXrXrXrXrXrXrXrXrXrXrXrXrXrXrXrXrXrXrXrXrXrXrXrXrXrXrXrXrXrXrXrXrX    rXrXO t i i i h i rXrXrXrXrXrXrXrXrXrXrXrXrXrXrXrXrXrXrXrXrXrXrXrXrXrXrXrXrX",
"rXrXrXrXrXrXrXrXrXrXrXrXrXrXrXrXrXrXrXrXrXrXrXrXrXrXrXrXrXrXrXrXrXrXrXrXrXrXrXrXrXrXrXrXrXrXrXrXrXrXrXrXrXrXrXrXrXrXrXrXrXrXrXrXrXrXrXrXrXrXrXrXrXrXrXrXrXrXrXrX",
"rXrXrXrXrXrXrXrXrXrXrXrXrXrXrXrXrXrXrXrXrXrXrXrXrXrXrXrXrXrXrXrXrXrXrXrXrXrXrXrXrXrXrXrXrXrXrXrXrXrXrXrXrXrXrXrXrXrXrXrXrXrXrXrXrXrXrXrXrXrXrXrXrXrXrXrXrXrXrXrX",
"rXrXrXrXrXrXrXrXrXrXrXrXrXrXrXrXrXrXrXrXrXrXrXrXrXrXrXrXrXrXrXrXrXrXrXrXrXrXrXrXrXrXrXrXrXrXrXrXrXrXrXrXrXrXrXrXrXrXrXrXrXrXrXrXrXrXrXrXrXrXrXrXrXrXrXrXrXrXrXrX",
"rXrXrXrXrXrXrXrXrXrXrXrXrXrXrXrXrXrXrXrXrXrXrXrXrXrXrXrXrXrXrXrXrXrXrXrXrXrXrXrXrXrXrXrXrXrXrXrXrXrXrXrXrXrXrXrXrXrXrXrXrXrXrXrXrXrXrXrXrXrXrXrXrXrXrXrXrXrXrXrX",
"rXrXrXrXrXrXrXrXrXrXrXrXrXrXrXrXrXrXrXrXrXrXrXrXrXrXrXrXrXrXrXrXrXrXrXrXrXrXrXrXrXrXrXrXrXrXrXrXrXrXrXrXrXrXrXrXrXrXrXrXrXrXrXrXrXrXrXrXrXrXrXrXrXrXrXrXrXrXrXrX",
"rXrXrXrXrXrXrXrXrXrXrXrXrXrXrXrXrXrXrXrXrXrXrXrXrXrXrXrXrXrXrXrXrXrXrXrXrXrXrXrXrXrXrXrXrXrXrXrXrXrXrXrXrXrXrXrXrXrXrXrXrXrXrXrXrXrXrXrXrXrXrXrXrXrXrXrXrXrXrXrX",
"rXrXrXrXrXrXrXrXrXrXrXrXrXrXrXrXrXrXrXrXrXrXrXrXrXrXrXrXrXrXrXrXrXrXrXrXrXrXrXrXrXrXrXrXrXrXrXrXrXrXrXrXrXrXrXrXrXrXrXrXrXrXrXrXrXrXrXrXrXrXrXrXrXrXrXrXrXrXrXrX"
};
