/* XPM */
static char *result[] = {
/* columns rows colors chars-per-pixel */
"80 80 174 2 ",
"   c #231523",
".  c #261926",
"X  c #2B1E29",
"o  c #2E242E",
"O  c #312731",
"+  c #342D34",
"@  c #363136",
"#  c #3A343A",
"$  c #3D393D",
"%  c #490A0A",
"&  c #521C1B",
"*  c #54201D",
"=  c #562420",
"-  c #582826",
";  c #592826",
":  c #5D2B2A",
">  c #5A342C",
",  c #43333B",
"<  c #5D3533",
"1  c #5A3836",
"2  c #57363B",
"3  c #5B3C3D",
"4  c #60302F",
"5  c #623131",
"6  c #653B3C",
"7  c #6B3A3B",
"8  c #6A403D",
"9  c #3F3943",
"0  c #423E43",
"q  c #4E3C41",
"w  c #4B3E4B",
"e  c #5B3E41",
"r  c #583F49",
"t  c #623E45",
"y  c #434143",
"u  c #4D424D",
"i  c #4C4A4D",
"p  c #594145",
"a  c #55434C",
"s  c #5C444B",
"d  c #59484F",
"f  c #4F4050",
"g  c #4E4D53",
"h  c #534553",
"j  c #544A53",
"k  c #5C4A54",
"l  c #574E59",
"z  c #5C4E5B",
"x  c #535057",
"c  c #56535A",
"v  c #5B515D",
"b  c #604044",
"n  c #63454D",
"m  c #6B4648",
"M  c #63494C",
"N  c #7E4E4E",
"B  c #654750",
"V  c #644A53",
"C  c #644E59",
"Z  c #63515D",
"A  c #735453",
"S  c #71565A",
"D  c #7D615E",
"F  c #5D5461",
"G  c #625463",
"H  c #615967",
"J  c #685967",
"K  c #665C6C",
"L  c #685F70",
"P  c #61606C",
"I  c #7A6769",
"U  c #6A6273",
"Y  c #903E43",
"T  c #844C4F",
"R  c #96484C",
"E  c #814C51",
"W  c #865859",
"Q  c #915958",
"!  c #A64D53",
"~  c #A85456",
"^  c #A7585A",
"/  c #9E5860",
"(  c #886C68",
")  c #926D6D",
"_  c #947373",
"`  c #9A7575",
"'  c #967A7A",
"]  c #9D7A7A",
"[  c #A47775",
"{  c #A27D7D",
"}  c #A97F7F",
"|  c #9A817A",
" . c #A3817C",
".. c #AC8E7E",
"X. c #A67983",
"o. c #84848B",
"O. c #8B868D",
"+. c #8F8C91",
"@. c #8F8F98",
"#. c #979698",
"$. c #94949A",
"%. c #9B999C",
"&. c #A48383",
"*. c #AB8584",
"=. c #AC8B84",
"-. c #AB828B",
";. c #A08B8D",
":. c #AD8C8B",
">. c #B38686",
",. c #B28B86",
"<. c #B38C8C",
"1. c #AF9585",
"2. c #B59485",
"3. c #B5948D",
"4. c #B8948A",
"5. c #B5998B",
"6. c #BC9D8E",
"7. c #B08C91",
"8. c #A49999",
"9. c #B49393",
"0. c #B99795",
"q. c #BB9B95",
"w. c #BD9B9B",
"e. c #BEA294",
"r. c #BFA699",
"t. c #9F9FA3",
"y. c #A8A6A8",
"u. c #B4ABAB",
"i. c #B3B3B6",
"p. c #B3B4B8",
"a. c #BBBCBE",
"s. c #C09D8F",
"d. c #C09F93",
"f. c #C09E9E",
"g. c #C4A394",
"h. c #C8A797",
"j. c #CCAD97",
"k. c #C4A49A",
"l. c #C8A79C",
"z. c #C7AD9F",
"x. c #CBAB9D",
"c. c #D1AF9D",
"v. c #CDB09C",
"b. c #D3B49D",
"n. c #D6BB9F",
"m. c #C4A3A3",
"M. c #CCACA4",
"N. c #D0AFA1",
"B. c #D4B4A4",
"V. c #D7BBA2",
"C. c #DBBDA4",
"Z. c #D6B5A8",
"A. c #D8B7A9",
"S. c #D7B8A8",
"D. c #DDBDA9",
"F. c #C8BDB9",
"G. c #E0BFA4",
"H. c #DDC3A4",
"J. c #D8C0AF",
"K. c #CFC4BC",
"L. c #D2C2B8",
"P. c #E1C2A7",
"I. c #E3C4AB",
"U. c #E8C7AD",
"Y. c #EBCCAD",
"T. c #EECDB0",
"R. c #F0CFB1",
"E. c #EFD0B0",
"W. c #F3D3B2",
"Q. c #F7D6B4",
"!. c #BFC0C2",
"~. c #CAC8C9",
"^. c #D5D4D3",
"/. c None",
/* pixels */
"/./././././././././././././././././././././././././././././././././././././././././././././././././././././././././././././././././././././././././././././././.",
"/./././././././././././././././././././././././././././././././././././././././././././././././././././././././././././././././././././././././././././././././.",
"/./././././././././././././././././././././././././././././././././././././././././././././././././././././././././././././././././././././././././././././././.",
"/./././././././././././././././././././././././././././././././././././././././././././././././././././././././././././././././././././././././././././././././.",
"/./././././././././././././././././././././././././././././././././././././././././././././././././././.$ g x i y + O /././././././././././././././././././././.",
"/././././././././././././././././././././././././././././././././././././././././././././././././././.o $ y y y y $ $ X # $ /./././././././././././././././././.",
"/././././././././././././././././././././././././././././././././././././././././././././././././././././.o @ + # 0 y $ 0 y O /././././././././././././././././.",
"/././././././././././././././././././././././././././././././././././././././././././././././././././././././.w v F c i i i + /././././././././././././././././.",
"/./././././././././././././././././././././././././././././././././././././././././././././././././././././.u l v G K K H x @ /././././././././././././././././.",
"/././././././././././././././././././././././././././././././././././././././././././././././././././././.l H H H H K U U U l /././././././././././././././././.",
"/./././././././././././././././././././././././././././././.-.9.9.X./././././././././././././././././.z G K J G V n n Z J J v /././././././././././././././././.",
"/./././././././././././././././././././././././././././.-.9.9.9.9.7.X././././././././././././././.z G U L J Z C V n 3 5 5 > /./././././././././././././././././.",
"/./././././././././././././././././././././././././././.[ ^ ~ ~ ! ! / /./././././././././././.h G U U U U U U U U K v e > /././././././././././././././././././.",
"/./././././././././././././././././././././././././././.R Y T Q Q Q E T /./././././././././.z K U K G Z V B V V C z /./././././././././././././././././././././.",
"/././././././././././././././././././././././././././.W m M v c v j q 6 7 /./././././././.F U K G Z V s M I S m < /././././././././././././././././././././././.",
"/./././././././././././././././././././././././././.W 7 s o.p.#.#.+.v I 2./././././././.j K U K K Z n j o.a.!.i././././././././././././././././././././././././.",
"/././././././././././././././././././././././././././././.y.L.j.v.B.e.B.Y.T.Y.U././././.v U U C k s 1 b 8.K.^.^.p./././././././././././././././././././././././.",
"/././././././././././././././././././././././././././././.g.x.q.4.j.C.T.R.W.Y.I.B./././.K U K t A D ( ..j.P.J.^.~./././././././././././././././././././././././.",
"/./././././././././././././././././././././././././././.6.:.&.q.D.Y.W.P.P.Y.P.Y.T.U.P.P.e.r.' [ b.U.R.W.C.V.D.F.i./././././././././././././././././././././././.",
"/./././././././././././././././././././././././././././.3.3.x.Y.W.U.Y.l.q.B.Y.W.Y.Y.Y.Q.Y.I.B.A.I.Q.Q.Q.Y.b.f.;././././././././././././././././././././././././.",
"/./././././././././././././././././././././././././././.x.D.Y.W.S.V.B.m.:.w.M.Z.I.T.W.Q.W.E.U.S.Y.Q.T.D.M.9.*.' /./././././././././././././././././././././././.",
"/././././././././././././././././././././././././././.P.W.T.D.B.m.M.m.m.w.0.m.m.m.M.B.A.D.U.U.U.I.Z.M.m.w.&././././././././././././././././././././././././././.",
"/./././././././././.$.i.y.%./././././././././.b.G.b.Y.T.I.M.k.m.m.m.m.w.w.:.&.<.w.m.m.m.m.m.M.M.m.w.9.*.] _ /./././././././././././././././././././././././././.",
"/./././././././././.a.^.K.z.g.j.b.C.b.j.g././.v.Y.c.M.M.m.m.w.m.m.m.m.m.m.9.:.{ &.] &.:.0.w.0.*.&.&.&.:.9.9.:.&.` /././././././././././././././././././././././.",
"/././././././././.t.~.~.9.q.e.V.H.C.v.C.x.C.b.g.n.x.w.m.m.m.w.m.m.m.m.m.w.0.f.0.w.&.] ] { { { >.<.<.<.<.9.0.0.0.9.*._ /././././././././././././././././././././.",
"/././././././././.%.p.u.&.:.v.x.v.H.b.V.b.b.V.g.q.g.0.m.w.m.m.f.m.m.m.0.9.m.f.w.w.{ { <.<.<.<.>.<.9.9.<.>.<.0.0.0.0.:.&././././././././././././././././././././.",
"/././././././././.@.$.O._ X.q.x.0.k.x.x.v.x.h.q.0.0.:.w.w.m.m.m.k.w.:.<.m.m.w.f.w.{ <.0.h.0.9.9.<.>.7.9.<.>.<.0.0.0.0.:././././././././././././././././././././.",
"/./././././././././././././.] =.<.9.0.0.0.0.0.0.0.0.9.:.0.w.m.f.<.&.<.m.f.f.w.m.0.{ h.3.g.g.0.0.0.9.<.9.0.<.>.9.0.0.0.&././././././././././././././././././././.",
"/./././././././././././././././._ ] { &.:.<.9.9.0.0.0.9.:.9.:.&.<.f.0.f.0.m.f.w.&.*.x.3.0.k.k.0.9.9.<.<.0.0.>.<.0.0.9.` /./././././././././././././././././././.",
"/././././././././././././././././././././.) _ ] { &.&.*.&._ 9.m.m.m.w.<.9.m.w.:.&.:.h.0.9.g.l.q.9.9.9.<.9.g.0.<.9.0.:./././././././././././././././././././././.",
"/./././././././././././././././././././././././././././././.:.m.m.m.m.0.0.<.:.:.&.9.0.:.:.0.h.k.9.0.q.<.9.k.l.9.9.0.*./././././././././././././././././././././.",
"/././././././././././././././././././././././././././././././.&.0.m.m.m.9.] &.&.<.0.0.:.3.0.w.l.0.0.h.9.<.q.M.0.9.0.{ /././././././././././././././././././././.",
"/././././././././././././././././././././././././././././././././.&.0.&.] X.:.9.0.0.9.*.9.9.k.N.0.0.h.0.<.0.B.k.0.9.] /././././././././././././././././././././.",
"/././././././././././././././././././././././././././././././././.) &.:.*.:.0.9.0.0.9.<.9.9.h.N.0.9.l.k.<.0.B.l.0.:././././././././././././././././././././././.",
"/././././././././././././././././././././././././././././././././.&.0.0.9.9.9.9.9.<.<.9.<.0.x.x.0.9.l.l.3.q.B.x.0.*././././././././././././././././././././././.",
"/././././././././././././././././././././././././././././././././.:.0.9.3.<.9.9.<.*.<.9.:.0.B.l.0.0.l.x.9.k.B.B.0.&././././././././././././././././././././././.",
"/././././././././././././././././././././././././././././././././.} 9.<.>.*.} *.} *.9.*.9.k.B.k.9.0.x.x.0.l.B.M.9.] /./././././././././././././././././././././.",
"/././././././././././././././././././././././././././././././././._ } >.<.<.*.{ *.<.*.:.0.M.B.q.9.q.B.l.0.N.B.x.:./././././././././././././././././././././././.",
"/././././././././././././././././././././././././././././././././.] &.:.<.<.0.:.{ { &.w.x.B.x.0.0.k.B.x.h.B.B.l.{ /././././././././././././././././././././././.",
"/././././././././././././././././././././././././././././././././.{ 9.0.w.w.w.&.]  .3.B.B.x.q.0.w.B.B.h.x.B.B.0././././././././././././././././././././././././.",
"/./././././././././././././././././././././././././././././././.&.:.*.<.<.9.{ *.6.6.q.B.h.0.9.0.M.B.B.x.B.B.N.*././././././././././././././././././././././././.",
"/./././././././././././././././././././././././././././././././.:.w.0.w.w.<.} s.g.g.3.0.0.0.0.x.B.B.B.B.B.B.q./././././././././././././././././././././././././.",
"/./././././././././././././././././././././././././././././././.:.9.<.:.<.=.2.g.d.g.d.=.:.0.l.B.B.B.B.B.B.h.{ /././././././././././././././././././././././././.",
"/./././././././././././././././././././././././././././././././.:.9.3.3.d.4.<.0.0.q.g.0.&.e.B.B.B.B.B.B.B.=././././././././././././././././././././././././././.",
"/././././././././././././././././././././././././././././././. .q.g.g.g.g.3.*.9.0.g.q.0.3.3.B.B.B.B.B.B.5./././././././././././././././././././././././././././.",
"/././././././././././././././././././././././././././././././.2.g.g.d.d.0.9.*.9.g.g.0.d.g.6.g.B.B.B.B.g././././././././././././././././././././././././././././.",
"/./././././././././././././././././././././././././././././.5.g.g.g.g.g.d.g.=.4.g.g.g.g.g.g.6.g.B.B.x.| /./././././././././././././././././././././././././././.",
"/././././././././././././././././././././././././././././.1.g.g.g.g.g.g.g.g.=.4.g.g.g.g.g.g.g.6.g.e.W /././././././././././././././././././././././././././././.",
"/././././././././././././././././././././././././././././.6.g.g.g.g.g.g.g.g.=.4.g.g.g.g.g.g.g.d.( 8 ; % /./././././././././././././././././././././././././././.",
"/./././././././././././././././././././././././././././.=.g.g.g.g.g.g.g.g.g.=.<.g.g.g.g.g.g.0.) ; & ; & /./././././././././././././././././././././././././././.",
"/./././././././././././././././././././././././././././.3.g.g.g.g.g.g.g.g.g.,.>.g.g.g.q.0.<.) ; & ; e a /./././././././././././././././././././././././././././.",
"/./././././././././././././././././././././././././././.9.g.g.g.g.g.g.q.0.0.:.*.0.0.0.9.*.N ; = < k G z /./././././././././././././././././././././././././././.",
"/./././././././././././././././././././././././././././.:.0.d.g.d.0.0.0.0.0.:.{ 0.9.<.{ /./.* 5 s G G G h /././././././././././././././././././././././././././.",
"/./././././././././././././././././././././././././././.] 9.0.0.0.0.0.9.<.:.{ { *.&././././.= 5 e G G Z a /././././././././././././././././././././././././././.",
"/././././././././././././././././././././././././././././.] &.&.&.]  .] _ ) ` ` /./././././.& 5 < k G C r /././././././././././././././././././././././././././.",
"/./././././././././././././././././././././././././././././././././././././././././././././.& 4 5 3 G s p /././././././././././././././././././././././././././.",
"/././././././././././././././././././././././././././././././././././././././././././././././.; 5 5 d 3 k /././././././././././././././././././././././././././.",
"/././././././././././././././././././././././././././././././././././././././././././././././.; 5 5 1 < z f /./././././././././././././././././././././././././.",
"/././././././././././././././././././././././././././././././././././././././././././././././.* 5 5 4 3 v j /./././././././././././././././././././././././././.",
"/./././././././././././././././././././././././././././././././././././././././././././././././.: 5 5 s z q /./././././././././././././././././././././././././.",
"/./././././././././././././././././././././././././././././././././././././././././././././././.: 5 1 z 3 a /./././././././././././././././././././././././././.",
"/./././././././././././././././././././././././././././././././././././././././././././././././.: < k p > s /./././././././././././././././././././././././././.",
"/./././././././././././././././././././././././././././././././././././././././././././././././.- d d 1 s V h /././././././././././././././././././././././././.",
"/./././././././././././././././././././././././././././././././././././././././././././././././.3 G k z l h h w /./././././././././././././././././././././././.",
"/./././././././././././././././././././././././././././././././././././././././././././././././.v z k j v i K P /./././././././././././././././././././././././.",
"/./././././././././././././././././././././././././././././././././././././././././././././././.w 2 2 S c i x c 0 /././././././././././././././././././././././.",
"/./././././././././././././././././././././././././././././././././././././././././././././././././.5 6 , $ # 9 +   /./././././././././././././././././././././.",
"/./././././././././././././././././././././././././././././././././././././././././././././././././././.X + @ # + + /./././././././././././././././././././././.",
"/././././././././././././././././././././././././././././././././././././././././././././././././././././.o @ + $ # /./././././././././././././././././././././.",
"/./././././././././././././././././././././././././././././././././././././././././././././././././././.o X @ $ + /././././././././././././././././././././././.",
"/./././././././././././././././././././././././././././././././././././././././././././././././././././.@ O + X /./././././././././././././././././././././././.",
"/./././././././././././././././././././././././././././././././././././././././././././././././././././..   /./././././././././././././././././././././././././.",
"/./././././././././././././././././././././././././././././././././././././././././././././././././././././././././././././././././././././././././././././././.",
"/./././././././././././././././././././././././././././././././././././././././././././././././././././././././././././././././././././././././././././././././.",
"/./././././././././././././././././././././././././././././././././././././././././././././././././././././././././././././././././././././././././././././././.",
"/./././././././././././././././././././././././././././././././././././././././././././././././././././././././././././././././././././././././././././././././.",
"/./././././././././././././././././././././././././././././././././././././././././././././././././././././././././././././././././././././././././././././././.",
"/./././././././././././././././././././././././././././././././././././././././././././././././././././././././././././././././././././././././././././././././.",
"/./././././././././././././././././././././././././././././././././././././././././././././././././././././././././././././././././././././././././././././././.",
"/./././././././././././././././././././././././././././././././././././././././././././././././././././././././././././././././././././././././././././././././."
};
