/* XPM */
static char *result[] = {
/* columns rows colors chars-per-pixel */
"80 80 185 2 ",
"   c #251320",
".  c #2A1E29",
"X  c #2D232D",
"o  c #2F2630",
"O  c #332C33",
"+  c #363038",
"@  c #3B343C",
"#  c #3C3B3C",
"$  c #4C1612",
"%  c #521C18",
"&  c #55221C",
"*  c #58251D",
"=  c #5A2723",
"-  c #572927",
";  c #5F332A",
":  c #62352D",
">  c #633A2E",
",  c #673E31",
"<  c #683F34",
"1  c #674435",
"2  c #6A4335",
"3  c #694439",
"4  c #6E4A3B",
"5  c #704E3E",
"6  c #413E42",
"7  c #4E3C41",
"8  c #444244",
"9  c #464249",
"0  c #49474C",
"q  c #4B4A4B",
"w  c #574148",
"e  c #474150",
"r  c #4F4D52",
"t  c #5C4E52",
"y  c #595253",
"u  c #55545C",
"i  c #5F5358",
"p  c #654A4B",
"a  c #6B4A4D",
"s  c #734242",
"d  c #7C4245",
"f  c #6F544E",
"g  c #725242",
"h  c #71554B",
"j  c #6D5552",
"k  c #64545A",
"l  c #6A575B",
"z  c #6C595C",
"x  c #735956",
"c  c #575661",
"v  c #5D5461",
"b  c #5B5B66",
"n  c #5B5B6A",
"m  c #605361",
"M  c #655865",
"N  c #6C5C64",
"B  c #665B6B",
"V  c #6B5E6A",
"C  c #795C61",
"Z  c #676265",
"A  c #60606F",
"S  c #6E616B",
"D  c #7A636B",
"F  c #78676A",
"G  c #626272",
"H  c #6B6373",
"J  c #6F6977",
"K  c #6F6B7B",
"L  c #706670",
"P  c #716A75",
"I  c #716E7D",
"U  c #73727E",
"Y  c #7B727E",
"T  c #8E3639",
"R  c #95393C",
"E  c #855657",
"W  c #965458",
"Q  c #A04447",
"!  c #846159",
"~  c #8B5A60",
"^  c #886965",
"/  c #8D6C6C",
"(  c #996365",
")  c #806974",
"_  c #8D7273",
"`  c #8D7873",
"'  c #86777E",
"]  c #947474",
"[  c #9A7575",
"{  c #957C75",
"}  c #9B7B75",
"|  c #91787C",
" . c #9D7C7C",
".. c #A96769",
"X. c #A27D7D",
"o. c #AA7D7D",
"O. c #B37579",
"+. c #9B827C",
"@. c #A3847B",
"#. c #A38B7F",
"$. c #737282",
"%. c #7A7A84",
"&. c #7D7D89",
"*. c #927F81",
"=. c #A47C82",
"-. c #848289",
";. c #998185",
":. c #898994",
">. c #8C8C94",
",. c #909196",
"<. c #93949B",
"1. c #979899",
"2. c #9B9C9E",
"3. c #A58383",
"4. c #AA8685",
"5. c #A58A84",
"6. c #AB8984",
"7. c #A48789",
"8. c #A98788",
"9. c #AC8B8B",
"0. c #B38686",
"q. c #B68D8A",
"w. c #B28D8D",
"e. c #AE9385",
"r. c #A9938C",
"t. c #B39787",
"y. c #B0928B",
"u. c #BB9C8D",
"i. c #B08F90",
"p. c #A59E9A",
"a. c #B49494",
"s. c #BA9595",
"d. c #B79D90",
"f. c #BC9C93",
"g. c #BC9B9B",
"h. c #A9A29D",
"j. c #B3A59C",
"k. c #BEA399",
"l. c #9797A2",
"z. c #9A9BA2",
"x. c #A1A1A7",
"c. c #A6A6AB",
"v. c #B8AEA7",
"b. c #ACACB2",
"n. c #B3B2B4",
"m. c #B6B5B9",
"M. c #B8B8BB",
"N. c #C2898B",
"B. c #C5989A",
"V. c #C09D9D",
"C. c #C3A393",
"Z. c #C4A39C",
"A. c #C8A79D",
"S. c #CBAB9B",
"D. c #CEB19B",
"F. c #D4B59D",
"G. c #D6BA9E",
"H. c #CB9FA0",
"J. c #C5A4A4",
"K. c #C8A7A4",
"L. c #CCACA3",
"P. c #D2B3A5",
"I. c #D4B9A7",
"U. c #DBBDA4",
"Y. c #DCBCAA",
"T. c #DDC1A4",
"R. c #E3C4AA",
"E. c #E6C5A9",
"W. c #E6C6A9",
"Q. c #E7C9AB",
"!. c #EBCBAD",
"~. c #F0D0AF",
"^. c #E2C7B1",
"/. c #EECEB1",
"(. c #F0CFB2",
"). c #EFD0B0",
"_. c #F2D1B1",
"`. c #F5D4B3",
"'. c #F6D5B4",
"]. c #C3C3C3",
"[. c #CDC9C7",
"{. c #D5D5D5",
"}. c #D7D8D8",
"|. c #E2DAD4",
" X c None",
/* pixels */
" X X X X X X X X X X X X X X X X X X X X X X X X X X X X X X X X X X X X X X X X X X X X X X X X X X X X X X X X X X X X X X X X X X X X X X X X X X X X X X X X",
" X X X X X X X X X X X X X X X X X X X X X X X X X X X X X X X X X X X X X X X X X X X X X X X X X X X X X X X X X X X X X X X X X X X X X X X X X X X X X X X X",
" X X X X X X X X X X X X X X X X X X X X X X X X X X X X X X X X X X X X X X X X X X X X X X X X X X X X X X X X X X X X X X X X X X X X X X X X X X X X X X X X",
" X X X X X X X X X X X X X X X X X X X X X X X X X X X X X X X X X X X X X X X X X X X X X X X X X X X X X X X X X X X X X X X X X X X X X X X X X X X X X X X X",
" X X X X X X X X X X X X X X X X X X X X X X X X X X X X X X X X X X X X X X X X X X X X X X X X X X X X X X X X X X X X X X X X X X X X X X X X X X X X X X X X",
" X X X X X X X X X X X X X X X X X X X X X X X X X X X X X X X X X X X X X X X X X X X X X X X X X X X X X X X X X X X X X X X X X X X X X X X X X X X X X X X X",
" X X X X X X X X X X X X X X X X X X X X X X X X X X X X X X X X X X X X X X X X X X X X X X X X X X X X X X X X X X X X X X X X X X X X X X X X X X X X X X X X",
" X X X X X X X X X X X X X X X X X X X X X X X X X X X X X X X X X X X X X X X X X X X X X X X X X X X X X X X X X X X X X X X X X X X X X X X X X X X X X X X X",
" X X X X X X X X X X X X X X X X X X X X X X X X X X X X X X X X X X X X X X X X X X X X X X X X X X X X X X X X X X X X X X X X X X X X X X X X X X X X X X X X",
" X X X X X X X X X X X X X X X X X X X X X X X X X X X X X X X X X X X X X X X X X X X X X X X X X X X X X X X X X X X X X X X X X X X X X X X X X X X X X X X X",
" X X X X X X X X X X X X X X X X X X X X X X X X X X X X X X X X X X X X X X X X X X X X X X X X X X X X X X X X X X X X X X X X X X X X X X X X X X X X X X X X",
" X X X X X X X X X X X X X X X X X X X X X X X X X X X X X X X X X X X X X X X X X X X X X X X X X X X X X X X X X X X X X X X X X X X X X X X X X X X X X X X X",
" X X X X X X X X X X X X X X X X X X X X X X X X X X X X X X X X X X X X X X X X X X X X X X X X X X X X X X X X X X X X X X X X X X X X X X X X X X X X X X X X",
" X X X X X X X X X X X X X X X X X X X X X X X X X X X X X X X X X X X X X X X X X X X X X X X X X X X X X X X X X X X X X X X X X X X X X X X X X X X X X X X X",
" X X X X X X X X X X X X X X X X X X X X X X X X X X X X X X X X X X X X X X X X X X X X X X X X X X X X X X X X X X X X X X X X X X X X X X X X X X X X X X X X",
" X X X X X X X X X X X X X X X X X X X X X X X X X X X X X X X X X X X X X X X X X X X X X X X X X X X X X X X X X X X X X X X X X X X X X X X X X X X X X X X X",
" X X X X X X X X X X X X X X X X X X X X X X X X X X X X X X X X X X X X X X X X X X X X X X X X X X X X X X X X X X X X X X X X X X X X X X X X X X X X X X X X",
" X X X X X X X X X X X X X X X X X X X X X X X X X X X X X X X X X X X X X X X X X X X X X X X X X X X X X X X X X X X X X X X X X X X X X X X X X X X X X X X X",
" X X X X X X X X X X X X X X X X X X X X X X X X X X X X X X X X X X X X X X X X X X X X X X X X X X X X X X X X X X X X X X X X X X X X X X X X X X X X X X X X",
" X X X X X X X X X X X X X X X X X X X X X X X X X X X X X X X X X X X X X X X X X X X X X X X X X X X X X X X X X X X X X X X X X X X X X X X X X X X X X X X X",
" X X X X X X X X X X X X X X X X X X X X X X X X X X X X X X X X X X X X X X X X X X X X X X X X X X X X X X X X X X X X X X X X X X X X X X X X X X X X X X X X",
" X X X X X X X X X X X X X X X X X X X X X X X X X X X X X X X X X X X X X X X X X X X X X X X X X X X X X X X X X X X X X X X X X X X X X X X X X X X X X X X X",
" X X X X X X X X X X X X X X X X X X X X X X X X X X X X X X X X X X X X X X X X X X X X X X X X X X X X X X X X X X X X X X X X X X X X X X X X X X X X X X X X",
" X X X X X X X X X X X X X X X X X X X X X X X X X X X X X X X X X X X X X X X X X X X X X X X X X X X X X X X X X X X X X X X X X X X X X X X X X X X X X X X X",
" X X X X X X X X X X X X X X X X X X X X X X X X X X X X X X X X X X X X X X X X X X X X X X X X X X X X X X X X X X X X X X X X X X X X X X X X X X X X X X X X",
" X X X X X X X X X X X X X X X X X X X X X X X X X X X X X X X X X X X X X X X X X X X X X X X X X X X X X X X X X X X X X X X X X X X X X X X X X X X X X X X X",
" X X X X X X X X X X X X X X X X X X X X X X X X X X X X X X X X X X X X X X X X X X X X X X X X X X X X X X X X X X X X X X X X X X X X X X X X X X X X X X X X",
" X X X X X X X X X X X X X X X X X X X X X X X X X X X X X X X X X X X X X X X X X X X X X X X X X X X X X X X X X X X X X X X X X X X X X X X X X X X X X X X X",
" X X X X X X X X X X X X X X X X X X X X X X X X X X X X X X X X X X X X X X X X X X X X Xs.0. X X X X X X X X X X X X X X X X X X X X X X X X X X X X X X X X X",
" X X X X X X X X X X X X X X X X X X X X X X X X X X X X X X X X X X X X X X X X X X X X Xq.X. X X X X X X X X X X X X X X X X X X X X X X X X X X X X X X X X X",
" X X X X X X X X X X X X X X X X X X X X X X X X X X X X X X X X X X X X X X X X X X X X X0.[  X X X X X X X X X X X X X X X X X X X X X X X X X X X X X X X X X",
" X X X X X X X X X X X X X X X X X X X X X X X X X X X X X X X X X X X X X X X X X X X Xs.o. X X X X X X X X X X X X X X X X X X X X X X X X X X X X X X X X X X",
" X X X X X X X X X X X X X X X X X X X X X X X X X X X X X X X X X X X X X X X X X X X Xq.X. X X X X X X X X X X X X X X X X X X X X X X X X X X X X X X X X X X",
" X X X X X X X X X X X X X X X X X X X X X X X X X X X X X X X X X X X X X X X X X X X X4. X X X X X X X X X X X X X X X X X X X X X X X X X X X X X X X X X X X",
" X X X X X X X X X X X X X X X X X X X X X X X X X X X X X X X X X X X X X X X X X X X3. . X X X X X X X X X X X X X X X X X X X X X X X X X X X X X X X X X X X",
" X X X X X X X X X X X X X X X X X X X X X X X X X X X X X X X X X X X X X X X>. X X X9.9. X X X X X X X X X X X X X X X X X X X X X X X X X X X X X X X X X X X",
" X X X X X X X X X X X X X X X X X X X X X X X X X X X X X X X X X X X X X<.z.<.l. X Xa.s. X X X X X X X X X X X X X X X X X X X X X X X X X X X X X X X X X X X",
" X X X X X X X X X X X X X X X X X X X X X X X X X X X X X X X X X X X X X,.>.U <. X Xg.V.] 3. . X X X X X X X X X X X X X X X X X X X X X X X X X X X X X X X X",
" X X X X X X X X X X X X X X X X X X X X X X X X X X X X X X X X X X X Xm.b.<.%.&. X .J.K.3.3.a.[  X X X X X X X X X X X X X X X X X X X X X X X X X X X X X X X",
" X X X X X X X X X X X X X X X X X X X X X X X X X X X X X X X X X X X Xk.|.b.>.b. X4.K.K.a.3.a.3. X X X X X X X X X X X X X X X X X X X X X X X X X X X X X X X",
" X X X X X X X X X X X X X X X X X X X X X X X X X X X X X X X X X X X X!.^.[.c.c. Xa.K.K.a.9.a.9. X X X X X X X X X X X X X X X X X X X X X X X X X X X X X X X",
" X X X X X X X X X X X X X X X X X X X X X X X X X X X X X X X X X X XF.E.E.I.n. X Xg.K.K.9.a.a.a. X X X X X X X X X X]  X X X X X X X X X X X X X X X X X X X X",
" X X X X X X X X X X X X X X X X X X X X X X X X X X X X X X X X X XF.W.F.U.D.*. XX.J.K.J.4.a.a.a.]  X X X X X X X X3.3. X X X X X X X X X X X X X X X X X X X X",
" X X X X X X X X X X X X X X X X X X X X X X X X X X X X X X X X X X!.'.Q.U.u. X X9.K.K.g.9.a.9.3. X X X X X X X X X9.X. X X X X X X X X X X X X X X X X X X X X",
" X X X X X X X X X X X X X X X X X X X X X X X X X X X X X X X X XW.'.'.'.U.@. X Xa.K.K.a.9.a.4.[  X X X X X X X4.a.a.[  X X X X X X X X X X X X X X X X X X X X",
" X X X X X X X X X X X X X X X X X X X X X X X X X X X X X X X XU.'.'.'.'.P. X X Xg.K.J.9.w.9.0.]  X X X X X Xw.g.a.4. X X X X X X X X X X X X X X X X X X X X X",
" X X X X X X X X X X X X X X X X X X X X X X X X X X X X X X XD._.'.'.'._.f. X X .J.K.J.3.9.a.4. X X X X3.w.g.J.g.a.X. X X X X X X X X X X X X X X X X X X X X X",
" X X X X X X X X X X X X X X X X X X X X X X X X&. X X X X X XE.'.'.'.`.U.3. X X3.J.K.g.4.9.s.g.9.3.9.a.V.J.K.J.a.9. X X X X X X X X X X X X X X X X X X X X X X",
" X X X X X X X X X X X X X X X X X X X X X X%.&.:.-. X X X XU._.'.'.'.W.g. X X X9.J.K.a.9.9.g.K.J.J.J.K.K.K.K.g.a.3. X X X X X X X X X X X X X X X X X X X X X X",
" X X X X X X X X X X X X X X X X X X X X X X:.>.>.<. X X X XW.Q.'.'.!.L.3. X X Xa.J.K.i.9.3.H.K.K.K.K.K.K.K.J.a.a. . X X X X X X X X X X Xr  X X0 b b u  X X X X",
" X X X X X X X X X X X X X X X X X X X X X$.<.m.n.x. X X XY.R.L.R.R.P.g. X X X .a.J.K.9.9.9.J.K.K.K.K.K.K.K.g.a.9. X X X X X X X X X X Xc G e @ u A G G c  X X X",
" X X X X X X X X X X X X X X X X X X X X X Xn.{.{.M.:.<. XT.P.J.Z.Z.J.9. X X X3.a.J.J.8.9.w.K.K.J.K.K.K.K.g.a.g.3. X X X X X X X X X X@ r b n @ 6 u n n e  X X X",
" X X X X X X X X X X X X X X X X X X X X X Xb.}.{.].b. Xt.W.L.J.Z.J.a./  X X X3.a.J.H.9.8.g.K.K.J.J.K.K.J.s.a.g. X X X X X X X X X X9 u 6 0 q 9 6 q 6 + o  X X X",
" X X X X X X X X X X X X X X X X X X X XX @ -.v.v.p.%.t T.Y.K.J.K.g.] 3. . X X9.a.g.g.3.4.g.K.K.J.J.K.K.g.a.H.i. X X X X X X X X XM 0 r q q 8 @ @ @ O  X X X X X",
" X X X X X X X X X X X X X X X X X X X. # 9 ` u.u.#.y #./.L.K.K.g.3.3.9. X X Xi.a.g.s.3.9.J.J.J.J.J.J.H.a.g.g. . X X X X X X X XB K B 9 6 @ .    X X X X X X X X",
" X X X X X X X X X X X X X X X X X X X XO q { #.@.5.8.R.Y.J.K.V.4. X3.3. X X .a.a.g.a.3.i.K.J.J.J.J.J.a.g.J.w. X X X X X X X XH H U I S w 7 - =  X X X X X X X X",
" X X X X X X X X X X X X X X X X X X X Xl C +.e.e.Z.Y.W.L.K.J.i.C  X0.3. X X3.a.a.g.9.3.g.K.J.J.K.J.g.a.J.g.3. X X X X X X XK $.K $.I N 3 ; ; =  X X X X X X X X",
" X X X X X X X X X X X X X X X X X X X XE E u.u.U.Y.U.P.K.J.V.3.m M 4.]  X X9.a.a.g.9.3.J.K.J.J.K.g.a.g.J.a. X X X X X X X$.$.$.$.K z g g 2 % $  X X X X X X X X",
" X X X X X X X X X X X X X X X X X X X( s ^ k.y.P.I.L.K.J.J.V.) v V 9.) N ] 9.a.a.a. .9.K.K.K.K.g.a.g.J.g.4. X X X X X XI $.$.$.I x g 3 >  X X X X X X X X X X X",
" X X X X X X X X X X X X X X XB.B.O.W s s } C.3.J.L.K.K.J.J.a.i r k 9.D +.I.L.g.a.9.X.a.K.K.K.g.a.a.J.J.a. . X X X X XI $.$.$.$.S g < *  X X X X X X X X X X X X",
" X X X X X X X X X X X X X X XH.N.W p F ' r.e.8.g.g.V.s.9.w.} ` i k 8._ Z.T.Q.R.A.3.[ g.K.K.g.a.a.g.K.g.9. X X X X XI $.$.$.$.I h 4 &  X X X X X X X X X X X X X",
" X X X X X X X X X X X X X Xi.0.R d Z ,.z.j.e.3.K.V.V.a.a.g.3.S.C.` 8._ g.L.U./.R.f.=.J.K.g.a.a.a.J.J.a. . X X X XJ $.$.$.$.$.N g 1  X X X X X X X X X X X X X X",
" X X X X X X X X X X X X X Xa...T p 1.].p.F.0.w.K.K.K.K.K.g.3.Z.'.Q.U.u.y.A.Z.R.`.L.3.g.g.a.a.a.g.J.a.9. X X X XV N N $.$.$.P h 4  X X X X X X X X X X X X X X X",
" X X X X X X X X X X X X X=.9.Q d Z 1.h.U.C.w.s.J.J.K.K.K.s.4.g.Q.Y.(.~.C.Z.s.Y.).A.q.a.a.a.a.a.g.g.a.=. X X XV j f j I $.U x 4  X X X X X X X X X X X X X X X X",
" X X X X X X X X X X X X X X( R a U 2.h.G.@.s.g.K.K.J.J.K.a.8.s.U.P./.W.u.Z.s.U.Q.g.9.a.a.a.a.a.g.a.9.D B B H K N g j P $.S g >  X X X X X X X X X X X X X X X X",
" X X X X X X X X X X X X X X XW a K &.r.C.3.f.J.K.K.K.K.J.9.a.s.J.L.W.L.3.g.9.L.P.a.9.a.a.a.a.a.a.a.| I $.$.$.$.S j l L S g ,  X X X X X X X X X X X X X X X X X",
" X X X X X X X X X X X X X X X~ s z Y 7.w.A.S.J.K.K.K.K.J.4.a.g.J.L.P.s. .a.4.J.J.0.w.a.a.a.a.a.a.7.Y $.$.$.$.J f j l l g 2  X X X X X X X X X X X X X X X X X X",
" X X X X X X X X X X X X X X XE s  XF  .9.D.U.A.J.K.K.K.g.9.s.g.K.L.K.a.=.w.3.H.g.9.a.a.a.a.a.a.a.' $.$.J N J z g g g g 4 *  X X X X X X X X X X X X X X X X X X",
" X X X X X X X X X X X X X X X X X X .3.6.D.U.J.g.g.J.J.i.9.g.J.V.V.V.X.[ 4.4.s.a.9.a.a.a.a.a.a.;.I K N j l z g g g g 2 =  X X X X X X X X X X X X X X X X X X X",
" X X X X X X X X X X X X X X X X X X3.d.G.T.P.K.K.J.g.g.=.3.9.i.V.V.w.] { 3.4.a.a.w.a.a.a.a.a.9.D N j g g h g g g 4 :  X X X X X X X X X X X X X X X X X X X X X",
" X X X X X X X X X X X X X X X X X X[ k.P.P.K.K.K.K.K.a.X.a.g.g.K.g.i.X.} 9.4.a.a.a.a.a.q.q.a.^ g g g g g g g 5 <  X X X X X X X X X X X X X X X X X X X X X X X",
" X X X X X X X X X X X X X X X X X X/ g.K.K.K.K.K.K.K.9.4.a.a.J.g.a.9.X.3.9.9.a.a.a.a.a.0.a.} g g g g g g 5 2 ;  X X X X X X X X X X X X X X X X X X X X X X X X",
" X X X X X X X X X X X X X X X X X X Xa.K.K.K.K.K.K.J.3.w.a.a.g.a.a.4.o.4.a.w.a.a.a.a.0.q.4.x g g g g 2 > =  X X X X X X X X X X X X X X X X X X X X X X X X X X",
" X X X X X X X X X X X X X X X X X X X X9.g.J.K.K.K.s.X.a.a.a.a.a.a.3.o.4.a.q.a.a.a.9.4.4.! 5 , , > &  X X X X X X X X X X X X X X X X X X X X X X X X X X X X X",
" X X X X X X X X X X X X X X X X X X X X X[ 4.9.a.a. .X.9.9.9.a.a.9.] [ o.4.o.4.4.X.X.3.s & &  X X X X X X X X X X X X X X X X X X X X X X X X X X X X X X X X X",
" X X X X X X X X X X X X X X X X X X X X X X X X X X X X X X X[ [ ]  X X X X X X X X X X X X X X X X X X X X X X X X X X X X X X X X X X X X X X X X X X X X X X",
" X X X X X X X X X X X X X X X X X X X X X X X X X X X X X X X X X X X X X X X X X X X X X X X X X X X X X X X X X X X X X X X X X X X X X X X X X X X X X X X X",
" X X X X X X X X X X X X X X X X X X X X X X X X X X X X X X X X X X X X X X X X X X X X X X X X X X X X X X X X X X X X X X X X X X X X X X X X X X X X X X X X",
" X X X X X X X X X X X X X X X X X X X X X X X X X X X X X X X X X X X X X X X X X X X X X X X X X X X X X X X X X X X X X X X X X X X X X X X X X X X X X X X X",
" X X X X X X X X X X X X X X X X X X X X X X X X X X X X X X X X X X X X X X X X X X X X X X X X X X X X X X X X X X X X X X X X X X X X X X X X X X X X X X X X"
};
