/* XPM */
static char *result[] = {
/* columns rows colors chars-per-pixel */
"80 80 190 2 ",
"   c #231423",
".  c #2A1E29",
"X  c #2D242D",
"o  c #302730",
"O  c #332B33",
"+  c #362C39",
"@  c #382F38",
"#  c #373237",
"$  c #3A353B",
"%  c #3D3A3D",
"&  c #4A2C20",
"*  c #4E352F",
"=  c #5A3728",
"-  c #473538",
";  c #593530",
":  c #663938",
">  c #54433C",
",  c #6C443B",
"<  c #6D493C",
"1  c #714E3E",
"2  c #72503F",
"3  c #3D3641",
"4  c #453745",
"5  c #413D41",
"6  c #4A3D4A",
"7  c #543B44",
"8  c #613C42",
"9  c #603F48",
"0  c #7F3F43",
"q  c #434243",
"w  c #444149",
"e  c #4C434B",
"r  c #4B4A4C",
"t  c #574449",
"y  c #5C434D",
"u  c #4E4D51",
"i  c #4E4854",
"p  c #504750",
"a  c #584756",
"s  c #524B54",
"d  c #5C4C53",
"f  c #544D5C",
"g  c #5C4C5A",
"h  c #535256",
"j  c #55545C",
"k  c #664042",
"l  c #694545",
"z  c #6D4A43",
"x  c #63454B",
"c  c #724243",
"v  c #7B4B4B",
"b  c #735241",
"n  c #71554B",
"m  c #7C5A4D",
"M  c #644C54",
"N  c #644D58",
"B  c #694E58",
"V  c #6D5554",
"C  c #6A575A",
"Z  c #775A53",
"A  c #73605D",
"S  c #5E5261",
"D  c #5E5B63",
"F  c #5F5F6A",
"G  c #635767",
"H  c #665A65",
"J  c #6B5B62",
"K  c #635C6B",
"L  c #695C69",
"P  c #6F6565",
"I  c #6E636D",
"U  c #766367",
"Y  c #6B6272",
"T  c #6B6976",
"R  c #726B76",
"E  c #7C6972",
"W  c #726E7B",
"Q  c #992F34",
"!  c #84363B",
"~  c #9A3436",
"^  c #9D4347",
"/  c #875758",
"(  c #8F5F5F",
")  c #A8585A",
"_  c #85625A",
"`  c #88685E",
"'  c #886666",
"]  c #8F6D6D",
"[  c #946567",
"{  c #926E6D",
"}  c #896C72",
"|  c #967373",
" . c #9B7676",
".. c #987877",
"X. c #96797B",
"o. c #9D7B7B",
"O. c #A86367",
"+. c #A86E71",
"@. c #A97075",
"#. c #A27D7C",
"$. c #AD7D7E",
"%. c #A4837C",
"&. c #AA857B",
"*. c #737384",
"=. c #777880",
"-. c #787883",
";. c #887D83",
":. c #987D80",
">. c #A47F80",
",. c #A97C86",
"<. c #85858F",
"1. c #9F8181",
"2. c #878793",
"3. c #8C8C94",
"4. c #968F93",
"5. c #93949E",
"6. c #98989A",
"7. c #A48383",
"8. c #AA8484",
"9. c #A58A85",
"0. c #AA8984",
"q. c #AC828B",
"w. c #AD8B8B",
"e. c #B48585",
"r. c #B08C86",
"t. c #B38C8C",
"y. c #AE9186",
"u. c #AE948B",
"i. c #B29585",
"p. c #B69987",
"a. c #B3938C",
"s. c #B8938D",
"d. c #B69A8C",
"f. c #BB9D8C",
"g. c #A39994",
"h. c #B49494",
"j. c #B99493",
"k. c #B79895",
"l. c #BB9B94",
"z. c #BD9C9B",
"x. c #BBA08E",
"c. c #BDA499",
"v. c #9C9DA3",
"b. c #A3A3A7",
"n. c #A3A3A9",
"m. c #B3AAA5",
"M. c #B8AEA9",
"N. c #BEB0AA",
"B. c #ABABB0",
"V. c #B2B2B4",
"C. c #B7B7BA",
"Z. c #BABABB",
"A. c #C09E93",
"S. c #C09F9D",
"D. c #C2A38E",
"F. c #C4A394",
"G. c #C7A896",
"H. c #CAAC96",
"J. c #C4A39B",
"K. c #C8A799",
"L. c #CCAC9C",
"P. c #CDB097",
"I. c #CEB09B",
"U. c #D2B59B",
"Y. c #D5BB9D",
"T. c #C5A4A3",
"R. c #C8A7A4",
"E. c #CCACA3",
"W. c #D0AFA2",
"Q. c #CCB7A8",
"!. c #D4B4A3",
"~. c #D6B9A3",
"^. c #DBBBA3",
"/. c #D7B8A8",
"(. c #DDBDA9",
"). c #C7BCB6",
"_. c #DEC5A4",
"`. c #DAC2B1",
"'. c #E0C0A7",
"]. c #E3C4AA",
"[. c #E8C7AE",
"{. c #E7C9AC",
"}. c #E9CAAD",
"|. c #EFCFB0",
" X c #F3D2B2",
".X c #C8C6C5",
"XX c #CCCCCD",
"oX c #D0D0D0",
"OX c #D5D5D5",
"+X c None",
/* pixels */
"+X+X+X+X+X+X+X+X+X+X+X+X+X+X+X+X+X+X+X+X+X+X+X+X+X+X+X+X+X+X+X+X+X+X+X+X+X+X+X+X+X+X+X+X+X+X+X+X+X+X+X+X+X+X+X+X+X+X+X+X+X+X+X+X+X+X+X+X+X+X+X+X+X+X+X+X+X+X+X+X",
"+X+X+X+X+X+X+X+X+X+X+X+X+X+X+X+X+X+X+X+X+X+X+X+X+X+X+X+X+X+X+X+X+X+X+X+X+X+X+X+X+X+X+X+X+X+X+X+X+X+X+X+X+X+X+X+X+X+X+X+X+X+X+X+X+X+X+X+X+X+X+X+X+X+X+X+X+X+X+X+X",
"+X+X+X+X+X+X+X+X+X+X+X+X+X+X+X+X+X+X+X+X+X+X+X+X+X+X+X+X+X+X+X+X+X+X+X+X+X+X+X+X+X+X+X+X+X+X+X+X+X+X+X+X+X+X+X+X+X+X+X+X+X+X+X+X+X+X+X+X+X+X+X+X+X+X+X+X+X+X+X+X",
"+X+X+X+X+X+X+X+X+X+X+X+X+X+X+X+X+X+X+X+X+X+X+X+X+X+X+X+X+X+X+X+X+X+X+X+X+X+X+X+X+X+X+X+X+X+X+X+X+X+X+X+X+X+X+X+X+X+X+X+X+X+X+X+X+X+X+X+X+X+X+X+X+X+X+X+X+X+X+X+X",
"+X+X+X+X+X+X+X+X+X+X+X+X+X+X+X+X+X+X+X+X+X+X+X+X+X+X+X+X+X+X+X+X+X+X+X+X+X+X+X+X+X+X+X+X+X+X+X+X+X+X+X+X+X+X+X+X+X+X+X+X+X+X+X+X+X+X+X+X+X+X+X+X+X+X+X+X+X+X+X+X",
"+X+X+X+X+X+X+X+X+X+X+X+X+X+X+X+X+X+X+X+X+X+X+X+X+X+X+X+X+X+X+X+X+X+X+X+X+X+X+X+X+X+X+X+X+X+X+X+X+X+X+X+X+X+X+X+X+X+X+X+X+X+X+X+X+X+X+X+X+X+X+X+X+X+X+X+X+X+X+X+X",
"+X+X+X+X+X+X+X+X+X+X+X+X+X+X+X+X+X+X+X+X+X+X+X+X+X+X+X+X+X+X+X+X+X+X+X+X+X+X+X+X+X+X+X+X+X+X+X+X+X+X+X+X+X+X+X+X+X+X+X+X+X+X+X+X+X+X+X+X+X+X+X+X+X+X+X+X+X+X+X+X",
"+X+X+X+X+X+X+X+X+X+X+X+X+X+X+X+X+X+X+X+X+X+X+X+X+X+X+X+X+X+X+X+X+X+X+X+X+X+X+X+X+X+X+X+X+X+X+X+X+X+X+X+X+X+X+X+X+X+X+X+X+X+X+X+X+X+X+X+X+X+X+X+X+X+X+X+X+X+X+X+X",
"+X+X+X+X+X+X+X+X+X+X+X+X+X+X+X+X+X+X+X+X+X+X+X+X+X+X+X+X+X+X+X+X+X+X+X+X+X+X+X+X+X+X+X+X+X+X+X+X+X+X+X+X+X+X+X+X+X+X+X+X+X+X+X+X+X+X+X+X+X+X+X+X+X+X+X+X+X+X+X+X",
"+X+X+X+X+X+X+X+X+X+X+X+X+X+X+X+X+X+X+X+X+X+X+X+X+X+X+X+X+X+X+X+X+X+X+X+X+X+X+X+X+X+X+X+X+X+X+X+X+X+X+X+X+X+X+X+X+X+X+X+X+X+X+X+X+X+X+X+X+X+X+X+X+X+X+X+X+X+X+X+X",
"+X+X+X+X+X+X+X+X+X+X+X+X+X+X+X+X+X+X+X+X+X+X+X+X+X+X+X+X+X+X+X+X+X+X+X+X+X+X+X+X+X+X+X+X+X+X+X+X+X+X+X+Xv.2.+X+X+X+X+X+X+X+X+X+X+X+X+X+X+X+X+X+X+X+X+X+X+X+X+X+X",
"+X+X+X+X+X+X+X+X+X+X+X+X+X+X+X+X+X+X+X+X+X+X+X+X+X+X+X+X+X+X+X+X+X+X+X+X+X+X+X+X+X+X+X+X+X+X+X+X+X+X+XC.B.<.+X+X+X+X+X+X+X+X+X+X+X+X+X+X+X+X+X+X+X+X+X+X+X+X+X+X",
"+X+X+X+X+X+X+X+X+X+X+X+X+X+X+X+X+X+X+X+X+X+X+X+X+X+X+X+X+X+X+X+X+X+X+X+X+X+X+X+X+X+X+X+X+X+X+X+X+XD.).XXv.n.-.+X+X+X+X+X+X+X+X+X+X+X+X+X+X+X+X+X+X+X+X+X+X+X+X+X",
"+X+X+X+X+X+X+X+X+X+X+X+X+X+X+X+X+X+X+X+X+X+X+X+X+X+X+X+X+X+X+X+X+X+X+X+XO o w r # +X+X+X+X+X+X+X^.^.U.m.<.2.+X+X+X+X+X+X+X+X+X+X+X+X+X+X+X+X+X+X+X+X+X+X+X+X+X+X",
"+X+X+X+X+X+X+X+X+X+X+X+X+X+X+X+X+X+X+X+X+X+X+X+X+X+X+X+X+X+X+X% r s u r $ $ w e 5 +X+X+X+X+X~.U.U.H.d.a.;.v.+X+X+X+X+X+X+X+X+X+X+X+X+X+X+X+X+X+X+X+X+X+X+X+X+X+X",
"+X+X+X+X+X+X+X+X+X+X+X+X+X+X+X+X+X+X+X+X+X<.+X+X+X+X+X+X+X+XO r h r w w y y g g y 7 +X+X'.{.{.].~.J.w.w.;.+X+X+X+X+X+X+X+X+X+X+X+X+X+X+X+X+X+X+X+X+X+X+X+X+X+X+X",
"+X+X+X+X+X+X+X+X+X+X+X+X+X+X+X+X+X+X-.<.3.b.+X+X+X+X+X+X+X+XO % % q 5 7 x M x : c &.'.|.}.(.E.E.T.T.w.| +X+X+X+X+X+X+X+X+X+X+X+X+X+X+X+X+X+X+X+X+X+X+X+X+X+X+X+X",
"+X+X+X+X+X+X+X+X+X+X+X+X+X+X+X+X+X+Xv.V.Z.V.+X+X+X+Xw.h.t.,.B M y q 5 6 N 9 8 / H.|.}./.E.T.T.T.T.z.o.+X+X+X+X+X+X+X+X+X+X+X+X+X+X+X+X+X+X+X+X+X+X+X+X+X+X+X+X+X",
"+X+X+X+X+X+X+X+X+X+X+X+X+X+X+X+X+X5.XXOXOXn.v.+X+Xw.h.$.) +.[ v ( +X+Xa B U :.(. X~.T.T.T.T.T.T.h.o.+X+X+X+X+X+X+X+X+X+X+X+X+X+X+X+X+X+X+X+X+X+X+X+X+X+X+X+X+X+X",
"+X+X+X+X+X+X+X+X+X+X+X+X+X+X+X+X+X5.XXOXoXC.B.+Xq.h.O.^ / x t k +X+Xf.l.c.~.(. X(.T.T.T.T.T.z.w.+X+X+X+X+X+X+X| #.0.w.w.7.+X+X+X+X+X+X+X+X+X+X+X+X+X+X+X+X+X+X+X",
"+X+X+X+X+X+X+X+X+X+X+X+X+X+X+X+X+X4.N.Q.Q.m.+X+X#.@.~ v C =.=.T +XL.}.(.(.[. X{.E.T.T.T.T.h.o.+X+X+X+X+X| 7.w.h.h.h.h.h.w.+X+X+X+X+X+X+X+X+X+X+X+X+X+X+X+X+X+X+X",
"+X+X+X+X+X+X+X+X+X+X+X+X+X+X+X+X+XF.U.U.U.x.+X+X+XQ 0 U v..XM.c.F.'.[./.}. X}.E.T.T.T.T.w.+X+X+X+X+Xo.0.h.h.h.h.h.h.h.h.w.+X+X+X+X+X+X+X+X+X+X+X+X+X+X+X+X+X+X+X",
"+X+X+X+X+X+X+X+X+X+X+X+X+X+X+X+X8.H.H.U.H.D.+X+X+X! M 6.m.`.~.K.~.|.].{. X[.E.T.T.T.z.X.+X+X+X+X| 7.h.h.h.h.h.h.h.h.h.h.t.+X+X+X+X+X+X+X+X+X+X+X+X+X+X+X+X+X+X+X",
"+X+X+X+X+X+X+X+X+X+X+X+X+X+X+X+Xw.H.~._._.H.+X+X/ : D g.!.s.w.J.'.}.~.'.(.E.T.T.T.h.X.G +X+X+X#.w.h.h.t.t.t.t.t.t.t.h.h.h.o.+X+X+X+X+X+X+X+X+X+X+X+X+X+X+X+X+X+X",
"+X+X+X+X+X+X+X+X+X+X+X+X+X+X+X+X+XI._._._.Y.+X+Xc : h u.a.0.!.(.(./.J.A.z.T.T.z.0.7.E Y S ] 7.t.t.t.j.s.t.t.t.e.e.e.e.t.h.7.+X+X+X+X+X+X+X+X+X+X+X+X+X+X+X+X+X+X",
"+X+X+X+X+X+X+X+X+X+X+X+X+X+X+X+X+XK._.Y.P.U.f.+X+X+X+Xi.l.(.}.E.R.T.T.S.h.h.w...1.9.Y Y } 8.t.h.h.k.J.J.J.J.k.h.h.h.h.h.h.t.| +X+X+X+X+X+X+X+X+X+X+X+X+X+X+X+X+X",
"+X+X+X+X+X+X+X+X+X+X+X+X+X+X+X+X+Xl.~.H.D.x.p.i.U.^.H.~.|.'.E.T.T.T.T.T.T.z.7.i.K.X.E :.t.s.t.t.k.l.z.h.k.J.L.J.k.h.h.h.h.h.#.+X+X+X+X+X+X+X+X+X+X+X+X+X+X+X+X+X",
"+X+X+X+X+X+X+X+X+X+X+X+X+X+X+X+X+X0.l.f.H.P.f.U.{.(.(.]./.J.T.T.T.T.T.T.z.t.#.F.L.%.#.t.k.J.F.J.k.k.J.J.k.h.k.W.E.k.h.h.h.h.9.+X+X+X+X+X+X+X+X+X+X+X+X+X+X+X+X+X",
"+X+X+X+X+X+X+X+X+X+X+X+X+X+X+X+X+X7.h.G.H.f.G.H.I.J.T.T.T.S.T.T.T.T.T.T.z.7.8.J.G.d.l.0.7.t.h.J.L.S.h.l.J.h.h.z.!.E.h.h.h.h.w.+X+X+X+X+X+X+X+X+X+X+X+X+X+X+X+X+X",
"+X+X+X+X+X+X+X+X+X+X+X+X+X+X+X+X+Xo.a.d.f.l.H.k.k.T.T.T.T.T.J.T.T.T.T.T.0.t.t.k.k.#.j.K.d.7.t.h.J.!.A.h.l.k.h.h.E./.J.h.h.h.w.+X+X+X+X+X+X+X+X+X+X+X+X+X+X+X+X+X",
"+X+X+X+X+X+X+X+X+X+X+X+X+X+X+X+X+X+X7.h.h.k.A.h.w.z.T.T.T.T.T.T.T.T.T.w.t.z.t.z.h.7.w.k.l.h.w.h.k.!.W.k.h.k.h.h.J./.E.h.h.h.9.+X+X+X+X+X+X+X+X+X+X+X+X+X+X+X+X+X",
"+X+X+X+X+X+X+X+X+X+X+X+X+X+X+X+X+X+X+Xo.9.h.h.h.w.h.T.T.T.T.T.T.z.T.h.0.z.z.h.z.w.o.w.h.h.h.a.t.h.L.~.F.h.k.h.h.z./.E.h.h.h.#.+X+X+X+X+X+X+X+X+X+X+X+X+X+X+X+X+X",
"+X+X+X+X+X+X+X+X+X+X+X+X+X+X+X+X+X+X+X+X+X| 7.w.h.w.T.T.T.T.T.T.z.w.#.h.t.j.z.z.9.#.w.h.h.h.h.h.h.J./.L.h.h.h.h.k.!.!.z.h.t.+X+X+X+X+X+X+X+X+X+X+X+X+X+X+X+X+X+X",
"+X+X+X+X+X+X+X+X+X+X+X+X+X+X+X+X+X+X+X+X+X+X+X+Xo.7.9.S.T.T.h.w.7.t.w.9.>.w.z.h.#.7.h.h.h.h.h.h.h.S.!.L.k.h.h.h.z.!./.z.h.0.+X+X+X+X+X+X+X+X+X+X+X+X+X+X+X+X+X+X",
"+X+X+X+X+X+X+X+X+X+X+X+X+X+X+X+X+X+X+X+X+X+X+X+X+X+X' | o.7.0.t.z.T.h.7.w.w.w.#.#.w.h.h.h.h.t.t.h.l.!.L.k.h.h.h.J././.z.h.7.+X+X+X+X+X+X+X+X+X+X+X+X+X+X+X+X+X+X",
"+X+X+X+X+X+X+X+X+X+X+X+X+X+X+X+X+X+X+X+X+X+X+X+X+X+X+X+X' #.t.z.z.h.h.h.h.0.o.o.7.h.h.h.h.h.e.t.h.k.!.L.l.h.h.h.E./.!.z.h.| +X+X+X+X+X+X+X+X+X+X+X+X+X+X+X+X+X+X",
"+X+X+X+X+X+X+X+X+X+X+X+X+X+X+X+X+X+X+X+X+X+X+X+X+X+X+X+X+X+X+X| 7.w.w.w.#.#.#.w.h.h.h.h.h.h.e.t.h.k.!.K.F.h.h.z.!./.E.h.w.+X+X+X+X+X+X+X+X+X+X+X+X+X+X+X+X+X+X+X",
"+X+X+X+X+X+X+X+X+X+X+X+X+X+X+X+X+X+X+X+X+X+X+X+X+X+X+X+X+X+X+X+X+X+X+X] o.0.h.t.h.h.h.h.h.t.e.t.h.w.0.%.8.w.h.!././.L.h.0.+X+X+X+X+X+X+X+X+X+X+X+X+X+X+X+X+X+X+X",
"+X+X+X+X+X+X+X+X+X+X+X+X+X+X+X+X+X+X+X+X+X+X+X+X+X+X+X+X+X+X+X+X+X+X+Xw.h.h.h.h.t.h.h.t.8.$.8.w.#.&.s.t.w.7.0.u.J.L.z.h.7.+X+X+X+X+X+X+X+X+X+X+X+X+X+X+X+X+X+X+X",
"+X+X+X+X+X+X+X+X+X+X+X+X+X+X+X+X+X+X+X+X+X+X+X+X+X+X+X+X+X+X+X+X+X+X+Xt.h.h.h.h.h.t.e.#.|  .#.9.t.F.F.h.h.h.h.u.9.0.0.w.o.+X+X+X+X+X+X+X+X+X+X+X+X+X+X+X+X+X+X+X",
"+X+X+X+X+X+X+X+X+X+X+X+X+X+X+X+X+X+X+X+X+X+X+X+X+X+X+X+X+X+X+X+X+X+X+X#.t.h.h.h.h.h.t.7.0.7.h.h.A.l.h.h.h.h.h.l.F.h.w.#.] +X+X+X+X+X+X+X+X+X+X+X+X+X+X+X+X+X+X+X",
"+X+X+X+X+X+X+X+X+X+X+X+X+X+X+X+X+X+X+X+X+X+X+X+X+X+X+X+X+X+X+X+X+X+X+X0.7.7.0.t.h.t.0.t.h.w.9.k.k.h.h.h.k.l.F.G.l.h.h.w.+X+X+X+X+X+X+X+X+X+X+X+X+X+X+X+X+X+X+X+X",
"+X+X+X+X+X+X+X+X+X+X+X+X+X+X+X+X+X+X+X+X+X+X+X+X+X+X+X+X+X+X+X+X+X+X+Xw.z.h.k.j.t.t.h.z.h.h.9.h.h.h.k.F.G.G.F.k.h.h.h.%.+X+X+X+X+X+X+X+X+X+X+X+X+X+X+X+X+X+X+X+X",
"+X+X+X+X+X+X+X+X+X+X+X+X+X+X+X+X+X+X+X+X+X+X+X+X+X+X+X+X+X+X+X+X+X+X+Xo.h.z.h.h.h.z.z.h.h.h.7.w.h.F.G.G.G.F.h.h.h.h.w.+X+X+X+X+X+X+X+X+X+X+X+X+X+X+X+X+X+X+X+X+X",
"+X+X+X+X+X+X+X+X+X+X+X+X+X+X+X+X+X+X+X+X+X+X+X+X+X+X+X+X+X+X+X+X+X+X+X+Xo.w.h.z.z.k.h.h.h.h.#.h.A.G.G.F.l.h.h.h.h.h.#.+X+X+X+X+X+X+X+X+X+X+X+X+X+X+X+X+X+X+X+X+X",
"+X+X+X+X+X+X+X+X+X+X+X+X+X+X+X+X+X+X+X+X+X+X+X+X+X+X+X+X+X+X+X+X+X+X+X+X+X7.h.h.h.h.h.h.h.k.y.0.F.G.F.k.h.h.h.h.h.w.+X+X+X+X+X+X+X+X+X+X+X+X+X+X+X+X+X+X+X+X+X+X",
"+X+X+X+X+X+X+X+X+X+X+X+X+X+X+X+X+X+X+X+X+X+X+X+X+X+X+X+X+X+X+X+X+X+X+X+X+Xo.h.h.h.h.h.h.k.F.l.0.r.A.k.h.h.h.h.h.w.+X+X+X+X+X+X+X+X+X+X+X+X+X+X+X+X+X+X+X+X+X+X+X",
"+X+X+X+X+X+X+X+X+X+X+X+X+X+X+X+X+X+X+X+X+X+X+X+X+X+X+X+X+X+X+X+X+X+X+X+X+Xa.h.h.h.h.k.F.G.F.h.h.w.0.w.h.h.h.h.w.+X+X+X+X+X+X+X+X+X+X+X+X+X+X+X+X+X+X+X+X+X+X+X+X",
"+X+X+X+X+X+X+X+X+X+X+X+X+X+X+X+X+X+X+X+X+X+X+X+X+X+X+X+X+X+X+X+X+X+X+X+Xy.G.A.l.A.F.G.G.G.k.h.h.h.h.w.w.h.h.t. .+X+X+X+X+X+X+X+X+X+X+X+X+X+X+X+X+X+X+X+X+X+X+X+X",
"+X+X+X+X+X+X+X+X+X+X+X+X+X+X+X+X+X+X+X+X+X+X+X+X+X+X+X+X+X+X+X+X+X+X+X+Xf.G.G.G.G.G.G.G.A.h.h.h.h.h.h.9.w.h.{ l +X+X+X+X+X+X+X+X+X+X+X+X+X+X+X+X+X+X+X+X+X+X+X+X",
"+X+X+X+X+X+X+X+X+X+X+X+X+X+X+X+X+X+X+X+X+X+X+X+X+X+X+X+X+X+X+X+X+X+X+X+Xf.G.G.G.G.G.G.F.h.h.h.h.h.h.h.o.o. .V H S +X+X+X+X+X+X+X+X+X+X+X+X+X+X+X+X+X+X+X+X+X+X+X",
"+X+X+X+X+X+X+X+X+X+X+X+X+X+X+X+X+X+X+X+X+X+X+X+X+X+X+X+X+X+X+X+X+X+X+X+Xs.G.G.G.G.F.l.h.h.h.h.h.h.h.w.Z ` m J Y Y K y +X+X+X+X+X+X+X+X+X+X+X+X+X+X+X+X+X+X+X+X+X",
"+X+X+X+X+X+X+X+X+X+X+X+X+X+X+X+X+X+X+X+X+X+X+X+X+X+X+X+X+X+X+X+X+X+X+X+Xw.F.F.l.k.h.h.h.h.h.h.h.h.0._ b b n Y Y Y Y J , +X+X+X+X+X+X+X+X+X+X+X+X+X+X+X+X+X+X+X+X",
"+X+X+X+X+X+X+X+X+X+X+X+X+X+X+X+X+X+X+X+X+X+X+X+X+X+X+X+X+X+X+X+X+X+X+X+X7.h.h.h.h.h.h.h.h.h.h.0.o.+X, b b V H L I L C z +X+X+X+X+X+X+X+X+X+X+X+X+X+X+X+X+X+X+X+X",
"+X+X+X+X+X+X+X+X+X+X+X+X+X+X+X+X+X+X+X+X+X+X+X+X+X+X+X+X+X+X+X+X+X+X+X+X+Xt.h.h.h.h.h.t.w.7.| +X+X+X+Xz V n n n n n b b 1 , +X+X+X+X+X+X+X+X+X+X+X+X+X+X+X+X+X+X",
"+X+X+X+X+X+X+X+X+X+X+X+X+X+X+X+X+X+X+X+X+X+X+X+X+X+X+X+X+X+X+X+X+X+X+X+X+Xo.w.t.w.7.o.| +X+X+X+X+X+X+X+Xx V I R W W Y P A A C N +X+X+X+X+X+X+X+X+X+X+X+X+X+X+X+X",
"+X+X+X+X+X+X+X+X+X+X+X+X+X+X+X+X+X+X+X+X+X+X+X+X+X+X+X+X+X+X+X+X+X+X+X+X+X+X{ { +X+X+X+X+X+X+X+X+X+X+X+X+X: l V I W *.*.*.*.*.D d d +X+X+X+X+X+X+X+X+X+X+X+X+X+X",
"+X+X+X+X+X+X+X+X+X+X+X+X+X+X+X+X+X+X+X+X+X+X+X+X+X+X+X+X+X+X+X+X+X+X+X+X+X+X+X+X+X+X+X+X+X+X+X+X+X+X+X+X+X+X+X: z V J I R W K j T F s +X+X+X+X+X+X+X+X+X+X+X+X+X",
"+X+X+X+X+X+X+X+X+X+X+X+X+X+X+X+X+X+X+X+X+X+X+X+X+X+X+X+X+X+X+X+X+X+X+X+X+X+X+X+X+X+X+X+X+X+X+X+X+X+X+X+X+X+X+X+X+X, 2 b n n H u h u r e +X+X+X+X+X+X+X+X+X+X+X+X",
"+X+X+X+X+X+X+X+X+X+X+X+X+X+X+X+X+X+X+X+X+X+X+X+X+X+X+X+X+X+X+X+X+X+X+X+X+X+X+X+X+X+X+X+X+X+X+X+X+X+X+X+X+X+Xs e +X+X, b b < P w r 5 5 r O +X+X+X+X+X+X+X+X+X+X+X",
"+X+X+X+X+X+X+X+X+X+X+X+X+X+X+X+X+X+X+X+X+X+X+X+X+X+X+X+X+X+X+X+X+X+X+X+X+X+X+X+X+X+X+X+X+X+X+X+X+X+X+Xg +Xs s p 6 +X+X< b = > w 5 # % @ +X+X+X+X+X+X+X+X+X+X+X+X",
"+X+X+X+X+X+X+X+X+X+X+X+X+X+X+X+X+X+X+X+X+X+X+X+X+X+X+X+X+X+X+X+X+X+X+X+X+X+X+X+X+X+X+X+X+X+X+X+X+X+X+Xs s s s s p 6 +X+X< = +X$ q @ O @ +X+X+X+X+X+X+X+X+X+X+X+X",
"+X+X+X+X+X+X+X+X+X+X+X+X+X+X+X+X+X+X+X+X+X+X+X+X+X+X+X+X+X+X+X+X+X+X+X+X+X+X+X+X+X+X+X+X+X+X+X+X+X+Xe s s s s e p f + X ; +X+X+X5 # # q @ +X+X+X+X+X+X+X+X+X+X+X",
"+X+X+X+X+X+X+X+X+X+X+X+X+X+X+X+X+X+X+X+X+X+X+X+X+X+X+X+X+X+X+X+X+X+X+X+X+X+X+X+X+X+X+X+X+X+X+X+X+X+X4 p s s e s s % % # X +X+X+Xw 5 % q # +X+X+X+X+X+X+X+X+X+X+X",
"+X+X+X+X+X+X+X+X+X+X+X+X+X+X+X+X+X+X+X+X+X+X+X+X+X+X+X+X+X+X+X+X+X+X+X+X+X+X+X+X+X+X+X+X+X+X+X+X+X+X+Xe s e - j i # # X O X +X+X5 - % q O +X+X+X+X+X+X+X+X+X+X+X",
"+X+X+X+X+X+X+X+X+X+X+X+X+X+X+X+X+X+X+X+X+X+X+X+X+X+X+X+X+X+X+X+X+X+X+X+X+X+X+X+X+X+X+X+X+X+X+X+X+X+X+X6 e * & 5 3 % O # q O +X+X+X5 5 % +X+X+X+X+X+X+X+X+X+X+X+X",
"+X+X+X+X+X+X+X+X+X+X+X+X+X+X+X+X+X+X+X+X+X+X+X+X+X+X+X+X+X+X+X+X+X+X+X+X+X+X+X+X+X+X+X+X+X+X+X+X+X+X+X+X- & +X+XO # O % # +X+X+X+Xw % O +X+X+X+X+X+X+X+X+X+X+X+X",
"+X+X+X+X+X+X+X+X+X+X+X+X+X+X+X+X+X+X+X+X+X+X+X+X+X+X+X+X+X+X+X+X+X+X+X+X+X+X+X+X+X+X+X+X+X+X+X+X+X+X+X+X+X+X+X+X# O O X   +X+X+X+X% @ +X+X+X+X+X+X+X+X+X+X+X+X+X",
"+X+X+X+X+X+X+X+X+X+X+X+X+X+X+X+X+X+X+X+X+X+X+X+X+X+X+X+X+X+X+X+X+X+X+X+X+X+X+X+X+X+X+X+X+X+X+X+X+X+X+X+X+X+X+X+X% X X O # +X+X+X+X@ +X+X+X+X+X+X+X+X+X+X+X+X+X+X",
"+X+X+X+X+X+X+X+X+X+X+X+X+X+X+X+X+X+X+X+X+X+X+X+X+X+X+X+X+X+X+X+X+X+X+X+X+X+X+X+X+X+X+X+X+X+X+X+X+X+X+X+X+X+X+XX # X q q % +X+X+X+X+X+X+X+X+X+X+X+X+X+X+X+X+X+X+X",
"+X+X+X+X+X+X+X+X+X+X+X+X+X+X+X+X+X+X+X+X+X+X+X+X+X+X+X+X+X+X+X+X+X+X+X+X+X+X+X+X+X+X+X+X+X+X+X+X+X+X+X+X+X+X+XX X # q % O +X+X+X+X+X+X+X+X+X+X+X+X+X+X+X+X+X+X+X",
"+X+X+X+X+X+X+X+X+X+X+X+X+X+X+X+X+X+X+X+X+X+X+X+X+X+X+X+X+X+X+X+X+X+X+X+X+X+X+X+X+X+X+X+X+X+X+X+X+X+X+X+X+X+XX X X # O . +X+X+X+X+X+X+X+X+X+X+X+X+X+X+X+X+X+X+X+X",
"+X+X+X+X+X+X+X+X+X+X+X+X+X+X+X+X+X+X+X+X+X+X+X+X+X+X+X+X+X+X+X+X+X+X+X+X+X+X+X+X+X+X+X+X+X+X+X+X+X+X+X+X+X+X    X +X+X+X+X+X+X+X+X+X+X+X+X+X+X+X+X+X+X+X+X+X+X+X",
"+X+X+X+X+X+X+X+X+X+X+X+X+X+X+X+X+X+X+X+X+X+X+X+X+X+X+X+X+X+X+X+X+X+X+X+X+X+X+X+X+X+X+X+X+X+X+X+X+X+X+X+X+X+X+X+X+X+X+X+X+X+X+X+X+X+X+X+X+X+X+X+X+X+X+X+X+X+X+X+X",
"+X+X+X+X+X+X+X+X+X+X+X+X+X+X+X+X+X+X+X+X+X+X+X+X+X+X+X+X+X+X+X+X+X+X+X+X+X+X+X+X+X+X+X+X+X+X+X+X+X+X+X+X+X+X+X+X+X+X+X+X+X+X+X+X+X+X+X+X+X+X+X+X+X+X+X+X+X+X+X+X",
"+X+X+X+X+X+X+X+X+X+X+X+X+X+X+X+X+X+X+X+X+X+X+X+X+X+X+X+X+X+X+X+X+X+X+X+X+X+X+X+X+X+X+X+X+X+X+X+X+X+X+X+X+X+X+X+X+X+X+X+X+X+X+X+X+X+X+X+X+X+X+X+X+X+X+X+X+X+X+X+X",
"+X+X+X+X+X+X+X+X+X+X+X+X+X+X+X+X+X+X+X+X+X+X+X+X+X+X+X+X+X+X+X+X+X+X+X+X+X+X+X+X+X+X+X+X+X+X+X+X+X+X+X+X+X+X+X+X+X+X+X+X+X+X+X+X+X+X+X+X+X+X+X+X+X+X+X+X+X+X+X+X",
"+X+X+X+X+X+X+X+X+X+X+X+X+X+X+X+X+X+X+X+X+X+X+X+X+X+X+X+X+X+X+X+X+X+X+X+X+X+X+X+X+X+X+X+X+X+X+X+X+X+X+X+X+X+X+X+X+X+X+X+X+X+X+X+X+X+X+X+X+X+X+X+X+X+X+X+X+X+X+X+X",
"+X+X+X+X+X+X+X+X+X+X+X+X+X+X+X+X+X+X+X+X+X+X+X+X+X+X+X+X+X+X+X+X+X+X+X+X+X+X+X+X+X+X+X+X+X+X+X+X+X+X+X+X+X+X+X+X+X+X+X+X+X+X+X+X+X+X+X+X+X+X+X+X+X+X+X+X+X+X+X+X",
"+X+X+X+X+X+X+X+X+X+X+X+X+X+X+X+X+X+X+X+X+X+X+X+X+X+X+X+X+X+X+X+X+X+X+X+X+X+X+X+X+X+X+X+X+X+X+X+X+X+X+X+X+X+X+X+X+X+X+X+X+X+X+X+X+X+X+X+X+X+X+X+X+X+X+X+X+X+X+X+X"
};
