/* XPM */
static char *result[] = {
/* columns rows colors chars-per-pixel */
"80 80 200 2 ",
"   c #231423",
".  c #271A27",
"X  c #2C222C",
"o  c #352B34",
"O  c #342C34",
"+  c #363136",
"@  c #3A343A",
"#  c #3C3A3C",
"$  c #4E1413",
"%  c #4C1C18",
"&  c #541D1C",
"*  c #53221E",
"=  c #562526",
"-  c #562822",
";  c #592A24",
":  c #5D2B2B",
">  c #53342F",
",  c #5D312D",
"<  c #412D33",
"1  c #493231",
"2  c #543636",
"3  c #5C3433",
"4  c #533C3D",
"5  c #5B3939",
"6  c #602F2E",
"7  c #61332D",
"8  c #633232",
"9  c #653B32",
"0  c #653939",
"q  c #693D3C",
"w  c #6B4437",
"e  c #6B453A",
"r  c #6D4C3B",
"t  c #714E3F",
"y  c #423E43",
"u  c #4A3E4B",
"i  c #553D45",
"p  c #793E44",
"a  c #414141",
"s  c #48454A",
"d  c #4D4A4E",
"f  c #574246",
"g  c #594146",
"h  c #55434C",
"j  c #5C454C",
"k  c #4E4B53",
"l  c #534452",
"z  c #5D4750",
"x  c #564956",
"c  c #5D4B55",
"v  c #5C4D5B",
"b  c #57555D",
"n  c #5D515E",
"m  c #6C4643",
"M  c #61444A",
"N  c #694C49",
"B  c #734C46",
"V  c #6D5145",
"C  c #67534A",
"Z  c #6C564C",
"A  c #735241",
"S  c #70594F",
"D  c #634F58",
"F  c #695553",
"G  c #6D5857",
"H  c #66555C",
"J  c #6C585B",
"K  c #755B54",
"L  c #765558",
"P  c #7C5E5B",
"I  c #75605A",
"U  c #7E605D",
"Y  c #5D5463",
"T  c #5E5B63",
"R  c #615262",
"E  c #635A63",
"W  c #6A5D64",
"Q  c #625D69",
"!  c #695B69",
"~  c #6C6067",
"^  c #64616D",
"/  c #6B626D",
"(  c #746A68",
")  c #676472",
"_  c #696574",
"`  c #6E6B7B",
"'  c #72727C",
"]  c #922B2E",
"[  c #824045",
"{  c #815556",
"}  c #9C595B",
"|  c #A44749",
" . c #A85A5C",
".. c #86625D",
"X. c #9F5B66",
"o. c #826262",
"O. c #876867",
"+. c #916D6A",
"@. c #867264",
"#. c #8E726D",
"$. c #94736B",
"%. c #9A6D70",
"&. c #8C7A78",
"*. c #957474",
"=. c #987775",
"-. c #9A7973",
";. c #9E7B7B",
":. c #A8696E",
">. c #A3777B",
",. c #AC7F7E",
"<. c #9A8275",
"1. c #9D817B",
"2. c #AE8F62",
"3. c #A2837C",
"4. c #A8847D",
"5. c #737383",
"6. c #7B7A85",
"7. c #7F7F89",
"8. c #917F80",
"9. c #878589",
"0. c #918486",
"q. c #8C8C93",
"w. c #8E8E98",
"e. c #93939A",
"r. c #9A999D",
"t. c #A58483",
"y. c #AB8384",
"u. c #A78A86",
"i. c #AC8D83",
"p. c #AC8A8A",
"a. c #B38484",
"s. c #B38C8C",
"d. c #AD9184",
"f. c #AE918E",
"g. c #B29687",
"h. c #B3948B",
"j. c #B9908D",
"k. c #B4998B",
"l. c #BA9B8D",
"z. c #B18E91",
"x. c #A99896",
"c. c #B49393",
"v. c #B99694",
"b. c #BB9B94",
"n. c #B29E9E",
"m. c #BC9B9B",
"M. c #BCA08E",
"N. c #BFA194",
"B. c #B9A69B",
"V. c #9B9BA2",
"C. c #A2A2A7",
"Z. c #ABA3A2",
"A. c #AAAAAF",
"S. c #B5AAA9",
"D. c #A9A9B0",
"F. c #B3B3B5",
"G. c #B8B3B3",
"H. c #BBBBBC",
"J. c #C39F96",
"K. c #C19F9F",
"L. c #C1A08F",
"P. c #C3A494",
"I. c #C4A49A",
"U. c #CAA799",
"Y. c #CBAB9C",
"T. c #CEB199",
"R. c #D3B39D",
"E. c #D9BA9F",
"W. c #C2A2A1",
"Q. c #CCACA2",
"!. c #D0AFA0",
"~. c #CAB5A7",
"^. c #D5B4A4",
"/. c #DABAA5",
"(. c #DABAA7",
"). c #D5B4A8",
"_. c #C6B9BA",
"`. c #D0BDB2",
"'. c #E0BFA5",
"]. c #DFC1A3",
"[. c #E1C2A6",
"{. c #E4C5AB",
"}. c #E8C7AD",
"|. c #E5C8A9",
" X c #EBCBAD",
".X c #EECDB0",
"XX c #EDD1B4",
"oX c #F5D4B3",
"OX c #F2D6BB",
"+X c #BDBDC0",
"@X c #C5C5C5",
"#X c #CCCBCB",
"$X c #D2CDC8",
"%X c #D2D0CE",
"&X c #D4D3D3",
"*X c #DEDEDF",
"=X c #E7D9CB",
"-X c #DFE0E0",
";X c gray92",
":X c None",
/* pixels */
":X:X:X:X:X:X:X:X:X:X:X:X:X:X:X:X:X:X:X:X:X:X:X:X:X:X:X:X:X:X:X:X:X:X:X:X:X:X:X:X:X:X:X:X:X:X:X:X:X:X:X:X:X:X:X:X:X:X:X:X:X:X:X:X:X:X:X:X:X:X:X:X:X:X:X:X:X:X:X:X",
":X:X:X:X:X:X:X:X:X:X:X:X:X:X:X:X:X:X:X:X:X:X:X:X:X:X:X:X:X:X:X:X:X:X:X:X:X:X:X:X:X:X:X:X:X:X:X:X:X:X:X:X:X:X:X:X:X:X:X:X:X:X:X:X:X:X:X:X:X:X:X:X:X:X:X:X:X:X:X:X",
":X:X:X:X:X:X:X:X:X:X:X:X:X:X:X:X:X:X:X:X:X:X:X:X:X:X:X:X:X:X:X:X:X:X:X:X:X:X:X:X:X:X:X:X:X:X:X:X:X:X:X:X:X:X:X:X:X:X:X:X:X:X:X:X:X:X:X:X:X:X:X:X:X:X:X:X:X:X:X:X",
":X:X:X:X:X:X:X:X:X:X:X:X:X:X:X:X:X:X:X:X:X:X:X:X:X:X:X:X:X:X:X:X:X:X:X:X:X:X:X:X:X:X:X:X:X:X:X:X:X:X:X:X:X:X:X:X:X:X:X:X:X:X:X:X:X:X:X:X:X:X:X:X:X:X:X:X:X:X:X:X",
":X:X:X:X:X:X:X:X:X:X:X:X:X:X:X:X:X:X:X:X:X:X:X:X:X:X:X:X:X:X:X:X:X:X:X:X:X:X:X:X:X:X:X:X:X:X:X:X:X:X:X:X:X:X:X:X:X:X:X:X:X:X:X:X:X:X:X:X:X:X:X:X:X:X:X:X:X:X:X:X",
":X:X:X:X:X:X:X:X:X:X:X:X:X:X:X:X:X:X:X:X:X:X:X:X:X:X:X:X:X:X:X:X:X:X:X:X:X:X:X:X:X:X:X:X:X:X:X:X:X:X:X:X:X:X:X:X:X:X:X:X:X:X:X:X:X:X:X:X:X:X:X:X:X:X:X:X:X:X:X:X",
":X:X:X:X:X:X:X:X:X:X:X:X:X:X:X:X:X:X:X:X:X:X:X:X:X:X:X:X:X:X:X:X:X:X:X:X:X:X:X:X:X:Xy.s.z.p.:X:X:X:X:X:X:X:X:X:X:X:X:X:X:X:X:X:X:X:X:X:X:X:X:X:X:X:X:X:X:X:X:X:X",
":X:X:X:X:X:X:X:X:X:X:X:X:X:X:X:X:X:X:X:X:X:X:X:X:X:X:X:X:X:X:X:X:X:X:X:X:X:X:X%.,. .| | :.s.z.:X:X:X:X:X:X:X:X:X:X:X:X:X:X:X:X:X:X:X:X:X:X:X:X:X:X:X:X:X:X:X:X:X",
":X:X:X:X:X:X:X:X:X:X:X:X:X:X:X:X:X:X:X:X:X:X:X:X:X:X:X:X:X:X:X:X:X:X:X:X:X:X:X0 0 L { } | | :.>.:X:X:X:X:X:X:X:X:X:X:X:X:X:X:X:X:X:X:X:X:X:X:X:X:X:X:X:X:X:X:X:X",
":X:X:X:X:X:X:X:X:X:X:X:X:X:X:X:X:X:X:X:X:X:X:X:X:X:X:X:X:X:X:X:X:X:X:X:X:X:X:X5 / 6./ D L } ] X.:X:X:X:X:X:X:X:X:X:X:X:X:X:X:X:X:X:X:X:X:X:X:X:X:X:X:X:X:X:X:X:X",
":X:X:X:X:X:X:X:X:X:X:X:X:X:X:X:X:X:X:X:X:X:X:X:X:X:X:X:X:X:X:X:X:X:X:X:X:X:X:X:X+XH.r.' E M [ ] :X:X:X:X:X:X:X:X:X:X:X:X:X:X:X:X:X:X:X:X:X:X:X:X:X:X:X:X:X:X:X:X",
":X:X:X:X:X:X:X:X:X:X:X:X:X:X:X:X:X:X:X:X:X:X:X:X:X:X:X:X:X:X:X:X:X:X:X:X:X:X|.~.`.B.x.9.q.( q p :X:X:X:X:X:X:X:X:X:X:X:X:X:X:X:X:X:X:X:X:X:X:X:X:X:X:X:X:X:X:X:X",
":X:X:X:X:X:X:X:X:X:X:X:X:X:X:X:X:X:X:X:X:X:X:X:X:X:X:X:X:X:X:X:X:X:X:X:XP.P.l.l.P.U.^./.B.2.r q :X:X:X:X:X:X:X:X:X:X:X:X:X:X:X:X:X:X:X:X:X:X:X:X:X:X:X:X:X:X:X:X",
":X:X:X:X:X:X:X:X:X:X:X:X:X:X:X:X:X:X:X:X:X:X:X:X:X:X:X:X:X:X:X:X:X:X:X:Xi.;.k.U.U.{.oXoXoXR.I 8 :X:X:X:X:X:X:X:X:X:X:X:X:X:X:X:X:X:X:X:X:X:X:X:X:X:X:X:X:X:X:X:X",
":X:X:X:X:X:X:X:X:X:X:X:X:X:X:X:X:X:X:X:X:X:X:X:X:X:X:X:X:X:X:X:X:X:X:X:XU.R..X{.U.).(.{. XoXR.:X:X:X:X:X:X:X:X:X:X:X:X:X:X:X:X:X:X:X:X:X:X:X:X:X:X:X:X:X:X:X:X:X",
":X:X:X:X:X:X:X:X:X:X:X:X:X:X:X:X:X:X:X:X:X:X:X:X:X:X:X:X:X:X:X:X:X:XE.{.{.oXoX{.}.{.}.}.(.(.h.:X:X:X:X:X:X:X:X:X:X:X:X:X:X:X:X:X:X:X:X:X:X:X:X:X:X:X:X:X:X:X:X:X",
":X:X:X:X:X:X:X:X:X:X:X:X:X:X:X:X:X:X:X:X:X:X:X:X:X:X:X:X:X:X:X:X:X{.oXoX XoX}.oXoXoXoXoX(.W.;.:X:X:X:X:X:X:X:X:X:X:X:X:X:X:X:X:X:X:X:X:X:X:X:X:X:X:X:X:X:X:X:X:X",
":X:X:X:X:X:X:X:X:X:X:X:X:X:X:X:X:X:X:X:X:X:X:X:X:X:X:X:X:X:X:X:X/.oXoX X|.}.oXoXoXoX X(.W.s.y.:X:X:X:X:X:X:X:X:X:X:X:X:X:X:X:X:X:X:X:X:X:X:X:X:X:X:X:X:X:X:X:X:X",
":X:X:X:X:X:X:X:X:X:X:X:X:X:X:X:X:X:X:X:X:X:X:X:X:X:X:X:X:X:X:X:XE.oXoX{.E. XoX.XoX{.Q.v.y.c.v.:X:X:X:X:X:X:X:X:X:X:X:X:X:X:X:X:X:X:X:X:X:X:X:X:X:X:X:X:X:X:X:X:X",
":X:X:X:X:X:X:X:X:X:X:X:X:X:X:X:X:X:X:X:X:X:X:X:X:X:X:X:X:X:X:X:XT.oXoX].{.{.(.).).I.y.c.m.W.m.:X:X:X:X:X:X:X:X:X:X:X:X:X:X:X:X:X:X:X:X:X:X:X:X:X:X:X:X:X:X:X:X:X",
":X:X:X:X:X:X:X:X:X:X:X:X:X:X:X:X:X:X:X:X:X:X:X:X:X:X:X:X:X:X:X:XP.[.L.E. X}.|.}.).t.s.W.K.W.c.:X:X:X:X:X:X:X:X:X:X:X:X:X:X:X:X:X:X:X:X:X:X:X:X:X:X:X:X:X:X:X:X:X",
":X:X:X:X:X:X:X:X:X:X:X:X:X:X:X:X:X:X:X:X:X:X:X:X:X:X:X:X:X:X:X:X:Xh.i.{.oXoXoXoX/.y.W.m.W.m.p.:X:X:X:X:X:X:X:X:X:X:X:X:X:X:X:X:X:X:X:X:X:X:X:X:X:X:X:X:X:X:X:X:X",
":X:X:X:X:X:X:X:X:X:X:X:X:X:X:X:X:X:X:X:X:X:X:X:X:X:X:X:X:X:X:X:X:Xc.Y.oXoXoXoXoXY.s.m.K.W.m.*.:X:X:X:X:X:X:X:X:X:X:X:X:X:X:X:X:X:X:X:X:X:X:X:X:X:X:X:X:X:X:X:X:X",
":X:X:X:X:X:X:X:X:X:X:X:X:X:X:X:X:X:X:X:X:X:X:X:X:X:X:X:X:X:X:X:X:Xp.R.oX}.[.'.'.b.c.s.s.K.m.3.:X:X:X:X:X:X:X:X:X:X:X:X:X:X:X:X:X:X:X:X:X:X:X:X:X:X:X:X:X:X:X:X:X",
":X:X:X:X:X:X:X:X:X:X:X:X:X:X:X:X:X:X:X:X:X:X:X:X:X:X:X:X:X:X:X:X:X:XE.[.}.OXOXXXM.;.>.;.*.1.k.l.-.:X:X:X:X:X:X:X:X:X:X:X:X:X:X:X:X:X:X:X:X:X:X:X:X:X:X:X:X:X:X:X",
":X:X:X:X:X:X:X:X:X:X:X:X:X:X:X:X:X:X:X:X:X:X:X:X:X:X:X:X:X:X:X:X:XM.{.=X=X%X&X$XB.,.s.p.*.*.i.k.u.<.&.:X:X:X:X:X:X:X:X:X:X:X:X:X:X:X:X:X:X:X:X:X:X:X:X:X:X:X:X:X",
":X:X:X:X:X:X:X:X:X:X:X:X:X:X:X:X:X:X:X:X:X:X:X:X:X:X:X:X:X:X:X:X:X~.$XD.w.H.*X-X#Xu.t.;.t.1.3.3.<.g.b.x.:X:X:X:X:X:X:X:X:X:X:X:X:X:X:X:X:X:X:X:X:X:X:X:X:X:X:X:X",
":X:X:X:X:X:X:X:X:X:X:X:X:X:X:X:X:X:X:X:X:X:X:X:X:X:X:X:X:X:X:X:X:Xx.9.5.q.#X;X#X&X_.b.U.v.h.d.,.4.g.G.F.C.e.:X:X:X:X:X:X:X:X:X:X:X:X:X:X:X:X:X:X:X:X:X:X:X:X:X:X",
":X:X:X:X:X:X:X:X:X:X:X:X:X:X:X:X:X:X:X:X:X:X:X:X:X:X:X:X:X:X:X:X:X:X8.0.r.&X;X#XH.G.Y.Y.v.v.l.4.a.x.C.#X&X@XF.V.:X:X:X:X:X:X:X:X:X:X:X:X:X:X:X:X:X:X:X:X:X:X:X:X",
":X:X:X:X:X:X:X:X:X:X:X:X:X:X:X:X:X:X:X:X:X:X:X:X:X:X:X:X:X:X:X:X:X:X:Xh.Z.H.&X&XH.S.U.b.s.b.k.t.>.&.e.@X#XC.e.C.A.V.:X:X:X:X:X:X:X:X:X:X:X:X:X:X:X:X:X:X:X:X:X:X",
":X:X:X:X:X:X:X:X:X:X:X:X:X:X:X:X:X:X:X:X:X:X:X:X:X:X:X:X:X:X:X:X:X:X:XJ.B.F.@X@XZ.c.v.c.s.b.M.t.*.I ' V.#Xr.` 7.e.F.:X:X:X:X:X:X:X:X:X:X:X:X:X:X:X:X:X:X:X:X:X:X",
":X:X:X:X:X:X:X:X:X:X:X:X:X:X:X:X:X:X:X:X:X:X:X:X:X:X:X:X:X:X:X:X:X:X:Xv.v.n.S.Z.x.c.c.s.j.N.P.t.;.=.:X:X:XF.7.7.q.V.:X:X:X:X:X:X:X:X:X:X:X:X:X:X:X:X:X:X:X:X:X:X",
":X:X:X:X:X:X:X:X:X:X:X:X:X:X:X:X:X:X:X:X:X:X:X:X:X:X:X:X:X:X:X:X:X:X:Xp.c.s.c.c.c.s.s.a.b.U.P.u.u.t.:X:X:X:X:X' 6.:X:X:X:X:X:X:X:X:X:X:X:X:X:X:X:X:X:X:X:X:X:X:X",
":X:X:X:X:X:X:X:X:X:X:X:X:X:X:X:X:X:X:X:X:X:X:X:X:X:X:X:X:X:X:X:X:X:X:Xa.a.a.y.s.s.s.s.s.b.Y.k.u.p.t.P :X:X:X:X:X:X:X:X:X:X:X:X:X:X:X:X:X:X:X:X:X:X:X:X:X:X:X:X:X",
":X:X:X:X:X:X:X:X:X:X:X:X:X:X:X:X:X:X:X:X:X:X:X:X:X:X:X:X:X:X:X:X:X:X:Xa.a.s.s.s.c.s.a.v.P.h.t.p.c.t.L T :X:X:X:X:X:X:X:X:X:X:X:X:X:X:X:X:X:X:X:X:X:X:X:X:X:X:X:X",
":X:X:X:X:X:X:X:X:X:X:X:X:X:X:X:X:X:X:X:X:X:X:X:X:X:X:X:X:X:X:X:X:X:X:Xc.c.c.s.c.c.s.c.I.Y.p.u.c.c.=.D ` ^ :X:X:X:X:X:X:X:X:X:X:X:X:X:X:X:X:X:X:X:X:X:X:X:X:X:X:X",
":X:X:X:X:X:X:X:X:X:X:X:X:X:X:X:X:X:X:X:X:X:X:X:X:X:X:X:X:X:X:X:X:X:X*.c.c.c.s.s.c.c.I.!.v.c.c.c.c.o.e W ` ) :X:X:X:X:X:X:X:X:X:X:X:X:X:X:X:X:X:X:X:X:X:X:X:X:X:X",
":X:X:X:X:X:X:X:X:X:X:X:X:X:X:X:X:X:X:X:X:X:X:X:X:X:X:X:X:X:X:X:X:X:X;.c.c.s.s.s.c.I.^.I.c.c.c.c.p.B e V E ` Q :X:X:X:X:X:X:X:X:X:X:X:X:X:X:X:X:X:X:X:X:X:X:X:X:X",
":X:X:X:X:X:X:X:X:X:X:X:X:X:X:X:X:X:X:X:X:X:X:X:X:X:X:X:X:X:X:X:X:X:Xp.s.s.a.s.c.I.).Q.c.c.c.c.c.+.0 e S H Q _ T :X:X:X:X:X:X:X:X:X:X:X:X:X:X:X:X:X:X:X:X:X:X:X:X",
":X:X:X:X:X:X:X:X:X:X:X:X:X:X:X:X:X:X:X:X:X:X:X:X:X:X:X:X:X:X:X:X:X:X,.a.a.a.v.Y.).^.b.c.c.c.c.;.q 8 e A F W ` ` ^ :X:X:X:X:X:X:X:X:X:X:X:X:X:X:X:X:X:X:X:X:X:X:X",
":X:X:X:X:X:X:X:X:X:X:X:X:X:X:X:X:X:X:X:X:X:X:X:X:X:X:X:X:X:X:X:X:X:Xy.a.s.J.^.).^.I.c.c.c.c.f.m : 8 t A A V F ~ _ :X:X:X:X:X:X:X:X:X:X:X:X:X:X:X:X:X:X:X:X:X:X:X",
":X:X:X:X:X:X:X:X:X:X:X:X:X:X:X:X:X:X:X:X:X:X:X:X:X:X:X:X:X:X:X:X:X%.,.s.Y.^.).).U.c.c.c.c.k.O.:X& 8 A A A C G E / / :X:X:X:X:X:X:X:X:X:X:X:X:X:X:X:X:X:X:X:X:X:X",
":X:X:X:X:X:X:X:X:X:X:X:X:X:X:X:X:X:X:X:X:X:X:X:X:X:X:X:X:X:X:X:X:X*.h.Y.).^.).Y.v.c.c.v.P.+.i :X:X- e t A r 9 3 N W V :X:X:X:X:X:X:X:X:X:X:X:X:X:X:X:X:X:X:X:X:X",
":X:X:X:X:X:X:X:X:X:X:X:X:X:X:X:X:X:X:X:X:X:X:X:X:X:X:X:X:X:X:X:Xu.P.).).^.).!.v.c.v.I.Y.$.0 M :X:X:X:X- ; ; 9 m ! G C :X:X:X:X:X:X:X:X:X:X:X:X:X:X:X:X:X:X:X:X:X",
":X:X:X:X:X:X:X:X:X:X:X:X:X:X:X:X:X:X:X:X:X:X:X:X:X:X:X:X:X:X:Xl.^.).^.^.^.^.Y.P.Y.^.).4.0 3 j :X:X:X:X:X* 9 w N J A J :X:X:X:X:X:X:X:X:X:X:X:X:X:X:X:X:X:X:X:X:X",
":X:X:X:X:X:X:X:X:X:X:X:X:X:X:X:X:X:X:X:X:X:X:X:X:X:X:X:X:Xg.U.^.).).^.^.^.^.).).).^.=.8 8 5 v :X:X:X:X:X:X9 t A A A J ^ :X:X:X:X:X:X:X:X:X:X:X:X:X:X:X:X:X:X:X:X",
":X:X:X:X:X:X:X:X:X:X:X:X:X:X:X:X:X:X:X:X:X:X:X:X:X:X:Xg.U.^.).).^.).^.^.^.).).).P...: 6 7 g n :X:X:X:X:X:X7 A A A A F _ :X:X:X:X:X:X:X:X:X:X:X:X:X:X:X:X:X:X:X:X",
":X:X:X:X:X:X:X:X:X:X:X:X:X:X:X:X:X:X:X:X:X:X:X:X3.l.U.^.).^.).).).).^.^.).^.Y.4.B = : 8 5 v v :X:X:X:X:X:X:Xr A A A F ` :X:X:X:X:X:X:X:X:X:X:X:X:X:X:X:X:X:X:X:X",
":X:X:X:X:X:X:X:X:X:X:X:X:X:X:X:X:X:X:X:X:X:Xk.N.Y.).).).).).).).).).).^.I.k.$.: : : 8 3 c n x :X:X:X:X:X:X:Xw A A t F 5.) :X:X:X:X:X:X:X:X:X:X:X:X:X:X:X:X:X:X:X",
":X:X:X:X:X:X:X:X:X:X:X:X:X:X:X:X:X:X@.<.i.P.^.).).).).).).).).^.Y.P.d.d.:X:X:X- 8 8 , 4 j v l :X:X:X:X:X:X:X- t A t H 5.` :X:X:X:X:X:X:X:X:X:X:X:X:X:X:X:X:X:X:X",
":X:X:X:X:X:X:X:X:X:X:X:X:X:X:X:X:X:XK K U #.3.b.Y.R.R.R.U.b.g.1.$.O.K :X:X:X:X* 7 8 , 5 c n u :X:X:X:X:X:X:X:X7 A A W 5.5.Q :X:X:X:X:X:X:X:X:X:X:X:X:X:X:X:X:X:X",
":X:X:X:X:X:X:X:X:X:X:X:X:X:X:X:X:X:X:X:XS K P o.#.-.-.-.#.o.o.o.o.o.P :X:X:X:X:X: 6 - f R z :X:X:X:X:X:X:X:X:X:Xe m / 5.5._ :X:X:X:X:X:X:X:X:X:X:X:X:X:X:X:X:X:X",
":X:X:X:X:X:X:X:X:X:X:X:X:X:X:X:X:X:X:X:X:X:X:XK U o.o.o.o.o.o.o.o.o.U :X:X:X:X:X; ; - h g c :X:X:X:X:X:X:X:X:X:X7 N ` 5.5.5.:X:X:X:X:X:X:X:X:X:X:X:X:X:X:X:X:X:X",
":X:X:X:X:X:X:X:X:X:X:X:X:X:X:X:X:X:X:X:X:X:X:X:XZ K U o.o.o.o.o.o.o.o.K :X:X:X$ : 7 , 3 j v :X:X:X:X:X:X:X:X:X:X& M 5.5.5.6.` :X:X:X:X:X:X:X:X:X:X:X:X:X:X:X:X:X",
":X:X:X:X:X:X:X:X:X:X:X:X:X:X:X:X:X:X:X:X:X:X:X:X:X:XZ K P ..o.o.o.o.o.P :X:X:X$ 6 5 i c R v :X:X:X:X:X:X:X:X:X:X:XQ 5.` _ Y Y b :X:X:X:X:X:X:X:X:X:X:X:X:X:X:X:X",
":X:X:X:X:X:X:X:X:X:X:X:X:X:X:X:X:X:X:X:X:X:X:X:X:X:X:X:X:XZ K P ..o.o.U S :X:X$ 6 3 g R R v :X:X:X:X:X:X:X:X:X:X:XY H l y O y E T T b Q ^ T k :X:X:X:X:X:X:X:X:X",
":X:X:X:X:X:X:X:X:X:X:X:X:X:X:X:X:X:X:X:X:X:X:X:X:X:X:X:X:X:X:X:XZ Z Z Z C :X:X$ 6 3 x R R v :X:X:X:X:X:X:X:X:X:X:X> ; < d d # + a k d d y y O :X:X:X:X:X:X:X:X:X",
":X:X:X:X:X:X:X:X:X:X:X:X:X:X:X:X:X:X:X:X:X:X:X:X:X:X:X:X:X:X:X:X:X:X:X:X:X:X:X$ 6 3 v R v l :X:X:X:X:X:X:X:X:X:X:X:X:Xo s @ @ O # # @ y # # . :X:X:X:X:X:X:X:X:X",
":X:X:X:X:X:X:X:X:X:X:X:X:X:X:X:X:X:X:X:X:X:X:X:X:X:X:X:X:X:X:X:X:X:X:X:X:X:X:X:X: 3 h x f l :X:X:X:X:X:X:X:X:X:X:X:X:Xo @ @ # +   o # # # o :X:X:X:X:X:X:X:X:X:X",
":X:X:X:X:X:X:X:X:X:X:X:X:X:X:X:X:X:X:X:X:X:X:X:X:X:X:X:X:X:X:X:X:X:X:X:X:X:X:X:X= 8 > > g u :X:X:X:X:X:X:X:X:X:X:X:X:X:Xo y y X   @ y X . :X:X:X:X:X:X:X:X:X:X:X",
":X:X:X:X:X:X:X:X:X:X:X:X:X:X:X:X:X:X:X:X:X:X:X:X:X:X:X:X:X:X:X:X:X:X:X:X:X:X:X:X; 8 , 3 f i :X:X:X:X:X:X:X:X:X:X:X:X:X:X:XX X :X:X:X:X:X:X:X:X:X:X:X:X:X:X:X:X:X",
":X:X:X:X:X:X:X:X:X:X:X:X:X:X:X:X:X:X:X:X:X:X:X:X:X:X:X:X:X:X:X:X:X:X:X:X:X:X:X:X& 8 3 4 j x :X:X:X:X:X:X:X:X:X:X:X:X:X:X:X:X:X:X:X:X:X:X:X:X:X:X:X:X:X:X:X:X:X:X",
":X:X:X:X:X:X:X:X:X:X:X:X:X:X:X:X:X:X:X:X:X:X:X:X:X:X:X:X:X:X:X:X:X:X:X:X:X:X:X:X& $ % 4 R x :X:X:X:X:X:X:X:X:X:X:X:X:X:X:X:X:X:X:X:X:X:X:X:X:X:X:X:X:X:X:X:X:X:X",
":X:X:X:X:X:X:X:X:X:X:X:X:X:X:X:X:X:X:X:X:X:X:X:X:X:X:X:X:X:X:X:X:X:X:X:X:X:X:X:X: * 4 D R l :X:X:X:X:X:X:X:X:X:X:X:X:X:X:X:X:X:X:X:X:X:X:X:X:X:X:X:X:X:X:X:X:X:X",
":X:X:X:X:X:X:X:X:X:X:X:X:X:X:X:X:X:X:X:X:X:X:X:X:X:X:X:X:X:X:X:X:X:X:X:X:X:X:X:X* h v x v l :X:X:X:X:X:X:X:X:X:X:X:X:X:X:X:X:X:X:X:X:X:X:X:X:X:X:X:X:X:X:X:X:X:X",
":X:X:X:X:X:X:X:X:X:X:X:X:X:X:X:X:X:X:X:X:X:X:X:X:X:X:X:X:X:X:X:X:X:X:X:X:X:X:X:X2 i d s b x :X:X:X:X:X:X:X:X:X:X:X:X:X:X:X:X:X:X:X:X:X:X:X:X:X:X:X:X:X:X:X:X:X:X",
":X:X:X:X:X:X:X:X:X:X:X:X:X:X:X:X:X:X:X:X:X:X:X:X:X:X:X:X:X:X:X:X:X:X:X:X:X:X:X:X:X1 # @ y k :X:X:X:X:X:X:X:X:X:X:X:X:X:X:X:X:X:X:X:X:X:X:X:X:X:X:X:X:X:X:X:X:X:X",
":X:X:X:X:X:X:X:X:X:X:X:X:X:X:X:X:X:X:X:X:X:X:X:X:X:X:X:X:X:X:X:X:X:X:X:X:X:X:X:X:XX O + O + :X:X:X:X:X:X:X:X:X:X:X:X:X:X:X:X:X:X:X:X:X:X:X:X:X:X:X:X:X:X:X:X:X:X",
":X:X:X:X:X:X:X:X:X:X:X:X:X:X:X:X:X:X:X:X:X:X:X:X:X:X:X:X:X:X:X:X:X:X:X:X:X:X:X:X:XX # a # o X :X:X:X:X:X:X:X:X:X:X:X:X:X:X:X:X:X:X:X:X:X:X:X:X:X:X:X:X:X:X:X:X:X",
":X:X:X:X:X:X:X:X:X:X:X:X:X:X:X:X:X:X:X:X:X:X:X:X:X:X:X:X:X:X:X:X:X:X:X:X:X:X:X:X:X:XO X . . @ :X:X:X:X:X:X:X:X:X:X:X:X:X:X:X:X:X:X:X:X:X:X:X:X:X:X:X:X:X:X:X:X:X",
":X:X:X:X:X:X:X:X:X:X:X:X:X:X:X:X:X:X:X:X:X:X:X:X:X:X:X:X:X:X:X:X:X:X:X:X:X:X:X:X:X:XX # @ @ @ s u :X:X:X:X:X:X:X:X:X:X:X:X:X:X:X:X:X:X:X:X:X:X:X:X:X:X:X:X:X:X:X",
":X:X:X:X:X:X:X:X:X:X:X:X:X:X:X:X:X:X:X:X:X:X:X:X:X:X:X:X:X:X:X:X:X:X:X:X:X:X:X:X:X:X@ a a a @ + @ :X:X:X:X:X:X:X:X:X:X:X:X:X:X:X:X:X:X:X:X:X:X:X:X:X:X:X:X:X:X:X",
":X:X:X:X:X:X:X:X:X:X:X:X:X:X:X:X:X:X:X:X:X:X:X:X:X:X:X:X:X:X:X:X:X:X:X:X:X:X:X:X:X:X. X X X X . :X:X:X:X:X:X:X:X:X:X:X:X:X:X:X:X:X:X:X:X:X:X:X:X:X:X:X:X:X:X:X:X",
":X:X:X:X:X:X:X:X:X:X:X:X:X:X:X:X:X:X:X:X:X:X:X:X:X:X:X:X:X:X:X:X:X:X:X:X:X:X:X:X:X:X:X:X:X:X:X:X:X:X:X:X:X:X:X:X:X:X:X:X:X:X:X:X:X:X:X:X:X:X:X:X:X:X:X:X:X:X:X:X",
":X:X:X:X:X:X:X:X:X:X:X:X:X:X:X:X:X:X:X:X:X:X:X:X:X:X:X:X:X:X:X:X:X:X:X:X:X:X:X:X:X:X:X:X:X:X:X:X:X:X:X:X:X:X:X:X:X:X:X:X:X:X:X:X:X:X:X:X:X:X:X:X:X:X:X:X:X:X:X:X",
":X:X:X:X:X:X:X:X:X:X:X:X:X:X:X:X:X:X:X:X:X:X:X:X:X:X:X:X:X:X:X:X:X:X:X:X:X:X:X:X:X:X:X:X:X:X:X:X:X:X:X:X:X:X:X:X:X:X:X:X:X:X:X:X:X:X:X:X:X:X:X:X:X:X:X:X:X:X:X:X",
":X:X:X:X:X:X:X:X:X:X:X:X:X:X:X:X:X:X:X:X:X:X:X:X:X:X:X:X:X:X:X:X:X:X:X:X:X:X:X:X:X:X:X:X:X:X:X:X:X:X:X:X:X:X:X:X:X:X:X:X:X:X:X:X:X:X:X:X:X:X:X:X:X:X:X:X:X:X:X:X",
":X:X:X:X:X:X:X:X:X:X:X:X:X:X:X:X:X:X:X:X:X:X:X:X:X:X:X:X:X:X:X:X:X:X:X:X:X:X:X:X:X:X:X:X:X:X:X:X:X:X:X:X:X:X:X:X:X:X:X:X:X:X:X:X:X:X:X:X:X:X:X:X:X:X:X:X:X:X:X:X",
":X:X:X:X:X:X:X:X:X:X:X:X:X:X:X:X:X:X:X:X:X:X:X:X:X:X:X:X:X:X:X:X:X:X:X:X:X:X:X:X:X:X:X:X:X:X:X:X:X:X:X:X:X:X:X:X:X:X:X:X:X:X:X:X:X:X:X:X:X:X:X:X:X:X:X:X:X:X:X:X",
":X:X:X:X:X:X:X:X:X:X:X:X:X:X:X:X:X:X:X:X:X:X:X:X:X:X:X:X:X:X:X:X:X:X:X:X:X:X:X:X:X:X:X:X:X:X:X:X:X:X:X:X:X:X:X:X:X:X:X:X:X:X:X:X:X:X:X:X:X:X:X:X:X:X:X:X:X:X:X:X"
};
