/* XPM */
static char *result[] = {
/* columns rows colors chars-per-pixel */
"80 80 176 2 ",
"   c #271A27",
".  c #2D242D",
"X  c #362D38",
"o  c #39323B",
"O  c #3C383C",
"+  c #54231B",
"@  c #58271F",
"#  c #592C21",
"$  c #5E2E2B",
"%  c #5C3226",
"&  c #5F3528",
"*  c #633B2E",
"=  c #663D31",
"-  c #6C3D3E",
";  c #694537",
":  c #6A4837",
">  c #6D4A3A",
",  c #704E3D",
"<  c #3E3844",
"1  c #403C42",
"2  c #444245",
"3  c #47454B",
"4  c #4B4A4D",
"5  c #4C4651",
"6  c #4D4A54",
"7  c #504E51",
"8  c #514E5A",
"9  c #515157",
"0  c #54525A",
"q  c #58585E",
"w  c #684847",
"e  c #6B4949",
"r  c #754946",
"t  c #6F524A",
"y  c #735242",
"u  c #70544B",
"i  c #78534D",
"p  c #634D53",
"a  c #6D4D53",
"s  c #7E4F53",
"d  c #6E5653",
"f  c #6A5759",
"g  c #6E5A5C",
"h  c #705955",
"j  c #5C5C66",
"k  c #5E5E6C",
"l  c #6B5C64",
"z  c #665C6C",
"x  c #685E6B",
"c  c #745E61",
"v  c #63616D",
"b  c #6D626C",
"n  c #74666C",
"m  c #7F6869",
"M  c #626272",
"N  c #6B6474",
"B  c #6C6974",
"V  c #6D6979",
"C  c #786C74",
"Z  c #706E7E",
"A  c #78737E",
"S  c #8B3B3C",
"D  c #973739",
"F  c #9D393C",
"G  c #813F44",
"H  c #864043",
"J  c #834E52",
"K  c #835452",
"L  c #A45154",
"P  c #8F5E65",
"I  c #8C6964",
"U  c #916C6C",
"Y  c #87716C",
"T  c #95726B",
"R  c #806A70",
"E  c #89777A",
"W  c #957474",
"Q  c #997474",
"!  c #967877",
"~  c #967E76",
"^  c #9C7A7A",
"/  c #A8696A",
"(  c #A8777A",
")  c #A37C7C",
"_  c #9B8379",
"`  c #A5897C",
"'  c #A48A7D",
"]  c #B18D7F",
"[  c #716F80",
"{  c #737383",
"}  c #7B7A84",
"|  c #7C7B87",
" . c #867D86",
".. c #9C7F81",
"X. c #A37E81",
"o. c #83828A",
"O. c #88888D",
"+. c #8E8E96",
"@. c #8C8C99",
"#. c #979192",
"$. c #95959D",
"%. c #9D9D9E",
"&. c #A48383",
"*. c #AA8585",
"=. c #A68C81",
"-. c #AB8B84",
";. c #AC868C",
":. c #A38A8C",
">. c #AD8B8B",
",. c #B28585",
"<. c #B28D8D",
"1. c #B88E8E",
"2. c #AE9284",
"3. c #B39586",
"4. c #B8968A",
"5. c #BA9B8C",
"6. c #B38F90",
"7. c #A79A97",
"8. c #B49494",
"9. c #BA9595",
"0. c #BA9A96",
"q. c #BD9798",
"w. c #B39B9C",
"e. c #BC9B9B",
"r. c #BAA69A",
"t. c #9D9DA6",
"y. c #AD9CA0",
"u. c #A7A4A8",
"i. c #A5A4AA",
"p. c #B7A0A3",
"a. c #A7A7B0",
"s. c #ADADB4",
"d. c #B2ADB1",
"f. c #B4B2B6",
"g. c #B6B6BB",
"h. c #BBBBBC",
"j. c #C29F93",
"k. c #C09D9D",
"l. c #C2A38F",
"z. c #C3A394",
"x. c #CAAB96",
"c. c #C3A39C",
"v. c #C9A59B",
"b. c #C5AB99",
"n. c #CCAC9B",
"m. c #D4B49C",
"M. c #C4A3A3",
"N. c #C8A6A2",
"B. c #CBABA3",
"V. c #CDB2A3",
"C. c #D2B3A4",
"Z. c #D8B6A4",
"A. c #D6BAA4",
"S. c #DCBDA5",
"D. c #D5B5A8",
"F. c #D8B7A9",
"G. c #DABAA9",
"H. c #E0BFA3",
"J. c #DEC1A5",
"K. c #E0C2A6",
"L. c #E4C4AA",
"P. c #E8C6AD",
"I. c #E7C9AB",
"U. c #EBCCAD",
"Y. c #EFD0AF",
"T. c #EDCDB0",
"R. c #F4D4B3",
"E. c #F6D5B4",
"W. c #C3BDC0",
"Q. c #CCCCCD",
"!. c #D2D2D2",
"~. c #DCDBDC",
"^. c #EDE6E3",
"/. c #EDEDEE",
"(. c #F8F8F8",
"). c None",
/* pixels */
").).).).).).).).).).).).).).).).).).).).).).).).).).).).).).).).).).).).).).).).).).).).).).).).).).).).).).).).).).).).).).).).).).).).).).).).).).).).).).).).",
").).).).).).).).).).).).).).).).).).).).).).).).).).).).).).).).).).).).).).).).).).).).).).).).).).).).).).).).).).).).).).).).).).).).).).).).).).).).).).).).",
").).).).).).).).).).).).).).).).).).).).).).).).).).).).).).).).).).).).).).).).).).).).).).).).).).).).).).).).).).).).).).).).).).).).).).).).).).).).).).).).",
").).).).).).).).).).).).).).).).).).).).).).).).).).).).).).).).).).).).).).).).).).).).).).).).).).).).).).).).).).).).).).).).).).).).).).).).).).).).).).).).",
").).).).).).).).).).).).).).).).).).).).).).).).).).).).).).).).).).).).).).).).).).).).).).).).).).).).).).).).).).).).).).).).).).).).).).).).).).).).).).).).",
").).).).).).).).).).).).).).).).).).).).).).).).).).).).).).).).).).).).).).).).).).).).).).).).).).).).).).).).).).).).).).).).).).).).).).).).).).).).).).).).",
").).).).).).).).).).).).).).).).).).).).).).).).).).).).).).).).).).).).).).).).).).).).).).).).).).).).).).).).).).).).).).).).).).).).).).).).).).).).).).).).",
").).).).).).).).).).).).).).).).).).).).).).).).).).).).).).).).).).).).).).).).).).).).).).).).).).).).).).).).).).).).).).).).).).).).).).).).).).).).).).).).",
").).).).).).).).).).).).).).).).).).).).).).).).).).).).).).).).).).).).).).).).).).).).).).).).).).).).).).).).).).).).).).).).).).).).).).).).).).).).).).).).",
").).).).).).).).).).).).).).).).).).).).).).).).).).).).).).).).).).).).).).).).).).).).).).).).).).).).).).).).).).).).).).).).).).).).).).).).).).).).).).).).",
").).).).).).).).).).).).).).).).).).).).).).).).).).).).).).).).).).).).).).).).).).).).).).).).).).).).).).).).).).).).).).).).).).).).).).).).).).).).).).).).",
").).).).).).).).).).).).).).).).).).).).).).).).).).).).).).).).).).).).).).).).).).).).).).).).).).).).).).).).).).).).).).).).).).).).).).).).).).).).).).).).",
").).).).).).).).).).).).).).).).).).).).).).).).).).).).).).).).).).).).).).).).).).).).).).).).).).).).).).).).).).).).).).).).).).).).).).).).).).).).).).).).",
").).).).).).).).).).).).).).).).).).).).).).).).).).).).).).).).).).).).).).).).).).).).).).).).).).).).).).).).).).).).).).).).).).).).).).).).).).).).).).).).",
").).).).).).).).).).).).).).).).).).).).).).).).).).).).).).).).).).).).).).).).).).).).).).).).).).).).).).).).).).).).).).).).).).).).).).).).).).).).).).).).",
").).).).).).).).).).).).).).).).).).).).).).).).).).).).).).).).).).).).).).).).).).).).).).).).).).).).).).).).).).).).).).).).).).).).).).).).).).).).).).).).",
").).).).).).).).).).).).).).).).).).).).).).).).).).).).).).).).).).).).).).).).).).).).).).).).).).).).).).).).).).).).).).).).).).).).).).).).).).).).).).).).",
").).).).).).).).).).).).).).).).).).).).).).).).).).).).).).).).).).).).).).).).).).).).).).).).).).).).).).).).).).).).).).).).).).).).).).).).).).).).).).).).",
").).).).).).).).).).).).).).).).).).).).).).).).).).).).).).).).).).).).).).).).).).).).).).).).).).).).).).).).).).).).).).).).).).).).).).).).).).).).).).).).",
").).).).).).).).).).).).).).).).).).).).).).).).).).).).).).).).).).).).).).).).).).).).).).).).).).).).).).).).).).).).).).).).).).).).).).).).).).).).).).).).",
").).).).).).).).).).).).).).).).).).).).).).).).).).).).).).).).).).).).).).).).).).).).).).).).).).).).).).).).).).).).).).).).).).).).).).).).).).).).).).).).",
").).).).).).).).).).).).).).).).).).).).).).).).).).).).).).).).).).).).).).).).).).).).).).).).).).).).).).).).).).).).).).).).).).).).).).).).).).).).).).).).",
").).).).).).).).).).).).).).).).).).).).).).).).).).).).).).).).).).).).).).).).).).).).).).).).).).).).).).).).).).).).).).).).).).).).).).).).).).).).).).).).",
").).).).).).).).).).).).).).).).).).).).).).).).).).).).).).).).).).).).).).).).).).).).).).).).).).).).).).).).).).).).).).).).).).).).).).).).).).).).).).).).",
").).).).).).).).).).).).).).).).).).).).).).).).).).).).).).).).).).).).).).).).).).).).).).).).).).).).).).).).).).).).).).).).).).).).).).).).).).).).).).).).",
").).).).).).).).).).).).).).).).).).).).).).).).).).).).).).).).).).).).).).).).).).).).).).).).).).).).).).).).).).).).).).).).).).).).).).).).).).).).).).).).",
").).).).).).).).).).).).).).).).).).).).).).).).).).).).).).).).).).).).).).).).).).).).).).).).).).).).).).).).).).).).).).).).).).).).).).).).).).).).).).).).",
").).).).).).).).).).).).).).).).).).).).).).).).).).).).).).).).).).).).).).).).).).).).).).).).).).).).).).).).).).).).).).).).).).).).).).).).).).).).).).).).",
").).).).).).).).).).).).).).).).).).).).).).).).).).).).).).).).).).).).).).).).).).).).).).).).).).).).).).).).).).).).).).).).).).).).).).).).).).).).).).).).",
").).).).).).).).).).).).).).).).).).).).).).).).).).).).).).).).).).).).).).).).).).).).).).).).).).).).).).).).).).).).).).).).).).).).).).).).).).).).).).).).",
").).).).).).).).).).).).).).).).).).).).).).).).).).).).).).).).).).).).).).).).).).).).).).).).).).).).).).).).).).).).).).).).).).).).).).).).).).).).).).).).",
").).).).).).).).).).).).).).).).).).).).).).).).).).).).).).).).).).).).).).).).).).).).).).).).).).).).).).).).).).).).).).).).).).).).).).).).).).).).).).).).",
").).).).).).).).).).).).).).).).).).).).).).).).).).).).).).).).).).).).).).).).).).).).).).).).).).).).).).).).).).).).).).).).).).).).).).).).).).).).).).).).",
").).).).).).).).).).).).).).).).).).).).).).).).).).).).).).).).).).).).).).).).).).<.).).).).).).).).).).).).).).).).).).).).).).).).).).).).).).).).).).).).).",
").).).).).).).).).).).).).).).).).).).).).).).).).).).).).).).).).).).).).).).).).).*.).).).).).).).).).).).).).).).).).).).).).).).).).).).).).).).).).).).).).",
").).).).).).).).).).).).).).).).).).).).).).).).).).).).).).).).).).).).).).).).).q.) ).).).).).).).).).).).).).).).).).).).).).).).).).).).).).).).).).).).).).",
").).).).).).).).).).).).).).).).).).).).).).).).).).).).).).).).).).).).).).).).).9.) ).).).).).).).).).).).).).).).).).).).).).).).).).).).).).).).).).).).).).",
").).).).).).).).).).).).).).).).).).).).).).).).).).).).).).).).).).).).).).).).).>.) ).).).).).).).).).).).).).).).).).).).).).).).).).).).).).).).).).).).).).",
").).).).).).).).).).).).).).).).).).).).).).).).).).).).).).).).).).).).).).).).).9.^ ).).).).).).).).).).).).).).).).).).).).).).).).).).).).).).).).).).).).).",
").).).).).).).).).).).).).).).).).).).).).).).).).).).).).).).).).).).).).).).).).q.*.).).).).).).).).).).).).).).).).).).).).).).).).).).).).).).).).).).).).).",
").).).).).).).).).).).).).).).).).).).).).).).).).).).).).).).).).).).).).).).).).k.e.).).).).).).).).).).).).).).).).).).).).).).).).).).).).).).).).).).).).).",
").).).).).).).).).).).).).).).).).).).).).).).).).).).).).).).).).).).).).).).).).q.M.*.).W ).).).).).).).).).).).).).).).).).).).).).).).).).).).).).).).).).).",
").).).).).).).).).).).).).).).).).).).).).).).).).).).).).).).).).).).).).).).).).q.M.q.^ *.).).).).).).).).).).).).).).).).).).).).).).).).).).).).).).).).).).",
").).).).).).).).).).).).).).).).).).).).).).).).).).).).).).).).).).).).).).@.).u.9.M.M.8.>.*.).).).).).).).).).).).).).).).).).).).).).).).).).).).).).).).).).",
").).).).).).).).).).).).).).).).).).).).).).).).).).).).).).).).).).).).).@.a.i.u.7.y.M.<.<.8.).).).).).).).).).).).).).).).).).).).).).).).).).).).).).).).).).",
").).).).).).).).).).).).).).).).).).).).).).).).).).).).).).).).).).).).).s.s.g.t.d.p.M.*.8.8.&.).).).).).).).).).).).).).).).).).).).).).).).).).).).).).).).).",
").).).).).).).).).).).).).).).).).).).).).).).).).).).).).).).).).).).).).s.Q.~.~.f.M.M.*.*.8.*.).).).).).).).).).).).).).).).).).).).).).).).).).).).).).).).).",
").).).).).).).).).).).).).).).).).).).).).).).).).).).).).).).).).).).).).f./.(.(.W.e.e.&.*.*.*.).).).).).).).).).).).*.W ).).).).).).).).).9 q q 9 ).).).).).).",
").).).).).).).).).).).).).).).).).).).).).).).).).).).).).).).).).).).).).i.~.^.^.h.w.e.&.*.*.) ).).).).).).).).).^ >.8.W ).).).).).).).).2 j M M k 9 ).).).).).",
").).).).).).).).).).).).).).).).).).).).).).).).).).).).).).).).).).).).).).V.T.K.r.w.9.&.>.>.( ).).).).).).).! *.8.8.>.).).).).).).).0 8 o 4 j M M 9 ).).).).).",
").).).).).).).).).).).).).).).).).).).).).).).).).).).).).).).).).).).).).l.S.S.K.x.e.9.) <.<.^ ).).).).).W &.>.8.8.8.*.).).).).).).4 j M 8 X o 1 < ).).).).).).",
").).).).).).).).).).).).).).).).).).).).).).).).).).).).).).).).).).).).).H.U.S.m.l.0.8.! >.8.8.*.*.&.&.>.8.8.8.8.8.8.*.).).).).).).3 3 6 o   . . ).).).).).).).",
").).).).).).).).).).).).).).).).).).).).).).).).).).).).).).).).).).).).P.E.E.E.m.-.M.8.) >.8.8.8.8.8.8.8.8.8.8.8.8.8.&.).).).).).9 9 4 1 1 . ).).).).).).).).).",
").).).).).).).).).).).).).).).).).).| ).{ ).).).).).).).).).).).).).).I.E.E.E.U.z.*.M.0.) 8.8.8.8.8.8.8.8.8.8.8.8.8.8.^ ).).).).z B 7 2 O . ).).).).).).).).).).",
").).).).).).).).).).).).).).).).).| $.+.o.).).).).).).).).).).).).).U.E.E.E.R.J.*.&.e.e.) 8.8.8.8.8.8.8.8.8.8.8.8.8.>.).).).).).N o.O.8 5 5 ).).).).).).).).).).",
").).).).).).).).).).).).).).).).+.$.$.$.).).).).).).).).).).).).).J.E.R.R.E.P.c.^ <.8.8.) 8.8.8.8.8.8.8.8.8.8.8.8.8.*.).).).).z Z Z } { 0 0 ).).).).).).).).).).",
").).).).).).).).).).).).).).).).g.f.g.h.).).).).).).).).).).).).m.A.R.I.R.U.B.X.*.M.9.<.*.8.8.8.8.8.8.8.8.8.8.8.8.8.) ).).).).z Z { [ b f p ).).).).).).).).).).",
").).).).).).).).).).).).).).).).a.!.!.!.i.i.).).).).).).m.I.P.I.U.T.I.I.U.V.>.).8.M.M.1.*.>.8.8.8.8.8.8.8.8.8.8.8.>.).).).).N N V { Z u > ).).).).).).).).).).).",
").).).).).).).).).).).).).).).).+.Q.!.!.f.o.m.P.m.S.P.I.Y.Y.Y.Y.Y.U.A.A.n.8.).).e.M.M.q.*.>.8.8.8.8.8.8.8.8.8.8.8.&.).).).N Z V Z { b y ; ).).).).).).).).).).).",
").).).).).).).).).).).).).).).).} #.7.7.A x.P.L.U.R.E.R.U.K.S.Z.C.c.8.8.<.).).&.e.e.M.q.>.<.8.8.8.8.8.8.8.8.8.8.>.).).).N { { Z { V h > @ ).).).).).).).).).).).",
").).).).).).).).).).).).).).).).E ` ` 3.' P.T.F.F.C.G.F.D.B.N.M.M.e.8.X.^ x.S.b.e.9.9.k.q.<.8.8.8.8.8.8.8.8.8.8.&.).).z Z { { { { l > @ ).).).).).).).).).).).).",
").).).).).).).).).).).).).).).Y ' ' ~ _ ' J.R.G.B.q.q.M.M.M.M.M.q.>.W ).m.Y.E.P.e.e.>.9.M.<.8.8.8.8.8.8.8.8.8.8.^ ).).N { { { { B t & ).).).).).).).).).).).).).",
").).).).).).).).).).).).).).).m _ ' 2.=.~ r.x.j.<.6.*.>.<.>.>.-.W W ).).K.E.E.R.n.e.8.*.M.9.<.8.8.8.8.8.8.8.8.*.).).p N { { { Z g > ).).).).).).).).).).).).).).",
").).).).).).).).).).).).).).).Y 3.4.z.z.^ e.M.M.e.*.&.^ ^ ) b.K.z.5.3.) C.U.E.T.K.c.>.) 8.k.<.8.8.8.8.8.8.8.8.^ ).).w N { { { l y * ).).).).).).).).).).).).).).",
").).).).).).).).).).).).).).).K ] 5.z.z.-.k.M.M.M.e.0.*.<.q.v.R.U.K.I.4.e.F.U.U.R.K.-.*.*.e.k.8.<.8.8.8.8.8.^ ).= e t g Z [ b u > ).).).).).).).).).).).).).).).",
").).).).).).).).).).).).).).).- T 5.z.m.-.M.M.M.M.M.e.>.>.M.q.P.E.R.R.m.8.M.Z.R.E.E.x.>.*.8.M.M.e.e.e.e.e.>.m l c u g d l l t : # ).).).).).).).).).).).).).).).",
").).).).).).).).).).).).).).).- C 7.r.n.*.M.M.M.M.M.e.8.*.e.e.F.E.E.R.x.&.q.N.P.E.E.n.*.*.8.8.e.M.M.e.e.8.&.{ { { g g h y y : % ).).).).).).).).).).).).).).).).",
").).).).).).).).).).).).).).S e o.i.b.j.X.q.M.M.M.e.8.8.*.e.M.C.E.E.U.8.) 9.M.C.R.R.B.>.>.>.8.8.8.8.8.8.<.E { { Z b f d y y > @ ).).).).).).).).).).).).).).).).",
").).).).).).).).).).).).;./ D p O.h.w.-.W <.e.q.8.8.8.8.*.e.M.N.T.R.C.8.) 9.q.N.S.K.M.<.<.8.8.8.8.8.8.8...A { b n b d u y > # ).).).).).).).).).).).).).).).).).",
").).).).).).).).).).).).;.( F c +.%.:.>.*.<.9.9.e.e.e.e.*.>.k.B.K.C.B.0.*.8.9.M.N.N.e.*.<.8.8.8.8.8.8.:.C N l d l t y y : # ).).).).).).).).).).).).).).).).).).",
").).).).).).).).).).).).;.6.F s } %. .*.*.e.M.M.M.M.M.M.*.8.c.A.A.B.A.0.*.<.9.k.M.M.e.<.8.8.8.8.8.8.>.R f t y d u y , * ).).).).).).).).).).).).).).).).).).).).",
").).).).).).).).).).).).;.8.L H x { V ! &.M.M.M.M.M.M.M.*.k.N.B.M.B.C.>.>.>.9.9.e.e.8.8.8.8.8.8.8.<.U u y y y y , = # ).).).).).).).).).).).).).).).).).).).).).",
").).).).).).).).).).).).).8.( D a v V n ! M.M.M.M.M.M.e.>.M.M.M.M.N.M.&.>.>.8.>.8.8.8.8.8.<.<.8.<.T y y y y > * + ).).).).).).).).).).).).).).).).).).).).).).).",
").).).).).).).).).).).).).X.( D G e ..^ ) M.M.M.M.M.e.>.*.M.M.e.e.M.8.) *.*.<.<.8.8.8.8.<.,.8.*.I y y > = % ).).).).).).).).).).).).).).).).).).).).).).).).).).",
").).).).).).).).).).).).).).).).J r *.*.>.q.M.M.q.e.8.>.*.M.e.8.e.M.>.! ) ] ,.<.8.8.6.>.) ) I r = = # + ).).).).).).).).).).).).).).).).).).).).).).).).).).).).",
").).).).).).).).).).).).).).).).P - U Q ^ ^ *.*.&.&.^ W ^ &.&.&.&.^ W &.W U Q ) ) &.^ U i $ ).).).).).).).).).).).).).).).).).).).).).).).).).).).).).).).).).).",
").).).).).).).).).).).).).).).).).).).).).).).).).).).).).).).).).).).).).).).).).).).).).).).).).).).).).).).).).).).).).).).).).).).).).).).).).).).).).).).).",
").).).).).).).).).).).).).).).).).).).).).).).).).).).).).).).).).).).).).).).).).).).).).).).).).).).).).).).).).).).).).).).).).).).).).).).).).).).).).).).).",
").).).).).).).).).).).).).).).).).).).).).).).).).).).).).).).).).).).).).).).).).).).).).).).).).).).).).).).).).).).).).).).).).).).).).).).).).).).).).).).).",
").).).).).).).).).).).).).).).).).).).).).).).).).).).).).).).).).).).).).).).).).).).).).).).).).).).).).).).).).).).).).).).).).).).).).).).).).).).).).).).)."
};
