/* XPM */
static char *result[] = {
/* columns rows colors chars-per-pixel */
"80 80 193 2 ",
"   c #271B27",
".  c #291D29",
"X  c #2D232D",
"o  c #302630",
"O  c #332B33",
"+  c #362E38",
"@  c #363136",
"#  c #383137",
"$  c #3A353B",
"%  c #3D3B3D",
"&  c #49130E",
"*  c #4C1818",
"=  c #501A17",
"-  c #521A19",
";  c #54201D",
":  c #491D20",
">  c #4D242A",
",  c #592424",
"<  c #5D2D2C",
"1  c #5F312F",
"2  c #462B34",
"3  c #543734",
"4  c #5C3534",
"5  c #5B3836",
"6  c #523B3C",
"7  c #5B3B3B",
"8  c #612F2F",
"9  c #633231",
"0  c #663A36",
"q  c #633B3A",
"w  c #6B443B",
"e  c #6E493D",
"r  c #704C3E",
"t  c #72503F",
"y  c #3D3740",
"u  c #443D45",
"i  c #483B45",
"p  c #4D3E4C",
"a  c #533C44",
"s  c #5A3F42",
"d  c #434243",
"f  c #46434A",
"g  c #49454C",
"h  c #484849",
"j  c #5A4346",
"k  c #594446",
"l  c #5B454B",
"z  c #4D4352",
"x  c #4D4A52",
"c  c #524553",
"v  c #5B4953",
"b  c #5C4D5A",
"n  c #58525B",
"m  c #6B4942",
"M  c #664948",
"N  c #724041",
"B  c #704D42",
"V  c #79464A",
"C  c #6D514C",
"Z  c #725242",
"A  c #71554B",
"S  c #6F5651",
"D  c #675558",
"F  c #61515F",
"G  c #6D5A5C",
"H  c #7B5352",
"J  c #795D56",
"K  c #79615E",
"L  c #5E5461",
"P  c #5C5B65",
"I  c #615262",
"U  c #635A66",
"Y  c #6D5D63",
"T  c #645C6A",
"R  c #695D6B",
"E  c #626068",
"W  c #6D626C",
"Q  c #716264",
"!  c #70656B",
"~  c #7D6D6A",
"^  c #676170",
"/  c #6C6573",
"(  c #6D6974",
")  c #6E6A7A",
"_  c #706A75",
"`  c #716E7D",
"'  c #74717E",
"]  c #A42929",
"[  c #A33739",
"{  c #895357",
"}  c #845A59",
"|  c #A34F53",
" . c #88665E",
".. c #895860",
"X. c #955E61",
"o. c #A55E65",
"O. c #856C67",
"+. c #986A6D",
"@. c #89746C",
"#. c #987468",
"$. c #8D7370",
"%. c #957474",
"&. c #9B7676",
"*. c #987A74",
"=. c #9E7A7A",
"-. c #AB6D6D",
";. c #A46671",
":. c #A67376",
">. c #A47C7C",
",. c #AB7E7E",
"<. c #968076",
"1. c #9D8479",
"2. c #A5827E",
"3. c #AA827E",
"4. c #A78C7E",
"5. c #727282",
"6. c #7F7F8C",
"7. c #897B80",
"8. c #8E898F",
"9. c #938F94",
"0. c #99969A",
"q. c #A58383",
"w. c #AB8484",
"e. c #A58A81",
"r. c #AC8B84",
"t. c #AC858D",
"y. c #AD8B8B",
"u. c #B38585",
"i. c #B28B83",
"p. c #B38C8C",
"a. c #AE9384",
"s. c #AE9288",
"d. c #B29285",
"f. c #B89786",
"g. c #B4948B",
"h. c #B9958C",
"j. c #B6998B",
"k. c #BC9C8C",
"l. c #B08F90",
"z. c #A29E9E",
"x. c #B49493",
"c. c #B99695",
"v. c #BB9B95",
"b. c #BD9C9C",
"n. c #BCA293",
"m. c #BCA69D",
"M. c #A4A3A5",
"N. c #ABABAC",
"B. c #BEADA2",
"V. c #B0AFB2",
"C. c #B3B3B4",
"Z. c #BEBABB",
"A. c #C09E95",
"S. c #C09D9D",
"D. c #C4A394",
"F. c #C6A996",
"G. c #C9AA95",
"H. c #C5A499",
"J. c #C8A79A",
"K. c #CCAB9D",
"L. c #D0AF9E",
"P. c #CEB19A",
"I. c #D2B39C",
"U. c #D4B99E",
"Y. c #C4A3A3",
"T. c #CBABA2",
"R. c #D0AFA1",
"E. c #D4B3A4",
"W. c #D6B9A0",
"Q. c #DCBDA4",
"!. c #D4B4A8",
"~. c #DDBDAA",
"^. c #C6B8B5",
"/. c #DCC1A4",
"(. c #D8C6BB",
"). c #E2C2A6",
"_. c #E3C4A9",
"`. c #E7C9AB",
"'. c #EBCCAD",
"]. c #E5C9B3",
"[. c #EFCEB0",
"{. c #EED0B3",
"}. c #F3D3B2",
"|. c #F8D7B5",
" X c #BEBEC0",
".X c #C5C6C6",
"XX c #C8C5C3",
"oX c gray80",
"OX c #D6D2CF",
"+X c #D5D5D5",
"@X c gray87",
"#X c #E1E1E1",
"$X c None",
/* pixels */
"$X$X$X$X$X$X$X$X$X$X$X$X$X$X$X$X$X$X$X$X$X$X$X$X$X$X$X$X$X$X$X$X$X$X$X$X$X$X$X$X$X$X$X$X$X$X$X$X$X$X$X$X$X$X$X$X$X$X$X$X$XX g n x x $X$X$X$X$X$X$X$X$X$X$X$X$X$X",
"$X$X$X$X$X$X$X$X$X$X$X$X$X$X$X$X$X$X$X$X$X$X$X$X$X$X$X$X$X$X$X$X$X$X$X$X$X$X$X$X$X$X$X$X$X$X$X$X$X$X$X$X$X$X$X$X$X$X$X$X$X@ h x n x u $X$X$X$X$X$X$X$X$X$X$X$X$X",
"$X$X$X$X$X$X$X$X$X$X$X$X$X$X$X$X$X$X$X$X$X$X$X$X$X$X$X$X$X$X$X$X$X$X$X$X$X$X$X$X$X$X$X$X$X$X$X$X$X$X$X$X$X$X$X$X$X$X$X$X$XO % d h n u f $X$X$X$X$X$X$X$X$X$X$X$X",
"$X$X$X$X$X$X$X$X$X$X$X$X$X$X$X$X$X$X$X$X$X$X$X$X$X$X$X$X$X$X$X$X$X$X$X$X$X$X$X$X$X$X$X$X$X$X$X$X$X$X$X$X$X$X$X$X$X$X$X$X$X$XX $ @ o d y + $X$X$X$X$X$X$X$X$X$X$X",
"$X$X$X$X$X$X$X$X$X$X$X$X$X$X$X$X$X$X$X$X$X$X$X$X$X$X$X$X$X$X$X$X$X$X$X$X$X$X$X$X$X$X$X$X$X$X$X$X$X$X$X$X$X$X$X$X$X$X$X$X$X$X$X. O # $ % % O $X$X$X$X$X$X$X$X$X$X",
"$X$X$X$X$X$X$X$X$X$X$X$X$X$X$X$X$X$X$X$X$X$X$X$X$X$X$X$X$X$X$X$X$X$X$X$X$X$X$X$X$X$X$X$X$X$X$X$X$X$X$X$X$X$X$X$X$X$X$X$X$X$X$X$Xu z p g h d O $X$X$X$X$X$X$X$X$X",
"$X$X$X$X$X$X$X$X$X$X$X$X$X$X$X$X$X$X$X$X$X$X$X$X$X$X$X$X$X$X$X$Xt.x.x.y.$X$X$X$X$X$X$X$X$X$X$X$X$X$X$X$X$X$X$X$X$X$X$X$X$X$X$Xn ^ ) ` ) x d $ $X$X$X$X$X$X$X$X$X",
"$X$X$X$X$X$X$X$X$X$X$X$X$X$X$X$X$X$X$X$X$X$X$X$X$X$X$X$X$X$X$Xp.,.-.:.y.p.:.$X$X$X$X$X$X$X$X$X$X$X$X$X$X$X$X$X$X$X$X$X$X$X$Xb I T T ^ ( ( f O $X$X$X$X$X$X$X$X$X",
"$X$X$X$X$X$X$X$X$X$X$X$X$X$X$X$X$X$X$X$X$X$X$X$X$X$X$X$X$X$X;.o.[ ] ] | o.+.$X$X$X$X$X$X$X$X$X$X$X$X$X$X$X$X$X$X$X$X$X$X$XR ( ) 5.5.5.5.5.T $X$X$X$X$X$X$X$X$X$X",
"$X$X$X$X$X$X$X$X$X$X$X$X$X$X$X$X$X$X$X$X$X$X$X$X$X$X$X$X$X&.{ V H } } H V X.$X$X$X$X$X$X$X$X$X$X$X$X$X$X$X$X$X$X$X$X$XT ) 5.5.5.5.5.5.5.5.5.T $X$X$X$X$X$X$X$X$X",
"$X$X$X$X$X$X$X$X$X$X$X$X$X$X$X$X$X$X$X$X$X$X$X$X$X$X$X$X{ N q n _ ( E u 6 q N ..$X$X$X$X$X$X$X$X$X$X$X$X$X$X$X$X$Xb U ( 5.` / Y G Q / W R T L $X$X$X$X$X$X$X$X$X",
"$X$X$X$X$X$X$X$X$X$X$X$X$X$X$X$X$X$X$X$X$X$X$X$X$X$X$X$X$X9 l M.oXM.9.' ~ #.#.$X$X$X$X$X$X$X$X$X$X$X$X$X$X$X$X$XD Y W ` 5.( W G C Z w q $X$X$X$X$X$X$X$X$X$X$X$X",
"$X$X$X$X$X$X$X$X$X$X$X$X$X$X$X$X$X$X$X$X$X$X$X$X$X$X$X$X$X$X<.B.(.^.m.n.Q.}.}.Q.$X$X$X$X$X$X$X$X$X$X$X$X$X$X$XD / ' 5.5.` ' 5.5.^ M $X$X$X$X$X$X$X$X$X$X$X$X$X$X",
"$X$X$X$X$X$X$X$X$X$X$X$X$X$X$X$X$X$X$X$X$X$X$X$X$X$X$X$X$XG.K.D.D.K.Q.Q.'.'._.'.P.$X$X$X$X$X$X$X$X$X$X$X$X$XW _ ( ! Q G A A ! ` T $X$X$X$X$X$X$X$X$X$X$X$X$X$X$X",
"$X$X$X$X$X$X$X$X$X$X$X$X$X$X$X$X$X$X$X$X$X$X$X$X$X$X$X$X$Xk.q.y.v.P._.I.!.~.'.}.).$X$X$X$X$X$X$X$X$X$X$X^ ( ^ Y Q W / ( Y Z Z D $X$X$X$X$X$X$X$X$X$X$X$X$X$X$X$X",
"$X$X$X$X$X$X$X$X$X$X$X$X$X$X$X$X$X$X$X$X$X$X$X$X$X$X$X$Xa.j.H.Q.'.`.{.A.R.[.'.}.'.$X$X$X$X$X$X$X$X$X$X) 5.5.` ` ) 5.5.5.Y e 0 $X$X$X$X$X$X$X$X$X$X$X$X$X$X$X$X$X",
"$X$X$X$X$X$X$X$X$X$X$X$X$X$X$X$X$X$X$X$X$X$X$X$X$X$X$X$XW.`.'.}.[.`.!.v.!.~.'.}.).$X$X$X$X$X$X$X$X$X) 5.5.) 5.Y C Q ` Y m $X$X$X$X$X$X$X$X$X$X$X$X$X$X$X$X$X$X$X",
"$X$X$X$X$X$X$X$X$X$X$X$X$X$X$X$X$X$X$X$X$X$X$X$X$XI._.'.}.}.'.).~.T.b.x.T.[.|.|.).$X$X$X$X$X$X$X$X) 5.) ` Y / A e m C w $X$X$X$X$X$X$X$X$X$X$X$X$X$X$X$X$X$X$X$X",
"$X$X$X$X$X$X$X$X$X$X$X$X$X$X$X$X$X$X$X$X$X$X$XI.`._.'.}.'.).T.Y.Y.Y.x.x.~.}.'.].P.$X$X$X$X$X$X$X` 5.` ! _ S G e w 9 0 $X$X$X$X$X$X$X$X$X$X$X$X$X$X$X$X$X$X$X$X$X",
"$X$X$X$X$X$X$X$X$X$X$X$X$X$X$X$X$X$X$X$X$X$XD.P./.).L.T.T.Y.b.Y.Y.b.y.x.~.)./.)./.U.D.$X$X$X#XZ.0.5._ Y W A C e 0 $X$X$X$X$X$X$X$X$X$X$X$X$X$X$X$X$X$X$X$X$X$X$X",
"$X$X$X$X$X$X$X$X$X$X$X$X$X$X$X$X$X$X$X$X$XG.G.F.F.U.K.b.Y.b.Y.S.Y.Y.x.x.!.Q.).'.'._.U.Q.T.XX.XoX X6.Y S G Z m w $X$X$X$X$X$X$X$X$X$X$X$X$X$X$X$X$X$X$X$X$X$X$X$X",
"$X$X$X$X$X$X$X$X$X$X$X$X$X$X$X$X$X$X$X$XG.W.U.P.D.v.b.c.Y.x.b.Y.Y.Y.b.c.Y.Y.T.Q.}.Q.).{.OX@XoX+X+XV.K Z A Z w 9 $X$X$X$X$X$X$X$X$X$X$X$X$X$X$X$X$X$X$X$X$X$X$X$X",
"$X$X$X$X$X$X$X$X$X$X$X$X$X$X$X$X$X$XP./.U.P.K.K.v.x.x.p.b.x.Y.Y.S.S.y.q.c.Y.Y.Y.T.H.).].oX@X@X.XoX.X@.t Z Z w $X$X$X$X$X$X$X$X$X$X$X$X$X$X$X$X$X$X$X$X$X$X$X$X$X",
"$X$X$X$X$X$X$X$X$X$X$X8.M.0.$Xk.K.K.J.D.A.v.x.p.p.p.x.u.x.b.Y.b.q.q.x.b.y.q.x.b.S.y.b.m.N.C.C.C.C.C.O.t Z r $X$X$X$X$X$X$X$X$X$X$X$X$X$X$X$X$X$X$X$X$X$X$X$X$X$X",
"$X$X$X$X$X$X$X$X$X$X0.C.XXm.k.K.J.v.p.u.u.x.x.x.x.p.w.>.&.q.q.q.p.x.Y.Y.Y.c.x.q.q.q.q.y.0.9.z.M.z.9.J Z Z w $X$X$X$X$X$X$X$X$X$X$X$X$X$X$X$X$X$X$X$X$X$X$X$X$X$X",
"$X$X$X$X$X$X$X$X$X$XN..X^.J.j.v.x.x.p.u.p.x.x.y.q.=.%.$X$Xy.b.Y.Y.c.b.Y.S.Y.Y.x.q.2.=.q.>.&.q.p.x.l.2. .B $X$X$X$X$X$X$X$X$X$X$X$X$X$X$X$X$X$X$X$X$X$X$X$X$X$X$X",
"$X$X$X$X$X$X$X$X$X$X$XoX^.x.r.x.x.x.x.p.y.q.=.$X$X$X$X$X$X=.b.Y.Y.b.x.c.Y.Y.x.w.y.x.h.y.v.p.p.p.p.p.x.p.&.$X$X$X$X$X$X$X$X$X$X$X$X$X$X$X$X$X$X$X$X$X$X$X$X$X$X$X",
"$X$X$X$X$X$X$X$X$X$X$XoXZ.y.q.>.q.q.=.&.$X$X$X$X$X$X$X$X$X$Xy.Y.Y.Y.p.y.x.q.,.u.q.v.v.w.A.v.p.p.x.p.p.x.x.=.$X$X$X$X$X$X$X$X$X$X$X$X$X$X$X$X$X$X$X$X$X$X$X$X$X$X",
"$X$X$X$X$X$X$X$X$X$X$XN.M.7.%.$X$X$X$X$X$X$X$X$X$X$X$X$X$X$X$Xx.b.p.c.x.>.w.w.q.y.J.v.2.H.v.x.p.x.x.u.p.x.p.&.$X$X$X$X$X$X$X$X$X$X$X$X$X$X$X$X$X$X$X$X$X$X$X$X$X",
"$X$X$X$X$X$X$X$X$X$X$X$X$X$X$X$X$X$X$X$X$X$X$X$X$X$X$X$X$X$X$X@.&.>.>.=.>.>.q.x.v.K.g.q.H.b.x.p.p.b.h.u.x.x.q.$X$X$X$X$X$X$X$X$X$X$X$X$X$X$X$X$X$X$X$X$X$X$X$X$X",
"$X$X$X$X$X$X$X$X$X$X$X$X$X$X$X$X$X$X$X$X$X$X$X$X$X$X$X$X$X$X$X$XO.>.,.&.y.y.x.x.v.H.y.g.H.H.x.x.p.b.A.u.x.x.x.=.$X$X$X$X$X$X$X$X$X$X$X$X$X$X$X$X$X$X$X$X$X$X$X$X",
"$X$X$X$X$X$X$X$X$X$X$X$X$X$X$X$X$X$X$X$X$X$X$X$X$X$X$X$X$X$X$X$X*.y.y.y.p.x.x.x.x.g.w.b.b.J.x.x.p.c.J.p.p.x.x.q.$X$X$X$X$X$X$X$X$X$X$X$X$X$X$X$X$X$X$X$X$X$X$X$X",
"$X$X$X$X$X$X$X$X$X$X$X$X$X$X$X$X$X$X$X$X$X$X$X$X$X$X$X$X$X$X$X$Xp.x.x.x.p.x.x.x.p.7.q.v.c.J.x.x.x.x.J.v.p.x.x.x.$X$X$X$X$X$X$X$X$X$X$X$X$X$X$X$X$X$X$X$X$X$X$X$X",
"$X$X$X$X$X$X$X$X$X$X$X$X$X$X$X$X$X$X$X$X$X$X$X$X$X$X$X$X$X$X$X$X>.p.x.x.y.u.p.u.,.q.x.y.A.J.x.v.x.x.J.J.x.x.x.x.q.$X$X$X$X$X$X$X$X$X$X$X$X$X$X$X$X$X$X$X$X$X$X$X",
"$X$X$X$X$X$X$X$X$X$X$X$X$X$X$X$X$X$X$X$X$X$X$X$X$X$X$X$X$X$X$X$X$Xw.x.x.x.>.&.,.w.y.p.y.K.J.x.v.x.x.J.J.x.x.x.x.y.$X$X$X$X$X$X$X$X$X$X$X$X$X$X$X$X$X$X$X$X$X$X$X",
"$X$X$X$X$X$X$X$X$X$X$X$X$X$X$X$X$X$X$X$X$X$X$X$X$X$X$X$X$X$X$X$X$X,.p.p.p.w.&.w.u.u.q.x.L.b.c.H.x.x.K.K.x.x.x.y.y.$X$X$X$X$X$X$X$X$X$X$X$X$X$X$X$X$X$X$X$X$X$X$X",
"$X$X$X$X$X$X$X$X$X$X$X$X$X$X$X$X$X$X$X$X$X$X$X$X$X$X$X$X$X$X$X$X$Xu.p.u.u.w.q.u.u.w.x.J.T.x.v.J.x.x.K.K.x.p.y.>.>.%.$X$X$X$X$X$X$X$X$X$X$X$X$X$X$X$X$X$X$X$X$X$X",
"$X$X$X$X$X$X$X$X$X$X$X$X$X$X$X$X$X$X$X$X$X$X$X$X$X$X$X$X$X$X$X$X$Xx.b.x.c.w.u.u.w.p.H.E.J.x.H.J.x.v.E.K.x.u.&.&.,.+.$X$X$X$X$X$X$X$X$X$X$X$X$X$X$X$X$X$X$X$X$X$X",
"$X$X$X$X$X$X$X$X$X$X$X$X$X$X$X$X$X$X$X$X$X$X$X$X$X$X$X$X$X$X$X$X%.y.b.b.Y.p.,.w.x.J.E.K.v.x.K.J.x.H.E.J.x.>.$X$X>.$X$X$X$X$X$X$X$X$X$X$X$X$X$X$X$X$X$X$X$X$X$X$X",
"$X$X$X$X$X$X$X$X$X$X$X$X$X$X$X$X$X$X$X$X$X$X$X$X$X$X$X$X$X$X$Xq.x.x.b.b.b.q.q.v.K.!.E.H.x.b.E.b.x.J.E.H.p.&.$X$X$X$X$X$X$X$X$X$X$X$X$X$X$X$X$X$X$X$X$X$X$X$X$X$X",
"$X$X$X$X$X$X$X$X$X$X$X$X$X$X$X$X$X$X$X$X$X$X$X$X$X$X$X$X$X$X$Xy.b.b.x.y.w.r.K.E.!.!.J.x.c.K.E.v.v.E.E.v.q.$X$X$X$X$X$X$X$X$X$X$X$X$X$X$X$X$X$X$X$X$X$X$X$X$X$X$X",
"$X$X$X$X$X$X$X$X$X$X$X$X$X$X$X$X$X$X$X$X$X$X$X$X$X$X$X$X$X$Xq.x.y.u.p.2.>.D.!.!.E.J.v.x.H.!.K.v.J.!.K.x.>.$X$X$X$X$X$X$X$X$X$X$X$X$X$X$X$X$X$X$X$X$X$X$X$X$X$X$X",
"$X$X$X$X$X$X$X$X$X$X$X$X$X$X$X$X$X$X$X$X$X$X$X$X$X$X$X$X$Xk.H.D.k.A.g.3.4.K.!.E.K.v.x.b.E.E.H.H.E.E.J.r.$X$X$X$X$X$X$X$X$X$X$X$X$X$X$X$X$X$X$X$X$X$X$X$X$X$X$X$X",
"$X$X$X$X$X$X$X$X$X$X$X$X$X$X$X$X$X$X$X$X$X$X$X$X$X$X$X$Xj.D.D.D.D.D.2.h.d.K.K.H.x.x.H.E.!.L.D.E.!.E.j.$X$X$X$X$X$X$X$X$X$X$X$X$X$X$X$X$X$X$X$X$X$X$X$X$X$X$X$X$X",
"$X$X$X$X$X$X$X$X$X$X$X$X$X$X$X$X$X$X$X$X$X$X$X$X$X$X$Xk.k.k.k.k.k.r.w.D.k.h.b.x.x.J.E.!.E.K.L.E.!.J.>.$X$X$X$X$X$X$X$X$X$X$X$X$X$X$X$X$X$X$X$X$X$X$X$X$X$X$X$X$X",
"$X$X$X$X$X$X$X$X$X$X$X$X$X$X$X$X$X$X$X$X$X$X$X$X$X$XD.D.D.k.k.k.i.3.d.k.k.r.x.b.K.!.!.E.K.E.E.E.R.r.$X$X$X$X$X$X$X$X$X$X$X$X$X$X$X$X$X$X$X$X$X$X$X$X$X$X$X$X$X$X",
"$X$X$X$X$X$X$X$X$X$X$X$X$X$X$X$X$X$X$X$X$X$X$X$X$Xk.D.D.D.D.D.D.u.u.d.f.k.g.J.E.!.!.!.E.E.E.!.E.s.$X$X$X$X$X$X$X$X$X$X$X$X$X$X$X$X$X$X$X$X$X$X$X$X$X$X$X$X$X$X$X",
"$X$X$X$X$X$X$X$X$X$X$X$X$X$X$X$X$X$X$X$X$X$X$X$Xf.D.D.D.D.D.D.g.,.i.k.D.k.D.!.!.!.!.E.E.E.!.K.e.$X$X$X$X$X$X$X$X$X$X$X$X$X$X$X$X$X$X$X$X$X$X$X$X$X$X$X$X$X$X$X$X",
"$X$X$X$X$X$X$X$X$X$X$X$X$X$X$X$X$X$X$X$X$X$X$X1.D.D.D.D.D.D.D.3.r.k.D.D.n.j.E.!.!.!.!.!.!.K.$.p $X$X$X$X$X$X$X$X$X$X$X$X$X$X$X$X$X$X$X$X$X$X$X$X$X$X$X$X$X$X$X$X",
"$X$X$X$X$X$X$X$X$X$X$X$X$X$X$X$X$X$X$X$X$X$X$Xk.D.D.D.D.D.D.g.w.k.D.D.D.D.g.J.!.!.!.!.E.j.K k i $X$X$X$X$X$X$X$X$X$X$X$X$X$X$X$X$X$X$X$X$X$X$X$X$X$X$X$X$X$X$X$X",
"$X$X$X$X$X$X$X$X$X$X$X$X$X$X$X$X$X$X$X$X$X$X1.D.D.D.D.D.D.D.i.i.D.D.D.D.D.j.k.!.!.!.J.*.m 7 b c $X$X$X$X$X$X$X$X$X$X$X$X$X$X$X$X$X$X$X$X$X$X$X$X$X$X$X$X$X$X$X$X",
"$X$X$X$X$X$X$X$X$X$X$X$X$X$X$X$X$X$X$X$X$X$Xs.D.D.D.D.D.D.D.i.k.D.D.D.D.D.D.g.!.I.a.J 5 l F I b $X$X$X$X$X$X$X$X$X$X$X$X$X$X$X$X$X$X$X$X$X$X$X$X$X$X$X$X$X$X$X$X",
"$X$X$X$X$X$X$X$X$X$X$X$X$X$X$X$X$X$X$X$X$X$Xr.D.D.D.D.D.D.k.i.D.D.D.D.D.D.D.e.j.4.1 8 s I I I c $X$X$X$X$X$X$X$X$X$X$X$X$X$X$X$X$X$X$X$X$X$X$X$X$X$X$X$X$X$X$X$X",
"$X$X$X$X$X$X$X$X$X$X$X$X$X$X$X$X$X$X$X$X$X$X$Xs.D.D.D.D.D.h.g.D.D.D.D.k.d.1.@.$X$X- 8 j I I F a $X$X$X$X$X$X$X$X$X$X$X$X$X$X$X$X$X$X$X$X$X$X$X$X$X$X$X$X$X$X$X$X",
"$X$X$X$X$X$X$X$X$X$X$X$X$X$X$X$X$X$X$X$X$X$X$X$.1.s.k.k.r.w.h.k.d.4.1.*.$X$X$X$X$X, 9 7 I I v a $X$X$X$X$X$X$X$X$X$X$X$X$X$X$X$X$X$X$X$X$X$X$X$X$X$X$X$X$X$X$X$X",
"$X$X$X$X$X$X$X$X$X$X$X$X$X$X$X$X$X$X$X$X$X$X$X$X$X$XO.O.$.%.<.*.O.$X$X$X$X$X$X$X$X; 9 4 b I j l $X$X$X$X$X$X$X$X$X$X$X$X$X$X$X$X$X$X$X$X$X$X$X$X$X$X$X$X$X$X$X$X",
"$X$X$X$X$X$X$X$X$X$X$X$X$X$X$X$X$X$X$X$X$X$X$X$X$X$X$X$X$X$X$X$X$X$X$X$X$X$X$X$X$X= 9 9 v l 7 b $X$X$X$X$X$X$X$X$X$X$X$X$X$X$X$X$X$X$X$X$X$X$X$X$X$X$X$X$X$X$X$X",
"$X$X$X$X$X$X$X$X$X$X$X$X$X$X$X$X$X$X$X$X$X$X$X$X$X$X$X$X$X$X$X$X$X$X$X$X$X$X$X$X$X& 8 9 5 4 l L $X$X$X$X$X$X$X$X$X$X$X$X$X$X$X$X$X$X$X$X$X$X$X$X$X$X$X$X$X$X$X$X",
"$X$X$X$X$X$X$X$X$X$X$X$X$X$X$X$X$X$X$X$X$X$X$X$X$X$X$X$X$X$X$X$X$X$X$X$X$X$X$X$X$X& < 9 9 5 b I $X$X$X$X$X$X$X$X$X$X$X$X$X$X$X$X$X$X$X$X$X$X$X$X$X$X$X$X$X$X$X$X",
"$X$X$X$X$X$X$X$X$X$X$X$X$X$X$X$X$X$X$X$X$X$X$X$X$X$X$X$X$X$X$X$X$X$X$X$X$X$X$X$X$X$X, 9 4 v b l $X$X$X$X$X$X$X$X$X$X$X$X$X$X$X$X$X$X$X$X$X$X$X$X$X$X$X$X$X$X$X$X",
"$X$X$X$X$X$X$X$X$X$X$X$X$X$X$X$X$X$X$X$X$X$X$X$X$X$X$X$X$X$X$X$X$X$X$X$X$X$X$X$X$X$X- < k l 5 7 p $X$X$X$X$X$X$X$X$X$X$X$X$X$X$X$X$X$X$X$X$X$X$X$X$X$X$X$X$X$X$X",
"$X$X$X$X$X$X$X$X$X$X$X$X$X$X$X$X$X$X$X$X$X$X$X$X$X$X$X$X$X$X$X$X$X$X$X$X$X$X$X$X$X$X- 6 k 5 7 p p $X$X$X$X$X$X$X$X$X$X$X$X$X$X$X$X$X$X$X$X$X$X$X$X$X$X$X$X$X$X$X",
"$X$X$X$X$X$X$X$X$X$X$X$X$X$X$X$X$X$X$X$X$X$X$X$X$X$X$X$X$X$X$X$X$X$X$X$X$X$X$X$X$X$X3 j k v b b i $X$X$X$X$X$X$X$X$X$X$X$X$X$X$X$X$X$X$X$X$X$X$X$X$X$X$X$X$X$X$X",
"$X$X$X$X$X$X$X$X$X$X$X$X$X$X$X$X$X$X$X$X$X$X$X$X$X$X$X$X$X$X$X$X$X$X$X$X$X$X$X$X$X: v l c u n P y $X$X$X$X$X$X$X$X$X$X$X$X$X$X$X$X$X$X$X$X$X$X$X$X$X$X$X$X$X$X$X",
"$X$X$X$X$X$X$X$X$X$X$X$X$X$X$X$X$X$X$X$X$X$X$X$X$X$X$X$X$X$X$X$X$X$X$X$X$X$X$X$X$X> b l 2 f x x u $X$X$X$X$X$X$X$X$X$X$X$X$X$X$X$X$X$X$X$X$X$X$X$X$X$X$X$X$X$X$X",
"$X$X$X$X$X$X$X$X$X$X$X$X$X$X$X$X$X$X$X$X$X$X$X$X$X$X$X$X$X$X$X$X$X$X$X$X$X$X$X$X$X* a 4 > % u u $ O $X$X$X$X$X$X$X$X$X$X$X$X$X$X$X$X$X$X$X$X$X$X$X$X$X$X$X$X$X$X",
"$X$X$X$X$X$X$X$X$X$X$X$X$X$X$X$X$X$X$X$X$X$X$X$X$X$X$X$X$X$X$X$X$X$X$X$X$X$X$X$X$X$X$X$X$XO $ $ d $ $X$X$X$X$X$X$X$X$X$X$X$X$X$X$X$X$X$X$X$X$X$X$X$X$X$X$X$X$X$X",
"$X$X$X$X$X$X$X$X$X$X$X$X$X$X$X$X$X$X$X$X$X$X$X$X$X$X$X$X$X$X$X$X$X$X$X$X$X$X$X$X$X$X$X$X$XX O $ @ X $X$X$X$X$X$X$X$X$X$X$X$X$X$X$X$X$X$X$X$X$X$X$X$X$X$X$X$X$X$X",
"$X$X$X$X$X$X$X$X$X$X$X$X$X$X$X$X$X$X$X$X$X$X$X$X$X$X$X$X$X$X$X$X$X$X$X$X$X$X$X$X$X$X$X$X$XX   X o O $X$X$X$X$X$X$X$X$X$X$X$X$X$X$X$X$X$X$X$X$X$X$X$X$X$X$X$X$X$X",
"$X$X$X$X$X$X$X$X$X$X$X$X$X$X$X$X$X$X$X$X$X$X$X$X$X$X$X$X$X$X$X$X$X$X$X$X$X$X$X$X$X$X$X$X$XX X $ d % $X$X$X$X$X$X$X$X$X$X$X$X$X$X$X$X$X$X$X$X$X$X$X$X$X$X$X$X$X$X",
"$X$X$X$X$X$X$X$X$X$X$X$X$X$X$X$X$X$X$X$X$X$X$X$X$X$X$X$X$X$X$X$X$X$X$X$X$X$X$X$X$X$X$X$Xg o $ d $ X $X$X$X$X$X$X$X$X$X$X$X$X$X$X$X$X$X$X$X$X$X$X$X$X$X$X$X$X$X$X",
"$X$X$X$X$X$X$X$X$X$X$X$X$X$X$X$X$X$X$X$X$X$X$X$X$X$X$X$X$X$X$X$X$X$X$X$X$X$X$X$X$X$X$X$ $ O % @ $X$X$X$X$X$X$X$X$X$X$X$X$X$X$X$X$X$X$X$X$X$X$X$X$X$X$X$X$X$X$X$X",
"$X$X$X$X$X$X$X$X$X$X$X$X$X$X$X$X$X$X$X$X$X$X$X$X$X$X$X$X$X$X$X$X$X$X$X$X$X$X$X$X$X$X$X#   . X $X$X$X$X$X$X$X$X$X$X$X$X$X$X$X$X$X$X$X$X$X$X$X$X$X$X$X$X$X$X$X$X$X",
"$X$X$X$X$X$X$X$X$X$X$X$X$X$X$X$X$X$X$X$X$X$X$X$X$X$X$X$X$X$X$X$X$X$X$X$X$X$X$X$X$X$X$X$X$X$X$X$X$X$X$X$X$X$X$X$X$X$X$X$X$X$X$X$X$X$X$X$X$X$X$X$X$X$X$X$X$X$X$X$X",
"$X$X$X$X$X$X$X$X$X$X$X$X$X$X$X$X$X$X$X$X$X$X$X$X$X$X$X$X$X$X$X$X$X$X$X$X$X$X$X$X$X$X$X$X$X$X$X$X$X$X$X$X$X$X$X$X$X$X$X$X$X$X$X$X$X$X$X$X$X$X$X$X$X$X$X$X$X$X$X$X",
"$X$X$X$X$X$X$X$X$X$X$X$X$X$X$X$X$X$X$X$X$X$X$X$X$X$X$X$X$X$X$X$X$X$X$X$X$X$X$X$X$X$X$X$X$X$X$X$X$X$X$X$X$X$X$X$X$X$X$X$X$X$X$X$X$X$X$X$X$X$X$X$X$X$X$X$X$X$X$X$X",
"$X$X$X$X$X$X$X$X$X$X$X$X$X$X$X$X$X$X$X$X$X$X$X$X$X$X$X$X$X$X$X$X$X$X$X$X$X$X$X$X$X$X$X$X$X$X$X$X$X$X$X$X$X$X$X$X$X$X$X$X$X$X$X$X$X$X$X$X$X$X$X$X$X$X$X$X$X$X$X$X",
"$X$X$X$X$X$X$X$X$X$X$X$X$X$X$X$X$X$X$X$X$X$X$X$X$X$X$X$X$X$X$X$X$X$X$X$X$X$X$X$X$X$X$X$X$X$X$X$X$X$X$X$X$X$X$X$X$X$X$X$X$X$X$X$X$X$X$X$X$X$X$X$X$X$X$X$X$X$X$X$X",
"$X$X$X$X$X$X$X$X$X$X$X$X$X$X$X$X$X$X$X$X$X$X$X$X$X$X$X$X$X$X$X$X$X$X$X$X$X$X$X$X$X$X$X$X$X$X$X$X$X$X$X$X$X$X$X$X$X$X$X$X$X$X$X$X$X$X$X$X$X$X$X$X$X$X$X$X$X$X$X$X",
"$X$X$X$X$X$X$X$X$X$X$X$X$X$X$X$X$X$X$X$X$X$X$X$X$X$X$X$X$X$X$X$X$X$X$X$X$X$X$X$X$X$X$X$X$X$X$X$X$X$X$X$X$X$X$X$X$X$X$X$X$X$X$X$X$X$X$X$X$X$X$X$X$X$X$X$X$X$X$X$X"
};
