/* XPM */
static char *result[] = {
/* columns rows colors chars-per-pixel */
"80 80 216 2 ",
"   c #251725",
".  c #2A1E2A",
"X  c #2D232D",
"o  c #332732",
"O  c #372C37",
"+  c #373137",
"@  c #3A333B",
"#  c #3D3A3D",
"$  c #4F1915",
"%  c #521A1A",
"&  c #492629",
"*  c #532422",
"=  c #5A2525",
"-  c #592A25",
";  c #5D2C2B",
":  c #5E312E",
">  c #5F2F30",
",  c #523432",
"<  c #5C3432",
"1  c #563935",
"2  c #593836",
"3  c #553C3B",
"4  c #5C3A3A",
"5  c #61312F",
"6  c #623232",
"7  c #673C3B",
"8  c #693B3B",
"9  c #7D563E",
"0  c #3F3B40",
"q  c #413542",
"w  c #413C42",
"e  c #473D49",
"r  c #543E40",
"t  c #593E41",
"y  c #444344",
"u  c #4C4446",
"i  c #49434E",
"p  c #4C4B4D",
"a  c #554144",
"s  c #594144",
"d  c #52454B",
"f  c #5A454B",
"g  c #54484E",
"h  c #5B4D4D",
"j  c #5F504F",
"k  c #4D4350",
"l  c #4E4C50",
"z  c #544754",
"x  c #544A53",
"c  c #5A4A51",
"v  c #5B4E5A",
"b  c #585459",
"n  c #704243",
"m  c #744D4B",
"M  c #64524D",
"N  c #6C554A",
"B  c #79544E",
"V  c #674E50",
"C  c #7C4E53",
"Z  c #675457",
"A  c #6C5653",
"S  c #6F5857",
"D  c #64535E",
"F  c #6D595B",
"G  c #745152",
"H  c #7A5554",
"J  c #735A56",
"K  c #7D5954",
"L  c #755B59",
"P  c #7C5D5C",
"I  c #6D605A",
"U  c #70615A",
"Y  c #7E605E",
"T  c #5E5463",
"R  c #5B5A64",
"E  c #665762",
"W  c #665C6D",
"Q  c #745D67",
"!  c #63636C",
"~  c #7F6262",
"^  c #776669",
"/  c #6A6772",
"(  c #756977",
")  c #6F7075",
"_  c #787479",
"`  c #990808",
"'  c #861518",
"]  c #A30F0F",
"[  c #892C2D",
"{  c #9A3435",
"}  c #A02F2F",
"|  c #8B572F",
" . c #A1423C",
".. c #8E6139",
"X. c #95643F",
"o. c #A76D3F",
"O. c #9B484C",
"+. c #835B5A",
"@. c #95575B",
"#. c #A04A4C",
"$. c #AD5152",
"%. c #9E6F4A",
"&. c #82605D",
"*. c #8F5E65",
"=. c #836262",
"-. c #896966",
";. c #886668",
":. c #846869",
">. c #8D6C6C",
",. c #97696B",
"<. c #916F6F",
"1. c #8A766C",
"2. c #96726E",
"3. c #9E6C77",
"4. c #947272",
"5. c #9B7674",
"6. c #967875",
"7. c #9C7B77",
"8. c #9C7A7A",
"9. c #A5686B",
"0. c #A67774",
"q. c #A27C7B",
"w. c #AA7C7D",
"e. c #9E8055",
"r. c #9A8173",
"t. c #B18C6C",
"y. c #A28A77",
"u. c #A4847B",
"i. c #797982",
"p. c #A77E84",
"a. c #868284",
"s. c #85848B",
"d. c #89888B",
"f. c #9C8184",
"g. c #988B85",
"h. c #8D8D96",
"j. c #948F95",
"k. c #9B8E93",
"l. c #94949A",
"z. c #96979A",
"x. c #A68383",
"c. c #AA8585",
"v. c #AC8B84",
"b. c #A98788",
"n. c #AD8B8B",
"m. c #B28484",
"M. c #B38D8C",
"N. c #B88F8F",
"B. c #AE9085",
"V. c #B39586",
"C. c #B19C86",
"Z. c #B2938D",
"A. c #B59B8A",
"S. c #BB9C8D",
"D. c #A58C91",
"F. c #AD9394",
"G. c #A99997",
"H. c #A5959A",
"J. c #B49493",
"K. c #BA9595",
"L. c #BC9C96",
"P. c #B39D99",
"I. c #BD9B9B",
"U. c #BCA48D",
"Y. c #BCA191",
"T. c #BCA699",
"R. c #9D9DA2",
"E. c #A59EA4",
"W. c #AF9FA3",
"Q. c #A2A2A5",
"!. c #AAA1A4",
"~. c #A4A3A9",
"^. c #A8A5AA",
"/. c #AAAAAD",
"(. c #B3A9A8",
"). c #B6B0B2",
"_. c #B3B1B7",
"`. c #BAB2B3",
"'. c #BBBABB",
"]. c #C09E9D",
"[. c #C2A494",
"{. c #C6AC93",
"}. c #C5A49B",
"|. c #C8A79B",
" X c #C5A898",
".X c #CCAC9C",
"XX c #D1AF9C",
"oX c #C9B19B",
"OX c #D3B59D",
"+X c #D3BA9E",
"@X c #C19FA0",
"#X c #C5A4A3",
"$X c #CBABA4",
"%X c #CCB3A8",
"&X c #D3B2A3",
"*X c #D3B9A2",
"=X c #DABBA3",
"-X c #D6BAAA",
";X c #DCBCA9",
":X c #C0BDBE",
">X c #DBC0A2",
",X c #DFCAB7",
"<X c #E2C2A6",
"1X c #E4C4AB",
"2X c #ECCCAE",
"3X c #EECEB1",
"4X c #F4D4B3",
"5X c #F5D8BA",
"6X c #BFBFC3",
"7X c #C8C8C9",
"8X c #D0CFCF",
"9X c #D3D3D4",
"0X c #DCDCDE",
"qX c #E9E9E9",
"wX c #F3F3F3",
"eX c None",
/* pixels */
"eXeXeXeXeXeXeXeXeXeXeXeXeXeXeXeXeXeXeXeXeXeXeXeXeXeXeXeXeXeXeXeXeXeXeXeXeXeXeXeXeXeXeXeXeXeXeXeXeXeXeXeXeXeXeXeXeXeXeXeXeXeXeXeXeXeXeXeXeXeXeXeXeXeXeXeXeXeXeXeX",
"eXeXeXeXeXeXeXeXeXeXeXeXeXeXeXeXeXeXeXeXeXeXeXeXeXeXeXeXeXeXeXeXeXeXeXeXeXeXeXeXeXeXeXeXeXeXeXeXeXeXeXeXeXeXeXeXeXeXeXeXeXeXeXeXeXeXeXeXeXeXeXeXeXeXeXeXeXeXeXeX",
"eXeXeXeXeXeXeXeXeXeXeXeXeXeXeXeXeXeXeXeXeXeXeXeXeXeXeXeXeXeXeXeXeXeXeXeXeXeXeXeXeXeXeXeXeXeXeXeXeXeXeXeXeXeXeXeXeXeXeXeXeXeXeXeXeXeXeXeXeXeXeXeXeXeXeXeXeXeXeXeX",
"eXeXeXeXeXeXeXeXeXeXeXeXeXeXeXeXeXeXeXeXeXeXeXeXeXeXeXeXeXeXeXeXeXeXeXeXeXeXeXeXeXeXeXeXeXeXeXeXeXeXeXeXeXeXeXeXeXeXeXeXeXeXeXeXeXeXeXeXeXeXeXeXeXeXeXeXeXeXeXeX",
"eXeXeXeXeXeXeXeXeXeXeXeXeXeXeXeXeXeXeXeXeXeXeXeXeXeXeXeXeXeXeXeXeXeXeXeXeXeXeXeXeXeXeXeXeXeXeXeXeXeXeXeXeXeXeXeXeXeXeXeXeXeXeXeXeXeXeXeXeXeXeXeXeXeXeXeXeXeXeXeX",
"eXeXeXeXeXeXeXeXeXeXeXeXeXeXeXeXeXeXeXeXeXeXeXeXeXeXeXeXeXeXeXeXeXeXeXeXeXeXeXeXeXeXeXeXeXeXeXeXeXeXeXeXeXeXeXeXeXeXeXeXeXeXeXeXeXeXeXeXeXeXeXeXeXeXeXeXeXeXeXeX",
"eXeXeXeXeXeXeXeXeXeXeXeXeXeXeXeXeXeXeXeXeXeXeXeXeXeXeXeXeXeXeXeXeXeXeXeXeXeXeXeXeXeXeXeXeXeXeXeXeXeXeXeXeXeXeXeXeXeXeXeXeXeXeXeXeXeXeXeXeXeXeXeXeXeXeXeXeXeXeXeX",
"eXeXeXeXeXeXeXeXeXeXeXeXeXeXeXeXeXeXeXeXeXeXeXeXeXeXeXeXeXeXeXeXeXeXeXeXeXeXeXeXeXeXeXeXeXeXeXeXeXeXeXeXeXeXeXeXeXeXeXeXeXeXeXeXeXeXeXeXeXeXeXeXeXeXeXeXeXeXeXeX",
"eXeXeXeXeXeXeXeXeXeXeXeXeXeXeXeXeXeXeXeXeXeXeXeXeXeXeXeXeXeXeXeXeXeXeXeXeXeXeXeXeXeXeXeXeXeXeXeXeXeXeXeXeXeXeXeXeXeXeXeXeXeXeXeXeXeXeXeXeXeXeXeXeXeXeXeXeXeXeXeX",
"eXeXeXeXeXeXeXeXeXeXeXeXeXeXeXeXeXeXeXeXeXeXeXeXeXeXeXeXeXeXeXeXeXeXeXeXeXeXeXeXeXeXeXeXeXeXeXeXeXeXeXeXeXeXeXeXeXeXeXeXeXeXeXeXeXeXeXeXeXeXeXeXeXeXeXeXeXeXeXeX",
"eXeXeXeXeXeXeXeXeXeXeXeXeXeXeXeXeXeXeXeXeXeXeXeXeXeXeXeXeXeXeXeXeXeXeXeXeXeXeXeXeXeXeXeXeXeXeXeXeXeXeXeXeXeXeXeXeXeXeXeXeXeXeXeXeXeXeXeXeXeXeXeXeXeXeXeXeXeXeXeX",
"eXeXeXeXeXeXeXeXeXeXeXeXeXeXeXeXeXeXeXeXeXeXeXeXeXeXeXeXeXeXeXeXeXeXeXeXeXeXeXeXeXeXeXeXeXeXeXeXeXeXeXeXJ.n.n.n.eXeXeXeXeXeXeXeXeXeXeXeXeXeXeXeXeXeXeXeXeXeXeXeX",
"eXeXeXeXeXeXeXeXeXeXeXeXeXeXeXeXeXeXeXeXeXeXeXeXeXeXeXeXeXeXeXeXeXeXeXeXeXeXeXeXeXeXeXeXeXeXeXeXeXeXeXw.c.m.m.p.3.3.eXeXeXeXeXeXeXeXeXeXeXeXeXeXeXeXeXeXeXeXeXeX",
"eXeXeXeXeXeXeXeXeXeXeXeXeXeXeXeXeXeXeXeXeXeXeXeXeXeXeXeXeXeXeXeXeXeXeXeXeXeXeXeXeXeXeXeXeXeXeXeXeXeXeX9.$.#.{ O.9.3.eXeXeXeXeXeXeXeXeXeXeXeXeXeXeXeXeXeXeXeXeXeX",
"eXeXeXeXeXeXeXeXeXeXeXeXeXeXeXeXeXeXeXeXeXeXeXeXeXeXeXeXeXeXeXeXeXeXeXeXeXeXeXeXeXeXeXeXeXeXeXeXeX+.C V A V +.@.#.O.eXeXeXeXeXeXeXeXeXeXeXeXeXeXeXeXeXeXeXeXeXeX",
"eXeXeXeXeXeXeXeXeXeXeXeXeXeXeXeXeXeXeXeXeXeXeXeXeXeXeXeXeXeXeXeX<X4X3X4X2X4X1X=XeX;X*X2X<XOX{.{.OXS.Q R / ) U ..G C ,.eXeXeXeXeXeXeXeXeXeXeXeXeXeXeXeXeXeXeXeXeX",
"eXeXeXeXeXeXeXeXeXeXeXeXeXeXeXeXeXeXeXeXeXeXeXeXeXeXeXeXeXeXeXoX>X3X-X1X2X4X4X4X2X4X;X3X3X<X;X4X4XOXa.s.~.l.1.e._ Z n *.eXeXeXeXeXeXeXeXeXeXeXeXeXeXeXeXeXeXeXeX",
"eXeXeXeXeXeXeXeXeXeXeXeXeXeXeXeXeXeXeXeXeXeXeXeXeXeXeXeXeXeX{.>X*X<X$X&X<X;X2X4X2X;X1X1X3X1XI.1X=Xg._ d.Q.z.l./.j.h 6 eXeXeXeXeXeXeXeXeXeXeXeXeXeXeXeXeXeXeXeXeX",
"eXeXeXeXeXeXeXeXeXeXeXeXeXeXeXeXeXeXeXeXeXeXeXeXeXeXeXeXeXeX+X=X&X$X&XL.&X$X$X;X3X;X;X1X<X3XL..XT.j.r.I a.d.R./.d.eXeXeXeXeXeXeXeXeXeXeXeXeXeXeXeXeXeXeXeXeXeXeX",
"eXeXeXeXeXeXeXeXeXeXeXeXeXeXeXeXeXeXeXeXeXeXeXeXeXeXeXeXeX{.*X&X$X#X$XJ.K.#X#X#X$X&X$X&X&X1X.X.XT.R.g...9 ^ l./.l.eXeXeXeXeXeXeXeXeXeXeXeXeXeXeXeXeXeXeXeXeXeXeX",
"eXeXeXeXeXeXeXeXeXeXeXeXeXeXeXeXeXeXeXeXeXeXeXeXeXeXeXeXeX+X&X$X#X#X].q.eXx.J.I.#X#X#X].=X=X;X4XoX^.).t.o.| N _ eXeXeXeXeXeXeXeXeXeXeXeXeXeXeXeXeXeXeXeXeXeXeXeX",
"eXeXeXeXeXeXeXeXeXeXeXeXeXeXeXeXeXeXeXeXeXeXeXeXeXeXeXeXA.=X$X#X#X#Xc.eXeXeXeX6.8.n.J.K.<X1X}.2X-X/.'.(.%.X.t.y.eXeXeXeXeXeXeXeXeXeXeXeXeXeXeXeXeXeXeXeXeXeXeXeX",
"eXeXeXeXeXeXeXeXeXeXeXeXeXeXeXeXeXeXeXeXeXeXeXeXeXeXeXeXC.oX$X#X#XM.eXeXeXeXeXeXeXu.x.I.&X2X[..X*X^.j.$. .G.+XoXeXeXeXeXeXeXeXeXeXeXeXeXeXeXeXeXeXeXeXeXeXeXeXeX",
"eXeXeXeXeXeXeXeXeXeXeXeXeXeXeXeXeXeXeXeXeXeXeXeXeXeXeXeXU.[.].].J.eXeXeXeXeXeXeXeXV.c.I.&X4X=XJ.L.'.!.' { G.v.Y.{.eXeXeXeXeXeXeXeXeXeXeXeXeXeXeXeXeXeXeXeXeXeXeX",
"eXeXeXeXeXeXeXeXeXeXeXeXeXeXeXeXeXeXeXeXeXeXeXeXeXeXeX{.+XL.J.J.8.eXeXeXeXeXeXeXY.S.M.I.$X2X1XJ.J.`.:X[ 9.oXU.A.>XU.eXeXeXeXeXeXeXeXeXeXeXeXeXeXeXeXeXeXeXeXeXeX",
"eXeXeXeXeXeXeXeXeXeXeXeXeXeXeXeXeXeXeXeXeXeXeXeXeXeXeXg.[.}.I.n.eXeXeXeXeXeXeXeXZ.J.I.I.#X<X1XK.K.(.9.` 0.+X[.V.OXA.eXeXeXeXeXeXeXeXeXeXeXeXeXeXeXeXeXeXeXeXeXeX",
"eXeXeXeXeXeXeXeXeXeXeXeXeXeXeXeXeXeXeXeXeXeXeXeXeXeXeX^.(.P.I.b.eXeXeXeXeXeXeXeXn.I.#XI.#X$X-XK.N.3.` ] B..XS.+X>XU.eXeXeXeXeXeXeXeXeXeXeXeXeXeXeXeXeXeXeXeXeXeX",
"eXeXeXeXeXeXeXeXeXeXeXeXeXeXeXeXeXeXeXeXeXeXeXeXeXeXeX8X9X8X`.s.eXeXeXeXeXeXeX<.x.I.#X#X#X#X#XK.M.9.` } J.Z. X XL.eXeXeXeXeXeXeXeXeXeXeXeXeXeXeXeXeXeXeXeXeXeXeX",
"eXeXeXeXeXeXeXeXeXeXeXeXeXeXeXeXeXeXeXeXeXeXeXeXeXeXQ.'.9X9X'.Q.eXeXeXeXeX8.n.u.7.M.#X#X#XZ.b.].m.w.[ 0.M.XX=X.Xb.eXeXeXeXeXeXeXeXeXeXeXeXeXeXeXeXeXeXeXeXeXeXeX",
"eXeXeXeXeXeXeXeXeXeXeXeXeXeXeXeXeXeXeXeXeXeXeXeXeXi.h.Q.'.7X_.Q.eXeXeXeX8.M.J.b.x.q.I.#X#XZ.J.#Xm.q.2.L.1X4X2X}.4.eXeXeXeXeXeXeXeXeXeXeXeXeXeXeXeXeXeXeXeXeXeXeX",
"eXeXeXeXeXeXeXeXeXeXeXeXeXeXeXeXeXeXeXeXeXeXeXeXeXeXs.R.l.z.Q.eXeXeXeXeXx.J.J.M.q.6.6.M.I.#X#X#XN.-.V.2X4X2X.Xb.eXeXeXeXeXeXeXeXeXeXeXeXeXeXeXeXeXeXeXeXeXeXeXeX",
"eXeXeXeXeXeXeXeXeXeXeXeXeXeXeXeXeXeXeXeXeXeXeXeXeXeXeXeXs.s.eXeXeXeXv.Z.n.c.b.J.x.7.7.x.f.b.I.].c.q.=X4X4X4X.Xx.eXeXeXeXeXeXeXeXeXeXeXeXeXeXeXeXeXeXeXeXeXeXeXeX",
"eXeXeXeXeXeXeXeXeXeXeXeXeXeXeXeXeXeXeXeXeXeXeXeXeXeXeXeXeXeXeXeXV.[.XX&X}.J.n.x.6.u.J.H.H.x.p.6.<.v.2X4X4X=XJ.6.eXeXeXeXeXeXeXeXeXeXeXeXeXeXeXeXeXeXeXeXeXeXeXeX",
"eXeXeXeXeXeXeXeXeXeXeXeXeXeXeXeXeXeXeXeXeXeXeXeXeXeXeXeXeXeXeXY..X*X&X|.I.J.!.`.P.Z.f.~.G.H.F.q.u.[.;X&X1X*Xb.eXeXeXeXeXeXeXeXeXeXeXeXeXeXeXeXeXeXeXeXeXeXeXeXeX",
"eXeXeXeXeXeXeXeXeXeXeXeXeXeXeXeXeXeXeXeXeXeXeXeXeXeXeXeXeXeX[.&X&X}.K.J.J.F.W.E.6X`.F.G.E.H.v.XX2X2X<X;X1X.X8.eXeXeXeXeXeXeXeXeXeXeXeXeXeXeXeXeXeXeXeXeXeXeXeXeX",
"eXeXeXeXeXeXeXeXeXeXeXeXeXeXeXeXeXeXeXeXeXeXeXeXeXeXeXeXeX[.&X.XL.J.J.J.J.k.E._.9XqX`.%X&X.XOX2X4X4X1X$X$XM.eXeXeXeXeXeXeXeXeXeXeXeXeXeXeXeXeXeXeXeXeXeXeXeXeXeX",
"eXeXeXeXeXeXeXeXeXeXeXeXeXeXeXeXeXeXeXeXeXeXeXeXeXeXeXeXY.&X}.J.J.J.J.J.J.D.E._.0XwXqX8X5X4X=X=X4X2X*X#X@Xx.eXeXeXeXeXeXeXeXeXeXeXeXeXeXeXeXeXeXeXeXeXeXeXeXeXeX",
"eXeXeXeXeXeXeXeXeXeXeXeXeXeXeXeXeXeXeXeXeXeXeXeXeXeXeXS.&X}.J.J.J.J.J.J.J.D.k.^.9XqXwX6X,X4X+X.X&X$X#XI.c.eXeXeXeXeXeXeXeXeXeXeXeXeXeXeXeXeXeXeXeXeXeXeXeXeXeXeX",
"eXeXeXeXeXeXeXeXeXeXeXeXeXeXeXeXeXeXeXeXeXeXeXeXeXA. X&X.XJ.J.J.J.J.J.J.N.n.k.!.!._.7Xz.}.&XK.c.I.J.x.eXeXeXeXeXeXeXeXeXeXeXeXeXeXeXeXeXeXeXeXeXeXeXeXeXeXeXeXeX",
"eXeXeXeXeXeXeXeXeXeXeXeXeXeXeXeXeXeXeXeXeXeXeXeXY.&X&X|.J.J.J.J.J.N.M.m.w.5.>.4.J.:._ k.K.I.c.6.4.eXeXeXeXeXeXeXeXeXeXeXeXeXeXeXeXeXeXeXeXeXeXeXeXeXeXeXeXeXeXeX",
"eXeXeXeXeXeXeXeXeXeXeXeXeXeXeXeXeXeXeXeXeXeXeX[.&X}.}.K.J.J.J.M.m.m.w.8.4.>.H +.J.-.G ^ :.4.>.<.>.eXeXeXeXeXeXeXeXeXeXeXeXeXeXeXeXeXeXeXeXeXeXeXeXeXeXeXeXeXeXeX",
"eXeXeXeXeXeXeXeXeXeXeXeXeXeXeXeXeXeXeXeXeXA..X&X|.J.L.J.J.J.N.M.M.M.c.8.=.L 8 ; 7.c.G d j ;.>.>.>.eXeXeXeXeXeXeXeXeXeXeXeXeXeXeXeXeXeXeXeXeXeXeXeXeXeXeXeXeXeXeX",
"eXeXeXeXeXeXeXeXeXeXeXeXeXeXeXeXeXeXeXS..X&X&X|.J.J.K.J.J.J.J.J.J.c.4.=.P L =.8 6 n 7 a c ~ <.<.>.eXeXeXeXeXeXeXeXeXeXeXeXeXeXeXeXeXeXeXeXeXeXeXeXeXeXeXeXeXeXeX",
"eXeXeXeXeXeXeXeXeXeXeXeXeXeXeXeXeXeXA.&X&X}..XK.J.J.J.J.J.J.c.5.-.;.S P L P ;.m = 6 6 s c S 4.>.>.eXeXeXeXeXeXeXeXeXeXeXeXeXeXeXeXeXeXeXeXeXeXeXeXeXeXeXeXeXeXeX",
"eXeXeXeXeXeXeXeXeXeXeXeXeXeXeXeXeXF  X&XL.L.L.J.J.J.J.n.7.&.B K +.L P =.S P =.H ; 6 6 2 c D >.<.>.eXeXeXeXeXeXeXeXeXeXeXeXeXeXeXeXeXeXeXeXeXeXeXeXeXeXeXeXeXeXeX",
"eXeXeXeXeXeXeXeXeXeXeXeXeXeXeXz T ^ [.K.J.K.J.J.J.n.2.K m H P =.L L =.=.L =.=.+.; 6 < 3 s D :.4.>.eXeXeXeXeXeXeXeXeXeXeXeXeXeXeXeXeXeXeXeXeXeXeXeXeXeXeXeXeXeXeX",
"eXeXeXeXeXeXeXeXeXeXeXeXeXX k W W ( J.J.J.J.J.J.q.+.m H =.=.=.P L =.=.~ S =.=.=.8 ; 6 2 c v Q 4.>.eXeXeXeXeXeXeXeXeXeXeXeXeXeXeXeXeXeXeXeXeXeXeXeXeXeXeXeXeXeXeX",
"eXeXeXeXeXeXeXeXeXeXeX. + # z / W ( J.J.J.J.J.8.P P =.=.=.=.~ S =.=.=.~ S =.=.=.n ; < < a T D >.>.eXeXeXeXeXeXeXeXeXeXeXeXeXeXeXeXeXeXeXeXeXeXeXeXeXeXeXeXeXeXeX",
"eXeXeXeXeXeXeXeXeXeXeX. 0 @ z / W ( n.J.J.n.4.=.=.=.=.=.=.&.S P =.=.=.P P =.=.=.P ; < 1 1 c E ~ <.eXeXeXeXeXeXeXeXeXeXeXeXeXeXeXeXeXeXeXeXeXeXeXeXeXeXeXeXeXeXeX",
"eXeXeXeXeXeXeXeXeXeXX l x w l W / E x.J.c.:.P =.=.=.=.=.=.J L =.=.=.=.L P =.=.=.=.7 ; 4 f f v F >.eXeXeXeXeXeXeXeXeXeXeXeXeXeXeXeXeXeXeXeXeXeXeXeXeXeXeXeXeXeXeX",
"eXeXeXeXeXeXeXeXeX. p b l @ + v W t >.q.eXeXJ =.=.=.=.P A P =.=.=.=.=.L Y =.=.=.=.m - : 4 c v D :.eXeXeXeXeXeXeXeXeXeXeXeXeXeXeXeXeXeXeXeXeXeXeXeXeXeXeXeXeXeXeX",
"eXeXeXeXeXeXeXeXeX@ R b l # X 0 v * eXeXeXeXeXP =.=.P A P =.=.=.=.=.=.J =.=.=.=.=.G = ; 6 < t v ~ <.eXeXeXeXeXeXeXeXeXeXeXeXeXeXeXeXeXeXeXeXeXeXeXeXeXeXeXeXeXeX",
"eXeXeXeXeXeXeXeXeXw ! p y o eXeXeXeXeXeXeXeXeXj L A J =.=.=.=.=.=.=.P L =.=.=.=.=.=.6 $ * < f x Z <.eXeXeXeXeXeXeXeXeXeXeXeXeXeXeXeXeXeXeXeXeXeXeXeXeXeXeXeXeXeX",
"eXeXeXeXeXeXeXeXeXw ) l + eXeXeXeXeXeXeXeXeXeXeXeXu M A Y =.=.=.=.=.P P =.=.=.=.=.=.5 * 3 s c d V >.eXeXeXeXeXeXeXeXeXeXeXeXeXeXeXeXeXeXeXeXeXeXeXeXeXeXeXeXeXeX",
"eXeXeXeXeXeXeXeXeX+ b x eXeXeXeXeXeXeXeXeXeXeXeXeXeXeXeXM L =.=.=.=.L Y =.=.=.=.=.n = : 2 a a a 4 ;.eXeXeXeXeXeXeXeXeXeXeXeXeXeXeXeXeXeXeXeXeXeXeXeXeXeXeXeXeXeX",
"eXeXeXeXeXeXeXeXeXX X eXeXeXeXeXeXeXeXeXeXeXeXeXeXeXeXeXeXeXJ =.=.=.L =.=.=.=.=.=.6 - 2 g a 4 r 6 Y eXeXeXeXeXeXeXeXeXeXeXeXeXeXeXeXeXeXeXeXeXeXeXeXeXeXeXeXeXeX",
"eXeXeXeXeXeXeXeXeXeXeXeXeXeXeXeXeXeXeXeXeXeXeXeXeXeXeXeXeXeXeXM P P P =.=.=.=.=.=.6 > d d < s , n =.eXeXeXeXeXeXeXeXeXeXeXeXeXeXeXeXeXeXeXeXeXeXeXeXeXeXeXeXeXeX",
"eXeXeXeXeXeXeXeXeXeXeXeXeXeXeXeXeXeXeXeXeXeXeXeXeXeXeXeXeXeXeXeXh A P =.=.=.=.=.P ; 6 3 < 4 a ; m Y eXeXeXeXeXeXeXeXeXeXeXeXeXeXeXeXeXeXeXeXeXeXeXeXeXeXeXeXeXeX",
"eXeXeXeXeXeXeXeXeXeXeXeXeXeXeXeXeXeXeXeXeXeXeXeXeXeXeXeXeXeXeXeXu h J Y =.=.=.=.8 = 6 5 6 r 2 ; P Y eXeXeXeXeXeXeXeXeXeXeXeXeXeXeXeXeXeXeXeXeXeXeXeXeXeXeXeXeXeX",
"eXeXeXeXeXeXeXeXeXeXeXeXeXeXeXeXeXeXeXeXeXeXeXeXeXeXeXeXeXeXeXeXeXeXeXh M N N N = 6 6 6 < a < , A P eXeXeXeXeXeXeXeXeXeXeXeXeXeXeXeXeXeXeXeXeXeXeXeXeXeXeXeXeXeX",
"eXeXeXeXeXeXeXeXeXeXeXeXeXeXeXeXeXeXeXeXeXeXeXeXeXeXeXeXeXeXeXeXeXeXeXeXeXeXeXeX% 6 6 < 3 < < q eXJ eXeXeXeXeXeXeXeXeXeXeXeXeXeXeXeXeXeXeXeXeXeXeXeXeXeXeXeXeXeX",
"eXeXeXeXeXeXeXeXeXeXeXeXeXeXeXeXeXeXeXeXeXeXeXeXeXeXeXeXeXeXeXeXeXeXeXeXeXeXeXeX% 6 : 1 2 5 r q eXN eXeXeXeXeXeXeXeXeXeXeXeXeXeXeXeXeXeXeXeXeXeXeXeXeXeXeXeXeXeX",
"eXeXeXeXeXeXeXeXeXeXeXeXeXeXeXeXeXeXeXeXeXeXeXeXeXeXeXeXeXeXeXeXeXeXeXeXeXeXeXeX% 6 : < 6 < u eXeXeXeXeXeXeXeXeXeXeXeXeXeXeXeXeXeXeXeXeXeXeXeXeXeXeXeXeXeXeXeXeX",
"eXeXeXeXeXeXeXeXeXeXeXeXeXeXeXeXeXeXeXeXeXeXeXeXeXeXeXeXeXeXeXeXeXeXeXeXeXeXeXeX= 6 6 6 < d i eXeXeXeXeXeXeXeXeXeXeXeXeXeXeXeXeXeXeXeXeXeXeXeXeXeXeXeXeXeXeXeXeX",
"eXeXeXeXeXeXeXeXeXeXeXeXeXeXeXeXeXeXeXeXeXeXeXeXeXeXeXeXeXeXeXeXeXeXeXeXeXeXeXeX= 6 6 : a v e eXeXeXeXeXeXeXeXeXeXeXeXeXeXeXeXeXeXeXeXeXeXeXeXeXeXeXeXeXeXeXeXeX",
"eXeXeXeXeXeXeXeXeXeXeXeXeXeXeXeXeXeXeXeXeXeXeXeXeXeXeXeXeXeXeXeXeXeXeXeXeXeXeXeX= 6 5 3 v x eXeXeXeXeXeXeXeXeXeXeXeXeXeXeXeXeXeXeXeXeXeXeXeXeXeXeXeXeXeXeXeXeXeX",
"eXeXeXeXeXeXeXeXeXeXeXeXeXeXeXeXeXeXeXeXeXeXeXeXeXeXeXeXeXeXeXeXeXeXeXeXeXeXeXeX; 6 2 c c 3 eXeXeXeXeXeXeXeXeXeXeXeXeXeXeXeXeXeXeXeXeXeXeXeXeXeXeXeXeXeXeXeXeXeX",
"eXeXeXeXeXeXeXeXeXeXeXeXeXeXeXeXeXeXeXeXeXeXeXeXeXeXeXeXeXeXeXeXeXeXeXeXeXeXeXo , 3 c c 2 2 & eXeXeXeXeXeXeXeXeXeXeXeXeXeXeXeXeXeXeXeXeXeXeXeXeXeXeXeXeXeXeXeXeX",
"eXeXeXeXeXeXeXeXeXeXeXeXeXeXeXeXeXeXeXeXeXeXeXeXeXeXeXeXeXeXeXeXeXeXeXeXeXeXeXo d x g s s z @ eXeXeXeXeXeXeXeXeXeXeXeXeXeXeXeXeXeXeXeXeXeXeXeXeXeXeXeXeXeXeXeXeX",
"eXeXeXeXeXeXeXeXeXeXeXeXeXeXeXeXeXeXeXeXeXeXeXeXeXeXeXeXeXeXeXeXeXeXeXeXeXeXeXo e x d e @ e R i eXeXeXeXeXeXeXeXeXeXeXeXeXeXeXeXeXeXeXeXeXeXeXeXeXeXeXeXeXeXeXeX",
"eXeXeXeXeXeXeXeXeXeXeXeXeXeXeXeXeXeXeXeXeXeXeXeXeXeXeXeXeXeXeXeXeXeXeXeXeXeXeX# # + 0 # # b _ / R e eXeXeXeXeXeXeXeXeXeXeXeXeXeXeXeXeXeXeXeXeXeXeXeXeXeXeXeXeXeX",
"eXeXeXeXeXeXeXeXeXeXeXeXeXeXeXeXeXeXeXeXeXeXeXeXeXeXeXeXeXeXeXeXeXeXeXeXeXeXeXX O y 0 0 @ w R / / ! i . eXeXeXeXeXeXeXeXeXeXeXeXeXeXeXeXeXeXeXeXeXeXeXeXeXeXeXeX",
"eXeXeXeXeXeXeXeXeXeXeXeXeXeXeXeXeXeXeXeXeXeXeXeXeXeXeXeXeXeXeXeXeXeXeXeXeXeXeXeX  . eXeXX # p p p l p eXeXeXeXeXeXeXeXeXeXeXeXeXeXeXeXeXeXeXeXeXeXeXeXeXeXeXeXeX",
"eXeXeXeXeXeXeXeXeXeXeXeXeXeXeXeXeXeXeXeXeXeXeXeXeXeXeXeXeXeXeXeXeXeXeXeXeXeXeXeXeXeXeXeXeXeXeXeXeXeXeXeXeXeXeXeXeXeXeXeXeXeXeXeXeXeXeXeXeXeXeXeXeXeXeXeXeXeXeXeX",
"eXeXeXeXeXeXeXeXeXeXeXeXeXeXeXeXeXeXeXeXeXeXeXeXeXeXeXeXeXeXeXeXeXeXeXeXeXeXeXeXeXeXeXeXeXeXeXeXeXeXeXeXeXeXeXeXeXeXeXeXeXeXeXeXeXeXeXeXeXeXeXeXeXeXeXeXeXeXeXeX",
"eXeXeXeXeXeXeXeXeXeXeXeXeXeXeXeXeXeXeXeXeXeXeXeXeXeXeXeXeXeXeXeXeXeXeXeXeXeXeXeXeXeXeXeXeXeXeXeXeXeXeXeXeXeXeXeXeXeXeXeXeXeXeXeXeXeXeXeXeXeXeXeXeXeXeXeXeXeXeXeX",
"eXeXeXeXeXeXeXeXeXeXeXeXeXeXeXeXeXeXeXeXeXeXeXeXeXeXeXeXeXeXeXeXeXeXeXeXeXeXeXeXeXeXeXeXeXeXeXeXeXeXeXeXeXeXeXeXeXeXeXeXeXeXeXeXeXeXeXeXeXeXeXeXeXeXeXeXeXeXeXeX",
"eXeXeXeXeXeXeXeXeXeXeXeXeXeXeXeXeXeXeXeXeXeXeXeXeXeXeXeXeXeXeXeXeXeXeXeXeXeXeXeXeXeXeXeXeXeXeXeXeXeXeXeXeXeXeXeXeXeXeXeXeXeXeXeXeXeXeXeXeXeXeXeXeXeXeXeXeXeXeXeX",
"eXeXeXeXeXeXeXeXeXeXeXeXeXeXeXeXeXeXeXeXeXeXeXeXeXeXeXeXeXeXeXeXeXeXeXeXeXeXeXeXeXeXeXeXeXeXeXeXeXeXeXeXeXeXeXeXeXeXeXeXeXeXeXeXeXeXeXeXeXeXeXeXeXeXeXeXeXeXeXeX",
"eXeXeXeXeXeXeXeXeXeXeXeXeXeXeXeXeXeXeXeXeXeXeXeXeXeXeXeXeXeXeXeXeXeXeXeXeXeXeXeXeXeXeXeXeXeXeXeXeXeXeXeXeXeXeXeXeXeXeXeXeXeXeXeXeXeXeXeXeXeXeXeXeXeXeXeXeXeXeXeX"
};
