/* XPM */
static char *result[] = {
/* columns rows colors chars-per-pixel */
"80 80 177 2 ",
"   c #381C26",
".  c #2B202B",
"X  c #302630",
"o  c #352C36",
"O  c #383239",
"+  c #4E272C",
"@  c #542A2C",
"#  c #552A2D",
"$  c #5D322F",
"%  c #4F393A",
"&  c #543C3A",
"*  c #60312E",
"=  c #633131",
"-  c #403A40",
";  c #464546",
":  c #4B4A4C",
">  c #524143",
",  c #5E4146",
"<  c #58484C",
"1  c #524C53",
"2  c #534D5C",
"3  c #585458",
"4  c #6F4C4C",
"5  c #724E4D",
"6  c #635659",
"7  c #6A5C59",
"8  c #7D5554",
"9  c #745956",
"0  c #7C5956",
"q  c #7E625D",
"w  c #5E5D64",
"e  c #735C60",
"r  c #6D6D6E",
"t  c #7A6564",
"y  c #7F6669",
"u  c #666570",
"i  c #6D6C75",
"p  c #6D6D78",
"a  c #7A6B74",
"s  c #7A777D",
"d  c #911A1B",
"f  c #982627",
"g  c #973E41",
"h  c #844343",
"j  c #944C4D",
"k  c #9D4E56",
"l  c #865454",
"z  c #885454",
"x  c #865959",
"c  c #9C535C",
"v  c #AB4D4E",
"b  c #A95657",
"n  c #8F5D61",
"m  c #846363",
"M  c #886767",
"N  c #866864",
"B  c #8A6A67",
"V  c #816669",
"C  c #836D6D",
"Z  c #8B6B6A",
"A  c #996267",
"S  c #946D6C",
"D  c #8C716B",
"F  c #9F776F",
"G  c #8F6F71",
"H  c #9D6773",
"J  c #877376",
"K  c #8B7B72",
"L  c #8E7B7C",
"P  c #947373",
"I  c #9C7575",
"U  c #977876",
"Y  c #9C747A",
"T  c #957A79",
"R  c #9D7A7A",
"E  c #A17473",
"W  c #A27579",
"Q  c #A37B7B",
"!  c #AB7D7D",
"~  c #B7787E",
"^  c #98817D",
"/  c #A4817D",
"(  c #A6887F",
")  c #707180",
"_  c #7C7C85",
"`  c #837B87",
"'  c #A27281",
"]  c #B77E82",
"[  c #838287",
"{  c #8C8385",
"}  c #85858B",
"|  c #9A8182",
" . c #908984",
".. c #949499",
"X. c #95969B",
"o. c #A48282",
"O. c #AB8483",
"+. c #AD8A88",
"@. c #AD8C8B",
"#. c #B48484",
"$. c #B68985",
"%. c #B28D8D",
"&. c #BB8B8C",
"*. c #A8998C",
"=. c #B19386",
"-. c #B4948C",
";. c #B8958C",
":. c #B79989",
">. c #BC9B8D",
",. c #AF8F90",
"<. c #B58D92",
"1. c #AD9897",
"2. c #A5999D",
"3. c #B49493",
"4. c #BA9593",
"5. c #BA9A94",
"6. c #B79798",
"7. c #BB9B98",
"8. c #AFA499",
"9. c #BCA290",
"0. c #BFA098",
"q. c #A8A2A4",
"w. c #A7A7AB",
"e. c #AAAAAD",
"r. c #B2A8AB",
"t. c #AEAEB4",
"y. c #B2ACB0",
"u. c #B3B3B5",
"i. c #BCBCBE",
"p. c #C4898B",
"a. c #C09D95",
"s. c #C19699",
"d. c #C49B99",
"f. c #CC9E9F",
"g. c #C0A08F",
"h. c #C3A395",
"j. c #C6AB95",
"k. c #CAAC96",
"l. c #C4A39A",
"z. c #CBA698",
"x. c #C5AB9D",
"c. c #CBAB9C",
"v. c #D0AF9C",
"b. c #D4B49E",
"n. c #D8B39E",
"m. c #D7B89E",
"M. c #C19FA0",
"N. c #C7A6A0",
"B. c #CEA3A3",
"V. c #D3A4A3",
"C. c #D0AFA1",
"Z. c #D4B4A2",
"A. c #DAB7A3",
"S. c #D7BAA0",
"D. c #DABBA3",
"F. c #DEBDA9",
"G. c #DEC5A4",
"H. c #E1C5A6",
"J. c #E4C3AA",
"K. c #E8C7AD",
"L. c #E6C8AA",
"P. c #EBCCAD",
"I. c #EECDB1",
"U. c #F0CFB2",
"Y. c #EFD0B0",
"T. c #F3D3B2",
"R. c #F4D3B3",
"E. c #F5D4B3",
"W. c #F6D5B4",
"Q. c #F8D7B5",
"!. c #C4C3C3",
"~. c #CBCBCC",
"^. c #D2D2D4",
"/. c #DDDDDE",
"(. c #EEEFEF",
"). c gray94",
"_. c None",
/* pixels */
"_._._._._._._._._._._._._._._._._._._._._._._._._._._._._._._._._._._._._._._._._._._._._._._._._._._._._._._._._._._._._._._._._._._._._._._._._._._._._._._._.",
"_._._._._._._._._._._._._._._._._._._._._._._._._._._._._._._._._._._._._._._._._._._._._._._._._._._._._._._._._._._._._._._._._._._._._._._._._._._._._._._._.",
"_._._._._._._._._._._._._._._._._._._._._._._._._._._._._._._._._._._._._._._._._._._._._._._._._._._._._._._._._._._._._._._._._._._._._._._._._._._._._._._._.",
"_._._._._._._._._._._._._._._._._._._._._._._._._._._._._._._._._._._._._._._._._._._._._._._._._._._._._._._._._._._._._._._._._._._._._._._._._._._._._._._._.",
"_._._._._._._._._._._._._._._._._._._._._._._._._._._._._._._._._._._._._._._._._._._._._._._._._._._._._._._._._._._._._._._._._._._._._._._._._._._._._._._._.",
"_._._._._._._._._._._._._._._._._._._._._._._._._._._._._._._._._._._._._._._._._._._._._._._._._._._._._._._._._._._._._._._._._._._._._._._._._._._._._._._._.",
"_._._._._._._._._._._._._._._._._._._._._._._._._._._._._._._._._._._._._._._._._._._._._._._._._._._._._._._._._._._._._._._._._._._._._._._._._._._._._._._._.",
"_._._._._._._._._._._._._._._._._._._._._._._._._._._._._._._._._._._._._._._._._._._._._._._._._._._._._._._._._._._._._._._._._._._._._._._._._._._._._._._._.",
"_._._._._._._._._._._._._._._._._._._._._._._._._._._._._._._._._._._._._._._._._._._._._._._._._._._._._._._._._._._._._._._._._._._._._._._._._._._._._._._._.",
"_._._._._._._._._._._._._._._._._._._._._._._._._._._._._._._._._._._._._._._._._._._._._._._._._._._._._._._._._._._._._._._._._._._._._._._._._._._._._._._._.",
"_._._._._._._._._._._._._._._._._._._._._._._._._._._._._._._._._._._._._._._._._._._._._._._._._._._._._._._._._._._._._._._._._._._._._._._._._._._._._._._._.",
"_._._._._._._._._._._._._._._._._._._._._._._._._._._._._._._._._._._._._._._._._._._._._._._._._._._._._._._._._._._._._._._._._._._._._._._._._._._._._._._._.",
"_._._._._._._._._._._._._._._._._._._._._._._._._._._._._._._._._._._._._._._._._._._._._._._._._._._._._._._._._._._._._._._._._._._._._._._._._._._._._._._._.",
"_._._._._._._._._._._._._._._._._._._._._._._._._._._._._._._._._._._._._._._._._._._._._._._._._._._._._._._._._._._._._._._._._._._._._._._._._._._._._._._._.",
"_._._._._._._._._._._._._._._._._._._._._._._._._._._._._._._._._._._._._._._._._._._._._._._._._._._._._._._._._._._._._._._._._._._._._._._._._._._._._._._._.",
"_._._._._._._._._._._._._._._._._._._._._._._._._._._._._._._._._._._._._._._._._._._._._._._._._._._._._._._._._._._._._._._._._._._._._._._._._._._._._._._._.",
"_._._._._._._._._._._._._._._._._._._._._._._._._._._._._._._._._._._._._._._._._._._._._._._._._._._._._._._._._._._._._._._._._._._._._._._._._._._._._._._._.",
"_._._._._._._._._._._._._._._._._._._._._._._._._._._._._._._._._._._._._._._._._._._._._._._._._._._._._._._._._._._._._._._._._._._._._._._._._._._._._._._._.",
"_._._._._._._._._._._._._._._._._._._._._._._._._._._._._._._._._._._._._._._._._._._._._._._._._._._._._._._._._._._._._._._._._._._._._._._._._._._._._._._._.",
"_._._._._._._._._._._._._._._._._._._._._._._._._._._._._._._._._._._._._._._._._._._._._._._._._._._._._._._._._._._._._._._._._._._._._._._._._._._._._._._._.",
"_._._._._._._._._._._._._._._._._._._._._._._._._._._._._._._._._._._._._._._._._._._._._._._._._._._._._._._._._._._._._._._._._._._._._._._._._._._._._._._._.",
"_._._._._._._._._._._._._._._._._._._._._._._._._._._._._._._._._._._._._._._._._._._._._._._._._._._._._._._._._._._._._._._._._._._._._._._._._._._._._._._._.",
"_._._._._._._._._._._._._._._._._._._._._._._._._._._._._._._._._._._._._._._._._._._._._._._._._._._._._._._._._._._._._._._._._._._._._._._._._._._._._._._._.",
"_._._._._._._._._._._._._._._._._._._._._._._._._._._._._._._._._._._._._._._._._._._._._._._._._._._._._._._._._._._._._._._._._._._._._._._._._._._._._._._._.",
"_._._._._._._._._._._._._._._._._._._._._._._._._._._._._._._._._._._._._._._._._._._._._._._._._._._._._._._._._._._._._._._._._._._._._._._._._._._._._._._._.",
"_._._._._._._._._._._._._._._._._._._._._._._._._._._._._._._._._._._._._._._._._._._._._._._._._._._._._._._._._._._._._._._._._._._._._._._._._._._._._._._._.",
"_._._._._._._._._._._._._._._._._._._._._._._._._._._._._._._._._._._._._._._._._._._._._._._._._._._._._._._._._._._._._._._._._._._._._._._._._._._._._._._._.",
"_._._._._._._._._._._._._._._._._._._._._._._._._._._._._._._._._._._._._._._._._._._._._._._._._._._._._._._._._._._._._._._._._._._._._._._._._._._._._._._._.",
"_._._._._._._._._._._._._._._._._._._._._._._._._._._._._._._._._._._._._._._._._._._._._._._._._._._._._._._._._._._._._._._._._._._._._._._._._._._._._._._._.",
"_._._._._._._._._._._._._._._._._._._._._._._._._._._._._._._._._._._._._._._._._._._._._._._._._._._._._._._._._._._._._._._._._._._._._._._._._._._._._._._._.",
"_._._._._._._._._._._._._._._._._._._._._._._._._._._._._._._._._._._._._._._._._._._._._._._._._._._._._._._._._._._._._._._._._._._._._._._._._._._._._._._._.",
"_._._._._._._._._._._._._._._._._._._._._._._._._._._._._._._._._._._._._._._._._._._._._._._._._._._._._._._._._._._._._._._._._._._._._._._._._._._._._._._._.",
"_._._._._._._._._._._._._._._._._._._._._._._._._._._._._._._._._._._._._._._._._._._._._._._._._._._._._._._._._._._._._._._._._._._._._._._._._._._._._._._._.",
"_._._._._._._._._._._._._._._._._._._._._._._._._._._._._._._._._._._._._._._._._._._._._._._._._._._._._._._._._._._._._._._._._._._._._._._._._._._._._._._._.",
"_._._._._._._._._._._._._._._._._._._._._._._._._._._._._._._._._._._._._._._._._._._._._._._._._._._._._._._._._._._._._._._._._._._._._._._._._._._._._._._._.",
"_._._._._._._._._._._._._._._._._._._._._._._._._._._._._._._._._._._._._._._._._._._._._._._._._._._._._._._._._._._._._._._._._._._._._._._._._._._._._._._._.",
"_._._._._._._._._._._._._._._._._._._._._._._._._._._._._._._._._._._._._._._._._._._._._._._._._._._._._._._._._._._._._._._._._._._._._._._._._._._._._._._._.",
"_._._._._._._._._._._._._._._._._._._._._._._._._._._._._._._._._._._._._._._._._._._._._._._._._._._._._._._._._._._._._._._._._._._._._._._._._._._._._._._._.",
"_._._._._._._._._._._._._._._._._._._._._._._._._._._._._._._._._._._._._._._._._._._._._._._._._._._._._._._._._._._._._._._._._._._._._._._._._._._._._._._._.",
"_._._._._._._._._._._._._._._._._._._._._._._._._._._._._._._._._._._._._._._._._._._._._._._._._._._._._._._._._._._._._._._._._._._._._._._._._._._._._._._._.",
"_._._._._._._._._._._._._._._._._._._._._._._._._._._._._._._._._._._._._._._._._._._._._._._._._._._._._._._._._._._._._._._._._._._._._._._._._._._._._._._._.",
"_._._._._._._._._._._._._._._._._._._._._._._._._._._._._._._._._._._._._._._._._._._._._._._._._._._._._._._._._._._._._._._._._._._._._._._._._._._._._._._._.",
"_._._._._._._._._._._._._._._._._._._._._._._._._._._._._._._._._._._._._._._._._._._._._._._._._._._._._._._._._._._._._._._._._._._._._._._._._._._._._._._._.",
"_._._._._._._._._._._._._._._._._._._._._._._._._._._._._._._._._._._._._._._._._._._._._._._._._._._._._._._._._._._._._._._._._._._._._._._._._._._._._._._._.",
"_._._._._._._._._._._._._._._._._._._._._._._._._._._._.A.L.P.W.R.P.L.A._._._._._._._._._._._._._._._._._._._._._._._._._._._._._._._._._._._._._._._._._._._._.",
"_._._._._._._._._._._._._._._._._._._._._._._._._._.m.P.E.W.W.W.W.W.W.T.P.A._._._._._._._._._._._._._._._._._._._._._._._._._._._._._._._._._._._._._._._._._._.",
"_._._._._._._._._._._._._._._._._._._._._._._._._.P.E.R.E.W.W.W.W.W.W.W.W.T.J._._._._._._._._._._._._._._._._._._._._._._._._._._._._._._._._._._._._._._._._._.",
"_._._._._._._._._._._._._._._._._._._._._._._._.H.E.P.P.W.W.W.W.W.W.W.W.W.W.I.A._._._._._._._._._._._._._._._._._._._._._._._._._._._._._._._._._._._._._._._._.",
"_._._._._._._._._._._._._._._._._._._._._._._.k.P.T.A.P.I.I.W.W.W.W.W.W.I.K.J.J.k._._._._._._._._._._._._._._._._._._._._._._._._._._._._._._._._._._._._._._._.",
"_._._._._._._._._._._._._._._._._._._._._._._.m.L.S.j.S.J.P.P.W.W.W.W.I.P.T.W.K.k._._._._._._._._._._._._._._._._._._._._._._._._._._._._._._._._._._._._._._._.",
"_._._._._._._._._._._._._._._._._._._._._._._.L.b.9.K  .1.D.P.P.E.T.T.P.E.W.E.P.n.D._._._._._._._._._._._._._._._._._._._._._._._._._._._._._._._._._._._._._._.",
"_._._._._._._._._._._._._._._._._._._._._._.-.F.l.3.{ u.u.8.G.Z.I.P.K.Y.P.W.T.P.n.k._._._._._._._._._._._._._._._._._._._._._._._._._._._._._._._._._._._._._._.",
"_._._._._._._._._._._._._._._._._._._._._._.o.4.B.B.s.1.u.q.*.x.F.I.P.L.T.W.T.D.z.5._._._._._._._._._._._._._._._._._._._._._._._._._._._._._._._._._._._._._._.",
"_._._._._._._._._._._._._._._._._._._._._._.Y W b b p.d.2.X._ ,.c.J.A.Z.T.W.I.Z.d.M.o._._._._._._._._._._._._._._._._._._._._._._._._._._._._._._._._._._._._._.",
"_._._._._._._._._._._._._._._._._._._._._._.I ] ~ v f ] 7.` u T 5.h.a.F.T.W.U.d.4.N.o._._._._._._._._._._._._._._._._._._._._._._._._._._._._._._._._._._._._._.",
"_._._._._._._._._._._._._._._._._._._._._._.#.V.V.V.v f p.T 3 C +.@.l.P.P.E.T.;.@.+.@._._._._._._._._._._._._._._._._._._._._._._._._._._._._._._._._._._._._._.",
"_._._._._._._._._._._._._._._._._._._._._._.s.f.f.V.&.f g Y 3 7 R U C.L.P.R.I.;.R ^ 3._._._._._._._._._._._._._._._._._._._._._._._._._._._._._._._._._._._._._.",
"_._._._._._._._._._._._._._._._._._._._._._.#.s.<.3.@.k d H 9 9 U q a.F.L.R.J./ B R -.=._._._._._._._._._._._._._._._._._._._._._._._._._._._._._._._._._._._._.",
"_._._._._._._._._._._._._._._._._._._._._._._.! ,.Y ' A d c x t J N 4.J.F.E.F.Q I P @.h._._._._._._._._._._._._._._._._._._._._._._._._._._._._._._._._._._._._.",
"_._._._._._._._._._._._._._._._._._._._._._._._.! S n A f j x L L I h.F.J.W.Z.! S R 3.6.-._._._._._._._._._._._._._._._._._._._._._._._._._._._._._._._._._._._.",
"_._._._._._._._._._._._._._._._._._._._._._._._.F l l l h z 8 { { | c.C.P.Q.Z.P ( h.l.3.3.O._._._._._._._._._._._._._._._._._._._._._._._._._._._._._._._._._._.",
"_._._._._._._._._._._._._._._._._._._._._._._._.:.E E I Z 0 P U R o.l.A.W.W.A.-.D.G.G.l.3.%._._._._._._._._._._._._._._._._._._._._._._._._._._._._._._._._._._.",
"_._._._._._._._._._._._._._._._._._._._._._._._.:.$.#.Q P o.%.W O.O.z.P.W.W.A.h.G.G.D.7.3.%.I _._._._._._._._._._._._._._._._._._._._._._._._._._._._._._._._._.",
"_._._._._._._._._._._._._._._._._._._._._._._._.+.#.! Q @.3.o.@.-.O.A.E.W.W.A.j.G.D.l.3.3.3.I _._._._._._._._._._._._._._._._._._._._._._._._._._._._._._._._._.",
"_._._._._._._._._._._._._._._._._._._._._._._._./ Q O.3.3.O.+.5.:.-.J.W.E.T.A.j.Z.5.3.3.3.3.I _._._._._._._._._._._._._._._._._._._._._._._._._._._._._._._._._.",
"_._._._._._._._._._._._._._._._._._._._._._._._.I +.3.%.I I 3.h.>.3.I.W.T.T.b.5.5.3.3.3.3.@.Q :.g.k.h._._._._._._._._._._._._._._._._._._._._._._._._._._._._._.",
"_._._._._._._._._._._._._._._._._._._._._._._._.Q #.#.S 5 o.5.>.=.3.I.W.T.I.v.,.3.3.3.3.3.o.o.5.l.Z.Z.Z.h.^ ) 3 _._._._._._._._._._._._._._._._._._._._._._._._.",
"_._._._._._._._._._._._._._._._._._._._._._._.Q #.#.I < 5 %.3.3.+.3.I.W.I.I.k.,.3.3.3.3.%.Q ! @.3.5.c.Z.Z.5.s i w _._._._._._._._._._._._._._._._._._._._._._._.",
"_._._._._._._._._._._._._._._._._._._._._._._.! #.Q 6 > 0 3.3.3.@.3.F.W.I.J.j.,.3.3.3.@.Q ! #.O.%.3.5.h.c.c.K w 3 _._._._._._._._._._._._._._._._._._._._._._._.",
"_._._._._._._._._._._._._._._._._._._._._._.I #.! e 1 & 8 %.%.3.@.@.5.k.Z.Z.h.3.3.+.I P ! #.#.#.#.3.3.3.3.3.@.6 : o _._._._._._._._._._._._._._._._._._._._._._.",
"_._._._._._._._._._._._._._._._._._._._._.J ! #.V 1 > $ 8 %.#.3.3.o.@.:.;.%.+.#.Q S P #.#.#.#.#.#.$.3.3.3.3.3.t ; . _._._._._._._._._._._._._._._._._._._._._._.",
"_._._._._._._._._._._._._._._._._._._._ X.L ! 9 > & $ @ 4 #.O.%.3.o.0.F.m.@.R P P I #.#.#.#.#.#.#.#.#.-.3.3.3.C ; O _._._._._._._._._._._._._._._._._._._._._._.",
"_._._._._._._._._._._._._._._._._._._._ [ G S , @ * = # 5 Q O.W Q 7.K.W.Q.h.M P W ! #.#.#.#.#.#.#.#.#.#.%.3.3.V O : - _._._._._._._._._._._._._._._._._._._._._.",
"_._._._._._._._._._._._._._._._._._._._._.S m , # = = = 8 P Q I R 6.x.x.A.C.B I ! #.#.#.#.#.#.#.#.#.#.#.#.$.%.y 2 u 1 _._._._._._._._._._._._._._._._._._._._._.",
"_._._._._._._._._._._._._._._._._._._._.S q 9 %   + @ @ 4 P P I | y.~.!.q.6.D Z P W ! ! ! ! ! ! ! ! Q I R R I P a i w o _._._._._._._._._._._._._._._._._._._._.",
"_._._._._._._._._._._._._._._._._._._._._._._._._._._._._.N Z G y.(.).).(.r._._.B B B B B B m m m m m B B B B B m < X _._._._._._._._._._._._._._._._._._._._._.",
"_._._._._._._._._._._._._._._._._._._._._._._._._._._._._._._.2.^./././.!.~._._._._._._._._._._._._._._._._._._._._._._._._._._._._._._._._._._._._._._._._._._.",
"_._._._._._._._._._._._._._._._._._._._._._._._._._._._._._._.t.i.e.w.e.} u._._._._._._._._._._._._._._._._._._._._._._._._._._._._._._._._._._._._._._._._._._.",
"_._._._._._._._._._._._._._._._._._._._._._._._._._._._._._.} _ .._ s [ _ ..X._._._._._._._._._._._._._._._._._._._._._._._._._._._._._._._._._._._._._._._._._.",
"_._._._._._._._._._._._._._._._._._._._._._._._._._._._._._._._._ i p r _._._._._._._._._._._._._._._._._._._._._._._._._._._._._._._._._._._._._._._._._._._._."
};
