/* XPM */
static char *result[] = {
/* columns rows colors chars-per-pixel */
"80 80 207 2 ",
"   c #271B27",
".  c #2D232D",
"X  c #352835",
"o  c #352C35",
"O  c #373137",
"+  c #3B333B",
"@  c #3E3B3E",
"#  c #4E1414",
"$  c #531D1C",
"%  c #7E191B",
"&  c #4E201A",
"*  c #53241D",
"=  c #452A2C",
"-  c #572727",
";  c #562823",
":  c #5D2B2B",
">  c #5D322E",
",  c #4B3135",
"<  c #5B3533",
"1  c #573A37",
"2  c #5A3936",
"3  c #553D3C",
"4  c #5A3B3B",
"5  c #602E2E",
"6  c #61312F",
"7  c #623131",
"8  c #69393A",
"9  c #743236",
"0  c #674439",
"q  c #423C42",
"w  c #433A47",
"e  c #563F40",
"r  c #523C48",
"t  c #434143",
"y  c #46414B",
"u  c #4B434C",
"i  c #4C4C4D",
"p  c #544244",
"a  c #594246",
"s  c #55464B",
"d  c #564849",
"f  c #5B4D4C",
"g  c #4E4852",
"h  c #524654",
"j  c #554B54",
"k  c #5A4B54",
"l  c #544B59",
"z  c #5B4E5B",
"x  c #575358",
"c  c #55555B",
"v  c #5F515F",
"b  c #6F4444",
"n  c #654848",
"m  c #754D4D",
"M  c #68554D",
"N  c #604D59",
"B  c #655251",
"V  c #6F5955",
"C  c #6A555A",
"Z  c #735353",
"A  c #7C5554",
"S  c #735A57",
"D  c #755C5B",
"F  c #7B5D5C",
"G  c #7E605F",
"H  c #5C5A65",
"J  c #655963",
"K  c #665C6D",
"L  c #685D6E",
"P  c #755E61",
"I  c #685F70",
"U  c #62636A",
"Y  c #7B6363",
"T  c #786C6E",
"R  c #6A6272",
"E  c #6B6B72",
"W  c #706472",
"Q  c #75757E",
"!  c #797378",
"~  c #8D0C0C",
"^  c #960707",
"/  c #971718",
"(  c #981F23",
")  c #892F30",
"_  c #9B353C",
"`  c #894444",
"'  c #9D4348",
"]  c #9A4E54",
"[  c #825F5F",
"{  c #A4484B",
"}  c #80605F",
"|  c #836262",
" . c #876966",
".. c #84696A",
"X. c #8D6C6C",
"o. c #906F6F",
"O. c #99686A",
"+. c #90706F",
"@. c #8C6E77",
"#. c #9D6B72",
"$. c #857679",
"%. c #957473",
"&. c #9A7575",
"*. c #957878",
"=. c #9D7B7B",
"-. c #A86364",
";. c #B36A6A",
":. c #A16D7B",
">. c #A67779",
",. c #A17D7D",
"<. c #B07F7F",
"1. c #A5847F",
"2. c #7B7C84",
"3. c #8B7C82",
"4. c #997E80",
"5. c #A37381",
"6. c #A67D80",
"7. c #86828A",
"8. c #9E8083",
"9. c #968489",
"0. c #9D898B",
"q. c #8D8C95",
"w. c #9E8E90",
"e. c #999596",
"r. c #9B959A",
"t. c #A58383",
"y. c #AA8485",
"u. c #A88786",
"i. c #AC8B8B",
"p. c #B38584",
"a. c #B1838B",
"s. c #B68A89",
"d. c #B28C8C",
"f. c #AD9387",
"g. c #B29184",
"h. c #B5928C",
"j. c #B3998A",
"k. c #BA9D8D",
"l. c #A79797",
"z. c #B49494",
"x. c #BB9695",
"c. c #BB9B95",
"v. c #B89798",
"b. c #BC9B9A",
"n. c #BEA094",
"m. c #BBAA9D",
"M. c #9E9EA2",
"N. c #A19CA2",
"B. c #A3A1A4",
"V. c #A8A6AA",
"C. c #B8A9A4",
"Z. c #BFB2AE",
"A. c #B5B1B4",
"S. c #BBBABB",
"D. c #C38A8B",
"F. c #C38F92",
"G. c #C29599",
"H. c #C19E9D",
"J. c #C99D9E",
"K. c #C3A494",
"L. c #C8AD97",
"P. c #C4A39A",
"I. c #C8A699",
"U. c #C6AA9E",
"Y. c #CCAB9D",
"T. c #CAB09A",
"R. c #D4B59D",
"E. c #D7B89F",
"W. c #CD9FA0",
"Q. c #C5A4A3",
"!. c #CCA3A1",
"~. c #CCABA4",
"^. c #D4A3A3",
"/. c #D0AFA1",
"(. c #CBB5A6",
"). c #D4B3A3",
"_. c #D5B4A6",
"`. c #D7BBA1",
"'. c #DCBBA4",
"]. c #DCBCA9",
"[. c #E0BFA6",
"{. c #DBC3B2",
"}. c #E3C5A8",
"|. c #E4C4AB",
" X c #E8C7AC",
".X c #EBCBAD",
"XX c #EFD0AF",
"oX c #E1CAB5",
"OX c #EDCDB0",
"+X c #F0CFB1",
"@X c #F2D2B2",
"#X c #F5D4B3",
"$X c #F6D5B4",
"%X c #F8D6B5",
"&X c #C4C3C3",
"*X c #C6C7CA",
"=X c #CBCACB",
"-X c #CFCFD2",
";X c #D1D1D2",
":X c gray86",
">X c #E5D6C7",
",X c #E1E1E1",
"<X c gray92",
"1X c #EFF0F0",
"2X c gray96",
"3X c #F8F8F8",
"4X c None",
/* pixels */
"4X4X4X4X4X4X4X4X4X4X4X4X4X4X4X4X4X4X4X4X4X4X4X4X4X4X4X4X4X4X4X4X4X4X4X4X4X4X4X4X4X4X4X4X4X4X4X4X4X4X4X4X4X4X4X4X4X4X4X4X4X4X4X4X4X4X4X4X4X4X4X4X4X4X4X4X4X4X4X4X",
"4X4X4X4X4X4X4X4X4X4X4X4X4X4X4X4X4X4X4X4X4X4X4X4X4X4X4X4X4X4X4X4X4X4X4X4X4X4X4X4X4X4X4X4X4X4X4X4X4X4X4X4X4X4X4X4X4X4X4X4X4X4X4X4X4X4X4X4X4X4X4X4X4X4X4X4X4X4X4X4X",
"4X4X4X4X4X4X4X4X4X4X4X4X4X4X4X4X4X4X4X4X4X4X4X4X4X4X4X4X4X4X4X4X4X4X4X4X4X4X4X4X4X4X4X4X4X4X4X4X4X4X4X4X4X4X4X4X4X4X4X4X4X4X4X4X4X4X4X4X4X4X4X4X4X4X4X4X4X4X4X4X",
"4X4X4X4X4X4X4X4X4X4X4X4X4X4X4X4X4X4X4X4X4X4X4X4X4X4X4X4X4X4X4X4X4X4X4X4X4X4X4X4X4X4X4X4X4X4X4X4X4X4X4X4X4X4X4X4X4X4X4X4X4X4X4X4X4X4X4X4X4X4X4X4X4X4X4X4X4X4X4X4X",
"4X4X4X4X4X4X4X4X4X4X4X4X4X4X4X4X4X4X4X4X4X4X4X4X4X4X4X4X4X4X4X4X4X4X4X4X4X4X4X4X4X4X4X4X4X4X4X4X4X4X4X4X4X4X4X4X4X4X4X4X4X4X4X4X4X4X4X4X4X4X4X4X4X4X4X4X4X4X4X4X",
"4X4X4X4X4X4X4X4X4X4X4X4X4X4X4X4X4X4X4X4X4X4X4X4X4X4X4X4X4X4X4X4X4X4X4X4X4X4X4X4X4X4X4X4X4X4X4X4X4X4X4X4X4X4X4X4X4X4X4X4X4X4X4X4X4X4X4X4X4X4X4X4X4X4X4X4X4X4X4X4X",
"4X4X4X4X4X4X4X4X4X4X4X4X4X4X4X4X4X4X4X4X4X4X4X4X4X4X4X4X4X4X4X4X4X4X4X4X4X4X4X4X4X4X4X4X4X4X4X4X4X4X4X4X4X4X4X4X4X4X4X4X4X4X4X4X4X4X4X4X4X4X4X4X4X4X4X4X4X4X4X4X",
"4X4X4X4X4X4X4X4X4X4X4X4X4X4X4X4X4X4X4X4X4X4X4X4X4X4X4X4X4X4X4X4X4X4X4X4X4X4X4X4X4X4X4X4X4X4X4X4X4X4X4X4X4X4X4X4X4X4X4X4X4X4X4X4X4X4X4X4X4X4X4X4X4X4X4X4X4X4X4X4X",
"4X4X4X4X4X4X4X4X4X4X4X4X4X4X4X4X4X4X4X4X4X4X4X4X4X4X4X4X4X4X4X4X4X4X4X4X4X4X4X4X4X4X4X4X4X4X4X4X4X4X4X4X4X4X4X4X4X4X4X4X4X4X4X4X4X4X4X4X4X4X4X4X4X4X4X4X4X4X4X4X",
"4X4X4X4X4X4X4X4X4X4X4X4X4X4X4X4X4X4X4X4X4X4X4X4X4X4X4X4X4X4X4X4X4X4X4X4X4X4X4X4X4X4X4X4X4X4X4X4X4X4X4X4X4X4X4X4X4X4X4X4X4X4X4X4X4X4X4X4X4X4X4X4X4X4X4X4X4X4X4X4X",
"4X4X4X4X4X4X4X4X4X4X4X4X4X4X4X4X4X4X4X4X4X4X4X4X4X4X4X4X4X4X4X4X4X4X4X4X4X4X4X4X4X4X4X4X4X4X4X4X4X4X4X4X4X4X4X4X4X4X4X4X4X4X4X4X4X4X4X4X4X4X4X4X4X4X4X4X4X4X4X4X",
"4X4X4X4X4X4X4X4X4X4X4X4X4X4X4X4X4X4X4X4X4X4X4X4X4X4X4X4X4X4X4X4X4X4X4X4X4X4X4X4X4X4X4X4X4X4X4X4X4X4X4X4X4X4X4X4X4X4X4X4X4X4X4X4X4X4X4X4X4X4X4X4X4X4X4X4X4X4X4X4X",
"4X4X4X4X4X4X4X4X4X4X4X4X4X4X4X4X4X4X4X4X4X4X4X4X4X4X4X4X4X4X4X4X4X4X4X4X4X4X4X4X4X4X4X4X4X4X4X4X4X4X4X4X4X4X4X4X4X4X4X4X4X4X4X4X4X4X4X4X4X4X4X4X4X4X4X4X4X4X4X4X",
"4X4X4X4X4X4X4X4X4X4X4X4X4X4X4X4X4X4X4X4X4X4X4X4X4X4X4X4X4X4X4X4X4X4X4X4X4X4X4X4X4X4X4X4X4X4X4X4X4X4X6.x.4X4X4X4X4X4X4X4X4X4X4X4X4X4X4X4X4X4X4X4X4X4X4X4X4X4X4X4X",
"4X4X4X4X4X4X4X4X4X4X4X4X4X4X4X4X4X4X4X4X4X4X4X4X4X4X4X4X4X4X4X4X4X4X4X4X4X4X4X4X4X4X4X4X4X4X4XJ.F.-.x.^.W.x.4X4X4X4X4X4X4X4X4X4X4X4X4X4X4X4X4X4X4X4X4X4X4X4X4X4X",
"4X4X4X4X4X4X4X4X4X4X4X4X4X4X4X4X4X4X4X4X4X4X4X4X4X4X4X4X4X4X4X4X4X4X4X4X X.X|.].|..X.XE.K.R.I.!.;.' z.J.^.^.H.4X4X4X4X4X4X4X4X4X4X4X4X4X4X4X4X4X4X4X4X4X4X4X4X4X",
"4X4X4X4X4X4X4X4X4X4X4X4X4X4X4X4X4X4X4X4X4X4X4X4X4X4X4X4X4X4X}. X.XOX#X$X$X$X X X|.$X}.E..X#XR.J.-./ a.v.!.^.^.4X4X4X4X4X4X4X4X4X4X4X4X4X4X4X4X4X4X4X4X4X4X4X4X4X",
"4X4X4X4X4X4X4X4X4X4X4X4X4X4X4X4X4X4X4X4X4X4X4X4X4X4X4X4X4X'.OXOX_.|.}.@X$X$X@X|. XOX].K. X`.9.v.D./ ' i.a.G.J.a.4X4X4X4X4X4X4X4X4X4X4X4X4X4X4X4X4X4X4X4X4X4X4X4X",
"4X4X4X4X4X4X4X4X4X4X4X4X4X4X4X4X4X4X4X4X4X4X4X4X4X4X4X4X4X}. X X[.Y._._..X#X.X}.}. X|.K.E.l.2.l.J.{ ^ ' :.5.>.4X4X4X4X4X4X4X4X4X4X4X4X4X4X4X4X4X4X4X4X4X4X4X4X4X",
"4X4X4X4X4X4X4X4X4X4X4X4X4X4X4X4X4X4X4X4X4X4X4X4X4X4X4X4X4X|.OX].}.c.~.Q.~.]._._.). X|. XT.r.M.r.w.a._ ^ ( ] O.4X4X4X4X4X4X4X4X4X4X4X4X4X4X4X4X4X4X4X4X4X4X4X4X4X",
"4X4X4X4X4X4X4X4X4X4X4X4X4X4X4X4X4X4X4X4X4X4X4X4X4X4X4X4Xd.].$X.X.Xh.z.b.b.b.H.P..X X'.%XU.r.r.e.Q *.5.] ( _ #.4X4X4X4X4X4X4X4X4X4X4X4X4X4X4X4X4X4X4X4X4X4X4X4X4X",
"4X4X4X4X4X4X4X4X4X4X4X4X4X4X4X4X4X4X4X4X4X4X4X4X4X4X4X4Xz._.$X$X.Xg.4X%.%.&.=.c..X XY.#X(.V.7.7.Q E @.5.5.5.#.4X4X4X4X4X4X4X4X4X4X4X4X4X4X4X4X4X4X4X4X4X4X4X4X4X",
"4X4X4X4X4X4X4X4X4X4X4X4X4X4X4X4X4X4X4X4X4X4X4X4X4X4X4X4Xz.).@X$X@Xk.4X4X4X4X4XU.#X Xc..XU.3.9 ! Q H $.K.p.#.4X4X4X4X4X4X4X4X4X4X4X4X4X4X4X4X4X4X4X4X4X4X4X4X4X4X",
"4X4X4X4X4X4X4X4X4X4X4X4X4X4X4X4X4X4X4X4X4X4X4X4X4X4X4X4Xz.~.OX.X.X4X4X4X4X4X4X~.$XOXz.R.m.0.~ 8 U ! L.Y.E.`.4X4X4X4X4X4X4X4X4X4X4X4X4X4X4X4X4X4X4X4X4X4X4X4X4X4X",
"4X4X4X4X4X4X4X4X4X4X4X4X4X4X4X4X4X4X4X4X4X4X4X4X4X4X4X4Xy.v.).E.E.4X4X4X4X4Xu.~.@XOXc.c.C.>.% C Q m.|.R.@X#XE.4X4X4X4X4X4X4X4X4X4X4X4X4X4X4X4X4X4X4X4X4X4X4X4X4X",
"4X4X4X4X4X4X4X4X4X4X4X4X4X4X4X4X4X4X4X4X4X4X4X4X4X4X4X4X,.z.).}.E.4X4X4X4X4Xi.Q.|.@XQ.z.>.~ ) B.m..X.X'..X.X|.4X4X4X4X4X4X4X4X4X4X4X4X4X4X4X4X4X4X4X4X4X4X4X4X4X",
"4X4X4X4X4X4X4X4X4X4X4X4X4X4X4X4X4X4X4X4X4X4X4X4X4X4X4X4Xd.Q.{.>XoX4X4X4X4X&.z.Q.~.}.U.d.;.^ ) l.).E.Y.|..X@X$X4X4X4X4X4X4X4X4X4X4X4X4X4X4X4X4X4X4X4X4X4X4X4X4X4X",
"4X4X4X4X4X4X4X4X4X4X4X4X4X4X4X4X4X4X4X4X4X4X4X4X4X4X4X4Xi.Z.=X*X=X4X4X4X4X=.b.Q.v.c.I.s.<.~ ` z.i.z.Y..X@X@X X4X4X4X4X4X4X4X4X4X4X4X4X4X4X4X4X4X4X4X4X4X4X4X4X4X",
"4X4X4X4X4X4X4X4X4X4X4X4X4X4X4X4X4X4X4X4X4X4X4X4X4X4X4X4X9.A.2X3X,X4X4X=.t.%.b.Q.z.=.H.s.1.` =.i.v.b._.|._.~.Q.4X4X4X4X4X4X4X4X4X4X4X4X4X4X4X4X4X4X4X4X4X4X4X4X4X",
"4X4X4X4X4X4X4X4X4X4X4X4X4X4X4X4X4X4X4X4X4X4X4X4X4X4X4X4X4X-X3X3X<X=X%.i.i.&.u.H.Q.b.H.s.%.*.z.Q.v.z.~.).]. X).4X4X4X4X4X4X4X4X4X4X4X4X4X4X4X4X4X4X4X4X4X4X4X4X4X",
"4X4X4X4X4X4X4X4X4X4X4X4X4X4X4X4X4X4X4X4X4X4X4X4X4X4X4X4X4X:X<X,X;X*Xi.z.z.u.&.t.b.Q.Q.x.%.8.H.v.y.P.|.OX.X|.).4X4X4X4X4X4X4X4X4X4X4X4X4X4X4X4X4X4X4X4X4X4X4X4X4X",
"4X4X4X4X4X4X4X4X4X4X4X4X4X4X4X4X4X4X4X4X4X4X4X4X4X4X4X4X4X*X-X&XS.S.C.z.z.i.,.0.4.y.z.b.i.z.v.z.&.).$X#X.X_.b.4X4X4X4X4X4X4X4X4X4X4X4X4X4X4X4X4X4X4X4X4X4X4X4X4X",
"4X4X4X4X4X4X4X4X4X4X4X4X4X4X4X4X4X4X4X4X4X4X4X4X4X4X4X4Xr.V.B.B.M.0.l.d.i.i.t.9.y.t.0.=.,.z.z.=.4X'.$X$X$X|.d.4X4X4X4X4X4X4X4X4X4X4X4X4X4X4X4X4X4X4X4X4X4X4X4X4X",
"4X4X4X4X4X4X4X4X4X4X4X4X4X4X4X4X4X4X4X4X4X4X4X4X4X4X4X4X4Xq.q.q.w.d.h.h.i.i.t.l.N.l.4.t.%...Y 4X4X}.$X$X#X).y.4X4X4X4X4X4X4X4X4X4X4X4X4X4X4X4X4X4X4X4X4X4X4X4X4X",
"4X4X4X4X4X4X4X4X4X4X4X4X4X4X4X4X4X4X4X4X4X4X4X4X4X4X4X4X4X4X4Xj.I.Y.I.c.z.z.u.f.l.u.=.&.X...Y 4Xh..X$X$X.XP.4X4X4X4X4X4X4X4X4X4X4X4X4X4X4X4X4X4X4X4X4X4X4X4X4X4X",
"4X4X4X4X4X4X4X4X4X4X4X4X4X4X4X4X4X4X4X4X4X4X4X4X4X4X4X4X4X4Xj.)._.).Y.c.z.z.y.c.z.z.y.d.i.%.Y 4Xd._.|.#X.XU.4X4X4X4X4X4X4X4X4X4X4X4X4X4X4X4X4X4X4X4X4X4X4X4X4X4X",
"4X4X4X4X4X4X4X4X4X4X4X4X4X4X4X4X4X4X4X4X4X4X4X4X4X4X4X4X4X4XK.)._.).P.z.z.z.i.i.P.z.z.=... .D 4X'.}..X+X|.v.4X4X4X4X4X4X4X4X4X4X4X4X4X4X4X4X4X4X4X4X4X4X4X4X4X4X",
"4X4X4X4X4X4X4X4X4X4X4X4X4X4X4X4X4X4X4X4X4X4X4X4X4X4X4X4X4XI._._._.I.z.z.z.z.z.t.c.P.s.G V  .%.`.#X X}.`.!.d.4X4X4X4X4X4X4X4X4X4X4X4X4X4X4X4X4X4X4X4X4X4X4X4X4X4X",
"4X4X4X4X4X4X4X4X4X4X4X4X4X4X4X4X4X4X4X4X4X4X4X4X4X4X4X4XK.)._.).I.z.z.z.z.z.z.i.u.Q.U.*.%.1.k.}.$X#XXX).b.,.4X4X4X4X4X4X4X4X4X4X4X4X4X4X4X4X4X4X4X4X4X4X4X4X4X4X",
"4X4X4X4X4X4X4X4X4X4X4X4X4X4X4X4X4X4X4X4X4X4X4X4X4X4X4Xf.I._.Y.c.z.z.z.z.z.z.z.s.,.V.=XS.l.].[.'..X#X].Q.y.4X4X4X4X4X4X4X4X4X4X4X4X4X4X4X4X4X4X4X4X4X4X4X4X4X4X4X",
"4X4X4X4X4X4X4X4X4X4X4X4X4X4X4X4X4X4X4X4X4X4X4X4X4X4XK.Y.).U.z.z.z.z.z.z.z.z.s.y. .$.=X1X&XZ.OX`.'.].~.z.4X4X4X4X4X4X4X4X4X4X4X4X4X4X4X4X4X4X4X4X4X4X4X4X4X4X4X4X",
"4X4X4X4X4X4X4X4X4X4X4X4X4X4X4X4X4X4X4X4X4X4X4X4X4Xk.).).Y.v.z.z.z.z.z.z.d.p.y.N.V.*X<X3X,XS.oX'.n.Q.z.4X4X4X4X4X4X4X4X4X4X4X4X4X4X4X4X4X4X4X4X4X4X4X4X4X4X4X4X4X",
"4X4X4X4X4X4X4X4X4X4X4X4X4X4X4X4X4X4X4X4X4X4X4X4X4XK.~.P.v.z.z.z.z.z.z.d.p.s.8.9.r.=X:X2X*XB.Q.x.t.t.4X4X4X4X4X4X4X4X4X4X4X4X4X4X4X4X4X4X4X4X4X4X4X4X4X4X4X4X4X4X",
"4X4X4X4X4X4X4X4X4X4X4X4X4X4X4X4X4X4X4X4X4X4X4X4Xk.Y.U.z.z.z.z.z.z.z.z.z.z.=...e.A.;X;X*Xq.0.b.t.o.4X4X4X4X4X4X4X4X4X4X4X4X4X4X4X4X4X4X4X4X4X4X4X4X4X4X4X4X4X4X4X",
"4X4X4X4X4X4X4X4X4X4X4X4X4X4X4X4X4X4X4X4X4X4X4XK.).~.v.z.z.z.z.z.z.z.z.z.t.F D 3.V.*XB.T D O.&.X.4X4X4X4X4X4X4X4X4X4X4X4X4X4X4X4X4X4X4X4X4X4X4X4X4X4X4X4X4X4X4X4X",
"4X4X4X4X4X4X4X4X4X4X4X4X4X4X4X4X4X4X4X4X4X4XK.Y.).P.z.z.z.z.z.z.z.z.z.,.| D D $.M.r.B * < Z %.%.X.4X4X4X4X4X4X4X4X4X4X4X4X4X4X4X4X4X4X4X4X4X4X4X4X4X4X4X4X4X4X4X",
"4X4X4X4X4X4X4X4X4X4X4X4X4X4X4X4X4X4X4X4X4Xn.U.c./.c.z.z.z.z.z.z.z.z.=.| | F F | D n 7 : 2 B X.%.X.4X4X4X4X4X4X4X4X4X4X4X4X4X4X4X4X4X4X4X4X4X4X4X4X4X4X4X4X4X4X4X",
"4X4X4X4X4X4X4X4X4X4X4X4X4X4X4X4X4X4X4X4Xj.n.z.z.I.v.z.z.z.z.z.z.z.=.| | | D } | b : 7 < e N ..%.X.4X4X4X4X4X4X4X4X4X4X4X4X4X4X4X4X4X4X4X4X4X4X4X4X4X4X4X4X4X4X4X",
"4X4X4X4X4X4X4X4X4X4X4X4X4X4X4X4X4X4X4X4Xi.z.z.z.P.z.z.z.z.z.z.z.=.| | | | V | | F : < < a v P %.o.4X4X4X4X4X4X4X4X4X4X4X4X4X4X4X4X4X4X4X4X4X4X4X4X4X4X4X4X4X4X4X",
"4X4X4X4X4X4X4X4X4X4X4X4X4X4X4X4X4X4X4Xz 8.z.z.z.v.z.z.z.z.z.z.&.| | | | G D | | | 8 < p 4 N J +.o.4X4X4X4X4X4X4X4X4X4X4X4X4X4X4X4X4X4X4X4X4X4X4X4X4X4X4X4X4X4X4X",
"4X4X4X4X4X4X4X4X4X4X4X4X4X4X4X4X4Xl H J @.z.z.z.z.z.z.z.z.z.=.| | | | | F D | | | b : 4 k z N ..o.4X4X4X4X4X4X4X4X4X4X4X4X4X4X4X4X4X4X4X4X4X4X4X4X4X4X4X4X4X4X4X",
"4X4X4X4X4X4X4X4X4X4X4X4X4X4X4X4Xu I L K W 8.z.z.z.z.z.z.z.t.| | | | | | S G | | | m ; : 4 k v Y o.4X4X4X4X4X4X4X4X4X4X4X4X4X4X4X4X4X4X4X4X4X4X4X4X4X4X4X4X4X4X4X",
"4X4X4X4X4X4X4X4X4X4X4X4X4X4X4Xy l R L I K D i.z.z.z.z.z.i.X.| | | | | } S | | | | A $ $ $ < k C X.4X4X4X4X4X4X4X4X4X4X4X4X4X4X4X4X4X4X4X4X4X4X4X4X4X4X4X4X4X4X4X",
"4X4X4X4X4X4X4X4X4X4X4X4X4X4Xg c q K R R J 0 A i.z.z.z.z.%.| | | | | | F F | | | | 8 ; > < a z z X.X.4X4X4X4X4X4X4X4X4X4X4X4X4X4X4X4X4X4X4X4X4X4X4X4X4X4X4X4X4X4X",
"4X4X4X4X4X4X4X4X4X4X4X4X4Xy c i O g R R f * 4X=.d.z.z.y.G F | | | | | S | | | | F - > 4 3 j s k X.X.4X4X4X4X4X4X4X4X4X4X4X4X4X4X4X4X4X4X4X4X4X4X4X4X4X4X4X4X4X4X",
"4X4X4X4X4X4X4X4X4X4X4X4X+ u q i @ o z R h 4X4X4X&.i.z.%.f f S Y | | F S | | | | A - > > e p e a | X.4X4X4X4X4X4X4X4X4X4X4X4X4X4X4X4X4X4X4X4X4X4X4X4X4X4X4X4X4X4X",
"4X4X4X4X4X4X4X4X4X4X4X. u c q + @ 4X4Xz h 4X4X4X4X4Xt.4X4X4X4Xf V F F D | | | | b : < p s < e < A X.4X4X4X4X4X4X4X4X4X4X4X4X4X4X4X4X4X4X4X4X4X4X4X4X4X4X4X4X4X4X",
"4X4X4X4X4X4X4X4X4X4X4X@ l U x t . 4X4X4X4X4X4X4X4X4X4X4X4X4X4X4Xd B B G | | | | 8 : a p > < e : | X.4X4X4X4X4X4X4X4X4X4X4X4X4X4X4X4X4X4X4X4X4X4X4X4X4X4X4X4X4X4X",
"4X4X4X4X4X4X4X4X4X4X4Xq q J x + 4X4X4X4X4X4X4X4X4X4X4X4X4X4X4X4X4XB f F | | | [ : 7 < > 6 3 4 5 X.X.4X4X4X4X4X4X4X4X4X4X4X4X4X4X4X4X4X4X4X4X4X4X4X4X4X4X4X4X4X4X",
"4X4X4X4X4X4X4X4X4X4X4X4Xo X . 4X4X4X4X4X4X4X4X4X4X4X4X4X4X4X4X4X4X4X4Xf f M V S : 7 7 7 > 3 : 8 X.%.4X4X4X4X4X4X4X4X4X4X4X4X4X4X4X4X4X4X4X4X4X4X4X4X4X4X4X4X4X4X",
"4X4X4X4X4X4X4X4X4X4X4X4X4X4X4X4X4X4X4X4X4X4X4X4X4X4X4X4X4X4X4X4X4X4X4X4X4X4X4X4X$ 7 7 > < < ; > X.%.4X4X4X4X4X4X4X4X4X4X4X4X4X4X4X4X4X4X4X4X4X4X4X4X4X4X4X4X4X4X",
"4X4X4X4X4X4X4X4X4X4X4X4X4X4X4X4X4X4X4X4X4X4X4X4X4X4X4X4X4X4X4X4X4X4X4X4X4X4X4X4X$ 7 < 1 2 7 - 4Xo.X.4X4X4X4X4X4X4X4X4X4X4X4X4X4X4X4X4X4X4X4X4X4X4X4X4X4X4X4X4X4X",
"4X4X4X4X4X4X4X4X4X4X4X4X4X4X4X4X4X4X4X4X4X4X4X4X4X4X4X4X4X4X4X4X4X4X4X4X4X4X4X4X$ 4 2 < 7 < , 4XX.4X4X4X4X4X4X4X4X4X4X4X4X4X4X4X4X4X4X4X4X4X4X4X4X4X4X4X4X4X4X4X",
"4X4X4X4X4X4X4X4X4X4X4X4X4X4X4X4X4X4X4X4X4X4X4X4X4X4X4X4X4X4X4X4X4X4X4X4X4X4X4X4X: 7 7 7 7 1 O 4X4X4X4X4X4X4X4X4X4X4X4X4X4X4X4X4X4X4X4X4X4X4X4X4X4X4X4X4X4X4X4X4X",
"4X4X4X4X4X4X4X4X4X4X4X4X4X4X4X4X4X4X4X4X4X4X4X4X4X4X4X4X4X4X4X4X4X4X4X4X4X4X4X# 5 7 7 6 1 u 4X4X4X4X4X4X4X4X4X4X4X4X4X4X4X4X4X4X4X4X4X4X4X4X4X4X4X4X4X4X4X4X4X4X",
"4X4X4X4X4X4X4X4X4X4X4X4X4X4X4X4X4X4X4X4X4X4X4X4X4X4X4X4X4X4X4X4X4X4X4X4X4X4X4X* 7 7 7 1 j u 4X4X4X4X4X4X4X4X4X4X4X4X4X4X4X4X4X4X4X4X4X4X4X4X4X4X4X4X4X4X4X4X4X4X",
"4X4X4X4X4X4X4X4X4X4X4X4X4X4X4X4X4X4X4X4X4X4X4X4X4X4X4X4X4X4X4X4X4X4X4X4X4X4X4X; 7 7 1 k j = 4X4X4X4X4X4X4X4X4X4X4X4X4X4X4X4X4X4X4X4X4X4X4X4X4X4X4X4X4X4X4X4X4X4X",
"4X4X4X4X4X4X4X4X4X4X4X4X4X4X4X4X4X4X4X4X4X4X4X4X4X4X4X4X4X4X4X4X4X4X4X4X4X4X4X, < < s j 3 & 4X4X4X4X4X4X4X4X4X4X4X4X4X4X4X4X4X4X4X4X4X4X4X4X4X4X4X4X4X4X4X4X4X4X",
"4X4X4X4X4X4X4X4X4X4X4X4X4X4X4X4X4X4X4X4X4X4X4X4X4X4X4X4X4X4X4X4X4X4X4X4X4X4X4Xu 3 p l s a r . 4X4X4X4X4X4X4X4X4X4X4X4X4X4X4X4X4X4X4X4X4X4X4X4X4X4X4X4X4X4X4X4X4X",
"4X4X4X4X4X4X4X4X4X4X4X4X4X4X4X4X4X4X4X4X4X4X4X4X4X4X4X4X4X4X4X4X4X4X4X4X4X4X4X+ u h h w + y H c 4X4X4X4X4X4X4X4X4X4X4X4X4X4X4X4X4X4X4X4X4X4X4X4X4X4X4X4X4X4X4X4X",
"4X4X4X4X4X4X4X4X4X4X4X4X4X4X4X4X4X4X4X4X4X4X4X4X4X4X4X4X4X4X4X4X4X4X4X4X4X4X4X+ , + q @ @ c Q R H w 4X4X4X4X4X4X4X4X4X4X4X4X4X4X4X4X4X4X4X4X4X4X4X4X4X4X4X4X4X4X",
"4X4X4X4X4X4X4X4X4X4X4X4X4X4X4X4X4X4X4X4X4X4X4X4X4X4X4X4X4X4X4X4X4X4X4X4X4X4X4X. o t q q + q H E E U u   4X4X4X4X4X4X4X4X4X4X4X4X4X4X4X4X4X4X4X4X4X4X4X4X4X4X4X4X",
"4X4X4X4X4X4X4X4X4X4X4X4X4X4X4X4X4X4X4X4X4X4X4X4X4X4X4X4X4X4X4X4X4X4X4X4X4X4X4X4X    4X4X. @ i i i i i 4X4X4X4X4X4X4X4X4X4X4X4X4X4X4X4X4X4X4X4X4X4X4X4X4X4X4X4X4X",
"4X4X4X4X4X4X4X4X4X4X4X4X4X4X4X4X4X4X4X4X4X4X4X4X4X4X4X4X4X4X4X4X4X4X4X4X4X4X4X4X4X4X4X4X4X4X4X4X4X4X4X4X4X4X4X4X4X4X4X4X4X4X4X4X4X4X4X4X4X4X4X4X4X4X4X4X4X4X4X4X",
"4X4X4X4X4X4X4X4X4X4X4X4X4X4X4X4X4X4X4X4X4X4X4X4X4X4X4X4X4X4X4X4X4X4X4X4X4X4X4X4X4X4X4X4X4X4X4X4X4X4X4X4X4X4X4X4X4X4X4X4X4X4X4X4X4X4X4X4X4X4X4X4X4X4X4X4X4X4X4X4X",
"4X4X4X4X4X4X4X4X4X4X4X4X4X4X4X4X4X4X4X4X4X4X4X4X4X4X4X4X4X4X4X4X4X4X4X4X4X4X4X4X4X4X4X4X4X4X4X4X4X4X4X4X4X4X4X4X4X4X4X4X4X4X4X4X4X4X4X4X4X4X4X4X4X4X4X4X4X4X4X4X",
"4X4X4X4X4X4X4X4X4X4X4X4X4X4X4X4X4X4X4X4X4X4X4X4X4X4X4X4X4X4X4X4X4X4X4X4X4X4X4X4X4X4X4X4X4X4X4X4X4X4X4X4X4X4X4X4X4X4X4X4X4X4X4X4X4X4X4X4X4X4X4X4X4X4X4X4X4X4X4X4X",
"4X4X4X4X4X4X4X4X4X4X4X4X4X4X4X4X4X4X4X4X4X4X4X4X4X4X4X4X4X4X4X4X4X4X4X4X4X4X4X4X4X4X4X4X4X4X4X4X4X4X4X4X4X4X4X4X4X4X4X4X4X4X4X4X4X4X4X4X4X4X4X4X4X4X4X4X4X4X4X4X",
"4X4X4X4X4X4X4X4X4X4X4X4X4X4X4X4X4X4X4X4X4X4X4X4X4X4X4X4X4X4X4X4X4X4X4X4X4X4X4X4X4X4X4X4X4X4X4X4X4X4X4X4X4X4X4X4X4X4X4X4X4X4X4X4X4X4X4X4X4X4X4X4X4X4X4X4X4X4X4X4X",
"4X4X4X4X4X4X4X4X4X4X4X4X4X4X4X4X4X4X4X4X4X4X4X4X4X4X4X4X4X4X4X4X4X4X4X4X4X4X4X4X4X4X4X4X4X4X4X4X4X4X4X4X4X4X4X4X4X4X4X4X4X4X4X4X4X4X4X4X4X4X4X4X4X4X4X4X4X4X4X4X"
};
