/* XPM */
static char *result[] = {
/* columns rows colors chars-per-pixel */
"80 80 215 2 ",
"   c #281B28",
".  c #2C212C",
"X  c #2F2332",
"o  c #332A34",
"O  c #342C34",
"+  c #363136",
"@  c #3A333B",
"#  c #3E3A3E",
"$  c #4E1413",
"%  c #501716",
"&  c #531D1C",
"*  c #791212",
"=  c #552322",
"-  c #592A27",
";  c #5C2C2B",
":  c #5D322E",
">  c #48393A",
",  c #5C3533",
"<  c #573935",
"1  c #563D3C",
"2  c #5A3B3D",
"3  c #602F2E",
"4  c #61312F",
"5  c #623131",
"6  c #693B3B",
"7  c #413D42",
"8  c #483B48",
"9  c #5B3F43",
"0  c #444344",
"q  c #474549",
"w  c #4C424D",
"e  c #4C4B4C",
"r  c #544244",
"t  c #5A4245",
"y  c #52464E",
"u  c #5A454B",
"i  c #534949",
"p  c #4D4B52",
"a  c #544954",
"s  c #544B54",
"d  c #5A4A53",
"f  c #5A4C5A",
"g  c #525256",
"h  c #56545B",
"j  c #5C505E",
"k  c #634544",
"l  c #6D4645",
"z  c #605049",
"x  c #7A544E",
"c  c #634E58",
"v  c #6A5356",
"b  c #7B5354",
"n  c #755957",
"m  c #7C5D5B",
"M  c #7F635E",
"N  c #5C5563",
"B  c #5B5A66",
"V  c #615565",
"C  c #6C5761",
"Z  c #655B6B",
"A  c #695E6D",
"S  c #695F70",
"D  c #646468",
"F  c #7A6768",
"G  c #6A6273",
"H  c #6B6B72",
"J  c #786F77",
"K  c #737379",
"L  c #7B767D",
"P  c #8A0000",
"I  c #9B0000",
"U  c #8E1314",
"Y  c #96191A",
"T  c #B21E1B",
"R  c #991E20",
"E  c #842A2B",
"W  c #992627",
"Q  c #A53434",
"!  c #8D3F41",
"~  c #9C4048",
"^  c #85595B",
"/  c #815E5E",
"(  c #AB4A4D",
")  c #AA5151",
"_  c #A57F4A",
"`  c #836363",
"'  c #896766",
"]  c #856A64",
"[  c #856969",
"{  c #8C6B6B",
"}  c #986168",
"|  c #916E6E",
" . c #86736F",
".. c #907D60",
"X. c #90706F",
"o. c #856D73",
"O. c #996B75",
"+. c #837278",
"@. c #867B78",
"#. c #897B7B",
"$. c #937372",
"%. c #9A7474",
"&. c #977B75",
"*. c #9B7977",
"=. c #9F7478",
"-. c #9C7B7A",
";. c #A76667",
":. c #A16772",
">. c #AD7773",
",. c #A3737C",
"<. c #A27D7C",
"1. c #AE7A7B",
"2. c #B68557",
"3. c #8F827F",
"4. c #9A847F",
"5. c #A4817D",
"6. c #AB857E",
"7. c #A38C7D",
"8. c #A9907F",
"9. c #7F7F82",
"0. c #7D7D88",
"q. c #837C83",
"w. c #A67584",
"e. c #83838C",
"r. c #8B8688",
"t. c #99898A",
"y. c #8D8D95",
"u. c #8F8F98",
"i. c #928D94",
"p. c #979596",
"a. c #94949A",
"s. c #A58383",
"d. c #AA8686",
"f. c #A68B84",
"g. c #AA8A83",
"h. c #A28C8B",
"j. c #AC8B8B",
"k. c #B68888",
"l. c #B38D8D",
"z. c #AD9383",
"x. c #A49188",
"c. c #B39786",
"v. c #B4948D",
"b. c #B59A8A",
"n. c #BB9C8E",
"m. c #AD8F90",
"M. c #B38F92",
"N. c #BE8D94",
"B. c #A59596",
"V. c #AC9294",
"C. c #B49494",
"Z. c #BA9494",
"A. c #BC9C93",
"S. c #B99798",
"D. c #B39A9B",
"F. c #BD9A9B",
"G. c #BAA28D",
"H. c #A9A29E",
"J. c #B9A395",
"K. c #BCA29B",
"L. c #9E9FA3",
"P. c #A5A4AA",
"I. c #AAA5A8",
"U. c #B3AAAB",
"Y. c #B5ADAD",
"T. c #BAA9A9",
"R. c #B7B4B7",
"E. c #B6B6B9",
"W. c #BAB9BC",
"Q. c #C09F8F",
"!. c #C09F91",
"~. c #C19E9E",
"^. c #C9999C",
"/. c #C4A393",
"(. c #C7AB95",
"). c #CAAA96",
"_. c #C4A49B",
"`. c #C7A99A",
"'. c #CBAC9C",
"]. c #CCB19A",
"[. c #D3B49D",
"{. c #D5BA9E",
"}. c #D9BD9F",
"|. c #C5A4A3",
" X c #CDA0A0",
".X c #CDACA3",
"XX c #CAB7A5",
"oX c #D3B4A4",
"OX c #D6BAA3",
"+X c #DABBA4",
"@X c #D8B7A8",
"#X c #C4B7B5",
"$X c #E0BFA7",
"%X c #DEC3A5",
"&X c #D6C1AD",
"*X c #D5C3BA",
"=X c #E1C3A6",
"-X c #E4C4AA",
";X c #E7C8AA",
":X c #EBCCAE",
">X c #EDCDB0",
",X c #F3D2B2",
"<X c #F6D5B4",
"1X c #F8D7B5",
"2X c #C6C6C8",
"3X c #D1CBC7",
"4X c #D5D3D2",
"5X c gray86",
"6X c #E7DBCE",
"7X c #E3E3E4",
"8X c #E6E6E8",
"9X c #E9E9E9",
"0X c #F4F4F4",
"qX c #F8F8F8",
"wX c None",
/* pixels */
"wXwXwXwXwXwXwXwXwXwXwXwXwXwXwXwXwXwXwXwXwXwXwXwXwXwXwXwXwXwXwXwXwXwXwXwXwXwXwXwXwXwXwXwXwXwXwXwXwXwXwXwXwXwXwXwXwXwXwXwXwXwXwXwXwXwXwXwXwXwXwXwXwXwXwXwXwXwXwXwX",
"wXwXwXwXwXwXwXwXwXwXwXwXwXwXwXwXwXwXwXwXwXwXwXwXwXwXwXwXwXwXwXwXwXwXwXwXwXwXwXwXwXwXwXwXwXwXwXwXwXwXwXwXwXwXwXwXwXwXwXwXwXwXwXwXwXwXwXwXwXwXwXwXwXwXwXwXwXwXwXwX",
"wXwXwXwXwXwXwXwXwXwXwXwXwXwXwXwXwXwXwXwXwXwXwXwXwXwXwXwXwXwXwXwXwXwXwXwXwXwXwXwXwXwXwXwXwXwXwXwXwXwXwXwXwXwXwXwXwXwXwXwXwXwXwXwXwXwXwXwXwXwXwXwXwXwXwXwXwXwXwXwX",
"wXwXwXwXwXwXwXwXwXwXwXwXwXwXwXwXwXwXwXwXwXwXwXwXwXwXwXwXwXwXwXwXwXwXwXwXwXwXwXwXwXwXwXwXwXwXwXwXwXwXwXwXwXwXwXwXwXwXwXwXwXwXwXwXwXwXwXwXwXwXwXwXwXwXwXwXwXwXwXwX",
"wXwXwXwXwXwXwXwXwXwXwXwXwXwXwXwXwXwXwXwXwXwXwXwXwXwXwXwXwXwXwXwXwXwXwXwXwXwXwXwXwXwXwXwXwXwXwXwXwXwXwXwXwXwXwXwXwXwXwXwXwXwXwXwXwXwXwXwXwXwXwXwXwXwXwXwXwXwXwXwX",
"wXwXwXwXwXwXwXwXwXwXwXwXwXwXwXwXwXwXwXwXwXwXwXwXwXwXwXwXwXwXwXwXwXwXwXwXwXwXwXwXwXwXwXwXwXwXwXwXwXwXwXwXwXwXwXwXwXwXwXwXwXwXwXwXwXwXwXwXwXwXwXwXwXwXwXwXwXwXwXwX",
"wXwXwXwXwXwXwXwXwXwXwXwXwXwXwXwXwXwXwXwXwXwXwXwXwXwXwXwXwXwXwXwXwXwXwXwXwXwXwXwXwXwXwXwXwXwXwXwXwXwXwXwXwXwXwXwXwXwXwXwXwXwXwXwXwXwXwXwXwXwXwXwXwXwXwXwXwXwXwXwX",
"wXwXwXwXwXwXwXwXwXwXwXwXwXwXwXwXwXwXwXwXwXwXwXwXwXwXwXwXwXwXwXwXwXwXwXwXwXwXwXwXwXwXwXwXwXwXwXwXwXwXwXwXwXwXwXwXwXwXwXwXwXwXwXwXwXwXwXwXwXwXwXwXwXwXwXwXwXwXwXwX",
"wXwXwXwXwXwXwXwXwXwXwXwXwXwXwXwXwXwXwXwXwXwXwXwXwXwXwXwXwXwXwXwXwXwXwXwXwXwXwXwXwXwXwXwXwXwXwXM.^.^.wXwXwXwXwXwXwXwXwXwXwXwXwXwXwXwXwXwXwXwXwXwXwXwXwXwXwXwXwXwX",
"wXwXwXwXwXwXwXwXwXwXwXwXwXwXwXwXwXwXwXwXwXwXwXwXwXwXwXwXwXwXwXwXwXwXwXwXwXwXwXwXwXwXwXwXM.,.:.C.F. X X^.wXwXwXwXwXwXwXwXwXwXwXwXwXwXwXwXwXwXwXwXwXwXwXwXwXwXwXwX",
"wXwXwXwXwXwXwXwXwXwXwXwXwXwXwXwXwXwXwXwXwXwXwXwXwXwXwXwXwXwXwXwXwXwXwXwXwXwXwXwXwXwXwXwXS.1.W 1.C.C.Z.^.N.wXwXwXwXwXwXwXwXwXwXwXwXwXwXwXwXwXwXwXwXwXwXwXwXwXwXwX",
"wXwXwXwXwXwXwXwXwXwXwXwXwXwXwXwXwXwXwXwXwXwXwXwXwXwXwXwXwXwXwXwXwXwXwXwXwXwXwXwXwXwXwXwXwXZ.( R ;.,.=.,.w.wXwXwXwXwXwXwXwXwXwXwXwXwXwXwXwXwXwXwXwXwXwXwXwXwXwXwX",
"wXwXwXwXwXwXwXwXwXwXwXwXwXwXwXwXwXwXwXwXwXwXwXwXwXwXwXwXwXwXwXwXwXwXwXwXwXwXwXwXwXwXwXwX#.J k.( Y W ~ :.O.wXwXwXwXwXwXwXwXwXwXwXwXwXwXwXwXwXwXwXwXwXwXwXwXwXwXwX",
"wXwXwXwXwXwXwXwXwXwXwXwXwXwXwXwXwXwXwXwXwXwXwXwXwXwXwXwXwXwXwXwXwXwXwXwXwXwXwXwXwXwX=X=Xt.K L M.k.) Y U E wXwXwXwXwXwXwXwXwXwXwXwXwXwXwXwXwXwXwXwXwXwXwXwXwXwXwX",
"wXwXwXwXwXwXwXwXwXwXwXwXwXwXwXwXwXwXwXwXwXwXwXwXwXwXwXwXwXwXwXwXwXwXwXwXwXwXwXwXwX{.,X[.@.L 0.J 2.6.,.:.} wXwXwXwXwXwXwXwXwXwXwXwXwXwXwXwXwXwXwXwXwXwXwXwXwXwXwX",
"wXwXwXwXwXwXwXwXwXwXwXwXwXwXwXwXwXwXwXwXwXwXwXwXwXwXwXwXwXwXwXwXwXwXwXwX+X-X;X,X:Xn.n.}...9.i.@._  .+.O.O.wXwXwXwXwXwXwXwXwXwXwXwXwXwXwXwXwXwXwXwXwXwXwXwXwXwXwX",
"wXwXwXwXwXwXwXwXwXwXwXwXwXwXwXwXwXwXwXwXwXwXwXwXwXwXwXwXwXwXwXwXwXwXwX$X,X<X,X>X,X[.n.OXx.F r.L.P.P.L.wXwXwXwXwXwXwXwXwXwXwXwXwXwXwXwXwXwXwXwXwXwXwXwXwXwXwXwXwX",
"wXwXwXwXwXwXwXwXwXwXwXwXwXwXwXwXwXwXwXwXwXwXwXwXwXwXwXwXwXwXwXwXwXwXwX[.=X%X-X:X>X%X:X;XT.4.K a.r.H.H.wXwXwXwXwXwXwXwXwXwXwXwXwXwXwXwXwXwXwXwXwXwXwXwXwXwXwXwXwX",
"wXwXwXwXwXwXwXwXwXwXwXwXwXwXwXwXwXwXwXwXwXwXwXwXwXwXwXwXwXwXwXwXwXwX[.+X;X,X,X:X:X'.-X,XT.W.{ ^ r.OX(.wXwXwXwXwXwXwXwXwXwXwXwXwXwXwXwXwXwXwXwXwXwXwXwXwXwXwXwXwX",
"wXwXwXwXwXwXwXwXwXwXwXwXwXwXwXwXwXwXwXwXwXwXwXwXwXwXwXwXwXwXwXwXwX[.,X<X<X,X:X+X:X'./.:XXXP.! U #.G.G.g.wXwXwXwXwXwXwXwXwXwXwXwXwXwXwXwXwXwXwXwXwXwXwXwXwXwXwXwX",
"wXwXwXwXwXwXwXwXwXwXwXwXwXwXwXwXwXwXwXwXwXwXwXwXwXwXwXwXwXwXwXwXwX+X:X,X:X;X+X.X:X:X`.).=X#X-.* B.J.[.v.wXwXwXwXwXwXwXwXwXwXwXwXwXwXwXwXwXwXwXwXwXwXwXwXwXwXwXwX",
"wXwXwXwXwXwXwXwXwXwXwXwXwXwXwXwXwXwXwXwXwXwXwXwXwXwXwXwXwXwXwXwX;X<X<X<X,X:X@X|.$X;X>X+X[.&Xd.P ;.XX[.v.f.wXwXwXwXwXwXwXwXwXwXwXwXwXwXwXwXwXwXwXwXwXwXwXwXwXwXwX",
"wXwXwXwXwXwXwXwXwXwXwXwXwXwXwXwXwXwXwXwXwXwXwXwXwXwXwXwXwXwXwX=X<X,X>X-X@X.X_.F..X-X<X<X-X`.>.I Q K.A.A.f.wXwXwXwXwXwXwXwXwXwXwXwXwXwXwXwXwXwXwXwXwXwXwXwXwXwXwX",
"wXwXwXwXwXwXwXwXwXwXwXwXwXwXwXwXwXwXwXwXwXwXwXwXwXwXwXwXwXwXoX:X-X+XoX.X|.F.j.C.oX,X<X<X,X'.l.T W j.s.`.b.wXwXwXwXwXwXwXwXwXwXwXwXwXwXwXwXwXwXwXwXwXwXwXwXwXwXwX",
"wXwXwXwXwXwXwXwXwXwXwXwXwXwXwXwXwXwXwXwXwXwXwXwXwXwXwXwXwXwX+X:X@X+X;X@XS.-.s.C..X:X<X<X<X-XS.;.E j.*.`.n.wXwXwXwXwXwXwXwXwXwXwXwXwXwXwXwXwXwXwXwXwXwXwXwXwXwXwX",
"wXwXwXwXwXwXwXwXwXwXwXwXwXwXwXwXwXwXwXwXwXwXwXwXwXwXwXwXwXd..X-X+X[.oXv.wXwXs.F.|.oX,X<X1X,XoXj.^ *.5..Xn.wXwXwXwXwXwXwXwXwXwXwXwXwXwXwXwXwXwXwXwXwXwXwXwXwXwXwX",
"wXwXwXwXwXwXwXwXwXwXwXwXwXwXwXwXwXwXwXwXwXwXwXwXwXwXwXwXwXj.|.oX:X,X>X'.wXwXs.|.|.|.+X=X].,X:X`.$.-.d..X/.wXwXwXwXwXwXwXwXwXwXwXwXwXwXwXwXwXwXwXwXwXwXwXwXwXwXwX",
"wXwXwXwXwXwXwXwXwXwXwXwXwXwXwXwXwXwXwXwXwXwXwXwXwXwXwXwXwXs.|..X:X<X<X,XwXwX<.F.|.|.|.~.g.'.@X_.[ *.j.`.J.wXwXwXwXwXwXwXwXwXwXwXwXwXwXwXwXwXwXwXwXwXwXwXwXwXwXwX",
"wXwXwXwXwXwXwXwXwXwXwXwXwXwXwXwXwXwXwXwXwXwXwXwXwXwXwXwXwXwXF.|.oX,X<X>X+Xv.s.s.l.F.~.~.~.|.|.F.$.-.v.A./.wXwXwXwXwXwXwXwXwXwXwXwXwXwXwXwXwXwXwXwXwXwXwXwXwXwXwX",
"wXwXwXwXwXwXwXwXwXwXwXwXwXwXwXwXwXwXwXwXwXwXwXwXwXwXwXwXwXwXs.~.|.+X;X-X;X:X+Xv.5.| d.S.F.T.D.t.{ -.-.*.b.b.wXwXwXwXwXwXwXwXwXwXwXwXwXwXwXwXwXwXwXwXwXwXwXwXwXwX",
"wXwXwXwXwXwXwXwXwXwXwXwXwXwXwXwXwXwXwXwXwXwXwXwXwXwXwXwXwXwXwXs.F.|.A.'.>X6X4X3XR.B.t.6.K.U.i.#.v | %.5.].].wXwXwXwXwXwXwXwXwXwXwXwXwXwXwXwXwXwXwXwXwXwXwXwXwXwX",
"wXwXwXwXwXwXwXwXwXwXwXwXwXwXwXwXwXwXwXwXwXwXwXwXwXwXwXwXwXwXwXwXwXl.d.F.*X4X9XqX0X5XR.x.I.T.h.4.t M <./.%X+Xn.wXwXwXwXwXwXwXwXwXwXwXwXwXwXwXwXwXwXwXwXwXwXwXwXwX",
"wXwXwXwXwXwXwXwXwXwXwXwXwXwXwXwXwXwXwXwXwXwXwXwXwXwXwXwXwXwXwXwXwXwXs.F.T.I.9XqX0X8X2XR.P.t.+.] z %.k.`.%X%X].wXwXwXwXwXwXwXwXwXwXwXwXwXwXwXwXwXwXwXwXwXwXwXwXwX",
"wXwXwXwXwXwXwXwXwXwXwXwXwXwXwXwXwXwXwXwXwXwXwXwXwXwXwXwXwXwXwXwXwXwXwXs.V.i.E.8X7X4X2XI.p.i.3.' n | k.A.%X%X{.wXwXwXwXwXwXwXwXwXwXwXwXwXwXwXwXwXwXwXwXwXwXwXwXwX",
"wXwXwXwXwXwXwXwXwXwXwXwXwXwXwXwXwXwXwXwXwXwXwXwXwXwXwXwXwXwXwXwXwXwXf.j.s.h.h.U.W.W.Y.#XC.g.<.| ] ] l.C.[.=X+XwXwXwXwXwXwXwXwXwXwXwXwXwXwXwXwXwXwXwXwXwXwXwXwXwX",
"wXwXwXwXwXwXwXwXwXwXwXwXwXwXwXwXwXwXwXwXwXwXwXwXwXwXwXwXwXwXwXwXwX8.n.C.C.C.C.V.T.B.#XK.k.k.{ ` { n s.C._.[.).7.wXwXwXwXwXwXwXwXwXwXwXwXwXwXwXwXwXwXwXwXwXwXwXwX",
"wXwXwXwXwXwXwXwXwXwXwXwXwXwXwXwXwXwXwXwXwXwXwXwXwXwXwXwXwXwXwXwXwXn./.v.C.C.C.V.B.m.j./.l.d.$.{ | wX$.s.f.b.).z.wXwXwXwXwXwXwXwXwXwXwXwXwXwXwXwXwXwXwXwXwXwXwXwX",
"wXwXwXwXwXwXwXwXwXwXwXwXwXwXwXwXwXwXwXwXwXwXwXwXwXwXwXwXwXwXwXwXwX/./.n.C.C.C.C.C.k.<./.j.j.*.$.{ wXwX*.&.J.OX{.wXwXwXwXwXwXwXwXwXwXwXwXwXwXwXwXwXwXwXwXwXwXwXwX",
"wXwXwXwXwXwXwXwXwXwXwXwXwXwXwXwXwXwXwXwXwXwXwXwXwXwXwXwXwXwXwXwXb././.!.C.C.C.C.l.l.<./.v.j.$.$.X.wXwX$.j.K.XX].z.wXwXwXwXwXwXwXwXwXwXwXwXwXwXwXwXwXwXwXwXwXwXwX",
"wXwXwXwXwXwXwXwXwXwXwXwXwXwXwXwXwXwXwXwXwXwXwXwXwXwXwXwXwXwXwXwXn./././.n.C.C.C.C.C.s./.n.$.$.$.$.M wX$.D.U.R.P.q.wXwXwXwXwXwXwXwXwXwXwXwXwXwXwXwXwXwXwXwXwXwXwX",
"wXwXwXwXwXwXwXwXwXwXwXwXwXwXwXwXwXwXwXwXwXwXwXwXwXwXwXwXwXwXwXwXn././././.n.C.C.C.C.s.A.z.` $.$.$.{ wX .r.y.3XE.wXwXwXwXwXwXwXwXwXwXwXwXwXwXwXwXwXwXwXwXwXwXwXwX",
"wXwXwXwXwXwXwXwXwXwXwXwXwXwXwXwXwXwXwXwXwXwXwXwXwXwXwXwXwXwXwXz././././././.v.C.C.C.s.C.c.] $.$.$.{ wXwXe.E.9X5XwXwXwXwXwXwXwXwXwXwXwXwXwXwXwXwXwXwXwXwXwXwXwXwX",
"wXwXwXwXwXwXwXwXwXwXwXwXwXwXwXwXwXwXwXwXwXwXwXwXwXwXwXwXwXwXwXb./././././.n.C.C.C.C.s.j./.$.$.$.$.{ wXwXa.W.7X5XwXwXwXwXwXwXwXwXwXwXwXwXwXwXwXwXwXwXwXwXwXwXwXwX",
"wXwXwXwXwXwXwXwXwXwXwXwXwXwXwXwXwXwXwXwXwXwXwXwXwXwXwXwXwXwXc./././././.n.C.C.C.C.C.b *.`.5.$.$.$.{ wXwXwXP.E.2XwXwXwXwXwXwXwXwXwXwXwXwXwXwXwXwXwXwXwXwXwXwXwXwX",
"wXwXwXwXwXwXwXwXwXwXwXwXwXwXwXwXwXwXwXwXwXwXwXwXwXwXwXwXwXwXb././././.A.C.C.C.C.C.=.- { g.5.$.$.$.{ wXwXwXa.y.P.wXwXwXwXwXwXwXwXwXwXwXwXwXwXwXwXwXwXwXwXwXwXwXwX",
"wXwXwXwXwXwXwXwXwXwXwXwXwXwXwXwXwXwXwXwXwXwXwXwXwXwXwXwXwXwXn././././.C.C.C.C.C.C.b & , k m $.$.$.{ wXwXD e.e.P.wXwXwXwXwXwXwXwXwXwXwXwXwXwXwXwXwXwXwXwXwXwXwXwX",
"wXwXwXwXwXwXwXwXwXwXwXwXwXwXwXwXwXwXwXwXwXwXwXwXwXwXwXwXwX7.n./.Q./.n.C.C.C.C.C.<.5 3 ; 1 v $.$.$.{ wXwXK K y.U.wXwXwXwXwXwXwXwXwXwXwXwXwXwXwXwXwXwXwXwXwXwXwXwX",
"wXwXwXwXwXwXwXwXwXwXwXwXwXwXwXwXwXwXwXwXwXwXwXwXwXwXwXwX7.c././.n.v.C.C.C.C.C.C.$.5 3 , u c { $.$.{ wXwXD 9.u.a.wXwXwXwXwXwXwXwXwXwXwXwXwXwXwXwXwXwXwXwXwXwXwXwX",
"wXwXwXwXwXwXwXwXwXwXwXwXwXwXwXwXwXwXwXwXwXwXwXwXwXwXwXwXv./././.n.C.C.C.C.C.C.j.{ 5 , , d c ` $.$.{ wXwXwXwXwXwXwXwXwXwXwXwXwXwXwXwXwXwXwXwXwXwXwXwXwXwXwXwXwXwX",
"wXwXwXwXwXwXwXwXwXwXwXwXwXwXwXwXwXwXwXwXwXwXwXwXwXwXc.n.A./././.C.C.C.C.C.C.C.<.` 5 , t t V m $.$.{ wXwXwXwXwXwXwXwXwXwXwXwXwXwXwXwXwXwXwXwXwXwXwXwXwXwXwXwXwXwX",
"wXwXwXwXwXwXwXwXwXwXwXwXwXwXwXwXwXwXwXwXwXwXwXwXwXb./././././.n.C.C.C.C.C.C.C.| ` 5 ; t d j v $.$.{ wXwXwXwXwXwXwXwXwXwXwXwXwXwXwXwXwXwXwXwXwXwXwXwXwXwXwXwXwXwX",
"wXwXwXwXwXwXwXwXwXwXwXwXwXwXwXwXwXwXwXwXwXwXwXwXz././.!.C.A./.v.C.C.C.C.C.C.d.' ` 6 - : t j C X.$.{ wXwXwXwXwXwXwXwXwXwXwXwXwXwXwXwXwXwXwXwXwXwXwXwXwXwXwXwXwXwX",
"wXwXwXwXwXwXwXwXwXwXwXwXwXwXwXwXwXwXwXwXwXwXwXwX7./.A.C.C.A.A.C.C.C.C.C.C.C.%.` ` b & & = t c { $.{ wXwXwXwXwXwXwXwXwXwXwXwXwXwXwXwXwXwXwXwXwXwXwXwXwXwXwXwXwXwX",
"wXwXwXwXwXwXwXwXwXwXwXwXwXwXwXwXwXwXwXwXwXwXwXwX#.C.C.C.C.C.C.C.C.C.C.C.C.j.{ ` ` b ; , 2 d f ` $.{ wXwXwXwXwXwXwXwXwXwXwXwXwXwXwXwXwXwXwXwXwXwXwXwXwXwXwXwXwXwX",
"wXwXwXwXwXwXwXwXwXwXwXwXwXwXwXwXwXwXwXwXwXwXwXf o.C.C.C.C.C.C.C.C.C.C.C.C.s.` ` / 5 , 1 r a t ` $.{ wXwXwXwXwXwXwXwXwXwXwXwXwXwXwXwXwXwXwXwXwXwXwXwXwXwXwXwXwXwX",
"wXwXwXwXwXwXwXwXwXwXwXwXwXwXwXwXwXwXwXwXwXwXf V F j.C.C.C.C.C.C.C.C.C.C.C.%.` ` m : : , r 1 9 ` $.wXwXwXwXwXwXwXwXwXwXwXwXwXwXwXwXwXwXwXwXwXwXwXwXwXwXwXwXwXwXwX",
"wXwXwXwXwXwXwXwXwXwXwXwXwXwXwXwXwXwXwXwXwXN Z Z A s.C.C.C.C.C.C.C.C.C.C.l.{ ` ` x : , y 1 , t ' | wXwXwXwXwXwXwXwXwXwXwXwXwXwXwXwXwXwXwXwXwXwXwXwXwXwXwXwXwXwXwX",
"wXwXwXwXwXwXwXwXwXwXwXwXwXwXwXwXwXwXwXwXh A A S Z [ C.C.C.C.C.C.C.C.C.C.d.' ` ` 6 3 t r : 2 k { { wXwXwXwXwXwXwXwXwXwXwXwXwXwXwXwXwXwXwXwXwXwXwXwXwXwXwXwXwXwXwX",
"wXwXwXwXwXwXwXwXwXwXwXwXwXwXwXwXwXwXwX# j G G G Z d -.C.C.C.C.C.C.C.C.C.<.` ` / ; 5 , : , r l X.{ wXwXwXwXwXwXwXwXwXwXwXwXwXwXwXwXwXwXwXwXwXwXwXwXwXwXwXwXwXwXwX",
"wXwXwXwXwXwXwXwXwXwXwXwXwXwXwXwXwXwXwX0 w Z G G Z 2 x l.C.C.C.C.C.C.C.C.{ m ` / ; 5 5 4 < < l $.{ wXwXwXwXwXwXwXwXwXwXwXwXwXwXwXwXwXwXwXwXwXwXwXwXwXwXwXwXwXwXwX",
"wXwXwXwXwXwXwXwXwXwXwXwXwXwXwXwXwXwXwXg g V G G d : wXwXd.C.C.C.C.C.C.l.{ i v n - 5 5 : < : x $.wXwXwXwXwXwXwXwXwXwXwXwXwXwXwXwXwXwXwXwXwXwXwXwXwXwXwXwXwXwXwXwX",
"wXwXwXwXwXwXwXwXwXwXwXwXwXwXwXwXwXwXq h e w Z G y wXwXwXwX<.j.C.C.C.C.j.wXwXwXwX& 5 , < , 6 ' $.wXwXwXwXwXwXwXwXwXwXwXwXwXwXwXwXwXwXwXwXwXwXwXwXwXwXwXwXwXwXwXwX",
"wXwXwXwXwXwXwXwXwXwXwXwXwXwXwXwXwXwXp h 7 O 8 N a wXwXwXwXwXwX=.s.j.C.j.wXwXwXwX= 2 < , 5 l F ' wXwXwXwXwXwXwXwXwXwXwXwXwXwXwXwXwXwXwXwXwXwXwXwXwXwXwXwXwXwXwXwX",
"wXwXwXwXwXwXwXwXwXwXwXwXwXwXwXwXwX. s h q @   8 wXwXwXwXwXwXwXwXwXwX$.] wXwXwXwX; 5 5 5 4 1 8 wXwXwXwXwXwXwXwXwXwXwXwXwXwXwXwXwXwXwXwXwXwXwXwXwXwXwXwXwXwXwXwXwX",
"wXwXwXwXwXwXwXwXwXwXwXwXwXwXwXwXwX  N g e + wXwXwXwXwXwXwXwXwXwXwXwXwXwXwXwXwX$ 3 5 5 5 < y wXwXwXwXwXwXwXwXwXwXwXwXwXwXwXwXwXwXwXwXwXwXwXwXwXwXwXwXwXwXwXwXwXwX",
"wXwXwXwXwXwXwXwXwXwXwXwXwXwXwXwXwXX B g q O wXwXwXwXwXwXwXwXwXwXwXwXwXwXwXwXwX% 3 5 5 , d w wXwXwXwXwXwXwXwXwXwXwXwXwXwXwXwXwXwXwXwXwXwXwXwXwXwXwXwXwXwXwXwXwXwX",
"wXwXwXwXwXwXwXwXwXwXwXwXwXwXwXwXwXO h H 7 wXwXwXwXwXwXwXwXwXwXwXwXwXwXwXwXwXwX- 5 5 , u d > wXwXwXwXwXwXwXwXwXwXwXwXwXwXwXwXwXwXwXwXwXwXwXwXwXwXwXwXwXwXwXwXwXwX",
"wXwXwXwXwXwXwXwXwXwXwXwXwXwXwXwXwXwX# 7 O wXwXwXwXwXwXwXwXwXwXwXwXwXwXwXwXwXwX> , : r d 1 = wXwXwXwXwXwXwXwXwXwXwXwXwXwXwXwXwXwXwXwXwXwXwXwXwXwXwXwXwXwXwXwXwXwX",
"wXwXwXwXwXwXwXwXwXwXwXwXwXwXwXwXwXwXwXo wXwXwXwXwXwXwXwXwXwXwXwXwXwXwXwXwXwXwXw 1 t s u 9 8 wXwXwXwXwXwXwXwXwXwXwXwXwXwXwXwXwXwXwXwXwXwXwXwXwXwXwXwXwXwXwXwXwXwX",
"wXwXwXwXwXwXwXwXwXwXwXwXwXwXwXwXwXwXwXwXwXwXwXwXwXwXwXwXwXwXwXwXwXwXwXwXwXwXwXO w a w 7 @ g Z g wXwXwXwXwXwXwXwXwXwXwXwXwXwXwXwXwXwXwXwXwXwXwXwXwXwXwXwXwXwXwXwX",
"wXwXwXwXwXwXwXwXwXwXwXwXwXwXwXwXwXwXwXwXwXwXwXwXwXwXwXwXwXwXwXwXwXwXwXwXwXwXwXO @ @ 7 # 0 h K H B 8 wXwXwXwXwXwXwXwXwXwXwXwXwXwXwXwXwXwXwXwXwXwXwXwXwXwXwXwXwXwX",
"wXwXwXwXwXwXwXwXwXwXwXwXwXwXwXwXwXwXwXwXwXwXwXwXwXwXwXwXwXwXwXwXwXwXwXwXwXwXwX. O 0 7 7 @ > g H H D p X wXwXwXwXwXwXwXwXwXwXwXwXwXwXwXwXwXwXwXwXwXwXwXwXwXwXwXwX",
"wXwXwXwXwXwXwXwXwXwXwXwXwXwXwXwXwXwXwXwXwXwXwXwXwXwXwXwXwXwXwXwXwXwXwXwXwXwXwXwX    wXwXo q e e e p e wXwXwXwXwXwXwXwXwXwXwXwXwXwXwXwXwXwXwXwXwXwXwXwXwXwXwXwXwX",
"wXwXwXwXwXwXwXwXwXwXwXwXwXwXwXwXwXwXwXwXwXwXwXwXwXwXwXwXwXwXwXwXwXwXwXwXwXwXwXwXwXwXwXwXwXwXwXwXwXwXwXwXwXwXwXwXwXwXwXwXwXwXwXwXwXwXwXwXwXwXwXwXwXwXwXwXwXwXwXwX",
"wXwXwXwXwXwXwXwXwXwXwXwXwXwXwXwXwXwXwXwXwXwXwXwXwXwXwXwXwXwXwXwXwXwXwXwXwXwXwXwXwXwXwXwXwXwXwXwXwXwXwXwXwXwXwXwXwXwXwXwXwXwXwXwXwXwXwXwXwXwXwXwXwXwXwXwXwXwXwXwX",
"wXwXwXwXwXwXwXwXwXwXwXwXwXwXwXwXwXwXwXwXwXwXwXwXwXwXwXwXwXwXwXwXwXwXwXwXwXwXwXwXwXwXwXwXwXwXwXwXwXwXwXwXwXwXwXwXwXwXwXwXwXwXwXwXwXwXwXwXwXwXwXwXwXwXwXwXwXwXwXwX",
"wXwXwXwXwXwXwXwXwXwXwXwXwXwXwXwXwXwXwXwXwXwXwXwXwXwXwXwXwXwXwXwXwXwXwXwXwXwXwXwXwXwXwXwXwXwXwXwXwXwXwXwXwXwXwXwXwXwXwXwXwXwXwXwXwXwXwXwXwXwXwXwXwXwXwXwXwXwXwXwX",
"wXwXwXwXwXwXwXwXwXwXwXwXwXwXwXwXwXwXwXwXwXwXwXwXwXwXwXwXwXwXwXwXwXwXwXwXwXwXwXwXwXwXwXwXwXwXwXwXwXwXwXwXwXwXwXwXwXwXwXwXwXwXwXwXwXwXwXwXwXwXwXwXwXwXwXwXwXwXwXwX",
"wXwXwXwXwXwXwXwXwXwXwXwXwXwXwXwXwXwXwXwXwXwXwXwXwXwXwXwXwXwXwXwXwXwXwXwXwXwXwXwXwXwXwXwXwXwXwXwXwXwXwXwXwXwXwXwXwXwXwXwXwXwXwXwXwXwXwXwXwXwXwXwXwXwXwXwXwXwXwXwX",
"wXwXwXwXwXwXwXwXwXwXwXwXwXwXwXwXwXwXwXwXwXwXwXwXwXwXwXwXwXwXwXwXwXwXwXwXwXwXwXwXwXwXwXwXwXwXwXwXwXwXwXwXwXwXwXwXwXwXwXwXwXwXwXwXwXwXwXwXwXwXwXwXwXwXwXwXwXwXwXwX"
};
