/* XPM */
static char *result[] = {
/* columns rows colors chars-per-pixel */
"80 80 35 1 ",
"  c #72751B",
". c #7F8124",
"X c #787B21",
"o c #686F16",
"O c #878679",
"+ c #7C7B6E",
"@ c #88867D",
"# c #807F72",
"$ c #8E8C83",
"% c #848279",
"& c #8A887F",
"* c #8F8D85",
"= c #68644F",
"- c #8D8B83",
"; c #64604B",
": c #6C6852",
"> c #939189",
", c #605C48",
"< c #89877F",
"1 c #7F8226",
"2 c #87867D",
"3 c #848377",
"4 c #86847A",
"5 c #838279",
"6 c #8A8A7D",
"7 c #8C8A80",
"8 c #656C17",
"9 c #86847B",
"0 c #87857C",
"q c #8C8A81",
"w c #8D8B82",
"e c #8D8C83",
"r c #87867C",
"t c #8D8C82",
"y c white",
/* pixels */
"                                                                                ",
"                                                                                ",
"                                                                                ",
"                                                                                ",
"                                                                                ",
"                                                                                ",
"                                                              ..   .            ",
"                                                               .. .             ",
"                                                               XXoX             ",
"                                                               oXoo             ",
"                                                X..             o               ",
"                                                 .XX                            ",
"                                                 oXX                            ",
"                                                  oo                            ",
"                OOOOOOOOOOOO    ++++++++++++        @#######    ############    ",
"               $OOOOOOOOOOOO$  %++++++++++++%      @########@  @############@  &",
"               $OOOOOOOOOOOO$  %++++++++++++%     @#########@  @############@  &",
"               $OOOOOOOOOOOO$  %++++++++++++%  @############@  @############@  &",
"               $OOOOOOOOOOOO$  %++++++++++++%  @############@  @############@  &",
"               $OOOOOOOOOOOO$  %++++++++++++%  @############@  @############@  &",
"               $OOOOOOOOOOOO$  %++++++++++++%  @############@  @############@  *",
"               $OOOOOOOOOOOO$  %++++++++++++%  @############@  @############@  =",
"               $OOOOOOOOOOOO$  %++++++++++++%  @############@  @############@   ",
"               $OOOOOOOOOOOO$  %++++++++++++%  @############@  @############@  $",
"               $OOOOOOOOOOOO$  %++++++++++++%  @############@  @############@  $",
"               $OOOOOOOOOOOO$  %++++++++++++%  @############@  -----########@  $",
"               $OOOOOOOOOOOO$  %++++++++++++%  @############@   ;;;;-#######@  $",
"               :>>>>>>>>>>>>:  ,<<<<<<<<<<<-;  ;------------;       ;-------;  :",
"                ::::::::::::    ;,,,,,,;;;;;    ;;,,,,,;;;;;         ;;;;;;;    ",
"                                                                                ",
"                ############    ############    ++++++++++++    OOOOOOOOOOOO    ",
" 1X            @############2  3############4  %++++++++++++5  6OOOOOOOOOOOO7  @",
"X18            @############@  9############0  %++++++++++++%  qOOOOOOOOOOOOw  @",
"XX             @############@  0############2  %++++++++++++%  wOOOOOOOOOOOOe  @",
"X8             @############@  r############2  @++++++++++++%  tOOOOOOOOOOOOe  @",
"8              @############@  2############2  @++++++++++++%  eOOOOOOOOOOOOe  @",
"               @############@  @############2  @++++++++++++%  $OOOOOOOOOOOOe  @",
"               @############@  @############2  @++++++++++++%  $OOOOOOOOOOOOe  @",
"               @############@  @############2  @++++++++++++%  $OOOOOOOOOOOOe  @",
"               @############@  @############0  @+++++++++++<<  $OOOOOOOOOOOOw  @",
"               @############@  @############0  @+++++++<<<,,,  $OOOOOOOOOOOOw  @",
"               @############@  @############0  @++++++%,,,     >>OOOOOOOOOOOw  @",
"               @############@  @############0  @++++++%,       ::>>OOOOOOOOOw  @",
"               ;------------;  ;------------;  ;<<<<<..     .    ::>>>>>>>>>;  ;",
"                ;;;;;;;;;;;;    ;;;;;;;;;;;;    ;,,,,,.XX X.       ::::::::;    ",
"                                                   X..oXoXXo                    ",
"                                                    .XXooXXo                    ",
"                                                    oXX  Xo                     ",
"                                                     oX                         ",
"                                                                                ",
"                                                                                ",
"                                                                                ",
"                                                                                ",
"                                                                                ",
"                                                                                ",
"                                                                                ",
"                                                                      X..       ",
"                                                                       .XX      ",
"                                                                       oXX      ",
"                                                                        oo      ",
"                                                                                ",
"                                                                                ",
"                ############                                      ##########    ",
"               @############@                                    ###########@   ",
"               @############@                                  @############@   ",
"     X1    11  @############@                                  @############@   ",
"      11  X1   @############@                                  @############@   ",
"      XX XX8   @############@                                  @############@   ",
"      88 XX8   @############@                                  @############@   ",
"         88    @############@                                  @############@   ",
"               @############@                                  @############@   ",
"               @############@                                  @############@   ",
"               -----########@                                  @############-   ",
"                 ;;;-#######@                                  @#########---;   ",
"                    ;-######@                                  @########-;;;    ",
"                     ;------                                   ;--------;  X11  ",
"                      ;;;;;;                                    ;;;;;;;;  XX1   ",
"                                                                          XX8   ",
"                                                                     X1   X8    ",
"                                                                     81X  8X1   "
};
