/* XPM */
static char *result[] = {
/* columns rows colors chars-per-pixel */
"80 80 186 2 ",
"   c #8F8762",
".  c #948C66",
"X  c #978F69",
"o  c #938B76",
"O  c #9A9777",
"+  c #9C9874",
"@  c #9F9D7E",
"#  c #A09A6F",
"$  c #A19D75",
"%  c #A3A077",
"&  c #7F6D8F",
"*  c #847680",
"=  c #847394",
"-  c #8C7D97",
";  c #877798",
":  c #8B7B9C",
">  c #8D7EA1",
",  c #988E82",
"<  c #9A918A",
"1  c #8F809D",
"2  c #94899C",
"3  c #A19A8A",
"4  c #A0969A",
"5  c #A49C9E",
"6  c #A6A080",
"7  c #A4A38A",
"8  c #A9A788",
"9  c #A8A490",
"0  c #A7A098",
"q  c #B4AF96",
"w  c #B0AA9A",
"e  c #ACB096",
"r  c #B5B394",
"t  c #B7B298",
"y  c #BAB79D",
"u  c #B7BC9C",
"i  c #BBBE9D",
"p  c #9283A4",
"a  c #9688A7",
"s  c #9384AB",
"d  c #9789A9",
"f  c #9A8DAC",
"g  c #9E91AE",
"h  c #9A8CB2",
"j  c #9E91B3",
"k  c #9F94B8",
"l  c #A39BA1",
"z  c #A89FA5",
"x  c #A89FAD",
"c  c #A295B4",
"v  c #A599B5",
"b  c #A99EB4",
"n  c #A396B9",
"m  c #A69ABB",
"M  c #A99DBC",
"N  c #ACA6A7",
"B  c #B1AAAA",
"V  c #B2B3A2",
"C  c #B8B4A2",
"Z  c #BCBBA3",
"A  c #BBB6AE",
"S  c #B7B8A9",
"D  c #BCBBA8",
"F  c #ADA4B6",
"G  c #ACA2BE",
"H  c #B4ADB4",
"J  c #B0A6BB",
"K  c #B4ACBE",
"L  c #BAB6B0",
"P  c #BEBFB3",
"I  c #B7B0BC",
"U  c #B9B2BC",
"Y  c #C0BEAC",
"T  c #BCC29D",
"R  c #B9C0A0",
"E  c #BFC3AB",
"W  c #C0C7A1",
"Q  c #C3CAA6",
"!  c #C3C3AC",
"~  c #C5CBAA",
"^  c #C9CDAD",
"/  c #CAD1AD",
"(  c #D0D8AF",
")  c #C8C4B4",
"_  c #CBCEBD",
"`  c #D1CDBD",
"'  c #CDD2B4",
"]  c #CED3BB",
"[  c #D1D0B5",
"{  c #D1D9B4",
"}  c #D0D3B9",
"|  c #D5DABD",
" . c #D9DFBF",
".. c #D9E1BA",
"X. c #AB9FC0",
"o. c #ADA3C2",
"O. c #B1A6C4",
"+. c #B4AAC5",
"@. c #B3A6C8",
"#. c #B5ACC9",
"$. c #B9AECB",
"%. c #BCB4C3",
"&. c #BDB9C2",
"*. c #BCB3CD",
"=. c #BEB5D1",
"-. c #C0B9C6",
";. c #C2BBCC",
":. c #C0B7D1",
">. c #C5BCD5",
",. c #C8BFD7",
"<. c #C6BED9",
"1. c #C8BFD8",
"2. c #C9C7C5",
"3. c #C7C3CD",
"4. c #C9C3CF",
"5. c #CCC8CF",
"6. c #D4D5C3",
"7. c #D5DAC2",
"8. c #D6D4CC",
"9. c #D7DBC9",
"0. c #DADCCC",
"q. c #C7C2D5",
"w. c #CAC3D3",
"e. c #CECAD2",
"r. c #CBC3DC",
"t. c #D0CDD2",
"y. c #D2CCDD",
"u. c #D5D2D4",
"i. c #D8D3D7",
"p. c #DCDCD5",
"a. c #D7D3DC",
"s. c #D9D5DD",
"d. c #DDDBDA",
"f. c #DCE1C6",
"g. c #DDE1CC",
"h. c #DFE0D4",
"j. c #E2E9C7",
"k. c #E1E5CC",
"l. c #E4E9CD",
"z. c #E2E3D4",
"x. c #E6EAD3",
"c. c #E9EED4",
"v. c #E3E3DB",
"b. c #E7E8DB",
"n. c #EAEDDB",
"m. c #ECF1D6",
"M. c #EDF2DA",
"N. c #F1F6DE",
"B. c #CFC7E0",
"V. c #D0C7E0",
"C. c #D5CDE6",
"Z. c #D6CEE8",
"A. c #D7D0E3",
"S. c #D9D3E3",
"D. c #DDD8E5",
"F. c #D7D0E8",
"G. c #D8D1E9",
"H. c #E1DFE0",
"J. c #E2DDEB",
"K. c #E3E2E4",
"L. c #EBECE3",
"P. c #E5E1E9",
"I. c #E8E5E8",
"U. c #EDEDEC",
"Y. c #EEF1E2",
"T. c #F2F5E4",
"R. c #F4F8E5",
"E. c #F3F4EC",
"W. c #F5F6EE",
"Q. c #F6F9EA",
"!. c #F8FBED",
"~. c #F8FAEE",
"^. c #EDEAF3",
"/. c #F1EFF7",
"(. c #F0ECF8",
"). c #F5F5F2",
"_. c #F6F8F1",
"`. c #F9FAF2",
"'. c #FAFBF6",
"]. c #FBFCF7",
"[. c #FCFDF6",
"{. c #F3F1F8",
"}. c #FAFAF9",
"|. c #FDFDFA",
" X c white",
".X c None",
/* pixels */
".X.X.X.X.X.X.X.X.X.X.X.X.X.X.X.X.X.X.X.X.X.X.X.X.X.X.X.X.X.X.X.X.X.X.X.X.X.X.X.X.X.X.X.X.X.X.X.X.X.X.X.X.X.X.X.X.X.X.X.X.X.X.X.X.X.X.X.X.X.X.X.X.X.X.X.X.X.X.X.X",
".X.X.X.X.X.X.X.X.X.X.X.X.X.X.X.X.X.X.X.X.X.X.X.X.X.X.X.X.X.X.X.X.X.X.X.X.X.X.X.X.X.X.X.X.X.X.X.X.X.X.X.X.X.X.X.X.X.X.X.X.X.X.X.X.X.X.X.X.X.X.X.X.X.X.X.X.X.X.X.X",
".X.X.X.X.X.X.X.X.X.X.X.X.X.X.X.X.X.X.X.X.X.X.X.X.X.X.X.X.X.X.X.X.X.X.X.X.X.X.X.X.X.X.X.X.X.X.X.X.X.X.X.X.X.X.X.X.X.X.X.X.X.X.X.X.X.X.X.X.X.X.X.X.X.X.X.X.X.X.X.X",
".X.X.X.X.X.X.X.X.X.X.X.X.X.X.X.X.X.X.X.X.X.X.X.X.X.X.X.X.XW { j. Xx.e .X.X.X.X.X.X.X.X.X.X.X.X.X.X.X.X.X.X.X.X.X.X.X.X.X.X.X.X.X.X.X.X.X.X.X.X.X.X.X.X.X.X.X.X.X",
".X.X.X.X.X.X.X.X.X.X.X.X.X.X.X.X.X.X.X.X.X.X.X.X.X.X.X{ ~._.`.[. X}.y.o..X.X.X.X.X.X.X.X.X.X.X.X.X.X.X.X.X.X.X.X.X.X.X.X.X.X.X.X.X.X.X.X.X.X.X.X.X.X.X.X.X.X.X.X",
".X.X.X.X.X.X.X.X.X.X.X.X.X.X.X.X.X.X.X.X.X.X.X.X.X~ c.|. X X X X X XK.V.M .X.X.X.X.X.X.X.X.X.X.X.X.X.X.X.X.X.X.X.X.X.X.X.X.X.X.X.X.X.X.X.X.X.X.X.X.X.X.X.X.X.X.X",
".X.X.X.X.X.X.X.X.X.X.X.X.X.X.X.X.X.X.X.X.X.X.X.X~ L. X X X X X X X`.v.C.$.P..X.X.X.X.X.X.X.X.X.X.X.X.X.X.X.X.X.X.X.X.X.X.X.X.X.X.X.X.X.X.X.X.X.X.X.X.X.X.X.X.X.X",
".X.X.X.X.X.X.X.X.X.X.X.X.X.X.X.X.X.X.X.X.X.X.X.Xl. X X X X X X X[.v.C.C.r.{. X X X X X X`.n.L.|.~ .X.X.X.X.X.X.X.X.X.X.X.X.X.X.X.X.X.X.X.X.X.X.X.X.X.X.X.X.X.X.X",
".X.X.X.X.X.X.X.X.X.X.X.X.X.X.X.X.X.X.X.X.X.X.XQ _. X X X X X X].b.A.Z.C.r.q.|. X X X X X X X X XE.).l.i .X.X.X.X.X.X.X.X.X.X.X.X.X.X.X.X.X.X.X.X.X.X.X.X.X.X.X.X",
".X.X.X.X.X.X.X.X.X.X.X.X.X.X.X.X.X.X.X.X.X.X.X{ }. X X|.`.`.T.z.G.Z.C.C.r.%.p.'. X X X X X X X X X X'.W.T.^ .X.X.X.X.X.X.X.X.X.X.X.X.X.X.X.X.X.X.X.X.X.X.X.X.X.X",
".X.X.X.X.X.X.X.X.X.X.X.X.X.X.X.X.X.X.X.X.X.X.X6.T.Q.Q.Y.z.z.d.C.C.C.C.Z.*.*.*.d.E.]. X X X X X X X X'.n.Y.g.T % .X.X.X.X.X.X.X.X.X.X.X.X.X.X.X.X.X.X.X.X.X.X.X.X",
".X.X.X.X.X.X.X.X.X.X.X.X.X.X.X.X.X.X.X.X.X.X.Xq.d.d.p.s.Z.C.C.C.C.C.C.C.n +.#.>.A.K.T. X X X X X X X X].M.g.9.6..X.X.X.X.X.X.X.X.X.X.X.X.X.X.X.X.X.X.X.X.X.X.X.X",
".X.X.X.X.X.X.X.X.X.X.X.X.X.X.X.X.X.X.X.X.X.X.X*.C.Z.C.H < >.C.C.C.C.F.<.n o.:.*.r.C.S.K.~. X X X X X X X X X X X_..X.X.X.X.X.X.X.X.X.X.X.X.X.X.X.X.X.X.X.X.X.X.X",
".X.X.X.X.X.X.X.X.X.X.X.X.X.X.X.X.X.X.X.X.X.X.Xo.B.Z.>., l B.C.C.C.C.V.G j G *.>.:.C.Z.C.v.~.n.W. X X X X X X X X X X.X.X.X.X.X.X.X.X.X.X.X.X.X.X.X.X.X.X.X.X.X.X",
".X.X.X.X.X.X.X.X.X.X.X.X.X.X.X.X.X.X.X.X.X.X.X.X#.C.C.C.C.C.Z.F.C.r.+.h n m @.<.:.<.V.Z.G.6.7. X X X X X X X X X X XR..X.X.X.X.X.X.X.X.X.X.X.X.X.X.X.X.X.X.X.X.X",
".X.X.X.X.X.X.X.X.X.X.X.X.X.X.X.X.X.X.X.X.X.X.X.XU =.C.C.C.C.<.O.O.*.h s j k @.<.<.:.>.<.r.4.]  X X X X X X X X X X X).8 .X.X.X.X.X.X.X.X.X.X.X.X.X.X.X.X.X.X.X.X",
".X.X.X.X.X.X.X.X.X.X.X.X.X.X.X.X.X.X.X.X.X.X.X XY.I >.C.r.O.*.h M c s s j p +.<.*.<.<.:.+.V ~ k.T. X X X X X X X X XL.y _. ..X.X.X.X.X.X.X.X.X.X.X.X.X.X.X.X.X.X",
".X.X.X.X.X.X.X.X.X.X.X.X.X.X.X.X.X.X.X.X.X.Xn. X Xn.J g f X.<.#.v : s s h p $.<.*.+.*.:.o.K.W.W.[. X X X X X X X X XE.7. X'..X.X.X.X.X.X.X.X.X.X.X.X.X.X.X.X.X.X",
".X.X.X.X.X.X.X.X.X.X.X.X.X.X.X.X.X.X.X.X.X.XT. X X X}.T.H G +.G a a p a a c +.:.:.+.n f +.). X X X X X X X X X X X X[.R. X X X.X.X.X.X.X.X.X.X.X.X.X.X.X.X.X.X.X",
".X.X.X.X.X.X.X.X.X.X.X.X.X.X.X.X.X.X.X.X.X.XM. X X X Xn.w.v g +.<.<.#.>.<.<.<.<.<.<.<.*.<.v.`. X X X X X X X X`. X X X X X X XR..X.X.X.X.X.X.X.X.X.X.X.X.X.X.X.X",
".X.X.X.X.X.X.X.X.X.X.X.X.X.X.X.X.X.X.X.X.X.X/ M.N.N.M.e.<.,.,.<.<.<.:.<.<.<.<.<.<.<.<.:.r.C.v.N.R. X X X X|.N.R. X X X X X X X Xz..X.X.X.X.X.X.X.X.X.X.X.X.X.X.X",
".X.X.X.X.X.X.X.X.X.X.X.X.X.X.X.X.X.X.X.X.X.Xl I 5.e.e.<.<.<.<.<.:.:.<.<.<.<.<.<.<.<.<.<.:.V.G.s.d.m.m.m.m.b.z.~. X X X X X X X XW....X.X.X.X.X.X.X.X.X.X.X.X.X.X",
".X.X.X.X.X.X.X.X.X.X.X.X.X.X.X.X.X.X.X.X.X.X.X: O.<.<.<.<.<.<.:.+.:.<.<.<.<.<.<.<.<.<.<.<.:.V.C.C.A.A.A.S.A.d.Q. X|. X X X X X X X0..X.X.X.X.X.X.X.X.X.X.X.X.X.X",
".X.X.X.X.X.X.X.X.X.X.X.X.X.X.X.X.X.X.X.X.X.X.X.Xp O.<.<.<.<.*.G a G :.:.>.<.<.:.:.:.:.:.<.>.*.<.C.F.F.C.r.r.C.v.T.n.]. X X X X X Xc..X.X.X.X.X.X.X.X.X.X.X.X.X.X",
".X.X.X.X.X.X.X.X.X.X.X.X.X.X.X.X.X.X.X.X.X.X.X.X.X> M $.*.@.o.M M f n +.*.*.*.#.+.+.+.+.*.*.#.+.$.$.@.O.$.;.A P | Y. X X X X X X XT.`..X.X.X.X.X.X.X.X.X.X.X.X.X",
".X.X.X.X.X.X.X.X.X.X.X.X.X.X.X.X.X.X.X.X.X.X.X.X|.;.o.*.:.*.*.*.+.G d a f G +.+.+.o.f j n +.+.+.o.G h j 5 Z | z.E. X X X X X X X X[.|. X.X.X.X.X.X.X.X.X.X.X.X.X",
".X.X.X.X.X.X.X.X.X.X.X.X.X.X.X.X.X.X.X.X.X.Xn.'. Xy.=.<.<.<.<.*.+.o.m G a .X: : : : f h h c G G m j n l ^ T. X X X X X X X X X X X X X X X.X.X.X.X.X.X.X.X.X.X.X",
".X.X.X.X.X.X.X.X.X.X.X.XX 6.$ .X.X.X.X.X.Xk.|. X Xi.x :.<.<.<.<.*.n o.+.n .X.X.X.X.X; h n G +.+.+.+.z )  X X X X X X X X X X X X X X X`.W.*..X.X.X.X.X.X.X.X.X.X",
".X.X.X.X.X.X.X.X.X.X.X.X. 8.] .X.X.X.X.XT E. X XT.8.! L K $.#.*.:.O.+.+.o..X.X.X.X.X.X.X.Xs j o.F B ) |. X X X X X X X X X X X X|.R.U.z.p.O..X.X.X.X.X.X.X.X.X.X",
".X.X.X.X.X.X.X.X.X.X.X.X  -.(..X.X.X.X.Xx. X~.H.e.2.E.x.) 5 +.*.>.*.O.n g .X.X.X.X.X.X.X.X.X.X< D k. X X X X X X X X X X X X XR.n.d.A.Z.<.p .X.X.X.X.X.X.X.X.X.X",
".X.X.X.X.X.X.X.X.X.X.X.X8 F V./..X.X$ f.'.n.y.<.<.;._ '.'.b.! 9 *.*.F ; .X.X.X.X.X.X.X.X.X+ ~ z.W. X X X X X X X X X X X|.`.m.d.S.C.V.*..X.X.X.X.X.X.X.X.X.X.X.X",
".X.X.X.X.X.X.X.X.X.X.X.Xz.v >.y.Z 7 d.L.u.,.<.<.<.<.%.r T.'.'.).W.' 7 3 .X.X.X.X.X.X.X% T l.'. X X X X X X X X X X|.[.R.x.z.A.V.<.$.n .X.X.X.X.X.X.X.X.X.X.X.X.X",
".X.X.X.X.X.X.X.X.X.X' n.I.M <.<.>.v *.,.<.<.<.<.<.<.<.4 D n. X X X X X`.[ q w w t i } R. X X X X X X X X X X].Q.!.n.z.d.C.C.V.*.p .X.X.X.X.X.X.X.X.X.X.X.X.X.X.X",
".X.X.X.X.X.X.X..L.x. X{.:.*.<.<.,.c +.<.<.<.<.<.<.<.:.V } }. X X X X X X X X X X X X X X X X X X X X XT.T.R.b.p.p.S.Z.C.C.C.C.@.f .X.X.X.X.X.X.X.X.X.X.X.X.X.X.X",
".X.X.X.X.X.X| W.|. Xn.;.*.<.<.<.:.v $.<.<.<.<.<.<.*.S j. X X X X X X X X X X~.`. X X X X X[.M.M.M.M.n.d.s.d.S.Z.Z.Z.C.C.C.>.m n O..X.X.X.X.X.X.X.X.X.X.X.X.X.X.X",
".X.X.X.X.X] }.E.E | ;.n +.+.>.<.@.O.<.<.:.:.=.#.+.l h.|. X X X X X X X X X`.v.z.c.c.c.c.c.x.S.S.S.S.S.Z.Z.Z.F.F.C.C.V.1.o.M >.#.O..X.X.X.X.X.X.X.X.X.X.X.X.X.X.X",
".X.X.X.X/ E.I.A b <.*.m +.O.+.*.X.*.*.O.M m s s j <.J.L.`. X X X X X X X[.v.r.<.r.r.r.r.r.r.<.r.<.>.:.>.>.=.*.*.O.O.o.M =.C.C.:.M .X.X.X.X.X.X.X.X.X.X.X.X.X.X.X",
".X.X.Xi E.` B O.*.<.M +.+.*.*.#.+.d m > .X.X.Xo.r.<.*.S. XT. X X X X X].b.G.=.&.u.;.@.+.@.+.+.o.+.o.M M n p j M m +.r.C.Z.C.C.r.O..X.X.X.X.X.X.X.X.X.X.X.X.X.X.X",
".X.X.X^ h.4 G M >.<.n +.*.<.<.>.n .X.X.X.X.X=.r.*.#.C.<.q.L. X X X XR.b.S.C.G i.|.b.w.<.<.<.<.*.*.<.<.,.O.@.V.F.F.F.C.C.C.C.C.C.*..X.X.X.X.X.X.X.X.X.X.X.X.X.X.X",
".X.X.X| N v v c :.<.o.n *.>.*.n .X.X.X.X.X=.r.O.*.r.*.m >.J.L.W.`.v.w.y.<.o.H W. X|.b.q.<.<.<.<.+.*.<.:.+.B.C.A.D.x.x.x.x.x.d.Z.r.o..X.X.X.X.X.X.X.X.X.X.X.X.X.X",
".X.Xj b v v +.f G O.j ; j o.f .X.X.X.X.X=.r.M =.r.o.*.V.r.o.r.M.p.+.o.O.b h.}. X X X].0.<.<.<.<.*.M +.+.<.S.v.M.}.|.|.|.|.Q.d.Z.C.n .X.X.X.X.X.X.X.X.X.X.X.X.X.X",
".Xa O.n v M f g ; = = .X.X.X.X.X.X.X.XG *.o.$.*.M =.r.$.o.@.<.$.J K %.R. X X X X X XQ.p.1.<.<.<.<.O.j o.a.M.Q. X X X X X`.v.C.C.F.@..X.X.X.X.X.X.X.X.X.X.X.X.X.X",
"p $.o.j v v g : .X.X.X.X.X.X.X.X.X.X.Xc j $.$.M =.=.X.O.<.O.F 4.u.]. X X X X X X X~.v.C.r.<.<.<.<.*.- 0 Y. X X X X X X`.v.C.C.V.C.@..X.X.X.X.X.X.X.X.X.X.X.X.X.X",
"p n n v j j p .X.X.X.X.X.X.X.X.X.X.X.Xf *.O.M 1.o.n $.O.c 2.I. X X X X X X X X|.M.v.C.C.V.<.<.<.:.v * r  X X X X X X XQ.d.Z.V.V.C.n .X.X.X.X.X.X.X.X.X.X.X.X.X.X",
".Xd o.a a .X.X.X.X.X.X.X.X.X.X.X.X.X.X.Xg p +.f a M p J./.|. X X X X X X|.|.E.x.s.r.C.C.C.1.<.>.M .X.XC  X X X X X X].b.C.Z.<.r.<.j .X.X.X.X.X.X.X.X.X.X.X.X.X.X",
".X.Xf .X.X.X.X.X.X.X.X.X.X.X.X.X.X.X.X.X.X.X.X.X.X.X.X X X X X X X].~.{.n.z.G.C.<.<.V.r.<.<.=.M ; .X.X.XQ. X X X X X].z.Z.F.=.>.M .X.X.X.X.X.X.X.X.X.X.X.X.X.X.X",
".X.X.X.X.X.X.X.X.X.X.X.X.X.X.X.X.X.X.X.X.X.X.X.X.X.Xu.I.].Q.E.^.^.K.p.C.C.V.r.=.*.<.<.<.:.+.c .X.X.X.X.XQ. X X X X XR.d.C.F.+.f .X.X.X.X.X.X.X.X.X.X.X.X.X.X.X.X",
".X.X.X.X.X.X.X.X.X.X.X.X.X.X.X.X.X.X.X.X.X.X.X.X.Xm =.w.a.d.s.C.C.C.C.r.r.:.X.o.:.<.*.o.f .X.X.X.X.X.X.XY. X X X XQ.i.C.C.F.O.& .X.X.X.X.X.X.X.X.X.X.X.X.X.X.X.X",
".X.X.X.X.X.X.X.X.X.X.X.X.X.X.X.X.X.X.X.X.X.X.X.X.X.X=.<.>.1.r.C.V.r.<.*.n p ; : p p .X.X.X.X.X.X.X.X.X.X^ U.}.'.c.p.1.C.C.Z.>.G h .X.X.X.X.X.X.X.X.X.X.X.X.X.X.X",
".X.X.X.X.X.X.X.X.X.X.X.X.X.X.X.X.X.X.X.X.X.X.X.X.X.XM >.<.<.<.<.<.:.O.j ; .X.X.X.X.X.X.X.X.X.X.X.X.X.X.X.Xn *.r.q.<.<.r.Z.C.V.r.<.@..X.X.X.X.X.X.X.X.X.X.X.X.X.X",
".X.X.X.X.X.X.X.X.X.X.X.X.X.X.X.X.X.X.X.X.X.X.X.X.X.Xp *.<.<.<.<.<.<.r.r.O..X.X.X.X.X.X.X.X.X.X.X.X.X.X.X.X.Xc @.<.<.<.r.C.C.C.C.C.V.>..X.X.X.X.X.X.X.X.X.X.X.X.X",
".X.X.X.X.X.X.X.X.X.X.X.X.X.X.X.X.X.X.X.X.X.X.X.X.X.Xn o.<.<.<.<.r.C.C.C.C.*..X.X.X.X.X.X.X.X.X.X.X.X.X.X.X.X.Xo.*.<.<.<.V.Z.C.C.C.C.C.>..X.X.X.X.X.X.X.X.X.X.X.X",
".X.X.X.X.X.X.X.X.X.X.X.X.X.X.X.X.X.X.X.X.X.X.X.X.X.X+.$.:.<.<.<.r.C.C.C.C.C.=..X.X.X.X.X.X.X.X.X.X.X.X.X.X.X.X#.*.:.<.<.V.C.C.C.C.C.Z.B.+..X.X.X.X.X.X.X.X.X.X.X",
".X.X.X.X.X.X.X.X.X.X.X.X.X.X.X.X.X.X.X.X.X.X.X.X.X.X+.<.<.<.<.<.r.C.C.C.C.C.C.#..X.X.X.X.X.X.X.X.X.X.X.X.X.X.Xo.:.*.:.<.,.C.C.C.C.C.C.C.:..X.X.X.X.X.X.X.X.X.X.X",
".X.X.X.X.X.X.X.X.X.X.X.X.X.X.X.X.X.X.X.X.X.X.X.X.X.Xo.:.<.<.<.<.<.r.C.C.C.C.C.:..X.X.X.X.X.X.X.X.X.X.X.X.X.X.X.X*.<.<.<.<.C.C.C.C.C.C.C.r.O..X.X.X.X.X.X.X.X.X.X",
".X.X.X.X.X.X.X.X.X.X.X.X.X.X.X.X.X.X.X.X.X.X.X.X.X.X.X#.<.<.<.<.<.r.C.C.C.C.C.>.h .X.X.X.X.X.X.X.X.X.X.X.X.X.X.X#.<.<.<.<.r.C.C.C.C.C.C.C.*..X.X.X.X.X.X.X.X.X.X",
".X.X.X.X.X.X.X.X.X.X.X.X.X.X.X.X.X.X.X.X.X.X.X.X.X.X.X+.:.<.<.<.<.<.V.C.C.C.r.*.p .X.X.X.X.X.X.X.X.X.X.X.X.X.X.X.X:.<.<.<.r.C.C.C.C.C.C.Z.<.n .X.X.X.X.X.X.X.X.X",
".X.X.X.X.X.X.X.X.X.X.X.X.X.X.X.X.X.X.X.X.X.X.X.X.X.X.X.X*.<.<.<.<.<.r.C.C.r.<.O.; .X.X.X.X.X.X.X.X.X.X.X.X.X.X.X.Xo.:.<.<.<.r.C.C.C.C.C.Z.V.M .X.X.X.X.X.X.X.X.X",
".X.X.X.X.X.X.X.X.X.X.X.X.X.X.X.X.X.X.X.X.X.X.X.X.X.X.X.Xm =.<.<.<.<.<.r.r.<.*.a .X.X.X.X.X.X.X.X.X.X.X.X.X.X.X.X.X.XG :.1.<.<.B.C.C.C.C.C.C.O..X.X.X.X.X.X.X.X.X",
".X.X.X.X.X.X.X.X.X.X.X.X.X.X.X.X.X.X.X.X.X.X.X.X.X.X.X.X.XM :.<.<.<.<.<.<.<.M .X.X.X.X.X.X.X.X.X.X.X.X.X.X.X.X.X.X.X.XM M *.1.1.V.C.C.C.C.F.*..X.X.X.X.X.X.X.X.X",
".X.X.X.X.X.X.X.X.X.X.X.X.X.X.X.X.X.X.X.X.X.X.X.X.X.X.X.X.X.Xo.>.<.<.<.<.<.*.f .X.X.X.X.X.X.X.X.X.X.X.X.X.X.X.X.X.X.X.X.X.Xd g o.:.V.Z.C.C.Z.<..X.X.X.X.X.X.X.X.X",
".X.X.X.X.X.X.X.X.X.X.X.X.X.X.X.X.X.X.X.X.X.X.X.X.X.X.X.X.X.Xh $.<.<.<.<.<.+.; .X.X.X.X.X.X.X.X.X.X.X.X.X.X.X.X.X.X.X.X.X.X.X.X.Xp O.C.Z.C.C.C.X..X.X.X.X.X.X.X.X",
".X.X.X.X.X.X.X.X.X.X.X.X.X.X.X.X.X.X.X.X.X.X.X.X.X.X.X.X.X.X.X+.>.<.<.<.<.G .X.X.X.X.X.X.X.X.X.X.X.X.X.X.X.X.X.X.X.X.X.X.X.X.X.X.X.X+.C.C.C.Z.O..X.X.X.X.X.X.X.X",
".X.X.X.X.X.X.X.X.X.X.X.X.X.X.X.X.X.X.X.X.X.X.X.X.X.X.X.X.X.X.Xm :.<.<.<.>.m .X.X.X.X.X.X.X.X.X.X.X.X.X.X.X.X.X.X.X.X.X.X.X.X.X.X.X.X: *.Z.C.C.r.h .X.X.X.X.X.X.X",
".X.X.X.X.X.X.X.X.X.X.X.X.X.X.X.X.X.X.X.X.X.X.X.X.X.X.X.X.X.X.Xp :.<.<.<.:.d .X.X.X.X.X.X.X.X.X.X.X.X.X.X.X.X.X.X.X.X.X.X.X.X.X.X.X.X.Xc C.Z.V.:.o..X.X.X.X.X.X.X",
".X.X.X.X.X.X.X.X.X.X.X.X.X.X.X.X.X.X.X.X.X.X.X.X.X.X.X.X.X.X.X1 *.<.<.<.:.2 .X.X.X.X.X.X.X.X.X.X.X.X.X.X.X.X.X.X.X.X.X.X.X.X.X.X.X.X.Xn V.Z.C.>.#.+..X.X.X.X.X.X",
".X.X.X.X.X.X.X.X.X.X.X.X.X.X.X.X.X.X.X.X.X.X.X.X.X.X.X.X.X/ T.p.b :.<.<.:.G _ .X.X.X.X.X.X.X.X.X.X.X.X.X.X.X.X.X.X.X.X.X.X.X.X.X.X.X.X+.V.C.C.B.+.:.o..X.X.X.X.X",
".X.X.X.X.X.X.X.X.X.X.X.X.X.X.X.X.X.X.X.X.X.X.X.X.X.X.X' L.|. X_.*.@.,.<.<.G %.g..X.X.X.X.X.X.X.X.X.X.X.X.X.X.X.X.X.X.X.X.X.X.X.X.X.X.X*.:.G.J.D.K +.=.h .X.X.X.X",
".X.X.X.X.X.X.X.X.X.X.X.X.X.X.X.X.X.X.X.X.X.X.X.X.X.Xf.Q. X X[.h.<.<.:.<.<.+.U |.N..X.X.X.X.X.X.X.X.X.X.X.X.X.X.X.X.X.X.X.X.X.X.X.X.X.XX.>.}. X Xv.M O.f .X.X.X.X",
".X.X.X.X.X.X.X.X.X.X.X.X.X.X.X.X.X.X.X.X.X.X.X.X( N. X X XY.s.w.<.<.o.>.<.o.b n.].x..X.X.X.X.X.X.X.X.X.X.X.X.X.X.X.X.X.X.X.X.X.X.X.X.X.Xd. X X X XP.g = .X.X.X.X",
".X.X.X.X.X.X.X.X.X.X.X.X.X.X.X.X.X.X.X.X.X.X/ n.W.|. X XJ.w.>.<.<.>.f +.$.c *.e.Y._.^ .X.X.X.X.X.X.X.X.X.X.X.X.X.X.X.X.X.X.X.X.X.X.X.X.XR. X X X X X6.7 .X.X.X.X",
".X.X.X.X.X.X.X.X.X.X.X.X.X.X.X.X.X.XR u Q c.'. X].'.^.r.<.<.<.<.<.<.+.a j *.<.<.e.T.| # .X.X.X.X.X.X.X.X.X.X.X.X.X.X.X.X.X.X.X.X.X.X.X7. X X X X X X[.j..X.X.X.X",
".X.X.X.X.X.X.X.X.X.X.X.X.X.X.XQ | m.]. X X!.!.U.0.t.<.<.<.<.<.:.*.*.*.:.<.,.,.<.<.u.p., .X.X.X.X.X.X.X.X.X.X.X.X.X.X.X.X.X.X.X.X.X.X.Xx. X X X X X X XL.Q .X.X.X",
".X.X.X.X.X.X.X.X.X.X.X.X.X.X.X3.J.J.J.J.J.u.8.w.<.<.<.:.*.+.m G .X.XG g c M O.#.#.o.c .X.X.X.X.X.X.X.X.X.X.X.X.X.X.X.X.X.X.X.X.X.X.XR.`. X X X X X X X Xn..X.X.X",
".X.X.X.X.X.X.X.X.X.X.X.X.X.X.Xp n o.o.o.o.n n n d d d a g .X.X.X.X.X.X.X.X.X.X.X.X.X.X.X.X.X.X.X.X.X.X.X.X.X.X.X.X.X.X.X.X.X.X.X.XW.}. X X X X X X X X X Xz..X.X",
".X.X.X.X.X.X.X.X.X.X.X.X.X.X.X.X.X.X.X.X.X.X.X.X.X.X.X.X.X.X.X.X.X.X.X.X.X.X.X.X.X.X.X.X.X.X.X.X.X.X.X.X.X.X.X.X.X.X.X.X.X.X.X.X X X X X X X X X X X X X XW.^ .X",
".X.X.X.X.X.X.X.X.X.X.X.X.X.X.X.X.X.X.X.X.X.X.X.X.X.X.X.X.X.X.X.X.X.X.X.X.X.X.X.X.X.X.X.X.X.X.X.X.X.X.X.X.X.X.X.X.X.X.X.X.X.X.Xo 8.). X X X X X X X X X X X XY .X",
".X.X.X.X.X.X.X.X.X.X.X.X.X.X.X.X.X.X.X.X.X.X.X.X.X.X.X.X.X.X.X.X.X.X.X.X.X.X.X.X.X.X.X.X.X.X.X.X.X.X.X.X.X.X.X.X.X.X.X.X.X.X.X.X.XZ 0. X X X X X X X X X`.[ @ .X",
".X.X.X.X.X.X.X.X.X.X.X.X.X.X.X.X.X.X.X.X.X.X.X.X.X.X.X.X.X.X.X.X.X.X.X.X.X.X.X.X.X.X.X.X.X.X.X.X.X.X.X.X.X.X.X.X.X.X.X.X.X.X.X.X.X.X.XZ k.|. X X X Xn.Z 8 .X.X.X",
".X.X.X.X.X.X.X.X.X.X.X.X.X.X.X.X.X.X.X.X.X.X.X.X.X.X.X.X.X.X.X.X.X.X.X.X.X.X.X.X.X.X.X.X.X.X.X.X.X.X.X.X.X.X.X.X.X.X.X.X.X.X.X.X.X.X.X.XO 6 r R u 8 O .X.X.X.X.X"
};
