/* XPM */
static char *result[] = {
/* columns rows colors chars-per-pixel */
"80 80 181 2 ",
"   c #8B8666",
".  c #8B8274",
"X  c #958F75",
"o  c #A4A275",
"O  c #A5A47D",
"+  c #867697",
"@  c #877798",
"#  c #8C7C9D",
"$  c #8E7EA2",
"%  c #907FA7",
"&  c #948B8C",
"*  c #9B9A8B",
"=  c #8C8195",
"-  c #9A939C",
";  c #A29C87",
":  c #A09697",
">  c #A49D95",
",  c #A39D9C",
"<  c #A6A483",
"1  c #AAA585",
"2  c #ABAB83",
"3  c #AAA58B",
"4  c #AFAA89",
"5  c #B0AF85",
"6  c #B3B58B",
"7  c #ACA695",
"8  c #AEAB9E",
"9  c #B0AF95",
"0  c #B4B394",
"q  c #B6BC94",
"w  c #BBB893",
"e  c #B2B29D",
"r  c #BCBD9D",
"t  c #8F80A0",
"y  c #9384A4",
"u  c #9788A7",
"i  c #9B8FA7",
"p  c #9485AB",
"a  c #9789A9",
"s  c #998CAC",
"d  c #9C93A5",
"f  c #9E91AF",
"g  c #9B8DB2",
"h  c #9E91B4",
"j  c #A39AAB",
"k  c #A195B4",
"l  c #A599B5",
"z  c #A295B9",
"x  c #A69BBC",
"c  c #A99DBC",
"v  c #ACA4A3",
"b  c #ADA9A7",
"n  c #A8A0AE",
"m  c #B1ACA9",
"M  c #BBB7A7",
"N  c #B5B4AC",
"B  c #ACA3B4",
"V  c #ABA1BE",
"C  c #B1A9B5",
"Z  c #B3ACBD",
"A  c #B8AFB9",
"S  c #BCBAB9",
"D  c #BFBCBC",
"F  c #C2BEA7",
"G  c #C1BCBE",
"H  c #B7C095",
"J  c #BDC39B",
"K  c #BEC4A2",
"L  c #C1C29A",
"P  c #C1C99E",
"I  c #C1C7A6",
"U  c #C4CBA3",
"Y  c #C8CEA5",
"T  c #C7C6AE",
"R  c #C6CBAC",
"E  c #C9CEAD",
"W  c #C8D1A7",
"Q  c #CCD4AC",
"!  c #C8CAB6",
"~  c #C6C7BA",
"^  c #C7C8BD",
"/  c #CDD2B3",
"(  c #CCD1B8",
")  c #D1D6B6",
"_  c #D2DAB3",
"`  c #D1D6BD",
"'  c #D5DBBB",
"]  c #DAE1BC",
"[  c #AB9FC0",
"{  c #ADA4C2",
"}  c #B1A7C4",
"|  c #B4AAC6",
" . c #B2A7C8",
".. c #B6ADC9",
"X. c #B8AFCA",
"o. c #BBB3C5",
"O. c #BDB9C2",
"+. c #BCB3CD",
"@. c #BEB5D1",
"#. c #C0BDC1",
"$. c #C3BCCC",
"%. c #C0B7D1",
"&. c #C5BCD5",
"*. c #C8BFD7",
"=. c #C7BED8",
"-. c #C8BFD9",
";. c #C5C3C3",
":. c #CFCEC6",
">. c #C8C4CB",
",. c #CCC9CC",
"<. c #D1CECF",
"1. c #D3D4C2",
"2. c #D6DAC4",
"3. c #D9DBC5",
"4. c #D4D3CE",
"5. c #DADCCC",
"6. c #C7C0D5",
"7. c #CBC4D4",
"8. c #CEC9D2",
"9. c #CBC3DC",
"0. c #CDC8DA",
"q. c #D2CED2",
"w. c #D2CBDE",
"e. c #D6D3D4",
"r. c #DCDCD4",
"t. c #D5D1DB",
"y. c #DAD7DD",
"u. c #DDDBDB",
"i. c #E0DFDE",
"p. c #DEE3C4",
"a. c #DEE2CC",
"s. c #E0E7C5",
"d. c #E4EBC7",
"f. c #E1E6CD",
"g. c #E4EACC",
"h. c #EAF1CE",
"j. c #E1E3D3",
"k. c #E6EAD3",
"l. c #E9EDD5",
"z. c #E3E3DC",
"x. c #E6E8DA",
"c. c #EAEDDD",
"v. c #ECF2D5",
"b. c #EEF2DB",
"n. c #F1F6DE",
"m. c #CFC6E0",
"M. c #D0C7E1",
"N. c #D5CDE6",
"B. c #D6CEE8",
"V. c #D7D1E3",
"C. c #D9D3E4",
"Z. c #DEDAE2",
"A. c #D9D1E9",
"S. c #DDD8E8",
"D. c #E2DDEB",
"F. c #E4E3E2",
"G. c #EBECE3",
"H. c #E5E0ED",
"J. c #E8E5EB",
"K. c #EDECEA",
"L. c #EEF1E3",
"P. c #F2F5E3",
"I. c #F4F8E5",
"U. c #F3F5EB",
"Y. c #F3F4ED",
"T. c #F6F9EB",
"R. c #F6F8EE",
"E. c #F8FBED",
"W. c #F8FBEE",
"Q. c #E6E1F1",
"!. c #E9E6F1",
"~. c #ECE9F3",
"^. c #F5F4F3",
"/. c #F7F8F1",
"(. c #FAFCF1",
"). c #FAFCF3",
"_. c #FBFCF5",
"`. c #F7F5FA",
"'. c #FDFDF9",
"]. c #FEFFFC",
"[. c None",
/* pixels */
"[.[.[.[.[.[.[.[.[.[.[.[.[.[.[.[.[.[.[.[.[.[.[.[.[.[.[.[.[.[.[.[.[.[.[.[.[.[.[.[.[.[.[.[.[.[.[.[.[.[.[.[.[.[.[.[.[.[.[.[.[.[.[.[.[.[.[.[.[.[.[.[.[.[.[.[.[.[.[.[.",
"[.[.[.[.[.[.[.[.[.[.[.[.[.[.[.[.[.[.[.[.[.[.[.[.[.[.[.[.[.[.[.[.[.[.[.[.[.[.[.[.[.[.[.[.[.[.[.[.[.[.[.[.[.[.[.[.[.[.[.[.[.[.[.[.[.[.[.[.[.[.[.[.[.[.[.[.[.[.[.[.",
"[.[.[.[.[.[.[.[.[.[.[.[.[.[.[.[.[.[.[.[.[.[.[.[.[.[.[.[.[.[.[.U _ I.).U - [.[.[.[.[.[.[.[.[.[.[.[.[.[.[.[.[.[.[.[.[.[.[.[.[.[.[.[.[.[.[.[.[.[.[.[.[.[.[.[.[.[.[.",
"[.[.[.[.[.[.[.[.[.[.[.[.[.[.[.[.[.[.[.[.[.[.[.[.[.[.[.[.[.g.Y.L.U.'.].z.| g [.[.[.[.[.[.[.[.[.[.[.[.[.[.[.[.[.[.[.[.[.[.[.[.[.[.[.[.[.[.[.[.[.[.[.[.[.[.[.[.[.[.",
"[.[.[.[.[.[.[.[.[.[.[.[.[.[.[.[.[.[.[.[.[.[.[.[.[.[.[.) P.'.].].].].].^.N.X.s [.[.[.[.[.[.[.[.[.[.[.[.[.[.[.[.[.[.[.[.[.[.[.[.[.[.[.[.[.[.[.[.[.[.[.[.[.[.[.[.[.",
"[.[.[.[.[.[.[.[.[.[.[.[.[.[.[.[.[.[.[.[.[.[.[.[.[.[.` '.].].].].].].].P.y.-.S s.v.v.v.v.g.` [.[.[.[.[.[.[.[.[.[.[.[.[.[.[.[.[.[.[.[.[.[.[.[.[.[.[.[.[.[.[.[.[.[.",
"[.[.[.[.[.[.[.[.[.[.[.[.[.[.[.[.[.[.[.[.[.[.[.[.[.Q Y.].].].].].].].T.u.B.m.S.].].].].].].].].T.c.[.[.[.[.[.[.[.[.[.[.[.[.[.[.[.[.[.[.[.[.[.[.[.[.[.[.[.[.[.[.[.",
"[.[.[.[.[.[.[.[.[.[.[.[.[.[.[.[.[.[.[.[.[.[.[.[.[.f.].].].].].].].T.u.B.B.N.q.R.].].].].].].].].].].L.k.] [.[.[.[.[.[.[.[.[.[.[.[.[.[.[.[.[.[.[.[.[.[.[.[.[.[.[.",
"[.[.[.[.[.[.[.[.[.[.[.[.[.[.[.[.[.[.[.[.[.[.[.[.[.x.].].].'.'._.v.z.N.B.N.N.+.5.P.'.].].].].].].].].].].R.d.U [.[.[.[.[.[.[.[.[.[.[.[.[.[.[.[.[.[.[.[.[.[.[.[.[.",
"[.[.[.[.[.[.[.[.[.[.[.[.[.[.[.[.[.[.[.[.[.[.[.[.[.x.(.(.(.l.k.k.V.N.B.N.N.9.} 6.M.i.Y.'.].].].].].].].].].v.) K q 5 [.[.[.[.[.[.[.[.[.[.[.[.[.[.[.[.[.[.[.[.[.[.",
"[.[.[.[.[.[.[.[.[.[.[.[.[.[.[.[.[.[.[.[.[.[.[.[.[.e.j.j.j.V.B.N.N.N.N.N.B.&.l +.%.9.N.F.Y.W.].].].].].].].].].]._.k.L [.[.[.[.[.[.[.[.[.[.[.[.[.[.[.[.[.[.[.[.[.",
"[.[.[.[.[.[.[.[.[.[.[.[.[.[.[.[.[.[.[.[.[.[.[.[.[.9.B.B.9.v A N.B.N.N.N.N.} c &.&.+.&.N.y.u.K./.L.].].].].].].].].].P.Q [.[.[.[.[.[.[.[.[.[.[.[.[.[.[.[.[.[.[.[.",
"[.[.[.[.[.[.[.[.[.[.[.[.[.[.[.[.[.[.[.[.[.[.[.[.[.%.B.N.v . Z B.N.N.N.N.9.s { %.&.&.&.9.M.B.V.a.U.].].].].].].].].].].l.q [.[.[.[.[.[.[.[.[.[.[.[.[.[.[.[.[.[.[.",
"[.[.[.[.[.[.[.[.[.[.[.[.[.[.[.[.[.[.[.[.[.[.[.[.[.#.9.N.0.0.N.B.B.N.M.&.c h { | &.&.&.%.+.=.N.j.].].].].].].].].].].].W.Q [.[.[.[.[.[.[.[.[.[.[.[.[.[.[.[.[.[.[.",
"[.[.[.[.[.[.[.[.[.[.[.[.[.[.[.[.[.[.[.[.[.[.[.[.I.q.| N.B.B.B.N.&.X.+.V p g z x %.@.&.&.&.+.o./ x.G.T.T.'.].].].].].].].b.' H [.[.[.[.[.[.[.[.[.[.[.[.[.[.[.[.[.",
"[.[.[.[.[.[.[.[.[.[.[.[.[.[.[.[.[.[.[.[.[.[.[.b.].W.;.X.N.N.&.+.c s { s p g z z +.{ } %.=.$.~ 1.3.f.n.P._.].].].].].].].n.(.f.Q [.[.[.[.[.[.[.[.[.[.[.[.[.[.[.[.",
"[.[.[.[.[.[.[.[.[.[.[.[.[.[.[.[.[.[.[.[.[.[.[.R.].].T.D k k z ..@.} s % p p h a | +.x z } M l.].].].].].].].].].].].].]._.].'.L.' [.[.[.[.[.[.[.[.[.[.[.[.[.[.[.",
"[.[.[.[.[.[.[.[.[.[.[.[.[.[.[.[.[.[.[.[.[.[.[.'.].].].^.5.N k +.X.s h p # # $ h +.&.%.X.{ Z z./.'.].].].].].].].].].].].].].].].L.[.[.[.[.[.[.[.[.[.[.[.[.[.[.[.",
"[.[.[.[.[.[.[.[.[.[.[.[.[.[.[.[.[.[.[.[.[.[.[.b.].].].(.c.7.V a s { %.%.%.%.%.&.&.&.&.&.&.@.N.V.j.K.`.(.(.(.(.(.(.(./.].].].].]._.Q [.[.[.[.[.[.[.[.[.[.[.[.[.[.",
"[.[.[.[.[.[.[.[.[.[.[.[.[.[.[.[.[.[.[.[.[.[.[.~ I.T.P.5.8.&.&.&.&.%.&.&.&.&.&.&.&.&.&.&.&.&.9.B.B.B.V.j.j.j.j.j.j.g.n.].].].].].].l.[.[.[.[.[.[.[.[.[.[.[.[.[.[.",
"[.[.[.[.[.[.[.[.[.[.[.[.[.[.[.[.[.[.[.[.[.[.[.a ;.4.<.&.&.&.&.&.+.+.&.&.&.&.&.&.&.&.&.&.&.&.%.M.N.N.N.B.B.B.B.B.V.G.].].].].].].]./.I [.[.[.[.[.[.[.[.[.[.[.[.[.",
"[.[.[.[.[.[.[.[.[.[.[.[.[.[.[.[.[.[.[.[.[.[.[.[.z +.&.&.&.&.&.X.x +.&.&.&.&.&.&.&.&.&.&.&.&.&.@.9.N.B.B.B.N.N.9.q.I.].].I.n.].].].].s.H [.[.[.[.[.[.[.[.[.[.[.[.",
"[.[.[.[.[.[.[.[.[.[.[.[.[.[.[.[.[.[.[.[.[.[.[.[.[.s } %.%.%.+.z x } X.+.&.&.+.......+.+.@.&.%.@.} +.9.9.9.+...m.N.r.d.h.T.'.].].].]./.E [.[.[.[.[.[.[.[.[.[.[.[.",
"[.[.[.[.[.[.[.[.[.[.[.[.[.[.[.[.[.[.[.[.[.[.[.( c.$.V +.} } { } { z x V | | | | | } V l V } | | | } x g h s x 9.;.,.a.I.].].].].].].].G.P [.[.[.[.[.[.[.[.[.[.[.",
"[.[.[.[.[.[.[.[.[.[.[.[.[.[.[.[.[.[.[.[.[.[.k.).].w.{ %.&.&.+.| } } k x c { { x k k h p s s c { { c h z | B > ^ 5.b.'.].].].].].].].].P.l.' [.[.[.[.[.[.[.[.[.[.",
"[.[.[.[.[.[.[.[.[.[.[.[.[.[.[.[.[.[.[.[.[.p._.]._.e.[ x } { V { { } | { c [.[.$ % g x x z h z { { { V } | m Y b.].].].].].].].].].].].'.'.T.[.[.[.[.[.[.[.[.[.[.",
"[.[.[.[.[.[.[.[.[.[.[.[.[.[.F r [.[.[.[._ U.].].T.4.} +.+.7 v } } | { h [.[.[.[.[.[.$ p h x x x { | ..| 7 p._.].].].].].].].].].].].].].]./.) [.[.[.[.[.[.[.[.[.",
"[.[.[.[.[.[.[.[.[.[.[.[.[.[.M 1.[.[.[.[.] '.].(.r.&.+.&.&.z.G.;.C } z p [.[.[.[.[.[.[.[.[.p h x x [ j 8 ) '.].].].].].].].].].].].].].).G.C.} [.[.[.[.[.[.[.[.[.",
"[.[.[.[.[.[.[.[.[.[.[.[.[.[.> Q.[.[.[.( Y.]._.j.&.&.&.&.&.S L.P.0 , # [.[.[.[.[.[.[.[.[.[.[.@ z B , 0 3._.].].].].].].].].].].].].].T.u.A.&.a [.[.[.[.[.[.[.[.[.",
"[.[.[.[.[.[.[.[.[.[.[.[.[.q m &.!.[.o f.].P.j.7.&.&.&.&.&.&.^ U.c.3.8 O [.[.[.[.[.[.[.[.[.[.[.: e U P.].].].].].].].].].].].].].n.G.Z.9. .[.[.[.[.[.[.[.[.[.[.[.",
"[.[.[.[.[.[.[.[.[.[.[.[.J s.$.} M.4.O s.l.q.7.&.&.&.&.&.&.&.$.M /.].Y.c.k.K 2 [.[.[.[.[.[.[.< E G./.].].].].].].].].].].].).v.l.y.V.B...[.[.[.[.[.[.[.[.[.[.[.[.",
"[.[.[.[.[.[.[.[.[.[.[.[.s.'.7.{ &.&.Z B 7.&.&.&.&.&.&.&.&.&.o.X ] L.].].].).b.] E 9 1 0 J ' b.'.].].].].].].].].]._._.P.k.j.V.V.N.N.X.# [.[.[.[.[.[.[.[.[.[.[.[.",
"[.[.[.[.[.[.[.[.[.[.[.g.(.].0.X.&.&.+.k &.&.&.&.&.&.&.&.=.+.; 1 b.].].].].].].].].].].].].].].].].].].].].W.T.R.K.j.j.u.N.N.N.B.N.+.y [.[.[.[.[.[.[.[.[.[.[.[.[.",
"[.[.[.[.[.[.[.[.[.` P.].R.t.+.&.&.&...l &.&.&.&.&.&.&.+.{ > / P.].].].].].].].].].].R.].].].].].I.P.P.P.K.u.r.r.N.N.N.N.N.B.M.=.{ y [.[.[.[.[.[.[.[.[.[.[.[.[.[.",
"[.[.[.[.[.[.[.[./ /./.( 4.c | +.&.&.c +.&.&.&.%.+.c k y g G P.T.].].].].].].].].].].F.b.b.b.b.F.y.y.y.y.V.B.B.B.B.N.N.N.N.=.} a [.[.[.[.[.[.[.[.[.[.[.[.[.[.[.[.",
"[.[.[.[.[.[.[.E U.^.M B %.z | | { c | X.c g g u [.[.[.z 9.9.+.K.].'.].].].].].].].P.0.7.0.0.0.9.m.M.N.N.N.N.N.N.N.9.@.} x a c z [.[.[.[.[.[.[.[.[.[.[.[.[.[.[.[.",
"[.[.[.[.[.[.K L.1.m | +.+.{ | +.+.&.g + + [.[.[.[.[.X.9.@.@.N.S.F.P.].].].].].].T.q.k u a a h h x ..&.&.&.9.9.8.,.O.B Z >.M.N.+.[.[.[.[.[.[.[.[.[.[.[.[.[.[.[.[.",
"[.[.[.[.[.[.! z., } x &.&.{ } &.&.+.p [.[.[.[.[.[.%.9...| m.+.x w.].W.].].]._.P.u.| f +.&.&.&.} &.&.&...9.V.r.c.P.P.P.P.n.u.N.9.[.[.[.[.[.[.[.[.[.[.[.[.[.[.[.[.",
"[.[.[.[.[.[.' b l l l &.&.{ c &.%.c [.[.[.[.[.[.@.@.z @.9.} ..=.Z.k.p.'.].P.x.y.&.C 7.9.&.&.%.x } +.| { u.x.T.'.].].].].].l.N.M.x [.[.[.[.[.[.[.[.[.[.[.[.[.[.[.",
"[.[.[.[.[.k B l l | a | } y s { z $ [.[.[.[.[.&.%.k @.%.{ +.M.=.c o.a.v.Z.0.&.{ j ' Z.N.9.&.+.{ h V V A h./.].].].].].].].x.N.N...[.[.[.[.[.[.[.[.[.[.[.[.[.[.[.",
"[.[.[.[.y V z k V s f # # [.[.[.[.[.[.[.[.[.[.X.V 9.X.z @.=.} c =.m.9.%.Z V c j ` u.N.N.9.%.%.&.} p = ( ].].].].].].].].].S.N.N.X.[.[.[.[.[.[.[.[.[.[.[.[.[.[.[.",
"[.[.[.y | } k z k f t [.[.[.[.[.[.[.[.[.[.[.h %.9.{ z 9.| z  .X.} l n C :.P.].].!.N.B.M.9.9.&.&.%.k = ! ].].].].].].].]./.C.N.N.| [.[.[.[.[.[.[.[.[.[.[.[.[.[.[.",
"[.[.[.a c h l k k y [.[.[.[.[.[.[.[.[.[.[.[.} } s h +.k h z C D $.>.x.(.].].].~.B.N.N.N.N.9.&.&.{ $ [.T ].].].].].].].].b.V.M.M.V [.[.[.[.[.[.[.[.[.[.[.[.[.[.[.",
"[.[.[.# a { s a [.[.[.[.[.[.[.[.[.[.[.[.[.[.[.[.[.[.[.y.J.D.F.(.].].].].].`.D.A.N.N.N.N.9.&.&.} t [.[.w (.].].].].].].].J.N.9.9.V [.[.[.[.[.[.[.[.[.[.[.[.[.[.[.",
"[.[.[.[.# h # [.[.[.[.[.[.[.[.[.[.[.[.[.[.[.[.[.[.[.].].].].].].].].'.'.Q.A.M.9.N.N.M.9.&.&.+.k [.[.[.5 L.].].].].].].W.u.B.9.+.g [.[.[.[.[.[.[.[.[.[.[.[.[.[.[.",
"[.[.[.[.[.[.[.[.[.[.[.[.[.[.[.[.[.[.[.[.[.[.[.[.[.(.].].].].].(./.^.x.u.N.9.+.+.M.9.&.%.+.| [.[.[.[.[.[.j.].].].].].].Y.y.B.M.{ @ [.[.[.[.[.[.[.[.[.[.[.[.[.[.[.",
"[.[.[.[.[.[.[.[.[.[.[.[.[.[.[.[.[.[.[.[.[.[.[.[.O.K.]._.I.P.~.z.r.N.N.9.9.X.+.&.+.} c | { [.[.[.[.[.[.[.U b.].].].].T.G.B.B.B.{ @ [.[.[.[.[.[.[.[.[.[.[.[.[.[.[.",
"[.[.[.[.[.[.[.[.[.[.[.[.[.[.[.[.[.[.[.[.[.[.[.[...w.C.t.e.y.N.B.N.M.9.%.+.{ c h a [.[.[.[.[.[.[.[.[.[.[.[.Q T.].n.F.q.8.M.B.B...# [.[.[.[.[.[.[.[.[.[.[.[.[.[.[.",
"[.[.[.[.[.[.[.[.[.[.[.[.[.[.[.[.[.[.[.[.[.[.[.[.z @.&.&.=.9.N.N.9.=.%.} x g [.[.[.[.[.[.[.[.[.[.[.[.[.[.[.[.I 8.7.7.&.&.9.N.N.&.| { [.[.[.[.[.[.[.[.[.[.[.[.[.[.",
"[.[.[.[.[.[.[.[.[.[.[.[.[.[.[.[.[.[.[.[.[.[.[.[.[.| &.&.&.&.=.=.&.%.} z [.[.[.[.[.[.[.[.[.[.[.[.[.[.[.[.[.[.[.z } &.&.&.&.M.N.M.&.9.} g [.[.[.[.[.[.[.[.[.[.[.[.",
"[.[.[.[.[.[.[.[.[.[.[.[.[.[.[.[.[.[.[.[.[.[.[.[.[.z +.&.&.&.&.&.&.+.@.@.z [.[.[.[.[.[.[.[.[.[.[.[.[.[.[.[.[.[.[.g } &.&.&.9.N.N.M.N.N.X.g [.[.[.[.[.[.[.[.[.[.[.",
"[.[.[.[.[.[.[.[.[.[.[.[.[.[.[.[.[.[.[.[.[.[.[.[.[.h { &.&.&.&.&.&.M.A.N.%.| [.[.[.[.[.[.[.[.[.[.[.[.[.[.[.[.[.[.z +.+.&.&.9.N.N.B.N.N.N.+.x [.[.[.[.[.[.[.[.[.[.",
"[.[.[.[.[.[.[.[.[.[.[.[.[.[.[.[.[.[.[.[.[.[.[.[.[.x ..%.&.&.&.&.M.B.N.N.N.@.[.[.[.[.[.[.[.[.[.[.[.[.[.[.[.[.[.[.k %.%.+.&.&.M.B.N.N.N.N.N...[.[.[.[.[.[.[.[.[.[.",
"[.[.[.[.[.[.[.[.[.[.[.[.[.[.[.[.[.[.[.[.[.[.[.[.[.x @.&.&.&.&.&.N.N.N.N.B.9.} [.[.[.[.[.[.[.[.[.[.[.[.[.[.[.[.[.[.+.&.&.&.&.9.N.N.N.N.N.N.+.[.[.[.[.[.[.[.[.[.[.",
"[.[.[.[.[.[.[.[.[.[.[.[.[.[.[.[.[.[.[.[.[.[.[.[.[.x @.&.&.&.&.&.9.N.N.N.N.N.} [.[.[.[.[.[.[.[.[.[.[.[.[.[.[.[.[.[.} &.&.&.&.&.M.B.N.N.N.N.&.x [.[.[.[.[.[.[.[.[.",
"[.[.[.[.[.[.[.[.[.[.[.[.[.[.[.[.[.[.[.[.[.[.[.[.[.h +.&.&.&.&.&.&.9.N.N.N.A.| [.[.[.[.[.[.[.[.[.[.[.[.[.[.[.[.[.[.x %.&.&.&.&.9.N.N.N.N.B.9.{ [.[.[.[.[.[.[.[.[.",
"[.[.[.[.[.[.[.[.[.[.[.[.[.[.[.[.[.[.[.[.[.[.[.[.[.[.X.&.&.&.&.&.&.&.M.N.N.N.c [.[.[.[.[.[.[.[.[.[.[.[.[.[.[.[.[.[.g | &.&.&.&.&.N.N.N.N.N.M.} [.[.[.[.[.[.[.[.[.",
"[.[.[.[.[.[.[.[.[.[.[.[.[.[.[.[.[.[.[.[.[.[.[.[.[.[.{ &.&.&.&.&.&.&.9.N.N.&.} [.[.[.[.[.[.[.[.[.[.[.[.[.[.[.[.[.[.[.z %.&.&.&.&.9.N.N.N.N.B.@.[.[.[.[.[.[.[.[.[.",
"[.[.[.[.[.[.[.[.[.[.[.[.[.[.[.[.[.[.[.[.[.[.[.[.[.[.[.+.&.&.&.&.&.&.=.9.&...[.[.[.[.[.[.[.[.[.[.[.[.[.[.[.[.[.[.[.[.[.V X.%.&.&.&.9.N.B.N.B.&.[.[.[.[.[.[.[.[.[.",
"[.[.[.[.[.[.[.[.[.[.[.[.[.[.[.[.[.[.[.[.[.[.[.[.[.[.[.[...%.&.&.&.&.&.&.&.} [.[.[.[.[.[.[.[.[.[.[.[.[.[.[.[.[.[.[.[.[.[.h x { +.%.*.N.B.N.B.9.[.[.[.[.[.[.[.[.[.",
"[.[.[.[.[.[.[.[.[.[.[.[.[.[.[.[.[.[.[.[.[.[.[.[.[.[.[.[.[.{ %.&.&.&.&.&.&.z [.[.[.[.[.[.[.[.[.[.[.[.[.[.[.[.[.[.[.[.[.[.[.[.[.g z  .9.N.N.N.N.l [.[.[.[.[.[.[.[.",
"[.[.[.[.[.[.[.[.[.[.[.[.[.[.[.[.[.[.[.[.[.[.[.[.[.[.[.[.[.[.c %.&.&.&.&.+.g [.[.[.[.[.[.[.[.[.[.[.[.[.[.[.[.[.[.[.[.[.[.[.[.[.[.[.y c 9.N.N.N.c [.[.[.[.[.[.[.[.",
"[.[.[.[.[.[.[.[.[.[.[.[.[.[.[.[.[.[.[.[.[.[.[.[.[.[.[.[.[.[.p | &.&.&.&.+.# [.[.[.[.[.[.[.[.[.[.[.[.[.[.[.[.[.[.[.[.[.[.[.[.[.[.[.[.# { M.N.N.&.y [.[.[.[.[.[.[.",
"[.[.[.[.[.[.[.[.[.[.[.[.[.[.[.[.[.[.[.[.[.[.[.[.[.[.[.[.[.[.[.h &.&.&.&.+.# [.[.[.[.[.[.[.[.[.[.[.[.[.[.[.[.[.[.[.[.[.[.[.[.[.[.[.[.[.k 9.B.M.=.{ [.[.[.[.[.[.[.",
"[.[.[.[.[.[.[.[.[.[.[.[.[.[.[.[.[.[.[.[.[.[.[.[.[.[.[.[.[.[.[.y +.&.&.&.&.i [.[.[.[.[.[.[.[.[.[.[.[.[.[.[.[.[.[.[.[.[.[.[.[.[.[.[.[.[.{ %.N.B.@.} [ [.[.[.[.[.[.",
"[.[.[.[.[.[.[.[.[.[.[.[.[.[.[.[.[.[.[.[.[.[.[.[.[.[.[.[.[.[.2 d { %.&.&.&.l K [.[.[.[.[.[.[.[.[.[.[.[.[.[.[.[.[.[.[.[.[.[.[.[.[.[.[.[.[ +.M.N.m.{ +.{ [.[.[.[.[.",
"[.[.[.[.[.[.[.[.[.[.[.[.[.[.[.[.[.[.[.[.[.[.[.[.[.[.[.[.U g.P.r.+.+.&.&.&.l a.f.[.[.[.[.[.[.[.[.[.[.[.[.[.[.[.[.[.[.[.[.[.[.[.[.[.[.[.k $.3.k.k.Z } +.g [.[.[.[.",
"[.[.[.[.[.[.[.[.[.[.[.[.[.[.[.[.[.[.[.[.[.[.[.[.[.[.[.' R.].L.8.&.X.+.&.&.{ 0.).p.[.[.[.[.[.[.[.[.[.[.[.[.[.[.[.[.[.[.[.[.[.[.[.[.[.[.s r._.].'.g.~ +.x [.[.[.[.",
"[.[.[.[.[.[.[.[.[.[.[.[.[.[.[.[.[.[.[.[.[.[.[.[.[.` x.].(.P.q.&.&.} c %.&.{ c D./.g.[.[.[.[.[.[.[.[.[.[.[.[.[.[.[.[.[.[.[.[.[.[.[.[.[.& F.].].]._.d.N s [.[.[.[.",
"[.[.[.[.[.[.[.[.[.[.[.[.[.[.[.[.[.[.[.[.[.[.[.W g./.].n.r.8.&.&.&.%.s } +.{ +.&.H.(.v.[.[.[.[.[.[.[.[.[.[.[.[.[.[.[.[.[.[.[.[.[.[.[.[.o c.].].].]._.) * [.[.[.[.",
"[.[.[.[.[.[.[.[.[.[.[.[.[.[.[.[.[.[.[.[.[.q a.U._.].c.8.7.&.&.&.&.&.k s u +.&.&.*.J._.[.[.[.[.[.[.[.[.[.[.[.[.[.[.[.[.[.[.[.[.[.[.[.[.6 T.].].].].].R.] [.[.[.[.",
"[.[.[.[.[.[.[.[.[.[.[.[.[.[.[.[.[.3 3 R g./.].'.T.f.8.&.&.&.&.&.&.&.%.+.| &.&.&.&.9.~.[.[.[.[.[.[.[.[.[.[.[.[.[.[.[.[.[.[.[.[.[.[.[.[.' ].].].].].].].P.[.[.[.[.",
"[.[.[.[.[.[.[.[.[.[.[.[.[.[.[.7 2.W.]._.T.E.Y.j.4.&.&.&.&.%.+.| l l l } +.&.=.=.%.@.| [.[.[.[.[.[.[.[.[.[.[.[.[.[.[.[.[.[.[.[.[.[.[.2 P.].].].].].].].].T.[.[.[.",
"[.[.[.[.[.[.[.[.[.[.[.[.[.[.[.8.D.D.D.u.4.4.8.&.+.+.+...{ k h [.[.[.[.$ u k k k s a p [.[.[.[.[.[.[.[.[.[.[.[.[.[.[.[.[.[.[.[.[.[.[./ ].].].].].].].].].R.[.[.[.",
"[.[.[.[.[.[.[.[.[.[.[.[.[.[.[.u a u u a a a a a y y y y [.[.[.[.[.[.[.[.[.[.[.[.[.[.[.[.[.[.[.[.[.[.[.[.[.[.[.[.[.[.[.[.[.[.[.[.[.U P.].].].].].].].].].].P.[.[.",
"[.[.[.[.[.[.[.[.[.[.[.[.[.[.[.[.[.[.[.[.[.[.[.[.[.[.[.[.[.[.[.[.[.[.[.[.[.[.[.[.[.[.[.[.[.[.[.[.[.[.[.[.[.[.[.[.[.[.[.[.[.[.[.[.U b.].].].].].].].].].].]._.L [.",
"[.[.[.[.[.[.[.[.[.[.[.[.[.[.[.[.[.[.[.[.[.[.[.[.[.[.[.[.[.[.[.[.[.[.[.[.[.[.[.[.[.[.[.[.[.[.[.[.[.[.[.[.[.[.[.[.[.[.[.[.[.[.[.[.J f.].].].].].].].].].].].E.r [.",
"[.[.[.[.[.[.[.[.[.[.[.[.[.[.[.[.[.[.[.[.[.[.[.[.[.[.[.[.[.[.[.[.[.[.[.[.[.[.[.[.[.[.[.[.[.[.[.[.[.[.[.[.[.[.[.[.[.[.[.[.[.[.[.[.[.< T U.].].].].].].].'.x.Y < [.",
"[.[.[.[.[.[.[.[.[.[.[.[.[.[.[.[.[.[.[.[.[.[.[.[.[.[.[.[.[.[.[.[.[.[.[.[.[.[.[.[.[.[.[.[.[.[.[.[.[.[.[.[.[.[.[.[.[.[.[.[.[.[.[.[.[.[.[.< T x.].].].T.f./ 2 [.[.[.",
"[.[.[.[.[.[.[.[.[.[.[.[.[.[.[.[.[.[.[.[.[.[.[.[.[.[.[.[.[.[.[.[.[.[.[.[.[.[.[.[.[.[.[.[.[.[.[.[.[.[.[.[.[.[.[.[.[.[.[.[.[.[.[.[.[.[.[.[.  X ; 4 K I 6 [.[.[.[.[."
};
