/* XPM */
static char *result[] = {
/* columns rows colors chars-per-pixel */
"80 80 186 2 ",
"   c #8C8178",
".  c #999471",
"X  c #A19D73",
"o  c #A6A378",
"O  c #857496",
"+  c #8A7B95",
"@  c #87769C",
"#  c #8B7C9D",
"$  c #8E7EA2",
"%  c #8E8182",
"&  c #9E968B",
"*  c #93859C",
"=  c #978D9A",
"-  c #9A929C",
";  c #A09980",
":  c #A69E9A",
">  c #ABA687",
",  c #ACAE83",
"<  c #B0AA89",
"1  c #A8B086",
"2  c #AEB48A",
"3  c #B2B38C",
"4  c #B8B68E",
"5  c #B0B88E",
"6  c #ADA793",
"7  c #A9A099",
"8  c #B8B792",
"9  c #B2BA94",
"0  c #BEBD9E",
"q  c #8F81A1",
"w  c #9385A6",
"e  c #9689A6",
"r  c #9485AC",
"t  c #9689AA",
"y  c #9A8CAC",
"u  c #9E92A4",
"i  c #9D90AE",
"p  c #9585B0",
"a  c #9788B0",
"s  c #9B8DB3",
"d  c #9E91B4",
"f  c #9F94B8",
"g  c #A097A4",
"h  c #A69EAE",
"j  c #A295B5",
"k  c #A599B5",
"l  c #A99DB5",
"z  c #A296B9",
"x  c #A59BBB",
"c  c #A99EBD",
"v  c #ABA3A2",
"b  c #B4AFAB",
"n  c #B5B2A1",
"m  c #BDBFA1",
"M  c #B5B1AB",
"N  c #BCBCA9",
"B  c #ACA4B3",
"V  c #ABA1BE",
"C  c #B5AEB2",
"Z  c #B3AABE",
"A  c #B8AFB9",
"S  c #B6B2B3",
"D  c #BAB3B4",
"F  c #BEBDB5",
"G  c #B7B1BA",
"H  c #BBB6BC",
"J  c #BFBABF",
"K  c #C1BFA2",
"L  c #BFC097",
"P  c #BDC59C",
"I  c #BFC89D",
"U  c #BEC5A4",
"Y  c #C0C49A",
"T  c #C3C6A1",
"R  c #C4CBA3",
"E  c #CACDA5",
"W  c #C5CBAA",
"Q  c #C9CDAE",
"!  c #C8D0A7",
"~  c #CBD3AC",
"^  c #C1C1B3",
"/  c #C6C8B0",
"(  c #CACDB2",
")  c #C9C7BF",
"_  c #C9CCB8",
"`  c #CDD2B1",
"'  c #CCD0BA",
"]  c #D0D6B3",
"[  c #D3DAB3",
"{  c #D1D6BB",
"}  c #D4DABB",
"|  c #D8DCBB",
" . c #DAE1BC",
".. c #AB9FC0",
"X. c #ADA3C2",
"o. c #B1A6C4",
"O. c #B3ABC5",
"+. c #B6ADC9",
"@. c #B9AFCC",
"#. c #BCB7C3",
"$. c #BDBAC1",
"%. c #B7B0C9",
"&. c #BBB2CC",
"*. c #BFB6D1",
"=. c #C1BACC",
"-. c #C1B7D2",
";. c #C5BCD5",
":. c #C8BFD7",
">. c #C8BFD9",
",. c #C6C2C4",
"<. c #CCCCC4",
"1. c #C7C2CC",
"2. c #CAC6CC",
"3. c #CCCBC8",
"4. c #D6DAC3",
"5. c #DADDC5",
"6. c #D5D5CD",
"7. c #DBDCCB",
"8. c #CAC3D5",
"9. c #CECAD2",
"0. c #CCC3DC",
"q. c #D1CDD2",
"w. c #D4CFDD",
"e. c #D5D2D3",
"r. c #DBDAD6",
"t. c #D5D1D8",
"y. c #DAD6DD",
"u. c #DCDADB",
"i. c #E0DED2",
"p. c #E0DFDA",
"a. c #DDE3C4",
"s. c #DDE1CC",
"d. c #DFE0D4",
"f. c #E0E7C6",
"g. c #E4EBC6",
"h. c #E1E6CC",
"j. c #E4EACC",
"k. c #E9F1C8",
"l. c #E2E4D3",
"z. c #E5EAD3",
"x. c #E9EDD4",
"c. c #E3E3DC",
"v. c #E7E9DA",
"b. c #EAEDDD",
"n. c #ECF2D5",
"m. c #EEF2DD",
"M. c #F1F6DD",
"N. c #F2F8DD",
"B. c #CFC7E0",
"V. c #D0C7E0",
"C. c #D5CDE6",
"Z. c #D6CEE8",
"A. c #D7D0E3",
"S. c #D9D3E4",
"D. c #DEDAE4",
"F. c #D8D1E9",
"G. c #E1DDE4",
"H. c #E1DCEB",
"J. c #E4E3E1",
"K. c #EBEDE2",
"L. c #E5E3E8",
"P. c #E9E7EA",
"I. c #EEEDEB",
"U. c #EEF1E2",
"Y. c #EFF1E8",
"T. c #F2F5E3",
"R. c #F5F8E5",
"E. c #F5F8E7",
"W. c #F4F6EB",
"Q. c #F3F5ED",
"!. c #F5F9E9",
"~. c #F6F9EB",
"^. c #F8FAEE",
"/. c #F8FBEF",
"(. c #EEECF0",
"). c #F6F6F3",
"_. c #F7F8F2",
"`. c #FAFDF2",
"'. c #FAFCF3",
"]. c #FBFCF4",
"[. c #FBFDF6",
"{. c #FAFBF8",
"}. c #FBFCF8",
"|. c #FDFDFC",
" X c #FFFFFE",
".X c None",
/* pixels */
".X.X.X.X.X.X.X.X.X.X.X.X.X.X.X.X.X.X.X.X.X.X.X.X.X.X.X.X.X.X.X.X.X.X.X.X.X.X.X.X.X.X.X.X.X.X.X.X.X.X.X.X.X.X.X.X.X.X.X.X.X.X.X.X.X.X.X.X.X.X.X.X.X.X.X.X.X.X.X.X",
".X.X.X.X.X.X.X.X.X.X.X.X.X.X.X.X.X.X.X.X.X.X.X.X.X.X.X.X.X.X.X.X.X.X.X.X.X.X.X.X.X.X.X.X.X.X.X.X.X.X.X.X.X.X.X.X.X.X.X.X.X.X.X.X.X.X.X.X.X.X.X.X.X.X.X.X.X.X.X.X",
".X.X.X.X.X.X.X.X.X.X.X.X.X.X.X.X.X.X.X.X.X.X.X.X.X.X.X.X.X.X.XR [ E.].R - .X.X.X.X.X.X.X.X.X.X.X.X.X.X.X.X.X.X.X.X.X.X.X.X.X.X.X.X.X.X.X.X.X.X.X.X.X.X.X.X.X.X.X",
".X.X.X.X.X.X.X.X.X.X.X.X.X.X.X.X.X.X.X.X.X.X.X.X.X.X.X.X.Xj.Q.U.W.}. Xc.O.s .X.X.X.X.X.X.X.X.X.X.X.X.X.X.X.X.X.X.X.X.X.X.X.X.X.X.X.X.X.X.X.X.X.X.X.X.X.X.X.X.X.X",
".X.X.X.X.X.X.X.X.X.X.X.X.X.X.X.X.X.X.X.X.X.X.X.X.X.X.X] T.}. X X X X X).C.@.y .X.X.X.X.X.X.X.X.X.X.X.X.X.X.X.X.X.X.X.X.X.X.X.X.X.X.X.X.X.X.X.X.X.X.X.X.X.X.X.X.X",
".X.X.X.X.X.X.X.X.X.X.X.X.X.X.X.X.X.X.X.X.X.X.X.X.X.X{ {. X X X X X X XT.y.>.H n.R. X X XE.n.a.a.( ~ .X.X.X.X.X.X.X.X.X.X.X.X.X.X.X.X.X.X.X.X.X.X.X.X.X.X.X.X.X.X",
".X.X.X.X.X.X.X.X.X.X.X.X.X.X.X.X.X.X.X.X.X.X.X.X.X~ Q. X X X X X X XE.u.Z.B.D. X X X X X X X X X X/.z.4..X.X.X.X.X.X.X.X.X.X.X.X.X.X.X.X.X.X.X.X.X.X.X.X.X.X.X.X",
".X.X.X.X.X.X.X.X.X.X.X.X.X.X.X.X.X.X.X.X.X.X.X.X.Xh. X X X X X X X!.u.Z.Z.C.y.[. X X X X X X X X X X X}.U.l.] .X.X.X.X.X.X.X.X.X.X.X.X.X.X.X.X.X.X.X.X.X.X.X.X.X",
".X.X.X.X.X.X.X.X.X.X.X.X.X.X.X.X.X.X.X.X.X.X.X.X.Xz. X X X}.}.[.n.c.Z.Z.Z.V.0.D.x.W.}. X X X X X X X X X!.n.g.g.| W 9 .X.X.X.X.X.X.X.X.X.X.X.X.X.X.X.X.X.X.X.X.X",
".X.X.X.X.X.X.X.X.X.X.X.X.X.X.X.X.X.X.X.X.X.X.X.X.Xz.'.'.`.x.z.l.S.Z.Z.Z.Z.0.&.0.C.S.l.K.].[. X X X X X X X}. X}.}.{._.a..X.X.X.X.X.X.X.X.X.X.X.X.X.X.X.X.X.X.X.X",
".X.X.X.X.X.X.X.X.X.X.X.X.X.X.X.X.X.X.X.X.X.X.X.X.Xt.l.l.l.S.Z.Z.Z.Z.Z.Z.Z.-.x -.-.Z.Z.Z.u.z.!.}. X[.}. X X X X X X X X X!..X.X.X.X.X.X.X.X.X.X.X.X.X.X.X.X.X.X.X",
".X.X.X.X.X.X.X.X.X.X.X.X.X.X.X.X.X.X.X.X.X.X.X.X.X0.Z.Z.0.v A Z.Z.Z.Z.Z.Z.O.o.;.&.-.0.Z.Z.A.u.L.T.j.^. X X X X X X X X X XT..X.X.X.X.X.X.X.X.X.X.X.X.X.X.X.X.X.X",
".X.X.X.X.X.X.X.X.X.X.X.X.X.X.X.X.X.X.X.X.X.X.X.X.X-.Z.C.v   Z Z.Z.Z.Z.Z.0.y O.-.;.-.&.;.Z.Z.Z.Z.y._ j.}. X X X X X X X X X Xz..X.X.X.X.X.X.X.X.X.X.X.X.X.X.X.X.X",
".X.X.X.X.X.X.X.X.X.X.X.X.X.X.X.X.X.X.X.X.X.X.X.Xa.2.0.Z.0.0.C.Z.Z.Z.V.;.c f z &.;.;.;.-.&.;.V.C.C.^ ] j.n.M.[. X X X X X X X!.I .X.X.X.X.X.X.X.X.X.X.X.X.X.X.X.X",
".X.X.X.X.X.X.X.X.X.X.X.X.X.X.X.X.X.X.X.X.X.X.Xx.}.q.O.C.Z.Z.Z.V.;.@.&.V r z z c &.O.&.-.;.&.&.-.3.c. X X X[.m.[. X X X X X X X} a.} .X.X.X.X.X.X.X.X.X.X.X.X.X.X",
".X.X.X.X.X.X.X.X.X.X.X.X.X.X.X.X.X.X.X.X.X.X.XK. X/.,.@.Z.Z.-.&.c y X.y r r z f k X.x X.&.;.;.O.a.'. X X X X X X X X X X X X Xx.}./.s..X.X.X.X.X.X.X.X.X.X.X.X.X",
".X.X.X.X.X.X.X.X.X.X.X.X.X.X.X.X.X.X.X.X.X.X.XT. X XW.J j j z +.*.X.y $ r r r t y ;.&.V x z ..z t.G.b.E. X X X X X X X X X X X[. X X Xz..X.X.X.X.X.X.X.X.X.X.X.X",
".X.X.X.X.X.X.X.X.X.X.X.X.X.X.X.X.X.X.X.X.X.X.Xb. X X X).P.) k &.@.d j r # # # $ V ;.;.-.&.O.x X.C.Z.A.S.c.x.x.).|.|.|.|.}.}. X X X X X}.} .X.X.X.X.X.X.X.X.X.X.X",
".X.X.X.X.X.X.X.X.X.X.X.X.X.X.X.X.X.X.X.X.X.X.X .`. X X X}.E.H e i O.%.-.-.-.-.-.;.;.;.;.;.;.;.;.V.Z.Z.Z.Z.A.A.S.F.F.F.S.v.M. X X[. X X Xm.R .X.X.X.X.X.X.X.X.X.X",
".X.X.X.X.X.X.X.X.X.X.X.X.X.X.X.X.X.X.X.X.X.X.X.X| [. X!.l.6.;.;.;.-.;.;.;.;.;.;.;.;.;.;.;.;.;.;.0.V.Z.Z.Z.Z.Z.Z.Z.Z.Z.u.!. X X}.M. X X X Xz..X.X.X.X.X.X.X.X.X.X",
".X.X.X.X.X.X.X.X.X.X.X.X.X.X.X.X.X.X.X.X.X.X.X.X5 } v.6.8.;.;.;.-.&.;.;.;.;.;.;.;.;.;.;.;.;.;.;.;.;.0.*.:.Z.Z.Z.Z.V.0.u.!. X X[.x. X X X X`. ..X.X.X.X.X.X.X.X.X",
".X.X.X.X.X.X.X.X.X.X.X.X.X.X.X.X.X.X.X.X.X.X.X.X.Xh #.-.;.;.;.-.x c %.&.;.;.;.;.-.%.%.%.%.%.&.;.;.;.;.&.X.x z +.-.0.C.A.v.[.{.m. .n.n.n.`. Xm.! .X.X.X.X.X.X.X.X",
".X.X.X.X.X.X.X.X.X.X.X.X.X.X.X.X.X.X.X.X.X.X.XQ m.-.z O.+.+.X.j # w c O.+.%.%.%.+.+.X.V V X.+.%.%.%.%.+.O.f z X.*.Z.Z.Z.q.] W j.].}.}.}. X X Xj.W .X.X.X.X.X.X.X",
".X.X.X.X.X.X.X.X.X.X.X.X.X.X.X.X.X.X.X.X.X.Xf.Q. Xt.j V +.+.O.c f s # s f k c c V j s t t s x c c c c c x x +.O...*.V.8.6 0 b. X X X X X X X XE.v.} .X.X.X.X.X.X",
".X.X.X.X.X.X.X.X.X.X.X.X.X.X.X.X.X.X.X.X.Xa./. X}.d.k s j x V f x s # .X  % .X.X$ $ z x x x f f f f s f V +.+.+.&.X.V 6 |  X X X X X X X X X X}.M.`.n..X.X.X.X.X",
".X.X.X.X.X.X.X.X.X.X.X.X.X.X.X8 .X.X.X.X.XU. X}.v.=.&.&.X.V O.o.x t .X.X7.7..X.X.X.Xq w z x x x x x x c X.O.+.+.;.&.& |  X X X X X X X X X X X X'. Xx..X.X.X.X.X",
".X.X.X.X.X.X.X.X.X.X.X.X.X.X.X5.> .X.X.Xl. X Xb.1.*.;.;.;.%.+.+.c w .X.XU Y.T.4 .X.X.X.X@ t x x x x x x x X.Z Z C T a.}. X X X X X X X X X X X}.).x.y.w..X.X.X.X",
".X.X.X.X.X.X.X.X.X.X.X.X.X.XK K.9 .X.X~ `. XU.9.;.;.;.;.;.-.+.+.k .X.X.X.X( Q.l.m 3 .X.X.X@ p x X.X.X.l g B D m l.}. X X X X X X X X X X X X_.b.A.C.F.F..X.X.X.X",
".X.X.X.X.X.X.X.X.X.X.X.X.X.Xj c.{ 9 { ^.'.T.q.;.;.;.;.;.;.-.+.O.s .X.X.X.X.XW Q. Xb.( ( .X.X.X& : b F N K 4. X X X X X X X X X X X X X X'.T.u.Z.V.:.-.o..X.X.X.X",
".X.X.X.X.X.X.X.X.X.X.X.X.X^ j y.i.Q }.M.r.9.;.;.;.;.;.;.;.-.+.V $ .X.X.X.X.X.X{  X X X}.m.] L , T 7.l.T.}. X X X X X X X X X X X X XT.K.G.y.Z.Z.V.o.w .X.X.X.X.X",
".X.X.X.X.X.X.X.X.X.X.X.Xs.u.X.V.( ] x.9.8.;.;.;.;.;.;.;.;.%.X.w .X.X.X.X.X.XR U. X X X X X[.`.Q.}. X X X X X X X X}.}.}.}. XW.n.n.J.S.A.Z.Z.Z.0.V w .X.X.X.X.X.X",
".X.X.X.X.X.X.X.X.X.X.Xz.).c -.:.&.&.8.;.;.;.;.;.;.;.;.;.%.V t .X.X.X.X.X.XR T. X X X X X X X X X[.'.[.[.'.[.'.).x.z.z.z.z.l.S.A.A.Z.Z.Z.Z.C.-.V # .X.X.X.X.X.X.X",
".X.X.X.X.X.X.X.X.X( m.{.p.V %.:.+.X.;.;.;.;.;.;.;.;.-.@.f w .X.X.X.X.X.Xv h.[.}. X X X X X X X}.l.l.l.l.l.l.l.S.Z.Z.Z.Z.Z.Z.Z.Z.Z.Z.Z.Z.0.X.$ .X.X.X.X.X.X.X.X.X",
".X.X.X.X.X.X.X.XW Y.W.8.X.O.+.;.+.X.:.;.;.;.;.;.;.-.k y .X.X.X.X.X.X.XO.Z.2.J.[. X X X X X X X{.;.C.Z.Z.Z.Z.Z.Z.Z.Z.Z.Z.Z.Z.Z.Z.Z.Z.0.O.j .X.X.X.X.X.X.X.X.X.X.X",
".X.X.X.X.X.X.XU K.T.G x f X.+.%.O.c -.;.;.;.;.&.X.y .X.X.X.X.X.X.Xy -.C.@.@.H.{.b. X X X X X XU.+.x y j o.0.C.C.Z.Z.Z.Z.Z.Z.Z.V.-.X.y .X.X.X.X.X.X.X.X.X.X.X.X.X",
".X.X.X.X.X.X.Xb.i.M o.z y V +.X.z x f s s w # .X.X.X.X.X.X.X.X.Xi :.0.O.*.0.+.=.). X X X X}.T.2.t X.%.&.+.k t z O.%.;.0.:.&.V u * + .X.X.X.X.X.X.X.X.X.X.X.X.X.X",
".X.X.X.X.X.X( K.7 O.t V t z +.-.+..X.X.X.X.X.X.X.X.X.X.X.X.X.X..:.&.X.;.:.X.+.l.m.T. X}./.x.e.V w x -.;.;.O.@.Z.e.S l l l B { j.T .X.X.X.X.X.X.X.X.X.X.X.X.X.X.X",
".X.X.X.X.X.X| M j k r V y x &.;.V .X.X.X.X.X.X.X.X.X.X.X.X.X&.:.o.x 0.;...;.Z.,.N x.E.m.d.8.c i V f O.&.&.c *.u.W. X X X X X X Xx.I .X.X.X.X.X.X.X.X.X.X.X.X.X.X",
".X.X.X.X.Xc S k k O.e V j x &.&.s .X.X.X.X.X.X.X.X.X.X.X.X.X*.j X.;.o.x 0.0.V +.=.u.r.1.X.d X.%.+.j x +.O.j 0.I. X X X X X X X X'.! .X.X.X.X.X.X.X.X.X.X.X.X.X.X",
".X.X.X.X# x x j X.d d s $ $ s e .X.X.X.X.X.X.X.X.X.X.X.X.X.Xc -.-.j O.-.@.x -.-.&.x d &.;.;.:.;.+.O.f t q s e.`. X X X X X X X X/.| = .X.X.X.X.X.X.X.X.X.X.X.X.X",
".X.X.X.Xo.@.j c d y w O .X.X.X.X.X.X.X.X.X.X.X.X.X.X.X.X.Xz -.X.k *.@.r o.%.&.h <.V.B.Z.Z.Z.;.&.+.+.X.x r e D. X X X X X X X X X`.r.y .X.X.X.X.X.X.X.X.X.X.X.X.X",
".X.X.Xy o.d k j k e .X.X.X.X.X.X.X.X.X.X.X.X.X.X.X.X.X.X.X$.=.Z S.0.Z =.0.H l.c.A.C.Z.Z.Z.B.;.%.+.O.x f .X.Xz. X X X X X X X X XI.Z.z .X.X.X.X.X.X.X.X.X.X.X.X.X",
".X.X.X# t X.i y $ .X.X.X.X.X.X.X.X.X.X.X.X.X.X.X.X.X.X.X.Xf. X X X X X X XT.y.Z.C.0.Z.Z.V.;.%.+.O.V .X.X.X.Xz. X X X X X X X X}.l.Z.z .X.X.X.X.X.X.X.X.X.X.X.X.X",
".X.X.X.Xq j # .X.X.X.X.X.X.X.X.X.X.X.X.X.X.X.X.X.X.X.X.X] !. X X X X X/.n.u.Z.Z.;.0.Z.0.;.%.+.O.X..X.X.X.X.X7. X X X X X X X XT.y.0.y .X.X.X.X.X.X.X.X.X.X.X.X.X",
".X.X.X.X.X.X.X.X.X.X.X.X.X.X.X.X.X.X.X.X.X.X.X.X.X.X.X.XE. X X X X}.'.c.A.Z.Z.0.&.0.0.;.&.O.X.f .X.X.X.X.X.X4. X X X X X X XT.u.Z.0.e .X.X.X.X.X.X.X.X.X.X.X.X.X",
".X.X.X.X.X.X.X.X.X.X.X.X.X.X.X.X.X.X.X.X.X.X.X.X.X.X.X( '. X X X/.m.l.A.Z.Z.0.+.;.;.*.O.c z .X.X.X.X.X.X.X.X~ ^. X X X X X!.u.Z.Z.-..X.X.X.X.X.X.X.X.X.X.X.X.X.X",
".X.X.X.X.X.X.X.X.X.X.X.X.X.X.X.X.X.X.X.X.X.X.X.X.X.X.XW 7.T.E.I.l.y.Z.Z.Z.0.+.X.&.c t r # .X.X.X.X.X.X.X.X.X.Xz. X X X[.R.p.Z.Z.Z.+..X.X.X.X.X.X.X.X.X.X.X.X.X.X",
".X.X.X.X.X.X.X.X.X.X.X.X.X.X.X.X.X.X.X.X.X.X.X.X.X.X.X#.;.9.t.A.Z.Z.Z.Z.B.*.z x e # .X.X.X.X.X.X.X.X.X.X.X.X.XI m. XT.l.q.Z.Z.Z.;.j .X.X.X.X.X.X.X.X.X.X.X.X.X.X",
".X.X.X.X.X.X.X.X.X.X.X.X.X.X.X.X.X.X.X.X.X.X.X.X.X.X.XO.;.;.:.V.Z.Z.Z.V.&.z s $ .X.X.X.X.X.X.X.X.X.X.X.X.X.X.Xe V 8.9.8.;.0.Z.Z.@.w .X.X.X.X.X.X.X.X.X.X.X.X.X.X",
".X.X.X.X.X.X.X.X.X.X.X.X.X.X.X.X.X.X.X.X.X.X.X.X.X.X.Xx ;.;.;.:.V.V.;.+.s w .X.X.X.X.X.X.X.X.X.X.X.X.X.X.X.X.X.Xf x *.;.;.;.0.C.X.&.k .X.X.X.X.X.X.X.X.X.X.X.X.X",
".X.X.X.X.X.X.X.X.X.X.X.X.X.X.X.X.X.X.X.X.X.X.X.X.X.X.Xf &.;.;.;.;.*.+.o.x $ .X.X.X.X.X.X.X.X.X.X.X.X.X.X.X.X.X.X.Xs V -.;.;.0.V.&.0.V.+..X.X.X.X.X.X.X.X.X.X.X.X",
".X.X.X.X.X.X.X.X.X.X.X.X.X.X.X.X.X.X.X.X.X.X.X.X.X.X.X.Xo.;.;.;.-.+.*.V.V.o..X.X.X.X.X.X.X.X.X.X.X.X.X.X.X.X.X.X.Xf V +.;.;.;.V.0.0.Z.B.O..X.X.X.X.X.X.X.X.X.X.X",
".X.X.X.X.X.X.X.X.X.X.X.X.X.X.X.X.X.X.X.X.X.X.X.X.X.X.X.X@.;.;.;.&.0.Z.Z.Z.0....X.X.X.X.X.X.X.X.X.X.X.X.X.X.X.X.X.Xx %.&.;.;.;.0.Z.Z.Z.Z.:..X.X.X.X.X.X.X.X.X.X.X",
".X.X.X.X.X.X.X.X.X.X.X.X.X.X.X.X.X.X.X.X.X.X.X.X.X.X.Xz -.;.;.;.;.B.Z.Z.Z.Z.*..X.X.X.X.X.X.X.X.X.X.X.X.X.X.X.X.X.X.X&.;.;.;.;.;.C.Z.Z.Z.C.O..X.X.X.X.X.X.X.X.X.X",
".X.X.X.X.X.X.X.X.X.X.X.X.X.X.X.X.X.X.X.X.X.X.X.X.X.X.Xx ;.;.;.;.;.B.Z.Z.Z.Z.0.x .X.X.X.X.X.X.X.X.X.X.X.X.X.X.X.X.X.X%.;.;.;.;.;.0.Z.Z.Z.Z.&..X.X.X.X.X.X.X.X.X.X",
".X.X.X.X.X.X.X.X.X.X.X.X.X.X.X.X.X.X.X.X.X.X.X.X.X.X.XX.;.;.;.;.;.0.Z.Z.Z.Z.Z.+..X.X.X.X.X.X.X.X.X.X.X.X.X.X.X.X.X.XO.;.;.;.;.;.0.C.Z.Z.Z.0..X.X.X.X.X.X.X.X.X.X",
".X.X.X.X.X.X.X.X.X.X.X.X.X.X.X.X.X.X.X.X.X.X.X.X.X.X.X.X&.;.;.;.;.;.C.Z.Z.Z.V.c .X.X.X.X.X.X.X.X.X.X.X.X.X.X.X.X.X.Xf &.;.;.;.;.;.0.Z.Z.Z.0..X.X.X.X.X.X.X.X.X.X",
".X.X.X.X.X.X.X.X.X.X.X.X.X.X.X.X.X.X.X.X.X.X.X.X.X.X.X.XX.;.;.;.;.;.V.Z.Z.V.-.f .X.X.X.X.X.X.X.X.X.X.X.X.X.X.X.X.X.X.XO.;.;.;.;.;.:.C.Z.Z.:..X.X.X.X.X.X.X.X.X.X",
".X.X.X.X.X.X.X.X.X.X.X.X.X.X.X.X.X.X.X.X.X.X.X.X.X.X.X.Xx -.;.;.;.;.:.V.0.;.O..X.X.X.X.X.X.X.X.X.X.X.X.X.X.X.X.X.X.X.Xj &.;.;.;.;.;.V.Z.Z.&.r .X.X.X.X.X.X.X.X.X",
".X.X.X.X.X.X.X.X.X.X.X.X.X.X.X.X.X.X.X.X.X.X.X.X.X.X.X.X.X&.;.;.;.;.;.;.;.&.j .X.X.X.X.X.X.X.X.X.X.X.X.X.X.X.X.X.X.X.X.Xd +.-.;.;.;.;.V.Z.O.r .X.X.X.X.X.X.X.X.X",
".X.X.X.X.X.X.X.X.X.X.X.X.X.X.X.X.X.X.X.X.X.X.X.X.X.X.X.X.XO.;.;.;.;.;.;.&.z .X.X.X.X.X.X.X.X.X.X.X.X.X.X.X.X.X.X.X.X.X.X.Xy k &.;.;.;.0.Z.O.r .X.X.X.X.X.X.X.X.X",
".X.X.X.X.X.X.X.X.X.X.X.X.X.X.X.X.X.X.X.X.X.X.X.X.X.X.X.X.Xj &.;.;.;.;.;.O..X.X.X.X.X.X.X.X.X.X.X.X.X.X.X.X.X.X.X.X.X.X.X.X.X.Xe X.*.;.;.V.&.r .X.X.X.X.X.X.X.X.X",
".X.X.X.X.X.X.X.X.X.X.X.X.X.X.X.X.X.X.X.X.X.X.X.X.X.X.X.X.X.X+.;.;.;.;.%.s .X.X.X.X.X.X.X.X.X.X.X.X.X.X.X.X.X.X.X.X.X.X.X.X.X.X.Xr x -.;.0.;.a .X.X.X.X.X.X.X.X.X",
".X.X.X.X.X.X.X.X.X.X.X.X.X.X.X.X.X.X.X.X.X.X.X.X.X.X.X.X.X.X..;.;.;.;.c .X.X.X.X.X.X.X.X.X.X.X.X.X.X.X.X.X.X.X.X.X.X.X.X.X.X.X.X.X$ X.;.;.0.c f .X.X.X.X.X.X.X.X",
".X.X.X.X.X.X.X.X.X.X.X.X.X.X.X.X.X.X.X.X.X.X.X.X.X.X.X.X.X.Xo.;.;.;.;.j .X.X.X.X.X.X.X.X.X.X.X.X.X.X.X.X.X.X.X.X.X.X.X.X.X.X.X.X.XO j -.;.;.&.X.f .X.X.X.X.X.X.X",
".X.X.X.X.X.X.X.X.X.X.X.X.X.X.X.X.X.X.X.X.X.X.X.X.X.X.X.X.Xf &.;.;.;.;.j .X.X.X.X.X.X.X.X.X.X.X.X.X.X.X.X.X.X.X.X.X.X.X.X.X.X.X.X.XO V &.;.;.-.V o..X.X.X.X.X.X.X",
".X.X.X.X.X.X.X.X.X.X.X.X.X.X.X.X.X.X.X.X.X.X.X.X.X.X.X.X.X6.K.1.;.;.;.k M R .X.X.X.X.X.X.X.X.X.X.X.X.X.X.X.X.X.X.X.X.X.X.X.X.X.X.Xr @.&.<.h.z.7.O.z .X.X.X.X.X.X",
".X.X.X.X.X.X.X.X.X.X.X.X.X.X.X.X.X.X.X.X.X.X.X.X.X.X.XT./. Xm.9.;.;.;.O.9.j.I .X.X.X.X.X.X.X.X.X.X.X.X.X.X.X.X.X.X.X.X.X.X.X.X.X.Xf @.H U. X X}.7.y .X.X.X.X.X.X",
".X.X.X.X.X.X.X.X.X.X.X.X.X.X.X.X.X.X.X.X.X.X.X.X.X.X X X XT.q.;.;.+.-.&.o.G.f.P .X.X.X.X.X.X.X.X.X.X.X.X.X.X.X.X.X.X.X.X.X.X.X.X.XO j $.!. X X X!.n .X.X.X.X.X.X",
".X.X.X.X.X.X.X.X.X.X.X.X.X.X.X.X.X.X.X.X.X.X.X.X`.[. X XW.e.;.;.-.O.-.-.j -.P.v..X.X.X.X.X.X.X.X.X.X.X.X.X.X.X.X.X.X.X.X.X.X.X.X.Xy l ' !. X X X}.a.o .X.X.X.X.X",
".X.X.X.X.X.X.X.X.X.X.X.X.X.X.X.X.X.X.X.X.X2 ] !. X X[.n.e.;.;.;.*.X.+.X.c -.0.(. ..X.X.X.X.X.X.X.X.X.X.X.X.X.X.X.X.X.X.X.X.X.X.X.X; / ^.}. X X X X}.` 1 .X.X.X.X",
".X.X.X.X.X.X.X.X.X.X.X.X.X.X.X.X.X.X.X.X` x.].[.[.m.s.8.;.;.;.;.&.d e x *.;.;.8.5..X.X.X.X.X.X.X.X.X.X.X.X.X.X.X.X.X.X.X.X.X.X.X.X2 a. X X X X X X X_.W .X.X.X.X",
".X.X.X.X.X.X.X.X.X.X.X.X.X.X.X.X.XR 4.!.'.!.~.l.7.q.;.;.-.-.+.O.O.%.;.;.:.:.:.&.V .X.X.X.X.X.X.X.X.X.X.X.X.X.X.X.X.X.X.X.X.X.X.X.XE ^. X X X X X X X XW.f..X.X.X",
".X.X.X.X.X.X.X.X.X.X.X.X.X.X.XP [ k.N.K.u.6.6.8.-.&.+.X.z y w w w t j j j j j d .X.X.X.X.X.X.X.X.X.X.X.X.X.X.X.X.X.X.X.X.X.X.X.X.XR [. X X X X X X X X X/..X.X.X",
".X.X.X.X.X.X.X.X.X.X.X.X.X.X.X- B B B u t t t y e w q .X.X.X.X.X.X.X.X.X.X.X.X.X.X.X.X.X.X.X.X.X.X.X.X.X.X.X.X.X.X.X.X.X.X.X.X.X.X4. X X X X X X X X X X X!..X.X",
".X.X.X.X.X.X.X.X.X.X.X.X.X.X.X.X.X.X.X.X.X.X.X.X.X.X.X.X.X.X.X.X.X.X.X.X.X.X.X.X.X.X.X.X.X.X.X.X.X.X.X.X.X.X.X.X.X.X.X.X.X.X.X.X.X| '. X X X X X X X X X X Xl..X",
".X.X.X.X.X.X.X.X.X.X.X.X.X.X.X.X.X.X.X.X.X.X.X.X.X.X.X.X.X.X.X.X.X.X.X.X.X.X.X.X.X.X.X.X.X.X.X.X.X.X.X.X.X.X.X.X.X.X.X.X.X.X.X.X.X3 | !. X X X X X X X X X Xh..X",
".X.X.X.X.X.X.X.X.X.X.X.X.X.X.X.X.X.X.X.X.X.X.X.X.X.X.X.X.X.X.X.X.X.X.X.X.X.X.X.X.X.X.X.X.X.X.X.X.X.X.X.X.X.X.X.X.X.X.X.X.X.X.X.X.X.X2 Y h.^. X X X X X X Xm.! .X",
".X.X.X.X.X.X.X.X.X.X.X.X.X.X.X.X.X.X.X.X.X.X.X.X.X.X.X.X.X.X.X.X.X.X.X.X.X.X.X.X.X.X.X.X.X.X.X.X.X.X.X.X.X.X.X.X.X.X.X.X.X.X.X.X.X.X.X.X, T z.M.}. X X`.a..X.X.X",
".X.X.X.X.X.X.X.X.X.X.X.X.X.X.X.X.X.X.X.X.X.X.X.X.X.X.X.X.X.X.X.X.X.X.X.X.X.X.X.X.X.X.X.X.X.X.X.X.X.X.X.X.X.X.X.X.X.X.X.X.X.X.X.X.X.X.X.X.X.X. X < 0 W 3 o .X.X.X"
};
