/* XPM */
static char *result[] = {
/* columns rows colors chars-per-pixel */
"80 80 176 2 ",
"   c #8C866A",
".  c #908A6E",
"X  c #908976",
"o  c #928A7A",
"O  c #9E987E",
"+  c #A8A87F",
"@  c #7F6D8F",
"#  c #857496",
"$  c #877699",
"%  c #8B7B9D",
"&  c #8E7EA4",
"*  c #958B8B",
"=  c #9C9685",
"-  c #988A99",
";  c #A39C84",
":  c #A49D9B",
">  c #AEAB8B",
",  c #B2AC8C",
"<  c #ADB48B",
"1  c #AEAE95",
"2  c #A8A39D",
"3  c #A9A99B",
"4  c #B1AF93",
"5  c #B3AD98",
"6  c #B1B696",
"7  c #B2BA92",
"8  c #BBBA96",
"9  c #B7B79D",
"0  c #B7B999",
"q  c #BFBE9B",
"w  c #8F80A3",
"e  c #9284A4",
"r  c #998DA5",
"t  c #9586AB",
"y  c #9789AB",
"u  c #9A8DAD",
"i  c #9E91AE",
"p  c #9B8DB2",
"a  c #9E92B4",
"s  c #9F94B8",
"d  c #A59BAB",
"f  c #A195B4",
"g  c #A599B6",
"h  c #A296B9",
"j  c #A69ABB",
"k  c #A99DBC",
"l  c #ADAAA5",
"z  c #B0AAAF",
"x  c #BAB6AA",
"c  c #ACA2B3",
"v  c #ACA2BE",
"b  c #B3ABB4",
"n  c #B2A9BE",
"m  c #B6B2B5",
"M  c #B7B2BD",
"N  c #BBB5B9",
"B  c #BCB9BB",
"V  c #C1BDA3",
"C  c #BDC197",
"Z  c #BDC49D",
"A  c #BEC2A6",
"S  c #C4C49D",
"D  c #C0C89F",
"F  c #C2C6A4",
"G  c #C4CCA4",
"H  c #CACAA6",
"J  c #C2C5AF",
"K  c #C6CDA9",
"L  c #C8CDAD",
"P  c #C8D1A7",
"I  c #CBD3AB",
"U  c #D1DAAF",
"Y  c #CACDB2",
"T  c #C7C6B8",
"R  c #C9CABA",
"E  c #CDD3B3",
"W  c #CED2BA",
"Q  c #D4D7B5",
"!  c #D3DAB4",
"~  c #D1D6BA",
"^  c #D5DBBB",
"/  c #D8DFBD",
"(  c #DAE2B9",
")  c #AB9EC0",
"_  c #ADA3C2",
"`  c #B1A6C3",
"'  c #B3AAC5",
"]  c #B8AFC5",
"[  c #B3A7C8",
"{  c #B6ADC9",
"}  c #B9AECB",
"|  c #B7B0C6",
" . c #BBB5C5",
".. c #BEBBC1",
"X. c #BCB3CD",
"o. c #BEB5D1",
"O. c #BFB8D0",
"+. c #C0BAC1",
"@. c #C3BBCE",
"#. c #C0B7D1",
"$. c #C5BCD5",
"%. c #C8BFD7",
"&. c #C7BDD9",
"*. c #C8BFD8",
"=. c #C5C2C4",
"-. c #CECEC3",
";. c #C9C6CB",
":. c #CDCACD",
">. c #D1CDC4",
",. c #D0CECD",
"<. c #D6D4C5",
"1. c #D6DAC3",
"2. c #D8DCC5",
"3. c #D4D3CD",
"4. c #DADACC",
"5. c #C7C0D2",
"6. c #CAC3D4",
"7. c #CEC9D3",
"8. c #CCC3DC",
"9. c #D2CED3",
"0. c #D4CEDC",
"q. c #D5D2D3",
"w. c #D8D5D7",
"e. c #DCDDD3",
"r. c #D5D1DB",
"t. c #DAD6DE",
"y. c #DDDBDB",
"u. c #DCE2C5",
"i. c #DEE3CB",
"p. c #DEE0D0",
"a. c #E0E6C6",
"s. c #E6EEC6",
"d. c #E1E5CC",
"f. c #E5EBCD",
"g. c #E9F1CB",
"h. c #E1E3D4",
"j. c #E6E9D3",
"k. c #E9EDD4",
"l. c #E2E3DC",
"z. c #E6E9D9",
"x. c #EAECDC",
"c. c #ECF2D5",
"v. c #EEF2DB",
"b. c #F1F5DD",
"n. c #CFC7E0",
"m. c #D0C7E0",
"M. c #D5CDE6",
"N. c #D6CEE8",
"B. c #D7D1E2",
"V. c #D9D3E3",
"C. c #DEDAE4",
"Z. c #D8D0E9",
"A. c #E2DDEC",
"S. c #E3E1E3",
"D. c #EBECE3",
"F. c #E5E1EA",
"G. c #E9E7EC",
"H. c #EDECEC",
"J. c #EFF1E3",
"K. c #F2F5E4",
"L. c #F5F9E6",
"P. c #F3F5EB",
"I. c #F6F9EB",
"U. c #F8FBEE",
"Y. c #EEEBF2",
"T. c #F4F4F2",
"R. c #F8F7F3",
"E. c #F7F8F1",
"W. c #F9FAF2",
"Q. c #FAFCF1",
"!. c #FAFBF7",
"~. c #FBFCF4",
"^. c #FBFCF7",
"/. c #FDFEF9",
"(. c white",
"). c None",
/* pixels */
").).).).).).).).).).).).).).).).).).).).).).).).).).).).).).).).).).).).).).).).).).).).).).).).).).).).).).).).).).).).).).).).).).).).).).).).).).).).).).).).",
").).).).).).).).).).).).).).).).).).).).).).).).).).).).).).).).).).).).).).).).).).).).).).).).).).).).).).).).).).).).).).).).).).).).).).).).).).).).).).).).",
").).).).).).).).).).).).).).).).).).).).).).).).).).).).).).).).).).).).).).).).).).).).).).).).).).).).).).).).).).).).).).).).).).).).).).).).).).).).).).).).",
").).).).).).).).).).).).).).).).).).).).).).).).).).).).).).).).).G ! b.(.E : ).).).).).).).).).).).).).).).).).).).).).).).).).).).).).).).).).).).).).).).).).",
").).).).).).).).).).).).).).).).).).).).).).).).).).).).).).).a.~.E.!./.(.T.$.h ).).).).).).).).).).).).).).).).).).).).).).).).).).).).).).).).).).).).).).).).",
").).).).).).).).).).).).).).).).).).).).).).).).).).).).).~ L.(.(.(.(.(.(.!.V.&.p ).).).).).).).).).).).).).).).).).).).).).).).).).).).).).).).).).).).).).).).",
").).).).).).).).).).).).).).).).).).).).).).).).).).).).~ !.(.(.(.(.(.(.(.K.t.M.g ).).).).).).).).).).).).).).).).).).).).).).).).).).).).).).).).).).).).).).).",
").).).).).).).).).).).).).).).).).).).).).).).).).).).).K.(.(.(.(.(.(.(.P.y.M.M.6.4.e.h.z.P.g.s.P ).).).).).).).).).).).).).).).).).).).).).).).).).).).).).).).",
").).).).).).).).).).).).).).).).).).).).).).).).).).).1.(.(.(.(.(.(.(.I.y.M.M.M.V.(.(.(.(.(.Q.W.P.E.c.! K ).).).).).).).).).).).).).).).).).).).).).).).).).).).",
").).).).).).).).).).).).).).).).).).).).).).).).).).).d.(.(.(.^.Q.Q.x.h.M.M.M.M.r./.(.(.(.(.(.(.(.(./.^.!.c.~ 7 ).).).).).).).).).).).).).).).).).).).).).).).).",
").).).).).).).).).).).).).).).).).).).).).).).).).).).4.I.I.I.z.h.h.B.M.M.M.N.M. .x.U.(.(.(.(.(.(.(.(.(.(.(.(.z.! d.i.W ~ ).).).).).).).).).).).).).).).).).).).",
").).).).).).).).).).).).).).).).).).).).).).).).).).).7.y.y.e.B.N.N.M.M.M.M.N.*.f r.y.H.b.b.U.(.(.(.(.(.(.(.(.(.Q.(.(.(.W.i.P 7 ).).).).).).).).).).).).).).).).",
").).).).).).).).).).).).).).).).).).).).).).).).).).2.%.N.N.8.: : m.M.M.M.M.M.} f } *.M.t.t.C.A.x.c.v./.K.W./.(.(.(.(.(.(.(.U.z.7 ).).).).).).).).).).).).).).).",
").).).).).).).).).).).).).).).).).).).).).).).).( L.P.@.M.M.b o n M.M.M.M.M.8.a j X.X.#.n.M.N.M.B.B.r.L G / f.v./.(.(.(.(.(.(.(.Q ).).).).).).).).).).).).).).).",
").).).).).).).).).).).).).).).).).).).).).).).G v.(./.3.$.N.M.M.M.N.Z.M.m.#.j s s | o.%.%.*.8.m.N.N.;.K k.~.(.(.(.(.(.(.(.(.(.(.K.D ).).).).).).).).).).).).).).",
").).).).).).).).).).).).).).).).).).).).).).).i.(.(.(.S.n 8.M.M.N.m.o._ } ` t h s k } X.%.$.X.X.*.;.2.U.(.(.(.(.(.(.(.(.(.(.(.(.K.P P ).).).).).).).).).).).).).",
").).).).).).).).).).).).).).).).).).).).).).).J.(.(.(./.4.` 8.M.#.' ' u _ y t p j s X.' X.%.%.#.X.7./.(.(.(.(.(.(.(.(.(.(.(.(.(.!.P.s.G ).).).).).).).).).).).).",
").).).).).).).).).).).).).).).).).).).).).).).K.(.(.(.(./.3.f e p } $.` y & t t j p } X.k ' #.%.X.r././.(.(.(.(.(.(.(.(.(.(.(.(.(.(./.v./ Z ).).).).).).).).).).",
").).).).).).).).).).).).).).).).).).).).).).).x.(.(.(.(.(.(.J.m u ' ' a e & & & a p X.%.X.h j } _ +.j.j.K.Q.Q.Q.Q.Q.Q.Q.Q.(.(.(.(./.(.(./.d.7 ).).).).).).).).).",
").).).).).).).).).).).).).).).).).).).).).).).r.H.L.L.L.I.G.l.4.X.i f } #.` i i f _ #.%.%.$.' j k X.M.M.y.h.h.h.h.h.h.h.h.L.K.x.v.c.L.L.I.^.u.< ).).).).).).).).",
").).).).).).).).).).).).).).).).).).).).).).W  .$.3.3.3.,.%.%.%.%.%.#.%.%.%.*.*.%.%.%.%.%.%.%.%.#.X.m.M.N.N.N.N.N.N.N.N.8.q U j.L.L.L.L.L.(.^.i.).).).).).).).).",
").).).).).).).).).).).).).).).).).).).).).! v.3.' $.$.%.%.%.%.%.$.X.#.%.$.#.%.%.X.%.%.%.%.%.%.%.%.$.*.8.M.M.M.M.M.M.M.N 9 ^ P.(.(.(.(.(.(.(.(./.! ).).).).).).).",
").).).).).).).).).).).).).).).).> ).).).! k.(.^.3.g v X.X.X.} ' _ X.%.%.x 5  .$.X.%.%.%.%.%.%.%.%.%.%.%.$.X.X.$.#.X.b 8 x.(.(.(.(.(.(.(.(.(.(.(.U.E ).).).).).).",
").).).).).).).).).).).).).).).Z <.).).a.k./.(.W.D.b e s p t e p v X.#.%.w.P.<.N X.X.#.%.%.%.%.%.%.%.%.X.' f t u k c 4 K.(.(.(.(.(.(.(.(.(.(.(.(.(.k.E ).).).).).",
").).).).).).).).).).).).).).).l <.).).U.(.(.Q.e.$.' _ ' ` s h u p k ' X.N e.Q.F 3 c ' X.#.%.%.%.%.#.X.' ' _ j i * 4 k.(.(.(.(.(.(.(.(.(.(.(.(.(.(.Q.U.! ).).).).",
").).).).).).).).).).).).).< F g >.x E.(.(.D.r.5.#.| #.#.| _ u ).).).h _ } m h.P.h.R 3 2 ' | | } | ' ` ' _ r = J ^ P.(.(.(.(.(.(.(.(.(.(.(.(.(.K.v.v.x.q.).).).).",
").).).).).).).).).).).).I J.=.v >.Y (.P.w.5.%.%.X.%.%.%.X._ t ).).).).).t p 2 h.(.!.P.x.~ 6 O X X o = ; 1 A f.E./.(.(.(.(.(.(.(.(.(.(./.^.v.k.y.B.V.0.| ).).).).",
").).).).).).).).).).).! K.2.m }  .J p.5.%.%.%.%.%.%.%.#.' v ).).).).).).).).3 / /.(.(.(./.c.a.Y E k.P.!.!./.(.(.(.(.(.(.(.(.(.(.Q.Q.I.j.h.B.M.M.N.M.} a ).).).).",
").).).).).).).).).).I b.h.e i %.' k %.%.%.%.%.%.%.%.%.X._ u ).).).).).).).)./ ^.(.(.(.(.(.(.(.(.(.(.(.(.(.(.(.(.(.(.(.L.L.L.L.H.h.h.e.M.M.M.M.M.8._ t ).).).).).",
").).).).).).).).).~ I.H.5.p _ 8.` g %.%.%.%.%.%.%.%.#.' f ).).).).).).).).! ~.(.(.(.(.(.(.(.(.(.~.b.b.b.b.b.b.b.b.D.F.y.y.y.y.B.N.N.N.M.M.M.m.#.f ).).).).).).).",
").).).).).).).).Y E.x.X.h & k #.v _ %.%.%.%.%.%.%.%.} h ).).).).).).).f @.j.P.Q.(.(.(.(.(.(.(.(.H.9.t.t.t.t.t.t.t.B.M.N.N.N.N.M.M.M.N.N.M.8._ e ).).).).).).).).",
").).).).).).).).2.J.c f k e _ _ j _ o.%.%.%.%.%.%.X.j t ).).).).).).j *.8.} C.(.!.(.(.(.(.(.(.~.e.X.$.$.$.&.8.M.Z.Z.N.M.M.M.M.N.Z.Z.m.$.` u ).).).).).).).).).).",
").).).).).).).W P.;.v j v e ` ' _ a ` %.%.%.%.X._ g p ).).).).).% k n.&.[ *.M.A.x.(.(.(.(.(.^.x.5.f u u u h f k } o.&.M.Z.N.m.&.o.} f & # ).).).).).).).).).).).",
").).).).).).).h.T - t _ a t ' #._ w e i k ) h a ).).).).).).).).` n.} ' 8.o.) ;.W.W.(.(.(.L.x.B.` f %.%.*.%.j f k _ v g k k f f ).).).).).).).).).).).).).).).).",
").).).).).).).~ d _ t v a h X.#.y $ ).).).).).).).).).).).).).o.8.k } 8.{ ' *.d./ v.(.U.v.y.0.X.y } %.%.%.#._ ` | ' _ y @ ).).).).).).).).).).).).).).).).).).).",
").).).).).).k d g g y k s f } _ % ).).).).).).).).).).).).).#.X.u { 8.{ { n.*.' z f.f.e.6._ p v X.%.%.%.%.#.X.8.m.n.$.a ).).).).).).).).).).).).).).).).).).).).",
").).).).).i _ j g f a p % % t ).).).).).).).).).).).).).).).` f $.} h ` 8.} k X.&.#.| _ p k X.%.%.%.%.%.%.#.8.M.N.N.M.X.p ).).).).).).).).).).).).).).).).).).).",
").).).).i X.k f j f % ).).).).).).).).).).).).).).).).).).p | 8.` k $.' ` ` $.j B c } %.%.} %.%.%.%.%.%.%.#.M.M.M.N.N.M.{ ).).).).).).).).).).).).).).).).).).).",
").).).).f f j f f y ).).).).).).).).).).).).).).).).).).).k ' y ` X.f y ' c R 9.I.x.5.%.%.| #.%.%.%.%.%.X.8.M.M.M.y.h.h.e.' ).).).).).).).).).).).).).).).).).).",
").).).).% f k y e ).).).).).).).).).).).).).).).).).).).).W h.F.T.Y.F.G.Y.G.W.(.(.K.7.%.X.' X.%.%.%.%.%.' n.M.V.j.K.~.Q.Q.Y.#.).).).).).).).).).).).).).).).).).",
").).).).).e y ).).).).).).).).).).).).).).).).).).).).).! c.(.(.(.(.(.(.(.(.(.(.(.v.7.$.| ' _ X.$.#.#.X.' m.h.E./.(.(.(.(.(.P.F ).).).).).).).).).).).).).).).).",
").).).).).).).).).).).).).).).).).).).).).).).).).).).U f./.(.(.(.(.(.(.(.(.(.(.K.t.8.X.' ' k j ' } ' ' | B.I.(.(.(.(.(.(.(.(.d.).).).).).).).).).).).).).).).).",
").).).).).).).).).).).).).).).).).).).).).).).).).)./ v.^.(.(.(.(.(.(.(.(./.K.H.y.m.X.| X.X.' h p y y _ %.l.(.(.(.(.(.(.(.(.(.K.P ).).).).).).).).).).).).).).).",
").).).).).).).).).).).).).).).).).).).).).).).).).).J.(.(.(.(.(.(.(.(.(.K.k.t.B.M.8.%.8.%.#.' _ p % ).h #.z.(.(.(.(.(.(.(.(.(.!.^ ).).).).).).).).).).).).).).).",
").).).).).).).).).).).).).).).).).).).).).).).).).K.(.(.(.(.(.(.(.^.v.h.V.B.M.M.M.M.m.*.$.| _ j p ).).).} 0./.(.(.(.(.(.(.(.(.^.R ).).).).).).).).).).).).).).).",
").).).).).).).).).).).).).).).).).).).).).).).).d.(.(.(.(.(.(.~.H.h.V.M.M.M.8.M.m.8.%.#.| v s ).).).).).j 5.D.(.(.(.(.(.(.(.(./.4.).).).).).).).).).).).).).).).",
").).).).).).).).).).).).).).).).).).).).).).).( g.L.I.(.(./.P.S.M.N.M.M.m.&.8.8.%.#.X.' k ).).).).).).).).[ 3.v.(.(.(.(.(.(.(./.h.} ).).).).).).).).).).).).).).",
").).).).).).).).).).).).).).).).).).).).).).)./ 3.,.9.S.v.F.B.N.N.M.M.8.X.} %.$.X.' f f ).).).).).).).).).).' ^ K.(.(.(.(.(.(./.z.} ).).).).).).).).).).).).).).",
").).).).).).).).).).).).).).).).).).).).).).). .$.$.$.%.0.M.N.M.M.8.%.' _ ' ` _ p p ).).).).).).).).).).).).p ] :.d.W././.E.k.j.0.$.).).).).).).).).).).).).).).",
").).).).).).).).).).).).).).).).).).).).).).).} $.%.%.%.&.M.M.m.8.$._ s j p ).).).).).).).).).).).).).).).).).p ` @.4.d.4.6.5.5.8.8.h ).).).).).).).).).).).).).",
").).).).).).).).).).).).).).).).).).).).).).).' $.%.%.%.%.8.8.%.%._ y y ).).).).).).).).).).).).).).).).).).).).p k X.#._ #.%.%.%.8.h ).).).).).).).).).).).).).",
").).).).).).).).).).).).).).).).).).).).).).).s X.%.%.%.%.%.%.%.| k e ).).).).).).).).).).).).).).).).).).).).).).p _ %.} X.%.%.%.8._ ).).).).).).).).).).).).).",
").).).).).).).).).).).).).).).).).).).).).).).).` %.%.%.%.%.%.$.X.8._ ).).).).).).).).).).).).).).).).).).).).).).).p ' #.} X.%.%.%.| } ).).).).).).).).).).).).",
").).).).).).).).).).).).).).).).).).).).).).).).v X.%.%.%.%.%.#.m.N.m.g ).).).).).).).).).).).).).).).).).).).).).).# u X.o.' #.%.%.*.&.).).).).).).).).).).).).",
").).).).).).).).).).).).).).).).).).).).).).).).k X.%.%.%.%.%.8.M.M.M.o.u ).).).).).).).).).).).).).).).).).).).).).% ' X.o.%.%.%.%.8.m.} ).).).).).).).).).).).",
").).).).).).).).).).).).).).).).).).).).).).).)._ %.%.%.%.%.%.%.n.M.M.8.g ).).).).).).).).).).).).).).).).).).).).).t X.%.#.%.%.%.%.*.M.%.).).).).).).).).).).).",
").).).).).).).).).).).).).).).).).).).).).).).)._ %.%.%.%.%.%.%.%.m.8.%.| ).).).).).).).).).).).).).).).).).).).).).j $.%.%.%.%.%.%.%.n.m.k ).).).).).).).).).).",
").).).).).).).).).).).).).).).).).).).).).).).).h o.%.%.%.%.%.%.%.%.%.%.X.).).).).).).).).).).).).).).).).).).).).)._ $.%.%.%.%.%.%.%.8.M._ ).).).).).).).).).).",
").).).).).).).).).).).).).).).).).).).).).).).).).' %.%.%.%.%.%.%.%.%.%._ ).).).).).).).).).).).).).).).).).).).).).j #.%.%.%.%.%.%.%.%.8._ ).).).).).).).).).).",
").).).).).).).).).).).).).).).).).).).).).).).).).f X.%.%.%.%.%.%.%.%.#.a ).).).).).).).).).).).).).).).).).).).).).p } %.%.%.%.%.%.%.%.8.) ).).).).).).).).).).",
").).).).).).).).).).).).).).).).).).).).).).).).).).j $.%.%.%.%.%.%.%.' t ).).).).).).).).).).).).).).).).).).).).).).k #.%.%.%.%.%.%.%.%.p ).).).).).).).).).).",
").).).).).).).).).).).).).).).).).).).).).).).).).).).} %.%.%.%.%.%.#.f ).).).).).).).).).).).).).).).).).).).).).).).).j | %.%.%.%.%.%.X.p ).).).).).).).).).).",
").).).).).).).).).).).).).).).).).).).).).).).).).).).).} %.%.%.%.%.' t ).).).).).).).).).).).).).).).).).).).).).).).).t j } %.%.%.%.%.} % ).).).).).).).).).).",
").).).).).).).).).).).).).).).).).).).).).).).).).).).).s X.%.%.%.$.j ).).).).).).).).).).).).).).).).).).).).).).).).).).).e ' %.%.%.%.X.% ).).).).).).).).).).",
").).).).).).).).).).).).).).).).).).).).).).).).).).).).).k #.%.%.$.f ).).).).).).).).).).).).).).).).).).).).).).).).).).).).p ` #.%.%.#.t ).).).).).).).).).).",
").).).).).).).).).).).).).).).).).).).).).).).).).).).).).e _ } %.%._ ).).).).).).).).).).).).).).).).).).).).).).).).).).).).).).k $.%.%._ ).).).).).).).).).).",
").).).).).).).).).).).).).).).).).).).).).).).).).).).).7 6 m _ | %.o.j ).).).).).).).).).).).).).).).).).).).).).).).).).).).).).s X.%.%.X.h ).).).).).).).).).",
").).).).).).).).).).).).).).).).).).).).).).).).).).).I c.f.-.$.X.$.%._ l ).).).).).).).).).).).).).).).).).).).).).).).).).).).e _ ' $.6.:.M ).).).).).).).).).",
").).).).).).).).).).).).).).).).).).).).).).).).).G u.I.(.Q.4.%.%.#.#.{ ,.I ).).).).).).).).).).).).).).).).).).).).).).).).).).a #.v =.z.b.b.H ).).).).).).).).",
").).).).).).).).).).).).).).).).).).).).).).< Z / K.(.(.(.Q.4.%.%.%.} X.8.x.G ).).).).).).).).).).).).).).).).).).).).).).).).).j #.@.f./.(.(.I.S ).).).).).).).",
").).).).).).).).).).).).).).).).).).).).7 Z ! J./.(.(.(./.z.5.%.%.X._ v ` C.2.).).).).).).).).).).).).).).).).).).).).).).).).t k j -.~.(.(.(.(.K.q ).).).).).).",
").).).).).).).).).).).).).).).).).< Z ^ a.U./.(.(.(.^.!.x.6.%.%.%.X.j u X.8.X.).).).).).).).).).).).).).).).).).).).).).).).)._ X.k 4.(.(.(.(.(.(.R.V ).).).).).",
").).).).).).).).).).).).).).).).G 2.v.(.(.(.(.(.U.I.h.q.%.%.*.*.%.X.' X.%.%._ ).).).).).).).).).).).).).).).).).).).).).).).).' #.#.d.(.(.(.(.(.(.(.E.Y ).).).).",
").).).).).).).).).).).).).).).~ U.(.(.(.(.L.K.K.4.3.5.$.} ' j f f a j } X.` e ).).).).).).).).).).).).).).).).).).).).).).).).)._ ;.K.(.(.(.(.(.(.(.(.E.f.).).).",
").).).).).).).).).).).).).).).d v ' O.6.6.=...M _ _ j h t ).).).).).).).).).).).).).).).).).).).).).).).).).).).).).).).).).).).).L ^.(.(.(.(.(.(.(.(.(.~.U.).).",
").).).).).).).).).).).).).).).).).).).).).).).).).).).).).).).).).).).).).).).).).).).).).).).).).).).).).).).).).).).).).).).).).C P.(.(.(.(.(.(.(.(.(.(.(.L.).",
").).).).).).).).).).).).).).).).).).).).).).).).).).).).).).).).).).).).).).).).).).).).).).).).).).).).).).).).).).).).).).).).).+ ! I.(.(.(.(.(.(.(.(.(.(.(.f.",
").).).).).).).).).).).).).).).).).).).).).).).).).).).).).).).).).).).).).).).).).).).).).).).).).).).).).).).).).).).).).).).).).).< C u.U.(.(.(.(.(.(.(.(.E.L ",
").).).).).).).).).).).).).).).).).).).).).).).).).).).).).).).).).).).).).).).).).).).).).).).).).).).).).).).).).).).).).).).).).).).).).8 Y k./.(.(.(.(.!.F   ",
").).).).).).).).).).).).).).).).).).).).).).).).).).).).).).).).).).).).).).).).).).).).).).).).).).).).).).).).).).).).).).).).).).).).).).).).; ; > , 0 6 . )."
};
