/* XPM */
static char *result[] = {
/* columns rows colors chars-per-pixel */
"80 80 186 2 ",
"   c #948D78",
".  c #959073",
"X  c #9E9E7D",
"o  c #9FA27E",
"O  c #A7A57B",
"+  c #AAA67E",
"@  c #86778C",
"#  c #887895",
"$  c #887798",
"%  c #8A7A9C",
"&  c #8E7EA2",
"*  c #948A8C",
"=  c #9E9883",
"-  c #8F809E",
";  c #94889E",
":  c #9A9294",
">  c #9E949C",
",  c #A49F8F",
"<  c #A29A96",
"1  c #A89F9D",
"2  c #A9A787",
"3  c #A9A986",
"4  c #ACAA84",
"5  c #A6A58C",
"6  c #B1AE85",
"7  c #B4B38B",
"8  c #B2B98E",
"9  c #A8A093",
"0  c #ACAC93",
"q  c #ACA49F",
"w  c #B3AF9D",
"e  c #B2B192",
"r  c #B3BA95",
"t  c #BABA95",
"y  c #B5B49B",
"u  c #BCB99E",
"i  c #8F81A3",
"p  c #9284A4",
"a  c #9688A7",
"s  c #9C8FA5",
"d  c #9485AA",
"f  c #9789AB",
"g  c #9A8CAD",
"h  c #9D92A7",
"j  c #9E91AE",
"k  c #9B8DB1",
"l  c #9E91B3",
"z  c #9F93B8",
"x  c #A39AA4",
"c  c #A89FA7",
"v  c #A196AA",
"b  c #A295B5",
"n  c #A59AB5",
"m  c #A295B9",
"M  c #A69BBB",
"N  c #A99DBD",
"B  c #A9A2A7",
"V  c #ACA8A7",
"C  c #ABA4AB",
"Z  c #AFA9A9",
"A  c #B2ADAB",
"S  c #B5B4A3",
"D  c #B9B4A2",
"F  c #B6BAA3",
"G  c #BEBAA1",
"H  c #B6B7AB",
"J  c #AEA8B1",
"K  c #ACA1BD",
"L  c #B2ABB3",
"P  c #B3AABC",
"I  c #B5B0B7",
"U  c #B9B5B6",
"Y  c #BBBAB3",
"T  c #B9B3BA",
"R  c #C1BCA5",
"E  c #C0BDBF",
"W  c #B8C196",
"Q  c #BDC59E",
"!  c #BFC4A1",
"~  c #C2C397",
"^  c #C2C39F",
"/  c #C1C99F",
"(  c #C2C7A6",
")  c #C4CAA4",
"_  c #CBCBA7",
"`  c #C6C4AC",
"'  c #C7C8AA",
"]  c #CCD4AB",
"[  c #C3C4B3",
"{  c #CACCB4",
"}  c #C4C4B9",
"|  c #CAC6B9",
" . c #CED4B4",
".. c #CED0B8",
"X. c #D1D7B5",
"o. c #D3DAB4",
"O. c #D1D5BC",
"+. c #D4D9BD",
"@. c #D8DEBE",
"#. c #DBE2BE",
"$. c #AC9FC1",
"%. c #AEA4C2",
"&. c #B1A6C4",
"*. c #B3ABC5",
"=. c #B3A7C9",
"-. c #B6ACC9",
";. c #B8AFCA",
":. c #BEB7C6",
">. c #BEB9C5",
",. c #BCB3CD",
"<. c #BEB5D0",
"1. c #C3BEC8",
"2. c #C0B7D1",
"3. c #C5BCD5",
"4. c #C8BFD7",
"5. c #C7BED8",
"6. c #C8BFD9",
"7. c #CBCAC4",
"8. c #C8C5C8",
"9. c #D0CDCE",
"0. c #CFD0C3",
"q. c #D5D8C5",
"w. c #D3D2CB",
"e. c #DADBCC",
"r. c #C7C0D7",
"t. c #CAC3D4",
"y. c #CECAD4",
"u. c #CCC3DC",
"i. c #D1CDD3",
"p. c #D2CBDE",
"a. c #D5D2D3",
"s. c #D8D6D5",
"d. c #DBDBD4",
"f. c #DAD6DE",
"g. c #DDDBDA",
"h. c #DBE1C4",
"j. c #DEE3CB",
"k. c #DFE0D3",
"l. c #E3EAC3",
"z. c #E1E5CD",
"x. c #E4E9CC",
"c. c #E8EECD",
"v. c #E2E3D5",
"b. c #E5E9D2",
"n. c #E9EED5",
"m. c #E4E4DA",
"M. c #E6E9DA",
"N. c #EAEDDD",
"B. c #ECF2D5",
"V. c #EDF2DB",
"C. c #F0F5DD",
"Z. c #CFC6E0",
"A. c #D0C7E1",
"S. c #D5CDE6",
"D. c #D6CEE8",
"F. c #D7D0E4",
"G. c #D9D3E2",
"H. c #DDD9E2",
"J. c #D7D0E8",
"K. c #D8D0E9",
"L. c #E1DEE2",
"P. c #E2DDEB",
"I. c #E4E3E3",
"U. c #E8E7E6",
"Y. c #EDEEE4",
"T. c #E5E2ED",
"R. c #E9E7EB",
"E. c #EEEDED",
"W. c #EEF0E2",
"Q. c #EFF0E9",
"!. c #F2F5E4",
"~. c #F5F9E6",
"^. c #F3F5EB",
"/. c #F6F9ED",
"(. c #F8FBED",
"). c #E8E3F2",
"_. c #EDEAF3",
"`. c #F4F3F4",
"'. c #F7F9F2",
"]. c #F9FBF1",
"[. c #FAFCF1",
"{. c #FAFCF4",
"}. c #F6F4F9",
"|. c #FDFEFA",
" X c #FFFFFE",
".X c None",
/* pixels */
".X.X.X.X.X.X.X.X.X.X.X.X.X.X.X.X.X.X.X.X.X.X.X.X.X.X.X.X.X.X.X.X.X.X.X.X.X.X.X.X.X.X.X.X.X.X.X.X.X.X.X.X.X.X.X.X.X.X.X.X.X.X.X.X.X.X.X.X.X.X.X.X.X.X.X.X.X.X.X.X",
".X.X.X.X.X.X.X.X.X.X.X.X.X.X.X.X.X.X.X.X.X.X.X.X.X.X.X.X.X.X.X.X.X.X.X.X.X.X.X.X.X.X.X.X.X.X.X.X.X.X.X.X.X.X.X.X.X.X.X.X.X.X.X.X.X.X.X.X.X.X.X.X.X.X.X.X.X.X.X.X",
".X.X.X.X.X.X.X.X.X.X.X.X.X.X.X.X.X.X.X.X.X.X.X.X.X.X.X.X.X.X] l. Xb.0 .X.X.X.X.X.X.X.X.X.X.X.X.X.X.X.X.X.X.X.X.X.X.X.X.X.X.X.X.X.X.X.X.X.X.X.X.X.X.X.X.X.X.X.X.X",
".X.X.X.X.X.X.X.X.X.X.X.X.X.X.X.X.X.X.X.X.X.X.X.X.X.X.X] ~.Y.!./. X'.9.M .X.X.X.X.X.X.X.X.X.X.X.X.X.X.X.X.X.X.X.X.X.X.X.X.X.X.X.X.X.X.X.X.X.X.X.X.X.X.X.X.X.X.X.X",
".X.X.X.X.X.X.X.X.X.X.X.X.X.X.X.X.X.X.X.X.X.X.X.X.X! x.'. X X X X X XP.u.M .X.X.X.X.X.X.X.X.X.X.X.X.X.X.X.X.X.X.X.X.X.X.X.X.X.X.X.X.X.X.X.X.X.X.X.X.X.X.X.X.X.X.X",
".X.X.X.X.X.X.X.X.X.X.X.X.X.X.X.X.X.X.X.X.X.X.X.X.XM. X X X X X X X|.m.F.=..X.X.X.X.X.X.X.X.X.X.X.X.X.X.X.X.X.X.X.X.X.X.X.X.X.X.X.X.X.X.X.X.X.X.X.X.X.X.X.X.X.X.X",
".X.X.X.X.X.X.X.X.X.X.X.X.X.X.X.X.X.X.X.X.X.X.X.Xh. X X X X X X X|.N.F.D.r.k..X.X.X.X.X.X.X.X.X.X.X.X.X.X.X.X.X.X.X.X.X.X.X.X.X.X.X.X.X.X.X.X.X.X.X.X.X.X.X.X.X.X",
".X.X.X.X.X.X.X.X.X.X.X.X.X.X.X.X.X.X.X.X.X.X.X.X/. X X X X X X|.N.G.D.S.u.^. X X X{.~.~.!.W.N.M.|.!.l.o..X.X.X.X.X.X.X.X.X.X.X.X.X.X.X.X.X.X.X.X.X.X.X.X.X.X.X.X",
".X.X.X.X.X.X.X.X.X.X.X.X.X.X.X.X.X.X.X.X.X.X.XX.{. X X X|.|.^.n.G.D.S.S.u.}. X X X X X X X X X X X|.].^./.l.W .X.X.X.X.X.X.X.X.X.X.X.X.X.X.X.X.X.X.X.X.X.X.X.X.X",
".X.X.X.X.X.X.X.X.X.X.X.X.X.X.X.X.X.X.X.X.X.X.XO./.[.[.!.b.b.g.S.S.S.S.D.3.v.[.[. X X X X X X X X X X X].B.h.( r O .X.X.X.X.X.X.X.X.X.X.X.X.X.X.X.X.X.X.X.X.X.X.X",
".X.X.X.X.X.X.X.X.X.X.X.X.X.X.X.X.X.X.X.X.X.X.Xt.d.v.v.g.K.D.S.S.S.S.S.S.N 2.v.v._.^.~.[. X X X X X X X X X X X!.h.^ .X.X.X.X.X.X.X.X.X.X.X.X.X.X.X.X.X.X.X.X.X.X",
".X.X.X.X.X.X.X.X.X.X.X.X.X.X.X.X.X.X.X.X.X.X.X<.S.D.D.:.1 t.D.S.S.S.D.u.b *.5.S.S.f.d.L.).R.C.!.].]. X X X X X X X[.M..X.X.X.X.X.X.X.X.X.X.X.X.X.X.X.X.X.X.X.X.X",
".X.X.X.X.X.X.X.X.X.X.X.X.X.X.X.X.X.X.X.X.X.X.X%.A.D.3.  * u.D.S.S.S.S.&.l 3.,.,.u.S.D.D.S.S.f.s.b.|. X X X X X X X X X X.X.X.X.X.X.X.X.X.X.X.X.X.X.X.X.X.X.X.X.X",
".X.X.X.X.X.X.X.X.X.X.X.X.X.X.X.X.X.X.X.X.X.X.X.X,.S.A.t.p.S.D.J.S.u.,.l M <.3.3.,.3.u.A.S.D.D.[ n. X X X X X X X X X X Xb..X.X.X.X.X.X.X.X.X.X.X.X.X.X.X.X.X.X.X",
".X.X.X.X.X.X.X.X.X.X.X.X.X.X.X.X.X.X.X.X.X.X.X.XK 3.S.D.D.S.u.<.;.,.l M m &.&.3.4.2.,.,.5.u.u.F M.^.~.[. X X X X X X X X!.+ .X.X.X.X.X.X.X.X.X.X.X.X.X.X.X.X.X.X",
".X.X.X.X.X.X.X.X.X.X.X.X.X.X.X.X.X.X.X.X.X.X.X.XM.P 6.K.A.,.,.f M N f z m M &.N ,.4.4.3.,.,.I ( b.V.!./. X X X X X X X X|.' +..X.X.X.X.X.X.X.X.X.X.X.X.X.X.X.X.X",
".X.X.X.X.X.X.X.X.X.X.X.X.X.X.X.X.X.X.X.X.X.X.X^. Xk.K b b M 3.*.N p d f k l %.&.M $.,.3.,.%.U V. X X X X X X X X X X X X|.V.].M.! .X.X.X.X.X.X.X.X.X.X.X.X.X.X.X",
".X.X.X.X.X.X.X.X.X.X.X.X.X.X.X.X.X.X.X.X.X.X.X/. X|._.m.C &.,.%.p % d d d p n 4.,.%.N m l g 9./.|. X X X X X X X X X|. X X|. X XN..X.X.X.X.X.X.X.X.X.X.X.X.X.X.X",
".X.X.X.X.X.X.X.X.X.X.X.X.X.X.X.X.X.X.X.X.X.X.X/. X X X Xn.B s N ,.,.K p i p *.4.4.3.3.3.3.4.S.v.b.Y.].[.[.[.[.[.[.C.V. X X X X X XN..X.X.X.X.X.X.X.X.X.X.X.X.X.X",
".X.X.X.X.X.X.X.X.X.X.X.X.X.X.X.X.X.X.X.X.X.X.Xb. X X X~.M.e.i.4.3.3.4.3.,.,.2.4.4.4.4.4.4.u.S.S.S.S.g.v.v.v.v.v.z.B.|. X X X X X X XX..X.X.X.X.X.X.X.X.X.X.X.X.X",
".X.X.X.X.X.X.X.X.X.X.X.X.X.X.X.X.X.X.X.X.X.X.XQ x.C.L.w.t.3.4.,.-.3.4.4.4.4.4.4.4.4.4.4.4.4.A.S.S.S.S.S.D.D.D.A.m.{. X X X X X X X XW.7 .X.X.X.X.X.X.X.X.X.X.X.X",
".X.X.X.X.X.X.X.X.X.X.X.X.X.X.X.X.X.X.X.X.X.X.X.Xx 1.4.4.4.4.2.%.-.4.4.4.4.4.2.3.4.4.4.4.4.4.5.A.S.S.S.S.D.S.u.u.g.^.n.#.h.z.B.C. X X|.o.O .X.X.X.X.X.X.X.X.X.X.X",
".X.X.X.X.X.X.X.X.X.X.X.X.X.X.X.X.X.X.X.X.X.X.X.X.Xb -.<.2.,.K k &.3.3.4.4.4.4.,.3.3.4.4.4.4.4.4.4.u.u.6.5.2.u.D.u.[ / X.!.{.|.|. X X X!.o.6 .X.X.X.X.X.X.X.X.X.X",
".X.X.X.X.X.X.X.X.X.X.X.X.X.X.X.X.X.X.X.X.X.X) @.!.^.T l %.N m f g b -.3.3.4.4.3.-.,.4.4.4.4.4.4.4.;.K l & m A.t.}  .V. X X X X X X X X~.~.C..X.X.X.X.X.X.X.X.X.X",
".X.X.X.X.X.X.X.X.X.X.X.X.X.X.X.X.X.X.X.X.XX.V.|. X Xb.M %.P 1 n N l l %.,.<.4.<.-.&.,.,.3.4.4.4.3.,.-.&.m : Y { n.{. X X X X X X X X X{.!.{.C..X.X.X.X.X.X.X.X.X",
".X.X.X.X.X.X.X.X.X.X.Xu { .X.X.X.X.X.X.XV.]. X X].B.a.,.%.*.e.[ q &.l f b &.,.-.-.%.M %.-.,.,.,.,.-.K b < t z.(. X X X X X X X X X X X XC.{.|.z..X.X.X.X.X.X.X.X",
".X.X.X.X.X.X.X.X.X.X.X9 T..X.X.X.X.X#.C. X X|.V.d.t.4.4.3.:.q.{.N.G J - .X& m M M z p k M &.-.%.N n h 5 X./. X X X X X X X X X X X X X X|. X X!.( .X.X.X.X.X.X.X",
".X.X.X.X.X.X.X.X.X.X.X, u.U.r 8 #.(. X|.[.E.z.y.4.4.4.4.4.4.E q.{.|.j.y t .X.X@ @ ; x c x c C J A y q.{. X X X X X X X X X X X X X X X[.[.}.Y.b.7..X.X.X.X.X.X.X",
".X.X.X.X.X.X.X.X.X.Xl.8.&.S.w.8 c.~.^.I.e.t.4.4.4.4.4.4.4.4.4.q { ^.{. X~.z.` D 2 2 D R G G ` { N. X X X X X X X X X X X X X X X~.~.E.v.k.F.S.D.,..X.X.X.X.X.X.X",
".X.X.X.X.X.X.X.Xo.n.(.i.N 6.t.Z T w.9.4.4.4.4.4.4.4.4.4.4.4.4.*.= z.|. X X X X X~.~. X X X X X X X X X X X X X X X X X X X|.C.V.g.g.S.D.D.S.S.u.j .X.X.X.X.X.X.X",
".X.X.X.X.X.X.Xx.^.|.C.7.&.4.4.,.k 3.4.4.4.4.4.4.4.4.4.4.4.4.,.S +.'. X X X X X X X X|.!. X|.|.|.|.|.|.|.|.|.|.|.V.B.B.B.B.M.f.f.S.D.u.3.&.M l p .X.X.X.X.X.X.X.X",
".X.X.X.X.X .V.Y.N.z.>.:.4.4.4.,.j 4.4.4.4.4.4.4.4.4.4.3.<.;.A h.|. X X X X X X X X X^.h.b.b.b.b.b.b.b.b.b.b.b.H.F.F.F.F.F.F.D.D.S.Z.&.l & .X.X.X.X.X.X.X.X.X.X.X",
".X.X.X.X..^.0.w V 4.m -.,.,.,.%.N ,.-.&.-.,.,.,.K K K b d a | (.^. X X X X X X X X{.m.S.K.K.K.K.S.S.S.S.S.S.S.S.S.S.S.D.D.K.S.u.&.M f .X.X.X.X.X.X.X.X.X.X.X.X.X",
".X.X.Xu ^.| L N m 4.N &.%.%.m m l p d .X.X.X.X.X.X.X.X$ g 3.y.7.Y. X X X X X X X|.M.A.&.N &.=.,.<.u.S.S.S.S.S.S.S.S.A.u.4.<.N K l f .X.X.X.X.X.X.X.X.X.X.X.X.X.X",
".X.X.X{ e.> K l %.4.%.-.&.&.,.M .X.X.X.X.X.X.X.X.X.X.X&.u.5.<.u.n.x.]. X X X X|.N.G.u.f .X% % f M M &.,.<.<.<.<.&.N b p p &.&.&.&.N .X.X.X.X.X.X.X.X.X.X.X.X.X.X",
".X.X.X+.B n n b K 4.-.&.<.4.4.b .X.X.X.X.X.X.X.X.X.X,.u.<.%.A.3.K w./.|. X|.^.b.G.S.;.g -.,.,.,.,.,.2.3.3.3.3.3.-.b k M M ,.,.,.&.$..X.X.X.X.X.X.X.X.X.X.X.X.X.X",
".X.Xl n n n &.a g 3.N M 3.3.&.i .X.X.X.X.X.X.X.X.X,.u.&.;.u.,.%.3.A.7.x.(.M.K.u.<.*.n 3.4.4.4.3.,.4.4.4.4.4.4.&.M ,.5.S.S.S.S.A.-.M .X.X.X.X.X.X.X.X.X.X.X.X.X.X",
".Xg *.M n M g g p l % l -.&.l .X.X.X.X.X.X.X.X.X,.u.K -.u.&.-.A.u.%.*.d.d.2.N L T s.d.4.4.4.4.3.%.3.4.4.4.4.*.M 4.S.S.S.S.S.S.S.,.l .X.X.X.X.X.X.X.X.X.X.X.X.X.X",
"p ,.K b b M j % .X.X.X.X.X.X.X.X.X.X.X.X.X.X.X.X;.m -.<.m <.u.-.%.<.3.%.b Y 8.M.[. X~.a.4.4.4.3.%.,.4.4.4.-.M 3.S.S.S.S.S.S.S.S.5..X.X.X.X.X.X.X.X.X.X.X.X.X.X.X",
"p l b n l k % .X.X.X.X.X.X.X.X.X.X.X.X.X.X.X.Xn g -.<.M 3.<.M &.3.*.v | g.^.|. X X X XU.4.4.4.4.%.&.4.4.3.N 4.K.b.b.b.b.b.G.S.D.A.-..X.X.X.X.X.X.X.X.X.X.X.X.X.X",
".Xp %.p p .X.X.X.X.X.X.X.X.X.X.X.X.X.X.X.X.X.X- &.%.j 3.%.g &.*.n Y b.|. X X X X X X X~.9.3.4.4.%.M 2.3.;.,.m.].|.|.|.|.|.V.m.F.D.4..X.X.X.X.X.X.X.X.X.X.X.X.X.X",
".X.Xg .X.X.X.X.X.X.X.X.X.X.X.X.X.X.X.X.X.X.X.X.Xn # K n $ %.n w.!. X X X X X X X X X X~.9.3.4.2.-.N N P U L./. X X X X X X|.N.G.D.Z.g .X.X.X.X.X.X.X.X.X.X.X.X.X",
".X.X.X.X.X.X.X.X.X.X.X.X.X.X.X.X.X.X.X.X.X.X.X.X.X.X.X.X.X.X X X X X X X X X X X X X|.N.p.4.4.2.,.,.M : +. X X X X X X X X!.f.D.S.S.M .X.X.X.X.X.X.X.X.X.X.X.X.X",
".X.X.X.X.X.X.X.X.X.X.X.X.X.X.X.X.X.X.X.X.X.X.X.X.X.X.X.X.X X X X X X X X X X X X X XW.G.S.6.4.4.4.,.&.C N. X X X X X X X~.g.D.Z.S.S.m .X.X.X.X.X.X.X.X.X.X.X.X.X",
".X.X.X.X.X.X.X.X.X.X.X.X.X.X.X.X.X.X.X.X.X.X.X.X.X.X.X.X X X X X X X X X X|.|.|.^.n.f.S.S.A.4.4.3.-.b I /. X X X X X X XV.F.S.u.S.u.f .X.X.X.X.X.X.X.X.X.X.X.X.X",
".X.X.X.X.X.X.X.X.X.X.X.X.X.X.X.X.X.X.X.X.X.X.X.X.X.X.X(. X X X X X X[.'.`.M.b.v.K.S.u.Z.S.u.4.3.-.M # R  X X X X X X X!.f.D.u.3.Z.=..X.X.X.X.X.X.X.X.X.X.X.X.X.X",
".X.X.X.X.X.X.X.X.X.X.X.X.X.X.X.X.X.X.X.X.X.X.X.X.X.X.Xg.Q.|.~.E._._.m.g.S.S.D.D.u.,.,.u.u.3.,.&.b & .X{  X X X X X X~.g.D.S.-.3.%.d .X.X.X.X.X.X.X.X.X.X.X.X.X.X",
".X.X.X.X.X.X.X.X.X.X.X.X.X.X.X.X.X.X.X.X.X.X.X.X.X.Xm 3.y.f.g.F.S.S.D.D.S.S.u.,.-.,.3.4.3.,.M b .X.X.X+. X X X X X~.g.S.D.u.&.&.f .X.X.X.X.X.X.X.X.X.X.X.X.X.X.X",
".X.X.X.X.X.X.X.X.X.X.X.X.X.X.X.X.X.X.X.X.X.X.X.X.X.Xk ,.4.4.Z.S.D.S.S.A.4.,.m k %.-.;.-.m p .X.X.X.X.XO. X X X X(.d.A.D.D.4.g d .X.X.X.X.X.X.X.X.X.X.X.X.X.X.X.X",
".X.X.X.X.X.X.X.X.X.X.X.X.X.X.X.X.X.X.X.X.X.X.X.X.X.X.X&.4.4.4.Z.S.u.<.&.f % & m m & .X.X.X.X.X.X.X.X.X.Xs._.`.M.e.4.A.S.D.6.k m .X.X.X.X.X.X.X.X.X.X.X.X.X.X.X.X",
".X.X.X.X.X.X.X.X.X.X.X.X.X.X.X.X.X.X.X.X.X.X.X.X.X.X.Xb 3.4.4.4.3.,.%.m g % .X.X.X.X.X.X.X.X.X.X.X.X.X.X.XK 3.4.4.4.u.S.D.u.,.A.,.N .X.X.X.X.X.X.X.X.X.X.X.X.X.X",
".X.X.X.X.X.X.X.X.X.X.X.X.X.X.X.X.X.X.X.X.X.X.X.X.X.X.Xp ,.4.4.4.,.,.u.u.u.-..X.X.X.X.X.X.X.X.X.X.X.X.X.X.X.XN 3.4.4.4.A.D.A.u.D.S.u.,.N .X.X.X.X.X.X.X.X.X.X.X.X",
".X.X.X.X.X.X.X.X.X.X.X.X.X.X.X.X.X.X.X.X.X.X.X.X.X.X.Xp ,.4.4.4.3.u.S.S.D.S.,..X.X.X.X.X.X.X.X.X.X.X.X.X.X.Xf N 3.4.4.u.S.S.S.S.S.D.S.5.%..X.X.X.X.X.X.X.X.X.X.X",
".X.X.X.X.X.X.X.X.X.X.X.X.X.X.X.X.X.X.X.X.X.X.X.X.X.X.XM 4.4.4.4.4.u.S.S.S.S.S.,..X.X.X.X.X.X.X.X.X.X.X.X.X.X.Xk -.4.4.u.S.S.S.S.S.S.S.S.u.%..X.X.X.X.X.X.X.X.X.X",
".X.X.X.X.X.X.X.X.X.X.X.X.X.X.X.X.X.X.X.X.X.X.X.X.X.X.X%.4.4.4.4.4.u.S.S.S.S.S.A.%..X.X.X.X.X.X.X.X.X.X.X.X.X.X.X%.4.4.4.A.S.S.S.S.S.S.S.S.u..X.X.X.X.X.X.X.X.X.X",
".X.X.X.X.X.X.X.X.X.X.X.X.X.X.X.X.X.X.X.X.X.X.X.X.X.X.Xl 3.4.4.4.4.u.S.S.S.S.S.S.,..X.X.X.X.X.X.X.X.X.X.X.X.X.X.Xb 3.4.4.u.S.S.S.S.S.S.S.D.u.%..X.X.X.X.X.X.X.X.X",
".X.X.X.X.X.X.X.X.X.X.X.X.X.X.X.X.X.X.X.X.X.X.X.X.X.X.Xd -.4.4.4.4.4.A.S.S.S.S.u.%..X.X.X.X.X.X.X.X.X.X.X.X.X.X.X.X;.4.4.4.S.S.S.S.S.S.S.S.A.3..X.X.X.X.X.X.X.X.X",
".X.X.X.X.X.X.X.X.X.X.X.X.X.X.X.X.X.X.X.X.X.X.X.X.X.X.X.Xn 4.4.4.4.4.u.S.S.S.Z.3.%..X.X.X.X.X.X.X.X.X.X.X.X.X.X.X.XM 3.4.4.u.S.S.S.S.S.S.S.D.;..X.X.X.X.X.X.X.X.X",
".X.X.X.X.X.X.X.X.X.X.X.X.X.X.X.X.X.X.X.X.X.X.X.X.X.X.X.Xd ,.4.4.4.4.5.S.S.A.4.2.b .X.X.X.X.X.X.X.X.X.X.X.X.X.X.X.X.X%.3.4.6.S.S.S.S.S.S.S.D.3..X.X.X.X.X.X.X.X.X",
".X.X.X.X.X.X.X.X.X.X.X.X.X.X.X.X.X.X.X.X.X.X.X.X.X.X.X.X.XN 3.4.4.4.4.u.A.4.3.K .X.X.X.X.X.X.X.X.X.X.X.X.X.X.X.X.X.Xf M <.4.u.S.D.S.S.S.S.D.u..X.X.X.X.X.X.X.X.X",
".X.X.X.X.X.X.X.X.X.X.X.X.X.X.X.X.X.X.X.X.X.X.X.X.X.X.X.X.X.X%.3.4.4.4.6.6.4.,.f .X.X.X.X.X.X.X.X.X.X.X.X.X.X.X.X.X.X.X.Xg N 2.u.S.S.S.S.S.D.u.b .X.X.X.X.X.X.X.X",
".X.X.X.X.X.X.X.X.X.X.X.X.X.X.X.X.X.X.X.X.X.X.X.X.X.X.X.X.X.Xf -.4.4.4.4.4.3.&..X.X.X.X.X.X.X.X.X.X.X.X.X.X.X.X.X.X.X.X.X.X.Xg %.3.u.D.S.S.D.u.g .X.X.X.X.X.X.X.X",
".X.X.X.X.X.X.X.X.X.X.X.X.X.X.X.X.X.X.X.X.X.X.X.X.X.X.X.X.X.X.Xb 3.4.4.4.4.2.g .X.X.X.X.X.X.X.X.X.X.X.X.X.X.X.X.X.X.X.X.X.X.X.X.Xp M u.D.S.D.A.g .X.X.X.X.X.X.X.X",
".X.X.X.X.X.X.X.X.X.X.X.X.X.X.X.X.X.X.X.X.X.X.X.X.X.X.X.X.X.X.Xd ,.4.4.4.4.,.M .X.X.X.X.X.X.X.X.X.X.X.X.X.X.X.X.X.X.X.X.X.X.X.X.X.X.Xn A.D.S.S.%..X.X.X.X.X.X.X.X",
".X.X.X.X.X.X.X.X.X.X.X.X.X.X.X.X.X.X.X.X.X.X.X.X.X.X.X.X.X.X.X.XM 4.4.4.4.&.l .X.X.X.X.X.X.X.X.X.X.X.X.X.X.X.X.X.X.X.X.X.X.X.X.X.X.X.X&.S.S.S.2.& .X.X.X.X.X.X.X",
".X.X.X.X.X.X.X.X.X.X.X.X.X.X.X.X.X.X.X.X.X.X.X.X.X.X.X.X.X.X.X.Xg 4.4.4.4.K % .X.X.X.X.X.X.X.X.X.X.X.X.X.X.X.X.X.X.X.X.X.X.X.X.X.X.X.Xd ,.S.S.Z.M l .X.X.X.X.X.X",
".X.X.X.X.X.X.X.X.X.X.X.X.X.X.X.X.X.X.X.X.X.X.X.X.X.X.X.X.X.X.XF j 4.4.4.4.K * .X.X.X.X.X.X.X.X.X.X.X.X.X.X.X.X.X.X.X.X.X.X.X.X.X.X.X.X.Xl A.S.S.<.*.g .X.X.X.X.X",
".X.X.X.X.X.X.X.X.X.X.X.X.X.X.X.X.X.X.X.X.X.X.X.X.X.X.X.X.X.Xx.^.:.3.4.4.4.b A ~ .X.X.X.X.X.X.X.X.X.X.X.X.X.X.X.X.X.X.X.X.X.X.X.X.X.X.X.XM u.D.D.u.,.,.l .X.X.X.X",
".X.X.X.X.X.X.X.X.X.X.X.X.X.X.X.X.X.X.X.X.X.X.X.X.X.X.Xx.V.|. X|.e.,.4.4.4.M A B.O..X.X.X.X.X.X.X.X.X.X.X.X.X.X.X.X.X.X.X.X.X.X.X.X.X.X.X%.*.a.g.d.>.,.*..X.X.X.X",
".X.X.X.X.X.X.X.X.X.X.X.X.X.X.X.X.X.X.X.X.X.X.Xo ) ..N.]. X X X!.i.3.,.4.4.&.A [.|.j..X.X.X.X.X.X.X.X.X.X.X.X.X.X.X.X.X.X.X.X.X.X.X.X.X.Xl H c.~.~.U.K &..X.X.X.X",
".X.X.X.X.X.X.X.X.X.X.X.X.X.X.X.X.X.X.X.X.X. ! v.^. X X X|.V.n.a.4.4.N 3.4.K n m.|.].h..X.X.X.X.X.X.X.X.X.X.X.X.X.X.X.X.X.X.X.X.X.X.X.X.X5  .|. X X Xw.p .X.X.X.X",
".X.X.X.X.X.X.X.X.X.X.X.X.X.X.X.X.X.X. 5 ( z.{. X X|.`.b.a.t.t.4.3.3.m M %.g -.4.i.!.W.4 .X.X.X.X.X.X.X.X.X.X.X.X.X.X.X.X.X.X.X.X.X.X.X.X) '. X X X X|.} .X.X.X.X",
".X.X.X.X.X.X.X.X.X.X.X.X.X.X.Xy D ..z.|. X X|./.U.e.t.4.3.2.,.*.&.-.&.m N ,.4.4.4.a.I.} .X.X.X.X.X.X.X.X.X.X.X.X.X.X.X.X.X.X.X.X.X.X.X .^. X X X X X X]._ .X.X.X",
".X.X.X.X.X.X.X.X.X.X.X.X.X.X.Xf.T.P.P.P.P.P.g.w.4.3.,.,.%.g p p p f g M &.,.,.,.,.%.b d .X.X.X.X.X.X.X.X.X.X.X.X.X.X.X.X.X.X.X.X.X.Xo./. X X X X X X X X/.^ .X.X",
".X.X.X.X.X.X.X.X.X.X.X.X.X.X.Xp a a l m N %.%.%.%.M k p d .X.X.X.X.X.X.X.X.X.X.X.X.X.X.X.X.X.X.X.X.X.X.X.X.X.X.X.X.X.X.X.X.X.X.X.Xh.!. X X X X X X X X X XM.3 .X",
".X.X.X.X.X.X.X.X.X.X.X.X.X.X.X.X.X.X.X.X.X.X.X.X.X.X.X.X.X.X.X.X.X.X.X.X.X.X.X.X.X.X.X.X.X.X.X.X.X.X.X.X.X.X.X.X.X.X.X.X.X.X.Xr !.|. X X X X X X X X X X X^._ .X",
".X.X.X.X.X.X.X.X.X.X.X.X.X.X.X.X.X.X.X.X.X.X.X.X.X.X.X.X.X.X.X.X.X.X.X.X.X.X.X.X.X.X.X.X.X.X.X.X.X.X.X.X.X.X.X.X.X.X.X.X.X.X.Xr ] n.]. X X X X X X X X X X~.e .X",
".X.X.X.X.X.X.X.X.X.X.X.X.X.X.X.X.X.X.X.X.X.X.X.X.X.X.X.X.X.X.X.X.X.X.X.X.X.X.X.X.X.X.X.X.X.X.X.X.X.X.X.X.X.X.X.X.X.X.X.X.X.X.X.X.X) o.V.|. X X X X X X|.M.! X .X",
".X.X.X.X.X.X.X.X.X.X.X.X.X.X.X.X.X.X.X.X.X.X.X.X.X.X.X.X.X.X.X.X.X.X.X.X.X.X.X.X.X.X.X.X.X.X.X.X.X.X.X.X.X.X.X.X.X.X.X.X.X.X.X.X.X.X.X/ h.x.~. X].b.{ 0 3 .X.X.X",
".X.X.X.X.X.X.X.X.X.X.X.X.X.X.X.X.X.X.X.X.X.X.X.X.X.X.X.X.X.X.X.X.X.X.X.X.X.X.X.X.X.X.X.X.X.X.X.X.X.X.X.X.X.X.X.X.X.X.X.X.X.X.X.X.X.X.X.X8 W Q e = . .X.X.X.X.X.X"
};
