/* XPM */
static char *result[] = {
/* columns rows colors chars-per-pixel */
"80 80 184 2 ",
"   c #938F63",
".  c #928968",
"X  c #9A956A",
"o  c #8A8177",
"O  c #948F72",
"+  c #9E9874",
"@  c #A1A077",
"#  c #A9A77D",
"$  c #8C7F8D",
"%  c #827193",
"&  c #877799",
"*  c #8B7C9D",
"=  c #8D7DA1",
"-  c #968A9E",
";  c #9E9691",
":  c #9A939C",
">  c #A49C8E",
",  c #A29B9D",
"<  c #A7A381",
"1  c #A8A485",
"2  c #AAAA83",
"3  c #ADAB8C",
"4  c #B1AA8A",
"5  c #ADB48A",
"6  c #B1B086",
"7  c #B4B78D",
"8  c #A5A29A",
"9  c #AEA79B",
"0  c #AAAB9E",
"q  c #B4B390",
"w  c #B4BA93",
"e  c #B4B99D",
"r  c #BCBC9D",
"t  c #8F80A1",
"y  c #9384A5",
"u  c #9689A7",
"i  c #9484AB",
"p  c #9789A9",
"a  c #9A8CAC",
"s  c #9E93A6",
"d  c #9D91AE",
"f  c #9788B0",
"g  c #9B8DB2",
"h  c #9E91B4",
"j  c #A19AA0",
"k  c #A195AB",
"l  c #A59CAC",
"z  c #A195B4",
"x  c #A499B5",
"c  c #A296B9",
"v  c #A59BBC",
"b  c #A99EBD",
"n  c #AFA7AB",
"m  c #B8B6A9",
"M  c #A6A0B4",
"N  c #ABA3B3",
"B  c #ACA2BE",
"V  c #B4ADB3",
"C  c #B1A7BC",
"Z  c #B3ACBC",
"A  c #BFBDB6",
"S  c #BAB6B9",
"D  c #C1BEB3",
"F  c #BCC29D",
"G  c #BCC3A0",
"H  c #C5C79E",
"J  c #C4C5A3",
"K  c #C3CAA4",
"L  c #C8C9A5",
"P  c #C7C6AA",
"I  c #C8C7AF",
"U  c #C5CCAC",
"Y  c #CDD4AC",
"T  c #C3C4B5",
"R  c #C6C9B1",
"E  c #CBCDB2",
"W  c #CACCBE",
"Q  c #D1CDBF",
"!  c #CED4B4",
"~  c #CED3B8",
"^  c #D2D7B3",
"/  c #D4DBB5",
"(  c #D0D6BA",
")  c #D5DABB",
"_  c #D8DFB9",
"`  c #DAE1BC",
"'  c #AB9EC0",
"]  c #ADA3C2",
"[  c #B1A6C4",
"{  c #B4ABC5",
"}  c #B6ACC9",
"|  c #B9AFCB",
" . c #B7B1C0",
".. c #BAB3C5",
"X. c #BEB8C5",
"o. c #B7B0C8",
"O. c #BCB3CC",
"+. c #BFB5D0",
"@. c #C2BCC4",
"#. c #C3BDCC",
"$. c #C0B7D1",
"%. c #C5BCD5",
"&. c #C8BFD7",
"*. c #C8BFD8",
"=. c #C5C3C1",
"-. c #C7C3CC",
";. c #CAC8C8",
":. c #CDCBCB",
">. c #D0CFC7",
",. c #D1CECF",
"<. c #CFD1C2",
"1. c #D5D2C2",
"2. c #D6DAC4",
"3. c #DADFC5",
"4. c #D6D5CD",
"5. c #D7D8CA",
"6. c #D9DACC",
"7. c #C7C2D2",
"8. c #CAC3D4",
"9. c #CDC8D3",
"0. c #CCC3DC",
"q. c #CFC8D9",
"w. c #D1CDD3",
"e. c #D2CCDB",
"r. c #D5D2D4",
"t. c #D8D7D2",
"y. c #DDDED4",
"u. c #D7D3DA",
"i. c #D9D6DE",
"p. c #DCDADB",
"a. c #E0DEDB",
"s. c #DDE2C4",
"d. c #DDE1CC",
"f. c #DFE1D3",
"g. c #E0E5C5",
"h. c #E3EAC6",
"j. c #E1E5CD",
"k. c #E5EBCB",
"l. c #E8EFCD",
"z. c #EAF1CE",
"x. c #E2E5D5",
"c. c #E5E9D2",
"v. c #E9EED3",
"b. c #E4E4DA",
"n. c #E7E9DB",
"m. c #EAEDDC",
"M. c #ECF2D5",
"N. c #EEF2DB",
"B. c #F0F8D4",
"V. c #F0F5DC",
"C. c #CFC6E0",
"Z. c #D0C7E0",
"A. c #D5CDE6",
"S. c #D7CEE8",
"D. c #D7D0E4",
"F. c #D8D2E3",
"G. c #DEDAE2",
"H. c #E2DDEA",
"J. c #E5E3E3",
"K. c #EBECE2",
"L. c #E6E3EC",
"P. c #E8E6E9",
"I. c #EBEAEA",
"U. c #EFF2E2",
"Y. c #F1F5E3",
"T. c #F5F8E5",
"R. c #F2F3EB",
"E. c #F3F5E8",
"W. c #F5F7EF",
"Q. c #F6F9EB",
"!. c #F8FBED",
"~. c #E7E2F2",
"^. c #EBE7F2",
"/. c #EDEAF4",
"(. c #F4F4F3",
"). c #F7F8F2",
"_. c #F9FBF1",
"`. c #FAFAF6",
"'. c #FAFCF4",
"]. c #F3F1F8",
"[. c #FBFBF9",
"{. c #FCFDF9",
"}. c white",
"|. c None",
/* pixels */
"|.|.|.|.|.|.|.|.|.|.|.|.|.|.|.|.|.|.|.|.|.|.|.|.|.|.|.|.|.|.|.|.|.|.|.|.|.|.|.|.|.|.|.|.|.|.|.|.|.|.|.|.|.|.|.|.|.|.|.|.|.|.|.|.|.|.|.|.|.|.|.|.|.|.|.|.|.|.|.|.",
"|.|.|.|.|.|.|.|.|.|.|.|.|.|.|.|.|.|.|.|.|.|.|.|.|.|.|.|.|.|.|.|.|.|.|.|.|.|.|.|.|.|.|.|.|.|.|.|.|.|.|.|.|.|.|.|.|.|.|.|.|.|.|.|.|.|.|.|.|.|.|.|.|.|.|.|.|.|.|.|.",
"|.|.|.|.|.|.|.|.|.|.|.|.|.|.|.|.|.|.|.|.|.|.|.|.|.|.|.|.|.|.V.b.c.U.{.).>.x |.|.|.|.|.|.|.|.|.|.|.|.|.|.|.|.|.|.|.|.|.|.|.|.|.|.|.|.|.|.|.|.|.|.|.|.|.|.|.|.|.|.",
"|.|.|.|.|.|.|.|.|.|.|.|.|.|.|.|.|.|.|.|.|.|.|.|.|.|.|.|._ U.'.}.}.}.}.}.~.0.' |.|.|.|.|.|.|.|.|.|.|.|.|.|.|.|.|.|.|.|.|.|.|.|.|.|.|.|.|.|.|.|.|.|.|.|.|.|.|.|.|.",
"|.|.|.|.|.|.|.|.|.|.|.|.|.|.|.|.|.|.|.|.|.|.|.|.|.|.|.2.`.}.}.}.}.}.}.}.m.F.| 0 F K K G w w |.|.|.|.|.|.|.|.|.|.|.|.|.|.|.|.|.|.|.|.|.|.|.|.|.|.|.|.|.|.|.|.|.|.",
"|.|.|.|.|.|.|.|.|.|.|.|.|.|.|.|.|.|.|.|.|.|.|.|.|.|.! `.}.}.}.}.}.}.}.Y.p.S.0.P.{.{.{.{.[.N.k.~ U |.|.|.|.|.|.|.|.|.|.|.|.|.|.|.|.|.|.|.|.|.|.|.|.|.|.|.|.|.|.|.",
"|.|.|.|.|.|.|.|.|.|.|.|.|.|.|.|.|.|.|.|.|.|.|.|.|.|.N.}.}.}.}.}.}.}.E.p.S.S.0./.}.}.}.}.}.}.}.}.{.m.2.|.|.|.|.|.|.|.|.|.|.|.|.|.|.|.|.|.|.|.|.|.|.|.|.|.|.|.|.|.",
"|.|.|.|.|.|.|.|.|.|.|.|.|.|.|.|.|.|.|.|.|.|.|.|.|.K R.}.}.}.}.}._.N.p.S.S.S.0.b.T.}.}.}.}.}.}.}.}.}.}.E.x.` |.|.|.|.|.|.|.|.|.|.|.|.|.|.|.|.|.|.|.|.|.|.|.|.|.|.",
"|.|.|.|.|.|.|.|.|.|.|.|.|.|.|.|.|.|.|.|.|.|.|.|.|.! E.{.{._.v.M.x.i.S.S.S.S.*.8.F.b.N.[.{.}.}.}.}.}.}.}.}.M.h.` F 2 |.|.|.|.|.|.|.|.|.|.|.|.|.|.|.|.|.|.|.|.|.|.",
"|.|.|.|.|.|.|.|.|.|.|.|.|.|.|.|.|.|.|.|.|.|.|.|.|.7.y.c.c.x.F.F.S.S.S.S.S.S.{ v $.Z.D.G.c.(.{.}.}.}.}.}.}.}.{.{.`.N.) q |.|.|.|.|.|.|.|.|.|.|.|.|.|.|.|.|.|.|.|.",
"|.|.|.|.|.|.|.|.|.|.|.|.|.|.|.|.|.|.|.|.|.|.|.|.|.$.Z.S.S.0.V 7.S.S.S.S.S.Z.b [ $.O.0.Z.S.F.J.W.}._.{.}.}.}.}.}.}.}.}.K.! |.|.|.|.|.|.|.|.|.|.|.|.|.|.|.|.|.|.|.",
"|.|.|.|.|.|.|.|.|.|.|.|.|.|.|.|.|.|.|.|.|.|.|.|.|.] 0.S.0.; o O.S.S.S.S.S.$.h } %.$.O.O.0.S.S.p.I.Y.{.}.}.}.}.}.}.}.}.}.E.K |.|.|.|.|.|.|.|.|.|.|.|.|.|.|.|.|.|.",
"|.|.|.|.|.|.|.|.|.|.|.|.|.|.|.|.|.|.|.|.|.|.|.|.|.) %.S.Z.@.%.A.S.S.S.Z.*.v z ] %.%.%.$.O.+.0.S.r.m.}.}.}.}.}.}.}.}.}.}.}.x.|.|.|.|.|.|.|.|.|.|.|.|.|.|.|.|.|.|.",
"|.|.|.|.|.|.|.|.|.|.|.|.|.|.|.|.|.|.|.|.|.|.|.|.j.`...%.S.S.S.S.A.0.%.$.c i v h } O.O.%.%.$.O.%.=.Y h.h.l.M.{.}.}.}.}.}.}.W.K |.|.|.|.|.|.|.|.|.|.|.|.|.|.|.|.|.",
"|.|.|.|.|.|.|.|.|.|.|.|.|.|.|.|.|.|.|.|.|.|.|.~ `.}.n.Z *.S.S.*.O.g h [ g i g c c $.b { +.%.%...e E ( s.v.N.Q.}.}.}.}.}.}._.z.^ |.|.|.|.|.|.|.|.|.|.|.|.|.|.|.|.",
"|.|.|.|.|.|.|.|.|.|.|.|.|.|.|.|.|.|.|.|.|.|.|.n.}.}.}.x.C b ] c O.{ ] p y i i f a O.+.{ ] ] b S K.}.}.}.}.}.}.}.}.}.}.}.}.{._.Q.c.|.|.|.|.|.|.|.|.|.|.|.|.|.|.|.",
"|.|.|.|.|.|.|.|.|.|.|.|.|.|.|.|.|.|.|.|.|.|.|.m.}.}.}.{.J.T j B %.} d h = * * * z O.%.%.O.] v <.{.}.}.}.}.}.}.}.}.}.}.}.}.}.}.}.{.V.|.|.|.|.|.|.|.|.|.|.|.|.|.|.",
"|.|.|.|.|.|.|.|.|.|.|.|.|.|.|.|.|.|.|.|.|.|.|.x.}.}.}.}.}.Q.>.z u z ] O.O.O.O.O.$.%.%.%.%.%.O.q.v.v._.{.{.{.{.{.{.{.{.{.}.}.}.}.}.{.M.|.|.|.|.|.|.|.|.|.|.|.|.|.",
"|.|.|.|.|.|.|.|.|.|.|.|.|.|.|.|.|.|.|.|.|.|.|.m x._._._.m.6.&.$.$.$.%.%.%.%.%.%.%.%.%.%.%.%.%.%.A.D.x.c.c.c.c.c.c.c.c.z._.}.}.}.}.}._.Y |.|.|.|.|.|.|.|.|.|.|.|.",
"|.|.|.|.|.|.|.|.|.|.|.|.|.|.|.|.|.|.|.|.|.|.|.|.N 5.6.6.9.%.%.%.%.O.$.%.%.%.%.%.%.%.%.%.%.%.%.$.0.S.S.S.S.S.S.S.S.S.p.Q.}.}.'.{.}.}.}.s.5 |.|.|.|.|.|.|.|.|.|.|.",
"|.|.|.|.|.|.|.|.|.|.|.|.|.|.|.|.|.|.|.|.|.|.|.|.y ] %.%.%.%.%.%.$.{ $.%.%.%.%.%.%.%.%.%.%.%.%.%.$.0.S.S.S.S.S.S.A.Z.c.}.}.{.M.!.}.}.}.`.! |.|.|.|.|.|.|.|.|.|.|.",
"|.|.|.|.|.|.|.|.|.|.|.|.|.|.|.|.|.|.|.|.|.|.|.|.|., z O.%.%.%.O.b ] O.%.%.%.%.%.O.O.O.O.O.O.%.%.%.} O.0.A.Z.Z.0.%.S.p.s.) N._.{.}.}.}.}.N.F |.|.|.|.|.|.|.|.|.|.",
"|.|.|.|.|.|.|.|.|.|.|.|.|.|.|.|.|.|.|.|.|.|.|.|.W.g.x c ] b h g y v ] { } O.O.O.{ [ ] B ] { O.O.o.{ { ] c h z ] &.8.R ` Y.{.}.}.}.}.}.}.{.( 5 |.|.|.|.|.|.|.|.|.",
"|.|.|.|.|.|.|.|.|.|.|.|.|.|.|.|.|.|.|.|.|.|.|.}.}.Y. .{ { { { { { z h v z b b b v g f i g c b b b b b v c [ { s 8 F v.}.}.}.}.}.}.}.}.}.}.W.! |.|.|.|.|.|.|.|.|.",
"|.|.|.|.|.|.|.|.|.|.|.|.|.|.|.|.|.|.|.|.|.|.Q.}.}.Y.#.B v v v B { { { z % |.|.y = g v v v h h h h h h v { { l 3 / '.}.}.}.}.}.}.}.}.}.}.}.{._.~ |.|.|.|.|.|.|.|.",
"|.|.|.|.|.|.|.|.|.|.|.|.|.|.|.|.1.|.|.|.|.s.'.}.}.Y.-.v v B b B > n { h |.|.|.|.|.t t h v v v v v v v ] { l 3 c.'.}.}.}.}.}.}.}.}.}.}.}.}.}.}.j.2 |.|.|.|.|.|.|.",
"|.|.|.|.|.|.|.|.|.|.|.|.|.|.|.+ 5.|.|.|.F R.}.}.!.t.%.O.%.$.O.O.b.f.Z u |.|.|.|.|.|.|.& y c v v v v v v x 1 v.}.}.}.}.}.}.}.}.}.}.}.}.}.{.).v.r.d |.|.|.|.|.|.|.",
"|.|.|.|.|.|.|.|.|.|.|.|.|.|.|.. e.(.|.5 s.{.}._.y.%.%.%.%.%.%.#.T ).c.2 |.|.|.|.|.|.|.|.|.y g ] B ] v ; 5 s.}.}.}.}.}.}.}.}.}.}.}.}.'.Y.x.F.0.] & |.|.|.|.|.|.|.",
"|.|.|.|.|.|.|.|.|.|.|.|.|.|.|.< { H.6.K j.}.'.f.%.%.%.%.%.%.%.%.Z W ).d.I w |.|.|.|.|.|.|.|.h { { l 8 J N.{.}.}.}.}.}.}.}.}.}.}.{.T.x.p.S.%.h t |.|.|.|.|.|.|.|.",
"|.|.|.|.|.|.|.|.|.|.|.|.|.|.|.x.b 0.H.r H V.x.7.%.%.%.%.%.%.%.%.B : E }.}.n.5.s.K @ |.|.|.O.[ , 0 r 3._.}.}.}.}.}.}.}.}.}.}.!.V.m.p.D.S.*.z |.|.|.|.|.|.|.|.|.|.",
"|.|.|.|.|.|.|.|.|.|.|.|.|.|.V.(.z %.&.X.N -.7.%.%.%.%.%.%.%.%.| g |.w c.}.}.}.{.N._ ^ q 2 e R / g.W.}.}.}.}.}.}.}.}.{.{.Y.M.b.i.F.S.S.0.d |.|.|.|.|.|.|.|.|.|.|.",
"|.|.|.|.|.|.|.|.|.|.|.|.|.s.T.(.B { $.%.h O.%.%.%.%.%.%.%.%.O.h |.w s.{.}.}.}.}.}.{.`.(.(.).`.{.}.}.}.}.}.}.}.}.{.U.c.c.p.F.S.S.S.A.+.z |.|.|.|.|.|.|.|.|.|.|.|.",
"|.|.|.|.|.|.|.|.|.|.|.U c.}.{.y.O.%.%.%.z O.%.%.%.%.%.%.O.[ a |.|.s.{.}.}.}.}.}.}.}.}.}.}.}.}.}.}.}.}.!.Q.Q.Q.Q.x.p.S.S.S.S.S.S.C.} a |.|.|.|.|.|.|.|.|.|.|.|.|.",
"|.|.|.|.|.|.|.|.|.|.|.m.}.d.6.B { O.%.| ' %.%.$.O.O.{ v h |.|.B D T.!.}.}.}.}.}.}.}.}.}.].Y.Y.Y.Y.Y.V.y.y.y.y.p.S.S.S.S.S.S.S.0.] |.|.|.|.|.|.|.|.|.|.|.|.|.|.|.",
"|.|.|.|.|.|.|.|.|.|.x.}.Q j  .h [ { ] ' O.{ ' p y p |.|.|.|.v 0.0.#.R.}.}.}.}.}.}.}.}.!.u.e.u.u.u.u.u.A.A.A.A.A.S.S.A.A.0.%.] ] |.|.|.|.|.|.|.|.|.|.|.|.|.|.|.|.",
"|.|.|.|.|.|.|.|.|.f.K.m ..[ { z b { +.[ |.|.|.|.|.|.|.|.* [ C.0.[ 0.^.K.E.}.}.}.}.}._.b.{ p p u p p p a c [ O.#.#...[ b a a O.c |.|.|.|.|.|.|.|.|.|.|.|.|.|.|.|.",
"|.|.|.|.|.|.|.|.r R.9 { z [ { B h O.%.] |.|.|.|.|.|.|.y { C.O.[ 0.+.B i.{.}.}.}.{.!.n.8.h { $.] $.$.$.{ %.u.b.M.M.M.v.v.J.u.S.O.|.|.|.|.|.|.|.|.|.|.|.|.|.|.|.|.",
"|.|.|.|.|.|.|.|./ T k x z [ { { z O.O.a |.|.|.|.|.|.|.+.0.B | 0.} ] 8.v.h.`.}.!.U.x.8.z [ %.O.] O.O.| [ i.N.!.}.}.}.}.}.}.Y.i.0.c |.|.|.|.|.|.|.|.|.|.|.|.|.|.|.",
"|.|.|.|.|.|.|.|.S l z [ a B [ a i ] d |.|.|.|.|.|.|.%.O.z | Z.[ } Z.0.V R N.V.b.u.%.z [ %.O.{ [ v [ ] Z Y.}.}.}.}.}.}.}.}.{.P.A.{ |.|.|.|.|.|.|.|.|.|.|.|.|.|.|.",
"|.|.|.|.|.|.|.x v x B z d y * |.|.|.|.|.|.|.|.|.|.*.' x $.+.z | 0.O.x %.0.e.9.{ c u { 0.O.O.$.$.v y = ..}.}.}.}.}.}.}.}.}.}./.S.$.|.|.|.|.|.|.|.|.|.|.|.|.|.|.|.",
"|.|.|.|.|.|.b O.x x z a u |.|.|.|.|.|.|.|.|.|.|.|.a O.*.] x %.O.B { $.B N x k A e.C.S.C.*.0.0.%.%.[ * 7.{.}.}.}.}.}.}.}.}.}./.S.*.|.|.|.|.|.|.|.|.|.|.|.|.|.|.|.",
"|.|.|.|.|.y { h z z x a |.|.|.|.|.|.|.|.|.|.|.|.|.{ | h { O.z a { X.O.@.m.'.m.F.S.S.S.Z.S.0.%.%.O.u |.|.Q.}.}.}.}.}.}.}.}.{.P.A.*.|.|.|.|.|.|.|.|.|.|.|.|.|.|.|.",
"|.|.|.|.|.& y ] z p i |.|.|.|.|.|.|.|.|.|.|.|.|.|.|.- ;.L.q.#.G.e.a.}.}.W.P.i.S.S.S.S.S.Z.%.%.O.a |.|.|.v.{.}.}.}.}.}.}.}._.f.0.%.|.|.|.|.|.|.|.|.|.|.|.|.|.|.|.",
"|.|.|.|.|.|.* z * |.|.|.|.|.|.|.|.|.|.|.|.|.|.|.|.|.B.{.}.}.}.}.}.}.{.K.G.S.S.0.S.S.S.Z.%.$.{ a |.|.|.|.Y _.}.}.}.}.}.}.}._.y.%.} |.|.|.|.|.|.|.|.|.|.|.|.|.|.|.",
"|.|.|.|.|.|.|.|.|.|.|.|.|.|.|.|.|.|.|.|.|.|.|.|.|.l._.}.}.}.}.{.[.U.G.D.S.Z.$.O.Z.S.0.$.} v g |.|.|.|.|.F k.{.}.}.}.}.}.}.m.D.$.B |.|.|.|.|.|.|.|.|.|.|.|.|.|.|.",
"|.|.|.|.|.|.|.|.|.|.|.|.|.|.|.|.|.|.|.|.|.|.|.|.|.m.}.{.!.).].b.F.D.S.Z.0.O.O.%.$.| { c i |.|.|.|.|.|.|.|.^ M.{.}.}.}.{.!.x.S.0.z |.|.|.|.|.|.|.|.|.|.|.|.|.|.|.",
"|.|.|.|.|.|.|.|.|.|.|.|.|.|.|.|.|.|.|.|.|.|.|.|.b F.L.G.y.p.S.S.S.Z.0.%.{ b ] b ] g |.|.|.|.|.|.|.|.|.|.|.|._ W.{.T.P.G.4.8.Z.S.B |.|.|.|.|.|.|.|.|.|.|.|.|.|.|.",
"|.|.|.|.|.|.|.|.|.|.|.|.|.|.|.|.|.|.|.|.|.|.|.|.v $.%.%.*.0.S.S.0.0.%.[ h g |.|.|.|.|.|.|.|.|.|.|.|.|.|.|.|.|.( u.,.%.%.%.%.0.S.%.h |.|.|.|.|.|.|.|.|.|.|.|.|.|.",
"|.|.|.|.|.|.|.|.|.|.|.|.|.|.|.|.|.|.|.|.|.|.|.|.|.[ %.%.%.%.0.0.%.%.} h |.|.|.|.|.|.|.|.|.|.|.|.|.|.|.|.|.|.|.M ] +.%.%.%.%.*.A.0.O.] f |.|.|.|.|.|.|.|.|.|.|.|.",
"|.|.|.|.|.|.|.|.|.|.|.|.|.|.|.|.|.|.|.|.|.|.|.|.|.z $.%.%.%.%.%.%.%.{ v |.|.|.|.|.|.|.|.|.|.|.|.|.|.|.|.|.|.|.|.] ] O.%.%.%.%.Z.Z.Z.Z.| |.|.|.|.|.|.|.|.|.|.|.|.",
"|.|.|.|.|.|.|.|.|.|.|.|.|.|.|.|.|.|.|.|.|.|.|.|.|.h ] $.%.%.%.%.%.$.Z.0.] |.|.|.|.|.|.|.|.|.|.|.|.|.|.|.|.|.|.|.g v [ $.%.%.%.0.S.S.S.A.O.|.|.|.|.|.|.|.|.|.|.|.",
"|.|.|.|.|.|.|.|.|.|.|.|.|.|.|.|.|.|.|.|.|.|.|.|.|.h [ O.%.%.%.%.%.Z.S.S.0.b |.|.|.|.|.|.|.|.|.|.|.|.|.|.|.|.|.|.|.v O.O.$.%.%.%.S.S.S.S.Z.| |.|.|.|.|.|.|.|.|.|.",
"|.|.|.|.|.|.|.|.|.|.|.|.|.|.|.|.|.|.|.|.|.|.|.|.|.{ $.%.%.%.%.%.0.S.S.S.S.+.c |.|.|.|.|.|.|.|.|.|.|.|.|.|.|.|.|.|.f | %.%.%.%.*.S.S.S.S.S.0.{ |.|.|.|.|.|.|.|.|.",
"|.|.|.|.|.|.|.|.|.|.|.|.|.|.|.|.|.|.|.|.|.|.|.|.|.{ $.%.%.%.%.%.%.0.S.S.S.Z.%.|.|.|.|.|.|.|.|.|.|.|.|.|.|.|.|.|.|.i O.%.%.%.%.%.0.S.S.S.S.A.[ |.|.|.|.|.|.|.|.|.",
"|.|.|.|.|.|.|.|.|.|.|.|.|.|.|.|.|.|.|.|.|.|.|.|.|.c O.%.%.%.%.%.%.%.A.S.S.Z.$.|.|.|.|.|.|.|.|.|.|.|.|.|.|.|.|.|.|.|.O.%.%.%.%.%.0.S.S.S.S.S.] |.|.|.|.|.|.|.|.|.",
"|.|.|.|.|.|.|.|.|.|.|.|.|.|.|.|.|.|.|.|.|.|.|.|.|.|.] %.%.%.%.%.%.%.0.S.S.0.{ |.|.|.|.|.|.|.|.|.|.|.|.|.|.|.|.|.|.|.{ %.%.%.%.%.*.Z.S.S.S.S.] |.|.|.|.|.|.|.|.|.",
"|.|.|.|.|.|.|.|.|.|.|.|.|.|.|.|.|.|.|.|.|.|.|.|.|.|.h O.%.%.%.%.%.%.*.S.S.%.] |.|.|.|.|.|.|.|.|.|.|.|.|.|.|.|.|.|.|.|.O.%.%.%.%.%.0.A.S.S.S.] |.|.|.|.|.|.|.|.|.",
"|.|.|.|.|.|.|.|.|.|.|.|.|.|.|.|.|.|.|.|.|.|.|.|.|.|.|.{ %.%.%.%.%.%.%.0.S.{ |.|.|.|.|.|.|.|.|.|.|.|.|.|.|.|.|.|.|.|.|.|.+.%.%.%.%.%.0.S.S.A.} |.|.|.|.|.|.|.|.|.",
"|.|.|.|.|.|.|.|.|.|.|.|.|.|.|.|.|.|.|.|.|.|.|.|.|.|.|.|.} %.%.%.%.%.%.%.$.v |.|.|.|.|.|.|.|.|.|.|.|.|.|.|.|.|.|.|.|.|.|.|.{ { +.$.%.%.Z.S.A.} |.|.|.|.|.|.|.|.|.",
"|.|.|.|.|.|.|.|.|.|.|.|.|.|.|.|.|.|.|.|.|.|.|.|.|.|.|.|.|.| $.%.%.%.%.%.} g |.|.|.|.|.|.|.|.|.|.|.|.|.|.|.|.|.|.|.|.|.|.|.|.g v ] O.%.0.S.S.+.|.|.|.|.|.|.|.|.|.",
"|.|.|.|.|.|.|.|.|.|.|.|.|.|.|.|.|.|.|.|.|.|.|.|.|.|.|.|.|.|.| %.%.%.%.%.] |.|.|.|.|.|.|.|.|.|.|.|.|.|.|.|.|.|.|.|.|.|.|.|.|.|.|.|.c } *.Z.S.*.z |.|.|.|.|.|.|.|.",
"|.|.|.|.|.|.|.|.|.|.|.|.|.|.|.|.|.|.|.|.|.|.|.|.|.|.|.|.|.|.b $.%.%.%.$.a |.|.|.|.|.|.|.|.|.|.|.|.|.|.|.|.|.|.|.|.|.|.|.|.|.|.|.|.|.z $.C.S.0.] |.|.|.|.|.|.|.|.",
"|.|.|.|.|.|.|.|.|.|.|.|.|.|.|.|.|.|.|.|.|.|.|.|.|.|.|.|.|.|.c O.%.%.%.$.u |.|.|.|.|.|.|.|.|.|.|.|.|.|.|.|.|.|.|.|.|.|.|.|.|.|.|.|.|.y +.*.S.Z.O.|.|.|.|.|.|.|.|.",
"|.|.|.|.|.|.|.|.|.|.|.|.|.|.|.|.|.|.|.|.|.|.|.|.|.|.|.|.|.|.|.{ %.%.%.$.a |.|.|.|.|.|.|.|.|.|.|.|.|.|.|.|.|.|.|.|.|.|.|.|.|.|.|.|.|.y { %.S.S.O.v |.|.|.|.|.|.|.",
"|.|.|.|.|.|.|.|.|.|.|.|.|.|.|.|.|.|.|.|.|.|.|.|.|.|.|.|.|.|.|.B %.%.%.%.z |.|.|.|.|.|.|.|.|.|.|.|.|.|.|.|.|.|.|.|.|.|.|.|.|.|.|.|.|.v O.$.A.S.} O.b |.|.|.|.|.|.",
"|.|.|.|.|.|.|.|.|.|.|.|.|.|.|.|.|.|.|.|.|.|.|.|.|.|.|.|.|.|.~ Z O.%.%.%.b y.|.|.|.|.|.|.|.|.|.|.|.|.|.|.|.|.|.|.|.|.|.|.|.|.|.|.|.|.} O.=.j.x.X.] [ |.|.|.|.|.|.",
"|.|.|.|.|.|.|.|.|.|.|.|.|.|.|.|.|.|.|.|.|.|.|.|.|.|.|.|.N.`.V.:.+.$.%.%.[ 8.Y.|.|.|.|.|.|.|.|.|.|.|.|.|.|.|.|.|.|.|.|.|.|.|.|.|.|.|.{ 9.E.{.{.c.T ] |.|.|.|.|.|.",
"|.|.|.|.|.|.|.|.|.|.|.|.|.|.|.|.|.|.|.|.|.|.|.|.|.|.|.T.}.'.k.9.%.| O.%.O.] H.Y.|.|.|.|.|.|.|.|.|.|.|.|.|.|.|.|.|.|.|.|.|.|.|.|.|.|.$ -.}.}.}.{.l.m |.|.|.|.|.|.",
"|.|.|.|.|.|.|.|.|.|.|.|.|.|.|.|.|.|.|.|.|.|.|.|.|.Q.{.}.}.Y.w.%.%.[ ] %.%.v 0.L.N.|.|.|.|.|.|.|.|.|.|.|.|.|.|.|.|.|.|.|.|.|.|.|.|.|.  ) }.}.}.}.{._ |.|.|.|.|.|.",
"|.|.|.|.|.|.|.|.|.|.|.|.|.|.|.|.|.|.|.|.|.|.|.` Y.}.}._.N.r.%.%.%.$.b %.O.] %.0.L.j.|.|.|.|.|.|.|.|.|.|.|.|.|.|.|.|.|.|.|.|.|.|.|.|.X c.}.}.}.}.}.N.K |.|.|.|.|.",
"|.|.|.|.|.|.|.|.|.|.|.|.|.|.|.|.|.|.|.|.|._ m.).}.}.N.f.9.%.%.%.%.%.[ u x +.%.%.C.y.|.|.|.|.|.|.|.|.|.|.|.|.|.|.|.|.|.|.|.|.|.|.|.|.< W.}.}.}.}.}.{.h.5 |.|.|.|.",
"|.|.|.|.|.|.|.|.|.|.|.|.|.|.|.|.|.|.2 K k.`.}.}.{.N.9.%.%.%.%.%.$.O.$.{ O.%.%.%.%.O.|.|.|.|.|.|.|.|.|.|.|.|.|.|.|.|.|.|.|.|.|.|.|.|.F [.}.}.}.}.}.}.'./ |.|.|.|.",
"|.|.|.|.|.|.|.|.|.|.|.|.|.|.|.|.P 3.N.}.}.!.!.I.y.w.%.%.%.$.} v a h [ %.*.*.*.%.$.] |.|.|.|.|.|.|.|.|.|.|.|.|.|.|.|.|.|.|.|.|.|.|.|.` {.}.}.}.}.}.}.}._.M.|.|.|.",
"|.|.|.|.|.|.|.|.|.|.|.|.|.|.|.:.H.H.H.H.H.t.4.7.O.O.O.} ] h |.|.|.|.y d z z z d p i |.|.|.|.|.|.|.|.|.|.|.|.|.|.|.|.|.|.|.|.|.|.|.K N.}.}.}.}.}.}.}.}.}.!.|.|.|.",
"|.|.|.|.|.|.|.|.|.|.|.|.|.|.|.p u u u u u p p p y y y |.|.|.|.|.|.|.|.|.|.|.|.|.|.|.|.|.|.|.|.|.|.|.|.|.|.|.|.|.|.|.|.|.|.|.|.|.|.j.}.}.}.}.}.}.}.}.}.}.}.Y.|.|.",
"|.|.|.|.|.|.|.|.|.|.|.|.|.|.|.|.|.|.|.|.|.|.|.|.|.|.|.|.|.|.|.|.|.|.|.|.|.|.|.|.|.|.|.|.|.|.|.|.|.|.|.|.|.|.|.|.|.|.|.|.|.|.|.|.# Y.}.}.}.}.}.}.}.}.}.}.}.'.^ |.",
"|.|.|.|.|.|.|.|.|.|.|.|.|.|.|.|.|.|.|.|.|.|.|.|.|.|.|.|.|.|.|.|.|.|.|.|.|.|.|.|.|.|.|.|.|.|.|.|.|.|.|.|.|.|.|.|.|.|.|.|.|.|.|.|.+ Y U.{.}.}.}.}.}.}.}.}.}.Q.Y |.",
"|.|.|.|.|.|.|.|.|.|.|.|.|.|.|.|.|.|.|.|.|.|.|.|.|.|.|.|.|.|.|.|.|.|.|.|.|.|.|.|.|.|.|.|.|.|.|.|.|.|.|.|.|.|.|.|.|.|.|.|.|.|.|.|.|.@ 7 ) Y.}.}.}.}.}.}.}._._ < |.",
"|.|.|.|.|.|.|.|.|.|.|.|.|.|.|.|.|.|.|.|.|.|.|.|.|.|.|.|.|.|.|.|.|.|.|.|.|.|.|.|.|.|.|.|.|.|.|.|.|.|.|.|.|.|.|.|.|.|.|.|.|.|.|.|.|.|.|.@ 6 s.Q.}.}.}.{.M.L |.|.|.",
"|.|.|.|.|.|.|.|.|.|.|.|.|.|.|.|.|.|.|.|.|.|.|.|.|.|.|.|.|.|.|.|.|.|.|.|.|.|.|.|.|.|.|.|.|.|.|.|.|.|.|.|.|.|.|.|.|.|.|.|.|.|.|.|.|.|.|.|.|.O + < 4 r U |.|.|.|.|."
};
