/* XPM */
static char *result[] = {
/* columns rows colors chars-per-pixel */
"80 80 182 2 ",
"   c #8B8666",
".  c #8F896B",
"X  c #908E6F",
"o  c #9A956F",
"O  c #92897C",
"+  c #989077",
"@  c #A49F7D",
"#  c #A5A378",
"$  c #847394",
"%  c #8B7B9D",
"&  c #8E7FA2",
"*  c #9D988E",
"=  c #94889C",
"-  c #9D939B",
";  c #A39C82",
":  c #A19A8C",
">  c #A39B95",
",  c #AAA88A",
"<  c #B2AF86",
"1  c #A9B086",
"2  c #B3B68B",
"3  c #A7A096",
"4  c #A6A297",
"5  c #AEAF96",
"6  c #B1AC97",
"7  c #B1AB9C",
"8  c #B3B392",
"9  c #B7B896",
"0  c #BABB9D",
"q  c #9384A5",
"w  c #9689A4",
"e  c #9A8DA5",
"r  c #9484AC",
"t  c #9789AA",
"y  c #9A8CAC",
"u  c #9E91AF",
"i  c #9788B0",
"p  c #9A8CB1",
"a  c #9E91B4",
"s  c #A59BA2",
"d  c #A89FA1",
"f  c #A196AC",
"g  c #A49BA9",
"h  c #A194B4",
"j  c #A599B5",
"k  c #A296B9",
"l  c #A69BBB",
"z  c #A99DBC",
"x  c #AAA2AC",
"c  c #B3AEA3",
"v  c #AFB0A5",
"b  c #B6B4A6",
"n  c #BDBDA2",
"m  c #B8B6AA",
"M  c #ADA3B6",
"N  c #AFAAB4",
"B  c #ACA1BE",
"V  c #B1A7BE",
"C  c #B2ABBE",
"Z  c #B8AFBB",
"A  c #BBB7B6",
"S  c #B7B1BF",
"D  c #C0BEBC",
"F  c #BAC297",
"G  c #BDC29B",
"H  c #BDC4A2",
"J  c #C1C3A5",
"K  c #C5CAA5",
"L  c #C7C3AB",
"P  c #C7C8AE",
"I  c #CACDAD",
"U  c #CDD2AD",
"Y  c #D1D9AF",
"T  c #C5C6B5",
"R  c #C6CAB1",
"E  c #CACFB5",
"W  c #CCCDB9",
"Q  c #D0CEB9",
"!  c #CDD2B5",
"~  c #CFD3B8",
"^  c #D2D9B5",
"/  c #D1D6B9",
"(  c #D5DABC",
")  c #DBDFBF",
"_  c #DBE2BE",
"`  c #AA9FC0",
"'  c #ADA3C2",
"]  c #B1A6C4",
"[  c #B4ABC5",
"{  c #B8AEC5",
"}  c #B1A5C8",
"|  c #B6ADC9",
" . c #B8AFCA",
".. c #BBB3C4",
"X. c #BCB3CD",
"o. c #BFB5D1",
"O. c #C3BEC6",
"+. c #C2BACD",
"@. c #C0B7D2",
"#. c #C5BCD5",
"$. c #C8BFD7",
"%. c #C7BDD9",
"&. c #C8BFD8",
"*. c #CDCDC5",
"=. c #C5C1C9",
"-. c #CECBCB",
";. c #D2CEC0",
":. c #D1CFCE",
">. c #CED0C0",
",. c #D4D6C3",
"<. c #D8D7C6",
"1. c #D7DBC2",
"2. c #D9DEC4",
"3. c #D5D4CD",
"4. c #D8D4CF",
"5. c #D7D8CC",
"6. c #DBDDCC",
"7. c #C7C0D4",
"8. c #CAC4D4",
"9. c #CEC8D4",
"0. c #CBC3DC",
"q. c #D2CED3",
"w. c #D2CCDD",
"e. c #D5D3D2",
"r. c #D8D7D2",
"t. c #DDDCD5",
"y. c #D4D0D9",
"u. c #DAD6DD",
"i. c #DDDBDB",
"p. c #E0DEDE",
"a. c #DCE3C2",
"s. c #DEE2CB",
"d. c #DEE1D3",
"f. c #E0E6C7",
"g. c #E3EAC4",
"h. c #E1E6CB",
"j. c #E5EACD",
"k. c #E9EFCF",
"l. c #E7F0C5",
"z. c #E2E4D4",
"x. c #E6EAD3",
"c. c #E9EED5",
"v. c #E3E4DA",
"b. c #E6E9DA",
"n. c #E9ECDC",
"m. c #ECF2D5",
"M. c #EEF2DC",
"N. c #F1F5DE",
"B. c #CFC7E0",
"V. c #D0C7E1",
"C. c #D5CDE6",
"Z. c #D6CEE8",
"A. c #D7D1E3",
"S. c #D9D4E3",
"D. c #DED9E3",
"F. c #DAD2EA",
"G. c #E1DEE4",
"H. c #E2DDEC",
"J. c #E4E3E2",
"K. c #ECECE4",
"L. c #E6E3EA",
"P. c #E9E7EA",
"I. c #EDEDEB",
"U. c #EEF0E2",
"Y. c #F2F5E5",
"T. c #F5F9E6",
"R. c #F4F6EB",
"E. c #F6F9EB",
"W. c #F8FBED",
"Q. c #EBE7F1",
"!. c #EDEAF3",
"~. c #F0EEF6",
"^. c #F5F4F2",
"/. c #F7F8F1",
"(. c #FAFCF2",
"). c #F9FAF6",
"_. c #FAFCF4",
"`. c #F6F4FB",
"'. c #FDFEFA",
"]. c #FDFEFC",
"[. c white",
"{. c None",
/* pixels */
"{.{.{.{.{.{.{.{.{.{.{.{.{.{.{.{.{.{.{.{.{.{.{.{.{.{.{.{.{.{.{.{.{.{.{.{.{.{.{.{.{.{.{.{.{.{.{.{.{.{.{.{.{.{.{.{.{.{.{.{.{.{.{.{.{.{.{.{.{.{.{.{.{.{.{.{.{.{.{.{.",
"{.{.{.{.{.{.{.{.{.{.{.{.{.{.{.{.{.{.{.{.{.{.{.{.{.{.{.{.{.{.{.{.{.{.{.{.{.{.{.{.{.{.{.{.{.{.{.{.{.{.{.{.{.{.{.{.{.{.{.{.{.{.{.{.{.{.{.{.{.{.{.{.{.{.{.{.{.{.{.{.",
"{.{.{.{.{.{.{.{.{.{.{.{.{.{.{.{.{.{.{.{.{.{.{.{.{.{.{.{.{.{.{.{.{.{.{.{.{.{.{.{.{.{.{.{.{.{.{.{.{.{.{.{.{.{.{.{.{.{.{.{.{.{.{.{.{.{.{.{.{.{.{.{.{.{.{.{.{.{.{.{.",
"{.{.{.{.{.{.{.{.{.{.{.{.{.{.{.{.{.{.{.{.{.{.{.{.{.{.{.{.{.{.K ^ m.[.( 4 {.{.{.{.{.{.{.{.{.{.{.{.{.{.{.{.{.{.{.{.{.{.{.{.{.{.{.{.{.{.{.{.{.{.{.{.{.{.{.{.{.{.{.{.",
"{.{.{.{.{.{.{.{.{.{.{.{.{.{.{.{.{.{.{.{.{.{.{.{.{.{.{.{.a._.^.(.'.[.^.7.l {.{.{.{.{.{.{.{.{.{.{.{.{.{.{.{.{.{.{.{.{.{.{.{.{.{.{.{.{.{.{.{.{.{.{.{.{.{.{.{.{.{.{.",
"{.{.{.{.{.{.{.{.{.{.{.{.{.{.{.{.{.{.{.{.{.{.{.{.{.{.! Y.[.[.[.[.[.[.].S.0.h {.{.{.{.{.{.{.{.{.{.{.{.{.{.{.{.{.{.{.{.{.{.{.{.{.{.{.{.{.{.{.{.{.{.{.{.{.{.{.{.{.{.",
"{.{.{.{.{.{.{.{.{.{.{.{.{.{.{.{.{.{.{.{.{.{.{.{.{.~ /.[.[.[.[.[.[.[.T.u.C...n.Y.[.[.T.Y.n.s.d.{.{.{.{.{.{.{.{.{.{.{.{.{.{.{.{.{.{.{.{.{.{.{.{.{.{.{.{.{.{.{.{.{.",
"{.{.{.{.{.{.{.{.{.{.{.{.{.{.{.{.{.{.{.{.{.{.{.{.{.M.[.[.[.[.[.[.[.E.i.C.C.w.[.[.[.[.[.[.[.[.[.[.n.K.h.{.{.{.{.{.{.{.{.{.{.{.{.{.{.{.{.{.{.{.{.{.{.{.{.{.{.{.{.{.",
"{.{.{.{.{.{.{.{.{.{.{.{.{.{.{.{.{.{.{.{.{.{.{.{./ '.[.[.[.[.[.[.W.v.C.C.C.9.Y.'.[.[.[.[.[.[.[.[.[.[.(.R.M.G {.{.{.{.{.{.{.{.{.{.{.{.{.{.{.{.{.{.{.{.{.{.{.{.{.{.",
"{.{.{.{.{.{.{.{.{.{.{.{.{.{.{.{.{.{.{.{.{.{.{.{.a.[.[.[._.(.(.n.z.C.C.C.C.@.=.x.^.(.[.[.[.[.[.[.[.[.[.'.W.n.U {.{.{.{.{.{.{.{.{.{.{.{.{.{.{.{.{.{.{.{.{.{.{.{.{.",
"{.{.{.{.{.{.{.{.{.{.{.{.{.{.{.{.{.{.{.{.{.{.{.{.6.E.E.E.n.z.z.S.Z.C.C.C.C.[ | @.w.z.I.(.[.[.[.[.[.[.[.(.N.x.h.! 9 {.{.{.{.{.{.{.{.{.{.{.{.{.{.{.{.{.{.{.{.{.{.{.",
"{.{.{.{.{.{.{.{.{.{.{.{.{.{.{.{.{.{.{.{.{.{.{.{.9.i.i.t.S.Z.Z.C.C.C.C.C.0.y X.X.@.C.A.G.K.'.[.[.[.[.[.[.[.[.[.[.Y.( G {.{.{.{.{.{.{.{.{.{.{.{.{.{.{.{.{.{.{.{.{.",
"{.{.{.{.{.{.{.{.{.{.{.{.{.{.{.{.{.{.{.{.{.{.{.{.@.Z.Z.V.d > 0.C.C.C.C.C.X.k X.#.X.@.C.Z.S.G.Y.n.'.[.[.[.[.[.[.[.[.'.b.{.{.{.{.{.{.{.{.{.{.{.{.{.{.{.{.{.{.{.{.{.",
"{.{.{.{.{.{.{.{.{.{.{.{.{.{.{.{.{.{.{.{.{.{.{.{...C.Z.Z O M C.C.C.C.C.0.a l | @.#.X.#.V.C.Z.*.b.[.[.[.[.[.[.[.[.[.[.).G {.{.{.{.{.{.{.{.{.{.{.{.{.{.{.{.{.{.{.{.",
"{.{.{.{.{.{.{.{.{.{.{.{.{.{.{.{.{.{.{.{.{.{.{.{.T @.C.C.C.C.C.F.C.V.#.z r l ' @.@.#.#.@.0.C.D b.[.[.[.[.[.[.[.[.[.[.'.( 1 {.{.{.{.{.{.{.{.{.{.{.{.{.{.{.{.{.{.{.",
"{.{.{.{.{.{.{.{.{.{.{.{.{.{.{.{.{.{.{.{.{.{.{.s.z.C &.C.C.Z.C.@.' | [ r r a k | | #.#.#.@.+.b ! x.M.T.[.[.[.[.[.[.[.[.n./ _ {.{.{.{.{.{.{.{.{.{.{.{.{.{.{.{.{.{.",
"{.{.{.{.{.{.{.{.{.{.{.{.{.{.{.{.{.{.{.{.{.{.E ).[.d.V 0.C.#.[ | y ' y r r i a ' | } @.#.@.| z.b.K.Y.W.[.[.[.[.[.[.[.[.Y.T.R.x.{.{.{.{.{.{.{.{.{.{.{.{.{.{.{.{.{.",
"{.{.{.{.{.{.{.{.{.{.{.{.{.{.{.{.{.{.{.{.{.{.1.[.[.'.5.j e p [ #.[ u % q q q t [ #.' a k a #.[.[.[.[.[.[.[.[.[.[.[.[.[.[.[.[.'.'.{.{.{.{.{.{.{.{.{.{.{.{.{.{.{.{.",
"{.{.{.{.{.{.{.{.{.{.{.{.{.{.{.{.{.{.{.{.{.{.2.[.[.[.[.Y.! f ] [ l k z w q w ' X.#.#. .' ' w.K.).[.[.[.[.[.[.[.[.[.[.[.[.[.[.[.'.m.{.{.{.{.{.{.{.{.{.{.{.{.{.{.{.",
"{.{.{.{.{.{.{.{.{.{.{.{.{.{.{.{.{.{.{.{.{.{.! T.E.E.E.n.9.X.a h X.#.#.#.@.X.X.@.#.#.#.#.@.0.C.i.T.T.'.[.[.[.[.W.T._.[.[.[.[.[.[./.! {.{.{.{.{.{.{.{.{.{.{.{.{.{.",
"{.{.{.{.{.{.{.{.{.{.{.{.{.{.{.{.{.{.{.{.{.{.v 1.l.g.5.9.#.#.&.&.#.@.#.#.#.#.#.#.#.#.#.#.#.@.C.C.i.i.L.N.N.N.K.p.k._.[.[.[.[.[.[.[.s.{.{.{.{.{.{.{.{.{.{.{.{.{.{.",
"{.{.{.{.{.{.{.{.{.{.{.{.{.{.{.{.{.{.{.{.{.{.{.C O.9.#.#.#.#.#.@.| #.#.#.#.#.#.#.#.#.#.#.#.@.0.C.Z.Z.C.u.u.u.A.C.M.[.[.'.[.[.[.[.[.M.< {.{.{.{.{.{.{.{.{.{.{.{.{.",
"{.{.{.{.{.{.{.{.{.{.{.{.{.{.{.{.{.{.{.{.{.{.{.{.p } @.#.#.#.#.k ' @.#.#.#.#.#.#.@.@.@.@.#.#.@.@.V.C.Z.Z.C.V.0.C.u.U.T.m.(.[.[.[.[.'.I {.{.{.{.{.{.{.{.{.{.{.{.{.",
"{.{.{.{.{.{.{.{.{.{.{.{.{.{.{.{.{.{.{.{.{.{.{.{.{.% l | @.X.} y p k | o.@.@.@.X.| | | | X.@.@.[ | @.@.@. .X.0.C.O.W f.T.[.[.[.[.[.[.c.9 {.{.{.{.{.{.{.{.{.{.{.{.",
"{.{.{.{.{.{.{.{.{.{.{.{.{.{.{.{.{.{.{.{.{.{.{.{.'.{ l X.X.| [ [ B a l y z ' | | | [ l a B | | | [ ' l t k } ..b U n.'.[.[.[.[.[.[.[.).g.{.{.{.{.{.{.{.{.{.{.{.{.",
"{.{.{.{.{.{.{.{.{.{.{.{.{.{.{.{.{.{.{.{.{.{.x.R.[.w.| #.#.#.X.| | [ [ z l q a t q q q a l k ' ' l h a l [ > J s._.[.[.[.[.[.[.[.[.[._.M.j.{.{.{.{.{.{.{.{.{.{.{.",
"{.{.{.{.{.{.{.{.{.{.{.{.{.{.{.{.{.{.{.{.{.! ).[.(.e.} X.@.#.@.| ] [ | | {.{.{.{.{.$ q a B ' [ [ [ ' ] [ 4 ! /.[.[.[.[.[.[.[.[.[.[.[.[.'.).2.{.{.{.{.{.{.{.{.{.{.",
"{.{.{.{.{.{.{.{.{.{.{.{.{., Q {.{.{.{.{.{.M.[.[.Y.q.+.x V X.| ' ' | [ z {.{.{.{.{.{.{.{.q a l ' [ | [ 3 K ).[.[.[.[.[.[.[.[.[.[.[.[.[.'.(.J.l {.{.{.{.{.{.{.{.{.",
"{.{.{.{.{.{.{.{.{.{.{.{.{.; t.{.{.{.{.{.c.'.[.W.e.#.#.L T A #.#.| | B q {.{.{.{.{.{.{.{.{.{.t a ` g 7 I _.[.[.[.[.[.[.[.[.[.[.[.[.(.T.P.z.-.& {.{.{.{.{.{.{.{.{.",
"{.{.{.{.{.{.{.{.{.{.{.{.{.+ w.`.{.{.{.2.).[.W.r.#.#.#.d.R.<.m ..X.' p $ {.{.{.{.{.{.{.{.{.{.{.{.* 0 s.(.[.[.[.[.[.[.[.[.[.[.[.[.N.b.u.C.C.l {.{.{.{.{.{.{.{.{.{.",
"{.{.{.{.{.{.{.{.{.{.{.{.F n | F.].{.U /.[.).t.#.#.#.#.D b.[.Y.,.5 - q {.{.{.{.{.{.{.{.{.{.{.{.2 ) W.[.[.[.[.[.[.[.[.[.[.[.[.E.c.u.C.C.B.z {.{.{.{.{.{.{.{.{.{.{.",
"{.{.{.{.{.{.{.{.{.{.{.{._ p.j 0.y., W K.e.0.#.#.#.#.#.#.7 ( '.).^.^.z.8 ; {.{.{.{.{.{.{.# J a.Y.[.[.[.[.[.[.[.[.[.[._.(.M.x.i.A.C.X.] h {.{.{.{.{.{.{.{.{.{.{.{.",
"{.{.{.{.{.{.{.{.{.{.{.j.(.w.B #.#.X.h #.#.#.#.#.#.#.#.#.+.: s.^.[.[.[.[.'.M.2.R 7 6 n ( c.'.[.[.[.[.[.[.[.[.[.(.E.E.x.z.u.C.C.C.#.y {.{.{.{.{.{.{.{.{.{.{.{.{.{.",
"{.{.{.{.{.{.{.{.{.x.Y.[.L.X.@.#.#.#.y @.#.#.#.#.#.#.#.#.A n K.[.[.[.[.[.[.[.[.[.[.[.[.[.[.[.[.[.[.[.[._.Y.Y.I.p.t.t.A.Z.C.C.Z.#.y {.{.{.{.{.{.{.{.{.{.{.{.{.{.{.",
"{.{.{.{.{.{.{.H n._.'.v.X.@.#.#.#.X.k #.#.#.#.#.#.X.| N I W.[.[.[.[.[.[.[.[.[.'.T.[.[.[.[.[.W.m.n.H.H.D.u.u.S.Z.Z.Z.Z.C.C.0.[ t $ {.{.{.{.{.{.{.{.{.{.{.{.{.{.{.",
"{.{.{.{.{.{.{.b.[.>.W { z X.X.@.@.'  .#.@.X.' ' p i w m _.'.[.[.[.[.[.[.[.[.[.n.i.c.c.b.F.F.F.S.S.C.Z.Z.Z.Z.Z.Z.Z.C.V.%.| a z ] % {.{.{.{.{.{.{.{.{.{.{.{.{.{.{.",
"{.{.{.{.{.{.z.K.r.s X.} z | ] ' ' ' B l l r {.{.{.w } S.P.Y.[.[.[.[.[.[.[.[.U.u.@.X.X.X.@.@.@.%.&.&.0.0.0.0.0.%.o.| } k u X.C.#.q {.{.{.{.{.{.{.{.{.{.{.{.{.{.{.",
"{.{.{.{.{.6.K.c [ [ #.| ' | X.#.&.l $ {.{.{.{.{.l o.0.o.@.].W.(.[.[.[.[.[.Y.u.C.j f h h l z z l [ | X.[ [ #.@.X.} X.0.C.C.Z.C.C.X.{.{.{.{.{.{.{.{.{.{.{.{.{.{.{.",
"{.{.{.{.1 b.c M j  .$.X.l X.#.#.@.a {.{.{.{.{.{.%.&.} 0.B.@.u.).[.[.[.(.M.u.C.%.M b.9.&.$.$.#.| X.#.#.} o.Z.Z.i.b.~.~.~.~.v.C.C.#.{.{.{.{.{.{.{.{.{.{.{.{.{.{.{.",
"{.{.{.{.( T f k j B &.X.h X.#. .l i {.{.{.{.{.0.X.} %.0.' [ C.I.n.'.U.w.9.0.X.j t.'.z.$.#.#.#.@.z  .[ ' C.S.x.T._.[.[.[.[.x.C.Z.%.k {.{.{.{.{.{.{.{.{.{.{.{.{.{.",
"{.{.{.{.z f j ' j u [ y % l ' q {.{.{.{.{.{.0.X.z 0.X.' 0.V.X.} K.x.8.z V j D R.[.'.b.V.%.#.#.#.| k z X.b.M.'.[.[.[.[.[._.D.C.Z.V.` {.{.{.{.{.{.{.{.{.{.{.{.{.{.",
"{.{.{.z ' j l h y w $ {.{.{.{.{.{.{.{.{.{.X.[ B #.' } 0.#.} ' %.o.} N x *.Y.[.[.'.n.S.Z.0.#.#.#.#.l q *.(.[.[.[.[.[.[.[.K.A.C.C.C.` {.{.{.{.{.{.{.{.{.{.{.{.{.{.",
"{.{.z X.h j j h w {.{.{.{.{.{.{.{.{.{.{.h h l #.z | %.} ' o.@.j m O.b.(.[.[.[.[.M.S.Z.C.V.0.#.#.#.' f 2.[.[.[.[.[.[.[.(.G.Z.0.V.%.z {.{.{.{.{.{.{.{.{.{.{.{.{.{.",
"{.$ k a z u h t {.{.{.{.{.{.{.{.{.{.{.{.w z o.k X.o.a ' | l x W Y.'.[.[.[.[.W.J.y.V.C.C.Z.C.#.#.} i {.E [.[.[.[.[.[.[.^.A.Z.0.0.} {.{.{.{.{.{.{.{.{.{.{.{.{.{.{.",
"{.{.% l h t % {.{.{.{.{.{.{.{.{.{.{.{.{.{.B % j ' % [ l A z.^.'.[.[.[._.).b.F.C.%.V.Z.C.C.0.#.[ p {.{.L [.[.[.[.[.[.'.b.C.Z.o.| p {.{.{.{.{.{.{.{.{.{.{.{.{.{.{.",
"{.{.{.q q {.{.{.{.{.{.{.{.{.{.{.{.{.{.{.{.{.{.{.{.{.'.].[.[.[.[.W.^.~.x.u.C.C.@.@.V.V.0.#.@.} p {.{.{.{.T.[.[.[.[.[.W.i.C.F.| k % {.{.{.{.{.{.{.{.{.{.{.{.{.{.{.",
"{.{.{.{.{.{.{.{.{.{.{.{.{.{.{.{.{.{.{.{.{.{.{.{.{.-.J.(.W.Y.!.Q.v.u.Z.Z.V.V.@.' #.#.#.#.X.z a {.{.{.{.{.h.[.[.[.[.(.t.C.C.F.] & {.{.{.{.{.{.{.{.{.{.{.{.{.{.{.{.",
"{.{.{.{.{.{.{.{.{.{.{.{.{.{.{.{.{.{.{.{.{.{.{.{.{.X.#.e.u.u.C.C.Z.C.0.0.#.} k l ' l k y y {.{.{.{.{.{.{.Y M.[.'.K.y.8.B.C.F.| t {.{.{.{.{.{.{.{.{.{.{.{.{.{.{.{.",
"{.{.{.{.{.{.{.{.{.{.{.{.{.{.{.{.{.{.{.{.{.{.{.{.{.X.#.#.%.0.C.C.0.0.#.B w % r & % {.{.{.{.{.{.{.{.{.{.{.{.O.0.w.8.#.#.0.C.Z.#.#.@.{.{.{.{.{.{.{.{.{.{.{.{.{.{.{.",
"{.{.{.{.{.{.{.{.{.{.{.{.{.{.{.{.{.{.{.{.{.{.{.{.{.B @.#.#.#.#.#.#.#.[ p {.{.{.{.{.{.{.{.{.{.{.{.{.{.{.{.{.{.k X.#.#.#.#.V.Z.V.V.C.0.[ {.{.{.{.{.{.{.{.{.{.{.{.{.",
"{.{.{.{.{.{.{.{.{.{.{.{.{.{.{.{.{.{.{.{.{.{.{.{.{.% ] #.#.#.#.#.#.0.@.0.| {.{.{.{.{.{.{.{.{.{.{.{.{.{.{.{.{.{.a  .#.#.#.V.Z.C.C.C.C.0.} {.{.{.{.{.{.{.{.{.{.{.{.",
"{.{.{.{.{.{.{.{.{.{.{.{.{.{.{.{.{.{.{.{.{.{.{.{.{.a k #.#.#.#.#.0.C.Z.C.0.X.{.{.{.{.{.{.{.{.{.{.{.{.{.{.{.{.{.k [ X.#.#.0.C.C.C.C.C.C.%.' {.{.{.{.{.{.{.{.{.{.{.",
"{.{.{.{.{.{.{.{.{.{.{.{.{.{.{.{.{.{.{.{.{.{.{.{.{.l ' X.#.#.#.#.V.C.C.C.Z.0.{.{.{.{.{.{.{.{.{.{.{.{.{.{.{.{.{.a X.@.X.#.#.C.C.C.C.C.C.C.o.{.{.{.{.{.{.{.{.{.{.{.",
"{.{.{.{.{.{.{.{.{.{.{.{.{.{.{.{.{.{.{.{.{.{.{.{.{.l X.#.#.#.#.#.C.C.C.C.Z.C.X.{.{.{.{.{.{.{.{.{.{.{.{.{.{.{.{.{.' #.#.#.#.V.C.C.C.C.C.Z.0.' {.{.{.{.{.{.{.{.{.{.",
"{.{.{.{.{.{.{.{.{.{.{.{.{.{.{.{.{.{.{.{.{.{.{.{.{.{.@.#.#.#.#.#.0.C.C.C.C.Z.0.{.{.{.{.{.{.{.{.{.{.{.{.{.{.{.{.{.k #.#.#.#.0.C.C.C.C.C.C.C.X.{.{.{.{.{.{.{.{.{.{.",
"{.{.{.{.{.{.{.{.{.{.{.{.{.{.{.{.{.{.{.{.{.{.{.{.{.{.@.#.#.#.#.#.#.0.C.C.C.Z.0.' {.{.{.{.{.{.{.{.{.{.{.{.{.{.{.{.z @.#.#.#.&.V.C.C.C.C.C.Z.@.r {.{.{.{.{.{.{.{.{.",
"{.{.{.{.{.{.{.{.{.{.{.{.{.{.{.{.{.{.{.{.{.{.{.{.{.{.{.#.#.#.#.#.#.#.V.C.C.C.0.z {.{.{.{.{.{.{.{.{.{.{.{.{.{.{.{.{.X.#.#.#.#.0.C.C.C.C.C.Z.0.k {.{.{.{.{.{.{.{.{.",
"{.{.{.{.{.{.{.{.{.{.{.{.{.{.{.{.{.{.{.{.{.{.{.{.{.{.{.X.#.#.#.#.#.#.0.C.C.0. .{.{.{.{.{.{.{.{.{.{.{.{.{.{.{.{.{.{.| @.#.#.#.#.V.C.C.C.C.Z.B.[ {.{.{.{.{.{.{.{.{.",
"{.{.{.{.{.{.{.{.{.{.{.{.{.{.{.{.{.{.{.{.{.{.{.{.{.{.{.{.X.#.#.#.#.#.&.V.0.@.l {.{.{.{.{.{.{.{.{.{.{.{.{.{.{.{.{.{.{.X.o.#.#.#.0.C.C.C.C.C.C.} {.{.{.{.{.{.{.{.{.",
"{.{.{.{.{.{.{.{.{.{.{.{.{.{.{.{.{.{.{.{.{.{.{.{.{.{.{.{.z X.#.#.#.#.#.#.#. .a {.{.{.{.{.{.{.{.{.{.{.{.{.{.{.{.{.{.{.{.' [ X.#.&.V.C.C.C.C.F.X.{.{.{.{.{.{.{.{.{.",
"{.{.{.{.{.{.{.{.{.{.{.{.{.{.{.{.{.{.{.{.{.{.{.{.{.{.{.{.{.l @.#.#.#.#.#.#.' {.{.{.{.{.{.{.{.{.{.{.{.{.{.{.{.{.{.{.{.{.{.{.j h } @.V.Z.C.C.Z.#.{.{.{.{.{.{.{.{.{.",
"{.{.{.{.{.{.{.{.{.{.{.{.{.{.{.{.{.{.{.{.{.{.{.{.{.{.{.{.{.{.' #.#.#.#.#.@.a {.{.{.{.{.{.{.{.{.{.{.{.{.{.{.{.{.{.{.{.{.{.{.{.{.{.q j 0.Z.C.Z.0.y {.{.{.{.{.{.{.{.",
"{.{.{.{.{.{.{.{.{.{.{.{.{.{.{.{.{.{.{.{.{.{.{.{.{.{.{.{.{.{.l X.#.#.#.#.X.% {.{.{.{.{.{.{.{.{.{.{.{.{.{.{.{.{.{.{.{.{.{.{.{.{.{.{.{.l V.C.C.C.` {.{.{.{.{.{.{.{.",
"{.{.{.{.{.{.{.{.{.{.{.{.{.{.{.{.{.{.{.{.{.{.{.{.{.{.{.{.{.{.{.' #.#.#.#.X.% {.{.{.{.{.{.{.{.{.{.{.{.{.{.{.{.{.{.{.{.{.{.{.{.{.{.{.{.% } F.C.C.#.t {.{.{.{.{.{.{.",
"{.{.{.{.{.{.{.{.{.{.{.{.{.{.{.{.{.{.{.{.{.{.{.{.{.{.{.{.{.{.{.k @.#.#.#. .% {.{.{.{.{.{.{.{.{.{.{.{.{.{.{.{.{.{.{.{.{.{.{.{.{.{.{.{.{.y B.Z.V.@.' {.{.{.{.{.{.{.",
"{.{.{.{.{.{.{.{.{.{.{.{.{.{.{.{.{.{.{.{.{.{.{.{.{.{.{.{.{.{.{.q  .#.#.#.o.= {.{.{.{.{.{.{.{.{.{.{.{.{.{.{.{.{.{.{.{.{.{.{.{.{.{.{.{.{.y o.C.Z.@.} u {.{.{.{.{.{.",
"{.{.{.{.{.{.{.{.{.{.{.{.{.{.{.{.{.{.{.{.{.{.{.{.{.{.{.{.{._ T.6.B #.#.#.@.B b.{.{.{.{.{.{.{.{.{.{.{.{.{.{.{.{.{.{.{.{.{.{.{.{.{.{.{.{.l X.w.S.w.' | y {.{.{.{.{.",
"{.{.{.{.{.{.{.{.{.{.{.{.{.{.{.{.{.{.{.{.{.{.{.{.{.{.{.a.R.[.'.x.X.X.#.#.#.' 8.T.{.{.{.{.{.{.{.{.{.{.{.{.{.{.{.{.{.{.{.{.{.{.{.{.{.{.{.' =.6.m.c.S ' X.% {.{.{.{.",
"{.{.{.{.{.{.{.{.{.{.{.{.{.{.{.{.{.{.{.{.{.{.{.{.{.{.x.E.[.W.n.8.#.@.X.#.#.' X.R.[.{.{.{.{.{.{.{.{.{.{.{.{.{.{.{.{.{.{.{.{.{.{.{.{.{.{.y :.'.[.[.K.X.| a {.{.{.{.",
"{.{.{.{.{.{.{.{.{.{.{.{.{.{.{.{.{.{.{.{.{.{.{.{.m.(.'.[.T.4.9.#.#.#.z @.#.[ } q.Y.E.{.{.{.{.{.{.{.{.{.{.{.{.{.{.{.{.{.{.{.{.{.{.{.{.{.{.J.[.[.[.[.!.j q {.{.{.{.",
"{.{.{.{.{.{.{.{.{.{.{.{.{.{.{.{.{.{.{.{.{.{._ Y._.[._.v.9.#.#.#.#.#.` l ' l @.#.e.Y.m.{.{.{.{.{.{.{.{.{.{.{.{.{.{.{.{.{.{.{.{.{.{.{.{.{.E.[.[.[.[.[.,., {.{.{.{.",
"{.{.{.{.{.{.{.{.{.{.{.{.{.{.{.{.{.{.8 H ^ M.'.[._.M.s.8.#.#.#.#.#.#.@.' h X.#.#.#.r.M.K {.{.{.{.{.{.{.{.{.{.{.{.{.{.{.{.{.{.{.{.{.{.{.j.[.[.[.[.[.[._.k.{.{.{.{.",
"{.{.{.{.{.{.{.{.{.{.{.{.{.{.{.0 J s._.[.[.W.W.I.6.q.#.#.#.$.#.X.[ [ X.@.%.&.&.&.&.0.3.b {.{.{.{.{.{.{.{.{.{.{.{.{.{.{.{.{.{.{.{.{.{.{.T.[.[.[.[.[.[.[.(.f.{.{.{.",
"{.{.{.{.{.{.{.{.{.{.{.{.{.{.{.8.H.H.H.H.H.r.4.8.#.#.#.@.| z u a {.{.a u h h h h h h a {.{.{.{.{.{.{.{.{.{.{.{.{.{.{.{.{.{.{.{.{.{.{.n.[.[.[.[.[.[.[.[.[.Y.{.{.{.",
"{.{.{.{.{.{.{.{.{.{.{.{.{.{.{.a ' ' ' k y t t y y y y w t {.{.{.{.{.{.{.{.{.{.{.{.{.{.{.{.{.{.{.{.{.{.{.{.{.{.{.{.{.{.{.{.{.{.{.{.M.'.[.[.[.[.[.[.[.[.[.[.b.{.{.",
"{.{.{.{.{.{.{.{.{.{.{.{.{.{.{.{.{.{.{.{.{.{.{.{.{.{.{.{.{.{.{.{.{.{.{.{.{.{.{.{.{.{.{.{.{.{.{.{.{.{.{.{.{.{.{.{.{.{.{.{.{.{.{.{.h.[.[.[.[.[.[.[.[.[.[.[.[.R.K {.",
"{.{.{.{.{.{.{.{.{.{.{.{.{.{.{.{.{.{.{.{.{.{.{.{.{.{.{.{.{.{.{.{.{.{.{.{.{.{.{.{.{.{.{.{.{.{.{.{.{.{.{.{.{.{.{.{.{.{.{.{.{.{.{.. I R.[.[.[.[.[.[.[.[.[.[.[.E.8 {.",
"{.{.{.{.{.{.{.{.{.{.{.{.{.{.{.{.{.{.{.{.{.{.{.{.{.{.{.{.{.{.{.{.{.{.{.{.{.{.{.{.{.{.{.{.{.{.{.{.{.{.{.{.{.{.{.{.{.{.{.{.{.{.{.{.{.0 ;.[.[.[.[.[.[.[.[.'.M.G X {.",
"{.{.{.{.{.{.{.{.{.{.{.{.{.{.{.{.{.{.{.{.{.{.{.{.{.{.{.{.{.{.{.{.{.{.{.{.{.{.{.{.{.{.{.{.{.{.{.{.{.{.{.{.{.{.{.{.{.{.{.{.{.{.{.{.{.{.{.6 P x.[.[.[.K.~ 5 , {.{.{.",
"{.{.{.{.{.{.{.{.{.{.{.{.{.{.{.{.{.{.{.{.{.{.{.{.{.{.{.{.{.{.{.{.{.{.{.{.{.{.{.{.{.{.{.{.{.{.{.{.{.{.{.{.{.{.{.{.{.{.{.{.{.{.{.{.{.{.{.{.  o @ 9 0 @ . {.{.{.{.{."
};
