/* XPM */
static char *result[] = {
/* columns rows colors chars-per-pixel */
"80 80 176 2 ",
"   c #897D7B",
".  c #8B8666",
"X  c #8F896B",
"o  c #908E6F",
"O  c #9A956F",
"+  c #8D847A",
"@  c #9A957A",
"#  c #A29F77",
"$  c #A49F7D",
"%  c #857495",
"&  c #8A7B92",
"*  c #877698",
"=  c #8A7A9C",
"-  c #8D7DA1",
";  c #9D938C",
":  c #978B9D",
">  c #A19C83",
",  c #A0988E",
"<  c #A29B90",
"1  c #A49C9A",
"2  c #ACA985",
"3  c #A3A38E",
"4  c #ABA58B",
"5  c #B1AB8C",
"6  c #B2B78F",
"7  c #AEA694",
"8  c #ADA991",
"9  c #B1AC98",
"0  c #B2B295",
"q  c #B5BC94",
"w  c #BABC96",
"e  c #B0B298",
"r  c #B9B49C",
"t  c #BABC9C",
"y  c #8F80A1",
"u  c #9284A4",
"i  c #9789A7",
"p  c #998DA4",
"a  c #9485AB",
"s  c #9789AA",
"d  c #9A8CAC",
"f  c #9D90AD",
"g  c #9A8CB2",
"h  c #9E91B5",
"j  c #A49CA7",
"k  c #A195AC",
"l  c #A295B5",
"z  c #A599B5",
"x  c #A99FB7",
"c  c #A296B9",
"v  c #A59ABB",
"b  c #A99EBD",
"n  c #ABA4AC",
"m  c #AEA9AB",
"M  c #B3AEA3",
"N  c #B2ABAD",
"B  c #B4B2A6",
"V  c #B9B7A2",
"C  c #BBBEA2",
"Z  c #BDBEAB",
"A  c #A7A0B7",
"S  c #ADA5B5",
"D  c #ACA1BE",
"F  c #B0A7B5",
"G  c #B2ABB4",
"H  c #B2ABBB",
"J  c #BCBCB2",
"K  c #B9B4BA",
"L  c #C1BFBE",
"P  c #BCC29B",
"I  c #BEC4A3",
"U  c #C1C6A7",
"Y  c #C6CCA6",
"T  c #C5C6AD",
"R  c #C6CBAB",
"E  c #C9CEAC",
"W  c #CBD2AB",
"Q  c #CACCB5",
"!  c #C5C4BD",
"~  c #CDD4B3",
"^  c #CFD3B9",
"/  c #D0D7B4",
"(  c #D3DBB4",
")  c #D1D6BA",
"_  c #D5DCBA",
"`  c #D8DEB9",
"'  c #DAE1BC",
"]  c #AA9EC0",
"[  c #ADA3C2",
"{  c #B1A6C4",
"}  c #B4ABC5",
"|  c #B6ACC9",
" . c #B8AECB",
".. c #B7B0C1",
"X. c #BAB3C5",
"o. c #BCB3CD",
"O. c #BFB5D1",
"+. c #C1BBC6",
"@. c #C0B6CF",
"#. c #C4BDCB",
"$. c #C0B7D2",
"%. c #C5BCD5",
"&. c #C8BFD6",
"*. c #C8BFD8",
"=. c #C5C1C3",
"-. c #CCCBC4",
";. c #C5C2C8",
":. c #CCC7CF",
">. c #CECBC9",
",. c #D2CEC0",
"<. c #D0CDCF",
"1. c #D2D3C3",
"2. c #D7DCC5",
"3. c #D8DBC4",
"4. c #D2D1CA",
"5. c #DBDCCC",
"6. c #CAC3D4",
"7. c #CEC9D2",
"8. c #CBC3DC",
"9. c #CFC8DC",
"0. c #D1CDD2",
"q. c #D1CBDB",
"w. c #D5D2D2",
"e. c #D8D7D0",
"r. c #DAD6DC",
"t. c #DEDCDB",
"y. c #DDE3C4",
"u. c #DEE1CC",
"i. c #DFE0D2",
"p. c #E0E7C6",
"a. c #E2E8C7",
"s. c #E5EBCD",
"d. c #E9EFCF",
"f. c #EBF2CF",
"g. c #E2E4D3",
"h. c #E6EAD4",
"j. c #E9EED4",
"k. c #E4E4DA",
"l. c #E6E9DA",
"z. c #EAEDDB",
"x. c #ECF1D5",
"c. c #EEF2DC",
"v. c #F0F5DD",
"b. c #CFC6E0",
"n. c #D0C7E0",
"m. c #D5CDE6",
"M. c #D6CEE8",
"N. c #D7D0E4",
"B. c #D9D3E3",
"V. c #DED9E3",
"C. c #D7D0E8",
"Z. c #D8D0E9",
"A. c #DED8ED",
"S. c #E0DDE5",
"D. c #E2DDEA",
"F. c #E4E2E4",
"G. c #ECEDE2",
"H. c #E7E3EB",
"J. c #EEEEEB",
"K. c #EEF1E3",
"L. c #EFF1E8",
"P. c #F2F5E4",
"I. c #F5F8E6",
"U. c #F3F5EC",
"Y. c #F6F9EB",
"T. c #F8FAEF",
"R. c #EBE8F1",
"E. c #F5F6F2",
"W. c #F7F8F1",
"Q. c #F9FBF1",
"!. c #FAFCF4",
"~. c #F7F5FA",
"^. c #FBFBF8",
"/. c #FDFEF9",
"(. c white",
"). c None",
/* pixels */
").).).).).).).).).).).).).).).).).).).).).).).).).).).).).).).).).).).).).).).).).).).).).).).).).).).).).).).).).).).).).).).).).).).).).).).).).).).).).).).).",
").).).).).).).).).).).).).).).).).).).).).).).).).).).).).2.a.c.(.K.J h ).).).).).).).).).).).).).).).).).).).).).).).).).).).).).).).).).).).).).).).).).).).).",
").).).).).).).).).).).).).).).).).).).).).).).).).).' h.!.(.(.(.(.(.A.O.c ).).).).).).).).).).).).).).).).).).).).).).).).).).).).).).).).).).).).).).).).).).).",
").).).).).).).).).).).).).).).).).).).).).).).).).2.Y.(.(.(.(.(.(.(.k.m.[ ).).).).).).).).).).).).).).).).).).).).).).).).).).).).).).).).).).).).).).).).).).).",
").).).).).).).).).).).).).).).).).).).).).).).).) ^.(.(.(.(.(.(.(.P.r.M.$.).).).).).).).).).).).).).).).).).).).).).).).).).).).).).).).).).).).).).).).).).).).",
").).).).).).).).).).).).).).).).).).).).).).).).v.(.(.(.(.(.(.(.P.t.M.M.9.u.Y.(.(.(.(.(.I.y.~ ).).).).).).).).).).).).).).).).).).).).).).).).).).).).).).).).).",
").).).).).).).).).).).).).).).).).).).).).).).E ^.(.(.(.(.(.Q.P.t.m.m.M.9.~.(.(.(.(.(.(.(.(.(.(./.z.2._ ).).).).).).).).).).).).).).).).).).).).).).).).).).).).",
").).).).).).).).).).).).).).).).).).).).).).)._ ^.(.(.Q.c.v.l.r.m.m.m.M.6.h.Y.(.(.(.(.(.(.(.(.(.(.(.(./.s.' ' W q ).).).).).).).).).).).).).).).).).).).).).).).",
").).).).).).).).).).).).).).).).).).).).).).).:.h.j.x.k.B.r.N.M.m.m.m.m.{ 6.B.l.^./.(.(.(.(.(.(.(.(.(.(./.!.Q.Y.L.z.W ).).).).).).).).).).).).).).).).).).).).).",
").).).).).).).).).).).).).).).).).).).).).).).%.m.C.C.9.#.q.m.m.m.m.m.b.z } *.n.V.h.E.Q.Q.(.(.(.(.Q.(.(.(.(.(.(.(.(.Q.x.).).).).).).).).).).).).).).).).).).).).",
").).).).).).).).).).).).).).).).).).).).).).).} m.M.9.; + %.M.m.m.m.M.o.v $.o.O.8.m.N.g.g.J.Y./.P.x./.(.(.(.(.(.(.(.(.Q.a.).).).).).).).).).).).).).).).).).).).",
").).).).).).).).).).).).).).).).).).).).).).).).*.M.9.N X.m.m.m.m.n.*.c l $.%.$.o.$.9.M.M.N.t.F.' c.(.(.(.(.(.(.(.(.(.(.P._ ).).).).).).).).).).).).).).).).).).",
").).).).).).).).).).).).).).).).).).).).).).).).D b.M.Z.Z.M.m.n.8.$.c g c | %.%.%.$.o.$.n.m.M.q.t ~ y.P.(.(.(.(.(.(.(.(.(.y.).).).).).).).).).).).).).).).).).).",
").).).).).).).).).).).).).).).).).).).).).).).).-.} n.Z.m.8.o.d v { g c v c } [ $.%.%.$.o.o.%.Z a.W.x.f.Q.(.(.(.(.(.(.(.(.G.~ / ).).).).).).).).).).).).).).).).",
").).).).).).).).).).).).).).).).).).).).).).).' Y.-.{  .| v o.[ [ s a g c h | [ [ o.%.%.%.$.b ! x.(.(.(.(.(.(.(.(.(.(.(.(.Y.j./.h.~ ).).).).).).).).).).).).).).",
").).).).).).).).).).).).).).).).).).).).).).).I.(.Q.0.K p } *.} i - a a a s l %.{ b [ { o.} [ m.k.I./.(.(.(.(.(.(.(.(.(.(./.Q.(.(.P._ ).).).).).).).).).).).).).",
").).).).).).).).).).).).).).).).).).).).).).).(.(.(.(./.5.k d b D s = = = - D %.%.o.} b c c %.M.C.r.F.c.Q.(.(.(.(.(./.v.Q.(.(.(.(.(.y.).).).).).).).).).).).).).",
").).).).).).).).).).).).).).).).).).).).).).).x./.(.(.(.Q.3.=.$.%.o.o.o.o.o.%.%.%.%.%.$.o.} %.M.M.M.m.B.B.S.j.j.j.j.x.Q./.(.(.(.(.(.P.P ).).).).).).).).).).).).",
").).).).).).).).).).).).).).).).).).).).).).).T h.Q.Q.P.u.7.&.%.o.%.%.%.%.%.%.%.%.%.%.%.%.%.%.n.M.m.m.m.m.m.C.m.q.m.h.(.(.(.(.(.(.(./._ ).).).).).).).).).).).).",
").).).).).).).).).).).).).).).).).).).).).).).).H 5.5.w.%.%.%.$.| %.%.%.%.%.%.%.%.%.%.%.%.%.%.%.9.m.M.C.C.m.9.%.%.n.h.(.(.Q.(.(.(.(.(.z.( ).).).).).).).).).).).",
").).).).).).).).).).).).).).).).).).).).).).).).= l O.%.%.%.o.[ [ %.%.%.%.%.$.$.%.%.%.%.%.%.%.%.%.%.$.| [ { $.9.m.m.t.Y.Y.' j.v.I.(.(.P.x.x.).).).).).).).).).).",
").).).).).).).).).).).).).).).).).).).).).).).I / 1.D [ [ c d u h } $.%.%.%.%.o.o.%.%.%.%.%.%.%.%.o.} [ b s 8.C.M.m.#.w ' P.Y.Q.!.(.(.Y.Y.Y.).).).).).).).).).).",
").).).).).).).).).).).).).).).).).).).).).).p.U.!.T.D v { { { [ c g [ o.$.%.%.$.} | $.%.%.%.%.%.$.} } } D g { b.%.M C U.^.(.(.(.(.(.(.(.v./.c.).).).).).).).).).",
").).).).).).).).).).).).).).).).).).).).a.v.(.Q.P.5.} h D [ [ n j [ a g v D }  .} } } } | o.o.} } } } [ h v p m 0 ) W.(.(.(.(.(.(.(.(.(.v.!.(.h.).).).).).).).).",
").).).).).).).).).).).r T ).).).).).).Y.!./.I.i.0.$.} | o.| | ! Q M & ).).- s f c b [ D v [ } } } } [ v v 1 3 P Y.(.(.(.(.(.(.(.(.(.(.(.T./.(.^.~ ).).).).).).).",
").).).).).).).).).).).7 F.).).).).).l.(.I.h.<.%.o.o.$.%.%.%.%.-.W.k.Z ; ).).).).).y i h v } } } } { { j 3 6 y.Y.(.(.(.(.(.(.(.(.(.(.(.(.(.(.(.(.z.).).).).).).).",
").).).).).).).).).).)., m.J.q ).2 j.Q.j.w.6.%.%.$.%.%.%.%.%.%.#.1.^.!.g.C # ).).).).).).& d A D n @ e U ` P.(.(.(.(.(.(.(.(.(.(.(.(.(.(./././.c.g.).).).).).).).",
").).).).).).).).).).).D n.J.w 8 P.z.5.6.%.%.%.%.%.%.%.%.%.%.%.*.G 0 Y.Q.^.W.s.R 4 > @ > 8 C T Q y.P.^./.(.(.(.(.(.(.(.(.(.(.(.(.(./.Q.J.h.h.t.C.m.).).).).).).).",
").).).).).).).).).c.5.d O.9.B : 4.7.%.%.%.%.%.%.%.%.%.%.%.%.%.$.v   Q K.(.(.(.(.(.Y.j.Y.(.(.(.(.(.(.(.(.(.(.(.(.(.(.(.(.(./.I.I.P.F.t.m.M.M.M.n. .).).).).).).).",
").).).).).).).Y.Q.(.k.h o.%.%.d O.%.%.%.%.%.%.%.%.%.%.%.%.%.} d ).w u.(.(.(.(.(.(.(.(.(.Y./.(.(.(.(.(.(.(.(.(.(.(.Y.v.v.v.H.t.t.r.m.b.8.$.$.| l y ).).).).).).).",
").).).).).~ !.h.Q j.+.v %.%.%.v $.%.%.%.%.%.%.%.%.%.%.%.o.[ g ).P c.(.(.(.(.(.(.(.(.(.(.h.s.x.x.x.x.x.x.x.x.x.x.l.V.r.r.r.m.M.M.M.m.n.8.[ h ).).).).).).).).).).",
").).).).R L.l.r k X.h v  .$. .o.%.%.$.O.O.O.o.o.} D } [ h ).).< G.Q./.(.(.(.(.(.(.(.(.P.r.N.N.N.N.N.N.N.N.N.N.N.m.m.M.m.M.M.C.Z.m.8.} v ).).).).).).).).).).).).",
").).).t G.1.N [ h } h [ [ [ v }  .b v v v v a a * % ).).).).x 9.4.5.^.(.(.(.(.(.(.(.Y.t.%. . .o.$.8.m.Z.M.M.M.M.M.M.Z.Z.m.8.$. .o.v = ).).).).).).).).).).).).).",
").).).T k.1 { d h } h [ } o.| b ).).).).).).).).).).).).).| b.%.O.t.v.K.(.(.(.(.(.T.k.m.{ s f l v [ x D  .%.%.%.%.$.o.x { } { z l v ).).).).).).).).).).).).).).",
").).)._ m z z d h } v v o.%.{ ).).).).).).).).).).).).).%.8.} O.m.X.L j.(.(.(./.v.k.m.n.l | $.$.$.o.{ {  .$.o.[ $.8.*.o.%.9.n.n.[ u ).).).).).).).).).).).).).).",
").).h S z z } i g } v h o.O.d ).).).).).).).).).).).).%.%.[ $.8.} [ 9.r.y.T.I.S.N.9.O.x { %.%.%.$.O.*.%.%.%.| } n.B.B.B.B.N.M.m.$.d ).).).).).).).).).).).).).).",
").u [ v z b d f u l = g b [ ).).).).).).).).).).).).%.%.v *.%.] %.m.%.b >.h.w.O.{ S F k.V.%.%.%.o.| %.%.%.$.{ #.t.x.x.x.x.z.r.C.m. .).).).).).).).).).).).).).).",
"u } { h z l f : % % ).).).).).).).).).).).).).).).{ } b $.{ ] *.8.{ { O.$.{ S N =.c./.(.c.6.%.%.O.b o.%.%.$.X.h.Y.(.(.(.(./.P.k.m.8.).).).).).).).).).).).).).).",
"u v h z l h u ).).).).).).).).).).).).).).).).).).l h $.{ { %.| b | %.b m ! t.Y.(.(.(.Q.d.q.%.%.o.c v o.o...4.(.(.(.(.(.(.(.(.Y.t.n.| ).).).).).).).).).).).).).",
").a [ s i ).).).).).).).).).).).).).).).).).).).).f O.v { %.l z o.D z e.J./.(.(././.G.V.B.m.9.%.%.} h { } K h.(.(.(.(.(.(.(.(./.h.m.o.).).).).).).).).).).).).).",
").).g = ).).).).).).).).).).).).).).).).).).).).).).i i X.z { } G u.U.(.(.(./.Q.j.t.C.m.m.m.n.%.%.o.v g h G v.(.(.(.(.(.(.(.(./.k.m.$.).).).).).).).).).).).).).",
").).).).).).).).).).).).).).).).).).).).).).).).).).).).j.^.(.(.(.(.(.(.Q.Y.G.g.C.m.M.m.m.m.m.8.$.} } c u 4 Y.(.(.(.(.(.(.(.(.E.N.m.8.).).).).).).).).).).).).).",
").).).).).).).).).).).).).).).).).).).).).).).).).).).y.W.(.(.(.(.(.I.v.k.r.m.M.m.m.b.n.m.M.n.*.o.} v s u V (.(.(.(.(.(.(.(.(.c.N.m.8.).).).).).).).).).).).).).",
").).).).).).).).).).).).).).).).).).).).).).).).).).).a.x.v.(./.c.x.t.r.C.M.m.m.n.%.o.n.m.m.*.o.} b ).).).I (.(.(.(.(.(.(.(.Y.t.n.b. .).).).).).).).).).).).).).",
").).).).).).).).).).).).).).).).).).).).).).).).).).).X.6.0.h.h.B.B.m.M.M.m.m.8.| { $.%.%.o.[ v g ).).).).C (.(.(.(.(.(.(.T.k.m.*. .c ).).).).).).).).).).).).).",
").).).).).).).).).).).).).).).).).).).).).).).).).).).v %.%.9.m.m.m.M.m.n.*.o.v v { D b l v h ).).).).).).5 /.(.(.(.(.(.Q.k.m.m.o.D ).).).).).).).).).).).).).).",
").).).).).).).).).).).).).).).).).).).).).).).).).).).v $.%.9.m.m.m.n.8.$.} c s f d a - % ).).).).).).).).r (.(.(.(.(./.l.C.m.n.[ h ).).).).).).).).).).).).).).",
").).).).).).).).).).).).).).).).).).).).).).).).).).).).| %.8.m.m.8.%.o.v g g ).).).).).).).).).).).).).).).Y.(.(.(.P.l.N.m.m.8.h ).).).).).).).).).).).).).).).",
").).).).).).).).).).).).).).).).).).).).).).).).).).).).D %.%.*.*.%.o.b g - ).).).).).).).).).).).).).).).).~ E.E.j.0.9.M.m.m.| u ).).).).).).).).).).).).).).).",
").).).).).).).).).).).).).).).).).).).).).).).).).).).).l %.%.%.o.{ o.8.8.[ ).).).).).).).).).).).).).).).).z $.8.6.%.8.m.M.b.} O.[ ).).).).).).).).).).).).).).",
").).).).).).).).).).).).).).).).).).).).).).).).).).).).v $.%.$.o.%.m.m.m.*.] ).).).).).).).).).).).).).).).).D $.%.%.%.n.M.9.$.m.m.8.o.).).).).).).).).).).).).",
").).).).).).).).).).).).).).).).).).).).).).).).).).).).o.%.%.$.n.M.m.m.m.m.$.l ).).).).).).).).).).).).).).).).b $.%.%.n.M.b.9.m.m.M.n.o.[ ).).).).).).).).).).",
").).).).).).).).).).).).).).).).).).).).).).).).).).).).$.%.%.*.m.m.m.m.m.m.m.{ ).).).).).).).).).).).).).).).).- D %.%.8.m.m.m.m.m.m.m.m.O.).).).).).).).).).).",
").).).).).).).).).).).).).).).).).).).).).).).).).).).).O.%.%.%.8.m.m.m.m.m.m.%.g ).).).).).).).).).).).).).).).).u  .%.%.n.m.m.m.m.m.m.M.n.$.).).).).).).).).).",
").).).).).).).).).).).).).).).).).).).).).).).).).).).).| %.%.%.8.m.m.m.m.m.M.*.[ ).).).).).).).).).).).).).).).).- v $.%.8.m.m.m.m.m.m.m.M.*.).).).).).).).).).",
").).).).).).).).).).).).).).).).).).).).).).).).).).).).b $.%.%.%.9.M.m.m.M.m.O.c ).).).).).).).).).).).).).).).).).D $.%.*.n.m.m.m.m.m.m.M.b.).).).).).).).).).",
").).).).).).).).).).).).).).).).).).).).).).).).).).).).u } %.%.%.8.m.m.m.m.8.} ).).).).).).).).).).).).).).).).).).h o.%.%.*.m.M.m.m.m.m.m.m.[ ).).).).).).).).",
").).).).).).).).).).).).).).).).).).).).).).).).).).).).).i o.%.%.%.8.m.m.8.o.l ).).).).).).).).).).).).).).).).).).).v $.%.%.8.m.M.m.m.m.m.m.] ).).).).).).).).",
").).).).).).).).).).).).).).).).).).).).).).).).).).).).).).l $.%.%.*.n.8.$.b ).).).).).).).).).).).).).).).).).).).).).[ o.%.%.8.m.M.m.m.m.m.v ).).).).).).).).",
").).).).).).).).).).).).).).).).).).).).).).).).).).).).).).a | %.%.%.%.%. .h ).).).).).).).).).).).).).).).).).).).).).).c } %.%.8.m.m.m.m.m.f ).).).).).).).).",
").).).).).).).).).).).).).).).).).).).).).).).).).).).).).).).v %.%.%.%.%.v ).).).).).).).).).).).).).).).).).).).).).).).).).[ o.%.9.m.m.m.m.f ).).).).).).).).",
").).).).).).).).).).).).).).).).).).).).).).).).).).).).).).).u $.%.%.%.| - ).).).).).).).).).).).).).).).).).).).).).).).).).).).l | 9.m.m.m.v ).).).).).).).).",
").).).).).).).).).).).).).).).).).).).).).).).).).).).).).).).= @.%.%.%.[ = ).).).).).).).).).).).).).).).).).).).).).).).).).).).).u | *.m.m.o.y ).).).).).).).",
").).).).).).).).).).).).).).).).).).).).).).).).).).).).).).).- | %.%.%.} = ).).).).).).).).).).).).).).).).).).).).).).).).).).).).).h o.n.m.m.| ).).).).).).).",
").).).).).).).).).).).).).).).).).).).).).).).).).).).).).).).;.;.o.o.%.o.f q ).).).).).).).).).).).).).).).).).).).).).).).).).).).).).v *.m.8.%.c ).).).).).).",
").).).).).).).).).).).).).).).).).).).).).).).).).).).).).y.P.T.g.$.{ o.%.D l.) ).).).).).).).).).).).).).).).).).).).).).).).).).).).).g $.9.8.o.o.h ).).).).).",
").).).).).).).).).).).).).).).).).).).).).).).).).).).).' Q.(.z.6.%.v o.%.D P.W.E ).).).).).).).).).).).).).).).).).).).).).).).).).).l b +.G.~.e.$.b % ).).).).",
").).).).).).).).).).).).).).).).).).).).).).).).).).)._ Y.(.K.7.%.%.v o.%.} 0.U.T.a.).).).).).).).).).).).).).).).).).).).).).).).).).D H Q (.(.(.S.} % ).).).).",
").).).).).).).).).).).).).).).).).).).).).).).).).).j.(.(.P.0.%.%.%.[ o.o.v %.w.Y.P.).).).).).).).).).).).).).).).).).).).).).).).).).a B c.(.(.(.(.q.- ).).).).",
").).).).).).).).).).).).).).).).).).).).).).).).p.z.(.Q.F.0.%.%.$.o.v s i x %.%.e.v.).).).).).).).).).).).).).).).).).).).).).).).).).).5.(.(.(.(.(.E.J ).).).).",
").).).).).).).).).).).).).).).).).).).).).).Y l.!.(.c.i.%.%.%.%.} } o.| } $.%.%.6.7.).).).).).).).).).).).).).).).).).).).).).).).).).).Y.(.(.(.(.(./._ ).).).).",
").).).).).).).).).).).).).).).).).).).).2 3.^.(.~.G.7.&.%.%.$.{ c {  .o.o.O.O.O.o.{ ).).).).).).).).).).).).).).).).).).).).).).).).).s.(.(.(.(.(.(.(.z.).).).).",
").).).).).).).).).).).).).).).).).).t ^ U.Y.R.H.8.&.%.$.| z h = % % % = a v v v a % ).).).).).).).).).).).).).).).).).).).).).).).).).I.(.(.(.(.(.(.(.Q./ ).).).",
").).).).).).).).).).).).).).).).J 4.S.D.S.w.%.%.o.{ b s a ).).).).).).).).).).).).).).).).).).).).).).).).).).).).).).).).).).).).).l.(.(.(.(.(.(.(.(.(.P.).).).",
").).).).).).).).).).).).).).).h [ b c c d s s s u - ).).).).).).).).).).).).).).).).).).).).).).).).).).).).).).).).).).).).).).).c./.(.(.(.(.(.(.(.(.(.(.l.).).",
").).).).).).).).).).).).).).).).).).).).).).).).).).).).).).).).).).).).).).).).).).).).).).).).).).).).).).).).).).).).).).).).a.(.(.(.(.(.(.(.(.(.(.(.(.Y.Y ).",
").).).).).).).).).).).).).).).).).).).).).).).).).).).).).).).).).).).).).).).).).).).).).).).).).).).).).).).).).).).).).).).X E U.(.(.(.(.(.(.(.(.(.(.(.Y.0 ).",
").).).).).).).).).).).).).).).).).).).).).).).).).).).).).).).).).).).).).).).).).).).).).).).).).).).).).).).).).).).).).).).).).r ,.(.(.(.(.(.(.(.(./.c.P o ).",
").).).).).).).).).).).).).).).).).).).).).).).).).).).).).).).).).).).).).).).).).).).).).).).).).).).).).).).).).).).).).).).).).).).9 T h.(.(.(.K.^ 9 > ).).).",
").).).).).).).).).).).).).).).).).).).).).).).).).).).).).).).).).).).).).).).).).).).).).).).).).).).).).).).).).).).).).).).).).).).).. O $ 0 t # X ).).).).)."
};
