/* XPM */
static char *result[] = {
/* columns rows colors chars-per-pixel */
"80 80 188 2 ",
"   c #928A6A",
".  c #98916E",
"X  c #90867D",
"o  c #9B9572",
"O  c #9F9F7A",
"+  c #A19D73",
"@  c #A2A074",
"#  c #847395",
"$  c #867598",
"%  c #8C7C9E",
"&  c #8E7DA3",
"*  c #938A87",
"=  c #9E958C",
"-  c #928793",
";  c #9E9C90",
":  c #A59F83",
">  c #A39B96",
",  c #A29B9B",
"<  c #ACA887",
"1  c #ACAC86",
"2  c #B0AA89",
"3  c #A9B187",
"4  c #ACB38A",
"5  c #B3B48C",
"6  c #B0B88E",
"7  c #A8A297",
"8  c #ABA797",
"9  c #B4B693",
"0  c #B5BD94",
"q  c #BAB990",
"w  c #B2B29B",
"e  c #B7BC9B",
"r  c #BCBB9B",
"t  c #8E80A0",
"y  c #9283A5",
"u  c #9689A6",
"i  c #988AA7",
"p  c #9485AB",
"a  c #9688AB",
"s  c #998CAC",
"d  c #9D92A7",
"f  c #9E92AF",
"g  c #9789B1",
"h  c #9B8EB3",
"j  c #9E92B4",
"k  c #9F94B8",
"l  c #A195AB",
"z  c #A59CAC",
"x  c #A295B4",
"c  c #A499B5",
"v  c #AA9FB0",
"b  c #A296B9",
"n  c #A59BBC",
"m  c #A99DBD",
"M  c #AAA8A6",
"N  c #A9A2AB",
"B  c #B2ACAA",
"V  c #B4B6A4",
"C  c #B5B3AA",
"Z  c #BABBAA",
"A  c #ADA4B6",
"S  c #AEAAB3",
"D  c #ACA2BD",
"F  c #B4ACBD",
"G  c #BDBDB3",
"H  c #B9B5BC",
"J  c #BDBBBC",
"K  c #C4BEBE",
"L  c #BFC095",
"P  c #BCC49C",
"I  c #BEC4A3",
"U  c #C1C39A",
"Y  c #C1C4A3",
"T  c #C5CBA4",
"R  c #CACDA5",
"E  c #C2C5AB",
"W  c #C6CCAB",
"Q  c #CACCAB",
"!  c #C8D0A7",
"~  c #CBD2AC",
"^  c #D0D8AD",
"/  c #C3C4B4",
"(  c #CBCBB4",
")  c #C9C7BF",
"_  c #CDD3B3",
"`  c #CED2BC",
"'  c #D0D5B6",
"]  c #D2DAB4",
"[  c #D1D6BA",
"{  c #D7DDBA",
"}  c #D8DFBC",
"|  c #DDE5BC",
" . c #AB9EC0",
".. c #ADA3C2",
"X. c #B1A6C4",
"o. c #B4ABC6",
"O. c #B8AFC4",
"+. c #B2A5C8",
"@. c #B6ACC9",
"#. c #B8AECB",
"$. c #BBB2C7",
"%. c #BDB8C0",
"&. c #BBB3CD",
"*. c #BFB8CA",
"=. c #BEB5D1",
"-. c #C2BDC4",
";. c #C4BDCD",
":. c #C0B7D2",
">. c #C5BCD5",
",. c #C8BFD7",
"<. c #C7BED8",
"1. c #C8BFD8",
"2. c #CBCBC1",
"3. c #C7C3CA",
"4. c #C8C2CE",
"5. c #CCCACB",
"6. c #D0CECB",
"7. c #D4D4C2",
"8. c #D6DAC2",
"9. c #D9DEC5",
"0. c #D5D5CD",
"q. c #DBDCCC",
"w. c #CAC3D4",
"e. c #CEC9D4",
"r. c #CBC3DC",
"t. c #D1CDD2",
"y. c #D3CCDE",
"u. c #D3D2D1",
"i. c #D8D7D5",
"p. c #DCDBD4",
"a. c #D7D1DF",
"s. c #D9D5DD",
"d. c #DDDBDB",
"f. c #DDE3C3",
"g. c #DDE2CA",
"h. c #DFE1D2",
"j. c #E0E6C5",
"k. c #E2E9C5",
"l. c #E1E6CC",
"z. c #E4EACC",
"x. c #E8EFCC",
"c. c #EAF0CE",
"v. c #E2E5D4",
"b. c #E5E9D3",
"n. c #E9EED4",
"m. c #E3E4DA",
"M. c #E6E8D9",
"N. c #EAEDDB",
"B. c #ECF2D4",
"V. c #EEF2DB",
"C. c #F0F5DD",
"Z. c #CFC7E0",
"A. c #D0C7E1",
"S. c #D5CDE6",
"D. c #D7CEE8",
"F. c #D7D0E4",
"G. c #D9D4E2",
"H. c #DED9E4",
"J. c #D7D0E8",
"K. c #E1DEE3",
"L. c #E1DDEA",
"P. c #E4E2E5",
"I. c #E8E7E6",
"U. c #E7E8E1",
"Y. c #EAECE2",
"T. c #EDEDEB",
"R. c #EFF1E2",
"E. c #EFF0E8",
"W. c #F2F6E4",
"Q. c #F4F8E5",
"!. c #F3F5EB",
"~. c #F4F6E9",
"^. c #F1F2ED",
"/. c #F6F9EA",
"(. c #F6F9EC",
"). c #F9FBEE",
"_. c #E9E5F1",
"`. c #EEECF1",
"'. c #F1EEF6",
"]. c #F5F4F0",
"[. c #F7F9F2",
"{. c #FAFCF3",
"}. c #FCFDF7",
"|. c #F8F7F9",
" X c #FDFDFA",
".X c #FDFDFD",
"XX c white",
"oX c None",
/* pixels */
"oXoXoXoXoXoXoXoXoXoXoXoXoXoXoXoXoXoXoXoXoXoXoXoXoXoXoXoXoXoXoXoX_ } B.XXb.V s oXoXoXoXoXoXoXoXoXoXoXoXoXoXoXoXoXoXoXoXoXoXoXoXoXoXoXoXoXoXoXoXoXoXoXoXoXoXoXoXoX",
"oXoXoXoXoXoXoXoXoXoXoXoXoXoXoXoXoXoXoXoXoXoXoXoXoXoXoXoXoX] g.}.XXXXXXXXXXF.o.h oXoXoXoXoXoXoXoXoXoXoXoXoXoXoXoXoXoXoXoXoXoXoXoXoXoXoXoXoXoXoXoXoXoXoXoXoXoXoXoX",
"oXoXoXoXoXoXoXoXoXoXoXoXoXoXoXoXoXoXoXoXoXoXoXoXoXoXoXoX8.~.XXXXXXXXXXXXXXm.S.n oXoXoXoXoXoXoXoXoXoXoXoXoXoXoXoXoXoXoXoXoXoXoXoXoXoXoXoXoXoXoXoXoXoXoXoXoXoXoXoX",
"oXoXoXoXoXoXoXoXoXoXoXoXoXoXoXoXoXoXoXoXoXoXoXoXoXoXoX` |.XXXXXXXXXXXXXXW.d.D.&.e P 4 4 4 oXoXoXoXoXoXoXoXoXoXoXoXoXoXoXoXoXoXoXoXoXoXoXoXoXoXoXoXoXoXoXoXoXoXoX",
"oXoXoXoXoXoXoXoXoXoXoXoXoXoXoXoXoXoXoXoXoXoXoXoXoXoXoXV.XXXXXXXXXXXXXX~.d.D.D.r.^.].^.^.^.B.k.{ oXoXoXoXoXoXoXoXoXoXoXoXoXoXoXoXoXoXoXoXoXoXoXoXoXoXoXoXoXoXoXoX",
"oXoXoXoXoXoXoXoXoXoXoXoXoXoXoXoXoXoXoXoXoXoXoXoXoXoXQ }.XXXXXXXXXX}./.d.D.D.D.y..XXXXXXXXXXXXXXX{.V.oXoXoXoXoXoXoXoXoXoXoXoXoXoXoXoXoXoXoXoXoXoXoXoXoXoXoXoXoXoX",
"oXoXoXoXoXoXoXoXoXoXoXoXoXoXoXoXoXoXoXoXoXoXoXoXoXoX}  XXXXX{.Q.Q.N.p.D.D.D.D.r.R.{.XXXXXXXXXXXXXXXX XW.B.oXoXoXoXoXoXoXoXoXoXoXoXoXoXoXoXoXoXoXoXoXoXoXoXoXoXoX",
"oXoXoXoXoXoXoXoXoXoXoXoXoXoXoXoXoXoXoXoXoXoXoXoXoXoX6.V.V.C.M.d.d.F.D.D.D.D.D.X.3.K.V./.XXXXXXXXXXXXXXXX{.Q.| ~ 0 oXoXoXoXoXoXoXoXoXoXoXoXoXoXoXoXoXoXoXoXoXoXoX",
"oXoXoXoXoXoXoXoXoXoXoXoXoXoXoXoXoXoXoXoXoXoXoXoXoXoXw.a.s.G.y.r.S.D.D.D.D.D.Z.x &.:.y.G.M.V. XXXXXXXXX XXXXX{.(.E.N.] 6 oXoXoXoXoXoXoXoXoXoXoXoXoXoXoXoXoXoXoXoX",
"oXoXoXoXoXoXoXoXoXoXoXoXoXoXoXoXoXoXoXoXoXoXoXoXoXoX&.D.D.r.> X w.D.D.D.D.J.&.n >.&.:.Z.D.G.b.^.}.XX).Q.XXXXXXXXXXXX{.z.W oXoXoXoXoXoXoXoXoXoXoXoXoXoXoXoXoXoXoX",
"oXoXoXoXoXoXoXoXoXoXoXoXoXoXoXoXoXoXoXoXoXoXoXoXoXoXH r.D.;.> F D.D.D.D.S.r.b x &.<.&.&.<.S.D.F.m.T.W.XXXXXXXXXXXXXXXXXX X8.oXoXoXoXoXoXoXoXoXoXoXoXoXoXoXoXoXoX",
"oXoXoXoXoXoXoXoXoXoXoXoXoXoXoXoXoXoXoXoXoXoXoXoXoXT ' o.S.D.J.D.D.D.D.r.:.n h n m :.>.>.&.&.<.S.D.2.!.XXXXXXXXXXXXXXXXXXXX|.[ oXoXoXoXoXoXoXoXoXoXoXoXoXoXoXoXoX",
"oXoXoXoXoXoXoXoXoXoXoXoXoXoXoXoXoXoXoXoXoXoXoXoXT n.~.-.#.D.D.D.S.=.j m o.g p k j &.o.&.<.:.&.&.r.Z W l.B.V.B.{.XXXXXXXXXXXXV.5 oXoXoXoXoXoXoXoXoXoXoXoXoXoXoXoX",
"oXoXoXoXoXoXoXoXoXoXoXoXoXoXoXoXoXoXoXoXoXoXoXP n.XXXX~.H &.<.=.m &.b ..s p p h y #.#...#.:.<.:.H I f.x./. X}.W. XXXXXXXXXXX/.N.I oXoXoXoXoXoXoXoXoXoXoXoXoXoXoX",
"oXoXoXoXoXoXoXoXoXoXoXoXoXoXoXoXoXoXoXoXoXoXoX~  XXXXXXXW.$.v i o.1.o.s & p p & y &.<.o.x n ..%.' /.XXXXXXXXXXXXXXXXXXXXXXXXXXXXE._ oXoXoXoXoXoXoXoXoXoXoXoXoXoX",
"oXoXoXoXoXoXoXoXoXoXoXoXoXoXoXoXoXoXoXoXoXoXoXb.XXXXXXXXXXXXN.F b c n b j h h a m :.<.<.:.o.b Z B.XXXXXXXXXXXXXXXXXXXXXXXXXXXXXXXX!.z.oXoXoXoXoXoXoXoXoXoXoXoXoX",
"oXoXoXoXoXoXoXoXoXoXoXoXoXoXoXoXoXoXoXoXoXoXoXW.XXXXXXXXXXN.w.>.X.D &.<.:.&.&.&.:.<.<.<.<.<.:.-.d.V.}.XXXXXXXXXXXXXXXXXXXXXXXXXXXXXX(.oXoXoXoXoXoXoXoXoXoXoXoXoX",
"oXoXoXoXoXoXoXoXoXoXoXoXoXoXoXoXoXoXoXoXoXoXoXf. XXX X/.b.e.<.<.1.:.:.<.<.<.<.<.<.<.<.<.<.<.<.:.r.G.b.n.n.n.n.n.n.n.n.n.B. XXXXXXXXXXXR.oXoXoXoXoXoXoXoXoXoXoXoX",
"oXoXoXoXoXoXoXoXoXoXoXoXoXoXoXoXoXoXoXoXoXoXoXw q.'.v.0.<.<.<.<.<.&.:.<.<.<.<.<.<.<.<.<.<.<.<.<.:.S.F.F.F.F.D.F.F.F.F.m.(.XX XXXXXXXXXXX9.oXoXoXoXoXoXoXoXoXoXoX",
"oXoXoXoXoXoXoXoXoXoXoXoXoXoXoXoXoXoXoXoXoXoXoXoXn :.<.<.<.<.<.<.&.#.>.<.<.<.<.<.>.:.<.<.<.<.<.<.:.:.S.D.D.D.D.D.D.S.a.V.XX{.W.XXXXXXXXXXW.P oXoXoXoXoXoXoXoXoXoX",
"oXoXoXoXoXoXoXoXoXoXoXoXoXoXoXoXoXoXoXoXoXoXoXoXG F #.<.<.<.:.o...#.<.<.<.<.<.<.:.&.&.:.<.<.<.<.<.:.#.<.S.D.D.D.S.r.F.B.n.l.W.XXXXXXXXXXXXb.0 oXoXoXoXoXoXoXoXoX",
"oXoXoXoXoXoXoXoXoXoXoXoXoXoXoXoXoXoXoXoXoXoXoXc.~.v.d s b b x y h ..@.&.&.&.&.&.#.o.X.o.@.#.&.&.&.&.o.o...n n n =.S.4.P { W. XXXXXXXXXXXXX}.~ oXoXoXoXoXoXoXoXoX",
"oXoXoXoXoXoXoXoXoXoXoXoXoXoXoXoXoXoXoXoXoXoX~ W.XXXXF b D D ..D j p g n ......D x p % t p h m ........D h j X...s 7 Y n.}.XXXXXXXXXXXXXXXXXXn.W oXoXoXoXoXoXoXoX",
"oXoXoXoXoXoXoXoXoXoXoXoXoXoXoXo 7.oXoXoXoXoX} }.XXXXb.n h x D ....z - & p p p $ % a b n n b h h h h h h n o.o.N 7 Q [.XXXXXXXXXXXXXXXXXXXXXX).!.W oXoXoXoXoXoXoX",
"oXoXoXoXoXoXoXoXoXoXoXoXoXoXoX. i.oXoXoX| l.{.XX}.W.5.X.#.@.@.@.@.K ( B oXoXoXoXp h n n n n n n n n n n ..o.z < ] }.XXXXXXXXXXXXXXXXXXXXXXXX{.C.| oXoXoXoXoXoXoX",
"oXoXoXoXoXoXoXoXoXoXoXoXoXoXoX  ;.'._ z.~.XXXX XM.5.&.=.<.:.&.@.@.J !.W.q oXoXoXoXoXy g b n n n n n n n n v 2 b.}.XXXXXXXXXXXXXXXXXXXXXXQ.N.H.s.t.oXoXoXoXoXoXoX",
"oXoXoXoXoXoXoXoXoXoXoXoXoXoXoXN :._.} U ).XXXXN.w.<.<.<.<.<.<.&.@.x G {.g.9 < oXoXoXoXoXy b n n n n n c > e l.XXXXXXXXXXXXXXXXXXXXXX{.n.d.F.Z.<.j oXoXoXoXoXoXoX",
"oXoXoXoXoXoXoXoXoXoXoXoXoXoXN.A &.r./ 8 q.`.U.e.<.<.<.<.<.<.<.&.D y oX_ ]. XM.I r oXoXoXoXp ..@.o.A , O Q V.XXXXXXXXXXXXXXXXXX}.).V.v.F.D.D.:.h $ oXoXoXoXoXoXoX",
"oXoXoXoXoXoXoXoXoXoXoXoXoXv.{.A o.:.<.m X.<.<.<.<.<.<.<.<.<.<.&.h oXoXoX' XXXXXX}.n.T L oX* M G J w W 9.(.XXXXXXXXXXXXXXXX/.Q.M.h.s.D.D.D.>.x oXoXoXoXoXoXoXoXoX",
"oXoXoXoXoXoXoXoXoXoXoX_ R.|.s.O.&.:.r.D D <.<.<.<.<.<.<.<.<.<.D oXoXoXP z. XXXXXXXXX{.W.v.q.h.N.V.W.XXXXXXXXXXXXXXXXXX{.V.d.d.F.D.D.D.S.:.s oXoXoXoXoXoXoXoXoXoX",
"oXoXoXoXoXoXoXoXoXoXW ^.R.;.n X.<.<.<.m X.<.<.<.<.<.<.<.<.:.D oXoXoXP z.XXXXXXXXXXXXXXXXXXXXXXXXXXXXXXXXXXXXXXXX X XV.M.s.D.D.D.D.D.S.#.u oXoXoXoXoXoXoXoXoXoXoX",
"oXoXoXoXoXoXoXoXoXT Y.N.H j x m &.&.#.n &.>.<.<.<.<.>.&.X.n oXoXoX= { }. XXXXXXXXXXXXXXXXXXX|.{.}.}.{.{.{.{.|.N.b.d.F.D.D.D.D.D.S.:.m % oXoXoXoXoXoXoXoXoXoXoXoX",
"oXoXoXoXoXoXoXoX9 N.q.B X.n f x @.o.m j s x m X.o.o.m x % oXoXoXm S.u.U.{.XXXXXXXXXXXXXXXX^.s.v.v.v.v.v.v.v.d.D.D.D.D.D.D.J.D.<.o.p oXoXoXoXoXoXoXoXoXoXoXoXoXoX",
"oXoXoXoXoXoXoXoXK N.> X.x o.f j #.:.:.p oXoXoXoXoXoXoXoXoXoXy @.S.:.o.G.XXR.XXXXXXXXXXXX(.i.X.m X.+.+.+.#.>.r.D.D.D.D.D.S.=.m x oXoXoXoXoXoXoXoXoXoXoXoXoXoXoXoX",
"oXoXoXoXoXoXoXoX{ C c b x X.n k &.<...% oXoXoXoXoXoXoXoXoXu &.S.&.o.r.:.>.T.XXXXXXXXXX).m.&.p c o.o.o.X.n u i x  . . . .m :.X.oXoXoXoXoXoXoXoXoXoXoXoXoXoXoXoXoX",
"oXoXoXoXoXoXoXh A c x o.s D b j o.@.h oXoXoXoXoXoXoXoXoXb =.r...&.r.o...0.W.W.XXXX}.V.v.>.x @...:.<.,.<.&.-.m.T.`.`.`.`.`.n.p...oXoXoXoXoXoXoXoXoXoXoXoXoXoXoXoX",
"oXoXoXoXoXoXy D n c m s f c & $ p & oXoXoXoXoXoXoXoXoXo.<.&.c >.r...&.S.0.E z.{.W.b.a.&.j @.@...@.:.:.&.;.V.XXXXXXXXXXXXXXXX/.e.h oXoXoXoXoXoXoXoXoXoXoXoXoXoXoX",
"oXoXoXoXoX% X.o.x c x f y oXoXoXoXoXoXoXoXoXoXoXoXoXoX:.m b :.=.m :.Z.#.X.O.v.v.u.&.m n #.&.@.o...o.@...2.}.XXXXXXXXXXXXXXXXXXP.o.oXoXoXoXoXoXoXoXoXoXoXoXoXoXoX",
"oXoXoXoXoXy m j c x x u oXoXoXoXoXoXoXoXoXoXoXoXoXoXoXm o.<.n m &.:.m &.&.&.m x x X.#.<.:.&.&.&.o.j u p ) }.XXXXXXXXXXXXXXXXXXV.$.oXoXoXoXoXoXoXoXoXoXoXoXoXoXoX",
"oXoXoXoXoXoXy ..s a oXoXoXoXoXoXoXoXoXoXoXoXoXoXoXoXj :.&.b #.>.x ..&.&.l / p.0.,.S.J.S.<.<.<.<.#.j # X Q  XXXXXXXXXXXXXXXXXXXV.*.oXoXoXoXoXoXoXoXoXoXoXoXoXoXoX",
"oXoXoXoXoXoXoXh $ oXoXoXoXoXoXoXoXoXoXoXoXoXoXoXoXoX .A l <.:.c A :.A 9.E. XW.d.D.D.D.r.S.D.r.:...y oXoXR  XXXXXXXXXXXXXXXXXXXV.>.X.oXoXoXoXoXoXoXoXoXoXoXoXoXoX",
"oXoXoXoXoXoXoXoXoXoXoXoXoXoXoXoXoXoXoXoXoXoXoXoXoXoXoXk.{.XXXXXXXXXXXXXX{.T.d.D.D.D.D.D.D.r.>.o.a oXoXoX~ }.XXXXXXXXXXXXXXXXXXU.w. .oXoXoXoXoXoXoXoXoXoXoXoXoXoX",
"oXoXoXoXoXoXoXoXoXoXoXoXoXoXoXoXoXoXoXoXoXoXoXoXoXoX^ n.XXXXXXXXXXXX XE.K.D.S.r.D.D.D.S.r.<.@.s oXoXoXoXT V.XXXXXXXXXXXXXXXX{.H.1. .oXoXoXoXoXoXoXoXoXoXoXoXoXoX",
"oXoXoXoXoXoXoXoXoXoXoXoXoXoXoXoXoXoXoXoXoXoXoXoXoXoXf.}.XXXXXXXXXX~.K.F.D.S.:.o.S.A.r.1.&...j oXoXoXoXoXoXf.XXXXXXXXXXXXXXXXW.s.1.m oXoXoXoXoXoXoXoXoXoXoXoXoXoX",
"oXoXoXoXoXoXoXoXoXoXoXoXoXoXoXoXoXoXoXoXoXoXoXoXoX| (.XXXXXX X{.n.d.D.D.S.>.m #.<.:.&.o.j p oXoXoXoXoXoXoXoXb.XXXXXXXXXXXX}.m.D.1.x oXoXoXoXoXoXoXoXoXoXoXoXoXoX",
"oXoXoXoXoXoXoXoXoXoXoXoXoXoXoXoXoXoXoXoXoXoXoXoXoX` T.).).).R.v.F.D.D.r.:.m n o.m n h oXoXoXoXoXoXoXoXoXoXoXoXN.}.XXXX X).T.d.D.r.x oXoXoXoXoXoXoXoXoXoXoXoXoXoX",
"oXoXoXoXoXoXoXoXoXoXoXoXoXoXoXoXoXoXoXoXoXoXoXoXoX:.w.0.0.q.s.D.D.S.r.>...h s a oXoXoXoXoXoXoXoXoXoXoXoXoXoXoXoXk.Q.W.K.0.w.r.D.S.x oXoXoXoXoXoXoXoXoXoXoXoXoXoX",
"oXoXoXoXoXoXoXoXoXoXoXoXoXoXoXoXoXoXoXoXoXoXoXoXoXo.<.<.>.<.A.D.S.r.>.X.y oXoXoXoXoXoXoXoXoXoXoXoXoXoXoXoXoXoXoXJ 5.5.<.<.<.<.S.S.m h oXoXoXoXoXoXoXoXoXoXoXoXoX",
"oXoXoXoXoXoXoXoXoXoXoXoXoXoXoXoXoXoXoXoXoXoXoXoXoXx :.<.<.<.<.S.r.>.o.b y oXoXoXoXoXoXoXoXoXoXoXoXoXoXoXoXoXoXoXoXo...:.<.<.<.r.D.&.#...oXoXoXoXoXoXoXoXoXoXoXoX",
"oXoXoXoXoXoXoXoXoXoXoXoXoXoXoXoXoXoXoXoXoXoXoXoXoXp ..<.<.<.<.<.>.=.r.:.n oXoXoXoXoXoXoXoXoXoXoXoXoXoXoXoXoXoXoXoXn &.#.:.<.<.<.D.r.Z.S...oXoXoXoXoXoXoXoXoXoXoX",
"oXoXoXoXoXoXoXoXoXoXoXoXoXoXoXoXoXoXoXoXoXoXoXoXoXh n :.<.<.<.<.>.r.D.D.<.b oXoXoXoXoXoXoXoXoXoXoXoXoXoXoXoXoXoXoXoXm &.&.<.<.<.S.D.D.D.r. .oXoXoXoXoXoXoXoXoXoX",
"oXoXoXoXoXoXoXoXoXoXoXoXoXoXoXoXoXoXoXoXoXoXoXoXoX..o.#.<.<.<.<.,.S.D.D.D.#.oXoXoXoXoXoXoXoXoXoXoXoXoXoXoXoXoXoXoXoXj @.:.>.<.<.r.D.D.D.D.<.j oXoXoXoXoXoXoXoXoX",
"oXoXoXoXoXoXoXoXoXoXoXoXoXoXoXoXoXoXoXoXoXoXoXoXoX@.:.:.<.<.<.<.<.,.S.D.D.<.b oXoXoXoXoXoXoXoXoXoXoXoXoXoXoXoXoXoXoX..&.:.<.<.<.<.S.D.D.D.S...oXoXoXoXoXoXoXoXoX",
"oXoXoXoXoXoXoXoXoXoXoXoXoXoXoXoXoXoXoXoXoXoXoXoXoXn &.<.<.<.<.<.<.<.S.D.D.r...oXoXoXoXoXoXoXoXoXoXoXoXoXoXoXoXoXoXoXm >.<.<.<.<.<.r.D.D.D.D.#.oXoXoXoXoXoXoXoXoX",
"oXoXoXoXoXoXoXoXoXoXoXoXoXoXoXoXoXoXoXoXoXoXoXoXoXt D <.<.<.<.<.<.<.1.D.D.Z.@.oXoXoXoXoXoXoXoXoXoXoXoXoXoXoXoXoXoXoXj :.<.<.<.<.<.<.S.D.D.D.:.oXoXoXoXoXoXoXoXoX",
"oXoXoXoXoXoXoXoXoXoXoXoXoXoXoXoXoXoXoXoXoXoXoXoXoXoXx >.<.<.<.<.<.<.<.S.D.1...oXoXoXoXoXoXoXoXoXoXoXoXoXoXoXoXoXoXoXoX#.<.<.<.<.<.<.r.D.D.D.<.oXoXoXoXoXoXoXoXoX",
"oXoXoXoXoXoXoXoXoXoXoXoXoXoXoXoXoXoXoXoXoXoXoXoXoXoXy &.<.<.<.<.<.<.<.r.D.#.h oXoXoXoXoXoXoXoXoXoXoXoXoXoXoXoXoXoXoXoXn :.<.<.<.<.<.1.D.D.D.<.oXoXoXoXoXoXoXoXoX",
"oXoXoXoXoXoXoXoXoXoXoXoXoXoXoXoXoXoXoXoXoXoXoXoXoXoXoXm <.<.<.<.<.<.<.<.<...oXoXoXoXoXoXoXoXoXoXoXoXoXoXoXoXoXoXoXoXoXoXD :.<.<.<.<.<.r.D.D.:.oXoXoXoXoXoXoXoXoX",
"oXoXoXoXoXoXoXoXoXoXoXoXoXoXoXoXoXoXoXoXoXoXoXoXoXoXoXoX#.<.<.<.<.<.<.<.&.h oXoXoXoXoXoXoXoXoXoXoXoXoXoXoXoXoXoXoXoXoXoXoXo.=.:.<.<.<.r.D.D.=.oXoXoXoXoXoXoXoXoX",
"oXoXoXoXoXoXoXoXoXoXoXoXoXoXoXoXoXoXoXoXoXoXoXoXoXoXoXoXoX&.<.<.<.<.<.=...oXoXoXoXoXoXoXoXoXoXoXoXoXoXoXoXoXoXoXoXoXoXoXoXoXn m &.<.<.r.D.J.#.oXoXoXoXoXoXoXoXoX",
"oXoXoXoXoXoXoXoXoXoXoXoXoXoXoXoXoXoXoXoXoXoXoXoXoXoXoXoXoXm <.<.<.<.<.m oXoXoXoXoXoXoXoXoXoXoXoXoXoXoXoXoXoXoXoXoXoXoXoXoXoXoXoXs &.<.<.S.J.#.oXoXoXoXoXoXoXoXoX",
"oXoXoXoXoXoXoXoXoXoXoXoXoXoXoXoXoXoXoXoXoXoXoXoXoXoXoXoXoXh &.<.<.<.:.s oXoXoXoXoXoXoXoXoXoXoXoXoXoXoXoXoXoXoXoXoXoXoXoXoXoXoXoXoXc >.<.A.J.=.oXoXoXoXoXoXoXoXoX",
"oXoXoXoXoXoXoXoXoXoXoXoXoXoXoXoXoXoXoXoXoXoXoXoXoXoXoXoXoXoXo.<.<.<.=.y oXoXoXoXoXoXoXoXoXoXoXoXoXoXoXoXoXoXoXoXoXoXoXoXoXoXoXoXoXp #.<.1.D.<.j oXoXoXoXoXoXoXoX",
"oXoXoXoXoXoXoXoXoXoXoXoXoXoXoXoXoXoXoXoXoXoXoXoXoXoXoXoXoXoXm ,.<.<.:.s - oXoXoXoXoXoXoXoXoXoXoXoXoXoXoXoXoXoXoXoXoXoXoXoXoXoXoXoX# m <.<.D.<...oXoXoXoXoXoXoXoX",
"oXoXoXoXoXoXoXoXoXoXoXoXoXoXoXoXoXoXoXoXoXoXoXoXoXoXoXoXoX; s :.<.<.<.X.C oXoXoXoXoXoXoXoXoXoXoXoXoXoXoXoXoXoXoXoXoXoXoXoXoXoXoXoX& ..:.<.D.=.#...oXoXoXoXoXoXoX",
"oXoXoXoXoXoXoXoXoXoXoXoXoXoXoXoXoXoXoXoXoXoXoXoXoXoXoXoXoX( @.&.&.<.<.&.-._ oXoXoXoXoXoXoXoXoXoXoXoXoXoXoXoXoXoXoXoXoXoXoXoXoXoXoX..&.H 7.b.5.m D oXoXoXoXoXoXoX",
"oXoXoXoXoXoXoXoXoXoXoXoXoXoXoXoXoXoXoXoXoXoXoXoXoXoXoXoX{ k.,.<.&.o.:.:...e.v.oXoXoXoXoXoXoXoXoXoXoXoXoXoXoXoXoXoXoXoXoXoXoXoXoXoX:.*.` {.}.|.v.A oXoXoXoXoXoXoX",
"oXoXoXoXoXoXoXoXoXoXoXoXoXoXoXoXoXoXoXoXoXoXoXoXoXoX' W. Xb.<.<.:.n #.<.m &.G.n.oXoXoXoXoXoXoXoXoXoXoXoXoXoXoXoXoXoXoXoXoXoXoXoXoX..S l.XXXXXX X0.oXoXoXoXoXoXoX",
"oXoXoXoXoXoXoXoXoXoXoXoXoXoXoXoXoXoXoXoXoXoXoXoX} b. XXX).i.<.<.<.....<.n &.<.0.[ oXoXoXoXoXoXoXoXoXoXoXoXoXoXoXoXoXoXoXoXoXoXoXoXr.Z W.XXXXXXXX{._ oXoXoXoXoXoX",
"oXoXoXoXoXoXoXoXoXoXoXoXoXoXoXoXoXoXoXoXoXoXoXb.(.XXXX{.p.<.<.<.<.&.j s j :.<.<.4.oXoXoXoXoXoXoXoXoXoXoXoXoXoXoXoXoXoXoXoXoXoXoXoXr./ }.XXXXXXXXXXg.4 oXoXoXoXoX",
"oXoXoXoXoXoXoXoXoXoXoXoXoXoXoXoXoXoXoXoXI ' C.XXXXXX}.v.w.<.<.<.>.:.#.D #.<.<.<.:.oXoXoXoXoXoXoXoXoXoXoXoXoXoXoXoXoXoXoXoXoXoXoXoX: Q XXXXXXXXXXXX|._ 3 oXoXoXoX",
"oXoXoXoXoXoXoXoXoXoXoXoXoXoXoXoXoXoX~ f.~.|.XXXXXX{.v.w.<.<.:.X.x b X.=.<.1.<.>.#.oXoXoXoXoXoXoXoXoXoXoXoXoXoXoXoXoXoXoXoXoXoXoXoX4 f.XXXXXXXXXXXXXX[.W oXoXoXoX",
"oXoXoXoXoXoXoXoXoXoXoXoXoXoXoXoX_ n.}.XXXXXX}./.I.q.e.>.&.X.j % # & g n m o...n h oXoXoXoXoXoXoXoXoXoXoXoXoXoXoXoXoXoXoXoXoXoXoXoXR (.XXXXXXXXXXXXXXXX!.j.oXoXoX",
"oXoXoXoXoXoXoXoXoXoXoXoXoXoXoXG B.Q.P.L.L.L.d.0.<.<.=...s & oXoXoXoXoXoXoXoXoXoXoXoXoXoXoXoXoXoXoXoXoXoXoXoXoXoXoXoXoXoXoXoXoXoXoXT }.XXXXXXXXXXXXXXXXXX).oXoXoX",
"oXoXoXoXoXoXoXoXoXoXoXoXoXoXoXs A H n h u u u a s s y & oXoXoXoXoXoXoXoXoXoXoXoXoXoXoXoXoXoXoXoXoXoXoXoXoXoXoXoXoXoXoXoXoXoXoXoXoX9.XXXXXXXXXXXXXXXXXXXXXX/.oXoX",
"oXoXoXoXoXoXoXoXoXoXoXoXoXoXoXoXoXoXoXoXoXoXoXoXoXoXoXoXoXoXoXoXoXoXoXoXoXoXoXoXoXoXoXoXoXoXoXoXoXoXoXoXoXoXoXoXoXoXoXoXoXoXoXoXoX{ {.XXXXXXXXXXXXXXXXXXXXXXv.oX",
"oXoXoXoXoXoXoXoXoXoXoXoXoXoXoXoXoXoXoXoXoXoXoXoXoXoXoXoXoXoXoXoXoXoXoXoXoXoXoXoXoXoXoXoXoXoXoXoXoXoXoXoXoXoXoXoXoXoXoXoXoXoXoXoXoX5 { /. XXXXXXXXXXXXXXXXXXXl.oX",
"oXoXoXoXoXoXoXoXoXoXoXoXoXoXoXoXoXoXoXoXoXoXoXoXoXoXoXoXoXoXoXoXoXoXoXoXoXoXoXoXoXoXoXoXoXoXoXoXoXoXoXoXoXoXoXoXoXoXoXoXoXoXoXoXoXoX4 U k.(.XXXXXXXXXXXXXXV.! oX",
"oXoXoXoXoXoXoXoXoXoXoXoXoXoXoXoXoXoXoXoXoXoXoXoXoXoXoXoXoXoXoXoXoXoXoXoXoXoXoXoXoXoXoXoXoXoXoXoXoXoXoXoXoXoXoXoXoXoXoXoXoXoXoXoXoXoXoXoX1 Y b.C. XXXXX{.g.oXoXoX",
"oXoXoXoXoXoXoXoXoXoXoXoXoXoXoXoXoXoXoXoXoXoXoXoXoXoXoXoXoXoXoXoXoXoXoXoXoXoXoXoXoXoXoXoXoXoXoXoXoXoXoXoXoXoXoXoXoXoXoXoXoXoXoXoXoXoXoXoXoXoXo + 2 r W 5 @ oXoXoX"
};
