/* XPM */
static char *result[] = {
/* columns rows colors chars-per-pixel */
"80 80 186 2 ",
"   c #82795A",
".  c #85787D",
"X  c #9E986F",
"o  c #8C8373",
"O  c #948F72",
"+  c #9E9A76",
"@  c #A4A278",
"#  c #A9A77D",
"$  c #837294",
"%  c #8B7B9D",
"&  c #8D7EA2",
"*  c #968B8E",
"=  c #9F9784",
"-  c #958C99",
";  c #9E959B",
":  c #A09889",
">  c #A7A380",
",  c #AAA484",
"<  c #A7AF86",
"1  c #ACAB83",
"2  c #AAA48A",
"3  c #ADAC89",
"4  c #B2AC8D",
"5  c #B1B086",
"6  c #B4B58B",
"7  c #AEA993",
"8  c #ADA59D",
"9  c #B1AC96",
"0  c #B5B090",
"q  c #B4BC94",
"w  c #B9B59D",
"e  c #BDBC9D",
"r  c #8F80A3",
"t  c #9284A5",
"y  c #978AA5",
"u  c #9485AB",
"i  c #9789AB",
"p  c #9A8CAC",
"a  c #9C92A4",
"s  c #9D90AE",
"d  c #9788B0",
"f  c #9B8EB2",
"g  c #9E91B5",
"h  c #9F94B9",
"j  c #A195AD",
"k  c #A49CAB",
"l  c #A99FAC",
"z  c #A296B4",
"x  c #A59AB5",
"c  c #A99FB6",
"v  c #A296B9",
"b  c #A59BBB",
"n  c #A99EBD",
"m  c #AAA1A3",
"M  c #ADA6A9",
"N  c #AFA9AF",
"B  c #B1ABA9",
"V  c #B7BAA6",
"C  c #BCBBA9",
"Z  c #ABA3B5",
"A  c #AFAAB1",
"S  c #ACA2BE",
"D  c #B1AAB3",
"F  c #B4ADBB",
"G  c #B7B3B8",
"H  c #BBB3BA",
"J  c #BFBABF",
"K  c #B8C097",
"L  c #BEC39D",
"P  c #BDC2A3",
"I  c #C1C7A5",
"U  c #C2CAA3",
"Y  c #C8C9A5",
"T  c #C4C7A8",
"R  c #C6CCAD",
"E  c #CBCDAD",
"W  c #CCD3AD",
"Q  c #C5C7B7",
"!  c #CCC7B7",
"~  c #CBCDB3",
"^  c #C2C1BB",
"/  c #CACABD",
"(  c #D1CEBE",
")  c #CDD3B3",
"_  c #CED2BB",
"`  c #D0D7B2",
"'  c #D3DBB4",
"]  c #D3D5BC",
"[  c #D4DBBA",
"{  c #DADEBE",
"}  c #D9E0BB",
"|  c #AB9FC0",
" . c #ADA3C2",
".. c #B1A6C4",
"X. c #B4ABC6",
"o. c #B2A6C8",
"O. c #B6ACC9",
"+. c #B8AECA",
"@. c #BAB3C4",
"#. c #BFBDC1",
"$. c #B7B0C9",
"%. c #BBB3CD",
"&. c #BFB5D0",
"*. c #C0B8C4",
"=. c #C0B8CD",
"-. c #C0B7D1",
";. c #C5BCD5",
":. c #C8BFD7",
">. c #C6BED8",
",. c #C8BFD8",
"<. c #CDCBC3",
"1. c #C9C4CE",
"2. c #CECBCE",
"3. c #D2D3C2",
"4. c #D6DBC2",
"5. c #DADFC4",
"6. c #D4D3CD",
"7. c #D7D8C9",
"8. c #DADCCB",
"9. c #C7C0D3",
"0. c #CBC4D5",
"q. c #CEC9D2",
"w. c #CBC3DC",
"e. c #CFC8DC",
"r. c #D1CDD3",
"t. c #D1CADC",
"y. c #D5D3D2",
"u. c #D8D5D7",
"i. c #DDDDD3",
"p. c #D5D0DC",
"a. c #D9D5DE",
"s. c #DDDBDB",
"d. c #E0DFDD",
"f. c #DCE2C3",
"g. c #DEE2CA",
"h. c #DEE0D2",
"j. c #E1E8C6",
"k. c #E1E5CD",
"l. c #E3E9CA",
"z. c #E8EECF",
"x. c #EBF1CF",
"c. c #E2E4D4",
"v. c #E6EAD2",
"b. c #E9EED4",
"n. c #E3E4DA",
"m. c #E6E8DB",
"M. c #EAEDDB",
"N. c #ECF1D5",
"B. c #EDF2DB",
"V. c #F1F5DE",
"C. c #CFC7E0",
"Z. c #D0C7E0",
"A. c #D5CDE6",
"S. c #D6CEE8",
"D. c #D7D0E4",
"F. c #D9D3E3",
"G. c #DDDAE2",
"H. c #D9D1E9",
"J. c #E1DDE5",
"K. c #E0DAEC",
"L. c #E5E4E2",
"P. c #EAEBE3",
"I. c #E5E2E8",
"U. c #E8E6E8",
"Y. c #EBEAEC",
"T. c #EEF1E2",
"R. c #EFF1E9",
"E. c #F1F5E3",
"W. c #F5F8E6",
"Q. c #F1F2E9",
"!. c #F3F5EB",
"~. c #F4F6ED",
"^. c #F8FBEE",
"/. c #E9E4F1",
"(. c #EDEBF2",
"). c #F6F6F2",
"_. c #F7F8F0",
"`. c #F9FBF2",
"'. c #FAFCF3",
"]. c #FBFCF4",
"[. c #FCFDF6",
"{. c #F7F5F8",
"}. c #FDFEF9",
"|. c #FDFDFB",
" X c white",
".X c None",
/* pixels */
".X.X.X.X.X.X.X.X.X.X.X.X.X.X.X.X.X.X.X.X.X.X.X.X.X.X.X.X.X.X.X.X.X.X.X.X.X.X.X.X.X.X.X.X.X.X.X.X.X.X.X.X.X.X.X.X.X.X.X.X.X.X.X.X.X.X.X.X.X.X.X.X.X.X.X.X.X.X.X.X",
".X.X.X.X.X.X.X.X.X.X.X.X.X.X.X.X.X.X.X.X.X.X.X.X.X.X.X.X.X.X.X.X.X.X.X.X.X.X.X.X.X.X.X.X.X.X.X.X.X.X.X.X.X.X.X.X.X.X.X.X.X.X.X.X.X.X.X.X.X.X.X.X.X.X.X.X.X.X.X.X",
".X.X.X.X.X.X.X.X.X.X.X.X.X.X.X.X.X.X.X.X.X.X.X.X.X.X.X.X' Q.c.M.W. XM.G f .X.X.X.X.X.X.X.X.X.X.X.X.X.X.X.X.X.X.X.X.X.X.X.X.X.X.X.X.X.X.X.X.X.X.X.X.X.X.X.X.X.X.X",
".X.X.X.X.X.X.X.X.X.X.X.X.X.X.X.X.X.X.X.X.X.X.X.X.X.XU v.!. X X X X X|.A.&.f .X.X.X.X.X.X.X.X.X.X.X.X.X.X.X.X.X.X.X.X.X.X.X.X.X.X.X.X.X.X.X.X.X.X.X.X.X.X.X.X.X.X",
".X.X.X.X.X.X.X.X.X.X.X.X.X.X.X.X.X.X.X.X.X.X.X.X.XI P.}. X X X X X X`.s.A.c I ` f.x.x.x.x.[ ~ .X.X.X.X.X.X.X.X.X.X.X.X.X.X.X.X.X.X.X.X.X.X.X.X.X.X.X.X.X.X.X.X.X",
".X.X.X.X.X.X.X.X.X.X.X.X.X.X.X.X.X.X.X.X.X.X.X.X.Xc. X X X X X X X[.m.D.A.0.|.}. X X X X X}. X Xb.v..X.X.X.X.X.X.X.X.X.X.X.X.X.X.X.X.X.X.X.X.X.X.X.X.X.X.X.X.X.X",
".X.X.X.X.X.X.X.X.X.X.X.X.X.X.X.X.X.X.X.X.X.X.X.X[ `. X X X X X X}.M.D.A.A.A. X X X X X X X X X X X X}.c.f..X.X.X.X.X.X.X.X.X.X.X.X.X.X.X.X.X.X.X.X.X.X.X.X.X.X.X",
".X.X.X.X.X.X.X.X.X.X.X.X.X.X.X.X.X.X.X.X.X.X.X.X4. X X X X X XW.M.F.A.A.A.t.B.V.}. X X X X X X X X X X[.x.' W W q < .X.X.X.X.X.X.X.X.X.X.X.X.X.X.X.X.X.X.X.X.X.X",
".X.X.X.X.X.X.X.X.X.X.X.X.X.X.X.X.X.X.X.X.X.X.X.Xg.}.}.}.E.b.b.s.F.S.A.A.A.$.1.F.J.b.'.}. X X X X X X X}.[.[.~.~.Q.v.` P .X.X.X.X.X.X.X.X.X.X.X.X.X.X.X.X.X.X.X.X",
".X.X.X.X.X.X.X.X.X.X.X.X.X.X.X.X.X.X.X.X.X.X.X.Xr.v.v.v.s.H.D.A.S.A.A.A.Z.v $.;.Z.H.F.v.R.`.}. X X}. X X X X X X X X}.T..X.X.X.X.X.X.X.X.X.X.X.X.X.X.X.X.X.X.X.X",
".X.X.X.X.X.X.X.X.X.X.X.X.X.X.X.X.X.X.X.X.X.X.X.X;.A.A.A.*.H Z.A.A.A.A.A.;.z ;.%.;.w.A.A.A.i.L.~.W.N.`. X X X X X X X X XW..X.X.X.X.X.X.X.X.X.X.X.X.X.X.X.X.X.X.X",
".X.X.X.X.X.X.X.X.X.X.X.X.X.X.X.X.X.X.X.X.X.X.X.X%.A.S.@.o ; Z.A.A.A.A.A.n v %.;.%.%.;.Z.A.A.A.a.3.` [. X X X X X X X X X XB..X.X.X.X.X.X.X.X.X.X.X.X.X.X.X.X.X.X",
".X.X.X.X.X.X.X.X.X.X.X.X.X.X.X.X.X.X.X.X.X.X.X.X^ w.S.0.*.w.S.A.A.A.w.+.g b O.;.;.;.-.%.;.A.A.S.H 1 E l.^. X X X X X X X X~.L < .X.X.X.X.X.X.X.X.X.X.X.X.X.X.X.X",
".X.X.X.X.X.X.X.X.X.X.X.X.X.X.X.X.X.X.X.X.X.X.X' s.X.Z.S.H.H.A.C.>.;.O.d u v b %.;.;.:.;.%.%.;.@.e M.).'.E.V. X X X X X X X[.` ` U .X.X.X.X.X.X.X.X.X.X.X.X.X.X.X",
".X.X.X.X.X.X.X.X.X.X.X.X.X.X.X.X.X.X.X.X.X.X.X5. XD.O.A.H.Z.;.X.u  .b u u v g O.X.X.O.;.:.;...8 l.[. X X X X X X X X X X X XM.T.v.) .X.X.X.X.X.X.X.X.X.X.X.X.X.X",
".X.X.X.X.X.X.X.X.X.X.X.X.X.X.X.X.X.X.X.X.X.X.Xm. X Xt.n S n  .;. .n r u u g f n ;.X.v  . .&. .%.i.M.W. X X X X X X X X X X XB.!. XQ.R .X.X.X.X.X.X.X.X.X.X.X.X.X",
".X.X.X.X.X.X.X.X.X.X.X.X.X.X.X.X.X.X.X.X.X.X.Xv. X X|.G.r.s %.;.b i u % % % i  .;.;.;.+. .n  .w.S.F.s.B.B.}. X X X X X X X X[.}. X Xm..X.X.X.X.X.X.X.X.X.X.X.X.X",
".X.X.X.X.X.X.X.X.X.X.X.X.X.X.X.X.X.X.X.X.X.X.X` `. X X X}.<.y i z +.&.$.$.$.%.;.;.;.;.;.;.-.-.w.A.S.A.F.G.H.L.b.B.|.|.|.}. X X X X X}.) .X.X.X.X.X.X.X.X.X.X.X.X",
".X.X.X.X.X.X.X.X.X.X.X.X.X.X.X.X.X.X.X.X.X.X.X@ { ].`.E.g.0.-.-.;.;.;.;.;.;.;.;.;.;.;.;.;.;.;.;.w.A.S.S.S.A.A.D.D.H.H.n.B.}.}.}. X X XB.K .X.X.X.X.X.X.X.X.X.X.X",
".X.X.X.X.X.X.X.X.X.X.X.X.X.X.X.X.X.X.X.X.X.X.X.X2 / 8.y.;.;.;.;.%.%.;.;.;.;.;.;.;.;.;.;.;.;.;.;.;.w.w.w.Z.S.S.S.A.A.s.W. X}.b.^. X X X`.` .X.X.X.X.X.X.X.X.X.X.X",
".X.X.X.X.X.X.X.X.X.X.X.X.X.X.X.X.X.X.X.X.X.X.X.X.Xt v &.;.;.;.%. .X.;.;.;.;.;.;.;.;.;.;.;.;.;.;.;.;.-.%... .&.Z.S.A.v. XW.g.} N.W. X X Xv.q .X.X.X.X.X.X.X.X.X.X",
".X.X.X.X.X.X.X.X.X.X.X.X.X.X.X.X.X.X.X.X.X.X.XK U R p p O...n g g  .O.$.;.;.;.%.$.$.$.$.$.;.;.;.;.%.$.$. .g n Z.S.S.a.l.[ l.~.`.[. X X X`.f..X.X.X.X.X.X.X.X.X.X",
".X.X.X.X.X.X.X.X.X.X.X.X.X.X.X.X.X.X.X.X.X.XW l._._...v O.O.X.X.n i j S X.$.$.O.O.O.X.S S X.O.$.$.O.O...S v ..O.Z.w.J U T. X X X X X X X XV.}..X.X.X.X.X.X.X.X.X",
".X.X.X.X.X.X.X.X.X.X.X.X.X.X.X.X.X.X.X.X.Xl.W. X}.M.@.f n n  . .b B w a v x b n S n g t i g v n n n n g v X.$. .x 7 T E. X X X X X X X X X`.E.W..X.X.X.X.X.X.X.X",
".X.X.X.X.X.X.X.X.X.X.X.X.X.X! .X.X.X.X~ M. X X XM.1... .b v n  .b #._.i.9 .X.Xu & u f b b g g g v v v n X.O.O.m : {  X X X X X X X X X X X}.`. XB..X.X.X.X.X.X.X",
".X.X.X.X.X.X.X.X.X.X.X.X.X, 3..X.X.X[ Q. X X XE.2.%.;.;.;.$.O.O.b y Q [.] 1 .X.X.X.X.Xu f v b b  .X.O.O.O.O.M 3 c.}. X X X X X X X X X X X X X X[.k..X.X.X.X.X.X",
".X.X.X.X.X.X.X.X.X.X.X.X.X= I..X.Xj.~. X}.).v.r.;.;.;.;.;.;.%.O.v & .X3.'.!.8.q 1 .X.X.X.X& f b b b b Z F 7 ) T. X X X X X X X X X X X X}.}.!.b.b.s..X.X.X.X.X.X",
".X.X.X.X.X.X.X.X.X.X.X.X.X| /.{ { ^.`.P.g.0.;.;.;.;.;.;.;.;.%...u .X.X* ] `. X|.~.f.P 6 .X.X. - k Z A w _ b.}. X X X X X X X X X X X X`.B.c.H.H.D.Z..X.X.X.X.X.X",
".X.X.X.X.X.X.X.X.X.X.X[ D &.F.6.3 8.6.;.;.;.;.;.;.;.;.;.;.;.%.g .X.X.X  L B. X X X X}.B.5._ C ~ _ g.b. X X X X X X X X X X X X XW.W.Y.c.p.w.w.w.%.z .X.X.X.X.X.X",
".X.X.X.X.X.X.X.X.X.XT !.F +.;.;.l O.;.;.;.;.;.;.;.;.;.;.;.;.v % .X.XX 3 k. X X X X X X X X X X X X X X X X X X X X X X XW.V.V.U.s.s.D.S.Z.;.x p r .X.X.X.X.X.X.X",
".X.X.X.X.X.X.X.X.X' E.~.F  .%.,...n ,.;.;.;.;.;.;.;.;.;.;.S % .X.X.XE !.}. X X X X X X X X X~.B.|.}.}.}.}.}.}.V.N.N.M.K.G.a.a.A.S.S.S.A.,.n % .X.X.X.X.X.X.X.X.X",
".X.X.X.X.X.X.X.X4.`.(.;.+.;.;.;...n ,.;.;.;.:.,.;.;.%.S f % .X.Xp ;.i.R.^. X X X X X X X X XY.A.G.v.v.v.v.v.v.a.D.D.D.A.A.A.A.A.S.A.w...t .X.X.X.X.X.X.X.X.X.X.X",
".X.X.X.X.X.X.X] [.i.F v n &.;.;.n O.;.%.O.X.X...n S n & .X.X.Xn w.w.%.F. X!. X X X X X X XE.2.C.H.H.H.H.D.A.A.A.A.A.A.A.A.A.S.H.C.+.v .X.X.X.X.X.X.X.X.X.X.X.X.X",
".X.X.X.X.X.X) Q.( @.g v v O.O. .v  .x .X.X.X.X.X.X.X.X.X.X.X%.w.&.O.Z.w.t.P. X X X X X XW.i.n v n  .o.O.;.C.S.S.S.A.A.A.S.A.>.o.x .X.X.X.X.X.X.X.X.X.X.X.X.X.X.X",
".X.X.X.X.X6 Q.! D n v z p O.$.O.g .X.X.X.X.X.X.X.X.X.X.X.X+.w.O.O.w.-.b ;.|.W.`. X X}.B.n.%.z ..n v X.+.z y p s s S O.X.n z i b g .X.X.X.X.X.X.X.X.X.X.X.X.X.X.X",
".X.X.X.X.XI 8.; n t v v p O.;.&.u .X.X.X.X.X.X.X.X.X.X.X;.;.v %.w...O.C.t.8.[ E. XE.v.p.w.z -.w.O.n ;.;.%.S  .;.0.e.i.g.g.7.0.Z.+..X.X.X.X.X.X.X.X.X.X.X.X.X.X.X",
".X.X.X.X.X_ M x n g v n g $.;.n % .X.X.X.X.X.X.X.X.X.X&.-.v -.&.n %.C.&.n  .y.v.i.-.%.v j %.;.;.S v O.;.;.O.9.J.B.~. X X X[.B.d.w.b .X.X.X.X.X.X.X.X.X.X.X.X.X.X",
".X.X.X.Xf v x x  .s g f t v v p .X.X.X.X.X.X.X.X.X.X.XX...w.O.n %.;. . .;.Z.-.O.Z G =.F <.0.;.;. .g ..$.%.S c.[. X X X X X X X!.s.o..X.X.X.X.X.X.X.X.X.X.X.X.X.X",
".X.X.Xy +.n z v i p & .X.X.X.X.X.X.X.X.X.X.X.X.X.X.Xf %.,. .z ,.X.v O.X.b j V ^ u.W.[.M.F.C.;.;.%.v b O.X.Z E. X X X X X X X X}.v.;.t .X.X.X.X.X.X.X.X.X.X.X.X.X",
".X.X% +. .p x x z % .X.X.X.X.X.X.X.X.X.X.X.X.X.X.X.Xn S t p O.n j  .x / s.I.!.[. X!.J.F.A.A.w.;.;.S f f f x E. X X X X X X X X}.v.w.f .X.X.X.X.X.X.X.X.X.X.X.X.X",
".X.X% p v n p f % .X.X.X.X.X.X.X.X.X.X.X.X.X.X.X.X.X.X.X.X.XE.{.{.|.{.}. X X}.|.(.H.A.S.A.S.C.;.O.O.S b h l E. X X X X X X X X}.v.A.v .X.X.X.X.X.X.X.X.X.X.X.X.X",
".X.X.X& n t i .X.X.X.X.X.X.X.X.X.X.X.X.X.X.X.X.X.X.X.X.X.Xb. X X X X X X X_.P.G.S.A.Z.A.A.A.w.;.O.O. .g i 9  X X X X X X X X X~.s.A.b .X.X.X.X.X.X.X.X.X.X.X.X.X",
".X.X.X.X.X.X.X.X.X.X.X.X.X.X.X.X.X.X.X.X.X.X.X.X.X.X.X.XV. X X X X X X`.V.s.A.A.A.Z.C.A.A.w.;.O.O...g .X.X0  X X X X X X X X XB.D.A.f .X.X.X.X.X.X.X.X.X.X.X.X.X",
".X.X.X.X.X.X.X.X.X.X.X.X.X.X.X.X.X.X.X.X.X.X.X.X.X.X.Xl.}. X X X X X}.m.a.A.A.A.Z.;.Z.Z.w.;.O.X.b u .X.X.X0  X X X X X X X XW.s.Z.w.y .X.X.X.X.X.X.X.X.X.X.X.X.X",
".X.X.X.X.X.X.X.X.X.X.X.X.X.X.X.X.X.X.X.X.X.X.X.X.X.X.Xm.|.[.[.}.~.v.G.D.S.S.A.>.$.%.w.,.;.X.S f % .X.X.X.X> '. X X X X X X`.n.A.w. ..X.X.X.X.X.X.X.X.X.X.X.X.X.X",
".X.X.X.X.X.X.X.X.X.X.X.X.X.X.X.X.X.X.X.X.X.X.X.X.X.X.X..y.g.k.c.H.A.A.S.A.Z.;. .$.&.O.S b u .X.X.X.X.X.X.X@ B. X X X X X`.n.A.S.w.g .X.X.X.X.X.X.X.X.X.X.X.X.X.X",
".X.X.X.X.X.X.X.X.X.X.X.X.X.X.X.X.X.X.X.X.X.X.X.X.X.X.Xv ;.;.w.A.A.A.A.w.w.;.b n x p u $ .X.X.X.X.X.X.X.X.X.X[ }. X X XW.m.D.A.A.-..X.X.X.X.X.X.X.X.X.X.X.X.X.X.X",
".X.X.X.X.X.X.X.X.X.X.X.X.X.X.X.X.X.X.X.X.X.X.X.X.X.X.Xv %.;.;.Z.A.Z.w.;.%.b g u .X.X.X.X.X.X.X.X.X.X.X.X.X.Xq l. XW.M.6.t.S.A.A.b .X.X.X.X.X.X.X.X.X.X.X.X.X.X.X",
".X.X.X.X.X.X.X.X.X.X.X.X.X.X.X.X.X.X.X.X.X.X.X.X.X.X.X.XX.;.;.,.w.,.;.%.g u d .X.X.X.X.X.X.X.X.X.X.X.X.X.X.X.XF ;.e.0.;.C.A.A.,.g g .X.X.X.X.X.X.X.X.X.X.X.X.X.X",
".X.X.X.X.X.X.X.X.X.X.X.X.X.X.X.X.X.X.X.X.X.X.X.X.X.X.X.XS ,.;.;.;.-.O. .g % .X.X.X.X.X.X.X.X.X.X.X.X.X.X.X.X.X.Xb ;.;.;.,.A.S.>.O.w.X.f .X.X.X.X.X.X.X.X.X.X.X.X",
".X.X.X.X.X.X.X.X.X.X.X.X.X.X.X.X.X.X.X.X.X.X.X.X.X.X.Xi O.;.;.;.%...-.Z.w.n .X.X.X.X.X.X.X.X.X.X.X.X.X.X.X.X.X.Xr ..;.;.;.Z.A.w.;.A.A.+.b .X.X.X.X.X.X.X.X.X.X.X",
".X.X.X.X.X.X.X.X.X.X.X.X.X.X.X.X.X.X.X.X.X.X.X.X.X.X.Xv %.;.;.-.&.w.A.A.A.w.n .X.X.X.X.X.X.X.X.X.X.X.X.X.X.X.X.X.Xg %.;.;.w.A.A.,.A.A.A.&.f .X.X.X.X.X.X.X.X.X.X",
".X.X.X.X.X.X.X.X.X.X.X.X.X.X.X.X.X.X.X.X.X.X.X.X.X.X.X..;.;.;.;.w.S.A.A.A.S.&..X.X.X.X.X.X.X.X.X.X.X.X.X.X.X.X.X.Xg  .;.;.;.Z.A.A.A.A.A.Z. ..X.X.X.X.X.X.X.X.X.X",
".X.X.X.X.X.X.X.X.X.X.X.X.X.X.X.X.X.X.X.X.X.X.X.X.X.X.Xn ;.;.;.;.w.A.A.A.A.S.w.v .X.X.X.X.X.X.X.X.X.X.X.X.X.X.X.X.Xv ..%.;.;.;.Z.S.A.A.A.A.&..X.X.X.X.X.X.X.X.X.X",
".X.X.X.X.X.X.X.X.X.X.X.X.X.X.X.X.X.X.X.X.X.X.X.X.X.X.Xp ;.;.;.;.w.A.A.A.A.A.A.O..X.X.X.X.X.X.X.X.X.X.X.X.X.X.X.X.X.X .;.;.;.;.w.A.A.A.A.S.w....X.X.X.X.X.X.X.X.X",
".X.X.X.X.X.X.X.X.X.X.X.X.X.X.X.X.X.X.X.X.X.X.X.X.X.X.Xp %.;.;.;.;.w.S.A.A.A.A. ..X.X.X.X.X.X.X.X.X.X.X.X.X.X.X.X.X.Xv &.;.;.;.>.A.A.A.A.S.Z.;..X.X.X.X.X.X.X.X.X",
".X.X.X.X.X.X.X.X.X.X.X.X.X.X.X.X.X.X.X.X.X.X.X.X.X.X.X.X .;.;.;.;.w.A.A.A.A.w.v .X.X.X.X.X.X.X.X.X.X.X.X.X.X.X.X.X.X.XX.;.;.;.;.w.A.A.A.A.Z.;..X.X.X.X.X.X.X.X.X",
".X.X.X.X.X.X.X.X.X.X.X.X.X.X.X.X.X.X.X.X.X.X.X.X.X.X.X.Xb -.;.;.;.,.A.A.A.w....X.X.X.X.X.X.X.X.X.X.X.X.X.X.X.X.X.X.X.Xv %.;.;.;.w.A.A.A.S.C.$..X.X.X.X.X.X.X.X.X",
".X.X.X.X.X.X.X.X.X.X.X.X.X.X.X.X.X.X.X.X.X.X.X.X.X.X.X.X.X .;.;.;.;.Z.w.;.;.g .X.X.X.X.X.X.X.X.X.X.X.X.X.X.X.X.X.X.X.X.Xb %.;.;.;.w.A.S.S.w.O..X.X.X.X.X.X.X.X.X",
".X.X.X.X.X.X.X.X.X.X.X.X.X.X.X.X.X.X.X.X.X.X.X.X.X.X.X.X.Xf %.;.;.;.;.;.;.X.& .X.X.X.X.X.X.X.X.X.X.X.X.X.X.X.X.X.X.X.X.X.Xv O.;.;.;.w.S.S.Z.%..X.X.X.X.X.X.X.X.X",
".X.X.X.X.X.X.X.X.X.X.X.X.X.X.X.X.X.X.X.X.X.X.X.X.X.X.X.X.X.Xn ;.;.;.;.;.;.v .X.X.X.X.X.X.X.X.X.X.X.X.X.X.X.X.X.X.X.X.X.X.X.Xv  .%.;.;.Z.S.A.%..X.X.X.X.X.X.X.X.X",
".X.X.X.X.X.X.X.X.X.X.X.X.X.X.X.X.X.X.X.X.X.X.X.X.X.X.X.X.X.Xd +.;.;.;.;.X.& .X.X.X.X.X.X.X.X.X.X.X.X.X.X.X.X.X.X.X.X.X.X.X.X.X.Xp X.;.,.Z.A.;..X.X.X.X.X.X.X.X.X",
".X.X.X.X.X.X.X.X.X.X.X.X.X.X.X.X.X.X.X.X.X.X.X.X.X.X.X.X.X.X.X..,.;.;.;.s .X.X.X.X.X.X.X.X.X.X.X.X.X.X.X.X.X.X.X.X.X.X.X.X.X.X.X.X.XS ;.,.A.w.X..X.X.X.X.X.X.X.X",
".X.X.X.X.X.X.X.X.X.X.X.X.X.X.X.X.X.X.X.X.X.X.X.X.X.X.X.X.X.X.XX.:.;.;.%.t .X.X.X.X.X.X.X.X.X.X.X.X.X.X.X.X.X.X.X.X.X.X.X.X.X.X.X.X.Xu O.;.Z.Z.;.X..X.X.X.X.X.X.X",
".X.X.X.X.X.X.X.X.X.X.X.X.X.X.X.X.X.X.X.X.X.X.X.X.X.X.X.X.X.X.X .;.;.;.%.t .X.X.X.X.X.X.X.X.X.X.X.X.X.X.X.X.X.X.X.X.X.X.X.X.X.X.X.X.Xr  .;.w.A.;.-.n .X.X.X.X.X.X",
".X.X.X.X.X.X.X.X.X.X.X.X.X.X.X.X.X.X.X.X.X.X.X.X.X.X.X.X.Xf.(.6.=.-.;.&.g P .X.X.X.X.X.X.X.X.X.X.X.X.X.X.X.X.X.X.X.X.X.X.X.X.X.X.X.Xb O.&.0.Z.w.=.%.g .X.X.X.X.X",
".X.X.X.X.X.X.X.X.X.X.X.X.X.X.X.X.X.X.X.X.X.X.X.X.X.X.X.XN.~. Xb.9.O.&.;.X.8.v..X.X.X.X.X.X.X.X.X.X.X.X.X.X.X.X.X.X.X.X.X.X.X.X.X.X.XO.%.%.m.{.B.7.=. ..X.X.X.X.X",
".X.X.X.X.X.X.X.X.X.X.X.X.X.X.X.X.X.X.X.X.X.X.X.X.X.X.X X X XT.q.;.O.%.;.O.@.M.V..X.X.X.X.X.X.X.X.X.X.X.X.X.X.X.X.X.X.X.X.X.X.X.X.X.XX.@.C ~. X X`.6.%..X.X.X.X.X",
".X.X.X.X.X.X.X.X.X.X.X.X.X.X.X.X.X.X.X.X.X.X.X.X.X.X X X`.E.r.;.;.+.X.;.$.v q.B.B..X.X.X.X.X.X.X.X.X.X.X.X.X.X.X.X.X.X.X.X.X.X.X.X.Xu N f. X X X XR.B .X.X.X.X.X",
".X.X.X.X.X.X.X.X.X.X.X.X.X.X.X.X.X.X.X.X.X.X.X.Xz.[. X`.i.2.;.;.;.%.v $.x S ;.r.b..X.X.X.X.X.X.X.X.X.X.X.X.X.X.X.X.X.X.X.X.X.X.X.X.Xs / '. X X X X XE .X.X.X.X.X",
".X.X.X.X.X.X.X.X.X.X.X.X.X.X.X.X.X.X.X.X.X.XU f.`. XB.h.9.;.;.;.$. .t t z ;.;.;.6..X.X.X.X.X.X.X.X.X.X.X.X.X.X.X.X.X.X.X.X.X.X.X.X.Xx M. X X X X X XE.L .X.X.X.X",
".X.X.X.X.X.X.X.X.X.X.X.X.X.X.X.X.X.X.X.XW { E.`.'.P.q.;.;.;.%. .S X.-.-.;.;.;.;.%..X.X.X.X.X.X.X.X.X.X.X.X.X.X.X.X.X.X.X.X.X.X.X.X.XV '. X X X X X X}.} .X.X.X.X",
".X.X.X.X.X.X.X.X.X.X.X.X.X.X.X.X.X.X[ v.W.W.!.c.6.;.;.;.%. .g v n S S S ..X.X.S p .X.X.X.X.X.X.X.X.X.X.X.X.X.X.X.X.X.X.X.X.X.X.X.X.X} }. X X X X X X X`.` .X.X.X",
".X.X.X.X.X.X.X.X.X.X.X.X.X.X.X.XW g././.s.6.q.;.;.$. .v p t .X.X.X.X.X.X.X.X.X.X.X.X.X.X.X.X.X.X.X.X.X.X.X.X.X.X.X.X.X.X.X.X.X.X.XU B. X X X X X X X X X^..X.X.X",
".X.X.X.X.X.X.X.X.X.X.X.X.X.X.X- Z n b z u i y y y r .X.X.X.X.X.X.X.X.X.X.X.X.X.X.X.X.X.X.X.X.X.X.X.X.X.X.X.X.X.X.X.X.X.X.X.X.X.X.Xk. X X X X X X X X X X XE..X.X",
".X.X.X.X.X.X.X.X.X.X.X.X.X.X.X.X.X.X.X.X.X.X.X.X.X.X.X.X.X.X.X.X.X.X.X.X.X.X.X.X.X.X.X.X.X.X.X.X.X.X.X.X.X.X.X.X.X.X.X.X.X.X.X.X# E. X X X X X X X X X X X[.` .X",
".X.X.X.X.X.X.X.X.X.X.X.X.X.X.X.X.X.X.X.X.X.X.X.X.X.X.X.X.X.X.X.X.X.X.X.X.X.X.X.X.X.X.X.X.X.X.X.X.X.X.X.X.X.X.X.X.X.X.X.X.X.X.X.XX W T.}. X X X X X X X X XW.W .X",
".X.X.X.X.X.X.X.X.X.X.X.X.X.X.X.X.X.X.X.X.X.X.X.X.X.X.X.X.X.X.X.X.X.X.X.X.X.X.X.X.X.X.X.X.X.X.X.X.X.X.X.X.X.X.X.X.X.X.X.X.X.X.X.X.X@ 6 [ E. X X X X X X X`.' > .X",
".X.X.X.X.X.X.X.X.X.X.X.X.X.X.X.X.X.X.X.X.X.X.X.X.X.X.X.X.X.X.X.X.X.X.X.X.X.X.X.X.X.X.X.X.X.X.X.X.X.X.X.X.X.X.X.X.X.X.X.X.X.X.X.X.X.X.X@ 5 f.W. X X X}.N.Y .X.X.X",
".X.X.X.X.X.X.X.X.X.X.X.X.X.X.X.X.X.X.X.X.X.X.X.X.X.X.X.X.X.X.X.X.X.X.X.X.X.X.X.X.X.X.X.X.X.X.X.X.X.X.X.X.X.X.X.X.X.X.X.X.X.X.X.X.X.X.X.X.XO + > 4 e R .X.X.X.X.X"
};
