/* XPM */
static char *result[] = {
/* columns rows colors chars-per-pixel */
"80 80 185 2 ",
"   c #98916D",
".  c #92897E",
"X  c #9D9776",
"o  c #A6A47C",
"O  c #857596",
"+  c #877698",
"@  c #877899",
"#  c #8A7A9C",
"$  c #8D7DA1",
"%  c #9F998D",
"&  c #8F809F",
"*  c #928495",
"=  c #9F9696",
"-  c #9F9998",
";  c #A1998E",
":  c #A39B97",
">  c #A4A186",
",  c #A8A486",
"<  c #A7AF86",
"1  c #ACA983",
"2  c #AEAD8A",
"3  c #B2AC8D",
"4  c #AEB187",
"5  c #B2B38D",
"6  c #A4A193",
"7  c #AEAE95",
"8  c #A8A69A",
"9  c #B4AD94",
"0  c #AFB194",
"q  c #B4BC94",
"w  c #B5B098",
"e  c #B7BC9F",
"r  c #BABC9C",
"t  c #8F80A3",
"y  c #9284A5",
"u  c #9586AC",
"i  c #9789AC",
"p  c #9A8CAC",
"a  c #9C91A4",
"s  c #9E91AF",
"d  c #9789B0",
"f  c #9B8DB2",
"g  c #9E92B4",
"h  c #9F94B8",
"j  c #A197A6",
"k  c #A59DAB",
"l  c #A295B4",
"z  c #A49AB4",
"x  c #A89FB4",
"c  c #A296B9",
"v  c #A69BBB",
"b  c #A99DBC",
"n  c #A8A2AA",
"m  c #B0B0A1",
"M  c #B9B8A5",
"N  c #BCBEA4",
"B  c #B6B2AC",
"V  c #ACA3B4",
"C  c #ACA2BE",
"Z  c #B3ACB4",
"A  c #B0A5BD",
"S  c #B4ACBC",
"D  c #B9B5B7",
"F  c #BBBAB7",
"G  c #B9B2BC",
"H  c #C1BFBD",
"J  c #BCC49D",
"K  c #BFC6A3",
"L  c #C1C49C",
"P  c #C1C99F",
"I  c #C2C4A4",
"U  c #C3CBA4",
"Y  c #C1C6AA",
"T  c #C6CCAD",
"R  c #C8CEAB",
"E  c #C9D1A6",
"W  c #CCD4AC",
"Q  c #D2DAAF",
"!  c #C4C5B5",
"~  c #C9CDB4",
"^  c #C4C3BC",
"/  c #CCCDBC",
"(  c #CDD3B3",
")  c #CED2BA",
"_  c #D1D5B3",
"`  c #D2D9B5",
"'  c #D1D6B8",
"]  c #D5DBBB",
"[  c #D8DFBE",
"{  c #DBE2BD",
"}  c #AA9EC1",
"|  c #ADA3C2",
" . c #B1A6C4",
".. c #B4ABC5",
"X. c #B8AEC7",
"o. c #B2A6C8",
"O. c #B6ADC9",
"+. c #B8AFCB",
"@. c #B7B0C6",
"#. c #B9B2C6",
"$. c #BCB3CD",
"%. c #BEB8CA",
"&. c #BEB5D0",
"*. c #C1BDC4",
"=. c #C3BCCC",
"-. c #C0B7D1",
";. c #C5BDD6",
":. c #C7BED9",
">. c #C8BFD9",
",. c #C5C1C6",
"<. c #C9C6C7",
"1. c #C6C1CC",
"2. c #D0CDCC",
"3. c #D6D4C2",
"4. c #D7DBC2",
"5. c #D9DEC2",
"6. c #D4D4CB",
"7. c #DADCCC",
"8. c #C9C2D4",
"9. c #CECAD2",
"0. c #CCC4DD",
"q. c #CFC8DC",
"w. c #D1CDD4",
"e. c #D1C9DD",
"r. c #D5D3D2",
"t. c #D9D7D6",
"y. c #DBDBD2",
"u. c #D6D1DB",
"i. c #D9D5DE",
"p. c #DCDADC",
"a. c #DCE2C2",
"s. c #DEE3CB",
"d. c #DFE1D3",
"f. c #E0E7C6",
"g. c #E3EAC5",
"h. c #E1E5CD",
"j. c #E4EACC",
"k. c #E8EECE",
"l. c #E9F0CE",
"z. c #E2E5D4",
"x. c #E5EAD2",
"c. c #E9EED4",
"v. c #E4E4DA",
"b. c #E6E8DA",
"n. c #EAEEDC",
"m. c #ECF1D5",
"M. c #EDF2DB",
"N. c #F0F5DC",
"B. c #CFC7E0",
"V. c #D0C7E1",
"C. c #D5CDE5",
"Z. c #D6CEE8",
"A. c #D7D0E5",
"S. c #D9D3E3",
"D. c #DDD9E3",
"F. c #D9D1E9",
"G. c #DFD8EB",
"H. c #E1DDE9",
"J. c #E5E3E4",
"K. c #EBECE3",
"L. c #E6E2EA",
"P. c #E9E6ED",
"I. c #ECEAEC",
"U. c #EEF1E2",
"Y. c #EFF0E9",
"T. c #F2F6E2",
"R. c #F2F5E4",
"E. c #F4F8E3",
"W. c #F5F9E5",
"Q. c #F3F5EB",
"!. c #F6F9EB",
"~. c #F7FAEC",
"^. c #F8FBED",
"/. c #F1EFF4",
"(. c #F4F4F3",
"). c #F8F7F7",
"_. c #F7F8F0",
"`. c #F9FBF2",
"'. c #FAFCF3",
"]. c #FBFCF4",
"[. c #FCFDF7",
"{. c #F6F5FA",
"}. c #FDFDFA",
"|. c white",
" X c None",
/* pixels */
" X X X X X X X X X X X X X X X X X X X X X X X X X X X X X X X X X' a.T.|.[ n  X X X X X X X X X X X X X X X X X X X X X X X X X X X X X X X X X X X X X X X X X",
" X X X X X X X X X X X X X X X X X X X X X X X X X X X X X X[ c.|.|.|.|.|.{.0.|  X X X X X X X X X X X X X X X X X X X X X X X X X X X X X X X X X X X X X X X X",
" X X X X X X X X X X X X X X X X X X X X X X X X X X X X Xs.`.|.|.|.|.|.|.).p.0.f  X X X X X X X X X X X X X X X X X X X X X X X X X X X X X X X X X X X X X X X",
" X X X X X X X X X X X X X X X X X X X X X X X X X X X X7.|.|.|.|.|.|.|.|.n.S.V. . X X X X X X X X X X X X X X X X X X X X X X X X X X X X X X X X X X X X X X X",
" X X X X X X X X X X X X X X X X X X X X X X X X X X X X!.|.|.|.|.|.|.|.U.S.Z.Z.*.J U U J  X X X X X X X X X X X X X X X X X X X X X X X X X X X X X X X X X X X",
" X X X X X X X X X X X X X X X X X X X X X X X X X X X4.|.|.|.|.|.|.'.T.i.Z.Z.C.S.}.}.}.}.|.|.T.5.7. X X X X X X X X X X X X X X X X X X X X X X X X X X X X X X",
" X X X X X X X X X X X X X X X X X X X X X X X X X X Xh.|.|.|.~.E.E.b.p.Z.Z.Z.C.w.'.|.|.|.|.|.|.|.|.R.h.a. X X X X X X X X X X X X X X X X X X X X X X X X X X X",
" X X X X X X X X X X X X X X X X X X X X X X X X X X X7.N.M.M.v.p.p.A.Z.Z.Z.Z.V...b.T.|.|.|.|.|.|.|.|.|.'.K.x.g.U <  X X X X X X X X X X X X X X X X X X X X X X",
" X X X X X X X X X X X X X X X X X X X X X X X X X X X0.i.i.i.e.0.Z.Z.Z.Z.Z.Z.;.g q.i.c.Q.}.|.|.|.|.|.|.|.|.}.`.Q.x.( q  X X X X X X X X X X X X X X X X X X X X",
" X X X X X X X X X X X X X X X X X X X X X X X X X X X-.Z.Z.;.. = V.Z.Z.Z.Z.Z.| c +.0.C.S.z.K.{.`.}.|.].|.|.|.|.|.|.}.Q.f. X X X X X X X X X X X X X X X X X X X",
" X X X X X X X X X X X X X X X X X X X X X X X X X X X=.V.Z.G : &.Z.Z.Z.Z.V.;.p c #.$.-.0.Z.Z.A.d.K.K.!.|.|.|.|.|.|.|.|.|.c.J  X X X X X X X X X X X X X X X X X",
" X X X X X X X X X X X X X X X X X X X X X X X X Xh.n.r.$.Z.Z.F.Z.Z.Z.V.0.$.g g f O.;.$.$.;.V.Z.Z.Z.) }.|.|.|.|.|.|.|.|.|.|.h.q  X X X X X X X X X X X X X X X X",
" X X X X X X X X X X X X X X X X X X X X X X X XM.}.|.Y.S ;.Z.Z.Z.0...f  .| u h g | O.;.-.$.$.:.Z.0.N a.c.M.M.N.|.|.|.|.|.|.}.a.o  X X X X X X X X X X X X X X X",
" X X X X X X X X X X X X X X X X X X X X X X Xm.[.|.|.|.b.S -.:.O.| +.c C y u d g l +.v $.;.;.$.$.! a.`.].[.[.}.|.|.|.|.|.|.|.}._  X X X X X X X X X X X X X X X",
" X X X X X X X X X X X X X X X X X X X X X X XQ.|.|.|.|.|.b. .k p $.;.C y $ u u c y O. .v O.;.;.^ { [.|.|.|.|.|.|.|.|.|.|.|.|.|.'.`  X X X X X X X X X X X X X X",
" X X X X X X X X X X X X X X X X X X X X X X X|.|.|.|.|.|.|.[.y.l z z c l u $ $ # y $.;. .v b C ( '.|.|.|.|.|.|.|.|.|.|.|.|.|.|.|.`.s. X X X X X X X X X X X X X",
" X X X X X X X X X X X X X X X X X X X X X X X].|.|.|.|.|.N.z.8.$.C  .$.;.$. . .C O.;.;.;.-.O...( ~.|.|.|.|.|.|.|.|.|.|.|.|.|.|.|.|.|.M. X X X X X X X X X X X X",
" X X X X X X X X X X X X X X X X X X X X X X XU.}.}.'.c.x.9.8.;.;.>.;.;.;.;.>.>.>.;.;.;.;.;.;.;.e ] x.c.c.c.c.c.c.c.x.G.G.H.!.|.|.|.|.|.x. X X X X X X X X X X X",
" X X X X X X X X X X X X X X X X X X X X X X X~ h.h.7.8.8.;.;.;.;.;.$.;.;.;.;.;.;.;.;.;.;.;.;.;.=.;.C.A.A.A.A.A.A.A.Z.C.S.U.}.W.|.|.|.|.[.)  X X X X X X X X X X",
" X X X X X X X X X X X X X X X X X X X X X XF @.;.;.;.;.;.;.;.;.$.O.-.;.;.;.;.;.;.-.;.;.;.;.;.;.;.-.;.V.Z.Z.Z.Z.Z.V.0.V.p.R.j.x.M.W.!.|.|._.(  X X X X X X X X X",
" X X X X X X X X X X X X X X X X X X X X X[ n.6.| $.;.;.;.;.+...| O.;.;.;.;.;.;.-.#.;.;.;.;.;.;.;.;.$.$.8.0.0.0.0.0.V.V.H E j.n.M.W.!.|.|.|.n. X X X X X X X X X",
" X X X X X X X X X X X X X X X X X X X X] Q.|.`.4.G g v | b d d | #.-.=.;.;.;.;.-.| ..$.;.;.;.;.;.;.$... .} g l v ;.=.w ( K.}.|.|.|.|.|.|.|.}.]  X X X X X X X X",
" X X X X X X X X X X X X X X XX 3. X X X!.|.|.].d.| h C g $ # $ g C A 9 B O.O.O.O...g b  .O.#.O.O.O.O.O...c g | g . r c.}.|.|.|.|.|.|.|.|.|.|.Q.U  X X X X X X X",
" X X X X X X X X X X X X X X X  y. X Xn.|.|.^.z.;.| b l b | O. .c  Xs K.n.^ V ..| h f f f c b |  .| ....| v O...: 4 x.|.|.|.|.|.|.|.|.|.|.|.|.|.x.T  X X X X X X",
" X X X X X X X X X X X X X X X; G.b.{ |.^.M.6.8.$.O.$.O.O.O.O.C t  X XY Q.c.7 - f g v b b g f c b b b C | O.k 6 I M.}.|.|.|.|.|.|.|.|.|.|.|.|.|.W.f. X X X X X X",
" X X X X X X X X X X X X X X8 O.H.x.L m.y.9.;.;.-.;.;.-.#.O.O.c  X X X X( Q.K.7.m 6 z b b b b b b b v v b % 0 W Q.|.|.|.|.|.|.|.|.|.|.|.|.].M.J.i.p. X X X X X X",
" X X X X X X X X X X X X Xs.*. .B.6.> =.;.;.;.;.;.;.;.;.;.#.| y  X X X X XN [.|.Q.Y.h.Y , k z z z z k > M E m.}.|.|.|.|.|.|.|.|.|.|.|.}.T.x.S.A.0.;. X X X X X X",
" X X X X X X X X X X X X' `.=.C ;.;...v ;.;.;.;.;.;.;.;.-.X.c  X X X X X XU n.|.|.|.|.!.k.~ e 9 9 N 4.M.}.|.|.|.|.|.|.|.|.|.|.|.|.^.!.x.p.Z.Z.C.O.y  X X X X X X",
" X X X X X X X X X X Xs.].P.*.| ;.;.#.s ;.;.;.;.;.;.;.;.$.| i  X X X X XP M.|.|.|.|.|.|.|.|.|.|.|.|.|.|.|.|.|.|.|.|.|.|.|.!.W.W.U.z.y.Z.Z.Z.Z...p  X X X X X X X",
" X X X X X X X X X Xz.'.p...| ..$.;.O.c ;.;.;.;.;.;.;.-. .f  X X X X X2 m.|.|.|.|.|.|.|.|.|.|.!.}.|.|.|.|.|.|.|.|.|.|.`.M.p.p.p.i.Z.Z.Z.Z.0. .#  X X X X X X X X",
" X X X X X X X X X7._.6.l v c O.O.$.v O.;.;.;.;.;.;.-...g  X X X X XX.2.R.W.|.|.|.|.|.|.|.|.|.p.c.m.m.m.m.m.m.J.G.G.G.D.i.Z.Z.Z.Z.Z.Z.B.$.g #  X X X X X X X X X",
" X X X X X X X X4.Q.M X.c z p O...v c v C +.$.$.O.C f #  X X X X XO.V.-.$.).}.}.|.|.|.|.|.|.R.1.;.8.8.q.C.S.S.Z.Z.Z.Z.Z.Z.Z.Z.Z.Z.V.&.b $  X X X X X X X X X X X",
" X X X X X X X1 Q.M V z C C y ..$.;.g O O # u u y  X X X X X Xp &.V.&.+.V.S.v._.|.|.|.|.|.Q.p. .p c b b b +.8.0.Z.F.F.F.F.Z.V.:.+.c u  X X X X X X X X X X X X X",
" X X X X X X XW / j z l C C p ..;.$.u  X X X X X X X X X X Xg ;.>...$.0. . .J.^.|.|.|.].N.p.0.p #.;.;.O.z b z p c | o.o. .b s g  X X X X X X X X X X X X X X X X",
" X X X X X X XS k z C z l | f ..-.b  X X X X X X X X X X X .:.&.v :.;.| $.u.f.{ ].|.T.b.i.0.v z ;.;.;.;.-.0.;.^ ~ / / <.&.g  X X X X X X X X X X X X X X X X X X",
" X X X X X Xl v v v v p C p # u i  X X X X X X X X X X X$.;.C l :.;.| ;.V.-.x / c.h.w.=.v p b $.;.;.;.;.$.u.c.^.}.}.[.}.U.9.|  X X X X X X X X X X X X X X X X X",
" X X X X Xl $.b l v p p O  X X X X X X X X X X X X X X X$.v  .;.| c ;.-...C :.;.%.G V b -.$.| $.;.;.;.$.1.n.|.|.|.|.|.|.|.n.=. X X X X X X X X X X X X X X X X X",
" X X X X# C c c l l s  X X X X X X X X X X X X X X X X Xv 8.$.b ..;.|  .$.O.V D ,.k.z.V.-.O...| $.$.$.%.b.}.|.|.|.|.|.|.|.}.H.}  X X X X X X X X X X X X X X X X",
" X X X X Xt b v i u  X X X X X X X X X X X X X X X X X XO.z l $. .u v | D <.p.!.[.b.A.V.$.O.O. .| O.| G ~.|.|.|.|.|.|.|.|.|.Q.=. X X X X X X X X X X X X X X X X",
" X X X X X Xp y  X X X X X X X X X X X X X X X X X X X X X/ I.(.L.L./.P.I.[.|.}.b.A.C.;.$.-.$.O.c y $ Z !.|.|.|.|.|.|.|.|.|.}.z.C  X X X X X X X X X X X X X X X",
" X X X X X X X X X X X X X X X X X X X X X X X X X X X Xa.`.|.|.|.|.|.|.|.|.R.x.S.Z.0.>.;.;.$. .f d  X XM.|.|.|.|.|.|.|.|.|.|.M.S  X X X X X X X X X X X X X X X",
" X X X X X X X X X X X X X X X X X X X X X X X X X X X XU.|.|.|.|.|.|.|.'.T.p.Z.Z.Z.Z.0.;.$...h  X X X Xf.).|.|.|.|.|.|.|.|.|.M... X X X X X X X X X X X X X X X",
" X X X X X X X X X X X X X X X X X X X X X X X X X X Xj.].|.|.|.|.|.|.'.b.p.V.C.Z.Z.0.;.-.O.c #  X X X XU M.|.|.|.|.|.|.|.|.|.M.@. X X X X X X X X X X X X X X X",
" X X X X X X X X X X X X X X X X X X X X X X X X X XQ m.|.|.|.|.|.|.}.b.A.C.>.V.Z.B.;.-.O.v #  X X X X X Xa.}.|.|.|.|.|.|.|.|.M.$. X X X X X X X X X X X X X X X",
" X X X X X X X X X X X X X X X X X X X X X X X X X Xf.}.|.|.|.|.}.T.D.A.Z.8.$.;.8.;.+.| g  X X X X X X X X X{ !.|.|.|.|.|.|.|.M.8.v  X X X X X X X X X X X X X X",
" X X X X X X X X X X X X X X X X X X X X X X X X X{ '.|.|.|.}.!.x.p.Z.Z.8.O.$.;.O.b c  X X X X X X X X X X X X` R.}.|.|.|.'._.v.q.v  X X X X X X X X X X X X X X",
" X X X X X X X X X X X X X X X X X X X X X X X X X^ J.W.W.W.n.y.Z.Z.Z.0.O.c | c g #  X X X X X X X X X X X X X XE c.W.W.K.y.9.:.C.o.u  X X X X X X X X X X X X X",
" X X X X X X X X X X X X X X X X X X X X X X X X X .;.2.2.r.S.Z.Z.Z.0.+.l f y  X X X X X X X X X X X X X X X X Xk *.,.2.8.;.;.;.Z.;.g  X X X X X X X X X X X X X",
" X X X X X X X X X X X X X X X X X X X X X X X X Xb ;.;.;.;.0.Z.Z.0.&.l y  X X X X X X X X X X X X X X X X X X X Xv &.O.;.;.;.;.0.0.| l  X X X X X X X X X X X X",
" X X X X X X X X X X X X X X X X X X X X X X X X Xc $.;.;.;.;.8.0.;.O.c #  X X X X X X X X X X X X X X X X X X X X X..$.+.;.;.;.8.Z.;.8. . X X X X X X X X X X X",
" X X X X X X X X X X X X X X X X X X X X X X X X Xu | ;.;.;.;.;.;.-.V.8.b  X X X X X X X X X X X X X X X X X X X X Xf $.$.$.;.;.8.C.V.Z.0.c  X X X X X X X X X X",
" X X X X X X X X X X X X X X X X X X X X X X X X Xu | $.;.;.;.;.;.V.Z.Z.0.|  X X X X X X X X X X X X X X X X X X X Xd } &.-.;.;.;.0.Z.Z.Z.&. X X X X X X X X X X",
" X X X X X X X X X X X X X X X X X X X X X X X X Xc $.$.-.;.;.;.:.V.Z.Z.Z.;. X X X X X X X X X X X X X X X X X X X Xf $.;.;.;.;.;.>.Z.Z.Z.>. X X X X X X X X X X",
" X X X X X X X X X X X X X X X X X X X X X X X X Xb &.;.;.;.;.;.;.;.V.Z.Z.>. X X X X X X X X X X X X X X X X X X X Xg ;.;.;.;.;.;.;.V.Z.Z.0.b  X X X X X X X X X",
" X X X X X X X X X X X X X X X X X X X X X X X X Xc &.;.;.;.;.;.;.;.>.C.Z.0.b  X X X X X X X X X X X X X X X X X X X X;.;.;.;.;.;.;.8.Z.Z.B.$. X X X X X X X X X",
" X X X X X X X X X X X X X X X X X X X X X X X X X$ ..;.;.;.;.;.;.;.;.8.C.:.b  X X X X X X X X X X X X X X X X X X X X-.;.;.;.;.;.;.>.Z.Z.V.;. X X X X X X X X X",
" X X X X X X X X X X X X X X X X X X X X X X X X X XC ;.;.;.;.;.;.;.;.;.8...f  X X X X X X X X X X X X X X X X X X X XO.;.;.;.;.;.;.>.Z.Z.V.;. X X X X X X X X X",
" X X X X X X X X X X X X X X X X X X X X X X X X X Xf +.;.;.;.;.;.;.;.;.;.v  X X X X X X X X X X X X X X X X X X X X Xc &.;.;.;.;.;.;.0.Z.B.#. X X X X X X X X X",
" X X X X X X X X X X X X X X X X X X X X X X X X X X Xc $.;.;.;.;.;.;.;.#.h  X X X X X X X X X X X X X X X X X X X X X Xv -.;.;.;.;.;.0.Z.0... X X X X X X X X X",
" X X X X X X X X X X X X X X X X X X X X X X X X X X X XC ;.;.;.;.;.;.;.v @  X X X X X X X X X X X X X X X X X X X X X X Xb $.;.;.;.;.8.Z.0.b  X X X X X X X X X",
" X X X X X X X X X X X X X X X X X X X X X X X X X X X Xg -.;.;.;.;.;.b &  X X X X X X X X X X X X X X X X X X X X X X X X Xc | $.;.;.;.V.>.g  X X X X X X X X X",
" X X X X X X X X X X X X X X X X X X X X X X X X X X X X# ..;.;.;.;.O.u  X X X X X X X X X X X X X X X X X X X X X X X X X X X Xv -.;.;.V.:.u  X X X X X X X X X",
" X X X X X X X X X X X X X X X X X X X X X X X X X X X X Xl ;.;.;.;.b +  X X X X X X X X X X X X X X X X X X X X X X X X X X X X X..;.;.V.0.v  X X X X X X X X X",
" X X X X X X X X X X X X X X X X X X X X X X X X X X X X Xy -.;.;.;.b O  X X X X X X X X X X X X X X X X X X X X X X X X X X X X Xp -.;.0.B.b  X X X X X X X X X",
" X X X X X X X X X X X X X X X X X X X X X X X X X X X X Xu $.;.;.;.+.*  X X X X X X X X X X X X X X X X X X X X X X X X X X X X Xy $.-.;.0.O.c  X X X X X X X X",
" X X X X X X X X X X X X X X X X X X X X X X X X X X X X Xz ..-.;.;.;.Z 1  X X X X X X X X X X X X X X X X X X X X X X X X X X X Xb -.$.;.0...b  X X X X X X X X",
" X X X X X X X X X X X X X X X X X X X X X X X X X X XR a.7.-.;.;.;.;...B U  X X X X X X X X X X X X X X X X X X X X X X X X X X XO.-.@.8.Z.V... X X X X X X X X",
" X X X X X X X X X X X X X X X X X X X X X X X X X XN.[.}.x.;.;.-.$.;. ...J.[  X X X X X X X X X X X X X X X X X X X X X X X X X..O.@.a.M.[.~.(  X X X X X X X X",
" X X X X X X X X X X X X X X X X X X X X X X X Xf.m.}.|.|.x.;.;.;. .-... .0.7.J  X X X X X X X X X X X X X X X X X X X X X X X X$...<.!.|.|.|.T.U  X X X X X X X",
" X X X X X X X X X X X X X X X X X X X X X X{ M.^.|.|.|.Q.r.;.;.;. .$.|  .;.9.~  X X X X X X X X X X X X X X X X X X X X X X X XO.#.5.|.|.|.|.|.n. X X X X X X X",
" X X X X X X X X X X X X X X X X X X X XE c.~.|.|.|.|.~.r.;.;.;.-.O.c p $.;.;... X X X X X X X X X X X X X X X X X X X X X X X Xv ;.z.|.|.|.|.|.}.M.U  X X X X X",
" X X X X X X X X X X X X X X X X XK ] l.R.}.|.|.|.'.c.y.;.;.;.-.O.O.$.#.;.;.;. . X X X X X X X X X X X X X X X X X X X X X X X X X^ m.|.|.|.|.|.|.|.j.P  X X X X",
" X X X X X X X X X X X X X X X X` ~.|.|.|.|.|.'.U.7.8.;.;.;...s p c $.-.;.;.;.b  X X X X X X X X X X X X X X X X X X X X X X X X X! '.|.|.|.|.|.|.|.}.c.[  X X X",
" X X X X X X X X X X X X X X X~ N.|.|.].T.E.K.t.w.;.;.-.| l y  X X# y b O.O.| f  X X X X X X X X X X X X X X X X X X X X X X X X XU [.|.|.|.|.|.|.|.|.|.R. X X X",
" X X X X X X X X X X X X X X Xj S -.-.%.Z V a i i p p y $  X X X X X X X X X X X X X X X X X X X X X X X X X X X X X X X X X X X XW [.|.|.|.|.|.|.|.|.|.|.!. X X",
" X X X X X X X X X X X X X X X X X X X X X X X X X X X X X X X X X X X X X X X X X X X X X X X X X X X X X X X X X X X X X X X X XW '.|.|.|.|.|.|.|.|.|.|.|.z. X",
" X X X X X X X X X X X X X X X X X X X X X X X X X X X X X X X X X X X X X X X X X X X X X X X X X X X X X X X X X X X X X X X X X2 _ U.`.|.|.|.|.|.|.|.|.|.]. X",
" X X X X X X X X X X X X X X X X X X X X X X X X X X X X X X X X X X X X X X X X X X X X X X X X X X X X X X X X X X X X X X X X X X  > L n.|.|.|.|.|.|.|.|.j. X",
" X X X X X X X X X X X X X X X X X X X X X X X X X X X X X X X X X X X X X X X X X X X X X X X X X X X X X X X X X X X X X X X X X X X X X5 ~ c.}.|.|.|.|.c.U  X",
" X X X X X X X X X X X X X X X X X X X X X X X X X X X X X X X X X X X X X X X X X X X X X X X X X X X X X X X X X X X X X X X X X X X X X X XX , 3 I T 7  X X X"
};
